# Blender v2.75 (sub 0) OBJ File: 'Empty.blend'
# www.blender.org
mtllib ADDON_MAYA_PILLAR_02.mtl
o ADDON_MAYA_PILLAR_02
v -0.391982 0.144746 0.194873
v 0.709463 -1.268113 0.668799
v -0.712334 -1.189421 -0.723252
v -0.259482 1.250183 -0.456260
v 0.337901 1.296782 0.077275
v -0.746552 -1.314729 0.665342
v 0.779033 -1.181294 -0.613291
v 0.736963 0.111966 0.723232
v 0.721182 -0.071772 -0.612627
v -0.712334 0.088169 -0.723252
v -0.258662 1.314751 0.241631
v 0.308799 0.082354 0.196318
v -0.250420 0.096939 -0.357510
v -0.779052 0.088169 0.612588
v 0.303994 0.082354 -0.208291
v 0.305557 1.278848 -0.326944
v -0.039209 0.161829 0.392275
v -0.435615 1.276831 -0.097783
v 0.146104 1.310337 0.252490
v -0.396787 0.109859 -0.208233
v 0.154151 0.082354 -0.354619
v -0.034521 1.257886 -0.507764
v -0.395185 1.259531 -0.312764
v 0.220401 0.093882 -0.638115
v 0.360596 0.082354 -0.006631
v -0.242138 0.157364 0.340654
v -0.448584 0.127359 -0.006026
v -0.061513 1.310127 0.300342
v 0.162432 0.156948 0.335869
v 0.373369 1.282364 -0.128233
v -0.048779 0.082354 -0.406416
v 0.145283 1.255078 -0.446201
v 0.235401 0.093882 0.628603
v 0.219580 -1.183711 -0.707217
v -0.362842 1.313335 0.088349
v -0.291162 -1.186252 -0.692725
v -0.275381 0.091338 0.643095
v -0.291162 0.091338 -0.692725
v -0.042451 1.283785 -0.110225
vt 0.613301 -0.733949
vt 0.613301 -0.222912
vt 0.408668 -0.221895
vt 0.393025 -0.222912
vt 0.204547 -0.785339
vt 0.786957 -0.766692
vt 0.239888 -0.656949
vt 0.173066 -0.659322
vt 0.172994 -0.999500
vt 0.482437 -0.661774
vt 0.393028 -0.661393
vt 0.394949 -0.999500
vt 1.556962 -0.735216
vt 2.112400 -0.785339
vt 2.091300 -0.224180
vt -0.601210 -0.288156
vt -1.135556 -0.214661
vt -1.113779 -0.766692
vt 0.999770 -0.000291
vt 0.575972 -0.000291
vt 0.766847 -0.160823
vt 0.597312 -0.221788
vt -0.601232 -0.731343
vt 0.411912 -0.732932
vt 1.556633 -0.224478
vt 0.640949 -0.313898
vt 0.566000 -0.210889
vt 0.546761 -0.403609
vt 0.836855 -0.660843
vt 0.747006 -0.662113
vt 0.756557 -0.999500
vt 0.354372 -0.415842
vt 0.338204 -0.502115
vt 0.495464 -0.497397
vt 0.846379 -0.999500
vt 0.934226 -0.999500
vt 0.941927 -0.660373
vt 0.831027 -0.181271
vt 0.880373 -0.237158
vt 0.244833 -0.999500
vt 0.655688 -0.237144
vt 0.766847 -0.466090
vt 0.703606 -0.457902
vt 0.535195 -0.593466
vt 0.479719 -0.999500
vt 0.958993 -0.593466
vt 0.893982 -0.313356
vt 0.970559 -0.403610
vt 0.967875 -0.210889
vt -0.065774 -0.999500
vt 0.014854 -0.994489
vt 0.022927 -0.659391
vt 0.100778 -0.655398
vt 0.487846 -0.661921
vt 0.570887 -0.642862
vt 0.664562 -0.999500
vt 0.878006 -0.389768
vt 0.367311 -0.577551
vt 0.408985 -0.638679
vt 0.658743 -0.659280
vt 0.574693 -0.655823
vt 0.571031 -0.999500
vt 0.647606 -0.572568
vt 0.317526 -0.999500
vt 0.655688 -0.389768
vt 0.098405 -0.999500
vt 0.700429 -0.181405
vt 0.320540 -0.660496
vt 0.498637 -0.338079
vt 0.408655 -0.358338
vt 0.208361 -0.288156
vt 0.831530 -0.437272
vt -0.058073 -0.660373
vt 0.661798 -0.490174
vt 0.640536 -0.298043
vt 0.634667 -0.410863
vt 0.797957 -0.214661
vt 0.963655 -0.192018
vt 0.183706 -0.730779
vt 0.781764 -0.735216
vt 0.191545 -0.224180
vt 0.781764 -0.224180
vt 0.570557 -0.362519
vn 0.106100 0.000000 -0.994400
vn -0.002900 0.016800 0.999900
vn 0.322100 -0.071300 -0.944000
vn -0.982900 -0.015300 -0.183600
vn -0.999300 -0.024200 -0.026800
vn 0.999800 -0.019600 -0.009100
vn 0.187200 0.972900 -0.136000
vn 0.028100 0.039300 0.998800
vn 0.997000 0.051900 0.057600
vn -0.028600 0.054000 -0.998100
vn -0.998800 0.000000 -0.049900
vn -0.009100 0.999200 0.039100
vn 0.223800 0.082100 0.971200
vn -0.020300 0.996300 -0.084000
vn 0.703000 0.052700 0.709200
vn 0.241100 0.938100 -0.248600
vn 0.246400 -0.086200 -0.965300
vn -0.009800 0.999200 0.038300
vn 0.050900 0.996000 -0.073200
vn -0.968900 -0.008800 -0.247400
vn -0.129700 0.991500 -0.006500
vn 0.003000 0.962000 0.273100
vn -0.052600 0.998500 -0.013400
vn 0.968800 0.014700 0.247300
vn 0.945800 -0.042700 -0.322000
vn -0.015900 0.997800 -0.064800
vn -0.247400 0.072500 0.966200
vn -0.073600 0.976000 0.205000
vn 0.060700 0.996900 -0.050400
vn -0.825200 0.071600 0.560200
vn 0.675600 0.062700 0.734600
vn 0.002600 0.997200 -0.074300
vn -0.715300 -0.062300 -0.696000
vn 0.027800 0.997900 -0.059100
vn 0.697800 -0.050500 -0.714500
vn 0.179200 0.966500 -0.183500
vn -0.219800 -0.081100 -0.972200
vn -0.049200 0.996600 -0.065900
vn -0.727100 -0.064200 -0.683500
vn -0.020200 0.996300 -0.084000
vn 0.068500 0.053800 -0.996200
vn 0.307100 0.945300 0.110200
vn 0.962400 -0.028000 -0.270100
vn 0.278100 0.957400 -0.078000
vn -0.698600 0.051100 0.713700
vn -0.112800 0.993200 0.030000
vn -0.962500 0.048300 0.267000
vn -0.180600 0.983000 -0.034200
vn -0.282900 0.077800 0.956000
vn 0.041900 0.997200 -0.062000
vn 0.270300 0.073200 0.960000
vn 0.077300 0.978400 0.191500
vn 0.985300 -0.006900 0.170500
vn 0.000400 0.997600 -0.069900
vn -0.240600 -0.084700 -0.966900
vn 0.066200 0.997500 -0.024700
vn 0.602600 -0.079500 -0.794000
vn 0.002600 0.999800 -0.018600
vn -0.184100 -0.035100 0.982300
vn -0.078100 0.970400 0.228500
vn 0.165500 0.009200 -0.986200
vn -0.933200 0.039000 0.357200
vn -0.023200 0.982700 -0.183700
vn 0.072300 0.000000 -0.997400
vn -0.060600 0.036100 0.997500
vn -0.018900 0.977200 0.211300
vn -0.006400 0.999900 -0.015900
vn -0.059300 0.991300 -0.117800
vn 0.037600 0.997200 -0.064200
usemtl NW_SEQ_MAYA_WALL_11
s off
f 36/1/1 38/2/1 24/3/1
f 37/4/2 6/5/2 2/6/2
f 22/7/3 32/8/3 21/9/3
f 18/10/4 23/11/4 20/12/4
f 3/13/5 6/14/5 14/15/5
f 9/16/6 8/17/6 2/18/6
f 8/19/7 9/20/7 25/21/7
f 2/6/8 33/22/8 37/4/8
f 2/18/9 7/23/9 9/16/9
f 24/3/10 34/24/10 36/1/10
f 14/15/11 10/25/11 3/13/11
f 31/26/12 24/27/12 38/28/12
f 19/29/13 28/30/13 17/31/13
f 23/32/14 18/33/14 39/34/14
f 29/35/15 12/36/15 5/37/15
f 8/19/16 12/38/16 29/39/16
f 21/9/17 31/40/17 22/7/17
f 21/41/18 24/27/18 31/26/18
f 27/42/19 20/43/19 10/44/19
f 20/12/20 27/45/20 18/10/20
f 27/42/21 10/44/21 14/46/21
f 17/47/22 37/48/22 33/49/22
f 25/21/23 12/38/23 8/19/23
f 12/50/24 25/51/24 30/52/24
f 16/53/25 30/52/25 25/51/25
f 28/54/26 19/55/26 39/34/26
f 26/56/27 17/31/27 28/30/27
f 26/57/28 37/48/28 17/47/28
f 35/58/29 11/59/29 39/34/29
f 11/60/30 35/61/30 1/62/30
f 5/37/31 19/29/31 29/35/31
f 19/55/32 5/63/32 39/34/32
f 13/64/33 20/12/33 23/11/33
f 13/65/34 10/44/34 20/43/34
f 15/66/35 21/9/35 32/8/35
f 21/41/36 15/67/36 9/20/36
f 4/68/37 22/7/37 31/40/37
f 22/69/38 4/70/38 39/34/38
f 23/11/39 4/68/39 13/64/39
f 4/70/40 23/32/40 39/34/40
f 34/24/41 24/3/41 9/71/41
f 21/41/42 9/20/42 24/27/42
f 25/51/43 15/66/43 16/53/43
f 25/21/44 9/20/44 15/67/44
f 1/62/45 26/56/45 11/60/45
f 26/57/46 1/72/46 14/46/46
f 27/45/47 1/62/47 35/61/47
f 27/42/48 14/46/48 1/72/48
f 28/30/49 11/60/49 26/56/49
f 11/59/50 28/54/50 39/34/50
f 17/31/51 29/35/51 19/29/51
f 33/49/52 29/39/52 17/47/52
f 30/52/53 5/73/53 12/50/53
f 5/63/54 30/74/54 39/34/54
f 31/40/55 13/64/55 4/68/55
f 13/65/56 31/75/56 38/28/56
f 32/8/57 16/53/57 15/66/57
f 30/74/58 16/76/58 39/34/58
f 8/77/59 33/22/59 2/6/59
f 29/39/60 33/78/60 8/19/60
f 9/71/61 7/79/61 34/24/61
f 35/61/62 18/10/62 27/45/62
f 18/33/63 35/58/63 39/34/63
f 38/2/64 36/1/64 3/80/64
f 37/4/65 14/81/65 6/5/65
f 26/57/66 14/46/66 37/48/66
f 3/80/64 10/82/64 38/2/64
f 13/65/67 38/28/67 10/44/67
f 16/76/68 32/83/68 39/34/68
f 32/83/69 22/69/69 39/34/69
