# Blender v2.75 (sub 0) OBJ File: 'Empty.blend'
# www.blender.org
mtllib ADDON_GOLDMINE_BRIDGE.mtl
o ADDON_GOLDMINE_BRIDGE
v 0.687904 -0.694608 0.511680
v 1.045759 -0.755080 -2.641395
v 1.245617 -0.216491 2.325493
v -0.653781 -0.845825 -2.470677
v -0.531769 -0.415424 2.429277
v -1.167710 -0.522954 2.382705
v -1.244104 -0.201091 2.951979
v -1.226977 -0.899053 -1.644063
v -1.843941 -0.397939 2.976580
v 0.192436 -0.376526 2.420190
v -0.116481 -1.035894 -2.365713
v -0.406571 -0.379729 2.463969
v -0.076311 -0.860356 -2.148153
v 0.763360 -0.520750 2.140804
v 0.476803 -0.981569 -2.184907
v -1.181388 -0.953355 -2.462435
v 0.600432 -1.053668 -2.591099
v 0.257521 -0.596375 2.087939
v -0.615801 -1.039098 -2.339844
v 0.757567 -0.320657 2.356426
v -1.721863 -0.831391 -1.666638
v -1.738990 -0.133429 2.929404
v 0.557709 -0.859246 -2.610462
v -0.637806 -0.638903 -0.021766
v -0.689368 -1.041909 -2.453806
v 1.088482 -0.949502 -2.622032
v 1.288340 -0.410913 2.344856
v -1.145801 -0.757271 -2.479306
v 0.699095 -0.716496 -0.948078
v 0.800291 -0.515078 2.375790
v -0.404345 -0.578876 2.482287
v -0.118708 -0.836748 -2.384032
v -0.618028 -0.839951 -2.358163
v -0.044501 -1.057194 -2.132565
v 0.444993 -0.784731 -2.200495
v -1.199247 -0.701653 -1.660315
v -1.694133 -0.633991 -1.682890
v 0.731551 -0.323912 2.125216
v 0.218765 -0.399537 2.032908
v -1.271834 -0.398491 2.968231
v -1.139743 -0.326870 2.317704
v -0.699270 -0.611508 2.527625
v 0.094975 -0.575673 2.456419
v -0.684177 -0.689798 1.297276
v -1.840023 -0.483305 1.351905
v -1.788925 -0.547134 -0.193552
v 1.133230 -0.396021 0.461383
v 1.223240 -0.839931 -0.954075
v -1.343279 -0.844053 -0.136640
v 0.094394 -0.888947 -0.736423
v 0.082906 -0.546717 0.642492
v 0.600763 -0.486936 0.684707
v 0.609054 -0.842276 -0.790226
v -0.620611 -0.690600 -1.242517
v -1.858955 -0.760020 -0.153069
v -1.212670 -0.796836 -0.052246
v -1.300597 -0.650798 -0.165464
v -1.246103 -0.402476 1.320945
v -1.724907 -0.263038 1.284850
v 1.612385 -0.215785 2.420986
v -1.728294 -0.163546 3.460773
v -1.677696 -0.763613 -2.476709
v -1.762412 -0.163545 2.196582
v -0.763756 -0.312220 3.479927
v -2.549073 -0.266963 2.219388
v 1.192609 -0.644509 -0.983605
v -0.723468 -0.836105 0.054734
v -0.569402 -0.491916 1.195808
v 1.175954 -0.590442 0.480747
v 0.729726 -0.911918 -0.918548
v 0.587487 -0.644920 -0.814425
v -1.146953 -0.648412 -1.283225
v 1.165321 -0.233060 3.518235
v 1.215919 -0.700664 -2.419248
v 1.131203 -0.163545 2.254043
v 0.065801 -0.693281 -0.807591
v -0.797874 -0.219960 2.215736
v 0.645181 -0.500186 0.492317
v -0.691843 -0.909868 -1.208448
v 1.091704 -1.229194 -3.718807
v -0.713158 -0.788516 -2.457555
v -1.179874 -0.821314 -1.263182
v -1.303683 -0.589492 1.362294
v 0.200783 -0.318825 3.499081
v 0.129794 -0.751477 0.751155
v 0.631456 -0.675852 0.701233
v -1.735091 -0.566268 -1.199888
v -0.890591 -0.472079 0.473783
v -1.192908 -0.601041 -0.087939
v 1.038486 -0.400267 0.512090
v 0.193985 -0.663435 -1.161581
v -2.521752 -0.669686 -1.177083
v -1.855129 -0.400267 0.454629
v 1.519668 -0.452507 0.679032
v 0.251381 -0.763613 -2.438401
v 0.321030 -1.185846 -3.734111
v 0.166665 -0.219960 2.234890
v 0.073948 -0.472080 0.492936
v -0.449646 -1.219674 -3.749416
v -1.153810 -0.472301 1.103521
v -1.169780 -0.667567 1.143726
v -0.770553 -0.667849 -1.180735
v 1.158523 -0.566268 -1.142427
v 1.772423 -0.618508 -1.331330
v -2.641790 -0.503685 0.477434
v -2.464357 -0.867031 -2.453904
v 1.697101 -0.752904 -2.252305
v -1.220320 -1.159828 -3.764719
v 1.646503 -0.285300 3.685178
v 1.772423 1.491975 -1.331329
v 1.519668 1.657976 0.679033
v -2.514955 -0.266963 3.483579
vt 0.700179 0.043798
vt 0.715534 -0.947978
vt 1.127885 -0.454324
vt 0.708568 -0.024376
vt 0.708096 -0.987761
vt 1.124759 -0.999898
vt 1.125232 -0.036513
vt 0.812734 -0.027411
vt 0.812262 -0.990795
vt 0.041252 -0.000499
vt 0.000500 -0.457167
vt 0.247403 -0.586651
vt -0.125232 -0.036513
vt -0.124759 -0.999898
vt 0.291904 -0.987761
vt 0.999501 -0.652271
vt 0.987918 -0.000500
vt 0.000499 -0.455947
vt -0.125232 -0.963487
vt 0.291904 -0.012239
vt 0.291432 -0.975624
vt 0.708568 -0.975624
vt 0.708096 -0.012239
vt 0.291432 -0.024376
vt 0.187266 -0.972589
vt 0.187738 -0.009205
vt 0.493668 -0.694419
vt 0.524709 -0.275348
vt 0.284980 -0.149387
vt -0.124759 -0.000102
vt 1.114189 0.539243
vt 0.007977 -0.999500
vt 0.351243 -1.067602
vt 0.337547 -0.074035
vt -0.127660 -0.546327
vt 1.125232 -0.307322
vt 0.708568 -0.307322
vt 0.708568 -0.692678
vt -0.124759 -0.307322
vt -0.124759 -0.692678
vt 0.291904 -0.692678
vt 0.812734 -0.307322
vt 0.812734 -0.692678
vt 1.125232 -0.692678
vt 0.760630 -0.462512
vt 0.735687 -0.862967
vt 0.983029 -0.999500
vt 0.500236 -0.307322
vt 0.291904 -0.307322
vt 0.187738 -0.692678
vt 0.187738 -0.307322
vt 1.125232 -0.963487
vt 1.124759 -0.000102
vt -0.113964 -1.539894
vt 0.500236 -0.692678
vt 0.500236 -0.018308
vt 0.499764 -0.981692
vt 0.999500 -0.618803
vt 118.703217 -326.920532
vt 22.230375 -326.920563
vt 34.958721 -500.897522
vt -249.320648 -330.762482
vt -236.592316 -504.739441
vt -157.986984 -500.897491
vt 131.431549 -500.897491
vt 40.879734 -627.223938
vt -152.065979 -627.223938
vt -55.593128 -627.223938
vt -61.514153 -500.897522
vt 137.352570 -627.223999
vt 127.419701 -161.263138
vt 185.792770 -642.959656
vt 179.871750 -516.633179
vt 167.143417 -342.656189
vt -74.242477 -326.920563
vt -170.715317 -326.920532
vt 130.623138 -33.492313
vt 115.624016 96.191414
vt 34.150314 -33.492313
vt -62.322529 -33.492313
vt -38.541348 96.191422
vt -158.795349 -33.492298
vt -65.525986 -161.263123
vt -161.998795 -161.263123
vt 30.946869 -161.263153
vt -237.400696 -37.334221
vt -240.604111 -165.105057
vt 38.541336 96.191414
vt 188.422546 -141.157761
vt 179.063354 -49.227943
vt -115.624031 96.191429
vt -230.671310 -631.065857
vn -0.147900 0.987600 -0.052800
vn 0.213000 -0.973700 0.080900
vn -0.081900 -0.989900 0.115700
vn 0.155600 0.985600 -0.065900
vn -0.195000 -0.973500 0.119600
vn 0.139900 0.982700 -0.121500
vn -0.012200 0.995400 -0.094600
vn 0.011300 -0.995500 0.094500
vn 0.101100 -0.988900 0.108800
vn -0.093100 0.990700 -0.099000
vn -0.188800 -0.976600 0.103200
vn 0.080600 0.990700 -0.109700
vn 0.149000 -0.986200 0.072100
vn -0.212300 0.975000 -0.065700
vn 0.157000 -0.983700 0.087200
vn -0.105800 0.989000 -0.103300
vn -0.011300 0.995500 -0.094500
vn -0.213000 0.973700 -0.080900
vn -0.194400 -0.964300 0.179800
vn 0.283900 0.956100 -0.072900
vn -0.890800 0.452400 -0.043300
vn -0.974400 -0.204900 0.092700
vn 0.952100 -0.304000 0.034100
vn 0.089000 0.987900 -0.127300
vn 0.983900 -0.178900 -0.004000
vn 0.973900 0.204100 -0.099900
vn 0.975300 0.206500 -0.078700
vn -0.996000 0.086300 0.023400
vn -0.985500 -0.140000 0.095800
vn -0.975300 -0.206500 0.078700
vn -0.999000 -0.007100 0.044500
vn 0.999000 0.007100 -0.044500
vn -0.990500 -0.135500 0.025400
vn 0.994100 0.106200 -0.020000
vn 0.956600 -0.291100 0.015600
vn -0.892700 0.445100 -0.070600
vn 0.987000 0.157500 -0.032400
vn -0.978500 -0.201800 0.041900
vn 0.990300 -0.137800 0.015800
vn -0.996800 0.079900 -0.007700
vn 0.866000 -0.500000 0.004600
vn 0.897000 -0.441800 -0.015800
vn -0.203200 -0.977300 0.059700
vn 0.771600 -0.634100 0.049800
vn -0.000200 -0.998600 0.052500
vn -0.930600 0.365400 -0.021400
vn 0.137500 0.989300 -0.048900
vn -0.951300 0.298100 -0.077900
vn 0.211400 -0.976300 0.047100
vn 0.986000 0.141100 -0.088900
vn -0.136600 -0.990300 0.025600
vn 0.987900 -0.132100 0.081000
vn 0.101100 -0.988900 0.109100
vn -0.988400 -0.104100 0.110900
vn -0.106600 0.989800 -0.094400
vn -0.979900 -0.164300 0.113100
vn -0.127500 0.986800 -0.100100
vn 0.982900 0.150400 -0.106300
vn 0.151300 -0.984900 0.084000
vn 0.990000 0.095500 -0.103400
vn 0.072900 0.996500 -0.041200
vn 0.951900 -0.305200 0.026300
vn -0.161700 -0.986300 0.031900
vn -0.986800 0.130800 -0.095500
vn -0.982500 0.183600 -0.030300
vn -0.180100 -0.983500 0.015000
vn 0.208700 0.977800 -0.019100
vn 0.976100 -0.204700 0.073100
vn 0.287300 0.943000 -0.168100
vn 0.956500 -0.291500 0.013600
vn 0.214400 0.957400 -0.193300
vn -0.950800 0.309300 -0.018300
vn -0.216100 0.960700 -0.174100
vn 0.987500 0.156800 0.013600
vn -0.083000 -0.989400 0.119100
vn 0.871300 -0.489900 0.030100
vn 0.052600 0.991100 -0.122600
vn 0.916700 -0.399500 -0.003300
vn 0.154400 -0.972500 0.174200
vn 0.976800 0.214100 -0.005000
vn 0.215500 -0.964500 0.152800
vn -0.987800 -0.155600 -0.005200
vn -0.093100 0.991500 -0.090400
vn 0.981900 0.149500 -0.116000
vn 0.177900 0.980000 -0.089000
vn -0.982600 0.185000 -0.017800
vn -0.153200 0.982500 -0.106200
vn -0.981200 -0.148900 0.122600
vn -0.153400 0.976300 -0.152400
vn -0.976600 -0.215000 -0.004300
vn -0.092000 -0.994200 0.055800
vn 0.922600 -0.383100 0.045500
vn -0.177900 -0.978100 0.107900
vn -0.984000 0.177000 -0.018200
vn -0.163800 -0.971900 0.169400
vn 0.976700 -0.214200 0.010600
vn 0.136700 -0.985400 0.101300
vn -0.980400 -0.161600 0.112400
vn 0.157300 -0.983300 0.091500
vn -0.994800 0.092800 -0.041900
vn 0.082600 0.995900 -0.036300
vn 0.052100 0.991500 -0.119400
vn -0.990200 0.139500 -0.005200
vn -0.103500 -0.988500 0.110600
vn -0.994200 0.104800 0.024300
vn -0.070800 0.987700 -0.139200
vn -0.132900 0.983000 -0.126500
vn -0.059800 0.995000 0.079400
vn 0.150700 0.986200 0.067900
vn -0.130200 0.991500 0.003500
vn -0.089500 0.994300 0.057100
vn -0.071800 0.991900 -0.104700
vn 0.089800 0.994600 0.052300
vn 0.138000 0.986400 -0.089000
vn 0.058400 0.998300 -0.001600
vn 0.076300 0.987500 -0.138200
vn -0.053100 0.926800 -0.371800
vn 0.030700 0.950000 -0.310800
vn 0.076000 0.990800 -0.111700
vn 0.005300 0.997000 0.077800
vn 0.028500 0.988100 -0.151400
vn 0.060700 0.987400 -0.146100
vn 0.002800 0.989700 -0.143400
vn -0.055300 0.989800 -0.131600
vn 0.155100 0.977800 -0.141100
vn -0.063300 0.994700 -0.080900
vn -0.002200 0.993100 -0.117700
vn -0.133200 0.978500 -0.157200
vn 0.106100 0.990100 -0.091600
vn -0.132700 0.985200 -0.108500
vn -0.018400 0.950300 -0.310700
vn -0.003000 0.996900 -0.078400
vn 0.059500 0.950000 -0.306400
vn -0.001400 0.997300 0.072800
vn 0.002300 0.993400 -0.114700
vn -0.097100 0.987900 -0.121300
vn -0.035100 0.945800 -0.322800
vn 0.106100 0.990400 -0.088800
vn -0.023800 0.995200 -0.095100
vn -0.097500 0.989300 -0.108500
vn 0.061800 0.995300 -0.074400
vn 0.053100 0.993300 -0.102200
vn 0.159700 0.974900 -0.155300
vn 0.079900 0.960400 -0.267100
vn -0.992200 0.000000 -0.124700
vn -0.019800 0.183200 0.982900
vn -0.040000 -0.107700 -0.993400
vn 0.002000 -0.086100 -0.996300
vn 0.040000 0.107700 0.993400
vn 0.072100 0.092200 0.993100
vn -0.050900 -0.092000 -0.994500
vn -0.086200 -0.092500 -0.992000
vn 0.033600 -0.086700 -0.995700
vn -0.112700 0.060300 0.991800
vn -0.204800 0.225900 0.952400
vn 0.014600 0.080000 0.996700
vn -0.124100 0.328100 0.936500
vn -0.152400 0.544000 0.825100
vn 0.050100 0.155000 0.986600
usemtl NW_CITY_WOOD_02
s off
f 29/1/1 66/2/1 2/3/1
f 1/4/2 69/5/2 27/6/2
f 6/7/3 101/8/3 44/9/3
f 41/10/4 5/11/4 68/12/4
f 45/4/5 83/5/5 40/6/5
f 22/13/6 7/14/6 58/15/6
f 12/16/7 10/17/7 32/18/7
f 11/19/8 43/6/8 31/7/8
f 50/20/9 53/21/9 86/5/9
f 71/22/10 76/23/10 51/24/10
f 25/19/11 79/25/11 82/26/11
f 24/27/12 89/28/12 100/29/12
f 48/21/13 70/20/13 17/30/13
f 2/3/14 23/31/14 29/1/14
f 86/5/15 85/4/15 50/20/15
f 51/24/16 52/15/16 71/22/16
f 31/7/8 19/30/8 11/19/8
f 32/18/17 33/32/17 12/16/17
f 47/33/18 78/34/18 20/35/18
f 27/6/2 30/7/2 1/4/2
f 83/5/19 45/4/19 55/20/19
f 58/15/20 59/24/20 22/13/20
f 22/36/21 59/37/21 45/38/21
f 23/39/22 17/40/22 70/41/22
f 54/42/23 79/43/23 25/44/23
f 72/45/24 54/46/24 4/47/24
f 25/44/25 4/36/25 54/42/25
f 26/44/26 2/36/26 66/37/26
f 3/39/27 27/40/27 69/41/27
f 101/43/28 100/42/28 89/48/28
f 70/41/29 29/49/29 23/39/29
f 78/37/30 1/38/30 30/44/30
f 30/44/30 20/36/30 78/37/30
f 19/40/31 31/44/31 12/36/31
f 43/40/32 11/44/32 32/36/32
f 12/36/31 33/39/31 19/40/31
f 51/37/33 76/49/33 50/41/33
f 53/38/34 71/37/34 52/49/34
f 40/40/35 83/41/35 58/49/35
f 55/41/36 45/38/36 59/37/36
f 52/49/37 86/41/37 53/38/37
f 50/41/38 85/38/38 51/37/38
f 58/49/39 7/39/39 40/40/39
f 100/42/40 101/43/40 6/44/40
f 44/50/41 68/51/41 5/39/41
f 32/36/42 10/39/42 43/40/42
f 44/9/43 42/6/43 6/7/43
f 5/39/44 42/40/44 44/50/44
f 40/6/45 9/7/45 45/4/45
f 45/38/46 9/44/46 22/36/46
f 36/52/47 37/53/47 46/23/47
f 55/41/48 46/49/48 37/39/48
f 20/35/18 3/54/18 47/33/18
f 69/41/27 47/49/27 3/39/27
f 17/30/49 26/19/49 48/21/49
f 66/37/50 48/38/50 26/44/50
f 21/30/51 8/19/51 49/21/51
f 49/38/52 8/44/52 36/36/52
f 53/21/53 50/20/53 34/30/53
f 34/40/54 50/41/54 76/49/54
f 52/15/55 51/24/55 39/13/55
f 39/36/56 51/37/56 85/38/56
f 39/13/57 38/14/57 52/15/57
f 86/41/58 52/49/58 38/39/58
f 34/30/59 15/19/59 53/21/59
f 71/37/60 53/38/60 15/44/60
f 89/28/61 24/27/61 54/46/61
f 79/43/62 54/42/62 24/48/62
f 49/21/63 55/20/63 21/30/63
f 37/39/64 21/40/64 55/41/64
f 72/51/65 82/50/65 56/55/65
f 56/56/66 82/26/66 79/25/66
f 46/23/67 57/22/67 36/52/67
f 36/36/68 57/37/68 49/38/68
f 59/24/69 58/15/69 57/22/69
f 57/37/70 58/49/70 83/41/70
f 57/22/71 46/23/71 59/24/71
f 59/37/72 46/49/72 55/41/72
f 78/34/73 47/33/73 66/2/73
f 48/38/74 66/37/74 47/49/74
f 67/57/75 44/9/75 101/8/75
f 68/51/76 44/50/76 67/55/76
f 100/29/77 68/12/77 24/27/77
f 67/55/78 24/48/78 68/51/78
f 70/20/79 48/21/79 69/5/79
f 47/49/80 69/41/80 48/38/80
f 69/5/81 1/4/81 70/20/81
f 29/49/82 70/41/82 1/38/82
f 76/23/83 71/22/83 35/52/83
f 15/44/84 35/36/84 71/37/84
f 4/47/85 28/58/85 72/45/85
f 82/50/86 72/51/86 28/39/86
f 35/52/87 13/53/87 76/23/87
f 76/49/88 13/39/88 34/40/88
f 66/2/89 29/1/89 78/34/89
f 1/38/90 78/37/90 29/49/90
f 79/25/91 67/57/91 56/56/91
f 24/48/92 67/55/92 79/43/92
f 82/26/93 16/30/93 25/19/93
f 28/39/94 16/40/94 82/50/94
f 55/20/95 49/21/95 83/5/95
f 83/41/96 49/38/96 57/37/96
f 14/6/97 18/7/97 85/4/97
f 85/38/98 18/44/98 39/36/98
f 85/4/99 86/5/99 14/6/99
f 38/39/58 14/40/58 86/41/58
f 56/55/100 89/48/100 72/51/100
f 54/46/101 72/45/101 89/28/101
f 68/12/102 100/29/102 41/10/102
f 6/44/103 41/36/103 100/42/103
f 101/8/104 56/56/104 67/57/104
f 89/48/105 56/55/105 101/43/105
usemtl NW_MISC_FULLALPHA_01
f 90/59/106 98/60/106 97/61/106
f 105/62/107 65/63/107 63/64/107
f 75/65/108 97/61/108 84/66/108
f 61/67/109 64/68/109 77/69/109
f 61/67/110 63/64/110 65/63/110
f 84/66/111 73/70/111 75/65/111
f 98/60/112 90/59/112 103/71/112
f 109/72/113 60/73/113 75/65/113
f 103/71/114 90/59/114 94/74/114
f 77/69/115 63/64/115 61/67/115
f 88/75/116 93/76/116 63/64/116
f 74/77/117 80/78/117 95/79/117
f 81/80/118 99/81/118 62/82/118
f 93/76/119 88/75/119 102/83/119
f 64/68/120 84/66/120 97/61/120
f 81/80/121 62/82/121 87/84/121
f 63/64/107 93/76/107 105/62/107
f 63/64/122 77/69/122 88/75/122
f 98/60/123 88/75/123 77/69/123
f 97/61/124 75/65/124 90/59/124
f 90/59/125 75/65/125 60/73/125
f 74/77/126 95/79/126 91/85/126
f 91/85/127 102/83/127 88/75/127
f 106/86/128 92/87/128 87/84/128
f 102/83/129 87/84/129 93/76/129
f 93/76/130 87/84/130 92/87/130
f 60/73/125 94/74/125 90/59/125
f 95/79/131 96/88/131 81/80/131
f 102/83/132 91/85/132 95/79/132
f 96/88/133 95/79/133 80/78/133
f 77/69/123 97/61/123 98/60/123
f 97/61/134 77/69/134 64/68/134
f 88/75/135 98/60/135 91/85/135
f 103/71/136 91/85/136 98/60/136
f 99/81/137 81/80/137 96/88/137
f 87/84/138 102/83/138 81/80/138
f 95/79/139 81/80/139 102/83/139
f 91/85/140 103/71/140 74/77/140
f 94/74/141 104/89/141 103/71/141
f 74/77/142 103/71/142 104/89/142
f 92/87/130 105/62/130 93/76/130
f 87/84/128 62/82/128 106/86/128
f 104/89/143 107/90/143 74/77/143
f 108/91/144 62/82/144 99/81/144
f 75/65/113 73/70/113 109/72/113
f 104/89/145 94/74/145 111/74/145
f 111/74/145 110/89/145 104/89/145
f 65/63/110 112/92/110 61/67/110
usemtl NW_NATURE_BARKRINGS_01
f 7/39/146 22/36/146 9/44/146
f 26/44/147 17/40/147 23/39/147
f 28/39/148 4/36/148 25/44/148
f 23/39/147 2/36/147 26/44/147
f 30/44/149 27/40/149 3/39/149
f 25/44/148 16/40/148 28/39/148
f 3/39/149 20/36/149 30/44/149
f 10/39/150 12/36/150 31/44/150
f 33/39/151 32/36/151 11/44/151
f 11/44/151 19/40/151 33/39/151
f 15/44/152 34/40/152 13/39/152
f 13/39/152 35/36/152 15/44/152
f 37/39/153 36/36/153 8/44/153
f 8/44/153 21/40/153 37/39/153
f 18/44/154 14/40/154 38/39/154
f 38/39/155 39/36/155 18/44/155
f 9/44/156 40/40/156 7/39/156
f 5/39/157 41/36/157 6/44/157
f 6/44/158 42/40/158 5/39/158
f 31/44/159 43/40/159 10/39/159
