# Blender v2.75 (sub 0) OBJ File: 'Empty.blend'
# www.blender.org
mtllib ADDON_PLANTS_SMALLPALM_01_73P.mtl
o ADDON_PLANTS_SMALLPALM_01_73P
v 2.185603 -2.552396 -0.186615
v 2.193365 2.159206 0.036860
v -2.117589 2.159206 0.186596
v 0.145811 -0.545675 3.126179
v -0.077798 -2.947557 -0.927234
v 0.145811 3.165295 0.927214
v -0.077798 0.763414 -3.126199
v -2.125351 -2.552396 -0.036879
v -1.825871 0.393996 -1.734612
v 1.828164 0.396007 1.999444
v 1.819214 1.237371 -1.647449
v -1.810697 0.394644 1.904655
v 0.903874 0.230128 -0.751893
v 0.621684 -0.455422 0.597361
v -0.900830 1.065271 2.850631
v 0.926595 1.041075 2.898577
v -0.926029 1.026443 -2.633457
v 2.734107 0.733826 -0.708694
v -0.894664 0.114640 -0.786826
v -2.744470 0.812732 -0.853204
v 2.744490 0.798480 1.118019
v -0.007629 0.877688 -1.687219
v -1.816084 0.702339 0.084203
v -0.888058 0.124166 1.001316
v 0.008978 0.900708 1.953801
v 0.901315 1.037547 -2.585284
v 1.813460 0.631519 0.179135
v -0.060592 -0.609638 0.094213
v 0.196775 -3.165275 0.435390
v -0.334452 -3.071739 -0.237047
v 0.009285 -1.170606 0.121231
v 0.161471 -3.014699 -0.402730
v 0.378282 -1.755467 0.171222
v -0.269966 -3.157908 0.257523
v 0.420465 -3.082010 0.044325
v -0.052597 -0.611633 -0.038271
v 0.189989 -1.725761 -0.217415
v 0.062936 -0.605825 0.033929
v -0.368996 -1.824120 0.238843
v 0.016115 -1.819721 0.459469
v -0.252795 -1.765695 -0.177001
vt 0.391829 -1.059335
vt 0.925447 -1.059335
vt 1.017121 -0.205333
vt 0.042847 -1.059335
vt 0.562541 -1.059335
vt 0.658368 -0.205333
vt 0.528555 -1.059335
vt 1.022939 -1.059335
vt 1.043317 -0.205333
vt -0.000819 -0.205333
vt 0.081037 -1.059335
vt 0.499797 -0.205333
vt -0.043317 -0.205333
vt 0.226150 -1.059335
vt 0.808288 -1.059335
vt 0.801645 -0.205333
vt 0.379562 -0.205333
vt 0.654800 0.868264
vt 0.448140 0.868264
vt 0.733813 0.868264
vt 0.308895 -0.580442
vt 0.654800 -0.551860
vt 0.455435 -0.266187
vt 0.130079 -0.205333
vt 0.580442 0.868264
vt 0.266187 0.868264
vt 0.308895 0.868264
vt 0.544565 0.868264
vt 0.000500 -0.000500
vt 0.000500 -0.999500
vt 0.999501 -0.000500
vt 0.999500 -0.999500
vt 0.250250 -0.500000
vt 0.000500 -0.749750
vt 0.250250 -0.749750
vt 0.749750 -0.500000
vt 0.500000 -0.749750
vt 0.500000 -0.500000
vt 0.749750 -0.000500
vt 0.500000 -0.000500
vt 0.500000 -0.250250
vt 0.000500 -0.500000
vt 0.250250 -0.250250
vt 0.749750 -0.250250
vt 0.749750 -0.749750
vt 0.999500 -0.500000
vt 0.999500 -0.250250
vt 0.000500 -0.250250
vt 0.999500 -0.749750
vt 0.500000 -0.999500
vt 0.250250 -0.999500
vt 0.250250 -0.000500
vn -0.990600 -0.071900 0.116600
vn 0.869600 -0.019500 0.493300
vn -0.322800 0.063600 -0.944300
vn 0.613800 0.068300 0.786500
vn 0.899800 0.069800 -0.430600
vn -0.356200 -0.064500 0.932200
vn 0.867500 0.051900 -0.494700
vn -0.963200 0.072100 -0.259000
vn 0.575200 0.250800 0.778600
vn -0.102800 0.143800 -0.984300
vn 0.888600 0.194100 -0.415700
vn 0.505200 0.243100 -0.828000
vn -0.039300 0.999100 -0.017400
vn -0.496700 -0.024700 0.867600
vn -0.969100 0.238700 -0.062100
vn -0.486400 0.224100 0.844500
vn 0.412900 0.287100 0.864300
vn -0.102200 0.136200 -0.985400
vn -0.951600 0.193800 -0.238700
vn -0.034700 0.047400 -0.998300
vn 0.034700 -0.047400 0.998300
vn 0.998900 -0.024200 -0.040800
vn -0.998900 0.024200 0.040800
vn -0.435100 -0.727400 0.530700
vn 0.435100 0.727400 -0.530700
vn 0.820000 0.572400 -0.006100
vn -0.820000 -0.572400 0.006100
vn 0.521800 -0.780400 -0.344400
vn -0.521800 0.780400 0.344400
vn -0.650400 0.752600 0.102600
vn 0.650400 -0.752600 -0.102600
vn 0.599600 -0.757200 -0.259300
vn -0.599600 0.757200 0.259300
vn -0.288500 0.632400 0.718900
vn 0.288500 -0.632400 -0.718900
vn 0.216300 0.647000 -0.731200
vn -0.216300 -0.647000 0.731200
vn -0.049300 -0.834300 0.549100
vn 0.049300 0.834300 -0.549100
vn 0.186700 0.651100 0.735700
vn -0.186700 -0.651100 -0.735700
vn -0.594500 0.763800 0.251500
vn 0.594500 -0.763800 -0.251500
vn -0.533400 -0.845900 0.006500
vn 0.181500 -0.880500 -0.437900
vn 0.533400 0.845900 -0.006500
vn -0.181500 0.880500 0.437900
vn 0.424100 0.892500 -0.153600
vn -0.424100 -0.892500 0.153600
vn 0.295800 -0.947000 -0.124900
vn -0.295800 0.947000 0.124900
vn 0.301100 -0.853000 -0.426300
vn -0.301100 0.853000 0.426300
vn -0.276300 -0.947300 0.162100
vn 0.276300 0.947300 -0.162100
vn -0.411100 -0.899000 -0.150700
vn 0.180900 -0.876000 0.447100
vn 0.411100 0.899000 0.150700
vn -0.180900 0.876000 -0.447100
vn 0.276400 -0.855700 0.437400
vn -0.276400 0.855700 -0.437400
vn -0.230600 -0.890600 -0.391900
vn 0.230600 0.890600 0.391900
vn 0.142900 -0.989100 0.034200
vn -0.142900 0.989100 -0.034200
vn 0.795100 -0.591500 -0.134200
vn 0.188100 -0.650800 0.735600
vn -0.795100 0.591500 0.134200
vn -0.188100 0.650800 -0.735600
usemtl NW_SEQ_NATURE_PALMBARK_02
s off
f 30/1/1 34/2/1 39/3/1
f 29/4/2 35/5/2 33/6/2
f 32/7/3 30/8/3 41/9/3
f 29/4/4 33/6/4 40/10/4
f 35/11/5 37/12/5 33/13/5
f 34/14/6 29/15/6 40/16/6
f 35/11/7 32/7/7 37/12/7
f 30/1/8 39/3/8 41/17/8
f 40/10/9 33/6/9 38/18/9
f 32/7/10 41/9/10 37/12/10
f 33/13/11 37/12/11 38/19/11
f 37/12/12 36/20/12 38/19/12
f 28/21/13 38/22/13 36/23/13
f 34/14/14 40/16/14 39/24/14
f 39/24/15 28/25/15 36/26/15
f 39/24/16 40/16/16 28/25/16
f 28/27/17 40/10/17 38/18/17
f 37/12/18 41/9/18 36/20/18
f 41/17/19 39/3/19 36/28/19
usemtl NW_SEQ_NATURE_PALM_02
f 3/29/20 2/30/20 8/31/20
f 2/30/21 3/29/21 8/31/21
f 6/32/22 4/31/22 7/30/22
f 4/31/23 6/32/23 7/30/23
f 5/29/22 7/30/22 4/31/22
f 7/30/23 5/29/23 4/31/23
f 1/32/20 8/31/20 2/30/20
f 8/31/21 1/32/21 2/30/21
f 14/33/24 16/34/24 25/35/24
f 16/34/25 14/33/25 25/35/25
f 19/36/26 24/37/26 31/38/26
f 24/37/27 19/36/27 31/38/27
f 26/39/28 11/40/28 13/41/28
f 11/40/29 26/39/29 13/41/29
f 10/42/30 27/43/30 14/33/30
f 27/43/31 10/42/31 14/33/31
f 27/43/32 14/33/32 13/41/32
f 14/33/33 27/43/33 13/41/33
f 13/41/34 22/44/34 31/38/34
f 22/44/35 13/41/35 31/38/35
f 24/37/36 25/35/36 31/38/36
f 25/35/37 24/37/37 31/38/37
f 14/33/38 10/42/38 16/34/38
f 10/42/39 14/33/39 16/34/39
f 19/36/40 31/38/40 22/44/40
f 31/38/41 19/36/41 22/44/41
f 27/43/42 11/40/42 13/41/42
f 11/40/43 27/43/43 13/41/43
f 23/45/44 19/36/44 24/37/44
f 19/36/45 9/46/45 17/47/45
f 19/36/46 23/45/46 24/37/46
f 9/46/47 19/36/47 17/47/47
f 9/46/48 23/45/48 19/36/48
f 23/45/49 9/46/49 19/36/49
f 27/43/50 21/48/50 10/42/50
f 21/48/51 27/43/51 10/42/51
f 19/36/52 17/47/52 22/44/52
f 17/47/53 19/36/53 22/44/53
f 23/45/54 20/49/54 9/46/54
f 20/49/55 23/45/55 9/46/55
f 12/50/56 23/45/56 24/37/56
f 15/51/57 12/50/57 24/37/57
f 23/45/58 12/50/58 24/37/58
f 12/50/59 15/51/59 24/37/59
f 15/51/60 24/37/60 25/35/60
f 24/37/61 15/51/61 25/35/61
f 26/39/62 13/41/62 22/44/62
f 13/41/63 26/39/63 22/44/63
f 18/52/64 21/48/64 27/43/64
f 21/48/65 18/52/65 27/43/65
f 13/41/66 14/33/66 31/38/66
f 31/38/67 14/33/67 25/35/67
f 14/33/68 13/41/68 31/38/68
f 14/33/69 31/38/69 25/35/69
