# Blender v2.75 (sub 0) OBJ File: 'Empty.blend'
# www.blender.org
mtllib ADDON_PLANTS_JUNGLETREE_04_163P.mtl
o ADDON_PLANTS_JUNGLETREE_04_163P
v 0.194813 -0.593977 0.110954
v -0.624134 9.740969 -1.240749
v -0.057745 3.593416 -0.326179
v -0.214906 6.055487 -0.236172
v -0.514986 4.907747 0.999659
v -2.572089 3.725987 0.380646
v -0.132922 4.993941 -1.288907
v -0.252792 8.358115 -0.398477
v -1.435980 8.711431 -2.313308
v -1.514426 8.213552 -4.523376
v 0.104337 9.752316 -4.391233
v -0.967653 4.786428 -0.624464
v -0.244555 3.586329 -2.445755
v 0.406982 1.281245 -3.761907
v 1.789232 4.432300 -2.356233
v -0.903247 5.088031 0.040385
v -1.485766 3.416910 -1.314032
v -1.481225 0.993382 -1.207177
v 0.478972 2.688501 -1.929431
v 0.166072 0.253266 -2.378304
v -3.117569 1.674468 0.038114
v 2.381254 3.405702 -4.002161
v 0.102224 5.443457 0.451512
v -0.290771 4.126892 -1.041069
v -1.387600 6.795919 0.454370
v 0.683606 5.440125 -0.289225
v -0.010156 7.166852 0.836260
v -0.746272 4.091354 -0.171307
v 0.890267 4.744081 -0.053761
v -1.935771 4.371919 -1.490612
v -3.268603 2.154083 -1.803553
v 0.526648 5.702506 -0.744190
v 2.347746 5.195237 0.660552
v -0.732290 4.646503 0.167031
v 0.774186 4.604436 -0.624317
v 3.676036 3.617767 1.131801
v 1.104819 4.453977 1.832875
v 2.605312 3.392554 2.615208
v -1.274155 7.679250 -0.581673
v 0.502132 7.588923 -0.764915
v 0.019255 7.154929 -1.087313
v 1.141860 8.796355 -0.117274
v -0.538804 6.142252 0.272273
v 0.152326 7.594128 0.340914
v -1.182211 8.755847 0.807367
v -0.629683 6.604347 -0.916845
v 0.186068 9.325339 -2.281221
v -3.149787 7.089355 0.634172
v -1.586940 6.031024 -1.079599
v -0.473011 8.050285 2.416904
v -1.507606 6.363611 0.665533
v -0.189862 5.296697 -0.959062
v 1.917562 4.694006 -1.513613
v 3.107391 3.275666 -1.947839
v 1.900963 4.295947 0.129231
v 0.150161 9.955884 -0.021938
v -0.561858 11.439607 0.521199
v -1.160881 8.933063 -0.305895
v 2.710622 2.871245 -0.190672
v -0.476353 6.590913 -1.048919
v 1.178792 8.281425 -1.224035
v 0.261469 5.787319 0.157414
v 2.719026 9.377258 0.814666
v 0.444827 8.118375 1.166457
v -1.941791 7.641463 1.989678
v 1.811773 9.144496 2.063500
v -0.746322 10.182143 -0.246131
v -0.168012 12.359467 -0.447811
v 0.464650 9.213518 -0.408229
v -3.154025 7.140746 -0.923022
v 2.903682 8.776046 -1.829105
v 1.722056 7.672043 0.057991
v 0.346303 8.744670 -0.972894
v -0.093602 10.749000 -0.290329
v -1.094126 8.311132 -1.057279
v 3.320221 8.618217 -0.394180
v 0.225437 4.941956 0.407393
v -2.710776 8.809740 1.545935
v -3.193619 9.009103 0.195927
v -1.807838 8.443446 -0.436547
v 0.372456 14.157159 -1.291045
v 0.973389 11.566190 -0.297112
v 1.433472 13.539232 -0.839410
v -1.635122 12.253468 0.239380
v -1.285617 10.946454 -0.458147
v -0.585748 11.457462 0.551032
v -1.234869 12.194071 1.416521
v -1.430870 10.753627 0.045930
v -0.219195 9.931647 -0.645738
v 0.407618 11.343246 -0.083747
v -0.123853 8.958548 0.040270
v 1.555045 12.061035 0.444425
v 0.163454 10.690613 0.881405
v 1.138276 11.728868 1.506148
v -2.100331 11.844930 0.805417
v -0.655620 9.746650 -0.702287
v -1.373463 10.655267 -1.089625
v -0.392422 9.305542 -1.575336
v -2.378497 10.850560 -1.588416
v -1.967514 11.068941 -2.456864
v -1.023155 10.544168 -1.907523
v -0.258397 -0.602890 -0.215026
v 0.010532 6.076667 -0.369797
v 0.199226 3.774571 -0.141178
v 0.130430 -0.631741 -0.276620
v -0.193392 -0.565126 0.172156
v -0.102204 10.083727 -0.273582
v -0.604520 10.042960 -0.128507
v -0.268926 8.350343 -0.208739
v -0.527293 10.131870 -0.127570
v -0.572503 9.823688 -1.208627
v -0.215282 5.974791 -0.497749
v -0.386479 8.339597 -0.323828
v -0.625564 9.835406 -1.179885
v -0.565886 10.080201 -0.087548
v -0.565668 10.094628 -0.168427
v -0.112668 3.694015 -0.018428
vt 0.999500 -0.999500
vt 0.999500 -0.500000
vt 0.000500 -0.999500
vt 0.000500 -0.500000
vt 0.000500 -0.000500
vt 0.999501 -0.000500
vt 0.333333 -4.174102
vt 0.666667 -5.000000
vt 0.666667 -4.174102
vt 0.500000 -5.000000
vt 0.500000 -4.174102
vt 0.250000 -5.000000
vt 0.750000 -5.000000
vt 0.750000 -4.174102
vt 1.000000 -5.000000
vt 1.000000 -4.174102
vt 0.250000 -4.174102
vt 0.000000 -4.174102
vt 0.333333 -5.000000
vt 0.000000 -5.000000
vn -0.676300 0.723400 -0.139000
vn 0.676300 -0.723400 0.139000
vn -0.680400 -0.451400 0.577300
vn 0.680400 0.451400 -0.577300
vn -0.301500 0.238900 -0.923000
vn 0.301500 -0.238900 0.923000
vn 0.110000 0.665000 0.738700
vn -0.110000 -0.665000 -0.738700
vn -0.890100 0.455000 -0.026400
vn 0.890100 -0.455000 0.026400
vn 0.498200 0.503500 -0.705900
vn -0.498200 -0.503500 0.705900
vn -0.350300 0.915300 0.198800
vn -0.313700 0.802400 0.507600
vn 0.350300 -0.915300 -0.198800
vn 0.313700 -0.802400 -0.507600
vn 0.489500 0.753300 -0.439200
vn 0.611000 0.673900 -0.415400
vn -0.489500 -0.753300 0.439200
vn -0.611000 -0.673900 0.415400
vn -0.266500 0.648400 -0.713100
vn -0.165800 0.490900 -0.855300
vn 0.266500 -0.648400 0.713100
vn 0.165800 -0.490900 0.855300
vn 0.057700 0.197700 -0.978600
vn -0.057700 -0.197700 0.978600
vn -0.571100 0.477800 0.667500
vn 0.571100 -0.477800 -0.667500
vn -0.627500 0.775600 0.068900
vn -0.789200 0.604300 -0.109300
vn 0.627500 -0.775600 -0.068900
vn 0.789200 -0.604300 0.109300
vn -0.091500 0.857600 -0.506100
vn 0.091500 -0.857600 0.506100
vn -0.317000 0.946900 -0.053800
vn 0.317000 -0.946900 0.053800
vn 0.081500 -0.064600 0.994600
vn -0.081500 0.064600 -0.994600
vn 0.167400 0.985400 0.032100
vn -0.167400 -0.985400 -0.032100
vn -0.324300 0.793700 0.514700
vn -0.574300 0.617900 0.537000
vn 0.324300 -0.793700 -0.514700
vn 0.574300 -0.617900 -0.537100
vn -0.009400 0.221000 -0.975200
vn 0.009400 -0.221000 0.975200
vn -0.216600 0.961600 0.168600
vn 0.216600 -0.961600 -0.168600
vn 0.089900 0.989400 0.113900
vn -0.089900 -0.989400 -0.113900
vn 0.218400 0.914900 -0.339600
vn 0.498100 0.748200 -0.438400
vn -0.218400 -0.914900 0.339600
vn -0.498100 -0.748200 0.438400
vn 0.049000 0.254100 0.965900
vn -0.056700 0.107000 0.992600
vn -0.049000 -0.254100 -0.965900
vn 0.056700 -0.107000 -0.992600
vn -0.114900 0.450000 0.885600
vn 0.114900 -0.450000 -0.885600
vn 0.201600 0.502600 -0.840700
vn 0.187600 0.353300 -0.916500
vn -0.201600 -0.502600 0.840700
vn -0.187600 -0.353300 0.916500
vn 0.631200 0.734500 -0.249300
vn -0.631200 -0.734500 0.249300
vn -0.001400 0.570700 -0.821200
vn 0.167800 0.408900 -0.897000
vn 0.001400 -0.570700 0.821200
vn -0.167800 -0.408900 0.897000
vn -0.974700 0.056800 0.216000
vn 0.974700 -0.056800 -0.216000
vn -0.772600 0.599200 0.209700
vn -0.918400 0.394200 0.034200
vn 0.772600 -0.599200 -0.209700
vn 0.918400 -0.394200 -0.034200
vn -0.545400 0.836800 0.047700
vn 0.545400 -0.836800 -0.047700
vn 0.099700 0.796600 -0.596300
vn -0.099700 -0.796600 0.596300
vn 0.886800 0.460800 0.034500
vn -0.886800 -0.460800 -0.034500
vn 0.054200 0.962000 0.267500
vn -0.054200 -0.962000 -0.267500
vn 0.451800 0.889200 0.072700
vn 0.718500 0.660500 0.218000
vn -0.451800 -0.889200 -0.072700
vn -0.718500 -0.660500 -0.218000
vn 0.520600 -0.846000 -0.115000
vn -0.520600 0.846000 0.115000
vn -0.283400 0.745200 -0.603600
vn 0.283400 -0.745200 0.603600
vn 0.462700 -0.337300 0.819800
vn -0.462700 0.337300 -0.819800
vn -0.222800 0.204300 -0.953200
vn -0.008700 0.631500 -0.775400
vn 0.222800 -0.204300 0.953200
vn 0.008700 -0.631500 0.775400
vn -0.589900 -0.036700 -0.806600
vn 0.589900 0.036700 0.806600
vn 0.845500 -0.523200 0.106900
vn -0.845500 0.523200 -0.106900
vn -0.291100 0.761200 -0.579500
vn 0.291100 -0.761200 0.579500
vn 0.057000 0.992100 -0.112100
vn -0.057000 -0.992100 0.112100
vn -0.324200 0.945800 -0.018500
vn 0.324200 -0.945800 0.018500
vn -0.962500 0.232600 0.139500
vn 0.962500 -0.232600 -0.139500
vn -0.341600 0.813500 0.470700
vn 0.341600 -0.813500 -0.470700
vn -0.154100 0.572400 -0.805400
vn 0.154100 -0.572400 0.805400
vn 0.178800 0.734900 0.654200
vn -0.102000 0.886100 0.452200
vn -0.178800 -0.734900 -0.654200
vn 0.102000 -0.886100 -0.452200
vn 0.575500 0.637600 0.512200
vn -0.575500 -0.637600 -0.512200
vn 0.322400 0.919200 0.226000
vn -0.322400 -0.919200 -0.226000
vn -0.773800 -0.556400 -0.302800
vn 0.773800 0.556400 0.302800
vn 0.874400 0.469400 0.122600
vn -0.874400 -0.469400 -0.122600
vn 0.374900 0.918700 0.124600
vn -0.374900 -0.918700 -0.124600
vn -0.994300 -0.101500 0.032700
vn -0.981100 0.041900 -0.188800
vn 0.576700 0.016100 -0.816800
vn 0.526200 -0.107000 -0.843600
vn 0.477400 0.044100 -0.877600
vn -0.997000 -0.074000 0.024300
vn -0.986300 0.026000 0.163100
vn -0.157800 -0.018600 -0.987300
vn 0.509800 0.001700 0.860300
vn 0.473900 0.261400 0.840900
vn 0.353700 0.053500 0.933800
vn 0.497000 0.126000 0.858500
vn 0.598100 -0.030500 -0.800900
vn 0.986600 -0.010400 -0.162900
vn 0.158600 0.041100 0.986500
vn 0.989300 0.115300 0.088800
vn -0.698200 -0.025000 0.715500
vn 0.992500 -0.092400 0.080600
vn -0.700900 0.093900 0.707100
vn 0.982600 0.162400 0.090200
vn -0.681600 -0.168900 0.712000
vn -0.710000 -0.010100 -0.704100
vn -0.639800 -0.162500 0.751200
vn 0.622000 -0.086000 -0.778300
vn -0.991200 -0.081800 0.103700
vn -0.985600 -0.076100 -0.151000
vn 0.502600 -0.029000 -0.864000
vn -0.490300 0.028600 -0.871100
vn -0.495900 0.105700 -0.861900
vn -0.490200 0.027100 -0.871200
vn 0.503800 0.262600 0.823000
vn 0.716900 0.004500 0.697100
vn 0.609100 0.211000 -0.764500
vn 0.341700 0.100900 0.934400
vn -0.999000 -0.041900 0.014400
usemtl NW_SEQ_NATURE_ROOFLEAVE_03
s off
f 10/1/1 9/2/1 11/3/1
f 9/2/2 10/1/2 11/3/2
f 49/4/3 24/5/3 23/6/3
f 24/5/4 49/4/4 23/6/4
f 28/5/5 51/4/5 26/6/5
f 51/4/6 28/5/6 26/6/6
f 40/5/7 47/4/7 39/6/7
f 47/4/8 40/5/8 39/6/8
f 43/5/9 64/4/9 41/6/9
f 64/4/10 43/5/10 41/6/10
f 46/5/11 80/4/11 44/6/11
f 80/4/12 46/5/12 44/6/12
f 47/4/13 11/3/13 9/2/13
f 9/2/14 39/6/14 47/4/14
f 11/3/15 47/4/15 9/2/15
f 39/6/16 9/2/16 47/4/16
f 49/4/17 70/3/17 25/2/17
f 25/2/18 23/6/18 49/4/18
f 70/3/19 49/4/19 25/2/19
f 23/6/20 25/2/20 49/4/20
f 51/4/21 65/3/21 27/2/21
f 27/2/22 26/6/22 51/4/22
f 65/3/23 51/4/23 27/2/23
f 26/6/24 27/2/24 51/4/24
f 58/5/25 88/4/25 56/6/25
f 88/4/26 58/5/26 56/6/26
f 62/5/27 72/4/27 60/6/27
f 72/4/28 62/5/28 60/6/28
f 64/4/29 66/3/29 42/2/29
f 42/2/30 41/6/30 64/4/30
f 66/3/31 64/4/31 42/2/31
f 41/6/32 42/2/32 64/4/32
f 50/1/33 27/2/33 65/3/33
f 27/2/34 50/1/34 65/3/34
f 63/1/35 42/2/35 66/3/35
f 42/2/36 63/1/36 66/3/36
f 69/5/37 82/4/37 67/6/37
f 82/4/38 69/5/38 67/6/38
f 48/1/39 25/2/39 70/3/39
f 25/2/40 48/1/40 70/3/40
f 72/4/41 76/3/41 61/2/41
f 61/2/42 60/6/42 72/4/42
f 76/3/43 72/4/43 61/2/43
f 60/6/44 61/2/44 72/4/44
f 75/5/45 85/4/45 73/6/45
f 85/4/46 75/5/46 73/6/46
f 71/1/47 61/2/47 76/3/47
f 61/2/48 71/1/48 76/3/48
f 78/1/49 45/2/49 79/3/49
f 45/2/50 78/1/50 79/3/50
f 80/4/51 79/3/51 45/2/51
f 45/2/52 44/6/52 80/4/52
f 79/3/53 80/4/53 45/2/53
f 44/6/54 45/2/54 80/4/54
f 82/4/55 83/3/55 68/2/55
f 68/2/56 67/6/56 82/4/56
f 83/3/57 82/4/57 68/2/57
f 67/6/58 68/2/58 82/4/58
f 81/1/59 68/2/59 83/3/59
f 68/2/60 81/1/60 83/3/60
f 85/4/61 84/3/61 74/2/61
f 74/2/62 73/6/62 85/4/62
f 84/3/63 85/4/63 74/2/63
f 73/6/64 74/2/64 85/4/64
f 86/1/65 74/2/65 84/3/65
f 74/2/66 86/1/66 84/3/66
f 88/4/67 95/3/67 57/2/67
f 57/2/68 56/6/68 88/4/68
f 95/3/69 88/4/69 57/2/69
f 56/6/70 57/2/70 88/4/70
f 91/5/71 93/4/71 89/6/71
f 93/4/72 91/5/72 89/6/72
f 93/4/73 94/3/73 90/2/73
f 90/2/74 89/6/74 93/4/74
f 94/3/75 93/4/75 90/2/75
f 89/6/76 90/2/76 93/4/76
f 92/1/77 90/2/77 94/3/77
f 90/2/78 92/1/78 94/3/78
f 87/1/79 57/2/79 95/3/79
f 57/2/80 87/1/80 95/3/80
f 98/5/81 101/4/81 96/6/81
f 101/4/82 98/5/82 96/6/82
f 99/1/83 97/2/83 100/3/83
f 97/2/84 99/1/84 100/3/84
f 101/4/85 100/3/85 97/2/85
f 97/2/86 96/6/86 101/4/86
f 100/3/87 101/4/87 97/2/87
f 96/6/88 97/2/88 101/4/88
usemtl NW_SEQ_NATURE_ROOFLEAVE_04
f 5/6/89 6/2/89 30/4/89
f 6/2/90 5/6/90 30/4/90
f 13/2/91 12/6/91 15/4/91
f 12/6/92 13/2/92 15/4/92
f 13/2/93 14/1/93 22/3/93
f 14/1/94 13/2/94 22/3/94
f 19/4/95 20/3/95 17/2/95
f 17/2/96 16/6/96 19/4/96
f 20/3/97 19/4/97 17/2/97
f 16/6/98 17/2/98 19/4/98
f 18/1/99 17/2/99 20/3/99
f 17/2/100 18/1/100 20/3/100
f 31/3/101 30/4/101 6/2/101
f 30/4/102 31/3/102 6/2/102
f 15/4/103 22/3/103 13/2/103
f 22/3/104 15/4/104 13/2/104
f 29/5/105 15/4/105 12/6/105
f 15/4/106 29/5/106 12/6/106
f 7/5/107 30/4/107 5/6/107
f 30/4/108 7/5/108 5/6/108
f 21/1/109 6/2/109 31/3/109
f 6/2/110 21/1/110 31/3/110
f 34/5/111 37/4/111 32/6/111
f 37/4/112 34/5/112 32/6/112
f 35/5/113 19/4/113 16/6/113
f 19/4/114 35/5/114 16/6/114
f 37/4/115 38/3/115 33/2/115
f 33/2/116 32/6/116 37/4/116
f 38/3/117 37/4/117 33/2/117
f 32/6/118 33/2/118 37/4/118
f 36/1/119 33/2/119 38/3/119
f 33/2/120 36/1/120 38/3/120
f 53/2/121 52/6/121 55/4/121
f 52/6/122 53/2/122 55/4/122
f 53/2/123 54/1/123 59/3/123
f 54/1/124 53/2/124 59/3/124
f 55/4/125 59/3/125 53/2/125
f 59/3/126 55/4/126 53/2/126
f 77/5/127 55/4/127 52/6/127
f 55/4/128 77/5/128 52/6/128
usemtl NW_NATURE_BARK_01
f 4/7/129 2/8/129 112/9/129
f 3/10/130 102/11/130 117/12/130
f 104/13/131 105/14/131 3/10/131
f 112/9/132 111/15/132 103/16/132
f 112/14/133 8/15/133 103/16/133
f 4/17/134 113/10/134 112/11/134
f 106/17/135 117/12/135 102/11/135
f 102/11/136 3/10/136 105/14/136
f 103/18/137 109/12/137 4/17/137
f 103/18/138 114/19/138 4/7/138
f 117/12/139 1/18/139 104/20/139
f 4/19/140 104/18/140 103/20/140
f 3/9/141 103/15/141 104/16/141
f 105/14/142 104/15/142 1/16/142
f 1/18/143 117/12/143 106/17/143
f 109/12/144 103/18/144 8/20/144
f 113/10/145 4/17/145 109/12/145
f 8/18/146 107/19/146 109/17/146
f 109/17/147 107/8/147 113/11/147
f 8/18/148 115/12/148 109/17/148
f 109/17/149 108/10/149 113/11/149
f 116/13/150 113/11/150 108/10/150
f 108/10/151 109/17/151 115/12/151
f 111/15/152 112/9/152 2/8/152
f 2/8/153 4/7/153 114/19/153
f 117/7/154 112/8/154 3/9/154
f 103/15/155 3/9/155 112/8/155
f 8/13/156 112/11/156 113/10/156
f 113/11/157 107/15/157 8/14/157
f 113/11/158 116/13/158 8/14/158
f 114/19/159 103/18/159 111/20/159
f 115/12/160 8/18/160 110/20/160
f 110/15/161 8/14/161 116/13/161
f 104/18/162 4/19/162 117/7/162
f 112/8/163 117/7/163 4/19/163
