# Blender v2.75 (sub 0) OBJ File: 'Empty.blend'
# www.blender.org
mtllib ADDON_CANYONPLANT_CACTUSLONG_02_97P.mtl
o ADDON_CANYONPLANT_CACTUSLONG_02_97P
v -0.024183 1.873370 -0.189440
v -0.721152 3.262609 -0.303202
v -0.857729 2.487308 -0.246357
v 0.252873 4.123050 0.719920
v -0.065237 2.968405 0.226660
v 0.364020 3.478670 0.772492
v 0.064706 -0.277367 0.199513
v -0.218448 4.576425 0.157979
v 0.269044 4.575910 -0.000086
v -0.169606 -0.277372 -0.123401
v 0.209760 -0.277365 0.000116
v -0.217954 4.576403 -0.158728
v -0.030537 2.074191 0.105900
v -0.122834 1.868289 0.143838
v 0.120466 3.135314 0.066047
v 0.195284 2.964182 0.101840
v 0.064947 -0.277368 -0.199455
v -0.169756 -0.277371 0.123175
v 0.046327 4.726096 0.144757
v 0.070885 4.727180 -0.103076
v -0.526179 2.608262 -0.264142
v 0.030982 2.078379 -0.099913
v -0.448207 2.358186 -0.016209
v -0.115843 1.751556 -0.033897
v -0.519367 2.207371 -0.330466
v 0.168347 3.579199 0.577903
v -0.040749 3.138795 0.142760
v 0.277832 3.371352 0.391689
v 0.081764 2.867162 0.196543
v 0.123643 3.246005 0.610650
v -0.615746 2.209528 0.004604
v -0.906670 3.181600 -0.261556
v -0.615245 3.226431 -0.164476
v -0.569896 3.136812 -0.275818
v 0.384004 3.247798 0.483431
v 0.381911 4.055720 0.811146
v -0.797391 3.270194 -0.151274
v -0.106732 4.727930 -0.041254
v 0.279438 4.092981 0.577315
v 0.185499 4.018495 0.611372
v 0.082050 4.575892 -0.256559
v 0.389053 4.129354 0.682306
v -0.740768 3.162824 -0.391588
v -0.831661 3.163658 -0.059252
v 0.209285 4.040115 0.781258
v -0.389297 2.358314 -0.225851
v 0.464903 4.040808 0.652179
v -0.625293 3.135480 -0.071382
v 0.083149 4.573006 0.257158
v -0.655644 2.120739 -0.188392
v -0.586631 2.607121 -0.054755
v 0.115708 3.371459 0.472143
v -0.794627 2.533024 -0.047064
v 0.342455 4.017388 0.531650
v 0.287192 3.174002 0.615556
v -0.697107 2.531825 -0.381904
v 0.331172 3.578251 0.498541
v 0.451789 3.516666 0.622547
v 0.190935 3.515670 0.748934
vt 0.750000 -0.307662
vt 0.100442 -0.046167
vt 0.100442 -0.307662
vt 1.963800 -0.307662
vt 1.399558 -0.046167
vt 1.399557 -0.307662
vt 0.000500 -0.025035
vt 0.500000 -0.999501
vt 0.500000 -0.025035
vt 0.382084 -0.025035
vt 0.999501 -0.999501
vt 0.999501 -0.025035
vt 0.000499 -0.999501
vt 0.617916 -0.999501
vt 0.191292 -0.025035
vt 0.808708 -0.999501
vt 0.808708 -0.025035
vt 0.590994 -0.304198
vt 0.239426 -0.412839
vt 0.544437 -0.784424
vt 0.100443 -0.743509
vt -0.463800 -0.466326
vt -0.463800 -0.743509
vt 0.750000 -0.743509
vt 0.750000 -0.466326
vt 0.100443 -0.466326
vt 1.963799 -0.743509
vt 1.399557 -0.466326
vt 1.399556 -0.743509
vt 0.382084 -0.999501
vt 0.191292 -0.999501
vt 0.412839 -0.000500
vt 0.784424 -0.000500
vt 0.617916 -0.025035
vt 0.215576 -0.000500
vt 0.695802 -0.000500
vt -0.463800 -0.046167
vt -0.463800 -0.307662
vt 2.536200 -0.307662
vt 1.963800 -0.046167
vt 2.536201 -0.743509
vt 2.536200 -0.466326
vt 1.963799 -0.466326
vt 0.750000 -0.046167
vt 1.209510 -0.019595
vt -0.807403 -0.019595
vt 0.067029 -0.019595
vt 2.536200 -0.046167
vt 0.409006 -0.000500
vt 0.760574 -0.000500
vt 2.192597 -0.019595
vt 0.544437 -0.000500
vn -0.634900 -0.055800 -0.770600
vn 0.029500 0.021000 0.999300
vn -0.146300 -0.055800 0.987700
vn 0.721900 0.021000 -0.691700
vn 0.810500 -0.009900 0.585600
vn -0.310000 -0.010000 -0.950700
vn -0.309600 -0.009900 0.950800
vn 0.809300 -0.009900 -0.587300
vn 0.808600 -0.010100 0.588200
vn -0.999900 -0.010000 -0.001600
vn 0.006000 1.000000 0.005000
vn 0.432300 0.260700 -0.863200
vn -0.272800 -0.682600 -0.677900
vn -0.114300 0.229300 0.966600
vn -0.930400 0.260700 0.257800
vn -0.320200 -0.682600 0.656900
vn 0.793900 0.229300 -0.563100
vn -0.308400 -0.010100 -0.951200
vn -1.000000 -0.010000 -0.000600
vn -0.442600 0.815800 0.372200
vn -0.312500 -0.010100 0.949900
vn 0.585200 0.808500 0.061500
vn 0.808000 -0.009800 -0.589100
vn 0.558600 0.027900 -0.828900
vn 0.957700 0.078800 0.276900
vn 0.517700 0.843000 0.146000
vn 0.519000 0.837300 0.172200
vn -0.107300 0.255400 0.960900
vn -0.590600 -0.685000 0.426600
vn -0.262300 -0.678600 -0.686100
vn 0.416200 0.247700 -0.874900
vn -0.989600 0.027900 0.141100
vn -0.436400 0.078800 -0.896300
vn -0.238700 0.843000 -0.482100
vn -0.220100 0.837300 -0.500500
vn 0.785000 0.255400 -0.564500
vn 0.712500 -0.685000 0.152300
vn -0.333300 -0.678600 0.654500
vn -0.928200 0.247700 0.277500
vn -0.592400 -0.678400 0.434600
vn -0.947600 -0.059900 0.313800
vn -0.620000 -0.060800 -0.782200
vn 0.063500 0.036000 0.997300
vn 0.237900 0.968700 0.071000
vn 0.563500 0.026300 -0.825700
vn 0.961500 0.085300 0.261100
vn 0.427200 0.781400 -0.454900
vn 0.719600 -0.678400 0.148300
vn 0.868000 -0.059900 0.492900
vn -0.164900 -0.060800 0.984400
vn 0.697500 0.036000 -0.715600
vn -0.434900 0.861700 -0.261300
vn -0.937900 -0.048400 0.343500
vn -0.233100 0.696900 -0.678200
vn -0.805700 0.592400 -0.001300
vn -0.106800 0.968700 -0.224100
vn -0.990500 0.026300 0.135300
vn -0.450700 0.085300 -0.888600
vn -0.623900 0.781400 -0.012100
vn 0.675200 0.549300 -0.492300
vn -0.224600 0.685800 -0.692300
vn 0.097600 0.861700 0.497900
vn 0.883600 -0.048400 0.465800
vn -0.424400 0.645700 -0.634800
vn 0.793100 0.309000 -0.524900
vn 0.130500 0.623700 0.770700
vn -0.773800 0.537900 0.334600
vn -0.186600 0.645700 0.740500
vn -0.921100 0.309000 -0.236700
vn 0.509000 0.148900 -0.847800
vn 0.834500 0.494300 0.243600
vn 0.484500 0.623700 -0.613400
vn 0.766900 0.537900 0.349900
vn 0.952500 0.160000 0.259100
vn 0.215300 0.686800 0.694200
vn -0.259400 0.530200 0.807200
vn 0.683700 0.531600 0.500000
vn -0.521100 -0.406000 -0.750800
vn -0.839800 -0.406000 0.360400
vn 0.833700 0.499900 0.234600
vn -0.015000 0.144800 0.989300
vn -0.970300 0.148900 0.190500
vn -0.378500 0.494300 -0.782500
vn -0.011600 0.151500 0.988400
vn -0.839800 -0.407000 0.359300
vn -0.446100 0.160000 -0.880600
vn 0.370900 0.686800 -0.625100
vn -0.207900 -0.406000 0.889900
vn 0.830400 -0.406000 0.381700
vn -0.523400 -0.405500 -0.749400
vn 0.515200 0.148400 -0.844100
vn -0.384700 0.499900 -0.775900
vn 0.744300 0.144800 -0.652000
vn 0.741300 0.151500 -0.653900
vn 0.829500 -0.407000 0.382400
vn -0.205300 -0.405500 0.890700
vn -0.971800 0.148400 0.183500
usemtl NW_SEQ_NATURE_CACTUS_01
s off
f 3/1/1 43/2/1 56/3/1
f 51/4/2 44/5/2 53/6/2
f 6/1/3 45/2/3 59/3/3
f 57/4/4 47/5/4 58/6/4
f 49/7/5 11/8/5 9/9/5
f 41/10/6 10/11/6 12/12/6
f 8/7/7 18/13/7 7/14/7
f 9/9/8 11/8/8 17/11/8
f 49/7/9 7/13/9 11/8/9
f 12/15/10 18/16/10 8/17/10
f 20/18/11 38/19/11 19/20/11
f 1/21/12 46/22/12 22/23/12
f 24/24/13 50/25/13 25/26/13
f 13/27/14 31/28/14 14/29/14
f 5/21/15 52/22/15 27/23/15
f 29/24/16 55/25/16 30/26/16
f 15/27/17 35/28/17 16/29/17
f 41/10/18 17/30/18 10/11/18
f 12/15/19 10/31/19 18/16/19
f 38/32/20 8/17/20 19/33/20
f 8/7/21 7/14/21 49/34/21
f 19/35/22 9/9/22 20/36/22
f 9/9/23 17/11/23 41/12/23
f 56/3/24 34/37/24 21/38/24
f 21/39/25 48/40/25 51/4/25
f 22/41/26 46/42/26 23/43/26
f 22/41/27 23/43/27 13/27/27
f 13/27/28 23/43/28 31/28/28
f 14/29/29 50/25/29 24/24/29
f 24/24/30 25/26/30 1/21/30
f 1/21/31 25/26/31 46/22/31
f 59/3/32 40/37/32 26/38/32
f 26/39/33 54/40/33 57/4/33
f 27/41/34 52/42/34 28/43/34
f 27/41/35 28/43/35 15/27/35
f 15/27/36 28/43/36 35/28/36
f 16/29/37 55/25/37 29/24/37
f 29/24/38 30/26/38 5/21/38
f 5/21/39 30/26/39 52/22/39
f 14/29/40 31/28/40 50/25/40
f 53/6/41 32/44/41 3/1/41
f 3/1/42 32/44/42 43/2/42
f 51/4/43 48/40/43 44/5/43
f 37/45/44 33/46/44 2/47/44
f 56/3/45 43/2/45 34/37/45
f 21/39/46 34/48/46 48/40/46
f 43/2/47 33/46/47 34/37/47
f 16/29/48 35/28/48 55/25/48
f 58/6/49 36/44/49 6/1/49
f 6/1/50 36/44/50 45/2/50
f 57/4/51 54/40/51 47/5/51
f 32/44/52 37/45/52 2/47/52
f 53/6/53 44/5/53 32/44/53
f 20/49/54 12/12/54 38/50/54
f 38/32/55 12/15/55 8/17/55
f 42/45/56 39/46/56 4/47/56
f 59/3/57 45/2/57 40/37/57
f 26/39/58 40/48/58 54/40/58
f 45/2/59 39/46/59 40/37/59
f 20/36/60 9/9/60 41/12/60
f 20/49/61 41/10/61 12/12/61
f 36/44/62 42/45/62 4/47/62
f 58/6/63 47/5/63 36/44/63
f 32/44/64 2/47/64 43/2/64
f 43/2/65 2/47/65 33/46/65
f 48/40/66 37/45/66 44/5/66
f 44/5/67 37/45/67 32/44/67
f 36/44/68 4/47/68 45/2/68
f 45/2/69 4/47/69 39/46/69
f 25/26/70 21/38/70 46/22/70
f 46/42/71 21/39/71 51/4/71
f 54/40/72 42/45/72 47/5/72
f 47/5/73 42/45/73 36/44/73
f 34/48/74 33/51/74 48/40/74
f 48/40/75 33/51/75 37/45/75
f 19/52/76 8/7/76 49/34/76
f 19/35/77 49/7/77 9/9/77
f 50/25/78 3/1/78 56/3/78
f 31/28/79 3/1/79 50/25/79
f 46/42/80 51/4/80 23/43/80
f 23/43/81 51/4/81 53/6/81
f 30/26/82 26/38/82 52/22/82
f 52/42/83 26/39/83 57/4/83
f 23/43/84 53/6/84 31/28/84
f 31/28/85 53/6/85 3/1/85
f 40/48/86 39/51/86 54/40/86
f 54/40/87 39/51/87 42/45/87
f 55/25/88 6/1/88 59/3/88
f 35/28/89 6/1/89 55/25/89
f 50/25/90 56/3/90 25/26/90
f 25/26/91 56/3/91 21/38/91
f 52/42/92 57/4/92 28/43/92
f 28/43/93 57/4/93 58/6/93
f 28/43/94 58/6/94 35/28/94
f 35/28/95 58/6/95 6/1/95
f 55/25/96 59/3/96 30/26/96
f 30/26/97 59/3/97 26/38/97
