# Blender v2.75 (sub 0) OBJ File: 'Empty.blend'
# www.blender.org
mtllib ADDON_PLANTS_LIANA_LONG_01_27P.mtl
o ADDON_PLANTS_LIANA_LONG_01_27P
v 2.826051 -0.530901 0.289129
v 2.791377 6.842547 0.257334
v 2.870925 6.842547 0.274998
v -4.382860 -1.515608 -0.257675
v -4.414954 6.933592 -0.290283
v -4.390477 6.933592 -0.212561
v 4.138384 0.187538 -0.318296
v 4.106290 6.716818 -0.350904
v 4.130766 6.716818 -0.273182
v 2.815853 6.842547 0.335056
v -4.387621 -1.470651 -0.229479
v 4.178095 6.716819 -0.330802
v -4.343149 6.933592 -0.270180
v 4.133623 0.223219 -0.290100
v 2.852448 -0.495221 0.280817
v 4.118325 0.223219 -0.338676
v 4.163203 0.223219 -0.326112
v 2.820052 -0.495221 0.316145
v 2.805655 -0.495221 0.270426
v -4.402919 -1.470651 -0.278055
v -4.358041 -1.470651 -0.265491
vt 0.999502 2.830003
vt 0.000546 2.830003
vt 0.000501 -3.830003
vt -2.830003 -0.000500
vt -2.830003 -0.999501
vt 3.830003 -0.999501
vt 0.999457 -3.830003
vt 3.830003 -0.000500
vt 0.333486 -0.500001
vt 0.000501 -0.000500
vt 0.000501 -0.999501
vt 0.999457 -0.500001
vn 0.737000 -0.001300 0.675900
vn 0.216800 -0.001300 -0.976200
vn -0.953800 -0.000900 0.300400
vn 0.269600 -0.001000 -0.963000
vn -0.953800 -0.001200 0.300400
vn 0.269600 -0.001300 -0.963000
vn -0.953800 -0.001300 0.300400
vn 0.772700 -0.001000 0.634700
vn 0.772700 -0.001300 0.634700
vn -0.896100 -0.342600 0.282200
vn 0.717800 -0.370200 0.589600
vn 0.250400 -0.370200 -0.894600
vn 0.687200 -0.361600 0.630100
vn -0.889300 -0.361600 0.280100
vn 0.202100 -0.361600 -0.910200
vn -0.916200 -0.278000 0.288500
vn 0.736800 -0.301500 0.605200
vn 0.257000 -0.301500 -0.918200
usemtl NW_NATURE_BARK_07
s off
f 3/1/1 10/2/1 18/3/1
f 2/1/2 3/2/2 15/3/2
f 6/4/3 5/5/3 20/6/3
f 5/1/4 13/2/4 21/3/4
f 9/4/5 8/5/5 16/6/5
f 8/1/6 12/2/6 17/3/6
f 10/4/7 2/5/7 19/6/7
f 13/1/8 11/3/8 21/7/8
f 6/4/3 20/6/3 11/8/3
f 12/1/9 9/2/9 14/3/9
f 13/1/8 6/2/8 11/3/8
f 12/1/9 14/3/9 17/7/9
f 9/4/5 16/6/5 14/8/5
f 3/1/1 18/3/1 15/7/1
f 2/1/2 15/3/2 19/7/2
f 8/1/6 17/3/6 16/7/6
f 7/9/10 14/10/10 16/11/10
f 7/9/11 17/12/11 14/10/11
f 7/9/12 16/11/12 17/12/12
f 10/4/7 19/6/7 18/8/7
f 1/9/13 15/12/13 18/10/13
f 1/9/14 18/10/14 19/11/14
f 1/9/15 19/11/15 15/12/15
f 5/1/4 21/3/4 20/7/4
f 4/9/16 11/10/16 20/11/16
f 4/9/17 21/12/17 11/10/17
f 4/9/18 20/11/18 21/12/18
