# Blender v2.75 (sub 0) OBJ File: 'Empty.blend'
# www.blender.org
mtllib ADDON_MISC_HOLZBOCK.mtl
o ADDON_MISC_HOLZBOCK
v -0.194448 0.847756 0.936255
v -0.194448 0.847756 -0.931510
v 0.212121 0.657256 -0.931510
v 0.212121 0.657256 0.936255
v -0.231066 -0.847576 0.987882
v 0.028183 0.840403 0.724700
v -0.187193 0.843272 0.912306
v -0.231066 -0.847576 -1.175509
v 0.028183 0.840403 -0.916054
v -0.187193 0.843272 -0.728448
v 0.231086 -0.847576 1.171688
v -0.028162 0.840403 0.912233
v 0.187213 0.843272 0.724627
v 0.230104 -0.847576 -0.982463
v -0.029143 0.840403 -0.727889
v 0.186230 0.843272 -0.915495
v -0.446442 -0.847555 1.175490
v -0.446442 -0.847555 -0.987902
v 0.445481 -0.847555 -1.170069
v 0.446462 -0.847555 0.984083
v 0.212121 0.847756 0.936255
v 0.212121 0.847756 -0.931510
v -0.194448 0.657256 -0.931510
v -0.194448 0.657256 0.936255
v -0.236811 -0.847736 1.175490
v 0.235848 -0.847736 -1.170069
v -0.440697 -0.847396 0.987882
v 0.022438 0.840301 0.912307
v 0.439737 -0.847396 -0.982462
v -0.023399 0.840301 -0.915495
v -0.181447 0.843374 0.724700
v 0.180487 0.843374 -0.727890
v -0.440697 -0.847396 -1.175510
v -0.181447 0.843374 -0.916054
v 0.440718 -0.847396 1.171688
v 0.181467 0.843374 0.912233
v -0.022418 0.840301 0.724627
v 0.022438 0.840301 -0.728448
v 0.236830 -0.847736 0.984083
v -0.236811 -0.847736 -0.987903
vt 0.836819 -0.632705
vt 2.198622 -0.632705
vt 2.198622 -0.544317
vt 1.221831 -0.413847
vt -0.139972 -0.413847
vt -0.139972 -0.502236
vt 1.221830 -0.502236
vt 0.836819 -0.544317
vt 1.249309 -0.608386
vt 1.249309 -0.504087
vt -0.357620 -0.504088
vt -0.357620 -0.608386
vn 0.000000 0.000000 1.000000
vn 0.000000 0.000000 -1.000000
vn -0.000000 -1.000000 0.000000
vn 0.000000 1.000000 0.000000
vn 0.002200 0.153500 0.988100
vn -0.002200 -0.153500 -0.988100
vn -0.002100 -0.151400 0.988500
vn 0.002100 0.151400 -0.988500
vn 0.002100 -0.151400 -0.988500
vn -0.002100 0.151400 0.988500
vn -0.002100 0.148600 -0.988900
vn 0.002100 -0.148600 0.988900
vn 0.000100 0.154000 0.988100
vn -0.000100 -0.154000 -0.988100
vn -0.000100 -0.151900 0.988400
vn 0.000100 0.151900 -0.988400
vn -0.000100 0.149100 -0.988800
vn 0.000100 -0.149100 0.988800
vn 0.000100 -0.151900 -0.988400
vn -0.000100 0.151900 0.988400
vn 1.000000 0.000000 0.000000
vn -1.000000 0.000000 0.000000
vn 0.988700 -0.147100 0.030200
vn -0.988600 -0.147300 -0.030100
vn -0.988700 0.146900 -0.030200
vn 0.988700 0.147100 0.030100
vn -0.988600 -0.147300 -0.030200
vn 0.988700 0.147000 0.030200
vn -0.987300 0.156000 -0.030100
vn -0.987300 0.156000 -0.030200
vn 0.987300 0.156000 0.030100
vn -0.987300 -0.156300 -0.030100
vn 0.987300 -0.156300 0.030200
vn -0.987300 -0.156200 -0.030100
vn 0.987300 -0.156300 0.030100
usemtl DT_TABLE_V2_2
s off
f 24/1/1 4/2/1 21/3/1
f 2/4/2 22/5/2 3/6/2
f 3/6/2 23/7/2 2/4/2
f 21/3/1 1/8/1 24/1/1
usemtl DT_TABLE_V2_1
f 23/9/3 3/10/3 4/11/3
f 21/10/4 22/11/4 2/12/4
f 4/11/3 24/12/3 23/9/3
f 2/12/4 1/9/4 21/10/4
f 28/9/5 7/10/5 17/11/5
f 27/10/6 31/11/6 6/12/6
f 38/9/7 10/10/7 18/11/7
f 33/10/8 34/11/8 9/12/8
f 37/9/9 13/10/9 20/11/9
f 35/10/10 36/11/10 12/12/10
f 30/9/11 16/10/11 19/11/11
f 29/10/12 32/11/12 15/12/12
f 17/11/13 25/12/13 28/9/13
f 6/12/14 5/9/14 27/10/14
f 18/11/15 40/12/15 38/9/15
f 9/12/16 8/9/16 33/10/16
f 19/11/17 26/12/17 30/9/17
f 15/12/18 14/9/18 29/10/18
f 20/11/19 39/12/19 37/9/19
f 12/12/20 11/9/20 35/10/20
f 22/10/21 21/11/21 4/12/21
f 4/12/21 3/9/21 22/10/21
f 1/10/22 2/11/22 23/12/22
f 23/12/22 24/9/22 1/10/22
f 28/12/23 25/9/23 5/10/23
f 30/12/24 26/9/24 14/10/24
f 31/10/25 27/11/25 17/12/25
f 5/10/23 6/11/23 28/12/23
f 32/10/26 29/11/26 19/12/26
f 14/10/27 15/11/27 30/12/27
f 17/12/25 7/9/25 31/10/25
f 19/12/28 16/9/28 32/10/28
f 34/10/29 33/11/29 18/12/29
f 18/12/30 10/9/30 34/10/30
f 36/10/31 35/11/31 20/12/31
f 20/12/31 13/9/31 36/10/31
f 11/10/32 12/11/32 37/12/32
f 8/10/33 9/11/33 38/12/33
f 37/12/34 39/9/34 11/10/34
f 38/12/35 40/9/35 8/10/35
