# Blender v2.75 (sub 0) OBJ File: 'Empty.blend'
# www.blender.org
mtllib ADDON_MISC_WOODPILLAR_L01.mtl
o ADDON_MISC_WOODPILLAR_L01
v -0.249990 -1.999990 -0.250010
v 0.250010 2.000010 -0.250010
v 0.250010 -1.999990 0.249990
v -0.249990 2.000010 -0.250010
v 0.250010 -1.999990 -0.250010
v -0.249990 -1.999990 0.249990
v 0.250010 2.000010 0.249990
v -0.249990 2.000010 0.249990
v 0.250010 -0.999990 -0.250010
v -0.249990 -0.999990 -0.250010
v 0.250010 -0.999990 0.249990
v -0.249990 -0.999990 0.249990
v 0.250010 0.000010 -0.250010
v -0.249990 0.000010 -0.250010
v 0.250010 0.000010 0.249990
v -0.249990 0.000010 0.249990
v 0.250010 1.000010 -0.250010
v -0.249990 1.000010 -0.250010
v 0.250010 1.000010 0.249990
v -0.249990 1.000010 0.249990
vt 0.465169 -0.500000
vt 0.571552 -0.500000
vt 0.571552 -0.287234
vt 0.792765 -0.500000
vt 0.686382 -0.500000
vt 0.686382 -0.287234
vt 0.792765 -0.287234
vt 0.465169 -0.287234
vt 0.792765 -0.712766
vt 0.686382 -0.712766
vt 0.686382 -0.925532
vt 0.465169 -0.925532
vt 0.571552 -0.925532
vt 0.571552 -0.712766
vt 0.465169 -0.712766
vt 0.792764 -0.925532
vt 0.571552 -0.074468
vt 0.792765 -0.074468
vt 0.686382 -0.074468
vt 0.465169 -0.074468
vt 0.999500 -0.000500
vt 0.999500 -0.999501
vt 0.000500 -0.999500
vt 0.000500 -0.000499
vn 1.000000 0.000000 0.000000
vn 0.000000 0.000000 1.000000
vn 0.000000 0.000000 -1.000000
vn -1.000000 0.000000 0.000000
vn 0.000000 -1.000000 0.000000
vn 0.000000 1.000000 0.000000
usemtl NW_SEQ_MISC_WOODWALL_01
s off
f 15/1/1 13/2/1 17/3/1
f 16/4/2 15/5/2 19/6/2
f 18/7/3 17/6/3 13/5/3
f 20/8/4 18/3/4 14/2/4
f 13/5/3 14/4/3 18/7/3
f 14/2/4 16/1/4 20/8/4
f 17/3/1 19/8/1 15/1/1
f 19/6/2 20/7/2 16/4/2
f 10/9/3 9/10/3 5/11/3
f 3/12/1 5/13/1 9/14/1
f 12/15/4 10/14/4 1/13/4
f 5/11/3 1/16/3 10/9/3
f 9/14/1 11/15/1 3/12/1
f 6/16/2 3/11/2 11/10/2
f 1/13/4 6/12/4 12/15/4
f 11/10/2 12/9/2 6/16/2
f 14/4/3 13/5/3 9/10/3
f 11/15/1 9/14/1 13/2/1
f 16/1/4 14/2/4 10/14/4
f 9/10/3 10/9/3 14/4/3
f 13/2/1 15/1/1 11/15/1
f 12/9/2 11/10/2 15/5/2
f 10/14/4 12/15/4 16/1/4
f 15/5/2 16/4/2 12/9/2
f 19/8/1 17/3/1 2/17/1
f 4/18/3 2/19/3 17/6/3
f 17/6/3 18/7/3 4/18/3
f 8/20/4 4/17/4 18/3/4
f 20/7/2 19/6/2 7/19/2
f 2/17/1 7/20/1 19/8/1
f 7/19/2 8/18/2 20/7/2
f 18/3/4 20/8/4 8/20/4
usemtl NW_NATURE_BARKRINGS_01
f 5/21/5 3/22/5 6/23/5
f 6/23/5 1/24/5 5/21/5
f 2/21/6 4/24/6 8/23/6
f 8/23/6 7/22/6 2/21/6
