# Blender v2.75 (sub 0) OBJ File: 'Empty.blend'
# www.blender.org
mtllib ADDON_MISC_HOLZWAND_02.mtl
o ADDON_MISC_HOLZWAND_02
v 0.411255 1.511129 -2.720586
v -0.216958 1.687147 2.812329
v 0.250298 2.029649 -1.208374
v 0.477759 -1.148490 -2.498638
v -0.245766 0.514541 2.748720
v 0.476690 -0.548453 -2.684864
v -0.245498 1.093345 2.576171
v 0.373789 1.007952 -2.603526
v -0.246499 1.078006 2.775000
v -0.244140 1.624641 2.740361
v 0.373472 1.454691 -2.625899
v -0.280732 -0.502086 2.749668
v 0.364619 -0.061988 -2.777852
v 0.404234 -0.500576 -2.709785
v -0.280473 -0.064769 2.772031
v -0.285508 -0.024519 2.821533
v 0.360806 0.021712 -2.718164
v -0.283203 0.412797 2.813046
v -0.216220 2.109771 2.800898
v 0.310674 1.632748 -1.168159
v 0.405723 1.910012 -2.676880
v 0.359898 0.384671 -2.706817
v -0.086162 -2.607141 -0.092012
v 0.004580 2.538118 0.209844
v -0.086162 2.607160 -0.092012
v 0.232329 -2.607141 -2.817403
v 0.365064 2.538118 -2.535098
v 0.232329 2.607160 -2.817403
v 0.004580 -2.607141 0.209844
v 0.365064 -2.607141 -2.535098
v -0.443969 -2.607141 2.519150
v -0.452676 2.538118 2.677431
v -0.254790 -2.607141 2.743906
v -0.246079 2.607160 2.585615
v -0.452676 -2.607141 2.677431
v -0.420874 2.556245 2.525957
v -0.246079 -2.607141 2.585615
v -0.254790 2.556245 2.743906
v 0.241206 -2.607141 -2.558174
v 0.356187 -2.607141 -2.794312
v -0.117817 -2.607141 0.154253
v 0.036240 -2.607141 -0.036426
v 0.036240 2.556245 -0.036426
v -0.090888 0.366885 0.294507
v 0.356187 2.556245 -2.794312
v 0.239434 2.556245 -2.588496
v -0.114863 2.556245 0.125244
v 0.241206 -0.346972 -2.558174
v 0.352266 -0.346972 -2.563867
v -0.270454 -0.044306 1.548691
v 0.336079 1.873465 -2.675874
v -0.244516 0.836861 2.557119
v 0.339839 1.550899 -2.703985
v -0.283867 0.836861 2.719648
v -0.254790 -0.346972 2.743906
v 0.129131 1.646865 0.062905
v 0.262168 1.646482 -1.191026
v -0.228174 -0.096351 2.766284
v -0.139844 0.836861 0.144258
v -0.117817 -0.346972 0.154253
v -0.273091 2.050920 2.732109
v 0.365064 0.836861 -2.535098
v -0.004853 -0.523984 0.290478
v -0.234131 -0.535848 1.530000
v 0.361787 -0.483027 -2.732910
v -0.230073 0.412493 2.794853
v 0.321221 1.413758 -2.619907
v -0.061538 -0.058282 0.276552
v -0.231386 -0.015212 2.800224
v 0.424224 -0.587655 -2.669121
v -0.226606 -0.467719 2.728359
v 0.218916 0.836861 -2.562334
v -0.003930 -0.346972 0.179277
v 0.004580 0.836861 0.209844
v 0.380864 -0.750666 -1.282691
v -0.286753 0.539010 2.700415
v -0.008408 0.328784 0.323945
v 0.402432 0.385554 -2.673379
v -0.272094 1.710840 2.728291
v -0.034150 1.025204 1.200556
v 0.319761 1.052490 -2.581953
v 0.402261 0.012986 -2.680039
v 0.326914 -0.738309 -1.314131
v 0.423067 -1.091913 -2.492867
v 0.351602 1.720664 -2.503633
v -0.442407 0.836861 2.490674
v 0.019990 1.009826 1.226606
v 0.042202 1.603623 0.022231
v -0.285322 1.101541 2.694638
v -0.284956 1.556538 2.679121
v -0.008408 -0.077673 0.323945
v 0.405108 -0.053119 -2.713614
v -0.014062 1.720664 0.235742
v 0.416304 -0.076556 -1.484649
v 0.329810 -0.129065 -1.514258
v -0.288335 1.022447 2.569868
v -0.245053 1.720664 2.566899
v -0.431577 -0.346972 2.669062
v -0.443969 -0.346972 2.519150
v -0.452676 0.836861 2.677431
v 0.356187 -0.346972 -2.794312
v 0.210044 0.836861 -2.821553
v 0.217691 1.720664 -2.820117
v 0.346402 0.836861 -2.757276
v -0.477739 1.720664 2.649970
v 0.036240 -0.346972 -0.036426
v -0.108188 0.836861 -0.102017
v -0.100630 1.720664 -0.098594
v 0.020464 0.836861 -0.004268
v 0.328179 2.068254 -1.172788
v -0.253760 1.720664 2.725195
v -0.004853 -0.046417 0.290478
v 0.234175 1.720664 -2.546031
v -0.126875 1.720664 0.163750
v -0.453784 1.720664 2.506098
v 0.021768 1.720664 -0.042989
v 0.341548 1.720664 -2.797031
v -0.246079 -0.346972 2.585615
v -0.086162 -0.346972 -0.092012
v 0.232329 -0.346972 -2.817403
vt 0.241226 -0.936012
vt 1.069620 -0.934463
vt 1.136838 0.435477
vt 0.818037 0.456145
vt 0.409267 -0.932945
vt 0.767848 -0.936012
vt 0.875311 0.869010
vt 0.767954 -0.682944
vt 1.766955 -0.693928
vt -0.699145 -0.697498
vt 0.207928 -0.685414
vt 0.083079 0.846142
vt 1.731017 0.864948
vt -0.627651 0.847586
vt 0.850518 0.236829
vt 0.135281 0.237946
vt 0.063655 -0.510586
vt 0.702366 -1.254509
vt 1.004278 -0.507826
vt 0.003446 -0.184345
vt 0.000502 -1.248518
vt 0.361942 -1.247976
vt 0.929524 -1.237623
vt 0.972391 -0.186254
vt 0.673077 0.437996
vt 0.334492 0.439389
vt 0.300432 -0.605529
vt 0.731871 -1.048036
vt 0.714751 0.456142
vt 0.307100 0.460062
vt 0.732554 -0.593869
vt 0.255956 -1.037437
vt 0.388019 -1.035786
vt 0.665296 -1.022993
vt 0.621397 0.124675
vt 0.385049 0.133311
vt 0.325934 -1.025263
vt 0.640138 -1.035717
vt 0.841756 -0.932945
vt 0.722282 0.456145
vt -0.191268 0.456890
vt 0.402395 0.439397
vt -0.099581 -0.932599
vt 0.503406 -1.436601
vt -0.282562 -1.462987
vt 0.576820 -1.444794
vt 1.198745 -1.448816
vt 0.653283 0.129011
vt 0.346067 0.122245
vt 0.883123 -0.721930
vt 0.000500 -0.721930
vt 0.000500 -1.387806
vt 0.116877 -0.277217
vt 0.866325 -0.277217
vt 0.999500 0.054789
vt 0.000542 -0.277217
vt 0.883123 -0.277217
vt 0.929236 0.054789
vt 0.000499 0.054789
vt 0.999500 -0.721930
vt 0.207295 -0.721930
vt 0.116877 -1.387806
vt 0.883123 -1.387806
vt 0.466764 -1.387806
vt 0.999685 -1.387806
vt 0.948531 -0.721930
vt 0.447608 -0.721985
vt 0.999500 -1.387806
vt 0.999500 0.387806
vt 0.195347 0.380328
vt 0.116877 0.361869
vt 0.000314 -1.387806
vt 0.533236 -1.387806
vt 0.533236 -0.721930
vt 0.999500 0.368679
vt 0.000315 -0.721930
vt 0.370869 -0.277217
vt 0.999685 -0.277217
vt 0.936704 0.054789
vt 0.596218 0.054789
vt 0.124874 0.054812
vt 0.048200 -0.277217
vt 0.674066 -1.988794
vt 0.647349 0.129011
vt 0.329762 -1.035717
vt 0.436473 -1.035786
vt 0.126526 0.054815
vt 0.221511 0.380044
vt 0.415592 0.054503
vt 0.224277 0.380229
vt 0.496443 -0.722007
vt 0.491115 -0.722018
vt 0.712058 -1.460062
vt 0.339072 0.456142
vt 0.000191 -1.048036
vt 0.176352 -0.605529
vt 1.249496 -0.829161
vt 1.636650 -0.829967
vt 1.680861 -0.768748
vt 0.214814 -1.436601
vt 0.780349 0.368679
vt -0.007232 0.387840
vt 0.054625 0.054810
vt 0.533236 0.387806
vt 0.290196 -0.934463
vt 0.791026 -1.448816
vt 0.999501 -1.462987
vt 1.200997 -0.765665
vt 0.629130 -0.277217
vt 0.968274 0.251368
vt 0.107795 0.254509
vt 0.635247 0.251368
vt 0.316774 -0.507826
vt 0.521465 -0.510586
vt 0.002749 0.435477
vt 0.375765 -0.934572
vt 0.513756 -0.932599
vt 0.410829 -0.931968
vt -0.667617 -0.803427
vt -0.221547 -0.798116
vt -0.185345 -0.758231
vt 0.065357 -1.460419
vt 0.120355 -1.451908
vt 0.411528 0.054538
vt 0.466764 -0.721930
vt 1.147604 0.440233
vt 1.553190 -1.007925
vt 2.060147 -1.008636
vt 1.988080 -1.063853
vt 0.924161 -0.721930
vt 0.318521 -1.451908
vt 0.678079 -1.438986
vt 0.617879 0.437996
vt 0.828087 -0.616930
vt 0.965598 -1.037437
vt 0.288647 -1.452584
vt 0.931980 -1.452584
vt 0.822353 -0.593869
vt 0.660778 0.460062
vt -0.031233 -1.040600
vt -0.566968 -1.021067
vt -0.546960 -0.999681
vt -1.204362 -0.802781
vt -0.690870 -0.803428
vt -0.691232 -0.757589
vt 0.309787 -1.987664
vt 0.363904 -1.975152
vt 0.680130 -0.805141
vt 1.114115 -0.799366
vt 1.161509 -0.759944
vt -0.013083 -1.254658
vt 0.122951 -1.247976
vt 0.350886 -1.992222
vt 0.296861 0.124675
vt 0.561848 -1.022993
vt 0.634651 -1.025263
vt -1.216336 -0.755306
vt 0.703920 -1.992222
vt -0.064893 -0.804314
vt 0.576645 -0.799300
vt 0.629480 -0.759409
vt 0.876109 0.864948
vt 0.000500 -0.693928
vt 0.247531 -0.697498
vt 0.875553 -1.438628
vt -0.709671 -0.755910
vt 0.918853 -0.721930
vt 0.836575 -1.113187
vt 1.725364 -1.120937
vt 0.002201 0.846142
vt 0.748806 -0.685414
vt 0.902794 -0.682944
vt 0.142042 0.854000
vt 0.688124 -1.041657
vt 0.086192 -1.045160
vt 0.045960 -1.000539
vt 0.326157 -1.975152
vt 0.693729 0.121688
vt -1.019574 -0.999051
vt -0.584068 -1.001962
vt -0.583780 -1.039893
vt 0.181963 0.456890
vt 1.580197 -1.068868
vt 0.999632 -1.248518
vt 0.563655 -0.183245
vt 0.475499 -0.186254
vt 0.879231 -1.237623
vt 0.625867 -0.757608
vt 0.348011 0.133716
vt -1.030782 -1.038714
vt -0.661174 -1.112486
vt 0.093579 -1.099094
vt 0.890093 -1.113187
vt 0.854886 -0.681875
vt 0.744788 -1.099094
vt -0.125037 -0.756772
vt 0.434518 0.054789
vt 0.925743 0.054901
vt 0.999685 0.361869
vt 0.449318 0.054608
vt 0.263921 0.236829
vt 0.493399 -0.186460
vt 0.603094 -0.184345
vt 0.364403 0.254509
vt 1.419149 -1.042695
vt 0.873947 -1.047514
vt 0.846996 -1.001600
vt 0.779514 0.239759
vt 1.502215 -1.002406
vt 0.374909 0.442676
vt -0.040482 -1.000181
vt 0.094337 -1.120374
vt 0.257846 -1.112486
vt 1.046428 0.862955
vt 0.771701 -1.001416
vt 0.967711 -0.721930
vt 0.005647 0.387827
vt 0.063296 0.054789
vt 0.008202 0.387829
vt -0.119879 -1.444867
vt 0.000329 0.368680
vt 0.642238 -1.977303
vt 0.637549 -1.977320
vt 0.463590 0.368679
vt 0.471684 -0.721598
vt 0.470074 -0.721549
vn -0.990200 -0.036800 -0.134400
vn -0.418500 0.905800 -0.066800
vn 0.987900 -0.005400 0.155300
vn -0.989600 -0.040700 -0.138300
vn 0.988000 0.043800 0.148400
vn -0.989600 -0.040600 -0.138300
vn -0.992500 -0.003400 -0.122300
vn 0.995900 -0.004700 0.090800
vn 0.995700 0.005300 0.092000
vn -0.995600 -0.005800 -0.093200
vn 0.990900 -0.000800 0.134900
vn -0.989400 -0.008800 -0.145200
vn 0.990800 -0.002200 0.135100
vn -0.988000 -0.067700 -0.139000
vn 0.990700 -0.002700 0.135700
vn -0.988000 -0.062300 -0.141000
vn 0.990700 0.001900 0.135700
vn -0.991300 -0.001400 -0.131700
vn 0.990500 -0.038400 0.131800
vn -0.997900 -0.033400 -0.054800
vn 0.997900 0.006800 0.064100
vn -0.998700 -0.007200 -0.050800
vn -0.988900 0.002200 -0.148500
vn 0.990700 -0.002900 0.135700
vn -0.991800 0.000000 -0.127500
vn 0.997300 0.001800 0.074000
vn -0.999300 0.016600 0.034200
vn 0.999300 0.016400 -0.034200
vn 0.983100 0.006200 0.183100
vn 0.996500 0.001700 -0.083700
vn -0.999400 0.000000 0.034200
vn 0.318400 0.000000 -0.948000
vn -0.998400 0.009100 -0.054900
vn -0.389800 0.007000 0.920900
vn -0.996600 0.000000 0.082400
vn -0.318400 0.000000 0.947900
vn -0.295600 0.953900 0.052100
vn 0.998500 0.000000 0.054900
vn -0.184000 0.938600 0.291800
vn -0.183100 -0.037800 0.982400
vn 0.183300 0.000000 -0.983100
vn -0.413500 0.010800 0.910400
vn 0.413500 0.000000 -0.910500
vn 0.337800 0.934500 0.112200
vn 0.413300 -0.040500 -0.909700
vn -0.995000 -0.065500 -0.074800
vn 0.399100 0.914600 0.065400
vn 0.371400 0.927000 0.052100
vn 0.183100 -0.043200 -0.982200
vn 0.049200 0.975300 0.215400
vn -0.339600 -0.011500 0.940500
vn -0.012700 0.973900 0.226600
vn -0.214600 0.000000 0.976700
vn 0.051200 0.000000 0.998700
vn 0.999800 0.005900 0.017000
vn -0.183100 0.011500 0.983000
vn -0.997300 -0.073300 -0.009400
vn 0.325600 0.944500 0.043900
vn -0.059500 0.086000 -0.994500
vn -0.396300 0.910200 -0.120000
vn 0.317600 0.020400 -0.948000
vn -0.480800 -0.876300 0.030700
vn -0.169300 0.105000 -0.980000
vn -0.242600 0.002200 0.970100
vn 0.997900 -0.034300 0.054900
vn -0.389800 0.009300 0.920800
vn 0.971500 0.028700 0.235200
vn 0.990400 0.004500 0.138100
vn -0.425300 0.903600 -0.051800
vn -0.263600 -0.964400 -0.020100
vn -0.296200 -0.953500 0.055500
vn 0.048100 -0.101300 0.993700
vn 0.518300 0.855000 0.018500
vn -0.991700 0.017400 -0.127500
vn -0.537900 -0.010700 0.842900
vn -0.991700 -0.019500 -0.127500
vn -0.413500 -0.000000 0.910500
vn -0.660300 0.745300 -0.091700
vn -0.778200 0.018300 0.627700
vn 0.996500 -0.008700 -0.083700
vn 0.051200 -0.024800 0.998400
vn 0.995900 -0.005100 0.090700
vn 0.036400 -0.999300 -0.002800
vn -0.999300 0.002500 -0.038300
vn 0.245900 -0.968600 0.036200
vn -0.352800 -0.933700 -0.060900
vn 0.475700 -0.008500 -0.879600
vn 0.324000 0.010900 0.946000
vn -0.000500 0.999800 -0.018300
vn -0.032300 -0.104300 -0.994000
vn -0.620700 0.776000 -0.111900
vn -0.996100 0.003500 -0.087700
vn 0.202900 -0.979200 0.008200
vn 0.363900 0.016200 0.931300
vn 0.197600 -0.979800 0.030400
vn -0.036700 -0.329700 -0.943400
vn -0.412000 0.855500 -0.313600
vn 0.554100 -0.829500 0.069500
vn 0.391700 -0.047200 0.918900
vn -0.999200 -0.018700 0.034200
vn -0.183200 0.000000 0.983100
vn -0.413200 -0.035400 0.909900
vn 0.991700 0.017200 0.127500
vn 0.997200 -0.009100 0.074000
vn -0.214600 -0.023700 0.976400
vn 0.997100 0.024000 0.071600
vn -0.345600 -0.908200 0.236100
vn -0.626300 -0.766400 0.143200
vn -0.701700 0.183600 0.688400
vn 0.996000 0.001500 0.089300
vn 0.417400 0.908700 0.006700
vn -0.032200 0.999400 0.014500
vn 0.617500 0.026100 -0.786200
vn -0.350800 -0.935900 -0.033700
vn -0.837200 -0.008600 0.546800
vn -0.970600 -0.185000 -0.153700
vn -0.262600 -0.964600 -0.023800
vn -0.650300 -0.756800 -0.066300
vn -0.402900 -0.046100 -0.914100
vn -0.162200 -0.985500 -0.049200
vn 0.678300 0.012800 -0.734600
vn -0.997000 -0.023700 -0.074200
vn -0.359000 -0.895100 0.264300
vn -0.703000 -0.695000 0.151100
vn -0.377800 -0.275100 -0.884100
vn 0.999200 -0.017800 -0.035500
vn -0.339300 0.041800 0.939800
vn 0.318200 0.020600 -0.947800
vn -0.986400 -0.009800 -0.164200
vn 0.978100 0.129500 0.162600
vn -0.274600 -0.961600 0.003000
vn -0.992400 -0.072000 -0.099600
vn -0.401900 0.909300 -0.107800
vn -0.456900 -0.888600 -0.039500
vn -0.898500 0.015700 0.438700
vn -0.816300 0.570500 -0.090400
vn -0.850000 0.037000 0.525400
vn 0.996000 0.001200 0.089600
vn 0.270800 0.962100 0.031700
vn -0.187300 0.982100 -0.017600
vn 0.848200 -0.061900 -0.526100
vn 0.991800 -0.018600 0.126100
vn -0.537500 0.038900 0.842300
vn 0.997400 -0.033500 0.063300
vn -0.627000 0.713800 -0.312200
vn -0.997100 -0.019500 -0.073800
vn -0.387500 0.845500 -0.367400
vn -0.813700 0.515500 -0.268500
vn -0.523400 0.243700 0.816500
vn 0.971900 -0.002000 0.235300
vn 0.279600 0.010800 -0.960000
vn -0.998000 -0.030000 -0.054900
vn -0.318300 0.020400 0.947800
vn 0.318300 -0.023200 -0.947700
vn -0.998500 -0.000000 -0.054900
vn -0.242600 -0.011200 0.970100
vn -0.996400 -0.018300 0.082400
vn 0.999400 0.000000 -0.034200
vn -0.999300 0.016400 0.034700
vn 0.183200 -0.000000 -0.983100
vn 0.426400 -0.002200 -0.904500
vn -0.998200 0.008500 0.060000
vn 0.999800 0.007700 0.017000
vn 0.426200 0.031800 -0.904100
vn -0.316500 -0.022200 0.948300
vn -0.985800 0.035700 -0.164100
vn 0.991800 0.000000 0.127500
vn -0.991800 0.017100 -0.127000
vn 0.413600 0.000000 -0.910400
vn 0.605000 -0.002100 -0.796200
vn -0.995000 0.008900 -0.099500
vn 0.983100 0.008100 0.183100
vn 0.604700 0.029700 -0.795900
vn 0.997700 -0.039500 0.055600
vn -0.462800 0.878800 -0.116300
vn -0.318300 -0.021600 0.947700
vn 0.995900 -0.001900 0.089900
vn 0.180300 -0.983200 0.028500
vn -0.998200 0.009300 0.060000
vn -0.384700 0.049300 0.921700
vn -0.995000 0.009700 -0.099500
vn -0.572700 0.045900 0.818500
vn 0.279600 0.011800 -0.960000
vn -0.978800 0.043300 -0.200300
vn 0.991700 -0.018200 0.127500
vn 0.999300 -0.017400 -0.034200
vn 0.318200 -0.023200 -0.947700
usemtl NW_CITY_WOOD_ORNAMENT_02
s off
f 3/1/1 57/2/1 79/3/1
f 19/4/2 110/5/2 3/6/2
f 5/7/3 75/8/3 94/9/3
f 95/10/4 83/11/4 76/12/4
f 94/9/5 7/13/5 5/7/5
f 76/12/6 96/14/6 95/10/6
f 89/15/7 90/16/7 88/17/7
f 11/18/8 56/19/8 87/20/8
f 87/20/9 8/21/9 11/18/9
f 67/22/10 81/23/10 80/24/10
f 14/25/11 92/26/11 91/27/11
f 50/28/12 13/29/12 65/30/12
f 91/27/13 63/31/13 14/25/13
f 65/30/14 64/32/14 50/28/14
f 77/33/15 112/34/15 82/35/15
f 17/36/16 68/37/16 44/38/16
f 110/39/17 19/40/17 2/41/17
f 79/3/18 61/42/18 3/1/18
f 2/41/19 20/43/19 110/39/19
f 57/2/20 3/1/20 51/44/20
f 20/43/21 1/45/21 21/46/21
f 51/44/22 53/47/22 57/2/22
f 44/38/23 22/48/23 17/36/23
f 82/35/24 78/49/24 77/33/24
f 60/50/25 119/51/25 23/52/25
f 74/53/26 109/54/26 116/55/26
f 102/56/27 72/57/27 113/58/27
f 117/55/28 85/59/28 62/53/28
f 106/60/29 73/61/29 29/62/29
f 23/52/25 41/63/25 60/50/25
f 62/53/30 104/54/30 117/55/30
f 48/50/31 120/51/31 26/52/31
f 37/52/32 31/63/32 99/50/32
f 31/64/33 35/65/33 98/66/33
f 55/60/34 98/61/34 35/62/34
f 98/66/35 99/67/35 31/64/35
f 35/62/36 33/68/36 55/60/36
f 34/69/37 36/70/37 32/71/37
f 99/50/32 118/51/32 37/52/32
f 33/72/38 37/73/38 118/74/38
f 32/71/39 38/75/39 34/69/39
f 118/74/38 55/76/38 33/72/38
f 72/77/40 62/78/40 85/79/40
f 40/72/41 26/73/41 120/74/41
f 41/64/42 29/65/42 73/66/42
f 42/72/43 23/73/43 119/74/43
f 24/71/44 43/75/44 25/69/44
f 108/80/45 116/81/45 109/82/45
f 18/83/46 44/38/46 68/37/46
f 22/84/47 44/85/47 77/86/47
f 27/71/48 45/75/48 28/69/48
f 103/80/49 117/87/49 104/82/49
f 28/69/50 46/88/50 27/71/50
f 85/79/51 113/89/51 72/77/51
f 25/69/52 47/90/52 24/71/52
f 73/66/53 60/91/53 41/64/53
f 26/52/31 39/63/31 48/50/31
f 49/66/54 48/92/54 39/64/54
f 101/60/55 49/61/55 30/62/55
f 39/64/56 30/65/56 49/66/56
f 15/93/57 50/28/57 64/32/57
f 13/94/58 50/95/58 91/96/58
f 53/97/59 51/98/59 21/99/59
f 51/100/60 3/6/60 110/5/60
f 36/101/61 34/102/61 97/59/61
f 111/103/38 97/80/38 34/104/38
f 57/105/62 53/106/62 1/107/62
f 21/99/63 1/108/63 53/97/63
f 100/53/64 54/54/64 111/55/64
f 97/80/65 111/103/65 54/82/65
f 98/61/66 55/60/66 54/54/66
f 52/109/67 54/82/67 55/76/67
f 56/19/68 10/110/68 9/111/68
f 10/112/69 56/113/69 88/114/69
f 79/115/70 57/116/70 20/117/70
f 1/107/71 20/118/71 57/105/71
f 71/119/72 58/120/72 15/121/72
f 50/95/73 15/122/73 58/123/73
f 107/56/74 59/57/74 114/58/74
f 93/79/75 114/124/75 59/77/75
f 119/51/76 60/50/76 59/57/76
f 74/78/77 59/77/77 60/125/77
f 3/6/78 61/126/78 19/4/78
f 2/127/79 19/128/79 61/129/79
f 104/54/80 62/53/80 49/61/80
f 48/125/81 49/130/81 62/78/81
f 58/131/82 71/132/82 63/31/82
f 14/133/83 63/134/83 64/135/83
f 64/32/84 12/136/84 15/93/84
f 12/137/85 64/135/85 63/138/85
f 64/135/86 65/139/86 14/133/86
f 92/140/87 14/141/87 65/142/87
f 69/143/88 66/144/88 18/145/88
f 44/85/89 18/146/89 66/147/89
f 81/148/90 67/149/90 11/150/90
f 56/113/91 11/151/91 67/152/91
f 68/37/92 16/153/92 18/83/92
f 82/154/93 112/155/93 68/156/93
f 18/145/94 16/157/94 69/143/94
f 16/158/95 68/156/95 112/155/95
f 84/159/96 70/160/96 6/161/96
f 7/162/97 94/163/97 95/164/97
f 63/138/98 71/165/98 12/137/98
f 15/121/99 12/166/99 71/119/99
f 120/51/100 48/50/100 72/57/100
f 62/78/101 72/77/101 48/125/101
f 59/77/102 74/78/102 93/79/102
f 116/55/103 93/59/103 74/53/103
f 109/54/104 74/53/104 73/61/104
f 60/125/105 73/167/105 74/78/105
f 75/8/106 4/168/106 6/169/106
f 76/170/107 83/171/107 75/172/107
f 75/172/108 5/173/108 76/170/108
f 96/174/109 76/175/109 5/176/109
f 112/34/110 77/33/110 66/177/110
f 66/147/111 77/86/111 44/85/111
f 77/86/112 78/178/112 22/84/112
f 17/179/113 22/180/113 78/181/113
f 20/117/114 2/182/114 79/115/114
f 61/129/115 79/183/115 2/127/115
f 88/17/116 80/24/116 89/15/116
f 8/184/117 87/185/117 80/186/117
f 80/186/118 81/187/118 8/184/118
f 11/150/119 8/188/119 81/148/119
f 68/156/120 17/189/120 82/154/120
f 78/181/121 82/190/121 17/179/121
f 70/191/122 84/192/122 83/11/122
f 4/193/123 75/194/123 83/171/123
f 83/171/124 84/195/124 4/193/124
f 6/161/125 4/196/125 84/159/125
f 45/75/126 27/71/126 85/59/126
f 113/197/127 85/198/127 27/199/127
f 52/56/128 86/57/128 115/58/128
f 105/79/129 115/200/129 86/77/129
f 9/111/130 87/20/130 56/19/130
f 89/201/131 80/202/131 87/203/131
f 80/24/132 88/17/132 67/22/132
f 67/152/133 88/114/133 56/113/133
f 87/203/134 9/204/134 89/201/134
f 90/205/135 89/206/135 9/207/135
f 88/114/136 90/208/136 10/112/136
f 9/207/137 10/209/137 90/205/137
f 63/31/138 91/27/138 58/131/138
f 58/123/139 91/96/139 50/95/139
f 91/96/140 92/210/140 13/94/140
f 65/142/141 13/211/141 92/140/141
f 43/75/142 24/71/142 93/59/142
f 114/197/143 93/198/143 24/199/143
f 6/169/144 94/9/144 75/8/144
f 94/163/145 6/212/145 70/213/145
f 83/11/146 95/10/146 70/191/146
f 70/213/147 95/164/147 94/163/147
f 95/164/148 96/214/148 7/162/148
f 5/176/149 7/215/149 96/174/149
f 54/82/150 52/109/150 97/80/150
f 115/58/151 97/59/151 52/56/151
f 86/77/152 100/78/152 105/79/152
f 111/55/153 105/59/153 100/53/153
f 118/51/154 99/50/154 86/57/154
f 100/78/155 86/77/155 99/125/155
f 54/54/156 100/53/156 98/61/156
f 99/125/157 98/216/157 100/78/157
f 30/62/158 40/68/158 101/60/158
f 120/74/41 101/76/41 40/72/41
f 46/101/159 28/217/159 103/59/159
f 117/218/160 103/80/160 28/104/160
f 104/82/161 102/109/161 103/80/161
f 113/58/162 103/59/162 102/56/162
f 49/61/163 101/60/163 104/54/163
f 102/109/164 104/82/164 101/76/164
f 38/75/165 32/71/165 105/59/165
f 115/197/166 105/79/166 32/199/166
f 29/62/167 42/68/167 106/60/167
f 119/74/43 106/76/43 42/72/43
f 47/101/168 25/219/168 108/59/168
f 116/218/169 108/80/169 25/104/169
f 109/82/170 107/109/170 108/80/170
f 114/58/171 108/59/171 107/56/171
f 73/61/172 106/60/172 109/54/172
f 107/109/173 109/82/173 106/76/173
f 21/46/174 110/39/174 20/43/174
f 110/5/175 21/220/175 51/100/175
f 105/59/176 111/55/176 38/75/176
f 34/104/38 38/221/38 111/103/38
f 66/177/177 69/222/177 112/34/177
f 112/155/178 69/223/178 16/158/178
f 103/59/179 113/58/179 46/101/179
f 27/199/180 46/224/180 113/197/180
f 108/59/181 114/58/181 47/101/181
f 24/199/182 47/224/182 114/197/182
f 97/59/183 115/58/183 36/101/183
f 32/199/184 36/224/184 115/197/184
f 93/59/185 116/55/185 43/75/185
f 25/104/43 43/221/43 116/218/43
f 85/59/186 117/55/186 45/75/186
f 28/104/41 45/221/41 117/218/41
f 55/76/38 118/74/38 52/109/38
f 86/57/187 52/56/187 118/51/187
f 106/76/43 119/225/43 107/109/43
f 59/57/76 107/56/76 119/51/76
f 101/76/41 120/226/41 102/109/41
f 72/57/100 102/56/100 120/51/100
