# Blender v2.75 (sub 0) OBJ File: 'Empty.blend'
# www.blender.org
mtllib ADDON_MISC_WOODPILLAR_L03.mtl
o ADDON_MISC_WOODPILLAR_L03
v -0.249990 -2.976260 -0.250010
v 0.250010 2.976280 -0.250010
v 0.250010 -2.976260 0.249990
v -0.249990 2.976280 -0.250010
v 0.250010 -2.976260 -0.250010
v -0.249990 -2.976260 0.249990
v 0.250010 2.976280 0.249990
v -0.249990 2.976280 0.249990
v 0.283966 0.000010 0.215366
v -0.263647 1.488145 0.192251
v 0.267634 -1.488125 -0.284634
v -0.216034 0.000010 -0.284634
v -0.263647 1.488145 -0.307749
v 0.236353 1.488145 -0.307749
v 0.236353 1.488145 0.192251
v -0.216034 0.000010 0.215366
v 0.283966 0.000010 -0.284634
v 0.267634 -1.488125 0.215366
v -0.232366 -1.488125 -0.284634
v -0.232366 -1.488125 0.215366
vt 0.686382 -0.712766
vt 0.792764 -0.712766
vt 0.792764 -0.925532
vt 0.465169 -0.500000
vt 0.571552 -0.500000
vt 0.571552 -0.287234
vt 0.792765 -0.287234
vt 0.686382 -0.287234
vt 0.686382 -0.500000
vt 0.465169 -0.287234
vt 0.792765 -0.500000
vt 0.571552 -0.925532
vt 0.465169 -0.925532
vt 0.465169 -0.712766
vt 0.571552 -0.074468
vt 0.465169 -0.074468
vt 0.686382 -0.074468
vt 0.686382 -0.925532
vt 0.571552 -0.712766
vt 0.792765 -0.074468
vt 0.999500 -0.000500
vt 0.999500 -0.999501
vt 0.000500 -0.999500
vt 0.000500 -0.000499
vn 0.000000 0.023300 0.999700
vn 0.999500 0.032000 0.000000
vn 0.000000 -0.015500 -0.999900
vn -0.999500 -0.032000 0.000000
vn -0.999900 0.011800 0.000000
vn 1.000000 -0.009200 0.000000
vn -0.000000 -0.038800 0.999200
vn 0.999900 -0.011800 -0.000000
vn -1.000000 0.009200 0.000000
vn 0.000000 -0.023300 -0.999700
vn 0.000000 0.038800 -0.999200
vn 0.000000 0.015500 0.999900
vn 0.000000 -0.000000 -1.000000
vn 0.999900 -0.011000 -0.000000
vn 0.000000 0.000000 1.000000
vn -0.999900 0.011000 0.000000
vn 0.000000 -1.000000 0.000000
vn 0.000000 1.000000 0.000000
usemtl NW_SEQ_MISC_WOODWALL_01
s off
f 18/1/1 20/2/1 6/3/1
f 9/4/2 17/5/2 14/6/2
f 13/7/3 14/8/3 17/9/3
f 10/10/4 13/6/4 12/5/4
f 17/9/3 12/11/3 13/7/3
f 1/12/5 6/13/5 20/14/5
f 2/15/6 7/16/6 15/10/6
f 10/7/7 15/8/7 7/17/7
f 6/3/1 3/18/1 18/1/1
f 11/19/8 18/14/8 3/13/8
f 7/17/7 8/20/7 10/7/7
f 13/6/9 10/10/9 8/16/9
f 19/2/10 11/1/10 5/18/10
f 3/13/8 5/12/8 11/19/8
f 5/18/10 1/3/10 19/2/10
f 20/14/5 19/19/5 1/12/5
f 14/8/11 13/7/11 4/20/11
f 8/16/9 4/15/9 13/6/9
f 15/10/6 14/6/6 2/15/6
f 4/20/11 2/17/11 14/8/11
f 14/6/2 15/10/2 9/4/2
f 16/11/12 9/9/12 15/8/12
f 12/5/4 16/4/4 10/10/4
f 15/8/12 10/7/12 16/11/12
f 12/11/13 17/9/13 11/1/13
f 18/14/14 11/19/14 17/5/14
f 17/5/14 9/4/14 18/14/14
f 20/2/15 18/1/15 9/9/15
f 16/4/16 12/5/16 19/19/16
f 11/1/13 19/2/13 12/11/13
f 19/19/16 20/14/16 16/4/16
f 9/9/15 16/11/15 20/2/15
usemtl NW_NATURE_BARKRINGS_01
f 5/21/17 3/22/17 6/23/17
f 6/23/17 1/24/17 5/21/17
f 2/21/18 4/24/18 8/23/18
f 8/23/18 7/22/18 2/21/18
