# Blender v2.75 (sub 0) OBJ File: 'Empty.blend'
# www.blender.org
mtllib ADDON_STONES_STONE_02_MED_124P.mtl
o ADDON_STONES_STONE_02_MED_124P
v -2.140717 -0.597797 -1.078670
v 2.467041 -0.516288 -0.875217
v -0.782040 -0.776814 1.952556
v -0.717359 1.127771 0.213327
v -2.269464 -0.401067 0.456422
v 0.154712 -0.851120 -1.952577
v -0.632090 0.851113 -0.996367
v 0.890708 0.866034 -0.128918
v 2.167627 -0.575829 0.328030
v 2.437137 -0.283719 -0.159133
v 1.207323 -0.562591 1.445010
v 0.304626 0.826968 0.741172
v 0.387407 -0.758130 1.882934
v 1.578364 -0.651421 -1.522560
v 0.007805 -1.030185 1.748576
v -2.473797 -0.593874 -0.452141
v -0.835279 -0.978661 1.719195
v 0.943098 -0.935832 -1.645779
v -0.947676 -0.806731 -1.864345
v -0.836040 -1.082801 -1.489183
v 1.251417 0.635040 0.139551
v -0.424638 0.851604 0.677451
v 1.274719 -0.312880 -1.350741
v 1.107171 0.497287 -0.699736
v -0.479641 0.138859 1.056227
v 2.337039 -0.659760 -0.139167
v -2.380573 -0.346352 0.078638
v -1.590907 0.476789 -0.127026
v -1.357126 0.161922 -0.900593
v -1.005435 -0.286113 -1.264065
v -0.865688 -0.674069 -1.634161
v 2.473818 -0.297861 -0.527498
v 0.122553 -0.122372 -1.383905
v -0.676857 1.063892 -0.791459
v -2.338640 -0.761208 -0.382610
v 0.567492 0.751569 -0.847765
v 1.730974 -0.386108 0.848406
v 0.166316 0.243311 1.009885
v 1.099717 0.461739 0.534420
v 1.399847 0.398193 0.071178
v -1.840275 0.126829 0.460619
v 0.753346 -1.127751 -0.068417
v -1.325082 0.077445 -0.860189
v -1.793302 -0.470350 -1.230570
v 2.141280 -0.160051 -0.750884
v -1.152152 0.184833 -1.059265
v 1.481463 0.274485 -0.252283
v -1.793072 -0.493429 1.028955
v -1.360569 -0.206930 1.187464
v -1.111626 -0.417239 1.355111
v -0.164214 -0.381640 1.581740
v 0.019191 0.861066 -0.614988
v 0.069850 0.693290 -0.881738
v -0.889009 0.988788 0.339516
v -0.985107 0.975853 -0.593143
v -0.125970 0.998702 0.281579
v 1.320525 0.164436 -0.716971
v -1.042761 0.416302 0.568219
v -0.443993 0.297508 -1.184938
v 1.740756 -0.282183 0.514467
v -1.033368 0.968877 0.088097
v -0.111840 0.990659 -0.221138
v -0.163429 0.527161 0.893257
v -0.622662 -0.246477 1.399229
vt 0.185790 -0.812109
vt 0.655646 -0.804603
vt 0.434018 -0.653338
vt 0.496868 -1.202541
vt 0.835600 -1.190736
vt 1.439615 -0.346280
vt 0.185790 -1.284495
vt 0.434018 -1.135509
vt 0.053371 -1.044455
vt -0.012148 -0.625712
vt 0.450765 -0.549170
vt 0.272000 -0.198041
vt 1.411821 -0.683383
vt 0.531599 -0.639160
vt 0.448968 -0.308442
vt 0.066619 -0.740185
vt 0.903964 -0.614958
vt 0.847817 -0.770829
vt 1.220510 -0.688980
vt 0.835905 0.098315
vt 0.471940 -0.221457
vt 0.678390 -0.380472
vt -0.360094 -0.066620
vt -0.139193 -0.448968
vt -0.032391 -0.154400
vt 0.728000 -0.159392
vt 0.507706 -0.252916
vt 0.449384 -0.613135
vt 0.285279 -0.314488
vt 0.293295 -0.613378
vt 0.471398 -0.340020
vt 0.197328 -0.472516
vt 1.012148 0.042692
vt 1.030551 -0.211942
vt 1.360312 -0.198316
vt 1.062421 -0.528602
vt 1.199390 -0.706705
vt 1.479180 -0.436068
vt 0.555910 -0.765080
vt 0.851637 -0.707437
vt 0.711932 -0.619678
vt 0.941836 -0.314488
vt 0.566818 -0.402247
vt 1.195460 -0.655133
vt -0.438963 -0.444090
vt 0.622387 -0.797789
vt 0.857861 -0.448208
vt 0.622387 -0.167748
vt 0.434334 -0.288203
vt 0.344354 -1.256522
vt 0.014931 -1.080575
vt 0.985070 -1.080575
vt 0.655646 -1.256522
vt -0.491194 -0.148363
vt -0.134145 0.111725
vt -0.360312 -0.564309
vt -0.491194 -0.707437
vt 0.164400 -0.893207
vt 0.503132 -0.913908
vt -0.493918 -0.318344
vt -0.456462 -0.531599
vt 1.360094 -0.066620
vt 1.284495 -0.812109
vt 0.913414 -0.698252
vt 1.190736 -0.893207
vt 0.814210 -1.284495
vt 0.121090 0.161231
vt 0.437845 -0.841964
vt -0.134145 -0.761730
vt 0.121090 -0.875999
vt 0.119242 0.249046
vt -0.220511 -0.005590
vt 0.152183 0.156564
vt 0.878910 0.161231
vt 0.880758 0.249046
vt 1.002785 -0.556072
vt 0.781134 -0.300206
vt 0.788058 -0.433938
vt 1.042692 -0.625712
vt 0.329386 -0.772188
vt -0.239383 -0.449047
vt 0.081039 -0.332744
vt 0.142813 -0.102732
vt 1.134145 0.111725
vt 1.491194 -0.148363
vt 0.944831 -0.218866
vt 0.329386 -0.157850
vt 0.563932 -0.613996
vt 0.368201 -0.731358
vt -0.370897 -0.631799
vt 0.683383 -0.661143
vt 0.318344 -0.738608
vt -0.239383 -0.685070
vt 0.084813 -0.535399
vt 0.104203 -0.261693
vt 0.138167 -0.434948
vt 0.261693 -0.107929
vt 0.962912 -0.425743
vt 0.154400 -0.468889
vt 0.847817 0.156564
vt 0.437845 0.284495
vt 1.493917 -0.288068
vt 0.228051 -0.182014
vt 0.211778 -0.585713
vt 0.455061 -0.411156
vt 0.771949 -0.072557
vt 0.753963 -0.158047
vt 1.493918 -0.318344
vt 0.346280 -0.805840
vt 0.055169 -0.300206
vt 0.159126 -0.655133
vt -0.080575 -0.726040
vt 0.985070 -0.726040
vt 1.195460 -0.840874
vt 0.566818 -0.905752
vt 0.941836 -0.714721
vt 0.443928 -0.244860
vt 1.095213 -0.398643
vt 0.685070 -0.449047
vt -0.220419 -0.913414
vt 0.074416 -0.425743
vt -0.007868 -0.614958
vt 1.032391 -0.468889
vt 1.360094 -0.740185
vt 0.880758 -0.824130
vt 1.045265 -0.434948
vt 0.601357 -0.389722
vt 1.220418 -0.913414
vt 0.977099 -0.583143
vt -0.411821 -0.661143
vt -0.046649 -0.583143
vt -0.046649 -0.977099
vt 0.081039 -0.728301
vt -0.220419 -0.698252
vt 0.053371 -0.667641
vt 0.249824 -0.599033
vt 0.307287 -0.444214
vt 0.246037 -0.099687
vt 0.528060 -0.145742
vt 0.142813 -0.636413
vt 0.895797 -0.107929
vt 0.307287 -0.924371
vt 1.199390 -0.613378
vt 1.370897 -0.731358
vt 1.479180 -0.613996
vt 1.370897 -0.631799
vt 0.386865 -0.098749
vt 0.747084 -0.154048
vt 0.588844 -0.101981
vn 0.034500 0.654700 0.755100
vn -0.058800 -0.996400 -0.061100
vn -0.167500 0.801100 0.574600
vn 0.104600 0.480800 -0.870600
vn -0.601700 -0.714800 0.356400
vn -0.726200 0.625100 -0.286300
vn -0.182100 0.643600 -0.743400
vn -0.166800 -0.984200 0.059500
vn 0.093300 0.526300 -0.845100
vn -0.441800 0.710800 -0.547300
vn 0.141800 0.981600 -0.127700
vn 0.707000 0.599100 0.375900
vn -0.055700 -0.998000 0.030700
vn 0.275400 0.758200 -0.591000
vn 0.539200 0.632500 0.556000
vn 0.965100 -0.229900 0.125600
vn 0.290400 0.514900 0.806600
vn 0.286300 -0.943300 0.168100
vn 0.196900 0.964500 0.175900
vn 0.032200 0.411700 0.910800
vn 0.379700 -0.866600 0.323900
vn 0.162900 0.750800 0.640200
vn 0.249500 -0.957800 -0.142600
vn 0.383100 0.596500 -0.705300
vn 0.442500 -0.808800 0.387300
vn -0.055400 -0.379000 0.923800
vn -0.523000 0.804000 -0.283100
vn -0.416700 -0.851500 -0.318400
vn -0.659400 -0.487600 0.572200
vn 0.050700 -0.761000 0.646700
vn 0.435300 -0.866600 -0.243900
vn 0.314600 -0.314800 -0.895500
vn -0.023400 0.869800 -0.492900
vn 0.118400 0.841500 -0.527100
vn 0.014000 -0.803400 -0.595300
vn -0.431900 -0.783000 -0.447600
vn 0.359600 0.889400 0.282100
vn 0.748800 0.502300 -0.432400
vn 0.001200 0.937100 0.349100
vn -0.269000 0.418700 0.867300
vn 0.111500 0.527400 -0.842300
vn 0.372100 0.663300 -0.649300
vn 0.640600 0.732600 -0.230300
vn 0.055000 0.981900 -0.181100
vn -0.056800 0.520800 0.851800
vn -0.443400 0.432700 0.785000
vn 0.903500 -0.221000 0.367300
vn 0.307500 -0.910900 0.275100
vn -0.949900 -0.184100 0.252700
vn -0.701000 0.702800 0.121000
vn -0.652800 0.756500 -0.038500
vn -0.684600 0.716200 0.136000
vn -0.747700 0.504700 -0.431400
vn -0.139700 0.263800 -0.954400
vn -0.215800 0.332100 -0.918200
vn -0.910000 -0.399000 -0.112600
vn -0.142000 -0.985500 0.092800
vn -0.172800 0.646600 -0.743000
vn 0.552800 0.833000 0.023100
vn 0.962300 -0.250600 0.105400
vn 0.148600 0.612400 -0.776400
vn -0.139500 0.605300 -0.783600
vn 0.182800 0.981600 -0.055000
vn -0.568800 0.505300 -0.648900
vn -0.655300 -0.672300 -0.344200
vn -0.799800 -0.524900 0.291300
vn 0.475700 0.810000 -0.342900
vn 0.463900 0.611200 -0.641300
vn 0.742100 0.633600 0.218900
vn 0.757300 -0.044300 0.651600
vn 0.158400 0.619600 0.768700
vn 0.361200 0.759100 0.541600
vn 0.371500 0.314200 0.873700
vn 0.465500 0.730600 0.499500
vn 0.802700 0.367500 0.469700
vn 0.686600 0.689300 -0.231100
vn -0.740200 0.599400 0.304500
vn -0.374200 0.688700 0.621000
vn 0.072000 -0.991100 -0.111900
vn 0.279000 -0.956700 -0.082800
vn -0.765200 0.041000 -0.642500
vn -0.184100 0.653700 -0.734100
vn -0.479400 0.734500 -0.480300
vn -0.477500 0.332200 -0.813400
vn 0.462600 0.873900 -0.149500
vn 0.580200 0.684600 -0.441300
vn -0.563200 0.504000 -0.654800
vn -0.485700 -0.520200 -0.702500
vn 0.848900 0.528500 0.012100
vn 0.440300 0.870000 -0.221600
vn -0.632900 -0.649100 0.421900
vn -0.586900 0.565400 0.579600
vn -0.607700 0.489100 0.625700
vn -0.347100 0.744100 0.570800
vn -0.441000 0.179100 0.879500
vn -0.228200 0.427300 0.874800
vn -0.060000 0.691000 0.720400
vn -0.165500 0.689300 0.705300
vn 0.360200 0.685300 -0.632900
vn 0.266200 0.837900 -0.476500
vn -0.003200 0.524100 -0.851600
vn -0.061500 0.839600 -0.539700
vn -0.198900 0.782000 0.590700
vn -0.619700 0.725900 0.298400
vn -0.317000 0.945600 -0.072900
vn -0.564400 0.504700 -0.653200
vn 0.143200 0.887600 0.437800
vn 0.214300 0.976700 -0.009600
vn 0.767100 0.511700 -0.386900
vn 0.336000 0.883800 -0.325700
vn -0.450600 0.445800 0.773400
vn -0.194200 0.739500 0.644500
vn -0.207800 0.251400 -0.945300
vn 0.232200 0.383400 -0.893900
vn 0.608300 0.485700 0.627800
vn 0.620400 0.743500 0.249600
vn -0.442100 0.896700 -0.022100
vn -0.507500 0.831600 0.225500
vn 0.320200 0.926400 -0.198300
vn 0.716700 0.697300 0.009000
vn 0.004100 0.384100 0.923300
vn -0.132000 0.473100 0.871100
vn -0.226000 0.420100 0.878900
vn -0.088900 0.680500 0.727400
usemtl NW_MISC_CAVEWALL_02
s off
f 3/1/1 13/2/1 51/3/1
f 15/4/2 17/5/2 35/6/2
f 3/7/3 51/8/3 50/9/3
f 23/10/4 33/11/4 36/12/4
f 5/13/5 35/6/5 17/5/5
f 27/14/6 28/15/6 1/16/6
f 30/17/7 31/18/7 44/19/7
f 35/6/8 20/20/8 15/4/8
f 53/21/9 33/11/9 59/22/9
f 1/23/10 28/24/10 43/25/10
f 36/26/11 52/27/11 56/28/11
f 39/29/12 60/30/12 40/31/12
f 20/20/13 42/32/13 15/4/13
f 23/33/14 57/34/14 45/35/14
f 40/36/15 60/37/15 10/38/15
f 26/39/16 2/40/16 32/41/16
f 39/42/17 38/43/17 37/44/17
f 42/32/18 26/45/18 15/4/18
f 56/28/19 12/46/19 8/47/19
f 38/43/20 12/48/20 63/49/20
f 13/50/21 26/45/21 11/51/21
f 11/52/22 51/8/22 13/53/22
f 2/54/23 26/45/23 14/55/23
f 45/56/24 2/57/24 23/10/24
f 15/4/25 26/45/25 13/50/25
f 17/58/26 15/59/26 13/2/26
f 16/60/27 27/61/27 1/23/27
f 1/62/28 20/20/28 35/6/28
f 3/63/29 48/64/29 17/65/29
f 13/50/30 3/66/30 17/5/30
f 18/67/31 14/55/31 26/45/31
f 6/68/32 14/69/32 18/70/32
f 19/71/33 44/72/33 31/73/33
f 18/74/34 19/71/34 31/73/34
f 20/20/35 19/75/35 18/67/35
f 19/75/36 20/20/36 1/62/36
f 8/47/37 12/46/37 21/76/37
f 24/77/38 57/78/38 23/79/38
f 22/80/39 12/46/39 56/28/39
f 41/81/40 58/82/40 54/83/40
f 23/10/41 14/69/41 33/11/41
f 14/84/42 23/33/42 2/85/42
f 8/47/43 21/76/43 24/86/43
f 8/47/44 36/26/44 56/28/44
f 22/87/45 63/49/45 12/48/45
f 22/87/46 54/83/46 58/82/46
f 10/88/47 9/89/47 26/39/47
f 11/51/48 26/45/48 9/90/48
f 5/91/49 27/14/49 16/92/49
f 27/61/50 41/93/50 28/24/50
f 28/24/51 61/94/51 55/95/51
f 41/93/52 61/94/52 28/24/52
f 29/96/53 28/15/53 55/97/53
f 33/11/54 30/17/54 59/22/54
f 46/98/55 59/22/55 30/17/55
f 43/99/56 28/15/56 29/96/56
f 18/67/57 31/100/57 6/101/57
f 33/11/58 31/18/58 30/17/58
f 10/38/59 32/102/59 40/36/59
f 32/41/60 10/88/60 26/39/60
f 14/69/61 6/68/61 33/11/61
f 33/11/62 6/68/62 31/18/62
f 34/103/63 4/104/63 62/105/63
f 34/106/64 7/107/64 46/98/64
f 35/6/65 16/108/65 1/62/65
f 35/109/66 5/91/66 16/92/66
f 8/47/67 24/86/67 36/26/67
f 36/12/68 24/110/68 23/10/68
f 37/111/69 60/30/69 39/29/69
f 9/89/70 37/111/70 11/112/70
f 51/3/71 11/113/71 38/43/71
f 37/114/72 38/115/72 11/52/72
f 39/42/73 12/48/73 38/43/73
f 21/76/74 12/46/74 39/116/74
f 40/31/75 21/117/75 39/29/75
f 47/118/76 24/86/76 21/76/76
f 41/119/77 27/14/77 5/91/77
f 3/7/78 50/9/78 48/120/78
f 42/32/79 20/20/79 18/67/79
f 26/45/80 42/32/80 18/67/80
f 43/99/81 46/121/81 30/122/81
f 43/123/82 30/17/82 44/19/82
f 44/72/83 1/23/83 43/25/83
f 1/124/84 44/19/84 19/125/84
f 47/118/85 32/102/85 45/35/85
f 2/85/86 45/35/86 32/102/86
f 46/98/87 29/126/87 34/106/87
f 29/126/88 46/98/88 43/123/88
f 40/31/89 47/127/89 21/117/89
f 32/102/90 47/118/90 40/36/90
f 5/13/91 17/5/91 48/128/91
f 48/64/92 49/129/92 5/91/92
f 5/130/93 49/131/93 41/81/93
f 41/93/94 49/132/94 58/133/94
f 48/134/95 50/135/95 49/131/95
f 50/135/96 64/136/96 49/131/96
f 25/137/97 51/3/97 38/43/97
f 64/136/98 25/137/98 49/131/98
f 7/138/99 34/103/99 52/27/99
f 53/139/100 7/138/100 52/27/100
f 53/21/101 36/12/101 33/11/101
f 52/27/102 36/26/102 53/139/102
f 22/80/103 4/104/103 54/140/103
f 61/94/104 41/93/104 54/140/104
f 34/103/105 55/95/105 4/104/105
f 29/126/106 55/141/106 34/106/106
f 4/104/107 22/80/107 56/28/107
f 56/28/108 62/105/108 4/104/108
f 57/78/109 24/77/109 47/127/109
f 57/34/110 47/118/110 45/35/110
f 22/87/111 58/82/111 25/137/111
f 49/132/112 25/142/112 58/133/112
f 46/98/113 7/107/113 59/22/113
f 53/21/114 59/22/114 7/107/114
f 60/143/115 9/144/115 10/145/115
f 37/114/116 9/146/116 60/37/116
f 61/94/117 4/104/117 55/95/117
f 54/140/118 4/104/118 61/94/118
f 34/103/119 62/105/119 52/27/119
f 56/147/120 52/148/120 62/149/120
f 63/49/121 25/137/121 38/43/121
f 22/87/122 25/137/122 63/49/122
f 51/3/123 64/136/123 50/135/123
f 64/136/124 51/3/124 25/137/124
