# Blender v2.75 (sub 0) OBJ File: 'Empty.blend'
# www.blender.org
mtllib ADDON_PLANTS_BLAETTERDACH_01_94P.mtl
o ADDON_PLANTS_BLAETTERDACH_01_94P
v -2.747366 -0.391701 -7.373750
v -5.735884 2.528086 -1.919240
v -5.388690 1.253693 -6.872176
v -2.629445 2.119647 -1.920812
v -5.730223 1.025938 9.265708
v -5.383029 -0.248456 4.312771
v -2.623784 0.617499 9.264136
v -5.740348 1.025938 -10.743490
v -5.393155 -0.248456 -15.696426
v -2.633909 0.617499 -10.745062
v -1.626718 -0.227123 -3.565899
v -2.625070 1.178869 6.723751
v -2.635195 1.178869 -13.285448
v -2.630731 2.681018 -4.461198
v -5.741634 1.178869 -13.283876
v -5.737170 2.681018 -4.459626
v -5.731509 1.178869 6.725323
v -3.481160 1.158130 5.997252
v -2.465017 -2.182028 7.392248
v -5.050014 1.123207 7.676058
v 4.584421 2.132836 17.262648
v 3.473562 0.037532 17.218651
v 4.416687 2.751121 15.421000
v 3.213588 -2.063720 16.645445
v 3.088096 0.704280 15.463717
v -3.886814 -0.020716 8.665809
v 8.647787 3.503734 1.796906
v 7.600152 1.334912 2.033613
v 8.030766 4.143713 0.120252
v 6.440875 3.503734 18.458601
v 6.304994 1.334912 19.524015
v 4.654301 4.143713 18.464962
v 7.214221 -0.840067 1.563712
v 6.801628 2.025054 0.492323
v 5.731435 -0.840066 19.725954
v 4.583544 2.025054 19.747229
v -3.067527 -1.518467 9.424066
v -2.506987 -0.180270 6.859766
v 2.155644 -1.430734 15.348665
v 5.902712 -0.184871 0.618114
v 4.394302 -0.184871 20.634956
v 5.714521 2.076299 15.778614
v 6.638505 -0.396160 15.962709
v 5.610767 2.805876 17.342358
v -4.847333 0.808240 6.589201
v -4.552004 -1.664217 5.694541
v -3.307891 1.537816 6.882754
v 6.780118 -2.875638 16.476965
v 6.728494 0.390603 17.482735
v -4.024325 -4.143692 5.616652
v -3.032343 -0.877454 5.790467
v -5.909556 -1.729272 4.640717
v -5.919681 -1.729272 -15.368481
v -2.720805 -3.396768 5.057739
v 7.493725 -2.128714 17.702654
v 8.855526 3.510715 0.625805
v 10.477568 0.811192 1.140061
v 11.478747 -2.136067 1.546986
v 9.581240 1.524033 2.205874
v 7.845377 4.103038 1.639309
v 11.110018 -1.274241 2.677268
v -2.446355 3.719145 25.925381
v 15.395658 3.719145 25.916349
v -2.465533 3.719145 -11.972543
v 15.376478 3.719145 -11.981571
v -7.708201 1.847685 22.012341
v 10.133813 1.847685 22.003309
v -7.727378 1.847685 -15.885582
v 10.114635 1.847685 -15.894610
v -11.297060 0.504966 12.139339
v 6.544954 0.504966 12.130311
v -11.316237 0.504966 -25.758583
v 6.525777 0.504966 -25.767612
vt 1.000000 -1.000000
vt 1.000000 -0.500000
vt 0.000000 -1.000000
vt 0.000000 -0.500000
vt 0.000000 -0.000000
vt 1.000000 -0.000000
vt 0.999501 0.999001
vt 0.999500 -0.999001
vt 0.000499 -0.999001
vt 0.000500 0.999001
vn 0.422800 0.805400 -0.415400
vn -0.422800 -0.805400 0.415400
vn 0.000400 -0.687900 0.725800
vn -0.000400 0.687900 -0.725800
vn -0.590900 -0.728900 0.345900
vn 0.590900 0.728900 -0.345900
vn 0.000400 -0.582600 0.812700
vn -0.000400 0.582600 -0.812700
vn -0.000500 -0.294400 -0.955700
vn 0.000500 0.294400 0.955700
vn 0.127400 0.968500 0.214000
vn -0.127400 -0.968500 -0.214000
vn 0.000000 0.998200 0.060100
vn -0.000000 -0.998200 -0.060100
vn 0.962500 0.088400 0.256500
vn -0.962500 -0.088400 -0.256500
vn -0.809300 0.530600 0.251800
vn 0.809300 -0.530600 -0.251800
vn -0.871700 0.362900 0.329400
vn -0.831500 0.433500 0.347300
vn 0.871700 -0.362900 -0.329400
vn 0.831500 -0.433500 -0.347300
vn 0.430200 0.799700 0.418700
vn -0.430200 -0.799700 -0.418700
vn -0.729900 0.504500 0.461200
vn 0.729900 -0.504500 -0.461200
vn 0.183700 0.504500 0.843700
vn -0.183700 -0.504500 -0.843700
vn -0.763200 0.341700 0.548400
vn -0.722100 0.409600 0.557500
vn 0.763200 -0.341700 -0.548400
vn 0.722100 -0.409600 -0.557500
vn 0.254300 0.341700 0.904800
vn 0.276900 0.409600 0.869200
vn -0.254300 -0.341700 -0.904800
vn -0.276900 -0.409600 -0.869200
vn 0.664000 0.593500 0.454900
vn -0.664000 -0.593500 -0.454900
vn 0.600700 0.693500 0.397700
vn -0.600700 -0.693500 -0.397700
vn -0.789200 -0.068800 0.610300
vn 0.789200 0.068800 -0.610300
vn -0.604600 -0.064300 0.794000
vn 0.604600 0.064300 -0.794000
vn 0.539300 -0.064300 0.839600
vn -0.539300 0.064300 -0.839600
vn 0.902600 0.410000 -0.131400
vn -0.902600 -0.410000 0.131400
vn -0.020400 0.410000 -0.911800
vn 0.020400 -0.410000 0.911800
vn 0.943000 0.269400 -0.195300
vn 0.918400 0.326600 -0.223400
vn -0.943000 -0.269400 0.195300
vn -0.918400 -0.326600 0.223400
vn -0.078900 0.269400 -0.959800
vn -0.109800 0.326600 -0.938800
vn 0.078900 -0.269400 0.959800
vn 0.109800 -0.326600 0.938800
vn 0.920500 -0.263300 0.288800
vn -0.920500 0.263300 -0.288800
vn -0.369500 -0.049500 -0.927900
vn 0.369500 0.049500 0.927900
vn 0.876000 -0.049500 -0.479800
vn -0.876000 0.049500 0.479800
vn 0.799400 0.494300 0.341700
vn 0.788700 0.532500 0.307200
vn -0.799400 -0.494300 -0.341700
vn -0.788700 -0.532500 -0.307200
vn 0.723400 0.571900 0.386800
vn -0.723400 -0.571900 -0.386800
vn 0.942900 0.328200 0.057300
vn -0.942900 -0.328200 -0.057300
vn 0.000000 -1.000000 0.000000
usemtl NW_SEQ_NATURE_ROOFLEAVE_07
s off
f 3/1/1 16/2/1 1/3/1
f 16/2/2 3/1/2 1/3/2
f 1/3/3 14/4/3 16/2/3
f 14/4/4 1/3/4 16/2/4
f 16/2/5 3/1/5 11/3/5
f 3/1/6 16/2/6 11/3/6
f 52/3/7 12/4/7 17/2/7
f 12/4/8 52/3/8 17/2/8
f 53/3/7 13/4/7 15/2/7
f 13/4/8 53/3/8 15/2/8
f 14/4/9 11/3/9 16/2/9
f 11/3/10 14/4/10 16/2/10
f 7/5/11 12/4/11 5/6/11
f 12/4/12 7/5/12 5/6/12
f 10/5/11 13/4/11 8/6/11
f 13/4/12 10/5/12 8/6/12
f 4/5/11 14/4/11 2/6/11
f 14/4/12 4/5/12 2/6/12
f 4/5/11 14/4/11 2/6/11
f 14/4/12 4/5/12 2/6/12
f 15/2/13 8/6/13 13/4/13
f 8/6/14 15/2/14 13/4/14
f 16/2/13 2/6/13 14/4/13
f 2/6/14 16/2/14 14/4/14
f 16/2/13 2/6/13 14/4/13
f 2/6/14 16/2/14 14/4/14
f 17/2/13 5/6/13 12/4/13
f 5/6/14 17/2/14 12/4/14
f 19/1/15 38/2/15 37/3/15
f 38/2/16 19/1/16 37/3/16
f 23/5/17 25/4/17 21/6/17
f 25/4/18 23/5/18 21/6/18
f 25/4/19 39/3/19 22/2/19
f 22/2/20 21/6/20 25/4/20
f 39/3/21 25/4/21 22/2/21
f 21/6/22 22/2/22 25/4/22
f 20/5/23 26/4/23 18/6/23
f 26/4/24 20/5/24 18/6/24
f 29/5/25 34/4/25 27/6/25
f 34/4/26 29/5/26 27/6/26
f 32/5/27 36/4/27 30/6/27
f 36/4/28 32/5/28 30/6/28
f 34/4/29 40/3/29 28/2/29
f 28/2/30 27/6/30 34/4/30
f 40/3/31 34/4/31 28/2/31
f 27/6/32 28/2/32 34/4/32
f 36/4/33 41/3/33 31/2/33
f 31/2/34 30/6/34 36/4/34
f 41/3/35 36/4/35 31/2/35
f 30/6/36 31/2/36 36/4/36
f 26/4/37 37/3/37 38/2/37
f 37/3/38 26/4/38 38/2/38
f 38/2/39 18/6/39 26/4/39
f 18/6/40 38/2/40 26/4/40
f 24/1/41 22/2/41 39/3/41
f 22/2/42 24/1/42 39/3/42
f 33/1/43 28/2/43 40/3/43
f 28/2/44 33/1/44 40/3/44
f 35/1/45 31/2/45 41/3/45
f 31/2/46 35/1/46 41/3/46
f 44/5/47 49/4/47 42/6/47
f 49/4/48 44/5/48 42/6/48
f 47/5/49 51/4/49 45/6/49
f 51/4/50 47/5/50 45/6/50
f 49/4/51 55/3/51 43/2/51
f 43/2/52 42/6/52 49/4/52
f 55/3/53 49/4/53 43/2/53
f 42/6/54 43/2/54 49/4/54
f 51/4/55 54/3/55 46/2/55
f 46/2/56 45/6/56 51/4/56
f 54/3/57 51/4/57 46/2/57
f 45/6/58 46/2/58 51/4/58
f 6/1/59 17/2/59 52/3/59
f 17/2/60 6/1/60 52/3/60
f 9/1/59 15/2/59 53/3/59
f 15/2/60 9/1/60 53/3/60
f 50/1/61 46/2/61 54/3/61
f 46/2/62 50/1/62 54/3/62
f 48/1/63 43/2/63 55/3/63
f 43/2/64 48/1/64 55/3/64
f 59/4/65 61/3/65 57/2/65
f 57/2/66 56/6/66 59/4/66
f 61/3/67 59/4/67 57/2/67
f 56/6/68 57/2/68 59/4/68
f 60/5/69 59/4/69 56/6/69
f 59/4/70 60/5/70 56/6/70
f 58/1/71 57/2/71 61/3/71
f 57/2/72 58/1/72 61/3/72
usemtl NW_SEQ_NATURE_ROOFLEAVE_13
f 62/7/73 64/8/73 65/9/73
f 65/9/73 63/10/73 62/7/73
f 66/7/73 68/8/73 69/9/73
f 69/9/73 67/10/73 66/7/73
f 70/7/73 72/8/73 73/9/73
f 73/9/73 71/10/73 70/7/73
