# Blender v2.75 (sub 0) OBJ File: 'Empty.blend'
# www.blender.org
mtllib ADDON_PLANTS_PALM_LONG_BENT_01_200P.mtl
o ADDON_PLANTS_PALM_LONG_BENT_01_200P
v 8.307354 6.431060 0.060839
v 1.937050 7.858181 -2.275200
v 1.954671 7.854175 2.055529
v 5.075411 3.896298 -3.655710
v -0.130571 5.372287 1.802258
v 1.746409 4.584977 -3.357985
v 6.364120 7.618042 -2.171476
v 6.136863 6.731550 2.168327
v 4.906682 3.692751 3.325740
v 1.646675 4.856769 3.645044
v 1.940904 6.760252 2.037256
v 5.803302 5.700431 -2.094036
v 6.791213 3.425999 -1.857474
v 0.111035 5.070694 -1.707903
v 6.223981 3.195619 1.514589
v 1.849809 6.454749 -0.037472
v 5.735400 5.395567 -0.037706
v 3.800239 5.947839 2.049053
v 3.800172 5.947857 -2.106645
v 3.821599 6.027623 -0.040489
v 5.724264 5.879487 1.902062
v 6.954306 3.554925 -0.036997
v -0.195475 5.564621 -0.036307
v 3.426554 4.520894 3.755811
v 3.427302 4.520709 -3.770452
v 3.189636 8.277507 3.181240
v -2.919925 -0.921794 0.362228
v 3.318255 4.649015 -0.356025
v 2.236873 2.308442 -0.217886
v 0.809711 1.413645 0.130145
v 0.012751 5.157921 3.480797
v 5.282896 7.687595 3.238296
v 3.149715 8.244509 -3.344825
v 1.014624 8.600263 0.948688
v 2.928329 7.277107 -1.147334
v 4.992945 6.730372 1.035339
v 0.999612 8.581759 -1.226324
v 4.163149 7.804567 -2.218801
v 7.273356 6.806528 -1.054356
v 2.938611 7.285071 0.980555
v 5.212841 7.531130 -1.105764
v 4.179382 7.751669 4.297449
v 4.188734 7.823616 2.114012
v 5.252848 7.691699 -3.287500
v 2.035352 8.179027 -0.110810
v 6.186457 6.983462 0.002160
v 7.303542 6.871233 1.119432
v 6.229443 3.165612 3.120104
v -2.229822 -1.270882 -0.718968
v -1.494490 -0.027038 -0.428550
v -0.840117 0.930703 -0.204323
v 3.767405 6.326419 -0.112481
v 3.427676 4.047993 -0.229286
v 3.832414 5.382737 0.273094
v 3.287698 5.530224 -0.487634
v 3.612741 5.645843 -0.066746
v 1.408950 1.061872 -0.043807
v -1.543217 -0.012616 0.376481
v -1.796798 -1.491934 -0.050649
v 2.119933 6.881540 -1.956607
v 2.800817 3.211506 0.015592
v 3.740411 4.532887 -0.225021
v -2.222886 -1.273378 0.617628
v -2.924476 -0.916842 -0.463512
v 3.939304 4.614144 -0.203276
v 3.288452 3.029483 -0.129783
v 3.586619 4.575198 0.027385
v 3.640664 4.696197 -0.615098
v -0.101318 0.641130 0.001569
v 2.454675 2.208914 -0.329894
v -1.985708 0.149167 0.240470
v 3.178863 4.822214 0.077314
v 2.435072 2.220126 0.095080
v 1.189982 1.193805 0.210845
v 1.192252 1.186001 -0.262799
v 3.308769 4.651570 -0.069036
v 3.599022 4.571897 -0.436966
v 3.885288 6.294733 -0.374256
v 4.045667 6.251623 -0.136290
v -1.173791 -0.130172 -0.057231
v -0.426167 0.778598 -0.332257
v 2.220277 2.317435 0.045052
v 0.818828 1.404891 -0.162795
v 3.112634 3.096465 0.132018
v -0.833742 0.933798 0.210902
v 3.204469 4.815268 -0.407607
v 3.604768 4.705884 0.169506
v 3.301512 5.526528 0.071781
v -0.381144 0.760321 0.337625
v 4.120899 5.304568 -0.179320
v 3.103311 3.096741 -0.391656
v -1.955747 0.138569 -0.257297
v 3.801030 5.391244 -0.632073
v 2.796752 3.211519 -0.307957
v 2.605755 2.144056 -0.106654
v 3.577838 4.975668 -3.956858
v 3.578609 4.975467 3.694255
v 4.441917 9.443321 3.817307
v -0.123036 5.963180 -0.145376
v 8.612269 8.322346 -0.195225
v 0.975244 10.375154 -0.195225
v -0.122912 5.963147 -0.145376
v 7.314878 3.971061 -0.145376
v 7.315526 3.970888 -0.145376
v 3.578611 4.975467 3.693995
v 4.441918 9.443321 -4.093320
v 4.441918 9.443321 3.817307
v 4.441917 9.443321 -4.093320
v 3.577838 4.975667 -3.956583
vt -0.867384 -1.115516
vt 0.310992 -0.807758
vt -0.460956 -0.807758
vt 0.475940 -1.115516
vt 1.050927 -0.807758
vt 0.933801 -0.500000
vt 0.359731 -0.500000
vt -0.181501 -0.807758
vt 0.786029 -0.807758
vt 0.650475 -0.500000
vt 0.323029 -0.807758
vt 1.202140 -0.500000
vt 0.279006 -0.500000
vt -0.475470 -1.115516
vt 1.082039 -1.115516
vt 1.202319 -0.807758
vt 0.216470 -0.807758
vt 0.012251 -1.115516
vt -0.195826 -1.115516
vt 1.423035 -1.115516
vt -0.413774 -0.192242
vt 0.324604 -0.192242
vt 0.323150 0.115516
vt 0.407413 -0.192242
vt 1.114145 0.115516
vt 0.324561 0.115516
vt 0.988124 0.115516
vt 1.751237 -1.115516
vt 0.260490 -0.192242
vt 1.137174 -0.192242
vt 1.070027 0.115516
vt 1.065843 -0.192242
vt -0.157431 -0.192242
vt 0.677699 0.115516
vt -0.081898 0.115516
vt -0.237940 -0.500000
vt 1.265301 -0.500000
vt 0.390952 -0.500000
vt 1.223412 -0.192242
vt 0.626000 -0.192242
vt 1.533951 -1.115516
vt -0.328082 0.115516
vt 0.352918 0.115516
vt -0.339680 -0.500000
vt 0.999500 -0.999501
vt 0.000500 -0.999500
vt 0.999500 -0.000500
vt 0.000500 -0.000500
vt -0.000819 -0.205333
vt 0.658368 -0.205333
vt 0.308895 0.868264
vt -0.043317 -0.205333
vt 0.499797 -0.205333
vt 0.448140 0.868264
vt 0.379562 -0.205333
vt 1.017121 -0.205333
vt 0.544565 0.868264
vt 0.130079 -0.205333
vt 0.801645 -0.205333
vt 0.580442 0.868264
vt 0.559780 -1.868262
vt 0.528555 -1.059335
vt 0.081037 -1.059335
vt 1.043317 -0.205333
vt 0.733813 0.868264
vt 1.022939 -1.059335
vt 0.494572 -1.868262
vt 0.925447 -1.059335
vt 0.391829 -1.059335
vt 0.440220 -1.868262
vt 0.808288 -1.059335
vt 0.226150 -1.059335
vt 0.505428 -1.868262
vt 0.562541 -1.059335
vt 0.042847 -1.059335
vt 0.266187 0.868264
vt 0.654800 0.868264
vt 0.308895 -0.580442
vt 0.654800 -0.551860
vt 0.455435 -0.266187
vt 0.749750 -0.500000
vt 0.500000 -0.749750
vt 0.500000 -0.500000
vt 0.500000 -0.999500
vt 0.749750 -0.749750
vt 0.500000 -0.000500
vt 0.250250 -0.250250
vt 0.500000 -0.250250
vt 0.250250 -0.500000
vt 0.000500 -0.500000
vt 0.000500 -0.749750
vt 0.250250 -0.999500
vt 0.999500 -0.500000
vt 0.999500 -0.250250
vt 0.749750 -0.999500
vt 0.999500 -0.749750
vt 0.250250 -0.000500
vt 0.000500 -0.250250
vt 0.250250 -0.749750
vt 0.749750 -0.000500
vt 0.749750 -0.250250
vn -0.273800 0.961100 -0.037200
vn -0.036900 0.287500 0.957100
vn -0.107000 0.257500 0.960300
vn -0.084100 0.211900 0.973700
vn 0.457300 -0.679600 0.573700
vn -0.280400 0.959900 -0.002900
vn 0.452900 -0.578000 -0.678800
vn -0.729700 0.681200 -0.058400
vn -0.107200 0.452700 -0.885200
vn -0.216800 0.341700 -0.914500
vn 0.543300 -0.632900 -0.551600
vn -0.047200 0.347300 -0.936600
vn 0.702200 -0.251100 0.666200
vn -0.174300 0.309100 0.934900
vn 0.749600 -0.306100 -0.586900
vn -0.942800 0.333200 0.011900
vn -0.540800 0.840100 -0.041900
vn -0.261700 0.058400 -0.963400
vn -0.285200 0.156200 0.945600
vn -0.198900 0.286500 0.937200
vn -0.169300 0.336400 -0.926400
vn 0.751800 -0.271100 -0.601100
vn -0.292700 0.160500 0.942600
vn 0.815300 -0.223500 0.534200
vn 0.225900 -0.803500 -0.550700
vn 0.453500 -0.651200 0.608600
vn -0.310800 0.325000 -0.893200
vn -0.243400 0.055900 -0.968300
vn -0.753100 0.657900 0.008100
vn -0.190100 0.273000 0.943100
vn 0.519000 -0.556400 0.648900
vn 0.788800 -0.200300 0.581000
vn 0.500900 -0.513500 0.696700
vn 0.246400 -0.830400 0.499700
vn 0.192900 -0.759400 -0.621300
vn 0.411800 -0.555600 -0.722400
vn -0.939900 0.339800 -0.034100
vn 0.777400 -0.269700 -0.568200
vn 0.674500 -0.311800 -0.669200
vn 0.740500 -0.336000 0.582000
vn 0.511500 -0.605300 -0.609900
vn -0.165600 0.330700 -0.929100
vn -0.837600 0.541500 -0.071400
vn -0.273600 0.208600 0.938900
vn -0.153600 0.181800 -0.971300
vn -0.538000 0.840600 -0.062700
vn -0.182500 0.099900 0.978100
vn 0.641700 -0.519900 0.563900
vn -0.563100 0.824800 -0.051500
vn -0.161200 0.272400 0.948600
vn -0.061500 0.479100 0.875600
vn 0.256200 -0.750500 0.609200
vn 0.638500 -0.506700 -0.579300
vn -0.227500 0.098800 -0.968800
vn -0.210000 0.356600 -0.910400
vn -0.579000 0.815300 0.002800
vn -0.395000 0.154600 -0.905600
vn -0.849400 0.527700 0.010700
vn 0.637300 -0.506600 -0.580700
vn 0.595800 -0.441800 0.670700
vn -0.981800 0.189900 0.000100
vn -0.002800 -0.010600 -0.999900
vn 0.002800 0.010600 0.999900
vn -0.002900 -0.010600 -0.999900
vn 0.002900 0.010600 0.999900
vn 0.981800 -0.189700 0.000000
vn -0.981800 0.189700 0.000000
vn 0.981800 -0.189900 -0.000100
vn -0.247100 0.351900 0.902900
vn 0.845700 0.043000 0.531900
vn -0.187100 0.285700 -0.939900
vn -0.861400 0.507400 0.024600
vn 0.559300 -0.534600 0.633500
vn 0.821400 0.084400 -0.564100
vn 0.626400 -0.540300 -0.561900
vn -0.477300 -0.328300 -0.815100
vn -0.956200 -0.288900 -0.046400
vn -0.302200 -0.433300 0.849100
vn -0.697700 0.602800 -0.387100
vn 0.180400 0.382600 0.906100
vn 0.833400 0.091000 -0.545200
vn 0.259600 0.965700 -0.000000
vn -0.440000 -0.049200 -0.896700
vn -0.992600 0.118400 0.025300
vn -0.229600 -0.071300 0.970700
vn 0.764900 -0.340900 0.546600
vn -0.983800 0.170900 -0.054400
vn -0.338000 0.066200 0.938800
vn 0.785300 -0.186100 -0.590500
vn 0.701900 -0.208200 0.681100
vn 0.775500 -0.193600 -0.600900
vn -0.261400 0.036800 -0.964500
vn 0.923500 0.383600 -0.005900
vn -0.923500 -0.383600 0.005900
vn 0.394700 -0.907100 -0.146200
vn -0.394700 0.907100 0.146200
vn -0.197300 -0.936600 -0.289600
vn 0.197300 0.936600 0.289600
vn 0.113600 0.926700 0.358200
vn -0.113600 -0.926700 -0.358200
vn -0.101400 -0.752200 -0.651100
vn 0.101400 0.752200 0.651100
vn -0.396600 0.911500 0.109300
vn 0.396600 -0.911500 -0.109300
vn 0.306300 0.687500 -0.658400
vn -0.306300 -0.687500 0.658400
vn 0.826500 0.547300 -0.131800
vn -0.826500 -0.547300 0.131800
vn 0.536100 -0.501500 0.679000
vn -0.536100 0.501500 -0.679000
vn -0.815700 -0.069000 -0.574400
vn 0.815700 0.069000 0.574400
vn 0.546200 -0.831800 0.098500
vn -0.209000 -0.966100 0.151400
vn -0.546200 0.831800 -0.098500
vn 0.209000 0.966100 -0.151400
vn -0.910000 -0.404600 -0.090000
vn 0.910000 0.404600 0.090000
vn 0.211500 0.976600 -0.039900
vn -0.211500 -0.976600 0.039900
vn -0.257400 -0.600000 -0.757500
vn -0.399900 -0.915700 -0.039100
vn 0.257400 0.600000 0.757500
vn 0.399900 0.915700 0.039100
vn -0.083000 -0.632900 0.769800
vn -0.122700 -0.991700 0.039600
vn 0.083000 0.632900 -0.769800
vn 0.122700 0.991700 -0.039600
vn -0.313300 -0.948800 -0.039400
vn -0.309900 -0.939000 -0.149400
vn 0.313300 0.948800 0.039400
vn 0.309900 0.939000 0.149400
vn -0.016000 -0.970200 0.241900
vn -0.076500 -0.756600 -0.649300
vn 0.016000 0.970200 -0.241900
vn 0.076500 0.756600 0.649300
vn -0.828400 -0.548600 0.113100
vn 0.828400 0.548600 -0.113100
vn 0.655600 -0.683000 0.322000
vn -0.655600 0.683000 -0.322000
vn -0.443000 -0.366900 -0.818000
vn 0.443000 0.366900 0.818000
vn 0.182300 -0.533600 0.825900
vn -0.182300 0.533600 -0.825900
vn 0.376800 0.603800 -0.702500
vn -0.376800 -0.603800 0.702500
vn 0.562000 -0.813100 -0.151800
vn -0.562000 0.813100 0.151800
vn -0.505100 -0.765300 0.399000
vn 0.505100 0.765300 -0.399000
vn 0.350300 0.615000 0.706500
vn -0.350300 -0.615000 -0.706500
vn 0.707100 0.707100 -0.006100
vn -0.707100 -0.707100 0.006100
vn -0.616400 -0.774400 0.142800
vn -0.069700 -0.910400 -0.407800
vn 0.616400 0.774400 -0.142800
vn 0.069700 0.910400 0.407800
vn 0.112200 -0.987300 -0.112300
vn -0.404000 -0.818300 0.408800
vn -0.112200 0.987300 0.112300
vn 0.404000 0.818300 -0.408800
vn -0.494000 -0.856500 0.149400
vn 0.494000 0.856500 -0.149400
vn 0.045300 -0.916000 -0.398700
vn -0.045300 0.916000 0.398700
vn -0.015400 0.993200 0.115200
vn 0.015400 -0.993200 -0.115200
vn -0.605900 -0.783100 -0.140000
vn -0.069100 -0.906400 0.416700
vn 0.605900 0.783100 0.140000
vn 0.069100 0.906400 -0.416700
vn 0.007500 -0.997300 -0.073300
vn 0.435200 -0.688900 -0.579700
vn -0.007500 0.997300 0.073300
vn -0.435200 0.688900 0.579700
vn 0.022300 -0.912300 0.408900
vn -0.441100 -0.896900 -0.031400
vn -0.022300 0.912300 -0.408900
vn 0.441100 0.896900 0.031400
vn -0.175700 -0.981600 -0.075500
vn 0.175700 0.981600 0.075500
vn -0.372200 -0.928100 0.010500
vn -0.503400 -0.851500 -0.146400
vn 0.372200 0.928100 -0.010500
vn 0.503400 0.851500 0.146400
vn -0.130900 -0.990900 0.031300
vn 0.130900 0.990900 -0.031300
vn -0.372200 -0.927600 0.032800
vn 0.372200 0.927600 -0.032800
vn -0.372300 -0.928000 -0.016100
vn 0.372300 0.928000 0.016100
vn 0.695300 -0.693700 -0.188000
vn -0.010400 -0.706200 0.708000
vn -0.695300 0.693700 0.188000
vn 0.010400 0.706200 -0.708000
vn -0.487000 -0.835500 -0.254400
vn -0.320500 -0.682300 0.657100
vn 0.487000 0.835500 0.254400
vn 0.320500 0.682300 -0.657100
usemtl NW_SEQ_NATURE_PALMBARK_01
s off
f 51/1/1 30/2/1 83/3/1
f 85/4/2 74/5/2 30/2/2
f 30/2/3 73/6/3 82/7/3
f 30/2/4 74/5/4 73/6/4
f 58/8/5 80/9/5 69/10/5
f 51/1/6 85/4/6 30/2/6
f 80/11/7 81/12/7 69/13/7
f 64/1/8 71/2/8 92/3/8
f 81/14/9 51/15/9 83/16/9
f 49/14/10 92/16/10 50/17/10
f 57/11/11 70/12/11 95/13/11
f 81/14/12 83/16/12 75/17/12
f 63/18/13 80/9/13 58/8/13
f 71/2/14 58/5/14 89/6/14
f 59/19/15 49/20/15 50/16/15
f 94/21/16 61/22/16 76/23/16
f 83/3/17 30/2/17 82/7/17
f 91/24/18 28/25/18 77/26/18
f 61/22/19 67/27/19 76/23/19
f 27/4/20 63/28/20 58/5/20
f 49/14/21 64/15/21 92/16/21
f 66/29/22 91/30/22 77/31/22
f 61/22/23 84/32/23 67/27/23
f 84/33/24 62/34/24 67/35/24
f 69/19/25 81/20/25 75/16/25
f 58/8/26 69/10/26 89/36/26
f 75/17/27 29/37/27 70/38/27
f 91/24/28 94/39/28 28/25/28
f 64/1/29 27/4/29 71/2/29
f 27/4/30 58/5/30 71/2/30
f 74/8/31 95/10/31 73/36/31
f 84/33/32 66/40/32 62/34/32
f 74/8/33 57/9/33 95/10/33
f 89/18/34 69/41/34 57/9/34
f 69/19/35 75/16/35 57/11/35
f 57/11/36 75/16/36 70/12/36
f 94/21/37 76/23/37 28/42/37
f 66/29/38 77/31/38 62/43/38
f 59/19/39 50/16/39 80/11/39
f 63/18/40 59/41/40 80/9/40
f 80/11/41 50/16/41 81/12/41
f 50/17/42 51/37/42 81/38/42
f 29/44/43 82/7/43 61/22/43
f 82/7/44 84/32/44 61/22/44
f 75/17/45 83/16/45 29/37/45
f 83/3/46 82/7/46 29/44/46
f 82/7/47 73/6/47 84/32/47
f 73/36/48 66/40/48 84/33/48
f 92/3/49 71/2/49 85/7/49
f 71/2/50 89/6/50 85/7/50
f 85/4/51 89/28/51 74/5/51
f 89/18/52 57/9/52 74/8/52
f 95/13/53 70/12/53 91/30/53
f 70/38/54 94/39/54 91/24/54
f 50/17/55 92/16/55 51/37/55
f 92/3/56 85/7/56 51/44/56
f 70/38/57 29/37/57 94/39/57
f 29/44/58 61/22/58 94/21/58
f 95/13/59 91/30/59 66/29/59
f 73/36/60 95/10/60 66/40/60
usemtl NW_SEQ_NATURE_PALM_01
f 96/45/61 97/46/61 108/47/61
f 103/46/62 99/45/62 101/47/62
f 102/45/63 104/46/63 101/47/63
f 101/47/64 100/48/64 103/46/64
f 100/48/65 101/47/65 104/46/65
f 106/47/66 107/48/66 105/46/66
f 98/48/67 108/47/67 97/46/67
f 105/46/68 109/45/68 106/47/68
usemtl NW_SEQ_NATURE_PALMBARK_02
f 88/49/69 54/50/69 52/51/69
f 54/52/70 90/53/70 79/54/70
f 93/55/71 55/56/71 78/57/71
f 55/58/72 88/59/72 52/60/72
f 53/61/73 65/62/73 87/63/73
f 90/53/74 93/64/74 78/65/74
f 53/61/75 68/66/75 65/62/75
f 53/67/76 86/68/76 68/69/76
f 53/70/77 72/71/77 86/72/77
f 53/73/78 87/74/78 72/75/78
f 55/58/79 52/60/79 78/76/79
f 52/51/80 54/50/80 79/77/80
f 90/53/81 78/65/81 79/54/81
f 52/78/82 79/79/82 78/80/82
f 68/69/83 86/68/83 55/56/83
f 86/72/84 88/59/84 55/58/84
f 72/75/85 87/74/85 54/50/85
f 87/63/86 90/53/86 54/52/86
f 86/72/87 72/71/87 88/59/87
f 72/75/88 54/50/88 88/49/88
f 65/62/89 93/64/89 90/53/89
f 87/63/90 65/62/90 90/53/90
f 65/62/91 68/66/91 93/64/91
f 68/69/92 55/56/92 93/55/92
usemtl NW_SEQ_NATURE_PALM_02
f 35/81/93 40/82/93 56/83/93
f 40/82/94 35/81/94 56/83/94
f 23/84/95 60/85/95 16/82/95
f 60/85/96 23/84/96 16/82/96
f 7/86/97 46/87/97 41/88/97
f 46/87/98 7/86/98 41/88/98
f 36/89/99 46/87/99 41/88/99
f 46/87/100 36/89/100 41/88/100
f 18/89/101 24/90/101 10/91/101
f 24/90/102 18/89/102 10/91/102
f 23/84/103 5/92/103 16/82/103
f 5/92/104 23/84/104 16/82/104
f 25/93/105 19/81/105 4/94/105
f 19/81/106 25/93/106 4/94/106
f 21/87/107 22/86/107 17/88/107
f 22/86/108 21/87/108 17/88/108
f 14/95/109 6/96/109 60/85/109
f 6/96/110 14/95/110 60/85/110
f 15/97/111 9/98/111 21/87/111
f 9/98/112 15/97/112 21/87/112
f 5/92/113 16/82/113 11/99/113
f 11/99/114 16/82/114 20/83/114
f 16/82/115 5/92/115 11/99/115
f 16/82/116 11/99/116 20/83/116
f 13/100/117 17/88/117 12/101/117
f 17/88/118 13/100/118 12/101/118
f 19/81/119 16/82/119 20/83/119
f 16/82/120 19/81/120 20/83/120
f 18/89/121 10/91/121 11/99/121
f 20/83/122 18/89/122 11/99/122
f 10/91/123 18/89/123 11/99/123
f 18/89/124 20/83/124 11/99/124
f 19/81/125 4/94/125 12/101/125
f 20/83/126 19/81/126 12/101/126
f 4/94/127 19/81/127 12/101/127
f 19/81/128 20/83/128 12/101/128
f 17/88/129 18/89/129 20/83/129
f 12/101/130 17/88/130 20/83/130
f 18/89/131 17/88/131 20/83/131
f 17/88/132 12/101/132 20/83/132
f 21/87/133 18/89/133 17/88/133
f 21/87/134 24/90/134 18/89/134
f 18/89/135 21/87/135 17/88/135
f 24/90/136 21/87/136 18/89/136
f 13/100/137 22/86/137 17/88/137
f 22/86/138 13/100/138 17/88/138
f 23/84/139 14/95/139 60/85/139
f 14/95/140 23/84/140 60/85/140
f 21/87/141 9/98/141 24/90/141
f 9/98/142 21/87/142 24/90/142
f 60/85/143 6/96/143 25/93/143
f 6/96/144 60/85/144 25/93/144
f 40/82/145 43/99/145 56/83/145
f 43/99/146 40/82/146 56/83/146
f 31/46/147 5/92/147 11/99/147
f 5/92/148 31/46/148 11/99/148
f 36/89/149 32/91/149 43/99/149
f 32/91/150 36/89/150 43/99/150
f 35/81/151 56/83/151 38/101/151
f 56/83/152 35/81/152 38/101/152
f 35/81/153 45/85/153 40/82/153
f 45/85/154 35/81/154 40/82/154
f 45/85/155 2/93/155 35/81/155
f 35/81/156 2/93/156 33/94/156
f 2/93/157 45/85/157 35/81/157
f 2/93/158 35/81/158 33/94/158
f 46/87/159 8/90/159 36/89/159
f 36/89/160 8/90/160 32/91/160
f 8/90/161 46/87/161 36/89/161
f 8/90/162 36/89/162 32/91/162
f 45/85/163 37/96/163 2/93/163
f 37/96/164 45/85/164 2/93/164
f 35/81/165 33/94/165 38/101/165
f 33/94/166 35/81/166 38/101/166
f 47/98/167 46/87/167 8/90/167
f 46/87/168 47/98/168 8/90/168
f 3/84/169 45/85/169 40/82/169
f 26/92/170 3/84/170 40/82/170
f 45/85/171 3/84/171 40/82/171
f 3/84/172 26/92/172 40/82/172
f 44/100/173 7/86/173 41/88/173
f 38/101/174 41/88/174 56/83/174
f 7/86/175 44/100/175 41/88/175
f 41/88/176 38/101/176 56/83/176
f 26/92/177 40/82/177 43/99/177
f 42/46/178 26/92/178 43/99/178
f 40/82/179 26/92/179 43/99/179
f 26/92/180 42/46/180 43/99/180
f 44/100/181 41/88/181 38/101/181
f 41/88/182 44/100/182 38/101/182
f 34/95/183 37/96/183 45/85/183
f 3/84/184 34/95/184 45/85/184
f 37/96/185 34/95/185 45/85/185
f 34/95/186 3/84/186 45/85/186
f 39/97/187 47/98/187 46/87/187
f 47/98/188 39/97/188 46/87/188
f 39/97/189 1/48/189 47/98/189
f 1/48/190 39/97/190 47/98/190
f 15/97/191 48/48/191 9/98/191
f 48/48/192 15/97/192 9/98/192
f 41/88/193 36/89/193 56/83/193
f 56/83/194 36/89/194 43/99/194
f 36/89/195 41/88/195 56/83/195
f 36/89/196 56/83/196 43/99/196
f 60/85/197 19/81/197 16/82/197
f 60/85/198 25/93/198 19/81/198
f 19/81/199 60/85/199 16/82/199
f 25/93/200 60/85/200 19/81/200
