# Blender v2.75 (sub 0) OBJ File: 'Empty.blend'
# www.blender.org
mtllib ADDON_PLANTS_PALM_LONG_BENT_02_200P.mtl
o ADDON_PLANTS_PALM_LONG_BENT_02_200P
v 7.396509 7.575434 0.060839
v 0.970555 8.726335 -2.275200
v 0.988333 8.723092 2.055529
v 4.276956 4.903568 -3.655710
v -0.896174 6.134802 1.802258
v 0.965338 5.443679 -3.357985
v 5.403865 8.677457 -2.171476
v 5.215073 7.781983 2.168327
v 4.117167 4.692930 3.325740
v 0.830714 5.715143 3.645044
v 4.926318 6.737430 -2.094036
v 6.011455 4.507748 -1.857474
v 1.021783 7.629594 2.037256
v -0.613614 5.830532 -1.707903
v 5.454693 4.253105 1.514589
v 0.943956 7.320445 -0.037472
v 4.871634 6.429921 -0.037706
v 2.914444 6.898172 2.049053
v 2.914376 6.898188 -2.106645
v 2.932341 6.978803 -0.040489
v 4.839626 6.912909 1.902062
v 6.168832 4.643591 -0.036997
v -0.970907 6.325686 -0.036307
v 2.602683 5.456430 3.755811
v 2.203879 9.199321 3.181240
v -0.786693 5.940384 3.480797
v 2.603438 5.456278 -3.770452
v 4.320646 8.700287 3.238296
v 2.165420 9.164631 -3.344825
v 0.016966 9.427919 0.948688
v 1.985985 8.188577 -1.147334
v 4.072271 7.731444 1.035339
v 0.002766 9.408786 -1.226324
v 3.196894 8.768831 -2.218801
v 6.347272 7.905934 -1.054356
v 1.995914 8.196978 0.980555
v 4.257408 8.540945 -1.105764
v 3.215395 8.716682 4.297449
v 3.221633 8.788965 2.114012
v 4.290449 8.703090 -3.287500
v 1.054921 9.051123 -0.110810
v 5.253750 8.035800 0.002160
v 6.374637 7.971880 1.119432
v 5.461444 4.223362 3.120104
v -0.530101 -3.733846 0.362228
v 2.771123 5.518470 0.027385
v 0.737087 -3.834337 -0.050649
v 2.865304 7.274983 -0.112481
v 2.638740 4.991756 -0.229286
v 2.970975 6.334985 0.273094
v 2.420402 6.458828 -0.487634
v 2.740153 6.588366 -0.066746
v 0.392614 -1.224087 -0.332257
v 0.419768 -1.225363 0.337625
v 2.100005 2.732356 0.095080
v 0.252926 -3.795942 -0.718968
v 1.195412 7.758495 -1.956607
v 2.504707 5.580438 -0.356025
v 0.252890 -3.795939 0.617628
v 0.839393 0.131537 0.130145
v -0.530146 -3.733843 -0.463512
v 3.114609 5.571721 -0.203276
v 2.649895 3.899209 -0.129783
v 2.923862 5.482895 -0.225021
v 2.815931 5.640811 -0.615098
v 2.357306 5.746811 0.077314
v 1.270756 0.088370 -0.262799
v 0.402630 -2.568141 -0.057231
v -0.016588 -1.190716 -0.204323
v 1.889149 2.779926 -0.217886
v 2.495587 5.582595 -0.069036
v 2.783090 5.515670 -0.436966
v 2.984445 7.248412 -0.374256
v 3.146534 7.212264 -0.136290
v -0.017680 -1.190908 0.210902
v 0.096934 -2.544475 0.376481
v 1.514029 0.070232 -0.043807
v 0.680713 -1.245814 0.001569
v 0.149557 -2.548450 -0.428550
v 2.780782 5.648958 0.169506
v 2.382419 5.740965 -0.407607
v 2.434362 6.455732 0.071781
v -0.379772 -2.507346 0.240470
v 2.120542 2.728191 -0.329894
v 3.262563 6.269338 -0.179320
v 0.850350 0.127585 -0.162795
v 1.873518 2.782747 0.045052
v 2.479816 3.939867 0.132018
v 2.939253 6.342130 -0.632073
v 1.265420 0.095281 0.210845
v 2.165876 4.016823 -0.307957
v -0.345004 -2.510050 -0.257297
v 2.172260 4.014648 0.015592
v 2.465659 3.944544 -0.391656
v 2.279000 2.692402 -0.106654
v 2.734982 5.917141 3.693995
v 3.404688 10.418088 -4.093320
v 3.404688 10.418088 3.817307
v 6.511111 5.074900 -0.145376
v -0.098967 11.199458 -0.195225
v 7.619528 9.478116 -0.195225
v 6.511767 5.074755 -0.145376
v -0.956167 6.740688 -0.145376
v -0.956043 6.740660 -0.145376
v 2.734201 5.917309 -3.956858
v 2.734980 5.917142 3.694255
v 3.404687 10.418088 -4.093320
v 3.404687 10.418088 3.817307
v 2.734202 5.917309 -3.956583
vt 0.749750 -0.500000
vt 0.500000 -0.749750
vt 0.500000 -0.500000
vt 0.500000 -0.999500
vt 0.749750 -0.749750
vt 0.500000 -0.000500
vt 0.250250 -0.250250
vt 0.500000 -0.250250
vt 0.250250 -0.500000
vt 0.000500 -0.500000
vt 0.000500 -0.749750
vt 0.999500 -0.500000
vt 0.999500 -0.250250
vt 0.250250 -0.999500
vt 0.749750 -0.999500
vt 0.999500 -0.749750
vt 0.250250 -0.000500
vt 0.000500 -0.250250
vt 0.250250 -0.749750
vt 0.749750 -0.000500
vt 0.749750 -0.250250
vt 0.000500 -0.999500
vt 0.000500 -0.000500
vt 0.323029 -0.807758
vt 1.202140 -0.500000
vt 0.279006 -0.500000
vt -0.181501 -0.807758
vt 0.786029 -0.807758
vt 0.650475 -0.500000
vt 0.216470 -0.807758
vt 1.202319 -0.807758
vt 1.265301 -0.500000
vt 0.310992 -0.807758
vt 1.050927 -0.807758
vt 0.933801 -0.500000
vt 0.359731 -0.500000
vt -0.237940 -0.500000
vt 0.324604 -0.192242
vt 1.065843 -0.192242
vt 0.988124 0.115516
vt 0.407413 -0.192242
vt 1.114145 0.115516
vt 0.324561 0.115516
vt 0.323150 0.115516
vt -0.413774 -0.192242
vt 0.390952 -0.500000
vt -0.460956 -0.807758
vt 0.260490 -0.192242
vt 1.137174 -0.192242
vt 1.070027 0.115516
vt -0.157431 -0.192242
vt 0.626000 -0.192242
vt 0.677699 0.115516
vt -0.081898 0.115516
vt -0.195826 -1.115516
vt 1.423035 -1.115516
vt -0.475470 -1.115516
vt 0.012251 -1.115516
vt 1.533951 -1.115516
vt -0.339680 -0.500000
vt 1.223412 -0.192242
vt -0.328082 0.115516
vt 0.352918 0.115516
vt -0.867384 -1.115516
vt 0.475940 -1.115516
vt 1.751237 -1.115516
vt 1.082039 -1.115516
vt 0.999500 -0.000500
vt 0.999500 -0.999501
vt -0.000819 -0.205333
vt 0.658368 -0.205333
vt 0.308895 0.868264
vt -0.043317 -0.205333
vt 0.499797 -0.205333
vt 0.448140 0.868264
vt 0.379562 -0.205333
vt 1.017121 -0.205333
vt 0.544565 0.868264
vt 0.130079 -0.205333
vt 0.801645 -0.205333
vt 0.580442 0.868264
vt 0.559780 -1.868262
vt 0.528555 -1.059335
vt 0.081037 -1.059335
vt 1.043317 -0.205333
vt 0.733813 0.868264
vt 1.022939 -1.059335
vt 0.494572 -1.868262
vt 0.925447 -1.059335
vt 0.391829 -1.059335
vt 0.440220 -1.868262
vt 0.808288 -1.059335
vt 0.226150 -1.059335
vt 0.505428 -1.868262
vt 0.562541 -1.059335
vt 0.042847 -1.059335
vt 0.266187 0.868264
vt 0.654800 0.868264
vt 0.308895 -0.580442
vt 0.654800 -0.551860
vt 0.455435 -0.266187
vn 0.906100 0.423000 -0.005900
vn -0.906100 -0.423000 0.005900
vn 0.456300 -0.878600 -0.140800
vn -0.456300 0.878600 0.140800
vn -0.156700 -0.944200 -0.289600
vn 0.156700 0.944200 0.289600
vn 0.073500 0.930700 0.358200
vn -0.073500 -0.930700 -0.358200
vn -0.069600 -0.755800 -0.651100
vn 0.069600 0.755800 0.651100
vn 0.276400 0.700100 -0.658400
vn -0.276400 -0.700100 0.658400
vn 0.802100 0.582400 -0.131800
vn -0.802100 -0.582400 0.131800
vn -0.458100 0.882000 0.110200
vn 0.458100 -0.882000 -0.110200
vn 0.584200 -0.462000 0.667300
vn -0.584200 0.462000 -0.667300
vn -0.812000 -0.104100 -0.574400
vn 0.812000 0.104100 0.574400
vn 0.604700 -0.790800 0.095200
vn -0.167200 -0.974200 0.151400
vn -0.604700 0.790800 -0.095200
vn 0.167200 0.974200 -0.151400
vn -0.891700 -0.443500 -0.090000
vn 0.891700 0.443500 0.090000
vn 0.169100 0.984800 -0.039900
vn -0.169100 -0.984800 0.039900
vn -0.231800 -0.611900 -0.756200
vn -0.360000 -0.932100 -0.039100
vn 0.231800 0.611900 0.756200
vn 0.360000 0.932100 0.039100
vn -0.055600 -0.635800 0.769800
vn -0.079800 -0.996000 0.039600
vn 0.055600 0.635800 -0.769800
vn 0.079800 0.996000 -0.039600
vn -0.272100 -0.961500 -0.039400
vn -0.269100 -0.951500 -0.149400
vn 0.272100 0.961500 0.039400
vn 0.269100 0.951500 0.149400
vn 0.025900 -0.969900 0.241900
vn -0.043800 -0.759200 -0.649300
vn -0.025900 0.969900 -0.241900
vn 0.043800 0.759200 0.649300
vn -0.804000 -0.583800 0.113100
vn 0.804000 0.583800 -0.113100
vn 0.708200 -0.621300 0.335400
vn -0.708200 0.621300 -0.335400
vn -0.426700 -0.385700 -0.818000
vn 0.426700 0.385700 0.818000
vn 0.350400 0.619500 -0.702500
vn -0.350400 -0.619500 0.702500
vn 0.619400 -0.774300 -0.130100
vn -0.619400 0.774300 0.130100
vn 0.212100 -0.521400 0.826500
vn -0.212100 0.521400 -0.826500
vn -0.471600 -0.786400 0.399000
vn 0.471600 0.786400 -0.399000
vn 0.323500 0.629500 0.706500
vn -0.323500 -0.629500 -0.706500
vn 0.675900 0.736900 -0.006100
vn -0.675900 -0.736900 0.006100
vn -0.582400 -0.800300 0.142800
vn -0.030300 -0.912600 -0.407800
vn 0.582400 0.800300 -0.142800
vn 0.030300 0.912600 0.407800
vn 0.154700 -0.981600 -0.112300
vn -0.368300 -0.835000 0.408800
vn -0.154700 0.981600 0.112300
vn 0.368300 0.835000 -0.408800
vn -0.456500 -0.877100 0.149400
vn 0.456500 0.877100 -0.149400
vn 0.084800 -0.913200 -0.398700
vn -0.084800 0.913200 0.398700
vn -0.058200 0.991600 0.115200
vn 0.058200 -0.991600 -0.115200
vn -0.571500 -0.808500 -0.140000
vn -0.029900 -0.908600 0.416700
vn 0.571500 0.808500 0.140000
vn 0.029900 0.908600 -0.416700
vn 0.050500 -0.996000 -0.073300
vn 0.464500 -0.669400 -0.579700
vn -0.050500 0.996000 0.073300
vn -0.464500 0.669400 0.579700
vn 0.061600 -0.910500 0.408900
vn -0.401900 -0.915100 -0.031400
vn -0.061600 0.910500 -0.408900
vn 0.401900 0.915100 0.031400
vn -0.133200 -0.988200 -0.075500
vn 0.133200 0.988200 0.075500
vn -0.331800 -0.943300 0.010500
vn -0.466200 -0.872500 -0.146400
vn 0.331800 0.943300 -0.010500
vn 0.466200 0.872500 0.146400
vn -0.088000 -0.995600 0.031300
vn 0.088000 0.995600 -0.031300
vn -0.331800 -0.942800 0.032800
vn 0.331800 0.942800 -0.032800
vn -0.331900 -0.943200 -0.016100
vn 0.331900 0.943200 0.016100
vn 0.724500 -0.663100 -0.188000
vn 0.020100 -0.706000 0.708000
vn -0.724500 0.663100 0.188000
vn -0.020100 0.706000 -0.708000
vn -0.450500 -0.855800 -0.254400
vn -0.290700 -0.695500 0.657100
vn 0.450500 0.855800 0.254400
vn 0.290700 0.695500 -0.657100
vn 0.773200 -0.239600 -0.587200
vn 0.693900 -0.185800 0.695700
vn -0.316900 0.116700 -0.941300
vn -0.177100 0.099000 0.979200
vn -0.270000 0.095800 0.958100
vn 0.773100 -0.171200 0.610700
vn 0.713800 -0.196400 0.672200
vn -0.325300 0.122200 0.937700
vn 0.818700 -0.109300 -0.563800
vn -0.273200 0.027500 -0.961600
vn -0.304400 0.113800 0.945700
vn -0.266400 0.093500 0.959300
vn -0.979000 0.203000 0.020700
vn -0.287100 0.121800 -0.950100
vn -0.962300 0.263100 -0.068600
vn 0.790400 -0.176600 -0.586600
vn 0.825700 -0.109600 0.553400
vn 0.841700 -0.120400 0.526300
vn 0.673900 -0.418600 -0.608800
vn -0.210200 0.191400 -0.958700
vn 0.812800 0.211900 -0.542700
vn 0.796900 0.213400 0.565100
vn -0.970400 0.241600 -0.002400
vn -0.929900 0.363000 -0.059200
vn -0.224900 0.067900 -0.972000
vn -0.262700 0.027300 -0.964500
vn -0.977000 0.210700 -0.032600
vn 0.807800 -0.173600 -0.563400
vn -0.839200 0.543800 -0.002000
vn -0.169500 0.169200 0.970900
vn -0.296400 0.145000 0.944000
vn 0.804900 0.207400 0.556000
vn 0.596100 -0.401400 -0.695400
vn 0.702300 -0.425000 0.571200
vn 0.746700 -0.128000 -0.652700
vn 0.797000 -0.193100 0.572300
vn 0.799100 0.198300 -0.567500
vn -0.307900 0.191500 -0.932000
vn -0.992600 0.121700 0.000100
vn -0.263000 0.127200 0.956400
vn 0.642500 -0.225400 -0.732400
vn -0.413000 0.110000 -0.904100
vn -0.276000 0.211000 -0.937700
vn -0.834300 0.549900 -0.038600
vn -0.931300 0.362000 -0.039700
vn -0.191900 0.106200 0.975700
vn -0.208000 0.035500 0.977500
vn 0.789200 -0.265200 0.553900
vn -0.251100 0.250600 0.935000
vn 0.651900 -0.353000 0.671100
vn -0.430000 0.030500 -0.902300
vn -0.975300 0.219700 0.020700
vn -0.289300 0.201500 -0.935800
vn -0.984500 0.160700 -0.069600
vn -0.970400 0.233900 -0.060200
vn -0.330300 0.102500 0.938300
vn 0.770600 -0.248500 -0.586800
vn -0.263100 0.025700 -0.964400
vn 0.771500 -0.248300 -0.585800
vn 0.711400 -0.205800 0.672000
vn 0.989100 -0.147200 0.000000
vn -0.002400 -0.010700 -0.999900
vn 0.002400 0.010700 0.999900
vn -0.989100 0.147300 0.000100
vn -0.989100 0.147200 0.000000
vn 0.989100 -0.147300 -0.000100
vn -0.262000 0.340900 0.902900
vn 0.843100 0.079500 0.531900
vn -0.199300 0.277300 -0.939900
vn -0.882500 0.469700 0.024600
vn 0.586100 -0.509100 0.630300
vn 0.817000 0.119700 -0.564100
vn 0.653000 -0.510700 -0.559300
vn -0.469000 -0.353100 -0.809500
vn -0.941900 -0.332900 -0.044800
vn -0.288100 -0.450500 0.845000
vn -0.723100 0.572100 -0.387100
vn 0.163700 0.390100 0.906100
vn 0.828700 0.126800 -0.545200
vn 0.217700 0.976000 0.000000
vn -0.230200 -0.082600 0.969600
vn 0.781600 -0.299300 0.547200
vn -0.444700 -0.076000 -0.892500
vn -0.998100 0.055600 0.025200
vn -0.992800 0.107500 -0.052700
vn -0.342100 0.044500 0.938600
vn 0.793400 -0.148000 -0.590400
vn 0.715200 -0.174900 0.676700
vn 0.787600 -0.152900 -0.596900
vn -0.263300 0.023000 -0.964400
usemtl NW_SEQ_NATURE_PALM_02
s off
f 31/1/1 36/2/1 52/3/1
f 36/2/2 31/1/2 52/3/2
f 23/4/3 57/5/3 16/2/3
f 57/5/4 23/4/4 16/2/4
f 7/6/5 42/7/5 37/8/5
f 42/7/6 7/6/6 37/8/6
f 32/9/7 42/7/7 37/8/7
f 42/7/8 32/9/8 37/8/8
f 18/9/9 24/10/9 10/11/9
f 24/10/10 18/9/10 10/11/10
f 27/12/11 19/1/11 4/13/11
f 19/1/12 27/12/12 4/13/12
f 21/7/13 22/6/13 17/8/13
f 22/6/14 21/7/14 17/8/14
f 23/4/15 5/14/15 16/2/15
f 5/14/16 23/4/16 16/2/16
f 14/15/17 6/16/17 57/5/17
f 6/16/18 14/15/18 57/5/18
f 15/17/19 9/18/19 21/7/19
f 9/18/20 15/17/20 21/7/20
f 5/14/21 16/2/21 13/19/21
f 13/19/22 16/2/22 20/3/22
f 16/2/23 5/14/23 13/19/23
f 16/2/24 13/19/24 20/3/24
f 12/20/25 17/8/25 11/21/25
f 17/8/26 12/20/26 11/21/26
f 19/1/27 16/2/27 20/3/27
f 16/2/28 19/1/28 20/3/28
f 18/9/29 10/11/29 13/19/29
f 20/3/30 18/9/30 13/19/30
f 10/11/31 18/9/31 13/19/31
f 18/9/32 20/3/32 13/19/32
f 19/1/33 4/13/33 11/21/33
f 20/3/34 19/1/34 11/21/34
f 4/13/35 19/1/35 11/21/35
f 19/1/36 20/3/36 11/21/36
f 17/8/37 18/9/37 20/3/37
f 11/21/38 17/8/38 20/3/38
f 18/9/39 17/8/39 20/3/39
f 17/8/40 11/21/40 20/3/40
f 21/7/41 18/9/41 17/8/41
f 21/7/42 24/10/42 18/9/42
f 18/9/43 21/7/43 17/8/43
f 24/10/44 21/7/44 18/9/44
f 12/20/45 22/6/45 17/8/45
f 22/6/46 12/20/46 17/8/46
f 23/4/47 14/15/47 57/5/47
f 14/15/48 23/4/48 57/5/48
f 21/7/49 9/18/49 24/10/49
f 9/18/50 21/7/50 24/10/50
f 36/2/51 39/19/51 52/3/51
f 39/19/52 36/2/52 52/3/52
f 26/22/53 5/14/53 13/19/53
f 5/14/54 26/22/54 13/19/54
f 57/5/55 6/16/55 27/12/55
f 6/16/56 57/5/56 27/12/56
f 32/9/57 28/11/57 39/19/57
f 28/11/58 32/9/58 39/19/58
f 31/1/59 52/3/59 34/21/59
f 52/3/60 31/1/60 34/21/60
f 31/1/61 41/5/61 36/2/61
f 41/5/62 31/1/62 36/2/62
f 41/5/63 2/12/63 31/1/63
f 31/1/64 2/12/64 29/13/64
f 2/12/65 41/5/65 31/1/65
f 2/12/66 31/1/66 29/13/66
f 42/7/67 8/10/67 32/9/67
f 32/9/68 8/10/68 28/11/68
f 8/10/69 42/7/69 32/9/69
f 8/10/70 32/9/70 28/11/70
f 41/5/71 33/16/71 2/12/71
f 33/16/72 41/5/72 2/12/72
f 31/1/73 29/13/73 34/21/73
f 29/13/74 31/1/74 34/21/74
f 43/18/75 42/7/75 8/10/75
f 42/7/76 43/18/76 8/10/76
f 3/4/77 41/5/77 36/2/77
f 25/14/78 3/4/78 36/2/78
f 41/5/79 3/4/79 36/2/79
f 3/4/80 25/14/80 36/2/80
f 40/20/81 7/6/81 37/8/81
f 34/21/82 37/8/82 52/3/82
f 7/6/83 40/20/83 37/8/83
f 37/8/84 34/21/84 52/3/84
f 25/14/85 36/2/85 39/19/85
f 38/22/86 25/14/86 39/19/86
f 36/2/87 25/14/87 39/19/87
f 25/14/88 38/22/88 39/19/88
f 40/20/89 37/8/89 34/21/89
f 37/8/90 40/20/90 34/21/90
f 30/15/91 33/16/91 41/5/91
f 3/4/92 30/15/92 41/5/92
f 33/16/93 30/15/93 41/5/93
f 30/15/94 3/4/94 41/5/94
f 35/17/95 43/18/95 42/7/95
f 43/18/96 35/17/96 42/7/96
f 35/17/97 1/23/97 43/18/97
f 1/23/98 35/17/98 43/18/98
f 15/17/99 44/23/99 9/18/99
f 44/23/100 15/17/100 9/18/100
f 37/8/101 32/9/101 52/3/101
f 52/3/102 32/9/102 39/19/102
f 32/9/103 37/8/103 52/3/103
f 32/9/104 52/3/104 39/19/104
f 57/5/105 19/1/105 16/2/105
f 57/5/106 27/12/106 19/1/106
f 19/1/107 57/5/107 16/2/107
f 27/12/108 57/5/108 19/1/108
usemtl NW_SEQ_NATURE_PALMBARK_01
f 77/24/109 84/25/109 95/26/109
f 90/27/110 77/28/110 95/29/110
f 79/30/111 92/31/111 69/32/111
f 60/33/112 90/34/112 55/35/112
f 83/33/113 54/35/113 75/36/113
f 76/27/114 78/29/114 54/37/114
f 90/27/115 95/29/115 55/37/115
f 93/38/116 88/39/116 46/40/116
f 68/24/117 79/31/117 53/25/117
f 94/41/118 58/42/118 72/43/118
f 93/38/119 46/40/119 71/44/119
f 83/33/120 76/34/120 54/35/120
f 91/45/121 93/38/121 71/44/121
f 79/30/122 69/32/122 53/46/122
f 92/47/123 83/33/123 75/36/123
f 63/48/124 94/49/124 72/50/124
f 88/51/125 63/52/125 64/53/125
f 88/51/126 64/53/126 46/54/126
f 78/55/127 53/56/127 67/31/127
f 53/57/128 86/31/128 67/30/128
f 47/55/129 79/31/129 68/24/129
f 59/58/130 47/59/130 68/28/130
f 92/47/131 75/36/131 69/60/131
f 86/47/132 87/36/132 70/60/132
f 67/30/133 86/31/133 70/32/133
f 94/41/134 91/61/134 58/42/134
f 91/45/135 71/44/135 58/62/135
f 63/48/136 72/50/136 64/63/136
f 69/64/137 75/65/137 60/33/137
f 75/65/138 90/34/138 60/33/138
f 45/65/139 59/66/139 76/34/139
f 59/58/140 68/28/140 76/27/140
f 78/55/141 67/31/141 77/24/141
f 54/58/142 78/59/142 77/28/142
f 68/24/143 53/25/143 78/26/143
f 76/27/144 68/28/144 78/29/144
f 47/55/145 56/56/145 79/31/145
f 56/57/146 92/31/146 79/30/146
f 61/64/147 45/65/147 83/33/147
f 45/65/148 76/34/148 83/33/148
f 77/24/149 67/31/149 84/25/149
f 67/30/150 70/32/150 84/46/150
f 53/57/151 69/67/151 86/31/151
f 69/64/152 60/33/152 86/47/152
f 86/47/153 60/33/153 87/36/153
f 60/33/154 55/35/154 87/36/154
f 87/36/155 55/35/155 88/39/155
f 55/37/156 63/52/156 88/51/156
f 75/65/157 54/66/157 90/34/157
f 54/58/158 77/28/158 90/27/158
f 84/46/159 70/32/159 91/61/159
f 70/60/160 93/38/160 91/45/160
f 56/57/161 61/67/161 92/31/161
f 61/64/162 83/33/162 92/47/162
f 70/60/163 87/36/163 93/38/163
f 87/36/164 88/39/164 93/38/164
f 95/26/165 84/25/165 94/49/165
f 84/46/166 91/61/166 94/41/166
f 95/26/167 94/49/167 63/48/167
f 55/37/168 95/29/168 63/52/168
usemtl NW_SEQ_NATURE_PALM_01
f 97/68/169 98/23/169 96/22/169
f 100/68/170 101/23/170 99/22/170
f 101/23/171 100/68/171 102/22/171
f 99/22/170 103/69/170 100/68/170
f 104/69/171 102/22/171 100/68/171
f 105/69/172 106/22/172 107/68/172
f 108/23/173 107/68/173 106/22/173
f 96/22/174 109/69/174 97/68/174
usemtl NW_SEQ_NATURE_PALMBARK_02
f 82/70/175 50/71/175 48/72/175
f 50/73/176 85/74/176 74/75/176
f 89/76/177 51/77/177 73/78/177
f 51/79/178 82/80/178 48/81/178
f 49/82/179 62/83/179 80/84/179
f 85/74/180 89/85/180 73/86/180
f 49/82/181 65/87/181 62/83/181
f 49/88/182 81/89/182 65/90/182
f 49/91/183 66/92/183 81/93/183
f 49/94/184 80/95/184 66/96/184
f 51/79/185 48/81/185 73/97/185
f 48/72/186 50/71/186 74/98/186
f 85/74/187 73/86/187 74/75/187
f 48/99/188 74/100/188 73/101/188
f 66/96/189 80/95/189 50/71/189
f 80/84/190 85/74/190 50/73/190
f 65/90/191 81/89/191 51/77/191
f 81/93/192 82/80/192 51/79/192
f 81/93/193 66/92/193 82/80/193
f 66/96/194 50/71/194 82/70/194
f 62/83/195 89/85/195 85/74/195
f 80/84/196 62/83/196 85/74/196
f 62/83/197 65/87/197 89/85/197
f 65/90/198 51/77/198 89/76/198
