# Blender v2.75 (sub 0) OBJ File: 'Empty.blend'
# www.blender.org
mtllib ADDON_PLANTS_JUNGLETREE_03_163P.mtl
o ADDON_PLANTS_JUNGLETREE_03_163P
v 0.194813 -0.927867 0.110954
v -0.624134 7.406767 -1.240749
v -0.057745 2.449063 -0.326179
v -0.089450 3.067867 0.856342
v -1.954737 1.832548 -1.665046
v -2.379401 3.374317 0.315685
v -0.629379 3.474509 0.518903
v -2.046432 3.171708 -1.383544
v -0.466369 1.993477 -2.688184
v -2.055255 0.765632 -3.911932
v -0.819869 2.718369 -0.308375
v -0.254308 2.498629 -2.518828
v 0.282917 1.297742 -4.746863
v 1.779722 3.414548 -2.068119
v 2.229599 2.984930 -4.197065
v 0.250695 1.901206 -0.927590
v -3.334669 1.606501 -2.063737
v 0.798169 2.604213 -0.700922
v -1.435980 6.576494 -2.313307
v -1.514426 6.174979 -4.523376
v 0.104336 7.415918 -4.391233
v 1.079861 2.544605 0.043706
v 0.380830 3.136014 -0.981457
v 1.950595 4.212219 0.159588
v 3.740919 4.089453 1.276012
v 0.990938 3.907744 1.710456
v 0.102224 3.941032 0.451512
v -0.290771 2.879286 -1.041069
v -1.387600 5.031727 0.454370
v 2.642577 4.272688 2.738779
v -0.403729 2.533493 0.553685
v -3.969447 2.597267 -0.059792
v 0.683606 3.938346 -0.289225
v -0.010156 5.330867 0.836260
v -0.746272 2.850627 -0.171307
v -1.274155 5.744092 -0.581673
v 0.502132 5.671247 -0.764915
v 1.098143 3.907052 -1.337354
v 2.781592 4.316256 -2.061555
v 3.314030 3.597944 -0.534541
v 0.186068 7.071582 -2.281221
v 0.152326 5.675444 0.340914
v -1.182211 6.612314 0.807367
v -0.629683 4.877233 -0.916845
v -3.802837 1.914565 -1.576991
v -3.149787 5.268369 0.634172
v -1.586940 4.414876 -1.079599
v -0.114529 5.199923 -1.087313
v 0.658605 6.677465 -0.117274
v -0.459678 4.309966 0.272273
v -0.304855 2.542075 -0.809339
v 1.782666 3.478137 0.113930
v -0.473011 6.043313 2.416904
v -1.507606 4.683091 0.665533
v -0.599272 4.469921 -0.983612
v 0.523795 6.149211 -1.158728
v 0.332012 4.011693 0.222721
v -1.941791 5.713618 1.989678
v -3.154025 5.309813 -0.923022
v 2.088447 7.389912 0.814666
v 1.245742 7.060216 2.063500
v 0.110594 6.029690 1.166457
v 2.044621 6.917242 -1.763798
v 2.488562 6.887826 -0.328873
v 1.214400 5.798104 0.123298
v 0.150161 7.580085 -0.021938
v -1.160882 6.755229 -0.305895
v -0.561858 8.776637 0.521199
v 0.346303 6.603301 -0.972894
v -0.093602 8.219696 -0.290329
v -1.094126 6.253674 -1.057279
v 0.490187 2.479352 0.426530
v -0.746322 7.762554 -0.246131
v -0.168012 9.518459 -0.447811
v 0.464650 6.981404 -0.408229
v -0.252792 6.291563 -0.398477
v -2.710776 6.655776 1.545935
v -3.193619 6.816553 0.195927
v -1.807838 6.360378 -0.436547
v 0.372456 10.968211 -1.291045
v 0.973389 8.878720 -0.297112
v 1.433472 10.469883 -0.839410
v -1.635122 9.432977 0.239380
v -1.285617 8.378932 -0.458147
v 0.407618 8.698927 -0.083747
v 1.555045 9.277788 0.444425
v 1.138276 9.009911 1.506148
v -1.234869 9.385076 1.416521
v -1.430870 8.223426 0.045930
v -0.585748 8.791035 0.551032
v -0.219195 7.560541 -0.645738
v 0.163454 8.172608 0.881405
v -2.100331 9.103511 0.805417
v -0.123853 6.775782 0.040270
v -0.655620 7.411350 -0.702287
v -1.373463 8.144105 -1.089625
v -0.392422 7.055616 -1.575336
v -2.378497 8.301598 -1.588416
v -1.967514 8.477713 -2.456864
v -1.023155 8.054508 -1.907523
v -0.258397 -0.935055 -0.215026
v 0.199226 2.595156 -0.141178
v 0.010532 4.451686 -0.369797
v 0.130430 -0.958321 -0.276620
v -0.193392 -0.904599 0.172156
v -0.214906 4.434605 -0.236172
v -0.102204 7.683185 -0.273582
v -0.604520 7.650309 -0.128507
v -0.268926 6.285295 -0.208739
v -0.527293 7.722010 -0.127570
v -0.215282 4.369527 -0.497749
v -0.386479 6.276628 -0.323828
v -0.572503 7.473476 -1.208627
v -0.625564 7.482927 -1.179885
v -0.565886 7.680342 -0.087548
v -0.565668 7.691978 -0.168427
v -0.112668 2.530192 -0.018428
vt 0.999500 -0.500000
vt 0.999501 -0.000500
vt 0.000500 -0.500000
vt 0.000500 -0.999500
vt 0.999500 -0.999500
vt 0.000500 -0.000500
vt 0.500000 -5.000000
vt 0.500000 -4.174102
vt 0.250000 -5.000000
vt 0.666667 -4.174102
vt 1.000000 -5.000000
vt 1.000000 -4.174102
vt 0.333333 -4.174102
vt 0.666667 -5.000000
vt 0.250000 -4.174102
vt 0.750000 -4.174102
vt 0.750000 -5.000000
vt 0.000000 -4.174102
vt 0.000000 -5.000000
vt 0.333333 -5.000000
vn 0.238900 0.790400 -0.564000
vn -0.238900 -0.790400 0.564000
vn 0.328500 0.863700 -0.382200
vn -0.328500 -0.863700 0.382200
vn -0.028900 0.724200 -0.689000
vn 0.028900 -0.724200 0.689000
vn -0.369100 0.910800 -0.185000
vn 0.369100 -0.910800 0.185000
vn 0.480500 -0.718400 0.503100
vn -0.480500 0.718400 -0.503100
vn -0.349300 0.901500 -0.255700
vn 0.349300 -0.901500 0.255700
vn 0.148200 0.840400 -0.521300
vn -0.148200 -0.840400 0.521300
vn -0.459800 0.644100 -0.611300
vn 0.459800 -0.644100 0.611300
vn 0.200800 0.893200 -0.402300
vn -0.200800 -0.893200 0.402300
vn -0.597500 0.792400 -0.122800
vn 0.597500 -0.792400 0.122800
vn 0.013200 0.923000 0.384600
vn -0.013200 -0.923000 -0.384600
vn -0.240300 0.969800 0.041700
vn -0.491500 0.860300 -0.135200
vn 0.240300 -0.969800 -0.041700
vn 0.491500 -0.860300 0.135200
vn -0.645900 -0.531400 0.548100
vn 0.645900 0.531400 -0.548100
vn 0.099300 0.993800 -0.049900
vn -0.099300 -0.993800 0.049900
vn -0.676200 0.734500 -0.057300
vn 0.676200 -0.734500 0.057300
vn -0.005800 -0.789700 0.613500
vn 0.005800 0.789700 -0.613500
vn -0.297000 0.291800 -0.909200
vn 0.297000 -0.291800 0.909200
vn 0.098900 0.741200 0.663900
vn -0.098900 -0.741200 -0.663900
vn -0.031900 0.900100 0.434500
vn 0.031900 -0.900100 -0.434500
vn -0.290900 0.942400 0.165100
vn -0.270400 0.857600 0.437500
vn 0.290900 -0.942400 -0.165100
vn 0.270400 -0.857600 -0.437500
vn 0.467300 0.585700 -0.662300
vn -0.467300 -0.585700 0.662300
vn -0.317300 0.851300 -0.417900
vn 0.317300 -0.851300 0.417900
vn 0.428500 0.817600 -0.384500
vn 0.547800 0.749200 -0.372400
vn -0.428500 -0.817600 0.384500
vn -0.547800 -0.749200 0.372400
vn -0.944700 0.326800 -0.025900
vn 0.944700 -0.326800 0.025900
vn 0.037700 0.963000 0.266800
vn -0.524600 0.716900 0.459300
vn -0.037700 -0.963000 -0.266800
vn 0.524600 -0.716900 -0.459300
vn -0.240700 0.726100 -0.644000
vn -0.156000 0.572700 -0.804800
vn 0.240700 -0.726100 0.644000
vn 0.156000 -0.572700 0.804800
vn -0.664900 0.364700 0.651800
vn 0.664900 -0.364700 -0.651800
vn -0.077500 0.900200 -0.428400
vn 0.077500 -0.900200 0.428400
vn 0.135700 0.990400 0.026000
vn -0.135700 -0.990400 -0.026000
vn -0.421600 0.905600 -0.045400
vn 0.421600 -0.905600 0.045400
vn -0.697500 0.713900 0.062500
vn -0.851500 0.513900 -0.104200
vn 0.697500 -0.713900 -0.062500
vn 0.851500 -0.513900 0.104200
vn -0.400400 0.905200 0.142400
vn 0.400400 -0.905200 -0.142400
vn -0.476300 0.748400 0.461500
vn -0.688600 0.513900 0.511700
vn 0.476300 -0.748400 -0.461500
vn 0.688600 -0.513900 -0.511700
vn -0.057100 -0.242600 0.968400
vn 0.057100 0.242600 -0.968400
vn -0.009300 0.270500 -0.962700
vn 0.009300 -0.270500 0.962700
vn -0.511100 0.776600 0.368200
vn 0.511100 -0.776600 -0.368200
vn 0.081400 -0.080000 0.993500
vn -0.081400 0.080000 -0.993500
vn 0.072800 0.993100 0.092200
vn -0.072800 -0.993100 -0.092200
vn 0.181400 0.942100 -0.282000
vn 0.436700 0.813400 -0.384400
vn -0.181400 -0.942100 0.282000
vn -0.436700 -0.813400 0.384400
vn 0.048200 0.309700 0.949600
vn -0.056500 0.132300 0.989600
vn -0.048200 -0.309700 -0.949600
vn 0.056500 -0.132300 -0.989600
vn -0.109100 0.529900 0.841000
vn 0.109100 -0.529900 -0.841000
vn 0.189200 0.584800 -0.788800
vn 0.181600 0.424100 -0.887200
vn -0.189200 -0.584800 0.788800
vn -0.181600 -0.424100 0.887200
vn -0.464900 0.884400 0.040700
vn 0.464900 -0.884400 -0.040700
vn -0.001300 0.652800 -0.757500
vn 0.160700 0.485700 -0.859200
vn 0.001300 -0.652800 0.757500
vn -0.160700 -0.485700 0.859200
vn 0.555700 0.801900 -0.219500
vn -0.555700 -0.801900 0.219500
vn -0.707400 0.680300 0.192000
vn -0.882300 0.469600 0.032900
vn 0.707400 -0.680300 -0.192000
vn 0.882300 -0.469600 -0.032900
vn 0.086100 0.852900 -0.514900
vn -0.086100 -0.852900 0.514900
vn -0.973900 0.070300 0.215800
vn 0.973900 -0.070300 -0.215800
vn 0.840100 0.541400 0.032700
vn -0.840100 -0.541400 -0.032700
vn 0.044300 0.974800 0.218600
vn -0.044300 -0.974800 -0.218600
vn 0.378500 0.923600 0.060900
vn 0.646600 0.737200 0.196200
vn -0.378500 -0.923600 -0.060900
vn -0.646600 -0.737200 -0.196200
vn -0.980700 0.051900 -0.188700
vn 0.597900 -0.037800 -0.800700
vn -0.991600 -0.125500 0.032600
vn 0.524600 -0.132200 -0.841000
vn -0.986100 0.032200 0.163000
vn -0.157800 -0.023100 -0.987200
vn 0.576600 0.020000 -0.816700
vn 0.353400 0.066300 0.933100
vn 0.477100 0.054600 -0.877100
vn 0.494900 0.155600 0.854900
vn 0.465400 0.318400 0.825900
vn 0.986600 -0.012900 -0.162900
vn 0.158500 0.051000 0.986000
vn 0.509800 0.002100 0.860300
vn -0.995500 -0.091600 0.024200
vn 0.985800 0.142500 0.088500
vn -0.698100 -0.031000 0.715400
vn 0.990200 -0.114400 0.080400
vn -0.699200 0.116100 0.705400
vn 0.975700 0.199900 0.089600
vn -0.676400 -0.207800 0.706600
vn -0.710000 -0.012600 -0.704100
vn -0.635300 -0.200000 0.745900
vn -0.984100 -0.094200 -0.150800
vn 0.502500 -0.035900 -0.863800
vn -0.490200 0.035400 -0.870900
vn -0.494400 0.130600 -0.859300
vn -0.490100 0.033600 -0.871000
vn 0.620800 -0.106400 -0.776700
vn -0.989500 -0.101300 0.103500
vn 0.494700 0.319800 0.808100
vn 0.716900 0.005600 0.697100
vn 0.602000 0.258600 -0.755500
vn 0.340700 0.124800 0.931800
vn -0.998500 -0.052000 0.014400
usemtl NW_SEQ_NATURE_ROOFLEAVE_02
s off
f 6/1/1 4/2/1 5/3/1
f 4/2/2 6/1/2 5/3/2
f 8/1/3 7/2/3 9/3/3
f 7/2/4 8/1/4 9/3/4
f 9/3/5 10/4/5 8/1/5
f 10/4/6 9/3/6 8/1/6
f 12/1/7 11/2/7 14/3/7
f 11/2/8 12/1/8 14/3/8
f 12/1/9 13/5/9 15/4/9
f 13/5/10 12/1/10 15/4/10
f 14/3/11 15/4/11 12/1/11
f 15/4/12 14/3/12 12/1/12
f 16/6/13 5/3/13 4/2/13
f 5/3/14 16/6/14 4/2/14
f 17/5/15 8/1/15 10/4/15
f 8/1/16 17/5/16 10/4/16
f 18/6/17 9/3/17 7/2/17
f 9/3/18 18/6/18 7/2/18
f 20/5/19 19/1/19 21/4/19
f 19/1/20 20/5/20 21/4/20
f 22/6/21 14/3/21 11/2/21
f 14/3/22 22/6/22 11/2/22
f 26/3/23 30/4/23 24/1/23
f 24/1/24 23/2/24 26/3/24
f 30/4/25 26/3/25 24/1/25
f 23/2/26 24/1/26 26/3/26
f 47/3/27 28/6/27 27/2/27
f 28/6/28 47/3/28 27/2/28
f 25/5/29 24/1/29 30/4/29
f 24/1/30 25/5/30 30/4/30
f 31/6/31 26/3/31 23/2/31
f 26/3/32 31/6/32 23/2/32
f 45/4/33 5/3/33 6/1/33
f 5/3/34 45/4/34 6/1/34
f 35/6/35 54/3/35 33/2/35
f 54/3/36 35/6/36 33/2/36
f 37/6/37 41/3/37 36/2/37
f 41/3/38 37/6/38 36/2/38
f 39/5/39 38/1/39 40/4/39
f 38/1/40 39/5/40 40/4/40
f 41/3/41 21/4/41 19/1/41
f 19/1/42 36/2/42 41/3/42
f 21/4/43 41/3/43 19/1/43
f 36/2/44 19/1/44 41/3/44
f 44/6/45 79/3/45 42/2/45
f 79/3/46 44/6/46 42/2/46
f 32/5/47 6/1/47 45/4/47
f 6/1/48 32/5/48 45/4/48
f 47/3/49 59/4/49 29/1/49
f 29/1/50 27/2/50 47/3/50
f 59/4/51 47/3/51 29/1/51
f 27/2/52 29/1/52 47/3/52
f 50/6/53 62/3/53 48/2/53
f 62/3/54 50/6/54 48/2/54
f 52/3/55 40/4/55 38/1/55
f 38/1/56 51/2/56 52/3/56
f 40/4/57 52/3/57 38/1/57
f 51/2/58 38/1/58 52/3/58
f 54/3/59 58/4/59 34/1/59
f 34/1/60 33/2/60 54/3/60
f 58/4/61 54/3/61 34/1/61
f 33/2/62 34/1/62 54/3/62
f 57/6/63 65/3/63 55/2/63
f 65/3/64 57/6/64 55/2/64
f 53/5/65 34/1/65 58/4/65
f 34/1/66 53/5/66 58/4/66
f 46/5/67 29/1/67 59/4/67
f 29/1/68 46/5/68 59/4/68
f 60/5/69 49/1/69 61/4/69
f 49/1/70 60/5/70 61/4/70
f 62/3/71 61/4/71 49/1/71
f 49/1/72 48/2/72 62/3/72
f 61/4/73 62/3/73 49/1/73
f 48/2/74 49/1/74 62/3/74
f 63/5/75 56/1/75 64/4/75
f 56/1/76 63/5/76 64/4/76
f 65/3/77 64/4/77 56/1/77
f 56/1/78 55/2/78 65/3/78
f 64/4/79 65/3/79 56/1/79
f 55/2/80 56/1/80 65/3/80
f 89/3/81 67/6/81 66/2/81
f 67/6/82 89/3/82 66/2/82
f 71/6/83 84/3/83 69/2/83
f 84/3/84 71/6/84 69/2/84
f 72/6/85 52/3/85 51/2/85
f 52/3/86 72/6/86 51/2/86
f 75/6/87 81/3/87 73/2/87
f 81/3/88 75/6/88 73/2/88
f 77/5/89 43/1/89 78/4/89
f 43/1/90 77/5/90 78/4/90
f 79/3/91 78/4/91 43/1/91
f 43/1/92 42/2/92 79/3/92
f 78/4/93 79/3/93 43/1/93
f 42/2/94 43/1/94 79/3/94
f 81/3/95 82/4/95 74/1/95
f 74/1/96 73/2/96 81/3/96
f 82/4/97 81/3/97 74/1/97
f 73/2/98 74/1/98 81/3/98
f 80/5/99 74/1/99 82/4/99
f 74/1/100 80/5/100 82/4/100
f 84/3/101 83/4/101 70/1/101
f 70/1/102 69/2/102 84/3/102
f 83/4/103 84/3/103 70/1/103
f 69/2/104 70/1/104 84/3/104
f 86/5/105 85/1/105 87/4/105
f 85/1/106 86/5/106 87/4/106
f 89/3/107 93/4/107 68/1/107
f 68/1/108 66/2/108 89/3/108
f 93/4/109 89/3/109 68/1/109
f 66/2/110 68/1/110 89/3/110
f 90/5/111 70/1/111 83/4/111
f 70/1/112 90/5/112 83/4/112
f 92/3/113 87/4/113 85/1/113
f 85/1/114 91/2/114 92/3/114
f 87/4/115 92/3/115 85/1/115
f 91/2/116 85/1/116 92/3/116
f 88/5/117 68/1/117 93/4/117
f 68/1/118 88/5/118 93/4/118
f 94/6/119 92/3/119 91/2/119
f 92/3/120 94/6/120 91/2/120
f 97/6/121 100/3/121 95/2/121
f 100/3/122 97/6/122 95/2/122
f 98/5/123 96/1/123 99/4/123
f 96/1/124 98/5/124 99/4/124
f 100/3/125 99/4/125 96/1/125
f 96/1/126 95/2/126 100/3/126
f 99/4/127 100/3/127 96/1/127
f 95/2/128 96/1/128 100/3/128
usemtl NW_NATURE_BARK_01
f 3/7/129 101/8/129 117/9/129
f 3/10/130 103/11/130 102/12/130
f 106/13/131 2/14/131 111/10/131
f 111/10/132 113/11/132 103/12/132
f 105/15/133 117/9/133 101/8/133
f 101/8/134 3/7/134 104/16/134
f 102/17/135 104/16/135 3/7/135
f 117/9/136 1/18/136 102/19/136
f 111/16/137 76/11/137 103/12/137
f 106/20/138 102/18/138 103/19/138
f 103/18/139 114/20/139 106/13/139
f 104/16/140 102/11/140 1/12/140
f 1/18/141 117/9/141 105/15/141
f 103/18/142 109/9/142 106/15/142
f 106/15/143 112/7/143 111/8/143
f 109/9/144 103/18/144 76/19/144
f 112/7/145 106/15/145 109/9/145
f 76/18/146 107/20/146 109/15/146
f 109/15/147 107/14/147 112/8/147
f 76/18/148 115/9/148 109/15/148
f 109/15/149 108/7/149 112/8/149
f 116/17/150 112/8/150 108/7/150
f 108/7/151 109/15/151 115/9/151
f 117/13/152 111/14/152 3/10/152
f 103/11/153 3/10/153 111/14/153
f 76/17/154 111/8/154 112/7/154
f 112/8/155 107/11/155 76/16/155
f 112/8/156 116/17/156 76/16/156
f 113/11/157 111/10/157 2/14/157
f 2/14/158 106/13/158 114/20/158
f 114/20/159 103/18/159 113/19/159
f 115/9/160 76/18/160 110/19/160
f 110/11/161 76/16/161 116/17/161
f 102/18/162 106/20/162 117/13/162
f 111/14/163 117/13/163 106/20/163
