# Blender v2.75 (sub 0) OBJ File: 'Empty.blend'
# www.blender.org
mtllib ADDON_VALLEYPLANT_TREE_02_L_191P.mtl
o ADDON_VALLEYPLANT_TREE_02_L_191P
v -1.632388 8.347890 -4.310089
v -3.312672 8.679829 0.489959
v 3.143404 8.278394 -2.584730
v -3.734926 10.840717 -1.039891
v 4.331504 10.828515 -1.216341
v -3.694475 6.374995 -2.113431
v -0.844670 11.071795 2.301639
v 0.555602 10.509105 -5.835230
v -1.403598 6.736763 3.117972
v 1.635579 6.000554 1.564027
v 1.635579 6.026855 -2.405154
v -1.804847 6.000554 1.564027
v -1.700605 10.010136 0.309725
v -1.711612 9.827194 -2.958022
v 1.542344 10.109736 0.278977
v 0.059461 7.918353 -5.376542
v 4.386585 8.253332 -0.532515
v 2.303262 8.079965 -0.113232
v -0.924776 8.187541 1.442383
v 0.755509 7.855603 -3.357665
v -2.472530 7.963178 -1.802050
v 1.463120 8.796616 2.178774
v -1.804847 6.370070 -0.621528
v -0.597881 5.838272 0.654126
v 2.125163 6.132839 2.596839
v 2.132004 6.486928 4.606339
v -0.499790 8.482278 2.778169
v 0.173025 10.393220 -0.984421
v 0.287247 6.844128 -0.951816
v -0.461397 -0.613239 -0.339019
v -0.157736 4.957162 -0.502219
v 4.391088 6.554970 0.489122
v -0.580862 5.807055 2.615137
v 0.676084 6.172740 -5.038199
v -3.697528 8.170063 -1.736642
v 1.635579 6.370070 -0.621528
v -0.084634 6.383222 -2.606119
v -1.804847 6.026855 -2.405154
v -0.084634 6.356920 1.363063
v 0.280697 8.737110 -1.056121
v -0.090137 9.550696 -2.909393
v -0.079131 9.776093 0.350027
v 1.531339 9.763339 -2.956709
v 1.536841 9.663011 -1.285215
v -1.706109 9.663776 -1.274152
v 0.788932 6.327046 2.012949
v -0.237673 4.677437 -0.231814
v 0.574666 5.893832 0.624578
v 0.469998 7.452694 2.278810
v 0.808333 6.661173 4.506615
v 1.321782 5.349674 4.855344
v 0.789169 5.938732 4.566999
v 0.256636 6.932715 0.399734
v 0.983448 6.141195 2.627539
v 1.350457 5.250040 2.317873
v 1.350457 6.854364 1.733835
v -0.052636 5.250040 2.317873
v 0.761973 6.355254 2.654478
v 0.719942 4.829696 2.976268
v 0.755132 6.001164 0.644977
v 0.381607 5.621216 0.748463
v -0.052636 6.146292 2.247347
v 1.350457 6.146292 2.247347
v 0.648911 6.948454 1.955329
v -0.052636 6.854364 1.733835
v 0.648911 5.344130 2.539367
v 0.370440 6.231838 1.413379
v 0.107613 -0.607247 -0.008809
v -0.084634 8.249441 -1.002339
v 0.238649 6.955047 0.782911
v 0.272129 5.588813 0.303439
v 0.467859 6.505619 0.466584
v -0.042856 2.458135 -0.169842
v -0.457585 -0.600924 0.314700
v -0.084634 6.816148 -0.721199
v 0.142123 4.719781 -0.271650
v -0.084634 7.150146 -1.061432
v 0.648911 6.352252 2.732191
v 0.107851 5.526409 0.313837
v -0.039372 4.961706 -0.290153
v 0.350122 5.926362 0.422791
v -0.381387 2.452855 -0.412042
v -0.160070 4.985839 -0.136085
v 0.185398 5.430168 0.191861
v 0.146024 5.624003 0.435192
v 0.364115 6.037354 1.257597
v 0.198810 5.839029 0.152165
v 0.114653 6.873843 -0.853354
v 0.300452 6.956847 0.781970
v 0.116161 6.838860 -1.048069
v 0.130214 5.870072 0.260743
v 0.422650 6.503489 0.398926
v 0.267398 6.954568 0.737228
v 0.163022 4.960530 -0.321604
v 0.318933 5.845305 0.692854
v 0.178297 5.591801 0.183073
v 0.429453 6.110851 1.554476
v 0.572886 6.107911 1.165790
v 0.578323 6.342627 1.733566
v 0.376018 6.508800 0.467695
v 0.266868 5.864221 0.260848
v 0.801903 6.306643 1.739756
v 0.120162 8.741715 -1.149490
v 0.304834 6.145896 0.233349
v 0.356044 6.154055 0.323461
v -0.385080 2.461982 0.065330
v 0.422614 5.644237 0.382673
v 0.317112 6.159191 1.120713
v 0.617446 6.184637 1.441945
v 0.624587 6.228117 1.851594
v 0.116546 8.731498 -0.964320
v -0.529696 6.958869 2.971072
v -0.452734 6.847322 2.396513
v -0.544645 6.789266 2.373659
v -0.980557 7.147786 3.800445
v -1.043458 7.138836 3.771257
v -0.712536 6.988155 3.260997
v -0.285327 6.752661 2.125700
v 0.078484 6.556516 1.766548
v -0.403791 6.717061 2.047855
v 0.850407 6.335066 1.994497
vt 1.000000 -0.000000
vt 1.000000 -0.500000
vt 0.500000 -0.000000
vt 0.500000 -0.500000
vt 0.500000 -1.000000
vt 0.000000 -0.500000
vt 1.000000 -1.000000
vt 0.000000 -0.000000
vt 0.000000 -1.000000
vt 0.004279 -0.578418
vt 0.000499 -0.000499
vt 0.999012 -0.578419
vt 0.993057 -0.000499
vt 0.004589 -0.999500
vt 0.999501 -0.999500
vt 0.500000 0.029279
vt 0.509760 -0.448761
vt -0.021959 -0.497560
vt 1.000000 0.029279
vt -0.021959 -0.997560
vt 0.497560 -1.034159
vt 0.997560 -0.634197
vt 0.373889 -0.569702
vt 0.653217 -0.568049
vt 0.644960 -0.032150
vt 0.346783 -0.571354
vt 0.626111 -0.569702
vt 0.609598 -0.033982
vt 0.588883 -2.177699
vt 0.761472 -1.642977
vt 0.374636 -1.640947
vt 0.319676 -2.178937
vt 0.663384 -1.641962
vt 0.328147 -1.642977
vt 0.390402 -0.033982
vt 0.355040 -0.035813
vt 0.666667 -1.000000
vt 1.000000 -0.770466
vt 0.666667 -0.789110
vt 0.333333 -1.000000
vt 0.333333 -0.789110
vt 1.000000 -0.454305
vt 0.333333 -0.454305
vt 0.333333 -0.353994
vt 0.666667 -0.454305
vt 1.000000 -0.353994
vt 0.319676 -2.178318
vt 0.680324 -2.177699
vt 0.671853 -1.640947
vt 1.005179 -2.178937
vt 1.000000 -0.743415
vt 0.333333 -0.536210
vt 1.000000 -0.299854
vt 0.666667 -0.536210
vt 0.666667 -0.299854
vt 0.336616 -1.641962
vt 0.662499 -1.104349
vt 0.355324 -1.105725
vt 0.680324 -2.178318
vt 0.333333 -0.743415
vt 0.000000 -0.680204
vt 0.333333 -0.698848
vt 0.333333 -0.544568
vt 0.540449 -1.107100
vt 0.186219 -1.104349
vt 0.337500 -1.107100
vt 0.644676 -1.105725
vt 0.666667 -0.743415
vt 0.666667 -0.680204
vt 1.000000 -0.544568
vt 0.666667 -0.544568
vt 0.666667 -0.353994
vt 0.375334 -0.571354
vt 0.053310 -0.568049
vt 0.288227 -0.035813
vt 0.333333 -0.299854
vt 0.333333 -0.000000
vt 0.666667 -0.000000
vt 1.000000 -0.680204
vt 0.000000 -0.770466
vt 0.000000 -0.544568
vt 0.000000 -0.353994
vt 0.333333 -0.301635
vt -0.005180 -0.032150
vt 0.560107 1.178936
vt 0.402954 0.442165
vt 0.638684 0.444090
vt 0.000000 -0.454305
vt 0.666667 -0.301635
vt 1.000000 -0.301635
vt 0.307537 1.178936
vt 0.018527 0.444090
vt 0.290183 0.440241
vt 0.439893 1.178936
vt 0.361316 0.440241
vt 0.597046 0.442165
vt 0.666667 -0.514520
vt 1.000000 -0.514520
vt 1.000000 -0.313330
vt 0.666667 -0.201032
vt 0.000000 -0.800093
vt 0.333333 -0.626819
vt 1.000000 -0.626819
vt 0.000000 -0.301635
vn -0.124500 -0.973600 -0.191100
vn 0.124500 0.973600 0.191100
vn 0.181700 0.969600 0.163900
vn -0.181700 -0.969600 -0.163900
vn 0.527500 -0.701100 -0.479900
vn -0.527500 0.701100 0.479900
vn -0.495300 0.850400 0.177500
vn 0.495300 -0.850400 -0.177500
vn -0.231500 -0.877600 -0.419800
vn 0.231500 0.877600 0.419800
vn -0.179900 0.983500 0.017800
vn 0.179900 -0.983500 -0.017800
vn 0.272000 0.942300 -0.194900
vn -0.272000 -0.942300 0.194900
vn -0.132700 0.931100 -0.339800
vn 0.132700 -0.931100 0.339800
vn 0.331600 -0.896700 -0.293400
vn -0.331600 0.896700 0.293400
vn -0.331600 -0.896700 -0.293400
vn 0.331600 0.896700 0.293400
vn -0.220000 -0.957900 0.184300
vn 0.220000 0.957900 -0.184300
vn 0.220000 -0.957900 0.184300
vn -0.220000 0.957900 -0.184300
vn 0.181700 -0.969600 -0.163900
vn -0.181700 0.969600 0.163900
vn 0.164600 0.981800 0.094700
vn -0.164600 -0.981800 -0.094700
vn -0.531200 -0.700600 -0.476500
vn 0.531200 0.700600 0.476500
vn -0.128100 0.990000 0.059800
vn 0.128100 -0.990000 -0.059800
vn -0.205400 0.941200 -0.268100
vn 0.205400 -0.941200 0.268100
vn 0.144800 0.966500 -0.211900
vn -0.144800 -0.966500 0.211900
vn 0.309300 0.074600 0.948000
vn -0.309300 -0.074600 -0.948000
vn 0.529200 0.159400 -0.833400
vn -0.529200 -0.159400 0.833400
vn -0.529200 0.159400 -0.833400
vn 0.529200 -0.159400 0.833400
vn -0.317100 -0.556800 -0.767800
vn 0.317100 0.556800 0.767800
vn 0.317100 -0.556800 -0.767800
vn -0.317100 0.556800 0.767800
vn 0.309300 -0.074600 -0.948000
vn -0.309300 0.074600 0.948000
vn -0.578700 0.541900 -0.609400
vn 0.575000 0.541300 -0.613400
vn 0.578700 -0.541900 0.609400
vn -0.575000 -0.541300 0.613400
vn -0.257100 0.768000 -0.586600
vn 0.520700 0.797900 -0.303600
vn 0.257100 -0.768000 0.586600
vn -0.520700 -0.797900 0.303600
vn 0.461300 -0.794700 0.394600
vn -0.461300 -0.794700 0.394600
vn -0.461300 0.794700 -0.394600
vn 0.461300 0.794700 -0.394600
vn 0.547100 -0.664000 -0.509600
vn -0.547100 -0.664000 -0.509600
vn -0.547100 0.664000 0.509600
vn 0.547100 0.664000 0.509600
vn 0.140000 0.251800 -0.957600
vn -0.140000 -0.251800 0.957600
vn -0.988100 -0.142300 -0.057900
vn 0.988100 0.142300 0.057900
vn 0.971800 -0.154600 0.177900
vn -0.971800 0.154600 -0.177900
vn 0.021500 0.257000 0.966200
vn -0.021500 -0.257000 -0.966200
vn 0.878500 -0.405800 0.252100
vn -0.878500 0.405800 -0.252100
vn -0.131800 0.510700 0.849600
vn 0.131800 -0.510700 -0.849600
vn 0.939600 0.339800 0.040900
vn -0.939600 -0.339800 -0.040900
vn -0.296400 -0.196700 0.934600
vn 0.296400 0.196700 -0.934600
vn 0.375200 -0.904600 -0.202300
vn -0.375200 0.904600 0.202300
vn -0.378300 0.925500 0.018000
vn 0.378300 -0.925500 -0.018000
vn 0.932300 0.361500 -0.013200
vn -0.932300 -0.361500 0.013200
vn 0.932300 0.361500 -0.013100
vn 0.930100 0.313000 -0.192200
vn -0.932300 -0.361500 0.013100
vn -0.930100 -0.313000 0.192200
vn 0.151500 0.973400 -0.172000
vn -0.151500 -0.973400 0.172000
vn 0.940000 -0.250500 -0.231700
vn -0.940000 0.250500 0.231700
vn -0.118900 0.977900 -0.171900
vn 0.118900 -0.977900 0.171900
vn 0.951600 0.009000 -0.307300
vn -0.951600 -0.009000 0.307300
vn 0.490900 -0.047400 -0.869900
vn 0.501300 0.049300 0.863900
vn -0.999600 0.025900 -0.008200
vn 0.565900 0.053600 0.822700
vn 0.501200 -0.045900 -0.864100
vn 0.486100 0.051600 0.872400
vn 0.190200 -0.615900 0.764500
vn -0.885700 0.432600 -0.168600
vn 0.217400 0.870100 -0.442200
vn 0.419300 -0.901200 0.109500
vn 0.501900 -0.033700 -0.864300
vn -0.999700 0.024100 0.005400
vn 0.225700 -0.377800 0.898000
vn -0.711100 0.474500 -0.518800
vn 0.581900 -0.014100 -0.813100
vn 0.489300 -0.092800 -0.867200
vn 0.496100 0.069800 0.865400
vn 0.149400 -0.601000 0.785100
vn -0.815900 0.515400 -0.262000
vn -0.009700 -0.208300 0.978000
vn 0.864100 -0.163000 -0.476300
vn 0.561300 0.364200 -0.743200
vn 0.377000 0.883800 -0.277000
vn 0.538100 0.372100 -0.756300
vn 0.580800 -0.081000 -0.810000
vn -0.996000 0.088500 -0.013300
vn 0.511900 0.239000 0.825100
vn 0.566400 0.003400 0.824100
vn -0.691600 0.449400 -0.565400
vn 0.411000 -0.872600 0.263900
vn -0.956200 0.292000 -0.022800
vn -0.951100 -0.303700 0.056300
vn -0.853000 0.162500 0.496100
vn 0.838800 -0.079800 -0.538500
vn -0.848200 -0.023600 -0.529100
vn -0.990300 0.137600 -0.017100
vn -1.000000 0.000600 -0.007800
vn -0.010000 -0.575400 0.817800
vn -0.840900 0.108300 -0.530300
vn 0.469200 -0.308300 -0.827500
vn -0.990300 0.134900 -0.031900
vn 0.005800 0.152300 0.988300
vn -0.852500 -0.025200 -0.522100
vn 0.870200 -0.060200 -0.489100
vn 0.669200 0.579300 -0.465400
vn 0.637100 0.586200 -0.500500
vn 0.473800 -0.307400 -0.825300
vn 0.497100 0.245700 0.832200
vn -0.664300 0.726000 -0.177800
vn 0.289100 -0.813500 0.504700
vn 0.577300 0.258500 -0.774500
vn -0.897300 0.440400 0.028600
vn -0.965500 -0.104600 0.238400
vn 0.427600 -0.895000 0.127500
vn 0.243600 0.902200 -0.356000
vn 0.265000 -0.896400 0.355400
vn 0.153800 0.877300 -0.454700
vn -0.852300 0.166600 0.495700
vn 0.029100 -0.570700 0.820600
vn -0.813300 0.147200 -0.562900
vn 0.004500 0.152900 0.988200
vn 0.852400 -0.064000 -0.519000
vn 0.438500 -0.896300 0.065800
vn 0.160300 0.984900 -0.065900
vn -0.999800 0.001100 -0.019500
vn 0.503000 0.070000 -0.861400
vn 0.852700 -0.163400 -0.496100
vn -0.859000 0.385800 -0.336600
vn -0.001800 -0.376600 0.926400
vn 0.831400 -0.038800 -0.554300
vn -0.996100 0.088100 -0.009400
vn 0.499200 0.024600 0.866100
vn 0.664900 0.269900 -0.696400
vn 0.177500 -0.738500 0.650400
vn 0.235300 0.932400 -0.274300
vn -0.953100 -0.203400 0.224200
vn 0.212100 0.932200 -0.293200
vn 0.387700 -0.902400 0.188200
vn -0.754100 0.298400 0.585100
vn 0.449100 -0.889200 0.087700
vn -0.999300 0.033800 -0.017700
vn 0.488300 -0.006000 0.872700
vn 0.478600 -0.847700 0.228700
vn -0.028400 0.971200 -0.236600
vn 0.714100 -0.490200 0.499800
vn 0.031200 0.890200 -0.454600
vn -0.152800 0.985000 -0.080800
usemtl NW_SEQ_NATURE_PINE_03
s off
f 1/1/1 20/2/1 21/3/1
f 20/2/2 1/1/2 21/3/2
f 10/1/3 36/2/3 39/3/3
f 36/2/4 10/1/4 39/3/4
f 69/4/5 41/5/5 44/6/5
f 41/5/6 69/4/6 44/6/6
f 75/4/7 18/5/7 20/2/7
f 18/5/8 75/4/8 20/2/8
f 75/4/9 21/3/9 20/2/9
f 21/3/10 75/4/10 20/2/10
f 3/7/11 20/2/11 18/5/11
f 20/2/12 3/7/12 18/5/12
f 19/6/13 21/3/13 2/8/13
f 21/3/14 19/6/14 2/8/14
f 19/6/15 22/9/15 18/5/15
f 22/9/16 19/6/16 18/5/16
f 39/3/17 23/6/17 77/4/17
f 23/6/18 39/3/18 77/4/18
f 39/3/19 77/4/19 36/2/19
f 77/4/20 39/3/20 36/2/20
f 11/7/21 36/2/21 37/5/21
f 36/2/22 11/7/22 37/5/22
f 23/6/23 38/9/23 37/5/23
f 38/9/24 23/6/24 37/5/24
f 23/6/25 39/3/25 12/8/25
f 39/3/26 23/6/26 12/8/26
f 14/7/27 45/2/27 41/5/27
f 45/2/28 14/7/28 41/5/28
f 41/5/29 69/4/29 45/2/29
f 69/4/30 41/5/30 45/2/30
f 44/6/31 43/9/31 41/5/31
f 43/9/32 44/6/32 41/5/32
f 44/6/33 42/3/33 15/8/33
f 42/3/34 44/6/34 15/8/34
f 45/2/35 13/1/35 42/3/35
f 13/1/36 45/2/36 42/3/36
f 55/1/37 63/2/37 66/3/37
f 63/2/38 55/1/38 66/3/38
f 66/3/39 62/6/39 78/4/39
f 62/6/40 66/3/40 78/4/40
f 66/3/41 78/4/41 63/2/41
f 78/4/42 66/3/42 63/2/42
f 56/7/43 63/2/43 64/5/43
f 63/2/44 56/7/44 64/5/44
f 62/6/45 65/9/45 64/5/45
f 65/9/46 62/6/46 64/5/46
f 62/6/47 66/3/47 57/8/47
f 66/3/48 62/6/48 57/8/48
f 42/3/49 44/6/49 69/4/49
f 42/3/50 69/4/50 45/2/50
f 44/6/51 42/3/51 69/4/51
f 69/4/52 42/3/52 45/2/52
f 18/5/53 75/4/53 19/6/53
f 21/3/54 19/6/54 75/4/54
f 75/4/55 18/5/55 19/6/55
f 19/6/56 21/3/56 75/4/56
f 37/5/57 77/4/57 23/6/57
f 77/4/58 37/5/58 36/2/58
f 77/4/59 37/5/59 23/6/59
f 37/5/60 77/4/60 36/2/60
f 64/5/61 78/4/61 62/6/61
f 78/4/62 64/5/62 63/2/62
f 78/4/63 64/5/63 62/6/63
f 64/5/64 78/4/64 63/2/64
usemtl NW_SEQ_NATURE_PINE_02
f 35/10/65 4/11/65 17/12/65
f 4/11/66 35/10/66 17/12/66
f 27/10/67 7/11/67 16/12/67
f 7/11/68 27/10/68 16/12/68
f 16/12/69 8/13/69 7/11/69
f 8/13/70 16/12/70 7/11/70
f 17/12/71 5/13/71 4/11/71
f 5/13/72 17/12/72 4/11/72
f 27/10/73 9/14/73 34/15/73
f 9/14/74 27/10/74 34/15/74
f 32/15/75 17/12/75 35/10/75
f 17/12/76 32/15/76 35/10/76
f 34/15/77 16/12/77 27/10/77
f 16/12/78 34/15/78 27/10/78
f 35/10/79 6/14/79 32/15/79
f 6/14/80 35/10/80 32/15/80
usemtl NW_SEQ_NATURE_PINE_01
f 33/16/81 58/17/81 52/18/81
f 58/17/82 33/16/82 52/18/82
f 33/16/83 58/17/83 24/19/83
f 58/17/84 33/16/84 24/19/84
f 50/18/85 51/20/85 54/17/85
f 51/20/86 50/18/86 54/17/86
f 52/18/82 26/20/82 58/17/82
f 26/20/81 52/18/81 58/17/81
f 54/17/87 49/16/87 50/18/87
f 49/16/88 54/17/88 53/19/88
f 49/16/89 54/17/89 50/18/89
f 54/17/90 49/16/90 53/19/90
f 25/21/91 58/17/91 26/20/91
f 58/17/91 25/21/91 60/22/91
f 58/17/92 25/21/92 26/20/92
f 25/21/92 58/17/92 60/22/92
f 59/21/93 54/17/93 51/20/93
f 54/17/93 59/21/93 61/22/93
f 54/17/94 59/21/94 51/20/94
f 59/21/94 54/17/94 61/22/94
f 60/22/95 24/19/95 58/17/95
f 24/19/96 60/22/96 58/17/96
f 61/22/97 53/19/97 54/17/97
f 53/19/98 61/22/98 54/17/98
usemtl NW_NATURE_BARK_04
f 29/23/99 90/24/99 103/25/99
f 88/26/100 29/27/100 40/28/100
f 30/29/101 106/30/101 82/31/101
f 74/32/102 73/33/102 106/34/102
f 29/23/103 103/25/103 40/35/103
f 88/26/104 40/28/104 111/36/104
f 47/37/105 107/38/105 85/39/105
f 80/40/106 85/39/106 96/41/106
f 109/42/107 67/43/107 99/44/107
f 97/45/108 109/42/108 102/46/108
f 68/47/109 30/48/109 82/49/109
f 30/29/110 74/50/110 106/30/110
f 91/51/111 105/52/111 100/53/111
f 104/54/112 100/53/112 92/55/112
f 68/47/113 82/49/113 73/56/113
f 73/56/114 31/57/114 94/58/114
f 74/32/115 68/59/115 73/33/115
f 47/37/116 76/7/116 107/38/116
f 80/40/117 47/37/117 85/39/117
f 91/51/118 101/60/118 105/52/118
f 101/60/119 104/54/119 105/52/119
f 76/9/120 80/40/120 96/41/120
f 48/61/121 81/62/121 108/63/121
f 76/9/122 96/41/122 107/38/122
f 73/56/123 82/49/123 31/57/123
f 82/31/124 83/64/124 31/65/124
f 83/66/125 29/27/125 88/26/125
f 106/34/126 73/33/126 94/67/126
f 87/68/127 91/51/127 100/53/127
f 95/69/128 98/70/128 86/71/128
f 81/62/129 95/69/129 86/71/129
f 81/62/130 86/71/130 108/63/130
f 67/43/131 97/45/131 110/72/131
f 71/40/132 84/37/132 87/68/132
f 84/37/133 91/51/133 87/68/133
f 31/65/134 83/64/134 88/73/134
f 90/74/135 88/73/135 111/75/135
f 100/53/136 72/76/136 89/77/136
f 92/55/137 70/1/137 93/78/137
f 94/58/138 31/57/138 90/24/138
f 31/65/139 88/73/139 90/74/139
f 79/9/140 101/60/140 91/51/140
f 84/37/141 79/7/141 91/51/141
f 105/52/142 104/54/142 92/55/142
f 72/76/143 92/55/143 93/78/143
f 72/76/144 93/78/144 89/77/144
f 94/58/145 90/24/145 29/23/145
f 83/66/146 94/67/146 29/27/146
f 96/41/147 85/39/147 95/69/147
f 85/39/148 48/79/148 95/69/148
f 107/80/149 96/41/149 81/62/149
f 96/41/150 95/69/150 81/62/150
f 108/63/151 86/71/151 97/45/151
f 86/71/152 109/42/152 97/45/152
f 48/61/153 108/63/153 98/81/153
f 95/69/154 48/79/154 98/70/154
f 109/42/155 99/44/155 102/82/155
f 67/43/156 110/72/156 99/44/156
f 100/53/157 89/77/157 70/8/157
f 92/55/158 100/53/158 70/1/158
f 79/9/159 71/40/159 101/60/159
f 71/40/160 87/68/160 101/60/160
f 97/45/161 102/46/161 110/72/161
f 102/46/162 99/44/162 46/83/162
f 90/74/163 111/75/163 103/84/163
f 28/85/164 40/86/164 103/87/164
f 101/60/165 87/68/165 104/54/165
f 87/68/166 100/53/166 104/54/166
f 100/53/167 105/52/167 72/76/167
f 105/52/168 92/55/168 72/76/168
f 82/31/169 106/30/169 83/64/169
f 106/34/170 94/67/170 83/66/170
f 107/80/171 81/62/171 48/79/171
f 85/39/172 107/38/172 48/79/172
f 98/70/173 108/63/173 67/43/173
f 108/63/174 97/45/174 67/43/174
f 98/70/175 67/43/175 109/88/175
f 86/71/176 98/70/176 109/42/176
f 99/44/177 110/72/177 46/89/177
f 110/72/178 102/46/178 46/90/178
f 28/91/179 103/92/179 111/93/179
f 28/94/180 111/95/180 40/96/180
f 114/97/181 113/98/181 112/99/181
f 112/99/182 116/77/182 115/8/182
f 117/100/183 112/99/183 115/1/183
f 119/101/184 120/102/184 118/103/184
f 102/46/185 46/83/185 121/104/185
