# Blender v2.75 (sub 0) OBJ File: 'Empty.blend'
# www.blender.org
mtllib ADDON_PLANTS_PALM_LONG_STRAIGHT_01_200P.mtl
o ADDON_PLANTS_PALM_LONG_STRAIGHT_01_200P
v 4.116524 8.420885 0.241236
v -2.405868 8.145465 -2.094803
v -2.387811 8.146170 2.235926
v 1.644233 5.136143 -3.475313
v -3.672940 5.205145 1.982655
v -1.719881 4.934556 -3.177588
v 1.931783 9.062748 -1.991079
v 1.942434 8.147652 2.348724
v 1.519626 4.898818 3.506137
v -1.893997 5.174173 3.825441
v 1.887968 7.065291 -1.913639
v 3.422085 5.130278 -1.677077
v -2.117143 7.086172 2.217653
v -3.347430 4.962101 -1.527506
v 2.904182 4.772833 1.694986
v -2.125812 6.767494 0.142925
v 1.901530 6.753253 0.142691
v -0.110656 6.784259 2.229450
v -0.110725 6.784259 -1.926248
v -0.110871 6.866851 0.139908
v 1.765159 7.217693 2.082459
v 3.543936 5.298265 0.143400
v -3.788037 5.374855 0.144090
v -0.110540 5.309069 3.936208
v -1.305069 8.875566 3.361637
v -0.110668 5.309070 -3.590055
v -3.514914 5.043649 3.661194
v 0.869567 8.849250 3.418693
v -1.335056 8.833335 -3.164428
v -3.489305 8.622662 1.129085
v -1.297732 7.841627 -0.966937
v 0.838033 7.849573 1.215736
v -3.499000 8.600896 -1.045927
v -0.242160 8.671545 -2.038404
v 3.020506 8.515075 -0.873959
v -1.289871 7.851988 1.160952
v 0.842529 8.679963 -0.925367
v -0.212752 8.624675 4.477846
v -0.222397 8.696582 2.294409
v 0.839483 8.845412 -3.107103
v -2.394221 8.480829 0.069587
v 1.924936 8.403802 0.182557
v 3.032861 8.585396 1.299829
v 2.947103 4.732541 3.300501
v -0.382240 -3.770165 0.362228
v -0.020231 5.406178 0.207782
v 0.888926 -3.770165 -0.050649
v -0.240637 7.141338 0.067916
v -0.076925 4.861813 -0.048889
v 0.050474 6.247033 0.453491
v -0.512208 6.247033 -0.307237
v -0.222033 6.443750 0.113651
v -0.382286 -3.770165 -0.463512
v -1.975734 7.249775 -1.776210
v -0.292116 5.406178 -0.175628
v 0.006418 -0.017832 -0.222770
v -0.314993 2.584070 0.181236
v -0.031144 -0.017832 0.250778
v 0.403208 -3.770165 0.617628
v 0.403244 -3.770165 -0.718968
v 0.008660 5.535649 -0.434701
v 0.136775 5.406178 -0.044624
v 0.313487 5.535649 -0.022879
v -0.462255 5.535649 0.257711
v -0.302163 5.406178 0.111361
v -0.334489 -1.248864 -0.196250
v -0.300686 2.584070 -0.081300
v -0.006821 5.406178 -0.256569
v -0.118569 7.141338 -0.193859
v 0.047502 7.141338 0.044107
v 0.304632 -1.248864 0.011323
v 0.424733 -2.539132 -0.057231
v -0.080583 2.584070 0.231079
v 0.152426 3.815102 0.039263
v -0.020185 3.815102 0.300561
v -0.029350 5.535649 0.349903
v -0.435844 5.535649 -0.227210
v -0.060030 2.584070 -0.193509
v -0.376749 -0.017832 0.170771
v 0.349315 6.247033 0.001077
v -0.498628 6.247033 0.252178
v 0.121829 -2.539132 0.376481
v 0.018878 6.247033 -0.451675
v -0.345200 3.815102 -0.138814
v 0.173325 -2.539132 -0.428550
v 0.060430 -1.248864 0.347310
v -0.317457 -2.539132 -0.257297
v 0.189798 -0.017832 -0.004347
v -0.351984 -2.539132 0.240470
v -0.334466 -1.248864 0.218903
v -0.337405 3.815102 0.184348
v 0.104895 2.584070 0.029314
v -0.351564 -0.017832 -0.122033
v 0.060448 -1.248864 -0.324684
v -0.038409 3.815102 -0.222240
v -0.073181 5.787680 -3.776461
v -0.073181 5.787680 3.874652
v -0.398340 10.326489 -3.912923
v -0.398340 10.326489 3.997704
v 3.796447 5.787680 0.035021
v -3.988066 10.326489 -0.014828
v 3.920043 10.326489 -0.014828
v 3.797119 5.787680 0.035021
v -3.854932 5.787680 0.035021
v -3.854805 5.787680 0.035021
v -0.073180 5.787680 3.874392
v -0.073180 5.787680 -3.776186
v -0.398339 10.326489 3.997704
v -0.398339 10.326489 -3.912923
vt 0.323029 -0.807758
vt 1.202288 -0.807758
vt 1.202140 -0.500000
vt -0.181501 -0.807758
vt 0.786029 -0.807758
vt 0.650475 -0.500000
vt -0.460956 -0.807758
vt 0.310992 -0.807758
vt 0.359731 -0.500000
vt 0.324604 -0.192242
vt 1.065843 -0.192242
vt 0.988124 0.115516
vt 0.279006 -0.500000
vt 0.216470 -0.807758
vt 1.265301 -0.500000
vt 0.407413 -0.192242
vt 1.114145 0.115516
vt 0.324561 0.115516
vt 0.323150 0.115516
vt 1.223412 -0.192242
vt -0.237940 -0.500000
vt 0.933801 -0.500000
vt 1.050927 -0.807758
vt 0.390952 -0.500000
vt -0.157431 -0.192242
vt 0.677699 0.115516
vt -0.081898 0.115516
vt -0.413774 -0.192242
vt -0.328082 0.115516
vt -0.339680 -0.500000
vt 0.260490 -0.192242
vt 1.137174 -0.192242
vt 1.070027 0.115516
vt 0.012251 -1.115516
vt 1.533951 -1.115516
vt -0.195826 -1.115516
vt 0.352918 0.115516
vt 0.626000 -0.192242
vt 0.475940 -1.115516
vt 1.751237 -1.115516
vt 1.423035 -1.115516
vt -0.475470 -1.115516
vt 1.082039 -1.115516
vt -0.867384 -1.115516
vt 0.749750 -0.500000
vt 0.500000 -0.749750
vt 0.500000 -0.500000
vt 0.500000 -0.999500
vt 0.749750 -0.749750
vt 0.500000 -0.000500
vt 0.250250 -0.250250
vt 0.500000 -0.250250
vt 0.250250 -0.500000
vt 0.000500 -0.500000
vt 0.000500 -0.749750
vt 0.999500 -0.500000
vt 0.999500 -0.250250
vt 0.250250 -0.999500
vt 0.749750 -0.999500
vt 0.999500 -0.749750
vt 0.250250 -0.000500
vt 0.000500 -0.250250
vt 0.250250 -0.749750
vt 0.749750 -0.000500
vt 0.749750 -0.250250
vt 0.000500 -0.999500
vt 0.000500 -0.000500
vt -0.000819 -0.205333
vt 0.658368 -0.205333
vt 0.308895 0.868264
vt -0.043317 -0.205333
vt 0.499797 -0.205333
vt 0.448140 0.868264
vt 0.379562 -0.205333
vt 1.017121 -0.205333
vt 0.544565 0.868264
vt 0.130079 -0.205333
vt 0.801645 -0.205333
vt 0.580442 0.868264
vt 0.494572 -1.868262
vt 0.925447 -1.059335
vt 0.391829 -1.059335
vt 1.043317 -0.205333
vt 0.733813 0.868264
vt 0.559780 -1.868262
vt 1.022939 -1.059335
vt 0.528555 -1.059335
vt 0.081037 -1.059335
vt 0.440220 -1.868262
vt 0.808288 -1.059335
vt 0.226150 -1.059335
vt 0.505428 -1.868262
vt 0.562541 -1.059335
vt 0.042847 -1.059335
vt 0.266187 0.868264
vt 0.654800 0.868264
vt 0.308895 -0.580442
vt 0.654800 -0.551860
vt 0.455435 -0.266187
vt 0.999500 -0.999501
vt 0.999500 -0.000500
vn 0.822400 0.116800 -0.556800
vn 0.755800 0.016200 0.654600
vn -0.997500 0.012400 -0.069200
vn -0.343500 0.054700 0.937600
vn 0.803300 0.033900 -0.594600
vn -0.270800 0.020400 -0.962400
vn -0.272900 -0.015300 -0.961900
vn -0.323200 0.050500 0.945000
vn -0.262400 -0.013600 -0.964900
vn 0.807800 0.051700 0.587100
vn -0.309200 0.020100 0.950800
vn -0.275900 0.008600 0.961100
vn -0.308900 0.049400 -0.949800
vn 0.848700 0.030800 0.527900
vn -0.998900 0.032500 -0.035000
vn -0.329200 0.040300 -0.943400
vn -0.999900 -0.013200 0.000100
vn -0.998300 0.020400 -0.054400
vn -0.999400 0.023200 0.024100
vn 0.807400 -0.028700 -0.589200
vn 0.773000 0.294500 0.561900
vn 0.791100 0.295400 -0.535600
vn 0.804400 0.105900 -0.584600
vn 0.819000 0.045800 0.572000
vn -0.225500 0.003100 0.974200
vn 0.736100 0.019100 0.676600
vn 0.827700 -0.021400 -0.560800
vn 0.833800 0.037200 0.550800
vn -0.207800 -0.045000 0.977100
vn 0.832200 -0.071900 0.549800
vn 0.765600 0.026800 -0.642800
vn -0.422600 -0.000600 -0.906300
vn -0.996000 0.024000 -0.085700
vn -0.208000 0.001000 0.978100
vn -0.307200 0.114800 0.944700
vn 0.785400 0.287000 0.548500
vn -0.421900 -0.057500 -0.904800
vn -0.999100 -0.035000 0.024100
vn 0.777000 0.278300 -0.564700
vn -0.325300 0.159200 -0.932100
vn -0.308800 0.051500 0.949700
vn 0.751600 0.107000 0.650900
vn -0.304600 0.172900 -0.936600
vn -0.995600 0.064000 -0.069100
vn 0.764300 0.063100 -0.641700
vn 0.806100 0.082700 0.585900
vn -0.999700 0.024600 0.000100
vn -0.274500 0.101300 0.956200
vn -0.999400 -0.034300 0.000100
vn -0.225400 0.030300 0.973800
vn -0.998400 -0.018000 -0.054400
vn -0.344000 -0.008600 0.938900
vn 0.807500 -0.026400 -0.589300
vn 0.735800 -0.033900 0.676400
vn -0.308800 0.053000 -0.949600
vn -0.996300 -0.008700 -0.085700
vn 0.806100 0.083900 -0.585800
vn -0.270300 0.067600 -0.960400
vn 0.803500 -0.028000 -0.594700
vn -0.262400 -0.017900 -0.964800
vn 0.794700 0.607000 -0.005900
vn -0.794700 -0.607000 0.005900
vn 0.635700 -0.758900 -0.141000
vn -0.635700 0.758900 0.141000
vn 0.052600 -0.955700 -0.289600
vn -0.052600 0.955700 0.289600
vn -0.130800 0.924400 0.358200
vn 0.130800 -0.924400 -0.358200
vn 0.097400 -0.753000 -0.650800
vn -0.097400 0.753000 0.650800
vn 0.116300 0.743200 -0.658900
vn -0.116300 -0.743200 0.658900
vn 0.657400 0.742000 -0.131400
vn -0.657400 -0.742000 0.131400
vn -0.638200 0.761900 0.110300
vn 0.638200 -0.761900 -0.110300
vn 0.669500 -0.329100 0.665900
vn -0.669500 0.329100 -0.665900
vn -0.774000 -0.269800 -0.572900
vn 0.774000 0.269800 0.572900
vn 0.761200 -0.641500 0.095400
vn 0.048900 -0.987300 0.151400
vn -0.761200 0.641500 -0.095400
vn -0.048900 0.987300 -0.151400
vn -0.775100 -0.625500 -0.089800
vn 0.775100 0.625500 0.089800
vn -0.049300 0.998000 -0.039900
vn 0.049300 -0.998000 0.039900
vn -0.092900 -0.647100 -0.756700
vn -0.148500 -0.988100 -0.039000
vn 0.092900 0.647100 0.756700
vn 0.148500 0.988100 0.039000
vn 0.084200 -0.633400 0.769300
vn 0.138900 -0.989500 0.039600
vn -0.084200 0.633400 -0.769300
vn -0.138900 0.989500 -0.039600
vn -0.056300 -0.997600 -0.039400
vn -0.055500 -0.987200 -0.149400
vn 0.056300 0.997600 0.039400
vn 0.055500 0.987200 0.149400
vn 0.236400 -0.941100 0.241900
vn 0.122600 -0.750900 -0.649000
vn -0.236400 0.941100 -0.241900
vn -0.122600 0.750900 0.649000
vn -0.658900 -0.743700 0.112700
vn 0.658900 0.743700 -0.112700
vn 0.824800 -0.458600 0.330700
vn -0.824800 0.458600 -0.330700
vn -0.333600 -0.467300 -0.818700
vn 0.333600 0.467300 0.818700
vn 0.207900 0.680300 -0.702800
vn -0.207900 -0.680300 0.702800
vn 0.319800 -0.464500 0.825800
vn -0.319800 0.464500 -0.825800
vn 0.771900 -0.621800 -0.132500
vn -0.771900 0.621800 0.132500
vn -0.289200 -0.870200 0.399000
vn 0.289200 0.870200 -0.399000
vn 0.179300 0.684300 0.706800
vn -0.179300 -0.684300 -0.706800
vn 0.499300 0.866400 -0.006100
vn -0.499300 -0.866400 0.006100
vn -0.394300 -0.907800 0.142800
vn 0.169000 -0.897300 -0.407800
vn 0.394300 0.907800 -0.142800
vn -0.169000 0.897300 0.407800
vn 0.364600 -0.924400 -0.112300
vn -0.177700 -0.895200 0.408800
vn -0.364600 0.924400 0.112300
vn 0.177700 0.895200 -0.408800
vn -0.254700 -0.955400 0.149400
vn 0.254700 0.955400 -0.149400
vn 0.281500 -0.872800 -0.398700
vn -0.281500 0.872800 0.398700
vn -0.272700 0.955200 0.115200
vn 0.272700 -0.955200 -0.115200
vn -0.381800 -0.913600 -0.140000
vn 0.168600 -0.893300 0.416700
vn 0.381800 0.913600 0.140000
vn -0.168600 0.893300 -0.416700
vn 0.266100 -0.961200 -0.073300
vn 0.598400 -0.553900 -0.578900
vn -0.266100 0.961200 0.073300
vn -0.598400 0.553900 0.578900
vn 0.258400 -0.875300 0.408900
vn -0.193100 -0.980700 -0.031400
vn -0.258400 0.875300 -0.408900
vn 0.193100 0.980700 0.031400
vn 0.085100 -0.993500 -0.075500
vn -0.085100 0.993500 0.075500
vn -0.118500 -0.992900 0.010500
vn -0.265100 -0.953000 -0.146400
vn 0.118500 0.992900 -0.010500
vn 0.265100 0.953000 0.146400
vn 0.130800 -0.990900 0.031300
vn -0.130800 0.990900 -0.031300
vn -0.118600 -0.992400 0.032800
vn 0.118600 0.992400 -0.032800
vn -0.118800 -0.992700 -0.021700
vn 0.118800 0.992700 0.021700
vn 0.849600 -0.492300 -0.189200
vn 0.172700 -0.685100 0.707700
vn -0.849600 0.492300 0.189200
vn -0.172700 0.685100 -0.707700
vn -0.253400 -0.933300 -0.254400
vn -0.132200 -0.741700 0.657600
vn 0.253400 0.933300 0.254400
vn 0.132200 0.741700 -0.657600
vn -0.330400 0.281000 0.901100
vn 0.808500 0.247200 0.534100
vn -0.255300 0.231400 -0.938800
vn -0.959300 0.281500 0.023300
vn -0.383500 -0.421700 -0.821600
vn 0.774900 0.282100 -0.565600
vn 0.735000 -0.404800 -0.544000
vn 0.670600 -0.412300 0.616700
vn -0.876300 -0.479400 -0.047700
vn -0.181400 -0.491300 0.851900
vn -0.825700 0.412300 -0.385000
vn 0.074900 0.415300 0.906600
vn 0.784500 0.291100 -0.547500
vn 0.000000 1.000000 -0.000000
vn -0.206800 -0.118200 0.971200
vn 0.822100 -0.171300 0.543000
vn -0.418500 -0.145800 -0.896500
vn -0.994300 -0.104000 0.024100
vn 0.807600 -0.020800 -0.589400
vn 0.734700 -0.059800 0.675700
vn -0.997200 -0.051400 -0.054300
vn -0.344200 -0.010300 0.938800
vn 0.803500 -0.025700 -0.594700
vn -0.262400 -0.019300 -0.964800
vn -0.997400 -0.071500 0.000000
vn 0.000000 -0.011000 -0.999900
vn -0.000000 0.011000 0.999900
vn 0.997400 0.071500 0.000000
usemtl NW_SEQ_NATURE_PALMBARK_01
s off
f 72/1/1 85/2/1 94/3/1
f 58/4/2 88/5/2 92/6/2
f 87/7/3 89/8/3 90/9/3
f 91/10/4 75/11/4 46/12/4
f 88/1/5 78/3/5 92/13/5
f 56/14/6 93/2/6 67/15/6
f 95/16/7 55/17/7 68/18/7
f 91/10/8 46/12/8 65/19/8
f 95/16/9 84/20/9 55/17/9
f 82/4/10 71/6/10 86/21/10
f 89/8/11 86/22/11 90/9/11
f 89/8/12 82/23/12 86/22/12
f 85/14/13 66/15/13 94/24/13
f 75/25/14 62/26/14 46/27/14
f 84/28/15 65/19/15 55/29/15
f 85/14/16 87/2/16 66/15/16
f 87/7/17 90/9/17 66/30/17
f 93/7/18 57/9/18 67/30/18
f 84/28/19 91/10/19 65/19/19
f 74/31/20 95/32/20 68/33/20
f 59/34/21 47/35/21 72/5/21
f 47/36/22 85/2/22 72/1/22
f 72/1/23 94/3/23 71/13/23
f 82/4/24 72/5/24 71/6/24
f 79/8/25 58/23/25 73/22/25
f 58/4/26 92/6/26 73/21/26
f 74/31/27 68/33/27 62/37/27
f 75/25/28 74/38/28 62/26/28
f 57/9/29 73/22/29 75/11/29
f 73/21/30 74/38/30 75/25/30
f 88/1/31 56/2/31 78/3/31
f 56/14/32 67/15/32 78/24/32
f 93/7/33 79/8/33 57/9/33
f 79/8/34 73/22/34 57/9/34
f 45/39/35 59/40/35 82/23/35
f 59/34/36 72/5/36 82/4/36
f 78/24/37 67/15/37 84/20/37
f 67/30/38 91/10/38 84/28/38
f 47/36/39 60/41/39 85/2/39
f 60/42/40 87/2/40 85/14/40
f 90/39/41 86/40/41 58/23/41
f 86/34/42 88/5/42 58/4/42
f 60/42/43 53/43/43 87/2/43
f 53/44/44 89/8/44 87/7/44
f 71/36/45 56/2/45 88/1/45
f 86/34/46 71/35/46 88/5/46
f 53/44/47 45/39/47 89/8/47
f 45/39/48 82/23/48 89/8/48
f 66/44/49 90/39/49 79/8/49
f 90/39/50 58/23/50 79/8/50
f 67/30/51 57/9/51 91/10/51
f 57/9/52 75/11/52 91/10/52
f 92/13/53 95/32/53 74/31/53
f 73/21/54 92/6/54 74/38/54
f 94/42/55 66/43/55 93/2/55
f 66/44/56 79/8/56 93/7/56
f 71/36/57 94/41/57 56/2/57
f 94/42/58 93/2/58 56/14/58
f 92/13/59 78/3/59 95/32/59
f 78/24/60 84/20/60 95/16/60
usemtl NW_SEQ_NATURE_PALM_02
f 31/45/61 36/46/61 52/47/61
f 36/46/62 31/45/62 52/47/62
f 23/48/63 54/49/63 16/46/63
f 54/49/64 23/48/64 16/46/64
f 7/50/65 42/51/65 37/52/65
f 42/51/66 7/50/66 37/52/66
f 32/53/67 42/51/67 37/52/67
f 42/51/68 32/53/68 37/52/68
f 18/53/69 24/54/69 10/55/69
f 24/54/70 18/53/70 10/55/70
f 26/56/71 19/45/71 4/57/71
f 19/45/72 26/56/72 4/57/72
f 21/51/73 22/50/73 17/52/73
f 22/50/74 21/51/74 17/52/74
f 23/48/75 5/58/75 16/46/75
f 5/58/76 23/48/76 16/46/76
f 14/59/77 6/60/77 54/49/77
f 6/60/78 14/59/78 54/49/78
f 15/61/79 9/62/79 21/51/79
f 9/62/80 15/61/80 21/51/80
f 5/58/81 16/46/81 13/63/81
f 13/63/82 16/46/82 20/47/82
f 16/46/83 5/58/83 13/63/83
f 16/46/84 13/63/84 20/47/84
f 12/64/85 17/52/85 11/65/85
f 17/52/86 12/64/86 11/65/86
f 19/45/87 16/46/87 20/47/87
f 16/46/88 19/45/88 20/47/88
f 18/53/89 10/55/89 13/63/89
f 20/47/90 18/53/90 13/63/90
f 10/55/91 18/53/91 13/63/91
f 18/53/92 20/47/92 13/63/92
f 19/45/93 4/57/93 11/65/93
f 20/47/94 19/45/94 11/65/94
f 4/57/95 19/45/95 11/65/95
f 19/45/96 20/47/96 11/65/96
f 17/52/97 18/53/97 20/47/97
f 11/65/98 17/52/98 20/47/98
f 18/53/99 17/52/99 20/47/99
f 17/52/100 11/65/100 20/47/100
f 21/51/101 18/53/101 17/52/101
f 21/51/102 24/54/102 18/53/102
f 18/53/103 21/51/103 17/52/103
f 24/54/104 21/51/104 18/53/104
f 12/64/105 22/50/105 17/52/105
f 22/50/106 12/64/106 17/52/106
f 23/48/107 14/59/107 54/49/107
f 14/59/108 23/48/108 54/49/108
f 21/51/109 9/62/109 24/54/109
f 9/62/110 21/51/110 24/54/110
f 36/46/111 39/63/111 52/47/111
f 39/63/112 36/46/112 52/47/112
f 54/49/113 6/60/113 26/56/113
f 6/60/114 54/49/114 26/56/114
f 27/66/115 5/58/115 13/63/115
f 5/58/116 27/66/116 13/63/116
f 32/53/117 28/55/117 39/63/117
f 28/55/118 32/53/118 39/63/118
f 31/45/119 52/47/119 34/65/119
f 52/47/120 31/45/120 34/65/120
f 31/45/121 41/49/121 36/46/121
f 41/49/122 31/45/122 36/46/122
f 41/49/123 2/56/123 31/45/123
f 31/45/124 2/56/124 29/57/124
f 2/56/125 41/49/125 31/45/125
f 2/56/126 31/45/126 29/57/126
f 42/51/127 8/54/127 32/53/127
f 32/53/128 8/54/128 28/55/128
f 8/54/129 42/51/129 32/53/129
f 8/54/130 32/53/130 28/55/130
f 41/49/131 33/60/131 2/56/131
f 33/60/132 41/49/132 2/56/132
f 31/45/133 29/57/133 34/65/133
f 29/57/134 31/45/134 34/65/134
f 43/62/135 42/51/135 8/54/135
f 42/51/136 43/62/136 8/54/136
f 3/48/137 41/49/137 36/46/137
f 25/58/138 3/48/138 36/46/138
f 41/49/139 3/48/139 36/46/139
f 3/48/140 25/58/140 36/46/140
f 40/64/141 7/50/141 37/52/141
f 34/65/142 37/52/142 52/47/142
f 7/50/143 40/64/143 37/52/143
f 37/52/144 34/65/144 52/47/144
f 25/58/145 36/46/145 39/63/145
f 38/66/146 25/58/146 39/63/146
f 36/46/147 25/58/147 39/63/147
f 25/58/148 38/66/148 39/63/148
f 40/64/149 37/52/149 34/65/149
f 37/52/150 40/64/150 34/65/150
f 30/59/151 33/60/151 41/49/151
f 3/48/152 30/59/152 41/49/152
f 33/60/153 30/59/153 41/49/153
f 30/59/154 3/48/154 41/49/154
f 35/61/155 43/62/155 42/51/155
f 43/62/156 35/61/156 42/51/156
f 35/61/157 1/67/157 43/62/157
f 1/67/158 35/61/158 43/62/158
f 15/61/159 44/67/159 9/62/159
f 44/67/160 15/61/160 9/62/160
f 37/52/161 32/53/161 52/47/161
f 52/47/162 32/53/162 39/63/162
f 32/53/163 37/52/163 52/47/163
f 32/53/164 52/47/164 39/63/164
f 54/49/165 19/45/165 16/46/165
f 54/49/166 26/56/166 19/45/166
f 19/45/167 54/49/167 16/46/167
f 26/56/168 54/49/168 19/45/168
usemtl NW_SEQ_NATURE_PALMBARK_02
f 81/68/169 50/69/169 48/70/169
f 50/71/170 80/72/170 70/73/170
f 83/74/171 51/75/171 69/76/171
f 51/77/172 81/78/172 48/79/172
f 49/80/173 77/81/173 61/82/173
f 80/72/174 83/83/174 69/84/174
f 49/85/175 61/86/175 63/87/175
f 49/85/176 63/87/176 76/88/176
f 49/89/177 64/90/177 77/91/177
f 49/92/178 76/93/178 64/94/178
f 51/77/179 48/79/179 69/95/179
f 48/70/180 50/69/180 70/96/180
f 80/72/181 69/84/181 70/73/181
f 48/97/182 70/98/182 69/99/182
f 64/94/183 76/93/183 50/69/183
f 76/88/184 80/72/184 50/71/184
f 61/82/185 77/81/185 51/75/185
f 77/91/186 81/78/186 51/77/186
f 63/87/187 83/83/187 80/72/187
f 76/88/188 63/87/188 80/72/188
f 77/91/189 64/90/189 81/78/189
f 64/94/190 50/69/190 81/68/190
f 63/87/191 61/86/191 83/83/191
f 61/82/192 51/75/192 83/74/192
usemtl NW_SEQ_NATURE_PALM_01
f 96/100/193 97/66/193 98/101/193
f 99/67/193 98/101/193 97/66/193
f 101/101/194 102/67/194 100/66/194
f 102/67/195 101/101/195 103/66/195
f 100/66/194 104/100/194 101/101/194
f 105/100/195 103/66/195 101/101/195
f 106/66/196 107/100/196 109/101/196
f 109/101/196 108/67/196 106/66/196
