# Blender v2.75 (sub 0) OBJ File: 'Empty.blend'
# www.blender.org
mtllib ADDON_MAYA_PILLAR_04.mtl
o ADDON_MAYA_PILLAR_04
v 0.519180 -0.035205 0.012490
v 0.680820 -0.376621 -1.005713
v 0.738359 0.410354 -1.021045
v 0.608711 0.027319 1.088369
v 0.078359 -0.403647 0.958604
v 1.198125 0.051108 -0.846357
v -0.158164 0.118594 0.875576
v 0.459961 0.421396 -0.057549
v 0.129492 0.215591 -0.035342
v 0.742812 -0.015747 0.064893
v 0.393945 -0.301682 -0.045557
v 0.171914 0.150354 -0.117061
v 0.456055 0.138633 -1.095479
v 0.924258 0.061509 0.103584
v 0.900820 0.132712 0.169170
v 1.050039 -0.293550 -0.895713
v 0.455703 -0.320867 1.057256
v 0.559687 -0.266060 -0.002021
v 0.409609 -0.366475 -0.062373
v 0.351523 -0.175193 -0.035947
v 0.453359 -0.256150 -0.027529
v 0.707500 -0.112842 0.073838
v 0.778633 -0.283428 0.047549
v 0.663594 -0.209854 0.026221
v 0.766836 -0.214839 0.071963
v 0.312070 0.035176 -0.036865
v 0.976250 0.369756 -0.936299
v 0.701094 0.380361 0.017861
v 0.211367 -0.160566 -0.064131
v 0.236406 -0.223384 -0.099619
v 0.507812 -0.233479 -1.042881
v -0.095312 -0.257576 0.912959
v 0.503555 0.093154 0.054893
v 0.209883 -0.007131 0.983818
v 0.584258 -0.317417 0.005830
v 0.866680 -0.393833 -0.950908
v 0.595430 -0.383689 -0.007588
v 0.267891 -0.421394 1.011123
v 0.858164 0.249053 0.062998
v 1.129219 0.238904 -0.880205
v 0.566680 0.311938 -1.076416
v 0.285820 0.323303 -0.106318
v 0.460938 -0.058452 -1.097568
v -0.152344 -0.082793 0.874678
v 0.865781 -0.111868 0.107568
v 0.849102 -0.045222 0.152178
v 0.147695 0.018604 -0.076143
v 0.181797 -0.047407 -0.133682
v 0.321719 -0.076438 -0.057471
v 1.143359 -0.122617 -0.850811
v 0.550859 -0.144167 1.097568
v 0.533281 0.025991 -0.009053
v 0.823437 0.005237 -0.988174
vt 0.735208 -0.766034
vt 0.809575 -0.748903
vt 0.811182 -0.237368
vt -0.023837 -0.757022
vt 0.064447 -0.756230
vt 0.065806 -0.244695
vt 0.388640 -0.743183
vt 0.489460 -0.751511
vt 0.505148 -0.227764
vt 0.315997 -0.772236
vt 0.500037 -0.757424
vt 0.486368 -0.273338
vt 0.301528 -0.756291
vt 0.386023 -0.760015
vt 0.384227 -0.243068
vt 0.087937 -0.676618
vt 0.037990 -0.430281
vt 0.307736 -0.329606
vt 0.500019 -0.470802
vt 0.407998 -0.429387
vt 0.404125 -0.479474
vt 0.509885 -0.766529
vt 0.610153 -0.772232
vt 0.680690 -0.297559
vt 0.300004 -0.244844
vt 0.735707 -0.244145
vt 0.655680 -0.233964
vt 0.656025 -0.763078
vt 0.583588 -0.271100
vt 0.693560 -0.259878
vt 0.453633 -0.482137
vt 0.510011 -0.481923
vt 0.506816 -0.466066
vt -0.022404 -0.245485
vt 0.485069 -0.257024
vt 0.399738 -0.259878
vt 0.474567 -0.739029
vt 0.503038 -0.499733
vt 0.643936 -0.942955
vt 0.839233 -0.802015
vt 0.603032 -0.474920
vt 0.598812 -0.425067
vt 0.560838 -0.458929
vt 0.199427 -0.424746
vt 0.194244 -0.213823
vt 0.000501 -0.000499
vt 0.913133 -0.299495
vt 0.757661 -0.118475
vt 0.572353 -0.243332
vt 0.573319 -0.768242
vt 0.841536 -0.797224
vt 0.646814 -0.937507
vt 0.435428 -0.738908
vt 0.414407 -0.966754
vt 0.414127 -0.965824
vt 0.148566 -0.228244
vt 0.403220 -0.467377
vt 0.421314 -0.510037
vt 0.462700 -0.504827
vt 0.243180 -0.845140
vt 0.259583 -0.454838
vt 0.148186 -0.747438
vt 0.504888 -0.573965
vt 0.555395 -0.554077
vt 0.557757 -0.749594
vt 0.640153 -0.743183
vt 0.563314 -0.229766
vt 0.653402 -0.674320
vt 0.515442 -0.779461
vt 0.562896 -0.999500
vt 0.402748 -0.229535
vt 0.374246 -0.760922
vt 0.316120 -0.967298
vt 0.013643 -0.370441
vt 0.238997 -0.609482
vt 0.086137 -0.699630
vt 0.563237 -0.487385
vt 0.557896 -0.512818
vt 0.534400 -0.536019
vt 0.551039 -0.561630
vt 0.507610 -0.540624
vt 0.502574 -0.570891
vt 0.758567 -0.311214
vt 0.711690 -0.492846
vt 0.921853 -0.491021
vt 0.806125 -0.811948
vt 0.479528 -0.528858
vt 0.451656 -0.550424
vt 0.757787 -0.117168
vt 0.965390 -0.528016
vt 0.563385 -0.734250
vt 0.490431 -0.765794
vt 0.488945 -0.244204
vt 0.963794 -0.532987
vt 0.591712 -0.521163
vt 0.683425 -0.262040
vt 0.602077 -0.236529
vt 0.586091 -0.759645
vt 0.901117 -0.244963
vt 0.899074 -0.756497
vt 0.722611 -0.769667
vt 0.415906 -0.524499
vt 0.456634 -0.564746
vt 0.668260 -0.770959
vt 0.302651 -0.297645
vt 0.585288 -0.513397
vt 0.706106 -0.739459
vt 0.117655 -0.218797
vt 0.404035 -0.258733
vt 0.221135 -0.236752
vt 0.221667 -0.751634
vt 0.416926 -0.961716
vt 0.325731 -0.680828
vt 0.914125 -0.294474
vt 0.696408 -0.650665
vt 0.758820 -0.113829
vt 0.740581 -0.530660
vt 0.419263 -0.771033
vt 0.999501 -0.166694
vt 0.491499 -0.262040
vt 0.281602 -0.576490
vt 0.602300 -0.473014
vt 0.541484 -0.054953
vt 0.723069 -0.403152
vt 0.329819 -0.066800
vt 0.641866 -0.311979
vn -0.909900 -0.324400 -0.258300
vn 0.443200 -0.885900 0.137000
vn 0.461000 -0.885800 0.053500
vn 0.267900 0.945200 0.186700
vn 0.605200 0.778600 0.165900
vn 0.315000 -0.054400 -0.947500
vn -0.286100 -0.012500 0.958100
vn -0.952500 -0.026200 -0.303600
vn 0.604200 0.779500 0.165200
vn -0.960100 -0.024600 -0.278500
vn -0.952600 -0.025200 -0.303300
vn -0.118600 0.990500 0.069400
vn 0.188300 0.328600 -0.925500
vn 0.443500 -0.885700 0.137000
vn 0.920600 -0.292300 0.259000
vn -0.243600 0.041700 0.969000
vn 0.206200 0.216700 -0.954200
vn -0.602900 -0.194900 0.773700
vn -0.251200 0.105700 0.962100
vn -0.804000 0.544400 -0.239200
vn -0.806000 0.540900 -0.240500
vn 0.338300 -0.007900 -0.941000
vn -0.232700 0.060400 0.970700
vn 0.827700 -0.505600 0.243600
vn 0.506700 -0.065200 -0.859600
vn 0.217300 0.395500 -0.892400
vn 0.401600 0.021300 -0.915600
vn 0.822800 -0.513300 0.244100
vn -0.252700 0.028400 0.967100
vn 0.839600 -0.500400 0.211300
vn -0.205700 -0.108500 0.972600
vn 0.473800 -0.878900 0.055100
vn -0.246200 -0.201800 0.948000
vn -0.491500 -0.097300 0.865400
vn -0.342400 -0.339600 0.876000
vn 0.209300 0.195000 -0.958200
vn 0.189600 0.137500 -0.972200
vn 0.229700 -0.038800 -0.972500
vn -0.206600 0.164000 0.964600
vn 0.711500 -0.316600 -0.627400
vn -0.239300 -0.094100 0.966400
vn -0.201400 -0.230700 0.951900
vn -0.346400 -0.282300 0.894600
vn 0.362400 0.273300 -0.891000
vn 0.380900 -0.258100 -0.887900
vn 0.333000 0.015200 -0.942800
vn -0.088200 0.494700 0.864600
vn 0.324900 0.336300 -0.883900
vn 0.334600 -0.006200 -0.942300
vn 0.156400 0.987100 0.033900
vn -0.288000 0.063800 0.955500
vn 0.157200 0.987000 0.034400
vn 0.209500 0.143700 -0.967200
vn -0.574000 -0.776700 -0.259300
vn -0.606600 -0.777500 -0.166200
vn -0.333100 -0.161300 0.929000
vn 0.189600 -0.025700 -0.981500
vn -0.607200 -0.777000 -0.166200
vn -0.240000 0.017900 0.970600
vn -0.581000 -0.771600 -0.259000
vn 0.322500 0.332100 -0.886400
vn 0.265200 0.946400 0.184500
vn -0.329800 -0.037600 0.943300
vn -0.106500 0.991100 0.079800
vn 0.263400 0.037900 -0.963900
vn -0.050000 -0.991700 -0.118300
vn 0.277300 -0.059500 -0.959000
vn -0.087900 -0.996000 -0.014600
vn -0.291600 -0.133400 0.947200
vn -0.088000 -0.996000 -0.014600
vn -0.264600 0.026500 0.964000
vn -0.059700 -0.991000 -0.119400
vn -0.284200 0.106100 0.952900
vn 0.893800 0.369900 0.253600
vn 0.357700 -0.036900 -0.933100
vn 0.892800 0.373100 0.252500
vn 0.312800 -0.011400 -0.949700
vn -0.457200 0.877800 -0.142700
vn -0.300900 0.060900 0.951700
vn -0.455400 0.878900 -0.141700
vn -0.960400 -0.020800 -0.277900
vn 0.259800 -0.059800 -0.963800
vn -0.307200 0.106900 0.945600
vn -0.879600 -0.356100 -0.315500
vn 0.914700 -0.302300 0.268300
vn -0.250600 0.106600 0.962200
vn 0.403800 0.223700 -0.887100
vn 0.836600 -0.505500 0.211000
vn 0.087300 -0.035700 -0.995500
vn -0.888400 -0.336600 -0.312300
vn -0.907200 -0.331600 -0.258900
vn -0.489300 0.016900 0.871900
vn -0.469600 0.050400 0.881400
vn 0.178800 -0.157700 -0.971200
vn 0.362200 -0.090400 -0.927700
vn 0.917000 -0.295900 0.267600
vn -0.262400 0.139700 0.954800
vn 0.919300 -0.296200 0.259000
vn -0.102400 0.351200 0.930700
vn -0.287900 0.376300 0.880600
vn 0.286100 0.017200 -0.958000
vn 0.315600 -0.205000 -0.926500
usemtl NW_SEQ_MAYA_WALL_11
s off
f 43/1/1 31/2/1 30/3/1
f 36/4/2 16/5/2 23/6/2
f 17/7/3 38/8/3 35/9/3
f 7/10/4 34/11/4 33/12/4
f 40/13/5 27/14/5 28/15/5
f 16/16/6 36/17/6 53/18/6
f 34/19/7 7/20/7 44/21/7
f 44/22/8 7/23/8 9/24/8
f 28/15/9 39/25/9 40/13/9
f 48/26/10 12/27/10 13/28/10
f 9/24/11 47/29/11 44/22/11
f 15/30/12 33/12/12 34/11/12
f 10/31/13 1/32/13 33/33/13
f 23/6/14 37/34/14 36/4/14
f 46/35/15 15/36/15 4/37/15
f 52/38/16 39/39/16 28/40/16
f 47/41/17 9/42/17 26/43/17
f 49/44/18 26/45/18 12/46/18
f 52/38/19 42/47/19 12/48/19
f 12/27/20 42/49/20 41/50/20
f 41/50/21 13/28/21 12/27/21
f 27/51/22 40/52/22 53/53/22
f 1/38/23 10/54/23 14/55/23
f 45/56/24 23/6/24 16/5/24
f 15/57/25 46/58/25 22/59/25
f 33/33/26 15/57/26 10/31/26
f 50/60/27 16/16/27 53/61/27
f 16/5/28 50/62/28 45/56/28
f 34/19/29 38/63/29 17/64/29
f 51/65/30 17/66/30 25/67/30
f 24/68/31 18/69/31 37/70/31
f 35/9/32 25/71/32 17/7/32
f 18/69/33 21/72/33 19/73/33
f 12/46/34 48/74/34 49/44/34
f 21/72/35 20/75/35 30/76/35
f 26/43/36 49/77/36 47/41/36
f 20/78/37 21/79/37 11/80/37
f 21/79/38 18/81/38 35/82/38
f 10/83/39 22/84/39 45/85/39
f 22/59/40 10/31/40 15/57/40
f 37/70/41 23/86/41 24/68/41
f 23/86/42 45/85/42 22/84/42
f 22/84/43 24/68/43 23/86/43
f 24/87/44 22/59/44 46/58/44
f 18/81/45 24/87/45 25/88/45
f 25/88/46 35/82/46 18/81/46
f 52/38/47 12/48/47 26/89/47
f 1/32/48 26/43/48 9/42/48
f 3/90/49 27/51/49 53/91/49
f 27/14/50 3/92/50 8/93/50
f 52/38/51 28/40/51 8/94/51
f 8/93/52 28/15/52 27/14/52
f 11/80/53 29/95/53 20/78/53
f 29/96/54 11/97/54 5/98/54
f 19/99/55 30/3/55 31/2/55
f 30/76/56 19/73/56 21/72/56
f 2/100/57 31/2/57 53/101/57
f 31/2/58 2/100/58 19/99/58
f 34/19/59 32/102/59 5/103/59
f 5/98/60 32/104/60 29/96/60
f 9/42/61 33/33/61 1/32/61
f 33/12/62 9/105/62 7/10/62
f 34/19/63 17/64/63 51/106/63
f 34/11/64 4/107/64 15/30/64
f 35/82/65 11/80/65 21/79/65
f 11/97/66 35/9/66 38/8/66
f 36/17/67 2/108/67 53/109/67
f 19/99/68 2/100/68 36/17/68
f 19/73/69 37/70/69 18/69/69
f 36/17/70 37/34/70 19/99/70
f 34/19/71 5/103/71 38/63/71
f 38/8/72 5/98/72 11/97/72
f 52/38/73 14/55/73 39/39/73
f 39/25/74 14/110/74 6/111/74
f 40/52/75 6/112/75 53/113/75
f 6/111/76 40/13/76 39/25/76
f 41/114/77 3/90/77 53/115/77
f 3/92/78 41/50/78 42/49/78
f 52/38/79 8/94/79 42/47/79
f 42/49/80 8/93/80 3/92/80
f 13/28/81 43/1/81 48/26/81
f 13/116/82 41/114/82 53/117/82
f 34/19/83 44/21/83 32/102/83
f 32/118/84 44/22/84 47/29/84
f 14/110/85 45/56/85 50/62/85
f 45/85/86 14/119/86 10/83/86
f 46/58/87 25/88/87 24/87/87
f 25/67/88 46/35/88 51/65/88
f 29/95/89 47/41/89 49/77/89
f 47/29/90 29/120/90 32/118/90
f 30/3/91 48/26/91 43/1/91
f 48/74/92 30/76/92 20/75/92
f 20/75/93 49/44/93 48/74/93
f 49/77/94 20/78/94 29/95/94
f 6/112/95 50/60/95 53/121/95
f 50/62/96 6/111/96 14/110/96
f 34/19/97 51/106/97 4/122/97
f 4/37/98 51/65/98 46/35/98
f 26/89/99 1/38/99 52/38/99
f 14/55/100 52/38/100 1/38/100
f 43/123/101 13/116/101 53/124/101
f 31/125/102 43/123/102 53/126/102
