# Blender v2.75 (sub 0) OBJ File: 'Empty.blend'
# www.blender.org
mtllib ADDON_STONES_CRYSTAL_ROSE_01_228P.mtl
o ADDON_STONES_CRYSTAL_ROSE_01_228P
v -0.038756 1.024223 -0.106871
v 0.056150 -0.239572 0.307439
v -0.164871 -0.239587 -0.049417
v -0.053287 0.438326 -0.475296
v -0.159585 -0.239572 -0.203914
v 0.101772 -0.239572 -0.203914
v 0.310280 0.679638 -0.194078
v -0.010610 -0.239605 0.133285
v 0.045409 -0.239590 -0.088649
v -0.370069 0.675504 -0.275191
v -0.234907 -0.239612 -0.082685
v -0.042493 -0.239597 0.016898
v 0.088485 0.294234 -0.405957
v 0.479467 0.501222 0.096062
v 0.105500 -0.239587 0.025487
v 0.491665 0.296614 0.096062
v 0.103237 0.475053 0.457716
v -0.134940 -0.239593 0.350579
v 0.012525 -0.239608 0.256685
v -0.394743 0.521596 -0.268907
v 0.206920 -0.239608 0.096062
v 0.105500 -0.239587 0.166636
v -0.253364 -0.239573 0.134956
v -0.087603 0.338317 -0.314348
v -0.094246 -0.239361 -0.101936
v 0.120998 -0.239581 0.100838
v 0.222139 0.113241 0.096062
v 0.177099 0.234714 0.503832
v 0.167751 -0.239598 -0.016785
v -0.058163 0.856086 0.099024
v -0.053778 -0.239600 -0.094238
v 0.036433 -0.239585 -0.305892
v -0.337135 0.564320 -0.160125
v -0.212074 -0.239603 0.025106
v -0.296727 -0.028266 -0.146451
v -0.052063 -0.239589 -0.046438
v 0.088242 0.813247 -0.139160
v 0.020159 -0.239584 -0.039800
v 0.201608 0.580640 0.536779
v 0.077773 -0.062262 0.416111
v 0.139741 -0.239606 0.094182
v 0.216438 0.553241 -0.210737
v 0.077689 0.181628 0.265310
v 0.052811 0.986886 -0.048516
v -0.094246 -0.239585 -0.305892
v -0.175451 -0.239569 0.266829
v 0.036433 -0.239361 -0.101936
v 0.345949 0.525833 -0.185711
v 0.029789 0.338317 -0.314348
v 0.250282 0.125557 0.003681
v 0.232779 0.508360 -0.063093
v -0.080073 -0.239596 0.064529
v -0.093829 -0.239629 0.376246
v 0.173113 -0.239601 0.025487
v 0.173113 -0.239601 0.166636
v -0.028586 -0.239571 0.231018
v 0.079766 0.847388 0.105986
v 0.029789 0.250150 -0.497566
v -0.318512 0.677573 -0.251539
v -0.131918 -0.239595 0.057997
v -0.121522 -0.239607 -0.129728
v -0.073852 1.009189 -0.046068
v -0.107819 0.368272 0.173020
v 0.061262 0.254848 0.195782
v 0.206404 0.330064 0.438601
v 0.169472 0.450234 0.415543
v 0.143700 0.763760 -0.035601
v 0.138202 0.086851 0.067189
v 0.400557 0.363832 0.159460
v 0.071693 -0.239581 0.096062
v -0.366180 0.686059 -0.240426
v 0.461296 0.319020 0.032663
v 0.461296 0.319020 0.159460
v -0.087603 0.250150 -0.497566
v -0.146299 0.294234 -0.405957
v 0.400557 0.363832 0.032663
v 0.331008 0.500858 -0.090453
v 0.250453 0.253259 -0.030610
v 0.110863 0.259533 0.546005
v 0.293770 0.552961 -0.251902
v 0.276542 0.278815 -0.133968
v -0.312955 0.648695 -0.280520
v 0.073932 0.379702 0.522947
v -0.228051 0.136696 -0.210253
v -0.076059 0.822197 -0.157761
v -0.097247 0.519376 -0.116321
v -0.172646 0.542698 0.015553
v 0.053831 0.320147 -0.095999
v -0.117512 0.494404 -0.142045
v 0.191714 0.526428 -0.103740
v -0.288247 0.046520 -0.143658
v -0.029197 0.088069 0.435931
v -0.102319 -0.235618 0.277964
v 0.108157 0.036602 0.348475
v -0.020096 -0.239636 0.329300
v -0.342236 0.668305 -0.291591
v -0.375875 0.498559 -0.172887
v -0.259255 0.574103 -0.197929
v -0.198444 0.332399 -0.135204
v -0.197863 0.312226 -0.213503
v -0.331530 0.528289 -0.304399
v -0.261450 -0.044009 -0.025825
v 0.126194 0.829296 -0.002481
v -0.136076 0.843491 -0.032849
v 0.276371 0.151113 -0.099677
v -0.232729 0.177538 -0.048337
v -0.178416 0.320363 -0.123304
v 0.031953 0.130012 -0.209950
v 0.120740 0.818500 -0.084156
v 0.030767 0.980360 -0.089214
v 0.001188 0.186934 0.368295
v 0.026209 0.949172 0.014863
v 0.112082 0.863379 -0.045903
v -0.263786 0.554543 -0.268910
v 0.370187 0.386238 0.096062
v -0.089766 0.130012 -0.209950
v 0.116915 0.128945 0.038408
v 0.169093 0.180057 -0.168308
v -0.388274 0.538807 -0.208858
v -0.345667 0.640280 -0.228216
v 0.052215 0.157412 -0.025633
v -0.089766 0.038595 -0.399921
v 0.253628 0.090009 0.161797
v 0.348094 0.020313 0.096062
v 0.316605 0.043545 0.030326
v 0.009096 -0.036529 0.459838
v -0.365392 0.553369 -0.174927
v 0.069865 0.161200 0.324568
v 0.031953 0.038595 -0.399921
v 0.092812 0.084303 -0.304935
v -0.150625 0.084303 -0.304935
v 0.078304 0.182968 -0.128991
v -0.034551 0.942957 0.020824
v 0.253628 0.090009 0.030326
v -0.378888 0.576623 -0.204860
v 0.316605 0.043545 0.161797
v 0.086862 -0.239605 0.091074
v 0.114872 -0.239598 -0.019893
vt 1.134184 -0.999500
vt 1.529556 -0.627624
vt 1.161294 -0.627624
vt -0.875928 -0.999500
vt -0.270857 -0.620062
vt -0.860276 -0.627624
vt -1.031638 -0.999500
vt -0.636267 -0.999500
vt -0.636267 -0.627624
vt 1.268005 -0.627624
vt 1.636267 -0.627624
vt 1.636267 -0.255748
vt 1.991439 -0.255748
vt 1.281095 -0.255748
vt -0.636267 -0.991938
vt -0.161294 -0.627624
vt -0.624349 -0.620062
vt 1.419392 -1.924927
vt 1.191124 -1.529556
vt 0.981618 -1.636267
vt 1.419392 -0.999500
vt 1.875928 -0.999500
vt 1.860276 -0.627624
vt -0.268005 -0.627624
vt -1.004528 -0.627624
vt 1.240896 -0.999500
vt 1.636267 -0.999500
vt 2.004529 -0.627624
vt -1.031638 -0.991938
vt 1.209886 -2.031638
vt 1.435044 -0.627624
vt 1.812342 -0.255748
vt 1.442601 -0.255748
vt 1.590273 -0.255748
vt -0.897817 -0.501057
vt -0.529556 -0.255748
vt -0.884728 -0.255748
vt -0.529556 -0.501057
vt -0.174384 -0.255748
vt -0.209886 -0.991938
vt -0.992611 -0.620062
vt 1.824011 -0.255748
vt -0.435044 -0.501057
vt -0.442601 -0.255748
vt 1.529556 -0.999500
vt 1.924927 -0.999500
vt 1.897817 -0.627624
vt -0.419393 -0.999500
vt -0.435044 -0.627624
vt -0.852719 -0.255748
vt 1.636267 -0.000500
vt -0.562485 -0.000500
vt -0.636267 -0.000500
vt -0.991439 -0.255748
vt -0.636267 -0.255748
vt -0.684961 -0.042683
vt -0.887774 -0.255748
vt -0.529556 -0.042683
vt 1.852719 -0.255748
vt 1.684961 -0.042683
vt -0.281095 -0.255748
vt 1.562485 -0.000500
vt 1.529556 -0.042683
vt 1.205089 -0.255748
vt -0.240896 -0.999500
vt 2.031638 -0.999500
vt -0.134185 -0.999500
vt 1.875928 -1.924927
vt 1.419392 -1.134185
vt 0.573956 -0.766216
vt 0.934245 -0.554032
vt 0.867981 -0.127995
vt 0.204882 -0.980068
vt 0.821352 -0.712320
vt 0.294503 -0.554032
vt 0.573956 -0.980068
vt 0.964319 -0.980068
vt 0.764174 -0.642999
vt 0.703268 -0.127995
vt 0.335694 -0.127995
vt 0.163211 -0.642999
vt 0.488605 -0.127995
vt 0.187537 -0.127995
vt 0.000500 -0.999500
vt 0.520745 -0.980068
vt 0.446426 -0.391371
vt 0.602717 -0.178787
vt 0.812463 -0.554032
vt 0.265787 -0.980068
vt 0.754629 -0.410803
vt 0.267665 -0.554032
vt 0.821352 -0.980068
vt 0.000500 -0.980068
vt 0.000500 -0.712320
vt 0.705496 -0.127995
vt 0.267903 -0.127995
vt 0.754629 -0.999500
vt 0.689034 -0.035689
vt 0.575142 -0.033566
vt 0.612902 -0.043686
vt 0.436518 -0.022430
vt 0.793141 -0.127995
vt 0.886782 -0.980068
vt 0.382218 -0.043686
vt 0.442582 -0.035689
vt 0.614695 -0.424858
vt 0.364815 -0.277326
vt 0.274487 -0.436518
vt 0.000500 -0.410803
vt 0.594644 -0.094825
vt 0.715306 -0.127995
vt 0.399455 -0.034100
vt 0.382218 -0.612902
vt 0.277326 -0.000499
vt 0.080389 -0.127995
vt 0.427104 -0.127995
vt 0.705496 -0.391371
vt 0.080389 -0.391371
vt 0.542273 -0.600545
vt 0.542273 -0.034100
vt 0.635185 -0.000499
vt 0.722674 -0.000499
vn -0.949800 0.258700 -0.175800
vn 0.252600 0.158300 0.954500
vn -0.501600 0.296600 -0.812700
vn 0.391900 -0.378700 0.838400
vn 0.950300 -0.310100 -0.026300
vn 0.453900 -0.303900 -0.837600
vn -0.000000 -1.000000 -0.000100
vn -0.396800 -0.056600 -0.916200
vn -0.965700 0.250900 -0.067100
vn -0.428100 0.303800 -0.851100
vn 0.438100 -0.578500 0.688100
vn 0.947400 -0.212700 0.239100
vn -0.469600 -0.040700 -0.881900
vn -0.934400 0.320000 -0.156700
vn 0.953500 -0.292600 0.072800
vn 0.564900 -0.355800 -0.744500
vn 0.248400 0.161500 0.955100
vn 0.952900 -0.243800 0.180300
vn -0.566300 0.370000 0.736500
vn 0.384300 0.096900 0.918100
vn -0.647100 0.392200 0.653800
vn -0.583100 -0.023400 0.812100
vn 0.528400 0.067700 -0.846300
vn 0.613200 0.037000 -0.789100
vn 0.952600 -0.095000 0.289000
vn 0.880800 0.187200 -0.434900
vn -0.184000 0.693200 -0.696900
vn 0.267100 0.506300 0.820000
vn 0.949900 0.231700 0.209700
vn 0.249900 0.250800 0.935200
vn 0.963200 0.068500 0.260100
vn -0.595500 -0.029000 0.802800
vn 0.501800 -0.117200 0.857000
vn 0.805800 0.155800 -0.571400
vn -0.425000 0.421100 -0.801300
vn 0.671900 -0.327900 -0.664100
vn 0.955600 -0.229900 0.184400
vn -0.801600 0.485300 0.349300
vn -0.265100 0.102500 0.958700
vn -0.800200 0.598700 -0.034900
vn -0.357700 0.664000 0.656600
vn -0.946000 0.321200 0.044600
vn -0.854700 0.370500 -0.363700
vn 0.896000 -0.403000 -0.186600
vn 0.625100 0.042600 -0.779400
vn 0.831300 -0.411900 0.373300
vn 0.480300 -0.228100 -0.846900
vn -0.383600 0.394900 -0.834800
vn 0.276400 0.168700 0.946100
vn 0.483400 -0.298700 -0.822900
vn -0.398300 -0.056400 -0.915500
vn -0.936700 0.258400 -0.236400
vn -0.572400 0.358200 0.737600
vn -0.527900 -0.080400 0.845500
vn 0.326200 -0.496400 0.804500
vn -0.398300 -0.053600 -0.915700
vn -0.937600 0.319600 -0.136600
vn -0.000000 -1.000000 -0.000000
vn 0.812600 -0.106900 -0.572900
vn -0.289500 0.177400 0.940600
vn 0.000000 -0.320200 -0.947300
vn -0.830500 0.165600 0.531800
vn -0.375800 0.142600 0.915700
vn -0.445300 -0.320300 -0.836200
vn 0.863800 0.151100 0.480700
vn 0.862000 -0.129100 -0.490200
vn 0.764900 -0.397500 -0.506900
vn 0.764900 -0.397500 0.506900
vn -0.438400 -0.318000 -0.840700
vn -0.971900 -0.176900 0.155400
vn 0.822500 -0.410100 -0.394000
vn -0.785300 0.360300 -0.503500
vn 0.773000 -0.383100 0.505700
vn -0.901200 0.027000 -0.432500
vn 0.000000 0.280700 0.959800
vn -0.864900 0.171100 0.471800
vn 0.889800 0.061400 0.452100
vn -0.841800 0.358900 -0.403300
vn -0.796000 0.339400 0.501200
vn -0.031900 0.150700 0.988100
vn -0.833200 0.166500 0.527400
vn 0.967900 0.231500 -0.098300
vn 0.830300 -0.166400 -0.531900
vn -0.498500 0.127300 0.857500
vn 0.378100 0.313400 0.871100
vn -0.979500 -0.184600 0.080900
vn -0.356900 -0.364000 -0.860300
vn -0.946900 -0.201400 0.250600
vn 0.861400 -0.083100 -0.501000
vn 0.106900 -0.094100 -0.989800
vn 0.051500 -0.128300 -0.990400
vn -0.171700 0.106700 0.979300
vn 0.953700 -0.018700 0.300200
vn 0.772600 0.410500 -0.484300
vn -0.092300 0.679900 0.727400
vn -0.833300 -0.143500 -0.533900
vn -0.848200 0.171700 0.501100
vn 0.827100 0.188100 0.529600
vn 0.000000 0.849400 0.527800
vn 0.686900 0.720700 0.093300
vn 0.000000 0.014700 -0.999900
vn 0.000000 0.017100 0.999900
vn 0.920700 0.030200 0.389100
vn 0.004600 0.668300 0.743800
vn 0.686900 0.376800 -0.621400
vn 0.259000 0.660700 0.704600
vn 0.451400 -0.094100 -0.887400
vn 0.396700 0.312400 0.863100
vn 0.413500 -0.087900 -0.906200
vn 0.170000 0.929300 0.327900
vn -0.942000 0.018500 -0.335200
vn -0.834400 0.164700 0.526000
vn -0.040100 0.153800 0.987300
vn 0.372500 0.681600 0.629800
vn 0.935100 0.330700 0.127400
vn 0.866600 0.409800 -0.284700
vn 0.763900 0.604400 0.226200
vn 0.817000 -0.101600 -0.567600
vn 0.953900 -0.019400 0.299400
vn -0.757200 0.410700 0.507900
vn 0.008100 0.011000 0.999900
vn -0.834000 0.380700 0.399500
vn 0.562400 0.826500 -0.023600
vn -0.985200 0.160400 0.060200
vn 0.907900 0.054100 -0.415800
vn 0.009200 0.012400 -0.999900
vn 0.221800 0.300600 0.927600
vn 0.907900 0.054100 0.415800
vn 0.000000 0.117500 -0.993100
vn -0.863600 -0.148900 -0.481700
vn -0.773400 0.211800 -0.597500
vn -0.773400 0.599000 0.207300
vn 0.221800 0.300600 -0.927600
vn -0.757200 0.410700 -0.507900
vn -0.040000 0.704000 -0.709100
vn 0.958700 0.177000 -0.222700
vn 0.463300 -0.058100 -0.884300
vn -0.231200 -0.265700 -0.935900
vn 0.123800 0.323000 -0.938300
vn -0.848800 0.271100 -0.454000
vn -0.041700 -0.132600 -0.990300
vn -0.901100 0.003700 -0.433600
vn -0.865900 0.024900 -0.499500
vn -0.854100 0.182200 0.487200
vn 0.808000 -0.106800 -0.579400
vn 0.154200 -0.107900 -0.982100
vn 0.550200 0.339400 -0.762900
vn -0.461400 0.790100 -0.403500
vn -0.808500 0.113200 -0.577500
vn -0.951800 0.097100 0.291000
vn 0.071300 0.952200 -0.297100
vn -0.498600 0.044600 -0.865700
vn -0.539600 0.370100 0.756200
vn -0.988200 0.137100 0.068900
vn 0.890700 0.420600 -0.172800
vn 0.071600 0.490900 0.868300
vn 0.506600 0.333800 0.795000
vn 0.969700 0.212700 -0.120500
vn 0.966600 0.249900 -0.057200
vn 0.483500 -0.068000 -0.872700
vn -0.492500 0.041900 -0.869300
vn 0.417400 0.114400 -0.901500
vn -0.379800 0.142100 0.914100
vn -0.960600 -0.189500 0.203500
vn 0.946600 0.305200 -0.103600
vn 0.912300 0.037600 0.407800
vn -0.822200 0.344900 0.452800
vn -0.858400 0.288500 -0.424100
vn -0.420100 0.145500 0.895700
vn 0.373300 0.349200 0.859500
vn -0.190000 0.512000 0.837700
vn 0.588500 0.784000 -0.197600
vn 0.000000 0.448100 0.894000
vn 0.865900 0.231300 0.443500
vn 0.766200 0.413200 -0.492100
vn 0.558300 0.717000 -0.417400
vn 0.341800 0.169700 -0.924300
vn 0.754800 0.373600 0.539100
vn 0.143600 0.744100 0.652400
vn 0.957800 0.269700 -0.099600
vn 0.426700 0.112200 -0.897400
vn 0.869700 0.422800 -0.254500
vn -0.624100 0.593100 -0.508600
vn -0.624100 0.593100 0.508600
vn -0.865900 0.231300 0.443500
vn -0.974400 -0.180200 0.134200
vn -0.779100 0.273800 0.564000
vn 0.272100 0.360000 0.892400
vn 0.782600 0.462000 0.417300
vn -0.000000 -0.419100 -0.908000
vn -0.865900 -0.202300 -0.457500
vn 0.004500 0.006100 1.000000
vn 0.757000 -0.411100 -0.507900
vn 0.809900 -0.439900 0.388000
vn 0.004500 0.006100 -1.000000
vn -0.849700 0.181000 0.495300
vn 0.865900 -0.202300 -0.457500
vn -0.039700 0.865900 0.498600
vn -0.848700 0.157300 0.504900
vn -0.958000 0.218100 0.186500
usemtl NW_SEQ_NATURE_CRYSTAL_ROSE_01
s off
f 36/1/1 121/2/1 132/3/1
f 8/4/2 50/5/2 117/6/2
f 56/7/3 93/8/3 111/9/3
f 126/10/4 40/11/4 28/12/4
f 40/11/5 65/13/5 28/12/5
f 126/10/4 28/12/4 79/14/4
f 29/15/6 118/16/6 105/17/6
f 137/18/7 138/19/7 29/20/7
f 9/21/8 36/22/8 132/23/8
f 93/8/9 92/24/9 111/9/9
f 56/7/10 111/9/10 128/25/10
f 53/26/11 95/27/11 40/11/11
f 40/11/5 94/28/5 65/13/5
f 41/29/12 29/15/12 105/17/12
f 29/20/7 41/30/7 137/18/7
f 118/31/13 42/32/13 80/33/13
f 132/3/14 121/2/14 90/34/14
f 78/35/15 48/36/15 77/37/15
f 81/38/16 118/16/16 80/39/16
f 8/4/17 41/40/17 50/5/17
f 41/29/18 105/17/18 50/41/18
f 121/2/19 51/42/19 90/34/19
f 117/6/20 78/43/20 77/44/20
f 52/45/21 8/46/21 117/47/21
f 18/21/22 126/23/22 92/31/22
f 19/4/23 56/48/23 128/49/23
f 94/6/24 66/44/24 65/50/24
f 39/51/25 28/12/25 65/13/25
f 39/52/26 65/50/26 66/44/26
f 39/53/27 66/54/27 17/55/27
f 7/56/28 51/57/28 77/44/28
f 7/58/29 77/37/29 48/36/29
f 117/6/30 50/5/30 78/43/30
f 81/38/31 78/35/31 50/41/31
f 92/31/32 126/23/32 79/59/32
f 39/51/33 79/14/33 28/12/33
f 7/58/34 48/36/34 80/39/34
f 7/60/35 80/33/35 42/32/35
f 81/38/36 80/39/36 48/36/36
f 78/35/37 81/38/37 48/36/37
f 39/53/38 17/55/38 83/61/38
f 39/62/39 83/33/39 79/59/39
f 7/63/40 42/64/40 90/34/40
f 7/63/41 90/34/41 51/42/41
f 111/9/42 92/24/42 83/61/42
f 92/31/32 79/59/32 83/33/32
f 93/8/43 18/65/43 92/24/43
f 95/27/44 94/28/44 40/11/44
f 19/4/45 128/49/45 94/6/45
f 95/27/46 19/66/46 94/28/46
f 118/16/47 81/38/47 105/17/47
f 50/41/31 105/17/31 81/38/31
f 128/25/48 111/9/48 17/55/48
f 111/9/42 83/61/42 17/55/42
f 121/2/19 117/47/19 51/42/19
f 117/6/49 77/44/49 51/57/49
f 29/15/50 9/67/50 118/16/50
f 9/21/51 132/23/51 118/31/51
f 36/1/52 52/45/52 121/2/52
f 52/45/53 117/47/53 121/2/53
f 18/21/54 53/22/54 126/23/54
f 53/26/55 40/11/55 126/10/55
f 94/6/24 128/49/24 66/44/24
f 128/25/48 17/55/48 66/54/48
f 118/31/56 132/23/56 42/32/56
f 132/3/57 90/34/57 42/64/57
f 8/68/58 137/18/58 41/30/58
f 9/69/7 29/20/7 138/19/7
usemtl NW_SEQ_NATURE_CRYSTAL_ROSE_02
f 68/70/59 88/71/59 37/72/59
f 46/73/60 43/74/60 63/75/60
f 32/4/61 45/48/61 122/49/61
f 5/8/62 25/65/62 116/24/62
f 34/76/63 60/77/63 106/71/63
f 84/75/64 91/78/64 20/79/64
f 47/26/65 130/11/65 108/10/65
f 6/27/66 129/28/66 130/11/66
f 124/11/67 72/13/67 16/12/67
f 136/10/68 124/11/68 16/12/68
f 84/75/69 20/79/69 101/80/69
f 91/81/70 119/82/70 20/83/70
f 21/27/71 54/66/71 125/28/71
f 15/7/72 27/9/72 134/25/72
f 55/26/73 124/11/73 136/10/73
f 3/84/74 23/85/74 87/86/74
f 25/21/75 108/23/75 116/31/75
f 5/8/76 116/24/76 131/9/76
f 25/21/75 47/22/75 108/23/75
f 64/81/77 68/70/77 67/87/77
f 15/7/78 70/8/78 27/9/78
f 70/8/79 123/24/79 27/9/79
f 63/75/80 64/78/80 57/79/80
f 23/85/81 63/88/81 87/86/81
f 12/84/82 31/85/82 100/86/82
f 6/27/83 32/66/83 129/28/83
f 102/70/84 33/72/84 97/87/84
f 60/89/85 107/90/85 106/91/85
f 91/81/86 102/70/86 97/87/86
f 61/73/87 11/92/87 35/74/87
f 11/93/88 102/70/88 35/94/88
f 68/70/89 37/72/89 67/87/89
f 88/91/90 85/95/90 37/96/90
f 38/89/91 3/97/91 89/90/91
f 46/73/92 2/92/92 43/74/92
f 2/93/93 68/70/93 43/94/93
f 110/98/94 44/99/94 37/72/94
f 133/100/95 62/101/95 30/102/95
f 45/7/96 5/8/96 131/9/96
f 23/85/97 46/103/97 63/88/97
f 47/26/98 6/27/98 130/11/98
f 4/62/99 24/33/99 49/59/99
f 4/51/100 49/14/100 13/12/100
f 54/4/101 15/48/101 134/49/101
f 22/21/102 55/22/102 136/23/102
f 64/81/103 103/82/103 57/83/103
f 133/104/104 30/80/104 57/79/104
f 4/51/105 13/12/105 58/13/105
f 32/4/61 122/49/61 129/6/61
f 120/105/106 33/96/106 98/95/106
f 100/86/107 84/88/107 101/102/107
f 60/89/108 12/97/108 107/90/108
f 31/85/109 84/88/109 100/86/109
f 44/106/110 1/107/110 62/108/110
f 3/84/111 87/86/111 89/109/111
f 87/86/112 63/88/112 30/102/112
f 63/75/113 57/79/113 30/80/113
f 63/75/114 43/74/114 64/78/114
f 68/70/115 64/81/115 43/94/115
f 44/99/116 113/110/116 109/111/116
f 112/112/117 57/83/117 103/82/117
f 26/76/118 88/71/118 68/70/118
f 2/93/119 26/76/119 68/70/119
f 27/9/120 69/61/120 115/55/120
f 22/21/121 136/23/121 123/31/121
f 70/8/122 22/65/122 123/24/122
f 71/106/123 82/108/123 96/113/123
f 10/112/124 20/83/124 119/82/124
f 14/51/125 16/12/125 72/13/125
f 54/4/126 134/49/126 125/6/126
f 14/62/127 69/33/127 73/59/127
f 14/51/128 73/14/128 16/12/128
f 4/52/129 58/50/129 74/44/129
f 45/7/130 131/9/130 122/25/130
f 4/53/131 74/54/131 75/55/131
f 4/53/132 75/55/132 24/61/132
f 14/52/133 72/50/133 76/44/133
f 134/25/134 27/9/134 115/55/134
f 71/106/135 59/107/135 82/108/135
f 12/84/136 100/86/136 107/109/136
f 31/85/137 61/103/137 84/88/137
f 61/73/138 35/74/138 84/75/138
f 110/105/139 37/96/139 85/95/139
f 1/114/140 85/115/140 104/116/140
f 88/91/141 86/117/141 85/95/141
f 86/118/142 104/116/142 85/115/142
f 86/118/143 87/86/143 104/116/143
f 87/86/144 30/102/144 104/116/144
f 26/76/145 38/77/145 88/71/145
f 38/89/146 89/90/146 88/91/146
f 88/91/147 89/90/147 86/117/147
f 87/86/148 86/118/148 89/109/148
f 84/75/149 35/74/149 91/78/149
f 102/70/150 91/81/150 35/94/150
f 71/106/151 96/113/151 10/119/151
f 10/120/152 96/104/152 20/79/152
f 71/99/153 127/111/153 33/72/153
f 71/99/154 10/112/154 135/110/154
f 59/114/155 98/115/155 114/116/155
f 59/121/156 120/105/156 98/95/156
f 106/91/157 99/117/157 98/95/157
f 99/118/158 114/116/158 98/115/158
f 99/118/159 100/86/159 114/116/159
f 100/86/160 101/102/160 114/116/160
f 96/104/161 101/80/161 20/79/161
f 96/100/162 82/101/162 101/102/162
f 34/76/163 106/71/163 102/70/163
f 11/93/164 34/76/164 102/70/164
f 109/111/165 103/82/165 67/87/165
f 64/81/166 67/87/166 103/82/166
f 62/101/167 104/116/167 30/102/167
f 62/101/168 1/114/168 104/116/168
f 102/70/169 106/71/169 33/72/169
f 106/91/170 98/95/170 33/96/170
f 106/91/171 107/90/171 99/117/171
f 100/86/172 99/118/172 107/109/172
f 116/31/173 108/23/173 49/59/173
f 108/10/174 13/12/174 49/14/174
f 44/99/175 109/111/175 37/72/175
f 67/87/89 37/72/89 109/111/89
f 44/99/176 110/98/176 1/122/176
f 1/121/177 110/105/177 85/95/177
f 44/99/178 112/112/178 113/110/178
f 44/106/179 62/108/179 133/113/179
f 109/111/180 113/110/180 103/82/180
f 113/110/117 112/112/117 103/82/117
f 82/101/181 114/116/181 101/102/181
f 82/101/182 59/114/182 114/116/182
f 14/53/183 76/54/183 115/55/183
f 14/53/184 115/55/184 69/61/184
f 131/9/185 116/24/185 24/61/185
f 116/31/173 49/59/173 24/33/173
f 91/81/186 97/87/186 119/82/186
f 71/99/187 135/110/187 127/111/187
f 71/99/188 120/98/188 59/122/188
f 120/98/189 71/99/189 33/72/189
f 129/6/190 122/49/190 74/44/190
f 122/25/191 75/55/191 74/54/191
f 27/9/120 123/24/120 69/61/120
f 123/31/192 73/59/192 69/33/192
f 21/27/193 125/28/193 124/11/193
f 55/26/194 21/27/194 124/11/194
f 124/11/67 125/28/67 72/13/67
f 125/6/195 76/44/195 72/50/195
f 127/111/196 119/82/196 97/87/196
f 97/87/84 33/72/84 127/111/84
f 130/11/197 129/28/197 58/13/197
f 129/6/190 74/44/190 58/50/190
f 130/11/197 58/13/197 13/12/197
f 108/10/174 130/11/174 13/12/174
f 122/25/191 131/9/191 75/55/191
f 131/9/185 24/61/185 75/55/185
f 44/106/198 133/113/198 112/119/198
f 112/120/104 133/104/104 57/79/104
f 125/6/195 134/49/195 76/44/195
f 134/25/134 115/55/134 76/54/134
f 127/111/199 135/110/199 119/82/199
f 135/110/200 10/112/200 119/82/200
f 123/31/192 136/23/192 73/59/192
f 136/10/68 16/12/68 73/14/68
