# Blender v2.75 (sub 0) OBJ File: 'Empty.blend'
# www.blender.org
mtllib ADDON_DUNGEON_SHELF_02.mtl
o ADDON_DUNGEON_SHELF_02
v 0.841661 0.480365 0.312672
v 0.652140 -0.745633 -0.318563
v 0.652140 0.798629 -0.318563
v -0.311130 -0.492898 -0.267566
v 0.420732 -0.400223 0.322727
v 0.689630 -0.647254 -0.304625
v -0.714565 0.224057 -0.373681
v -0.653676 -0.572724 0.287480
v -0.694087 0.613123 0.238624
v -0.641119 -0.411379 0.373661
v -0.841642 -0.780264 -0.329971
v 0.652140 -0.745633 0.312672
v 0.652140 0.480365 0.312672
v 0.841661 -0.745633 0.312672
v 0.841661 0.798629 -0.318563
v 0.841661 -0.745633 -0.318563
v 0.403386 -0.561721 0.336068
v -0.816088 -0.559274 0.286185
v -0.679229 -0.793714 -0.328675
v 0.706976 -0.485756 -0.317966
v -0.557212 0.573026 -0.120732
v -0.631310 -0.305022 0.002081
v -0.597757 -0.285422 0.318356
v -0.563005 0.568873 0.197841
v -0.832257 -0.785160 -0.029006
v -0.698175 0.651248 0.105383
v -0.691527 -0.424930 0.245213
v -0.669845 -0.798609 -0.027710
v -0.564825 0.475416 -0.246803
v -0.546025 -0.325734 -0.131249
v -0.696284 0.542318 -0.152041
v -0.606934 -0.447041 -0.020289
v -0.295116 -0.367190 -0.257118
v -0.589805 0.212973 -0.351764
v -0.557737 0.602289 0.051116
v -0.644508 -0.290878 0.175327
v 0.584522 -0.609648 0.005418
v 0.841661 0.678217 -0.011821
v 0.652140 0.678217 -0.011821
v 0.601868 -0.448150 -0.007924
v -0.658173 -0.633502 0.179470
v -0.820585 -0.620053 0.178175
v 0.652140 0.536352 0.202009
v 0.841661 0.536352 0.202009
v 0.471104 -0.415240 0.210399
v 0.453758 -0.576738 0.223741
vt 0.053751 -0.602477
vt 0.148512 -0.602477
vt 0.148512 -0.495562
vt 0.053751 -0.495562
vt 0.397523 -0.460114
vt 0.397523 -0.541581
vt 0.504438 -0.540415
vt 0.504438 -0.458948
vt 0.781991 -0.467106
vt 0.652141 -0.528979
vt 0.806187 -0.535547
vt 0.592140 -0.541034
vt 0.563621 -0.468885
vt 0.477116 -0.467862
vt 0.657809 -0.539425
vt 0.657808 -0.536410
vt 0.636151 -0.469099
vt 0.657809 -0.457959
vt 0.411927 -0.467106
vt 0.461065 -0.535547
vt 0.652687 -0.466266
vt 0.148512 -0.342191
vt 0.053751 -0.342191
vt 0.342191 -0.460575
vt 0.342191 -0.542041
vt 0.053751 -0.657808
vt 0.148512 -0.657808
vt 0.342191 -1.085913
vt 0.602477 -0.444920
vt 0.495562 -0.373988
vt 0.504438 -0.373988
vt 0.397523 -0.444920
vt 0.657809 -1.085913
vt 0.145614 -0.342191
vt 0.276728 -0.602477
vt 0.652141 -0.343108
vt 0.721460 -0.602477
vt 0.792380 -0.495562
vt 0.347313 -0.353540
vt 0.806187 -0.461065
vt 0.147425 -0.457959
vt 0.657808 -0.472914
vt 0.342192 -0.472914
vt 0.148512 -0.472914
vt 0.053751 -0.472914
vt 0.053751 -1.085913
vt 0.851488 -0.342191
vt 0.851488 -0.657808
vt 0.946249 -0.657808
vt 0.148512 -1.085913
vt 0.946249 -0.313782
vt 0.851488 -0.313782
vt 0.851488 -1.085913
vt 0.946249 -0.342191
vt 0.946249 -1.085913
vt 0.181527 -0.469099
vt 0.695283 -0.542041
vt 0.693472 -0.460575
vt 0.145614 -0.539425
vt 0.218009 -0.411927
vt 0.181527 -0.636151
vt 0.167344 -0.536410
vt 0.205809 -0.495562
vt 0.304717 -0.657809
vt 0.832656 -0.657808
vt 0.854386 -0.592140
vt 0.852575 -0.342191
vt 0.171969 -0.477116
vt 0.161340 -0.563621
vt 0.657809 -0.313782
vt 0.342191 -0.313782
vt 0.693472 -0.657809
vn 0.000000 0.833300 0.552800
vn 0.853600 -0.048800 0.518600
vn -0.069400 -0.778200 0.624100
vn -0.278000 0.559700 -0.780700
vn -0.636100 -0.322000 -0.701200
vn -0.953800 0.284600 -0.095900
vn 0.268900 0.949600 -0.160900
vn -0.082400 -0.996500 -0.013600
vn 0.377500 0.893300 0.244000
vn -0.857600 0.423400 0.291900
vn -0.037300 0.791200 -0.610400
vn -0.845100 -0.061400 -0.531000
vn -0.114600 0.914600 -0.387800
vn -0.949100 -0.116800 -0.292700
vn -0.427600 0.128800 -0.894800
vn 0.192100 0.348600 -0.917400
vn 0.395200 0.892500 0.217500
vn -0.858900 0.438900 0.264000
vn 0.941700 -0.074000 0.328200
vn 0.000000 0.930800 0.365400
vn -0.075800 -0.867600 0.491400
vn 0.000000 0.892300 0.451400
vn 0.907500 -0.063200 0.415400
vn -1.000000 0.000000 0.000000
vn 1.000000 -0.000000 0.000000
vn -0.149800 -0.986600 0.064800
vn 0.112200 0.990300 -0.082100
vn -0.994500 0.092100 -0.050200
vn 0.169700 -0.037700 -0.984800
vn -0.128200 -0.991300 0.030500
vn -0.049900 0.089000 -0.994800
vn -0.992100 0.125600 0.001500
vn 0.997000 -0.077200 0.005300
vn 0.000000 0.000000 1.000000
vn 0.000000 -1.000000 0.000000
vn 0.000000 0.000000 -1.000000
vn 0.004900 0.081800 0.996600
vn -0.001500 0.078400 0.996900
vn 0.004300 -0.044000 -0.999000
vn -0.048800 -0.077000 -0.995800
vn 0.996800 -0.079100 0.012500
vn 0.112700 0.990700 -0.075900
vn 0.087200 0.375200 0.922800
vn 0.299400 0.007500 0.954100
vn -0.999000 0.030900 0.031700
vn -0.992500 0.105700 0.060700
vn -0.135200 -0.978400 0.156300
vn 0.995500 -0.089200 -0.032500
vn 0.994900 -0.099300 0.016800
vn 0.123900 0.989500 -0.074500
vn -0.994600 0.093100 -0.046700
vn -0.130500 -0.990600 0.040900
vn 0.117600 0.988900 -0.091200
vn 0.995900 -0.089200 -0.014000
vn 0.996500 -0.082200 0.017000
vn 0.107000 0.991600 -0.072800
vn -0.112200 -0.990300 0.082100
vn 0.996900 -0.078900 0.002900
vn -0.995400 0.095200 -0.012100
vn 0.112000 0.990300 -0.082200
vn -0.129700 -0.988800 0.074000
usemtl NW_CITY_BROKENSTONE_01
s off
f 43/1/1 44/2/1 38/3/1
f 38/3/1 39/4/1 43/1/1
f 45/5/2 46/6/2 37/7/2
f 41/5/3 42/6/3 25/7/3
f 25/7/3 28/8/3 41/5/3
f 37/7/2 40/8/2 45/5/2
f 29/9/4 7/10/4 31/11/4
f 30/9/5 4/10/5 32/11/5
f 27/12/6 36/13/6 22/14/6
f 26/12/7 35/13/7 21/14/7
f 28/8/8 25/7/8 11/15/8
f 26/12/9 9/16/9 24/17/9
f 27/12/10 10/16/10 23/17/10
f 11/15/8 19/18/8 28/8/8
f 21/14/11 29/19/11 31/20/11
f 22/14/12 30/19/12 32/20/12
f 21/14/13 31/20/13 26/12/13
f 22/14/14 32/20/14 27/12/14
f 30/9/15 33/21/15 4/10/15
f 29/9/16 34/21/16 7/10/16
f 24/17/17 35/13/17 26/12/17
f 23/17/18 36/13/18 27/12/18
f 40/8/19 37/7/19 6/15/19
f 39/4/20 38/3/20 15/22/20
f 15/22/20 3/23/20 39/4/20
f 6/15/19 20/18/19 40/8/19
f 42/6/21 41/5/21 8/24/21
f 8/24/21 18/25/21 42/6/21
f 44/2/22 43/1/22 13/26/22
f 13/26/22 1/27/22 44/2/22
f 46/6/23 45/5/23 5/24/23
f 5/24/23 17/25/23 46/6/23
usemtl NW_SEQ_MAYA_WALL_10
f 2/28/24 43/29/24 39/30/24
f 38/31/25 44/32/25 16/33/25
f 6/34/26 46/35/26 4/36/26
f 45/37/27 40/38/27 33/39/27
f 42/35/28 31/40/28 7/36/28
f 34/21/29 19/41/29 7/10/29
f 46/35/30 32/40/30 4/36/30
f 33/21/31 20/41/31 4/10/31
f 11/34/32 42/35/32 7/36/32
f 41/37/33 28/38/33 34/39/33
f 2/28/24 12/33/24 13/42/24
f 1/43/25 14/28/25 16/33/25
f 1/44/34 13/45/34 12/46/34
f 16/47/35 14/48/35 12/49/35
f 12/46/34 14/50/34 1/44/34
f 3/51/36 15/52/36 16/53/36
f 12/49/35 2/54/35 16/47/35
f 16/53/36 2/55/36 3/51/36
f 23/56/37 17/57/37 5/58/37
f 24/56/38 18/57/38 8/58/38
f 19/41/39 11/59/39 7/10/39
f 20/41/40 6/59/40 4/10/40
f 41/37/41 29/60/41 24/61/41
f 45/37/42 30/60/42 23/61/42
f 23/56/43 10/62/43 17/57/43
f 24/56/44 9/62/44 18/57/44
f 11/34/45 25/63/45 42/35/45
f 18/64/46 9/65/46 26/66/46
f 17/64/47 10/65/47 27/66/47
f 28/38/48 19/67/48 34/39/48
f 29/60/49 21/68/49 24/61/49
f 30/60/50 22/68/50 23/61/50
f 42/35/51 26/66/51 31/40/51
f 46/35/52 27/66/52 32/40/52
f 45/37/53 33/39/53 30/60/53
f 41/37/54 34/39/54 29/60/54
f 21/68/55 35/69/55 24/61/55
f 22/68/56 36/69/56 23/61/56
f 6/34/57 37/63/57 46/35/57
f 16/33/25 15/70/25 38/31/25
f 39/30/24 3/71/24 2/28/24
f 40/38/27 20/67/27 33/39/27
f 41/37/58 24/61/58 8/72/58
f 42/35/59 18/64/59 26/66/59
f 13/42/24 43/29/24 2/28/24
f 16/33/25 44/32/25 1/43/25
f 45/37/60 23/61/60 5/72/60
f 46/35/61 17/64/61 27/66/61
