# Blender v2.75 (sub 0) OBJ File: 'Empty.blend'
# www.blender.org
mtllib ADDON_CANYONPLANT_CACTUSLONG_01_58P.mtl
o ADDON_CANYONPLANT_CACTUSLONG_01_58P
v -0.055073 1.198468 -0.114775
v -0.503748 2.087216 -0.061912
v -0.577723 1.591227 -0.002885
v 0.041398 -0.177439 0.127632
v -0.139746 2.927713 0.101061
v 0.172121 2.927384 -0.000059
v -0.108500 -0.177441 -0.078948
v 0.134195 -0.177437 0.000071
v -0.139430 2.927699 -0.101548
v -0.006935 1.326941 0.067975
v -0.057010 1.195218 0.107571
v 0.041552 -0.177439 -0.127602
v -0.108596 -0.177441 0.078796
v 0.029641 3.023463 0.092603
v 0.045351 3.024157 -0.065945
v -0.376959 1.668606 -0.072250
v -0.005371 1.329620 -0.069439
v -0.285315 1.508623 0.066484
v -0.084032 1.120539 -0.002966
v -0.384458 1.412141 -0.114239
v -0.384681 1.413521 0.108808
v -0.610500 2.035392 -0.003607
v -0.414169 2.064072 0.004738
v -0.405902 2.006739 -0.071727
v -0.523860 2.092068 0.044956
v -0.068277 3.024637 -0.026396
v 0.052494 2.927373 -0.164134
v -0.531387 2.023380 -0.112812
v -0.528719 2.023914 0.107588
v -0.286030 1.508705 -0.072825
v -0.403943 2.005887 0.063761
v 0.053197 2.925526 0.164510
v -0.443229 1.356719 -0.002850
v -0.377236 1.667876 0.067173
v -0.503796 1.620474 0.108557
v -0.502830 1.619706 -0.114550
vt 0.750000 -0.307662
vt 0.100442 -0.046167
vt 0.100442 -0.307662
vt 1.963800 -0.307662
vt 1.399558 -0.046167
vt 1.399557 -0.307662
vt 0.000500 -0.025035
vt 0.500000 -0.999501
vt 0.500000 -0.025035
vt 0.382084 -0.025035
vt 0.999501 -0.999501
vt 0.999501 -0.025035
vt 0.000499 -0.999501
vt 0.617916 -0.999501
vt 0.191292 -0.025035
vt 0.808708 -0.999501
vt 0.808708 -0.025035
vt 0.590994 -0.304198
vt 0.239426 -0.412839
vt 0.544437 -0.784424
vt 0.100443 -0.743509
vt -0.463800 -0.466326
vt -0.463800 -0.743509
vt 0.750000 -0.743509
vt 0.750000 -0.466326
vt 0.100443 -0.466326
vt 1.963799 -0.743509
vt 1.399557 -0.466326
vt 1.399556 -0.743509
vt 0.382084 -0.999501
vt 0.191292 -0.999501
vt 0.412839 -0.000500
vt 0.784424 -0.000500
vt 0.617916 -0.025035
vt 0.215576 -0.000500
vt 0.695802 -0.000500
vt -0.463800 -0.046167
vt -0.463800 -0.307662
vt 2.536200 -0.307662
vt 1.963800 -0.046167
vt 2.536201 -0.743509
vt 2.536200 -0.466326
vt 1.963799 -0.466326
vt 0.750000 -0.046167
vt 1.209510 -0.019595
vt -0.807403 -0.019595
vt 0.067029 -0.019595
vt 2.536200 -0.046167
vt 0.409006 -0.000500
vt 0.760574 -0.000500
vt 2.192597 -0.019595
vt 0.544437 -0.000500
vn -0.822600 -0.055800 -0.565900
vn 0.303600 0.021000 0.952600
vn 0.810500 -0.009900 0.585600
vn -0.310000 -0.010000 -0.950700
vn -0.309600 -0.009900 0.950800
vn 0.809300 -0.009900 -0.587300
vn 0.808600 -0.010100 0.588200
vn -0.999900 -0.010000 -0.001600
vn 0.005900 1.000000 0.005000
vn 0.177800 0.260700 -0.948900
vn -0.449000 -0.682600 -0.576500
vn 0.156400 0.229300 0.960700
vn -0.308400 -0.010100 -0.951200
vn -1.000000 -0.010000 -0.000600
vn -0.442600 0.815800 0.372200
vn -0.312500 -0.010100 0.949900
vn 0.585200 0.808500 0.061500
vn 0.808000 -0.009800 -0.589100
vn 0.308700 0.027900 -0.950800
vn 0.996900 0.078800 0.002400
vn 0.537900 0.843000 -0.002300
vn 0.546300 0.837300 0.022500
vn 0.161600 0.255400 0.953200
vn -0.450200 -0.685000 0.572800
vn -0.441200 -0.678600 -0.587200
vn 0.159100 0.247700 -0.955700
vn -0.449800 -0.678400 0.580900
vn -0.824500 -0.059900 0.562700
vn -0.811500 -0.060800 -0.581200
vn 0.335800 0.036000 0.941200
vn 0.248200 0.968700 0.002700
vn 0.314200 0.026300 -0.949000
vn 0.996300 0.085300 -0.013900
vn 0.285300 0.781400 -0.555000
vn -0.490100 0.861700 -0.131400
vn -0.807000 -0.048400 0.588500
vn -0.233100 0.696900 -0.678200
vn -0.805700 0.592400 -0.001300
vn 0.675200 0.549300 -0.492300
vn -0.224600 0.685800 -0.692300
vn -0.582900 0.645700 -0.493300
vn 0.617800 0.309000 -0.723000
vn 0.337700 0.623700 0.704900
vn -0.651600 0.537900 0.534800
vn 0.255800 0.148900 -0.955200
vn 0.869300 0.494300 0.004300
vn 0.987000 0.160000 -0.013300
vn 0.398200 0.686800 0.608000
vn -0.259400 0.530200 0.807200
vn 0.683700 0.531600 0.500000
vn -0.707700 -0.406000 -0.578200
vn -0.708000 -0.406000 0.577800
vn 0.866100 0.499900 -0.004200
vn 0.258100 0.144800 0.955200
vn 0.261100 0.151500 0.953400
vn -0.708300 -0.407000 0.576700
vn -0.709600 -0.405500 -0.576200
vn 0.262700 0.148400 -0.953400
usemtl NW_SEQ_NATURE_CACTUS_01
s off
f 3/1/1 28/2/1 36/3/1
f 34/4/2 29/5/2 35/6/2
f 32/7/3 8/8/3 6/9/3
f 27/10/4 7/11/4 9/12/4
f 5/7/5 13/13/5 4/14/5
f 6/9/6 8/8/6 12/11/6
f 32/7/7 4/13/7 8/8/7
f 9/15/8 13/16/8 5/17/8
f 15/18/9 26/19/9 14/20/9
f 1/21/10 30/22/10 17/23/10
f 19/24/11 33/25/11 20/26/11
f 10/27/12 21/28/12 11/29/12
f 27/10/13 12/30/13 7/11/13
f 9/15/14 7/31/14 13/16/14
f 26/32/15 5/17/15 14/33/15
f 5/7/16 4/14/16 32/34/16
f 14/35/17 6/9/17 15/36/17
f 6/9/18 12/11/18 27/12/18
f 36/3/19 24/37/19 16/38/19
f 16/39/20 31/40/20 34/4/20
f 17/41/21 30/42/21 18/43/21
f 17/41/22 18/43/22 10/27/22
f 10/27/23 18/43/23 21/28/23
f 11/29/24 33/25/24 19/24/24
f 19/24/25 20/26/25 1/21/25
f 1/21/26 20/26/26 30/22/26
f 11/29/27 21/28/27 33/25/27
f 35/6/28 22/44/28 3/1/28
f 3/1/29 22/44/29 28/2/29
f 34/4/30 31/40/30 29/5/30
f 25/45/31 23/46/31 2/47/31
f 36/3/32 28/2/32 24/37/32
f 16/39/33 24/48/33 31/40/33
f 28/2/34 23/46/34 24/37/34
f 22/44/35 25/45/35 2/47/35
f 35/6/36 29/5/36 22/44/36
f 15/49/37 9/12/37 26/50/37
f 26/32/38 9/15/38 5/17/38
f 15/36/39 6/9/39 27/12/39
f 15/49/40 27/10/40 9/12/40
f 22/44/41 2/47/41 28/2/41
f 28/2/42 2/47/42 23/46/42
f 31/40/43 25/45/43 29/5/43
f 29/5/44 25/45/44 22/44/44
f 20/26/45 16/38/45 30/22/45
f 30/42/46 16/39/46 34/4/46
f 24/48/47 23/51/47 31/40/47
f 31/40/48 23/51/48 25/45/48
f 14/52/49 5/7/49 32/34/49
f 14/35/50 32/7/50 6/9/50
f 33/25/51 3/1/51 36/3/51
f 21/28/52 3/1/52 33/25/52
f 30/42/53 34/4/53 18/43/53
f 18/43/54 34/4/54 35/6/54
f 18/43/55 35/6/55 21/28/55
f 21/28/56 35/6/56 3/1/56
f 33/25/57 36/3/57 20/26/57
f 20/26/58 36/3/58 16/38/58
