# Blender v2.75 (sub 0) OBJ File: 'Empty.blend'
# www.blender.org
mtllib ADDON_MISC_HOLZWAND_01.mtl
o ADDON_MISC_HOLZWAND_01
v -0.208418 2.544486 2.935019
v -0.426533 2.399154 -3.282300
v -0.202944 2.494677 -0.141905
v 0.532593 -4.150158 2.783457
v -0.118769 1.429871 2.786406
v -0.240444 4.160966 3.118730
v -0.177300 2.146663 2.979692
v -0.397138 1.908963 -3.240108
v -0.285493 1.677742 1.332705
v -0.493984 1.764621 -3.084844
v -0.177270 -3.744157 -2.326231
v -0.424531 2.872202 -2.860923
v -0.121528 1.082302 3.128886
v -0.328022 0.599529 -3.107788
v -0.082324 0.311427 3.166044
v -0.288095 -0.141262 -3.065371
v -0.047417 -0.263435 3.229521
v -0.253330 -0.783989 -3.023355
v -0.018642 -0.797204 3.282285
v -0.369428 1.391374 -3.211651
v -0.149121 1.662942 3.068222
v -0.251133 2.164124 1.310849
v -0.164238 1.464065 2.915591
v -0.370190 1.284047 -3.178750
v -0.335844 0.827455 -3.164073
v -0.229497 -1.228652 -3.000713
v -0.370605 4.040735 2.780786
v 0.168589 -0.376135 2.775342
v 0.448692 -4.157461 3.151552
v -0.137417 1.091303 2.934995
v -0.079326 0.072602 3.143017
v -0.289848 -0.236549 -3.146201
v -0.213852 -0.575302 -3.047686
v -0.053149 -0.269076 3.161523
v -0.560830 2.766824 -3.126485
v -0.245259 -0.760649 -2.853731
v -0.198354 -3.765923 -2.606485
v -0.180259 2.283018 3.023549
v -0.400561 2.136222 -3.256324
v -0.057363 -3.744943 -2.334199
v 0.013506 1.442591 2.768740
v -0.078471 -3.766709 -2.614453
v 0.560845 -4.146675 3.136601
v 0.420454 -4.160944 2.798418
v -0.439009 2.790725 -3.103643
v -0.257197 4.079810 2.806782
v -0.248579 0.022953 1.813974
v -0.351450 -0.757710 -2.817822
v -0.540981 2.810749 -2.847998
v -0.240063 2.787034 2.735146
v -0.337002 2.137659 -3.189722
v -0.267768 2.231879 -0.118018
v 0.070132 -0.385527 2.825039
v -0.345068 4.072039 3.133862
v -0.334609 1.464439 -0.119580
v -0.178808 -1.060017 0.433847
v -0.088437 1.707608 3.014755
v -0.110854 2.099411 2.951289
v 0.084683 -0.383438 3.143432
v 0.041787 1.446077 3.121884
v -0.095976 2.801759 3.119902
v -0.084721 1.433794 3.084912
v -0.304013 0.686304 -2.970361
v -0.445429 0.687234 -2.960948
v -0.321089 2.520214 -0.147071
v -0.158882 2.543658 2.903945
v -0.238511 1.694715 1.334629
v -0.114199 1.428412 2.889941
v -0.029975 0.046503 3.116474
v -0.303886 0.878582 -1.361919
v -0.149389 -0.584815 0.423623
v -0.209438 -0.781643 -3.006333
v -0.154013 -0.423841 0.381435
v -0.184575 -0.361592 1.825341
v -0.257417 -0.561898 -3.055386
v -0.363584 2.400188 -3.232964
v -0.185298 -1.237615 -2.977197
v -0.308340 1.425414 -3.147500
v -0.331015 1.840768 -3.185166
v -0.246655 -0.097634 -3.044385
v -0.182719 -0.074480 0.375781
v -0.093769 1.125794 2.883398
v -0.266992 1.011100 1.745078
v -0.071245 1.024391 3.103672
v -0.232041 -0.537730 0.425039
v -0.001191 -0.267248 3.186093
v -0.356377 0.865624 -1.364600
v -0.131333 2.281775 2.974775
v -0.008833 -0.244701 3.110908
v -0.245893 1.428689 -0.109883
v -0.319277 1.229915 -3.123965
v 0.027388 -0.789573 3.234111
v -0.188344 0.143853 1.777412
v -0.135981 0.164973 1.779941
v -0.039038 0.368120 3.113965
v -0.344062 -0.738099 -2.565518
v -0.282876 0.708070 -2.690098
v -0.350244 1.788470 -2.775596
v -0.416753 0.705642 -2.723701
v -0.243935 -0.227146 -3.095762
v -0.290307 0.850667 -3.096626
v -0.177925 0.952733 1.755244
v -0.280176 0.515255 -3.094395
v -0.195688 2.231773 -0.116358
v -0.132168 2.797467 2.749160
v -0.330469 2.211113 1.303105
v -0.379355 1.765608 -3.070044
v -0.125508 -1.046389 0.422363
v -0.470107 1.789252 -2.767627
v -0.208095 2.790972 3.134863
v -0.224175 -0.738885 -2.573482
v 0.196826 -0.372655 3.128481
vt 0.999442 -0.500000
vt -0.117262 -0.500000
vt -0.117261 -1.504639
vt 0.575387 0.504639
vt 0.575384 -0.500000
vt 0.999786 -0.500000
vt 0.883123 -0.721930
vt 0.000500 -0.721930
vt 0.000500 -1.387806
vt 0.116877 -0.277217
vt 0.866325 -0.277217
vt 0.999500 0.054789
vt -0.191268 0.456890
vt -0.099581 -0.932599
vt 0.841756 -0.932945
vt 0.818037 0.456145
vt 0.615298 -0.933452
vt 0.767848 -0.936012
vt -0.699145 -0.697498
vt 0.207928 -0.685414
vt 0.083079 0.846142
vt 0.875311 0.869010
vt 0.767954 -0.682944
vt 1.766955 -0.693928
vt 1.731017 0.864948
vt -0.627651 0.847586
vt 0.388019 -1.035786
vt 0.665296 -1.022993
vt 0.621397 0.124675
vt 0.385049 0.133311
vt 0.325934 -1.025263
vt 0.640138 -1.035717
vt 0.722282 0.456145
vt 1.136838 0.435477
vt 0.402395 0.439397
vt 0.241226 -0.936012
vt -0.282562 -1.462987
vt 0.576820 -1.444794
vt 0.503406 -1.436601
vt 1.198745 -1.448816
vt 1.069620 -0.934463
vt 1.004278 -0.507826
vt 0.968274 0.251368
vt 0.107795 0.254509
vt 0.850518 0.236829
vt 0.135281 0.237946
vt 0.063655 -0.510586
vt 0.653283 0.129011
vt 0.346067 0.122245
vt 0.000499 0.054789
vt 0.000500 -0.277217
vt 0.883123 -0.277217
vt 0.929236 0.054789
vt 0.207295 -0.721930
vt 0.999500 -0.721930
vt 0.116877 -1.387806
vt 0.883123 -1.387806
vt 0.003446 -0.184345
vt 0.000502 -1.248518
vt 0.702366 -1.254509
vt 0.361942 -1.247976
vt 0.929524 -1.237623
vt 0.972391 -0.186254
vt 0.673077 0.437996
vt 0.334492 0.439389
vt 0.300432 -0.605529
vt 0.731871 -1.048036
vt 0.714751 0.456142
vt 0.307100 0.460062
vt 0.255956 -1.037437
vt 0.732554 -0.593869
vt 0.999500 0.368679
vt 0.116877 0.361869
vt 0.936704 0.054789
vt 0.441377 0.054554
vt 0.370869 -0.277217
vt 0.000558 -0.500000
vt 0.000558 -1.504639
vt 1.117261 -1.504639
vt 0.999442 -1.504639
vt 1.117262 -0.500000
vt 1.117262 0.504639
vt 0.000559 0.504639
vt 0.999441 0.504639
vt -0.117262 0.504639
vt 0.000314 -1.387806
vt 0.533236 -1.387806
vt 0.533236 -0.721930
vt 0.999685 -0.277217
vt 0.458017 -0.721991
vt 0.466764 -1.387806
vt 0.999685 -1.387806
vt 0.948531 -0.721930
vt 0.999500 0.387806
vt 0.209202 0.377551
vt 0.924870 0.054888
vt 0.999685 0.361869
vt 0.712058 -1.460062
vt 0.339072 0.456142
vt 0.000191 -1.048036
vt 0.176352 -0.605529
vt 0.596218 0.054789
vt 0.139834 0.054812
vt 0.048200 -0.277217
vt 1.117262 -0.000211
vt 0.000559 -0.000211
vt 0.000559 -0.424613
vt 0.424618 -1.504639
vt 0.424615 -0.500000
vt 0.000214 -0.500000
vt 0.356539 0.525938
vt 0.000211 0.504639
vt 0.635247 0.251368
vt 0.436831 -0.507967
vt 0.521465 -0.510586
vt 0.350886 -1.992222
vt 0.674066 -1.988794
vt 0.296861 0.124675
vt 0.561848 -1.022993
vt 0.634651 -1.025263
vt 0.290196 -0.934463
vt 0.791026 -1.448816
vt 0.999501 -1.462987
vt 1.680861 -0.768748
vt 1.200997 -0.765665
vt 1.249496 -0.829161
vt 1.637051 -0.826455
vt 0.214814 -1.436601
vt 0.409267 -0.932945
vt 0.999500 -1.387806
vt 0.000314 -0.721930
vt 0.780349 0.368679
vt 0.000026 0.387814
vt 0.063296 0.054789
vt 0.533236 0.387806
vt 0.629130 -0.277217
vt 0.999784 -1.504639
vt 0.999442 -0.000216
vt -0.115134 -0.095738
vt -0.117261 -0.424618
vt 0.857211 -1.515330
vt 0.002749 0.435477
vt 0.382555 -0.934372
vt 0.513756 -0.932599
vt 0.397243 -0.932572
vt 0.680130 -0.805141
vt 1.113419 -0.793260
vt 1.161509 -0.759944
vt 0.316774 -0.507826
vt -0.032734 -1.254036
vt 0.122951 -1.247976
vt -0.667617 -0.803427
vt -0.222230 -0.792139
vt -0.185345 -0.758231
vt 0.058421 -1.459848
vt 0.120355 -1.451908
vt 0.999632 -1.248518
vt 0.541422 -0.184701
vt 0.475499 -0.186254
vt 0.326157 -1.975152
vt 0.647349 0.129011
vt 0.329762 -1.035717
vt 0.436473 -1.035786
vt 0.680992 0.122733
vt -1.019574 -0.999051
vt -0.584095 -1.003257
vt -0.583780 -1.039893
vt 0.318521 -1.451908
vt 0.678079 -1.438986
vt 0.617879 0.437996
vt 0.836055 -0.612602
vt 0.965598 -1.037437
vt 0.288647 -1.452584
vt 0.931980 -1.452584
vt 0.822353 -0.593869
vt 0.660778 0.460062
vt -0.031233 -1.040600
vt -0.567356 -1.012909
vt -0.546960 -0.999681
vt 0.751750 0.489076
vt 1.116745 -0.350034
vt 0.340416 0.133233
vt -1.030782 -1.038714
vt 0.181963 0.456890
vt 1.988080 -1.063853
vt 1.580051 -1.072184
vt 1.553190 -1.007925
vt 0.999501 0.439397
vt 2.060147 -1.008636
vt 0.902794 -0.682944
vt 0.123468 0.869010
vt 0.002201 0.846142
vt 0.688124 -1.041657
vt 0.086225 -1.040275
vt 0.045960 -1.000539
vt 0.879231 -1.237623
vt 0.625867 -0.757608
vt 1.725364 -1.120937
vt -0.731017 0.864948
vt -0.787611 -0.682683
vt -0.064893 -0.804314
vt 0.575857 -0.793295
vt 0.629480 -0.759409
vt 0.000500 -0.693928
vt 0.071792 -1.120250
vt 0.257846 -1.112486
vt 0.363904 -1.975152
vt -1.204362 -0.802781
vt -0.690854 -0.802528
vt -0.691232 -0.757589
vt 0.323454 -1.988884
vt 0.263921 0.236829
vt 0.506672 -0.185952
vt 0.603094 -0.184345
vt 0.128627 -1.488664
vt 0.999442 -0.424618
vt 0.867179 -1.439293
vt -0.709671 -0.755910
vt 0.737490 0.237946
vt 0.846996 -1.001600
vt 1.502334 -1.011637
vt 1.419149 -1.042695
vt -1.216336 -0.755306
vt 0.703920 -1.992222
vt 0.836575 -1.113187
vt 0.807244 -0.695919
vt -0.661174 -1.112486
vt 0.093579 -1.099094
vt 0.890093 -1.113187
vt 0.823133 -0.683911
vt 0.748806 -0.685414
vt 0.744788 -1.099094
vt -0.125037 -0.756772
vt 0.363541 0.442607
vt -0.040482 -1.000181
vt 0.364403 0.254509
vt 0.873435 -1.041369
vt 0.247531 -0.697498
vt 0.771865 -1.012856
vt 0.463590 0.368679
vt -0.133020 -1.444602
vt 0.642238 -1.977303
vt 0.637970 -1.977291
vt 0.000314 0.368679
vt 0.456772 -0.721599
vn 0.999500 0.026100 -0.014900
vn 0.212900 0.976000 -0.044800
vn 0.992200 0.095500 -0.080300
vn -0.989000 -0.094100 0.114000
vn -0.996300 -0.082700 0.023600
vn 0.513200 0.855800 -0.064400
vn 0.995700 0.049000 -0.078700
vn -0.991400 -0.043800 0.123200
vn 0.998300 0.052300 -0.025800
vn -0.995700 -0.089300 0.025800
vn -0.998500 -0.052800 0.017000
vn 0.998300 0.052500 -0.025800
vn 0.998500 0.051700 -0.020500
vn -0.994700 -0.101000 0.019600
vn -0.998500 -0.052500 0.018100
vn 0.998400 0.052600 -0.021500
vn -0.996000 -0.043800 0.077900
vn 0.995100 0.042500 -0.089200
vn 0.999500 0.026000 -0.017100
vn 0.996200 0.022500 -0.084300
vn -0.997100 -0.074500 0.016000
vn 0.996800 0.074000 -0.029200
vn -0.998500 -0.053000 0.010000
vn 0.998500 0.051600 -0.020400
vn -0.993100 -0.085700 0.080300
vn 0.991200 0.105400 -0.080400
vn 0.993200 0.084400 -0.080200
vn -0.988400 -0.100400 0.114100
vn -0.994600 -0.092600 0.046100
vn -0.996100 -0.068800 0.054300
vn 0.996200 0.068400 -0.053300
vn 0.996300 0.083200 -0.021200
vn -0.995300 -0.095500 0.013300
vn -0.986300 -0.163500 0.021400
vn 0.996400 0.081500 -0.021000
vn -0.994700 -0.063000 0.080800
vn 0.994900 0.062100 -0.079900
vn 0.128300 -0.082300 -0.988300
vn -0.990900 -0.052200 0.123800
vn -0.998300 -0.048500 0.033000
vn 0.995700 0.049000 -0.078800
vn -0.994800 -0.097200 0.029300
vn 0.994900 0.098600 -0.022300
vn -0.994800 -0.094600 0.037100
vn 0.994300 0.091700 -0.054500
vn 0.066600 0.082800 0.994300
vn -0.131000 -0.014800 -0.991300
vn -0.127600 -0.048800 -0.990600
vn -0.066600 -0.073300 -0.995100
vn 0.130700 0.014700 0.991300
vn -0.131700 -0.005200 -0.991300
vn -0.127000 0.942600 -0.308800
vn 0.128300 -0.032600 -0.991200
vn -0.269800 0.935300 -0.228800
vn 0.128800 -0.000500 -0.991700
vn -0.978600 -0.159000 0.130600
vn 0.273800 0.960300 -0.052500
vn -0.321200 -0.092800 -0.942400
vn -0.321100 -0.114000 -0.940200
vn -0.473200 0.874800 -0.104200
vn 0.066600 0.043700 0.996800
vn -0.991000 -0.106100 0.081100
vn 0.124000 0.049000 -0.991100
vn 0.723300 -0.040300 -0.689400
vn -0.001900 -0.999900 0.016300
vn -0.983100 -0.177100 0.047000
vn -0.009800 -0.999500 0.030900
vn -0.446700 -0.045000 -0.893500
vn -0.444700 -0.065300 -0.893300
vn -0.649200 0.760300 -0.020500
vn 0.134500 -0.024200 0.990600
vn -0.995200 -0.080000 0.055900
vn 0.378600 0.923700 -0.058900
vn -0.997000 -0.047800 0.060500
vn 0.257500 -0.965000 0.049800
vn 0.566600 -0.822800 -0.044300
vn 0.572500 0.179800 0.800000
vn 0.485500 0.166800 0.858200
vn 0.510300 0.860000 -0.009700
vn -0.992200 -0.095500 0.080300
vn 0.991200 0.105300 -0.080600
vn 0.130900 0.014800 0.991300
vn -0.278000 -0.026800 0.960200
vn 0.990100 0.100500 -0.097800
vn -0.994800 -0.091200 0.046100
vn -0.280900 0.004700 0.959700
vn 0.996400 0.034200 -0.077600
vn -0.066700 -0.082900 -0.994300
vn -0.996300 -0.036000 0.077800
vn -0.066700 -0.117000 -0.990900
vn -0.983300 -0.178100 0.037300
vn 0.212000 0.977100 -0.018800
vn 0.514400 0.273900 0.812700
vn 0.011500 0.999900 -0.008300
vn 0.337500 -0.939900 0.051200
vn 0.340800 -0.939500 -0.034800
vn 0.462900 0.012100 0.886300
vn 0.569100 0.821600 -0.031800
vn 0.481100 0.018200 0.876500
vn 0.428200 0.899400 -0.088100
vn 0.991900 -0.126900 0.009800
vn 0.237600 -0.970600 0.038800
vn 0.996900 0.051700 -0.059400
vn 0.493100 0.867500 -0.065000
vn -0.031300 0.997900 -0.056700
vn 0.362700 -0.028000 -0.931500
vn 0.995600 0.073400 -0.057800
vn 0.027300 -0.998700 0.043600
vn -0.992200 -0.070500 0.102500
vn 0.213300 -0.975900 0.046600
vn -0.300800 -0.952700 0.043600
vn 0.135600 -0.124000 -0.983000
vn 0.007800 0.999500 -0.031000
vn 0.616900 -0.016800 -0.786800
vn -0.224500 -0.973100 0.051100
vn 0.464400 -0.032000 -0.885000
vn 0.447200 -0.893100 0.048000
vn 0.729800 -0.022100 -0.683300
vn 0.740800 0.668900 -0.061300
vn 0.633800 -0.008600 -0.773500
vn 0.718500 -0.695000 0.026100
vn 0.488200 -0.044400 -0.871600
vn 0.995000 0.080800 -0.059000
vn 0.226100 0.972500 -0.055500
vn 0.630100 -0.776400 0.014000
vn 0.730800 0.087800 0.676900
vn -0.990400 -0.085800 0.108500
vn 0.552600 0.829800 -0.077300
vn 0.482000 0.037400 0.875400
vn 0.725900 0.678700 -0.111200
vn -0.992200 -0.099900 0.075100
vn 0.489500 0.863000 -0.125500
vn 0.685500 0.103800 0.720600
vn -0.008800 0.995300 -0.096800
vn -0.998000 0.062700 -0.012700
vn 0.238800 -0.970900 0.017500
vn -0.009100 -0.999800 0.016400
vn 0.677200 0.300400 0.671700
vn 0.507400 -0.861200 0.029500
vn 0.726600 0.092500 0.680800
vn 0.999000 -0.005500 -0.043900
vn 0.375300 0.926800 -0.016400
vn 0.757300 0.650200 -0.061300
vn 0.749100 0.035100 -0.661500
vn 0.710300 0.107100 0.695700
vn 0.262000 -0.962200 0.074000
vn -0.995600 -0.046700 0.081600
vn 0.372000 -0.927300 0.041900
vn 0.995700 0.047600 -0.079600
vn 0.369300 -0.925600 0.083500
vn 0.807900 -0.588500 0.030900
vn 0.728400 0.069900 0.681500
vn -0.995700 -0.049000 0.078700
vn 0.994900 0.061900 -0.080100
vn 0.066600 0.082900 0.994300
vn -0.244000 0.061400 0.967800
vn 0.993300 0.053800 -0.102400
vn -0.998400 -0.046700 0.032900
vn -0.244000 0.093500 0.965300
vn -0.157500 0.986700 -0.040600
vn 0.745100 -0.109400 -0.657900
vn 0.425500 -0.904600 0.024000
vn 0.825000 0.022300 -0.564700
vn 0.995400 0.050400 -0.081400
vn 0.553000 0.828600 -0.087800
vn 0.872100 0.485300 -0.062200
vn 0.193900 -0.045700 -0.980000
vn 0.998600 0.023000 -0.046600
vn -0.002200 -0.999500 0.030700
vn 0.990100 0.100900 -0.097800
vn 0.202100 0.063600 -0.977300
vn -0.993000 -0.078900 0.087700
vn 0.573500 0.819000 -0.020900
vn 0.993200 0.054400 -0.102400
vn 0.188300 -0.021200 -0.981900
vn 0.997100 0.049200 -0.058700
vn 0.239400 -0.968000 0.075400
vn -0.994800 -0.062700 0.079800
vn -0.991100 -0.105900 0.080300
vn 0.130800 0.014800 0.991300
vn 0.996400 0.034200 -0.077800
vn 0.993200 0.084400 -0.080400
usemtl NW_CITY_WOOD_ORNAMENT_02
s off
f 104/1/1 3/2/1 66/3/1
f 2/4/2 65/5/2 3/6/2
f 28/7/3 112/8/3 43/9/3
f 5/10/4 62/11/4 110/12/4
f 20/13/5 9/14/5 106/15/5
f 8/16/6 106/17/6 22/18/6
f 36/7/7 111/8/7 40/9/7
f 64/10/8 99/11/8 109/12/8
f 102/19/9 94/20/9 80/21/9
f 16/22/10 93/23/10 83/24/10
f 83/24/11 14/25/11 16/22/11
f 80/21/12 103/26/12 102/19/12
f 71/27/13 108/28/13 77/29/13
f 26/30/14 56/31/14 85/32/14
f 106/15/15 8/33/15 20/13/15
f 78/34/16 79/35/16 22/36/16
f 9/14/17 21/37/17 7/38/17
f 58/39/18 57/40/18 67/41/18
f 22/36/19 67/41/19 78/34/19
f 67/41/20 22/36/20 58/39/20
f 55/42/21 24/43/21 25/44/21
f 101/45/22 91/46/22 90/47/22
f 85/32/23 18/48/23 26/30/23
f 77/29/24 72/49/24 71/27/24
f 110/12/25 50/50/25 5/10/25
f 60/51/26 41/52/26 105/53/26
f 112/8/27 28/7/27 41/52/27
f 62/11/28 5/10/28 53/54/28
f 59/55/29 53/54/29 44/56/29
f 43/9/3 4/57/3 28/7/3
f 87/58/30 30/59/30 23/60/30
f 68/61/31 82/62/31 70/63/31
f 33/64/32 100/65/32 81/66/32
f 47/67/33 32/68/33 75/69/33
f 75/69/34 74/70/34 47/67/34
f 81/66/35 73/71/35 33/64/35
f 49/72/36 35/73/36 10/50/36
f 97/51/37 63/52/37 107/53/37
f 10/74/38 107/75/38 63/76/38
f 99/11/39 64/10/39 48/54/39
f 96/55/40 48/54/40 37/56/40
f 40/9/41 42/57/41 36/7/41
f 52/77/42 38/78/42 1/79/42
f 66/3/43 88/80/43 104/1/43
f 65/81/44 2/82/44 39/83/44
f 51/84/45 76/85/45 3/2/45
f 11/86/46 40/87/46 111/88/46
f 5/89/47 41/76/47 28/90/47
f 41/76/48 5/89/48 50/74/48
f 42/91/49 37/92/49 48/93/49
f 29/86/50 43/87/50 112/88/50
f 4/91/51 44/92/51 53/93/51
f 12/94/52 45/95/52 35/73/52
f 107/75/53 10/96/53 35/97/53
f 6/94/54 46/95/54 27/73/54
f 50/74/55 105/75/55 41/76/55
f 31/98/56 47/67/56 74/70/56
f 32/99/57 47/100/57 81/101/57
f 48/93/58 36/90/58 42/91/58
f 36/90/59 48/93/59 64/89/59
f 35/73/60 49/72/60 12/94/60
f 98/102/61 109/103/61 99/104/61
f 54/72/62 27/73/62 50/50/62
f 105/75/63 50/96/63 27/97/63
f 76/105/64 51/106/64 39/107/64
f 38/108/65 52/109/65 104/110/65
f 39/83/66 52/77/66 65/81/66
f 52/109/67 39/111/67 51/112/67
f 53/93/68 28/90/68 4/91/68
f 28/90/69 53/93/69 5/89/69
f 27/73/70 54/72/70 6/94/70
f 61/102/71 110/103/71 62/104/71
f 23/60/72 55/42/72 87/58/72
f 24/113/73 55/114/73 90/115/73
f 56/31/74 19/116/74 17/117/74
f 77/118/75 108/119/75 56/120/75
f 67/121/76 57/122/76 21/123/76
f 7/124/77 21/125/77 57/126/77
f 57/126/78 58/127/78 7/124/78
f 58/128/79 22/18/79 106/129/79
f 44/56/80 29/130/80 59/55/80
f 112/88/50 59/131/50 29/86/50
f 46/132/81 6/133/81 61/50/81
f 110/134/82 61/102/82 6/135/82
f 62/104/83 60/136/83 61/102/83
f 105/53/84 61/50/84 60/51/84
f 53/54/85 59/55/85 62/11/85
f 60/136/86 62/104/86 59/131/86
f 111/8/87 36/7/87 63/52/87
f 64/89/88 63/76/88 36/90/88
f 109/12/89 10/50/89 64/10/89
f 63/76/90 64/89/90 10/74/90
f 1/79/91 65/81/91 52/77/91
f 66/137/92 3/6/92 65/5/92
f 88/138/93 66/139/93 1/140/93
f 65/5/94 1/141/94 66/137/94
f 78/142/95 67/143/95 9/144/95
f 21/123/96 9/145/96 67/121/96
f 82/146/97 68/147/97 23/148/97
f 55/149/98 23/150/98 68/151/98
f 89/152/99 69/153/99 31/154/99
f 47/100/100 31/155/100 69/156/100
f 90/47/101 70/63/101 101/45/101
f 30/157/102 87/158/102 70/159/102
f 108/28/103 71/27/103 86/160/103
f 18/161/104 85/162/104 71/163/104
f 71/163/105 72/164/105 18/161/105
f 26/165/106 18/166/106 72/167/106
f 69/168/107 89/169/107 73/71/107
f 33/170/108 73/171/108 74/172/108
f 74/70/109 34/173/109 31/98/109
f 34/174/110 74/172/110 73/175/110
f 74/172/111 75/176/111 33/170/111
f 100/177/112 33/178/112 75/179/112
f 3/6/113 76/180/113 2/4/113
f 39/107/114 2/181/114 76/105/114
f 56/120/115 26/182/115 77/118/115
f 72/167/116 77/183/116 26/165/116
f 9/144/117 20/184/117 78/142/117
f 79/185/118 78/186/118 20/187/118
f 22/18/119 79/188/119 8/16/119
f 20/187/120 8/189/120 79/185/120
f 93/190/121 16/191/121 80/192/121
f 103/193/122 80/194/122 16/195/122
f 73/71/123 81/66/123 69/168/123
f 69/156/124 81/101/124 47/100/124
f 70/159/125 82/196/125 30/157/125
f 23/148/126 30/197/126 82/146/126
f 13/198/127 83/24/127 93/23/127
f 14/199/128 83/200/128 102/19/128
f 95/201/129 84/202/129 13/203/129
f 83/204/130 13/205/130 84/206/130
f 17/117/131 85/32/131 56/31/131
f 86/207/132 71/163/132 85/162/132
f 92/208/133 86/209/133 17/210/133
f 85/162/134 17/211/134 86/207/134
f 25/44/135 87/58/135 55/42/135
f 101/212/136 70/213/136 87/214/136
f 104/110/137 88/215/137 38/108/137
f 1/140/138 38/216/138 88/138/138
f 73/175/139 89/217/139 34/174/139
f 31/154/140 34/218/140 89/152/140
f 70/63/141 90/47/141 68/61/141
f 68/151/142 90/115/142 55/149/142
f 90/115/143 91/219/143 24/113/143
f 25/220/144 24/221/144 91/222/144
f 17/210/145 19/223/145 92/208/145
f 19/224/146 56/120/146 108/119/146
f 93/23/147 15/225/147 13/198/147
f 80/192/148 94/226/148 93/190/148
f 84/227/149 95/228/149 94/20/149
f 15/229/150 93/230/150 94/231/150
f 94/231/151 95/232/151 15/229/151
f 13/203/152 15/233/152 95/201/152
f 37/56/153 11/130/153 96/55/153
f 111/88/46 96/131/46 11/86/46
f 45/132/154 12/133/154 98/50/154
f 109/134/155 98/102/155 12/135/155
f 99/104/156 97/136/156 98/102/156
f 107/53/157 98/50/157 97/51/157
f 48/54/158 96/55/158 99/11/158
f 97/136/159 99/104/159 96/131/159
f 81/101/160 100/234/160 32/99/160
f 75/179/161 32/235/161 100/177/161
f 87/214/162 25/236/162 101/212/162
f 91/222/163 101/237/163 25/220/163
f 94/20/164 102/19/164 84/227/164
f 84/206/165 102/238/165 83/204/165
f 102/19/166 103/26/166 14/199/166
f 16/195/167 14/239/167 103/193/167
f 3/2/168 104/1/168 51/84/168
f 51/112/169 104/110/169 52/109/169
f 61/50/170 105/53/170 46/132/170
f 27/97/171 46/240/171 105/75/171
f 7/38/172 106/15/172 9/14/172
f 106/129/173 7/241/173 58/128/173
f 98/50/174 107/53/174 45/132/174
f 35/97/175 45/240/175 107/75/175
f 86/160/176 92/242/176 108/28/176
f 108/119/177 92/243/177 19/224/177
f 10/50/178 109/12/178 49/72/178
f 12/135/155 49/244/155 109/134/155
f 50/50/179 110/12/179 54/72/179
f 6/135/180 54/244/180 110/134/180
f 96/131/46 111/245/46 97/136/46
f 63/52/181 97/51/181 111/8/181
f 59/131/50 112/245/50 60/136/50
f 41/52/182 60/51/182 112/8/182
