# Blender v2.75 (sub 0) OBJ File: 'Empty.blend'
# www.blender.org
mtllib ADDON_CANYONPLANT_CACTUSBIG_01_165P.mtl
o ADDON_CANYONPLANT_CACTUSBIG_01_165P
v -0.342061 1.687740 -0.980633
v 0.088353 -0.097489 -0.332923
v -0.249241 0.943278 -0.736082
v -0.663741 1.904937 0.021477
v -0.537578 1.051082 0.084498
v -0.468321 0.398498 0.016486
v -0.111160 -0.137301 -0.018485
v 1.357129 1.496223 -0.637325
v 1.222947 0.656432 -0.635734
v 0.876019 0.154912 -0.436851
v 0.580998 1.679024 0.789741
v 0.684140 0.836437 0.841364
v 0.539191 0.250001 0.625684
v 0.441430 -0.124307 -0.068083
v 0.193398 -0.161224 0.287835
v -0.102750 0.370049 -0.627333
v 0.265658 1.509328 -0.263944
v 0.010023 -0.207140 -0.166117
v 0.140105 -0.236690 -0.090941
v 1.149278 0.927522 0.268375
v 0.302784 -0.187670 -0.064139
v 0.247042 -0.084784 -0.014032
v -0.068621 0.927522 -1.343982
v 0.174581 -0.187670 -0.467644
v 0.248134 -0.084784 -0.453224
v -0.473049 0.641178 -0.574660
v -0.433240 -0.179598 -0.355577
v -0.318111 -0.140603 -0.382744
v 0.348151 1.416846 -0.263918
v 0.000010 2.333768 -0.000010
v -0.030614 -0.158339 0.046579
v -0.037818 2.239071 0.057538
v -0.528493 1.052970 -0.036660
v -0.152362 0.946783 -0.789722
v 0.061258 -0.158339 -0.000010
v -0.633503 1.824350 0.074987
v 0.186003 0.511754 -0.139386
v 0.011350 -0.180347 -0.030203
v 1.364266 1.419050 -0.698616
v 0.652100 1.613263 0.809312
v -0.528885 0.572531 -0.530694
v 1.173819 0.844231 0.221223
v -0.121054 0.844231 -1.335245
v -0.044542 1.325416 -0.067787
v -0.360712 1.620422 -0.920136
v -0.183754 -0.176083 0.018120
v 0.203858 -0.095227 0.234309
v 0.404478 -0.050222 -0.089901
v 0.090934 0.161240 -1.011402
v 0.280874 -0.193071 -0.511580
v 0.787589 0.161240 0.195927
v 0.273991 -0.193071 0.047214
v -0.396608 -0.198096 -0.460501
v 0.148168 -0.050518 -0.301916
v 1.280923 0.654909 -0.539144
v 0.590932 0.836437 0.904652
v 0.318063 0.483769 -0.204439
v 0.401578 -0.123260 -0.134477
v 0.257467 -0.161224 0.244332
v 0.082036 -0.054354 -0.264342
v -0.116786 -0.140306 0.064797
v -0.205444 -0.103759 0.021477
v -0.030614 -0.158339 -0.046599
v -0.013071 0.166526 -0.968411
v 0.815763 0.166526 0.086971
v 0.935270 0.153355 -0.338137
v 0.443933 0.250001 0.690365
v 1.167067 0.705291 -0.535716
v 0.576470 0.859295 0.783072
v -0.362244 0.437115 0.085884
v -0.107610 0.422201 -0.518453
v -0.727251 1.821637 0.017331
v -0.362148 1.602481 -1.018890
v 0.723936 0.241534 0.125114
v 1.149897 0.839743 0.313735
v -0.497782 0.556825 -0.619782
v 0.072615 0.241534 -0.917964
v -0.032747 0.839743 -1.371747
v 0.572960 1.613263 0.863049
v 1.413492 1.417757 -0.616604
v 0.000010 -0.143391 -0.000010
v 0.185979 0.496527 -0.274081
v 0.234331 1.409994 -0.320484
v 0.844635 0.242010 -0.349488
v 0.440010 0.316836 0.582101
v -0.037818 2.239071 -0.057558
v -0.625628 1.824578 -0.027886
v 0.075666 2.239071 -0.000010
v -0.278247 1.622193 -0.965369
v 0.235256 1.411403 -0.205401
v -0.353333 0.440358 -0.037939
v -0.008904 0.426899 -0.573737
v -0.045522 0.576530 0.069258
v -0.645725 1.028608 0.016593
v -0.248035 0.905245 -0.848013
v 1.308084 1.413502 -0.609191
v 0.562037 1.584683 0.761816
v -0.424742 0.559173 -0.543337
v -0.041029 0.866208 -1.269693
v 1.073326 0.866208 0.245761
v 0.091074 0.576530 -0.000010
v -0.045522 0.576530 -0.069278
v -0.044542 1.325416 0.067767
v 0.089114 1.325416 -0.000010
vt 0.011252 -0.355430
vt 0.988748 -0.355430
vt 0.914986 -0.030104
vt 0.014836 -0.355430
vt 0.992332 -0.355430
vt 0.943157 -0.030104
vt 0.000499 -0.677465
vt 0.999501 -0.677465
vt 0.985164 -0.355430
vt 0.007668 -0.355430
vt 0.886814 -0.030104
vt 0.113186 -0.030104
vt 0.056843 -0.030104
vt 0.085015 -0.030104
vt 0.218557 -0.999501
vt 0.890471 -0.999501
vt 0.109528 -0.999501
vt 0.164043 -0.999501
vt 0.835957 -0.999501
vt 0.666500 -0.500000
vt 0.218557 -0.500000
vt 0.890472 -0.835957
vt 0.890471 -0.164043
vt 0.500000 -0.000499
vt 0.666500 -0.000499
vt 0.781443 -0.999501
vt 0.333500 -0.000499
vn -0.987600 -0.151500 0.040800
vn 0.552100 -0.112100 -0.826200
vn -0.522800 -0.054400 0.850700
vn -0.406200 -0.040900 -0.912900
vn -0.392000 -0.110200 -0.913300
vn -0.505100 -0.142300 0.851200
vn -0.762600 0.300400 -0.572800
vn 0.150900 0.276500 0.949100
vn 0.498200 0.188200 -0.846400
vn -0.970500 0.188200 0.150800
vn 0.666100 -0.623300 -0.409700
vn -0.762400 0.300200 -0.573200
vn 0.513600 -0.405100 0.756400
vn 0.498600 0.188100 -0.846200
vn -0.969600 -0.234700 0.069100
vn 0.567100 -0.177600 -0.804200
vn 0.460000 -0.069300 -0.885200
vn -0.998500 0.054200 -0.005900
vn -0.167300 0.276400 -0.946400
vn -0.610900 0.192900 0.767800
vn -0.655600 0.276400 0.702700
vn 0.980900 0.192900 0.026500
vn 0.720900 -0.049200 -0.691300
vn 0.144400 0.242200 0.959400
vn 0.447400 -0.071300 -0.891500
vn 0.458300 0.040100 0.887900
vn -1.000000 0.007400 0.000000
vn 0.452300 0.006700 0.891900
vn 0.958700 0.274000 0.076200
vn 0.989400 0.123700 0.076100
vn 0.421500 0.444600 0.790300
vn 0.453300 0.302500 0.838500
vn 0.452300 0.001200 -0.891900
vn -0.521900 -0.054400 0.851200
vn 0.989400 0.123700 0.076000
vn 0.446600 0.028400 0.894300
vn 0.448700 0.042400 0.892700
vn -0.970300 0.238900 -0.037600
vn 0.839200 -0.197300 -0.506800
vn -0.844500 0.113300 -0.523500
vn 0.560800 0.057200 0.826000
vn 0.470600 -0.017000 -0.882200
vn -0.937200 -0.187700 -0.294100
vn 0.147500 0.242000 0.959000
vn 0.850400 -0.488200 0.196200
vn -0.170300 0.277300 -0.945600
vn -0.354500 -0.488200 -0.797500
vn -0.653300 0.277300 0.704500
vn 0.452300 0.006700 -0.891900
vn -0.987600 -0.151400 0.041900
vn 0.453400 0.302500 0.838400
vn -0.363200 -0.182500 -0.913700
vn -0.970500 0.188000 0.151200
vn 0.556200 0.327300 -0.763900
vn 0.151200 0.276200 0.949100
vn -0.648800 0.409500 -0.641300
vn 0.932900 0.342300 -0.111800
vn -0.247300 -0.832300 -0.496000
vn -0.471500 0.342300 0.812700
vn 0.545100 -0.832300 0.100600
vn 0.590200 -0.243400 -0.769700
vn -0.942300 -0.316300 0.109400
vn 0.433800 -0.243800 -0.867400
vn 0.438300 0.033200 0.898200
vn 0.373600 -0.896400 -0.238400
vn 0.368200 -0.755200 0.542300
vn 0.421500 0.444700 0.790300
vn -0.356200 -0.932600 -0.057700
vn -0.472200 -0.231400 0.850600
vn 0.413500 0.081900 0.906800
vn 0.492500 0.187100 -0.850000
vn -1.000000 0.001300 0.000000
vn -0.214800 -0.880000 -0.423500
vn -0.706000 0.425900 0.565800
vn -0.027700 0.425900 -0.904300
vn 0.262700 0.390800 0.882200
vn -0.914800 0.331800 0.230400
vn 0.069200 0.088900 0.993600
vn -0.842800 0.113200 -0.526200
vn -0.993200 -0.016800 0.115000
vn 0.473300 -0.016400 -0.880700
vn -0.470300 -0.231000 0.851800
vn 0.918600 0.387700 0.076300
vn -0.942300 -0.315500 0.111600
vn 0.388300 0.549100 0.740000
vn -0.405200 -0.040600 -0.913300
vn -0.499600 0.341300 0.796200
vn 0.552900 -0.111700 -0.825700
vn -0.969800 0.241900 -0.029800
vn -0.471600 0.342700 0.812500
vn -0.027400 0.425700 -0.904500
vn -0.612700 0.194700 0.766000
vn 0.957200 0.138100 0.254200
vn 0.722900 -0.048000 -0.689300
vn -0.822900 0.436100 -0.364200
vn 0.932800 0.342700 -0.111600
vn -0.706300 0.425700 0.565600
vn 0.980400 0.194700 0.029100
vn -0.372300 0.138100 -0.917800
vn -0.993600 -0.016500 0.111900
vn 0.427300 0.649200 0.629200
vn 0.066300 0.089900 0.993700
vn 0.774800 0.435600 -0.458200
vn -0.214800 -0.880000 0.423500
vn 0.438600 -0.898700 0.000000
vn 0.443300 -0.243200 -0.862700
vn -0.970700 0.238600 -0.026800
vn -0.998600 0.053200 0.007400
vn 0.398700 0.355400 -0.845400
vn 0.265800 0.384900 0.883900
vn -0.650500 0.414300 -0.636500
vn -0.915600 0.326600 0.234800
vn 0.550800 0.331000 -0.766200
vn -0.928600 0.371000 -0.000000
vn -0.390500 0.340300 -0.855400
vn 0.917400 0.391500 0.071100
vn 0.425400 0.339800 -0.838800
vn 0.425400 0.339800 0.838800
vn 0.473400 0.265300 -0.839900
vn 0.391700 0.552600 0.735700
vn -0.954300 0.298700 0.004000
vn 0.413600 0.369200 0.832300
vn -0.365100 -0.183800 -0.912700
vn 0.918600 0.387700 0.076000
vn 0.588500 -0.245100 -0.770500
vn 0.388500 0.549100 0.739900
vn -0.999800 -0.020300 0.000000
vn 0.452200 -0.018300 0.891700
vn -0.392100 -0.110200 -0.913300
vn -0.505000 -0.142300 0.851300
vn 0.567000 -0.177700 -0.804300
vn -0.969600 -0.234600 0.069300
vn 0.055400 0.291900 0.954800
vn -0.812400 0.314700 -0.490900
vn -0.981900 0.181100 0.054800
vn 0.413200 0.181100 -0.892500
vn 0.711600 0.157600 -0.684700
vn 0.163300 0.434500 0.885800
vn 0.922600 0.384900 -0.024900
vn -0.634100 0.464100 0.618500
vn -0.534700 0.384900 0.752200
vn -0.113000 0.464100 -0.878600
vn 0.452200 -0.018300 -0.891700
vn 0.452300 0.001200 0.891900
usemtl NW_SEQ_NATURE_CACTUS_02
s off
f 95/1/1 3/2/1 45/3/1
f 34/4/2 95/5/2 73/6/2
f 94/1/3 5/2/3 36/3/3
f 33/4/4 94/5/4 72/6/4
f 91/7/5 94/5/5 33/4/5
f 6/7/6 70/8/6 5/2/6
f 10/7/7 68/9/7 9/10/7
f 84/7/8 55/5/8 68/4/8
f 13/7/9 69/9/9 12/10/9
f 85/7/10 56/5/10 69/4/10
f 66/7/11 10/8/11 9/2/11
f 10/7/12 84/8/12 68/9/12
f 67/7/13 13/8/13 12/2/13
f 13/7/14 85/8/14 69/9/14
f 16/7/15 71/8/15 3/2/15
f 92/7/16 95/5/16 34/4/16
f 57/4/17 82/5/17 83/6/17
f 82/1/18 37/2/18 90/3/18
f 65/10/19 74/9/19 100/11/19
f 74/4/20 51/5/20 75/6/20
f 64/10/21 77/9/21 99/11/21
f 77/4/22 49/5/22 78/6/22
f 28/4/23 53/5/23 76/6/23
f 27/10/24 28/9/24 98/11/24
f 57/4/25 83/6/25 29/12/25
f 37/10/26 29/11/26 90/13/26
f 44/1/27 103/2/27 32/3/27
f 103/10/28 88/11/28 32/13/28
f 70/7/29 33/9/29 5/10/29
f 5/10/30 33/9/30 87/11/30
f 71/7/31 34/9/31 3/10/31
f 3/10/32 34/9/32 89/11/32
f 103/10/28 104/9/28 88/11/28
f 101/7/33 102/8/33 44/5/33
f 94/1/34 36/3/34 72/14/34
f 5/10/35 87/11/35 36/13/35
f 38/7/36 57/9/36 37/10/36
f 37/10/37 57/9/37 29/11/37
f 18/7/38 38/8/38 37/2/38
f 55/1/39 39/3/39 80/14/39
f 9/10/40 96/11/40 39/13/40
f 56/1/41 40/3/41 79/14/41
f 12/10/42 97/11/42 40/13/42
f 53/1/43 41/3/43 76/14/43
f 27/10/44 98/11/44 41/13/44
f 51/1/45 42/3/45 75/14/45
f 65/10/46 100/11/46 42/13/46
f 49/1/47 43/3/47 78/14/47
f 64/10/48 99/11/48 43/13/48
f 104/4/49 44/5/49 86/6/49
f 44/1/27 32/3/27 86/14/27
f 95/1/50 45/3/50 73/14/50
f 3/10/51 89/11/51 45/13/51
f 7/15/52 46/16/52 6/8/52
f 70/7/29 91/8/29 33/9/29
f 85/7/53 67/8/53 56/5/53
f 59/17/54 85/8/54 13/7/54
f 84/7/55 66/8/55 55/5/55
f 58/17/56 84/8/56 10/7/56
f 25/7/57 50/8/57 49/5/57
f 49/1/47 64/2/47 43/3/47
f 50/7/58 64/2/58 49/1/58
f 22/7/59 52/8/59 51/5/59
f 51/1/45 65/2/45 42/3/45
f 52/7/60 65/2/60 51/1/60
f 53/1/43 27/2/43 41/3/43
f 54/15/61 2/16/61 16/8/61
f 2/18/62 71/8/62 16/7/62
f 66/7/11 9/2/11 55/1/11
f 55/1/39 9/2/39 39/3/39
f 67/7/13 12/2/13 56/1/13
f 56/1/41 12/2/41 40/3/41
f 19/7/63 82/5/63 57/4/63
f 38/7/64 19/8/64 57/9/64
f 14/18/65 58/19/65 10/8/65
f 15/18/66 59/19/66 13/8/66
f 71/7/67 92/8/67 34/9/67
f 62/20/68 7/21/68 61/22/68
f 46/18/69 70/8/69 6/7/69
f 62/20/70 46/23/70 7/21/70
f 62/20/71 61/22/71 46/23/71
f 102/7/72 103/2/72 44/1/72
f 81/20/73 35/21/73 31/22/73
f 50/7/58 24/8/58 64/2/58
f 24/7/74 77/9/74 64/10/74
f 52/7/60 21/8/60 65/2/60
f 21/7/75 74/9/75 65/10/75
f 48/15/76 14/16/76 66/8/76
f 14/18/65 10/8/65 66/7/65
f 47/15/77 15/16/77 67/8/77
f 15/18/66 13/8/66 67/7/66
f 68/4/78 55/5/78 80/6/78
f 9/10/79 68/9/79 96/11/79
f 69/4/80 56/5/80 79/6/80
f 12/10/81 69/9/81 97/11/81
f 46/18/82 61/19/82 70/8/82
f 61/17/83 91/8/83 70/7/83
f 2/18/84 60/19/84 71/8/84
f 60/17/85 92/8/85 71/7/85
f 33/4/86 72/6/86 87/12/86
f 4/24/87 72/14/87 36/3/87
f 34/4/88 73/6/88 89/12/88
f 1/24/89 73/14/89 45/3/89
f 22/7/90 51/5/90 74/4/90
f 21/7/91 22/8/91 74/9/91
f 74/4/92 75/6/92 100/12/92
f 20/24/93 75/14/93 42/3/93
f 28/4/94 76/6/94 98/12/94
f 26/24/95 76/14/95 41/3/95
f 25/7/96 49/5/96 77/4/96
f 24/7/97 25/8/97 77/9/97
f 77/4/98 78/6/98 99/12/98
f 23/24/99 78/14/99 43/3/99
f 69/4/100 79/6/100 97/12/100
f 11/24/101 79/14/101 40/3/101
f 68/4/102 80/6/102 96/12/102
f 8/24/103 80/14/103 39/3/103
f 81/20/104 63/23/104 35/21/104
f 81/20/105 31/22/105 63/23/105
f 19/7/106 18/8/106 82/5/106
f 18/7/107 37/2/107 82/1/107
f 82/1/108 90/3/108 83/14/108
f 17/25/109 29/12/109 83/6/109
f 48/15/110 66/8/110 84/7/110
f 58/17/111 48/26/111 84/8/111
f 47/15/112 67/8/112 85/7/112
f 59/17/113 47/26/113 85/8/113
f 104/4/49 86/6/49 88/12/49
f 30/24/114 86/14/114 32/3/114
f 4/25/115 87/12/115 72/6/115
f 4/27/116 36/13/116 87/11/116
f 30/25/117 88/12/117 86/6/117
f 30/27/118 32/13/118 88/11/118
f 1/25/119 89/12/119 73/6/119
f 1/27/120 45/13/120 89/11/120
f 17/24/121 83/14/121 90/3/121
f 17/27/122 90/13/122 29/11/122
f 7/15/123 6/8/123 91/7/123
f 61/17/124 7/26/124 91/8/124
f 54/15/125 16/8/125 92/7/125
f 60/17/126 54/26/126 92/8/126
f 63/18/127 31/19/127 93/8/127
f 31/17/128 101/8/128 93/7/128
f 91/7/129 6/8/129 94/5/129
f 6/7/130 5/2/130 94/1/130
f 92/7/131 16/8/131 95/5/131
f 16/7/132 3/2/132 95/1/132
f 8/25/133 96/12/133 80/6/133
f 8/27/134 39/13/134 96/11/134
f 11/25/135 97/12/135 79/6/135
f 11/27/136 40/13/136 97/11/136
f 26/25/137 98/12/137 76/6/137
f 26/27/138 41/13/138 98/11/138
f 23/25/139 99/12/139 78/6/139
f 23/27/140 43/13/140 99/11/140
f 20/25/141 100/12/141 75/6/141
f 20/27/142 42/13/142 100/11/142
f 35/15/143 102/8/143 101/7/143
f 31/17/128 35/26/128 101/8/128
f 35/15/143 63/16/143 102/8/143
f 63/18/127 93/8/127 102/7/127
f 102/7/72 93/8/72 103/2/72
f 93/7/144 104/9/144 103/10/144
f 101/7/33 44/5/33 104/4/33
f 93/7/144 101/8/144 104/9/144
