# Blender v2.75 (sub 0) OBJ File: 'Empty.blend'
# www.blender.org
mtllib ADDON_PLANTS_JUNGLETREE_02_163P.mtl
o ADDON_PLANTS_JUNGLETREE_02_163P
v -0.562981 3.474509 0.473197
v -1.922606 3.935776 -1.322984
v 0.824864 2.411911 -0.706377
v -0.058867 3.033195 0.805203
v -2.246685 3.394385 0.292403
v 0.294603 2.001836 -0.975645
v 0.329022 -0.927867 0.197760
v -0.678665 7.406767 -1.393243
v -0.027567 2.394503 -0.335857
v -0.185380 4.455354 -0.230220
v -0.764455 2.891307 -0.306588
v -0.226379 3.683987 -2.394405
v 1.135397 2.164719 0.037563
v -3.514405 3.154075 -3.004058
v -1.912082 3.239717 -4.289968
v 0.282894 3.236333 -4.702871
v 2.209355 3.655551 -4.154887
v -4.494545 2.518909 0.010306
v -4.085608 2.629970 -1.983664
v -0.427523 3.447298 -2.555726
v -1.865481 2.934236 -1.595006
v 1.686777 3.530302 -1.948339
v -0.246182 6.291563 -0.410187
v -1.487041 6.687088 -2.404722
v -1.514426 6.557760 -4.523376
v 0.107270 7.430293 -4.426420
v 0.381204 3.279093 -0.930528
v 1.858516 4.212219 0.143275
v -0.373318 2.486907 0.545183
v 3.667996 4.089453 1.246250
v 2.606619 4.272688 2.695011
v -1.274810 5.767828 -0.585067
v 0.517644 5.671687 -0.764323
v 0.220035 7.075284 -2.445873
v 0.950566 3.907744 1.605510
v 1.042661 3.988677 -1.255855
v 2.699613 4.325143 -1.998451
v 3.182970 3.597944 -0.517335
v 0.655232 3.929777 -0.278444
v 0.002963 5.330867 0.809235
v -0.689214 2.963921 -0.173731
v -0.098928 5.276377 -1.065950
v 0.736206 6.677465 -0.111459
v -0.411707 4.310520 0.245793
v 0.218334 7.580085 0.006003
v -1.244677 6.755229 -0.317110
v -0.631649 8.776637 0.677326
v -0.267601 2.817227 -0.791798
v 1.686152 3.391508 0.096605
v 2.215333 7.389912 0.868963
v 1.307639 7.060216 2.156751
v -0.476426 6.043313 2.517811
v -1.980577 5.713618 2.048946
v -0.838481 7.762554 -0.257498
v -0.144491 9.518459 -0.526813
v 0.548802 6.981404 -0.434243
v -0.555949 4.684653 -0.942101
v 0.560131 6.149625 -1.193566
v 0.328498 4.011027 0.197870
v 0.115197 3.941032 0.409502
v -1.326553 5.031727 0.434519
v -0.249959 3.274135 -0.988963
v 0.166707 5.675444 0.341361
v -1.257371 6.612314 0.891334
v -0.594135 5.010900 -0.888552
v 0.536024 2.203122 0.432006
v 0.558118 10.968211 -1.623017
v 1.937438 10.469883 -1.035891
v 0.125969 6.029690 1.188306
v -1.421335 4.683091 0.627159
v -2.915448 6.655776 1.689694
v -3.460124 6.816553 0.230325
v -3.143936 5.268369 0.634855
v -3.162086 5.390437 -0.925569
v 2.143290 6.917242 -1.831649
v 2.596255 6.887826 -0.334526
v 0.397843 6.603301 -1.036193
v -0.057506 8.219696 -0.315334
v -1.129827 6.279831 -1.098526
v 1.238811 8.878720 -0.321622
v 1.228837 5.798104 0.124980
v -1.518205 4.759313 -1.044926
v -1.910130 6.360430 -0.453307
v -1.517242 8.378932 -0.519145
v -2.051734 9.432977 0.366536
v -1.531406 9.385076 1.896819
v -2.590823 9.103511 1.067312
v -1.714056 8.223426 0.101015
v -0.659932 8.791035 0.711825
v 0.569207 8.698927 -0.058862
v 1.873539 9.277788 0.555613
v 1.295060 9.009911 1.697572
v -0.214332 7.560541 -0.728137
v 0.231279 8.172608 1.057785
v -0.108833 6.775782 0.062697
v -0.720085 7.411350 -0.783861
v -1.561381 8.144105 -1.240545
v -0.408078 7.056044 -1.726041
v -2.657670 8.301598 -1.772246
v -2.110104 8.477713 -2.645126
v -1.131595 8.054508 -2.148075
v -0.372235 -0.935055 -0.307110
v -0.272904 -0.904599 0.292919
v 0.229690 -0.958321 -0.402270
v 0.230792 2.400254 -0.149852
v 0.026397 4.474864 -0.356075
v -0.074887 7.683185 -0.290461
v -0.668058 7.650309 -0.118577
v -0.262856 6.285295 -0.209419
v -0.579432 7.722010 -0.117008
v -0.185735 4.430800 -0.476207
v -0.387077 6.276628 -0.330900
v -0.622046 7.473476 -1.364228
v -0.683395 7.482927 -1.331714
v -0.623420 7.680342 -0.070092
v -0.624071 7.691978 -0.165492
v -0.082810 2.418870 -0.026427
vt 0.000500 -0.000500
vt 0.000500 -0.500000
vt 0.999501 -0.000500
vt 0.999500 -0.999500
vt 0.999500 -0.500000
vt 0.000500 -0.999500
vt 0.000000 -4.174102
vt 0.333333 -5.000000
vt 0.333333 -4.174102
vt 0.666667 -5.000000
vt 0.666667 -4.174102
vt 0.250000 -5.000000
vt 0.000000 -5.000000
vt 0.500000 -5.000000
vt 0.500000 -4.174102
vt 0.250000 -4.174102
vt 0.750000 -4.174102
vt 1.000000 -5.000000
vt 1.000000 -4.174102
vt 0.750000 -5.000000
vn 0.618800 0.785300 0.020600
vn -0.618800 -0.785300 -0.020600
vn 0.456000 0.806400 -0.376500
vn -0.456000 -0.806400 0.376500
vn 0.192200 0.782900 0.591700
vn -0.192200 -0.782900 -0.591700
vn -0.229700 0.947400 -0.223100
vn 0.229700 -0.947400 0.223100
vn -0.147400 0.964400 -0.219500
vn 0.147400 -0.964400 0.219500
vn -0.360400 0.932500 -0.022000
vn 0.360400 -0.932500 0.022000
vn 0.129100 0.965500 -0.226100
vn 0.314700 0.949200 0.005500
vn -0.129100 -0.965500 0.226100
vn -0.314700 -0.949200 -0.005500
vn -0.087800 0.963600 -0.252700
vn 0.203700 0.959900 -0.192900
vn 0.087800 -0.963600 0.252700
vn -0.203700 -0.959900 0.192900
vn 0.063300 0.995400 0.071500
vn -0.007200 0.935500 0.353300
vn -0.063300 -0.995400 -0.071500
vn 0.007200 -0.935500 -0.353300
vn -0.471100 0.880800 -0.047700
vn 0.471100 -0.880800 0.047700
vn -0.729500 0.684000 -0.005800
vn 0.729500 -0.684000 0.005800
vn 0.099600 0.993600 -0.052700
vn -0.099600 -0.993600 0.052700
vn 0.104100 0.772500 0.626400
vn -0.104100 -0.772500 -0.626400
vn -0.213700 0.959400 0.184100
vn -0.186300 0.868000 0.460200
vn 0.213700 -0.959400 -0.184100
vn 0.186300 -0.868000 -0.460200
vn -0.245600 0.968100 0.049100
vn -0.471900 0.874700 -0.110900
vn 0.245600 -0.968100 -0.049100
vn 0.471900 -0.874700 0.110900
vn 0.013300 0.899300 0.437200
vn -0.013300 -0.899300 -0.437200
vn -0.287200 0.301300 -0.909300
vn 0.287200 -0.301300 0.909300
vn -0.953500 0.301300 -0.005500
vn 0.953500 -0.301300 0.005500
vn -0.048900 -0.288000 0.956400
vn 0.048900 0.288000 -0.956400
vn 0.033200 0.920000 0.390400
vn -0.452200 0.716300 0.531400
vn -0.033200 -0.920000 -0.390400
vn 0.452200 -0.716300 -0.531400
vn -0.405200 0.912700 -0.051900
vn 0.405200 -0.912700 0.051900
vn -0.074900 0.912700 -0.401600
vn 0.074900 -0.912700 0.401600
vn 0.077500 -0.087100 0.993200
vn -0.077500 0.087100 -0.993200
vn -0.631000 0.346200 0.694200
vn 0.631000 -0.346200 -0.694200
vn 0.687000 0.569700 -0.451100
vn -0.687000 -0.569700 0.451100
vn 0.449600 0.639500 -0.623600
vn -0.449600 -0.639500 0.623600
vn -0.467500 0.628000 0.622100
vn 0.467500 -0.628000 -0.622100
vn -0.099900 0.630500 0.769800
vn 0.099900 -0.630500 -0.769800
vn -0.678200 0.733400 0.047100
vn -0.820900 0.561300 -0.105700
vn 0.678200 -0.733400 -0.047100
vn 0.820900 -0.561300 0.105700
vn -0.252900 0.733400 -0.631000
vn -0.151200 0.561300 -0.813700
vn 0.252900 -0.733400 0.631000
vn 0.151200 -0.561300 0.813700
vn 0.066800 0.994200 0.084600
vn -0.066800 -0.994200 -0.084600
vn 0.136900 0.987700 0.075700
vn -0.136900 -0.987700 -0.075700
vn -0.387600 0.911800 0.135200
vn 0.387600 -0.911800 -0.135200
vn -0.016400 0.263200 -0.964600
vn 0.016400 -0.263200 0.964600
vn 0.045300 0.392500 0.918600
vn -0.064300 0.176100 0.982300
vn -0.045300 -0.392500 -0.918600
vn 0.064300 -0.176100 -0.982300
vn -0.464400 0.768400 0.440400
vn -0.653000 0.580900 0.486000
vn 0.464400 -0.768400 -0.440400
vn 0.653000 -0.580900 -0.486000
vn 0.336700 0.917300 -0.212500
vn 0.586200 0.779900 -0.219500
vn -0.336700 -0.917300 0.212500
vn -0.586200 -0.779900 0.219500
vn 0.165900 0.951600 -0.258800
vn 0.413000 0.837600 -0.357400
vn -0.165900 -0.951600 0.258800
vn -0.413000 -0.837600 0.357400
vn 0.171100 0.441100 -0.881000
vn -0.171100 -0.441100 0.881000
vn 0.173600 0.683700 -0.708900
vn -0.173600 -0.683700 0.708900
vn 0.072200 0.912700 -0.402100
vn -0.072200 -0.912700 0.402100
vn -0.012900 0.733400 -0.679700
vn 0.146800 0.561300 -0.814500
vn 0.012900 -0.733400 0.679700
vn -0.146800 -0.561300 0.814500
vn 0.452600 0.865200 -0.215800
vn -0.452600 -0.865200 0.215800
vn -0.408500 0.912700 0.007200
vn 0.408500 -0.912700 -0.007200
vn -0.664200 0.733400 0.144700
vn -0.827500 0.561300 0.014100
vn 0.664200 -0.733400 -0.144700
vn 0.827500 -0.561300 -0.014100
vn -0.973200 0.084600 0.213800
vn 0.973200 -0.084600 -0.213800
vn 0.801000 0.597300 0.040000
vn -0.801000 -0.597300 -0.040000
vn 0.034300 0.975300 0.218300
vn -0.034300 -0.975300 -0.218300
vn 0.361400 0.929000 0.079500
vn 0.580900 0.789800 0.197100
vn -0.361400 -0.929000 -0.079500
vn -0.580900 -0.789800 -0.197100
vn 0.449300 0.369800 0.813300
vn -0.987300 -0.158200 0.017200
vn 0.369600 0.107300 0.923000
vn -0.978100 0.099700 -0.182500
vn -0.993900 -0.109400 0.012400
vn 0.510000 0.011800 0.860100
vn -0.155900 0.007600 -0.987700
vn 0.158800 0.085400 0.983600
vn -0.984600 0.071600 0.159400
vn 0.986400 0.012000 -0.163900
vn 0.582300 0.060700 -0.810700
vn 0.512300 -0.172100 -0.841400
vn 0.484900 0.046700 -0.873300
vn 0.497100 0.134200 0.857300
vn 0.584500 -0.023000 -0.811100
vn 0.984800 0.150300 0.086500
vn -0.697300 -0.037700 0.715800
vn 0.988600 -0.128400 0.078100
vn -0.697600 0.134600 0.703700
vn 0.966500 0.241000 0.087800
vn -0.669000 -0.245300 0.701600
vn -0.712200 -0.037300 -0.701000
vn -0.636700 -0.237800 0.733500
vn -0.981800 -0.087900 -0.168400
vn 0.496000 -0.021300 -0.868100
vn -0.491600 0.014900 -0.870700
vn -0.496800 0.134900 -0.857300
vn -0.491900 0.019400 -0.870400
vn 0.584400 -0.149000 -0.797700
vn -0.987600 -0.131100 0.086300
vn 0.478800 0.371000 0.795600
vn 0.718200 0.024800 0.695400
vn 0.606200 0.292800 -0.739500
vn 0.369700 0.110900 0.922500
vn -0.998700 -0.049700 0.006400
usemtl NW_NATURE_BRANCH_05
s off
f 3/1/1 20/2/1 1/3/1
f 20/2/2 3/1/2 1/3/2
f 6/1/3 21/2/3 4/3/3
f 21/2/4 6/1/4 4/3/4
f 13/1/5 22/2/5 11/3/5
f 22/2/6 13/1/6 11/3/6
f 14/4/7 2/5/7 15/6/7
f 2/5/8 14/4/8 15/6/8
f 16/4/9 12/5/9 17/6/9
f 12/5/10 16/4/10 17/6/10
f 18/4/11 5/5/11 19/6/11
f 5/5/12 18/4/12 19/6/12
f 20/2/13 15/6/13 2/5/13
f 2/5/14 1/3/14 20/2/14
f 15/6/15 20/2/15 2/5/15
f 1/3/16 2/5/16 20/2/16
f 21/2/17 19/6/17 5/5/17
f 5/5/18 4/3/18 21/2/18
f 19/6/19 21/2/19 5/5/19
f 4/3/20 5/5/20 21/2/20
f 22/2/21 17/6/21 12/5/21
f 12/5/22 11/3/22 22/2/22
f 17/6/23 22/2/23 12/5/23
f 11/3/24 12/5/24 22/2/24
f 25/4/25 24/5/25 26/6/25
f 24/5/26 25/4/26 26/6/26
f 29/1/27 35/2/27 27/3/27
f 35/2/28 29/1/28 27/3/28
f 30/4/29 28/5/29 31/6/29
f 28/5/30 30/4/30 31/6/30
f 33/1/31 34/2/31 32/3/31
f 34/2/32 33/1/32 32/3/32
f 34/2/33 26/6/33 24/5/33
f 24/5/34 32/3/34 34/2/34
f 26/6/35 34/2/35 24/5/35
f 32/3/36 24/5/36 34/2/36
f 35/2/37 31/6/37 28/5/37
f 28/5/38 27/3/38 35/2/38
f 31/6/39 35/2/39 28/5/39
f 27/3/40 28/5/40 35/2/40
f 37/4/41 36/5/41 38/6/41
f 36/5/42 37/4/42 38/6/42
f 41/1/43 70/2/43 39/3/43
f 70/2/44 41/1/44 39/3/44
f 44/1/45 69/2/45 42/3/45
f 69/2/46 44/1/46 42/3/46
f 88/2/47 46/1/47 45/3/47
f 46/1/48 88/2/48 45/3/48
f 49/2/49 38/6/49 36/5/49
f 36/5/50 48/3/50 49/2/50
f 38/6/51 49/2/51 36/5/51
f 48/3/52 36/5/52 49/2/52
f 50/4/53 43/5/53 51/6/53
f 43/5/54 50/4/54 51/6/54
f 52/4/55 40/5/55 53/6/55
f 40/5/56 52/4/56 53/6/56
f 56/1/57 80/2/57 54/3/57
f 80/2/58 56/1/58 54/3/58
f 59/1/59 81/2/59 57/3/59
f 81/2/60 59/1/60 57/3/60
f 62/1/61 82/2/61 60/3/61
f 82/2/62 62/1/62 60/3/62
f 65/1/63 83/2/63 63/3/63
f 83/2/64 65/1/64 63/3/64
f 66/1/65 49/2/65 48/3/65
f 49/2/66 66/1/66 48/3/66
f 67/4/67 55/5/67 68/6/67
f 55/5/68 67/4/68 68/6/68
f 69/2/69 51/6/69 43/5/69
f 43/5/70 42/3/70 69/2/70
f 51/6/71 69/2/71 43/5/71
f 42/3/72 43/5/72 69/2/72
f 70/2/73 53/6/73 40/5/73
f 40/5/74 39/3/74 70/2/74
f 53/6/75 70/2/75 40/5/75
f 39/3/76 40/5/76 70/2/76
f 71/4/77 64/5/77 72/6/77
f 64/5/78 71/4/78 72/6/78
f 73/4/79 61/5/79 74/6/79
f 61/5/80 73/4/80 74/6/80
f 75/4/81 58/5/81 76/6/81
f 58/5/82 75/4/82 76/6/82
f 79/1/83 84/2/83 77/3/83
f 84/2/84 79/1/84 77/3/84
f 80/2/85 68/6/85 55/5/85
f 55/5/86 54/3/86 80/2/86
f 68/6/87 80/2/87 55/5/87
f 54/3/88 55/5/88 80/2/88
f 81/2/89 76/6/89 58/5/89
f 58/5/90 57/3/90 81/2/90
f 76/6/91 81/2/91 58/5/91
f 57/3/92 58/5/92 81/2/92
f 82/2/93 74/6/93 61/5/93
f 61/5/94 60/3/94 82/2/94
f 74/6/95 82/2/95 61/5/95
f 60/3/96 61/5/96 82/2/96
f 83/2/97 72/6/97 64/5/97
f 64/5/98 63/3/98 83/2/98
f 72/6/99 83/2/99 64/5/99
f 63/3/100 64/5/100 83/2/100
f 78/5/101 77/3/101 84/2/101
f 77/3/102 78/5/102 84/2/102
f 84/2/103 85/6/103 78/5/103
f 85/6/104 84/2/104 78/5/104
f 86/4/105 47/5/105 87/6/105
f 47/5/106 86/4/106 87/6/106
f 88/2/107 87/6/107 47/5/107
f 47/5/108 45/3/108 88/2/108
f 87/6/109 88/2/109 47/5/109
f 45/3/110 47/5/110 88/2/110
f 89/4/111 78/5/111 85/6/111
f 78/5/112 89/4/112 85/6/112
f 91/4/113 90/5/113 92/6/113
f 90/5/114 91/4/114 92/6/114
f 94/2/115 92/6/115 90/5/115
f 90/5/116 93/3/116 94/2/116
f 92/6/117 94/2/117 90/5/117
f 93/3/118 90/5/118 94/2/118
f 95/1/119 94/2/119 93/3/119
f 94/2/120 95/1/120 93/3/120
f 98/1/121 101/2/121 96/3/121
f 101/2/122 98/1/122 96/3/122
f 99/4/123 97/5/123 100/6/123
f 97/5/124 99/4/124 100/6/124
f 101/2/125 100/6/125 97/5/125
f 97/5/126 96/3/126 101/2/126
f 100/6/127 101/2/127 97/5/127
f 96/3/128 97/5/128 101/2/128
usemtl NW_NATURE_BARK_01
f 106/7/129 114/8/129 10/9/129
f 10/9/130 8/10/130 111/11/130
f 117/12/131 7/7/131 105/13/131
f 9/14/132 102/15/132 117/12/132
f 10/16/133 112/14/133 111/15/133
f 106/7/134 109/12/134 10/16/134
f 102/15/135 9/14/135 104/17/135
f 7/7/136 117/12/136 103/16/136
f 103/16/137 117/12/137 102/15/137
f 104/17/138 105/18/138 7/19/138
f 105/20/139 104/17/139 9/14/139
f 111/11/140 113/18/140 106/19/140
f 111/17/141 23/18/141 106/19/141
f 10/8/142 105/7/142 106/13/142
f 9/11/143 106/18/143 105/19/143
f 109/12/144 106/7/144 23/13/144
f 112/14/145 10/16/145 109/12/145
f 23/7/146 107/8/146 109/16/146
f 109/16/147 107/10/147 112/15/147
f 23/7/148 115/12/148 109/16/148
f 109/16/149 108/14/149 112/15/149
f 116/20/150 112/15/150 108/14/150
f 108/14/151 109/16/151 115/12/151
f 117/9/152 111/10/152 9/11/152
f 106/18/153 9/11/153 111/10/153
f 23/20/154 111/15/154 112/14/154
f 112/15/155 107/18/155 23/17/155
f 112/15/156 116/20/156 23/17/156
f 113/18/157 111/11/157 8/10/157
f 8/10/158 10/9/158 114/8/158
f 114/8/159 106/7/159 113/13/159
f 115/12/160 23/7/160 110/13/160
f 110/18/161 23/17/161 116/20/161
f 105/7/162 10/8/162 117/9/162
f 111/10/163 117/9/163 10/8/163
