# Blender v2.75 (sub 0) OBJ File: 'Empty.blend'
# www.blender.org
mtllib ADDON_PLANTS_PALM_SHORT_BENT_02_170P.mtl
o ADDON_PLANTS_PALM_SHORT_BENT_02_170P
v 6.133166 6.509991 0.069100
v 1.074117 6.636213 -1.741782
v 1.088120 6.635819 1.615372
v 4.476769 7.120072 -1.661376
v 4.057266 4.084241 -2.816102
v 0.208362 4.359157 1.419038
v 1.610366 3.984032 -2.583814
v 4.437411 6.411739 1.702812
v 5.449167 3.979617 -1.425441
v 4.338989 5.577424 -1.601345
v 3.974195 3.875305 2.620740
v 1.424131 4.239656 2.847554
v 5.089186 3.693655 1.224817
v 1.242334 5.801889 1.601207
v 0.515580 4.107079 -1.302151
v 1.240495 5.544317 -0.007109
v 4.333327 5.335069 -0.007291
v 2.778543 5.464013 1.610352
v 2.778489 5.464016 -1.611120
v 2.782696 5.527811 -0.009449
v 4.251930 5.701685 1.496405
v 2.943899 4.174881 0.044002
v 2.598983 1.768215 0.151299
v -0.992539 -0.545290 0.186243
v 1.664823 0.741320 -0.398832
v 5.557816 4.100337 -0.006798
v 0.125644 4.503002 -0.006206
v 1.963501 7.143653 2.488016
v 2.790994 5.740607 -0.268182
v 3.167482 4.308680 -0.137932
v 2.932552 3.000479 -0.238808
v 2.727299 4.290408 2.933591
v 0.228747 4.245334 2.720231
v 3.644098 7.010190 2.532246
v 1.938111 7.112549 -2.570949
v 0.260956 7.061651 0.757356
v 1.915398 6.343574 -0.867467
v 3.567712 6.238634 0.824527
v 0.252326 7.045321 -0.928700
v 2.774993 6.930569 -1.698063
v 5.290353 6.639848 -0.795392
v 1.922017 6.351179 0.782059
v 3.614380 6.880663 -0.835243
v 2.732828 4.283916 -2.901251
v 2.795301 6.892787 3.353294
v 2.791581 6.948905 1.660708
v 3.620630 7.008787 -2.526511
v 1.100568 6.894994 -0.063961
v 4.437200 6.610768 0.023613
v 5.303566 6.693595 0.889715
v 5.058432 3.697371 2.453408
v -0.350454 -0.963393 -0.050332
v 2.692784 5.185759 -0.029802
v 1.360216 5.921072 -1.494811
v 2.951320 4.177790 -0.323126
v 2.306502 1.851294 -0.340959
v -0.970659 -0.561173 -0.212156
v 1.647854 0.748287 0.122392
v -0.596735 -0.802794 0.295995
v 2.757009 1.735070 -0.142759
v 2.902847 5.004339 0.233725
v 2.740703 4.181584 -0.032198
v -0.571104 -0.821539 -0.348161
v 2.484335 5.023548 -0.356081
v 2.605291 4.325231 0.082886
v 2.315632 1.843700 0.020427
v 2.582252 1.779567 -0.435970
v 2.696582 5.746956 -0.065256
v 2.746322 4.183399 -0.258715
v 2.919442 5.731969 -0.083712
v 3.056917 4.173453 -0.155744
v 2.878127 5.006881 -0.468161
v 2.495522 5.021738 0.077587
v 1.431487 0.876248 -0.260746
v 1.419804 0.883068 0.060793
v 1.827813 0.651770 -0.125194
v 2.942207 4.317437 -0.461537
v 3.126712 4.994697 -0.117140
v 2.918417 4.312998 0.155638
v 2.623020 4.326107 -0.297755
v 0.002870 4.849616 -0.090756
v 6.080314 7.994095 -0.129399
v -0.036189 8.405413 -0.129399
v 0.002971 4.849605 -0.090756
v 2.757116 4.689803 -3.045393
v 2.758190 4.688287 2.885702
v 2.740274 8.218703 -3.151178
v 2.740274 8.218703 2.981091
v 2.758193 4.688283 2.885501
v 2.757119 4.689800 -3.045180
v 5.750256 4.485758 -0.090756
v 5.749738 4.485786 -0.090756
vt 0.749750 -0.500000
vt 0.500000 -0.749750
vt 0.500000 -0.500000
vt 0.500000 -0.000500
vt 0.250250 -0.250250
vt 0.500000 -0.250250
vt 0.999500 -0.500000
vt 0.749750 -0.749750
vt 0.250250 -0.500000
vt 0.999500 -0.250250
vt 0.000500 -0.250250
vt 0.000500 -0.500000
vt 0.250250 -0.000500
vt 0.500000 -0.999500
vt 0.250250 -0.999500
vt 0.749750 -0.999500
vt 0.999500 -0.749750
vt 0.250250 -0.749750
vt 0.749750 -0.000500
vt 0.749750 -0.250250
vt 0.000500 -0.749750
vt 0.000500 -0.999500
vt 0.000500 -0.000500
vt 0.216470 -0.807758
vt 1.265301 -0.500000
vt 0.390952 -0.500000
vt 0.407413 -0.192242
vt 1.223412 -0.192242
vt 1.114145 0.115516
vt -0.157431 -0.192242
vt 0.626000 -0.192242
vt 0.677699 0.115516
vt 0.310992 -0.807758
vt 0.933801 -0.500000
vt 0.359731 -0.500000
vt 1.202319 -0.807758
vt 1.050927 -0.807758
vt -0.081898 0.115516
vt -0.413774 -0.192242
vt 0.323150 0.115516
vt -0.328082 0.115516
vt 0.324604 -0.192242
vt -0.460956 -0.807758
vt -0.339680 -0.500000
vt 0.323029 -0.807758
vt 1.202140 -0.500000
vt 0.279006 -0.500000
vt 0.260490 -0.192242
vt 1.137174 -0.192242
vt 1.070027 0.115516
vt -0.181501 -0.807758
vt 0.786029 -0.807758
vt 0.650475 -0.500000
vt -0.237940 -0.500000
vt 0.988124 0.115516
vt 1.065843 -0.192242
vt 0.324561 0.115516
vt 0.352918 0.115516
vt 0.999500 -0.999501
vt 0.999500 -0.000500
vt 0.559780 -1.868262
vt 1.022939 -1.059335
vt 0.528555 -1.059335
vt 0.081037 -1.059335
vt -0.043317 -0.205333
vt 0.499797 -0.205333
vt 0.448140 0.868264
vt 0.440220 -1.868262
vt 0.808288 -1.059335
vt 0.226150 -1.059335
vt 0.130079 -0.205333
vt 0.801645 -0.205333
vt 0.580442 0.868264
vt 0.494572 -1.868262
vt 0.925447 -1.059335
vt 0.391829 -1.059335
vt 0.505428 -1.868262
vt 0.562541 -1.059335
vt 0.042847 -1.059335
vt -0.000819 -0.205333
vt 0.658368 -0.205333
vt 0.308895 0.868264
vt 0.266187 0.868264
vt 0.654800 0.868264
vt 0.733813 0.868264
vt 0.308895 -0.580442
vt 0.654800 -0.551860
vt 0.455435 -0.266187
vt 1.043317 -0.205333
vt 0.379562 -0.205333
vt 1.017121 -0.205333
vt 0.544565 0.868264
vn 0.832200 0.554500 -0.005900
vn -0.832200 -0.554500 0.005900
vn -0.011700 -0.957100 -0.289600
vn 0.011700 0.957100 0.289600
vn 0.178200 0.722900 -0.667600
vn -0.178200 -0.722900 0.667600
vn -0.068500 0.931100 0.358200
vn 0.068500 -0.931100 -0.358200
vn 0.703900 0.698000 -0.132100
vn -0.703900 -0.698000 0.132100
vn 0.152600 0.726500 -0.670000
vn -0.152600 -0.726500 0.670000
vn 0.355400 0.450200 0.819100
vn -0.355400 -0.450200 -0.819100
vn -0.773100 -0.243100 -0.585900
vn 0.773100 0.243100 0.585900
vn -0.678200 0.726200 0.112700
vn 0.678200 -0.726200 -0.112700
vn 0.719900 -0.267200 0.640600
vn -0.719900 0.267200 -0.640600
vn 0.803700 -0.587700 0.093200
vn -0.803700 0.587700 -0.093200
vn 0.123200 0.991600 0.039400
vn -0.123200 -0.991600 -0.039400
vn -0.813200 -0.575000 -0.090300
vn -0.121800 -0.981200 -0.149600
vn 0.813200 0.575000 0.090300
vn 0.121800 0.981200 0.149600
vn -0.133400 -0.627500 -0.767100
vn -0.214400 -0.976000 -0.039000
vn 0.133400 0.627500 0.767100
vn 0.214400 0.976000 0.039000
vn 0.041300 -0.635200 0.771200
vn 0.072200 -0.996600 0.039500
vn -0.041300 0.635200 -0.771200
vn -0.072200 0.996600 -0.039500
vn -0.010600 -0.999200 0.039800
vn -0.010300 -0.987400 0.158100
vn 0.010600 0.999200 -0.039800
vn 0.010300 0.987400 -0.158100
vn 0.172700 -0.954700 0.242100
vn 0.069500 -0.747700 -0.660400
vn -0.172700 0.954700 -0.242100
vn -0.069500 0.747700 0.660400
vn -0.705500 -0.699600 0.113600
vn 0.705500 0.699600 -0.113600
vn 0.857300 -0.360100 0.368000
vn -0.857300 0.360100 -0.368000
vn 0.257500 0.661200 -0.704600
vn -0.257500 -0.661200 0.704600
vn 0.072700 -0.747600 -0.660200
vn -0.072700 0.747600 0.660200
vn 0.814900 -0.576100 -0.063200
vn -0.814900 0.576100 0.063200
vn -0.346900 -0.848800 0.399000
vn 0.346900 0.848800 -0.399000
vn 0.229500 0.667000 0.708900
vn -0.229500 -0.667000 -0.708900
vn 0.556300 0.830900 -0.006100
vn -0.556300 -0.830900 0.006100
vn -0.454300 -0.879300 0.142800
vn 0.108500 -0.906600 -0.407800
vn 0.454300 0.879300 -0.142800
vn -0.108500 0.906600 0.407800
vn 0.301800 -0.946700 -0.112300
vn -0.237400 -0.881200 0.408800
vn -0.301800 0.946700 0.112300
vn 0.237400 0.881200 -0.408800
vn -0.318200 -0.936200 0.149400
vn 0.318200 0.936200 -0.149400
vn 0.222400 -0.889700 -0.398700
vn -0.222400 0.889700 0.398700
vn -0.208000 0.971300 0.115200
vn 0.208000 -0.971300 -0.115200
vn -0.442300 -0.885900 -0.140000
vn 0.108300 -0.902600 0.416700
vn 0.442300 0.885900 0.140000
vn -0.108300 0.902600 -0.416700
vn 0.201000 -0.976800 -0.073300
vn 0.564600 -0.584100 -0.583100
vn -0.201000 0.976800 0.073300
vn -0.564600 0.584100 0.583100
vn 0.349600 -0.424400 0.835200
vn -0.349600 0.424400 -0.835200
vn 0.199000 -0.890600 0.408900
vn -0.258500 -0.965500 -0.031400
vn -0.199000 0.890600 -0.408900
vn 0.258500 0.965500 0.031400
vn 0.018300 -0.997000 -0.075500
vn -0.018300 0.997000 0.075500
vn -0.184800 -0.982700 0.010500
vn -0.328500 -0.933100 -0.146400
vn 0.184800 0.982700 -0.010500
vn 0.328500 0.933100 0.146400
vn 0.064100 -0.997500 0.031300
vn -0.064100 0.997500 -0.031300
vn -0.185000 -0.982200 0.032800
vn 0.185000 0.982200 -0.032800
vn -0.162100 -0.986800 -0.001100
vn 0.162100 0.986800 0.001100
vn 0.824200 -0.535600 -0.184000
vn 0.135300 -0.689700 0.711400
vn -0.824200 0.535600 0.184000
vn -0.135300 0.689700 -0.711400
vn -0.315500 -0.913500 -0.256700
vn 0.676800 -0.724700 -0.129100
vn 0.315500 0.913500 0.256700
vn -0.676800 0.724700 0.129100
vn -0.291900 0.389300 -0.873600
vn -0.303300 0.090600 -0.948600
vn 0.871100 -0.104600 0.479900
vn -0.104800 0.261300 0.959600
vn -0.165700 0.244700 -0.955300
vn -0.101300 0.254200 0.961800
vn 0.865500 -0.102200 0.490400
vn -0.982300 0.186100 -0.022900
vn -0.983400 0.179400 0.028600
vn -0.513700 0.857200 -0.036800
vn -0.510900 0.857400 -0.062200
vn 0.496200 -0.693400 -0.522500
vn 0.847000 -0.105800 -0.520900
vn 0.478300 -0.616100 0.625800
vn 0.656600 -0.624300 0.423200
vn 0.485500 -0.635300 0.600500
vn -0.347400 0.084200 0.933900
vn 0.435600 -0.643600 -0.629300
vn -0.395800 0.097400 0.913200
vn -0.180100 0.140300 0.973600
vn 0.615500 -0.563600 -0.551000
vn -0.270600 0.205500 -0.940500
vn -0.296300 0.090300 -0.950800
vn 0.839700 -0.106100 -0.532500
vn -0.374300 0.262800 -0.889300
vn -0.742500 0.669000 0.032800
vn -0.731600 0.680500 -0.041000
vn -0.319900 0.335500 0.886100
vn 0.661400 -0.575100 -0.481500
vn 0.595600 -0.500700 0.628100
vn -0.000700 -0.010900 -0.999900
vn 0.000700 0.010900 0.999900
vn -1.000000 -0.004800 0.000200
vn -1.000000 -0.005100 0.000000
vn 1.000000 0.005100 0.000000
vn 1.000000 0.004800 -0.000200
vn 0.815100 -0.102400 -0.570200
vn 0.748300 -0.183500 0.637500
vn 0.827000 0.208800 0.521900
vn -0.972300 -0.229100 -0.045800
vn -0.962000 0.271800 0.025900
vn -0.454800 -0.145300 -0.878700
vn -0.227600 -0.282500 0.931900
vn -0.334500 0.270500 0.902700
vn -0.825500 0.401600 -0.396600
vn 0.102200 0.395800 0.912600
vn 0.800100 0.249700 -0.545400
vn 0.067100 0.997700 -0.000000
vn 0.795100 0.245600 -0.554500
vn -0.257900 0.225400 -0.939500
vn -0.986700 -0.155900 -0.046300
vn -0.359300 -0.049500 0.931900
vn 0.819600 0.070700 -0.568600
vn -0.274900 -0.034800 -0.960800
vn 0.815400 0.065900 -0.575200
vn 0.762500 0.025700 0.646500
vn -0.229100 -0.114300 0.966700
vn 0.841800 -0.041800 0.538200
vn -0.453900 -0.163500 -0.875900
vn -0.980900 -0.193000 0.024500
usemtl NW_SEQ_NATURE_PALM_02
s off
f 37/1/1 42/2/1 53/3/1
f 42/2/2 37/1/2 53/3/2
f 4/4/3 49/5/3 43/6/3
f 49/5/4 4/4/4 43/6/4
f 44/7/5 54/8/5 19/1/5
f 54/8/6 44/7/6 19/1/6
f 38/9/7 49/5/7 43/6/7
f 49/5/8 38/9/8 43/6/8
f 21/5/9 26/4/9 17/6/9
f 26/4/10 21/5/10 17/6/10
f 44/7/11 19/1/11 5/10/11
f 19/1/12 44/7/12 5/10/12
f 11/11/13 21/5/13 32/12/13
f 21/5/14 11/11/14 32/12/14
f 13/13/15 11/11/15 21/5/15
f 11/11/16 13/13/16 21/5/16
f 27/14/17 6/15/17 16/2/17
f 6/15/18 27/14/18 16/2/18
f 15/16/19 7/17/19 54/8/19
f 7/17/20 15/16/20 54/8/20
f 6/15/21 16/2/21 14/18/21
f 16/2/22 6/15/22 14/18/22
f 18/9/23 17/6/23 20/3/23
f 17/6/24 18/9/24 20/3/24
f 9/19/25 17/6/25 10/20/25
f 10/20/26 17/6/26 20/3/26
f 17/6/27 9/19/27 10/20/27
f 17/6/28 10/20/28 20/3/28
f 18/9/29 12/21/29 14/18/29
f 20/3/30 18/9/30 14/18/30
f 12/21/31 18/9/31 14/18/31
f 18/9/32 20/3/32 14/18/32
f 19/1/33 5/10/33 10/20/33
f 20/3/34 19/1/34 10/20/34
f 5/10/35 19/1/35 10/20/35
f 19/1/36 20/3/36 10/20/36
f 16/2/37 19/1/37 20/3/37
f 14/18/38 16/2/38 20/3/38
f 19/1/39 16/2/39 20/3/39
f 16/2/40 14/18/40 20/3/40
f 21/5/41 18/9/41 17/6/41
f 21/5/42 32/12/42 18/9/42
f 18/9/43 21/5/43 17/6/43
f 32/12/44 21/5/44 18/9/44
f 9/19/45 26/4/45 17/6/45
f 26/4/46 9/19/46 17/6/46
f 27/14/47 15/16/47 54/8/47
f 15/16/48 27/14/48 54/8/48
f 42/2/49 46/18/49 53/3/49
f 46/18/50 42/2/50 53/3/50
f 18/9/51 32/12/51 12/21/51
f 32/12/52 18/9/52 12/21/52
f 33/22/53 6/15/53 14/18/53
f 6/15/54 33/22/54 14/18/54
f 38/9/55 34/21/55 46/18/55
f 34/21/56 38/9/56 46/18/56
f 37/1/57 53/3/57 40/20/57
f 53/3/58 37/1/58 40/20/58
f 37/1/59 48/8/59 42/2/59
f 48/8/60 37/1/60 42/2/60
f 48/8/61 2/7/61 37/1/61
f 37/1/62 2/7/62 35/10/62
f 2/7/63 48/8/63 37/1/63
f 2/7/64 37/1/64 35/10/64
f 49/5/65 8/12/65 38/9/65
f 38/9/66 8/12/66 34/21/66
f 8/12/67 49/5/67 38/9/67
f 8/12/68 38/9/68 34/21/68
f 48/8/69 39/17/69 2/7/69
f 39/17/70 48/8/70 2/7/70
f 37/1/71 35/10/71 40/20/71
f 35/10/72 37/1/72 40/20/72
f 50/11/73 49/5/73 8/12/73
f 49/5/74 50/11/74 8/12/74
f 3/14/75 48/8/75 42/2/75
f 28/15/76 3/14/76 42/2/76
f 48/8/77 3/14/77 42/2/77
f 3/14/78 28/15/78 42/2/78
f 47/19/79 4/4/79 43/6/79
f 40/20/80 43/6/80 53/3/80
f 4/4/81 47/19/81 43/6/81
f 43/6/82 40/20/82 53/3/82
f 54/8/83 7/17/83 44/7/83
f 7/17/84 54/8/84 44/7/84
f 28/15/85 42/2/85 46/18/85
f 45/22/86 28/15/86 46/18/86
f 42/2/87 28/15/87 46/18/87
f 28/15/88 45/22/88 46/18/88
f 47/19/89 43/6/89 40/20/89
f 43/6/90 47/19/90 40/20/90
f 36/16/91 39/17/91 48/8/91
f 3/14/92 36/16/92 48/8/92
f 39/17/93 36/16/93 48/8/93
f 36/16/94 3/14/94 48/8/94
f 41/13/95 50/11/95 49/5/95
f 50/11/96 41/13/96 49/5/96
f 41/13/97 1/23/97 50/11/97
f 1/23/98 41/13/98 50/11/98
f 13/13/99 51/23/99 11/11/99
f 51/23/100 13/13/100 11/11/100
f 43/6/101 38/9/101 53/3/101
f 53/3/102 38/9/102 46/18/102
f 38/9/103 43/6/103 53/3/103
f 38/9/104 53/3/104 46/18/104
f 54/8/105 19/1/105 16/2/105
f 27/14/106 54/8/106 16/2/106
f 19/1/107 54/8/107 16/2/107
f 54/8/108 27/14/108 16/2/108
usemtl NW_SEQ_NATURE_PALMBARK_01
f 63/24/109 74/25/109 25/26/109
f 67/27/110 56/28/110 69/29/110
f 23/30/111 60/31/111 71/32/111
f 24/33/112 58/34/112 75/35/112
f 63/24/113 57/36/113 74/25/113
f 24/33/114 59/37/114 58/34/114
f 23/30/115 71/32/115 22/38/115
f 56/39/116 62/40/116 69/41/116
f 56/39/117 66/42/117 62/40/117
f 57/43/118 75/35/118 74/44/118
f 57/43/119 24/33/119 75/35/119
f 52/45/120 25/46/120 76/47/120
f 60/48/121 67/49/121 55/50/121
f 59/51/122 52/52/122 76/53/122
f 58/54/123 60/31/123 23/30/123
f 59/51/124 76/53/124 58/54/124
f 66/42/125 22/55/125 62/40/125
f 52/45/126 63/36/126 25/46/126
f 66/42/127 23/56/127 22/55/127
f 75/35/128 58/34/128 23/56/128
f 76/47/129 25/46/129 67/49/129
f 25/26/130 56/28/130 67/27/130
f 67/27/131 69/29/131 55/57/131
f 60/48/132 55/50/132 71/58/132
f 25/26/133 74/25/133 56/28/133
f 74/44/134 66/42/134 56/39/134
f 74/44/135 75/35/135 66/42/135
f 75/35/136 23/56/136 66/42/136
f 76/47/137 67/49/137 60/48/137
f 58/54/138 76/53/138 60/31/138
usemtl NW_SEQ_NATURE_PALM_01
f 92/22/139 81/59/139 83/60/139
f 84/59/140 91/22/140 83/60/140
f 85/59/141 86/22/141 87/60/141
f 88/23/142 87/60/142 86/22/142
f 87/60/143 88/23/143 89/22/143
f 89/22/144 90/59/144 87/60/144
f 82/23/140 83/60/140 91/22/140
f 83/60/139 82/23/139 92/22/139
usemtl NW_SEQ_NATURE_PALMBARK_02
f 31/61/145 77/62/145 30/63/145
f 31/61/146 30/63/146 79/64/146
f 61/65/147 78/66/147 70/67/147
f 31/68/148 65/69/148 80/70/148
f 64/71/149 73/72/149 68/73/149
f 31/74/150 80/75/150 77/76/150
f 31/77/151 79/78/151 65/79/151
f 73/80/152 61/81/152 68/82/152
f 64/71/153 68/73/153 29/83/153
f 68/82/154 61/81/154 70/84/154
f 78/66/155 29/85/155 70/67/155
f 68/86/156 70/87/156 29/88/156
f 78/66/157 72/89/157 29/85/157
f 72/90/158 64/91/158 29/92/158
f 80/70/159 65/69/159 73/72/159
f 65/79/160 61/81/160 73/80/160
f 30/63/161 77/62/161 72/89/161
f 77/76/162 64/91/162 72/90/162
f 30/63/163 72/89/163 78/66/163
f 79/64/164 30/63/164 78/66/164
f 65/79/165 79/78/165 61/81/165
f 79/64/166 78/66/166 61/65/166
f 77/76/167 80/75/167 64/91/167
f 80/70/168 73/72/168 64/71/168
