# Blender v2.75 (sub 0) OBJ File: 'Empty.blend'
# www.blender.org
mtllib ADDON_PLANTS_BLAETTERDACH_02_6P.mtl
o ADDON_PLANTS_BLAETTERDACH_02_6P
v -2.446355 7.712316 25.925381
v 15.395658 7.712316 25.916351
v -2.465533 7.712316 -11.972543
v 15.376478 7.712316 -11.981571
v -7.708202 3.568916 22.012341
v 10.133813 3.568916 22.003309
v -7.727378 3.568916 -15.885582
v 10.114635 3.568916 -15.894610
v -11.297060 0.504966 12.139339
v 6.544954 0.504966 12.130311
v -11.316237 0.504966 -25.758583
v 6.525777 0.504966 -25.767612
vt 0.999501 0.999001
vt 0.999500 -0.999001
vt 0.000499 -0.999001
vt 0.000500 0.999001
vn 0.000000 -1.000000 0.000000
usemtl NW_SEQ_NATURE_ROOFLEAVE_13
s off
f 1/1/1 3/2/1 4/3/1
f 4/3/1 2/4/1 1/1/1
f 5/1/1 7/2/1 8/3/1
f 8/3/1 6/4/1 5/1/1
f 9/1/1 11/2/1 12/3/1
f 12/3/1 10/4/1 9/1/1
