# Blender v2.75 (sub 0) OBJ File: 'Empty.blend'
# www.blender.org
mtllib ADDON_DUNGEON_BROKENSTONE_03.mtl
o ADDON_DUNGEON_BROKENSTONE_03
v -2.616493 -0.072811 -0.703262
v -1.564238 0.078861 -0.703262
v -1.242409 -0.078841 -1.334496
v -2.255464 -0.057948 -1.332663
v -0.321205 0.048579 0.424069
v 0.616841 -0.044463 -0.541869
v -0.817533 -0.064333 0.029614
v -2.995977 -0.051679 2.017894
v -2.416932 0.064937 1.878558
v -3.273567 0.043887 1.516090
v -2.543477 0.053728 1.343282
v 0.820464 -0.044463 -0.030794
v -1.560615 -0.084072 -0.703262
v -1.246032 0.084092 -1.334496
v -2.607243 0.064285 -1.064646
v -2.996553 0.057125 2.015751
v -2.416355 -0.043867 1.880700
v -3.272990 -0.064917 1.518232
v -2.542901 -0.055076 1.345424
v -0.318293 -0.060238 0.422909
v 0.817552 0.064353 -0.029634
v -0.820444 0.044484 0.030774
v 0.613930 0.064353 -0.540709
v -2.588129 0.061812 -0.746576
v -2.659954 -0.082059 -0.834598
v -2.515164 0.065799 -1.195025
v -2.563555 -0.071085 -1.096748
v -0.606741 -0.062783 0.233405
v -2.256555 0.067478 -1.311798
v -2.628501 0.062241 -0.891637
v -3.154569 -0.058703 1.764869
v -1.362799 -0.080820 -1.027754
v -0.609652 0.046033 0.234565
v -1.366422 0.082113 -1.027754
v -3.155145 0.050102 1.762727
v -0.405994 -0.060958 0.354031
v -0.408905 0.047858 0.355191
v -1.508261 0.079781 -0.813924
v -1.504638 -0.083152 -0.813924
v -3.044631 -0.054001 1.930318
v -3.045208 0.054803 1.928176
vt 0.145614 -0.342191
vt 0.276728 -0.602477
vt 0.652141 -0.343108
vt 0.721460 -0.602477
vt 0.792380 -0.495562
vt 0.347313 -0.353540
vt 0.806187 -0.461065
vt 0.652687 -0.466266
vt 0.147425 -0.457959
vt 0.652141 -0.528979
vt 0.145954 -0.350514
vt 0.786849 -0.577363
vt 0.857771 -0.484183
vt 0.140663 -0.484183
vt 0.211584 -0.577363
vt 0.852479 -0.350514
vt 0.239574 -0.625587
vt 0.852479 -0.625587
vt 0.145954 -0.625587
vt 0.758859 -0.625587
vt 0.181527 -0.469099
vt 0.695283 -0.542041
vt 0.693472 -0.460575
vt 0.145614 -0.539425
vt 0.218009 -0.411927
vt 0.181527 -0.636151
vt 0.239574 -0.412254
vt 0.241141 -0.466662
vt 0.854046 -0.458775
vt 0.649486 -0.404367
vt 0.374413 -0.404367
vt 0.374413 -0.458775
vt 0.852479 -0.404367
vt 0.917967 -0.468710
vt 0.919534 -0.414301
vt 0.147521 -0.404367
vt 0.649486 -0.458775
vt 0.145954 -0.458775
vt 0.167344 -0.536410
vt 0.304717 -0.657809
vt 0.832656 -0.657808
vt 0.854386 -0.592140
vt 0.171969 -0.477116
vt 0.917967 -0.350514
vt 0.161340 -0.563621
vt 0.205809 -0.495562
vt 0.080466 -0.350514
vt 0.852575 -0.342191
vt 0.693472 -0.657809
vt 0.397523 -0.460114
vt 0.397523 -0.541581
vt 0.504438 -0.540415
vt 0.504438 -0.458948
vt 0.781991 -0.467106
vt 0.806187 -0.535547
vt 0.577363 -0.467022
vt 0.577363 -0.412614
vt 0.484183 -0.413527
vt 0.484183 -0.467935
vt 0.592140 -0.541034
vt 0.563621 -0.468885
vt 0.477116 -0.467862
vt 0.657808 -0.536410
vt 0.636151 -0.469099
vt 0.411927 -0.467106
vt 0.461065 -0.535547
vt 0.350514 -0.414301
vt 0.350514 -0.468710
vt 0.657809 -0.539425
vt 0.657809 -0.457959
vt 0.625587 -0.466662
vt 0.625587 -0.412254
vt 0.342191 -0.460575
vt 0.342191 -0.542041
vn -0.020600 -0.999600 -0.018700
vn -0.016400 0.999900 -0.000000
vn 0.002600 -0.998600 -0.052200
vn -0.024800 0.163800 -0.986200
vn 0.012000 -0.999900 -0.004800
vn -0.012000 0.999900 0.004800
vn -0.017500 0.999700 -0.016800
vn 0.017500 -0.999700 0.016800
vn -0.042300 -0.000900 0.999100
vn -0.001800 -0.000000 -1.000000
vn -0.016200 0.999800 0.006200
vn 0.230000 0.020400 0.973000
vn 0.973200 0.000600 -0.230100
vn -0.230000 -0.020400 -0.973000
vn 0.370100 -0.000000 0.929000
vn 0.928600 0.028800 -0.370000
vn -0.370100 0.000000 -0.929000
vn 0.003300 0.305700 0.952100
vn -0.010600 -0.997200 0.073700
vn -0.005000 1.000000 0.008100
vn -0.000200 -0.999100 -0.041900
vn -0.010500 0.999900 -0.008900
vn -0.022100 0.999700 0.009100
vn 0.016400 -0.999900 -0.000000
vn -0.016600 0.999900 -0.000100
vn -0.000800 -1.000000 -0.008700
vn 0.833100 0.018500 0.552800
vn -0.562100 -0.342000 -0.753100
vn -0.833000 0.006500 0.553300
vn -0.514800 -0.022900 0.857000
vn -0.978900 0.166600 -0.118300
vn -0.916000 0.284100 0.283100
vn -0.809700 -0.125400 -0.573300
vn -0.914100 -0.213200 -0.345000
vn -0.694700 -0.026200 0.718800
vn -0.407900 0.146400 -0.901200
vn -0.918300 0.301500 0.256500
vn -0.901500 0.003800 0.432800
vn 0.930600 0.020700 0.365400
vn -0.901500 0.003700 0.432800
vn -0.617300 -0.024900 0.786300
vn 0.892100 0.019800 0.451400
vn -0.874200 0.004900 0.485500
vn -0.874200 0.004900 0.485600
usemtl NW_SEQ_MAYA_WALL_10
s off
f 3/1/1 39/2/1 4/3/1
f 38/4/2 34/5/2 29/6/2
f 39/2/3 27/7/3 4/3/3
f 29/8/4 14/9/4 4/10/4
f 6/11/5 36/12/5 28/13/5
f 33/14/6 37/15/6 23/16/6
f 35/14/7 41/15/7 11/16/7
f 19/11/8 40/12/8 31/13/8
f 16/17/7 9/18/7 11/16/7
f 19/11/8 17/19/8 8/20/8
f 6/11/5 12/19/5 20/20/5
f 5/17/6 21/18/6 23/16/6
f 24/21/9 13/22/9 2/23/9
f 14/9/10 3/24/10 4/10/10
f 38/4/11 26/25/11 24/26/11
f 16/27/12 8/28/12 17/29/12
f 11/30/13 9/31/13 17/32/13
f 17/29/12 9/33/12 16/27/12
f 18/34/14 10/35/14 11/36/14
f 17/32/13 19/37/13 11/30/13
f 11/36/14 19/38/14 18/34/14
f 5/27/15 20/28/15 12/29/15
f 23/30/16 21/31/16 12/32/16
f 12/29/15 21/33/15 5/27/15
f 7/34/17 22/35/17 23/36/17
f 12/32/16 6/37/16 23/30/16
f 23/36/17 6/38/17 7/34/17
f 24/21/18 1/39/18 13/22/18
f 13/40/19 1/41/19 25/42/19
f 26/25/20 15/43/20 24/26/20
f 39/2/21 25/42/21 27/7/21
f 28/13/5 7/44/5 6/11/5
f 38/4/22 29/6/22 26/25/22
f 15/43/23 30/45/23 24/26/23
f 31/13/8 18/44/8 19/11/8
f 3/1/24 32/46/24 39/2/24
f 23/16/6 22/47/6 33/14/6
f 34/5/2 14/48/2 29/6/2
f 11/16/7 10/47/7 35/14/7
f 20/20/5 36/12/5 6/11/5
f 23/16/6 37/15/6 5/17/6
f 38/4/25 24/26/25 2/49/25
f 39/2/26 13/40/26 25/42/26
f 8/20/8 40/12/8 19/11/8
f 11/16/7 41/15/7 16/17/7
usemtl NW_CITY_BROKENSTONE_01
f 38/50/27 39/51/27 32/52/27
f 32/52/27 34/53/27 38/50/27
f 26/54/28 4/10/28 27/55/28
f 40/56/29 41/57/29 35/58/29
f 35/58/29 31/59/29 40/56/29
f 36/56/30 37/57/30 33/58/30
f 33/58/30 28/59/30 36/56/30
f 25/60/31 30/61/31 15/62/31
f 25/60/32 1/63/32 24/64/32
f 15/62/33 26/65/33 27/66/33
f 15/62/34 27/66/34 25/60/34
f 22/67/35 7/68/35 28/59/35
f 26/54/36 29/8/36 4/10/36
f 24/64/37 30/61/37 25/60/37
f 10/67/38 18/68/38 31/59/38
f 34/53/39 32/52/39 3/69/39
f 28/59/35 33/58/35 22/67/35
f 3/69/39 14/70/39 34/53/39
f 31/59/40 35/58/40 10/67/40
f 37/57/41 36/56/41 20/71/41
f 20/71/41 5/72/41 37/57/41
f 39/51/42 38/50/42 2/73/42
f 2/73/42 13/74/42 39/51/42
f 41/57/43 40/56/43 8/71/43
f 8/71/44 16/72/44 41/57/44
