# Blender v2.75 (sub 0) OBJ File: 'Empty.blend'
# www.blender.org
mtllib AW_CRATEPILE_01.mtl
o AW_CRATEPILE_01
v -0.186436 -0.049634 0.854734
v -0.186436 -1.049634 -0.310518
v 0.813565 -1.049634 0.854734
v 0.038023 -0.049634 -1.434853
v -1.161977 -1.049634 -1.434853
v 0.038023 -1.049634 -0.434853
v -1.394894 -0.049634 -0.419485
v -0.345746 -1.049634 0.737791
v -0.206573 -0.049634 -0.252477
v 0.534255 0.518012 -1.410690
v -0.769035 0.518012 -0.026198
v 0.793074 -0.053559 -0.444764
v -1.027855 -0.053559 -0.992124
v 0.064331 -0.049634 -1.246212
v 1.161808 -1.049634 -0.356804
v 1.161808 -0.049634 -1.246212
v 0.759993 0.587328 -0.365268
v 0.016178 -0.054383 -0.165963
v 0.926080 -0.054383 0.254577
v 1.466973 -0.406029 -0.316037
v 1.534088 -1.047740 0.451086
v 0.827704 -1.047740 -0.260108
v -0.194458 1.051042 -0.841882
v -0.836169 0.516283 -0.841882
v -0.194458 0.516283 -0.307123
v -0.775416 -0.516263 0.831822
v -1.497404 -1.051022 1.251935
v -0.775416 -1.051022 0.831822
v -0.035172 1.051042 -0.552627
v 0.499587 0.516283 -1.194339
v -0.035172 0.516283 -0.552627
v -0.186436 -1.049634 0.854734
v 0.038023 -1.049634 -1.434853
v 0.813565 -1.049634 -0.310518
v -0.186436 -0.049634 -0.310518
v 0.813565 -0.049634 -0.310518
v -1.161977 -1.049634 -0.434853
v 0.038023 -0.049634 -0.434853
v -1.161977 -0.049634 -0.434853
v -1.394894 -1.049634 -0.419485
v -0.345746 -0.049634 0.737791
v -0.206573 -1.049634 -0.252477
v -1.534068 -1.049634 0.570783
v 0.064331 -1.049634 -1.246212
v 1.161808 -0.049634 -0.356804
v 0.064331 -0.049634 -0.356804
v 1.161808 -1.049634 -1.246212
v 0.064331 -1.049634 -0.356804
v 0.813565 -0.107070 0.854734
v -1.534068 -0.130634 0.570783
v -1.161977 -0.134761 -1.434853
v 0.759993 -0.054383 -0.365268
v 1.466973 -1.047740 -0.316037
v 1.534088 -0.406029 0.451086
v 0.894819 -0.406029 0.507015
v 0.827704 -0.406029 -0.260108
v 0.894819 -1.047740 0.507015
v 0.016178 0.587328 -0.165963
v 0.182265 0.587328 0.453882
v 0.182265 -0.054383 0.453882
v 0.884918 0.587328 0.265607
v 0.793074 0.518012 -0.444764
v 0.534255 -0.053559 -1.410690
v -0.769035 -0.053559 -0.026198
v -0.194458 0.516283 -0.841882
v -0.194458 1.051042 -0.307123
v -0.836169 0.516283 -0.307123
v -1.277925 -1.051022 0.648924
v 0.499587 0.516283 -0.552627
v -1.497404 -0.516263 1.251935
v -1.277925 -0.516263 0.648924
v 0.499587 1.051042 -1.194339
v -0.035172 1.051042 -1.194338
v -0.035172 0.516283 -1.194338
v -0.994894 -0.516263 1.434833
v -0.994894 -1.051022 1.434833
v -0.836169 1.051042 -0.823752
v -0.965611 0.518012 -1.008803
v 0.499587 1.051042 -0.586901
v -0.785259 1.051042 -0.307123
v -0.836169 1.032912 -0.841882
v -1.161977 -0.049634 -1.349727
v -1.076850 -0.049634 -1.434853
v -1.453856 -0.049634 0.582056
v -1.522795 -0.049634 0.490572
v -1.027855 0.453573 -0.992124
v -1.011176 0.518012 -0.929881
v 0.813565 -0.049634 0.797298
v 0.756129 -0.049634 0.854734
v -0.836169 1.051042 -0.358033
v -0.836169 1.000132 -0.307123
v 0.926080 0.544714 0.254577
v 0.915050 0.587328 0.213416
v 0.499587 1.016768 -0.552627
v 0.465313 1.051042 -0.552627
v -0.818039 1.051042 -0.841882
vt 0.000500 -0.999500
vt 0.999500 -0.000500
vt 0.000500 -0.049741
vt 0.999501 -0.999500
vt 0.000500 -0.000500
vt 0.935126 -0.000500
vt 0.933160 -0.000500
vt 0.064528 -0.999500
vt 0.914459 -0.000500
vt 0.000500 -0.067932
vt 0.942122 -0.000500
vt 0.918581 -0.000500
vt 0.000500 -0.071368
vt 0.000500 -0.055783
vt 0.965631 -0.000500
vt 0.904393 -0.000500
vt 0.000500 -0.028724
vt 0.000500 -0.040306
vt 0.999500 -0.946144
vt 0.000500 -0.079756
vt 0.034369 -0.000500
vt 0.999500 -0.071368
vt 0.964031 0.060935
vt 0.956937 -0.074221
vt 1.084627 -0.000500
vt 0.085541 -0.000500
vt 0.081419 -0.000500
vt 0.999500 -0.067932
vt -0.040000 0.069649
vt -0.040000 -0.070648
vt 0.068000 -0.000500
vt 0.113128 -0.000500
vt 0.979577 0.034008
vt 0.943130 -0.098136
vt 1.063940 -0.000500
vt 0.999500 -0.040306
vt 0.057878 -0.000500
vt 0.999501 -0.049741
vt -0.028218 0.049241
vt -0.028218 -0.050241
vt 0.049790 -0.000500
vt 0.095608 -0.000500
vt -0.048772 0.084842
vt -0.047102 -0.082948
vt 0.079836 -0.000500
vt 0.999501 -0.079756
vt 0.066840 -0.000500
vt 0.971831 0.047425
vt 0.966297 -0.058010
vt 1.065907 -0.000500
vt 0.999500 -0.055783
vt 0.000500 -0.946144
vt 0.935472 -0.999500
vt 0.967454 -0.943995
vt 0.967454 -1.055006
vt 1.052910 -0.999500
vt 0.985374 0.023968
vt 0.982549 -0.029861
vt 1.033404 -0.000500
vt 0.999500 -0.028724
vt 0.999501 -0.942122
vt 0.999500 -0.918581
vt 0.886873 -0.000499
vt 0.000500 -0.064528
vt 0.999501 -0.034369
vt 0.999500 -0.904392
vt 0.999501 -0.085541
vt 0.918581 -0.999500
vt 0.999501 -0.064874
vt 0.942122 -0.999500
vt 0.904393 -0.999500
vt 0.999501 -0.066840
vt 0.064528 -0.000500
vn 0.000000 1.000000 0.000000
vn -1.000000 0.000000 0.000000
vn 0.000000 0.000000 -1.000000
vn 0.139200 0.000000 -0.990300
vn -0.139200 0.000000 0.990300
vn 0.000000 -1.000000 0.000000
vn 0.000000 0.000000 1.000000
vn -0.258800 0.000000 -0.965900
vn -0.996200 0.000000 0.087200
vn 0.996200 0.000000 -0.087200
vn 0.939700 0.000000 0.342000
vn -0.939700 0.000000 -0.342000
vn 1.000000 0.000000 0.000000
vn 0.258800 0.000000 0.965900
vn -0.577300 0.577400 -0.577400
vn -0.652100 0.577400 0.491400
vn -0.707100 0.577300 -0.408200
vn 0.577300 0.577400 0.577400
vn -0.577300 0.577400 0.577300
vn 0.707100 0.577400 0.408200
vn 0.577400 0.577400 0.577300
vn -0.577400 0.577300 -0.577400
vn 0.990300 0.000000 0.139200
vn -0.990300 0.000000 -0.139200
vn 0.965900 0.000000 -0.258800
vn -0.087200 0.000000 -0.996200
vn 0.087200 0.000000 0.996200
vn -0.965900 0.000000 0.258800
vn 0.342000 0.000000 -0.939700
vn -0.342000 0.000000 0.939700
usemtl NW_HARBOUR_WOODCRATE_01
s off
f 36/1/1 1/2/1 88/3/1
f 2/4/2 32/2/2 1/5/2
f 39/5/1 38/1/1 4/4/1
f 5/2/3 4/1/3 33/4/3
f 7/5/4 9/1/4 42/4/4
f 43/5/5 8/1/5 41/4/5
f 63/1/6 12/4/6 64/2/6
f 11/5/1 62/1/1 10/4/1
f 64/2/6 13/5/6 63/1/6
f 10/4/1 87/6/1 11/5/1
f 14/5/3 16/1/3 47/4/3
f 48/5/7 15/1/7 45/4/7
f 59/4/1 93/7/1 17/5/1
f 58/4/8 17/2/8 52/5/8
f 55/5/9 56/1/9 22/4/9
f 21/5/10 53/1/10 20/4/10
f 67/5/7 25/1/7 66/4/7
f 24/2/3 23/1/3 65/4/3
f 76/4/11 28/2/11 26/5/11
f 70/4/12 71/2/12 68/5/12
f 74/5/2 31/1/2 29/4/2
f 94/8/13 69/4/13 72/5/13
f 1/2/1 36/1/1 35/4/1
f 1/5/2 35/1/2 2/4/2
f 3/5/13 34/1/13 36/4/13
f 4/4/1 82/9/1 39/5/1
f 37/5/7 6/1/7 38/4/7
f 38/4/7 39/2/7 37/5/7
f 42/4/4 40/2/4 7/5/4
f 41/1/1 7/2/1 84/10/1
f 7/2/1 41/1/1 9/4/1
f 47/4/3 44/2/3 14/5/3
f 45/4/7 46/2/7 48/5/7
f 46/5/1 45/1/1 16/4/1
f 16/4/1 14/2/1 46/5/1
f 36/4/13 49/11/13 3/5/13
f 41/4/5 50/12/5 43/5/5
f 4/1/3 5/2/3 83/13/3
f 19/5/6 18/4/6 52/2/6
f 20/4/10 54/2/10 21/5/10
f 22/4/9 57/2/9 55/5/9
f 56/4/1 55/2/1 54/5/1
f 54/5/1 20/1/1 56/4/1
f 52/5/8 18/1/8 58/4/8
f 19/2/14 59/1/14 60/4/14
f 17/5/1 58/1/1 59/4/1
f 59/1/14 19/2/14 61/14/14
f 64/5/14 12/1/14 62/4/14
f 13/2/8 10/1/8 63/4/8
f 62/4/14 11/2/14 64/5/14
f 77/15/1 66/1/1 23/4/1
f 66/4/7 91/16/7 67/5/7
f 68/5/12 27/1/12 70/4/12
f 26/5/11 75/1/11 76/4/11
f 75/4/1 26/2/1 71/5/1
f 30/2/13 72/5/13 69/4/13
f 29/4/2 73/2/2 74/5/2
f 29/1/1 72/2/1 73/5/1
f 71/5/1 70/1/1 75/4/1
f 23/1/3 24/2/3 96/17/3
f 10/1/8 13/2/8 78/18/8
f 72/2/1 29/1/1 79/19/1
f 66/1/1 77/15/1 80/20/1
f 96/17/3 24/2/3 81/21/3
f 4/4/1 83/22/1 82/9/1
f 83/23/15 51/24/15 82/25/15
f 83/13/3 5/2/3 51/26/3
f 84/10/1 7/2/1 85/27/1
f 41/4/5 84/28/5 50/12/5
f 85/29/16 50/30/16 84/31/16
f 78/18/8 13/2/8 86/32/8
f 78/33/17 86/34/17 87/35/17
f 10/4/1 78/36/1 87/6/1
f 88/3/1 1/2/1 89/37/1
f 36/4/13 88/38/13 49/11/13
f 89/39/18 49/40/18 88/41/18
f 80/20/1 77/15/1 90/42/1
f 90/43/19 91/44/19 80/45/19
f 66/4/7 80/46/7 91/16/7
f 61/14/14 19/2/14 92/47/14
f 61/48/20 92/49/20 93/50/20
f 59/4/1 61/51/1 93/7/1
f 79/52/13 94/8/13 72/5/13
f 79/19/1 29/1/1 95/53/1
f 95/54/21 94/55/21 79/56/21
f 96/57/22 81/58/22 77/59/22
f 23/4/1 96/60/1 77/15/1
usemtl NW_HARBOUR_WOODCRATE_02
f 3/1/7 1/2/7 32/5/7
f 6/4/13 33/2/13 4/5/13
f 34/4/3 2/2/3 35/5/3
f 35/5/3 36/1/3 34/4/3
f 4/5/13 38/1/13 6/4/13
f 5/5/2 37/1/2 39/4/2
f 9/5/23 41/1/23 8/4/23
f 8/4/23 42/2/23 9/5/23
f 43/1/24 7/2/24 40/5/24
f 16/5/13 45/1/13 15/4/13
f 46/4/2 14/2/2 44/5/2
f 15/4/13 47/2/13 16/5/13
f 44/5/2 48/1/2 46/4/2
f 1/2/7 3/1/7 89/61/7
f 7/2/24 43/1/24 85/62/24
f 39/4/2 51/9/2 5/5/2
f 19/5/25 52/1/25 17/4/25
f 53/4/26 22/2/26 56/5/26
f 54/4/27 55/2/27 57/5/27
f 56/5/26 20/1/26 53/4/26
f 57/5/27 21/1/27 54/4/27
f 59/5/28 58/1/28 18/4/28
f 18/4/28 60/2/28 59/5/28
f 17/4/25 92/7/25 19/5/25
f 10/5/25 62/1/25 12/4/25
f 12/4/25 63/2/25 10/5/25
f 13/5/28 64/1/28 11/4/28
f 25/4/13 65/2/13 23/5/13
f 23/5/13 66/1/13 25/4/13
f 28/5/29 68/1/29 71/4/29
f 69/2/7 29/1/7 31/4/7
f 71/4/29 26/2/29 28/5/29
f 73/4/3 72/2/3 30/5/3
f 30/5/3 74/1/3 73/4/3
f 75/5/30 70/1/30 27/4/30
f 27/4/30 76/2/30 75/5/30
f 67/1/2 81/15/2 24/5/2
f 11/4/28 86/63/28 13/5/28
f 29/1/7 69/2/7 95/64/7
f 77/65/2 67/1/2 90/66/2
f 67/1/2 77/65/2 81/15/2
f 39/4/2 82/67/2 51/9/2
f 85/62/24 43/1/24 50/68/24
f 11/4/28 87/69/28 86/63/28
f 89/61/7 3/1/7 49/70/7
f 90/66/2 67/1/2 91/71/2
f 17/4/25 93/72/25 92/7/25
f 95/64/7 69/2/7 94/73/7
