# Blender v2.75 (sub 0) OBJ File: 'Empty.blend'
# www.blender.org
mtllib BEAM_MS.mtl
o BEAM_MS
v 0.200000 -3.400000 -0.200000
v 0.200000 3.400000 0.200000
v -0.200000 3.400000 -0.200000
v 0.200000 -3.400000 0.200000
v 0.200000 3.400000 -0.200000
v -0.200000 -3.400000 -0.200000
v -0.200000 3.400000 0.200000
v -0.200000 -3.400000 0.200000
vt -1.410687 -0.558230
vt 1.003619 -0.558230
vt -1.410687 -0.750947
vt 1.003619 -0.750947
vt 0.420416 -0.916667
vt 0.402654 -0.525362
vt 0.066459 -0.943237
vt 0.042777 -0.044686
vt 0.436205 -0.428744
vt 0.396734 -0.027778
vt 0.056592 -0.566425
vt 0.086195 -0.428744
vn 0.000000 0.000000 1.000000
vn 1.000000 0.000000 0.000000
vn 0.000000 0.000000 -1.000000
vn -1.000000 0.000000 0.000000
vn 0.000000 1.000000 0.000000
vn 0.000000 -1.000000 0.000000
usemtl BEAM_MS_1
s off
f 7/1/1 8/2/1 2/3/1
f 5/3/2 2/1/2 1/4/2
f 4/4/1 2/3/1 8/2/1
f 4/2/2 1/4/2 2/1/2
f 5/1/3 1/2/3 3/3/3
f 6/4/3 3/3/3 1/2/3
f 3/1/4 6/2/4 7/3/4
f 8/4/4 7/3/4 6/2/4
usemtl BEAM_MS_2
f 2/5/5 5/6/5 7/7/5
f 8/8/6 1/9/6 4/10/6
f 3/11/5 7/7/5 5/6/5
f 1/9/6 8/8/6 6/12/6
