# Blender v2.75 (sub 0) OBJ File: 'Empty.blend'
# www.blender.org
mtllib BED_1_OC.mtl
o BED_1_OC
v -1.225090 0.000000 0.602027
v 1.243140 0.000000 0.602027
v -1.225090 0.513205 0.598950
v 1.403680 0.000000 0.636329
v 1.403680 0.000000 -0.632861
v 1.401380 0.573715 -0.632861
v 1.243140 0.493138 0.598950
v 1.243140 0.000000 -0.478500
v -1.225090 0.000000 -0.478500
v 1.243140 0.521740 -0.495651
v 1.401380 0.593782 0.636329
v 1.203010 0.000000 0.636329
v 1.205090 0.531993 -0.632861
v 1.205090 0.552060 0.636329
v 1.205090 0.552060 0.636329
v 1.205090 0.531993 -0.632861
v 1.401380 0.593782 0.636329
v -1.225090 0.501674 -0.495651
v -1.405690 0.000000 -0.512802
v -1.411250 1.132430 -0.458222
v -1.405690 0.000000 -0.306988
v -1.325420 0.000000 -0.306988
v -1.331970 1.144980 -0.458222
v -1.325420 0.000000 -0.512802
v -1.405690 1.101220 0.376527
v -1.325420 1.063550 0.173246
v -1.325420 1.101220 0.376527
v -1.405690 1.063550 0.173246
v 1.401380 0.573715 -0.632861
v 1.203010 0.000000 -0.632861
v 1.243140 0.521740 -0.495651
v -1.225090 0.521740 -0.598558
v 1.243140 0.541807 -0.598558
v -1.225090 0.501674 -0.495651
v 1.205090 0.531993 -0.632861
v 1.401380 0.573715 -0.632861
v 1.403680 0.000000 -0.632861
v 1.203010 0.000000 -0.632861
v 1.203010 0.000000 0.636329
v 1.403680 0.000000 0.636329
v 1.401380 0.593782 0.636329
v 1.205090 0.552060 0.636329
v -1.225090 0.481607 0.481968
v 1.243140 0.461540 0.481968
v 1.243140 0.000000 0.481968
v -1.225090 0.000000 0.481968
v -1.225090 0.513205 0.598950
v 1.243140 0.493138 0.598950
v 1.243140 0.461540 0.481968
v -1.225090 0.481607 0.481968
v 1.243140 0.541807 -0.598558
v 1.243140 0.000000 -0.598558
v -1.225090 0.000000 -0.598558
v -1.225090 0.521740 -0.598558
v -1.325420 0.000000 -0.632861
v -1.325420 0.000000 0.636329
v -1.325420 0.792644 0.636329
v -1.325420 0.812711 -0.632861
v -1.325420 0.000000 -0.632861
v -1.325420 0.812711 -0.632861
v -1.205020 0.792644 -0.632861
v -1.205020 0.000000 -0.632861
v -1.325420 0.812711 -0.632861
v -1.325420 0.792644 0.636329
v -1.205020 0.772577 0.636329
v -1.205020 0.792644 -0.632861
v -1.325420 0.792644 0.636329
v -1.325420 0.000000 0.636329
v -1.205020 0.000000 0.636329
v -1.205020 0.772577 0.636329
v -1.205020 0.772577 0.636329
v -1.205020 0.000000 0.636329
v -1.205020 0.000000 -0.632861
v -1.205020 0.792644 -0.632861
v -1.325420 1.101220 0.376527
v -1.325420 0.000000 0.379061
v -1.325420 0.000000 0.173246
v -1.325420 1.063550 0.173246
v -1.405690 1.063550 0.173246
v -1.325420 1.063550 0.173246
v -1.325420 0.000000 0.173246
v -1.405690 0.000000 0.173246
v -1.405690 0.000000 0.379061
v -1.325420 0.000000 0.379061
v -1.325420 1.101220 0.376527
v -1.405690 1.101220 0.376527
v -1.405690 0.000000 0.173246
v -1.405690 0.000000 0.379061
v -1.405690 1.101220 0.376527
v -1.405690 1.063550 0.173246
v -1.325420 1.103680 -0.255534
v -1.411250 1.132430 -0.458222
v -1.331970 1.144980 -0.458222
v -1.405690 0.000000 -0.512802
v -1.325420 0.000000 -0.512802
v -1.404700 1.091120 -0.255534
v -1.325420 1.103680 -0.255534
v -1.331970 1.144980 -0.458222
v -1.411250 1.132430 -0.458222
v -1.405690 0.000000 -0.306988
v -1.325420 0.000000 -0.306988
v -1.404700 1.091120 -0.255534
v -1.325420 1.103680 -0.255534
v -1.404700 1.091120 -0.255534
v -1.245160 0.381272 0.499120
v 1.263210 0.381272 0.499120
v -1.245160 0.501674 0.241851
v 1.263210 0.501674 0.241851
v 1.263210 0.501674 -0.255534
v -1.245160 0.501674 -0.255534
v 1.263210 0.381272 -0.495651
v -1.245160 0.381272 -0.495651
vt -0.005050 0.055490
vt 0.244940 0.446400
vt -0.005050 0.446400
vt 0.003210 0.499890
vt -0.002620 0.002580
vt 0.248600 0.002230
vt 0.245230 0.055490
vt 0.237460 0.046470
vt 0.288330 0.453100
vt 0.288360 0.046810
vt 0.254970 0.500580
vt -0.002150 0.060640
vt 0.246220 0.060640
vt 0.246780 0.456360
vt 0.092290 0.055200
vt 0.176710 0.504990
vt 0.169930 0.055590
vt 0.233400 0.452430
vt 0.391970 0.502310
vt 0.319560 0.847480
vt 0.319000 0.506840
vt 0.318250 0.846060
vt 0.385660 0.848480
vt 0.386630 0.505270
vt 0.452410 0.384430
vt 0.382170 0.245110
vt 0.446500 0.061350
vt 0.321140 0.423620
vt 0.107400 0.504600
vt -0.002410 0.456360
vt 0.189360 0.056540
vt 0.122350 0.445940
vt 0.122360 0.053760
vt 0.190320 0.444700
vt 0.002290 0.001560
vt 0.246880 0.089460
vt 0.016780 0.088730
vt 0.248880 0.002170
vt 0.000440 0.503100
vt 0.247780 0.424610
vt 0.000440 0.424950
vt 0.254950 0.503270
vt 0.233260 0.443820
vt 0.317280 0.044440
vt 0.232970 0.045250
vt 0.316910 0.443190
vt 0.122870 0.049070
vt 0.192630 0.442490
vt 0.122930 0.443950
vt 0.192570 0.050050
vt 0.003560 0.452600
vt 0.247810 0.042130
vt 0.248540 0.452600
vt 0.003560 0.042130
vt -0.005930 0.021750
vt 0.249990 0.471710
vt -0.005930 0.471710
vt 0.249550 0.021750
vt 0.248950 0.501830
vt -0.001070 0.437710
vt -0.000740 0.500760
vt 0.251370 0.441070
vt 0.092370 0.055390
vt 0.177120 0.504240
vt 0.107790 0.504240
vt 0.170470 0.054650
vt 0.250300 0.002590
vt -0.001490 0.081860
vt -0.001790 0.002590
vt 0.246160 0.081860
vt -0.004780 0.058180
vt 0.243810 0.461210
vt 0.243050 0.058180
vt -0.004780 0.461210
vt 0.239040 0.073210
vt 0.485630 0.403460
vt 0.245190 0.420560
vt 0.485630 0.073210
vt 0.302320 0.495910
vt 0.416750 0.070930
vt 0.416750 0.505590
vt 0.302320 0.061250
vt 0.438570 0.057930
vt 0.306330 0.433270
vt 0.304370 0.061250
vt 0.441370 0.411460
vt 0.495440 0.063440
vt 0.260720 0.420340
vt 0.260720 0.063440
vt 0.489280 0.420480
vt 0.317240 0.504190
vt 0.351830 0.589210
vt 0.322450 0.847580
vt 0.329080 0.588500
vt 0.345050 0.842760
vt 0.389090 0.766550
vt 0.317050 0.628610
vt 0.381490 0.517460
vt 0.326630 0.795780
vt 0.380550 0.849260
vt 0.355790 0.596960
vt 0.352040 0.849260
vt 0.383120 0.603770
vt 0.391120 0.845520
vt 0.250450 0.499920
vt 0.250450 0.999920
vt 0.186020 0.999920
vt 0.186020 0.499920
vt 0.061060 0.499920
vt 0.061060 0.999920
vt 0.000540 0.999920
vt 0.000540 0.499920
vn 0.000000 0.006000 1.000000
vn 1.000000 0.004000 0.000000
vn 0.000100 0.006200 1.000000
vn 0.000000 0.032900 0.999500
vn 1.000000 0.003900 -0.000100
vn -1.000000 0.003800 -0.000100
vn -0.207900 0.978000 -0.015500
vn -0.000300 0.034200 0.999400
vn -1.000000 -0.004900 0.000000
vn 1.000000 0.005700 0.000000
vn 0.000000 0.983300 -0.182200
vn -1.000000 0.003900 0.000000
vn -0.008000 0.981500 0.191400
vn 0.000000 0.000000 -1.000000
vn 0.000000 0.000000 1.000000
vn 0.007800 0.965400 -0.260800
vn -1.000000 0.000000 0.000000
vn 0.164400 0.986300 0.015600
vn 1.000000 0.000000 0.000000
vn 0.000000 0.002300 1.000000
vn 0.999500 0.001500 -0.032000
vn -0.007600 0.048100 -0.998800
vn 0.000000 0.047600 -0.998900
vn -0.153200 0.967300 0.202100
vn -0.153100 0.967300 0.202100
vn 0.000000 -0.047100 0.998900
vn 0.007400 -0.046600 0.998900
vn -0.999500 -0.000600 0.032200
vn 0.000000 0.905700 0.423900
vn 0.000000 1.000000 0.000000
vn 0.000000 0.893900 -0.448200
usemtl OC_BED_V2_1
s off
f 2/1/1 3/2/1 1/3/1
f 4/4/2 5/5/2 6/6/2
f 2/1/3 7/7/3 3/2/3
f 10/8/4 9/9/4 8/10/4
f 4/4/5 6/6/5 11/11/5
f 12/12/6 14/13/6 13/14/6
f 17/15/7 16/16/7 15/17/7
f 10/8/8 18/18/8 9/9/8
f 21/19/9 20/20/9 19/21/9
f 22/22/10 24/23/10 23/24/10
f 27/25/11 28/26/11 25/27/11
f 27/25/11 26/28/11 28/26/11
f 17/15/7 29/29/7 16/16/7
f 12/12/12 13/14/12 30/30/12
f 33/31/13 34/32/13 31/33/13
f 33/31/13 32/34/13 34/32/13
f 36/35/14 38/36/14 35/37/14
f 36/35/14 37/38/14 38/36/14
f 40/39/15 42/40/15 39/41/15
f 40/39/15 41/42/15 42/40/15
f 44/43/14 46/44/14 43/45/14
f 44/43/14 45/46/14 46/44/14
f 48/47/16 50/48/16 47/49/16
f 48/47/16 49/50/16 50/48/16
f 52/51/14 54/52/14 51/53/14
f 52/51/14 53/54/14 54/52/14
f 56/55/17 58/56/17 55/57/17
f 56/55/17 57/58/17 58/56/17
f 60/59/14 62/60/14 59/61/14
f 60/59/14 61/62/14 62/60/14
f 64/63/18 66/64/18 63/65/18
f 64/63/18 65/66/18 66/64/18
f 68/67/15 70/68/15 67/69/15
f 68/67/15 69/70/15 70/68/15
f 72/71/19 74/72/19 71/73/19
f 72/71/19 73/74/19 74/72/19
f 76/75/19 78/76/19 75/77/19
f 76/75/19 77/78/19 78/76/19
f 80/79/14 82/80/14 79/81/14
f 80/79/14 81/82/14 82/80/14
f 84/83/20 86/84/20 83/85/20
f 84/83/20 85/86/20 86/84/20
f 88/87/17 90/88/17 87/89/17
f 88/87/17 89/90/17 90/88/17
f 22/22/21 23/24/21 91/91/21
f 93/92/22 94/93/22 92/94/22
f 93/92/23 95/95/23 94/93/23
f 97/96/24 99/97/24 96/98/24
f 97/96/25 98/99/25 99/97/25
f 101/100/26 102/101/26 100/102/26
f 101/100/27 103/103/27 102/101/27
f 21/19/28 104/104/28 20/20/28
f 105/105/29 106/106/29 108/107/29
f 105/105/29 108/107/29 107/108/29
f 108/107/30 110/109/30 107/108/30
f 108/107/30 109/110/30 110/109/30
f 111/111/31 110/109/31 109/110/31
f 111/111/31 112/112/31 110/109/31
