# Blender v2.75 (sub 0) OBJ File: 'Empty.blend'
# www.blender.org
mtllib BEDHIGH_NW_EDEL_01.mtl
o BEDHIGH_NW_EDEL_01
v 1.150010 0.350010 0.569990
v -1.149990 0.350010 0.569990
v -1.149990 0.150010 0.569990
v -1.149990 0.500010 -0.000010
v -1.149990 0.500010 0.419990
v 1.150010 0.500010 0.419990
v 1.150010 0.150010 -0.570010
v -1.149990 0.150010 -0.570010
v -1.149990 0.350010 -0.570010
v 1.150010 0.350010 -0.570010
v -1.149990 0.500010 -0.420010
v -1.149990 0.150010 -0.000010
v -1.249990 0.653343 0.574990
v -1.249990 0.653343 -0.000010
v -1.249990 0.105010 -0.000010
v -1.249990 0.105010 0.574990
v -1.149990 0.105010 -0.000010
v -1.149990 0.653343 -0.000010
v -1.149990 0.653343 0.574990
v -1.149990 0.105010 0.574990
v -1.149990 0.653343 -0.575010
v -1.249990 0.653343 -0.575010
v -1.124990 0.000010 -0.475010
v -1.274990 0.000010 -0.475010
v -1.274990 0.000010 -0.625010
v -1.124990 0.000010 -0.625010
v -1.124990 0.798343 -0.475010
v -1.124990 0.798343 -0.625010
v -1.274990 0.798343 -0.625010
v -1.274990 0.798343 -0.475010
v -1.274990 0.000010 0.624990
v -1.274990 0.000010 0.474990
v -1.124990 0.000010 0.474990
v -1.124990 0.000010 0.624990
v -1.274990 0.798343 0.624990
v -1.124990 0.798343 0.624990
v -1.124990 0.798343 0.474990
v -1.274990 0.798343 0.474990
v -1.199990 0.939296 0.549990
v -1.199990 0.913145 0.486855
v -1.244630 0.913145 0.505347
v -1.263120 0.913145 0.549990
v -1.244630 0.913145 0.594633
v -1.199990 0.913145 0.613125
v -1.155350 0.913145 0.594633
v -1.136860 0.913145 0.549990
v -1.155350 0.913145 0.505347
v -1.263120 0.850010 0.486855
v -1.199990 0.850010 0.460704
v -1.289280 0.850010 0.549990
v -1.263120 0.850010 0.613125
v -1.199990 0.850010 0.639276
v -1.136860 0.850010 0.613125
v -1.110700 0.850010 0.549990
v -1.136860 0.850010 0.486855
v -1.244630 0.786875 0.505347
v -1.199990 0.786875 0.486855
v -1.263120 0.786875 0.549990
v -1.244630 0.786875 0.594633
v -1.199990 0.786875 0.613125
v -1.155350 0.786875 0.594633
v -1.136860 0.786875 0.549990
v -1.155350 0.786875 0.505347
v -1.199990 0.939296 -0.550010
v -1.244630 0.913145 -0.505367
v -1.199990 0.913145 -0.486875
v -1.263120 0.913145 -0.550010
v -1.244630 0.913145 -0.594653
v -1.199990 0.913145 -0.613144
v -1.155350 0.913145 -0.594653
v -1.136860 0.913145 -0.550010
v -1.155350 0.913145 -0.505367
v -1.263120 0.850010 -0.486875
v -1.199990 0.850010 -0.460724
v -1.289280 0.850010 -0.550010
v -1.263120 0.850010 -0.613145
v -1.199990 0.850010 -0.639296
v -1.136860 0.850010 -0.613144
v -1.110700 0.850010 -0.550010
v -1.136860 0.850010 -0.486875
v -1.244630 0.786875 -0.505367
v -1.199990 0.786875 -0.486875
v -1.263120 0.786875 -0.550010
v -1.244630 0.786875 -0.594653
v -1.199990 0.786875 -0.613144
v -1.155350 0.786875 -0.594653
v -1.136860 0.786875 -0.550010
v -1.155350 0.786875 -0.505367
v 1.150010 0.500010 -0.420010
v 1.150010 0.150010 0.569990
v -1.249990 0.105010 -0.575010
v -1.149990 0.105010 -0.575010
v 1.150010 0.500010 -0.000010
v 1.150010 0.150010 -0.000010
v 1.150010 0.653343 0.574990
v 1.150010 0.653343 -0.000010
v 1.150010 0.105010 -0.000010
v 1.150010 0.105010 0.574990
v 1.250010 0.105010 -0.000010
v 1.250010 0.653343 -0.000010
v 1.250010 0.653343 0.574990
v 1.250010 0.105010 0.574990
v 1.250010 0.653343 -0.575010
v 1.150010 0.653343 -0.575010
v 1.275010 0.000010 -0.625010
v 1.275010 0.000010 -0.475010
v 1.125010 0.000010 -0.475010
v 1.125010 0.000010 -0.625010
v 1.275010 0.798343 -0.625010
v 1.125010 0.798343 -0.625010
v 1.125010 0.798343 -0.475010
v 1.275010 0.798343 -0.475010
v 1.125010 0.000010 0.474990
v 1.275010 0.000010 0.474990
v 1.275010 0.000010 0.624990
v 1.125010 0.000010 0.624990
v 1.125010 0.798343 0.474990
v 1.125010 0.798343 0.624990
v 1.275010 0.798343 0.624990
v 1.275010 0.798343 0.474990
v 1.200010 0.939296 0.549990
v 1.244650 0.913145 0.505347
v 1.200010 0.913145 0.486856
v 1.263140 0.913145 0.549990
v 1.244650 0.913145 0.594633
v 1.200010 0.913145 0.613125
v 1.155370 0.913145 0.594633
v 1.136880 0.913145 0.549990
v 1.155370 0.913145 0.505347
v 1.263140 0.850010 0.486856
v 1.200010 0.850010 0.460704
v 1.289300 0.850010 0.549990
v 1.263140 0.850010 0.613125
v 1.200010 0.850010 0.639276
v 1.136880 0.850010 0.613125
v 1.110720 0.850010 0.549990
v 1.136880 0.850010 0.486855
v 1.244650 0.786875 0.505347
v 1.200010 0.786875 0.486856
v 1.263140 0.786875 0.549990
v 1.244650 0.786875 0.594633
v 1.200010 0.786875 0.613125
v 1.155370 0.786875 0.594633
v 1.136880 0.786875 0.549990
v 1.155370 0.786875 0.505347
v 1.200010 0.939296 -0.550010
v 1.200010 0.913145 -0.486875
v 1.244650 0.913145 -0.505367
v 1.263140 0.913145 -0.550010
v 1.244650 0.913145 -0.594653
v 1.200010 0.913145 -0.613144
v 1.155370 0.913145 -0.594653
v 1.136880 0.913145 -0.550010
v 1.155370 0.913145 -0.505367
v 1.263140 0.850010 -0.486875
v 1.200010 0.850010 -0.460724
v 1.289300 0.850010 -0.550010
v 1.263140 0.850010 -0.613145
v 1.200010 0.850010 -0.639296
v 1.136880 0.850010 -0.613144
v 1.110720 0.850010 -0.550010
v 1.136880 0.850010 -0.486875
v 1.244650 0.786876 -0.505367
v 1.200010 0.786876 -0.486875
v 1.263140 0.786876 -0.550010
v 1.244650 0.786876 -0.594653
v 1.200010 0.786876 -0.613144
v 1.155370 0.786876 -0.594653
v 1.136880 0.786876 -0.550010
v 1.155370 0.786876 -0.505367
v 1.150010 0.105010 -0.575010
v 1.250010 0.105010 -0.575010
vt -0.504996 0.039050
vt -0.842223 0.039050
vt -0.842223 0.961833
vt -0.996488 0.039194
vt -0.000148 0.961761
vt -0.000148 0.039122
vt -0.174951 0.039122
vt -0.167769 0.961833
vt -0.504996 0.961833
vt -0.996488 0.961689
vt -0.000108 0.566524
vt 0.820112 0.566523
vt 0.820112 0.358157
vt -0.179728 1.352280
vt -1.000270 1.352280
vt -1.000270 1.563040
vt 0.003082 0.554999
vt 0.003082 0.938647
vt 0.816922 0.938646
vt 0.001272 0.057792
vt 0.001272 0.936476
vt 0.458731 0.936476
vt 0.458731 0.057792
vt 0.365701 0.933520
vt 0.831998 0.933520
vt 0.831998 0.060248
vt 0.365701 0.060248
vt 0.420002 2.520130
vt 0.420002 2.402120
vt 0.113202 2.402120
vt 0.113202 2.520130
vt -0.664998 -0.586338
vt -0.664998 -0.459430
vt -0.420572 -0.459430
vt -0.420572 -0.586338
vt 0.673445 2.372610
vt 0.673445 2.549630
vt 0.753479 2.549630
vt 0.753479 2.372610
vt -0.463080 -0.427703
vt -0.399317 -0.427703
vt -0.399317 -0.618064
vt -0.463080 -0.618064
vt -0.996001 -1.434220
vt -0.172916 -1.434220
vt -0.172916 -1.649990
vt -0.996001 -1.649990
vt 0.828604 1.363400
vt 0.017312 1.363400
vt 0.017312 1.551320
vt 0.828604 1.551320
vt 0.830458 -0.635791
vt 0.019546 -0.635791
vt 0.019546 -0.433295
vt 0.830458 -0.433295
vt -0.003665 1.774160
vt 0.821411 1.774160
vt 0.821411 1.560540
vt -0.003664 1.560540
vt 0.086524 2.549630
vt 0.166559 2.549630
vt 0.166559 2.372610
vt 0.086524 2.372610
vt -0.930679 -0.618064
vt -0.930679 -0.427703
vt -0.866916 -0.427703
vt -0.866916 -0.618064
vt 0.004476 -0.639573
vt 0.004476 -0.439514
vt 0.835528 -0.439514
vt 0.835527 -0.639572
vt 0.003426 0.394567
vt 0.003426 0.554491
vt 0.834607 0.554491
vt 0.834607 0.394567
vt 0.828667 0.567600
vt 0.828667 0.353977
vt 0.003592 0.353977
vt 0.003592 0.567600
vt -0.386304 -0.545693
vt -0.341960 -0.545693
vt -0.354948 -0.608405
vt -0.386304 -0.634381
vt -0.417660 -0.608405
vt -0.430648 -0.545693
vt -0.417660 -0.482981
vt -0.386304 -0.457005
vt -0.354948 -0.482981
vt -0.706061 1.452030
vt -0.672000 1.554010
vt -0.647915 1.554010
vt -0.672000 1.452030
vt 0.556528 1.257040
vt 0.545762 1.330550
vt 0.556528 1.330550
vt 0.571754 1.257040
vt 0.519769 1.257040
vt 0.519769 1.330550
vt 0.483011 1.257040
vt 0.493777 1.330550
vt 0.467785 1.257040
vt 0.483011 1.330550
vt -0.507539 1.452030
vt -0.531624 1.554010
vt -0.507539 1.554010
vt -0.473478 1.452030
vt -0.589769 1.452030
vt -0.589769 1.554010
vt -0.672000 1.350060
vt -0.647915 1.350060
vt 0.545762 1.183520
vt 0.556528 1.183520
vt 0.519769 1.183520
vt 0.493777 1.183520
vt 0.483011 1.183520
vt -0.531624 1.350060
vt -0.507539 1.350060
vt -0.589769 1.350060
vt 0.386308 -0.545693
vt 0.354952 -0.608405
vt 0.341964 -0.545693
vt 0.386308 -0.634381
vt 0.417664 -0.608405
vt 0.430652 -0.545693
vt 0.417664 -0.482981
vt 0.386308 -0.457005
vt 0.354952 -0.482981
vt 0.209926 1.351870
vt 0.241687 1.351870
vt 0.241687 1.262040
vt 0.196770 1.262040
vt 0.273447 1.351870
vt 0.286603 1.262040
vt -0.488840 1.462730
vt -0.475122 1.462730
vt -0.479140 1.412030
vt -0.498539 1.412030
vt -0.455723 1.462730
vt -0.451706 1.412030
vt -0.442006 1.462730
vt -0.432307 1.412030
vt -0.477627 0.479395
vt -0.488064 0.479395
vt -0.485007 0.517965
vt -0.470247 0.517965
vt -0.502824 0.479395
vt -0.505881 0.517965
vt -0.513261 0.479395
vt -0.520641 0.517965
vt 0.241687 1.172200
vt 0.209926 1.172200
vt 0.273447 1.172200
vt -0.475122 1.361340
vt -0.488840 1.361340
vt -0.455723 1.361340
vt -0.442006 1.361340
vt -0.488064 0.556535
vt -0.477627 0.556535
vt -0.502824 0.556535
vt -0.513261 0.556535
vt 0.816922 0.171352
vt 0.003082 0.171352
vt -0.000716 2.102000
vt 0.440720 2.102000
vt 0.440720 1.176190
vt -0.000716 1.176190
vt -0.909425 -0.586338
vt -0.909425 -0.459430
vt 0.726801 2.520130
vt 0.726801 2.402120
vt 0.493586 0.056744
vt -0.001278 0.056744
vt -0.001278 0.927024
vt 0.493586 0.927024
vt -0.000108 0.358157
vt -1.000270 1.516070
vt -0.179728 1.516070
vt -0.179728 1.315650
vt 0.816923 0.554999
vt 0.001730 1.038420
vt 0.001730 1.937810
vt 0.475969 1.937810
vt 0.475969 1.038420
vt 0.420002 -0.312119
vt 0.420002 -0.430129
vt 0.113202 -0.430129
vt 0.113202 -0.312119
vt -0.664998 2.459440
vt -0.664998 2.586340
vt -0.420572 2.586340
vt -0.420572 2.459440
vt 0.753479 -0.459631
vt 0.673445 -0.459631
vt 0.673445 -0.282616
vt 0.753479 -0.282616
vt -0.399317 2.618070
vt -0.399317 2.427710
vt -0.463080 2.427710
vt -0.463080 2.618070
vt -0.180083 1.773120
vt -0.180083 1.557350
vt -1.003170 1.557350
vt -1.003170 1.773120
vt 0.015666 2.571370
vt 0.015665 2.771430
vt 0.826958 2.771430
vt 0.826958 2.571370
vt 0.013236 1.402260
vt 0.013236 1.562160
vt 0.834797 1.562160
vt 0.834797 1.402260
vt 0.166559 -0.282616
vt 0.166559 -0.459631
vt 0.086524 -0.459631
vt 0.086524 -0.282616
vt -0.866916 2.427710
vt -0.930679 2.427710
vt -0.930679 2.618070
vt -0.866916 2.618070
vt 0.819338 2.571370
vt 0.008046 2.571370
vt 0.008046 2.771430
vt 0.819337 2.771430
vt 0.003657 0.564946
vt 0.828603 0.564947
vt 0.828603 0.356631
vt 0.003657 0.356631
vt -0.996001 1.773120
vt -0.172915 1.773120
vt -0.172916 1.557350
vt -0.996001 1.557350
vt 0.819536 0.394684
vt 0.008497 0.394684
vt 0.008497 0.554557
vt 0.819536 0.554557
vt -0.336385 2.855700
vt -0.309081 2.910310
vt -0.297771 2.855700
vt -0.336385 2.932930
vt -0.363689 2.910310
vt -0.374999 2.855700
vt -0.363689 2.801090
vt -0.336385 2.778470
vt -0.309081 2.801090
vt -0.287127 0.574931
vt -0.302831 0.574931
vt -0.298231 0.632965
vt -0.276023 0.632965
vt -0.325040 0.574931
vt -0.329639 0.632965
vt -0.340743 0.574931
vt -0.351848 0.632965
vt 0.298210 0.185149
vt 0.274446 0.185149
vt 0.281406 0.272965
vt 0.315013 0.272965
vt 0.240841 0.185149
vt 0.233881 0.272965
vt 0.217078 0.185149
vt 0.200275 0.272965
vt 0.104977 1.343020
vt 0.124772 1.343020
vt 0.124772 1.287030
vt 0.096778 1.287030
vt 0.144567 1.343020
vt 0.152767 1.287030
vt -0.302831 0.690999
vt -0.287127 0.690999
vt -0.325040 0.690999
vt -0.340743 0.690999
vt 0.274446 0.360781
vt 0.298210 0.360781
vt 0.240841 0.360781
vt 0.217078 0.360781
vt 0.124772 1.231050
vt 0.104977 1.231050
vt 0.144567 1.231050
vt 0.336389 2.855700
vt 0.297775 2.855700
vt 0.309085 2.910310
vt 0.336389 2.932930
vt 0.363693 2.910310
vt 0.375003 2.855700
vt 0.363693 2.801090
vt 0.336389 2.778470
vt 0.309085 2.801090
vt 0.278833 0.667965
vt 0.272627 0.589664
vt 0.242663 0.589664
vt 0.236457 0.667965
vt 0.308798 0.667965
vt 0.293816 0.589664
vt 0.200756 1.257040
vt 0.193337 1.350640
vt 0.218666 1.350640
vt 0.236576 1.257040
vt 0.150098 1.257040
vt 0.157517 1.350640
vt 0.114277 1.257040
vt 0.132188 1.350640
vt 0.107424 1.282030
vt 0.107424 1.343790
vt 0.138300 1.282030
vt 0.076547 1.282030
vt 0.085591 1.343790
vt 0.221475 0.589664
vt 0.206493 0.667965
vt 0.272627 0.746266
vt 0.242663 0.746266
vt 0.293816 0.746266
vt 0.193337 1.163430
vt 0.218666 1.163430
vt 0.157517 1.163430
vt 0.132188 1.163430
vt 0.107424 1.220280
vt 0.129257 1.220280
vt 0.085591 1.220280
vt 0.221475 0.746266
vt 0.001274 1.093500
vt 0.441035 1.093500
vt 0.441035 0.182733
vt 0.001274 0.182733
vt -0.909425 2.459440
vt -0.909425 2.586340
vt 0.726801 -0.312119
vt 0.726801 -0.430129
vn 0.000000 1.000000 0.000000
vn 0.000000 0.707100 0.707100
vn 0.000000 0.707100 -0.707100
vn 0.000000 0.000000 1.000000
vn 0.000000 0.000000 -1.000000
vn 0.000000 -1.000000 0.000000
vn -1.000000 0.000000 0.000000
vn 1.000000 0.000000 0.000000
vn -0.156600 0.912500 -0.378000
vn -0.378000 0.912500 -0.156600
vn -0.378000 0.912500 0.156600
vn -0.156600 0.912500 0.378000
vn 0.156600 0.912500 0.378000
vn 0.378000 0.912500 0.156600
vn 0.378000 0.912500 -0.156600
vn 0.156600 0.912500 -0.378000
vn -0.357400 0.357400 -0.862800
vn -0.357400 0.357400 -0.862900
vn -0.862800 0.357500 -0.357400
vn -0.862800 0.357400 -0.357500
vn -0.862900 0.357400 0.357400
vn -0.862800 0.357500 0.357500
vn -0.357400 0.357400 0.862800
vn 0.357400 0.357400 0.862800
vn 0.357400 0.357400 0.862900
vn 0.862800 0.357500 0.357400
vn 0.862800 0.357400 0.357500
vn 0.862900 0.357400 -0.357400
vn 0.862800 0.357500 -0.357500
vn 0.357400 0.357400 -0.862800
vn -0.357400 -0.357400 -0.862900
vn -0.357400 -0.357400 -0.862800
vn -0.862800 -0.357500 -0.357500
vn -0.862900 -0.357400 -0.357400
vn -0.862800 -0.357400 0.357500
vn -0.862800 -0.357500 0.357400
vn -0.357400 -0.357400 0.862900
vn -0.357400 -0.357400 0.862800
vn 0.357400 -0.357400 0.862800
vn 0.862800 -0.357500 0.357500
vn 0.862900 -0.357400 0.357400
vn 0.862800 -0.357400 -0.357500
vn 0.862800 -0.357500 -0.357400
vn 0.357400 -0.357400 -0.862900
vn 0.357400 -0.357400 -0.862800
vn -0.357400 0.357400 0.862900
vn -0.862800 0.357500 0.357400
vn -0.862800 0.357400 0.357500
vn -0.862900 0.357400 -0.357400
vn -0.862800 0.357500 -0.357500
vn 0.357400 0.357400 -0.862900
vn 0.862800 0.357500 -0.357400
vn 0.862800 0.357400 -0.357500
vn 0.862900 0.357400 0.357400
vn 0.862800 0.357500 0.357500
vn -0.862800 -0.357500 0.357500
vn -0.862900 -0.357400 0.357400
vn -0.862800 -0.357400 -0.357500
vn -0.862800 -0.357500 -0.357400
vn 0.862800 -0.357500 -0.357500
vn 0.862900 -0.357400 -0.357400
vn 0.862800 -0.357400 0.357500
vn 0.862800 -0.357500 0.357400
vn 0.357400 -0.357400 0.862900
usemtl OBJ_CITY_BEDEDEL_01
s off
f 4/1/1 5/2/1 6/3/1
f 6/3/2 5/2/2 2/4/2
f 10/5/3 9/6/3 11/7/3
f 89/8/1 11/7/1 4/1/1
f 6/3/1 93/9/1 4/1/1
f 2/4/2 1/10/2 6/3/2
f 11/7/3 89/8/3 10/5/3
f 4/1/1 93/9/1 89/8/1
usemtl OBJ_CITY_TABLENORMAL_01
f 1/11/4 2/12/4 3/13/4
f 7/14/5 8/15/5 9/16/5
f 12/17/6 8/18/6 7/19/6
f 13/20/7 14/21/7 15/22/7
f 15/22/7 16/23/7 13/20/7
f 17/24/8 18/25/8 19/26/8
f 19/26/8 20/27/8 17/24/8
f 15/28/6 17/29/6 20/30/6
f 20/30/6 16/31/6 15/28/6
f 14/32/1 18/33/1 21/34/1
f 21/34/1 22/35/1 14/32/1
f 23/36/6 24/37/6 25/38/6
f 25/38/6 26/39/6 23/36/6
f 27/40/1 28/41/1 29/42/1
f 29/42/1 30/43/1 27/40/1
f 23/44/4 27/45/4 30/46/4
f 30/46/4 24/47/4 23/44/4
f 24/48/7 30/49/7 29/50/7
f 29/50/7 25/51/7 24/48/7
f 25/52/5 29/53/5 28/54/5
f 28/54/5 26/55/5 25/52/5
f 26/56/8 28/57/8 27/58/8
f 27/58/8 23/59/8 26/56/8
f 31/60/6 32/61/6 33/62/6
f 33/62/6 34/63/6 31/60/6
f 35/64/1 36/65/1 37/66/1
f 37/66/1 38/67/1 35/64/1
f 38/68/5 37/69/5 33/70/5
f 33/70/5 32/71/5 38/68/5
f 35/72/7 38/73/7 32/74/7
f 32/74/7 31/75/7 35/72/7
f 36/45/4 35/46/4 31/47/4
f 31/47/4 34/44/4 36/45/4
f 37/76/8 36/77/8 34/78/8
f 34/78/8 33/79/8 37/76/8
f 39/80/9 40/81/9 41/82/9
f 39/80/10 41/82/10 42/83/10
f 39/80/11 42/83/11 43/84/11
f 39/80/12 43/84/12 44/85/12
f 39/80/13 44/85/13 45/86/13
f 39/80/14 45/86/14 46/87/14
f 39/80/15 46/87/15 47/88/15
f 39/80/16 47/88/16 40/81/16
f 48/89/17 41/90/17 40/91/17
f 40/91/18 49/92/18 48/89/18
f 50/93/19 42/94/19 41/95/19
f 41/95/20 48/96/20 50/93/20
f 51/97/21 43/98/21 42/94/21
f 42/94/22 50/93/22 51/97/22
f 52/99/23 44/100/23 43/98/23
f 43/98/23 51/97/23 52/99/23
f 53/101/24 45/102/24 44/100/24
f 44/100/25 52/99/25 53/101/25
f 54/103/26 46/104/26 45/105/26
f 45/105/27 53/106/27 54/103/27
f 55/107/28 47/108/28 46/104/28
f 46/104/29 54/103/29 55/107/29
f 49/92/30 40/91/30 47/108/30
f 47/108/30 55/107/30 49/92/30
f 56/109/31 48/89/31 49/92/31
f 49/92/32 57/110/32 56/109/32
f 58/111/33 50/93/33 48/96/33
f 48/96/34 56/112/34 58/111/34
f 59/113/35 51/97/35 50/93/35
f 50/93/36 58/111/36 59/113/36
f 60/114/37 52/99/37 51/97/37
f 51/97/38 59/113/38 60/114/38
f 61/115/39 53/101/39 52/99/39
f 52/99/39 60/114/39 61/115/39
f 62/116/40 54/103/40 53/106/40
f 53/106/41 61/117/41 62/116/41
f 63/118/42 55/107/42 54/103/42
f 54/103/43 62/116/43 63/118/43
f 57/110/44 49/92/44 55/107/44
f 55/107/45 63/118/45 57/110/45
f 64/119/12 65/120/12 66/121/12
f 64/119/11 67/122/11 65/120/11
f 64/119/10 68/123/10 67/122/10
f 64/119/9 69/124/9 68/123/9
f 64/119/16 70/125/16 69/124/16
f 64/119/15 71/126/15 70/125/15
f 64/119/14 72/127/14 71/126/14
f 64/119/13 66/121/13 72/127/13
f 66/128/23 65/129/23 73/130/23
f 73/130/46 74/131/46 66/128/46
f 65/129/47 67/132/47 75/133/47
f 75/133/48 73/130/48 65/129/48
f 67/134/49 68/135/49 76/136/49
f 76/136/50 75/137/50 67/134/50
f 68/135/18 69/138/18 77/139/18
f 77/139/17 76/136/17 68/135/17
f 69/138/51 70/140/51 78/141/51
f 78/141/30 77/139/30 69/138/30
f 70/142/52 71/143/52 79/144/52
f 79/144/53 78/145/53 70/142/53
f 71/143/54 72/146/54 80/147/54
f 80/147/55 79/144/55 71/143/55
f 72/146/24 66/148/24 74/149/24
f 74/149/24 80/147/24 72/146/24
f 74/131/38 73/130/38 81/150/38
f 81/150/38 82/151/38 74/131/38
f 73/130/56 75/133/56 83/152/56
f 83/152/57 81/150/57 73/130/57
f 75/137/58 76/136/58 84/153/58
f 84/153/59 83/154/59 75/137/59
f 76/136/32 77/139/32 85/155/32
f 85/155/31 84/153/31 76/136/31
f 77/139/45 78/141/45 86/156/45
f 86/156/44 85/155/44 77/139/44
f 78/145/60 79/144/60 87/157/60
f 87/157/61 86/158/61 78/145/61
f 79/144/62 80/147/62 88/159/62
f 88/159/63 87/157/63 79/144/63
f 80/147/64 74/149/64 82/160/64
f 82/160/39 88/159/39 80/147/39
f 90/161/6 3/162/6 12/17/6
f 22/163/7 91/164/7 15/165/7
f 15/165/7 14/166/7 22/163/7
f 13/167/1 19/168/1 18/33/1
f 18/33/1 14/32/1 13/167/1
f 91/169/6 92/170/6 17/29/6
f 17/29/6 15/28/6 91/169/6
f 92/171/8 21/172/8 18/173/8
f 18/173/8 17/174/8 92/171/8
f 3/13/4 90/175/4 1/11/4
f 9/176/5 10/177/5 7/178/5
f 7/19/6 94/179/6 12/17/6
f 95/180/7 96/181/7 97/182/7
f 97/182/7 98/183/7 95/180/7
f 99/24/8 100/25/8 101/26/8
f 101/26/8 102/27/8 99/24/8
f 97/184/6 99/185/6 102/186/6
f 102/186/6 98/187/6 97/184/6
f 96/188/1 100/189/1 103/190/1
f 103/190/1 104/191/1 96/188/1
f 105/192/6 106/193/6 107/194/6
f 107/194/6 108/195/6 105/192/6
f 109/196/1 110/197/1 111/198/1
f 111/198/1 112/199/1 109/196/1
f 112/200/4 111/201/4 107/202/4
f 107/202/4 106/203/4 112/200/4
f 109/57/8 112/58/8 106/59/8
f 106/59/8 105/56/8 109/57/8
f 110/204/5 109/205/5 105/206/5
f 105/206/5 108/207/5 110/204/5
f 111/208/7 110/209/7 108/210/7
f 108/210/7 107/211/7 111/208/7
f 113/212/6 114/213/6 115/214/6
f 115/214/6 116/215/6 113/212/6
f 117/216/1 118/217/1 119/218/1
f 119/218/1 120/219/1 117/216/1
f 113/220/5 117/221/5 120/222/5
f 120/222/5 114/223/5 113/220/5
f 114/224/8 120/225/8 119/226/8
f 119/226/8 115/227/8 114/224/8
f 115/228/4 119/229/4 118/230/4
f 118/230/4 116/231/4 115/228/4
f 116/232/7 118/233/7 117/234/7
f 117/234/7 113/235/7 116/232/7
f 121/236/16 122/237/16 123/238/16
f 121/236/15 124/239/15 122/237/15
f 121/236/14 125/240/14 124/239/14
f 121/236/13 126/241/13 125/240/13
f 121/236/12 127/242/12 126/241/12
f 121/236/11 128/243/11 127/242/11
f 121/236/10 129/244/10 128/243/10
f 121/236/9 123/238/9 129/244/9
f 123/245/51 122/246/51 130/247/51
f 130/247/30 131/248/30 123/245/30
f 122/246/52 124/249/52 132/250/52
f 132/250/53 130/247/53 122/246/53
f 124/249/54 125/251/54 133/252/54
f 133/252/55 132/250/55 124/249/55
f 125/253/24 126/254/24 134/255/24
f 134/255/24 133/256/24 125/253/24
f 126/254/23 127/257/23 135/258/23
f 135/258/46 134/255/46 126/254/46
f 127/257/47 128/259/47 136/260/47
f 136/260/48 135/258/48 127/257/48
f 128/261/49 129/262/49 137/263/49
f 137/263/50 136/264/50 128/261/50
f 129/262/18 123/265/18 131/266/18
f 131/266/17 137/263/17 129/262/17
f 131/248/45 130/247/45 138/267/45
f 138/267/44 139/268/44 131/248/44
f 130/247/60 132/250/60 140/269/60
f 140/269/61 138/267/61 130/247/61
f 132/250/62 133/252/62 141/270/62
f 141/270/63 140/269/63 132/250/63
f 133/256/64 134/255/64 142/271/64
f 142/271/39 141/272/39 133/256/39
f 134/255/38 135/258/38 143/273/38
f 143/273/38 142/271/38 134/255/38
f 135/258/56 136/260/56 144/274/56
f 144/274/57 143/273/57 135/258/57
f 136/264/58 137/263/58 145/275/58
f 145/275/59 144/276/59 136/264/59
f 137/263/32 131/266/32 139/277/32
f 139/277/31 145/275/31 137/263/31
f 146/278/13 147/279/13 148/280/13
f 146/278/14 148/280/14 149/281/14
f 146/278/15 149/281/15 150/282/15
f 146/278/16 150/282/16 151/283/16
f 146/278/9 151/283/9 152/284/9
f 146/278/10 152/284/10 153/285/10
f 146/278/11 153/285/11 154/286/11
f 146/278/12 154/286/12 147/279/12
f 155/287/24 148/288/24 147/289/24
f 147/289/25 156/290/25 155/287/25
f 157/291/26 149/292/26 148/288/26
f 148/288/27 155/287/27 157/291/27
f 158/293/28 150/294/28 149/295/28
f 149/295/29 157/296/29 158/293/29
f 159/297/30 151/298/30 150/294/30
f 150/294/30 158/293/30 159/297/30
f 160/299/18 152/300/18 151/298/18
f 151/298/17 159/297/17 160/299/17
f 161/301/19 153/302/19 152/300/19
f 152/300/20 160/303/20 161/301/20
f 162/304/21 154/305/21 153/302/21
f 153/302/22 161/301/22 162/304/22
f 156/290/23 147/289/23 154/306/23
f 154/306/23 162/307/23 156/290/23
f 163/308/39 155/287/39 156/290/39
f 156/290/39 164/309/39 163/308/39
f 165/310/40 157/291/40 155/287/40
f 155/287/41 163/308/41 165/310/41
f 166/311/42 158/293/42 157/296/42
f 157/296/43 165/312/43 166/311/43
f 167/313/45 159/297/45 158/293/45
f 158/293/44 166/311/44 167/313/44
f 168/314/32 160/299/32 159/297/32
f 159/297/32 167/313/32 168/314/32
f 169/315/33 161/301/33 160/303/33
f 160/303/34 168/316/34 169/315/34
f 170/317/35 162/304/35 161/301/35
f 161/301/36 169/315/36 170/317/36
f 164/309/38 156/290/38 162/307/38
f 162/307/38 170/318/38 164/309/38
f 12/17/6 94/179/6 90/161/6
f 104/319/7 171/320/7 97/321/7
f 97/321/7 96/322/7 104/319/7
f 95/323/1 101/324/1 100/189/1
f 100/189/1 96/188/1 95/323/1
f 171/325/6 172/326/6 99/185/6
f 99/185/6 97/184/6 171/325/6
f 172/171/8 103/172/8 100/173/8
f 100/173/8 99/174/8 172/171/8
