# Blender v2.75 (sub 0) OBJ File: 'Empty.blend'
# www.blender.org
mtllib BENCH_NW_OW_01.mtl
o BENCH_NW_OW_01
v 1.000000 0.197093 0.175000
v -1.000000 0.500202 0.350000
v -1.000000 0.500202 -0.350000
v 1.000000 0.500202 -0.350000
v 0.668067 -0.000564 -0.275612
v 0.500000 0.238000 0.274388
v 0.331933 -0.000564 -0.275612
v -0.331933 -0.000564 -0.275612
v -0.500000 0.238000 0.274388
v -0.668067 -0.000564 -0.275612
v -1.000000 0.150202 -0.000000
v 1.000000 0.500202 0.350000
v -0.500000 0.237436 -0.275612
v 0.500000 0.237436 -0.275612
v -0.331933 -0.000000 0.274388
v -0.668067 0.000000 0.274388
v 0.668067 -0.000000 0.274388
v 0.331933 0.000000 0.274388
v 1.000000 0.197093 -0.175000
v -1.000000 0.325202 -0.303109
v -1.000000 0.197093 0.175000
v 0.618842 0.167728 -0.275612
v 0.618842 0.168291 0.274388
v -0.618841 0.167728 -0.275612
v -0.381158 0.167728 -0.275612
v -0.618841 0.168291 0.274388
v -0.381159 0.168291 0.274388
v 0.381159 0.167728 -0.275612
v 0.381159 0.168291 0.274388
v 1.000000 0.150202 -0.000000
v 1.000000 0.325202 -0.303109
v 1.000000 0.325202 0.303109
v -1.000000 0.325202 0.303109
v -1.000000 0.197093 -0.175000
v 0.000000 0.500202 -0.350000
v 0.000000 0.500202 0.350000
vt 2.663980 0.000500
vt 2.663980 0.999500
vt 2.331780 0.999501
vt 1.003110 0.500000
vt 1.003110 0.000500
vt 1.336020 0.000500
vt 2.104980 0.499750
vt 2.103530 0.000250
vt 2.617270 0.000250
vt 2.143170 0.273142
vt 2.141650 -0.226359
vt 2.645450 -0.226359
vt 2.000000 0.000500
vt 2.000000 0.999501
vt 1.668220 0.999501
vt 2.331780 0.000500
vt 0.354550 -0.226359
vt 0.858349 -0.226359
vt 0.856828 0.273142
vt 0.382734 0.000250
vt 0.896472 0.000250
vt 0.895015 0.499750
vt 2.646480 0.273142
vt 0.353516 0.273142
vt 2.618430 0.499750
vt 0.381567 0.499750
vt 1.336020 0.999501
vt 2.998830 0.000250
vt 3.000000 0.499750
vt -0.000000 0.273142
vt 0.001033 -0.226359
vt 3.000000 -0.226359
vt 3.000000 0.273142
vt -0.000000 0.499750
vt 0.001166 0.000250
vt 1.668220 0.000500
vt 2.996890 0.000500
vt 2.996890 0.500000
vt 1.003110 0.999501
vt 2.996890 0.999500
vt 0.218578 0.491468
vt 0.218578 0.062419
vt 0.764221 0.075282
vt 0.764221 0.504331
vt 0.759742 0.374957
vt 0.759777 0.626267
vt 0.247607 0.626312
vt 0.759639 0.373688
vt 0.759674 0.624997
vt 0.247504 0.625043
vt 0.247469 0.373733
vt 0.247572 0.375003
vt 0.229269 0.491468
vt 0.764764 0.504331
vt 0.764764 0.075283
vt 0.229268 0.062419
vt 0.750000 0.057913
vt 0.933013 0.240926
vt 0.066987 0.240926
vt -0.000000 0.490926
vt 0.146800 0.814335
vt 0.000500 0.393607
vt 0.999500 0.393607
vt 0.853200 0.861542
vt 0.999501 0.524959
vt 0.000500 0.524960
vt 0.999500 0.395016
vt 0.000500 0.395016
vt 0.146800 0.815745
vt 0.000500 0.526087
vt 0.999500 0.526087
vt 0.853200 0.862670
vt 0.250000 0.057913
vt 0.500000 -0.009074
vt 0.146800 0.861542
vt 0.146800 0.862670
vt 0.853200 0.814335
vt 0.500000 0.988607
vt 0.853200 0.815745
vt 0.500000 0.990016
vt 0.500000 1.000960
vt 0.500000 1.002090
vt 1.000000 0.490925
vn 0.000000 -0.707100 0.707100
vn 0.000000 -0.258800 -0.965900
vn 0.959800 0.280700 -0.000300
vn 0.000000 -0.965900 -0.258800
vn -0.959800 0.280700 -0.000300
vn 0.000000 -0.965900 0.258800
vn 0.505900 0.862600 -0.000900
vn 0.506000 0.862600 -0.000900
vn -0.505900 0.862600 -0.000900
vn -0.506000 0.862600 -0.000900
vn 0.000000 -0.707100 -0.707100
vn 0.000000 -0.258800 0.965900
vn 0.000000 1.000000 0.000000
vn -0.000000 -1.000000 0.001000
vn -1.000000 0.000000 0.000000
vn 1.000000 0.000000 0.000000
vn -0.000000 0.000000 -1.000000
vn 0.000000 0.000000 1.000000
usemtl NW_NATURE_BARK_03
s off
f 32/1/1 33/2/1 21/3/1
f 35/4/2 4/5/2 31/6/2
f 17/7/3 5/8/3 22/9/3
f 15/10/3 8/11/3 25/12/3
f 30/13/4 11/14/4 34/15/4
f 21/3/1 1/16/1 32/1/1
f 24/17/5 10/18/5 16/19/5
f 28/20/5 7/21/5 18/22/5
f 25/12/3 27/23/3 15/10/3
f 16/19/5 26/24/5 24/17/5
f 22/9/3 23/25/3 17/7/3
f 18/22/5 29/26/5 28/20/5
f 30/13/6 1/16/6 21/3/6
f 20/27/2 35/4/2 31/6/2
f 21/3/6 11/14/6 30/13/6
f 22/9/7 14/28/7 6/29/7
f 6/29/8 23/25/8 22/9/8
f 9/30/9 13/31/9 24/17/9
f 25/12/7 13/32/7 9/33/7
f 24/17/10 26/24/10 9/30/10
f 9/33/8 27/23/8 25/12/8
f 6/34/9 14/35/9 28/20/9
f 28/20/10 29/26/10 6/34/10
f 34/15/4 19/36/4 30/13/4
f 31/6/11 19/36/11 34/15/11
f 32/1/12 12/37/12 36/38/12
f 36/38/12 33/2/12 32/1/12
f 34/15/11 20/27/11 31/6/11
f 20/27/2 3/39/2 35/4/2
f 2/40/12 33/2/12 36/38/12
usemtl NW_HARBOUR_WOODCRATE_02
f 35/41/13 36/42/13 12/43/13
f 12/43/13 4/44/13 35/41/13
f 7/45/14 5/46/14 17/47/14
f 10/48/14 8/49/14 15/50/14
f 15/50/14 16/51/14 10/48/14
f 17/47/14 18/52/14 7/45/14
f 35/53/13 3/54/13 2/55/13
f 2/55/13 36/56/13 35/53/13
usemtl NW_NATURE_BARKRINGS_02
f 21/57/15 33/58/15 20/59/15
f 31/59/16 4/60/16 32/58/16
f 25/61/17 8/62/17 10/63/17
f 22/64/17 5/65/17 7/66/17
f 16/67/18 15/68/18 27/69/18
f 18/70/18 17/71/18 23/72/18
f 31/59/16 32/58/16 1/57/16
f 33/58/15 3/60/15 20/59/15
f 21/57/15 34/73/15 11/74/15
f 22/64/17 7/66/17 28/75/17
f 18/70/18 23/72/18 29/76/18
f 25/61/17 10/63/17 24/77/17
f 25/61/17 24/77/17 13/78/17
f 16/67/18 27/69/18 26/79/18
f 27/69/18 9/80/18 26/79/18
f 22/64/17 28/75/17 14/81/17
f 23/72/18 6/82/18 29/76/18
f 19/73/16 1/57/16 30/74/16
f 19/73/16 31/59/16 1/57/16
f 4/60/16 12/83/16 32/58/16
f 33/58/15 2/83/15 3/60/15
f 21/57/15 20/59/15 34/73/15
