# Blender v2.75 (sub 0) OBJ File: 'Empty.blend'
# www.blender.org
mtllib BOOK_NW_CITY_CUPBOARD_01.mtl
o BOOK_NW_CITY_CUPBOARD_01
v -0.374943 -0.176140 -0.156344
v 0.000000 -0.185270 -0.155462
v 0.374943 -0.186800 -0.148202
v -0.374943 0.189950 0.150841
v 0.000000 0.194700 0.163377
v 0.374943 0.177110 0.157159
v -0.375117 -0.182570 -0.148685
v -0.069225 -0.190920 -0.148726
v 0.068876 -0.187550 -0.142748
v 0.374768 -0.190980 -0.138657
v -0.375117 0.183520 0.158500
v -0.069225 0.180090 0.162590
v 0.068876 0.178540 0.164437
v 0.374768 0.175110 0.168527
v -0.364811 -0.133660 -0.191220
v -0.364811 0.226210 0.104827
v -0.061814 0.229050 0.101450
v -0.061814 -0.130820 -0.194597
v 0.062776 -0.133270 -0.191687
v 0.062776 0.226610 0.104359
v 0.368148 0.210660 0.123362
v 0.368148 -0.149210 -0.172684
v -0.623872 -1.336340 0.585610
v 0.624303 -1.335956 0.585610
v -0.623872 -1.336340 -0.188071
v 0.624303 -1.335956 -0.188071
v 0.379903 -0.244060 -0.188071
v -0.392336 -0.189870 -0.143240
v -0.624088 -0.243870 0.585610
v 0.624303 -0.243680 0.585610
v 0.624303 -1.174764 0.585610
v 0.624303 -1.174764 -0.188071
v -0.623872 -1.175148 -0.188037
v -0.623872 -1.175147 0.585650
v -0.559673 -0.243870 0.549370
v -0.559673 -1.174956 0.549370
v 0.559889 -1.174764 0.549370
v 0.559889 -0.243680 0.549370
v 0.559889 -1.174764 -0.151763
v 0.559889 -0.243680 -0.151763
v -0.559673 -1.174956 -0.151763
v -0.559673 -0.243870 -0.151763
v 0.000072 -0.243870 0.549370
v 0.000072 -0.243870 -0.151763
v 0.000072 -1.174956 0.549370
v 0.000072 -1.174956 -0.151763
v 0.624303 -0.243680 -0.188071
v -0.392336 -0.244060 -0.188071
v 0.574303 -0.227750 -0.207334
v 0.379903 -0.215380 -0.222744
v -0.392336 -0.215380 -0.222744
v -0.573872 -0.228130 -0.207334
v -0.573872 -0.173940 -0.162503
v -0.392336 -0.161190 -0.177914
v 0.379903 -0.161190 -0.177914
v 0.574303 -0.173550 -0.162503
v -0.624088 -0.243870 -0.188071
v -0.624088 -0.189680 -0.143240
v 0.624303 -0.189490 -0.143240
v 0.379903 -0.189870 -0.143240
v 0.000108 -0.243870 0.585610
v -0.006216 -0.189870 -0.143240
v 0.624515 0.164040 0.585610
v 0.624515 0.164040 0.154373
v 0.000000 0.163850 0.585610
v 0.000000 0.163850 0.154373
v -0.624515 0.164040 0.585610
v -0.624515 0.164040 0.154373
v -0.379903 -0.189870 -0.143240
v 0.006216 -0.189870 -0.143240
vt 0.989482 0.006476
vt 0.985498 0.495653
vt 0.534124 0.499637
vt 0.532131 0.006476
vt 0.037147 0.500181
vt 0.037146 0.008632
vt 0.487539 0.008632
vt 0.487539 0.500181
vt 0.010440 0.985702
vt -0.002819 0.683819
vt 0.743469 0.683819
vt 0.743469 0.985701
vt 0.010440 0.519342
vt 0.743469 0.519342
vt 0.754745 0.657065
vt 0.758630 0.999500
vt 0.008270 0.999501
vt 0.004385 0.657066
vt 0.000000 0.000000
vt 2.000000 0.000000
vt 0.688769 0.000500
vt 0.000499 0.013759
vt 0.999500 0.013758
vt 0.999500 0.999500
vt 0.688769 0.999500
vt 0.000500 0.999500
vt 0.983960 0.530780
vt 0.976190 0.988333
vt 0.765846 0.991730
vt 0.765846 0.513320
vt 0.761962 0.987291
vt 0.762006 0.511655
vt 0.976190 0.528695
vt 0.980929 0.979968
vt 0.492557 0.497937
vt 0.490565 0.008667
vt 0.002511 0.495720
vt 0.002510 0.012048
vt 0.762049 0.999501
vt 0.988546 1.000970
vt 0.980140 0.523772
vt 0.976189 0.976805
vt 0.983960 0.524918
vt 0.769187 0.513320
vt 0.769187 0.991730
vt 0.822761 0.962435
vt 0.822761 0.680084
vt 0.540398 0.680085
vt 0.540398 0.962435
vt -40.212299 33.207401
vt 37.011501 33.207401
vt 65.000000 33.207401
vt 0.775467 0.812225
vt 0.775467 0.962420
vt 0.785190 0.979702
vt 0.785190 0.812235
vt 0.785190 0.644768
vt 0.775467 0.662050
vt 0.577616 0.644768
vt 0.587358 0.662050
vt 0.577616 0.979702
vt 0.587358 0.962420
vt 0.577616 0.706945
vt 0.577616 0.914131
vt 0.587358 0.812225
vt 0.445369 0.945426
vt 0.014370 0.945234
vt 0.014370 0.907516
vt 0.445369 0.907708
vt 0.363453 0.945426
vt 0.096297 0.945426
vt 0.096297 0.907708
vt 0.363453 0.907708
vt 0.445369 0.945234
vt 0.014370 0.945426
vt 0.014370 0.907708
vt 0.445369 0.907516
vt 0.363453 0.945234
vt 0.096298 0.945234
vt 0.096286 0.907516
vt 0.363441 0.907516
vt 0.681547 0.693310
vt 0.554921 0.693310
vt 0.808189 0.693310
vt 0.554921 0.949185
vt 0.808189 0.949185
vt 0.681547 0.949185
vt 0.531084 0.870065
vt 0.531032 0.710145
vt 0.254623 0.710145
vt 0.254675 0.870065
vt 0.529623 0.872038
vt 0.255275 0.872038
vt 0.255275 0.712599
vt 0.529623 0.712598
vt 0.529566 0.502572
vt 0.529623 0.651140
vt 0.255275 0.651140
vt 0.255218 0.502572
vt 0.020421 0.906770
vt 0.091540 0.906767
vt 0.091563 0.942482
vt 0.020444 0.942493
vt 0.374086 0.906761
vt 0.374109 0.942467
vt 0.440514 0.906760
vt 0.440537 0.942464
vt 0.093824 0.941722
vt 0.023681 0.927281
vt 0.005637 0.908934
vt 0.093815 0.908665
vt 0.372443 0.941439
vt 0.372435 0.908382
vt 0.456050 0.908386
vt 0.437937 0.926680
vt 0.458897 0.906761
vt 0.458920 0.942466
vt 0.004642 0.909596
vt 0.088263 0.909593
vt 0.088255 0.940807
vt 0.022756 0.926870
vt 0.227585 0.909729
vt 0.366898 0.941079
vt 0.366906 0.909865
vt 0.455092 0.910120
vt 0.437046 0.927444
vt 0.002160 0.942494
vt 0.002137 0.906771
vt 0.774844 0.938517
vt 0.541006 0.817271
vt 0.541053 0.644975
vt 0.811973 0.647673
vt 0.811971 0.956787
vt -0.002107 0.802463
vt -0.002180 0.903139
vt 0.254032 0.902733
vt 0.254231 0.738316
vt -0.001898 0.738324
vt 0.811260 0.936974
vt 0.546118 0.936921
vt 0.546228 0.671722
vt 0.811370 0.671775
vt 0.816520 0.656945
vt 0.816610 0.922890
vt 0.550630 0.922765
vt 0.550540 0.656820
vn -0.014600 0.635200 -0.772200
vn 0.081000 0.633200 -0.769700
vn -0.017400 -0.642700 0.765900
vn -0.017500 -0.642700 0.765900
vn -0.015000 -0.685000 -0.728400
vn -0.021000 -0.765500 -0.643100
vn 0.038900 -0.925500 -0.376700
vn 0.004000 -0.916000 -0.401100
vn -0.009400 -0.991900 -0.126800
vn 0.999800 -0.011300 0.013400
vn 0.024200 0.167900 0.985500
vn 0.008700 0.984800 0.173400
vn -0.013300 0.009000 0.999900
vn -0.031200 0.765900 0.642300
vn -0.999800 0.011200 -0.013300
vn -0.985400 0.109600 -0.130600
vn -0.982800 0.117300 -0.142600
vn -0.027800 0.862100 0.506000
vn -0.000500 0.785500 0.618900
vn 0.724500 0.443000 -0.528000
vn 0.747900 0.421700 -0.512600
vn -0.013600 -0.632500 -0.774400
vn -0.003500 -0.586300 -0.810100
vn -0.723100 0.444000 -0.529100
vn -0.697000 0.455600 -0.553800
vn 0.045100 0.713500 0.699200
vn 0.015200 0.872700 0.488000
vn 0.987700 0.100500 -0.119800
vn 0.989900 0.090100 -0.109600
vn 0.013400 -0.582400 -0.812800
vn 0.023900 -0.542600 -0.839700
vn 0.000300 -1.000000 0.000000
vn 0.000000 0.000000 1.000000
vn 0.000000 0.000000 -1.000000
vn 0.000300 -1.000000 -0.000600
vn 0.000000 -1.000000 0.000000
vn 0.000000 -1.000000 0.005200
vn -0.000800 -1.000000 0.001500
vn 0.001600 -1.000000 0.002800
vn 0.000000 -0.000200 1.000000
vn 1.000000 0.000000 0.000000
vn -0.000000 0.000200 -1.000000
vn -1.000000 0.000000 0.000000
vn 0.000000 1.000000 0.005300
vn -0.000300 1.000000 -0.000000
vn -0.000300 1.000000 0.000600
vn -0.003000 1.000000 0.000000
vn 0.000000 1.000000 0.000000
vn -0.000300 1.000000 -0.000600
vn 0.000000 1.000000 -0.005300
vn 0.000300 -1.000000 0.008800
vn 0.101100 0.634200 -0.766600
vn 0.101100 0.634100 -0.766600
vn 0.000000 0.637400 -0.770500
vn -0.109500 0.633600 -0.765900
vn 0.001900 -0.768200 -0.640100
vn 0.001200 -0.770600 -0.637400
vn 0.000000 -0.770600 -0.637400
vn -0.000600 -0.773600 -0.633700
vn -0.443900 0.571200 -0.690400
vn 0.000600 0.770600 0.637400
vn -0.000900 0.775500 0.631400
vn 0.000000 0.770600 0.637400
vn -0.001200 0.768900 0.639400
vn -0.001500 0.770600 0.637400
vn 0.447200 0.570200 -0.689200
vn 0.447300 0.570100 -0.689200
vn 1.000000 -0.000600 0.000000
vn 1.000000 -0.000500 -0.000000
vn 0.000000 0.643800 -0.765200
vn -0.000200 0.643700 -0.765300
vn -0.001000 0.644000 -0.765000
vn -1.000000 -0.001200 0.000000
vn -1.000000 -0.001000 -0.000100
vn 0.000200 0.643700 -0.765300
vn 0.000500 0.643800 -0.765200
vn 0.000300 1.000000 0.000000
usemtl MODIBOOKLET01
s off
f 15/1/1 16/2/1 17/3/1
f 17/3/1 18/4/1 15/1/1
f 19/5/2 20/6/2 21/7/2
f 21/7/2 22/8/2 19/5/2
f 7/9/3 8/10/3 12/11/3
f 12/11/3 11/12/3 7/9/3
f 8/10/4 9/13/4 13/14/4
f 13/14/4 12/11/4 8/10/4
f 9/15/3 10/16/3 14/17/3
f 14/17/3 13/18/3 9/15/3
f 1/19/5 2/20/5 8/21/5
f 8/21/6 7/22/6 1/19/6
f 9/23/7 8/21/7 2/20/7
f 2/20/8 3/19/8 10/19/8
f 10/19/9 9/23/9 2/20/9
f 3/19/10 6/20/10 14/19/10
f 14/19/10 10/19/10 3/19/10
f 6/20/11 5/19/11 13/24/11
f 13/24/12 14/19/12 6/20/12
f 12/25/13 13/24/13 5/19/13
f 5/19/14 4/20/14 11/26/14
f 11/26/13 12/25/13 5/19/13
f 4/20/15 1/19/15 7/22/15
f 7/22/15 11/26/15 4/20/15
f 1/27/16 4/28/16 16/29/16
f 16/29/17 15/30/17 1/27/17
f 4/31/18 5/32/18 17/33/18
f 17/33/19 16/34/19 4/31/19
f 5/35/20 2/36/20 18/4/20
f 18/4/21 17/3/21 5/35/21
f 2/32/22 1/31/22 15/34/22
f 15/34/23 18/33/23 2/32/23
f 2/37/24 5/38/24 20/6/24
f 20/6/25 19/5/25 2/37/25
f 5/32/26 6/39/26 21/40/26
f 21/40/27 20/41/27 5/32/27
f 6/42/28 3/43/28 22/44/28
f 22/44/29 21/45/29 6/42/29
f 3/39/30 2/32/30 19/41/30
f 19/41/31 22/40/31 3/39/31
usemtl OBJ_CITY_CUPBOARDPOORICH_01
f 26/46/32 24/47/32 23/48/32
f 23/48/32 25/49/32 26/46/32
f 48/50/33 27/51/33 47/52/33
f 48/50/34 47/52/34 27/51/34
f 43/53/35 38/54/35 30/55/35
f 43/53/32 30/55/32 61/56/32
f 43/53/36 61/56/36 29/57/36
f 43/53/36 29/57/36 35/58/36
f 29/57/36 57/59/36 42/60/36
f 42/60/36 35/58/36 29/57/36
f 47/61/36 30/55/36 38/54/36
f 38/54/36 40/62/36 47/61/36
f 48/63/37 27/64/37 44/65/37
f 42/60/38 57/59/38 48/63/38
f 48/63/37 44/65/37 42/60/37
f 27/64/39 47/61/39 40/62/39
f 31/66/40 34/67/40 23/68/40
f 23/68/33 24/69/33 31/66/33
f 32/70/41 31/71/41 24/72/41
f 24/72/41 26/73/41 32/70/41
f 33/74/34 32/75/34 26/76/34
f 26/76/42 25/77/42 33/74/42
f 34/78/43 33/79/43 25/80/43
f 25/80/43 23/81/43 34/78/43
f 45/82/44 36/83/44 34/48/44
f 45/82/45 34/48/45 31/47/45
f 45/82/46 31/47/46 37/84/46
f 36/83/47 41/85/47 33/49/47
f 33/49/47 34/48/47 36/83/47
f 39/86/48 37/84/48 31/47/48
f 31/47/48 32/46/48 39/86/48
f 46/87/49 39/86/49 32/46/49
f 46/87/45 32/46/45 33/49/45
f 46/87/50 33/49/50 41/85/50
f 44/65/51 27/64/51 40/62/51
f 38/88/33 43/89/33 45/90/33
f 45/90/33 37/91/33 38/88/33
f 38/92/41 37/93/41 39/94/41
f 39/94/41 40/95/41 38/92/41
f 44/96/34 40/97/34 39/98/34
f 39/98/34 46/99/34 44/96/34
f 45/90/33 43/89/33 35/88/33
f 35/88/33 36/91/33 45/90/33
f 41/94/43 36/93/43 35/92/43
f 35/92/43 42/95/43 41/94/43
f 41/98/34 42/97/34 44/96/34
f 44/96/34 46/99/34 41/98/34
f 49/100/52 50/101/52 55/102/52
f 55/102/53 56/103/53 49/100/53
f 51/104/54 54/105/54 55/102/54
f 55/102/54 50/101/54 51/104/54
f 52/106/55 53/107/55 54/105/55
f 54/105/55 51/104/55 52/106/55
f 50/108/56 49/109/56 47/110/56
f 47/110/57 27/111/57 50/108/57
f 51/112/58 50/108/58 27/111/58
f 27/111/58 48/113/58 51/112/58
f 48/113/59 57/114/59 52/115/59
f 52/115/58 51/112/58 48/113/58
f 57/116/60 58/117/60 53/107/60
f 53/107/60 52/106/60 57/116/60
f 58/118/61 28/119/61 54/120/61
f 54/120/62 53/121/62 58/118/62
f 62/122/63 54/120/63 28/119/63
f 55/123/63 54/120/63 62/122/63
f 55/123/63 62/122/63 60/124/63
f 60/124/64 59/125/64 56/126/64
f 56/126/65 55/123/65 60/124/65
f 59/127/66 47/128/66 49/100/66
f 49/100/67 56/103/67 59/127/67
f 59/129/68 64/130/68 63/131/68
f 59/129/69 63/131/69 30/132/69
f 59/129/41 30/132/41 47/133/41
f 60/134/70 62/135/70 66/136/70
f 64/137/71 60/134/71 66/136/71
f 64/137/72 59/138/72 60/134/72
f 63/139/45 64/140/45 66/141/45
f 66/141/45 65/142/45 63/139/45
f 30/143/33 63/144/33 65/145/33
f 65/145/33 61/146/33 30/143/33
f 58/129/73 67/131/73 68/130/73
f 58/129/74 29/132/74 67/131/74
f 58/129/43 57/133/43 29/132/43
f 69/134/70 66/136/70 70/135/70
f 68/137/75 66/136/75 69/134/75
f 68/137/76 69/134/76 58/138/76
f 67/139/77 66/141/77 68/140/77
f 66/141/77 67/139/77 65/142/77
f 29/143/33 65/145/33 67/144/33
f 65/145/33 29/143/33 61/146/33
