# Blender v2.75 (sub 0) OBJ File: 'Empty.blend'
# www.blender.org
mtllib BUSHWATER_MESH.mtl
o BUSHWATER_MESH
v 0.008900 0.367468 -0.454899
v -0.116952 0.004133 -0.439371
v 0.002510 0.372572 -0.078269
v 0.085458 0.313180 -0.657633
v 0.170170 0.337625 -0.266035
v -0.143806 0.001658 -0.632813
v 0.426356 0.564927 -0.397035
v 0.331361 0.535775 -0.634527
v 1.011050 0.652616 -0.596021
v 0.975136 0.635996 -0.725814
v 1.508560 0.561095 -0.725546
v 0.975136 0.635996 -0.725814
v 0.331361 0.535775 -0.634527
v 1.011050 0.652616 -0.596021
v 1.508560 0.561095 -0.725546
v 0.232446 0.585931 0.275714
v 0.138455 0.357645 -0.019298
v 0.239773 0.566635 0.041191
v 0.239773 0.566635 0.041191
v 0.138455 0.357645 -0.019298
v 0.232446 0.585931 0.275714
v 0.316808 0.625142 0.202035
v 0.847809 0.773260 0.390669
v 0.321168 0.656958 0.489098
v 0.426356 0.564927 -0.397035
v 0.085458 0.313180 -0.657633
v -0.121046 0.020746 -0.075786
v -0.121046 0.020746 -0.075786
v 0.002510 0.372572 -0.078269
v -0.116952 0.004133 -0.439371
v 0.008900 0.367468 -0.454899
v 0.321168 0.656958 0.489098
v 0.847809 0.773260 0.390669
v 0.316808 0.625142 0.202035
v 0.127462 0.366751 0.123484
v 0.077234 0.395942 0.581435
v 0.127462 0.366751 0.123484
v 0.077234 0.395942 0.581435
v 0.602678 0.782653 0.213648
v 0.616204 0.774426 0.088994
v 0.933828 0.823434 0.206537
v 0.602678 0.782653 0.213648
v 0.616204 0.774426 0.088994
v 0.933828 0.823434 0.206537
v 0.858198 0.753930 0.237207
v 0.858198 0.753930 0.237207
v 0.411718 0.605191 -0.231289
v 0.972677 0.649002 -0.100575
v 0.446545 0.577531 0.053695
v 0.181187 0.377576 -0.286042
v 0.178693 0.339466 0.174693
v -0.076172 0.000000 -0.271680
v -0.076172 0.000000 0.173047
v 0.446545 0.577531 0.053695
v 0.972677 0.649002 -0.100575
v 0.411718 0.605191 -0.231289
v -0.078785 0.005397 0.119033
v -0.124819 -0.001073 0.561323
v 0.155727 0.671435 -0.177622
v 0.131333 0.647483 -0.411021
v 0.563713 0.935258 -0.297637
v 0.561585 0.917824 -0.423217
v 0.155727 0.671435 -0.177622
v 0.131333 0.647483 -0.411021
v 0.563713 0.935258 -0.297637
v 0.561585 0.917824 -0.423217
v -0.078785 0.005397 0.119033
v -0.124819 -0.001073 0.561323
v 0.181187 0.377576 -0.286042
v 0.178693 0.339466 0.174693
v -0.076172 0.000000 -0.271680
v 0.966220 0.657371 -0.254203
v 0.966220 0.657371 -0.254203
v 0.170170 0.337625 -0.266035
v -0.059097 -0.003841 -0.255157
v 1.283940 0.675754 0.351609
v 1.283940 0.675754 0.351609
v 0.086759 0.369382 0.352777
v -0.100351 -0.007323 -0.010564
v -0.148447 0.005635 0.348913
v 0.086759 0.369382 0.352777
v -0.100351 -0.007323 -0.010564
v 0.086759 0.369382 0.352777
v -0.100351 -0.007323 -0.010564
v -0.148447 0.005635 0.348913
v 1.385270 0.505642 -0.183216
v 1.385270 0.505642 -0.183216
v 0.178693 0.339466 0.174693
v -0.076172 0.000000 0.173047
v -0.076172 0.000000 -0.271680
v -0.143806 0.001658 -0.632813
v -0.059097 -0.003841 -0.255157
v 0.935368 0.987294 -0.357050
v 0.935368 0.987294 -0.357050
vt -0.068160 0.963770
vt -0.084530 1.216050
vt -0.460060 1.182760
vt 1.466530 1.014670
vt 1.059710 1.193790
vt 1.455030 1.227910
vt 1.143210 1.412630
vt 1.391190 1.409870
vt 1.225960 1.770920
vt 1.358340 1.776650
vt 1.253250 2.017460
vt 0.850980 0.733950
vt 0.717090 0.742300
vt 0.872300 0.387200
vt 0.752630 0.970270
vt 0.106400 1.575030
vt 0.340480 1.558210
vt 0.395180 1.411660
vt -0.052140 1.300610
vt -0.123360 1.458440
vt -0.358750 1.464720
vt -0.303050 0.839750
vt -0.406220 0.555230
vt -0.119470 0.557010
vt 0.621940 0.415470
vt 0.930890 0.210250
vt -0.430770 0.932930
vt 0.365230 1.099410
vt 0.001380 1.105370
vt -0.001640 1.312740
vt 0.375320 1.307660
vt -0.905880 1.470660
vt -0.797760 1.792280
vt -0.619140 1.467000
vt -0.032870 0.388720
vt -0.490910 0.355610
vt -0.535490 1.273830
vt -0.994040 1.245250
vt 0.209260 1.834200
vt 0.334900 1.830300
vt 0.258550 2.006200
vt -0.286400 1.762130
vt -0.160660 1.764640
vt -0.257680 1.962460
vt -0.644000 1.796000
vt -0.149370 0.845700
vt 0.702260 0.765420
vt 0.602200 0.510110
vt 0.869610 0.523050
vt 0.948160 0.377500
vt 0.520600 0.330110
vt 0.970100 0.184790
vt 0.557230 0.139960
vt 0.079850 1.438860
vt 0.195320 1.774060
vt 0.365770 1.443880
vt -0.014970 0.172740
vt -0.457280 0.141820
vt 0.094760 1.502660
vt 0.327940 1.480610
vt 0.220590 1.777320
vt 0.346350 1.770530
vt -0.388270 1.421940
vt -0.153580 1.419720
vt -0.297950 1.766410
vt -0.172020 1.771360
vt -0.521360 1.027770
vt -0.964150 1.001380
vt 0.443340 1.258600
vt -0.014710 1.214960
vt 0.458070 1.020420
vt 0.348740 1.782930
vt 0.845640 0.776760
vt 0.530520 0.219260
vt 1.084700 0.983190
vt -0.742450 1.986110
vt -0.250720 1.011040
vt -0.426780 1.278540
vt -0.046520 0.993500
vt 0.000000 1.000000
vt 0.019310 1.410150
vt 0.369040 1.134290
vt 0.006130 1.133880
vt 0.253870 1.986590
vt 0.753430 0.918390
vt -0.528320 0.955900
vt -0.973050 0.955900
vt -0.974690 1.396170
vt 0.935610 0.009430
vt 0.548950 0.019520
vt 0.290180 1.945170
vt -0.250030 1.976150
vn 0.945000 -0.326500 0.020500
vn -0.792900 0.594300 0.134400
vn -0.635000 0.767300 0.089500
vn -0.669400 0.720900 0.179300
vn -0.166200 0.984600 -0.054400
vn -0.164400 0.983100 -0.080400
vn 0.137300 0.977000 -0.163100
vn 0.164400 -0.983100 0.080400
vn -0.137300 -0.977000 0.163100
vn -0.890400 0.450500 -0.064900
vn 0.890400 -0.450500 0.064900
vn 0.232900 -0.967000 0.103600
vn 0.166200 -0.984600 0.054400
vn 0.669400 -0.720900 -0.179300
vn 0.943300 -0.331100 0.025700
vn -0.943300 0.331100 -0.025700
vn -0.945000 0.326500 -0.020500
vn -0.232900 0.967000 -0.103600
vn 0.797400 -0.600900 0.054500
vn 0.746400 -0.653900 0.123600
vn -0.797400 0.600900 -0.054500
vn -0.746400 0.653900 -0.123500
vn -0.478800 0.873600 -0.086800
vn -0.469800 0.876100 -0.108800
vn -0.123500 0.989200 -0.078700
vn 0.478800 -0.873600 0.086800
vn 0.469800 -0.876100 0.108800
vn 0.123500 -0.989200 0.078700
vn -0.220800 0.965700 -0.136600
vn 0.220800 -0.965700 0.136600
vn 0.102500 -0.988800 -0.108500
vn 0.712500 -0.684700 -0.153500
vn 0.648100 -0.759300 -0.059300
vn 0.824800 -0.563800 -0.042200
vn 0.799700 -0.600400 0.000000
vn -0.102500 0.988800 0.108500
vn 0.860900 -0.492900 0.125800
vn 0.886200 -0.455300 0.085600
vn -0.892500 0.450500 -0.021200
vn -0.918000 0.392700 0.055600
vn -0.548700 0.835600 -0.028400
vn -0.531100 0.840400 -0.107700
vn 0.892500 -0.450500 0.021200
vn 0.918000 -0.392700 -0.055600
vn 0.548700 -0.835600 0.028400
vn 0.531100 -0.840400 0.107700
vn -0.860900 0.492900 -0.125800
vn -0.886200 0.455300 -0.085600
vn -0.712500 0.684700 0.153500
vn -0.648100 0.759300 0.059300
vn -0.824800 0.563800 0.042200
vn -0.091200 0.994100 0.058000
vn 0.091200 -0.994100 -0.058000
vn 0.635000 -0.767300 -0.089500
vn -0.812300 0.551400 0.190200
vn 0.207600 0.972200 -0.108400
vn -0.207600 -0.972200 0.108400
vn 0.843600 -0.520000 0.133600
vn 0.830900 -0.540500 0.132500
vn 0.831900 -0.539300 0.130700
vn -0.843600 0.520000 -0.133600
vn -0.830900 0.540500 -0.132500
vn -0.831900 0.539300 -0.130700
vn 0.334600 0.941600 0.037200
vn -0.334600 -0.941600 -0.037200
vn -0.799700 0.600400 0.000000
vn 0.792900 -0.594300 -0.134400
vn 0.812300 -0.551400 -0.190200
vn -0.158300 0.978400 -0.133100
vn 0.158300 -0.978400 0.133100
usemtl OW_O_REED_1_1_256
s off
f 2/1/1 1/2/1 3/3/1
f 6/4/2 5/5/2 4/6/2
f 4/6/3 5/5/3 7/7/3
f 7/7/4 8/8/4 4/6/4
f 7/7/5 9/9/5 8/8/5
f 9/9/6 10/10/6 8/8/6
f 10/10/7 9/9/7 11/11/7
f 12/12/8 14/13/8 13/14/8
f 14/13/9 12/12/9 15/15/9
f 16/16/10 18/17/10 17/18/10
f 20/19/11 19/20/11 21/21/11
f 23/22/12 24/23/12 22/24/12
f 14/13/13 25/25/13 13/14/13
f 26/26/14 13/14/14 25/25/14
f 2/1/15 3/3/15 27/27/15
f 30/28/16 28/29/16 29/30/16
f 30/28/17 29/30/17 31/31/17
f 32/32/18 33/33/18 34/34/18
f 35/35/19 22/24/19 24/23/19
f 24/23/20 36/36/20 35/35/20
f 32/32/21 34/34/21 37/37/21
f 37/37/22 38/38/22 32/32/22
f 16/16/23 39/39/23 18/17/23
f 39/39/24 40/40/24 18/17/24
f 40/40/25 39/39/25 41/41/25
f 42/42/26 21/21/26 19/20/26
f 43/43/27 42/42/27 19/20/27
f 42/42/28 43/43/28 44/44/28
f 33/33/29 45/45/29 34/34/29
f 46/46/30 23/22/30 22/24/30
f 48/47/31 49/48/31 47/49/31
f 50/50/32 47/49/32 49/48/32
f 49/48/33 51/51/33 50/50/33
f 52/52/34 50/50/34 51/51/34
f 52/52/35 51/51/35 53/53/35
f 54/54/36 55/55/36 56/56/36
f 57/57/37 35/35/37 36/36/37
f 57/57/38 36/36/38 58/58/38
f 31/31/39 29/30/39 59/59/39
f 59/59/40 60/60/40 31/31/40
f 59/59/41 61/61/41 60/60/41
f 61/61/42 62/62/42 60/60/42
f 63/63/43 3/3/43 1/2/43
f 1/2/44 64/64/44 63/63/44
f 65/65/45 63/63/45 64/64/45
f 66/66/46 65/65/46 64/64/46
f 67/67/47 38/38/47 37/37/47
f 67/67/48 68/68/48 38/38/48
f 54/54/49 56/56/49 69/69/49
f 69/69/50 70/70/50 54/54/50
f 71/71/51 70/70/51 69/69/51
f 55/55/52 72/72/52 56/56/52
f 73/73/53 48/47/53 47/49/53
f 25/25/54 74/74/54 26/26/54
f 6/4/55 75/75/55 5/5/55
f 45/45/56 33/33/56 76/76/56
f 23/22/57 46/46/57 77/77/57
f 21/21/58 78/78/58 20/19/58
f 79/79/59 20/19/59 78/78/59
f 82/80/60 81/80/60 80/80/60
f 17/18/61 83/81/61 16/16/61
f 84/82/62 83/81/62 17/18/62
f 84/82/63 85/83/63 83/81/63
f 72/72/64 55/55/64 86/84/64
f 48/47/65 73/73/65 87/85/65
f 90/86/66 89/87/66 88/88/66
f 91/89/67 26/26/67 74/74/67
f 91/89/68 74/74/68 92/90/68
f 62/62/69 61/61/69 93/91/69
f 65/65/70 66/66/70 94/92/70
