# Blender v2.75 (sub 0) OBJ File: 'Empty.blend'
# www.blender.org
mtllib CHAIR_1_PC.mtl
o CHAIR_1_PC
v 0.069604 0.005412 -0.250928
v 0.125731 0.502583 -0.223610
v 0.243985 0.005412 0.038452
v -0.218339 0.005412 0.145392
v -0.243985 0.502583 0.097778
v -0.218339 0.005412 -0.157369
v 0.069604 0.005412 -0.250928
v -0.175878 0.502583 -0.197223
v 0.125731 0.502583 -0.223610
v 0.243985 0.005412 0.038452
v 0.228810 0.502583 0.090489
v 0.026196 0.005412 0.248768
v -0.243985 0.502583 0.097778
v -0.027947 0.502583 0.250928
v -0.175878 0.502583 -0.197223
v 0.228810 0.502583 0.090489
v 0.125731 0.502583 -0.223610
v -0.027947 0.502583 0.250928
v 0.026196 0.005412 0.248768
v -0.218339 0.005412 0.145392
v -0.027947 0.502583 0.250928
v -0.243985 0.502583 0.097778
v -0.175878 0.502583 -0.197223
v -0.218339 0.005412 -0.157369
v 0.228810 0.502583 0.090489
v -0.218339 0.005412 0.145392
v -0.218339 0.005412 -0.157369
v 0.026196 0.005412 0.248768
v 0.069604 0.005412 -0.250928
v 0.243985 0.005412 0.038452
vt -0.358300 0.692310
vt -0.259850 0.659820
vt -0.324660 0.644850
vt -0.323060 0.748720
vt -0.254060 0.726070
vt -0.252210 1.552660
vt -0.347290 1.621730
vt -0.274650 1.621730
vt -0.372090 1.563070
vt -0.321630 1.510820
vt -0.197800 0.901270
vt -0.254990 0.999820
vt -0.188380 0.999940
vt -0.131590 1.098310
vt -0.080650 0.999710
vt -0.140330 0.999710
vt -0.094330 0.999600
vt -0.144030 1.098310
vt -0.084360 1.098270
vt -0.202110 0.901370
vt -0.253120 1.000000
vt -0.193380 1.000000
vt -0.261840 0.901370
vt -0.200630 0.901420
vt -0.243870 1.000030
vt -0.191510 1.000050
vt -0.252860 0.901380
vt -0.071920 1.098400
vt -0.154010 0.999740
vt -0.262970 0.901190
vn 0.000000 1.000000 0.000000
vn 0.000000 -1.000000 0.000000
vn 0.854500 -0.068200 -0.514900
vn -0.998700 -0.051500 0.000000
vn -0.087000 0.064400 -0.994100
vn 0.693600 -0.054000 0.718300
vn 0.529100 0.053900 0.846800
vn -0.389000 -0.046400 0.920100
vn -0.577700 0.048200 0.814900
vn -0.972300 0.065000 -0.224500
vn -0.308600 -0.049800 -0.949900
vn 0.948300 0.061500 -0.311200
usemtl OC_O_WOOD_1
s off
f 14/1/1 15/2/1 13/3/1
f 15/2/1 14/1/1 16/4/1
f 15/2/1 16/4/1 17/5/1
f 29/6/2 26/7/2 27/8/2
f 29/6/2 28/9/2 26/7/2
f 28/9/2 29/6/2 30/10/2
usemtl OC_O_WOOD_2
f 2/11/3 3/12/3 1/13/3
f 5/14/4 6/15/4 4/16/4
f 7/17/5 8/18/5 9/19/5
f 11/20/6 12/21/6 10/22/6
f 12/21/7 11/20/7 18/23/7
f 21/24/8 20/25/8 19/26/8
f 20/25/9 21/24/9 22/27/9
f 6/15/10 5/14/10 23/28/10
f 8/18/11 7/17/11 24/29/11
f 3/12/12 2/11/12 25/30/12
