# Blender v2.75 (sub 0) OBJ File: 'Empty.blend'
# www.blender.org
mtllib CHAIR_2_NC.mtl
o CHAIR_2_NC
v -0.245000 0.503998 0.240000
v 0.275000 0.003998 0.250000
v -0.245000 0.003998 -0.260000
v -0.245000 0.003998 0.240000
v -0.245000 0.503998 -0.260000
v 0.255000 0.503998 -0.260000
v 0.255000 0.503998 0.240000
v 0.235000 0.003998 -0.240000
v -0.185000 0.248998 -0.230000
v -0.275000 0.358998 0.260000
vt 0.200470 0.804690
vt -0.198300 1.195290
vt 0.185470 1.195340
vt 0.219520 1.271440
vt 0.195970 0.994770
vt -0.210240 0.994510
vt -0.195070 0.812640
vt 0.174430 1.005240
vt 0.192970 0.728620
vt -0.234380 0.804690
vt 0.164060 1.210940
vt 0.156250 0.804690
vt 0.175440 0.614750
vt -0.213340 0.614750
vt -0.189830 0.804690
vt -0.195670 0.606000
vt 0.148120 0.805540
vt 0.194960 0.606000
vt -0.273750 0.605310
vt -0.664370 0.214690
vt -0.664370 0.605310
vt -0.194590 1.385180
vt -0.273750 0.214690
vt -0.180030 0.996810
vt -0.218750 1.179690
vt 0.194950 0.996590
vt -0.214360 1.005240
vt 0.196030 1.385180
vn 0.995800 -0.043100 -0.081300
vn -0.019200 -0.057900 0.998100
vn -0.983700 -0.073900 -0.164100
vn 0.000000 -1.000000 0.000000
vn -0.973400 -0.229000 0.000000
vn 0.999200 0.040000 0.000000
vn 0.000000 -0.116800 -0.993200
vn 0.000000 1.000000 0.000000
vn 0.031900 0.021300 0.999300
vn -0.046000 -0.038100 -0.998200
vn 0.041400 0.111400 -0.992900
vn -0.971300 0.237900 0.000000
vn 0.000000 0.136600 0.990600
vn -0.961900 0.169400 -0.214700
usemtl NC_F_DARKROCKS_HOLE01
s off
f 6/1/1 2/2/1 8/3/1
f 10/4/2 4/5/2 2/6/2
f 9/7/3 4/8/3 10/9/3
f 3/10/4 2/11/4 4/12/4
f 9/7/5 1/13/5 5/14/5
f 2/2/6 6/1/6 7/15/6
f 6/16/7 9/17/7 5/18/7
f 1/19/8 6/20/8 5/21/8
f 10/4/9 2/6/9 7/22/9
f 6/20/8 1/19/8 7/23/8
f 6/16/10 8/24/10 9/17/10
f 2/11/4 3/10/4 8/25/4
f 9/17/11 8/24/11 3/26/11
f 4/8/12 9/7/12 3/27/12
f 10/4/13 7/22/13 1/28/13
f 9/7/14 10/9/14 1/13/14
