# Blender v2.75 (sub 0) OBJ File: 'Empty.blend'
# www.blender.org
mtllib CHESTBIG_NW_RICH_OPEN.mtl
o CHESTBIG_NW_RICH_OPEN
v 0.600010 0.503954 -0.445707
v -0.599990 0.503954 -0.445707
v -0.599990 0.501960 0.444047
v 0.600010 0.501960 0.444047
v 0.600010 0.740422 -0.229177
v -0.599990 0.740422 -0.229177
v 0.600010 0.739426 0.214886
v -0.599990 0.739426 0.214886
v 0.600010 0.640633 -0.389642
v -0.599990 0.640633 -0.389642
v 0.600010 0.638907 0.380690
v -0.599990 0.638907 0.380690
v -0.599990 0.776583 -0.008122
v 0.600010 0.776583 -0.008123
v 0.550010 0.500010 -0.400010
v -0.549990 0.500010 0.399990
v -0.549990 0.049552 -0.400010
v -0.549990 0.500010 -0.400010
v 0.600010 0.000010 -0.450010
v 0.600010 0.000010 0.449990
v -0.599990 0.000010 0.449990
v -0.599990 0.000010 -0.450010
v 0.550010 0.500010 0.399990
v -0.549990 0.049552 0.399990
v 0.550010 0.049552 0.399990
v 0.550010 0.049552 -0.400010
v 0.600010 0.500010 -0.450010
v -0.599990 0.500010 -0.450010
v -0.599990 0.500010 0.449990
v 0.600010 0.500010 0.449990
vt 0.426116 1.466310
vt 0.426116 1.245280
vt 0.072976 1.245280
vt 0.005021 1.079180
vt 0.480603 1.150710
vt 0.480603 1.079180
vt 0.072976 1.466310
vt 0.005021 1.150710
vt 0.480603 1.213420
vt 0.005021 1.161730
vt 0.005021 1.213420
vt -0.107554 1.005840
vt -0.251247 1.096060
vt -0.324681 1.084090
vt 0.047777 1.005470
vt 0.348720 1.126530
vt 0.445025 1.004900
vt 0.480603 1.161730
vt 0.005021 1.026130
vt -0.400369 1.006200
vt 0.250083 1.145460
vt 0.150460 1.126810
vt 0.480603 1.026130
vt 0.480603 1.231650
vt 0.005021 1.231650
vt -0.178541 1.083900
vt -0.125848 1.050880
vt 0.420207 1.075080
vt 0.480603 1.036220
vt 0.005021 1.005940
vt 0.005021 1.036220
vt -0.379361 1.051200
vt 0.076277 1.075570
vt 0.480603 1.005940
vt 0.005021 1.090710
vt 0.480603 1.090710
vt 0.437123 1.470540
vt 0.437123 1.239460
vt 0.052881 1.470540
vt 0.426116 1.247420
vt 0.072976 1.470990
vt 0.426116 1.470990
vt 0.049531 1.027250
vt 0.440473 1.027250
vt 0.440472 1.234120
vt -0.563263 1.233520
vt -0.946733 1.233520
vt -0.946733 1.076480
vt 0.484606 1.005610
vt 0.005397 1.232050
vt 0.484606 1.232050
vt 0.052881 1.239460
vt 0.072976 1.247420
vt 0.464906 1.234120
vt 0.025098 1.004500
vt 0.464906 1.004500
vt 0.464905 1.233920
vt 0.025099 1.007350
vt 0.025099 1.233920
vt -0.495426 1.006480
vt -0.014570 1.233520
vt -0.495426 1.233520
vt 0.464905 1.007350
vt 0.005397 1.005610
vt 0.025097 1.234120
vt -0.014570 1.006480
vt 0.049531 1.234120
vt -0.560506 1.045970
vt -0.949490 1.045970
vt -0.949490 1.231360
vt -0.560506 1.231360
vt 0.440472 1.029800
vt 0.049532 1.029800
vt 0.049532 1.233920
vt -0.563263 1.076480
vt 0.440471 1.233920
vt 0.402424 1.208130
vt 0.187580 1.208130
vt 0.177815 1.217890
vt 0.177814 1.042110
vt 0.402424 1.051880
vt 0.412189 1.217890
vt 0.412189 1.042110
vt 0.187580 1.051880
vn 0.000000 -1.000000 -0.002200
vn 0.000000 0.986400 0.164400
vn 0.000000 0.849200 -0.528100
vn 1.000000 0.000000 0.000000
vn -1.000000 0.000000 0.000000
vn 0.000000 0.855100 0.518400
vn 0.000000 0.379500 -0.925200
vn 0.000000 0.419900 0.907600
vn -0.000000 0.986900 -0.161400
vn 0.000000 1.000000 0.000000
vn 0.000000 -1.000000 -0.000000
vn 0.000000 0.000000 1.000000
vn 0.000000 0.000000 -1.000000
usemtl NW_CITY_CHESTALL_01
s off
f 3/1/1 2/2/1 1/3/1
f 7/4/2 13/5/2 8/6/2
f 3/1/1 1/3/1 4/7/1
f 13/5/2 7/4/2 14/8/2
f 10/9/3 5/10/3 9/11/3
f 1/12/4 14/13/4 7/14/4
f 3/15/5 6/16/5 2/17/5
f 5/10/3 10/9/3 6/18/3
f 8/6/6 11/19/6 7/4/6
f 1/12/4 7/14/4 4/20/4
f 13/21/5 3/15/5 8/22/5
f 11/19/6 8/6/6 12/23/6
f 2/24/7 9/11/7 1/25/7
f 5/26/4 1/12/4 9/27/4
f 2/17/5 6/16/5 10/28/5
f 9/11/7 2/24/7 10/9/7
f 12/29/8 4/30/8 11/31/8
f 4/20/4 7/14/4 11/32/4
f 8/22/5 3/15/5 12/33/5
f 4/30/8 12/29/8 3/34/8
f 3/15/5 13/21/5 6/16/5
f 14/35/9 6/18/9 13/36/9
f 6/18/9 14/35/9 5/10/9
f 14/13/4 1/12/4 5/26/4
f 17/37/10 24/38/10 26/39/10
f 22/40/11 20/41/11 21/42/11
f 24/43/4 17/44/4 18/45/4
f 15/46/12 18/47/12 17/48/12
f 19/49/13 28/50/13 27/51/13
f 26/39/10 24/38/10 25/52/10
f 20/41/11 22/40/11 19/53/11
f 27/54/4 20/55/4 19/56/4
f 28/57/5 21/58/5 29/59/5
f 21/60/12 30/61/12 29/62/12
f 21/58/5 28/57/5 22/63/5
f 28/50/13 19/49/13 22/64/13
f 20/55/4 27/54/4 30/65/4
f 30/61/12 21/60/12 20/66/12
f 18/45/4 16/67/4 24/43/4
f 25/68/13 24/69/13 16/70/13
f 16/70/13 23/71/13 25/68/13
f 26/72/5 25/73/5 23/74/5
f 17/48/12 26/75/12 15/46/12
f 23/74/5 15/76/5 26/72/5
f 18/77/10 15/78/10 27/79/10
f 30/80/10 27/79/10 15/78/10
f 16/81/10 18/77/10 28/82/10
f 27/79/10 28/82/10 18/77/10
f 28/82/10 29/83/10 16/81/10
f 23/84/10 16/81/10 29/83/10
f 29/83/10 30/80/10 23/84/10
f 15/78/10 23/84/10 30/80/10
