# Blender v2.75 (sub 0) OBJ File: 'Empty.blend'
# www.blender.org
mtllib CHESTBIG_NW_NORMAL_LOCKED.mtl
o CHESTBIG_NW_NORMAL_LOCKED
v 0.118953 0.358634 0.294324
v -0.120000 0.358634 0.294324
v 0.118953 0.179419 0.294324
v 0.118954 0.358634 0.350000
v -0.120000 0.179419 0.294324
v -0.120000 0.358634 0.350000
v 0.118953 0.179419 0.350000
v -0.120000 0.179419 0.350000
v 0.422275 0.503877 0.288404
v -0.416255 0.503877 0.288404
v 0.422275 0.503952 -0.295361
v -0.416255 0.503930 -0.295354
v -0.416255 0.733076 -0.155973
v 0.422275 0.733075 -0.155973
v 0.422275 0.732931 0.135943
v -0.416255 0.732931 0.135944
v -0.416255 0.774686 -0.011198
v 0.422275 0.774686 -0.011198
v -0.416255 0.619249 -0.259587
v 0.422275 0.619249 -0.259587
v -0.416255 0.618998 0.246026
v 0.422275 0.618998 0.246026
v 0.119477 0.358634 0.350000
v 0.069062 0.501724 0.292553
v 0.119477 0.358634 0.294324
v -0.119477 0.358634 0.350000
v -0.069062 0.501724 0.292553
v -0.119477 0.358634 0.294324
v 0.422275 0.501486 -0.295441
v -0.416255 0.000010 0.295267
v -0.416255 0.501473 -0.295423
v -0.416255 0.000010 -0.295287
v 0.422275 0.000010 0.295267
v 0.422275 0.000010 -0.295287
v -0.389815 0.501380 0.266005
v 0.395835 0.501380 0.266005
v -0.389815 0.024380 0.266005
v 0.395835 0.024380 0.266005
v -0.389815 0.024380 -0.266025
v 0.395835 0.024380 -0.266025
v -0.416255 0.501380 0.295267
v 0.422275 0.501380 0.295267
v -0.389815 0.501380 -0.266025
v 0.395835 0.501380 -0.266025
vt -0.009069 0.010342
vt 0.723122 0.010342
vt 0.723122 0.554882
vt 0.021575 0.000500
vt 0.021575 0.555985
vt 0.999500 0.555985
vt 0.000500 0.000499
vt 0.999501 0.000500
vt 0.999501 0.999501
vt -0.009068 0.554882
vt 0.000500 0.999501
vt 0.723122 0.989658
vt -0.009068 0.989658
vt -0.080800 1.404990
vt -0.343247 1.243830
vt -0.340098 1.409130
vt -0.514901 1.293800
vt -0.990324 1.381280
vt -0.990324 1.293800
vt -0.083949 1.239690
vt -0.514901 1.381280
vt -0.990362 1.327210
vt -0.514864 1.264740
vt -0.514864 1.327210
vt 0.405416 1.404880
vt 0.161999 1.336260
vt 0.099409 1.405260
vt -0.990361 1.264730
vt 0.329598 1.329010
vt 0.077125 1.401130
vt 0.143170 1.329230
vt -0.990325 1.446230
vt 0.400028 1.400740
vt -0.514901 1.446230
vt 0.338672 1.336040
vt -0.990362 1.413790
vt -0.514865 1.413800
vt 0.249575 1.310930
vt 0.235582 1.302830
vt -0.514864 1.242700
vt 0.077885 1.475090
vt -0.990361 1.242700
vt 0.054407 1.473890
vt -0.990324 1.472110
vt -0.514901 1.404910
vt -0.514901 1.472110
vt 0.431186 1.474510
vt -0.990325 1.404910
vt 0.427221 1.473290
vt 0.429628 1.724330
vt 0.429628 1.486850
vt 0.060376 1.724330
vt -0.993187 1.468390
vt -0.516809 1.240440
vt -0.993187 1.240440
vt 0.079340 1.239320
vt 0.390721 1.475290
vt 0.390649 1.239320
vt 0.004272 1.475380
vt 0.486905 1.239260
vt 0.004272 1.239260
vt -0.516809 1.468390
vt 0.060376 1.486850
vt 0.486905 1.475390
vt -0.561759 1.473980
vt -0.948156 1.240380
vt -0.561860 1.240380
vt -0.493809 1.244420
vt -0.015015 1.475580
vt -0.493809 1.475580
vt 0.079340 1.475250
vt -0.948156 1.473930
vt -0.015015 1.244420
vt -0.560117 1.473930
vt -0.949908 1.473930
vt -0.949907 1.251730
vt 0.471685 1.250700
vt 0.019488 1.250700
vt 0.019488 1.475300
vt 0.471685 1.475300
vt 0.375224 1.250780
vt 0.094765 1.250780
vt 0.094765 1.475250
vt -0.560117 1.251730
vt -0.562211 1.472530
vt -0.946613 1.472530
vt -0.946613 1.247470
vt -0.562211 1.247470
vt 0.375224 1.475250
vt 0.276545 1.439110
vt 0.276545 1.282090
vt 0.269517 1.289870
vt 0.060676 1.289870
vt 0.060676 1.431290
vt 0.053647 1.282090
vt 0.269517 1.431290
vt 0.053647 1.439110
vn 0.000000 -0.000000 1.000000
vn 1.000000 0.000000 -0.000000
vn 0.000000 1.000000 -0.000000
vn -1.000000 0.000000 0.000000
vn 0.000000 -1.000000 0.000000
vn 0.943200 0.332300 0.000000
vn 0.000000 0.372600 0.928000
vn -0.943200 0.332300 0.000000
vn 0.000000 -1.000000 -0.000100
vn 0.000000 0.962000 0.273000
vn 0.000000 0.673200 -0.739500
vn 0.000000 0.694900 0.719200
vn 0.000000 0.694800 0.719200
vn -0.000000 0.961100 -0.276200
vn 0.000000 0.296200 -0.955100
vn -0.000000 0.296300 -0.955100
vn 0.000000 0.345500 0.938400
vn 0.000000 -0.000300 -1.000000
vn 0.000000 0.000000 -1.000000
vn 0.000200 1.000000 0.000200
vn 0.003500 1.000000 0.000000
vn -0.000000 1.000000 0.003200
vn -0.003800 1.000000 0.000200
vn 0.000000 1.000000 0.003600
usemtl MATERIAL_#2
s off
f 8/1/1 7/2/1 4/3/1
f 3/4/2 1/5/2 4/6/2
f 6/7/3 4/8/3 1/9/3
f 4/3/1 6/10/1 8/1/1
f 8/8/4 6/6/4 2/5/4
f 1/9/3 2/11/3 6/7/3
f 5/7/5 3/8/5 7/9/5
f 4/6/2 7/8/2 3/4/2
f 7/9/5 8/11/5 5/7/5
f 2/5/4 5/4/4 8/8/4
f 24/11/6 23/6/6 25/5/6
f 26/10/7 23/3/7 24/12/7
f 24/12/7 27/13/7 26/10/7
f 27/11/8 28/5/8 26/6/8
usemtl OBJ_CITY_CHESTALL_01
f 10/14/9 11/15/9 9/16/9
f 17/17/10 15/18/10 18/19/10
f 10/14/9 12/20/9 11/15/9
f 15/18/10 17/17/10 16/21/10
f 14/22/11 19/23/11 13/24/11
f 21/25/4 13/26/4 19/27/4
f 19/23/11 14/22/11 20/28/11
f 15/29/2 20/30/2 14/31/2
f 16/21/12 22/32/12 15/18/12
f 20/30/2 15/29/2 22/33/2
f 22/32/13 16/21/13 21/34/13
f 13/26/4 21/25/4 16/35/4
f 18/36/14 13/24/14 17/37/14
f 13/26/4 16/35/4 17/38/4
f 13/24/14 18/36/14 14/22/14
f 15/29/2 14/31/2 18/39/2
f 20/28/15 12/40/15 19/23/15
f 21/25/4 19/27/4 12/41/4
f 12/40/16 20/28/16 11/42/16
f 20/30/2 22/33/2 11/43/2
f 9/44/17 21/45/17 10/46/17
f 21/25/4 12/41/4 10/47/4
f 21/45/17 9/44/17 22/48/17
f 11/43/2 22/33/2 9/49/2
f 39/50/3 37/51/3 40/52/3
f 32/53/5 33/54/5 30/55/5
f 30/56/4 31/57/4 32/58/4
f 31/59/18 34/60/18 32/61/18
f 33/54/5 32/53/5 34/62/5
f 40/52/3 37/51/3 38/63/3
f 34/60/18 31/59/18 29/64/18
f 29/65/2 33/66/2 34/67/2
f 30/68/1 42/69/1 41/70/1
f 31/57/4 30/56/4 41/71/4
f 33/66/2 29/65/2 42/72/2
f 42/69/1 30/68/1 33/73/1
f 43/74/2 35/75/2 37/76/2
f 38/77/19 37/78/19 35/79/19
f 35/79/19 36/80/19 38/77/19
f 40/81/4 38/82/4 36/83/4
f 37/76/2 39/84/2 43/74/2
f 44/85/1 43/86/1 39/87/1
f 39/87/1 40/88/1 44/85/1
f 36/83/4 44/89/4 40/81/4
f 31/90/20 41/91/20 35/92/20
f 36/93/3 35/92/3 41/91/3
f 44/94/3 36/93/3 42/95/3
f 41/91/3 42/95/3 36/93/3
f 35/92/21 43/96/21 31/90/21
f 29/97/22 31/90/22 43/96/22
f 42/95/23 29/97/23 44/94/23
f 43/96/24 44/94/24 29/97/24
