# Blender v2.75 (sub 0) OBJ File: 'Empty.blend'
# www.blender.org
mtllib DOOR_NW_CITY_01.mtl
o DOOR_NW_CITY_01
v 0.800000 -0.000000 0.100106
v 0.800000 2.500000 -0.099895
v -0.800000 0.000000 0.100106
v -0.800000 2.500000 -0.099895
v 0.800000 2.500000 0.100105
v -0.800000 2.500000 0.100105
v 0.800000 -0.000000 -0.099894
v -0.800000 0.000000 -0.099894
vt 0.000000 1.000000
vn 0.000000 0.000000 1.000000
vn 0.000000 -0.000000 -1.000000
vn 1.000000 0.000000 0.000000
vn 0.000000 1.000000 0.000000
vn -1.000000 0.000000 0.000000
vn -0.000000 -1.000000 0.000000
usemtl (null)
s off
f 5/1/1 3/1/1 1/1/1
f 8/1/2 2/1/2 7/1/2
f 2/1/2 8/1/2 4/1/2
f 3/1/1 5/1/1 6/1/1
f 5/1/3 7/1/3 2/1/3
f 2/1/4 6/1/4 5/1/4
f 6/1/4 2/1/4 4/1/4
f 4/1/5 3/1/5 6/1/5
f 1/1/6 8/1/6 7/1/6
f 7/1/3 5/1/3 1/1/3
f 8/1/6 1/1/6 3/1/6
f 3/1/5 4/1/5 8/1/5
