# Blender v2.75 (sub 0) OBJ File: 'Empty.blend'
# www.blender.org
mtllib DT_3RD_FLOOR_GEWOELBE.mtl
o DT_3RD_FLOOR_GEWOELBE
v 0.180502 0.003211 -0.092261
v 1.722908 -1.122294 3.189386
v 2.575934 -2.800859 4.869479
v 0.184764 0.003211 0.070455
v 1.155844 -1.122294 -3.265160
v 1.799285 -2.800859 -4.940413
v -0.190680 0.003211 0.054060
v -1.161803 -1.122294 -3.094559
v -1.720985 -2.800859 -4.712990
v -1.390184 -1.122294 2.881497
v -2.069399 -2.800859 4.399417
v -0.092271 0.003210 0.171284
v -2.921061 -1.122295 -1.324552
v -4.417070 -2.800859 -2.050755
v 0.082999 0.003211 0.175833
v -2.779940 -1.122294 1.457876
v -4.243426 -2.800859 2.176069
v -0.053457 0.003211 -0.198813
v 2.858531 -1.122294 -0.984967
v 4.355954 -2.800859 -1.448629
v -0.039884 0.003211 0.189835
v 2.867590 -1.122294 0.760312
v 4.366560 -2.800859 1.112866
v -0.184747 0.003211 -0.082602
v 0.000000 0.000000 -0.500000
v -0.500000 0.000000 -0.000000
v 0.500000 0.000000 0.000000
v 0.000000 -0.300000 -0.500000
v 4.196346 -2.795249 1.108433
v 4.298250 -2.795249 0.607561
v 4.792412 -3.091474 1.385142
v 4.196346 -3.091474 1.108433
v 4.320150 -2.795249 -0.938983
v 4.987959 -3.091474 -0.966116
v 4.183555 -2.795249 -1.431527
v 4.320150 -3.091474 -0.938983
v -4.281576 -2.795249 1.664265
v -4.069612 -2.795249 2.129377
v -4.960606 -3.091474 1.806328
v -4.281576 -3.091474 1.664265
v -2.027436 -2.795249 4.220782
v -1.555210 -2.795249 4.416385
v -2.432367 -3.091474 4.800346
v -2.027436 -3.091474 4.220782
v -4.034085 -2.795249 -2.394268
v -4.576151 -3.091474 -2.848170
v -4.270101 -2.795249 -1.940886
v -4.034085 -3.091474 -2.394268
v -1.205656 -2.795249 -4.679949
v -1.274164 -3.091474 -5.403763
v -1.693133 -2.795249 -4.526248
v -1.205656 -3.091474 -4.679949
v 2.169381 -2.795249 -4.575573
v 2.595239 -3.091474 -5.205659
v 1.697154 -2.795249 -4.771176
v 2.169381 -3.091474 -4.575573
v 2.052956 -2.795249 4.891568
v 2.514297 -2.795249 4.671519
v 2.252285 -3.091474 5.663278
v 2.052956 -3.091474 4.891568
v 4.476732 -2.800859 -1.013116
v 4.456665 -2.800859 0.669988
v -4.430847 -2.800859 1.764812
v -4.208383 -2.800859 -2.451640
v -1.651851 -2.800859 4.572371
v -1.289952 -2.800859 -4.848894
v 2.168010 -2.800859 5.064049
v -0.000000 0.000000 0.500000
v -0.500000 -0.300000 -0.000000
v -0.000000 -0.300000 0.500000
v 0.500000 -0.300000 0.000000
v -4.622312 -3.091474 2.548647
v -4.069612 -3.091474 2.129377
v -1.678693 -3.091474 5.112528
v -1.555210 -3.091474 4.416385
v 2.988587 -3.091474 5.312079
v 2.514297 -3.091474 4.671519
v 4.955050 -3.091474 0.585749
v 4.298250 -3.091474 0.607561
v 4.769954 -3.091474 -1.752217
v 4.183555 -3.091474 -1.431527
v 1.841565 -3.091474 -5.517841
v 1.697154 -3.091474 -4.771176
v -2.052177 -3.091474 -5.158456
v -1.693133 -3.091474 -4.526248
v -4.952832 -3.091474 -2.124573
v -4.270101 -3.091474 -1.940886
v 0.039854 0.003211 -0.202092
v 2.939101 -1.122294 0.408822
v 0.053427 0.003211 0.186597
v 2.954387 -1.122294 -0.639322
v -0.082860 0.003211 -0.188111
v -2.928687 -1.122294 1.131481
v 0.092408 0.003210 -0.183481
v -2.755436 -1.122295 -1.642715
v -1.058797 -1.122294 3.018762
v 0.190764 0.003211 -0.066209
v -0.819713 -1.122294 -3.202419
v 2.216833 -2.800859 -4.767459
v 1.487231 -1.122294 -3.127895
v -0.180493 0.003211 0.079925
v 1.399159 -1.122294 3.343806
v -0.353553 -0.300000 -0.353553
v 0.353553 -0.300000 0.353553
v -0.353553 0.000000 -0.353553
v 0.353553 0.000000 0.353553
v -0.353553 -0.300000 0.353553
v -0.353553 0.000000 0.353553
v 0.353553 -0.300000 -0.353553
v 0.353553 0.000000 -0.353553
v 3.793491 0.009982 0.554105
v 3.710827 0.009982 0.960414
v 3.700780 0.009982 -1.247570
v 3.811585 0.009982 -0.848017
v -3.774780 0.009982 1.486330
v -3.602835 0.009982 1.863630
v -3.572318 0.009982 -2.099490
v -1.390955 0.009982 3.893754
v -3.763774 0.009981 -1.731706
v -1.774026 0.009982 3.735081
v -1.478145 0.009982 -4.004849
v -1.082703 0.009982 -4.129532
v 1.899429 0.009982 -4.049938
v 1.516358 0.009982 -4.208611
v 1.830288 0.009982 4.312658
v 2.204530 0.009982 4.134154
v 2.824398 -2.800859 5.390394
v 2.009628 -2.800859 -5.448227
v -1.878687 -2.800859 -5.213157
v -4.868835 -2.800859 -2.285929
v -1.846756 -2.800859 5.042914
v -4.697748 -2.800859 2.383116
v 4.818567 -2.800859 -1.576923
v 4.918783 -2.800859 0.764007
v 1.785043 -3.090488 -4.865725
v 2.217239 -3.939496 -5.358942
v 1.907942 -3.090488 -5.490347
v -4.154311 -3.090488 -2.406103
v -4.761992 -3.939497 -2.485071
v -4.348754 -3.090488 -2.032581
v 2.174091 -3.090488 -4.704576
v -1.639700 -3.090488 4.502731
v -2.054452 -3.939496 4.953834
v -1.745070 -3.090488 5.085034
v 4.409947 -3.090488 -1.010601
v 4.876398 -3.939496 -1.358457
v 4.297412 -3.090488 -1.416388
v 2.988587 -2.795249 5.312079
v -2.028748 -3.090488 4.341582
v -2.365990 -3.090488 4.827840
v 2.416474 -2.800859 5.584963
v 4.390994 -3.090488 0.672367
v 4.871174 -3.939496 0.984926
v 4.940726 -3.090488 0.656152
v 2.252285 -2.795249 5.663278
v 4.769954 -2.795249 -1.752217
v 2.528357 -3.090488 4.805559
v 2.619061 -3.939496 5.484797
v 2.923740 -3.090488 5.343009
v 2.148276 -3.090488 4.986848
v -4.609325 -3.090488 -2.784443
v 4.307040 -3.090488 1.085016
v 4.806735 -3.090488 1.314739
v 4.987959 -2.795249 -0.966116
v 2.317132 -3.090488 5.632347
v -4.960606 -2.795249 1.806328
v 2.427176 -2.800859 -5.275273
v -4.919657 -3.090488 -2.188301
v 1.841565 -2.795249 -5.517841
v 4.792412 -2.795249 1.385142
v -4.362911 -3.090488 1.750802
v -4.930812 -3.090488 1.871704
v -4.788946 -3.939496 2.176342
v -4.188282 -3.090488 2.133989
v -4.652105 -3.090488 2.483270
v -4.622312 -2.795249 2.548647
v -4.885169 -2.800859 1.971859
v -2.432367 -2.795249 4.800346
v -1.678693 -2.795249 5.112528
v -2.264304 -2.800859 4.869960
v 4.955050 -2.795249 0.585749
v 4.828679 -2.800859 1.206884
v 4.968760 -3.090488 -1.035349
v 4.789154 -3.090488 -1.682985
v 4.939346 -2.800859 -1.141410
v 2.528862 -3.090488 -5.233153
v 2.595239 -2.795249 -5.205659
v -1.283301 -3.090488 -4.776505
v -1.342684 -3.090488 -5.382159
v -1.662298 -3.939496 -5.278343
v -1.684913 -3.090488 -4.649878
v -1.983658 -3.090488 -5.180060
v -1.274164 -2.795249 -5.403763
v -2.052177 -2.795249 -5.158456
v -1.447654 -2.800859 -5.349061
v -4.576151 -2.795249 -2.848170
v -4.952832 -2.795249 -2.124573
v -4.660148 -2.800859 -2.686814
v 0.000000 -0.300000 0.000000
vt 0.281586 -0.087250
vt 0.406350 -0.533048
vt 0.983749 -0.489673
vt -0.583038 -0.547489
vt -0.583038 -0.880339
vt 0.999466 -0.880468
vt 0.999466 -0.547438
vt 0.500000 -0.500000
vt 0.449728 -0.061428
vt 0.550272 -0.061428
vt 0.213742 -0.128454
vt 0.076691 -0.128454
vt 0.076691 -0.432974
vt 0.213314 -0.432974
vt 0.434902 -0.429288
vt 0.596058 -0.429288
vt 0.434700 -0.429288
vt 0.564665 -0.261201
vt 0.430700 -0.261201
vt 0.430700 -0.116889
vt 0.564900 -0.116888
vt 0.434902 -0.414767
vt 0.595781 -0.429288
vt 0.880479 -0.547489
vt 0.880479 -0.880339
vt 0.213742 -0.432974
vt 0.213314 -0.128454
vt 0.430872 -0.261201
vt 0.564665 -0.116889
vt 0.595781 -0.414969
vt 0.075317 -0.128454
vt 0.075317 -0.432974
vt 0.076095 -0.128454
vt 0.076095 -0.432974
vt 0.004437 -0.416344
vt 0.004654 -0.532011
vt 0.557153 -0.020129
vt 0.499687 -0.020129
vt 0.500000 -0.532039
vt 0.442848 -0.020129
vt 0.430872 -0.116888
vt 0.500313 -0.020129
vt 0.564900 -0.261201
vn 0.901700 -0.023300 -0.431800
vn -0.127600 -0.955000 -0.267600
vn -0.924200 -0.023300 -0.381100
vn -0.118600 -0.950800 0.286300
vn -0.953000 -0.023300 0.302200
vn 0.097200 -0.946300 0.308300
vn -0.923000 -0.023300 -0.384200
vn 0.127000 -0.943300 -0.306600
vn -0.460100 -0.023300 0.887600
vn 0.294300 -0.943300 0.153200
vn 0.416200 -0.023300 0.909000
vn 0.307300 -0.941200 -0.140100
vn -0.268900 -0.023300 -0.962900
vn -0.336900 -0.936900 0.093400
vn -0.201200 -0.023300 0.979300
vn -0.348000 -0.934800 -0.070800
vn 0.000000 -1.000000 -0.000000
vn -0.382700 0.000000 -0.923900
vn 0.382700 0.000000 -0.923900
vn -0.979900 0.000000 -0.199400
vn -0.421100 0.000000 0.907000
vn -0.963600 0.000000 0.267200
vn 0.040600 0.000000 0.999200
vn 0.910000 0.000000 -0.414700
vn -0.204800 0.000000 -0.978800
vn -0.819700 0.000000 -0.572700
vn 0.887000 0.000000 0.461700
vn 0.642000 0.000000 -0.766700
vn 0.300700 0.000000 0.953700
vn 0.995600 0.000000 -0.094200
vn -0.382700 0.000000 0.923900
vn 0.828500 0.000000 0.560000
vn -0.430500 0.000000 -0.902600
vn -0.968200 0.000000 0.250100
vn -0.704400 -0.682400 0.195400
vn -0.722300 -0.675800 -0.146900
vn 0.652900 -0.696600 -0.297500
vn 0.630300 -0.703700 0.328100
vn 0.271900 -0.703700 -0.656500
vn 0.210500 -0.714000 0.667800
vn -0.286400 -0.746600 -0.600500
vn 0.382700 0.000000 0.923900
vn 0.604400 0.000000 0.796700
vn 0.984600 0.000000 0.174700
vn 0.803700 0.000000 -0.595100
vn -0.033200 0.000000 -0.999400
vn -0.479800 0.000000 -0.877400
vn -0.981800 0.000000 -0.189900
vn -0.869600 0.000000 0.493800
vn -0.259800 0.000000 0.965700
vn 0.197500 -0.023300 -0.980000
vn 0.265400 -0.023300 0.963900
vn -0.413000 -0.023300 -0.910400
vn 0.463200 -0.023300 -0.886000
vn 0.924300 -0.023300 0.381000
vn 0.954000 -0.023300 -0.299000
vn -0.261500 -0.730200 0.631200
vn 0.923000 -0.023300 0.384100
vn -0.903000 -0.023300 0.429000
vn -0.923900 0.000000 -0.382700
vn 0.923900 0.000000 0.382700
vn -0.923900 0.000000 0.382700
vn 0.923900 0.000000 -0.382700
vn 0.173100 -0.004200 -0.984900
vn -0.229800 -0.000800 0.973200
vn -0.292400 -0.004200 -0.956300
vn 0.237600 -0.000800 0.971400
vn -0.387700 -0.000800 -0.921800
vn 0.437500 -0.004200 0.899200
vn 0.487200 -0.000800 -0.873300
vn 0.933100 -0.004200 0.359700
vn -0.439700 -0.004200 0.898200
vn -0.912400 -0.000800 -0.409200
vn -0.946200 -0.004200 0.323500
vn 0.961800 -0.000800 -0.273800
vn 0.913300 -0.000800 0.407300
vn -0.932400 -0.004200 -0.361400
vn -0.913300 -0.000800 0.407400
vn 0.893000 -0.004200 -0.450100
vn 0.902200 0.027800 -0.430300
vn -0.923500 0.027800 -0.382500
vn -0.953300 0.027800 0.300600
vn -0.461600 0.027800 0.886700
vn 0.923500 0.027800 0.382500
vn 0.414500 0.027800 0.909600
vn -0.267100 0.027800 -0.963300
vn 0.199300 0.027800 -0.979500
vn -0.915000 -0.361200 -0.180000
vn 0.734200 -0.561100 0.382200
vn -0.308900 -0.590400 0.745700
vn 0.918000 -0.360200 0.166100
vn -0.812000 -0.538400 0.225200
vn 0.316800 -0.561100 -0.764800
vn -0.766600 -0.360200 -0.531600
vn -0.902600 0.006600 0.430500
vn -0.027500 -0.359000 -0.932900
vn 0.751000 -0.361800 -0.552500
vn -0.341400 -0.609100 -0.715800
vn 0.596400 -0.360200 -0.717300
vn -0.830000 -0.531600 -0.168900
vn -0.389900 -0.359000 0.848000
vn -0.901900 -0.361800 0.235900
vn 0.923900 0.006600 0.382700
vn -0.245500 -0.360200 0.900000
vn -0.194300 -0.359900 -0.912500
vn 0.757900 -0.553400 -0.345400
vn 0.561200 -0.359900 0.745300
vn -0.414700 0.006600 -0.909900
vn -0.923900 0.006600 -0.382700
vn -0.199400 0.006600 0.979900
vn 0.041300 -0.359300 0.932300
vn -0.444800 -0.359300 -0.820400
vn 0.267200 0.006600 0.963600
vn 0.774300 -0.361200 0.519700
vn 0.928300 -0.360600 -0.091000
vn 0.246600 -0.572300 0.782100
vn -0.812600 -0.360600 0.457900
vn 0.953700 0.006600 -0.300700
vn 0.461700 0.006600 -0.887000
usemtl 3RD_FLOOR_GEWOELBE
s off
f 126/1/1 2/2/1 1/3/1
f 2/4/2 102/5/2 101/6/2
f 124/1/3 5/2/3 24/3/3
f 5/4/4 100/5/4 4/6/4
f 121/1/5 8/2/5 7/3/5
f 8/4/6 98/5/6 97/6/6
f 10/2/7 120/1/7 24/3/7
f 96/4/8 10/5/8 24/6/8
f 119/1/9 13/2/9 12/3/9
f 13/4/10 95/5/10 94/6/10
f 116/1/11 16/2/11 15/3/11
f 16/4/12 93/5/12 92/6/12
f 113/1/13 19/2/13 18/3/13
f 19/4/14 91/5/14 90/6/14
f 22/2/15 112/1/15 21/3/15
f 89/4/16 22/5/16 21/6/16
f 4/6/4 24/7/4 5/4/4
f 24/6/8 4/7/8 96/4/8
f 199/8/17 103/9/17 28/10/17
f 105/11/18 25/12/18 28/13/18
f 25/12/19 109/14/19 28/13/19
f 78/15/17 31/16/17 32/17/17
f 79/18/20 32/19/20 29/20/20
f 170/21/21 29/20/21 32/19/21
f 80/15/17 34/16/17 36/17/17
f 81/18/22 36/19/22 33/20/22
f 164/21/23 33/20/23 36/19/23
f 72/15/17 39/16/17 40/17/17
f 73/18/24 40/19/24 37/20/24
f 166/21/25 37/20/25 40/19/25
f 74/15/17 43/16/17 44/17/17
f 75/18/19 44/19/19 41/20/19
f 178/21/26 41/20/26 44/19/26
f 86/22/17 46/16/17 48/17/17
f 87/18/27 48/19/27 45/20/27
f 196/21/28 45/20/28 48/19/28
f 84/15/17 50/16/17 52/17/17
f 85/18/29 52/19/29 49/20/29
f 193/21/30 49/20/30 52/19/30
f 56/17/17 83/23/17 82/15/17
f 83/18/31 56/19/31 53/20/31
f 187/21/32 53/20/32 56/19/32
f 60/17/17 77/23/17 76/15/17
f 77/18/33 60/19/33 57/20/33
f 155/21/34 57/20/34 60/19/34
f 91/5/35 19/4/35 20/24/35
f 62/24/36 23/25/36 22/5/36
f 93/5/37 16/4/37 17/24/37
f 95/5/38 13/4/38 14/24/38
f 65/24/39 11/25/39 10/5/39
f 98/5/40 8/4/40 9/24/40
f 102/5/41 2/4/41 3/24/41
f 199/8/17 70/10/17 107/9/17
f 68/12/31 108/11/31 107/26/31
f 105/11/18 28/13/18 103/26/18
f 106/27/42 68/12/42 70/13/42
f 68/12/31 107/26/31 70/13/31
f 25/12/19 110/27/19 109/14/19
f 106/27/42 70/13/42 104/14/42
f 40/17/17 73/23/17 72/15/17
f 72/28/43 73/18/43 38/29/43
f 37/20/24 38/29/24 73/18/24
f 44/17/17 75/23/17 74/15/17
f 74/28/44 75/18/44 42/29/44
f 41/20/19 42/29/19 75/18/19
f 76/15/17 59/16/17 60/17/17
f 76/28/45 77/18/45 58/29/45
f 57/20/33 58/29/33 77/18/33
f 32/17/17 79/23/17 78/15/17
f 78/28/46 79/18/46 30/29/46
f 29/20/20 30/29/20 79/18/20
f 36/17/17 81/23/17 80/15/17
f 80/28/47 81/18/47 35/29/47
f 33/20/22 35/29/22 81/18/22
f 82/15/17 54/16/17 56/17/17
f 82/28/48 83/18/48 55/29/48
f 53/20/31 55/29/31 83/18/31
f 52/17/17 85/23/17 84/15/17
f 84/28/49 85/18/49 51/29/49
f 49/20/29 51/29/29 85/18/29
f 48/17/17 87/30/17 86/22/17
f 86/28/50 87/18/50 47/29/50
f 45/20/27 47/29/27 87/18/27
f 21/6/16 88/7/16 89/4/16
f 22/5/36 89/4/36 62/24/36
f 111/1/51 89/2/51 88/3/51
f 90/6/14 18/7/14 19/4/14
f 20/24/35 61/25/35 91/5/35
f 91/2/52 114/1/52 90/3/52
f 92/6/12 15/7/12 16/4/12
f 17/24/37 63/25/37 93/5/37
f 93/2/53 115/1/53 92/3/53
f 94/6/10 12/7/10 13/4/10
f 14/24/38 64/25/38 95/5/38
f 95/2/54 117/1/54 94/3/54
f 10/5/39 96/4/39 65/24/39
f 118/1/55 96/2/55 4/3/55
f 97/6/6 7/7/6 8/4/6
f 9/24/40 66/25/40 98/5/40
f 98/2/56 122/1/56 97/3/56
f 100/5/57 5/4/57 6/24/57
f 6/24/57 99/25/57 100/5/57
f 100/2/58 123/1/58 4/3/58
f 101/6/2 1/7/2 2/4/2
f 3/24/41 67/25/41 102/5/41
f 102/2/59 125/1/59 101/3/59
f 26/31/60 103/26/60 69/32/60
f 199/8/17 69/10/17 103/9/17
f 27/33/61 104/14/61 71/34/61
f 199/8/17 104/9/17 70/10/17
f 26/31/60 105/11/60 103/26/60
f 27/33/61 106/27/61 104/14/61
f 108/11/62 69/32/62 107/26/62
f 199/8/17 107/9/17 69/10/17
f 108/11/62 26/31/62 69/32/62
f 110/27/63 71/34/63 109/14/63
f 199/8/17 28/10/17 109/9/17
f 110/27/63 27/33/63 71/34/63
f 89/2/64 111/1/64 134/35/64
f 112/1/65 22/2/65 23/36/65
f 19/2/66 113/1/66 133/35/66
f 114/1/67 91/2/67 61/36/67
f 115/1/68 93/2/68 63/36/68
f 16/2/69 116/1/69 132/35/69
f 117/1/70 95/2/70 64/36/70
f 96/2/71 118/1/71 131/35/71
f 13/2/72 119/1/72 130/35/72
f 120/1/73 10/2/73 11/36/73
f 8/2/74 121/1/74 129/35/74
f 122/1/75 98/2/75 66/36/75
f 123/1/76 100/2/76 99/36/76
f 5/2/77 124/1/77 128/35/77
f 125/1/78 102/2/78 67/36/78
f 2/2/79 126/1/79 127/35/79
f 127/35/80 3/36/80 2/2/80
f 128/35/81 6/36/81 5/2/81
f 129/35/82 9/36/82 8/2/82
f 130/35/83 14/36/83 13/2/83
f 131/35/84 65/36/84 96/2/84
f 132/35/85 17/36/85 16/2/85
f 133/35/86 20/36/86 19/2/86
f 134/35/87 62/36/87 89/2/87
f 135/37/88 137/38/88 136/39/88
f 138/40/89 140/37/89 139/39/89
f 141/40/90 135/37/90 136/39/90
f 142/37/91 144/38/91 143/39/91
f 145/40/92 147/37/92 146/39/92
f 58/29/45 148/41/45 76/28/45
f 149/40/93 142/37/93 143/39/93
f 150/42/94 149/40/94 143/39/94
f 67/36/95 151/35/95 125/1/95
f 152/37/96 154/38/96 153/39/96
f 60/19/34 59/43/34 155/21/34
f 35/29/47 156/41/47 80/28/47
f 157/37/97 159/38/97 158/39/97
f 160/40/98 157/37/98 158/39/98
f 161/42/99 138/40/99 139/39/99
f 162/40/100 152/37/100 153/39/100
f 163/42/101 162/40/101 153/39/101
f 36/19/23 34/43/23 164/21/23
f 165/42/102 160/40/102 158/39/102
f 40/19/25 39/43/25 166/21/25
f 99/36/103 167/35/103 123/1/103
f 140/37/104 168/38/104 139/39/104
f 55/29/48 169/41/48 82/28/48
f 32/19/21 31/43/21 170/21/21
f 172/42/105 171/40/105 173/39/105
f 171/40/106 174/37/106 173/39/106
f 174/37/107 175/38/107 173/39/107
f 38/29/43 176/41/43 72/28/43
f 63/36/108 177/35/108 115/1/108
f 44/19/26 43/43/26 178/21/26
f 42/29/44 179/41/44 74/28/44
f 11/36/109 180/35/109 120/1/109
f 30/29/46 181/41/46 78/28/46
f 23/36/110 182/35/110 112/1/110
f 183/42/111 145/40/111 146/39/111
f 147/37/112 184/38/112 146/39/112
f 61/36/113 185/35/113 114/1/113
f 186/42/114 141/40/114 136/39/114
f 56/19/32 54/43/32 187/21/32
f 189/42/115 188/40/115 190/39/115
f 188/40/116 191/37/116 190/39/116
f 191/37/117 192/38/117 190/39/117
f 52/19/30 50/43/30 193/21/30
f 51/29/49 194/41/49 84/28/49
f 66/36/118 195/35/118 122/1/118
f 48/19/28 46/43/28 196/21/28
f 47/29/50 197/41/50 86/28/50
f 64/36/119 198/35/119 117/1/119
f 199/8/17 71/10/17 104/9/17
f 199/8/17 109/9/17 71/10/17
