# Blender v2.75 (sub 0) OBJ File: 'Empty.blend'
# www.blender.org
mtllib DT_CRATE_V1.mtl
o DT_CRATE_V1
v -0.294821 0.240623 -0.190657
v 0.294341 0.240623 -0.190657
v 0.294341 -0.112779 0.185240
v -0.294821 -0.112779 0.185240
v -0.351856 0.250351 -0.201611
v 0.345831 0.250351 -0.201612
v 0.345831 0.250351 0.196740
v -0.351856 0.250351 0.196740
v 0.293964 0.240567 -0.196079
v 0.293964 -0.226007 -0.196079
v 0.336395 0.240567 0.191207
v 0.336395 -0.226007 0.191207
v -0.336360 0.240581 0.191207
v -0.294350 -0.225482 -0.196079
v -0.336360 -0.225482 0.191207
v -0.336360 0.240581 -0.196079
v -0.294821 0.240623 0.140068
v -0.294821 -0.070402 0.140573
v 0.294341 0.240623 0.140068
v 0.294341 -0.070402 0.140573
v -0.294821 -0.112779 -0.188960
v 0.294341 -0.112779 -0.188960
v 0.294341 -0.070402 -0.144293
v -0.294821 -0.070402 -0.144293
v 0.382736 0.109908 -0.062922
v 0.335149 0.189005 0.116877
v 0.397134 0.140784 0.058949
v -0.384278 0.109908 0.058050
v -0.398676 0.140784 -0.063821
v -0.336692 0.189005 -0.121749
v 0.335150 0.192453 -0.087940
v 0.364223 0.137335 -0.062922
v -0.336692 0.192453 0.083068
v -0.365765 0.137335 0.058050
v 0.294341 0.240623 0.184250
v -0.294821 0.240623 0.184250
v 0.294341 0.240623 -0.146475
v -0.294821 0.240623 -0.146475
v 0.293964 -0.226007 0.191207
v 0.293964 0.240567 0.191207
v 0.336395 -0.226007 -0.196079
v 0.336395 0.240567 -0.196079
v -0.294350 -0.225482 0.191207
v -0.294350 0.240581 0.191207
v -0.336360 -0.225482 -0.196079
v -0.294350 0.240581 -0.196079
v 0.364223 0.137335 0.058949
v 0.335149 0.192453 0.083966
v 0.335149 0.219881 0.102479
v -0.365765 0.137335 -0.063821
v -0.336692 0.192453 -0.088838
v -0.336692 0.219881 -0.107351
v 0.397134 0.140784 -0.062922
v -0.398676 0.140784 0.058050
v -0.336692 0.189005 0.115979
v -0.336692 0.219881 0.101581
v 0.335150 0.189005 -0.120850
v 0.335150 0.219881 -0.106452
v -0.384278 0.109908 -0.063821
v 0.382736 0.109908 0.058949
v -0.303855 0.299836 -0.161923
v -0.303855 0.299836 0.157051
v 0.297830 0.299836 0.157051
v 0.297830 0.299836 -0.161923
vt 0.180447 -0.666500
vt 0.328120 -0.666500
vt 0.328120 -0.333500
vt 0.494784 -0.666500
vt 0.494784 -0.333500
vt 0.494784 -0.000499
vt 0.180447 -0.333500
vt 0.328120 -0.000499
vt 0.013783 -0.999501
vt 0.013783 -0.666500
vt 0.328120 -0.999500
vt 0.494784 -0.999501
vt 0.180447 -0.999500
vt 0.013783 -0.333500
vt 0.180447 -0.000499
vt 0.013783 -0.000499
vt 0.038297 -0.898325
vt 0.936062 -0.898325
vt 0.936062 -0.115988
vt 0.038297 -0.115988
vt 0.943957 -0.115988
vt 0.016588 -0.115988
vt 0.016588 -0.898325
vt 0.943957 -0.898325
vt 0.311633 -0.098742
vt 0.311633 -0.832770
vt 0.791004 -0.832770
vt 0.791004 -0.098742
vt 0.038297 -0.219581
vt 0.936062 -0.219581
vt 0.975226 -0.453787
vt 0.975226 -0.340941
vt 0.009092 -0.340941
vt 0.011653 -0.337872
vt 0.011653 -0.453543
vt 0.974544 -0.453543
vt 0.009092 -0.453787
vt 0.974154 -0.454576
vt 0.974154 -0.346561
vt 0.008020 -0.346561
vt 0.974545 -0.337872
vt 0.008020 -0.454577
vt 0.981454 -0.079756
vt 0.022509 -0.079756
vt 0.022509 -0.231658
vt 0.894265 -0.494211
vt 0.583351 -0.455564
vt 0.583351 -0.983869
vt 0.981454 -0.231658
vt 0.894265 -0.923483
vt 0.894265 -0.933145
vt 0.583351 -0.981454
vt 0.894265 -0.491796
vn 0.906300 -0.422600 0.000000
vn -0.828900 -0.559400 0.000000
vn 0.828900 -0.559400 0.000000
vn -0.906300 -0.422600 0.000000
vn -0.800300 -0.540200 -0.260000
vn 0.546900 -0.255000 -0.797400
vn 0.800400 -0.540200 0.260000
vn -0.546900 -0.255000 0.797400
vn -0.041400 0.394800 -0.917800
vn -0.104200 0.994600 0.000000
vn -0.892200 -0.449200 -0.047100
vn 0.396000 -0.184700 0.899500
vn 0.130700 0.554600 -0.821800
vn 0.041400 0.394800 0.917800
vn 0.104200 0.994600 0.000000
vn 0.892200 -0.449200 0.047100
vn -0.396000 -0.184700 -0.899500
vn -0.130700 0.554600 0.821800
vn -0.047500 0.452800 0.890300
vn 0.047500 0.452800 -0.890300
vn -0.761800 0.273800 0.587200
vn 0.871800 -0.487100 -0.051000
vn -0.328100 0.528500 -0.783000
vn 0.761800 0.273800 -0.587200
vn -0.871800 -0.487100 0.051000
vn 0.328100 0.528500 0.783000
vn -0.874800 0.204700 -0.439100
vn 0.826000 -0.557500 -0.082700
vn 0.874800 0.204700 0.439100
vn -0.826000 -0.557500 0.082700
vn 0.000000 0.002800 1.000000
vn -0.000000 -1.000000 0.000000
vn 0.000000 1.000000 0.000000
vn 1.000000 -0.000000 -0.000000
vn -1.000000 0.000000 0.000000
vn 0.000000 0.007000 1.000000
vn 0.000000 -0.001600 -1.000000
vn -0.000000 -0.004800 -1.000000
vn 0.000000 -0.000000 1.000000
vn 0.000000 -0.000000 -1.000000
vn 0.000000 0.625700 -0.780100
vn -0.717800 0.696300 0.000000
vn 0.000000 0.625700 0.780100
vn 0.717800 0.696300 0.000000
usemtl DT_CRATE_V1_2
s off
f 27/1/1 60/2/1 25/3/1
f 60/2/2 47/4/2 32/5/2
f 59/2/3 50/4/3 34/5/3
f 29/1/4 59/2/4 28/3/4
f 60/2/2 32/5/2 25/3/2
f 25/3/5 32/5/5 31/6/5
f 53/7/6 25/3/6 57/8/6
f 27/1/1 25/3/1 53/7/1
f 59/2/3 34/5/3 28/3/3
f 28/3/7 34/5/7 33/6/7
f 54/7/8 28/3/8 55/8/8
f 29/1/4 28/3/4 54/7/4
f 48/9/9 27/1/9 47/10/9
f 47/10/10 27/1/10 53/7/10
f 26/11/11 48/12/11 47/4/11
f 49/13/12 60/2/12 27/1/12
f 48/9/13 49/13/13 27/1/13
f 51/9/14 29/1/14 50/10/14
f 50/10/15 29/1/15 54/7/15
f 30/11/16 51/12/16 50/4/16
f 52/13/17 59/2/17 29/1/17
f 51/9/18 52/13/18 29/1/18
f 47/10/10 53/7/10 32/14/10
f 32/14/19 53/7/19 58/15/19
f 50/10/15 54/7/15 34/14/15
f 34/14/20 54/7/20 56/15/20
f 54/7/21 55/8/21 56/15/21
f 28/3/22 33/6/22 55/8/22
f 34/14/23 56/15/23 33/16/23
f 53/7/24 57/8/24 58/15/24
f 25/3/25 31/6/25 57/8/25
f 32/14/26 58/15/26 31/16/26
f 52/13/27 30/11/27 59/2/27
f 30/11/28 50/4/28 59/2/28
f 49/13/29 26/11/29 60/2/29
f 26/11/30 47/4/30 60/2/30
usemtl DT_CRATE_V1_1
f 4/17/31 3/18/31 35/19/31
f 21/19/32 22/20/32 3/17/32
f 35/19/31 36/20/31 4/17/31
f 3/17/32 4/18/32 21/19/32
f 5/21/32 6/22/32 7/23/32
f 62/23/33 63/24/33 64/21/33
f 7/23/32 8/24/32 5/21/32
f 64/21/33 61/22/33 62/23/33
f 42/25/34 11/26/34 12/27/34
f 40/25/35 9/26/35 10/27/35
f 12/27/34 41/28/34 42/25/34
f 10/27/35 39/28/35 40/25/35
f 45/27/35 15/28/35 13/25/35
f 43/27/34 14/28/34 46/25/34
f 13/25/35 16/26/35 45/27/35
f 46/25/34 44/26/34 43/27/34
f 37/19/36 38/20/36 24/17/36
f 20/17/37 18/18/37 17/19/37
f 24/17/36 23/18/36 37/19/36
f 17/19/37 19/20/37 20/17/37
f 22/17/38 21/18/38 1/19/38
f 1/19/38 2/20/38 22/17/38
f 18/17/33 20/18/33 23/19/33
f 23/19/33 24/20/33 18/17/33
f 36/29/33 35/30/33 19/19/33
f 19/19/33 17/20/33 36/29/33
f 38/29/33 37/30/33 2/19/33
f 2/19/33 1/20/33 38/29/33
f 39/31/39 12/32/39 11/33/39
f 9/34/33 40/35/33 11/36/33
f 11/33/39 40/37/39 39/31/39
f 41/38/40 10/39/40 9/40/40
f 11/36/33 42/41/33 9/34/33
f 9/40/40 42/42/40 41/38/40
f 15/31/39 43/32/39 44/33/39
f 16/34/33 13/35/33 44/36/33
f 44/33/39 13/37/39 15/31/39
f 14/38/40 45/39/40 16/40/40
f 44/36/33 46/41/33 16/34/33
f 16/40/40 46/42/40 14/38/40
f 6/43/41 5/44/41 61/45/41
f 61/46/42 5/47/42 8/48/42
f 62/49/43 8/43/43 7/44/43
f 8/48/42 62/50/42 61/46/42
f 7/44/43 63/45/43 62/49/43
f 63/51/44 7/52/44 6/47/44
f 61/45/41 64/49/41 6/43/41
f 6/47/44 64/53/44 63/51/44
