# Blender v2.75 (sub 0) OBJ File: 'Empty.blend'
# www.blender.org
mtllib DT_FIREPLACE_V2.mtl
o DT_FIREPLACE_V2
v 0.500969 0.693267 -0.750120
v -0.509670 0.693267 0.749880
v 0.500969 0.443267 0.749880
v -0.509670 0.443267 -0.750120
v -0.509670 -0.197185 -0.750121
v 0.600622 -0.449351 -0.750121
v 0.600622 -0.449351 0.749879
v 0.600622 -0.197185 -0.750121
v -0.509670 -0.197185 0.749879
v 0.600622 -0.197185 0.749879
v -0.509670 0.693267 -0.750120
v 0.500969 0.693267 0.749880
v 0.500969 0.443267 -0.750120
v -0.509670 0.443267 0.749880
v 0.036835 -0.082489 -0.071105
v -0.023858 -0.202567 0.198062
v 0.056642 -0.197919 0.238918
v -0.095186 -0.028657 -0.001075
v 0.149470 -0.193651 -0.060012
v 0.148705 -0.196169 -0.150367
v 0.095861 -0.028657 0.067976
v -0.112879 -0.193651 -0.072587
v -0.178979 -0.196169 -0.010979
v 0.035602 -0.206743 -0.217877
v 0.018241 -0.075930 0.052567
v -0.050802 -0.205788 -0.244420
v -0.199269 -0.113464 -0.015548
v -0.161958 -0.133406 -0.087678
v 0.165781 -0.113464 -0.162240
v 0.193754 -0.133406 -0.086002
v 0.059289 -0.112889 0.244872
v -0.021252 -0.134332 0.238103
v -0.056991 -0.121199 -0.253311
v 0.024131 -0.140480 -0.259635
v 0.086650 -0.045842 -0.026035
v 0.075337 -0.095854 -0.023625
v 0.022986 -0.048389 0.002635
v -0.073173 -0.000393 -0.068695
v -0.073547 -0.050064 -0.055746
v -0.019125 -0.007880 -0.025058
v -0.039630 -0.042513 0.015282
v -0.027393 -0.092314 0.013013
v 0.018241 -0.044921 -0.023791
v 0.031135 -0.000393 0.097429
v 0.040934 -0.050064 0.088957
v 0.026793 -0.007880 0.028100
v -0.509420 1.648270 -0.207844
v 0.405931 0.695731 0.679346
v -0.509420 1.648270 0.199885
v -0.286160 0.442534 0.406935
v 0.310220 -0.196328 0.406752
v -0.286160 -0.196328 0.406935
v 0.310220 0.444508 0.406752
v -0.509556 0.695731 0.679346
v 0.405931 0.695731 -0.691372
v -0.509556 0.695731 -0.691372
v 0.310220 0.444508 0.615494
v 0.310220 -0.196328 0.615494
v -0.509570 0.444508 0.615489
v -0.509570 -0.196328 0.615489
v -0.286160 0.444508 -0.412708
v -0.286160 -0.196328 -0.412708
v 0.310220 0.444508 -0.412658
v 0.310220 -0.196328 -0.412658
v 0.310220 0.444508 -0.619547
v 0.310220 -0.196328 -0.619547
v -0.509570 0.444508 -0.619452
v -0.509570 -0.196328 -0.619452
v -0.509670 -0.449351 -0.750121
v -0.509670 -0.449351 0.749879
v 0.000000 0.000000 0.000000
vt 0.284326 -0.541070
vt 0.284326 -0.693229
vt 0.476874 -0.693229
vt 0.641943 -0.106815
vt 0.772503 -0.106815
vt 0.772503 -0.006712
vt 0.476874 -0.541070
vt 0.641943 -0.006712
vt 0.890985 -0.007309
vt 0.712922 -0.007309
vt 0.712922 -0.190759
vt 0.005642 -0.842755
vt 0.465446 -0.842755
vt 0.465446 -0.712801
vt 0.005642 -0.712801
vt 0.890985 -0.190759
vt 0.008432 -0.821791
vt 0.460681 -0.821791
vt 0.460681 -0.774828
vt 0.008432 -0.774828
vt 0.125753 -0.013144
vt 0.074729 -0.013144
vt 0.014730 -0.167487
vt 0.824555 -0.116447
vt 0.892493 -0.116447
vt 0.892493 -0.031671
vt 0.824555 -0.031384
vt 0.186261 -0.167487
vt 0.014755 -0.013144
vt 0.186236 -0.013144
vt 0.114946 -0.990043
vt 0.156432 -0.766327
vt 0.114946 -0.766327
vt 0.156432 -0.990043
vt 0.360400 -0.990043
vt 0.360400 -0.766327
vt 0.840315 -0.116447
vt 0.902254 -0.031384
vt 0.840315 -0.031671
vt 0.902254 -0.116447
vt 0.917884 -0.031384
vt 0.849945 -0.031384
vt 0.849945 -0.116447
vt 0.917884 -0.116447
vt 0.319283 -0.766327
vt 0.319283 -0.990043
vt 0.972178 -0.938130
vt 0.972178 -0.578778
vt 0.612825 -0.578777
vt 0.612825 -0.938130
vt 0.972178 -0.740063
vt 0.769417 -0.578778
vt 0.769417 -0.740063
vt 0.741722 -0.938130
vt 0.741722 -0.832401
vt 0.612825 -0.832401
vn 0.000000 -1.000000 0.000000
vn 0.000000 1.000000 0.000000
vn 1.000000 0.000000 0.000000
vn 0.000000 0.000000 -1.000000
vn -0.000000 0.000000 1.000000
vn 0.721000 0.692900 -0.000000
vn -0.000300 0.000000 -1.000000
vn 0.000000 0.449600 0.893200
vn 0.000000 0.452600 -0.891700
vn -0.000100 0.000000 1.000000
vn -0.000100 0.000000 -1.000000
vn 0.224800 -0.913500 -0.339100
vn -0.267900 0.941200 0.205900
vn -0.540800 -0.840700 0.028000
vn 0.448500 0.891100 0.068500
vn 0.386000 -0.840700 0.379800
vn -0.252500 0.891100 -0.377000
vn -0.135900 -0.901900 0.409900
vn 0.200200 0.936700 -0.287300
vn -0.663500 -0.202600 -0.720200
vn -0.418700 -0.052600 0.906600
vn 0.462400 0.158200 -0.872400
vn -0.734300 -0.648500 -0.200600
vn 0.979300 -0.202600 -0.002700
vn -0.385500 -0.052600 -0.921200
vn 0.330800 0.158200 0.930300
vn 0.644000 -0.648500 -0.405900
vn -0.449800 -0.048400 0.891800
vn 0.995100 -0.037400 0.091300
vn -0.978000 0.132100 -0.161600
vn 0.062700 -0.506900 0.859700
vn 0.291900 -0.078800 -0.953200
vn -0.994500 -0.064000 0.083000
vn 0.986800 0.161500 -0.014800
vn -0.193500 -0.546800 -0.814600
vn 0.975100 -0.221400 -0.016600
vn -0.982800 0.000100 -0.184600
vn 0.145400 -0.915300 -0.375500
vn 0.578300 0.776400 -0.250400
vn 0.125500 0.924100 0.360900
vn -0.411800 0.049300 -0.910000
vn -0.498800 -0.215100 -0.839600
vn 0.292600 0.032100 0.955700
vn -0.536200 -0.836200 0.115200
vn -0.366200 0.808100 -0.461400
vn 0.399600 0.847400 -0.349600
vn -0.597200 0.206500 0.775100
vn -0.950700 -0.242400 0.193300
vn 0.999400 0.030800 0.012500
vn -0.051400 -0.900300 0.432200
vn -0.550100 0.773700 0.314200
vn -0.213200 0.903600 -0.371500
vn 0.559600 0.100000 0.822700
vn -0.282000 -0.215100 0.935000
vn 0.507000 0.032100 -0.861400
vn 0.447200 -0.836200 0.317500
vn -0.092700 0.808100 0.581700
vn -0.527700 0.847400 -0.058500
vn 0.974900 0.206500 -0.083400
usemtl DT_FIREPLACE_V2_1
s off
f 13/1/1 3/2/1 14/3/1
f 2/4/2 12/5/2 1/6/2
f 14/3/1 4/7/1 13/1/1
f 1/6/2 11/8/2 2/4/2
f 8/9/2 5/10/2 9/11/2
f 7/12/3 6/13/3 8/14/3
f 5/14/4 8/15/4 6/12/4
f 9/11/2 10/16/2 8/9/2
f 10/14/5 9/15/5 70/12/5
f 8/14/3 10/15/3 7/12/3
f 13/17/4 4/18/4 11/19/4
f 14/17/5 3/18/5 12/19/5
f 1/19/3 12/20/3 3/17/3
f 3/17/3 13/18/3 1/19/3
f 11/19/4 1/20/4 13/17/4
f 12/19/5 2/20/5 14/17/5
f 47/21/6 49/22/6 48/23/6
f 51/24/7 52/25/7 50/26/7
f 51/24/7 50/26/7 53/27/7
f 54/23/8 48/28/8 49/29/8
f 48/23/6 55/28/6 47/21/6
f 55/23/9 56/28/9 47/30/9
f 58/31/3 53/32/3 57/33/3
f 58/31/3 51/34/3 53/32/3
f 58/35/5 57/36/5 59/33/5
f 58/35/5 59/33/5 60/31/5
f 52/37/3 61/38/3 50/39/3
f 52/37/3 62/40/3 61/38/3
f 63/41/10 61/42/10 62/43/10
f 62/43/10 64/44/10 63/41/10
f 65/36/3 63/45/3 64/46/3
f 64/46/3 66/35/3 65/36/3
f 67/36/11 65/33/11 66/31/11
f 66/31/11 68/35/11 67/36/11
f 6/12/4 69/13/4 5/14/4
f 70/12/5 7/13/5 10/14/5
usemtl DT_FIREPLACE_V2_2
f 36/47/12 17/48/12 16/49/12
f 32/48/13 31/49/13 35/50/13
f 39/47/14 20/48/14 19/49/14
f 30/48/15 29/49/15 38/50/15
f 45/47/16 23/48/16 22/49/16
f 28/48/17 27/49/17 44/50/17
f 42/47/18 26/48/18 24/49/18
f 34/48/19 33/49/19 41/50/19
f 22/51/20 23/48/20 27/52/20
f 44/50/21 27/49/21 23/48/21
f 21/47/22 22/48/22 28/49/22
f 27/52/23 28/53/23 22/51/23
f 19/51/24 20/48/24 29/52/24
f 38/50/25 29/49/25 20/48/25
f 18/47/26 19/48/26 30/49/26
f 29/52/27 30/53/27 19/51/27
f 16/51/28 17/48/28 31/52/28
f 35/50/29 31/49/29 17/48/29
f 15/47/30 16/48/30 32/49/30
f 31/52/31 32/53/31 16/51/31
f 24/51/32 26/48/32 33/52/32
f 41/50/33 33/49/33 26/48/33
f 25/47/34 24/48/34 34/49/34
f 33/52/35 34/53/35 24/51/35
f 17/48/36 36/47/36 35/50/36
f 32/49/37 37/50/37 15/47/37
f 16/49/38 15/50/38 36/47/38
f 36/54/39 15/55/39 37/56/39
f 35/50/40 37/47/40 32/48/40
f 37/56/41 35/50/41 36/54/41
f 20/48/42 39/47/42 38/50/42
f 30/49/43 40/50/43 18/47/43
f 19/49/44 18/50/44 39/47/44
f 39/54/45 18/55/45 40/56/45
f 38/50/46 40/47/46 30/48/46
f 40/56/47 38/50/47 39/54/47
f 26/48/48 42/47/48 41/50/48
f 34/49/49 43/50/49 25/47/49
f 24/49/50 25/50/50 42/47/50
f 42/54/51 25/55/51 43/56/51
f 41/50/52 43/47/52 34/48/52
f 43/56/53 41/50/53 42/54/53
f 23/48/54 45/47/54 44/50/54
f 28/49/55 46/50/55 21/47/55
f 22/49/56 21/50/56 45/47/56
f 45/54/57 21/55/57 46/56/57
f 44/50/58 46/47/58 28/48/58
f 46/56/59 44/50/59 45/54/59
