# Blender v2.75 (sub 0) OBJ File: 'Empty.blend'
# www.blender.org
mtllib DT_TABLE_V2.mtl
o DT_TABLE_V2
v -2.072498 0.440695 0.371801
v 2.016309 0.365695 0.358594
v 1.992417 0.365695 -0.049121
v 2.014824 0.440695 -0.445290
v -2.032878 0.365695 -0.028771
v -2.061964 0.365695 -0.432083
v -2.072498 0.365695 -0.009502
v 2.056419 0.365695 -0.068390
v -0.070141 0.368115 0.330711
v -0.153946 0.368115 -0.404630
v -0.070141 0.293115 -0.404630
v 1.880378 0.368115 -0.404630
v 1.796573 0.368115 0.330711
v 1.880378 0.293115 0.330711
v -1.898937 0.368115 0.330711
v -1.898937 0.368115 -0.404630
v -1.815132 0.293115 -0.404630
v -1.815132 0.293115 0.330711
v -0.024542 -0.299338 0.423401
v -0.126609 0.365221 0.321254
v -0.041815 0.366350 0.247393
v -1.951484 -0.299338 0.351036
v -1.849418 0.365221 0.247421
v -1.934211 0.366350 0.321282
v -1.951484 -0.299338 -0.500692
v -1.849418 0.365221 -0.398545
v -1.934211 0.366350 -0.324684
v 1.744025 -0.299338 0.351037
v 1.846092 0.365221 0.247421
v 1.761299 0.366350 0.321282
v 1.744025 -0.299338 -0.500693
v 1.846092 0.365221 -0.398545
v 1.761299 0.366350 -0.324684
v -0.206494 -0.299338 -0.500692
v -0.104426 0.365221 -0.398545
v -0.189219 0.366350 -0.324684
v -0.206494 -0.299338 0.351036
v -0.104426 0.365221 0.247421
v -0.189219 0.366350 0.321282
v -1.769535 -0.299338 0.423401
v -1.871601 0.365221 0.321253
v -1.786808 0.366350 0.247393
v 1.925588 -0.299338 -0.424690
v 1.823522 0.365221 -0.324464
v 1.908315 0.366350 -0.398324
v -0.024930 -0.299338 -0.424690
v -0.126996 0.365221 -0.324464
v -0.042203 0.366350 -0.398325
v -1.769921 -0.299338 -0.424690
v -1.871987 0.365221 -0.324464
v -1.787195 0.366350 -0.398325
v 1.925977 -0.299338 0.423401
v 1.823910 0.365221 0.321254
v 1.908702 0.366350 0.247393
v -2.036278 -0.299330 0.424897
v -2.036278 -0.299330 -0.426832
v 0.059864 -0.299330 -0.498551
v 0.060252 -0.299330 0.349540
v -1.685127 -0.299330 -0.498551
v -1.684741 -0.299330 0.349540
v 2.010381 -0.299330 -0.498551
v 1.659232 -0.299330 -0.426832
v 1.659232 -0.299330 0.424897
v -0.291286 -0.299330 -0.426832
v -0.291286 -0.299330 0.424897
v 2.010769 -0.299330 0.349540
v -0.153946 0.368115 0.330711
v 1.796573 0.368115 -0.404629
v -1.815132 0.368115 0.330711
v 1.880378 0.368115 0.330711
v -0.070141 0.368115 -0.404630
v -0.070141 0.293115 0.330711
v -0.153946 0.293115 -0.404630
v -1.815132 0.368115 -0.404630
v -1.898937 0.293115 -0.404630
v 1.880378 0.293115 -0.404630
v 1.796573 0.293115 -0.404629
v -0.153946 0.293115 0.330711
v -1.898937 0.293115 0.330711
v 1.796573 0.293115 0.330711
v -2.032878 0.440695 -0.028771
v -1.953746 -0.299401 0.424897
v -0.208755 -0.299401 0.424897
v 1.741764 -0.299401 0.424897
v -0.022668 -0.299401 -0.498551
v -1.767660 -0.299401 -0.498551
v 1.927850 -0.299401 -0.498551
v -2.034016 -0.299267 0.351036
v -0.289025 -0.299267 0.351036
v -0.106688 0.365180 0.321282
v -1.851680 0.365180 0.321282
v 1.843830 0.365180 0.321282
v 1.661494 -0.299267 0.351037
v 0.057603 -0.299267 -0.424690
v -1.687389 -0.299267 -0.424690
v 2.008120 -0.299267 -0.424690
v -0.124734 0.365180 -0.398325
v -1.869726 0.365180 -0.398325
v 1.825784 0.365180 -0.398325
v -0.186958 0.366390 0.247421
v -1.931949 0.366390 0.247421
v 1.763561 0.366390 0.247421
v -1.789456 0.366390 -0.324464
v -0.044465 0.366390 -0.324464
v 1.906054 0.366390 -0.324464
v -0.289025 -0.299267 -0.500693
v -0.186958 0.366390 -0.398545
v 2.008508 -0.299267 0.423401
v 1.906441 0.366390 0.321254
v 0.057990 -0.299267 0.423401
v -0.044077 0.366390 0.321254
v -2.034016 -0.299267 -0.500693
v -1.931949 0.366390 -0.398545
v -1.687003 -0.299267 0.423401
v -1.789070 0.366390 0.321253
v 1.661494 -0.299267 -0.500693
v 1.763561 0.366390 -0.398545
v 1.826171 0.365180 0.247393
v 1.843830 0.365180 -0.324684
v -0.124347 0.365180 0.247393
v -1.869340 0.365180 0.247393
v -0.106688 0.365180 -0.324684
v -1.851680 0.365180 -0.324684
v 1.928238 -0.299401 0.349540
v 1.741764 -0.299401 -0.426832
v -0.208755 -0.299401 -0.426832
v -0.022281 -0.299401 0.349540
v -1.767274 -0.299401 0.349540
v -1.953746 -0.299401 -0.426832
v 2.056419 0.440695 -0.085795
v -2.048684 0.440695 0.012556
v 1.968571 0.440695 -0.049121
v 1.990365 0.365695 -0.414475
v -2.061964 0.440695 -0.404500
v 1.983613 0.440695 0.348857
v -2.013467 0.365695 0.354192
vt 0.583351 -0.834111
vt 0.894265 -0.834111
vt 0.894265 -0.523197
vt 0.360339 -0.375174
vt 0.671253 -0.375174
vt 0.671253 -0.064260
vt 0.360339 -0.064260
vt 0.583351 -0.523197
vt 1.853373 -0.748566
vt 1.853373 -0.381688
vt -0.865198 -0.381688
vt -0.865198 -0.748566
vt 0.677527 -0.748566
vt 0.677527 -0.381688
vt 0.310648 -0.381688
vt 0.310648 -0.748566
vt 1.853373 -0.801798
vt -0.865198 -0.801798
vn 0.000000 0.000000 1.000000
vn 0.000000 0.000000 -1.000000
vn 0.000000 -1.000000 -0.000000
vn 0.000000 1.000000 -0.000000
vn 0.002100 -0.151400 -0.988500
vn -0.002100 0.151400 0.988500
vn 0.002200 0.153500 0.988100
vn -0.002200 -0.153500 -0.988100
vn -0.002100 -0.151400 0.988500
vn 0.002100 0.151400 -0.988500
vn 0.002200 0.153500 0.988200
vn -0.002100 0.148600 -0.988900
vn 0.002100 -0.148600 0.988900
vn 0.000100 0.154000 0.988100
vn -0.000100 -0.154000 -0.988100
vn -0.000100 -0.151900 0.988400
vn 0.000100 0.151900 -0.988400
vn -0.000100 0.149100 -0.988800
vn 0.000100 -0.149100 0.988800
vn 0.000100 -0.151900 -0.988400
vn -0.000100 0.151900 0.988400
vn 1.000000 0.000000 0.000000
vn -1.000000 0.000000 0.000000
vn -0.997400 0.000000 0.071900
vn 0.013900 -0.000000 0.999900
vn 0.988700 -0.147100 0.030200
vn 0.988700 -0.147100 0.030100
vn -0.988600 -0.147300 -0.030100
vn -0.988600 -0.147300 -0.030200
vn -0.988700 0.146900 -0.030200
vn -0.988700 0.146900 -0.030100
vn 0.988700 0.147100 0.030100
vn 0.988700 0.147000 0.030200
vn -0.987300 0.156000 -0.030100
vn 0.987300 0.156000 0.030100
vn 0.987300 0.156000 0.030200
vn -0.987300 0.156000 -0.030200
vn -0.987300 -0.156300 -0.030100
vn 0.987300 -0.156300 0.030100
vn -0.987300 -0.156200 -0.030100
vn 0.987300 -0.156200 0.030100
vn 0.009400 0.226000 0.974100
vn 0.993000 -0.026700 -0.114900
vn -0.009300 0.284900 -0.958500
vn -0.945800 0.318700 -0.062700
vn -0.015400 -0.004900 -0.999900
vn 0.951500 0.302500 -0.055800
vn -0.009300 -0.377400 -0.926000
vn 0.912800 -0.369300 -0.174200
vn 0.004100 0.345200 -0.938500
vn -0.996600 -0.028400 0.077100
vn -0.001100 0.128300 0.991700
vn 0.917800 0.395600 -0.034700
vn -0.765300 -0.631500 0.124200
vn 0.005500 -0.224400 0.974500
usemtl DT_TABLE_V2_2
s off
f 79/1/1 18/2/1 69/3/1
f 80/4/1 14/5/1 70/6/1
f 10/6/2 71/7/2 11/4/2
f 78/1/1 72/2/1 9/3/1
f 11/4/2 73/5/2 10/6/2
f 16/6/2 74/7/2 17/4/2
f 17/4/2 75/5/2 16/6/2
f 68/3/2 12/8/2 76/1/2
f 76/1/2 77/2/2 68/3/2
f 9/3/1 67/8/1 78/1/1
f 69/3/1 15/8/1 79/1/1
f 70/6/1 13/7/1 80/4/1
usemtl DT_TABLE_V2_1
f 3/9/3 2/10/3 136/11/3
f 1/10/4 135/11/4 132/12/4
f 5/11/3 6/12/3 133/9/3
f 4/12/4 134/9/4 81/10/4
f 136/11/3 7/12/3 3/9/3
f 132/12/4 131/9/4 1/10/4
f 133/9/3 8/10/3 5/11/3
f 81/10/4 130/11/4 4/12/4
f 73/13/3 11/14/3 72/15/3
f 9/14/4 71/15/4 10/16/4
f 14/15/3 80/16/3 77/13/3
f 68/16/4 13/13/4 70/14/4
f 75/13/3 17/14/3 18/15/3
f 69/14/4 74/15/4 16/16/4
f 18/15/3 79/16/3 75/13/3
f 16/16/4 15/13/4 69/14/4
f 120/13/5 21/14/5 58/15/5
f 110/14/6 111/15/6 20/16/6
f 91/13/7 24/14/7 55/15/7
f 88/14/8 101/15/8 23/16/8
f 123/13/9 27/14/9 56/15/9
f 112/14/10 113/15/10 26/16/10
f 92/13/11 30/14/11 63/15/11
f 93/14/8 102/15/8 29/16/8
f 119/13/9 33/14/9 62/15/9
f 116/14/10 117/15/10 32/16/10
f 122/13/9 36/14/9 64/15/9
f 106/14/10 107/15/10 35/16/10
f 90/13/11 39/14/11 65/15/11
f 89/14/8 100/15/8 38/16/8
f 121/13/5 42/14/5 60/15/5
f 114/14/6 115/15/6 41/16/6
f 99/13/12 45/14/12 61/15/12
f 96/14/13 105/15/13 44/16/13
f 97/13/12 48/14/12 57/15/12
f 94/14/13 104/15/13 47/16/13
f 98/13/12 51/14/12 59/15/12
f 95/14/13 103/15/13 50/16/13
f 118/13/5 54/14/5 66/15/5
f 108/14/6 109/15/6 53/16/6
f 55/15/14 82/16/14 91/13/14
f 23/16/15 22/13/15 88/14/15
f 56/15/16 129/16/16 123/13/16
f 26/16/17 25/13/17 112/14/17
f 57/15/18 85/16/18 97/13/18
f 47/16/19 46/13/19 94/14/19
f 58/15/20 127/16/20 120/13/20
f 20/16/21 19/13/21 110/14/21
f 59/15/18 86/16/18 98/13/18
f 50/16/19 49/13/19 95/14/19
f 60/15/20 128/16/20 121/13/20
f 41/16/21 40/13/21 114/14/21
f 61/15/18 87/16/18 99/13/18
f 44/16/19 43/13/19 96/14/19
f 62/15/16 125/16/16 119/13/16
f 32/16/17 31/13/17 116/14/17
f 63/15/14 84/16/14 92/13/14
f 29/16/15 28/13/15 93/14/15
f 64/15/16 126/16/16 122/13/16
f 35/16/17 34/13/17 106/14/17
f 65/15/14 83/16/14 90/13/14
f 38/16/15 37/13/15 89/14/15
f 66/15/20 124/16/20 118/13/20
f 53/16/21 52/13/21 108/14/21
f 10/16/4 67/13/4 9/14/4
f 72/15/3 78/16/3 73/13/3
f 70/14/4 12/15/4 68/16/4
f 77/13/3 76/14/3 14/15/3
f 74/14/22 69/15/22 18/16/22
f 12/14/22 70/15/22 14/16/22
f 72/16/22 11/13/22 71/14/22
f 71/14/22 9/15/22 72/16/22
f 67/14/23 10/15/23 73/16/23
f 18/16/22 17/13/22 74/14/22
f 15/14/23 16/15/23 75/16/23
f 14/16/22 76/13/22 12/14/22
f 13/14/23 68/15/23 77/16/23
f 73/16/23 78/13/23 67/14/23
f 75/16/23 79/13/23 15/14/23
f 77/16/23 80/13/23 13/14/23
f 6/16/24 5/13/24 81/14/24
f 130/17/25 81/18/25 5/12/25
f 91/16/26 82/13/26 22/14/26
f 90/16/27 83/13/27 37/14/27
f 92/16/27 84/13/27 28/14/27
f 97/16/28 85/13/28 46/14/28
f 98/16/28 86/13/28 49/14/28
f 99/16/29 87/13/29 43/14/29
f 101/14/30 88/15/30 55/16/30
f 100/14/31 89/15/31 65/16/31
f 37/14/26 38/15/26 90/16/26
f 22/14/26 23/15/26 91/16/26
f 28/14/26 29/15/26 92/16/26
f 102/14/30 93/15/30 63/16/30
f 104/14/32 94/15/32 57/16/32
f 103/14/32 95/15/32 59/16/32
f 105/14/32 96/15/32 61/16/32
f 46/14/29 47/15/29 97/16/29
f 49/14/29 50/15/29 98/16/29
f 43/14/29 44/15/29 99/16/29
f 65/16/30 39/13/30 100/14/30
f 55/16/30 24/13/30 101/14/30
f 63/16/30 30/13/30 102/14/30
f 59/16/33 51/13/33 103/14/33
f 57/16/33 48/13/33 104/14/33
f 61/16/33 45/13/33 105/14/33
f 107/14/34 106/15/34 64/16/34
f 64/16/34 36/13/34 107/14/34
f 109/14/35 108/15/35 66/16/35
f 66/16/35 54/13/35 109/14/35
f 111/14/35 110/15/35 58/16/35
f 58/16/36 21/13/36 111/14/36
f 113/14/34 112/15/34 56/16/34
f 56/16/37 27/13/37 113/14/37
f 115/14/35 114/15/35 60/16/35
f 60/16/36 42/13/36 115/14/36
f 117/14/34 116/15/34 62/16/34
f 62/16/37 33/13/37 117/14/37
f 52/14/38 53/15/38 118/16/38
f 31/14/39 32/15/39 119/16/39
f 19/14/38 20/15/38 120/16/38
f 40/14/38 41/15/38 121/16/38
f 34/14/39 35/15/39 122/16/39
f 25/14/39 26/15/39 123/16/39
f 118/16/40 124/13/40 52/14/40
f 119/16/41 125/13/41 31/14/41
f 122/16/41 126/13/41 34/14/41
f 120/16/40 127/13/40 19/14/40
f 121/16/40 128/13/40 40/14/40
f 123/16/39 129/13/39 25/14/39
f 5/12/42 8/9/42 130/17/42
f 4/14/43 130/15/43 8/16/43
f 3/12/44 7/9/44 131/17/44
f 1/14/45 131/15/45 7/16/45
f 131/17/46 132/18/46 3/12/46
f 2/16/47 3/13/47 132/14/47
f 134/17/48 4/18/48 133/12/48
f 8/16/49 133/13/49 4/14/49
f 133/12/50 6/9/50 134/17/50
f 81/14/51 134/15/51 6/16/51
f 136/12/52 2/9/52 135/17/52
f 132/14/53 135/15/53 2/16/53
f 7/16/54 136/13/54 1/14/54
f 135/17/55 1/18/55 136/12/55
