# Blender v2.75 (sub 0) OBJ File: 'Empty.blend'
# www.blender.org
mtllib EVT_ADDON_MAYA_PARTICEL_GATEDUMMY.mtl
o EVT_ADDON_MAYA_PARTICEL_GATEDUMMY
v -2.264052 -0.928752 0.101162
v -0.985927 -0.827258 0.099853
v -2.418740 -0.880349 0.100049
v -1.113974 -0.405439 0.000107
v -1.185459 0.000010 0.000127
v -1.209365 0.440191 -0.000127
v -0.908115 0.762007 0.000127
v -0.107177 1.173284 0.001240
v 0.327666 2.425100 0.101162
v -0.223506 1.267456 0.099853
v 0.446963 2.534905 0.100049
v 0.205869 1.167456 0.000107
v 0.592744 1.026646 0.000127
v 0.985947 0.827278 -0.000127
v 1.113994 0.405459 0.000127
v 1.113994 -0.405439 0.000107
v -0.962490 -0.679448 0.001240
v -0.592724 -1.026626 0.000127
v -0.223506 -1.267439 -0.000127
v 0.205869 -1.167439 0.000127
v 0.962510 -0.679450 0.001240
v 2.264072 -0.928752 0.101162
v 0.985947 -0.827258 0.099853
v 2.418760 -0.880349 0.100049
v 0.052744 0.867410 -0.145225
v 0.137276 0.778289 -0.185713
v -0.777568 -0.388047 -0.145225
v -0.742646 -0.270283 -0.185713
v 0.777588 -0.388047 -0.145225
v 0.742666 -0.270283 -0.185713
v -1.165459 -0.528679 0.101045
v 1.165479 -0.528679 0.101045
v 0.124854 1.273684 0.101045
v -0.205849 1.167456 0.000107
v -0.908115 -0.761987 0.000107
v 0.908135 -0.761987 0.000107
v -0.124834 1.273684 0.101045
v 1.040635 -0.744975 0.101045
v -1.040615 -0.744975 0.101045
v -1.209365 -0.440168 0.099853
v 1.209385 -0.440168 0.099853
v 0.223526 1.267456 0.099853
v 1.069697 -0.493806 0.001240
v -1.069677 -0.493803 0.001240
v 0.107198 1.173284 0.001240
v -1.971787 -1.654526 0.100049
v -1.936318 -1.496318 0.101162
v 1.971807 -1.654526 0.100049
v 1.936338 -1.496318 0.101162
v -0.446943 2.534905 0.100049
v -0.327646 2.425100 0.101162
v -0.137256 0.778289 -0.185713
v 0.605401 -0.507976 -0.185713
v -0.605381 -0.507976 -0.185713
v 0.724854 -0.479333 -0.145225
v -0.052724 0.867410 -0.145225
v -0.724834 -0.479333 -0.145225
v 0.643526 -1.114565 -0.000127
v 1.287041 0.000010 -0.000127
v -0.985927 0.827278 -0.000127
v -0.643506 1.114585 -0.000127
v -1.287021 0.000010 -0.000127
v -0.643506 -1.114565 -0.000127
v 0.643526 1.114583 -0.000127
v 0.223526 -1.267439 -0.000127
v 1.209385 0.440188 -0.000127
v 1.185479 0.000010 0.000127
v 0.592744 -1.026626 0.000127
v -0.592724 1.026646 0.000127
v -0.205849 -1.167439 0.000127
v -1.113974 0.405462 0.000127
v 0.908135 0.762007 0.000127
v -0.985927 -0.827258 -0.000127
v -0.223506 1.267459 -0.000127
v 1.209385 -0.440171 -0.000127
v 0.223526 1.267456 -0.000127
v -1.209365 -0.440171 -0.000127
v 0.985947 -0.827258 -0.000127
vt 0.000618 -0.000000
vt 0.805182 -0.077703
vt 0.889501 -0.000000
vt 1.001916 0.000106
vt 0.504331 -0.000054
vt 0.504398 -0.079211
vt 0.000500 -0.080019
vt 0.501999 -0.081626
vt 0.501916 -0.002196
vt 0.498426 -0.001359
vt 0.997916 -0.001800
vt 0.997984 -0.084378
vt 0.000501 -0.077703
vt 1.002377 -0.081626
vt 0.002329 -0.000499
vt 0.372552 -0.000000
vt 0.090850 -0.000000
vt 0.090759 -0.078261
vt 0.312348 -0.078261
vt 0.313591 -0.077844
vt 0.946970 -0.000648
vt 0.053030 -0.000654
vt 0.172318 -0.079061
vt 0.827685 -0.079057
vt 0.123638 -0.001867
vt 0.398101 -0.001816
vt 0.208181 -0.077863
vt 0.000500 -0.079210
vt 0.503805 -0.001590
vt -0.001646 -0.000868
vt -0.000033 -0.082317
vt 0.498182 -0.084270
vt 0.503579 -0.082791
vt 0.002081 -0.000500
vn 0.007500 -0.008700 0.999900
vn -0.003800 0.010900 0.999900
vn -0.002500 0.000400 1.000000
vn -0.002200 0.001300 1.000000
vn -0.001600 0.001900 1.000000
vn -0.011900 -0.002200 0.999900
vn -0.011300 -0.002100 0.999900
vn 0.011300 -0.002100 0.999900
vn 0.001600 0.001900 1.000000
vn 0.002500 0.000400 1.000000
vn 0.007900 -0.009200 0.999900
vn -0.000900 -0.002400 1.000000
vn 0.000000 -0.002500 1.000000
vn -0.007900 -0.009200 0.999900
vn 0.003800 0.010900 0.999900
vn -0.007500 -0.008700 0.999900
vn 0.011900 -0.002200 0.999900
vn -0.014900 -0.428700 0.903300
vn 0.019700 -0.428900 0.903100
vn -0.004100 0.011400 0.999900
vn 0.378700 0.201400 0.903300
vn 0.361600 0.231500 0.903100
vn 0.004100 0.011400 0.999900
vn -0.378700 0.201400 0.903300
vn -0.361600 0.231500 0.903100
vn 0.381300 0.197400 0.903100
vn -0.381300 0.197400 0.903100
vn -0.019700 -0.428900 0.903100
vn 0.014900 -0.428700 0.903300
vn 0.035800 -0.702600 0.710700
vn 0.363800 0.227300 0.903300
vn 0.590500 0.382200 0.710800
vn -0.363800 0.227300 0.903300
vn -0.590500 0.382200 0.710800
vn 0.033300 -0.701700 0.711700
vn -0.591000 0.379600 0.711800
vn 0.591000 0.379600 0.711800
vn 0.626400 0.320300 0.710600
vn -0.626400 0.320300 0.710600
vn -0.035800 -0.702600 0.710700
vn -0.624300 0.322100 0.711700
vn 0.624300 0.322100 0.711700
vn -0.033300 -0.701700 0.711700
vn -0.008800 -0.005100 0.999900
vn 0.008800 -0.005100 0.999900
vn 0.000000 0.010100 0.999900
vn 0.000000 -0.413600 0.910400
vn -0.358200 0.206900 0.910400
vn 0.358100 0.206800 0.910500
vn -0.358100 0.206900 0.910500
vn 0.358200 0.206900 0.910400
vn 0.001700 -0.001900 1.000000
vn 0.002500 -0.000400 1.000000
vn -0.002500 -0.000500 1.000000
vn -0.001600 -0.001900 1.000000
vn 0.000800 0.002400 1.000000
vn 0.000900 -0.002400 1.000000
vn 0.002200 0.001300 1.000000
vn -0.000900 0.002400 1.000000
vn -0.001500 -0.001800 1.000000
vn -0.000800 0.002200 1.000000
vn 0.002300 -0.000500 1.000000
vn 0.000800 0.002200 1.000000
vn -0.002300 -0.000400 1.000000
vn 0.001500 -0.001800 1.000000
usemtl NW_MONASTERY_WALL_82
s off
f 2/1/1 47/2/1 46/3/1
f 40/1/2 3/3/2 1/2/2
f 6/4/3 62/5/3 5/6/3
f 71/7/4 7/8/4 60/9/4
f 61/10/5 60/11/5 7/12/5
f 51/2/6 10/1/6 37/13/6
f 10/1/7 51/2/7 50/3/7
f 42/1/8 11/3/8 9/2/8
f 14/4/9 64/5/9 13/6/9
f 13/6/9 72/14/9 14/4/9
f 59/10/10 66/11/10 15/12/10
f 47/2/11 2/1/11 39/13/11
f 63/10/12 19/11/12 70/12/12
f 20/7/13 70/8/13 19/9/13
f 19/9/13 65/15/13 20/7/13
f 49/2/14 38/13/14 23/1/14
f 41/1/15 22/2/15 24/3/15
f 23/1/16 48/3/16 49/2/16
f 9/2/17 33/13/17 42/1/17
f 26/16/18 12/17/18 45/18/18
f 8/18/19 52/16/19 56/19/19
f 1/2/20 31/13/20 40/1/20
f 28/16/21 4/17/21 44/18/21
f 17/18/22 54/16/22 57/19/22
f 22/2/23 41/1/23 32/13/23
f 30/16/24 43/18/24 16/17/24
f 21/18/25 55/20/25 53/16/25
f 44/18/26 27/20/26 28/16/26
f 43/18/27 30/16/27 29/19/27
f 45/18/28 25/20/28 26/16/28
f 52/16/29 8/18/29 34/17/29
f 34/17/30 37/13/30 10/1/30
f 54/16/31 17/18/31 35/17/31
f 35/17/32 39/13/32 2/1/32
f 53/16/33 36/17/33 21/18/33
f 36/17/34 23/1/34 38/13/34
f 37/13/35 34/17/35 8/18/35
f 38/13/36 21/18/36 36/17/36
f 39/13/37 35/17/37 17/18/37
f 4/17/38 40/1/38 31/13/38
f 16/17/39 32/13/39 41/1/39
f 12/17/40 42/1/40 33/13/40
f 32/13/41 16/17/41 43/18/41
f 31/13/42 44/18/42 4/17/42
f 33/13/43 45/18/43 12/17/43
f 3/21/44 46/22/44 47/23/44
f 47/23/44 1/24/44 3/21/44
f 48/21/45 24/22/45 22/23/45
f 22/23/45 49/24/45 48/21/45
f 11/21/46 50/22/46 51/23/46
f 51/23/46 9/24/46 11/21/46
f 52/25/47 26/26/47 25/20/47
f 30/25/48 53/26/48 55/20/48
f 54/25/49 28/26/49 27/20/49
f 55/20/50 29/27/50 30/25/50
f 25/20/47 56/27/47 52/25/47
f 27/20/51 57/27/51 54/25/51
f 36/28/52 68/6/52 58/5/52
f 75/29/53 59/30/53 67/31/53
f 60/9/4 6/15/4 71/7/4
f 7/12/5 69/32/5 61/10/5
f 4/28/54 5/6/54 62/5/54
f 73/29/55 63/30/55 18/31/55
f 12/28/56 13/6/56 64/5/56
f 65/4/57 58/5/57 68/6/57
f 66/9/58 14/15/58 72/7/58
f 15/12/10 67/32/10 59/10/10
f 68/6/57 20/14/57 65/4/57
f 74/29/59 61/30/59 69/31/59
f 70/12/12 18/32/12 63/10/12
f 5/6/3 71/14/3 6/4/3
f 72/7/58 15/8/58 66/9/58
f 18/31/60 35/33/60 73/29/60
f 69/31/61 34/33/61 74/29/61
f 67/31/62 16/33/62 75/29/62
f 64/5/63 76/34/63 12/28/63
f 62/5/64 77/34/64 4/28/64
f 58/5/65 78/34/65 36/28/65
