# Blender v2.75 (sub 0) OBJ File: 'Empty.blend'
# www.blender.org
mtllib EVT_SPAWN_01.mtl
o EVT_SPAWN_01
v 0.379197 1.000010 0.272726
v 0.237619 -0.999990 0.169863
v -0.492781 1.000010 -0.010597
v 0.084110 1.000010 0.281394
v 0.084110 1.000010 -0.302588
v -0.259146 -0.999990 0.169863
v -0.159715 1.000010 -0.469023
v -0.259146 -0.999990 -0.191058
v -0.259146 1.000010 -0.191058
v -0.159715 1.000010 0.447829
v 0.379197 1.000010 -0.293920
v 0.084110 -0.999990 0.281394
v -0.105637 -0.999990 -0.302588
v 0.084110 -0.999990 -0.302588
v -0.105637 -0.999990 0.281394
v -0.317781 -0.999990 -0.010597
v 0.237619 -0.999990 -0.191058
v 0.296254 -0.999990 -0.010597
v -0.259146 1.000010 0.169863
v 0.237619 1.000010 0.169863
v 0.237619 1.000010 -0.191058
v 0.138188 1.000010 -0.469023
v -0.400724 1.000010 0.272726
v 0.138188 1.000010 0.447829
v -0.400724 1.000010 -0.293920
v 0.471254 1.000010 -0.010597
v -0.105637 1.000010 0.281394
v -0.317781 1.000010 -0.010597
v 0.296254 1.000010 -0.010597
v -0.105637 1.000010 -0.302588
v 0.600010 -0.999990 -0.600010
v -0.599990 -0.999990 -0.600010
v 0.600010 -0.999990 0.599990
v -0.599990 -0.999990 0.599990
vt 0.999500 -0.999501
vt 0.999501 -0.000500
vt 0.000499 -0.999500
vt 0.000500 -0.000499
vt 0.346233 -0.000500
vt 0.250000 -0.999501
vt 0.250000 -0.000500
vt 0.947605 -0.000500
vt 0.846233 -0.999501
vt 0.846233 -0.000500
vt 0.750000 -0.999501
vt 0.750000 -0.000500
vt 0.346233 -0.999501
vt 0.447605 -0.000500
vt 0.447605 -0.999501
vt 0.153767 -0.999501
vt 0.153767 -0.000500
vt 0.052395 -0.999501
vt 0.052395 -0.000500
vt 0.653767 -0.000500
vt 0.552395 -0.999501
vt 0.552395 -0.000500
vt 0.653767 -0.999501
vt -0.052395 -0.999501
vt 0.947605 -0.999501
vt -0.052395 -0.000500
vn 0.000000 1.000000 0.000000
vn 0.947800 0.082900 -0.308000
vn -0.585800 0.082900 0.806200
vn 0.951100 0.000000 -0.309000
vn -0.587800 0.000000 0.809000
vn 0.585800 0.082900 -0.806200
vn -0.947800 0.082900 0.308000
vn 0.947800 0.082900 0.308000
vn -0.951100 0.000000 -0.309000
vn -0.587800 0.000000 -0.809000
vn -0.585800 0.082900 -0.806200
vn 0.587800 0.000000 0.809000
vn 0.585800 0.082900 0.806200
vn 0.000000 0.082900 0.996600
vn 0.000000 0.000000 -1.000000
vn 0.000000 0.082900 -0.996600
vn 0.000000 0.000000 1.000000
vn -0.951100 0.000000 0.309000
vn 0.587800 0.000000 -0.809000
vn -0.947800 0.082900 -0.308000
vn 0.951100 0.000000 0.309000
usemtl DECAL_WINDFIST
s off
f 33/1/1 31/2/1 34/3/1
f 32/4/1 34/3/1 31/2/1
usemtl MESHGRAD
f 23/5/2 16/6/2 3/7/2
f 22/8/3 17/9/3 11/10/3
f 18/11/4 21/10/4 29/12/4
f 6/13/5 27/14/5 19/5/5
f 15/15/6 6/13/6 10/14/6
f 6/13/5 15/15/5 27/14/5
f 17/9/7 18/11/7 11/10/7
f 18/11/4 17/9/4 21/10/4
f 3/7/8 8/16/8 25/17/8
f 16/6/8 8/16/8 3/7/8
f 8/16/9 16/6/9 28/7/9
f 13/18/10 9/17/10 30/19/10
f 1/20/11 12/21/11 24/22/11
f 11/10/7 18/11/7 26/12/7
f 2/23/11 12/21/11 1/20/11
f 12/21/12 2/23/12 20/20/12
f 8/16/13 13/18/13 25/17/13
f 13/18/10 8/16/10 9/17/10
f 13/18/14 14/24/14 7/19/14
f 14/24/15 13/18/15 30/19/15
f 12/21/16 15/15/16 24/22/16
f 15/15/17 12/21/17 4/22/17
f 6/13/2 16/6/2 23/5/2
f 16/6/18 6/13/18 19/5/18
f 14/25/3 17/9/3 22/8/3
f 17/9/19 14/25/19 5/8/19
f 18/11/20 2/23/20 26/12/20
f 2/23/21 18/11/21 29/12/21
f 8/16/9 28/7/9 9/17/9
f 12/21/12 20/20/12 4/22/12
f 17/9/19 5/8/19 21/10/19
f 7/19/14 14/24/14 22/26/14
f 10/14/6 6/13/6 23/5/6
f 24/22/16 15/15/16 10/14/16
f 25/17/13 13/18/13 7/19/13
f 26/12/20 2/23/20 1/20/20
f 15/15/17 4/22/17 27/14/17
f 16/6/18 19/5/18 28/7/18
f 2/23/21 29/12/21 20/20/21
f 14/24/15 30/19/15 5/26/15
