# Blender v2.75 (sub 0) OBJ File: 'Empty.blend'
# www.blender.org
mtllib EVT_CORNERROOMS_LIFTGATEWALL_01.mtl
o EVT_CORNERROOMS_LIFTGATEWALL_01
v 1.850000 0.050000 1.000000
v -1.850000 0.050000 -0.999999
v -1.850000 -0.050000 1.000000
v 1.850000 -0.050000 -1.000000
v -1.850000 0.050000 1.000000
v 1.850000 -0.050000 1.000000
v -1.850000 -0.050000 -0.999999
v 1.850000 0.050000 -1.000000
vt -0.385204 0.000000
vt 1.464795 -0.000000
vt 1.464795 -1.000000
vt -0.385205 -1.000000
vt 1.390008 0.075874
vt -0.459992 0.075874
vt -0.459992 0.025874
vt 1.000000 0.025874
vt 1.000000 0.075874
vt -0.000000 0.075874
vt 1.390008 0.025874
vt -0.000000 0.025874
vt -0.390008 0.025874
vt 1.459992 0.025874
vt 1.459992 0.075874
vt -0.390008 0.075874
vn 0.000000 -1.000000 0.000000
vn 0.000000 1.000000 -0.000000
vn 0.000000 0.000000 1.000000
vn -1.000000 0.000000 0.000000
vn 1.000000 0.000000 -0.000000
vn -0.000000 0.000000 -1.000000
usemtl NW_MONASTERY_WALL_82
s off
f 6/1/1 3/2/1 7/3/1
f 8/4/2 2/3/2 5/2/2
f 7/3/1 4/4/1 6/1/1
f 5/2/2 1/1/2 8/4/2
f 1/5/3 5/6/3 3/7/3
f 3/8/4 5/9/4 2/10/4
f 3/7/3 6/11/3 1/5/3
f 1/10/5 6/12/5 4/8/5
f 4/13/6 7/14/6 2/15/6
f 2/10/4 7/12/4 3/8/4
f 2/15/6 8/16/6 4/13/6
f 4/8/5 8/9/5 1/10/5
