# Blender v2.75 (sub 0) OBJ File: 'Empty.blend'
# www.blender.org
mtllib EVT_CASTEL_FLOOR_3.mtl
o EVT_CASTEL_FLOOR_3
v -2.170235 -0.638272 -0.731034
v -1.082178 0.284487 4.108770
v -0.008145 -0.558584 0.344166
v -2.170235 0.461728 -0.731034
v -0.008145 0.382041 0.344166
v -1.082178 -0.461030 4.108770
v -0.234661 0.322324 2.887434
v -2.126607 0.461728 2.920071
v -2.126607 -0.638272 2.920071
v -1.475180 0.357832 3.237885
v -0.234661 -0.498867 2.887434
v -1.011663 0.413066 -0.547592
v -1.011663 -0.589610 -0.547592
v -0.463472 0.359756 1.502355
v -0.463472 -0.536299 1.502355
v -1.475180 -0.534375 3.237885
vt -0.502582 0.160155
vt -0.975298 0.715340
vt 0.241675 0.729875
vt -0.975039 -0.713570
vt -0.502298 -0.158371
vt 0.241891 -0.728105
vt 0.000000 -0.000000
vt -1.080594 -0.495402
vt -0.963813 -0.081730
vt -1.370589 -0.363664
vt -1.080939 0.497197
vt -0.964144 0.083523
vt -1.371006 0.365478
vt 0.180796 -0.341589
vt 0.171275 0.344348
vt -0.116439 -0.006924
vt -0.116669 0.008697
vn 0.060600 -0.998200 -0.000700
vn 0.060600 0.998200 -0.000700
vn -0.999900 0.000000 0.011900
vn 0.664300 0.000000 -0.747500
vn 0.986600 0.000000 -0.163000
vn 0.034600 0.999200 0.021300
vn 0.821600 0.000000 0.570100
vn -0.911500 0.000000 0.411300
vn 0.046300 0.996900 0.063000
vn 0.034600 -0.999200 0.021300
vn 0.122500 0.989800 0.072500
vn -0.438500 0.000000 0.898700
vn 0.046300 -0.996900 0.063000
vn 0.039500 0.999100 0.015400
vn 0.156400 0.000000 -0.987700
vn 0.039500 -0.999100 0.015400
vn 0.010200 0.999700 0.023300
vn 0.930700 0.000000 0.365900
vn 0.010200 -0.999700 0.023300
vn 0.122500 -0.989800 0.072500
usemtl EVT_CASTEL_FLOOR_3_1
s off
f 15/1/1 9/2/1 1/3/1
f 8/4/2 14/5/2 4/6/2
f 1/7/3 8/7/3 4/7/3
f 3/7/4 13/7/4 12/7/4
f 12/7/4 5/7/4 3/7/4
f 14/7/5 11/7/5 15/7/5
f 11/7/5 14/7/5 7/7/5
f 8/7/3 1/7/3 9/7/3
f 14/5/6 10/8/6 7/9/6
f 6/7/7 7/7/7 2/7/7
f 16/7/8 2/7/8 10/7/8
f 7/9/9 10/8/9 2/10/9
f 2/7/8 16/7/8 6/7/8
f 16/11/10 15/1/10 11/12/10
f 14/5/11 8/4/11 10/8/11
f 9/7/12 10/7/12 8/7/12
f 16/11/13 11/12/13 6/13/13
f 7/7/7 6/7/7 11/7/7
f 4/6/14 14/5/14 12/14/14
f 4/7/15 12/7/15 13/7/15
f 15/1/16 1/3/16 13/15/16
f 13/7/15 1/7/15 4/7/15
f 12/14/17 14/5/17 5/16/17
f 15/7/18 5/7/18 14/7/18
f 15/1/19 13/15/19 3/17/19
f 5/7/18 15/7/18 3/7/18
f 9/2/20 15/1/20 16/11/20
f 10/7/12 9/7/12 16/7/12
