# Blender v2.75 (sub 0) OBJ File: 'Empty.blend'
# www.blender.org
mtllib EVT_TPL_PILLAR_01.mtl
o EVT_TPL_PILLAR_01
v -0.589322 -5.381479 0.004362
v 0.177446 9.686654 -0.532537
v 0.158237 9.686654 0.567697
v 0.177446 -5.381479 -0.532537
v -0.589322 9.686654 0.004362
v 0.158237 -5.381479 0.567697
v 0.567534 -5.329465 0.024548
v 0.567534 9.686654 0.024548
v -0.180044 -5.218415 -0.538772
v -0.199234 -5.236620 0.561447
v -0.180044 9.686654 -0.538772
v -0.484781 9.686654 0.346272
v -0.484781 -5.374059 0.346272
v 0.462993 -5.247192 -0.317356
v 0.451127 -5.329465 0.362619
v 0.451127 9.686654 0.362619
v -0.199234 9.686654 0.561447
v 0.462993 9.686654 -0.317356
v -0.472906 -5.218415 -0.333699
v -0.472906 9.686654 -0.333699
vt 1.771585 1.997502
vt 1.552863 1.997502
vt 1.552863 -2.997502
vt 0.586579 1.997502
vt 0.367858 1.997502
vt 0.367858 -2.997502
vt 0.586579 -2.997502
vt 1.308614 -2.997502
vt 1.047064 1.997502
vt 0.804455 1.997502
vt 0.804455 -2.997502
vt 0.000502 -0.490884
vt 0.662643 -0.006132
vt 0.090778 -0.799584
vt 1.989457 -2.997502
vt 2.232065 -2.997502
vt 2.232065 1.997502
vt 0.909227 -0.200413
vt 1.989457 1.997502
vt -0.137935 -2.997502
vt 0.123626 -2.997502
vt 0.123626 1.997502
vt 0.101033 -0.185657
vt 0.337362 -0.993860
vt 0.646055 -0.999503
vt 1.047064 -2.997502
vt 1.308614 1.997502
vt -0.137935 1.997502
vt 0.898980 -0.814344
vt 1.771585 -2.997502
vt 0.999503 -0.509109
vt 0.353933 -0.000502
vn 0.945500 0.000000 0.325600
vn -0.945500 0.000000 -0.325600
vn 0.573600 0.000000 0.819200
vn -0.601800 0.000000 0.798600
vn 0.012500 -0.999800 0.017900
vn -0.956300 0.000000 0.292400
vn 0.601800 0.000000 -0.798600
vn 0.277000 -0.936100 0.216600
vn 0.017400 0.000000 -0.999800
vn -0.351600 -0.790100 -0.502200
vn -0.358800 -0.896600 -0.259600
vn -0.017500 0.000000 0.999800
vn 0.281100 -0.933400 0.223100
vn 0.093000 -0.988700 -0.118000
vn 0.956300 0.000000 -0.292400
vn -0.344700 -0.931200 -0.118700
vn -0.351600 -0.790100 -0.502100
vn -0.573600 0.000000 -0.819100
usemtl EVT_TPL_PILLAR_01
s off
f 8/1/1 16/2/1 15/3/1
f 5/4/2 20/5/2 19/6/2
f 19/6/2 1/7/2 5/4/2
f 6/8/3 15/3/3 16/2/3
f 17/9/4 12/10/4 13/11/4
f 1/12/5 4/13/5 13/14/5
f 1/7/6 13/11/6 12/10/6
f 14/15/7 4/16/7 2/17/7
f 4/13/8 14/18/8 13/14/8
f 2/17/7 18/19/7 14/15/7
f 4/20/9 9/21/9 11/22/9
f 19/23/10 4/13/10 1/12/10
f 10/24/11 14/18/11 6/25/11
f 10/26/12 6/8/12 3/27/12
f 11/22/9 2/28/9 4/20/9
f 12/10/6 5/4/6 1/7/6
f 13/14/13 14/18/13 10/24/13
f 13/11/4 10/26/4 17/9/4
f 6/25/14 14/18/14 15/29/14
f 7/30/15 14/15/15 18/19/15
f 7/31/16 15/29/16 14/18/16
f 15/3/1 7/30/1 8/1/1
f 16/2/3 3/27/3 6/8/3
f 3/27/12 17/9/12 10/26/12
f 18/19/15 8/1/15 7/30/15
f 9/32/17 4/13/17 19/23/17
f 9/21/18 19/6/18 20/5/18
f 20/5/18 11/22/18 9/21/18
