# Blender v2.75 (sub 0) OBJ File: 'Empty.blend'
# www.blender.org
mtllib EVT_MAINHALL_DOOR_LOCK_BR_01.mtl
o EVT_MAINHALL_DOOR_LOCK_BR_01
v 1.037861 -1.225213 -0.025010
v 1.043812 -0.856419 -0.025010
v 0.856439 -1.043792 -0.025010
v 1.014583 -1.014562 0.024990
v 1.050126 -1.050105 -0.025010
v 0.824780 -1.004364 0.024990
v 1.225234 -1.037840 -0.025010
v 1.004385 -0.824760 0.024990
v 1.191547 -1.191526 -0.025010
v 1.156192 -1.156171 0.024990
v 1.006390 -1.185974 0.024990
v 1.185994 -1.006369 0.024990
vt -0.427956 -0.189667
vt 0.381371 0.000011
vt 0.381371 -0.189667
vt 1.190744 -0.189667
vt -0.523680 0.000011
vt -0.100607 0.000012
vt 1.286468 0.000011
vt 0.863378 0.000011
vt 0.004845 -0.189667
vt 0.757944 -0.189667
vt 0.501858 -0.865632
vt 0.951202 -0.969144
vt 0.833987 -0.217795
vt 0.494426 -0.055011
vt 0.046939 -0.969143
vt 0.160296 -0.209647
vn 0.026800 0.823700 -0.566400
vn -0.823700 -0.026800 -0.566400
vn 0.042900 0.797500 -0.601800
vn -0.702900 -0.702900 0.109200
vn -0.797500 -0.042900 -0.601800
vn 0.702900 0.702900 0.109200
vn 0.163800 -0.747200 0.644100
vn 0.747200 -0.163800 0.644100
vn 0.145600 -0.731700 0.665900
vn 0.731700 -0.145600 0.665900
vn -0.000000 0.000000 1.000000
usemtl NW_MONASTERY_WALL_45
s off
f 3/1/1 4/2/1 5/3/1
f 5/3/2 4/2/2 2/4/2
f 4/2/3 3/1/3 6/5/3
f 11/6/4 6/5/4 3/1/4
f 8/7/5 2/4/5 4/2/5
f 12/8/6 2/4/6 8/7/6
f 9/3/7 10/2/7 1/9/7
f 9/3/8 7/10/8 10/2/8
f 11/6/4 3/1/4 1/9/4
f 1/9/9 10/2/9 11/6/9
f 12/8/6 7/10/6 2/4/6
f 10/2/10 7/10/10 12/8/10
usemtl NW_MONASTERY_WALL_87
f 4/11/11 6/12/11 11/13/11
f 11/13/11 10/14/11 4/11/11
f 8/15/11 4/11/11 12/16/11
f 10/14/11 12/16/11 4/11/11
