# Blender v2.75 (sub 0) OBJ File: 'Empty.blend'
# www.blender.org
mtllib EVT_ADDON_LSTTEMP_FALLSPIKES_01.mtl
o EVT_ADDON_LSTTEMP_FALLSPIKES_01
v 1.105729 -0.001596 -3.298080
v -1.105708 0.001615 3.298060
v 1.105729 -0.001596 3.298060
v -1.105708 0.001615 -3.298080
v -1.105708 0.001615 1.099347
v 1.105729 -0.001596 1.099347
v 1.105729 -0.001596 -1.099366
v -1.105708 0.001615 -1.099366
v -0.462952 0.282005 -0.030971
v 0.055174 -0.262689 -0.030971
v 0.055174 0.282005 -0.030971
v -0.462951 -0.262689 -0.030971
v -0.203891 6.115560 -0.155969
v -0.203891 0.210334 -0.155969
v -0.203891 0.210334 0.103094
v -0.203891 6.115560 0.103094
v 1.024692 -1.443184 2.809541
v 0.935480 0.002202 2.753139
v 1.033572 0.002202 2.923039
v -0.543733 0.002202 2.782487
v -0.602467 -1.155648 2.839108
v -0.641825 0.002202 2.952388
v 1.024692 -1.443184 -1.587885
v 0.935480 0.002202 -1.644287
v 1.033572 0.002202 -1.474386
v 0.210200 -1.393743 -1.573521
v 0.115653 0.002202 -1.630143
v 0.213745 0.002202 -1.460242
v -0.228128 -1.324902 -1.973316
v -0.317340 0.002202 -2.030444
v -0.219248 0.002202 -1.860543
v 0.267260 -1.155648 -3.224568
v 0.325994 0.002202 -3.281190
v 0.227902 0.002202 -3.111289
v 0.210200 -1.393743 2.823905
v 0.115653 0.002202 2.767283
v 0.213745 0.002202 2.937184
v -0.228128 -1.324902 2.424110
v -0.317340 0.002202 2.366982
v -0.219248 0.002202 2.536883
v 0.210322 -1.414048 1.998703
v 0.122280 0.002202 1.942080
v 0.220372 0.002202 2.111981
v 1.024692 -1.443184 0.610829
v 0.935480 0.002202 0.554427
v 1.033572 0.002202 0.724327
v -1.038267 -1.448268 -2.803953
v -1.121167 0.002202 -2.860355
v -1.023075 0.002202 -2.690454
v -1.032590 -1.415635 2.812321
v -1.127137 0.002202 2.752003
v -1.029045 0.002202 2.921904
v -0.541053 0.002202 -3.284951
v -0.599787 -1.549594 -3.224633
v -0.639145 0.002202 -3.115050
v 0.314766 0.002202 3.147129
v 0.242850 -1.351034 3.203531
v 0.216674 0.002202 3.317030
v -0.212614 -1.532088 3.206254
v -0.295514 0.002202 3.149126
v -0.197422 0.002202 3.319026
v 0.597961 -1.448268 3.220601
v 0.515061 0.002202 3.164199
v 0.613153 0.002202 3.334100
v 0.210200 -1.393743 0.625193
v 0.115653 0.002202 0.568571
v 0.213745 0.002202 0.738472
v -1.041985 -1.387390 2.006046
v -1.130027 0.002202 1.945728
v -1.031935 0.002202 2.115628
v 0.267408 0.002202 1.460075
v 0.229212 -1.503650 1.559759
v 0.128685 0.002202 1.598799
v -0.228128 -1.324901 0.225398
v -0.317340 0.002202 0.168270
v -0.219248 0.002202 0.338171
v 0.609463 -1.443184 0.218670
v 0.520251 0.002202 0.162268
v 0.618343 0.002202 0.332169
v 1.065386 0.002202 -2.922392
v 1.027190 -1.503650 -2.822708
v 0.926663 0.002202 -2.783669
v -0.616588 0.002202 -1.195652
v -0.619729 -1.075925 -1.095969
v -0.565812 0.002202 -1.006153
v -0.543733 0.002202 -1.614939
v -0.602467 -1.155648 -1.558317
v -0.641825 0.002202 -1.445038
v 1.011962 -1.503650 -1.996268
v 1.050158 0.002202 -2.095952
v 0.911434 0.002202 -1.957228
v -1.000409 0.002202 2.314576
v -1.044917 -1.405543 2.414259
v -1.139133 0.002202 2.453300
v 1.065386 0.002202 1.475034
v 1.027191 -1.503650 1.574717
v 0.926663 0.002202 1.613757
v -0.185264 0.002202 0.975135
v -0.223459 -1.503650 1.074819
v -0.323987 0.002202 1.113859
v 1.052088 -1.075925 1.096046
v 1.055228 0.002202 0.996362
v 1.106005 0.002202 1.185862
v -0.985226 -1.549594 1.087322
v -0.926492 0.002202 1.027004
v -1.024584 0.002202 1.196905
v -0.638939 -1.414048 -0.203226
v -0.726981 0.002202 -0.259848
v -0.628889 0.002202 -0.089947
v -1.038267 -1.448268 -0.605239
v -1.121167 0.002202 -0.661641
v -1.023075 0.002202 -0.491740
v -0.640611 -1.414048 -0.620263
v -0.728654 0.002202 -0.676885
v -0.630562 0.002202 -0.506984
v -1.032591 -1.415634 0.613609
v -1.127137 0.002202 0.553292
v -1.029045 0.002202 0.723192
v -1.041985 -1.387390 -0.192666
v -1.130028 0.002202 -0.252984
v -1.031935 0.002202 -0.083083
v 0.210322 -1.414048 -0.200009
v 0.122280 0.002202 -0.256631
v 0.220372 0.002202 -0.086731
v 0.210322 -1.414048 -2.398723
v 0.122280 0.002202 -2.455345
v 0.220372 0.002202 -2.285444
v 0.610934 -1.387390 -0.199037
v 0.522892 0.002202 -0.259355
v 0.620984 0.002202 -0.089454
v -0.192906 -1.354010 -0.627784
v -0.120990 0.002202 -0.684912
v -0.219082 0.002202 -0.515011
v 0.641000 -1.351034 -0.616301
v 0.712917 0.002202 -0.672703
v 0.614824 0.002202 -0.502802
v -1.041985 -1.387390 -2.391380
v -1.130028 0.002202 -2.451698
v -1.031935 0.002202 -2.281797
v 0.658808 0.002202 2.719297
v 0.620613 -1.503650 2.818981
v 0.520085 0.002202 2.858021
v 0.589820 -1.448268 1.095453
v 0.506919 0.002202 1.039051
v 0.605011 0.002202 1.208952
v -0.180792 0.002202 2.720409
v -0.218987 -1.503650 2.820093
v -0.319515 0.002202 2.859133
v 1.011962 -1.503649 0.202446
v 1.050157 0.002202 0.102762
v 0.911434 0.002202 0.241486
v 0.301623 0.002202 -1.160882
v 0.229706 -1.351034 -1.104479
v 0.203531 0.002202 -0.990981
v -0.638939 -1.414048 -2.401940
v -0.726981 0.002202 -2.458562
v -0.628889 0.002202 -2.288661
v 0.610934 -1.387390 -2.397751
v 0.522892 0.002202 -2.458069
v 0.620984 0.002202 -2.288168
v -0.225239 -1.532087 -1.101763
v -0.308140 0.002202 -1.158891
v -0.210047 0.002202 -0.988990
v 0.598913 -1.448268 -1.102347
v 0.516013 0.002202 -1.158749
v 0.614105 0.002202 -0.988848
v 0.610934 -1.387390 1.999675
v 0.522892 0.002202 1.939357
v 0.620984 0.002202 2.109257
v -0.640611 -1.414049 1.578449
v -0.728653 0.002202 1.521827
v -0.630561 0.002202 1.691728
v 0.641000 -1.351034 1.582411
v 0.712917 0.002202 1.526009
v 0.614825 0.002202 1.695910
v 1.065386 0.002202 -0.723678
v 1.027190 -1.503649 -0.623995
v 0.926663 0.002202 -0.584955
v 0.267408 0.002202 -0.738637
v 0.229212 -1.503650 -0.638953
v 0.128685 0.002202 -0.599913
v -0.543733 0.002202 0.583775
v -0.602468 -1.155648 0.640397
v -0.641825 0.002202 0.753675
v -0.577972 0.002202 0.111196
v -0.622480 -1.405542 0.210879
v -0.716696 0.002202 0.249919
v 0.658808 0.002202 -1.678129
v 0.620612 -1.503650 -1.578445
v 0.520085 0.002202 -1.539405
v -1.032591 -1.415635 -1.585105
v -1.127137 0.002202 -1.645422
v -1.029045 0.002202 -1.475522
v 1.048730 -1.075925 -3.222568
v 1.051870 0.002202 -3.322251
v 1.102646 0.002202 -3.132752
v -0.584520 0.002202 3.131881
v -0.587661 -1.075925 3.231565
v -0.533744 0.002202 3.321381
v -0.638938 -1.414048 1.995486
v -0.726981 0.002202 1.938864
v -0.628889 0.002202 2.108765
v -1.038267 -1.448268 1.593473
v -1.121167 0.002202 1.537071
v -1.023075 0.002202 1.706972
v 0.251703 -1.155648 1.079479
v 0.310437 0.002202 1.022857
v 0.212345 0.002202 1.192758
v -0.180792 0.002202 0.521697
v -0.218987 -1.503649 0.621381
v -0.319515 0.002202 0.660421
v 0.609463 -1.443184 -1.980044
v 0.520251 0.002202 -2.036446
v 0.618344 0.002202 -1.866545
v -0.990878 -1.549594 -3.216510
v -0.932143 0.002202 -3.276827
v -1.030236 0.002202 -3.106927
v 0.609464 -1.443184 2.417382
v 0.520251 0.002202 2.360980
v 0.618344 0.002202 2.530880
v -1.000410 0.002202 -2.082850
v -1.044917 -1.405543 -1.983166
v -1.139133 0.002202 -1.944126
v -0.996477 0.002202 -1.200373
v -1.040984 -1.405543 -1.100689
v -1.135200 0.002202 -1.061650
v -0.158304 0.002202 -2.515372
v -0.202811 -1.405543 -2.415688
v -0.297027 0.002202 -2.376648
v -0.577972 0.002202 -2.087518
v -0.622480 -1.405543 -1.987835
v -0.716696 0.002202 -1.948795
v 1.084732 0.002202 1.884870
v 1.040225 -1.405543 1.984554
v 0.946009 0.002202 2.023594
v -0.158303 0.002202 1.882054
v -0.202811 -1.405543 1.981738
v -0.297027 0.002202 2.020777
v 1.011962 -1.503650 2.401158
v 1.050158 0.002202 2.301474
v 0.911435 0.002202 2.440198
v 0.658808 0.002202 0.520585
v 0.620612 -1.503649 0.620269
v 0.520085 0.002202 0.659309
v 0.233011 0.002202 -2.102763
v 0.188503 -1.405543 -2.003080
v 0.094288 0.002202 -1.964040
v -0.180792 0.002202 -1.677017
v -0.218987 -1.503650 -1.577333
v -0.319515 0.002202 -1.538293
v -0.555493 0.002202 1.024014
v -0.614228 -1.549594 1.084332
v -0.653586 0.002202 1.193914
v 0.233011 0.002202 2.294663
v 0.188504 -1.405543 2.394346
v 0.094288 0.002202 2.433386
v -0.577972 0.002202 2.309908
v -0.622480 -1.405543 2.409591
v -0.716696 0.002202 2.448631
v 0.267408 0.002202 -2.937351
v 0.229212 -1.503650 -2.837667
v 0.128685 0.002202 -2.798627
v -0.175168 0.002202 -3.328853
v -0.213363 -1.503650 -3.229170
v -0.313891 0.002202 -3.190130
v 0.641000 -1.351034 -2.815015
v 0.712917 0.002202 -2.871417
v 0.614825 0.002202 -2.701516
v 1.084732 0.002202 -0.313842
v 1.040225 -1.405542 -0.214158
v 0.946009 0.002202 -0.175118
v 0.233011 0.002202 0.095951
v 0.188503 -1.405543 0.195634
v 0.094287 0.002202 0.234674
v -0.158304 0.002202 -0.316658
v -0.202811 -1.405542 -0.216974
v -0.297027 0.002202 -0.177934
v -0.192906 -1.354010 -2.826497
v -0.120989 0.002202 -2.883626
v -0.219082 0.002202 -2.713725
v -0.192906 -1.354010 1.570928
v -0.120989 0.002202 1.513800
v -0.219081 0.002202 1.683701
v 1.084732 0.002202 -2.512556
v 1.040225 -1.405543 -2.412872
v 0.946009 0.002202 -2.373832
v -0.640611 -1.414049 -2.818976
v -0.728654 0.002202 -2.875598
v -0.630561 0.002202 -2.705698
v 1.010692 -1.405543 -1.107087
v 1.055199 0.002202 -1.206770
v 0.916476 0.002202 -1.068047
v -1.014342 0.002202 3.112882
v -1.058849 -1.405543 3.212565
v -1.153065 0.002202 3.251605
v 1.010692 -1.405543 3.191282
v 1.055200 0.002202 3.091599
v 0.916476 0.002202 3.230322
v -1.000410 0.002202 0.115864
v -1.044917 -1.405542 0.215548
v -1.139133 0.002202 0.254588
v 0.615429 -1.448268 -3.228389
v 0.532529 0.002202 -3.284791
v 0.630621 0.002202 -3.114890
v -0.337889 0.210334 -0.030904
v -0.337889 6.115560 -0.030904
v -0.078826 0.210334 -0.030904
v -0.078826 6.115560 -0.030904
v -0.111955 0.002202 -1.158891
v -0.099330 0.002202 3.149126
v 0.311838 0.002202 2.767283
v 0.311837 0.002202 0.568571
v 0.311837 0.002202 -1.630143
v -0.930953 0.002202 -1.645422
v -0.930953 0.002202 0.553292
v -0.930953 0.002202 2.752003
v 0.716436 0.002202 -2.036446
v 1.131664 0.002202 2.753139
v 1.131664 0.002202 -1.644287
v 0.716436 0.002202 2.360980
v 0.716435 0.002202 0.162268
v 1.131664 0.002202 0.554427
v 1.116162 0.002202 -0.534179
v -0.124391 0.002202 -3.139354
v 0.709584 0.002202 -1.488629
v 1.116163 0.002202 1.664533
v 0.709585 0.002202 2.908797
v 0.709584 0.002202 0.710085
v -0.130015 0.002202 -1.487517
v 1.100934 0.002202 2.490974
v -0.134488 0.002202 1.164635
v 1.116162 0.002202 -2.732893
v -0.130015 0.002202 0.711197
v -0.130015 0.002202 2.909909
v 1.100934 0.002202 0.292262
v 1.100934 0.002202 -1.906452
v 0.318184 0.002202 1.649575
v 0.318184 0.002202 -0.549137
v 0.318184 0.002202 -2.747851
v 0.318464 0.002202 1.942080
v -0.530796 0.002202 -2.458562
v -0.532469 0.002202 1.521827
v -0.530796 0.002202 1.938864
v 0.318464 0.002202 -0.256631
v -0.530797 0.002202 -0.259848
v -0.532469 0.002202 -0.676885
v -0.532469 0.002202 -2.875598
v 0.318464 0.002202 -2.455345
v 0.703103 0.002202 1.039051
v 0.711245 0.002202 3.164199
v 0.712197 0.002202 -1.158749
v -0.924983 0.002202 -0.661641
v -0.924983 0.002202 -2.860355
v -0.924983 0.002202 1.537071
v 0.728713 0.002202 -3.284791
v 0.719077 0.002202 1.939357
v 0.719076 0.002202 -2.458069
v 0.719076 0.002202 -0.259355
v -0.933843 0.002202 -2.451698
v -0.933843 0.002202 -0.252984
v -0.933843 0.002202 1.945728
v -0.121156 0.002202 0.168270
v -0.121156 0.002202 -2.030444
v -0.121156 0.002202 2.366982
v -0.963565 0.002202 3.302381
v 1.135508 0.002202 -2.323056
v 1.105976 0.002202 3.281098
v 1.105976 0.002202 -1.017271
v -0.945701 0.002202 -1.010873
v 1.135509 0.002202 2.074370
v -0.527196 0.002202 2.499407
v -0.527196 0.002202 -1.898019
v 0.283787 0.002202 0.285450
v -0.107527 0.002202 2.071554
v 1.135508 0.002202 -0.124342
v -0.107527 0.002202 -2.325872
v -0.949633 0.002202 0.305364
v -0.107527 0.002202 -0.127158
v -0.949633 0.002202 -1.893350
v 0.283787 0.002202 2.484162
v -0.527196 0.002202 0.300695
v 0.283787 0.002202 -1.913264
v -0.949633 0.002202 2.504076
v -0.751678 0.002202 1.024014
v -1.122676 0.002202 1.027004
v -1.128328 0.002202 -3.276827
v -0.737237 0.002202 -3.284950
v 0.516733 0.002202 1.526009
v 0.516732 0.002202 -0.672703
v 0.105439 0.002202 -1.160882
v 0.516732 0.002202 -2.871417
v 0.118582 0.002202 3.147129
v -0.317174 0.002202 -2.883626
v -0.317174 0.002202 1.513800
v -0.317174 0.002202 -0.684912
v -0.739918 0.002202 -1.614939
v -0.739918 0.002202 0.583775
v 0.114253 0.002202 1.022857
v 0.129809 0.002202 -3.281190
v -0.739917 0.002202 2.782487
v 0.916505 0.002202 1.135086
v -0.723243 0.002202 3.270604
v -0.755312 0.002202 -1.056929
v 0.913147 0.002202 -3.183528
v -0.203889 6.115560 -0.030906
v -0.203889 0.210334 -0.030906
vt 0.506846 -0.430867
vt 0.506846 -0.730269
vt 1.003693 -0.580568
vt 0.506532 -0.430867
vt 0.506532 -0.730269
vt 1.003379 -0.580568
vt 1.000412 -1.320560
vt -0.332922 0.000215
vt 1.000412 0.000215
vt -0.332922 -1.320560
vt -0.020027 6.325429
vt 0.960026 7.289576
vt 0.976552 6.342825
vt -0.035326 -6.946936
vt -1.044673 -5.988054
vt -0.035326 -5.988054
vt -0.036553 7.272181
vt -1.044673 -6.946936
vt -2.502065 -10.756455
vt -2.053115 13.177483
vt -2.053115 -10.756455
vt 0.894081 -12.867476
vt 0.445131 11.066463
vt 0.894081 11.066463
vt -2.502065 13.177483
vt 0.445131 -12.867476
vt -2.539130 -11.256467
vt -2.090179 12.677471
vt -2.090179 -11.256467
vt 0.904274 -13.367487
vt 0.455325 10.566451
vt 0.904274 10.566451
vt -2.539130 12.677471
vt 0.455325 -13.367487
vt 0.026123 11.066463
vt -2.931071 -10.756455
vt 0.026123 -12.867476
vt -2.921071 13.177483
vt -2.958135 -11.256467
vt -2.958135 12.677471
vt 0.036317 10.566451
vt 0.036317 -13.367487
vn -0.865500 -0.033900 0.499700
vn 0.865200 -0.044500 0.499500
vn -0.863400 -0.078100 0.498500
vn 0.865900 -0.019500 0.499900
vn -0.865400 -0.038300 0.499600
vn 0.865200 -0.042700 0.499500
vn -0.865400 -0.036700 0.499700
vn 0.000000 -0.043000 -0.999100
vn -0.865500 -0.033800 0.499700
vn 0.865100 -0.046100 0.499500
vn 0.000000 -0.039000 -0.999200
vn -0.865600 -0.030000 0.499800
vn 0.865000 -0.048100 0.499400
vn -0.865400 -0.036500 0.499700
vn 0.865300 -0.040800 0.499600
vn 0.865900 -0.013300 0.500000
vn -0.000000 -0.038800 -0.999200
vn -0.864500 -0.058600 0.499100
vn 0.865800 -0.025200 0.499800
vn -0.865700 -0.028200 0.499800
vn 0.865100 -0.045300 0.499500
vn -0.865500 -0.033100 0.499700
vn 0.865100 -0.045600 0.499500
vn -0.706800 -0.028900 -0.706800
vn 0.965100 -0.041600 -0.258600
vn 0.965600 -0.026700 -0.258700
vn -0.705700 -0.063200 -0.705700
vn -0.258600 -0.044100 0.965000
vn -0.706800 -0.027700 -0.706800
vn -0.258600 -0.042300 0.965100
vn -0.258200 -0.067400 0.963700
vn 0.000000 -0.039900 -0.999200
vn -0.865500 -0.036500 0.499700
vn 0.000000 -0.043400 -0.999100
vn -0.864600 -0.058200 0.499200
vn 0.865800 -0.024900 0.499800
vn 0.000000 -0.048800 -0.998800
vn 0.964800 -0.048800 -0.258500
vn 0.865700 -0.025200 0.499800
vn 0.000000 -0.041600 -0.999100
vn 0.000000 -0.042100 -0.999100
vn 0.000000 -0.038900 -0.999200
vn 0.000000 -0.037200 -0.999300
vn 0.000000 -0.040500 -0.999200
vn 0.000000 -0.042500 -0.999100
vn 0.865000 -0.048200 0.499400
vn -0.864600 -0.057200 0.499200
vn 0.001500 1.000000 -0.000000
vn -0.001500 -1.000000 0.000000
vn -0.000000 -0.000000 -1.000000
vn 0.000000 0.000000 1.000000
vn 1.000000 0.000000 0.000000
vn -1.000000 -0.000000 -0.000000
usemtl MOMESMELT01
s off
f 19/1/1 18/2/1 17/3/1
f 318/1/2 19/2/2 17/3/2
f 22/1/3 400/2/3 21/3/3
f 20/1/4 22/2/4 21/3/4
f 25/1/1 24/2/1 23/3/1
f 319/1/2 25/2/2 23/3/2
f 28/1/5 27/2/5 26/3/5
f 313/1/6 28/2/6 26/3/6
f 31/1/7 30/2/7 29/3/7
f 30/4/8 363/5/8 29/6/8
f 34/1/3 399/2/3 32/3/3
f 33/1/4 34/2/4 32/3/4
f 37/1/5 36/2/5 35/3/5
f 311/1/6 37/2/6 35/3/6
f 40/1/7 39/2/7 38/3/7
f 39/4/8 364/5/8 38/6/8
f 43/1/9 42/2/9 41/3/9
f 340/1/10 43/2/10 41/3/10
f 46/1/1 45/2/1 44/3/1
f 45/4/11 322/5/11 44/6/11
f 49/1/12 48/2/12 47/3/12
f 353/1/13 49/2/13 47/3/13
f 52/1/14 51/2/14 50/3/14
f 316/1/15 52/2/15 50/3/15
f 53/1/16 55/2/16 54/3/16
f 387/4/17 53/5/17 54/6/17
f 58/1/18 392/2/18 57/3/18
f 56/1/19 58/2/19 57/3/19
f 61/1/20 60/2/20 59/3/20
f 310/1/21 61/2/21 59/3/21
f 64/1/12 63/2/12 62/3/12
f 350/1/13 64/2/13 62/3/13
f 67/1/5 66/2/5 65/3/5
f 312/1/6 67/2/6 65/3/6
f 70/1/22 69/2/22 68/3/22
f 361/1/23 70/2/23 68/3/23
f 73/4/24 71/5/24 72/6/24
f 71/1/25 337/2/25 72/3/25
f 76/1/7 75/2/7 74/3/7
f 75/4/8 362/5/8 74/6/8
f 79/1/1 78/2/1 77/3/1
f 78/4/11 321/5/11 77/6/11
f 82/4/24 80/5/24 81/6/24
f 80/1/25 332/2/25 81/3/25
f 83/1/26 85/2/26 84/3/26
f 403/4/27 83/5/27 84/6/27
f 88/1/3 396/2/3 87/3/3
f 86/1/4 88/2/4 87/3/4
f 91/4/24 90/5/24 89/6/24
f 90/1/25 336/2/25 89/3/25
f 383/1/28 94/2/28 93/3/28
f 94/4/29 92/5/29 93/6/29
f 326/1/30 97/2/30 96/3/30
f 97/4/24 95/5/24 96/6/24
f 331/1/30 100/2/30 99/3/30
f 100/4/24 98/5/24 99/6/24
f 103/1/31 401/2/31 101/3/31
f 102/1/26 103/2/26 101/3/26
f 105/1/16 106/2/16 104/3/16
f 385/4/17 105/5/17 104/6/17
f 109/1/9 108/2/9 107/3/9
f 108/4/32 345/5/32 107/6/32
f 112/1/12 111/2/12 110/3/12
f 352/1/13 112/2/13 110/3/13
f 115/1/9 114/2/9 113/3/9
f 346/1/10 115/2/10 113/3/10
f 118/1/33 117/2/33 116/3/33
f 315/1/15 118/2/15 116/3/15
f 121/1/22 120/2/22 119/3/22
f 360/1/23 121/2/23 119/3/23
f 124/1/9 123/2/9 122/3/9
f 123/4/32 344/5/32 122/6/32
f 127/1/9 126/2/9 125/3/9
f 126/4/32 348/5/32 125/6/32
f 130/1/22 129/2/22 128/3/22
f 129/4/34 358/5/34 128/6/34
f 133/1/35 395/2/35 131/3/35
f 132/1/36 133/2/36 131/3/36
f 136/1/18 389/2/18 134/3/18
f 135/1/19 136/2/19 134/3/19
f 139/1/22 138/2/22 137/3/22
f 359/1/23 139/2/23 137/3/23
f 142/4/24 140/5/24 141/6/24
f 140/1/25 327/2/25 141/3/25
f 145/1/12 144/2/12 143/3/12
f 349/1/13 145/2/13 143/3/13
f 148/4/24 146/5/24 147/6/24
f 146/1/25 334/2/25 147/3/25
f 151/4/24 150/5/24 149/6/24
f 150/1/25 335/2/25 149/3/25
f 154/1/18 390/2/18 153/3/18
f 152/1/19 154/2/19 153/3/19
f 157/1/9 156/2/9 155/3/9
f 156/4/32 341/5/32 155/6/32
f 160/1/22 159/2/22 158/3/22
f 357/1/23 160/2/23 158/3/23
f 163/1/20 162/2/20 161/3/20
f 309/1/21 163/2/21 161/3/21
f 166/1/12 165/2/12 164/3/12
f 351/1/13 166/2/13 164/3/13
f 169/1/22 168/2/22 167/3/22
f 168/4/34 356/5/34 167/6/34
f 172/1/9 171/2/9 170/3/9
f 171/4/32 342/5/32 170/6/32
f 175/1/18 388/2/18 173/3/18
f 174/1/19 175/2/19 173/3/19
f 323/1/30 178/2/30 177/3/30
f 178/4/24 176/5/24 177/6/24
f 338/1/30 181/2/30 180/3/30
f 181/4/24 179/5/24 180/6/24
f 182/1/4 184/2/4 183/3/4
f 397/4/37 182/5/37 183/6/37
f 381/1/28 187/2/28 186/3/28
f 187/4/29 185/5/29 186/6/29
f 325/1/30 190/2/30 189/3/30
f 190/4/24 188/5/24 189/6/24
f 193/1/33 192/2/33 191/3/33
f 314/1/15 193/2/15 191/3/15
f 196/1/31 404/2/31 194/3/31
f 195/1/26 196/2/26 194/3/26
f 197/1/26 199/2/26 198/3/26
f 402/4/27 197/5/27 198/6/27
f 202/1/9 201/2/9 200/3/9
f 343/1/10 202/2/10 200/3/10
f 205/1/12 204/2/12 203/3/12
f 354/1/13 205/2/13 203/3/13
f 207/1/4 208/2/4 206/3/4
f 398/4/37 207/5/37 206/6/37
f 211/4/24 209/5/24 210/6/24
f 209/1/25 333/2/25 210/3/25
f 214/1/1 213/2/1 212/3/1
f 213/4/11 317/5/11 212/6/11
f 216/1/16 217/2/16 215/3/16
f 386/4/17 216/5/17 215/6/17
f 220/1/1 219/2/1 218/3/1
f 219/4/11 320/5/11 218/6/11
f 379/1/28 223/2/28 222/3/28
f 223/4/29 221/5/29 222/6/29
f 226/4/29 224/5/29 225/6/29
f 224/1/38 369/2/38 225/3/38
f 229/4/29 227/5/29 228/6/29
f 227/1/38 376/2/38 228/3/38
f 372/1/28 232/2/28 231/3/28
f 232/4/29 230/5/29 231/6/29
f 235/4/29 233/5/29 234/6/29
f 233/1/38 370/2/38 234/3/38
f 238/4/29 236/5/29 237/6/29
f 236/1/38 374/2/38 237/3/38
f 241/4/24 240/5/24 239/6/24
f 240/1/25 330/2/25 239/3/25
f 328/1/30 244/2/30 243/3/30
f 244/4/24 242/5/24 243/6/24
f 382/1/28 247/2/28 246/3/28
f 247/4/29 245/5/29 246/6/29
f 250/4/24 248/5/24 249/6/24
f 248/1/25 329/2/25 249/3/25
f 251/1/16 253/2/16 252/3/16
f 384/4/17 251/5/17 252/6/17
f 380/1/28 256/2/28 255/3/28
f 256/4/29 254/5/29 255/6/29
f 371/1/28 259/2/28 258/3/28
f 259/4/29 257/5/29 258/6/29
f 339/1/30 262/2/30 261/3/30
f 262/4/24 260/5/24 261/6/24
f 324/1/30 265/2/30 264/3/30
f 265/4/24 263/5/24 264/6/24
f 267/1/39 268/2/39 266/3/39
f 391/4/40 267/5/40 266/6/40
f 375/1/28 271/2/28 270/3/28
f 271/4/29 269/5/29 270/6/29
f 373/1/28 274/2/28 273/3/28
f 274/4/29 272/5/29 273/6/29
f 378/1/28 277/2/28 276/3/28
f 277/4/29 275/5/29 276/6/29
f 279/1/36 280/2/36 278/3/36
f 393/4/41 279/5/41 278/6/41
f 282/1/36 283/2/36 281/3/36
f 394/4/41 282/5/41 281/6/41
f 366/1/28 286/2/28 285/3/28
f 286/4/29 284/5/29 285/6/29
f 289/1/9 288/2/9 287/3/9
f 288/4/32 347/5/32 287/6/32
f 292/4/29 291/5/29 290/6/29
f 291/1/38 368/2/38 290/3/38
f 365/1/28 295/2/28 294/3/28
f 295/4/29 293/5/29 294/6/29
f 367/1/28 298/2/28 296/3/28
f 298/4/29 297/5/29 296/6/29
f 377/1/28 301/2/28 300/3/28
f 301/4/29 299/5/29 300/6/29
f 304/1/12 303/2/12 302/3/12
f 303/4/42 355/5/42 302/6/42
f 162/4/43 309/5/43 161/6/43
f 60/4/43 310/5/43 59/6/43
f 36/4/44 311/5/44 35/6/44
f 66/4/44 312/5/44 65/6/44
f 27/4/44 313/5/44 26/6/44
f 192/4/45 314/5/45 191/6/45
f 117/4/45 315/5/45 116/6/45
f 51/4/45 316/5/45 50/6/45
f 317/1/2 214/2/2 212/3/2
f 18/4/11 318/5/11 17/6/11
f 24/4/11 319/5/11 23/6/11
f 320/1/2 220/2/2 218/3/2
f 321/1/2 79/2/2 77/3/2
f 322/1/2 46/2/2 44/3/2
f 176/1/25 323/2/25 177/3/25
f 263/1/25 324/2/25 264/3/25
f 188/1/25 325/2/25 189/3/25
f 95/1/25 326/2/25 96/3/25
f 327/1/30 142/2/30 141/3/30
f 242/1/25 328/2/25 243/3/25
f 329/1/30 250/2/30 249/3/30
f 330/1/30 241/2/30 239/3/30
f 98/1/25 331/2/25 99/3/25
f 332/1/30 82/2/30 81/3/30
f 333/1/30 211/2/30 210/3/30
f 334/1/30 148/2/30 147/3/30
f 335/1/30 151/2/30 149/3/30
f 336/1/30 91/2/30 89/3/30
f 337/1/30 73/2/30 72/3/30
f 179/1/25 338/2/25 180/3/25
f 260/1/25 339/2/25 261/3/25
f 42/4/32 340/5/32 41/6/32
f 341/1/10 157/2/10 155/3/10
f 342/1/10 172/2/10 170/3/10
f 201/4/32 343/5/32 200/6/32
f 344/1/10 124/2/10 122/3/10
f 345/1/10 109/2/10 107/3/10
f 114/4/32 346/5/32 113/6/32
f 347/1/10 289/2/10 287/3/10
f 348/1/10 127/2/10 125/3/10
f 144/4/42 349/5/42 143/6/42
f 63/4/42 350/5/42 62/6/42
f 165/4/42 351/5/42 164/6/42
f 111/4/42 352/5/42 110/6/42
f 48/4/42 353/5/42 47/6/42
f 204/4/42 354/5/42 203/6/42
f 355/1/13 304/2/13 302/3/13
f 356/1/23 169/2/23 167/3/23
f 159/4/34 357/5/34 158/6/34
f 358/1/23 130/2/23 128/3/23
f 138/4/34 359/5/34 137/6/34
f 120/4/34 360/5/34 119/6/34
f 69/4/34 361/5/34 68/6/34
f 362/1/46 76/2/46 74/3/46
f 363/1/46 31/2/46 29/3/46
f 364/1/46 40/2/46 38/3/46
f 293/1/38 365/2/38 294/3/38
f 284/1/38 366/2/38 285/3/38
f 297/1/38 367/2/38 296/3/38
f 368/1/28 292/2/28 290/3/28
f 369/1/28 226/2/28 225/3/28
f 370/1/28 235/2/28 234/3/28
f 257/1/38 371/2/38 258/3/38
f 230/1/38 372/2/38 231/3/38
f 272/1/38 373/2/38 273/3/38
f 374/1/28 238/2/28 237/3/28
f 269/1/38 375/2/38 270/3/38
f 376/1/28 229/2/28 228/3/28
f 299/1/38 377/2/38 300/3/38
f 275/1/38 378/2/38 276/3/38
f 221/1/38 379/2/38 222/3/38
f 254/1/38 380/2/38 255/3/38
f 185/1/38 381/2/38 186/3/38
f 245/1/38 382/2/38 246/3/38
f 92/1/38 383/2/38 93/3/38
f 253/1/47 384/2/47 252/3/47
f 106/1/47 385/2/47 104/3/47
f 217/1/47 386/2/47 215/3/47
f 55/1/47 387/2/47 54/3/47
f 388/4/40 174/5/40 173/6/40
f 389/4/40 135/5/40 134/6/40
f 390/4/40 152/5/40 153/6/40
f 268/1/18 391/2/18 266/3/18
f 392/4/40 56/5/40 57/6/40
f 280/1/35 393/2/35 278/3/35
f 283/1/35 394/2/35 281/3/35
f 395/4/41 132/5/41 131/6/41
f 396/4/37 86/5/37 87/6/37
f 184/1/3 397/2/3 183/3/3
f 208/1/3 398/2/3 206/3/3
f 399/4/37 33/5/37 32/6/37
f 400/4/37 20/5/37 21/6/37
f 401/4/27 102/5/27 101/6/27
f 199/1/31 402/2/31 198/3/31
f 85/1/31 403/2/31 84/3/31
f 404/4/27 195/5/27 194/6/27
usemtl OCODFLGATELI
f 7/7/48 4/8/48 8/9/48
f 4/8/49 7/7/49 8/9/49
f 1/10/48 4/8/48 7/7/48
f 4/8/49 1/10/49 7/7/49
f 3/7/48 5/8/48 2/9/48
f 5/8/49 3/7/49 2/9/49
f 6/10/48 5/8/48 3/7/48
f 5/8/49 6/10/49 3/7/49
f 7/10/48 8/8/48 6/7/48
f 8/8/49 7/10/49 6/7/49
f 6/7/48 8/8/48 5/9/48
f 8/8/49 6/7/49 5/9/49
usemtl MOMECHAIN02
f 11/11/50 12/12/50 9/13/50
f 12/14/51 11/15/51 9/16/51
f 12/12/50 11/11/50 10/17/50
f 11/15/51 12/14/51 10/18/51
f 406/19/52 16/20/52 15/21/52
f 16/22/53 406/23/53 15/24/53
f 16/20/52 406/19/52 405/25/52
f 406/23/53 16/22/53 405/26/53
f 406/27/51 306/28/51 305/29/51
f 306/30/50 406/31/50 305/32/50
f 306/28/51 406/27/51 405/33/51
f 406/31/50 306/30/50 405/34/50
f 405/26/53 14/35/53 406/23/53
f 14/36/52 405/25/52 406/19/52
f 14/35/53 405/26/53 13/37/53
f 405/25/52 14/36/52 13/38/52
f 405/33/51 307/39/51 308/40/51
f 307/41/50 405/34/50 308/42/50
f 307/39/51 405/33/51 406/27/51
f 405/34/50 307/41/50 406/31/50
