# Blender v2.75 (sub 0) OBJ File: 'Empty.blend'
# www.blender.org
mtllib EVT_OC_MAINGATE02_01.mtl
o EVT_OC_MAINGATE02_01
v 1.706587 4.064942 -0.145559
v 2.003112 -3.537575 0.152004
v 2.003112 4.064942 0.152003
v -2.003118 4.064942 -0.152033
v -1.706076 -3.537575 -0.151514
v -1.706595 4.064942 0.145528
v 1.706069 -3.537575 0.151485
v -1.706594 -3.537575 0.145529
v 1.706587 -3.537575 -0.145558
v 2.003631 -3.537575 -0.145040
v 1.706069 4.064942 0.151484
v 2.003631 4.064942 -0.145040
v -2.003117 -3.537575 -0.152033
v -2.003636 -3.537575 0.145011
v -2.003637 4.064942 0.145010
v -1.706077 4.062593 -0.151515
vt 0.827266 -0.095411
vt 0.837134 -1.148551
vt 0.923540 -0.097826
vt 0.828233 -1.150628
vt 0.933054 -1.150628
vt 0.836133 -0.093237
vt 0.855248 -0.150966
vt 0.855248 0.911429
vt 0.904755 -0.150612
vt -0.095244 0.904584
vt -0.095244 -0.145023
vt -0.144751 0.904584
vt 0.933408 -1.150966
vt -0.090244 0.905023
vt -0.090244 -0.144585
vt -0.139751 0.905023
vt 0.904755 0.911429
vt -0.144751 -0.145023
vt 0.860248 -0.145023
vt 0.860248 0.904584
vt 0.909755 -0.145023
vt -0.025334 -0.333852
vt -0.025248 -0.284345
vt 0.024173 -0.333938
vt 0.940954 -0.093237
vt 0.024260 -0.284431
vt -0.025247 0.284345
vt -0.025334 0.333852
vt 0.024260 0.284431
vt 0.909756 0.904584
vt -0.139751 -0.144585
vt 0.024173 0.333938
vt 0.940450 -0.087359
vt 0.836632 -0.087359
vt 0.940454 -1.156505
vt 0.025339 0.333853
vt 0.025252 0.284346
vt -0.024168 0.333939
vt 0.936235 -1.150966
vt 0.926367 -0.097826
vt 0.839961 -1.148551
vt -0.024255 0.284432
vt 0.830093 -0.095411
vt -0.026837 -0.336621
vt -0.026925 -0.287114
vt 0.022669 -0.336534
vt 0.836636 -1.156505
vt 0.022584 -0.287026
vn -0.001700 0.000000 1.000000
vn 0.001700 -0.000000 -1.000000
vn 1.000000 0.000000 0.001700
vn -1.000000 -0.000000 -0.001700
vn 0.000000 -1.000000 0.000000
vn 0.000000 1.000000 0.000000
vn 0.007900 0.999900 -0.007900
usemtl EVT_OC_MAINGATE02_01_1
s off
f 11/1/1 7/2/1 3/3/1
f 1/4/2 12/5/2 9/6/2
f 6/7/3 8/8/3 16/9/3
f 4/10/4 13/11/4 15/12/4
f 2/13/1 3/3/1 7/2/1
f 10/14/3 12/15/3 2/16/3
f 5/17/3 16/9/3 8/8/3
f 14/18/4 15/12/4 13/11/4
f 7/19/4 11/20/4 9/21/4
f 2/22/5 7/23/5 10/24/5
f 10/25/2 9/6/2 12/5/2
f 9/26/5 10/24/5 7/23/5
f 11/27/6 3/28/6 1/29/6
f 1/30/4 9/21/4 11/20/4
f 3/31/3 2/16/3 12/15/3
f 12/32/6 1/29/6 3/28/6
f 5/33/2 13/34/2 16/35/2
f 13/36/5 5/37/5 14/38/5
f 8/39/1 6/40/1 14/41/1
f 8/42/5 14/38/5 5/37/5
f 15/43/1 14/41/1 6/40/1
f 15/44/6 6/45/6 4/46/6
f 4/47/2 16/35/2 13/34/2
f 16/48/7 4/46/7 6/45/7
