# Blender v2.75 (sub 0) OBJ File: 'Empty.blend'
# www.blender.org
mtllib EVT_ADDON_NW_TROLLPORTAL_PORTAL_06.mtl
o EVT_ADDON_NW_TROLLPORTAL_PORTAL_06
v 1.168713 -2.024230 0.197248
v -1.971788 -1.654525 0.197185
v 0.985910 -0.827258 0.196998
v 0.446980 -2.534885 0.197185
v 1.609325 -1.654512 0.197275
v 0.223496 -1.267437 0.196998
v -1.168693 -2.024243 0.097248
v -0.446961 -2.534885 -0.297645
v 1.971809 -1.654525 -0.297645
v -0.985889 -0.827258 -0.297832
v -0.405876 -2.301886 0.097244
v -1.609304 -1.654526 0.097274
v -0.985889 -0.827258 0.196998
v 0.985910 -0.827258 -0.297832
v -1.971788 -1.654526 -0.297645
v -0.223475 -1.267437 -0.297832
v 1.971809 -1.654525 0.197186
v -1.286990 -2.229139 0.197185
v 0.405896 -2.301872 0.197244
v -0.405876 -2.301872 0.197244
v 1.287010 -2.229140 -0.297645
v 0.985910 -1.131418 0.097127
v 0.985910 -1.131405 0.197127
v -0.264559 -1.500424 0.197118
v -0.264559 -1.500438 0.097118
v -0.985888 -1.131404 0.197127
v -0.985889 -1.131418 0.097127
v 1.609325 -1.654526 0.097275
v -1.609304 -1.654512 0.197274
v -0.761786 -1.319448 0.197114
v 0.405896 -2.301886 0.097244
v 0.643511 -1.114565 -0.297832
v -0.223475 -1.267437 0.196998
v 1.287010 -2.229140 0.197185
v -0.446960 -2.534885 0.197185
v 0.446981 -2.534885 -0.297645
v -1.286990 -2.229139 -0.297645
v 0.264580 -1.500438 0.097118
v 0.761808 -1.319448 0.197114
v 1.168713 -2.024244 0.097248
v -1.168692 -2.024229 0.197248
v 0.264580 -1.500425 0.197118
v 0.643511 -1.114565 0.196998
v 0.223496 -1.267437 -0.297832
v -0.643489 -1.114564 0.196998
v -0.643489 -1.114565 -0.297832
v 0.761808 -1.319462 0.097114
v -0.761786 -1.319462 0.097114
v 0.223496 -1.267437 0.096998
v 0.643511 -1.114565 0.096998
v -0.985889 -0.827258 0.096998
v -1.971788 -1.654525 0.097185
v -0.643489 -1.114564 0.096998
v -0.223475 -1.267437 0.096998
v 1.971809 -1.654525 0.097186
v 0.985910 -0.827258 0.096998
vt 0.888431 -0.010346
vt -0.012528 -0.010346
vt -0.012528 -1.008969
vt 0.888430 -1.008969
vt 1.471516 -0.806781
vt 2.505933 -0.807159
vt 2.505933 -0.010347
vt -1.505933 -0.807159
vt -0.844082 -1.008969
vt -0.844082 -0.010346
vt 1.471516 -0.009970
vt 0.724814 -0.806781
vt 1.140591 -0.806781
vt 1.140591 -0.009969
vt 2.468624 -0.807159
vt 1.750126 -0.010346
vt 1.750126 -1.008969
vt -0.515762 -0.806781
vt -0.156513 -0.806781
vt -0.156513 -0.009969
vt 0.724814 -0.009969
vt 2.468624 -1.008970
vt -1.505933 -0.010347
vt 0.274335 -0.806781
vt 0.274335 -0.009969
vt -0.515762 -0.009969
vt -1.468624 -0.807159
vt 2.468624 -0.010347
vt -1.468624 -0.010347
vt -1.505933 -1.008970
vt 0.122379 -0.356347
vt 0.444129 0.200941
vt 0.024114 0.353814
vt 0.405321 -0.693544
vt 1.010013 -0.473454
vt 0.786528 -0.086366
vt 0.444129 -0.913634
vt -0.087629 -0.279910
vt 0.405321 -1.133724
vt 1.010013 -1.353814
vt 1.087629 -0.913634
vt 0.293578 -0.500000
vt 0.670748 -0.704613
vt 0.903817 -0.530331
vt 0.777211 -0.100461
vt 0.625289 -0.214064
vt 0.463102 -0.216894
vt 0.421931 -0.708955
vt 0.051335 -0.318547
vt 0.187377 -0.542835
vt 0.310213 -0.108612
vt 1.037880 -0.301329
vt 0.845397 0.016012
vt 0.241020 0.005464
vt 0.241539 -0.194102
vt 1.053311 -0.194103
vt 1.094400 0.038910
vt 0.383663 -0.193704
vt 0.958841 -0.194708
vt 1.000340 0.038230
vt 0.453615 -0.181486
vt -0.878784 -0.181492
vt -0.878773 -0.014826
vt 0.017280 -0.196617
vt 0.546406 -0.192923
vt 0.503697 0.039771
vt 1.108847 0.040441
vt -0.178136 0.047180
vt 0.098327 -0.187261
vt 1.152857 0.045825
vt 0.258929 0.041144
vt 0.301232 -0.191650
vt 0.619674 0.035248
vt 0.172728 0.039928
vt 0.365779 -0.195096
vt 0.155053 -0.187380
vt 0.966814 -0.183131
vt 1.006673 0.050094
vt -0.130686 -0.014820
vt 0.905737 -0.014826
vt 0.905757 -0.181492
vt 0.912128 -0.191522
vt 1.629378 -0.189474
vt 2.329403 -0.189474
vt 2.329403 -0.022807
vt 3.346045 -0.022495
vt 1.233632 -0.022807
vt 1.233632 -0.189474
vt 3.346045 -0.189162
vt 1.117905 -1.195389
vt 0.304095 -1.196810
vt 0.026002 -0.964305
vt 0.106401 0.039791
vt 1.146907 0.049321
vt 0.252966 0.049321
vt 0.294059 -0.183689
vt 1.112993 -0.187401
vt 0.453627 -0.014820
vt 1.625307 -0.181486
vt -0.130666 -0.181486
vt 0.697438 0.038921
vt 0.250469 0.038141
vt 0.209796 -0.194918
vt 1.312999 -0.962058
vt 1.875618 -0.181538
vt 0.601064 -0.181292
vt 0.601084 -0.014625
vt 0.246528 -0.014609
vt 1.010274 -0.014609
vt 1.010286 -0.181276
vt 0.246540 -0.181276
vt 0.082442 -0.200751
vt 0.611561 -0.196134
vt 0.568450 0.036486
vt -0.583913 -0.014603
vt 0.091661 -0.014609
vt 0.091640 -0.181276
vt -1.822851 -0.014870
vt -0.487104 -0.014624
vt -0.487092 -0.181291
vt -0.583933 -0.181270
vt -1.822851 -0.181538
vt -1.822839 -0.014871
vt 1.875638 -0.014871
vt 1.806555 -0.014870
vt 1.806575 -0.181537
vt -1.822839 -0.181537
vt 0.658307 -0.198160
vt -1.042102 -0.181291
vt -1.042082 -0.014624
vt 1.625319 -0.014820
vt 0.056737 0.036651
vt 0.200459 0.038910
vt 0.112745 0.045413
vt 1.878774 -0.014603
vt 1.878786 -0.181270
vt 0.968320 -1.191778
vt 0.675783 -1.193821
vt 0.478659 -0.962201
vt 2.358952 -0.181292
vt 0.869237 -0.183689
vt 0.738933 -0.193994
vt 0.925619 -0.959081
vt 0.121496 0.032586
vt 2.358941 -0.014625
vt -0.878780 -0.189474
vt -0.145147 -0.189474
vt -0.145147 -0.022807
vt 0.499999 -0.022807
vt -1.612413 -0.189474
vt -0.878780 -0.022807
vt 1.629378 -0.022807
vt 1.058713 -0.189474
vt 0.499999 -0.189474
vt 1.058713 -0.022807
vt 0.686237 -0.022807
vt -1.329404 -0.022495
vt -1.329404 -0.189162
vt -1.612413 -0.022807
vt 0.686237 -0.189474
vn 0.000000 -1.000000 0.000000
vn 0.642800 0.766000 0.000000
vn 0.642800 -0.766000 0.000000
vn -0.342000 0.939700 -0.000000
vn -0.642800 -0.766000 0.000000
vn -0.642800 0.766000 0.000000
vn 0.000000 1.000000 -0.000000
vn 0.342000 -0.939700 -0.000000
vn -0.342000 -0.939700 0.000000
vn 0.342000 0.939700 -0.000000
vn -0.000100 -0.000100 -1.000000
vn -0.000000 -0.000100 -1.000000
vn 0.000100 -0.000100 -1.000000
vn -0.000100 0.000200 1.000000
vn 0.000000 0.000200 1.000000
vn 0.000100 0.000100 1.000000
vn 0.000100 0.000200 1.000000
vn -0.000000 0.000100 1.000000
vn -0.000100 0.000100 1.000000
vn 0.000100 -0.000200 1.000000
vn -0.342000 0.939700 -0.000100
vn 0.000000 0.000500 1.000000
vn -0.000200 0.000500 1.000000
vn 0.000000 -0.000300 1.000000
vn 0.000400 0.000400 1.000000
vn -0.000100 -0.000300 1.000000
vn 0.342000 0.939700 -0.000100
vn -0.000100 0.000400 1.000000
vn 0.000200 0.000600 1.000000
vn 0.000200 -0.000300 1.000000
vn -0.000200 -0.000200 1.000000
vn 0.000000 1.000000 -0.000100
vn 0.000200 0.000400 1.000000
vn -0.642800 -0.766000 0.000100
vn -0.000000 -1.000000 0.000100
vn 0.000200 0.000500 1.000000
vn -0.342000 -0.939700 0.000100
vn 0.642800 -0.766000 0.000100
vn -0.642800 0.766000 -0.000100
vn 0.642800 0.766000 -0.000100
vn 0.000100 -0.000300 1.000000
vn -0.000100 -0.000200 1.000000
vn 0.342000 -0.939700 0.000100
vn -0.000400 0.000400 1.000000
vn -0.000200 -0.000400 1.000000
vn -0.000300 0.000400 1.000000
usemtl NW_SEQ_MAYA_WALL_GREEN_07_XL
s off
f 8/1/1 36/2/1 4/3/1
f 4/3/1 35/4/1 8/1/1
f 56/5/2 55/6/2 9/7/2
f 55/8/3 34/9/3 21/10/3
f 9/7/2 14/11/2 56/5/2
f 49/12/4 50/13/4 32/14/4
f 52/15/5 37/16/5 18/17/5
f 51/18/2 53/19/2 46/20/2
f 32/14/4 44/21/4 49/12/4
f 18/17/5 2/22/5 52/15/5
f 21/10/3 9/23/3 55/8/3
f 14/11/6 32/14/6 50/13/6
f 54/24/7 49/12/7 44/21/7
f 34/9/8 4/3/8 36/2/8
f 35/4/9 18/17/9 37/16/9
f 36/2/8 21/10/8 34/9/8
f 37/16/9 8/1/9 35/4/9
f 50/13/6 56/5/6 14/11/6
f 44/21/7 16/25/7 54/24/7
f 53/19/10 54/24/10 16/25/10
f 16/25/10 46/20/10 53/19/10
f 46/20/2 10/26/2 51/18/2
f 52/27/6 51/18/6 10/26/6
f 37/16/5 52/15/5 15/28/5
f 10/26/6 15/29/6 52/27/6
f 34/9/3 55/8/3 17/30/3
usemtl NW_SEQ_MAYA_WALL_GREEN_05
f 46/31/11 37/32/11 15/33/11
f 44/34/12 36/35/12 8/36/12
f 36/35/13 44/34/13 32/37/13
f 15/33/11 10/38/11 46/31/11
f 14/39/13 9/40/13 21/41/13
f 21/41/13 32/37/13 14/39/13
f 32/37/13 21/41/13 36/35/13
f 16/42/11 8/36/11 37/32/11
f 8/36/12 16/42/12 44/34/12
f 37/32/11 46/31/11 16/42/11
usemtl NW_SEQ_MAYA_WALL_PAINTEDGREEN_03
f 31/43/14 40/44/14 47/45/14
f 38/46/15 25/47/15 11/48/15
f 12/49/16 7/50/16 48/51/16
f 7/50/16 11/48/16 25/47/16
f 25/47/17 48/51/17 7/50/17
f 11/48/15 31/43/15 38/46/15
f 47/45/18 38/46/18 31/43/18
f 40/44/19 28/52/19 22/53/19
f 22/53/19 47/45/19 40/44/19
f 48/51/16 27/54/16 12/49/16
usemtl NW_DRAGONISLAND_TEMPLE_03
f 1/55/20 19/56/20 4/57/20
f 5/58/20 1/59/20 34/60/20
f 19/61/21 1/62/21 40/63/21
f 24/64/22 42/65/22 6/66/22
f 13/67/23 2/68/23 29/69/23
f 35/70/24 4/71/24 19/72/24
f 45/73/25 13/74/25 26/75/25
f 20/76/26 41/77/26 18/78/26
f 11/79/27 7/80/27 41/81/27
f 29/69/28 26/82/28 13/67/28
f 53/83/2 51/84/2 13/85/2
f 2/86/6 13/87/6 51/88/6
f 51/88/6 52/89/6 2/86/6
f 23/90/29 5/91/29 17/92/29
f 34/60/30 17/93/30 5/58/30
f 2/94/31 18/95/31 41/96/31
f 19/72/24 20/97/24 35/70/24
f 40/63/21 31/98/21 19/61/21
f 20/99/32 19/61/32 31/98/32
f 41/81/27 20/100/27 11/79/27
f 43/101/23 6/102/23 42/103/23
f 17/92/33 3/104/33 23/90/33
f 5/105/34 23/106/34 22/107/34
f 25/108/35 38/109/35 42/110/35
f 42/110/35 24/111/35 25/108/35
f 30/112/36 24/113/36 33/114/36
f 48/115/37 25/116/37 24/117/37
f 12/118/38 27/119/38 26/120/38
f 24/117/37 30/121/37 48/115/37
f 1/62/39 5/122/39 28/123/39
f 22/107/34 28/124/34 5/105/34
f 7/80/40 12/125/40 29/126/40
f 26/120/38 29/127/38 12/118/38
f 26/75/25 30/128/25 45/73/25
f 30/121/34 26/129/34 27/130/34
f 31/98/32 11/131/32 20/99/32
f 6/66/22 33/132/22 24/64/22
f 4/57/41 34/133/41 1/55/41
f 18/78/42 35/134/42 20/76/42
f 38/109/43 47/135/43 39/136/43
f 39/137/44 23/138/44 3/139/44
f 23/140/38 39/136/38 47/135/38
f 28/123/39 40/63/39 1/62/39
f 41/96/45 29/141/45 2/94/45
f 29/126/40 41/81/40 7/80/40
f 42/103/23 39/142/23 43/101/23
f 39/136/43 42/110/43 38/109/43
f 3/139/46 43/143/46 39/137/46
f 33/114/36 45/144/36 30/112/36
f 47/135/38 22/145/38 23/140/38
f 27/130/34 48/115/34 30/121/34
f 50/146/4 49/147/4 6/148/4
f 33/149/7 6/148/7 49/147/7
f 56/150/6 50/146/6 43/151/6
f 6/148/4 43/151/4 50/146/4
f 13/85/2 45/152/2 53/83/2
f 54/153/10 53/83/10 45/152/10
f 49/147/7 54/154/7 33/149/7
f 33/155/10 54/153/10 45/152/10
f 3/156/2 17/157/2 55/158/2
f 43/151/6 3/159/6 56/150/6
f 55/158/2 56/160/2 3/156/2
