# Blender v2.75 (sub 0) OBJ File: 'Empty.blend'
# www.blender.org
mtllib EVT_MAINHALL_PILLAR_01.mtl
o EVT_MAINHALL_PILLAR_01
v 0.242715 -0.749990 -0.176345
v -0.242695 0.750010 0.176326
v -0.299990 -0.749990 -0.000009
v 0.300010 0.750010 -0.000009
v -0.092695 -0.749990 0.285308
v 0.092715 0.750010 -0.285326
v -0.242695 0.750010 -0.176345
v 0.242715 -0.749990 0.176326
v -0.092695 -0.749990 -0.285326
v 0.092715 0.750010 0.285308
v 0.242715 0.750010 -0.176345
v 0.092715 -0.749990 -0.285326
v -0.242695 -0.749990 0.176326
v 0.300010 -0.749990 -0.000009
v -0.092695 0.750010 0.285308
v -0.092695 0.750010 -0.285326
v -0.242695 -0.749990 -0.176345
v 0.242715 0.750010 0.176326
v -0.299990 0.750010 -0.000009
v 0.092715 -0.749990 0.285308
vt 0.621353 -0.411832
vt 0.650000 -0.500000
vt 0.546353 -0.357342
vt 0.546353 -0.642659
vt 0.378648 -0.411832
vt 0.378647 -0.588168
vt 0.453647 -0.357342
vt 0.453647 -0.642658
vt 0.350000 -0.500000
vt 0.621352 -0.588168
vt 0.947605 -0.000499
vt 0.947605 -0.999501
vt 0.846233 -0.000499
vt 0.846233 -0.999501
vt 0.750000 -0.000499
vt 0.447605 -0.999501
vt 0.447605 -0.000499
vt 0.552395 -0.999501
vt 0.250000 -0.999501
vt 0.250000 -0.000499
vt 0.346233 -0.999501
vt 0.346233 -0.000499
vt -0.052395 -0.999501
vt -0.052395 -0.000499
vt 0.052395 -0.999501
vt 0.552395 -0.000499
vt 0.153767 -0.000499
vt 0.153767 -0.999501
vt 0.052395 -0.000499
vt 0.653767 -0.999501
vt 0.750000 -0.999501
vt 0.653767 -0.000499
vn 0.000000 -1.000000 0.000000
vn 0.000000 1.000000 -0.000000
vn 0.587800 0.000000 -0.809000
vn 0.951100 0.000000 -0.309000
vn 0.000000 0.000000 1.000000
vn -0.951100 0.000000 0.309000
vn 0.000000 0.000000 -1.000000
vn -0.587800 -0.000000 -0.809000
vn 0.587800 0.000000 0.809000
vn -0.587800 0.000000 0.809000
vn 0.951100 0.000000 0.309000
vn -0.951100 0.000000 -0.309000
usemtl NW_MONASTERY_WALL_83
s off
f 1/1/1 14/2/1 12/3/1
f 10/4/2 7/5/2 2/6/2
f 4/2/2 6/3/2 7/5/2
f 17/5/1 20/4/1 13/6/1
f 12/3/1 14/2/1 17/5/1
f 10/4/2 4/2/2 7/5/2
f 4/2/2 11/1/2 6/3/2
f 9/7/1 12/3/1 17/5/1
f 13/6/1 20/4/1 5/8/1
f 14/2/1 20/4/1 17/5/1
f 10/4/2 2/6/2 15/8/2
f 6/3/2 16/7/2 7/5/2
f 3/9/1 17/5/1 13/6/1
f 10/4/2 18/10/2 4/2/2
f 7/5/2 19/9/2 2/6/2
f 8/10/1 20/4/1 14/2/1
usemtl NW_MONASTERY_WALL_30B
f 12/11/3 6/12/3 1/13/3
f 1/13/4 11/14/4 14/15/4
f 15/16/5 5/17/5 10/18/5
f 19/19/6 3/20/6 2/21/6
f 13/22/6 2/21/6 3/20/6
f 11/14/3 1/13/3 6/12/3
f 6/23/7 12/24/7 16/25/7
f 20/26/5 10/18/5 5/17/5
f 17/27/8 7/28/8 9/29/8
f 10/18/9 20/26/9 18/30/9
f 4/31/4 14/15/4 11/14/4
f 9/29/7 16/25/7 12/24/7
f 5/17/10 15/16/10 13/22/10
f 14/15/11 4/31/11 8/32/11
f 2/21/10 13/22/10 15/16/10
f 16/25/8 9/29/8 7/28/8
f 3/20/12 19/19/12 17/27/12
f 18/30/11 8/32/11 4/31/11
f 7/28/12 17/27/12 19/19/12
f 8/32/9 18/30/9 20/26/9
