# Blender v2.75 (sub 0) OBJ File: 'Empty.blend'
# www.blender.org
mtllib EVT_ADDON_LSTTEMP_DOOR_BIGHEAD_01.mtl
o EVT_ADDON_LSTTEMP_DOOR_BIGHEAD_01
v 1.349942 1.374799 0.252187
v -1.351523 -1.374779 -0.252188
v 1.351563 -1.374779 0.252187
v -1.350703 1.374799 0.247812
v -1.349882 1.374799 -0.252207
v -1.352343 -1.374779 0.247793
v 1.350742 1.374799 -0.247793
v 1.352364 -1.374779 -0.247793
v -1.350703 0.000010 -0.252197
v -1.351523 0.000010 0.247802
v -0.000382 0.000010 0.249993
v 0.000423 0.000010 -0.249995
v 0.000420 -1.374779 -0.249990
v -0.000390 -1.374779 0.249990
v 1.351553 0.000010 -0.247793
v 1.350752 0.000010 0.252187
v -0.000351 1.374799 0.249980
v 0.000410 1.374799 -0.250000
vt 0.831389 -0.846614
vt 0.456953 -0.247989
vt 0.344691 -0.734248
vt -0.142004 -0.621874
vt -0.029582 -0.134920
vt 0.943719 -0.360060
vt 0.249186 -0.790498
vt 0.249188 -0.604754
vt 0.500000 -0.604754
vt 0.755399 -0.604754
vt 0.755399 -0.790498
vt 0.500039 -0.790498
vt 0.732181 -0.604754
vt 0.732181 -0.790498
vt 0.755321 -0.604754
vt 0.755321 -0.790498
vt 0.244679 -0.790498
vt 0.244679 -0.604754
vt 0.267820 -0.790498
vt 0.267819 -0.604754
vt 0.244601 -0.790498
vt 0.244601 -0.604753
vt 0.750813 -0.604753
vt 0.750812 -0.790498
vn -0.001600 -0.000000 1.000000
vn 0.001600 -0.000000 -1.000000
vn 0.000000 1.000000 0.000000
vn -1.000000 0.000600 -0.001600
vn 0.000000 -1.000000 0.000000
vn 1.000000 0.000600 0.001600
usemtl NW_SEQ_CANYONTEMPLE_BORDE_01
s off
f 14/1/1 16/2/1 11/3/1
f 15/2/2 13/1/2 12/3/2
f 17/4/1 4/5/1 10/2/1
f 9/2/2 5/5/2 18/4/2
f 13/1/2 2/6/2 9/2/2
f 10/2/1 6/6/1 14/1/1
f 17/4/1 10/2/1 11/3/1
f 10/2/1 14/1/1 11/3/1
f 13/1/2 9/2/2 12/3/2
f 9/2/2 18/4/2 12/3/2
f 15/2/2 8/6/2 13/1/2
f 14/1/1 3/6/1 16/2/1
f 18/4/2 15/2/2 12/3/2
f 16/2/1 17/4/1 11/3/1
f 16/2/1 1/5/1 17/4/1
f 18/4/2 7/5/2 15/2/2
usemtl NW_SEQ_MAYA_WALL_GREEN_07_XL
f 5/7/3 4/8/3 17/9/3
f 4/10/4 5/11/4 9/12/4
f 6/13/5 2/14/5 13/12/5
f 9/12/4 10/9/4 4/10/4
f 17/9/3 18/12/3 5/7/3
f 15/12/6 16/9/6 3/15/6
f 3/15/6 8/16/6 15/12/6
f 13/12/5 14/9/5 6/13/5
f 10/9/4 9/12/4 2/17/4
f 2/17/4 6/18/4 10/9/4
f 14/9/5 13/12/5 8/19/5
f 8/19/5 3/20/5 14/9/5
f 16/9/6 15/12/6 7/21/6
f 7/21/6 1/22/6 16/9/6
f 18/12/3 17/9/3 1/23/3
f 1/23/3 7/24/3 18/12/3
