# Blender v2.75 (sub 0) OBJ File: 'Empty.blend'
# www.blender.org
mtllib EVT_MAINHALL_RING_LEFT_01.mtl
o EVT_MAINHALL_RING_LEFT_01
v -0.947497 -0.836735 -0.025010
v -1.422395 0.000010 -0.025010
v -0.947497 0.836755 -0.025010
v 0.000010 1.209533 -0.025010
v -0.789044 0.632382 -0.025010
v -0.984659 0.231758 -0.025010
v -0.663834 0.828303 0.024990
v 0.000010 -1.209513 -0.025010
v -0.984659 -0.231738 -0.025010
v -0.953701 -0.466675 0.024990
v -0.663834 -0.828283 0.024990
v -0.789044 -0.632362 -0.025010
v -0.444561 -0.908509 -0.025010
v -0.243175 -1.033671 0.024990
v -0.444561 0.908529 -0.025010
v -0.243175 1.033691 0.024990
v 0.000010 -1.011398 -0.025010
v 0.000010 -1.159181 0.024990
v 0.000010 1.011418 -0.025010
v 0.000010 1.159201 0.024990
v -0.953701 0.466695 0.024990
v -1.263990 -0.113561 -0.025010
v -1.263990 0.113581 -0.025010
v -1.300990 0.000010 0.024990
v -0.836483 -0.947745 -0.025010
v -1.096987 -0.986252 -0.025010
v -0.724760 -0.904365 0.024990
v -0.836483 0.947765 -0.025010
v -1.096987 0.986272 -0.025010
v -0.724760 0.904385 0.024990
v -1.199490 0.215716 0.024990
v 0.000010 1.061749 0.024990
v 0.000010 -1.061729 0.024990
v -0.277133 1.177557 -0.025010
v -0.277133 -1.177537 -0.025010
v -1.199490 -0.215696 0.024990
v -1.333990 -0.113464 -0.025010
v -1.239990 -0.110702 -0.000010
v -1.333990 0.113485 -0.025010
v -1.239990 0.110722 -0.000010
v -1.061729 0.000010 0.024990
v -0.914563 -0.914562 0.024990
v -0.904365 -0.724760 0.024990
v -0.914563 0.914582 0.024990
v -0.904365 0.724780 0.024990
v -1.033671 -0.243174 0.024990
v -0.466675 -0.953701 0.024990
v -0.466675 0.953721 0.024990
v -1.328440 0.000010 -0.000010
v -1.394990 0.000010 -0.000010
v -1.308990 -0.110605 -0.000010
v -1.308990 0.110625 -0.000010
v -1.248490 -0.227132 -0.025010
v -1.128990 -0.265696 0.024990
v -1.248490 0.227152 -0.025010
v -1.128990 0.265716 0.024990
v -0.932240 -0.932240 -0.000010
v -0.986067 -1.096802 -0.025010
v -1.091527 -1.091527 -0.025010
v -1.073527 -1.073849 -0.000010
v -0.836368 -0.928112 -0.000010
v -0.978027 -1.069721 -0.000010
v -0.932240 0.932260 -0.000010
v -0.986067 1.096822 -0.025010
v -1.091527 1.091547 -0.025010
v -1.073527 1.073869 -0.000010
v -0.836368 0.928132 -0.000010
v -0.978027 1.069741 -0.000010
v -0.928115 -0.836368 -0.000010
v -1.069527 -0.977977 -0.000010
v -0.928115 0.836388 -0.000010
v -1.069527 0.977997 -0.000010
v -0.531644 -1.086470 -0.025010
v -0.756232 -0.943604 -0.025010
v -0.531644 1.086490 -0.025010
v -0.756232 0.943624 -0.025010
v -1.177537 0.277152 -0.025010
v -1.177537 -0.277132 -0.025010
v -1.214990 -0.107843 0.024990
v -1.214990 0.107863 0.024990
v -0.265696 1.128545 0.024990
v -0.265696 -1.128525 0.024990
v -0.943605 -0.756232 -0.025010
v -1.086470 -0.531644 -0.025010
v -0.943605 0.756252 -0.025010
v -1.086470 0.531664 -0.025010
v -0.509530 -1.041278 0.024990
v -0.509530 1.041298 0.024990
v -1.041279 -0.509529 0.024990
v -1.041279 0.509549 0.024990
v -1.033671 0.243194 0.024990
v -1.011398 0.000010 -0.025010
v -0.231738 -0.984659 -0.025010
v -0.231738 0.984679 -0.025010
v -0.828284 -0.663833 0.024990
v -0.828284 0.663853 0.024990
v -0.908509 -0.444561 -0.025010
v -0.908509 0.444581 -0.025010
v -0.632362 -0.789044 -0.025010
v -0.632362 0.789064 -0.025010
v -0.740496 0.924004 -0.000010
v -0.740496 -0.923984 -0.000010
v -0.923990 0.740516 -0.000010
v -0.923990 -0.740496 -0.000010
v -1.350990 0.000010 -0.025010
v -1.229990 0.000010 0.024990
v -1.159181 0.000010 0.024990
vt 0.333988 -0.051759
vt 0.555471 0.001665
vt 0.647115 -0.051603
vt 0.152523 -0.349295
vt 0.927198 0.050520
vt 1.349251 -0.349470
vt 0.544435 0.000565
vt 0.367004 -0.067094
vt 0.558539 -0.069788
vt 0.238976 0.001668
vt -0.023407 0.002341
vt 0.497800 -0.334373
vt 1.019006 0.002342
vt 0.175369 -0.063903
vt 0.073917 0.000484
vt -0.266789 0.050064
vt 0.007360 -0.375367
vt -0.383275 -0.347670
vt -0.438689 -0.375722
vt 1.265901 -0.376716
vt 0.012644 -0.348401
vt 0.572820 -0.140323
vt 0.025036 0.002973
vt -0.257003 0.002963
vt -0.256903 -0.029473
vt 0.025443 -0.189586
vt 0.025174 -0.029469
vt 0.322548 -0.189626
vt 0.925145 -0.029466
vt 0.925727 -0.189567
vt 1.203971 -0.189597
vt 0.369292 0.001812
vt 0.161671 0.001852
vt 0.161767 -0.031325
vt 0.985241 0.001841
vt 0.790801 0.001872
vt 0.791011 -0.031322
vt -0.191979 -0.031323
vt -0.035775 0.001788
vt -0.035725 -0.031334
vt -0.257103 -0.189650
vt -0.480631 -0.029468
vt 0.585252 -0.031319
vt 1.203850 -0.029471
vt 1.167598 0.001904
vt 0.985114 -0.031326
vt 1.464924 -0.189534
vt -0.511408 -0.146652
vt -0.659191 -0.096652
vt -0.709523 -0.146652
vt 1.204032 0.002972
vt 1.709523 -0.146652
vt 1.659191 -0.096652
vt 1.561740 -0.096652
vt -0.232357 -0.441594
vt -0.418683 -0.415549
vt -0.374803 -0.452451
vt 0.631115 -0.189550
vt 0.322522 -0.029475
vt 0.630289 -0.029464
vt 0.630452 -0.012983
vt 0.630450 0.002979
vt 0.924844 0.002976
vt -0.544402 -0.029364
vt -0.389706 -0.029406
vt -0.404502 -0.018756
vt 1.167598 -0.031317
vt 1.511408 -0.146652
vt -0.561739 -0.096652
vt 1.464924 0.002981
vt -0.275375 -0.405419
vt -0.328386 -0.029389
vt -0.352259 0.002930
vt -0.490832 0.002881
vt -0.418603 0.002824
vt -0.191979 0.001863
vt 0.576109 -0.013752
vt 0.477489 -0.029935
vt 0.401230 -0.013752
vt 0.584922 0.001889
vt -0.563417 -0.018692
vt -0.628807 0.002862
vt -0.609824 -0.018728
vt -0.476035 -0.018677
vt 0.477386 -0.013752
vt 0.592315 0.003277
vt 0.323803 -0.013597
vt 0.385329 0.003277
vt 1.464924 -0.029462
vt 0.323803 0.002966
vt 0.369268 -0.031330
vt -0.480631 -0.189575
vn -0.000000 -0.000000 1.000000
vn -0.040100 -0.802000 0.596000
vn -0.796800 -0.041300 0.602900
vn 0.618900 -0.619100 0.483400
vn 0.029500 -0.682700 0.730100
vn 0.621000 -0.623200 0.475400
vn -0.040100 0.802000 0.596000
vn -0.796800 0.041300 0.602900
vn 0.618900 0.619100 0.483400
vn 0.029500 0.682700 0.730100
vn 0.621000 0.623200 0.475400
vn -0.623100 0.622200 0.473900
vn -0.677600 0.028300 0.734900
vn -0.621500 0.621400 0.477000
vn -0.623100 -0.622200 0.473900
vn -0.677600 -0.028300 0.734900
vn -0.621500 -0.621400 0.477000
vn -0.668700 0.239300 0.704000
vn 0.596600 -0.379500 0.707100
vn 0.238200 -0.665800 0.707100
vn 0.238200 0.665800 0.707100
vn 0.702400 0.081000 0.707100
vn 0.596600 0.379500 0.707100
vn 0.665800 0.238200 0.707100
vn 0.379500 0.596600 0.707100
vn 0.081000 0.702400 0.707100
vn 0.379500 -0.596600 0.707100
vn 0.081000 -0.702400 0.707100
vn 1.000000 -0.000000 0.000000
vn -0.238200 -0.665800 0.707100
vn -0.238200 0.665800 0.707100
vn 0.665800 -0.238200 0.707100
vn -0.668700 -0.239300 0.704000
vn 0.000000 0.000000 -1.000000
vn -0.379500 -0.596600 0.707100
vn -0.379500 0.596600 0.707100
vn -0.594800 0.474300 0.649000
vn -0.081000 0.702400 0.707100
vn -0.081000 -0.702400 0.707100
vn -0.594800 -0.474300 0.649000
vn -0.698900 -0.101000 0.708000
vn -0.001400 -0.993400 0.114900
vn -0.698900 0.101000 0.708000
vn -0.001400 0.993400 0.114900
vn 0.702400 -0.081000 0.707100
vn 0.043800 -0.814600 0.578400
vn -0.814500 0.043800 0.578400
vn -0.665300 -0.239300 0.707200
vn 0.043800 0.814600 0.578400
vn -0.814500 -0.043800 0.578400
vn -0.665300 0.239300 0.707200
vn -0.593000 0.473700 0.651100
vn -0.593000 -0.473700 0.651100
vn -0.596700 0.464900 0.654100
vn -0.596700 -0.464900 0.654100
vn -0.598700 -0.465400 0.651900
vn -0.001400 -0.993400 0.115000
vn -0.598700 0.465400 0.651900
vn -0.001400 0.993400 0.115000
vn -0.712400 -0.097200 0.695000
vn -0.463200 -0.653100 0.599100
vn -0.712400 0.097200 0.695000
vn -0.463200 0.653100 0.599100
vn 0.035600 -0.827700 0.560100
vn -0.827700 0.035600 0.560100
vn 0.033800 -0.786100 0.617200
vn 0.035600 0.827700 0.560100
vn -0.827700 -0.035600 0.560100
vn 0.033800 0.786100 0.617200
vn -0.790100 0.034000 0.612000
vn -0.790100 -0.034000 0.612000
vn 0.041200 -0.798400 0.600700
vn 0.041200 0.798400 0.600700
vn -0.460500 0.653500 0.600800
vn -0.460500 -0.653500 0.600800
vn -0.697800 -0.100300 0.709300
vn -0.697800 0.100300 0.709300
vn -0.797800 0.038600 0.601700
vn -0.596700 -0.379600 0.707000
vn -0.797800 -0.038600 0.601700
vn -0.596700 0.379600 0.707000
vn -0.596600 -0.379500 0.707100
vn -0.596600 0.379500 0.707100
vn 0.500000 0.500000 0.707100
vn 0.500000 -0.500000 0.707100
vn 0.034300 0.796600 0.603600
vn 0.034300 -0.796600 0.603600
vn -0.596600 0.379500 0.707200
vn -0.796500 -0.034300 0.603700
vn -0.596600 -0.379500 0.707200
vn -0.796500 0.034300 0.603700
usemtl NW_HARBOUR_CANON_01
s off
f 51/1/1 49/2/1 50/3/1
f 52/1/1 50/3/1 49/2/1
f 70/4/1 57/5/1 69/6/1
f 57/5/1 62/4/1 61/6/1
f 72/4/1 71/6/1 63/5/1
f 63/5/1 67/6/1 68/4/1
f 107/7/1 80/8/1 106/9/1
f 107/7/1 106/9/1 79/8/1
f 49/2/1 51/1/1 38/10/1
f 49/2/1 40/10/1 52/1/1
f 43/11/1 42/12/1 27/13/1
f 45/11/1 30/13/1 44/12/1
f 107/7/1 36/14/1 54/15/1
f 107/7/1 56/15/1 31/14/1
f 62/4/1 57/5/1 60/16/1
f 57/5/1 70/4/1 60/16/1
f 58/17/2 60/18/2 59/19/2
f 60/18/3 26/17/3 59/19/3
f 62/4/4 25/20/4 61/6/4
f 60/18/5 58/17/5 62/21/5
f 25/20/6 62/4/6 58/17/6
f 68/4/1 66/16/1 63/5/1
f 63/5/1 66/16/1 72/4/1
f 64/17/7 65/19/7 66/18/7
f 66/18/8 65/19/8 29/17/8
f 68/4/9 67/6/9 28/20/9
f 66/18/10 68/21/10 64/17/10
f 28/20/11 64/17/11 68/4/11
f 1/20/12 70/4/12 69/6/12
f 26/17/13 60/18/13 70/21/13
f 70/4/14 1/20/14 26/17/14
f 3/20/15 71/6/15 72/4/15
f 29/17/16 72/21/16 66/18/16
f 72/4/17 29/17/17 3/20/17
f 107/7/1 79/8/1 36/14/1
f 107/7/1 31/14/1 80/8/1
f 106/9/1 80/8/1 24/22/1
f 106/9/1 24/22/1 79/8/1
usemtl NW_MONASTERY_WALL_30B
f 86/23/18 77/24/18 56/25/18
f 21/26/1 90/27/1 56/25/1
f 90/27/1 21/26/1 96/28/1
f 88/29/1 48/30/1 16/31/1
f 10/26/1 54/25/1 89/27/1
f 96/32/19 21/33/19 98/34/19
f 16/35/20 48/36/20 15/37/20
f 87/29/1 14/31/1 47/30/1
f 14/35/21 13/37/21 47/36/21
f 92/38/22 46/39/22 9/40/22
f 46/41/1 107/42/1 54/25/1
f 95/32/23 97/34/23 10/33/23
f 89/27/1 95/28/1 10/26/1
f 9/40/24 10/33/24 97/34/24
f 99/43/25 47/36/25 13/37/25
f 14/31/1 87/29/1 82/44/1
f 33/45/26 93/46/26 14/35/26
f 100/43/27 15/37/27 48/36/27
f 16/31/1 81/44/1 88/29/1
f 32/45/28 16/35/28 94/46/28
f 82/44/1 33/47/1 14/31/1
f 17/48/29 18/49/29 8/50/29
f 87/29/30 35/51/30 82/44/30
f 81/44/1 16/31/1 32/47/1
f 4/52/29 20/53/29 32/54/29
f 88/29/31 81/44/31 34/51/31
f 6/40/32 98/34/32 21/33/32
f 91/41/1 56/25/1 107/42/1
f 84/23/33 54/25/33 78/24/33
f 22/55/34 2/56/34 105/57/34
f 11/58/1 43/59/1 27/60/1
f 102/61/35 74/62/35 73/63/35
f 7/58/1 30/60/1 45/59/1
f 101/61/36 75/63/36 76/62/36
f 24/64/37 80/65/37 40/66/37
f 94/46/28 19/67/28 32/45/28
f 4/52/29 32/54/29 19/68/29
f 93/46/26 33/45/26 17/67/26
f 17/48/29 33/69/29 18/49/29
f 4/70/38 34/51/38 81/44/38
f 8/70/39 82/44/39 35/51/39
f 24/64/40 38/66/40 79/65/40
f 2/56/34 22/55/34 37/71/34
f 36/72/41 38/66/41 53/73/41
f 38/66/42 37/74/42 22/75/42
f 2/56/34 39/71/34 23/55/34
f 31/72/43 55/73/43 40/66/43
f 40/66/44 23/75/44 39/74/44
f 91/39/45 41/76/45 92/38/45
f 46/39/22 92/38/22 41/76/22
f 61/77/46 27/60/46 42/78/46
f 69/79/47 42/78/47 43/59/47
f 54/25/48 84/23/48 89/27/48
f 67/77/49 44/78/49 30/60/49
f 71/79/50 45/59/50 44/78/50
f 56/25/51 90/27/51 86/23/51
f 54/25/1 10/26/1 46/41/1
f 10/33/24 9/40/24 46/39/24
f 27/60/1 47/30/1 11/58/1
f 47/36/25 99/43/25 11/80/25
f 30/60/1 7/58/1 48/30/1
f 48/36/27 7/80/27 100/43/27
f 40/66/52 49/81/52 24/64/52
f 38/66/53 24/64/53 49/81/53
f 39/74/54 2/82/54 50/83/54
f 37/74/55 50/83/55 2/82/55
f 50/83/56 37/74/56 51/84/56
f 37/74/57 38/66/57 51/84/57
f 50/83/58 52/84/58 39/74/58
f 39/74/59 52/84/59 40/66/59
f 38/66/60 22/75/60 53/73/60
f 36/72/61 78/24/61 54/25/61
f 40/66/62 55/73/62 23/75/62
f 31/72/63 56/25/63 77/24/63
f 61/77/64 42/78/64 57/85/64
f 69/79/65 57/85/65 42/78/65
f 25/86/66 102/61/66 61/77/66
f 67/77/67 63/85/67 44/78/67
f 71/79/68 44/78/68 63/85/68
f 28/86/69 67/77/69 101/61/69
f 104/87/70 1/88/70 69/79/70
f 103/87/71 71/79/71 3/88/71
f 35/51/30 87/29/30 73/63/30
f 102/61/72 25/86/72 74/62/72
f 34/51/31 75/63/31 88/29/31
f 101/61/73 76/62/73 28/86/73
f 77/24/74 55/73/74 31/72/74
f 78/24/75 36/72/75 53/73/75
f 36/72/76 79/65/76 38/66/76
f 31/72/77 40/66/77 80/65/77
f 32/47/1 20/89/1 81/44/1
f 81/44/38 20/89/38 4/70/38
f 33/47/1 82/44/1 18/89/1
f 82/44/39 8/70/39 18/89/39
f 1/88/78 104/87/78 83/90/78
f 104/87/79 84/23/79 83/90/79
f 3/88/80 85/90/80 103/87/80
f 103/87/81 85/90/81 86/23/81
f 47/30/1 27/60/1 87/29/1
f 102/61/35 73/63/35 87/29/35
f 48/30/1 88/29/1 30/60/1
f 101/61/36 88/29/36 75/63/36
f 95/28/1 89/27/1 43/59/1
f 104/87/82 89/27/82 84/23/82
f 96/28/1 45/59/1 90/27/1
f 103/87/83 86/23/83 90/27/83
f 56/25/1 91/41/1 21/26/1
f 21/33/32 91/39/32 6/40/32
f 92/38/45 6/40/45 91/39/45
f 13/37/21 14/35/21 93/46/21
f 15/37/20 94/46/20 16/35/20
f 43/59/1 11/58/1 95/28/1
f 11/80/84 12/91/84 95/32/84
f 45/59/1 96/28/1 7/58/1
f 7/80/85 96/32/85 5/91/85
f 97/34/23 95/32/23 12/91/23
f 98/34/19 5/91/19 96/32/19
f 12/91/84 11/80/84 99/43/84
f 5/91/85 100/43/85 7/80/85
f 101/61/36 30/60/36 88/29/36
f 67/77/86 30/60/86 101/61/86
f 102/61/35 87/29/35 27/60/35
f 61/77/87 102/61/87 27/60/87
f 103/87/88 90/27/88 45/59/88
f 71/79/89 103/87/89 45/59/89
f 104/87/90 43/59/90 89/27/90
f 69/79/91 43/59/91 104/87/91
f 23/55/34 105/57/34 2/56/34
f 107/42/1 41/92/1 91/41/1
f 107/42/1 46/41/1 41/92/1
