# Blender v2.75 (sub 0) OBJ File: 'Empty.blend'
# www.blender.org
mtllib FIREPLACE_NCSTONE2.mtl
o FIREPLACE_NCSTONE2
v 0.184080 0.194400 0.006360
v -0.214440 -0.000000 0.006360
v 0.096600 0.029160 -0.304680
v 0.009505 0.111200 -0.075755
v -0.039091 0.212670 -0.173266
v -0.122038 0.111200 -0.241987
v 0.198600 0.000000 0.006360
v -0.214440 -0.000000 -0.204840
v -0.204720 0.184680 0.006360
v 0.088806 0.111200 -0.198635
v 0.193800 0.194400 -0.207480
v -0.097800 0.165240 -0.314400
v 0.111380 -0.027530 -0.315000
v 0.110000 -0.010000 0.010000
v 0.080000 -0.040000 0.010000
v 0.072531 -0.037162 -0.310000
v -0.085000 -0.020000 0.010000
v -0.120276 -0.012862 -0.300000
v -0.147908 -0.003276 -0.290000
v 0.097263 0.170390 -0.173266
v 0.203520 0.000000 -0.195480
v 0.009505 0.111200 -0.270776
v -0.096669 0.111200 -0.096088
v -0.204720 0.184680 -0.188040
v -0.060000 -0.055000 0.010000
v -0.130046 -0.032403 -0.305000
v 0.009505 0.153480 -0.075755
v 0.009505 0.153480 -0.270776
v -0.010320 0.126360 -0.178320
v 0.080000 -0.015000 0.010000
v 0.110000 -0.035000 0.010000
v -0.097800 -0.009720 -0.285240
v -0.096669 0.170390 -0.113001
v 0.107469 -0.007838 -0.315000
v -0.096669 0.170390 -0.233530
v -0.049200 -0.048600 -0.178320
v -0.152678 -0.027816 -0.290000
v -0.085000 -0.045000 0.010000
v 0.086880 0.165240 -0.285240
v 0.078620 -0.017470 -0.310000
v -0.060000 -0.030000 0.010000
vt 0.088160 0.998440
vt 0.089570 0.912380
vt -0.032810 0.998570
vt -0.036020 0.640710
vt -0.150850 0.801800
vt -0.166270 0.637500
vt -0.121790 0.866510
vt -0.129660 0.993220
vt 0.009650 0.866710
vt -0.035760 0.909610
vt -0.322370 0.999600
vt -0.069320 0.990750
vt -0.200930 0.875960
vt -0.045860 1.993060
vt -0.172420 1.993060
vt -0.045860 1.872660
vt -0.128230 0.859280
vt -0.238360 0.994810
vt -0.099070 0.991410
vt 0.009700 0.993620
vt 0.093880 0.909940
vt -0.031990 0.884540
vt -0.183360 1.872660
vt 0.183000 0.874960
vt 0.198290 1.000470
vt -0.239190 0.707250
vt -0.215030 0.997620
vt -0.088500 0.997620
vt -0.098800 0.994340
vt 0.008190 0.983730
vt -0.094170 0.874410
vt -0.105030 0.913590
vt -0.157110 0.992820
vt -0.035410 0.992820
vt -0.125930 0.897370
vt -0.159730 0.997280
vt -0.052430 0.999580
vt -0.002640 0.869380
vt -0.172050 0.909610
vt -0.223170 0.833620
vt 0.110440 0.999340
vt -0.112430 0.895570
vt -0.207370 0.991990
vt -0.121220 0.989980
vt -0.263870 0.721100
vt -0.253320 0.687870
vt -0.235290 0.708590
vt -0.214440 0.687870
vt -0.200950 0.721100
vt -0.232520 0.750180
vt -0.200600 0.429570
vt -0.117550 0.429630
vt -0.099120 1.304170
vt -0.335250 0.794650
vt -0.514850 1.778400
vt -0.608160 1.761950
vt -0.208410 1.317910
vt -0.425840 0.762800
vt -0.572830 0.409290
vt -0.617440 1.369630
vt -0.650600 0.410920
vt -0.609700 0.330600
vt -0.518300 0.361850
vt -0.721230 1.299450
vt -0.238230 0.744360
vt -0.199140 0.718880
vt -0.298350 1.777630
vt -0.380930 1.763100
vt -0.432760 0.801960
vt -0.112250 1.332400
vt -0.172650 1.232650
vt -0.084090 1.269370
vt -0.467720 1.658730
vt -0.443010 0.648230
vt -0.377010 0.667230
vt -0.206440 0.684770
vt -0.262060 0.718880
vt 0.000000 18.870001
vt 0.000000 -7.050000
vt 0.000000 -6.240000
vt -0.531790 0.452670
vt -0.526510 1.452900
vt -0.603750 1.452750
vt -0.571130 0.586950
vt -0.516190 1.602580
vt -0.593940 1.602570
vt -0.253690 0.676620
vt 0.491010 1.091410
vt 0.387480 1.059890
vt 0.478980 1.029880
vt -0.508690 0.586950
vt -0.193630 1.306990
vt -0.353900 0.768300
vt -0.539670 1.371250
vt -0.595480 0.452800
vt 0.368620 1.121430
vt -0.391220 1.655350
vn 0.154200 0.150500 -0.976500
vn 0.189100 -0.981900 0.004600
vn 0.998400 0.051400 0.024300
vn 0.000000 -0.967100 0.254500
vn -0.023600 0.945900 -0.323600
vn -0.998600 0.052600 0.000000
vn -0.318100 0.948000 -0.014500
vn 0.996200 0.074400 0.045300
vn -0.065600 -0.164000 -0.984300
vn 0.713500 -0.007600 -0.700600
vn 0.148500 -0.909500 -0.388300
vn 0.287300 0.957800 0.000000
vn -0.752100 0.098900 -0.651600
vn -0.047800 0.951900 0.302700
vn 0.281900 0.955000 0.091600
vn -0.569900 -0.135100 -0.810500
vn -0.282200 -0.959400 0.000000
vn 0.142100 -0.907800 -0.394700
vn -0.239600 -0.942300 -0.233700
vn 0.552700 0.156400 -0.818600
vn -0.307000 0.949400 0.066100
vn -0.054700 0.841200 -0.537900
vn -0.591900 0.806000 0.000000
vn 0.271900 0.876800 0.396700
vn 0.164400 -0.986300 -0.012600
vn -0.164400 0.986400 -0.006900
vn 0.238000 -0.971000 -0.021300
vn -0.315300 0.948900 0.008800
vn -0.959400 0.186500 0.211600
vn 0.322900 0.946300 -0.015000
vn 0.271900 0.876800 -0.396700
vn 0.792400 -0.332400 0.511400
vn 0.713800 0.187300 -0.674900
vn -0.054700 0.841200 0.537900
vn -0.371200 -0.928000 0.030600
vn -0.213100 0.340800 -0.915600
vn 0.893100 -0.388600 -0.226500
vn 0.743300 0.000000 0.669000
vn -0.188100 0.000000 0.982200
vn -0.331000 0.000000 -0.943600
vn 0.672900 0.000000 -0.739700
vn -0.999700 0.000000 0.023300
vn 1.000000 0.000000 0.004200
vn -0.281700 0.263600 0.922600
vn -0.984000 0.048900 0.171100
vn -0.160400 -0.031800 -0.986500
vn 0.980800 0.194800 -0.006300
vn -0.919100 0.393900 0.000000
vn -0.208300 0.225300 -0.951800
vn -0.534700 0.103900 -0.838600
vn -0.213000 -0.976800 -0.022700
vn -0.975500 0.000000 0.220100
vn -0.955400 0.295400 0.001800
vn -0.137900 0.042700 -0.989500
vn 0.981600 0.000000 -0.190900
usemtl MATERIAL_#373
s off
f 39/1/1 3/2/1 12/3/1
f 7/4/2 36/5/2 21/6/2
f 21/7/3 11/8/3 7/9/3
f 2/10/4 36/5/4 7/4/4
f 9/11/5 1/12/5 29/13/5
f 9/14/6 24/15/6 2/16/6
f 29/17/7 1/18/7 11/19/7
f 1/20/8 7/9/8 11/8/8
f 3/21/9 32/22/9 12/3/9
f 8/23/6 2/16/6 24/15/6
f 21/24/10 3/2/10 11/25/10
f 21/6/11 36/5/11 3/26/11
f 24/27/12 9/28/12 29/13/12
f 24/29/13 12/30/13 8/31/13
f 29/32/14 39/33/14 12/34/14
f 29/35/15 12/36/15 24/37/15
f 32/38/16 8/31/16 12/30/16
f 8/39/17 36/5/17 2/10/17
f 3/26/18 36/5/18 32/40/18
f 32/40/19 36/5/19 8/39/19
f 3/2/20 39/41/20 11/25/20
f 29/42/21 11/43/21 39/44/21
usemtl MATERIAL_#371
f 28/45/22 35/46/22 5/47/22
f 35/46/23 33/48/23 5/47/23
f 27/49/24 20/50/24 5/47/24
f 31/51/25 15/52/25 16/53/25
f 40/54/26 30/55/26 14/56/26
f 31/51/27 16/53/27 13/57/27
f 14/56/28 34/58/28 40/54/28
f 37/59/29 17/60/29 19/61/29
f 18/62/30 19/63/30 17/64/30
f 20/50/31 28/45/31 5/47/31
f 10/65/32 20/50/32 4/66/32
f 20/50/33 10/65/33 28/45/33
f 33/48/34 27/49/34 5/47/34
f 25/67/35 38/68/35 37/69/35
f 26/70/36 19/71/36 18/72/36
f 25/73/37 26/74/37 18/75/37
f 27/49/38 4/66/38 20/50/38
f 4/66/39 27/49/39 23/76/39
f 28/45/40 22/77/40 35/46/40
f 22/78/41 28/79/41 10/80/41
f 16/81/42 15/82/42 30/83/42
f 13/84/43 14/85/43 31/86/43
f 33/48/44 23/76/44 27/49/44
f 23/76/45 33/48/45 6/87/45
f 13/88/46 40/89/46 34/90/46
f 13/84/47 34/91/47 14/85/47
f 35/46/48 6/87/48 33/48/48
f 6/87/49 35/46/49 22/77/49
f 26/70/50 37/92/50 19/71/50
f 25/67/51 37/69/51 26/93/51
f 37/59/52 38/94/52 17/60/52
f 16/81/53 30/83/53 40/95/53
f 13/88/54 16/96/54 40/89/54
f 18/75/55 41/97/55 25/73/55
