# Blender v2.75 (sub 0) OBJ File: 'Empty.blend'
# www.blender.org
mtllib FIREPLACE_NW_LAMP_01.mtl
o FIREPLACE_NW_LAMP_01
v 0.117010 1.368970 -0.116933
v -0.101240 -0.999990 0.175360
v 0.101260 -1.249990 -0.175380
v 0.175510 1.818970 0.175375
v -0.175490 1.818970 0.175375
v -0.175490 1.818970 -0.175395
v 0.175510 1.818970 -0.175395
v -0.116990 1.368970 0.116913
v -0.202490 -1.249990 -0.000010
v 0.101260 -1.249990 0.175360
v 0.117010 1.368970 0.116913
v -0.116990 1.368970 -0.116933
v -0.074990 -0.899990 -0.000010
v 0.037510 1.268970 0.064942
v 0.000010 1.968970 -0.000010
v 0.101260 -0.999990 -0.175380
v 0.075010 -0.899990 -0.000010
v 0.202510 -1.249990 -0.000010
v 0.101260 -0.999990 0.175360
v -0.101240 -1.249990 0.175360
v -0.101240 -1.249990 -0.175380
v -0.037490 -0.899990 -0.064962
v 0.202510 -0.999990 -0.000010
v -0.202490 -0.999990 -0.000010
v -0.101240 -0.999990 -0.175380
v -0.037490 -0.899990 0.064942
v -0.037490 1.268970 -0.064962
v 0.037510 -0.899990 0.064942
v 0.037510 1.268970 -0.064962
v 0.037510 -0.899990 -0.064962
v -0.037490 1.268970 0.064942
v -0.074990 1.292560 -0.000010
v 0.075010 1.292560 -0.000010
v -0.175490 1.868970 -0.175395
v -0.175490 1.868970 0.175375
v 0.175510 1.868970 -0.175395
v 0.175510 1.868970 0.175375
v 0.117010 1.318970 0.116913
v 0.117010 1.318970 -0.116933
v -0.116990 1.318970 -0.116933
v -0.116990 1.318970 0.116913
v 0.075010 1.348970 -0.075010
v 0.075010 1.348970 0.074990
v -0.074990 1.348970 -0.075010
v -0.074990 1.348970 0.074990
v 0.000010 1.386710 -0.000010
v 0.000010 1.334150 -0.000010
v 0.075010 1.348970 -0.000010
v 0.000010 1.348970 -0.075010
v 0.000010 1.348970 0.074990
v -0.074990 1.348970 -0.000010
vt 0.841276 0.607900
vt 0.841276 0.713738
vt 2.062660 0.713738
vt 0.841276 0.375417
vt 0.841276 0.502062
vt 2.062660 0.502062
vt -0.726006 1.352180
vt -0.473990 1.352180
vt -0.473990 0.847814
vt -0.861084 0.357412
vt -0.539998 1.000000
vt -0.218912 0.357412
vt -0.726006 0.847814
vt -0.218912 1.642600
vt 2.062660 0.375417
vt 2.074510 0.269580
vt 0.841276 0.269580
vt 2.074510 0.607900
vt -0.145963 0.391104
vt -0.143577 0.117769
vt 0.051250 0.124570
vt -0.141192 -0.155567
vt 0.053635 -0.148765
vt 0.055373 1.457950
vt 0.057831 1.176320
vt -0.142909 1.169310
vt -0.499998 1.000000
vt -0.669129 0.661519
vt -0.669129 1.338490
vt -0.330866 0.661519
vt 2.062660 0.163742
vt 0.841276 0.163742
vt -0.561932 0.689064
vt -0.682920 0.453595
vt -0.668720 0.742931
vt 0.384420 1.170910
vt 0.173902 0.992500
vt 0.228979 1.187900
vt -0.861084 1.642600
vt -0.143897 1.240950
vt -0.146319 0.963453
vt 0.051477 0.956547
vt 0.051320 0.685953
vt 0.048899 0.963453
vt -0.148897 0.956547
vt -0.513425 1.501520
vt -0.313254 1.303650
vt -0.447705 1.076890
vt 0.053899 1.234050
vt -0.145367 1.450950
vt -0.147825 1.732580
vt 0.052915 1.739580
vt -0.406917 0.742942
vt -0.421954 0.965500
vt -0.336873 0.952902
vt -0.146475 0.679047
vt 0.048864 0.397905
vt -0.521843 1.150170
vt -0.686858 1.303650
vt -0.196808 0.742942
vt -0.294344 0.631663
vt -0.289611 0.829259
vt -0.331304 0.870473
vt -0.286517 0.907916
vt -0.437802 0.930317
vt -0.253486 0.870473
vt 0.158525 1.249790
vt 0.057656 1.395190
vt 0.164404 1.411590
vt -0.455936 1.274560
vt -0.386292 0.669524
vt -0.503940 0.862881
vt -0.586077 1.076890
vt -0.526262 1.056800
vt 2.062660 0.037097
vt 0.841276 0.037097
vt 0.296453 1.245080
vt -0.153944 1.354100
vt -0.153944 2.026510
vt -0.106052 2.026510
vt -0.107212 2.065000
vt -0.107212 1.425600
vt -0.152783 1.425600
vt 0.892453 0.584772
vt 0.892453 1.215230
vt 0.847549 1.215230
vt -0.152783 2.065000
vt -0.106051 1.354100
vt -0.152193 -0.031721
vt -0.152193 0.591119
vt -0.107803 0.591119
vt 0.847548 0.584772
vt -0.107803 -0.031721
vt -0.024997 0.053818
vt -0.024997 0.896205
vt 0.065002 0.896205
vt 0.056791 0.819127
vt 0.056791 0.130897
vt -0.016786 0.130896
vt 0.061327 1.606790
vt 0.061327 0.833182
vt -0.021323 0.833182
vt -0.016786 0.819127
vt -0.021323 1.606790
vt 0.061998 1.907810
vt 0.061998 1.122170
vt -0.021993 1.122170
vt 0.065002 0.053818
vt -0.021993 1.907810
vt -0.391509 1.000000
vt -0.391509 1.216980
vt -0.499998 1.216980
vt -0.391509 0.783027
vt -0.499998 0.783027
vt -0.608487 1.000000
vt -0.608487 1.216980
vt -0.330866 1.338490
vt -0.608487 0.783027
vt 0.944259 0.842995
vt 0.052025 0.842995
vt 0.785024 0.117640
vt 0.203828 0.117640
vn 0.866000 0.000000 -0.500000
vn 0.000000 0.000000 1.000000
vn 0.000000 -1.000000 0.000000
vn -0.495100 0.868900 0.000000
vn 0.000000 0.868700 -0.495300
vn -0.866000 -0.000000 0.500000
vn -0.866000 -0.000000 -0.500000
vn 0.000000 0.958400 -0.285400
vn 0.866000 0.000000 0.500000
vn 0.285200 0.958500 0.000000
vn 0.532400 -0.846500 -0.000000
vn 0.000000 -0.720600 0.693300
vn 0.000000 0.868700 0.495300
vn 0.495100 0.868900 0.000000
vn 0.000000 0.000000 -1.000000
vn 0.581300 0.741200 -0.335600
vn 0.000000 0.741200 0.671300
vn 0.581300 0.741200 0.335600
vn -0.581300 0.741200 -0.335600
vn -0.581300 0.741200 0.335600
vn 0.000000 0.741200 -0.671300
vn -0.532400 -0.846500 0.000000
vn 0.000000 -0.720600 -0.693300
vn -0.532300 -0.846500 0.000000
vn 0.532300 -0.846500 0.000000
vn -1.000000 0.000000 0.000000
vn 1.000000 0.000000 0.000000
vn 0.000000 0.893300 -0.449500
vn 0.449500 0.893300 0.000000
vn -0.449500 0.893300 0.000000
vn 0.000000 0.893300 0.449500
vn 0.000000 0.958400 0.285400
vn -0.285200 0.958500 0.000000
vn 0.000000 0.128800 -0.991700
vn 0.000000 -0.128800 0.991700
vn 0.000000 -0.128800 -0.991700
vn 0.000000 0.128800 0.991700
vn 0.991700 0.128900 0.000000
vn -0.991700 -0.128900 0.000000
vn -0.991700 0.128900 0.000000
vn 0.991700 -0.128900 0.000000
usemtl OBJ_CITY_STREETLAMP_01
s off
f 17/1/1 30/2/1 29/3/1
f 26/4/2 28/5/2 14/6/2
f 5/7/3 6/8/3 7/9/3
f 35/10/4 15/11/4 34/12/4
f 7/9/3 4/13/3 5/7/3
f 15/11/5 36/14/5 34/12/5
f 31/15/6 32/16/6 13/17/6
f 29/3/1 33/18/1 17/1/1
f 21/19/7 9/20/7 24/21/7
f 9/20/6 20/22/6 2/23/6
f 19/24/2 2/25/2 20/26/2
f 47/27/8 8/28/8 11/29/8
f 33/18/9 14/6/9 28/5/9
f 12/30/10 8/28/10 47/27/10
f 32/16/7 27/31/7 22/32/7
f 13/17/6 26/4/6 31/15/6
f 2/23/6 24/21/6 9/20/6
f 33/33/11 38/34/11 14/35/11
f 38/36/12 41/37/12 31/38/12
f 35/10/13 37/39/13 15/11/13
f 36/14/14 15/11/14 37/39/14
f 18/40/1 3/41/1 16/42/1
f 25/43/15 16/44/15 3/45/15
f 23/46/16 16/47/16 30/48/16
f 16/42/1 23/49/1 18/40/1
f 10/50/9 18/51/9 23/52/9
f 23/52/9 19/24/9 10/50/9
f 2/53/17 19/54/17 28/55/17
f 20/26/2 10/50/2 19/24/2
f 3/45/15 21/56/15 25/43/15
f 22/32/7 13/17/7 32/16/7
f 24/21/7 25/57/7 21/19/7
f 30/48/16 17/58/16 23/46/16
f 19/59/18 23/46/18 17/58/18
f 25/60/19 24/61/19 13/62/19
f 26/63/20 13/62/20 24/61/20
f 16/47/21 25/64/21 22/65/21
f 13/62/19 22/66/19 25/60/19
f 24/61/20 2/53/20 26/63/20
f 28/55/17 26/63/17 2/53/17
f 32/67/22 40/68/22 27/69/22
f 40/70/23 39/71/23 29/72/23
f 17/58/18 28/73/18 19/59/18
f 28/5/9 17/1/9 33/18/9
f 29/72/23 27/74/23 40/70/23
f 27/31/15 29/75/15 30/76/15
f 30/76/15 22/32/15 27/31/15
f 22/65/21 30/48/21 16/47/21
f 14/6/2 31/15/2 26/4/2
f 31/38/12 14/77/12 38/36/12
f 32/67/22 31/38/22 41/37/22
f 32/67/24 41/37/24 40/68/24
f 33/33/11 29/72/11 39/71/11
f 33/33/25 39/71/25 38/34/25
f 7/78/15 6/79/15 34/80/15
f 35/81/26 34/82/26 6/83/26
f 37/84/2 35/85/2 5/86/2
f 6/83/26 5/87/26 35/81/26
f 34/80/15 36/88/15 7/78/15
f 4/89/27 7/90/27 36/91/27
f 5/86/2 4/92/2 37/84/2
f 36/91/27 37/93/27 4/89/27
f 41/94/2 38/95/2 11/96/2
f 1/97/27 11/98/27 38/99/27
f 12/100/15 1/101/15 39/102/15
f 38/99/27 39/103/27 1/97/27
f 39/102/15 40/104/15 12/100/15
f 8/105/26 12/106/26 40/107/26
f 11/96/2 8/108/2 41/94/2
f 40/107/26 41/109/26 8/105/26
f 49/110/28 46/27/28 42/111/28
f 48/112/29 42/111/29 46/27/29
f 44/113/30 51/114/30 46/27/30
f 46/27/31 50/115/31 43/116/31
f 12/30/32 47/27/32 1/117/32
f 11/29/33 1/117/33 47/27/33
f 43/116/29 48/112/29 46/27/29
f 46/27/28 49/110/28 44/113/28
f 50/115/31 46/27/31 45/118/31
f 51/114/30 45/118/30 46/27/30
usemtl OBJ_CITY_STREETLAMP_02
f 5/119/34 4/120/34 8/121/34
f 4/120/35 5/119/35 8/121/35
f 6/119/36 7/120/36 1/122/36
f 7/120/37 6/119/37 1/122/37
f 6/119/38 5/120/38 12/121/38
f 5/120/39 6/119/39 12/121/39
f 4/120/40 7/119/40 11/122/40
f 7/119/41 4/120/41 11/122/41
f 11/122/34 8/121/34 4/120/34
f 8/121/35 11/122/35 4/120/35
f 1/122/36 12/121/36 6/119/36
f 12/121/37 1/122/37 6/119/37
f 1/121/40 11/122/40 7/119/40
f 11/122/41 1/121/41 7/119/41
f 8/122/38 12/121/38 5/120/38
f 12/121/39 8/122/39 5/120/39
