# Blender v2.75 (sub 0) OBJ File: 'Empty.blend'
# www.blender.org
mtllib FIREPLACE_ORCSTAND.mtl
o FIREPLACE_ORCSTAND
v 0.813395 -1.415270 0.001131
v -1.011130 -1.415270 0.001131
v -0.098869 -0.208625 -0.659930
v -0.098869 -1.415270 -0.911133
v 0.210251 0.570957 0.488248
v 0.185414 -0.877635 -0.032247
v -0.290699 -0.891284 0.130683
v 0.358996 0.019325 -0.122552
v -0.418525 0.431766 0.057608
v -0.305428 0.099383 -0.295952
v -0.385001 -0.895382 -0.139427
v -0.642063 0.271598 0.145829
v -0.259564 -0.958725 0.291512
v 0.096690 -0.940048 -0.163700
v 0.129489 0.412306 -0.475161
v -0.325036 -0.793381 -0.216349
v -0.098869 -1.415270 0.913396
v -0.099508 -0.290207 0.534234
v 0.605460 -0.369106 -0.067156
v -0.699501 -0.392557 0.011905
v 0.004951 -0.880098 0.356533
v -0.340715 -0.721397 0.210693
v -0.545374 -0.985515 0.099053
v -0.127787 -0.906389 -0.410896
v -0.214833 0.446660 -0.282567
v -0.106747 -0.721397 -0.253912
v 0.546199 -1.415270 -0.643937
v -0.743938 -1.415270 -0.643937
v 0.546199 -1.415270 0.646200
v 0.072803 0.014636 0.352327
v -0.209496 0.421552 0.372824
v 0.160159 0.455400 0.342823
v 0.116734 0.463361 -0.304796
v -0.743938 -1.415270 0.646200
v 0.103062 0.292346 0.618210
v 0.162625 0.264823 -0.230414
v -0.260935 0.164927 0.338655
v 0.277461 -0.290207 0.378088
v -0.214094 -0.326277 0.718490
v 0.306867 0.461840 0.061739
v -0.436427 0.169106 0.004107
v -0.556503 0.626886 0.302040
v 0.368572 -0.291438 -0.466310
v -0.526972 -0.291438 -0.424268
v -0.391036 0.428665 0.164255
v -0.109866 0.143289 -0.467567
v -0.154336 -0.821902 -0.040158
v -0.184043 -0.902433 0.118428
v 0.084085 -0.721397 0.208813
v -0.455422 -1.020700 0.276218
v 0.186518 -0.917037 0.221207
v -0.566310 -0.350943 0.468572
v -0.049791 0.179992 -0.235300
v 0.452858 -0.351317 -0.046053
v -0.038439 0.326274 0.037496
v 0.279134 0.227259 -0.375289
v 0.277461 -0.290207 -0.375848
v -0.403822 -0.721397 -0.002493
v 0.307719 0.297323 0.558166
v -0.191053 -0.962540 0.295436
v 0.089207 -0.721397 -0.195578
v -0.579513 0.391101 0.095730
v 0.054061 0.408668 0.514646
v -0.188635 -0.771773 -0.124093
v -0.493638 -0.961394 -0.094796
v -0.476476 -0.290207 0.378089
v 0.166804 -0.721397 0.004369
v 0.304801 -0.326003 0.462796
v 0.139786 0.107755 -0.531368
v 0.030197 -0.902817 -0.335733
v -0.476476 -0.290207 -0.375848
v 0.307100 0.052683 0.115005
v -0.632622 -0.391326 0.001120
v -0.098173 -0.721397 0.273461
v -0.033370 -0.207394 -0.506156
v -0.404457 0.343834 0.348466
v 0.265237 0.246711 0.337635
v -0.293982 -0.851034 -0.310720
v -0.030262 -0.805250 -0.114166
v -0.269020 -0.900388 -0.069013
v 0.125866 0.344075 0.326956
v -0.150064 0.421484 0.292630
v 0.029569 -0.855473 -0.080892
v 0.205150 0.219775 -0.229787
v -0.259376 -0.721397 -0.154350
v 0.202710 0.430809 0.044351
v 0.118281 0.458984 0.254115
v -0.266482 0.432373 0.050931
v -0.569889 0.307131 0.347283
v -0.178098 0.438651 -0.208765
v -0.107809 -0.693514 0.003998
v 0.097150 0.434266 -0.206398
vt 0.344692 0.074321
vt 0.412522 0.079066
vt 0.364466 0.972872
vt 0.348903 0.031942
vt 0.414136 0.016147
vt 0.430510 0.946318
vt 0.773463 0.005188
vt 0.837093 0.014125
vt 0.842237 0.981033
vt 0.629160 0.010939
vt 0.531852 0.986785
vt 0.541166 0.011281
vt 0.342757 0.113363
vt 0.406950 0.017240
vt 0.357263 0.961684
vt 0.753513 0.943922
vt 0.632640 0.993601
vt 0.629414 0.986734
vt 0.532218 0.978634
vt 0.539175 0.018135
vt 0.323094 0.953345
vt 0.319663 0.956581
vt 0.407190 0.020480
vt 0.422076 0.947538
vt 0.607904 0.012570
vt 0.340513 0.020001
vt 0.500000 0.248757
vt 0.819545 0.751243
vt 0.500000 0.751243
vt 0.940972 0.248757
vt 0.059028 0.248757
vt 0.276152 0.503481
vt 0.829269 0.255378
vt 0.760183 0.997786
vt 0.056214 0.255378
vt 0.479438 0.399063
vt 0.554899 0.940356
vt 0.180455 0.751243
vt 0.853200 0.686381
vt 0.500000 0.686381
vt 0.500000 0.313619
vt 0.146800 0.686381
vt 0.146800 0.313619
vt 0.000500 0.997786
vt 0.439274 0.941999
vt 0.986750 0.503481
vt 0.983735 0.910812
vt 0.853200 0.313619
vt 0.775754 0.942000
vt 0.662236 0.080730
vt 0.999500 0.000500
vt 0.829269 0.954667
vt 0.099937 0.671356
vt 0.337764 0.000500
vt 0.999500 0.919305
vt 0.239817 0.999500
vt 0.023763 0.445101
vt 0.221340 0.454519
vt 0.228549 0.083194
vt 0.295393 0.919305
vt 0.831049 0.463800
vt 0.693875 0.749029
vt 0.517679 0.473469
vt 0.245586 0.910812
vt 0.336194 0.820811
vt 0.771451 0.020623
vt 0.784356 0.215170
vt 0.499518 0.097185
vt 0.500000 0.000500
vt 0.000500 0.500000
vt 0.146800 0.146800
vt 0.214679 0.215170
vt 0.364145 0.000500
vt 0.042814 0.942000
vt 0.295393 0.000500
vt 0.775754 0.042814
vt 0.721334 0.167934
vt 0.951306 0.083194
vt 0.999500 0.513025
vt 0.214679 0.784847
vt 0.499518 0.902831
vt 0.500000 0.999500
vt 0.500000 0.500000
vt 0.500000 0.048095
vt 0.819545 0.180455
vt 0.784356 0.784847
vt 0.902340 0.500008
vt 0.999500 0.500000
vt 0.372624 0.113610
vt 0.853200 0.853200
vt 0.048095 0.500000
vt 0.180455 0.180455
vt 0.180455 0.819545
vt 0.951905 0.500000
vt 0.853200 0.146800
vt 0.146800 0.853200
vt 0.096695 0.500008
vt 0.672290 0.090394
vt 0.000500 0.349801
vt 0.276152 0.999500
vt 0.500000 0.951905
vt 0.966399 0.439274
vt 0.754414 0.983735
vt 0.819545 0.819545
vt 0.013064 0.010677
vt 0.226619 0.017501
vt 0.122300 0.986100
vt 0.018408 0.013598
vt 0.217140 0.022893
vt 0.123692 0.982197
vt 0.007280 0.009808
vt 0.213193 0.005661
vt 0.111851 0.992899
vt 0.006736 0.002905
vt 0.222386 0.007072
vt 0.123866 0.992579
vt 0.005752 0.005239
vt 0.248140 0.012974
vn -0.146600 0.329000 -0.932900
vn 0.997700 -0.066000 -0.014600
vn -0.061900 -0.050500 0.996800
vn 0.900500 0.154000 -0.406600
vn -0.038000 0.114700 0.992700
vn 0.905500 -0.173200 -0.387500
vn -0.216000 -0.195400 0.956600
vn -0.962200 -0.064200 -0.264800
vn -0.524900 -0.036900 -0.850400
vn -0.862600 0.081300 0.499400
vn 0.279100 -0.231400 0.932000
vn 0.768500 -0.069400 0.636000
vn -0.954000 0.210300 0.213500
vn -0.933200 -0.084800 0.349300
vn -0.665400 0.035700 -0.745600
vn 0.979200 0.147500 0.139300
vn 0.301400 0.191600 -0.934000
vn -0.253700 -0.047800 -0.966100
vn -0.795500 0.355800 -0.490500
vn 0.903400 0.082100 0.420900
vn -0.895100 -0.100400 0.434500
vn 0.538000 -0.274800 0.796900
vn -0.073200 0.126300 0.989300
vn 0.806100 -0.225200 -0.547300
vn 0.982800 -0.048700 -0.178200
vn -0.842500 0.059700 0.535400
vn -0.834500 0.337600 -0.435500
vn -0.570500 0.176900 0.802000
vn -0.439200 0.120900 -0.890200
vn 0.423400 -0.216200 -0.879700
vn 0.004600 -0.053000 0.998600
vn 0.272900 0.290000 -0.917300
vn -0.870200 0.237700 -0.431600
vn 0.445100 0.091900 0.890700
vn 0.512400 0.228800 -0.827700
vn 0.321900 0.275200 -0.905900
vn -0.928100 0.280200 0.245200
vn 0.904800 0.202200 -0.374800
vn -0.888400 0.274600 -0.368000
vn 0.127400 0.005000 -0.991800
vn -0.893500 0.147300 -0.424300
vn 0.904400 0.204200 0.374600
vn -0.902700 0.213000 0.373900
vn 0.847700 0.265200 0.459400
vn -0.754000 0.529900 -0.388200
vn 0.405300 0.204900 -0.890900
vn -0.920800 0.238200 -0.309000
vn 0.153100 0.511400 0.845600
vn 0.792600 0.420800 -0.441200
vn 0.739300 0.507600 0.442400
vn -0.837900 0.237500 -0.491400
vn 0.873800 0.177800 -0.452500
vn 0.588300 0.583700 0.559600
vn -0.738700 0.610000 0.286700
vn 0.375800 0.188900 -0.907300
vn -0.370900 0.246600 -0.895300
vn 0.372100 0.233700 0.898300
vn 0.716000 -0.127100 0.686500
vn -0.101100 -0.992400 -0.070700
vn -0.833000 -0.055400 0.550600
vn -0.002100 0.999100 0.042500
vn 0.093600 -0.149800 0.984300
vn -0.395600 0.900800 0.179000
vn -0.048100 -0.309800 -0.949600
vn 0.011000 0.912000 0.410000
vn -0.379700 0.123900 0.916800
vn -0.028700 0.027200 0.999200
vn -0.411700 -0.903100 0.122100
vn -0.337500 0.471300 -0.814900
vn 0.432700 0.203000 0.878400
vn 0.105000 0.961600 0.253600
vn -0.509100 0.857800 0.070300
vn 0.884300 0.060800 0.462900
vn -0.084500 0.993200 0.080000
vn -0.879100 0.114600 0.462600
vn -0.245200 -0.962400 0.116600
vn 0.863200 0.139900 -0.485100
vn -0.715900 0.511300 0.475500
vn -0.500600 0.176400 -0.847500
vn -0.165500 0.984200 0.062600
vn 0.036000 0.994200 0.101600
vn -0.290600 0.494500 -0.819200
vn -0.574100 0.227100 0.786700
vn -0.289300 0.902600 0.318700
vn 0.130500 0.985000 0.113100
vn 0.101500 0.989700 -0.100600
vn -0.183900 0.891800 -0.413300
vn 0.424000 0.890300 0.165800
vn 0.128100 0.985000 0.115600
vn 0.213000 0.972100 -0.098500
vn -0.094400 0.995100 0.027900
vn 0.797400 0.555300 -0.236100
vn -0.252600 0.465000 0.848500
vn -0.091500 0.992000 -0.087100
vn -0.063600 0.986100 0.153500
vn 0.333900 0.488600 -0.806100
vn 0.100900 0.994100 0.040800
vn -0.807800 0.490600 -0.326800
vn 0.166000 0.926400 0.337900
vn 0.482300 0.851900 0.204300
vn -0.129900 0.985400 0.110400
vn -0.194400 0.964600 0.178200
vn 0.977400 0.027800 0.209600
vn 0.356500 -0.911300 0.205900
vn 0.019700 0.972200 0.233200
vn -0.056100 0.969900 -0.236900
vn -0.026900 0.994200 0.103800
vn 0.228100 0.413900 -0.881300
vn 0.185100 0.967300 0.173300
vn -0.238400 0.455100 0.857900
vn 0.023700 0.999600 0.016700
vn -0.153600 0.981500 -0.114700
vn 0.783700 0.315200 -0.535200
vn 0.199100 -0.339100 -0.919500
vn -0.070100 0.991700 -0.107500
vn 0.518400 0.316000 0.794600
vn -0.304200 0.942100 0.141100
vn -0.265600 0.957000 -0.116700
vn -0.376400 0.886100 -0.270500
vn 0.195600 0.979300 -0.052800
vn 0.409000 0.899000 -0.156500
vn -0.002000 0.998900 0.046000
vn -0.041300 0.990900 0.128100
vn 0.100000 0.993300 0.058000
vn 0.031900 0.993700 -0.107300
vn 0.101000 0.994100 -0.039200
vn -0.369100 0.908700 0.195200
vn 0.012800 0.958200 0.285900
vn -0.743000 0.663600 0.087300
vn -0.327100 0.789200 0.519800
vn 0.637500 0.695000 0.332500
vn 0.259000 0.324700 0.909700
vn 0.145000 0.643500 -0.751600
vn -0.892000 0.343800 -0.293500
vn -0.400500 0.509400 0.761600
vn -0.221300 0.169800 -0.960300
vn 0.674500 0.156000 -0.721600
vn 0.824000 0.489400 0.285400
vn 0.932000 0.270300 -0.241600
vn 0.371500 0.442200 -0.816400
vn -0.676700 0.576900 -0.457400
vn -0.942700 0.085100 0.322700
vn -0.038500 0.141600 0.989200
usemtl ORC_STANDING_LAMP_V3
s off
f 83/1/1 47/2/1 81/3/1
f 51/4/2 6/5/2 77/6/2
f 50/4/3 13/5/3 76/6/3
f 48/1/4 80/2/4 45/3/4
f 64/1/5 79/2/5 36/3/5
f 14/7/6 70/8/6 69/9/6
f 21/10/7 35/11/7 60/12/7
f 23/10/8 12/11/8 65/12/8
f 24/13/9 78/14/9 46/15/9
f 35/9/10 63/16/10 7/7/10
f 35/11/11 21/10/11 59/17/11
f 56/18/12 36/19/12 79/20/12
f 53/6/13 46/21/13 78/4/13
f 12/11/14 23/10/14 89/17/14
f 12/9/15 62/16/15 11/7/15
f 76/22/16 48/23/16 45/24/16
f 62/18/17 45/19/17 80/20/17
f 69/11/18 24/10/18 46/17/18
f 47/20/19 7/25/19 63/18/19
f 48/23/20 76/22/20 13/26/20
f 23/13/21 50/14/21 89/15/21
f 21/13/22 51/14/22 59/15/22
f 53/22/23 64/23/23 36/24/23
f 69/9/24 56/16/24 14/7/24
f 77/6/25 59/21/25 51/4/25
f 7/7/26 60/8/26 35/9/26
f 63/18/27 81/19/27 47/20/27
f 64/23/28 53/22/28 16/26/28
f 11/7/29 65/8/29 12/9/29
f 24/10/30 69/11/30 70/12/30
f 76/6/31 89/21/31 50/4/31
f 77/22/32 83/23/32 81/24/32
f 78/4/33 16/5/33 53/6/33
f 79/20/34 14/25/34 56/18/34
f 80/20/35 11/25/35 62/18/35
f 83/23/36 77/22/36 6/26/36
usemtl ORC_STANDING_LAMP_V1
f 2/27/37 52/28/37 20/29/37
f 1/27/38 27/30/38 43/28/38
f 28/31/39 2/27/39 20/29/39
f 84/32/40 10/33/40 25/34/40
f 10/35/41 41/36/41 9/37/41
f 29/31/42 1/27/42 19/29/42
f 2/27/43 34/30/43 52/28/43
f 29/31/44 19/29/44 68/38/44
f 38/39/45 54/40/45 67/41/45
f 27/31/46 3/29/46 43/38/46
f 28/31/47 20/29/47 44/38/47
f 75/40/48 71/42/48 85/43/48
f 73/40/49 66/42/49 22/43/49
f 71/39/50 73/40/50 58/41/50
f 10/35/51 9/37/51 25/44/51
f 40/45/52 84/46/52 33/47/52
f 58/41/53 85/48/53 71/39/53
f 61/43/54 67/41/54 54/40/54
f 27/31/55 4/27/55 3/29/55
f 4/27/56 28/30/56 44/28/56
f 17/27/57 29/30/57 68/28/57
f 32/49/58 30/50/58 72/51/58
f 10/52/59 8/53/59 30/54/59
f 9/37/60 41/36/60 31/55/60
f 25/56/61 9/57/61 88/58/61
f 37/59/62 32/49/62 31/60/62
f 86/61/63 92/62/63 55/63/63
f 84/32/64 25/34/64 33/64/64
f 92/62/65 90/65/65 55/63/65
f 34/31/66 17/27/66 39/29/66
f 37/59/67 30/50/67 32/49/67
f 30/54/68 37/66/68 10/52/68
f 18/40/69 38/42/69 49/43/69
f 17/27/70 68/28/70 39/29/70
f 38/67/71 18/68/71 39/69/71
f 20/70/72 52/71/72 66/72/72
f 72/73/73 40/45/73 32/74/73
f 31/75/74 32/76/74 87/77/74
f 41/36/75 37/78/75 31/55/75
f 41/79/76 10/52/76 37/66/76
f 1/27/77 43/28/77 19/29/77
f 54/40/78 57/42/78 61/43/78
f 4/27/79 44/28/79 3/29/79
f 71/80/80 75/81/80 3/82/80
f 91/83/81 74/84/81 49/85/81
f 49/43/82 74/41/82 18/40/82
f 34/31/83 39/29/83 52/38/83
f 39/69/84 66/72/84 52/71/84
f 57/86/85 54/87/85 19/88/85
f 38/67/86 19/88/86 54/87/86
f 82/89/87 87/77/87 55/63/87
f 90/65/88 88/58/88 55/63/88
f 19/88/89 43/90/89 57/86/89
f 43/90/90 3/82/90 75/81/90
f 91/83/91 58/91/91 22/92/91
f 22/43/92 58/41/92 73/40/92
f 26/41/93 61/48/93 57/39/93
f 91/83/94 85/93/94 58/91/94
f 66/72/95 39/69/95 18/68/95
f 66/39/96 18/40/96 74/41/96
f 91/83/97 49/85/97 67/94/97
f 67/41/98 49/48/98 38/39/98
f 39/69/99 68/95/99 38/67/99
f 19/88/100 38/67/100 68/95/100
f 3/82/101 44/96/101 71/80/101
f 73/97/102 71/80/102 44/96/102
f 40/45/103 72/73/103 8/98/103
f 8/53/104 72/99/104 30/54/104
f 44/96/105 20/70/105 73/97/105
f 66/72/106 73/97/106 20/70/106
f 91/83/107 22/92/107 74/84/107
f 74/41/108 22/48/108 66/39/108
f 75/81/109 57/86/109 43/90/109
f 57/39/110 75/40/110 26/41/110
f 82/89/111 9/57/111 31/75/111
f 87/77/112 82/89/112 31/75/112
f 84/46/113 40/45/113 8/98/113
f 84/100/114 8/53/114 10/52/114
f 91/83/115 26/101/115 85/93/115
f 85/43/116 26/41/116 75/40/116
f 92/62/117 86/61/117 40/102/117
f 86/61/118 32/76/118 40/102/118
f 87/77/119 86/61/119 55/63/119
f 87/77/120 32/76/120 86/61/120
f 88/58/121 82/89/121 55/63/121
f 88/58/122 9/57/122 82/89/122
f 33/103/123 25/56/123 90/65/123
f 88/58/124 90/65/124 25/56/124
f 91/83/125 61/104/125 26/101/125
f 91/83/126 67/94/126 61/104/126
f 40/102/127 33/103/127 92/62/127
f 90/65/128 92/62/128 33/103/128
usemtl ORC_STANDING_LAMP_V2
f 46/105/129 53/106/129 15/107/129
f 53/108/130 36/109/130 15/110/130
f 36/111/131 56/112/131 15/113/131
f 35/114/132 59/115/132 5/116/132
f 45/111/133 62/112/133 42/113/133
f 62/117/134 12/118/134 42/116/134
f 63/117/135 35/118/135 5/116/135
f 69/114/136 46/115/136 15/116/136
f 56/117/137 69/118/137 15/116/137
f 76/108/138 45/109/138 42/110/138
f 59/105/139 77/106/139 5/107/139
f 77/108/140 81/109/140 5/107/140
f 81/111/141 63/112/141 5/113/141
f 12/114/142 89/115/142 42/116/142
f 89/105/143 76/106/143 42/107/143
