# Blender v2.75 (sub 0) OBJ File: 'Empty.blend'
# www.blender.org
mtllib FIREPLACE_PCHIGH.mtl
o FIREPLACE_PCHIGH
v 0.231229 1.720760 -0.193091
v -0.221229 1.720760 0.206361
v -0.221229 1.720760 -0.193091
v 0.140886 -0.003987 0.042266
v 0.090350 1.708260 0.029357
v -0.082785 -0.003987 -0.120241
v 0.233035 2.050760 0.187790
v 0.034187 1.585760 0.002254
v 0.201317 1.870760 0.311862
v 0.233035 2.050760 -0.187790
v 0.034187 1.585760 -0.001798
v 0.201317 1.870760 -0.311862
v -0.029187 1.585760 0.002254
v -0.153172 2.050760 0.247971
v -0.281180 1.870760 0.251681
v -0.029187 1.585760 -0.001798
v -0.153172 2.050760 -0.247971
v -0.281180 1.870760 -0.251681
v -0.090350 1.708260 0.029357
v -0.135586 -0.003987 0.042266
v -0.115960 1.580760 -0.108395
v -0.055839 1.708260 -0.076856
v 0.002650 -0.003987 0.142700
v 0.088085 -0.003987 -0.120241
v -0.201317 1.870760 -0.311862
v -0.201317 1.870760 0.311862
v 0.281180 1.870760 0.251681
v 0.281180 1.870760 -0.251681
v 0.231229 1.720760 0.206361
v -0.115960 1.580760 0.112181
v -0.233035 2.050760 -0.187790
v -0.233035 2.050760 0.187790
v 0.153172 2.050760 0.247971
v 0.153172 2.050760 -0.247971
v 0.000000 1.708260 0.095000
v 0.055839 1.708260 -0.076856
v 0.119048 1.580760 0.112181
v 0.119048 1.580760 -0.108395
v 0.007784 1.585760 -0.029144
v 0.233035 1.890760 -0.187790
v 0.007784 1.585760 0.029600
v 0.233035 1.890760 0.187790
v -0.002784 1.585760 -0.029144
v -0.233035 1.890760 -0.187790
v -0.002784 1.585760 0.029600
v -0.233035 1.890760 0.187790
v -0.153172 1.890760 -0.247971
v -0.153172 1.890760 0.247971
v 0.153172 1.890760 -0.247971
v 0.153172 1.890760 0.247971
v -0.026659 1.585760 -0.072692
v -0.053062 1.585760 0.045802
v 0.031659 1.585760 0.073148
v 0.031659 1.585760 -0.072692
v -0.026659 1.585760 0.073148
v -0.053062 1.585760 -0.045346
v 0.058062 1.585760 0.045802
v 0.058062 1.585760 -0.045346
vt 1.574250 0.002780
vt 1.507510 0.002780
vt 1.561660 0.671840
vt 1.495330 2.039850
vt 1.562060 2.040890
vt 1.517170 1.371100
vt 0.582460 1.372980
vt 0.538840 1.373720
vt 0.540120 2.042830
vt 1.518030 0.671840
vt -0.421720 0.015340
vt -0.488470 0.014850
vt -0.439540 0.684250
vt -0.483160 0.683930
vt 0.606860 2.041690
vt -1.456570 2.056200
vt -1.389830 2.055640
vt -1.407650 1.386700
vt 1.560780 1.371790
vt -1.451270 1.387060
vt -2.120530 -2.259920
vt -2.120530 -1.298740
vt -1.218370 -1.298740
vt -1.218370 -2.259920
vt -1.041400 1.739600
vt -1.041400 1.523990
vt -1.231750 1.523990
vt -1.231750 1.739600
vt -3.739560 0.968480
vt -3.626520 0.901480
vt -3.726980 0.316480
vt -3.846600 0.625130
vt -3.905790 0.588180
vt -3.906420 0.940740
vt 0.247200 0.861080
vt 0.335060 0.909050
vt 0.307630 0.412750
vt 0.354290 0.509650
vt 0.270090 0.562790
vt 0.355570 1.011670
vt 0.069050 -0.377460
vt 0.014740 -0.343080
vt 0.070310 -0.050630
vt -0.653500 1.564390
vt -0.710450 1.534740
vt -0.684970 1.854580
vt -2.735020 -0.014880
vt -2.680700 0.019470
vt -2.679780 -0.307540
vt -2.620270 1.513000
vt -2.731940 1.572350
vt -2.665330 2.142580
vt 2.371950 -0.132930
vt 2.371950 -0.316360
vt 2.244230 -0.398530
vt 0.335960 -0.996920
vt 0.224040 -1.102610
vt 0.224040 -1.377850
vt 1.254370 -0.321300
vt 1.156450 -0.317150
vt 1.159660 -0.164490
vt 1.190820 -0.639000
vt 3.162960 0.573960
vt 3.164620 0.738520
vt 3.236490 0.739450
vt 3.198490 1.083780
vt 1.255980 0.717460
vt 1.158250 0.719970
vt 1.182130 1.048490
vt 1.255570 0.559890
vt 3.076150 -0.003570
vt 3.074480 -0.168310
vt 3.005990 -0.169130
vt 3.018850 -0.513220
vt 2.368400 -0.338400
vt 2.285100 -0.284380
vt 2.287140 -0.167080
vt 0.335960 -1.495370
vt 1.257580 -0.168640
vt 0.345950 2.239060
vt 0.358530 1.720100
vt 0.266960 1.720890
vt 3.234820 0.574890
vt 3.364240 0.822030
vt 3.337830 0.431060
vt 3.285190 0.826860
vt 1.157840 0.562400
vt 1.305420 1.286010
vt 1.284320 1.785780
vt 1.351380 1.789080
vt 3.007660 -0.004390
vt 2.365490 0.799620
vt 2.337480 0.363430
vt 2.277020 0.803220
vt -1.766290 -0.380090
vt -1.766290 -0.083330
vt -1.633010 -0.153300
vt 2.372340 -0.112560
vt -1.633010 -0.317170
vt 2.244230 -0.045360
vt 2.304050 0.362370
vt 3.044700 -0.514090
vt 0.370820 0.745050
vt 0.288290 0.522440
vt 0.275980 0.714710
vt 2.279590 0.976370
vt 2.368060 0.972770
vt 1.333860 1.284480
vt 1.269340 1.286010
vt 1.386370 1.789080
vt 1.219030 1.048670
vt -3.919450 0.760470
vt -3.966210 0.634530
vt -3.977290 0.799510
vt 1.282360 1.984190
vt 1.349410 1.987480
vt 0.311430 2.242250
vt 1.227830 -0.639480
vt -2.823850 0.071090
vt 0.356120 1.515620
vt 0.264550 1.516410
vt 3.307930 0.430700
vt 3.225620 1.082960
vt -0.209640 -0.319370
vt -0.210160 -0.471540
vt -0.260520 -0.358650
vt 3.289330 0.981430
vt 3.368380 0.976600
vt -2.756200 1.519010
vt -2.673260 1.809640
vt -2.638960 1.566410
vt 0.205240 1.615360
vt 0.162480 1.497900
vt 0.151850 1.651420
vt 0.252480 0.802820
vt 0.320130 0.985140
vt 0.335110 0.746310
vt -3.718240 0.679340
vt -3.671230 0.989940
vt -3.603690 0.743750
vt -2.721900 2.193220
vt 0.043040 -0.023350
vt -3.670770 0.261110
vt 0.263360 0.372100
vt -0.655870 1.880110
vt -2.707060 -0.334810
vt -3.876680 0.970220
vt -0.102080 0.612350
vt -0.051470 0.927730
vt -0.025690 0.898730
vt 0.000000 1.000000
vn 0.000000 0.025300 -0.999700
vn -0.587600 0.021600 0.808800
vn 0.587600 0.023400 0.808800
vn -0.950800 0.022800 -0.308900
vn 0.950700 0.025700 -0.308900
vn 0.000000 -1.000000 0.000000
vn 0.000000 1.000000 0.000000
vn -0.801800 -0.022800 0.597100
vn 0.766700 -0.149100 -0.624400
vn -0.801900 -0.023600 -0.596900
vn 0.766900 -0.148400 0.624400
vn -0.763800 -0.159500 -0.625500
vn 0.800300 -0.011600 0.599400
vn -0.764000 -0.158700 0.625400
vn 0.800400 -0.012400 -0.599300
vn 0.000000 -0.517600 -0.855600
vn -0.799300 -0.601000 0.000000
vn -0.549900 0.406100 -0.729800
vn -0.413000 -0.727400 -0.548100
vn -0.549900 0.406100 0.729800
vn -0.413300 -0.726900 0.548400
vn 0.419800 -0.716500 0.557100
vn 0.549900 0.406100 0.729800
vn 0.549900 0.406100 -0.729800
vn 0.419500 -0.717000 -0.556700
vn 0.000000 -0.558200 0.829700
vn 0.454100 0.656300 0.602600
vn 0.454400 0.655700 -0.603000
vn -0.456600 0.651500 -0.605900
vn -0.456300 0.652000 0.605600
vn 0.780400 -0.625300 0.000000
vn -0.536700 0.665900 0.518200
vn 0.492200 -0.729300 -0.475200
vn 0.798600 0.000000 0.601800
vn -0.601800 0.000000 0.798600
vn -0.537000 0.665500 -0.518500
vn 0.492500 -0.729000 0.475500
vn 0.798600 0.000000 -0.601800
vn -0.601800 0.000000 -0.798600
vn 0.533600 0.670800 0.515200
vn -0.502700 -0.715400 -0.485300
vn -0.798600 0.000000 0.601800
vn 0.601800 0.000000 0.798600
vn 0.533800 0.670300 -0.515400
vn -0.503000 -0.715000 0.485600
vn -0.798600 0.000000 -0.601800
vn 0.601800 0.000000 -0.798600
vn 0.873500 0.087100 -0.478900
vn -0.841300 -0.281700 -0.461300
vn -0.874500 0.073600 0.479400
vn -0.874500 0.072900 -0.479500
vn 0.873500 0.087800 0.478900
vn -0.841500 -0.281100 0.461400
vn 0.844600 -0.268900 -0.463000
vn 0.844700 -0.268300 0.463100
usemtl OC_O_WOOD_01
s off
f 24/1/1 6/2/1 36/3/1
f 20/4/2 23/5/2 19/6/2
f 5/7/3 35/8/3 23/9/3
f 6/2/1 22/10/1 36/3/1
f 6/11/4 20/12/4 22/13/4
f 20/12/4 19/14/4 22/13/4
f 23/9/3 4/15/3 5/7/3
f 4/16/5 24/17/5 36/18/5
f 23/5/2 35/19/2 19/6/2
f 36/18/5 5/20/5 4/16/5
usemtl OC_O_WOODONLY_01
f 37/21/6 30/22/6 21/23/6
f 21/23/6 38/24/6 37/21/6
usemtl MATERIAL_#387
f 1/25/7 3/26/7 2/27/7
f 2/27/7 29/28/7 1/25/7
usemtl OC_O_METAL_01
f 9/29/8 50/30/8 53/31/8
f 42/32/9 27/33/9 57/34/9
f 49/35/10 12/36/10 54/37/10
f 28/38/11 40/39/11 58/40/11
f 15/41/12 46/42/12 52/43/12
f 48/44/13 26/45/13 55/46/13
f 44/47/14 18/48/14 56/49/14
f 25/50/15 47/51/15 51/52/15
f 38/53/16 21/54/16 3/55/16
f 3/56/17 21/57/17 30/58/17
f 25/59/18 18/60/18 31/61/18
f 18/60/19 25/59/19 56/62/19
f 32/63/20 15/64/20 26/65/20
f 26/65/21 15/64/21 52/66/21
f 27/67/22 9/68/22 53/69/22
f 9/68/23 27/67/23 7/70/23
f 10/71/24 28/72/24 12/73/24
f 54/74/25 12/73/25 28/72/25
f 2/75/26 30/76/26 37/77/26
f 2/78/17 3/56/17 30/58/17
f 31/61/18 17/79/18 25/59/18
f 43/80/27 47/81/27 44/82/27
f 26/65/20 14/83/20 32/63/20
f 48/84/28 45/85/28 46/86/28
f 7/70/23 33/87/23 9/68/23
f 41/88/29 50/89/29 42/90/29
f 12/73/24 34/91/24 10/71/24
f 49/92/30 39/93/30 40/94/30
f 1/95/31 29/96/31 37/97/31
f 29/98/26 2/75/26 37/77/26
f 38/99/31 1/95/31 37/97/31
f 3/55/16 1/100/16 38/53/16
f 39/93/32 11/101/32 40/94/32
f 28/72/33 58/102/33 54/74/33
f 28/103/34 10/104/34 40/105/34
f 40/94/35 10/106/35 34/107/35
f 8/108/36 41/109/36 42/110/36
f 53/69/37 57/111/37 27/67/37
f 42/112/38 7/113/38 27/114/38
f 33/115/39 7/116/39 42/90/39
f 16/117/40 43/80/40 44/82/40
f 25/59/41 51/118/41 56/62/41
f 44/47/42 31/119/42 18/48/42
f 17/120/43 31/121/43 44/82/43
f 45/85/44 13/122/44 46/86/44
f 55/123/45 26/65/45 52/66/45
f 15/124/46 32/125/46 46/126/46
f 46/86/47 32/127/47 14/128/47
f 25/129/38 17/130/38 47/131/38
f 44/82/43 47/81/43 17/120/43
f 48/132/34 14/133/34 26/134/34
f 14/128/47 48/84/47 46/86/47
f 49/135/46 34/136/46 12/137/46
f 34/107/35 49/92/35 40/94/35
f 42/90/39 50/89/39 33/115/39
f 9/138/42 33/139/42 50/140/42
f 47/51/48 43/141/48 51/52/48
f 46/42/49 13/142/49 52/43/49
f 50/30/50 41/143/50 53/31/50
f 39/144/51 49/35/51 54/37/51
f 45/145/52 48/44/52 55/46/52
f 16/146/53 44/47/53 56/49/53
f 8/147/54 42/32/54 57/34/54
f 40/148/55 11/149/55 58/150/55
f 20/151/6 6/151/6 4/151/6
f 4/151/6 23/151/6 20/151/6
f 6/151/6 24/151/6 4/151/6
f 56/151/6 51/151/6 43/151/6
f 52/151/6 13/151/6 45/151/6
f 57/151/6 53/151/6 41/151/6
f 39/151/6 54/151/6 58/151/6
f 45/151/6 55/151/6 52/151/6
f 43/151/6 16/151/6 56/151/6
f 41/151/6 8/151/6 57/151/6
f 58/151/6 11/151/6 39/151/6
