# Blender v2.75 (sub 0) OBJ File: 'Empty.blend'
# www.blender.org
mtllib FMC_BRIDGE_TOP.mtl
o FMC_BRIDGE_TOP
v 14.818024 5.444496 1.990288
v 8.439121 2.583122 -1.940409
v 8.364182 2.585768 2.513045
v 14.546110 5.366956 -1.876953
v 11.863792 4.595996 2.172549
v 11.911902 2.521426 2.071472
v 10.385178 2.148774 2.181564
v 10.127684 3.583052 2.311413
v 13.852741 2.447477 2.010387
v 12.053041 4.758605 2.335895
v 12.283829 4.986968 2.050824
v 10.590791 -2.124331 2.228785
v 10.065239 3.590006 2.335895
v 10.368958 3.704755 2.050824
v 11.681242 1.640743 2.256975
v 11.867241 4.751367 2.335895
v 12.170959 4.866116 2.050824
v 12.286259 4.863830 2.335895
v 16.033674 2.438975 2.235931
v 12.447624 4.995770 2.050824
v 9.206907 1.886257 2.227503
v 16.582901 3.897082 2.194919
v 16.499453 3.606364 2.198773
v 10.750389 -2.164915 1.990143
v 9.822520 0.798750 2.452368
v 17.323948 3.834909 1.747437
v 9.655543 0.956617 2.297182
v 14.087461 2.487379 1.874604
v 17.279911 3.836188 1.484584
v 16.032022 2.455902 1.993926
v 9.232822 1.884021 2.003329
v 11.800744 1.622249 2.086732
v 12.147580 4.820749 2.339826
v 11.890617 4.796733 2.046892
v 12.225416 5.117589 2.539550
v 10.345578 3.659388 2.339826
v 10.088615 3.635373 2.046892
v 12.244879 5.117745 -1.887631
v 12.055943 4.809558 2.046892
v 12.280923 4.936013 2.339826
v 12.171339 4.837160 -1.932253
v 14.472570 5.086372 -1.921575
v 12.458444 4.945894 2.339826
v 14.785989 5.214406 1.971938
v 12.275439 4.913706 2.046892
v 12.123578 4.753553 2.521200
v 17.328369 3.663243 1.477136
v 8.363984 2.776735 -1.895786
v 17.372406 3.661963 1.739990
v 8.284580 2.709610 -0.134271
v 9.270837 1.722586 2.231358
v 9.296752 1.720351 2.007184
v 10.735580 -2.186929 2.232717
v 10.605603 -2.102317 1.986211
v 9.707884 0.958332 2.466187
v 14.084839 2.472393 2.012641
v 13.855365 2.462462 1.872350
v 9.795655 0.810073 2.280909
v 11.793996 1.612217 2.258766
v 11.687992 1.650774 2.084940
v 8.344522 2.776579 2.531395
v 16.532888 3.895563 2.332304
v 16.449440 3.604849 2.336159
v 15.884109 2.385976 1.991406
v 15.885760 2.369048 2.233410
v 12.150170 4.560442 0.041566
vt 0.037424 -0.011232
vt -0.057301 -1.068243
vt 1.137779 -0.014244
vt 1.106180 -1.075000
vt 0.534716 -1.028138
vt 1.399816 -0.572511
vt 0.515200 -0.004355
vt -0.421989 -0.339616
vt 0.505529 -0.612934
vt 0.489919 -0.000137
vt 1.392891 -0.002480
vt -0.424480 -1.016005
vt 0.468711 -1.007037
vt 0.615311 0.010009
vt 0.512769 0.003397
vt 0.383294 -0.007195
vt 0.529894 -1.001931
vt 0.485836 -0.013807
vt 0.671005 -1.004583
vt 0.652000 0.002756
vt 0.561483 -0.004453
vt 0.346769 -0.001151
vt 0.327763 -0.989484
vt 0.437286 -0.008360
vt 0.558233 -1.000175
vt 0.518875 0.005779
vt 0.440378 0.001298
vt 0.481045 -0.008556
vt 0.439824 -0.996170
vt 0.559542 -0.013037
vt 0.462165 0.011225
vt 0.474703 -0.996659
vt 0.538391 -0.987868
vt 0.526163 -1.012165
vt 0.538391 -0.002177
vt 0.462476 -1.003374
vt 0.400220 1.047616
vt 0.383918 -1.974997
vt 0.484226 -1.913182
vt 0.535631 1.049624
vt 0.520217 -1.893865
vt 0.620523 -1.955680
vt 0.595030 -1.007980
vt 0.403739 -0.992881
vt 0.493380 -0.007178
vt 0.444314 -1.273918
vt 0.554706 -0.008329
vt 0.526584 -1.280788
vt 0.558279 0.002129
vt 0.489425 -0.008329
vt 0.502439 0.010009
vt 0.439620 -1.007037
vt 0.537459 -1.001931
vt 0.431979 -0.013807
vt 0.460201 -1.005239
vt 0.558040 -1.010346
vt 0.460594 -1.280788
vt 0.554706 -1.277284
vt 0.444314 0.002129
vt 0.538426 -1.277421
vt 0.515495 0.013889
vt 0.485060 0.000488
vt 0.558931 1.047616
vt 0.468463 1.057315
vt 0.442625 -1.955680
vt 0.533093 1.049624
vt 0.442625 1.039925
vt 0.558931 -1.893865
vt 0.456217 -1.000738
vt 0.541840 -0.996732
vt 0.535463 -1.000738
vt 0.519590 0.001298
vt 0.453933 -0.013037
vt 0.522914 -0.996170
vt 0.541370 -0.008556
vt 0.475711 0.005779
vt 1.392891 0.519773
vt 1.419411 0.601213
vt 0.510081 0.165377
vt -1.530286 0.004193
vt 0.517080 -1.007980
vt 0.531051 -0.004453
vt 0.436463 -0.008360
vt 0.520444 -0.989484
vt 0.553504 -0.001151
vt 0.458915 0.002756
vt -1.535355 -1.013550
vt 0.564882 -0.007195
vt 0.494422 0.003397
vt 2.503766 0.858905
vt 2.503766 -0.000025
vt 2.516204 -1.023808
vt 1.858905 -0.000025
vt 1.877609 -1.023808
vt 1.940380 -1.013550
vt 2.530286 0.940345
vt 0.495097 0.013889
vt 0.481016 -0.987868
vt 0.511658 -1.003374
vt 1.940345 0.004193
vt 0.480649 -0.002177
vt 0.493529 -1.012165
vt 0.524171 -0.996659
vt 0.437647 0.009187
vt 0.470568 -1.277284
vt 0.535315 -1.273918
vt 1.278708 -0.085975
vt 1.343746 -0.086861
vt 1.343406 -0.055278
vt 0.515200 0.122690
vt -0.122690 -0.004355
vt -0.182943 -0.612934
vt -0.122098 -1.028138
vt 0.461836 -1.277421
vt 1.278369 -0.054392
vt 0.484851 -1.017879
vt -0.165412 -1.017879
vt 0.603211 1.057315
vt 0.467800 1.039925
vt 0.473564 -0.992881
vt 0.476929 -1.004583
vt 0.505640 0.009187
vt 0.383294 -1.010346
vt 0.615311 -1.005239
vt 0.505415 -0.007178
vt 0.473571 -0.996732
vt 0.461022 -1.000175
vt -0.165377 -0.000137
vt 0.498068 -1.974997
vt 0.503487 -1.913182
vt 0.506898 0.011225
vt 2.340307 -0.124272
vt 2.378825 -0.123692
vt 2.379256 -0.068059
vt 0.521346 0.000488
vt 2.340736 -0.068638
vt 1.405329 -1.026263
vn -0.106200 0.045900 -0.993300
vn 0.106200 -0.045900 0.993300
vn 0.089600 -0.073800 0.993200
vn -0.089600 0.073800 -0.993200
vn 0.466700 -0.884400 0.008400
vn -0.516500 0.856200 -0.009900
vn 0.498100 -0.864100 0.072600
vn -0.520300 0.854000 -0.002300
vn 0.809700 0.576500 0.109800
vn -0.792500 -0.599200 -0.113600
vn 0.993900 0.063700 0.090400
vn -0.991600 -0.088400 -0.094100
vn 0.991700 -0.112500 0.062600
vn -0.995500 0.063300 -0.070600
vn 0.575400 0.809300 0.118100
vn -0.570900 -0.812400 -0.118800
vn 0.032200 -0.022500 -0.999200
vn -0.019500 0.018900 0.999600
vn 0.995600 0.065200 0.066700
vn -0.993600 -0.090100 -0.068800
vn 0.341100 -0.933000 -0.115100
vn 0.099500 -0.014700 0.994900
vn 0.002000 0.071700 -0.997400
vn 0.004900 -0.135700 0.990700
vn -0.347500 0.935600 0.062800
vn 0.348700 -0.935100 -0.063000
vn 0.574300 0.816900 0.053200
vn -0.569900 -0.820000 -0.053500
vn -0.263800 0.963800 -0.040100
vn 0.252900 -0.966700 0.038900
vn 0.993400 -0.110300 0.032500
vn -0.997500 0.060600 -0.035600
vn -0.008000 -0.024400 0.999700
vn 0.017300 -0.013200 -0.999800
vn 0.034000 -0.059800 0.997600
vn -0.125200 0.992100 -0.000500
vn -0.009300 -0.018900 0.999800
vn 0.011200 0.011600 -0.999900
vn -0.107600 0.994100 -0.012400
vn -0.108900 0.183900 -0.976900
vn -0.025400 0.054800 -0.998200
vn 0.054500 -0.092100 0.994300
vn -0.012800 0.160300 -0.987000
vn 0.231600 -0.972700 0.013300
vn 0.967600 -0.242500 -0.069900
vn -0.001800 -0.044000 0.999000
vn 0.988900 -0.132400 -0.066900
vn 0.219000 -0.107800 0.969700
vn 0.007400 0.032400 -0.999400
vn 0.185700 -0.979500 0.078300
vn 0.219100 -0.110200 0.969500
vn -0.110400 0.011900 -0.993800
vn 0.949100 0.272700 -0.157700
vn -0.108500 0.183100 -0.977100
vn -0.710600 -0.703500 -0.011500
vn 0.099500 -0.014900 0.994900
vn -0.516500 0.856200 0.009300
vn -0.935100 -0.350100 -0.055500
vn -0.018700 0.016200 0.999700
vn -0.925600 -0.364000 -0.103400
vn 0.029700 -0.011900 -0.999500
vn -0.036700 -0.022100 0.999100
vn 0.032500 0.012400 -0.999400
vn -0.342600 0.934500 0.096600
vn -0.805400 -0.586200 0.087500
vn 0.809300 0.582100 0.078600
vn -0.791900 -0.605300 -0.080800
vn -0.108600 0.006600 -0.994100
vn -0.692400 -0.686700 0.221400
vn -0.022000 -0.024000 0.999500
vn 0.012700 -0.012500 -0.999800
vn 0.050000 -0.090500 0.994600
vn -0.994200 -0.104800 0.025000
vn -0.261200 0.961600 -0.084400
vn 0.909100 -0.256600 0.328100
vn 0.250500 -0.964800 0.080500
vn 0.003900 0.027800 -0.999600
vn 0.427400 -0.901700 -0.066000
vn 0.001400 -0.039000 0.999200
vn 0.513800 -0.850300 -0.113700
vn 0.107300 -0.984800 -0.136900
usemtl FMC_BRIDGE_TOP_2
s off
f 5/1/1 6/2/1 8/3/1
f 6/2/2 5/1/2 8/3/2
f 8/3/3 7/4/3 6/2/3
f 7/4/4 8/3/4 6/2/4
usemtl FMC_BRIDGE_TOP_1
f 2/5/5 66/6/5 3/7/5
f 35/8/6 50/9/6 61/10/6
f 66/6/7 46/11/7 3/7/7
f 38/12/8 50/9/8 35/8/8
f 28/13/9 11/14/9 40/15/9
f 39/16/10 57/17/10 10/18/10
f 24/19/11 14/20/11 36/21/11
f 37/22/12 54/23/12 13/24/12
f 32/25/13 17/26/13 33/27/13
f 34/28/14 60/29/14 16/30/14
f 30/31/15 20/32/15 43/33/15
f 45/34/16 64/35/16 18/36/16
f 31/37/17 22/38/17 23/39/17
f 51/40/18 63/41/18 62/42/18
f 53/43/19 24/19/19 36/21/19
f 54/23/20 12/44/20 13/24/20
f 58/45/21 47/46/21 25/47/21
f 26/48/22 55/49/22 25/50/22
f 11/51/23 28/52/23 57/53/23
f 10/54/24 9/55/24 56/56/24
f 26/57/25 29/58/25 55/59/25
f 47/46/26 49/60/26 25/47/26
f 19/61/27 30/31/27 43/33/27
f 64/35/28 65/62/28 18/36/28
f 31/63/29 21/64/29 62/65/29
f 51/66/30 52/67/30 63/68/30
f 59/69/31 32/25/31 33/27/31
f 60/29/32 15/70/32 16/30/32
f 59/71/33 33/72/33 16/73/33
f 60/74/34 34/75/34 17/76/34
f 46/77/35 35/78/35 61/79/35
f 35/8/36 1/80/36 38/12/36
f 53/81/37 36/82/37 13/83/37
f 54/84/38 37/85/38 14/86/38
f 4/87/39 38/12/39 1/80/39
f 38/78/40 41/77/40 48/79/40
f 57/53/41 39/88/41 11/51/41
f 56/56/42 40/89/42 10/54/42
f 41/77/43 38/78/43 42/90/43
f 44/91/44 66/6/44 42/92/44
f 44/93/45 42/94/45 4/95/45
f 4/96/43 42/90/43 38/78/43
f 19/97/46 43/98/46 18/99/46
f 1/100/47 44/93/47 4/95/47
f 44/90/48 1/96/48 35/78/48
f 64/101/49 45/102/49 20/103/49
f 66/6/50 44/91/50 46/11/50
f 35/78/51 46/77/51 44/90/51
f 27/104/52 29/105/52 47/106/52
f 47/107/53 29/108/53 26/109/53
f 2/110/54 48/79/54 41/77/54
f 3/111/55 50/112/55 2/113/55
f 25/50/56 49/114/56 26/48/56
f 26/109/53 49/115/53 47/107/53
f 50/9/57 38/12/57 48/116/57
f 50/112/58 48/117/58 2/113/58
f 62/42/59 21/118/59 51/40/59
f 51/115/60 21/109/60 52/107/60
f 23/39/61 52/119/61 31/37/61
f 31/108/60 52/107/60 21/109/60
f 13/83/62 12/120/62 53/81/62
f 14/86/63 24/121/63 54/84/63
f 29/58/64 27/122/64 55/59/64
f 25/115/65 55/109/65 58/107/65
f 56/123/66 28/13/66 40/15/66
f 57/17/67 9/124/67 10/18/67
f 47/106/68 58/125/68 27/104/68
f 27/108/69 58/107/69 55/109/69
f 16/73/70 15/126/70 59/71/70
f 17/76/71 32/127/71 60/74/71
f 61/79/72 3/110/72 46/77/72
f 61/128/73 50/112/73 3/111/73
f 22/129/74 31/63/74 62/65/74
f 23/107/75 22/108/75 62/109/75
f 52/67/76 23/130/76 63/68/76
f 62/109/75 63/115/75 23/107/75
f 20/103/77 30/131/77 64/101/77
f 64/132/78 30/133/78 19/134/78
f 18/99/79 65/135/79 19/97/79
f 19/134/78 65/136/78 64/132/78
f 66/6/80 2/5/80 41/137/80
f 66/6/81 41/137/81 42/92/81
