# Blender v2.75 (sub 0) OBJ File: 'Empty.blend'
# www.blender.org
mtllib HERB_PSI.mtl
o HERB_PSI
v -1.816132 0.010000 0.343483
v -2.027182 0.010000 1.481283
v -0.366189 0.010000 1.745953
v -1.721458 0.059171 1.276053
v -0.220120 0.010000 0.673413
v -0.609803 0.059170 1.465013
v -1.595852 0.059171 0.723083
v -0.669189 0.059170 0.919623
v -0.279673 0.000000 0.464773
v 0.293958 0.000000 0.200683
v 0.438488 0.000000 0.830633
v 0.125759 0.521837 0.981233
v 0.515728 0.472988 0.492223
v -0.081362 0.470425 0.207143
v 0.125759 0.000000 0.981233
v -0.224002 0.443287 0.830633
v 0.299308 0.500000 0.164049
v 0.139659 0.271000 0.833563
v 0.365008 0.271000 0.526633
v -0.186974 0.000000 0.830633
v 0.412308 0.543959 0.804943
v -0.264212 0.500000 0.492223
v 0.480808 0.000000 0.502313
v -0.066101 0.271000 0.734243
v 0.232238 0.271000 0.360133
v -0.037560 0.000000 0.251543
v -0.113487 0.271000 0.526633
v 0.019285 0.271000 0.360133
v 0.297108 0.271000 0.720263
v -0.553121 0.422000 0.243903
v -0.330434 0.499980 0.430753
v -0.366264 0.499980 0.021213
v -0.143577 0.499980 0.208073
v -0.572464 -0.000811 0.204203
v -0.492677 0.453772 0.270203
v -0.509086 0.000417 0.288833
v -0.405780 -0.000811 0.011524
v -0.362460 0.435000 0.148334
v -0.311430 0.000417 0.059244
v -0.264973 0.435000 0.230133
v -0.185385 0.000417 0.165007
v -0.122007 -0.000811 0.249643
v -0.383042 0.000417 0.394593
v -0.366837 0.453772 0.375803
v -0.288691 -0.000811 0.442313
v -0.327635 0.453772 0.078039
v -0.429498 0.435000 0.223703
v -0.332011 0.435000 0.305503
v -0.201794 0.453772 0.183632
v -0.553121 0.499980 0.243903
v -0.330434 0.422000 0.430753
v -0.366264 0.422000 0.021213
v -0.143577 0.422000 0.208073
v -0.196911 0.000417 0.237773
v -0.497561 0.000417 0.216063
v -0.313381 0.000417 0.370613
v -0.381090 0.000417 0.083230
v -0.336120 -0.000811 -0.012462
v -0.358351 -0.000811 0.466303
v -0.110482 -0.000811 0.176871
v -0.583989 -0.000811 0.276963
v -0.384784 0.435000 0.323673
v -0.309687 0.435000 0.130162
v -0.438229 0.435000 0.278833
v -0.256242 0.435000 0.175008
v -0.483946 0.453772 0.215083
v -0.210525 0.453772 0.238763
v -0.314064 0.453772 0.357633
v -0.380408 0.453772 0.096210
v 0.060407 0.800125 -0.019422
v 0.062012 0.001690 -0.026014
v 0.502218 0.800125 -0.518566
v 0.498108 0.001690 -0.518848
v -0.048333 0.800125 -0.318183
v 0.610958 0.800125 -0.219805
v -0.045368 0.001690 -0.321038
v 0.605488 0.001690 -0.223823
v 0.390268 0.800125 0.029750
v 0.172747 0.800125 -0.567870
v 0.172853 0.001690 -0.567578
v 0.387648 0.001690 0.022578
v 0.179263 0.701125 -0.549949
v 0.487178 0.701125 -0.503870
v -0.027354 0.701125 -0.316596
v 0.074272 0.701125 -0.037381
v 0.588808 0.701125 -0.224655
v 0.382548 0.701125 0.008575
v 0.697918 0.289030 -0.208287
v 0.001192 0.289030 0.045301
v 0.143212 0.524895 -0.649017
v 0.560218 0.289030 -0.586626
v -0.136512 0.289030 -0.333037
v 0.418578 0.289030 0.107552
v 0.697918 0.524895 -0.208287
v 0.560218 0.524895 -0.586626
v 0.001192 0.524895 0.045301
v -0.136512 0.524895 -0.333037
v 0.143212 0.289030 -0.649017
v 0.418578 0.524895 0.107552
vt 0.750000 0.750000
vt 0.500000 0.750000
vt 0.750000 1.000000
vt 0.500000 1.000000
vt 0.733630 0.968780
vt 0.536440 0.970410
vt 0.733170 0.920300
vt 0.539790 0.866330
vt 0.728070 0.874080
vt 0.734990 0.890600
vt 0.732840 0.939040
vt 0.537980 0.882090
vt 0.726130 0.985050
vt 0.537700 0.986220
vt 0.734900 0.821000
vt 0.541530 0.767030
vt 0.729800 0.774780
vt 0.735360 0.869480
vt 0.538170 0.871110
vt 0.727860 0.885750
vt 0.539430 0.886920
vt 0.734580 0.839740
vt 0.736730 0.791300
vt 0.539710 0.782790
vt 0.541610 0.836840
vt 0.535820 0.931110
vt 0.535990 0.921350
vt 0.539910 0.771810
vt 0.737090 0.770180
vt 0.541960 0.817160
vt 0.537550 0.831800
vt 0.536250 0.981390
vt 0.539880 0.936140
vt 0.733260 0.989910
vt 0.540220 0.916460
vt 0.537720 0.822050
vt 0.750000 0.999500
vt 0.500000 0.999500
vt 0.750000 0.944250
vt 0.500000 0.944250
vt 0.728490 0.924430
vt 0.726330 0.973380
vt 0.730230 0.825130
vt 0.728310 0.934750
vt 0.730050 0.835450
vt 0.729600 0.786440
vt 0.541170 0.787620
vt 0.538060 0.965630
vt -0.395690 1.141360
vt 1.326730 -0.083970
vt 1.354340 1.201750
vt 1.774850 -0.833920
vt 1.759450 1.791080
vt -0.143630 -0.047420
vt -0.850150 1.661500
vt -0.755040 -0.790070
vt -0.109980 0.000500
vt 0.032600 0.869160
vt -0.108450 0.999500
vt 0.456750 0.000500
vt 0.613860 0.000500
vt 0.604930 0.814610
vt 0.031290 0.000500
vt 0.185120 0.918770
vt 0.181330 0.000500
vt 0.320140 0.000500
vt 0.327690 0.864450
vt 0.466120 0.918770
vt 0.752930 0.000500
vt 0.890020 0.000500
vt 0.891550 0.999500
vt 0.752930 0.958870
vt 0.748940 0.173160
vt 0.213480 0.181660
vt 0.002370 0.005500
vt 0.217980 0.741570
vt 0.462500 0.792950
vt 0.469680 0.992070
vt 0.003950 0.424140
vt 0.993560 0.454760
vt 0.989680 0.987510
vt 0.791860 0.781950
vt 0.988690 0.009170
vt 0.849490 0.465870
vt 0.006340 0.994740
vt 0.123540 0.445820
vt 0.202050 0.630820
vt 0.020040 0.630500
vt 0.040660 0.502060
vt 0.211110 0.629770
vt 0.193830 0.501530
vt 0.049970 0.501830
vt 0.183600 0.999530
vt 0.041590 0.999280
vt 0.201640 0.875740
vt 0.029070 0.630140
vt 0.216320 0.630390
vt 0.198820 0.501990
vt 0.061650 0.501990
vt 0.061650 0.502200
vt 0.206390 0.501790
vt 0.216320 0.630590
vt 0.042620 0.630390
vt 0.042620 0.630590
vt 0.062660 0.501490
vt 0.045360 0.629750
vt 0.216310 0.630480
vt 0.034420 0.630810
vt 0.195700 0.502030
vt 0.194770 0.999320
vt 0.052900 0.999570
vt 0.034830 0.875760
vt 0.227280 0.630120
vt 0.250000 0.999500
vt 0.000000 0.999500
vt 0.000000 0.955000
vt 0.250000 0.955000
vt 0.205150 0.999160
vt 0.226800 0.875110
vt 0.044890 0.874740
vt 0.042620 0.875580
vt 0.216320 0.875580
vt 0.196390 0.999360
vt 0.216320 0.875380
vt 0.042620 0.875380
vt 0.211580 0.874720
vt 0.029540 0.875090
vt 0.051210 0.999120
vt 0.051990 0.502280
vt 0.184500 0.502320
vt 0.060930 0.999560
vt 0.216720 0.875440
vt 0.019630 0.875420
vt 0.060930 0.999360
vt 0.063260 0.998870
vt 0.193240 0.998830
vt -0.173730 0.512160
vt -0.234690 0.632830
vt -0.178230 0.750220
vt -0.060800 0.746980
vt 0.000040 0.626400
vt -0.056420 0.509010
vn 0.000000 -1.000000 0.000000
vn 0.000000 1.000000 0.000000
vn -0.969200 0.192400 -0.153500
vn 0.156500 -0.007100 -0.987700
vn -0.319600 0.190700 -0.928200
vn -0.945400 -0.008300 0.325700
vn -0.156600 -0.007200 0.987600
vn 0.969200 0.192400 0.153500
vn 0.945400 -0.008300 -0.325700
vn 0.319600 0.190700 0.928100
vn 0.949400 0.044200 -0.311000
vn -0.946300 -0.007400 0.323200
vn 0.154200 -0.006400 -0.988000
vn -0.141900 0.043200 0.988900
vn 0.946300 -0.007400 -0.323100
vn -0.949400 0.044200 0.310900
vn 0.141800 0.043200 -0.989000
vn -0.154400 -0.006400 0.988000
vn -0.766000 0.000000 -0.642800
vn -0.642800 0.000000 0.766100
vn 0.766000 0.000000 0.642800
vn 0.642800 0.000000 -0.766000
vn -0.975700 -0.155500 -0.154500
vn 0.975700 -0.155500 0.154500
vn -0.321600 -0.153800 -0.934300
vn 0.321700 -0.153800 0.934300
vn 0.944100 0.049400 -0.325900
vn -0.944100 0.049400 0.325900
vn 0.157000 0.048300 -0.986400
vn -0.157100 0.048300 0.986400
vn -0.321700 -0.153800 -0.934300
vn 0.319600 0.190700 0.928200
vn -0.180600 0.983000 -0.033500
vn -0.031900 0.981700 0.187700
vn -0.031700 0.979500 0.198900
vn 0.171800 0.984900 0.023400
vn 0.030100 0.988900 -0.145600
vn -0.158300 0.986700 -0.036000
vn 0.030200 0.989300 -0.142500
vn 0.102800 0.994600 -0.011200
vn 0.951700 0.060000 0.301100
vn -0.966200 -0.080700 0.244800
vn 0.989300 -0.070300 0.127500
vn 0.829800 -0.073100 -0.553200
vn -0.150800 -0.106800 -0.982800
vn -0.992300 0.024000 0.121900
vn 0.433000 0.063300 0.899200
vn -0.389100 -0.032500 0.920600
vn -0.106700 -0.071500 -0.991700
vn -0.433900 0.000000 0.901000
vn 0.524000 0.000000 0.851700
vn -0.840800 -0.127900 -0.526000
vn 0.849100 -0.047600 -0.526000
vn -0.659700 0.061500 -0.749000
vn 0.589000 0.657600 0.469700
vn -0.843700 0.447900 -0.295900
vn 0.040400 0.620900 0.782800
vn 0.244500 0.502000 -0.829600
vn 0.743600 0.668200 0.023600
vn -0.773200 0.513500 -0.372200
vn -0.646600 0.596500 0.475500
vn -0.494700 0.441100 -0.748800
vn 0.731200 0.543300 0.412600
vn 0.322800 0.669900 -0.668600
vn -0.643600 0.567700 0.513300
vn 0.832900 0.519700 -0.190100
vn 0.000000 0.650400 0.759600
vn -0.533500 0.406900 -0.741400
vn -0.721800 0.265800 -0.639000
vn -0.142500 0.255600 0.956200
vn -0.723800 -0.256200 -0.640700
vn -0.142600 0.255500 0.956200
vn -0.904300 0.272000 0.329100
vn 0.904300 0.271900 -0.329100
vn 0.724200 0.255500 0.640500
vn 0.142600 0.265800 -0.953400
vn 0.143200 -0.256200 -0.956000
vn 0.724200 0.255600 0.640500
vn -0.145900 0.166900 0.975100
vn 0.738200 0.166900 0.653600
vn -0.922600 0.190000 0.335800
vn 0.922600 0.190100 -0.335800
vn 0.144600 0.196200 -0.969800
vn -0.734500 0.196200 -0.649600
vn 0.144600 0.196200 -0.969900
vn 0.721900 -0.266700 0.638500
vn 0.904000 -0.273000 -0.329000
vn -0.904000 -0.273000 0.329000
vn -0.142200 -0.266700 0.953200
vn 0.142700 0.265800 -0.953400
vn -0.721700 0.265900 -0.639100
vn 0.143000 -0.256400 -0.955900
vn -0.723700 -0.256300 -0.640700
vn 0.722100 -0.266500 0.638400
vn -0.142200 -0.266600 0.953300
vn 0.749100 0.000000 0.662500
vn 0.939700 0.000000 -0.342000
vn 0.148000 0.000000 -0.989000
vn -0.939700 0.000000 0.342000
vn -0.147500 0.000000 0.989100
vn -0.748800 0.000000 -0.662800
usemtl OC_O_WOOD_02
s off
f 30/1/1 52/2/1 51/3/1
f 31/3/2 33/4/2 50/1/2
f 32/2/2 50/1/2 33/4/2
f 53/4/1 51/3/1 52/2/1
f 61/5/3 35/6/3 34/7/3
f 34/7/4 47/8/4 55/9/4
f 58/10/5 37/11/5 46/12/5
f 57/13/6 38/14/6 37/11/6
f 42/15/7 40/16/7 54/17/7
f 60/18/8 49/19/8 42/15/8
f 56/20/9 48/21/9 45/22/9
f 59/23/10 45/22/10 44/24/10
f 46/12/11 63/25/11 58/10/11
f 37/11/12 38/14/12 69/26/12
f 66/27/13 47/8/13 34/7/13
f 35/28/14 61/29/14 64/30/14
f 45/22/15 48/21/15 68/31/15
f 44/32/16 62/33/16 59/34/16
f 49/19/17 60/18/17 65/35/17
f 67/36/18 40/16/18 42/15/18
f 50/37/19 32/38/19 30/39/19
f 50/38/20 30/40/20 31/37/20
f 51/39/20 31/37/20 30/40/20
f 31/38/21 51/40/21 33/37/21
f 52/40/19 30/39/19 32/38/19
f 52/39/22 32/37/22 53/40/22
f 33/38/22 53/40/22 32/37/22
f 53/39/21 33/37/21 51/40/21
f 41/41/23 54/42/23 65/35/23
f 36/43/24 55/9/24 64/30/24
f 43/44/25 62/33/25 56/20/25
f 39/45/26 63/25/26 57/46/26
f 39/45/27 58/10/27 63/25/27
f 43/44/28 59/34/28 62/33/28
f 41/41/29 65/35/29 60/18/29
f 36/43/30 64/30/30 61/29/30
f 48/21/31 56/20/31 62/33/31
f 38/47/26 57/46/26 63/25/26
f 47/8/24 64/30/24 55/9/24
f 40/48/23 65/35/23 54/42/23
f 66/27/3 34/7/3 35/6/3
f 67/36/8 42/15/8 49/19/8
f 68/31/32 44/24/32 45/22/32
f 69/26/5 46/12/5 37/11/5
usemtl OC_O_STRAWBED_01
f 6/49/2 7/50/2 4/51/2
f 1/52/33 2/53/33 4/51/33
f 2/53/34 6/49/34 4/51/34
f 6/49/2 8/54/2 7/50/2
f 2/53/35 3/55/35 6/49/35
f 6/49/36 3/55/36 5/56/36
f 5/56/37 1/52/37 7/50/37
f 1/52/38 4/51/38 7/50/38
f 5/56/39 7/50/39 8/54/39
f 6/49/40 5/56/40 8/54/40
usemtl MOERSER
f 11/57/41 13/58/41 21/59/41
f 9/60/42 20/61/42 16/62/42
f 11/57/43 23/63/43 13/58/43
f 23/63/44 17/64/44 13/58/44
f 10/65/45 26/66/45 14/67/45
f 9/60/46 16/62/46 22/68/46
f 15/69/47 11/70/47 21/71/47
f 20/61/48 12/72/48 16/62/48
f 10/65/49 14/67/49 17/64/49
f 20/61/50 15/69/50 12/72/50
f 15/69/51 21/71/51 12/72/51
f 26/66/52 22/68/52 14/67/52
f 23/63/53 10/65/53 17/64/53
f 26/66/54 9/60/54 22/68/54
usemtl MATERIAL_#516
f 27/73/55 28/74/55 14/75/55
f 19/76/56 29/77/56 21/78/56
f 17/79/57 14/75/57 28/74/57
f 16/80/58 12/81/58 18/82/58
f 22/83/59 16/80/59 24/84/59
f 21/78/60 13/85/60 19/76/60
f 13/85/61 17/79/61 25/86/61
f 12/81/62 21/78/62 29/77/62
f 14/75/63 22/83/63 27/73/63
f 18/82/64 24/84/64 16/80/64
f 29/77/2 28/74/2 27/73/2
f 29/77/2 19/76/2 25/86/2
f 25/86/65 19/76/65 13/85/65
f 29/77/2 27/73/2 24/84/2
f 24/84/66 27/73/66 22/83/66
f 29/77/2 25/86/2 28/74/2
f 28/74/67 25/86/67 17/79/67
f 29/77/2 24/84/2 18/82/2
f 29/77/68 18/82/68 12/81/68
usemtl OC_O_WOODS_01
f 90/87/69 97/88/69 74/89/69
f 99/90/70 78/91/70 70/92/70
f 80/93/71 76/94/71 98/95/71
f 96/96/72 99/90/72 70/92/72
f 96/97/73 70/98/73 74/99/73
f 72/100/74 75/101/74 94/102/74
f 97/103/73 96/97/73 74/99/73
f 94/102/74 95/104/74 72/100/74
f 75/101/75 78/105/75 99/106/75
f 95/107/76 90/108/76 72/109/76
f 73/110/77 80/111/77 98/112/77
f 99/106/78 94/113/78 75/101/78
f 72/114/79 79/115/79 82/116/79
f 84/117/80 82/116/80 79/115/80
f 75/115/81 72/114/81 83/117/81
f 82/116/79 83/117/79 72/114/79
f 79/115/80 74/114/80 84/117/80
f 85/116/82 84/117/82 74/114/82
f 74/114/82 70/115/82 85/116/82
f 87/117/83 85/116/83 70/115/83
f 78/114/84 75/115/84 86/116/84
f 83/117/81 86/116/81 75/115/81
f 86/116/84 87/117/84 78/114/84
f 70/115/85 78/114/85 87/117/85
f 77/118/86 88/119/86 93/120/86
f 91/121/87 88/122/87 77/118/87
f 71/123/88 89/124/88 92/125/88
f 93/126/89 89/127/89 71/128/89
f 90/108/90 79/129/90 72/109/90
f 74/89/91 79/130/91 90/87/91
f 77/118/87 73/131/87 91/121/87
f 98/112/92 91/132/92 73/110/92
f 76/94/93 92/133/93 98/95/93
f 76/134/88 71/123/88 92/125/88
f 81/135/94 77/118/94 93/120/94
f 71/128/95 81/136/95 93/126/95
f 93/120/96 88/119/96 94/113/96
f 95/104/97 94/102/97 88/122/97
f 88/122/97 91/121/97 95/104/97
f 90/108/98 95/107/98 91/132/98
f 92/125/99 89/124/99 96/97/99
f 99/90/100 96/96/100 89/127/100
f 98/95/101 92/133/101 97/88/101
f 96/97/99 97/103/99 92/125/99
f 91/132/98 98/112/98 90/108/98
f 97/88/101 90/87/101 98/95/101
f 94/113/96 99/106/96 93/120/96
f 89/127/100 93/126/100 99/90/100
usemtl MATERIAL_#484
f 82/137/2 84/138/2 85/139/2
f 82/137/2 85/139/2 87/140/2
f 82/137/2 87/140/2 86/141/2
f 86/141/2 83/142/2 82/137/2
