# Blender v2.75 (sub 0) OBJ File: 'Empty.blend'
# www.blender.org
mtllib HUM_HEAD_THOMAS.mtl
o HUM_HEAD_THOMAS
v 0.044061 0.012680 -0.122592
v 0.203970 -0.000004 0.054775
v 0.176960 -0.031568 -0.102688
v -0.010457 0.027908 -0.122281
v 0.032740 -0.057537 0.024787
v 0.032740 0.057530 0.024787
v 0.035443 -0.000022 -0.079662
v 0.044061 -0.013340 -0.122592
v 0.177115 0.032365 -0.102744
v -0.010471 -0.027741 -0.122285
v 0.037820 -0.013340 -0.122796
v 0.041790 -0.032465 -0.096996
v 0.018881 -0.013340 -0.122994
v 0.037820 0.012680 -0.122796
v 0.041790 0.031804 -0.096996
v 0.018881 0.012680 -0.122994
v 0.205486 -0.051376 0.015367
v 0.205444 0.051423 0.015690
v 0.025103 -0.032465 -0.094315
v 0.025103 0.031804 -0.094314
v 0.043221 -0.032465 -0.099191
v 0.028306 -0.013340 -0.126914
v 0.043222 0.031804 -0.099191
v 0.028306 0.012680 -0.126914
v 0.027069 -0.032465 -0.100497
v 0.027069 0.031804 -0.100497
v 0.148612 -0.000003 0.078147
v 0.035109 0.028285 -0.126127
v 0.035103 -0.028350 -0.126151
v 0.112844 -0.088466 0.016728
v 0.112845 0.088460 0.016728
v 0.067913 -0.000003 -0.148676
v 0.107156 0.058239 0.062411
v 0.107156 -0.058245 0.062410
v 0.164475 0.074726 -0.032960
v 0.214210 -0.000006 -0.074884
v 0.018347 -0.000100 -0.120360
v 0.052144 0.080045 -0.017013
v 0.125222 0.075152 0.004866
v 0.207126 -0.053820 -0.045019
v 0.207126 0.053808 -0.045019
v 0.040715 -0.032876 -0.097693
v 0.035122 -0.009040 -0.133549
v 0.064337 -0.020194 -0.126420
v 0.121481 -0.000003 -0.115511
v 0.064346 0.020185 -0.126417
v 0.044740 0.070612 -0.005623
v 0.164426 -0.074723 -0.032587
v 0.125222 -0.075158 0.004865
v 0.159225 -0.067267 0.049518
v 0.133931 -0.047096 -0.106846
v 0.116662 -0.056195 -0.081730
v 0.159226 0.066745 0.049519
v -0.001017 -0.013829 -0.135253
v -0.001481 -0.045002 -0.063540
v 0.052144 -0.080052 -0.017013
v 0.040719 0.032821 -0.097682
v 0.018490 -0.000061 -0.090731
v 0.025767 0.029923 -0.104594
v 0.025763 -0.029969 -0.104603
v 0.030664 -0.000004 0.040551
v 0.133931 0.047091 -0.106846
v 0.116028 0.056350 -0.085133
v 0.035125 0.008996 -0.133537
v 0.044740 -0.070620 -0.005623
v -0.000865 0.012468 -0.135198
v -0.009430 -0.000003 -0.064586
v 0.080402 -0.005968 -0.149422
v 0.080355 0.005910 -0.149425
v 0.097745 -0.000003 0.075223
v 0.221447 -0.000004 -0.014250
v 0.091435 -0.058148 -0.097568
v 0.091436 0.058328 -0.097567
v 0.103239 0.045113 -0.091706
v 0.123907 -0.087072 -0.007565
v 0.035260 0.011802 -0.133036
v 0.045085 -0.070216 -0.049861
v 0.045061 0.070209 -0.049677
v 0.009778 0.055567 -0.021344
v 0.123907 0.087066 -0.007565
v 0.126222 0.075442 -0.030834
v 0.126222 -0.075472 -0.030834
v 0.162820 -0.061856 -0.073689
v 0.120102 -0.012879 -0.106625
v 0.132588 -0.000003 -0.118896
v 0.120102 0.012873 -0.106625
v 0.162820 0.062067 -0.073688
v 0.103699 -0.045045 -0.091646
v 0.124863 0.041589 -0.099519
v 0.105058 0.023777 -0.106105
v 0.009778 -0.055574 -0.021344
v 0.125028 -0.025768 -0.104945
v 0.105522 -0.023668 -0.106044
v 0.062519 -0.000004 -0.131002
v 0.029681 0.020937 -0.125771
v 0.020568 -0.011737 -0.131810
v 0.020567 0.010596 -0.131810
v 0.123639 -0.041507 -0.090221
v 0.043163 0.029989 -0.101375
v 0.043160 -0.030044 -0.101387
v 0.035426 -0.011735 -0.133050
v 0.040012 -0.051945 -0.100200
v 0.029676 -0.020973 -0.125777
v 0.040886 0.006493 -0.135738
v 0.040881 -0.006549 -0.135742
v 0.029873 -0.012913 -0.134211
v 0.002759 -0.032944 -0.121050
v 0.029790 0.012376 -0.134204
v 0.040012 0.051420 -0.100200
v -0.001481 0.044995 -0.063540
v 0.002766 0.032765 -0.121048
v 0.125028 0.025775 -0.104944
vt 0.523959 0.204186
vt 0.474827 0.204186
vt 0.499930 0.193698
vt 0.499819 0.128611
vt 0.499804 0.114317
vt 0.569285 0.147887
vt 0.570259 0.210884
vt 0.520763 0.162572
vt 0.429654 0.210867
vt 0.543901 0.146940
vt 0.466815 0.146918
vt 0.430644 0.147868
vt 0.489941 0.162555
vt 0.444577 0.141789
vt 0.564920 0.143271
vt 0.419881 0.203945
vt 0.580034 0.203962
vt 0.369451 0.823026
vt 0.215663 0.548353
vt 0.369380 0.503793
vt 0.573929 0.888293
vt 0.637551 0.823027
vt 0.725618 0.978079
vt 0.567387 0.058914
vt 0.613611 0.200292
vt 0.439051 0.058888
vt 0.392342 0.200291
vt 0.089907 0.513350
vt 0.003369 0.232756
vt 0.108627 0.232755
vt 0.249054 0.321379
vt 0.167616 0.130107
vt 0.759208 0.263649
vt 0.620847 0.383315
vt 0.557047 0.283365
vt 0.484612 0.111909
vt 0.526487 0.143398
vt 0.483389 0.143690
vt 0.434284 0.887645
vt 0.502382 0.595325
vt 0.503369 0.975266
vt 0.281120 0.978079
vt 0.734976 0.070664
vt 0.559020 0.011592
vt 0.503374 0.042076
vt 0.524165 0.111907
vt 0.479101 0.038927
vt 0.525300 0.039492
vt 0.148506 0.863939
vt 0.003369 0.998376
vt 0.003369 0.874215
vt 0.116397 0.775466
vt 0.156638 0.575178
vt 0.268840 0.784355
vt 1.003370 0.998376
vt 0.869611 0.863939
vt 1.003370 0.874215
vt 0.890957 0.775467
vt 0.737098 0.784355
vt 0.187604 0.324256
vt 0.898110 0.232756
vt 0.916831 0.513350
vt 0.830364 0.280272
vt 0.516178 0.181913
vt 0.563296 0.441723
vt 1.003370 0.486044
vt 1.003370 0.232756
vt 1.003370 0.706926
vt 0.003369 0.486044
vt 0.003369 0.706926
vt 0.843361 0.588924
vt 0.635052 0.499966
vt 0.782097 0.575844
vt 0.849825 0.550687
vt 0.508033 0.257866
vt 0.457869 0.284739
vt 0.381539 0.383313
vt 0.494507 0.181893
vt 0.447246 0.443392
vt 0.501075 0.329799
vt 0.476306 0.499165
vt 0.515747 0.329634
vt 0.530433 0.499165
vt 0.507460 0.297252
vt 0.839122 0.130108
vt 0.802737 0.301146
vt 0.415864 0.590504
vt 0.401359 0.535944
vt 0.440692 0.537903
vt 0.448039 0.011540
vt 0.271762 0.070664
vt -0.160878 0.130108
vt 0.590874 0.590504
vt 0.605854 0.535944
vt 0.567482 0.537903
vt 0.150174 0.536941
vt 0.215231 0.345130
vt 0.503369 0.499905
vt 0.398183 0.439744
vt 0.610976 0.438089
vt 0.183516 0.564744
vt 0.485287 0.163862
vt 0.525611 0.163279
vt 0.816483 0.578490
vt 0.473985 0.114978
vt 0.474653 0.182026
vt 0.420133 0.208068
vt 0.524125 0.182026
vt 0.524761 0.114978
vt 0.578509 0.208069
vt 0.414577 0.150323
vt 0.584007 0.150323
vt 0.475440 0.146474
vt 0.422614 0.212108
vt 0.523374 0.146474
vt 0.576057 0.212109
vt 0.421775 0.154396
vt 0.576885 0.154397
vn -0.980400 0.000000 -0.196800
vn 0.971300 -0.237800 -0.004400
vn -0.978000 0.139400 -0.155100
vn -0.400800 -0.718100 0.568900
vn -0.774600 0.000000 0.632400
vn -0.978200 -0.141000 -0.152600
vn 0.431100 -0.000200 0.902300
vn 0.971100 0.238500 -0.005000
vn -0.343100 0.744900 0.572200
vn 0.864300 0.385200 0.323400
vn -0.941400 0.121500 0.314600
vn -0.941400 -0.121700 0.314700
vn 0.865400 -0.383300 0.322600
vn 0.478800 0.480200 -0.735000
vn 0.480400 -0.479900 -0.734100
vn 0.444400 -0.462600 -0.767200
vn 0.129900 -0.982800 0.131100
vn 0.444400 0.463600 -0.766600
vn 0.130800 0.982800 0.130500
vn -0.774900 -0.000300 0.632100
vn 0.756000 -0.540500 0.369100
vn -0.868600 -0.123800 -0.479900
vn -0.560800 -0.793300 0.237100
vn -0.561100 0.793200 0.236800
vn -0.868600 0.123900 -0.479800
vn 0.757600 0.538600 0.368800
vn -0.054900 -0.937100 -0.344600
vn 0.465100 0.723200 -0.510500
vn -0.001200 0.746300 -0.665700
vn -0.001000 -0.740000 -0.672600
vn -0.438500 -0.252200 0.862600
vn -0.295100 -0.907300 -0.299600
vn -0.887500 -0.151300 0.435300
vn -0.281600 0.908200 -0.309600
vn 0.139300 0.532600 -0.834900
vn -0.249900 -0.000600 -0.968300
vn 0.342100 -0.001700 -0.939700
vn 0.740900 -0.397800 -0.541100
vn -0.980200 0.170800 0.100100
vn 0.156200 0.001200 -0.987700
vn 0.957300 -0.157700 0.242400
vn 0.103100 -0.990000 0.096400
vn 0.957400 0.156800 0.242400
vn 0.386300 0.915400 0.113200
vn 0.623700 -0.464100 0.629000
vn 0.618200 0.464300 0.634300
vn -0.175500 -0.927600 0.329800
vn -0.459500 -0.867300 0.191800
vn -0.175600 0.927600 0.329800
vn -0.413700 0.883800 -0.218500
vn 0.108900 0.425200 -0.898500
vn 0.390200 0.362900 -0.846200
vn -0.443300 0.260300 0.857700
vn 0.369000 0.316200 0.874000
vn -0.443300 -0.260300 0.857700
vn 0.369300 -0.314000 0.874700
vn 0.109600 0.988700 0.102600
vn -0.035800 0.944900 -0.325500
vn 0.599300 -0.002200 -0.800500
vn 0.746700 0.395200 -0.535000
vn -0.005400 0.969300 -0.245800
vn -0.087600 0.962800 0.255500
vn 0.019200 0.999800 0.008700
vn -0.054700 -0.692300 0.719500
vn 0.960200 -0.276800 0.037300
vn 0.393300 -0.913100 0.107800
vn 0.960200 0.277000 0.037500
vn 0.450600 0.891400 0.047500
vn 0.264300 0.190800 -0.945400
vn 0.141100 -0.533300 -0.834100
vn 0.110200 -0.424600 -0.898700
vn 0.387600 -0.366300 -0.845900
vn 0.250600 -0.891900 -0.376500
vn 0.251100 0.891100 -0.378100
vn -0.945500 0.151000 -0.288500
vn -0.391000 0.920300 -0.011300
vn -0.360800 0.819900 0.444500
vn 0.450500 -0.891500 0.048300
vn 0.466300 -0.715600 -0.520000
vn -0.087600 -0.962800 0.255500
vn 0.020000 -0.999800 0.009300
vn 0.163800 -0.364300 0.916700
vn -0.104900 -0.962600 0.250000
vn 0.321500 -0.728900 -0.604500
vn 0.178500 -0.239100 -0.954400
vn -0.049300 -0.927700 -0.370000
vn -0.850300 -0.317500 -0.419700
vn 0.166900 0.366100 0.915500
vn -0.094600 0.962800 0.253300
vn -0.808200 0.000200 -0.588900
vn -0.089100 -0.390100 -0.916400
vn -0.830200 -0.134100 0.541100
vn -0.415100 -0.883800 -0.215900
vn -0.004300 -0.968500 -0.249200
vn -0.390900 -0.920400 -0.011400
vn -0.438500 0.252200 0.862600
vn -0.947500 0.000000 0.319700
vn 0.308400 0.736900 -0.601500
vn 0.172400 0.239600 -0.955400
vn -0.013600 0.915700 -0.401700
vn -0.691900 0.227800 -0.685200
vn 0.213900 0.000200 -0.976900
vn -0.054700 0.692300 0.719500
vn -0.360700 -0.819900 0.444500
vn -0.799400 0.005900 -0.600700
vn 0.177200 0.541300 -0.821900
vn -0.999800 0.000300 0.017900
vn -0.980200 -0.170800 0.099800
vn 0.636400 0.002300 -0.771300
vn -0.356000 -0.663000 -0.658600
vn -0.059900 -0.000500 -0.998200
vn -0.355000 0.663500 -0.658600
vn -0.055900 0.223100 0.973200
vn -0.055900 -0.223100 0.973200
vn 0.974300 -0.192800 -0.116300
vn 0.974300 0.192800 -0.116300
vn 0.310300 -0.868300 -0.387100
vn 0.157600 -0.560900 -0.812800
vn 0.255600 0.896000 -0.363000
vn -0.208700 0.534800 -0.818800
vn 0.451700 0.007800 -0.892100
vn 0.735200 0.421100 -0.531100
vn 0.820700 -0.453400 0.347700
vn -0.084500 -0.991900 -0.095400
vn 0.796400 0.005300 0.604800
vn -0.093300 0.373200 -0.923000
vn -0.057700 -0.959700 -0.275000
vn -0.793400 -0.608600 -0.011700
vn -0.793200 0.608900 -0.011300
vn -0.057500 0.959300 -0.276400
vn -0.459400 0.867300 0.191800
vn -0.887500 0.151300 0.435300
vn 0.820700 0.453400 0.347700
vn -0.084500 0.991800 -0.095400
vn 0.989800 0.139400 0.028900
vn 0.045100 0.895500 -0.442800
vn 0.989800 -0.139500 0.028900
vn 0.045600 -0.895800 -0.442100
vn 0.350500 -0.889800 -0.292200
vn 0.005000 -0.954300 -0.298900
vn 0.593600 -0.499200 -0.631200
vn -0.649400 -0.205800 -0.732000
vn -0.246800 -0.532400 -0.809700
vn -0.649300 0.205900 -0.732200
vn -0.246800 0.532400 -0.809700
vn 0.592800 0.499500 -0.631800
vn 0.353800 0.889000 -0.290700
vn 0.001400 0.954900 -0.296900
vn 0.720800 -0.428400 -0.544800
vn 0.534500 -0.122300 -0.836300
vn -0.694700 0.243700 -0.676700
vn -0.169300 0.634000 -0.754600
vn 0.346000 0.514700 -0.784400
vn 0.022500 0.324600 -0.945600
vn -0.450300 -0.887000 -0.102100
vn -0.966200 0.000000 0.257800
vn -0.496500 -0.296100 -0.815900
vn -0.032200 -0.681300 -0.731300
vn 0.043800 -0.112600 -0.992700
vn 0.346300 -0.510400 -0.787100
vn -0.945500 -0.150600 -0.288600
vn 0.264700 -0.190700 -0.945300
vn 0.500400 -0.330800 0.800100
vn 0.157500 0.000000 -0.987500
vn 0.183100 -0.562800 -0.806100
vn -0.307000 0.510400 -0.803200
vn -0.251200 -0.000000 -0.967900
vn 0.156100 -0.548900 -0.821200
vn -0.834800 0.081900 -0.544400
vn 0.784600 -0.000200 0.620000
vn -0.274500 -0.516500 -0.811100
vn -0.055700 -0.744000 -0.665900
vn -0.096300 -0.938700 -0.331000
vn 0.496700 0.324600 0.804900
vn -0.356700 0.000400 -0.934200
vn -0.197000 0.351400 -0.915300
vn -0.356100 0.000700 -0.934400
vn -0.197000 -0.350600 -0.915600
vn 0.265200 -0.374100 -0.888700
vn 0.204200 0.002000 -0.978900
vn -0.167100 -0.609100 -0.775300
vn -0.339600 -0.915200 -0.216900
vn 0.208900 0.001000 -0.977900
vn 0.231100 0.377900 -0.896500
vn -0.067200 0.750700 -0.657200
vn -0.108400 0.935300 -0.337000
vn -0.450200 0.887100 -0.102100
vn -0.962500 0.165000 0.215500
vn -0.318200 0.922200 -0.219600
vn -0.139500 0.583000 -0.800400
vn -0.496700 0.295900 -0.815900
vn 0.046500 0.111600 -0.992700
vn 0.006200 -0.802900 -0.596100
vn -0.006200 0.802900 0.596100
vn 0.010500 0.000000 -0.999900
vn 0.006200 0.802900 -0.596100
vn -0.006200 -0.802900 0.596100
vn -0.086700 -0.837400 -0.539600
vn 0.086700 0.837400 0.539600
vn -0.086700 0.837400 -0.539600
vn 0.086700 -0.837400 0.539600
vn 0.264500 -0.000000 -0.964400
vn 0.170100 -0.766000 -0.619900
vn -0.170100 0.766000 0.619900
vn 0.170100 0.766000 -0.619900
vn -0.170100 -0.766000 0.619900
vn 0.047200 -0.810200 -0.584300
vn -0.047200 0.810200 0.584300
vn 0.047200 0.810200 -0.584300
vn -0.047200 -0.810200 0.584300
usemtl MOUTH
s off
f 1/1/1 8/2/1 7/3/1
f 58/4/2 37/5/2 59/6/2
f 1/1/3 7/3/3 99/7/3
f 64/8/4 1/1/4 99/7/4
f 64/8/5 8/2/5 1/1/5
f 7/3/6 8/2/6 100/9/6
f 95/10/7 37/5/7 103/11/7
f 37/5/8 58/4/8 60/12/8
f 8/2/9 43/13/9 100/9/9
f 37/5/10 60/12/10 103/11/10
f 100/9/11 43/13/11 29/14/11
f 64/8/12 99/7/12 28/15/12
f 59/6/13 37/5/13 95/10/13
f 7/3/14 42/16/14 58/4/14
f 57/17/15 7/3/15 58/4/15
f 58/4/16 59/6/16 57/17/16
f 28/15/17 57/17/17 59/6/17
f 42/16/18 60/12/18 58/4/18
f 29/14/19 60/12/19 42/16/19
f 64/8/20 43/13/20 8/2/20
f 28/15/21 59/6/21 95/10/21
f 99/7/22 7/3/22 57/17/22
f 28/15/23 99/7/23 57/17/23
f 29/14/24 42/16/24 100/9/24
f 100/9/25 42/16/25 7/3/25
f 60/12/26 29/14/26 103/11/26
usemtl FACE
f 83/18/27 82/19/27 52/20/27
f 9/21/28 87/22/28 41/23/28
f 111/24/29 109/25/29 28/15/29
f 107/26/30 29/14/30 102/27/30
f 34/28/31 61/29/31 5/30/31
f 102/27/32 77/31/32 107/26/32
f 61/29/33 91/32/33 5/30/33
f 111/24/34 78/33/34 109/25/34
f 73/34/35 46/35/35 28/15/35
f 96/36/36 108/37/36 106/38/36
f 3/39/37 85/40/37 9/21/37
f 36/41/38 40/42/38 3/39/38
f 110/43/39 4/44/39 67/45/39
f 97/46/40 54/47/40 66/48/40
f 17/49/41 71/50/41 2/51/41
f 50/52/42 49/53/42 48/54/42
f 71/55/43 18/56/43 2/57/43
f 53/58/44 18/56/44 35/59/44
f 17/49/45 2/51/45 50/52/45
f 2/57/46 18/56/46 53/58/46
f 34/28/47 5/30/47 65/60/47
f 5/30/48 91/32/48 65/60/48
f 6/61/49 33/62/49 47/63/49
f 78/33/50 111/24/50 110/43/50
f 28/15/51 46/35/51 104/64/51
f 90/65/52 46/35/52 73/34/52
f 70/66/53 33/62/53 61/67/53
f 53/58/54 27/68/54 2/57/54
f 70/69/55 61/29/55 34/28/55
f 27/70/56 50/52/56 2/51/56
f 39/71/57 53/58/57 35/59/57
f 87/22/58 63/72/58 81/73/58
f 3/39/59 9/21/59 36/41/59
f 36/41/60 9/21/60 41/23/60
f 73/34/61 78/33/61 81/73/61
f 33/62/62 39/71/62 47/63/62
f 39/71/63 35/59/63 81/73/63
f 47/63/64 39/71/64 31/74/64
f 71/50/65 17/49/65 40/42/65
f 50/52/66 48/54/66 17/49/66
f 18/56/67 71/55/67 41/23/67
f 18/56/68 41/23/68 35/59/68
f 94/75/69 104/64/69 46/35/69
f 44/76/70 72/77/70 29/14/70
f 44/76/71 29/14/71 105/78/71
f 93/79/72 72/77/72 44/76/72
f 68/80/73 84/81/73 44/76/73
f 69/82/74 46/35/74 86/83/74
f 32/84/75 94/75/75 46/35/75
f 79/85/76 47/63/76 78/33/76
f 47/63/77 31/74/77 38/86/77
f 40/42/78 17/49/78 48/54/78
f 83/18/79 3/39/79 40/42/79
f 49/53/80 34/28/80 65/60/80
f 48/54/81 49/53/81 82/19/81
f 27/70/82 34/28/82 50/52/82
f 34/28/83 49/53/83 50/52/83
f 3/39/84 83/18/84 51/87/84
f 51/87/85 85/40/85 3/39/85
f 52/20/86 51/87/86 83/18/86
f 51/87/87 98/88/87 92/89/87
f 33/62/88 27/68/88 53/58/88
f 33/62/89 53/58/89 39/71/89
f 4/44/90 54/47/90 10/90/90
f 96/36/91 29/14/91 107/26/91
f 55/91/92 79/92/92 67/45/92
f 107/26/93 77/31/93 55/91/93
f 77/31/94 72/77/94 82/19/94
f 65/60/95 91/32/95 77/31/95
f 61/67/96 33/62/96 6/61/96
f 61/29/97 79/92/97 91/32/97
f 87/22/98 9/21/98 62/93/98
f 85/40/99 62/93/99 9/21/99
f 62/93/100 63/72/100 87/22/100
f 89/94/101 62/93/101 112/95/101
f 94/75/102 105/78/102 104/64/102
f 49/53/103 65/60/103 30/96/103
f 30/96/104 65/60/104 56/97/104
f 66/48/105 54/47/105 4/44/105
f 66/48/106 111/24/106 97/46/106
f 67/45/107 4/44/107 10/90/107
f 10/90/108 55/91/108 67/45/108
f 69/82/109 45/98/109 68/80/109
f 32/84/110 68/80/110 44/76/110
f 32/84/111 69/82/111 68/80/111
f 46/35/112 69/82/112 32/84/112
f 33/62/113 70/66/113 27/68/113
f 70/69/114 34/28/114 27/70/114
f 40/42/115 36/41/115 71/50/115
f 71/50/116 36/41/116 41/23/116
f 72/77/117 52/20/117 82/19/117
f 93/79/118 98/88/118 88/99/118
f 81/73/119 63/72/119 73/34/119
f 89/94/120 90/65/120 74/100/120
f 74/100/121 73/34/121 63/72/121
f 74/100/122 90/65/122 73/34/122
f 30/96/123 75/101/123 49/53/123
f 30/96/124 56/97/124 75/101/124
f 101/102/125 76/103/125 95/10/125
f 97/46/126 111/24/126 28/15/126
f 56/97/127 77/31/127 75/101/127
f 77/31/128 56/97/128 65/60/128
f 38/86/129 78/33/129 47/63/129
f 38/86/130 80/104/130 78/33/130
f 79/85/131 6/61/131 47/63/131
f 79/85/132 61/67/132 6/61/132
f 80/104/133 31/74/133 39/71/133
f 38/86/134 31/74/134 80/104/134
f 81/73/135 80/104/135 39/71/135
f 78/33/136 80/104/136 81/73/136
f 75/101/137 82/19/137 49/53/137
f 75/101/138 77/31/138 82/19/138
f 48/54/139 83/18/139 40/42/139
f 83/18/140 48/54/140 82/19/140
f 45/98/141 84/81/141 68/80/141
f 92/89/142 85/40/142 51/87/142
f 45/98/143 85/40/143 84/81/143
f 85/40/144 112/95/144 62/93/144
f 85/40/145 45/98/145 86/83/145
f 69/82/146 86/83/146 45/98/146
f 87/22/147 35/59/147 41/23/147
f 87/22/148 81/73/148 35/59/148
f 93/79/149 88/99/149 72/77/149
f 72/77/150 88/99/150 52/20/150
f 63/72/151 62/93/151 89/94/151
f 63/72/152 89/94/152 74/100/152
f 90/65/153 86/83/153 46/35/153
f 112/95/154 90/65/154 89/94/154
f 91/32/155 55/91/155 77/31/155
f 91/32/156 79/92/156 55/91/156
f 92/89/157 84/81/157 85/40/157
f 92/89/158 98/88/158 93/79/158
f 84/81/159 92/89/159 93/79/159
f 84/81/160 93/79/160 44/76/160
f 32/84/161 44/76/161 94/75/161
f 44/76/162 105/78/162 94/75/162
f 95/10/163 76/103/163 28/15/163
f 54/47/164 97/46/164 96/36/164
f 107/26/165 54/47/165 96/36/165
f 108/37/166 97/46/166 28/15/166
f 96/36/167 97/46/167 108/37/167
f 98/88/168 52/20/168 88/99/168
f 51/87/169 52/20/169 98/88/169
f 101/102/170 95/10/170 103/11/170
f 29/14/171 96/36/171 106/38/171
f 102/27/172 29/14/172 72/77/172
f 77/31/173 102/27/173 72/77/173
f 101/102/174 103/11/174 29/14/174
f 104/64/175 105/78/175 64/8/175
f 104/64/176 64/8/176 28/15/176
f 105/78/177 43/13/177 64/8/177
f 43/13/178 105/78/178 29/14/178
f 29/14/179 106/38/179 101/102/179
f 76/103/180 101/102/180 106/38/180
f 107/26/181 10/90/181 54/47/181
f 107/26/182 55/91/182 10/90/182
f 76/103/183 106/38/183 108/37/183
f 76/103/184 108/37/184 28/15/184
f 28/15/185 109/25/185 73/34/185
f 78/33/186 73/34/186 109/25/186
f 110/43/187 79/85/187 78/33/187
f 67/45/188 79/85/188 110/43/188
f 110/43/189 111/24/189 4/44/189
f 4/44/190 111/24/190 66/48/190
f 86/83/191 112/95/191 85/40/191
f 112/95/192 86/83/192 90/65/192
usemtl TEETH_V0
f 13/105/193 11/106/193 12/107/193
f 11/106/194 13/105/194 12/107/194
f 14/108/195 11/106/195 13/105/195
f 13/105/195 16/109/195 14/108/195
f 15/110/196 14/108/196 16/109/196
f 14/108/197 15/110/197 16/109/197
f 12/107/198 19/111/198 13/105/198
f 19/111/199 12/107/199 13/105/199
f 16/109/200 20/112/200 15/110/200
f 20/112/201 16/109/201 15/110/201
f 1/1/202 8/2/202 22/113/202
f 22/113/203 8/2/203 21/114/203
f 8/2/204 22/113/204 21/114/204
f 22/113/202 24/115/202 1/1/202
f 23/116/205 1/1/205 24/115/205
f 1/1/206 23/116/206 24/115/206
f 21/114/207 25/117/207 22/113/207
f 25/117/208 21/114/208 22/113/208
f 24/115/209 26/118/209 23/116/209
f 26/118/210 24/115/210 23/116/210
