# Blender v2.75 (sub 0) OBJ File: 'Empty.blend'
# www.blender.org
mtllib INVISIBLE_ZCVOBSPOT.mtl
o INVISIBLE_ZCVOBSPOT
v -0.524990 1.941268 -0.025010
v 0.475010 0.941268 -0.025010
v 0.475010 1.941268 0.024990
v -0.524990 0.941268 -0.025010
v -0.049990 1.441268 -0.000010
v 0.000010 1.941268 -0.500010
v 0.000010 0.941268 0.499990
v -0.049990 0.941268 -0.500010
v -0.049990 1.941268 0.499990
v 0.000010 0.050010 0.199990
v 0.141431 -0.049990 -0.141431
v -0.199990 -0.049990 -0.000010
v 0.000010 2.849408 0.199990
v 0.141431 2.949408 -0.141431
v -0.199990 2.949408 -0.000010
v -0.259798 2.899408 -0.150010
v -0.259798 2.899408 0.149990
v -0.399990 2.849408 -0.000010
v 0.150010 0.000010 0.259798
v -0.149990 0.000010 0.259798
v 0.000010 0.050010 0.399990
v 0.259818 0.000010 -0.150010
v 0.259818 0.000010 0.149990
v 0.400010 0.050010 -0.000010
v 0.095940 2.899408 -0.374127
v 0.000010 2.899408 -0.596834
v -0.095920 2.899408 -0.374127
v -0.095920 0.000010 -0.374127
v 0.000010 0.000010 -0.596834
v 0.095940 0.000010 -0.374127
v -0.149990 0.000010 -0.259818
v -0.199990 2.849408 -0.346420
v 0.200010 0.050010 -0.346420
v 0.200010 2.949408 -0.346420
v 0.034029 1.899408 0.058913
v -0.034009 2.899408 0.058913
v -0.068029 1.899408 -0.000010
v 0.068049 2.899408 -0.000010
v -0.068029 1.000010 -0.000010
v 0.034029 0.000010 0.058913
v -0.068029 0.000010 -0.000010
v 0.034029 1.000010 -0.058933
v -0.149990 2.899408 0.259798
v 0.150010 2.899408 0.259798
v -0.199990 2.849408 0.346400
v 0.200010 2.949408 0.346400
v 0.259818 2.899408 0.149990
v 0.259818 2.899408 -0.150010
v 0.346420 2.849408 0.199990
v -0.346400 2.849408 0.199990
v -0.199990 0.050010 0.346400
v -0.259798 0.000010 0.149990
v -0.259798 0.000010 -0.150010
v -0.346400 0.050010 0.199990
v -0.199990 0.050010 -0.346420
v 0.346420 0.050010 0.199990
v 0.346420 2.949408 -0.200010
v -0.346400 2.949408 -0.200010
v 0.200010 -0.049990 0.346400
v -0.346400 0.050010 -0.200010
v 0.346420 -0.049990 -0.200010
v 0.150010 2.899408 -0.259818
v 0.200010 2.849408 -0.346420
v -0.199990 -0.049990 -0.346420
v 0.034029 0.000010 -0.058933
v 0.034029 1.899408 -0.058933
v -0.034009 2.899408 -0.058933
v 0.000010 -0.049990 0.199990
v 0.000010 2.949408 0.199990
v -0.199990 2.849408 -0.000010
v 0.141431 2.849408 -0.141431
v 0.200010 -0.049990 -0.346420
v -0.199990 2.949408 -0.346420
v -0.141411 2.849408 -0.141431
v -0.141411 2.949408 -0.141431
v -0.199990 0.050010 -0.000010
v -0.141411 0.050010 -0.141431
v -0.141411 -0.049990 -0.141431
v 0.141431 2.949408 0.141411
v -0.346400 2.849408 -0.200010
v 0.200010 0.050010 0.346400
v 0.346420 0.050010 -0.200010
v 0.150010 0.000010 -0.259818
v -0.149990 2.899408 -0.259818
v 0.200010 2.849408 -0.000010
v 0.141431 2.849408 0.141411
v 0.200010 0.050010 -0.000010
v 0.000010 0.050010 -0.200010
v 0.200010 2.849408 0.346400
v 0.000010 2.849408 0.399990
v -0.199990 2.949408 0.346400
v 0.346420 2.849408 -0.200010
v -0.346400 -0.049990 -0.200010
v 0.400010 2.849408 -0.000010
v 0.346420 2.949408 0.199990
v -0.346400 2.949408 0.199990
v -0.199990 -0.049990 0.346400
v -0.399990 0.050010 -0.000010
v -0.346400 -0.049990 0.199990
v 0.346420 -0.049990 0.199990
v 0.141431 0.050010 -0.141431
v 0.141431 -0.049990 0.141411
v 0.068049 1.000010 -0.000010
v -0.034009 1.000010 0.058913
v 0.000010 2.849408 -0.400010
v 0.000010 2.949408 -0.400010
v 0.000010 0.050010 -0.400010
v 0.000010 -0.049990 -0.400010
v -0.049990 1.941268 -0.500010
v 0.000010 1.941268 0.499990
v 0.000010 0.941268 -0.500010
v -0.524990 1.941268 0.024990
v 0.475010 1.941268 -0.025010
v 0.475010 0.941268 0.024990
v -0.524990 0.941268 0.024990
v -0.049990 0.941268 0.499990
v 0.000010 2.849408 -0.200010
v 0.000010 -0.049990 -0.200010
v 0.141431 0.050010 0.141411
v 0.000010 2.949408 -0.200010
v -0.141411 0.050010 0.141411
v -0.141411 -0.049990 0.141411
v 0.200010 2.949408 -0.000010
v 0.200010 -0.049990 -0.000010
v -0.141411 2.849408 0.141411
v -0.141411 2.949408 0.141411
v 0.034029 2.899408 0.058913
v -0.034009 0.000010 0.058913
v -0.034009 1.000010 -0.058933
v 0.034029 2.899408 -0.058933
v -0.034009 0.000010 -0.058933
v -0.034009 1.899408 -0.058933
v 0.034029 1.000010 0.058913
v 0.068049 0.000010 -0.000010
v -0.034009 1.899408 0.058913
v 0.068049 1.899408 -0.000010
v -0.068029 2.899408 -0.000010
v 0.400010 2.949408 -0.000010
v -0.399990 2.949408 -0.000010
v 0.000010 -0.049990 0.399990
v -0.399990 -0.049990 -0.000010
v 0.400010 -0.049990 -0.000010
v 0.000010 2.949408 0.399990
v 0.000010 2.972431 -0.000010
v 0.000010 0.073033 -0.000010
v 0.000010 -0.073013 -0.000010
v 0.000010 2.826385 -0.000010
v 0.000010 2.899408 0.299990
v 0.300010 2.899408 -0.000010
v -0.299990 0.000010 -0.000010
v 0.000010 0.000010 -0.300010
v 0.000010 2.899408 -0.300010
v -0.299990 2.899408 -0.000010
v 0.000010 0.000010 0.299990
v 0.300010 0.000010 -0.000010
v -0.034009 0.666677 0.058913
v -0.068029 0.666677 -0.000010
v -0.034009 0.333343 0.058913
v -0.068029 0.333343 -0.000010
v 0.068049 2.232741 -0.000010
v 0.034029 2.232741 0.058913
v 0.034029 0.666677 -0.058933
v 0.068049 0.666677 -0.000010
v 0.034029 0.333343 -0.058933
v 0.068049 0.333343 -0.000010
v -0.034009 2.232741 0.058913
v -0.034009 2.566074 -0.058933
v -0.034009 2.232741 -0.058933
v -0.068029 2.566074 -0.000010
v -0.068029 2.232741 -0.000010
v 0.034029 2.566074 0.058913
v 0.068049 2.566074 -0.000010
v 0.000010 1.899408 -0.000010
v 0.034029 2.232741 -0.058933
v -0.034009 2.566074 0.058913
v 0.034029 2.566074 -0.058933
v 0.000010 2.899408 -0.000010
v -0.024990 1.941268 0.024990
v -0.024990 1.941268 -0.025010
v 0.475010 1.441268 0.024990
v 0.475010 1.441268 -0.025010
v -0.524990 1.441268 0.024990
v -0.024990 1.441268 0.024990
v -0.024990 0.941268 0.024990
v -0.024990 0.941268 -0.025010
v -0.524990 1.441268 -0.025010
v -0.024990 1.441268 -0.025010
v 0.000010 1.441268 -0.000010
v -0.049990 1.441268 -0.500010
v -0.049990 1.441268 0.499990
v 0.000010 1.441268 0.499990
v 0.000010 1.441268 -0.500010
v -0.049990 1.941268 -0.000010
v -0.049990 0.941268 -0.000010
v 0.000010 0.941268 -0.000010
v 0.000010 1.941268 -0.000010
v 0.000010 1.000010 -0.000010
v 0.034029 0.666677 0.058913
v -0.034009 0.666677 -0.058933
v 0.034029 0.333343 0.058913
v -0.034009 0.333343 -0.058933
v 0.000010 0.000010 -0.000010
vt 0.000000 -0.000000
vn -0.000000 -0.000000 1.000000
vn 0.000000 0.000000 -1.000000
vn -1.000000 -0.000000 -0.000000
vn -0.114200 -0.992300 0.047300
vn 0.047300 0.992300 0.114200
vn -0.047300 0.992300 0.114200
vn 0.047300 -0.992300 0.114200
vn -0.496200 -0.841500 -0.213800
vn -0.496200 0.841500 -0.213800
vn 0.496200 0.841500 -0.213800
vn 0.496200 -0.841500 -0.213800
vn -0.119000 -0.888100 0.444000
vn -0.119000 0.888100 0.444000
vn 0.119000 -0.888100 0.444000
vn 0.119000 0.888100 0.444000
vn 0.866000 -0.000000 0.500000
vn -0.866000 0.000000 0.500000
vn -0.866000 0.000000 -0.500000
vn 0.866000 0.000000 -0.500000
vn 0.047300 -0.992300 -0.114200
vn -0.114200 0.992300 -0.047300
vn -0.114200 0.992300 0.047300
vn -0.114200 -0.992300 -0.047300
vn 0.114200 -0.992300 -0.047300
vn 0.114200 -0.992300 0.047300
vn 0.047300 0.992300 -0.114200
vn 0.114200 0.992300 -0.047300
vn 1.000000 0.000000 0.000000
vn -0.047300 -0.992300 -0.114200
vn 0.114200 0.992300 0.047300
vn -0.047300 -0.992300 0.114200
vn -0.047300 0.992300 -0.114200
vn 0.000000 1.000000 0.000000
vn 0.000000 -1.000000 0.000000
vn -0.965900 0.000000 0.258800
vn 0.444000 -0.888100 -0.119000
vn -0.258800 0.000000 0.965900
vn 0.119000 0.888100 -0.444000
vn 0.965900 0.000000 0.258800
vn -0.444000 0.888100 -0.119000
vn -0.258800 0.003500 -0.965900
vn -0.258800 -0.003500 -0.965900
vn 0.258800 -0.003500 -0.965900
vn 0.258800 0.003500 -0.965900
vn 0.119000 -0.888100 -0.444000
vn -0.119000 0.888100 -0.444000
vn -0.119000 -0.888100 -0.444000
vn -0.444000 0.888100 0.119000
vn -0.444000 -0.888100 0.119000
vn 0.444000 0.888100 -0.119000
vn 0.444000 -0.888100 0.119000
vn 0.444000 0.888100 0.119000
vn -0.444000 -0.888100 -0.119000
vn 0.257300 0.000000 -0.966300
vn -0.257300 0.000000 -0.966300
vn 0.382700 0.000000 0.923900
vn -0.923900 0.000000 0.382700
vn -0.382700 0.000000 0.923900
vn -0.382700 0.000000 -0.923900
vn 0.382700 -0.000000 -0.923900
vn 0.923900 0.000000 0.382700
vn -0.923900 0.000000 -0.382700
vn -0.965900 0.000000 -0.258800
vn 0.500000 0.000000 -0.866000
vn 0.258800 0.000000 0.965900
vn 0.965900 0.000000 -0.258800
vn -0.500000 0.000000 -0.866000
vn 0.923900 -0.000000 -0.382700
vn -0.500000 0.000000 0.866000
vn 0.500000 0.000000 0.866000
usemtl ORANGE
s off
f 183/1/1 180/1/1 3/1/1
f 113/1/2 181/1/2 187/1/2
f 5/1/3 190/1/3 9/1/3
f 146/1/4 122/1/4 12/1/4
f 145/1/5 10/1/5 119/1/5
f 144/1/6 126/1/6 69/1/6
f 147/1/7 86/1/7 13/1/7
f 27/1/8 26/1/8 105/1/8
f 27/1/9 106/1/9 26/1/9
f 30/1/10 29/1/10 107/1/10
f 30/1/11 108/1/11 29/1/11
f 151/1/12 108/1/12 72/1/12
f 107/1/13 151/1/13 83/1/13
f 105/1/14 152/1/14 84/1/14
f 152/1/15 106/1/15 73/1/15
f 171/1/1 166/1/1 161/1/1
f 172/1/16 161/1/16 160/1/16
f 172/1/16 171/1/16 161/1/16
f 159/1/17 158/1/17 156/1/17
f 201/1/18 159/1/18 157/1/18
f 201/1/18 157/1/18 199/1/18
f 158/1/1 198/1/1 156/1/1
f 151/1/15 107/1/15 55/1/15
f 31/1/14 64/1/14 108/1/14
f 62/1/13 34/1/13 106/1/13
f 152/1/12 105/1/12 63/1/12
f 165/1/19 164/1/19 162/1/19
f 169/1/18 167/1/18 168/1/18
f 176/1/19 172/1/19 160/1/19
f 72/1/12 83/1/12 151/1/12
f 73/1/15 84/1/15 152/1/15
f 147/1/20 117/1/20 71/1/20
f 144/1/21 75/1/21 15/1/21
f 145/1/22 76/1/22 121/1/22
f 146/1/23 12/1/23 78/1/23
f 144/1/5 69/1/5 79/1/5
f 83/1/13 33/1/13 107/1/13
f 84/1/14 32/1/14 105/1/14
f 147/1/24 71/1/24 85/1/24
f 147/1/25 85/1/25 86/1/25
f 146/1/7 102/1/7 68/1/7
f 145/1/26 101/1/26 88/1/26
f 145/1/27 87/1/27 101/1/27
f 165/1/19 162/1/19 163/1/19
f 159/1/17 156/1/17 157/1/17
f 25/1/11 105/1/11 26/1/11
f 25/1/10 26/1/10 106/1/10
f 28/1/9 107/1/9 29/1/9
f 28/1/8 29/1/8 108/1/8
f 110/1/1 9/1/1 190/1/1
f 113/1/28 3/1/28 180/1/28
f 180/1/28 181/1/28 113/1/28
f 4/1/3 115/1/3 182/1/3
f 190/1/1 191/1/1 110/1/1
f 147/1/29 74/1/29 117/1/29
f 146/1/29 78/1/29 118/1/29
f 145/1/30 119/1/30 87/1/30
f 144/1/30 79/1/30 123/1/30
f 145/1/6 121/1/6 10/1/6
f 146/1/31 68/1/31 122/1/31
f 144/1/27 123/1/27 14/1/27
f 146/1/25 124/1/25 102/1/25
f 147/1/31 13/1/31 125/1/31
f 144/1/22 15/1/22 126/1/22
f 171/1/1 175/1/1 166/1/1
f 158/1/1 200/1/1 198/1/1
f 164/1/2 199/1/2 162/1/2
f 167/1/2 176/1/2 174/1/2
f 164/1/2 201/1/2 199/1/2
f 167/1/2 174/1/2 168/1/2
f 200/1/16 163/1/16 198/1/16
f 200/1/16 165/1/16 163/1/16
f 175/1/17 170/1/17 166/1/17
f 176/1/19 160/1/19 174/1/19
f 144/1/32 120/1/32 75/1/32
f 144/1/26 14/1/26 120/1/26
f 145/1/32 88/1/32 77/1/32
f 145/1/21 77/1/21 76/1/21
f 146/1/24 11/1/24 124/1/24
f 146/1/20 118/1/20 11/1/20
f 147/1/23 70/1/23 74/1/23
f 147/1/4 125/1/4 70/1/4
f 55/1/15 31/1/15 151/1/15
f 108/1/14 151/1/14 31/1/14
f 63/1/12 62/1/12 152/1/12
f 106/1/13 152/1/13 62/1/13
f 169/1/18 168/1/18 170/1/18
f 175/1/17 169/1/17 170/1/17
f 179/1/33 178/1/33 3/1/33
f 3/1/1 178/1/1 183/1/1
f 3/1/33 113/1/33 179/1/33
f 187/1/2 179/1/2 113/1/2
f 184/1/1 183/1/1 182/1/1
f 182/1/1 115/1/1 184/1/1
f 185/1/34 184/1/34 115/1/34
f 115/1/34 4/1/34 185/1/34
f 185/1/2 4/1/2 186/1/2
f 182/1/3 186/1/3 4/1/3
f 186/1/2 187/1/2 185/1/2
f 110/1/28 191/1/28 188/1/28
f 194/1/3 5/1/3 189/1/3
f 111/1/2 8/1/2 189/1/2
f 192/1/28 188/1/28 195/1/28
f 189/1/2 192/1/2 111/1/2
f 196/1/33 193/1/33 9/1/33
f 9/1/3 193/1/3 5/1/3
f 189/1/3 8/1/3 194/1/3
f 195/1/34 194/1/34 8/1/34
f 195/1/28 111/1/28 192/1/28
f 8/1/34 111/1/34 195/1/34
f 9/1/33 110/1/33 196/1/33
f 188/1/28 196/1/28 110/1/28
usemtl RED
f 1/1/2 179/1/2 187/1/2
f 183/1/1 184/1/1 114/1/1
f 5/1/3 194/1/3 116/1/3
f 193/1/3 109/1/3 189/1/3
f 188/1/28 192/1/28 6/1/28
f 7/1/28 195/1/28 188/1/28
f 189/1/3 5/1/3 193/1/3
f 139/1/35 18/1/35 50/1/35
f 18/1/36 153/1/36 17/1/36
f 140/1/37 21/1/37 51/1/37
f 21/1/38 154/1/38 20/1/38
f 142/1/39 24/1/39 56/1/39
f 24/1/40 155/1/40 23/1/40
f 105/1/41 32/1/41 27/1/41
f 106/1/42 27/1/42 73/1/42
f 107/1/43 33/1/43 30/1/43
f 108/1/44 30/1/44 72/1/44
f 137/1/18 167/1/18 169/1/18
f 148/1/45 90/1/45 45/1/45
f 148/1/46 143/1/46 46/1/46
f 46/1/46 44/1/46 148/1/46
f 90/1/47 148/1/47 44/1/47
f 149/1/48 138/1/48 57/1/48
f 94/1/49 149/1/49 48/1/49
f 17/1/36 50/1/36 18/1/36
f 96/1/50 17/1/50 153/1/50
f 20/1/38 51/1/38 21/1/38
f 97/1/45 20/1/45 154/1/45
f 150/1/51 141/1/51 93/1/51
f 98/1/52 150/1/52 53/1/52
f 23/1/40 56/1/40 24/1/40
f 100/1/53 23/1/53 155/1/53
f 57/1/48 48/1/48 149/1/48
f 48/1/49 92/1/49 94/1/49
f 153/1/50 139/1/50 96/1/50
f 153/1/51 18/1/51 80/1/51
f 154/1/45 140/1/45 97/1/45
f 154/1/46 21/1/46 81/1/46
f 53/1/52 60/1/52 98/1/52
f 93/1/51 53/1/51 150/1/51
f 155/1/53 142/1/53 100/1/53
f 155/1/48 24/1/48 82/1/48
f 63/1/16 34/1/16 62/1/16
f 34/1/54 63/1/54 25/1/54
f 55/1/17 64/1/17 31/1/17
f 64/1/55 55/1/55 28/1/55
f 202/1/34 128/1/34 41/1/34
f 173/1/34 136/1/34 35/1/34
f 177/1/33 127/1/33 38/1/33
f 68/1/56 119/1/56 10/1/56
f 12/1/57 122/1/57 121/1/57
f 69/1/58 125/1/58 13/1/58
f 79/1/56 13/1/56 86/1/56
f 69/1/58 126/1/58 125/1/58
f 75/1/59 120/1/59 117/1/59
f 120/1/60 71/1/60 117/1/60
f 123/1/61 79/1/61 86/1/61
f 33/1/54 72/1/54 30/1/54
f 32/1/55 73/1/55 27/1/55
f 15/1/62 74/1/62 70/1/62
f 15/1/62 75/1/62 74/1/62
f 12/1/57 121/1/57 76/1/57
f 118/1/59 78/1/59 77/1/59
f 78/1/62 76/1/62 77/1/62
f 78/1/62 12/1/62 76/1/62
f 79/1/56 69/1/56 13/1/56
f 58/1/63 80/1/63 18/1/63
f 80/1/64 58/1/64 16/1/64
f 59/1/65 81/1/65 21/1/65
f 81/1/19 59/1/19 19/1/19
f 61/1/66 82/1/66 24/1/66
f 82/1/67 61/1/67 22/1/67
f 83/1/16 72/1/16 33/1/16
f 84/1/17 73/1/17 32/1/17
f 14/1/68 85/1/68 71/1/68
f 123/1/61 86/1/61 85/1/61
f 11/1/60 88/1/60 101/1/60
f 118/1/59 77/1/59 88/1/59
f 89/1/65 46/1/65 143/1/65
f 44/1/19 46/1/19 89/1/19
f 143/1/65 90/1/65 89/1/65
f 44/1/47 89/1/47 90/1/47
f 91/1/37 45/1/37 90/1/37
f 45/1/18 91/1/18 43/1/18
f 92/1/66 57/1/66 138/1/66
f 48/1/67 57/1/67 92/1/67
f 60/1/63 93/1/63 141/1/63
f 53/1/64 93/1/64 60/1/64
f 138/1/66 94/1/66 92/1/66
f 149/1/53 94/1/53 49/1/53
f 95/1/39 49/1/39 94/1/39
f 49/1/69 95/1/69 47/1/69
f 50/1/35 96/1/35 139/1/35
f 17/1/70 96/1/70 50/1/70
f 51/1/37 97/1/37 140/1/37
f 20/1/18 97/1/18 51/1/18
f 141/1/63 98/1/63 60/1/63
f 150/1/50 98/1/50 54/1/50
f 99/1/35 54/1/35 98/1/35
f 54/1/70 99/1/70 52/1/70
f 56/1/39 100/1/39 142/1/39
f 23/1/69 100/1/69 56/1/69
f 124/1/68 11/1/68 101/1/68
f 68/1/56 102/1/56 119/1/56
f 124/1/68 101/1/68 87/1/68
f 197/1/33 129/1/33 39/1/33
f 197/1/33 39/1/33 104/1/33
f 105/1/44 25/1/44 63/1/44
f 106/1/43 34/1/43 25/1/43
f 107/1/42 28/1/42 55/1/42
f 108/1/41 64/1/41 28/1/41
f 109/1/2 6/1/2 192/1/2
f 6/1/33 109/1/33 193/1/33
f 193/1/33 196/1/33 6/1/33
f 194/1/34 195/1/34 7/1/34
f 192/1/2 189/1/2 109/1/2
f 112/1/3 1/1/3 186/1/3
f 1/1/33 112/1/33 178/1/33
f 178/1/33 179/1/33 1/1/33
f 2/1/34 114/1/34 184/1/34
f 184/1/34 185/1/34 2/1/34
f 7/1/34 116/1/34 194/1/34
f 75/1/59 117/1/59 74/1/59
f 11/1/60 118/1/60 88/1/60
f 102/1/61 87/1/61 119/1/61
f 120/1/60 14/1/60 71/1/60
f 122/1/58 10/1/58 121/1/58
f 122/1/58 68/1/58 10/1/58
f 14/1/68 123/1/68 85/1/68
f 102/1/61 124/1/61 87/1/61
f 126/1/57 70/1/57 125/1/57
f 126/1/57 15/1/57 70/1/57
f 177/1/33 36/1/33 127/1/33
f 202/1/34 40/1/34 128/1/34
f 197/1/33 42/1/33 129/1/33
f 177/1/33 38/1/33 130/1/33
f 202/1/34 41/1/34 131/1/34
f 173/1/34 132/1/34 66/1/34
f 197/1/33 104/1/33 133/1/33
f 202/1/34 134/1/34 40/1/34
f 173/1/34 35/1/34 135/1/34
f 173/1/34 66/1/34 136/1/34
f 177/1/33 137/1/33 36/1/33
f 36/1/17 137/1/17 169/1/17
f 94/1/39 138/1/39 95/1/39
f 47/1/40 95/1/40 138/1/40
f 18/1/63 139/1/63 58/1/63
f 16/1/52 58/1/52 139/1/52
f 21/1/65 140/1/65 59/1/65
f 19/1/47 59/1/47 140/1/47
f 98/1/35 141/1/35 99/1/35
f 52/1/36 99/1/36 141/1/36
f 24/1/66 142/1/66 61/1/66
f 22/1/49 61/1/49 142/1/49
f 90/1/37 143/1/37 91/1/37
f 43/1/38 91/1/38 143/1/38
f 45/1/45 43/1/45 148/1/45
f 143/1/38 148/1/38 43/1/38
f 49/1/53 47/1/53 149/1/53
f 138/1/40 149/1/40 47/1/40
f 54/1/50 52/1/50 150/1/50
f 141/1/36 150/1/36 52/1/36
f 80/1/51 16/1/51 153/1/51
f 139/1/52 153/1/52 16/1/52
f 81/1/46 19/1/46 154/1/46
f 140/1/47 154/1/47 19/1/47
f 82/1/48 22/1/48 155/1/48
f 142/1/49 155/1/49 22/1/49
f 157/1/17 156/1/17 104/1/17
f 156/1/1 133/1/1 104/1/1
f 199/1/18 157/1/18 39/1/18
f 157/1/17 104/1/17 39/1/17
f 41/1/17 128/1/17 158/1/17
f 128/1/1 200/1/1 158/1/1
f 131/1/18 41/1/18 159/1/18
f 41/1/17 158/1/17 159/1/17
f 174/1/19 160/1/19 136/1/19
f 160/1/16 35/1/16 136/1/16
f 160/1/16 161/1/16 35/1/16
f 161/1/1 135/1/1 35/1/1
f 163/1/19 162/1/19 42/1/19
f 162/1/2 129/1/2 42/1/2
f 163/1/19 42/1/19 103/1/19
f 198/1/16 163/1/16 103/1/16
f 134/1/19 65/1/19 164/1/19
f 65/1/2 201/1/2 164/1/2
f 134/1/19 164/1/19 165/1/19
f 40/1/16 134/1/16 165/1/16
f 161/1/1 166/1/1 135/1/1
f 166/1/17 37/1/17 135/1/17
f 137/1/18 67/1/18 167/1/18
f 67/1/2 176/1/2 167/1/2
f 170/1/18 168/1/18 132/1/18
f 168/1/2 66/1/2 132/1/2
f 170/1/18 132/1/18 37/1/18
f 166/1/17 170/1/17 37/1/17
f 38/1/16 127/1/16 171/1/16
f 127/1/1 175/1/1 171/1/1
f 130/1/19 38/1/19 172/1/19
f 38/1/16 171/1/16 172/1/16
f 173/1/34 37/1/34 132/1/34
f 173/1/34 135/1/34 37/1/34
f 168/1/2 174/1/2 66/1/2
f 174/1/19 136/1/19 66/1/19
f 127/1/1 36/1/1 175/1/1
f 36/1/17 169/1/17 175/1/17
f 67/1/2 130/1/2 176/1/2
f 130/1/19 172/1/19 176/1/19
f 177/1/33 67/1/33 137/1/33
f 177/1/33 130/1/33 67/1/33
f 181/1/28 180/1/28 114/1/28
f 114/1/1 180/1/1 183/1/1
f 114/1/28 2/1/28 181/1/28
f 187/1/2 181/1/2 2/1/2
f 186/1/3 182/1/3 112/1/3
f 178/1/1 112/1/1 182/1/1
f 182/1/1 183/1/1 178/1/1
f 2/1/2 185/1/2 187/1/2
f 187/1/2 186/1/2 1/1/2
f 6/1/28 196/1/28 188/1/28
f 191/1/1 190/1/1 116/1/1
f 116/1/3 190/1/3 5/1/3
f 116/1/1 7/1/1 191/1/1
f 188/1/28 191/1/28 7/1/28
f 197/1/33 103/1/33 42/1/33
f 197/1/33 133/1/33 103/1/33
f 156/1/1 198/1/1 133/1/1
f 198/1/16 103/1/16 133/1/16
f 162/1/2 199/1/2 129/1/2
f 199/1/18 39/1/18 129/1/18
f 128/1/1 40/1/1 200/1/1
f 40/1/16 165/1/16 200/1/16
f 65/1/2 131/1/2 201/1/2
f 131/1/18 159/1/18 201/1/18
f 202/1/34 65/1/34 134/1/34
f 202/1/34 131/1/34 65/1/34
