# Blender v2.75 (sub 0) OBJ File: 'Empty.blend'
# www.blender.org
mtllib INVISIBLE_ZCVOBSOUNDDAYTIME.mtl
o INVISIBLE_ZCVOBSOUNDDAYTIME
v -0.199990 0.378974 -0.000010
v 0.200010 0.700010 0.199990
v -0.199990 0.000010 -0.200010
v -0.199990 0.201293 0.177670
v -0.199990 0.000010 0.199990
v -0.199990 0.700010 0.199990
v 0.200010 0.700010 -0.200010
v 0.200010 0.000010 -0.200010
v 0.200010 0.000010 0.199990
v -0.199990 0.023613 -0.000010
v -0.199990 0.201293 -0.177690
v -0.199990 0.400010 -0.200010
v -0.199990 0.700010 -0.200010
v -0.034587 0.859648 0.093117
v -0.075539 0.859648 -0.005750
v 0.014847 0.830690 0.043683
v -0.100247 0.073195 -0.000010
v -0.100247 0.200652 -0.127467
v -0.100247 0.328108 -0.000010
v -0.100247 0.200652 0.127447
v -0.130334 0.469232 0.041610
v -0.199990 0.417499 0.041610
v -0.034587 0.801733 0.035202
v -0.199990 0.326899 0.125596
v -0.199990 0.326899 -0.125616
v -0.199990 0.075688 -0.125616
v -0.199990 0.075688 0.125596
v 0.006365 0.859648 -0.005750
v -0.063545 0.900600 0.064159
v -0.063545 0.818696 0.064159
v -0.010450 0.809832 0.002923
v 0.041190 0.761004 -0.033553
v 0.001898 0.816572 0.005739
v -0.066301 0.899540 -0.004094
v -0.113175 0.955108 -0.035804
v -0.069117 0.906280 0.008253
v 0.006196 0.852631 -0.013723
v 0.061764 0.852631 -0.069291
v 0.013778 0.862162 -0.006141
v -0.075930 0.852631 -0.013723
v -0.139080 0.852631 -0.061709
v -0.083512 0.862162 -0.006141
v 0.013778 0.866665 0.075985
v 0.061764 0.866665 0.139134
v 0.069346 0.857134 0.131552
v 0.006196 0.857134 0.083567
v -0.131498 0.862162 -0.069291
v -0.043620 0.717630 0.036092
v -0.029298 0.796215 0.036935
v -0.029298 0.717630 0.036935
v -0.100828 0.961847 -0.038621
v 0.069346 0.862162 -0.061709
v -0.005629 0.900600 0.006244
v -0.005629 0.900600 0.064159
v 0.006365 0.859648 0.076154
v -0.199990 0.509561 0.133672
v -0.130334 0.508896 0.081274
v -0.199990 0.601623 0.041610
v -0.199990 0.574642 -0.023470
v -0.130334 0.548560 0.041610
v -0.100247 0.110550 -0.090112
v -0.100247 0.110550 0.090092
v -0.100247 0.290753 -0.090112
v -0.100247 0.290753 0.090092
v -0.199990 0.444480 -0.023470
v 0.036424 0.965031 0.098631
v 0.001898 0.902724 0.064104
v 0.028842 0.965031 0.106213
v -0.066866 0.809832 0.010505
v -0.103342 0.761004 -0.041135
v -0.110924 0.761004 -0.033553
v -0.005684 0.902724 0.071686
v -0.059284 0.809832 0.002923
v -0.003433 0.819756 0.073938
v 0.038676 0.757449 0.100882
v 0.004149 0.819756 0.066356
v 0.031094 0.757449 0.108464
v -0.131498 0.866665 0.139134
v -0.075930 0.857134 0.083567
v -0.139079 0.866665 0.131552
v -0.098576 0.965031 0.106213
v -0.064050 0.902724 0.071686
v -0.106158 0.965031 0.098631
v -0.026114 0.923081 0.033751
v -0.032854 1.001665 0.040491
v -0.040436 1.001665 0.032909
v 0.004149 0.899540 0.003488
v 0.038676 0.961847 -0.031039
v -0.003433 0.899540 -0.004094
v 0.031094 0.961847 -0.038621
v -0.066301 0.819756 0.073938
v -0.100828 0.757449 0.108464
v -0.073883 0.819756 0.066356
v -0.108410 0.757449 0.100882
v -0.033696 0.923081 0.026169
v -0.071632 0.902724 0.064104
v 0.033608 0.761004 -0.041135
v -0.036880 0.796215 0.029353
v -0.083512 0.857134 0.075985
v -0.130334 0.508896 0.001946
v -0.034587 0.859648 -0.022713
v -0.199990 0.444480 0.106691
v -0.199990 0.509561 -0.050452
v -0.199990 0.574642 0.106691
v -0.084021 0.830690 0.026720
v -0.084021 0.888605 0.026720
v -0.034587 0.917563 0.035202
v -0.005629 0.818696 0.006244
v -0.075539 0.859648 0.076154
v -0.026106 0.830690 0.084635
v -0.043068 0.830690 -0.014232
v 0.023328 0.859648 0.035202
v -0.063545 0.900600 0.006244
v -0.073883 0.899540 0.003488
v -0.002868 0.809832 0.010505
v -0.005684 0.816572 -0.001843
v -0.064050 0.816572 -0.001843
v -0.071632 0.816572 0.005739
v 0.041190 0.958292 0.103397
v 0.069346 0.866665 0.131552
v 0.061764 0.857134 0.139134
v -0.131498 0.852631 -0.069291
v -0.075930 0.862162 -0.013723
v -0.075930 0.866665 0.083567
v 0.013778 0.857134 0.075985
v -0.069117 0.813016 0.061590
v -0.061535 0.906280 0.000671
v -0.083512 0.852631 -0.006141
v -0.110924 0.958292 0.103397
v 0.013778 0.852631 -0.006141
v 0.006196 0.862162 -0.013723
v -0.083512 0.866665 0.075985
v 0.006196 0.866665 0.083567
v -0.066866 0.909464 0.059339
v -0.032854 0.923081 0.040491
v -0.000617 0.813016 0.061590
v 0.035859 0.955108 -0.043386
v -0.010450 0.909464 0.066921
v 0.043441 0.955108 -0.035804
v -0.113175 0.764188 0.105648
v -0.061535 0.813016 0.069172
v -0.139079 0.862162 -0.061709
v -0.000617 0.906280 0.008253
v -0.008199 0.906280 0.000671
v -0.008199 0.813016 0.069172
v 0.033608 0.958292 0.110979
v -0.043620 0.796215 0.036092
v -0.036880 0.717630 0.029353
v -0.105593 0.955108 -0.043386
v -0.059284 0.909464 0.066921
v -0.103342 0.958292 0.110979
v -0.105593 0.764188 0.113230
v 0.035859 0.764188 0.113230
v -0.036038 0.796215 0.043674
v -0.036038 0.717630 0.043674
v -0.002868 0.909464 0.059339
v -0.040436 0.923081 0.032909
v -0.098576 0.754265 -0.036370
v -0.026114 1.001665 0.033751
v 0.036424 0.754265 -0.028788
v 0.069346 0.852631 -0.061709
v -0.106158 0.754265 -0.028788
v 0.028842 0.754265 -0.036370
v -0.108410 0.961847 -0.031039
v -0.131498 0.857134 0.139134
v -0.139079 0.857134 0.131552
v 0.061764 0.862162 -0.069291
v 0.043441 0.764188 0.105648
v -0.033696 1.001665 0.026169
v 0.014847 0.888605 0.043683
v -0.092502 0.859648 0.035202
v -0.043068 0.888605 -0.014232
v -0.005629 0.818696 0.064159
v -0.063545 0.818696 0.006244
v -0.026106 0.888605 0.084635
v -0.130334 0.480857 0.013571
v -0.130334 0.480857 0.069650
v -0.130334 0.536935 0.069650
v -0.130334 0.536935 0.013571
v -0.199990 0.000010 -0.200010
v -0.199990 0.400010 0.199990
vt 0.000000 -0.000000
vn -1.000000 0.000000 0.000000
vn -0.417300 0.839500 0.348000
vn -0.419900 0.347600 -0.838400
vn -0.426200 -0.835700 0.346500
vn -0.423600 -0.346900 -0.836800
vn -0.426200 -0.835700 -0.346500
vn -0.423600 -0.346900 0.836800
vn -0.419900 0.347600 0.838400
vn -0.417300 0.839500 -0.348000
vn -0.568600 0.315000 -0.759900
vn -0.565700 0.761700 -0.315800
vn -0.575500 -0.755500 0.313200
vn -0.572700 -0.314000 -0.757300
vn -0.572700 -0.314000 0.757300
vn -0.565700 0.761700 0.315800
vn -0.568600 0.315000 0.759900
vn -0.575500 -0.755500 -0.313200
vn 0.000000 0.000000 1.000000
vn 0.000000 1.000000 0.000000
vn 1.000000 0.000000 0.000000
vn 0.000000 -1.000000 0.000000
vn 0.000000 0.000000 -1.000000
vn 0.000000 0.862900 -0.505500
vn -0.862900 -0.357400 0.357400
vn 0.000000 -0.862900 -0.505500
vn 0.000000 -0.862900 0.505500
vn 0.505400 -0.862900 0.000000
vn 0.862900 0.357400 -0.357400
vn -0.000000 0.862900 0.505400
vn -0.357400 -0.357400 0.862900
vn -0.505400 -0.862900 -0.000000
vn 0.500000 0.707100 -0.500000
vn -0.500000 -0.707100 0.500000
vn 0.500000 0.707100 0.500000
vn -0.500000 -0.707100 -0.500000
vn 0.707100 -0.000000 -0.707100
vn -0.707100 0.000000 0.707100
vn 0.357400 0.357400 -0.862900
vn -0.000000 0.862900 0.505500
vn 0.534500 0.378000 0.755900
vn 0.912500 0.156600 0.378000
vn 0.534500 -0.378000 0.755900
vn -0.500000 0.707100 -0.500000
vn 0.500000 -0.707100 0.500000
vn 0.500000 -0.707100 -0.500000
vn -0.500000 0.707100 0.500000
vn -0.534500 0.378000 -0.755900
vn -0.000000 -0.862900 -0.505400
vn -0.912500 -0.156600 -0.378000
vn -0.534500 -0.378000 -0.755900
vn -0.505400 0.862900 -0.000000
vn 0.000000 0.862900 -0.505400
vn 0.505400 0.862900 0.000000
vn 0.357400 -0.357400 -0.862900
vn 0.862900 -0.357400 -0.357400
vn -0.862900 0.357400 0.357400
vn -0.357400 0.357400 0.862900
vn 0.378000 -0.156600 0.912500
vn -0.378000 -0.156600 -0.912500
vn 0.912500 -0.156600 0.378000
vn -0.755900 0.378000 -0.534500
vn 0.707100 -0.000000 0.707100
vn -0.707100 0.000000 -0.707100
vn 0.755900 0.378000 0.534500
vn -0.912500 0.156600 -0.378000
vn -0.378000 0.156600 -0.912500
vn 0.755900 -0.378000 0.534500
vn -0.755900 -0.378000 -0.534500
vn 0.378000 0.156600 0.912500
usemtl ZCVOBMAT2
s off
f 56/1/1 181/1/1 6/1/1
f 1/1/1 181/1/1 12/1/1
f 4/1/1 181/1/1 24/1/1
f 10/1/1 180/1/1 5/1/1
f 4/1/1 27/1/1 5/1/1
f 1/1/1 12/1/1 25/1/1
f 10/1/1 26/1/1 180/1/1
f 22/1/1 12/1/1 181/1/1
f 26/1/2 10/1/2 17/1/2
f 20/1/3 62/1/3 27/1/3
f 1/1/4 25/1/4 63/1/4
f 17/1/2 61/1/2 26/1/2
f 63/1/4 19/1/4 1/1/4
f 4/1/5 24/1/5 64/1/5
f 64/1/5 20/1/5 4/1/5
f 27/1/3 4/1/3 20/1/3
f 58/1/1 6/1/1 13/1/1
f 103/1/1 13/1/1 12/1/1
f 103/1/1 59/1/1 13/1/1
f 56/1/1 6/1/1 104/1/1
f 1/1/1 24/1/1 181/1/1
f 24/1/6 1/1/6 19/1/6
f 11/1/1 25/1/1 12/1/1
f 25/1/7 11/1/7 18/1/7
f 11/1/1 180/1/1 26/1/1
f 11/1/8 26/1/8 61/1/8
f 10/1/1 5/1/1 27/1/1
f 10/1/9 27/1/9 62/1/9
f 56/1/1 102/1/1 181/1/1
f 102/1/10 56/1/10 57/1/10
f 177/1/11 21/1/11 22/1/11
f 58/1/1 13/1/1 59/1/1
f 58/1/12 59/1/12 179/1/12
f 56/1/13 104/1/13 178/1/13
f 100/1/14 179/1/14 59/1/14
f 59/1/14 103/1/14 100/1/14
f 178/1/13 57/1/13 56/1/13
f 61/1/8 18/1/8 11/1/8
f 62/1/9 17/1/9 10/1/9
f 18/1/7 63/1/7 25/1/7
f 19/1/6 64/1/6 24/1/6
f 22/1/1 65/1/1 12/1/1
f 65/1/15 22/1/15 21/1/15
f 176/1/16 100/1/16 103/1/16
f 22/1/1 181/1/1 102/1/1
f 22/1/11 102/1/11 177/1/11
f 103/1/1 12/1/1 65/1/1
f 103/1/16 65/1/16 176/1/16
f 58/1/1 104/1/1 6/1/1
f 104/1/17 58/1/17 60/1/17
f 21/1/15 176/1/15 65/1/15
f 57/1/10 177/1/10 102/1/10
f 60/1/17 178/1/17 104/1/17
f 179/1/12 60/1/12 58/1/12
f 11/1/1 12/1/1 180/1/1
f 4/1/1 5/1/1 181/1/1
usemtl ZCVOBMAT1
f 5/1/18 9/1/18 2/1/18
f 20/1/1 64/1/1 18/1/1
f 18/1/1 62/1/1 20/1/1
f 7/1/19 13/1/19 6/1/19
f 2/1/18 6/1/18 5/1/18
f 6/1/19 2/1/19 7/1/19
f 7/1/20 2/1/20 9/1/20
f 5/1/21 3/1/21 8/1/21
f 13/1/22 7/1/22 8/1/22
f 8/1/21 9/1/21 5/1/21
f 9/1/20 8/1/20 7/1/20
f 8/1/22 3/1/22 13/1/22
f 57/1/1 178/1/1 100/1/1
f 62/1/1 18/1/1 61/1/1
f 61/1/1 17/1/1 62/1/1
f 63/1/1 18/1/1 64/1/1
f 64/1/1 19/1/1 63/1/1
f 177/1/1 100/1/1 176/1/1
f 176/1/1 21/1/1 177/1/1
f 100/1/1 177/1/1 57/1/1
f 179/1/1 100/1/1 178/1/1
f 178/1/1 60/1/1 179/1/1
usemtl ZCVOBMAT6
f 113/1/23 53/1/23 172/1/23
f 105/1/24 30/1/24 109/1/24
f 111/1/25 108/1/25 23/1/25
f 23/1/26 173/1/26 110/1/26
f 108/1/27 173/1/27 23/1/27
f 53/1/28 170/1/28 112/1/28
f 29/1/29 54/1/29 107/1/29
f 30/1/30 14/1/30 109/1/30
f 174/1/31 23/1/31 30/1/31
f 23/1/26 110/1/26 30/1/26
f 97/1/32 116/1/32 33/1/32
f 115/1/33 31/1/33 163/1/33
f 164/1/34 36/1/34 127/1/34
f 34/1/35 114/1/35 35/1/35
f 167/1/19 131/1/19 39/1/19
f 130/1/21 37/1/21 38/1/21
f 142/1/19 42/1/19 123/1/19
f 40/1/21 128/1/21 41/1/21
f 125/1/21 45/1/21 121/1/21
f 44/1/19 120/1/19 43/1/19
f 121/1/21 46/1/21 125/1/21
f 43/1/19 133/1/19 44/1/19
f 123/1/19 47/1/19 142/1/19
f 41/1/21 122/1/21 40/1/21
f 49/1/36 50/1/36 148/1/36
f 48/1/37 155/1/37 154/1/37
f 127/1/34 51/1/34 164/1/34
f 35/1/35 149/1/35 34/1/35
f 39/1/19 52/1/19 167/1/19
f 38/1/21 161/1/21 130/1/21
f 172/1/38 53/1/38 28/1/38
f 53/1/28 112/1/28 28/1/28
f 29/1/39 175/1/39 54/1/39
f 55/1/40 54/1/40 175/1/40
f 55/1/41 112/1/41 170/1/41
f 55/1/42 110/1/42 173/1/42
f 68/1/43 66/1/43 156/1/43
f 67/1/44 119/1/44 146/1/44
f 117/1/43 70/1/43 71/1/43
f 162/1/44 158/1/44 73/1/44
f 146/1/44 72/1/44 67/1/44
f 156/1/43 138/1/43 68/1/43
f 73/1/44 69/1/44 162/1/44
f 71/1/43 118/1/43 117/1/43
f 76/1/34 74/1/34 153/1/34
f 77/1/35 145/1/35 136/1/35
f 136/1/35 75/1/35 77/1/35
f 153/1/34 168/1/34 76/1/34
f 80/1/19 78/1/19 124/1/19
f 79/1/21 165/1/21 166/1/21
f 83/1/32 81/1/32 150/1/32
f 82/1/33 151/1/33 129/1/33
f 135/1/37 85/1/37 86/1/37
f 169/1/36 159/1/36 84/1/36
f 87/1/45 89/1/45 137/1/45
f 90/1/46 144/1/46 143/1/46
f 143/1/46 88/1/46 90/1/46
f 137/1/45 139/1/45 87/1/45
f 91/1/46 93/1/46 140/1/46
f 94/1/45 126/1/45 141/1/45
f 141/1/45 92/1/45 94/1/45
f 140/1/46 152/1/46 91/1/46
f 84/1/36 95/1/36 169/1/36
f 86/1/37 157/1/37 135/1/37
f 129/1/33 96/1/33 82/1/33
f 150/1/32 134/1/32 83/1/32
f 33/1/32 32/1/32 97/1/32
f 163/1/33 160/1/33 115/1/33
f 148/1/36 98/1/36 49/1/36
f 154/1/37 147/1/37 48/1/37
f 166/1/21 99/1/21 79/1/21
f 124/1/19 132/1/19 80/1/19
f 15/1/47 113/1/47 172/1/47
f 111/1/48 23/1/48 174/1/48
f 15/1/49 105/1/49 171/1/49
f 15/1/50 111/1/50 174/1/50
f 106/1/51 29/1/51 107/1/51
f 105/1/24 109/1/24 171/1/24
f 113/1/52 107/1/52 53/1/52
f 107/1/53 170/1/53 53/1/53
f 101/1/54 28/1/54 108/1/54
f 28/1/55 16/1/55 108/1/55
f 171/1/56 109/1/56 29/1/56
f 109/1/57 175/1/57 29/1/57
f 30/1/30 110/1/30 14/1/30
f 55/1/58 14/1/58 110/1/58
f 15/1/59 101/1/59 111/1/59
f 101/1/54 108/1/54 111/1/54
f 28/1/55 112/1/55 16/1/55
f 55/1/60 16/1/60 112/1/60
f 15/1/61 106/1/61 113/1/61
f 106/1/51 107/1/51 113/1/51
f 127/1/44 36/1/44 114/1/44
f 35/1/37 114/1/37 36/1/37
f 32/1/62 33/1/62 115/1/62
f 31/1/46 115/1/46 33/1/46
f 33/1/46 116/1/46 31/1/46
f 163/1/63 31/1/63 116/1/63
f 70/1/36 117/1/36 73/1/36
f 69/1/34 73/1/34 117/1/34
f 117/1/34 118/1/34 69/1/34
f 162/1/37 69/1/37 118/1/37
f 146/1/34 119/1/34 66/1/34
f 156/1/36 66/1/36 119/1/36
f 121/1/62 45/1/62 120/1/62
f 43/1/36 120/1/36 45/1/36
f 120/1/62 44/1/62 121/1/62
f 46/1/37 121/1/37 44/1/37
f 142/1/63 47/1/63 122/1/63
f 40/1/36 122/1/36 47/1/36
f 47/1/36 123/1/36 40/1/36
f 128/1/62 40/1/62 123/1/62
f 165/1/62 79/1/62 124/1/62
f 132/1/36 124/1/36 79/1/36
f 45/1/36 125/1/36 43/1/36
f 133/1/63 43/1/63 125/1/63
f 141/1/32 126/1/32 93/1/32
f 140/1/63 93/1/63 126/1/63
f 51/1/36 127/1/36 34/1/36
f 114/1/44 34/1/44 127/1/44
f 123/1/62 42/1/62 128/1/62
f 41/1/37 128/1/37 42/1/37
f 81/1/46 83/1/46 129/1/46
f 96/1/63 129/1/63 83/1/63
f 52/1/62 39/1/62 130/1/62
f 37/1/37 130/1/37 39/1/37
f 39/1/37 131/1/37 37/1/37
f 38/1/63 37/1/63 131/1/63
f 79/1/36 99/1/36 132/1/36
f 80/1/63 132/1/63 99/1/63
f 125/1/63 46/1/63 133/1/63
f 44/1/37 133/1/37 46/1/37
f 82/1/45 96/1/45 134/1/45
f 83/1/63 134/1/63 96/1/63
f 85/1/62 135/1/62 84/1/62
f 95/1/21 84/1/21 135/1/21
f 75/1/36 136/1/36 76/1/36
f 74/1/43 76/1/43 136/1/43
f 139/1/32 137/1/32 90/1/32
f 144/1/63 90/1/63 137/1/63
f 67/1/35 72/1/35 138/1/35
f 68/1/37 138/1/37 72/1/37
f 90/1/32 88/1/32 139/1/32
f 87/1/62 139/1/62 88/1/62
f 152/1/33 140/1/33 94/1/33
f 126/1/63 94/1/63 140/1/63
f 92/1/62 141/1/62 91/1/62
f 93/1/32 91/1/32 141/1/32
f 122/1/63 41/1/63 142/1/63
f 42/1/37 142/1/37 41/1/37
f 88/1/62 143/1/62 87/1/62
f 89/1/33 87/1/33 143/1/33
f 143/1/33 144/1/33 89/1/33
f 137/1/63 89/1/63 144/1/63
f 136/1/43 145/1/43 74/1/43
f 153/1/37 74/1/37 145/1/37
f 66/1/34 68/1/34 146/1/34
f 72/1/37 146/1/37 68/1/37
f 49/1/19 98/1/19 147/1/19
f 48/1/63 147/1/63 98/1/63
f 155/1/21 48/1/21 148/1/21
f 98/1/63 148/1/63 48/1/63
f 164/1/43 51/1/43 149/1/43
f 34/1/36 149/1/36 51/1/36
f 151/1/62 82/1/62 150/1/62
f 134/1/45 150/1/45 82/1/45
f 129/1/46 151/1/46 81/1/46
f 150/1/62 81/1/62 151/1/62
f 94/1/33 92/1/33 152/1/33
f 91/1/62 152/1/62 92/1/62
f 168/1/44 153/1/44 77/1/44
f 145/1/37 77/1/37 153/1/37
f 50/1/62 49/1/62 154/1/62
f 147/1/19 154/1/19 49/1/19
f 148/1/21 50/1/21 155/1/21
f 154/1/62 155/1/62 50/1/62
f 119/1/36 67/1/36 156/1/36
f 138/1/35 156/1/35 67/1/35
f 135/1/21 157/1/21 95/1/21
f 169/1/63 95/1/63 157/1/63
f 71/1/35 70/1/35 158/1/35
f 73/1/36 158/1/36 70/1/36
f 86/1/19 85/1/19 159/1/19
f 84/1/62 159/1/62 85/1/62
f 97/1/45 32/1/45 160/1/45
f 115/1/62 160/1/62 32/1/62
f 167/1/36 52/1/36 161/1/36
f 130/1/62 161/1/62 52/1/62
f 158/1/35 162/1/35 71/1/35
f 118/1/37 71/1/37 162/1/37
f 160/1/45 163/1/45 97/1/45
f 116/1/63 97/1/63 163/1/63
f 149/1/43 35/1/43 164/1/43
f 36/1/37 164/1/37 35/1/37
f 166/1/37 165/1/37 78/1/37
f 124/1/62 78/1/62 165/1/62
f 78/1/37 80/1/37 166/1/37
f 99/1/63 166/1/63 80/1/63
f 161/1/36 38/1/36 167/1/36
f 131/1/63 167/1/63 38/1/63
f 77/1/44 75/1/44 168/1/44
f 76/1/36 168/1/36 75/1/36
f 159/1/19 169/1/19 86/1/19
f 157/1/63 86/1/63 169/1/63
f 107/1/53 54/1/53 170/1/53
f 55/1/64 170/1/64 54/1/64
f 15/1/65 171/1/65 106/1/65
f 171/1/56 29/1/56 106/1/56
f 15/1/66 172/1/66 101/1/66
f 172/1/38 28/1/38 101/1/38
f 108/1/27 16/1/27 173/1/27
f 55/1/67 173/1/67 16/1/67
f 15/1/68 174/1/68 105/1/68
f 174/1/31 30/1/31 105/1/31
f 109/1/57 14/1/57 175/1/57
f 55/1/69 175/1/69 14/1/69
