# Blender v2.75 (sub 0) OBJ File: 'Empty.blend'
# www.blender.org
mtllib INVISIBLE_ZCVOBMARKER.mtl
o INVISIBLE_ZCVOBMARKER
v 0.100000 0.000000 0.000000
v 0.000000 0.200000 0.000000
v -0.100000 0.000000 0.100000
v -0.100000 0.000000 -0.100000
vt 0.000000 -0.000000
vn 0.436400 0.218200 0.872900
vn 0.436400 0.218200 -0.872900
vn -0.894400 0.447200 0.000000
vn 0.000000 -1.000000 0.000000
usemtl WAYPT
s off
f 3/1/1 1/1/1 2/1/1
f 1/1/2 4/1/2 2/1/2
f 4/1/3 3/1/3 2/1/3
f 3/1/4 4/1/4 1/1/4
