# Blender v2.75 (sub 0) OBJ File: 'Empty.blend'
# www.blender.org
mtllib INVISIBLE_ZCTRIGGERTELEPORT.mtl
o INVISIBLE_ZCTRIGGERTELEPORT
v -0.223446 -0.000000 0.223446
v -0.223446 1.000000 -0.223446
v 0.140262 0.100000 0.140262
v 0.223446 -0.000000 0.223446
v -0.223446 -0.000000 -0.223446
v 0.223446 -0.000000 -0.223446
v -0.000000 1.000000 0.316000
v 0.000000 0.900000 0.000000
v 0.223446 1.000000 0.223446
v 0.000000 -0.000000 0.316000
v -0.316000 -0.000000 0.000000
v -0.140262 0.100000 -0.140262
v -0.000000 -0.000000 -0.316000
v 0.223446 1.000000 -0.223446
v 0.000000 1.000000 -0.316000
v -0.316000 1.000000 0.000000
v 0.140262 0.900000 0.140262
v 0.000000 0.100000 0.000000
v -0.243211 0.345768 -0.044669
v -0.243211 0.587703 -0.064831
v -0.364179 0.345768 -0.044669
v -0.364179 0.587703 -0.064831
v -0.140262 0.900000 0.140262
v 0.140262 0.900000 -0.140262
v -0.140262 0.900000 -0.140262
v 0.140262 0.100000 -0.140262
v -0.140262 0.100000 0.140262
v -0.315792 0.535165 0.012355
v -0.263373 0.512355 0.012355
v -0.360147 0.535165 0.012355
v -0.171120 0.900000 0.171120
v 0.242000 0.900000 0.000000
v 0.242000 0.100000 0.000000
v -0.291599 0.580785 0.057975
v -0.291599 0.523760 0.023760
v -0.245228 0.519155 -0.024508
v -0.245228 0.398187 -0.024508
v -0.265389 0.519155 -0.044669
v -0.342002 0.519155 -0.024508
v -0.342002 0.398187 -0.024508
v -0.362163 0.519155 -0.044669
v -0.344018 0.455331 -0.044669
v -0.344018 0.512355 0.012355
v 0.000000 0.100000 -0.242000
v 0.000000 0.100000 0.242000
v -0.242000 0.100000 0.000000
v 0.000000 0.900000 -0.242000
v -0.315792 0.580785 0.057975
v -0.223446 1.000000 0.223446
v 0.316000 1.000000 0.000000
v 0.316000 -0.000000 0.000000
v -0.263373 0.466736 -0.056074
v -0.247244 0.523760 0.023760
v 0.000000 0.900000 -0.198361
v -0.198361 0.900000 0.000000
v 0.000000 0.900000 0.198361
v 0.198361 0.900000 0.000000
v 0.000000 0.100000 -0.198361
v -0.198361 0.100000 0.000000
v 0.000000 0.100000 0.198361
v 0.198361 0.100000 0.000000
v -0.265389 0.398187 -0.024508
v -0.362163 0.398187 -0.024508
v 0.171120 0.900000 0.171120
v -0.171120 0.100000 0.171120
v -0.171120 0.100000 -0.171120
v 0.171120 0.100000 -0.171120
v -0.171120 0.900000 -0.171120
v 0.171120 0.100000 0.171120
v -0.242000 0.900000 -0.000000
v 0.171120 0.900000 -0.171120
v -0.000000 0.900000 0.242000
v -0.360147 0.455331 -0.044669
v -0.263373 0.455331 -0.044669
v -0.265389 0.519155 -0.024508
v -0.245228 0.398187 -0.044669
v -0.245228 0.519155 -0.044669
v -0.265389 0.398187 -0.044669
v -0.362163 0.519155 -0.024508
v -0.342002 0.398187 -0.044669
v -0.342002 0.519155 -0.044669
v -0.362163 0.398187 -0.044669
v -0.243211 0.587703 -0.044669
v -0.364179 0.587703 -0.044669
v -0.243211 0.345768 -0.064831
v -0.364179 0.345768 -0.064831
v -0.291599 0.535165 0.012355
v -0.344018 0.523760 0.000950
v -0.344018 0.466736 -0.056074
v -0.360147 0.466736 -0.056074
v -0.315792 0.523760 0.023760
v -0.291599 0.569380 0.069380
v -0.315792 0.569380 0.069380
v -0.360147 0.523760 0.023760
v -0.247244 0.535165 0.012355
v -0.263373 0.523760 0.000950
v -0.247244 0.466736 -0.056074
v -0.247244 0.455331 -0.044669
v 0.000000 -0.000000 0.000000
v 0.000000 1.000000 0.000000
vt 0.000000 -0.000000
vn 0.000000 -1.000000 -0.000000
vn 0.000000 1.000000 -0.000000
vn 0.315900 0.564400 -0.762700
vn -0.315900 -0.564400 0.762700
vn -0.762700 0.564400 0.315900
vn -0.315900 0.564400 -0.762700
vn 0.315900 -0.564400 -0.762700
vn -0.762700 -0.564400 -0.315900
vn 0.762700 -0.564400 -0.315900
vn 0.315900 -0.564400 0.762700
vn 0.315900 0.564400 0.762700
vn 0.762700 0.564400 -0.315900
vn -0.315900 0.564400 0.762700
vn -0.762700 0.564400 -0.315900
vn -0.315900 -0.564400 -0.762700
vn -0.762700 -0.564400 0.315900
vn 0.762700 -0.564400 0.315900
vn 0.762700 0.564400 0.315900
vn 0.000000 0.000000 1.000000
vn 0.000000 -0.000000 -1.000000
vn 1.000000 0.000000 0.000000
vn -1.000000 0.000000 0.000000
vn 0.382700 0.000000 0.923900
vn 0.923900 0.000000 -0.382700
vn -0.923900 0.000000 0.382700
vn -0.382700 0.000000 -0.923900
vn 0.382700 0.000000 -0.923900
vn -0.923900 0.000000 -0.382700
vn -0.382700 0.000000 0.923900
vn 0.923900 0.000000 0.382700
vn 0.000000 0.707100 -0.707100
vn -0.000000 -0.707100 0.707100
vn -0.000000 0.707100 0.707100
vn 0.000000 -0.707100 -0.707100
usemtl ZCVOBMAT7
s off
f 99/1/1 11/1/1 5/1/1
f 18/1/2 46/1/2 65/1/2
f 6/1/3 44/1/3 67/1/3
f 99/1/1 10/1/1 1/1/1
f 8/1/1 47/1/1 71/1/1
f 8/1/1 72/1/1 31/1/1
f 100/1/2 7/1/2 9/1/2
f 7/1/4 31/1/4 72/1/4
f 99/1/1 4/1/1 10/1/1
f 18/1/2 45/1/2 69/1/2
f 99/1/1 1/1/1 11/1/1
f 11/1/5 1/1/5 65/1/5
f 18/1/2 44/1/2 66/1/2
f 18/1/2 67/1/2 44/1/2
f 99/1/1 5/1/1 13/1/1
f 13/1/6 5/1/6 66/1/6
f 100/1/2 50/1/2 14/1/2
f 8/1/1 70/1/1 68/1/1
f 100/1/2 14/1/2 15/1/2
f 15/1/7 14/1/7 71/1/7
f 16/1/8 2/1/8 68/1/8
f 100/1/2 49/1/2 7/1/2
f 7/1/4 49/1/4 31/1/4
f 16/1/8 68/1/8 70/1/8
f 14/1/9 50/1/9 32/1/9
f 9/1/10 7/1/10 72/1/10
f 10/1/11 4/1/11 69/1/11
f 51/1/12 6/1/12 67/1/12
f 6/1/3 13/1/3 44/1/3
f 13/1/6 66/1/6 44/1/6
f 1/1/13 10/1/13 45/1/13
f 10/1/11 69/1/11 45/1/11
f 5/1/14 11/1/14 46/1/14
f 11/1/5 65/1/5 46/1/5
f 2/1/15 15/1/15 47/1/15
f 15/1/7 71/1/7 47/1/7
f 100/1/2 16/1/2 49/1/2
f 49/1/16 16/1/16 70/1/16
f 100/1/2 9/1/2 50/1/2
f 50/1/17 9/1/17 64/1/17
f 99/1/1 51/1/1 4/1/1
f 4/1/18 51/1/18 33/1/18
f 50/1/17 64/1/17 32/1/17
f 8/1/1 32/1/1 64/1/1
f 1/1/13 45/1/13 65/1/13
f 18/1/2 65/1/2 45/1/2
f 5/1/14 46/1/14 66/1/14
f 18/1/2 66/1/2 46/1/2
f 51/1/12 67/1/12 33/1/12
f 18/1/2 33/1/2 67/1/2
f 2/1/15 47/1/15 68/1/15
f 8/1/1 68/1/1 47/1/1
f 4/1/18 33/1/18 69/1/18
f 18/1/2 69/1/2 33/1/2
f 49/1/16 70/1/16 31/1/16
f 8/1/1 31/1/1 70/1/1
f 14/1/9 32/1/9 71/1/9
f 8/1/1 71/1/1 32/1/1
f 9/1/10 72/1/10 64/1/10
f 8/1/1 64/1/1 72/1/1
f 99/1/1 6/1/1 51/1/1
f 99/1/1 13/1/1 6/1/1
f 100/1/2 2/1/2 16/1/2
f 100/1/2 15/1/2 2/1/2
usemtl ZCVOBMAT4
f 21/1/19 19/1/19 83/1/19
f 20/1/20 85/1/20 86/1/20
f 86/1/20 22/1/20 20/1/20
f 83/1/19 84/1/19 21/1/19
f 85/1/21 20/1/21 83/1/21
f 84/1/2 83/1/2 20/1/2
f 20/1/2 22/1/2 84/1/2
f 21/1/22 84/1/22 22/1/22
f 86/1/1 85/1/1 19/1/1
f 83/1/21 19/1/21 85/1/21
f 19/1/1 21/1/1 86/1/1
f 22/1/22 86/1/22 21/1/22
usemtl ZCVOBMAT8
f 60/1/23 3/1/23 17/1/23
f 61/1/24 26/1/24 24/1/24
f 61/1/24 24/1/24 57/1/24
f 59/1/25 23/1/25 55/1/25
f 59/1/25 27/1/25 23/1/25
f 58/1/26 12/1/26 25/1/26
f 8/1/2 56/1/2 17/1/2
f 60/1/23 17/1/23 56/1/23
f 8/1/2 57/1/2 24/1/2
f 58/1/26 25/1/26 54/1/26
f 8/1/2 54/1/2 25/1/2
f 8/1/2 55/1/2 23/1/2
f 18/1/1 26/1/1 61/1/1
f 18/1/1 12/1/1 58/1/1
f 18/1/1 27/1/1 59/1/1
f 18/1/1 3/1/1 60/1/1
f 26/1/27 54/1/27 24/1/27
f 8/1/2 24/1/2 54/1/2
f 12/1/28 55/1/28 25/1/28
f 8/1/2 25/1/2 55/1/2
f 27/1/29 56/1/29 23/1/29
f 8/1/2 23/1/2 56/1/2
f 3/1/30 57/1/30 17/1/30
f 8/1/2 17/1/2 57/1/2
f 18/1/1 58/1/1 26/1/1
f 26/1/27 58/1/27 54/1/27
f 18/1/1 59/1/1 12/1/1
f 12/1/28 59/1/28 55/1/28
f 18/1/1 60/1/1 27/1/1
f 27/1/29 60/1/29 56/1/29
f 18/1/1 61/1/1 3/1/1
f 3/1/30 61/1/30 57/1/30
usemtl ZCVOBMAT2
f 96/1/31 88/1/31 28/1/31
f 29/1/32 91/1/32 43/1/32
f 35/1/32 91/1/32 29/1/32
f 92/1/32 91/1/32 35/1/32
f 34/1/31 87/1/31 28/1/31
f 87/1/31 96/1/31 28/1/31
f 43/1/32 94/1/32 73/1/32
f 43/1/32 91/1/32 94/1/32
f 88/1/31 30/1/31 28/1/31
f 88/1/31 90/1/31 30/1/31
f 34/1/31 28/1/31 48/1/31
f 92/1/32 93/1/32 91/1/32
f 53/1/32 29/1/32 98/1/32
f 35/1/32 29/1/32 53/1/32
f 87/1/31 95/1/31 96/1/31
f 95/1/31 97/1/31 96/1/31
f 43/1/32 73/1/32 42/1/32
f 88/1/31 89/1/31 90/1/31
f 74/1/22 96/1/22 52/1/22
f 53/1/21 98/1/21 97/1/21
f 92/1/21 35/1/21 87/1/21
f 35/1/33 95/1/33 87/1/33
f 29/1/34 43/1/34 88/1/34
f 43/1/21 89/1/21 88/1/21
f 43/1/21 42/1/21 89/1/21
f 42/1/34 90/1/34 89/1/34
f 73/1/22 30/1/22 90/1/22
f 42/1/34 73/1/34 90/1/34
f 94/1/33 91/1/33 28/1/33
f 91/1/22 48/1/22 28/1/22
f 93/1/33 92/1/33 34/1/33
f 92/1/21 87/1/21 34/1/21
f 91/1/22 93/1/22 48/1/22
f 93/1/33 34/1/33 48/1/33
f 73/1/22 94/1/22 30/1/22
f 94/1/33 28/1/33 30/1/33
f 35/1/33 53/1/33 95/1/33
f 53/1/21 97/1/21 95/1/21
f 74/1/22 29/1/22 96/1/22
f 29/1/34 88/1/34 96/1/34
f 98/1/34 52/1/34 97/1/34
f 97/1/31 52/1/31 96/1/31
f 98/1/34 74/1/34 52/1/34
f 98/1/32 29/1/32 74/1/32
usemtl ZCVOBMAT1
f 62/1/22 75/1/22 38/1/22
f 76/1/21 77/1/21 36/1/21
f 63/1/22 79/1/22 41/1/22
f 80/1/21 81/1/21 39/1/21
f 62/1/19 37/1/19 36/1/19
f 38/1/22 78/1/22 62/1/22
f 63/1/19 40/1/19 39/1/19
f 41/1/22 82/1/22 63/1/22
f 36/1/19 75/1/19 62/1/19
f 75/1/2 36/1/2 77/1/2
f 36/1/21 37/1/21 76/1/21
f 37/1/1 62/1/1 78/1/1
f 77/1/2 38/1/2 75/1/2
f 78/1/1 76/1/1 37/1/1
f 39/1/19 79/1/19 63/1/19
f 79/1/2 39/1/2 81/1/2
f 39/1/21 40/1/21 80/1/21
f 40/1/1 63/1/1 82/1/1
f 81/1/2 41/1/2 79/1/2
f 82/1/1 80/1/1 40/1/1
