# Blender v2.75 (sub 0) OBJ File: 'Empty.blend'
# www.blender.org
mtllib INVISIBLE_ZCVOBSOUND.mtl
o INVISIBLE_ZCVOBSOUND
v -0.199990 0.378974 -0.000010
v 0.200010 0.700010 0.199990
v -0.199990 0.000010 -0.200010
v -0.199990 0.201293 0.177670
v -0.199990 0.000010 0.199990
v -0.199990 0.700010 0.199990
v 0.200010 0.700010 -0.200010
v 0.200010 0.000010 -0.200010
v 0.200010 0.000010 0.199990
v -0.199990 0.023613 -0.000010
v -0.199990 0.201293 -0.177690
v -0.199990 0.400010 -0.200010
v -0.199990 0.700010 -0.200010
v -0.100247 0.073195 -0.000010
v -0.100247 0.200652 -0.127467
v -0.100247 0.328108 -0.000010
v -0.100247 0.200652 0.127447
v -0.130334 0.469232 0.041610
v -0.199990 0.417499 0.041610
v -0.199990 0.326899 0.125596
v -0.199990 0.326899 -0.125616
v -0.199990 0.075688 -0.125616
v -0.199990 0.075688 0.125596
v -0.199990 0.509561 0.133672
v -0.130334 0.508896 0.081274
v -0.199990 0.601623 0.041610
v -0.199990 0.574642 -0.023470
v -0.130334 0.548560 0.041610
v -0.100247 0.110550 -0.090112
v -0.100247 0.110550 0.090092
v -0.100247 0.290753 -0.090112
v -0.100247 0.290753 0.090092
v -0.199990 0.444480 -0.023470
v -0.130334 0.508896 0.001946
v -0.199990 0.444480 0.106691
v -0.199990 0.509561 -0.050452
v -0.199990 0.574642 0.106691
v -0.130334 0.480857 0.013571
v -0.130334 0.480857 0.069650
v -0.130334 0.536935 0.069650
v -0.130334 0.536935 0.013571
v -0.199990 0.000010 -0.200010
v -0.199990 0.400010 0.199990
vt 0.000000 -0.000000
vn 0.000000 0.000000 1.000000
vn -1.000000 0.000000 -0.000000
vn 0.000000 1.000000 0.000000
vn 1.000000 0.000000 0.000000
vn 0.000000 -1.000000 0.000000
vn 0.000000 0.000000 -1.000000
vn -0.417300 0.839500 0.348000
vn -0.419900 0.347600 -0.838400
vn -0.426200 -0.835700 0.346500
vn -0.423600 -0.346900 -0.836800
vn -0.426200 -0.835700 -0.346500
vn -0.423600 -0.346900 0.836800
vn -0.419900 0.347600 0.838400
vn -0.417300 0.839500 -0.348000
vn -0.568600 0.315000 -0.759900
vn -0.565700 0.761700 -0.315800
vn -0.575500 -0.755500 0.313200
vn -0.572700 -0.314000 -0.757300
vn -0.572700 -0.314000 0.757300
vn -0.565700 0.761700 0.315800
vn -0.568600 0.315000 0.759900
vn -0.575500 -0.755500 -0.313200
usemtl ZCVOBMAT1
s off
f 5/1/1 9/1/1 2/1/1
f 17/1/2 32/1/2 15/1/2
f 15/1/2 30/1/2 17/1/2
f 7/1/3 13/1/3 6/1/3
f 2/1/1 6/1/1 5/1/1
f 6/1/3 2/1/3 7/1/3
f 7/1/4 2/1/4 9/1/4
f 5/1/5 3/1/5 8/1/5
f 13/1/6 7/1/6 8/1/6
f 8/1/5 9/1/5 5/1/5
f 9/1/4 8/1/4 7/1/4
f 8/1/6 3/1/6 13/1/6
f 25/1/2 40/1/2 34/1/2
f 30/1/2 15/1/2 29/1/2
f 29/1/2 14/1/2 30/1/2
f 31/1/2 15/1/2 32/1/2
f 32/1/2 16/1/2 31/1/2
f 39/1/2 34/1/2 38/1/2
f 38/1/2 18/1/2 39/1/2
f 34/1/2 39/1/2 25/1/2
f 41/1/2 34/1/2 40/1/2
f 40/1/2 28/1/2 41/1/2
usemtl ZCVOBMAT2
f 24/1/2 43/1/2 6/1/2
f 1/1/2 43/1/2 12/1/2
f 4/1/2 43/1/2 20/1/2
f 10/1/2 42/1/2 5/1/2
f 4/1/2 23/1/2 5/1/2
f 1/1/2 12/1/2 21/1/2
f 10/1/2 22/1/2 42/1/2
f 19/1/2 12/1/2 43/1/2
f 22/1/7 10/1/7 14/1/7
f 17/1/8 30/1/8 23/1/8
f 1/1/9 21/1/9 31/1/9
f 14/1/7 29/1/7 22/1/7
f 31/1/9 16/1/9 1/1/9
f 4/1/10 20/1/10 32/1/10
f 32/1/10 17/1/10 4/1/10
f 23/1/8 4/1/8 17/1/8
f 26/1/2 6/1/2 13/1/2
f 36/1/2 13/1/2 12/1/2
f 36/1/2 27/1/2 13/1/2
f 24/1/2 6/1/2 37/1/2
f 1/1/2 20/1/2 43/1/2
f 20/1/11 1/1/11 16/1/11
f 11/1/2 21/1/2 12/1/2
f 21/1/12 11/1/12 15/1/12
f 11/1/2 42/1/2 22/1/2
f 11/1/13 22/1/13 29/1/13
f 10/1/2 5/1/2 23/1/2
f 10/1/14 23/1/14 30/1/14
f 24/1/2 35/1/2 43/1/2
f 35/1/15 24/1/15 25/1/15
f 39/1/16 18/1/16 19/1/16
f 26/1/2 13/1/2 27/1/2
f 26/1/17 27/1/17 41/1/17
f 24/1/18 37/1/18 40/1/18
f 34/1/19 41/1/19 27/1/19
f 27/1/19 36/1/19 34/1/19
f 40/1/18 25/1/18 24/1/18
f 29/1/13 15/1/13 11/1/13
f 30/1/14 14/1/14 10/1/14
f 15/1/12 31/1/12 21/1/12
f 16/1/11 32/1/11 20/1/11
f 19/1/2 33/1/2 12/1/2
f 33/1/20 19/1/20 18/1/20
f 38/1/21 34/1/21 36/1/21
f 19/1/2 43/1/2 35/1/2
f 19/1/16 35/1/16 39/1/16
f 36/1/2 12/1/2 33/1/2
f 36/1/21 33/1/21 38/1/21
f 26/1/2 37/1/2 6/1/2
f 37/1/22 26/1/22 28/1/22
f 18/1/20 38/1/20 33/1/20
f 25/1/15 39/1/15 35/1/15
f 28/1/22 40/1/22 37/1/22
f 41/1/17 28/1/17 26/1/17
f 11/1/2 12/1/2 42/1/2
f 4/1/2 5/1/2 43/1/2
