# Blender v2.75 (sub 0) OBJ File: 'Empty.blend'
# www.blender.org
mtllib INVISIBLE_ZCZONEREVERB.mtl
o INVISIBLE_ZCZONEREVERB
v 0.091403 -0.226781 0.491761
v 0.260422 -0.176336 0.514645
v 0.256169 -0.000000 0.514645
v 0.210629 -0.140158 0.080157
v 0.317717 0.000000 0.103041
v 0.210629 0.140158 0.103041
v 0.210629 0.140158 0.491761
v 0.091403 0.226781 0.491761
v -0.110891 0.093439 0.392035
v -0.182283 -0.000000 0.414918
v -0.110891 -0.093439 0.392035
v -0.144086 0.117557 0.179883
v -0.144086 -0.117557 0.202767
v -0.031407 -0.151187 0.179883
v -0.031407 0.151187 0.202767
v -0.141251 0.000000 0.179883
v 0.066841 -0.151187 0.202767
v 0.176685 -0.000000 0.179883
v 0.179520 -0.117557 0.202767
v 0.351454 -0.242474 0.616885
v 0.430239 -0.000000 0.616885
v 0.351454 0.242474 0.594001
v 0.536717 0.000000 0.594001
v 0.145193 0.392331 0.594001
v 0.437597 0.305061 0.616885
v -0.394805 0.000000 0.000801
v -0.316020 -0.242474 -0.022083
v -0.109759 -0.392331 0.000801
v -0.402163 -0.305060 0.000801
v 0.351454 -0.242474 -0.022083
v 0.430239 0.000000 0.000801
v 0.351454 0.242474 0.000801
v 0.536717 0.000000 -0.022083
v -0.316020 0.242474 0.616885
v -0.394805 -0.000000 0.616885
v -0.109759 0.392331 0.594001
v -0.402163 0.305061 0.594001
v -0.316020 -0.242474 0.616885
v -0.109759 -0.392331 0.594001
v -0.402163 -0.305061 0.594001
v -0.142663 -0.493598 0.616885
v 0.145193 -0.392331 0.616885
v 0.178097 -0.493598 0.594001
v 0.178097 0.493598 0.616885
v -0.142663 0.493598 0.616885
v -0.501283 0.000000 0.594001
v 0.145193 0.392331 -0.022083
v 0.437597 0.305061 -0.022083
v 0.437597 -0.305061 0.594001
v -0.316020 0.242474 0.000801
v -0.501283 0.000000 -0.022083
v -0.142663 -0.493598 -0.022083
v 0.145193 -0.392331 0.000801
v 0.437597 -0.305060 0.000801
v -0.109759 0.392331 0.000801
v -0.402163 0.305061 -0.022083
v 0.178097 0.493598 0.000801
v 0.178097 -0.493598 0.000801
v -0.142663 0.493598 0.000801
v -0.031407 -0.151187 0.392035
v -0.220735 -0.000000 0.514645
v -0.175195 -0.140158 0.491761
v -0.055969 -0.226781 0.514645
v -0.224988 -0.176336 0.514645
v 0.317717 -0.000000 0.491761
v -0.220735 0.000000 0.103041
v -0.175194 -0.140158 0.103041
v -0.055969 -0.226781 0.103041
v -0.224988 -0.176336 0.080157
v -0.175194 0.140158 0.491761
v -0.055969 0.226781 0.491761
v -0.224988 0.176336 0.514645
v 0.110422 -0.285317 0.514645
v -0.074988 -0.285317 0.080157
v 0.091403 0.226781 0.103041
v 0.260422 0.176336 0.080157
v 0.091403 -0.226781 0.103041
v 0.260422 -0.176336 0.103041
v 0.110422 0.285317 0.514645
v -0.055969 0.226781 0.103041
v -0.282283 0.000000 0.080157
v 0.110422 0.285317 0.080157
v -0.282283 -0.000000 0.491761
v 0.110422 -0.285317 0.080157
v -0.175194 0.140158 0.103041
v -0.074988 0.285317 0.080157
v -0.074988 0.285317 0.491761
v -0.074988 -0.285317 0.514645
v 0.146325 -0.093439 0.414918
v 0.146325 0.093439 0.414918
v 0.066841 0.151187 0.414918
v 0.179521 0.117557 0.392035
v 0.079520 0.190211 0.392035
v 0.066841 -0.151187 0.414918
v 0.179520 -0.117557 0.392035
v 0.079520 -0.190211 0.179883
v -0.031407 0.151187 0.392035
v -0.044086 0.190211 0.414918
v 0.066841 0.151187 0.202767
v 0.217717 0.000000 0.202767
v -0.044086 0.190211 0.179883
v -0.144086 0.117557 0.414918
v 0.079520 -0.190211 0.414918
v -0.044086 -0.190211 0.179883
v -0.044086 -0.190211 0.392035
v -0.182283 0.000000 0.179883
v 0.079521 0.190211 0.202767
v -0.144086 0.117557 0.202767
v -0.110891 -0.093439 0.414918
v 0.217717 -0.000000 0.414918
v -0.282283 -0.000000 0.514645
v 0.260422 -0.176336 0.491761
v -0.224988 0.176336 0.491761
v 0.260422 -0.176336 0.080157
v 0.179521 0.117557 0.179883
v 0.210629 -0.140159 0.491761
v 0.210629 -0.140158 0.514645
v -0.316020 -0.242474 0.000801
v 0.437597 0.305061 0.000801
v -0.394805 0.000000 -0.022083
v -0.109759 0.392331 0.616885
v 0.091403 0.226781 0.080157
v -0.224988 -0.176336 0.491761
v 0.179521 0.117557 0.202767
v 0.217717 -0.000000 0.392035
v -0.182283 0.000000 0.202767
v 0.145193 -0.392331 0.594001
v 0.437597 -0.305060 -0.022083
v 0.210629 0.140158 0.514645
v -0.175194 0.140158 0.514645
v -0.175195 -0.140158 0.514645
v 0.146325 -0.093439 0.392035
v 0.146325 0.093439 0.392035
v -0.402163 -0.305061 0.616885
v -0.142663 -0.493598 0.594001
v 0.430239 -0.000000 0.594001
v 0.351454 0.242474 0.616885
v 0.260422 0.176336 0.514645
v 0.317717 -0.000000 0.514645
v -0.394805 0.000000 0.594001
v 0.256169 -0.000000 0.491761
v -0.031407 0.151187 0.414918
v -0.044086 0.190211 0.392035
v -0.501283 0.000000 0.616885
v -0.175194 0.140158 0.080157
v 0.179520 -0.117557 0.414918
v 0.179521 0.117557 0.414918
v 0.066841 0.151187 0.392035
v 0.091403 -0.226781 0.514645
v -0.109759 -0.392331 0.616885
v 0.110422 -0.285317 0.491761
v 0.079520 0.190211 0.414918
v -0.316020 -0.242474 0.594001
v 0.437597 0.305061 0.594001
v 0.260422 0.176336 0.491761
v -0.074988 0.285317 0.514645
v -0.055969 0.226781 0.514645
v -0.175194 -0.140158 0.080157
v 0.145193 0.392331 0.616885
v 0.317717 0.000000 0.080157
v 0.178097 0.493598 0.594001
v -0.224988 -0.176336 0.103041
v 0.536717 0.000000 0.616885
v -0.220735 0.000000 0.080157
v -0.144086 -0.117557 0.179883
v 0.217717 0.000000 0.179883
v 0.146325 0.093439 0.202767
v 0.066841 0.151187 0.179883
v -0.055969 0.226781 0.080157
v -0.316020 0.242474 -0.022083
v -0.402163 0.305061 0.000801
v -0.109759 -0.392331 -0.022083
v -0.142663 -0.493598 0.000801
v 0.351454 -0.242474 0.000801
v 0.145193 0.392331 0.000801
v -0.109759 0.392331 -0.022083
v -0.142663 0.493598 -0.022083
v 0.091403 -0.226781 0.080157
v 0.256169 0.000000 0.080157
v 0.256169 0.000000 0.103041
v -0.110891 0.093439 0.202767
v -0.031407 0.151187 0.179883
v -0.501283 0.000000 0.000801
v 0.536717 0.000000 0.000801
v -0.224988 0.176336 0.080157
v -0.074988 0.285317 0.103041
v -0.110891 -0.093439 0.202767
v -0.031407 -0.151187 0.202767
v 0.179520 -0.117557 0.179883
v -0.044086 -0.190211 0.202767
v 0.178097 -0.493598 -0.022083
v 0.145193 -0.392331 -0.022083
v -0.224988 0.176336 0.103041
v -0.282283 0.000000 0.103041
v -0.055969 -0.226781 0.080157
v -0.074988 -0.285317 0.103041
v 0.210629 0.140158 0.080157
v 0.079521 0.190211 0.179883
v -0.044086 0.190211 0.202767
v 0.178097 0.493598 -0.022083
v 0.351454 0.242474 -0.022083
v 0.110422 -0.285317 0.103041
v 0.210629 -0.140158 0.103041
v 0.110422 0.285317 0.103041
v 0.260422 0.176336 0.103041
v -0.402163 -0.305060 -0.022083
v 0.430239 0.000000 -0.022083
v -0.220735 -0.000000 0.491761
v -0.110891 0.093439 0.414918
v -0.144086 0.117557 0.392035
v -0.144086 -0.117557 0.392035
v -0.182283 -0.000000 0.392035
v -0.402163 0.305061 0.616885
v -0.044086 -0.190211 0.414918
v -0.144086 -0.117557 0.414918
v -0.031407 -0.151187 0.414918
v -0.055969 -0.226781 0.491761
v 0.091403 0.226781 0.514645
v 0.079520 -0.190211 0.392035
v -0.142663 0.493598 0.594001
v -0.316020 0.242474 0.594001
v 0.351454 -0.242474 0.594001
v 0.066841 -0.151187 0.392035
v 0.110422 0.285317 0.491761
v -0.074988 -0.285317 0.491761
v 0.178097 -0.493598 0.616885
v 0.437597 -0.305061 0.616885
v 0.079520 -0.190211 0.202767
v 0.146325 0.093439 0.179883
v 0.066841 -0.151187 0.179883
v 0.146325 -0.093439 0.202767
v 0.146325 -0.093439 0.179883
v -0.141251 -0.000000 0.392035
v -0.141251 -0.000000 0.414918
v -0.110891 -0.093439 0.179883
v -0.141251 0.000000 0.202767
v -0.110891 0.093439 0.179883
v 0.176685 -0.000000 0.414918
v 0.176685 -0.000000 0.392035
v 0.176685 -0.000000 0.202767
vt 0.000000 -0.000000
vn -0.587800 0.809000 -0.000000
vn 0.000000 0.000000 1.000000
vn 0.000000 0.000000 -1.000000
vn 0.951100 -0.309000 0.000000
vn -0.951100 0.309000 0.000000
vn 0.587800 0.809000 0.000000
vn -0.951100 -0.309000 0.000000
vn 0.587800 -0.809000 0.000000
vn 0.951100 0.309000 0.000000
vn -0.587800 -0.809000 0.000000
usemtl ZCVOBMAT5
s off
f 1/1/1 117/1/1 116/1/1
f 149/1/2 2/1/2 117/1/2
f 5/1/2 6/1/2 180/1/2
f 179/1/3 76/1/3 160/1/3
f 3/1/2 138/1/2 129/1/2
f 65/1/3 7/1/3 155/1/3
f 210/1/3 233/1/3 212/1/3
f 209/1/2 10/1/2 234/1/2
f 235/1/3 165/1/3 16/1/3
f 13/1/2 188/1/2 187/1/2
f 181/1/4 16/1/4 237/1/4
f 126/1/2 236/1/2 108/1/2
f 237/1/3 106/1/3 12/1/3
f 106/1/5 126/1/5 12/1/5
f 19/1/2 231/1/2 228/1/2
f 232/1/3 189/1/3 230/1/3
f 136/1/3 22/1/3 23/1/3
f 49/1/3 136/1/3 23/1/3
f 20/1/2 163/1/2 21/1/2
f 163/1/2 25/1/2 21/1/2
f 25/1/2 44/1/2 137/1/2
f 21/1/2 25/1/2 137/1/2
f 23/1/3 22/1/3 154/1/3
f 22/1/3 24/1/3 154/1/3
f 29/1/2 28/1/2 118/1/2
f 29/1/2 118/1/2 183/1/2
f 27/1/3 206/1/3 120/1/3
f 27/1/3 52/1/3 206/1/3
f 207/1/3 48/1/3 33/1/3
f 207/1/3 33/1/3 30/1/3
f 184/1/2 31/1/2 54/1/2
f 184/1/2 32/1/2 31/1/2
f 221/1/3 140/1/3 37/1/3
f 220/1/3 221/1/3 37/1/3
f 121/1/2 213/1/2 34/1/2
f 213/1/2 144/1/2 34/1/2
f 153/1/3 39/1/3 40/1/3
f 46/1/3 153/1/3 40/1/3
f 35/1/2 134/1/2 38/1/2
f 134/1/2 41/1/2 38/1/2
f 38/1/2 41/1/2 150/1/2
f 40/1/3 39/1/3 135/1/3
f 127/1/3 222/1/3 43/1/3
f 226/1/2 227/1/2 42/1/2
f 137/1/2 44/1/2 159/1/2
f 154/1/3 24/1/3 161/1/3
f 45/1/2 213/1/2 121/1/2
f 36/1/3 221/1/3 220/1/3
f 140/1/3 153/1/3 46/1/3
f 37/1/3 140/1/3 46/1/3
f 34/1/2 144/1/2 35/1/2
f 144/1/2 134/1/2 35/1/2
f 201/1/3 200/1/3 48/1/3
f 201/1/3 48/1/3 207/1/3
f 119/1/2 32/1/2 184/1/2
f 119/1/2 175/1/2 32/1/2
f 222/1/3 136/1/3 49/1/3
f 43/1/3 222/1/3 49/1/3
f 42/1/2 227/1/2 20/1/2
f 227/1/2 163/1/2 20/1/2
f 120/1/3 206/1/3 51/1/3
f 120/1/3 51/1/3 170/1/3
f 183/1/2 26/1/2 171/1/2
f 183/1/2 118/1/2 26/1/2
f 172/1/3 52/1/3 27/1/3
f 173/1/2 28/1/2 29/1/2
f 54/1/2 31/1/2 174/1/2
f 54/1/2 174/1/2 58/1/2
f 30/1/3 128/1/3 192/1/3
f 30/1/3 33/1/3 128/1/3
f 170/1/3 51/1/3 56/1/3
f 170/1/3 56/1/3 176/1/3
f 171/1/2 50/1/2 59/1/2
f 171/1/2 26/1/2 50/1/2
f 57/1/2 175/1/2 119/1/2
f 47/1/3 200/1/3 201/1/3
f 58/1/2 174/1/2 53/1/2
f 192/1/3 128/1/3 191/1/3
f 59/1/2 50/1/2 55/1/2
f 176/1/3 56/1/3 177/1/3
f 212/1/3 11/1/3 211/1/3
f 10/1/2 215/1/2 234/1/2
f 64/1/2 88/1/2 131/1/2
f 61/1/2 64/1/2 131/1/2
f 83/1/3 62/1/3 123/1/3
f 62/1/3 217/1/3 123/1/3
f 141/1/3 7/1/3 65/1/3
f 112/1/3 141/1/3 65/1/3
f 2/1/2 139/1/2 117/1/2
f 139/1/2 138/1/2 3/1/2
f 158/1/3 74/1/3 69/1/3
f 158/1/3 69/1/3 164/1/3
f 162/1/2 67/1/2 194/1/2
f 162/1/2 68/1/2 67/1/2
f 72/1/2 111/1/2 130/1/2
f 157/1/2 72/1/2 130/1/2
f 87/1/3 70/1/3 113/1/3
f 70/1/3 208/1/3 113/1/3
f 73/1/2 2/1/2 149/1/2
f 1/1/3 116/1/3 151/1/3
f 195/1/3 74/1/3 158/1/3
f 196/1/2 68/1/2 162/1/2
f 197/1/3 82/1/3 76/1/3
f 197/1/3 76/1/3 179/1/3
f 205/1/2 6/1/2 5/1/2
f 205/1/2 75/1/2 6/1/2
f 5/1/2 180/1/2 78/1/2
f 78/1/2 203/1/2 202/1/2
f 4/1/3 114/1/3 178/1/3
f 4/1/3 160/1/3 114/1/3
f 129/1/2 79/1/2 218/1/2
f 7/1/3 8/1/3 155/1/3
f 164/1/3 69/1/3 81/1/3
f 164/1/3 81/1/3 145/1/3
f 194/1/2 66/1/2 193/1/2
f 194/1/2 67/1/2 66/1/2
f 122/1/3 82/1/3 197/1/3
f 204/1/2 75/1/2 205/1/2
f 208/1/3 62/1/3 83/1/3
f 113/1/3 208/1/3 83/1/3
f 130/1/2 111/1/2 61/1/2
f 111/1/2 64/1/2 61/1/2
f 178/1/3 114/1/3 84/1/3
f 202/1/2 203/1/2 77/1/2
f 193/1/2 66/1/2 85/1/2
f 145/1/3 81/1/3 185/1/3
f 186/1/2 85/1/2 80/1/2
f 145/1/3 185/1/3 169/1/3
f 71/1/3 70/1/3 87/1/3
f 156/1/2 72/1/2 157/1/2
f 131/1/2 88/1/2 63/1/2
f 123/1/3 217/1/3 225/1/3
f 133/1/3 148/1/3 92/1/3
f 238/1/2 147/1/2 90/1/2
f 147/1/2 152/1/2 90/1/2
f 239/1/3 133/1/3 125/1/3
f 92/1/3 148/1/3 93/1/3
f 90/1/2 152/1/2 91/1/2
f 95/1/3 239/1/3 125/1/3
f 219/1/3 132/1/3 95/1/3
f 94/1/2 146/1/2 89/1/2
f 146/1/2 110/1/2 89/1/2
f 17/1/1 232/1/1 230/1/1
f 228/1/2 231/1/2 17/1/2
f 98/1/2 102/1/2 142/1/2
f 97/1/3 9/1/3 143/1/3
f 100/1/2 240/1/2 19/1/2
f 232/1/3 166/1/3 189/1/3
f 18/1/3 115/1/3 166/1/3
f 124/1/2 99/1/2 167/1/2
f 182/1/3 12/1/3 101/1/3
f 199/1/2 181/1/2 15/1/2
f 102/1/2 10/1/2 209/1/2
f 142/1/2 102/1/2 209/1/2
f 143/1/3 9/1/3 210/1/3
f 9/1/3 233/1/3 210/1/3
f 103/1/2 146/1/2 94/1/2
f 223/1/3 132/1/3 219/1/3
f 235/1/3 104/1/3 165/1/3
f 190/1/2 188/1/2 13/1/2
f 109/1/2 214/1/2 216/1/2
f 11/1/3 60/1/3 211/1/3
f 16/1/3 165/1/3 106/1/3
f 16/1/3 106/1/3 237/1/3
f 107/1/2 99/1/2 124/1/2
f 229/1/3 115/1/3 18/1/3
f 12/1/5 126/1/5 108/1/5
f 12/1/1 108/1/1 101/1/1
f 109/1/6 216/1/6 11/1/6
f 9/1/4 234/1/4 233/1/4
f 110/1/2 147/1/2 238/1/2
f 146/1/4 125/1/4 110/1/4
f 83/1/7 123/1/7 111/1/7
f 72/1/5 83/1/5 111/1/5
f 112/1/4 65/1/4 2/1/4
f 73/1/8 112/1/8 2/1/8
f 113/1/5 83/1/5 72/1/5
f 156/1/1 113/1/1 72/1/1
f 114/1/4 5/1/4 78/1/4
f 114/1/8 78/1/8 84/1/8
f 115/1/6 107/1/6 124/1/6
f 229/1/3 198/1/3 115/1/3
f 116/1/3 141/1/3 112/1/3
f 151/1/3 116/1/3 112/1/3
f 117/1/2 139/1/2 3/1/2
f 117/1/5 3/1/5 116/1/5
f 118/1/6 172/1/6 27/1/6
f 118/1/9 27/1/9 26/1/9
f 48/1/6 57/1/6 119/1/6
f 48/1/9 119/1/9 33/1/9
f 26/1/9 27/1/9 120/1/9
f 26/1/4 120/1/4 50/1/4
f 121/1/8 34/1/8 36/1/8
f 121/1/9 36/1/9 220/1/9
f 75/1/10 122/1/10 6/1/10
f 82/1/5 122/1/5 75/1/5
f 123/1/10 225/1/10 64/1/10
f 111/1/7 123/1/7 64/1/7
f 115/1/9 124/1/9 166/1/9
f 124/1/2 167/1/2 100/1/2
f 125/1/9 92/1/9 110/1/9
f 125/1/3 133/1/3 92/1/3
f 106/1/7 13/1/7 126/1/7
f 13/1/2 187/1/2 126/1/2
f 42/1/1 20/1/1 127/1/1
f 42/1/7 127/1/7 43/1/7
f 128/1/4 184/1/4 54/1/4
f 128/1/8 54/1/8 191/1/8
f 129/1/10 218/1/10 7/1/10
f 141/1/7 129/1/7 7/1/7
f 130/1/4 61/1/4 70/1/4
f 71/1/8 130/1/8 70/1/8
f 131/1/6 63/1/6 62/1/6
f 208/1/9 131/1/9 62/1/9
f 223/1/1 89/1/1 132/1/1
f 238/1/7 90/1/7 239/1/7
f 90/1/10 91/1/10 133/1/10
f 239/1/7 90/1/7 133/1/7
f 40/1/10 135/1/10 134/1/10
f 144/1/7 40/1/7 134/1/7
f 134/1/10 135/1/10 41/1/10
f 41/1/4 135/1/4 39/1/4
f 21/1/7 137/1/7 136/1/7
f 222/1/5 21/1/5 136/1/5
f 137/1/10 159/1/10 22/1/10
f 136/1/7 137/1/7 22/1/7
f 138/1/2 79/1/2 129/1/2
f 155/1/3 8/1/3 224/1/3
f 65/1/9 155/1/9 139/1/9
f 2/1/4 65/1/4 139/1/4
f 35/1/9 38/1/9 140/1/9
f 221/1/4 35/1/4 140/1/4
f 3/1/7 129/1/7 141/1/7
f 116/1/5 3/1/5 141/1/5
f 142/1/8 209/1/8 97/1/8
f 142/1/9 97/1/9 143/1/9
f 143/1/1 210/1/1 98/1/1
f 143/1/9 98/1/9 142/1/9
f 46/1/7 40/1/7 144/1/7
f 213/1/5 46/1/5 144/1/5
f 85/1/4 164/1/4 145/1/4
f 85/1/8 145/1/8 80/1/8
f 95/1/4 125/1/4 146/1/4
f 103/1/8 95/1/8 146/1/8
f 92/1/6 93/1/6 147/1/6
f 110/1/9 92/1/9 147/1/9
f 133/1/10 91/1/10 148/1/10
f 148/1/5 91/1/5 152/1/5
f 149/1/1 117/1/1 1/1/1
f 149/1/7 1/1/7 151/1/7
f 153/1/6 150/1/6 39/1/6
f 39/1/4 150/1/4 41/1/4
f 151/1/8 112/1/8 73/1/8
f 151/1/7 73/1/7 149/1/7
f 147/1/6 93/1/6 152/1/6
f 152/1/5 93/1/5 148/1/5
f 38/1/6 150/1/6 153/1/6
f 140/1/9 38/1/9 153/1/9
f 154/1/6 161/1/6 25/1/6
f 163/1/9 154/1/9 25/1/9
f 155/1/6 224/1/6 138/1/6
f 139/1/9 155/1/9 138/1/9
f 87/1/1 113/1/1 156/1/1
f 87/1/9 156/1/9 157/1/9
f 157/1/8 130/1/8 71/1/8
f 157/1/9 71/1/9 87/1/9
f 67/1/6 195/1/6 158/1/6
f 67/1/9 158/1/9 66/1/9
f 22/1/10 159/1/10 24/1/10
f 24/1/5 159/1/5 44/1/5
f 160/1/9 205/1/9 5/1/9
f 160/1/4 5/1/4 114/1/4
f 25/1/6 161/1/6 44/1/6
f 44/1/5 161/1/5 24/1/5
f 69/1/10 196/1/10 162/1/10
f 69/1/7 162/1/7 81/1/7
f 23/1/9 154/1/9 163/1/9
f 227/1/4 23/1/4 163/1/4
f 66/1/9 158/1/9 164/1/9
f 66/1/4 164/1/4 85/1/4
f 165/1/10 190/1/10 13/1/10
f 165/1/7 13/1/7 106/1/7
f 166/1/9 124/1/9 100/1/9
f 166/1/4 100/1/4 189/1/4
f 19/1/2 240/1/2 231/1/2
f 240/1/7 229/1/7 18/1/7
f 99/1/10 168/1/10 167/1/10
f 198/1/5 168/1/5 99/1/5
f 80/1/8 145/1/8 169/1/8
f 186/1/9 80/1/9 169/1/9
f 50/1/4 120/1/4 170/1/4
f 50/1/8 170/1/8 55/1/8
f 56/1/5 183/1/5 171/1/5
f 56/1/1 171/1/1 177/1/1
f 28/1/6 172/1/6 118/1/6
f 52/1/4 172/1/4 28/1/4
f 52/1/10 173/1/10 206/1/10
f 28/1/4 173/1/4 52/1/4
f 174/1/5 207/1/5 30/1/5
f 174/1/1 30/1/1 53/1/1
f 175/1/10 47/1/10 32/1/10
f 200/1/5 47/1/5 175/1/5
f 55/1/8 170/1/8 176/1/8
f 59/1/9 55/1/9 176/1/9
f 177/1/1 171/1/1 59/1/1
f 176/1/9 177/1/9 59/1/9
f 77/1/1 4/1/1 178/1/1
f 202/1/7 77/1/7 178/1/7
f 179/1/3 160/1/3 4/1/3
f 78/1/2 180/1/2 203/1/2
f 180/1/7 197/1/7 179/1/7
f 180/1/5 179/1/5 203/1/5
f 108/1/2 236/1/2 181/1/2
f 108/1/2 181/1/2 199/1/2
f 199/1/9 15/1/9 182/1/9
f 181/1/8 237/1/8 15/1/8
f 51/1/7 29/1/7 183/1/7
f 51/1/5 183/1/5 56/1/5
f 33/1/9 119/1/9 184/1/9
f 33/1/4 184/1/4 128/1/4
f 169/1/3 185/1/3 86/1/3
f 193/1/2 85/1/2 186/1/2
f 86/1/1 193/1/1 186/1/1
f 169/1/9 86/1/9 186/1/9
f 236/1/4 16/1/4 181/1/4
f 236/1/9 235/1/9 16/1/9
f 188/1/6 14/1/6 187/1/6
f 104/1/4 14/1/4 188/1/4
f 189/1/4 100/1/4 19/1/4
f 189/1/8 19/1/8 96/1/8
f 104/1/10 190/1/10 165/1/10
f 188/1/4 190/1/4 104/1/4
f 191/1/8 54/1/8 58/1/8
f 192/1/7 191/1/7 58/1/7
f 53/1/1 30/1/1 192/1/1
f 58/1/7 53/1/7 192/1/7
f 185/1/5 194/1/5 193/1/5
f 185/1/1 193/1/1 86/1/1
f 81/1/7 162/1/7 194/1/7
f 81/1/5 194/1/5 185/1/5
f 68/1/6 195/1/6 67/1/6
f 74/1/4 195/1/4 68/1/4
f 74/1/10 196/1/10 69/1/10
f 68/1/4 196/1/4 74/1/4
f 6/1/10 122/1/10 197/1/10
f 6/1/7 197/1/7 180/1/7
f 198/1/6 107/1/6 115/1/6
f 99/1/5 107/1/5 198/1/5
f 101/1/1 108/1/1 199/1/1
f 182/1/9 101/1/9 199/1/9
f 200/1/6 57/1/6 48/1/6
f 175/1/5 57/1/5 200/1/5
f 32/1/10 47/1/10 201/1/10
f 32/1/7 201/1/7 31/1/7
f 84/1/8 78/1/8 202/1/8
f 178/1/7 84/1/7 202/1/7
f 203/1/5 179/1/5 4/1/5
f 203/1/1 4/1/1 77/1/1
f 82/1/6 204/1/6 76/1/6
f 75/1/5 204/1/5 82/1/5
f 76/1/6 204/1/6 205/1/6
f 76/1/9 205/1/9 160/1/9
f 206/1/10 173/1/10 29/1/10
f 206/1/7 29/1/7 51/1/7
f 31/1/7 201/1/7 207/1/7
f 31/1/5 207/1/5 174/1/5
f 61/1/9 131/1/9 208/1/9
f 70/1/4 61/1/4 208/1/4
f 209/1/4 234/1/4 9/1/4
f 97/1/8 209/1/8 9/1/8
f 210/1/5 212/1/5 102/1/5
f 98/1/1 210/1/1 102/1/1
f 211/1/3 60/1/3 105/1/3
f 215/1/2 214/1/2 109/1/2
f 212/1/7 211/1/7 10/1/7
f 102/1/5 212/1/5 10/1/5
f 37/1/5 46/1/5 213/1/5
f 45/1/1 37/1/1 213/1/1
f 215/1/10 105/1/10 214/1/10
f 214/1/4 105/1/4 60/1/4
f 211/1/10 105/1/10 215/1/10
f 10/1/7 211/1/7 215/1/7
f 11/1/6 216/1/6 60/1/6
f 60/1/4 216/1/4 214/1/4
f 62/1/6 63/1/6 217/1/6
f 217/1/4 63/1/4 88/1/4
f 7/1/10 218/1/10 8/1/10
f 8/1/5 218/1/5 79/1/5
f 219/1/8 95/1/8 103/1/8
f 219/1/7 103/1/7 94/1/7
f 220/1/1 37/1/1 45/1/1
f 220/1/9 45/1/9 121/1/9
f 34/1/4 35/1/4 221/1/4
f 36/1/8 34/1/8 221/1/8
f 20/1/5 21/1/5 222/1/5
f 127/1/1 20/1/1 222/1/1
f 94/1/1 89/1/1 223/1/1
f 94/1/7 223/1/7 219/1/7
f 138/1/6 224/1/6 79/1/6
f 79/1/5 224/1/5 8/1/5
f 64/1/10 225/1/10 88/1/10
f 88/1/4 225/1/4 217/1/4
f 43/1/8 49/1/8 226/1/8
f 43/1/7 226/1/7 42/1/7
f 49/1/4 23/1/4 227/1/4
f 226/1/8 49/1/8 227/1/8
f 96/1/8 19/1/8 228/1/8
f 228/1/7 17/1/7 230/1/7
f 168/1/3 198/1/3 229/1/3
f 167/1/10 168/1/10 229/1/10
f 230/1/3 189/1/3 96/1/3
f 230/1/7 96/1/7 228/1/7
f 240/1/5 18/1/5 231/1/5
f 231/1/1 232/1/1 17/1/1
f 18/1/3 166/1/3 232/1/3
f 231/1/5 18/1/5 232/1/5
f 233/1/9 109/1/9 11/1/9
f 233/1/3 11/1/3 212/1/3
f 234/1/2 215/1/2 109/1/2
f 234/1/9 109/1/9 233/1/9
f 14/1/3 104/1/3 235/1/3
f 187/1/6 14/1/6 235/1/6
f 187/1/9 235/1/9 236/1/9
f 126/1/2 187/1/2 236/1/2
f 237/1/3 12/1/3 182/1/3
f 15/1/8 237/1/8 182/1/8
f 89/1/2 110/1/2 238/1/2
f 89/1/5 238/1/5 132/1/5
f 132/1/5 238/1/5 239/1/5
f 132/1/3 239/1/3 95/1/3
f 167/1/7 229/1/7 240/1/7
f 100/1/2 167/1/2 240/1/2
