# Blender v2.75 (sub 0) OBJ File: 'Empty.blend'
# www.blender.org
mtllib ITAM_HP_MANA_01.mtl
o ITAM_HP_MANA_01
v -0.057016 -0.010480 0.034554
v -0.057137 -0.010480 -0.034374
v 0.007297 0.002029 0.013141
v -0.007857 -0.000924 0.034468
v -0.072245 -0.013433 0.013280
v -0.032423 -0.005702 0.042647
v -0.036249 0.013602 0.000053
v 0.007251 0.002029 -0.013187
v -0.072291 -0.013433 -0.013048
v -0.034521 0.004553 -0.017750
v -0.007978 -0.000924 -0.034460
v -0.033667 0.000627 0.034404
v -0.001636 0.006861 0.010609
v -0.013856 0.004480 0.027808
v -0.065782 -0.005608 0.010721
v -0.053501 -0.003226 0.027877
v -0.065819 -0.005608 -0.010511
v -0.001673 0.006861 -0.010623
v -0.032571 -0.005702 -0.042553
v -0.013953 0.004480 -0.027779
v -0.053598 -0.003226 -0.027710
v -0.033787 0.000627 -0.034306
v -0.017882 0.007783 -0.005479
v -0.051118 0.001322 -0.005421
v -0.017863 0.007783 0.005522
v -0.034459 0.004553 0.017851
v -0.051099 0.001322 0.005580
v -0.024195 0.006549 0.014433
v -0.024245 0.006549 -0.014369
v -0.044786 0.002556 -0.014333
v -0.044736 0.002556 0.014469
v 0.111082 -0.005851 0.020770
v 0.054417 -0.005851 -0.075813
v 0.017426 -0.005851 0.075717
v -0.039238 -0.005851 -0.020865
vt 0.818572 -0.245409
vt 0.818532 -0.122193
vt 0.723157 -0.122192
vt 1.000000 -0.500000
vt 0.000000 -0.500000
vt 0.904509 -0.190983
vt 0.095492 -0.190983
vt 0.723167 -0.245458
vt 0.647537 -0.122187
vt 0.904509 -0.809017
vt 0.654508 -1.000000
vt 0.345492 -1.000000
vt 0.744451 -0.426814
vt 0.763013 -0.495128
vt 0.793048 -0.469035
vt 0.804520 -0.426814
vt 0.793048 -0.384594
vt 0.723166 -0.000782
vt 0.654509 0.000000
vt 0.095492 -0.809017
vt 0.725888 -0.495128
vt 0.763013 -0.358500
vt 0.725888 -0.358500
vt 0.345492 0.000000
vt 0.647610 -0.245493
vt 0.647607 -0.000770
vt 0.695854 -0.384594
vt 0.684381 -0.426814
vt 0.818576 -0.000807
vt 0.695854 -0.469035
vt 0.000000 -1.000000
vt 1.000000 -1.000000
vt 1.000000 -0.000000
vt 0.000000 -0.000000
vn -0.426600 0.904400 0.000700
vn 0.190800 -0.981600 -0.000300
vn 0.357600 0.856300 0.372700
vn -0.546900 0.788300 0.282100
vn -0.339000 0.720800 0.604600
vn -0.021700 0.890300 0.454900
vn -0.110700 0.965900 -0.234000
vn 0.056800 0.998400 -0.000100
vn -0.380700 0.913400 -0.144100
vn -0.637000 0.770800 0.001100
vn 0.301900 0.953300 -0.000500
vn 0.010300 0.989400 -0.144700
vn 0.046300 0.795700 0.603900
vn 0.476000 0.879400 -0.000800
vn -0.109800 0.965900 0.234400
vn -0.770800 0.637100 0.001300
vn -0.651100 0.660200 0.374400
vn -0.380200 0.913400 0.145400
vn -0.652400 0.660200 -0.372100
vn 0.356300 0.856300 -0.373900
vn -0.260000 0.936900 -0.233700
vn 0.044200 0.795700 -0.604100
vn -0.341100 0.720800 -0.603400
vn -0.023300 0.890300 -0.454800
vn -0.547900 0.788300 -0.280100
vn 0.010800 0.989400 0.144700
vn -0.259200 0.936900 0.234600
vn 0.212700 0.935900 0.280700
vn 0.211700 0.935900 -0.281500
vn -0.313400 0.833900 -0.454300
vn -0.311800 0.833900 0.455400
vn 0.000000 1.000000 -0.000000
usemtl ITRINGS
s off
f 27/1/1 24/2/1 17/3/1
f 6/4/2 19/5/2 4/6/2
f 19/5/2 11/7/2 4/6/2
f 13/8/3 14/3/3 4/9/3
f 1/10/2 5/11/2 9/12/2
f 7/13/4 27/14/4 31/15/4
f 6/4/2 1/10/2 9/12/2
f 12/8/5 16/3/5 1/9/5
f 7/13/6 26/16/6 28/17/6
f 20/18/7 22/3/7 10/2/7
f 13/18/8 18/3/8 23/2/8
f 11/7/2 3/19/2 4/6/2
f 6/4/2 9/12/2 2/20/2
f 21/18/9 17/3/9 24/2/9
f 7/13/10 24/21/10 27/14/10
f 7/13/11 25/22/11 23/23/11
f 11/7/2 8/24/2 3/19/2
f 18/3/12 20/8/12 29/1/12
f 1/9/5 6/25/5 12/8/5
f 6/26/13 4/9/13 14/3/13
f 4/9/3 3/25/3 13/8/3
f 18/3/14 13/18/14 3/26/14
f 14/3/13 12/18/13 6/26/13
f 12/18/15 14/3/15 28/2/15
f 9/9/16 5/25/16 15/8/16
f 5/26/17 1/9/17 16/3/17
f 16/3/17 15/18/17 5/26/17
f 15/18/18 16/3/18 31/2/18
f 2/26/19 9/9/19 17/3/19
f 15/8/16 17/3/16 9/9/16
f 3/26/14 8/9/14 18/3/14
f 20/8/20 18/3/20 8/9/20
f 6/4/2 2/20/2 19/5/2
f 22/3/21 21/8/21 30/1/21
f 8/9/20 11/25/20 20/8/20
f 22/3/22 20/18/22 11/26/22
f 19/9/23 2/25/23 21/8/23
f 17/3/19 21/18/19 2/26/19
f 11/26/22 19/9/22 22/3/22
f 21/8/23 22/3/23 19/9/23
f 7/13/24 29/27/24 10/28/24
f 10/2/7 29/29/7 20/18/7
f 24/2/9 30/29/9 21/18/9
f 7/13/25 30/30/25 24/21/25
f 14/3/26 13/8/26 25/1/26
f 23/2/8 25/29/8 13/18/8
f 28/2/15 26/29/15 12/18/15
f 16/3/27 12/8/27 26/1/27
f 17/3/1 15/8/1 27/1/1
f 31/2/18 27/29/18 15/18/18
f 25/1/26 28/2/26 14/3/26
f 7/13/28 28/17/28 25/22/28
f 29/1/12 23/2/12 18/3/12
f 7/13/29 23/23/29 29/27/29
f 30/1/21 10/2/21 22/3/21
f 7/13/30 10/28/30 30/30/30
f 26/1/27 31/2/27 16/3/27
f 7/13/31 31/15/31 26/16/31
usemtl ITAM_CHAIN_01
f 32/31/32 33/32/32 35/33/32
f 35/33/32 34/34/32 32/31/32
