# Blender v2.75 (sub 0) OBJ File: 'Empty.blend'
# www.blender.org
mtllib ITAM_PROT_TOTAL_01.mtl
o ITAM_PROT_TOTAL_01
v -0.057016 -0.010480 0.034554
v -0.057137 -0.010480 -0.034374
v 0.007297 0.002029 0.013141
v -0.007857 -0.000924 0.034468
v -0.072245 -0.013433 0.013280
v -0.032423 -0.005702 0.042647
v -0.036249 0.013602 0.000053
v 0.007251 0.002029 -0.013187
v -0.072291 -0.013433 -0.013048
v -0.034521 0.004553 -0.017750
v -0.007978 -0.000924 -0.034460
v -0.033667 0.000627 0.034404
v -0.001636 0.006861 0.010609
v -0.013856 0.004480 0.027808
v -0.065782 -0.005608 0.010721
v -0.053501 -0.003226 0.027877
v -0.065819 -0.005608 -0.010511
v -0.001673 0.006861 -0.010623
v -0.032571 -0.005702 -0.042553
v -0.013953 0.004480 -0.027779
v -0.053598 -0.003226 -0.027710
v -0.033787 0.000627 -0.034306
v -0.017882 0.007783 -0.005479
v -0.051118 0.001322 -0.005421
v -0.017863 0.007783 0.005522
v -0.034459 0.004553 0.017851
v -0.051099 0.001322 0.005580
v -0.024195 0.006549 0.014433
v -0.024245 0.006549 -0.014369
v -0.044786 0.002556 -0.014333
v -0.044736 0.002556 0.014469
v 0.111082 -0.005851 0.020770
v 0.054417 -0.005851 -0.075813
v 0.017426 -0.005851 0.075717
v -0.039238 -0.005851 -0.020865
vt 0.000000 -1.000000
vt 1.000000 -1.000000
vt 1.000000 -0.000000
vt 0.000000 -0.000000
vt 0.294253 -0.095008
vt 0.325057 -0.194692
vt 0.374899 -0.156616
vt 0.393937 -0.095008
vt 0.374899 -0.033400
vt 0.263449 -0.194692
vt 0.325057 0.004676
vt 0.263449 0.004676
vt 0.213607 -0.033400
vt 0.194569 -0.095008
vt 0.213607 -0.156616
vt 0.808661 -0.745366
vt 0.808620 -0.622151
vt 0.707943 -0.622149
vt 1.000000 -0.500000
vt 0.000000 -0.500000
vt 0.904509 -0.190983
vt 0.095492 -0.190983
vt 0.707954 -0.745416
vt 0.669914 -0.622145
vt 0.904509 -0.809017
vt 0.654508 -1.000000
vt 0.345492 -1.000000
vt 0.669914 -0.622151
vt 0.707953 -0.502169
vt 0.808623 -0.622148
vt 0.654509 0.000000
vt 0.095492 -0.809017
vt 0.345492 0.000000
vt 0.669934 -0.745450
vt 0.669934 -0.502156
vt 0.808666 -0.502193
vn 0.000000 1.000000 -0.000000
vn -0.546900 0.788300 0.282100
vn -0.021700 0.890300 0.454900
vn -0.637000 0.770800 0.001100
vn 0.301900 0.953300 -0.000500
vn -0.023300 0.890300 -0.454800
vn -0.547900 0.788300 -0.280100
vn 0.212700 0.935900 0.280700
vn 0.211700 0.935900 -0.281500
vn -0.313400 0.833900 -0.454300
vn -0.311800 0.833900 0.455400
vn -0.426600 0.904400 0.000700
vn 0.190800 -0.981600 -0.000300
vn 0.357600 0.856300 0.372700
vn -0.339000 0.720800 0.604600
vn -0.110700 0.965900 -0.234000
vn 0.056800 0.998400 -0.000100
vn -0.380700 0.913400 -0.144100
vn 0.010300 0.989400 -0.144700
vn 0.046300 0.795700 0.603900
vn 0.476000 0.879400 -0.000800
vn -0.109800 0.965900 0.234400
vn -0.770800 0.637100 0.001300
vn -0.651100 0.660200 0.374400
vn -0.380200 0.913400 0.145400
vn -0.652400 0.660200 -0.372100
vn 0.356300 0.856300 -0.373900
vn -0.260000 0.936900 -0.233700
vn 0.044200 0.795700 -0.604100
vn -0.341100 0.720800 -0.603400
vn 0.010800 0.989400 0.144700
vn -0.259200 0.936900 0.234600
usemtl ITAM_CHAIN_01
s off
f 32/1/1 33/2/1 35/3/1
f 35/3/1 34/4/1 32/1/1
usemtl ITMISC_01
f 7/5/2 27/6/2 31/7/2
f 7/5/3 26/8/3 28/9/3
f 7/5/4 24/10/4 27/6/4
f 7/5/5 25/11/5 23/12/5
f 7/5/6 29/13/6 10/14/6
f 7/5/7 30/15/7 24/10/7
f 7/5/8 28/9/8 25/11/8
f 7/5/9 23/12/9 29/13/9
f 7/5/10 10/14/10 30/15/10
f 7/5/11 31/7/11 26/8/11
usemtl ITRINGS
f 27/16/12 24/17/12 17/18/12
f 6/19/13 19/20/13 4/21/13
f 19/20/13 11/22/13 4/21/13
f 13/23/14 14/18/14 4/24/14
f 1/25/13 5/26/13 9/27/13
f 6/19/13 1/25/13 9/27/13
f 12/23/15 16/18/15 1/28/15
f 20/29/16 22/18/16 10/30/16
f 13/29/17 18/18/17 23/30/17
f 11/22/13 3/31/13 4/21/13
f 6/19/13 9/27/13 2/32/13
f 21/29/18 17/18/18 24/17/18
f 11/22/13 8/33/13 3/31/13
f 18/18/19 20/23/19 29/16/19
f 1/28/15 6/34/15 12/23/15
f 6/35/20 4/24/20 14/18/20
f 4/24/14 3/34/14 13/23/14
f 18/18/21 13/29/21 3/35/21
f 14/18/20 12/29/20 6/35/20
f 12/29/22 14/18/22 28/30/22
f 9/28/23 5/34/23 15/23/23
f 5/35/24 1/28/24 16/18/24
f 16/18/24 15/29/24 5/35/24
f 15/29/25 16/18/25 31/17/25
f 2/35/26 9/28/26 17/18/26
f 15/23/23 17/18/23 9/28/23
f 3/35/21 8/24/21 18/18/21
f 20/23/27 18/18/27 8/24/27
f 6/19/13 2/32/13 19/20/13
f 22/18/28 21/23/28 30/16/28
f 8/24/27 11/34/27 20/23/27
f 22/18/29 20/29/29 11/35/29
f 19/24/30 2/34/30 21/23/30
f 17/18/26 21/29/26 2/35/26
f 11/35/29 19/24/29 22/18/29
f 21/23/30 22/18/30 19/24/30
f 10/30/16 29/36/16 20/29/16
f 24/17/18 30/36/18 21/29/18
f 14/18/31 13/23/31 25/16/31
f 23/30/17 25/36/17 13/29/17
f 28/30/22 26/36/22 12/29/22
f 16/18/32 12/23/32 26/16/32
f 17/18/12 15/23/12 27/16/12
f 31/17/25 27/36/25 15/29/25
f 25/16/31 28/30/31 14/18/31
f 29/16/19 23/30/19 18/18/19
f 30/16/28 10/30/28 22/18/28
f 26/16/32 31/17/32 16/18/32
