# Blender v2.75 (sub 0) OBJ File: 'Empty.blend'
# www.blender.org
mtllib ITAM_PROT_EDGE_01.mtl
o ITAM_PROT_EDGE_01
v -0.057016 -0.010480 0.034554
v -0.057137 -0.010480 -0.034374
v 0.007297 0.002029 0.013141
v -0.007857 -0.000924 0.034468
v -0.072245 -0.013433 0.013280
v -0.032423 -0.005702 0.042647
v -0.036249 0.013602 0.000053
v 0.007251 0.002029 -0.013187
v -0.072291 -0.013433 -0.013048
v -0.034521 0.004553 -0.017750
v -0.007978 -0.000924 -0.034460
v -0.033667 0.000627 0.034404
v -0.001636 0.006861 0.010609
v -0.013856 0.004480 0.027808
v -0.065782 -0.005608 0.010721
v -0.053501 -0.003226 0.027877
v -0.065819 -0.005608 -0.010511
v -0.001673 0.006861 -0.010623
v -0.032571 -0.005702 -0.042553
v -0.013953 0.004480 -0.027779
v -0.053598 -0.003226 -0.027710
v -0.033787 0.000627 -0.034306
v -0.017882 0.007783 -0.005479
v -0.051118 0.001322 -0.005421
v -0.017863 0.007783 0.005522
v -0.034459 0.004553 0.017851
v -0.051099 0.001322 0.005580
v -0.024195 0.006549 0.014433
v -0.024245 0.006549 -0.014369
v -0.044786 0.002556 -0.014333
v -0.044736 0.002556 0.014469
v 0.111082 -0.005851 0.020770
v 0.054417 -0.005851 -0.075813
v 0.017426 -0.005851 0.075717
v -0.039238 -0.005851 -0.020865
vt 0.294253 -0.095008
vt 0.325057 -0.194692
vt 0.374899 -0.156616
vt 0.393937 -0.095008
vt 0.374899 -0.033400
vt 0.263449 -0.194692
vt 0.325057 0.004676
vt 0.263449 0.004676
vt 0.213607 -0.033400
vt 0.194569 -0.095008
vt 0.213607 -0.156616
vt 0.488952 -0.745366
vt 0.488911 -0.622151
vt 0.388234 -0.622149
vt 1.000000 -0.500000
vt 0.000000 -0.500000
vt 0.904509 -0.190983
vt 0.095492 -0.190983
vt 0.388245 -0.745416
vt 0.324454 -0.622145
vt 0.904509 -0.809017
vt 0.654508 -1.000000
vt 0.345492 -1.000000
vt 0.324454 -0.622151
vt 0.388244 -0.502169
vt 0.488914 -0.622148
vt 0.654509 0.000000
vt 0.095492 -0.809017
vt 0.345492 0.000000
vt 0.324530 -0.745450
vt 0.324527 -0.502156
vt 0.324444 -0.622151
vt 0.324444 -0.622145
vt 0.488956 -0.502193
vt 0.000000 -1.000000
vt 1.000000 -1.000000
vt 1.000000 -0.000000
vt 0.000000 -0.000000
vn -0.546900 0.788300 0.282100
vn -0.021700 0.890300 0.454900
vn -0.637000 0.770800 0.001100
vn 0.301900 0.953300 -0.000500
vn -0.023300 0.890300 -0.454800
vn -0.547900 0.788300 -0.280100
vn 0.212700 0.935900 0.280700
vn 0.211700 0.935900 -0.281500
vn -0.313400 0.833900 -0.454300
vn -0.311800 0.833900 0.455400
vn -0.426600 0.904400 0.000700
vn 0.190800 -0.981600 -0.000300
vn 0.357600 0.856300 0.372700
vn -0.339000 0.720800 0.604600
vn -0.110700 0.965900 -0.234000
vn 0.056800 0.998400 -0.000100
vn -0.380700 0.913400 -0.144100
vn 0.010300 0.989400 -0.144700
vn 0.046300 0.795700 0.603900
vn 0.476000 0.879400 -0.000800
vn -0.109800 0.965900 0.234400
vn -0.770800 0.637100 0.001300
vn -0.651100 0.660200 0.374400
vn -0.380200 0.913400 0.145400
vn -0.652400 0.660200 -0.372100
vn 0.356300 0.856300 -0.373900
vn -0.260000 0.936900 -0.233700
vn 0.044200 0.795700 -0.604100
vn -0.341100 0.720800 -0.603400
vn 0.010800 0.989400 0.144700
vn -0.259200 0.936900 0.234600
vn 0.000000 1.000000 -0.000000
usemtl ITMISC_01
s off
f 7/1/1 27/2/1 31/3/1
f 7/1/2 26/4/2 28/5/2
f 7/1/3 24/6/3 27/2/3
f 7/1/4 25/7/4 23/8/4
f 7/1/5 29/9/5 10/10/5
f 7/1/6 30/11/6 24/6/6
f 7/1/7 28/5/7 25/7/7
f 7/1/8 23/8/8 29/9/8
f 7/1/9 10/10/9 30/11/9
f 7/1/10 31/3/10 26/4/10
usemtl ITRINGS
f 27/12/11 24/13/11 17/14/11
f 6/15/12 19/16/12 4/17/12
f 19/16/12 11/18/12 4/17/12
f 13/19/13 14/14/13 4/20/13
f 1/21/12 5/22/12 9/23/12
f 6/15/12 1/21/12 9/23/12
f 12/19/14 16/14/14 1/24/14
f 20/25/15 22/14/15 10/26/15
f 13/25/16 18/14/16 23/26/16
f 11/18/12 3/27/12 4/17/12
f 6/15/12 9/23/12 2/28/12
f 21/25/17 17/14/17 24/13/17
f 11/18/12 8/29/12 3/27/12
f 18/14/18 20/19/18 29/12/18
f 1/24/14 6/30/14 12/19/14
f 6/31/19 4/20/19 14/14/19
f 4/20/13 3/30/13 13/19/13
f 18/14/20 13/25/20 3/31/20
f 14/14/19 12/25/19 6/31/19
f 12/25/21 14/14/21 28/26/21
f 9/32/22 5/30/22 15/19/22
f 5/31/23 1/24/23 16/14/23
f 16/14/23 15/25/23 5/31/23
f 15/25/24 16/14/24 31/13/24
f 2/31/25 9/32/25 17/14/25
f 15/19/22 17/14/22 9/32/22
f 3/31/20 8/33/20 18/14/20
f 20/19/26 18/14/26 8/33/26
f 6/15/12 2/28/12 19/16/12
f 22/14/27 21/19/27 30/12/27
f 8/33/26 11/30/26 20/19/26
f 22/14/28 20/25/28 11/31/28
f 19/33/29 2/30/29 21/19/29
f 17/14/25 21/25/25 2/31/25
f 11/31/28 19/33/28 22/14/28
f 21/19/29 22/14/29 19/33/29
f 10/26/15 29/34/15 20/25/15
f 24/13/17 30/34/17 21/25/17
f 14/14/30 13/19/30 25/12/30
f 23/26/16 25/34/16 13/25/16
f 28/26/21 26/34/21 12/25/21
f 16/14/31 12/19/31 26/12/31
f 17/14/11 15/19/11 27/12/11
f 31/13/24 27/34/24 15/25/24
f 25/12/30 28/26/30 14/14/30
f 29/12/18 23/26/18 18/14/18
f 30/12/27 10/26/27 22/14/27
f 26/12/31 31/13/31 16/14/31
usemtl ITAM_CHAIN_01
f 32/35/32 33/36/32 35/37/32
f 35/37/32 34/38/32 32/35/32
