# Blender v2.75 (sub 0) OBJ File: 'Empty.blend'
# www.blender.org
mtllib ITAR_SLD_L.mtl
o ITAR_SLD_L
v 0.090542 -0.103248 -0.387113
v 0.346055 -0.328578 0.072952
v -0.359308 -0.314531 -0.174003
v 0.289868 -0.167377 -0.189493
v 0.123168 0.286259 -0.268178
v 0.330413 0.053154 -0.270730
v 0.407132 -0.144871 -0.187304
v 0.380066 0.223542 -0.075898
v 0.395945 -0.327625 -0.028490
v 0.391704 -0.282483 -0.363655
v 0.123560 0.272879 -0.049107
v 0.341870 -0.319700 -0.027926
v 0.290027 -0.303035 -0.345401
v -0.288774 -0.282478 0.423312
v -0.243934 -0.282478 -0.077667
v -0.437926 -0.328900 -0.088265
v -0.482767 -0.282478 0.412714
v 0.184036 0.265807 -0.190173
v 0.360328 0.314719 -0.189549
v 0.101019 -0.297097 -0.423332
v -0.114272 -0.346012 0.322280
v -0.165554 -0.070506 -0.278656
v 0.262931 0.295695 -0.088257
v 0.228048 0.346032 -0.096566
v -0.228351 -0.157283 -0.146243
v -0.242399 -0.068948 -0.079717
v -0.181423 -0.156574 -0.111809
v -0.252764 -0.199334 -0.161430
v -0.333028 -0.123075 -0.148453
v -0.230553 -0.159985 -0.124730
v -0.226107 -0.224078 -0.218229
v -0.317894 -0.172312 -0.254584
v -0.238413 -0.184479 -0.177377
v 0.286528 0.248978 -0.140157
v 0.227946 -0.315873 -0.051877
v 0.171901 0.202282 -0.176103
v 0.073107 0.186844 -0.176583
v 0.221219 0.116876 -0.077143
v 0.199622 0.102789 -0.258158
v 0.476621 -0.327433 -0.080938
v 0.187499 0.327297 0.025694
v 0.345188 0.305288 -0.006736
v 0.347703 -0.216054 -0.263665
v 0.292516 -0.200317 0.015478
v 0.076432 0.225600 -0.054663
v 0.452790 -0.182273 -0.267189
v 0.345230 -0.183387 -0.261344
v -0.125963 -0.219804 0.242140
v -0.437926 -0.282478 -0.088265
v -0.243934 -0.328900 -0.077667
v -0.482767 -0.328900 0.412714
v -0.288774 -0.328900 0.423311
v 0.241203 -0.229145 -0.258914
v 0.187100 0.272274 0.029555
v 0.281562 -0.199093 -0.345842
v -0.217572 -0.173642 -0.108855
v -0.249071 -0.222733 -0.182839
v -0.192202 -0.140215 -0.149196
v -0.251703 -0.193651 -0.119618
v -0.231614 -0.165668 -0.166542
v -0.215449 -0.185824 -0.212767
v 0.309682 0.278370 -0.191709
v 0.368553 0.181484 -0.278021
v -0.243065 -0.115841 -0.190940
v 0.093246 0.247495 -0.271683
v 0.195879 0.303839 -0.192986
v 0.347388 -0.307919 -0.320277
v 0.288498 0.086522 -0.113171
v 0.235270 -0.310960 -0.294181
v 0.449200 -0.307757 -0.321361
v 0.335855 -0.321632 -0.303056
v 0.307093 0.273514 -0.009689
v 0.347370 0.213567 -0.076303
v -0.161516 -0.306169 -0.336813
v -0.381804 -0.254026 0.418229
v -0.349593 -0.254026 -0.083439
v 0.397116 -0.255532 -0.037981
v 0.365424 -0.326758 -0.045348
v 0.258027 0.071871 -0.111142
v 0.236974 -0.239559 -0.123395
v 0.421992 0.182164 -0.234821
v 0.142131 0.303190 -0.165623
v 0.313392 -0.316258 -0.008200
v 0.314634 -0.267546 -0.028212
v 0.466003 -0.231749 -0.138066
v 0.353951 -0.231822 -0.135356
v 0.410586 -0.182843 -0.173825
v 0.290936 -0.193318 -0.170901
v 0.249329 0.139933 -0.262960
v -0.269543 -0.160457 -0.102741
v 0.285259 0.154957 -0.212772
v 0.336168 0.056484 -0.207915
v 0.403708 -0.169456 -0.348621
v 0.179136 0.245607 -0.087725
v 0.071769 -0.175975 0.135042
v 0.276299 0.047360 -0.310575
v 0.233569 0.020822 -0.263563
v 0.348098 -0.257509 -0.131864
v 0.198822 0.091945 -0.202015
v 0.373746 0.311958 -0.134052
v 0.261125 0.145578 -0.081790
v 0.016180 -0.106064 -0.346836
v -0.074930 -0.067074 -0.327741
v 0.323112 0.152335 -0.235879
v 0.321048 0.151111 -0.172616
v 0.420404 0.182654 -0.173219
v 0.238536 0.023534 -0.202581
v 0.215433 -0.319524 -0.111712
v 0.482787 -0.325924 -0.142128
vt 0.084846 -0.992440
vt 0.084846 -0.765387
vt 0.006254 -0.671184
vt 0.393816 -0.386628
vt 0.241301 -0.566537
vt 0.398099 -0.569537
vt 0.503809 -0.461386
vt 0.548442 -0.394930
vt 0.507569 -0.754087
vt 0.630161 -0.758277
vt 0.578379 -0.394764
vt 0.622923 -0.455517
vt 0.841153 -0.428799
vt 0.817901 -0.753143
vt 0.881493 -0.767027
vt 0.758252 -0.768829
vt 0.789416 -0.423651
vt 0.503127 -0.775597
vt 0.620312 -0.842126
vt 0.754243 -0.818677
vt 0.502533 -0.993836
vt 0.913934 -0.993718
vt 0.755385 -0.966733
vt 0.404076 -0.473197
vt 0.405319 -0.521750
vt 0.458651 -0.497559
vt 0.506213 -0.345925
vt 0.505545 -0.182343
vt 0.542794 -0.327422
vt 0.620414 -0.920019
vt 0.546368 -0.467992
vt 0.504545 -0.756475
vt 0.567700 -0.742591
vt 0.593834 -0.462844
vt 0.098035 -0.099382
vt 0.098035 -0.238782
vt 0.463836 -0.238782
vt 0.463814 -0.227956
vt 0.100031 -0.227956
vt 0.101106 -0.303277
vt 0.102004 -0.366247
vt 0.465787 -0.366247
vt 0.464760 -0.294274
vt 0.463836 -0.099382
vt 0.843926 -0.307582
vt 0.812298 -0.176719
vt 0.791974 -0.306547
vt 0.754062 -0.306161
vt 0.704010 -0.175823
vt 0.711609 -0.288000
vt 0.756420 -0.416324
vt 0.707867 -0.355571
vt 0.813063 -0.419337
vt 0.402153 -0.726834
vt 0.450934 -0.996637
vt 0.425203 -0.746703
vt 0.357985 -0.770166
vt 0.068793 -0.396290
vt 0.238777 -0.997826
vt 0.402811 -0.998408
vt 0.209970 -0.721065
vt 0.271083 -0.722239
vt 0.669080 -0.288229
vt 0.664984 -0.176603
vt 0.629049 -0.176784
vt 0.754053 -0.176842
vt 0.922451 -0.374336
vt 0.869119 -0.431426
vt 0.867876 -0.316841
vt 0.203261 -0.289273
vt 0.110445 -0.251393
vt 0.110408 -0.323949
vt 0.627895 -0.305922
vt 0.626586 -0.422193
vt 0.630613 -0.764421
vt 0.675236 -0.355737
vt 0.932070 -0.835990
vt 0.935139 -0.977680
vt 0.997140 -0.790928
vt 0.870521 -0.918641
vt 0.717104 -0.887811
vt 0.543824 -0.346775
vt 0.591487 -0.345740
vt 0.574288 -0.181142
vt 0.572139 -0.458530
vt 0.620761 -0.345393
vt 0.581812 -0.327193
vt 0.571946 -0.181142
vt 0.537590 -0.180849
vt 0.619304 -0.181455
vt 0.754682 -0.304788
vt 0.507503 -0.753869
vt 0.570803 -0.709956
vt 0.615143 -0.004419
vt 0.909617 -0.125109
vt 0.910430 0.000204
vt 0.375822 -0.998361
vt 0.699609 -0.720508
vt 0.758144 -0.768792
vt 0.004280 -0.994856
vt 0.490893 -0.130137
vt 0.486502 -0.538768
vt 0.448574 -0.449558
vt 0.408280 -0.538768
vt 0.408280 -0.458456
vt 0.630053 -0.758240
vt 0.541498 -0.876811
vt 0.855819 -0.176718
vt 0.884922 -0.306732
vt 0.883606 -0.416932
vt 0.843939 -0.307300
vt 0.791988 -0.306250
vt 0.065868 -0.566248
vt 0.135117 -0.721721
vt 0.534360 -0.181141
vt 0.995521 -0.978237
vt 0.502717 -0.878897
vt 0.963284 -0.994971
vt 0.486502 -0.458456
vt 0.913643 -0.906306
vt 0.892483 -0.773632
vt 0.982452 -0.781231
vt 0.777762 -0.773602
vt 0.630685 -0.764639
vt 0.699734 -0.767373
vt 0.699647 -0.720845
vt 0.570837 -0.710293
vt 0.571643 -0.756821
vt 0.059513 -0.722345
vt 0.887228 -0.177192
vt 0.058271 -0.997719
vt 0.489729 -0.003940
vt 0.591474 -0.345443
vt 0.543812 -0.346493
vt 0.326821 -0.723086
vt 0.936844 -0.790391
vn -0.857700 0.309900 0.410400
vn 0.011700 -0.997500 -0.069100
vn 0.884400 -0.057300 0.463200
vn -0.968600 -0.063800 0.240200
vn -0.829800 -0.012300 -0.557900
vn 0.858600 0.116900 -0.499100
vn 0.995200 0.013300 -0.096700
vn -0.996200 -0.062500 0.061100
vn -0.942200 -0.255500 -0.216600
vn 0.735700 0.652400 0.182300
vn 0.994500 -0.098900 -0.034100
vn -0.996300 0.082900 -0.024700
vn 0.782000 0.033900 -0.622400
vn -0.901700 -0.035600 -0.430900
vn 0.000000 -1.000000 0.000000
vn 0.258800 0.965700 0.023200
vn -0.269900 0.962600 -0.024200
vn 0.018700 0.033400 -0.999300
vn 0.155100 0.984100 0.086300
vn 0.920800 -0.018600 0.389500
vn -0.702700 0.072000 -0.707900
vn -0.314000 0.157900 -0.936200
vn 0.892400 0.129000 -0.432400
vn 0.004900 -0.998100 -0.060700
vn 0.184200 0.972600 0.142100
vn -0.472200 0.203600 -0.857600
vn 0.074600 0.975700 0.206000
vn 0.080600 -0.973100 0.215800
vn -0.052900 0.921200 -0.385500
vn -0.765400 -0.455400 0.454700
vn -0.507400 0.847100 -0.158200
vn 0.822700 0.568300 0.011500
vn -0.950400 -0.268900 0.156300
vn 0.363200 0.921900 -0.134500
vn -0.674200 -0.729400 0.116200
vn 0.115700 0.992600 0.037300
vn -0.407100 -0.883800 -0.230600
vn 0.112100 -0.979600 0.166600
vn -0.920500 -0.161000 0.356000
vn 0.027700 -0.998700 -0.043900
vn -0.288500 0.829000 0.479100
vn -0.017200 -0.105600 -0.994300
vn -0.758900 0.076300 -0.646700
vn -0.135000 0.848100 0.512300
vn -0.146100 0.943900 -0.296100
vn -0.554400 -0.791500 0.257400
vn 0.686700 0.669300 0.283600
vn -0.679100 -0.545200 -0.491500
vn -0.545500 -0.794300 0.267400
vn -0.065800 -0.993900 -0.088400
vn 0.399500 0.791200 0.463000
vn 0.278300 0.931300 0.235000
vn -0.747400 -0.573300 -0.335700
vn 0.156500 -0.275800 0.948400
vn 0.950300 0.215600 0.224500
vn 0.655800 0.720700 0.224700
vn 0.704200 -0.200900 0.681000
vn 0.451500 0.515000 0.728700
vn 0.894900 0.193200 -0.402300
vn 0.065800 -0.180900 0.981300
vn -0.555400 0.618900 -0.555400
vn 0.544400 0.800400 0.251000
vn 0.843700 -0.097700 0.527900
vn -0.636600 -0.323000 0.700300
vn -0.435900 0.810800 0.390600
vn -0.873200 0.201000 0.443900
vn 0.418400 0.425700 0.802300
vn -0.996000 0.000000 -0.089100
vn 0.054500 0.000000 -0.998500
vn 0.996000 0.000000 0.089100
vn -0.054500 0.000000 0.998500
vn -0.629700 0.775800 0.040000
vn -0.620300 -0.317500 0.717300
vn 0.309600 0.064300 0.948700
vn -0.837500 -0.032200 -0.545500
vn 0.785300 0.137100 -0.603700
vn -0.912000 0.216400 -0.348600
vn 0.183500 -0.222900 0.957400
vn -0.687000 0.088400 0.721200
vn -0.317700 0.537700 -0.781000
vn -0.138800 0.233300 0.962400
vn -0.188100 -0.030900 -0.981700
vn 0.380700 0.025900 -0.924300
vn 0.082400 -0.881200 -0.465400
vn -0.997400 -0.063200 -0.033800
vn 0.612400 0.214400 -0.760900
vn -0.330600 0.507800 -0.795500
vn -0.777500 0.414600 -0.472800
vn -0.166800 0.928300 0.332400
vn 0.076900 0.030800 -0.996600
vn -0.603500 0.403700 0.687600
vn -0.005000 -0.072200 -0.997400
vn -0.796400 0.287400 0.532200
vn -0.825100 0.229900 -0.516100
vn 0.000900 -0.997700 -0.068400
vn 0.197700 -0.281200 0.939100
vn 0.134200 -0.026200 0.990600
vn -0.677500 -0.058300 -0.733300
vn -0.104700 -0.994500 0.009300
vn -0.004100 -0.860800 -0.508900
vn 0.854200 0.185300 -0.485700
vn 0.689200 0.053100 -0.722600
vn -0.125800 -0.951200 -0.281600
vn 0.400000 -0.547800 0.734800
vn -0.662900 -0.709900 0.238000
vn 0.171100 -0.592800 0.787000
vn 0.074700 -0.283600 0.956000
vn -0.630000 0.175900 -0.756400
vn -0.007100 -0.998200 -0.059800
vn 0.291500 0.956400 0.018700
vn -0.305600 0.952000 -0.019600
vn 0.542100 0.101000 0.834200
vn -0.833000 0.324300 0.448200
vn -0.014200 -0.999600 -0.025800
vn -0.477200 0.122300 0.870200
vn 0.265700 -0.433300 0.861200
vn -0.642400 -0.721200 0.259200
vn -0.508700 0.620000 0.597300
vn -0.964700 0.246200 -0.093300
vn 0.545400 0.486800 -0.682300
vn 0.927100 0.250000 0.279300
vn 0.659200 0.712700 -0.239600
vn -0.929000 -0.297000 0.220800
vn -0.059500 -0.994400 0.087700
vn 0.629600 0.727100 0.273700
vn -0.424500 0.353300 0.833600
vn 0.567400 0.300500 0.766700
vn 0.696100 0.423400 0.579800
vn 0.970000 0.179900 -0.163500
vn -0.997700 -0.042300 0.052800
vn -0.468800 0.813100 0.345000
vn -0.794000 0.137900 0.592100
vn 0.887600 0.223600 0.402600
vn 0.836700 0.341400 0.428300
vn -0.883100 0.248700 0.397800
vn 0.618500 0.512000 -0.596100
vn 0.579200 0.127600 -0.805100
vn -0.227100 0.894800 0.384400
vn -0.863300 0.504700 -0.003800
vn 0.846300 0.451500 0.282700
vn 0.568000 0.582800 -0.581100
vn 0.993700 0.061300 -0.094300
vn 0.885500 0.452600 -0.105100
vn -0.736700 0.165500 -0.655600
vn 0.603900 0.041700 -0.796000
vn -0.065000 -0.978400 -0.196000
vn -0.507100 0.849900 0.143300
vn -0.101900 0.972400 0.209800
vn 0.310100 0.529900 0.789300
vn 0.474800 0.508000 -0.718700
vn -0.344400 0.348100 -0.871900
vn -0.655100 -0.223700 -0.721700
vn -0.786900 -0.460200 0.411000
vn 0.840800 0.440800 0.314200
vn 0.990800 -0.133900 -0.020700
vn -0.615100 -0.772500 -0.158000
vn -0.922500 -0.376400 -0.085800
vn 0.226200 0.974100 -0.006200
vn 0.865100 0.465900 -0.186000
vn 0.332100 -0.317900 0.888000
vn 0.925300 0.325900 0.193800
vn 0.037900 0.989500 0.139200
vn -0.454400 0.362800 -0.813600
vn 0.407000 0.909500 0.085000
vn -0.164300 0.096800 -0.981600
vn -0.724100 0.158100 -0.671400
vn -0.919600 0.039000 -0.390800
vn -0.760700 -0.429700 0.486500
vn -0.946200 -0.321400 -0.037100
vn 0.996300 0.082000 0.025000
vn 0.942500 0.333500 0.021600
vn -0.996200 -0.028900 0.082400
vn -0.860800 -0.500500 0.092400
vn -0.942900 0.280300 0.180100
vn -0.039800 -0.996800 0.069100
vn 0.980000 0.170200 0.102900
vn -0.014600 -0.999600 -0.026100
usemtl HUM_ORGS_ARMOR_V0
s off
f 48/1/1 90/2/1 3/3/1
f 2/4/2 74/5/2 20/6/2
f 92/7/3 68/8/3 43/9/3
f 53/10/4 79/11/4 107/12/4
f 104/13/5 93/14/5 47/15/5
f 46/16/6 93/14/6 81/17/6
f 70/18/7 46/19/7 85/20/7
f 67/21/8 78/22/8 86/23/8
f 11/24/9 82/25/9 36/26/9
f 91/27/10 82/28/10 101/29/10
f 71/21/11 43/30/11 98/23/11
f 69/18/12 80/20/12 53/19/12
f 6/31/13 43/32/13 55/33/13
f 53/10/14 97/34/14 55/33/14
f 16/35/15 50/36/15 52/37/15
f 14/38/16 15/39/16 76/40/16
f 49/41/17 17/42/17 75/43/17
f 52/37/15 51/44/15 16/35/15
f 62/45/18 66/46/18 19/47/18
f 100/48/19 41/49/19 42/50/19
f 46/16/20 106/51/20 8/52/20
f 104/13/21 63/53/21 93/14/21
f 1/54/22 20/6/22 74/5/22
f 2/55/23 20/56/23 1/57/23
f 74/5/24 2/4/24 21/58/24
f 1/54/25 95/59/25 44/60/25
f 74/5/26 22/61/26 103/62/26
f 95/59/27 103/62/27 22/61/27
f 72/63/28 54/64/28 94/65/28
f 66/46/29 24/66/29 19/47/29
f 23/67/30 24/68/30 66/69/30
f 94/69/31 54/68/31 23/67/31
f 26/70/32 27/71/32 58/72/32
f 26/70/33 25/71/33 56/72/33
f 29/70/34 30/71/34 60/72/34
f 29/70/35 28/71/35 59/72/35
f 32/70/36 33/71/36 61/72/36
f 32/70/37 31/71/37 57/72/37
f 34/73/38 72/63/38 94/65/38
f 105/74/39 47/75/39 73/76/39
f 108/77/40 69/78/40 12/79/40
f 84/80/41 88/81/41 80/20/41
f 89/82/42 39/83/42 65/84/42
f 96/85/43 55/33/43 97/34/43
f 65/25/44 37/24/44 36/26/44
f 45/25/45 36/26/45 37/24/45
f 99/86/46 38/87/46 45/88/46
f 101/29/47 82/28/47 11/89/47
f 65/84/48 39/83/48 37/90/48
f 99/86/49 45/88/49 37/90/49
f 109/77/50 78/79/50 70/78/50
f 77/80/51 85/20/51 87/81/51
f 100/91/52 24/66/52 41/49/52
f 41/69/53 24/68/53 23/67/53
f 42/50/54 41/49/54 72/63/54
f 42/50/55 8/52/55 100/91/55
f 88/81/56 98/23/56 43/30/56
f 43/92/57 68/8/57 4/93/57
f 95/94/58 2/95/58 44/96/58
f 1/57/59 44/97/59 2/55/59
f 45/88/60 101/29/60 11/89/60
f 45/25/61 11/24/61 36/26/61
f 46/19/62 87/81/62 85/20/62
f 8/52/63 7/98/63 46/99/63
f 47/75/64 7/98/64 73/76/64
f 77/80/65 87/81/65 86/23/65
f 3/3/66 21/100/66 48/1/66
f 2/95/67 95/94/67 21/101/67
f 17/42/68 49/41/68 16/35/68
f 16/102/69 76/103/69 50/104/69
f 52/37/70 50/36/70 15/39/70
f 76/103/69 15/105/69 50/104/69
f 16/35/68 51/44/68 17/42/68
f 75/43/71 17/42/71 51/44/71
f 15/39/70 14/38/70 52/37/70
f 52/37/71 75/43/71 51/44/71
f 53/19/72 80/20/72 88/81/72
f 79/11/73 53/106/73 4/93/73
f 41/49/74 54/64/74 72/63/74
f 41/69/75 23/67/75 54/68/75
f 43/30/76 71/21/76 55/107/76
f 55/107/77 69/18/77 53/19/77
f 26/70/78 56/72/78 27/71/78
f 32/70/79 57/72/79 33/71/79
f 26/70/80 58/72/80 25/71/80
f 29/70/81 59/72/81 30/71/81
f 29/70/82 60/72/82 28/71/82
f 32/70/83 61/72/83 31/71/83
f 18/108/84 62/45/84 34/109/84
f 47/15/85 105/110/85 104/13/85
f 63/53/86 81/17/86 93/14/86
f 63/53/87 62/111/87 19/112/87
f 22/61/88 3/113/88 64/114/88
f 95/59/89 22/61/89 64/114/89
f 65/84/90 5/115/90 89/82/90
f 36/26/91 5/24/91 65/25/91
f 66/46/92 62/45/92 18/108/92
f 66/69/93 18/68/93 23/67/93
f 47/30/94 93/107/94 67/21/94
f 78/79/95 67/116/95 70/78/95
f 4/93/96 68/8/96 79/11/96
f 38/87/97 101/29/97 45/88/97
f 69/18/98 55/107/98 13/117/98
f 12/79/99 69/78/99 71/116/99
f 67/116/100 10/118/100 70/78/100
f 93/107/101 46/19/101 70/18/101
f 71/21/102 13/117/102 55/107/102
f 71/116/103 69/78/103 13/118/103
f 42/50/104 72/63/104 73/76/104
f 34/73/105 73/76/105 72/63/105
f 8/52/106 42/50/106 73/76/106
f 7/98/107 8/52/107 73/76/107
f 74/5/108 3/113/108 22/61/108
f 21/58/109 3/113/109 74/5/109
f 75/43/71 52/37/71 14/38/71
f 76/40/110 75/43/110 14/38/110
f 76/103/69 16/102/69 49/119/69
f 75/43/111 76/40/111 49/41/111
f 77/80/112 9/120/112 40/121/112
f 77/80/113 86/23/113 78/22/113
f 78/79/114 109/77/114 9/122/114
f 9/120/115 77/80/115 78/22/115
f 79/11/116 68/8/116 38/87/116
f 38/87/117 99/86/117 79/11/117
f 84/80/118 80/20/118 35/121/118
f 80/20/119 69/18/119 108/123/119
f 81/17/120 63/53/120 19/112/120
f 100/91/121 8/52/121 106/51/121
f 91/27/122 5/115/122 82/28/122
f 82/25/123 5/24/123 36/26/123
f 12/79/124 83/122/124 108/77/124
f 84/80/125 98/23/125 88/81/125
f 84/80/126 35/121/126 83/120/126
f 83/120/127 12/22/127 84/80/127
f 77/80/128 40/121/128 85/20/128
f 85/20/129 109/123/129 70/18/129
f 67/21/130 86/23/130 47/30/130
f 87/81/131 47/30/131 86/23/131
f 47/124/132 87/125/132 7/126/132
f 7/126/133 87/125/133 46/16/133
f 43/9/134 4/127/134 88/128/134
f 4/127/135 53/10/135 88/128/135
f 5/115/136 91/27/136 89/82/136
f 6/31/137 55/33/137 96/85/137
f 95/59/138 64/114/138 90/129/138
f 90/129/139 64/114/139 3/113/139
f 91/27/140 68/8/140 92/7/140
f 89/82/141 91/27/141 6/31/141
f 43/32/142 6/31/142 92/7/142
f 6/31/143 91/27/143 92/7/143
f 67/21/144 93/107/144 10/117/144
f 70/18/145 10/117/145 93/107/145
f 34/109/146 94/130/146 18/108/146
f 94/69/147 23/67/147 18/68/147
f 90/129/148 48/131/148 95/59/148
f 95/94/149 48/132/149 21/101/149
f 96/85/150 89/82/150 6/31/150
f 96/85/151 39/133/151 89/134/151
f 97/34/152 39/133/152 96/85/152
f 99/86/153 107/12/153 79/11/153
f 84/80/154 12/22/154 98/23/154
f 71/21/155 98/23/155 12/22/155
f 39/83/156 99/86/156 37/90/156
f 99/86/157 39/83/157 97/34/157
f 19/47/158 24/66/158 100/48/158
f 100/91/159 81/17/159 19/112/159
f 38/87/160 68/8/160 101/29/160
f 91/27/161 101/29/161 68/8/161
f 95/59/162 1/54/162 102/135/162
f 74/5/163 102/135/163 1/54/163
f 95/59/164 102/135/164 103/62/164
f 74/5/165 103/62/165 102/135/165
f 63/53/166 104/13/166 62/111/166
f 62/111/167 104/13/167 34/109/167
f 34/73/168 105/74/168 73/76/168
f 104/13/169 105/110/169 34/109/169
f 46/16/170 81/17/170 106/51/170
f 100/91/171 106/51/171 81/17/171
f 53/10/172 107/12/172 97/34/172
f 99/86/173 97/34/173 107/12/173
f 80/20/174 108/123/174 35/121/174
f 108/77/175 83/122/175 35/136/175
f 85/20/176 40/121/176 109/123/176
f 109/77/177 40/136/177 9/122/177
