# Blender v2.75 (sub 0) OBJ File: 'Empty.blend'
# www.blender.org
mtllib ITAR_KDW_H.mtl
o ITAR_KDW_H
v 0.641055 -0.055916 0.284838
v -0.589251 -0.028354 -0.243729
v 0.367790 -0.087938 0.754380
v 0.304526 -0.026689 -0.219013
v -0.291066 0.053220 -0.050747
v -0.375753 -0.021478 0.222974
v -0.044405 0.001925 -0.148265
v 0.101852 -0.024694 -0.397613
v -0.641035 -0.047371 0.205778
v -0.384217 0.014529 -0.621925
v -0.065645 -0.005200 -0.586103
v -0.265236 0.054698 -0.437437
v 0.182728 -0.009917 -0.055592
v -0.280600 -0.015617 -0.731466
v -0.368065 -0.021401 -0.487328
v -0.387146 0.053266 -0.451954
v -0.254011 -0.020061 -0.473747
v -0.474200 -0.076983 -0.143129
v -0.386737 -0.012390 -0.088431
v -0.529014 -0.022629 -0.434424
v -0.563015 0.046188 -0.212649
v -0.474604 0.036495 -0.156966
v -0.259928 -0.077139 -0.487574
v -0.136206 0.060031 -0.633584
v -0.162156 0.010640 -0.733947
v -0.452877 -0.005566 -0.588423
v 0.629947 0.037611 0.322768
v -0.062404 0.081295 0.358954
v -0.146317 0.079304 -0.050564
v 0.026865 0.042293 -0.294223
v 0.122703 -0.040770 -0.427910
v -0.410731 -0.032242 -0.589200
v -0.270425 -0.057175 -0.754400
v -0.348564 -0.078181 -0.498129
v -0.238872 0.003262 -0.662153
v -0.295645 0.010435 -0.750100
v -0.112411 -0.045318 0.399320
v -0.013801 -0.004974 -0.233689
v 0.028661 -0.070382 -0.289487
v 0.388862 0.006729 0.717368
v -0.531383 0.020430 0.208210
v -0.186667 -0.014549 -0.720751
v -0.623179 -0.043264 -0.274881
v 0.082447 0.126180 0.266984
v 0.244447 0.031377 -0.108225
v 0.065987 0.048759 -0.362590
v -0.166946 -0.057016 -0.741878
v 0.249886 -0.061235 -0.108879
v -0.166904 -0.065944 -0.092871
v -0.329147 -0.004053 -0.025450
v -0.435217 -0.079237 0.226416
v 0.553687 0.019753 0.541316
v -0.276380 -0.085561 -0.545303
v -0.241438 -0.126160 -0.301268
v -0.015220 -0.025397 -0.489637
v -0.059273 0.059742 -0.151637
v -0.029998 0.002253 -0.094069
v -0.034827 -0.039619 -0.098190
v 0.554811 -0.073472 0.525763
v -0.262133 0.038227 -0.435216
v -0.170782 -0.008395 -0.505191
v -0.110238 -0.052856 -0.552577
v -0.392149 -0.046616 -0.531067
v -0.372952 -0.007283 -0.489076
v -0.164307 -0.048265 -0.545183
v -0.259707 -0.048137 0.021131
v -0.138926 -0.031396 -0.557228
v 0.075955 -0.076860 0.243647
v -0.306633 -0.086063 -0.587111
v -0.235207 -0.085224 -0.578606
v -0.265407 0.051552 0.015915
v -0.298166 -0.005211 0.038721
v -0.099034 -0.008947 0.388036
v -0.139888 -0.068788 -0.037112
vt 0.563791 -0.992624
vt 0.707305 -0.992624
vt 0.720952 -0.718365
vt 0.084651 -0.992626
vt 0.246323 -0.992591
vt 0.108440 -0.712242
vt 0.116739 -0.510401
vt 0.231049 -0.313010
vt 0.160150 -0.246828
vt 0.122399 -0.547155
vt 0.004918 -0.547040
vt 0.035822 -0.719864
vt 0.402544 -0.225272
vt 0.457339 -0.200479
vt 0.431474 -0.138745
vt 0.952857 -0.720881
vt 0.845083 -0.547089
vt 0.590584 -0.408476
vt 0.979512 -0.481540
vt 0.986559 -0.391282
vt 0.589946 -0.285894
vt 0.978639 -0.326557
vt 0.237228 -0.728939
vt 0.377448 -0.992562
vt 0.461096 -0.546939
vt 0.332257 -0.506909
vt 0.972239 -0.017557
vt 0.968182 -0.166417
vt 0.589691 -0.012775
vt 0.589323 -0.169309
vt 0.813745 -0.118804
vt 0.824518 -0.263277
vt 0.747151 -0.261488
vt 0.740231 -0.256481
vt 0.732789 -0.321288
vt 0.738586 -0.308001
vt 0.591205 -0.186039
vt 0.590308 -0.345746
vt 0.663645 -0.208935
vt 0.746537 -0.186085
vt 0.662072 -0.118342
vt 0.743900 -0.239593
vt 0.731878 -0.370844
vt 0.771068 -0.370362
vt 0.820441 -0.313461
vt 0.742575 -0.312512
vt 0.664064 -0.303063
vt 0.663059 -0.353771
vt 0.304751 -0.205314
vt 0.008054 -0.452698
vt 0.012683 -0.297960
vt 0.007770 -0.506365
vt 0.150150 -0.206572
vt 0.230820 -0.149376
vt 0.003945 -0.196351
vt 0.233101 -0.221717
vt 0.213747 -0.295406
vt 0.169475 -0.190698
vt 0.231544 -0.321719
vt 0.662169 -0.207338
vt 0.661619 -0.264821
vt 0.661619 -0.119095
vt 0.755315 -0.118817
vt 0.753678 -0.206967
vt 0.812920 -0.206904
vt 0.478450 -0.992596
vt 0.734107 -0.446346
vt 0.742364 -0.446329
vt 0.742309 -0.446337
vt 0.230963 -0.547336
vt 0.457252 -0.506493
vt 0.331296 -0.506553
vt 0.300410 -0.254068
vt 0.155315 -0.240678
vt 0.232708 -0.175282
vt 0.292574 -0.190836
vt 0.270404 -0.287414
vt 0.232496 -0.223973
vt 0.754355 -0.119089
vt 0.813689 -0.207101
vt 0.773185 -0.321163
vt 0.749447 -0.210792
vt 0.660948 -0.206955
vt 0.899303 -0.992625
vt 0.457549 -0.447032
vt 0.463113 -0.052108
vt 0.463055 -0.003704
vt 0.123015 -0.506934
vt 0.231257 -0.041624
vt 0.278393 -0.089629
vt 0.005021 -0.992622
vt 0.723716 -0.446342
vt 0.232823 -0.286417
vt 0.202767 -0.188851
vt 0.201847 -0.188422
vt 0.750128 -0.119384
vt 0.232762 -0.175014
vt 0.304537 -0.236310
vt 0.260669 -0.189115
vt 0.309766 -0.199616
vt 0.383975 -0.162878
vt 0.940454 -0.128305
vt 0.813591 -0.119022
vt 0.590372 -0.476758
vt 0.202869 -0.189287
vt 0.616117 -0.547451
vt 0.007642 -0.002109
vt 0.007517 -0.050508
vt 0.023996 -0.138573
vt 0.742534 -0.446350
vt 0.068718 -0.232123
vt 0.150161 -0.206570
vt 0.231715 -0.230666
vt 0.305609 -0.235400
vt 0.181300 -0.089353
vt 0.446506 -0.307256
vt 0.457560 -0.200973
vt 0.231070 -0.546623
vt 0.461003 -0.546843
vt 0.456942 -0.507241
vt 0.730786 -0.507816
vt 0.616123 -0.547449
vt 0.149899 -0.234327
vt 0.087477 -0.168348
vt 0.230722 -0.206286
vt 0.149108 -0.192542
vt 0.085169 -0.160146
vt 0.304731 -0.205399
vt 0.987342 -0.507385
vt 0.731297 -0.507577
vt 0.987066 -0.546962
vt 0.729421 -0.548154
vt 0.939779 -0.210299
vt 0.971369 -0.211726
vt 0.972050 -0.129070
vt 0.005017 -0.721165
vt 0.730655 -0.507944
vn 0.041200 -0.997500 -0.057900
vn 0.060400 0.989700 0.129800
vn -0.352800 0.933600 -0.063000
vn -0.708800 0.573900 0.410200
vn 0.204700 -0.976300 -0.069800
vn -0.120900 -0.991200 0.054500
vn 0.611400 -0.790100 -0.044600
vn 0.419700 0.901600 0.104900
vn 0.185000 0.910400 -0.370100
vn -0.046500 0.998000 -0.042400
vn 0.234400 -0.942200 -0.239400
vn -0.469400 -0.729300 0.497700
vn -0.147000 -0.987400 -0.058700
vn -0.525400 0.850500 -0.024500
vn -0.465500 -0.849700 -0.247500
vn 0.009800 0.993900 -0.109900
vn 0.178200 -0.960700 -0.212900
vn 0.288400 0.903500 -0.317100
vn -0.001800 -0.964600 0.263800
vn -0.015700 0.994100 0.107000
vn 0.003800 0.991600 -0.129400
vn 0.219600 -0.964700 0.145300
vn 0.830700 0.397100 -0.390200
vn -0.721200 -0.438400 0.536400
vn -0.540500 0.300500 -0.785900
vn 0.385700 -0.355600 0.851400
vn -0.565600 -0.779100 0.270200
vn 0.230400 -0.945700 -0.229100
vn -0.499700 0.252900 0.828400
vn -0.616700 0.622700 0.481500
vn -0.222000 -0.941700 -0.252800
vn 0.062500 0.987000 -0.147900
vn -0.522600 0.695000 -0.493800
vn -0.472000 0.880900 -0.034600
vn -0.538600 -0.155700 0.828100
vn 0.490000 -0.277800 -0.826300
vn 0.419600 -0.254600 0.871300
vn -0.702700 -0.286000 0.651500
vn 0.084600 0.996100 0.026600
vn 0.751200 0.494200 -0.437500
vn 0.261500 -0.963500 -0.057200
vn -0.401600 0.863500 -0.305100
vn -0.368600 0.905000 -0.212600
vn 0.479800 0.378100 -0.791700
vn 0.941600 -0.044300 0.333800
vn -0.206800 0.977700 0.037600
vn -0.783300 0.454600 0.424100
vn 0.394400 0.824500 -0.405800
vn 0.916900 0.253800 0.308000
vn 0.855900 0.125800 0.501700
vn 0.329400 0.883400 -0.333500
vn 0.826100 0.009800 0.563400
vn 0.847400 0.174700 0.501400
vn 0.896200 -0.428900 0.113200
vn 0.733200 0.058400 0.677500
vn -0.689800 -0.213300 -0.691900
vn 0.837600 0.004700 -0.546300
vn -0.741300 -0.362100 0.565200
vn 0.301600 -0.803700 0.513000
vn -0.386900 0.863100 -0.324700
vn 0.119300 0.107300 -0.987100
vn -0.012300 0.995900 0.089200
vn -0.124800 -0.990900 0.049800
vn -0.510900 0.444500 0.735800
vn 0.850700 -0.063700 0.521700
vn -0.328900 0.838700 0.434000
vn 0.896600 0.330800 0.294500
vn 0.189000 -0.959300 0.209600
vn -0.519500 0.409000 0.750200
vn 0.729900 -0.103900 0.675600
vn 0.258300 0.965900 0.019100
vn -0.083900 0.100100 0.991400
vn -0.022300 0.995100 0.095900
vn -0.020300 -0.961500 0.274100
vn -0.666800 -0.037800 0.744300
vn -0.653800 -0.083400 0.752000
vn -0.027800 0.914900 0.402700
vn -0.266500 0.962500 0.049900
vn 0.888500 0.049000 0.456200
vn -0.295500 0.888600 0.350700
vn 0.852500 0.182700 0.489700
vn 0.146500 0.712300 -0.686400
vn 0.021600 -0.986000 -0.165600
vn 0.119300 0.107300 -0.987000
vn -0.311900 -0.849700 0.425100
vn 0.636100 0.031900 0.770900
vn 0.578800 -0.564500 0.588500
vn 0.045700 -0.991400 -0.122800
vn -0.688100 0.449300 0.569700
vn -0.066300 -0.809500 0.583400
vn -0.061100 0.122000 0.990600
vn 0.657900 -0.694700 -0.290700
vn 0.944500 -0.020800 0.327900
vn 0.145300 0.980700 0.130800
vn -0.272600 -0.950300 -0.150200
vn 0.041200 0.719700 -0.693000
vn -0.011600 -0.959500 0.281400
vn -0.212800 -0.977000 -0.009400
vn 0.076100 -0.914300 -0.397700
vn 0.108000 0.994100 0.006200
vn -0.167400 0.931000 -0.324300
vn 0.605400 0.695600 0.386800
vn 0.493400 0.028700 -0.869400
vn 0.940800 0.227300 -0.251500
vn 0.123800 -0.751900 -0.647500
vn 0.963000 -0.085900 -0.255500
vn 0.769300 0.076700 0.634200
vn 0.029900 -0.998800 -0.038700
vn 0.257200 0.670600 -0.695800
vn -0.151400 0.978400 -0.140800
vn -0.196200 0.678400 -0.708100
vn 0.270500 0.925900 -0.263800
vn 0.598100 0.004100 0.801400
vn 0.652300 -0.736500 -0.179200
vn -0.329000 -0.938000 -0.109000
vn 0.127000 0.651000 -0.748400
vn -0.279700 0.761200 -0.585100
vn -0.066400 0.993800 0.089300
vn 0.309600 -0.929800 -0.199000
vn -0.219600 0.662300 -0.716300
vn -0.422300 -0.882800 -0.205900
vn -0.662400 -0.701400 0.263200
vn -0.458500 0.418300 -0.784100
vn -0.269100 0.946900 0.176100
vn -0.134000 -0.988200 0.074600
vn 0.175100 -0.971000 -0.162500
vn -0.475900 -0.867000 -0.147500
vn 0.001100 -0.996100 0.088800
vn 0.030400 -0.987000 -0.157800
vn -0.764900 0.565400 0.308600
vn -0.176700 0.979900 0.092500
vn -0.646400 -0.701800 0.299400
vn -0.701500 0.620900 0.349900
vn -0.514800 0.421000 0.746800
vn -0.783200 0.428000 0.451000
vn 0.188100 -0.972000 -0.140700
vn -0.157500 -0.987200 0.026000
usemtl HUM_KDWS_ARMOR_V0
s off
f 1/1/1 59/2/1 68/3/1
f 40/4/2 52/5/2 28/6/2
f 5/7/3 60/8/3 64/9/3
f 71/10/4 72/11/4 73/12/4
f 54/13/5 31/14/5 39/15/5
f 68/3/6 37/16/6 66/17/6
f 6/18/7 18/19/7 19/20/7
f 41/21/8 19/20/8 22/22/8
f 44/23/9 27/24/9 57/25/9
f 5/7/10 56/26/10 60/8/10
f 39/27/11 8/28/11 48/29/11
f 38/20/12 39/19/12 13/18/12
f 2/28/13 51/29/13 9/30/13
f 2/28/14 9/30/14 41/21/14
f 33/31/15 69/32/15 26/33/15
f 32/34/16 15/35/16 67/36/16
f 4/37/17 48/29/17 8/28/17
f 45/38/18 4/30/18 8/28/18
f 10/39/19 14/40/19 35/41/19
f 32/34/20 67/36/20 42/42/20
f 15/35/21 17/43/21 67/36/21
f 23/44/22 70/45/22 62/46/22
f 16/47/23 15/35/23 32/34/23
f 15/35/24 16/47/24 26/33/24
f 12/48/25 67/36/25 17/43/25
f 17/43/26 62/46/26 12/48/26
f 6/29/27 2/28/27 18/27/27
f 55/15/28 54/49/28 65/13/28
f 19/50/29 5/7/29 21/51/29
f 19/50/30 50/52/30 5/7/30
f 20/53/31 54/54/31 43/55/31
f 21/51/32 5/7/32 64/9/32
f 43/55/33 21/51/33 64/9/33
f 41/21/34 22/22/34 2/28/34
f 2/56/35 22/57/35 21/58/35
f 22/57/36 19/59/36 21/58/36
f 62/46/37 17/43/37 23/44/37
f 24/60/38 42/42/38 11/61/38
f 10/39/39 35/62/39 36/63/39
f 11/61/40 25/64/40 24/60/40
f 47/65/41 62/46/41 70/45/41
f 26/33/42 10/39/42 36/63/42
f 16/47/43 10/39/43 26/33/43
f 57/25/44 27/24/44 1/66/44
f 52/67/45 59/68/45 1/69/45
f 28/6/46 29/70/46 71/10/46
f 28/6/47 71/10/47 73/12/47
f 57/25/48 29/70/48 44/23/48
f 7/71/49 38/72/49 56/72/49
f 56/72/50 30/72/50 46/73/50
f 8/28/51 30/22/51 45/38/51
f 39/74/52 31/75/52 8/54/52
f 46/76/53 30/77/53 8/78/53
f 32/34/54 10/39/54 16/47/54
f 10/39/55 32/34/55 14/40/55
f 26/33/56 36/79/56 33/31/56
f 11/61/57 47/80/57 25/64/57
f 15/35/58 26/33/58 34/81/58
f 42/82/59 24/83/59 35/41/59
f 35/62/60 24/83/60 25/64/60
f 36/79/61 25/64/61 47/65/61
f 25/64/62 36/63/62 35/62/62
f 68/3/63 3/84/63 37/16/63
f 28/6/64 73/12/64 40/4/64
f 38/85/65 30/72/65 56/72/65
f 30/22/66 38/20/66 45/38/66
f 38/86/67 7/87/67 39/88/67
f 39/15/68 49/89/68 54/90/68
f 3/91/69 40/4/69 73/12/69
f 40/92/70 59/68/70 52/67/70
f 19/20/71 41/21/71 6/18/71
f 51/93/72 41/94/72 9/95/72
f 14/40/73 32/34/73 42/42/73
f 42/82/74 35/41/74 14/96/74
f 43/97/75 18/98/75 2/56/75
f 21/58/76 43/97/76 2/56/76
f 28/6/77 52/5/77 44/23/77
f 28/6/78 44/23/78 29/70/78
f 4/95/79 45/99/79 48/93/79
f 13/18/80 45/38/80 38/20/80
f 31/75/81 46/76/81 8/78/81
f 61/100/82 55/101/82 65/73/82
f 69/102/83 33/103/83 47/65/83
f 47/65/84 33/103/84 36/79/84
f 48/104/85 13/18/85 39/19/85
f 45/99/86 13/105/86 48/93/86
f 7/87/87 49/89/87 39/15/87
f 1/1/88 68/3/88 58/106/88
f 50/107/89 19/108/89 18/109/89
f 49/89/90 50/107/90 18/109/90
f 51/93/91 6/105/91 41/94/91
f 2/19/92 6/18/92 51/104/92
f 52/67/93 1/69/93 27/110/93
f 52/5/94 27/24/94 44/23/94
f 20/111/95 63/112/95 54/55/95
f 60/113/96 63/49/96 64/114/96
f 18/109/97 54/115/97 49/116/97
f 43/55/98 54/115/98 18/109/98
f 31/54/99 54/49/99 55/15/99
f 31/117/100 55/101/100 61/73/100
f 29/118/101 56/72/101 5/10/101
f 56/72/102 29/118/102 57/119/102
f 1/1/103 58/106/103 57/25/103
f 57/119/104 7/120/104 56/72/104
f 49/121/105 7/120/105 58/122/105
f 57/119/106 58/122/106 7/120/106
f 40/92/107 3/68/107 59/68/107
f 59/2/108 3/84/108 68/3/108
f 46/116/109 31/117/109 61/73/109
f 61/73/110 56/26/110 46/116/110
f 60/113/111 61/123/111 65/53/111
f 56/26/112 61/73/112 60/8/112
f 11/61/113 12/48/113 62/46/113
f 62/46/114 47/80/114 11/61/114
f 54/124/115 63/112/115 53/125/115
f 63/112/116 60/113/116 53/125/116
f 63/126/117 20/127/117 64/9/117
f 20/127/118 43/55/118 64/9/118
f 53/13/119 65/54/119 54/49/119
f 65/128/120 53/125/120 60/113/120
f 66/17/121 50/129/121 49/130/121
f 66/17/122 37/16/122 72/131/122
f 67/36/123 12/48/123 11/61/123
f 42/42/124 67/36/124 11/61/124
f 66/17/125 74/132/125 68/3/125
f 58/106/126 68/3/126 74/132/126
f 34/81/127 26/33/127 69/32/127
f 70/133/128 23/134/128 34/135/128
f 34/135/128 69/102/128 70/133/128
f 47/65/129 70/133/129 69/102/129
f 72/11/130 71/10/130 5/88/130
f 29/72/131 5/7/131 71/10/131
f 50/129/132 66/17/132 72/131/132
f 5/7/133 50/52/133 72/11/133
f 3/91/134 73/12/134 37/136/134
f 37/136/135 73/12/135 72/11/135
f 49/137/136 58/106/136 74/132/136
f 49/130/137 74/132/137 66/17/137
