# Blender v2.75 (sub 0) OBJ File: 'Empty.blend'
# www.blender.org
mtllib ITAR_BDT_M.mtl
o ITAR_BDT_M
v 0.030067 -0.099403 -0.418661
v 0.285580 -0.324733 0.041404
v -0.419782 -0.310687 -0.205551
v -0.432003 -0.277812 0.349766
v -0.046383 -0.208533 0.264213
v -0.249113 -0.102627 0.048232
v 0.239105 -0.171221 -0.175302
v 0.072405 0.282415 -0.253987
v 0.279650 0.049310 -0.256539
v 0.356369 -0.148715 -0.173113
v 0.329303 0.219697 -0.061707
v 0.345182 -0.331470 -0.014299
v 0.340940 -0.286327 -0.349464
v 0.072797 0.269035 -0.034916
v -0.234816 -0.312834 0.429914
v 0.291107 -0.323545 -0.013735
v 0.239264 -0.306880 -0.331210
v 0.133273 0.261963 -0.175982
v 0.309565 0.310875 -0.175358
v 0.040544 -0.293252 -0.454880
v -0.174746 -0.342168 0.290733
v -0.388411 -0.115253 -0.191999
v -0.341639 -0.183555 -0.119563
v -0.277746 -0.156240 -0.080065
v 0.066907 -0.251006 0.104558
v -0.047010 -0.275626 0.248553
v -0.300046 -0.137687 0.021057
v 0.212168 0.291851 -0.074066
v 0.177285 0.342188 -0.082375
v 0.235765 0.245134 -0.125966
v 0.177182 -0.319718 -0.037686
v 0.121138 0.198437 -0.161912
v 0.022344 0.183000 -0.162392
v -0.162753 -0.195960 0.170253
v -0.316225 -0.280396 0.204341
v -0.192638 -0.165769 0.182187
v 0.225841 -0.149919 -0.044475
v 0.170456 0.113032 -0.062952
v 0.148859 0.098945 -0.243967
v -0.317546 -0.163976 -0.108800
v 0.425858 -0.331277 -0.066747
v 0.136736 0.323453 0.039885
v 0.294425 0.301444 0.007455
v 0.050667 -0.229827 0.098591
v -0.330459 -0.127105 0.215140
v -0.422434 -0.198030 0.310939
v -0.349280 -0.195808 0.398721
v 0.296940 -0.219899 -0.249474
v 0.025669 0.221756 -0.040472
v 0.402027 -0.186117 -0.252998
v 0.294467 -0.187231 -0.247153
v 0.190440 -0.232990 -0.244723
v 0.136337 0.268429 0.043746
v 0.038176 -0.212146 0.097546
v 0.230799 -0.202937 -0.331651
v -0.355079 -0.221286 0.158137
v -0.097269 -0.173090 0.304795
v 0.258919 0.274526 -0.177518
v 0.317790 0.177640 -0.263830
v -0.398965 -0.296497 0.418521
v 0.042483 0.243650 -0.257492
v 0.145116 0.299995 -0.178795
v 0.296625 -0.311763 -0.306086
v 0.237735 0.082678 -0.098980
v 0.184507 -0.314804 -0.279990
v -0.391069 -0.312944 0.313016
v -0.167624 -0.239676 0.397299
v -0.257194 -0.278083 0.454860
v 0.398437 -0.311601 -0.307170
v 0.285092 -0.325477 -0.288866
v 0.256330 0.269670 0.004502
v 0.296607 0.209723 -0.062112
v -0.319021 -0.324222 0.437907
v -0.161118 -0.158257 0.182366
v -0.221991 -0.302325 -0.368361
v 0.346353 -0.259376 -0.023790
v 0.314661 -0.330603 -0.031157
v 0.207264 0.068027 -0.096951
v 0.186211 -0.243404 -0.109204
v 0.371229 0.178320 -0.220630
v 0.091368 0.299346 -0.151432
v 0.262629 -0.320102 0.005991
v 0.263871 -0.271390 -0.014021
v 0.415240 -0.235594 -0.123875
v 0.303188 -0.235667 -0.121165
v 0.359823 -0.186687 -0.159634
v -0.135405 -0.063229 -0.359289
v -0.150606 -0.179353 0.356002
v 0.240173 -0.197162 -0.156710
v 0.198566 0.136088 -0.248769
v 0.234496 0.151113 -0.198581
v 0.285405 0.052640 -0.193724
v 0.352945 -0.173301 -0.334430
v 0.128373 0.241762 -0.073534
v -0.415296 -0.253444 0.269794
v -0.250814 -0.164955 0.296911
v -0.394812 -0.261949 0.426558
v 0.225536 0.043516 -0.296384
v 0.182806 0.016978 -0.249372
v -0.150135 -0.302158 0.375349
v 0.297335 -0.261353 -0.117673
v 0.005094 -0.158280 0.075089
v -0.044294 -0.102220 -0.378384
v 0.148059 0.088100 -0.187824
v 0.322983 0.308114 -0.119861
v 0.210362 0.141734 -0.067600
v 0.272349 0.148491 -0.221688
v 0.270285 0.147267 -0.158425
v -0.302437 -0.111997 -0.238566
v -0.226028 -0.066662 -0.310204
v -0.298296 -0.324615 0.393514
v -0.425152 -0.241268 0.363488
v -0.357518 -0.152500 0.221080
v -0.294599 -0.117283 0.147685
v 0.369641 0.178810 -0.159028
v -0.361225 -0.320551 0.366162
v -0.228023 -0.308695 0.375022
v -0.162261 -0.306733 0.331057
v -0.365314 -0.304365 0.262138
v 0.187773 0.019690 -0.188390
v -0.321820 -0.277465 0.450422
v 0.164670 -0.323368 -0.097521
v 0.432023 -0.329768 -0.127937
v -0.183184 -0.144966 0.226403
v -0.351219 -0.181843 0.290671
v -0.238893 -0.225188 0.397193
vt 0.427366 -0.386628
vt 0.241301 -0.566537
vt 0.431650 -0.569537
vt 0.238777 -0.997826
vt 0.209970 -0.721065
vt 0.135117 -0.721721
vt 0.345157 -0.155597
vt 0.245075 -0.193647
vt 0.290120 -0.230559
vt 0.106601 -0.075666
vt 0.184936 -0.101422
vt 0.173414 -0.179282
vt 0.620428 -0.471938
vt 0.669078 -0.405482
vt 0.624526 -0.764639
vt 0.752094 -0.768829
vt 0.701709 -0.405316
vt 0.750262 -0.466069
vt 0.834995 -0.478544
vt 0.811743 -0.753143
vt 0.881493 -0.767027
vt 0.783258 -0.473396
vt 0.503127 -0.775597
vt 0.620312 -0.842126
vt 0.754243 -0.818677
vt 0.502533 -0.993836
vt 0.913934 -0.993718
vt 0.755385 -0.966733
vt 0.147704 -0.080418
vt 0.033113 -0.080661
vt 0.091199 -0.233348
vt 0.621737 -0.355667
vt 0.621313 -0.223516
vt 0.662922 -0.337974
vt 0.139597 -0.298330
vt 0.105780 -0.316744
vt 0.346282 -0.283568
vt 0.405263 -0.231080
vt 0.620414 -0.920019
vt 0.837768 -0.357327
vt 0.806139 -0.218926
vt 0.785816 -0.356292
vt 0.747904 -0.355906
vt 0.697852 -0.218031
vt 0.705451 -0.337745
vt 0.806905 -0.469082
vt 0.431757 -0.726834
vt 0.482511 -0.931420
vt 0.482436 -0.662162
vt 0.379694 -0.663885
vt 0.068793 -0.396290
vt 0.436362 -0.998408
vt 0.112475 -0.948962
vt 0.108528 -0.671184
vt 0.002307 -0.671184
vt 0.447826 -0.051091
vt 0.186003 -0.051318
vt 0.169638 -0.027389
vt 0.347565 -0.089300
vt 0.462961 -0.088860
vt 0.448837 -0.104569
vt 0.196146 -0.085714
vt 0.202175 -0.175047
vt 0.448312 -0.001273
vt 0.250746 -0.275198
vt 0.222991 -0.178501
vt 0.236874 -0.089794
vt 0.348427 -0.071546
vt 0.658826 -0.218811
vt 0.622890 -0.218992
vt 0.747895 -0.219050
vt 0.624455 -0.764421
vt 0.932070 -0.835990
vt 0.935139 -0.977680
vt 0.997140 -0.790928
vt 0.870521 -0.918641
vt 0.717104 -0.887811
vt 0.804562 -0.223350
vt 0.249690 -0.112067
vt 0.047207 -0.247986
vt 0.006476 -0.172559
vt 0.028665 -0.172001
vt 0.038146 -0.179282
vt 0.028476 -0.086420
vt 0.006254 -0.948962
vt 0.913564 -0.219312
vt 0.615143 -0.004419
vt 0.494840 -0.224340
vt 0.910430 0.000204
vt 0.379769 -0.933144
vt 0.694697 -0.223350
vt 0.657249 -0.223057
vt 0.746318 -0.223662
vt 0.152739 -0.002651
vt 0.748524 -0.354533
vt 0.234827 -0.089138
vt 0.248593 -0.111591
vt 0.347331 -0.070084
vt 0.238311 -0.085372
vt 0.245110 -0.105918
vt 0.258634 -0.282288
vt 0.396886 -0.323318
vt 0.346282 -0.344194
vt 0.295678 -0.323557
vt 0.693451 -0.720508
vt 0.751986 -0.768792
vt 0.541498 -0.876811
vt 0.026803 -0.083690
vt 0.004289 -0.083917
vt 0.462837 -0.090545
vt 0.449055 -0.103878
vt 0.471786 -0.179878
vt 0.347331 -0.089864
vt 0.849661 -0.218926
vt 0.878764 -0.356477
vt 0.877447 -0.466677
vt 0.837781 -0.357045
vt 0.785830 -0.355995
vt 0.346282 -0.355595
vt 0.291124 -0.334522
vt 0.031734 -0.270367
vt 0.848084 -0.223349
vt 0.995521 -0.978237
vt 0.502717 -0.878897
vt 0.105793 -0.350765
vt 0.063035 -0.329691
vt 0.447490 -0.194478
vt 0.433930 -0.281954
vt 0.401440 -0.333691
vt 0.963284 -0.994971
vt 0.441819 -0.275198
vt 0.065868 -0.566248
vt 0.059513 -0.722345
vt 0.913643 -0.906306
vt 0.892483 -0.773632
vt 0.982452 -0.781231
vt 0.777762 -0.773602
vt 0.879492 -0.224551
vt 0.693576 -0.767373
vt 0.693489 -0.720845
vt 0.364318 -0.727917
vt 0.290819 -0.724654
vt 0.437278 -0.154149
vt 0.253652 -0.159657
vt 0.881070 -0.219400
vt 0.071963 -0.298330
vt 0.179852 -0.270367
vt 0.058271 -0.997719
vt 0.489729 -0.003940
vt 0.148551 -0.328860
vt 0.164353 -0.247986
vt 0.936844 -0.790391
vn 0.011700 -0.997500 -0.069100
vn -0.216400 0.912600 0.346800
vn -0.176200 0.901200 0.395900
vn -0.180500 -0.810300 -0.557600
vn 0.884400 -0.057300 0.463200
vn -0.968600 -0.063800 0.240200
vn -0.829800 -0.012300 -0.557900
vn 0.858600 0.116900 -0.499100
vn 0.995200 0.013300 -0.096700
vn -0.996200 -0.062500 0.061100
vn -0.942200 -0.255500 -0.216600
vn 0.735700 0.652400 0.182300
vn 0.131100 -0.891300 -0.434000
vn 0.231800 0.845800 0.480500
vn 0.994500 -0.098900 -0.034100
vn -0.996300 0.082900 -0.024700
vn 0.782000 0.033900 -0.622400
vn -0.901700 -0.035600 -0.430900
vn 0.018700 0.033400 -0.999300
vn 0.155100 0.984100 0.086300
vn 0.920800 -0.018600 0.389500
vn -0.702700 0.072000 -0.707900
vn -0.314000 0.157900 -0.936200
vn 0.892400 0.129000 -0.432400
vn 0.004900 -0.998100 -0.060700
vn 0.027300 0.992400 0.119700
vn -0.874900 0.107700 0.472300
vn -0.722900 0.153900 -0.673600
vn 0.116000 0.907000 -0.404900
vn -0.116000 -0.907000 0.404900
vn 0.630100 0.170900 -0.757500
vn 0.782200 -0.148500 0.605100
vn 0.848500 -0.127800 0.513600
vn -0.848500 0.127800 -0.513600
vn -0.527500 0.843700 -0.099700
vn 0.527500 -0.843700 0.099700
vn -0.870200 0.315400 -0.378500
vn 0.852600 0.125900 -0.507100
vn 0.080600 -0.973100 0.215800
vn -0.052900 0.921200 -0.385500
vn -0.765400 -0.455400 0.454700
vn -0.507400 0.847100 -0.158200
vn 0.112100 -0.979600 0.166600
vn -0.920500 -0.161000 0.356000
vn 0.027700 -0.998700 -0.043900
vn -0.288500 0.829000 0.479100
vn -0.017200 -0.105600 -0.994300
vn -0.758900 0.076300 -0.646700
vn -0.135000 0.848100 0.512300
vn -0.146100 0.943900 -0.296100
vn 0.617100 -0.350300 -0.704600
vn -0.363300 -0.710200 -0.603100
vn 0.294900 -0.766400 -0.570700
vn 0.490800 -0.869400 0.056300
vn -0.876500 0.184600 0.444500
vn 0.394600 0.510200 0.764200
vn 0.887600 0.080500 -0.453500
vn -0.554400 -0.791500 0.257400
vn 0.686700 0.669300 0.283600
vn -0.679100 -0.545200 -0.491500
vn -0.545500 -0.794300 0.267400
vn -0.607500 0.790500 -0.078200
vn 0.607500 -0.790500 0.078200
vn -0.065800 -0.993900 -0.088400
vn 0.399500 0.791200 0.463000
vn 0.278300 0.931300 0.235000
vn -0.747400 -0.573300 -0.335700
vn 0.156500 -0.275800 0.948400
vn 0.950300 0.215600 0.224500
vn 0.575400 0.598300 0.557500
vn -0.575400 -0.598300 -0.557500
vn 0.226500 0.943300 0.242600
vn -0.834000 0.453300 -0.314600
vn -0.840600 0.248900 -0.481100
vn -0.177600 0.483100 0.857400
vn -0.604100 0.624300 0.495300
vn -0.172300 0.976500 0.129300
vn 0.655800 0.720700 0.224700
vn 0.704200 -0.200900 0.681000
vn 0.065800 -0.180900 0.981300
vn -0.555400 0.618900 -0.555400
vn 0.544400 0.800400 0.251000
vn 0.843700 -0.097700 0.527900
vn -0.636600 -0.323000 0.700300
vn -0.435900 0.810800 0.390600
vn -0.629700 0.775800 0.040000
vn -0.620300 -0.317500 0.717300
vn 0.309600 0.064300 0.948700
vn -0.837500 -0.032200 -0.545500
vn 0.749000 0.550900 0.368100
vn -0.749000 -0.550900 -0.368100
vn 0.785300 0.137100 -0.603700
vn -0.912000 0.216400 -0.348600
vn -0.627100 0.751100 0.206300
vn -0.383600 -0.711900 -0.588200
vn 0.670400 0.125200 0.731300
vn 0.320300 0.939300 -0.123000
vn 0.082400 -0.881200 -0.465400
vn -0.997400 -0.063200 -0.033800
vn 0.612400 0.214400 -0.760900
vn -0.330600 0.507800 -0.795500
vn -0.900700 0.005800 0.434400
vn -0.650200 -0.561200 -0.512200
vn 0.076900 0.030800 -0.996600
vn -0.603500 0.403700 0.687600
vn -0.005000 -0.072200 -0.997400
vn -0.796400 0.287400 0.532200
vn -0.825100 0.229900 -0.516100
vn 0.000900 -0.997700 -0.068400
vn 0.197700 -0.281200 0.939100
vn 0.134200 -0.026200 0.990600
vn -0.677500 -0.058300 -0.733300
vn -0.104700 -0.994500 0.009300
vn -0.519800 -0.854100 0.017700
vn -0.188500 -0.936900 0.294500
vn 0.793100 0.008000 0.609000
vn 0.193700 0.691600 0.695800
vn 0.573500 -0.123900 0.809800
vn -0.349700 -0.261700 0.899600
vn -0.004100 -0.860800 -0.508900
vn 0.854200 0.185300 -0.485700
vn 0.689200 0.053100 -0.722600
vn -0.125800 -0.951200 -0.281600
vn 0.400000 -0.547800 0.734800
vn -0.662900 -0.709900 0.238000
vn 0.171100 -0.592800 0.787000
vn 0.074700 -0.283600 0.956000
vn 0.149500 -0.511300 0.846300
vn 0.276200 -0.960800 0.023600
vn 0.627600 0.213300 -0.748700
vn 0.483400 0.862900 -0.147500
vn -0.007100 -0.998200 -0.059800
vn -0.631800 0.154100 -0.759700
vn 0.542100 0.101000 0.834200
vn -0.833000 0.324300 0.448200
vn -0.014200 -0.999600 -0.025800
vn -0.477200 0.122300 0.870200
vn 0.265700 -0.433300 0.861200
vn -0.642400 -0.721200 0.259200
vn -0.508700 0.620000 0.597300
vn -0.964700 0.246200 -0.093300
vn 0.545400 0.486800 -0.682300
vn 0.927100 0.250000 0.279300
vn 0.659200 0.712700 -0.239600
vn -0.929000 -0.297000 0.220800
vn -0.059500 -0.994400 0.087700
vn 0.629600 0.727100 0.273700
vn -0.424500 0.353300 0.833600
vn 0.567400 0.300500 0.766700
vn 0.696100 0.423400 0.579800
vn 0.970000 0.179900 -0.163500
vn -0.997700 -0.042300 0.052800
vn -0.468800 0.813100 0.345000
vn -0.794000 0.137900 0.592100
vn 0.887600 0.223600 0.402600
vn 0.404600 0.911900 0.068700
vn -0.164300 0.096800 -0.981600
vn 0.641600 0.301800 0.705200
vn 0.086600 0.933600 0.347800
vn 0.836700 0.341400 0.428300
vn -0.883100 0.248700 0.397800
vn 0.618500 0.512000 -0.596100
vn 0.579200 0.127600 -0.805100
vn 0.846300 0.451500 0.282700
vn 0.568000 0.582800 -0.581100
vn 0.993700 0.061300 -0.094300
vn 0.885500 0.452600 -0.105100
vn -0.736700 0.165500 -0.655600
vn 0.603900 0.041700 -0.796000
vn -0.065000 -0.978400 -0.196000
vn -0.507100 0.849900 0.143300
vn -0.979900 0.021000 -0.198300
vn -0.767400 -0.550800 -0.328200
vn -0.014500 0.965500 0.259800
vn -0.343300 0.594600 0.727100
vn -0.291300 -0.183400 0.938900
vn -0.900200 0.006900 0.435300
vn 0.474800 0.508000 -0.718700
vn -0.344400 0.348100 -0.871900
vn -0.655100 -0.223700 -0.721700
vn -0.786900 -0.460200 0.411000
vn 0.161300 -0.985200 0.057600
vn 0.547600 -0.225700 0.805700
vn 0.840800 0.440800 0.314200
vn 0.990800 -0.133900 -0.020700
vn -0.454400 0.362800 -0.813600
vn -0.615100 -0.772500 -0.158000
vn -0.922500 -0.376400 -0.085800
vn 0.226200 0.974100 -0.006200
vn 0.865100 0.465900 -0.186000
vn 0.332100 -0.317900 0.888000
vn 0.925300 0.325900 0.193800
vn -0.724100 0.158100 -0.671400
vn -0.919600 0.039000 -0.390800
vn -0.760700 -0.429700 0.486500
vn -0.946200 -0.321400 -0.037100
vn -0.472200 0.203600 -0.857600
vn 0.067200 0.979000 0.192500
vn -0.296600 -0.946100 -0.130100
vn 0.128300 -0.990000 -0.058800
vn -0.984800 0.155700 0.077100
vn -0.604100 0.630400 0.487500
vn -0.414800 0.601700 0.682600
vn -0.780900 0.406400 -0.474400
vn 0.103200 0.975000 0.196800
vn -0.689800 0.672200 -0.268800
vn 0.996300 0.082000 0.025000
vn 0.942500 0.333500 0.021600
vn 0.285700 -0.913000 -0.291100
vn -0.539000 -0.821700 0.185100
vn 0.078800 -0.883700 -0.461400
vn 0.250500 -0.960000 0.125400
vn -0.333900 -0.776700 -0.534000
vn -0.022300 -0.996700 -0.077900
vn 0.508300 -0.853700 0.113400
vn -0.672800 -0.594200 -0.440800
vn -0.996200 -0.028900 0.082400
vn -0.860800 -0.500500 0.092400
vn -0.053500 0.521300 0.851700
vn -0.068600 -0.261800 0.962700
vn -0.942900 0.280300 0.180100
vn -0.039800 -0.996800 0.069100
vn 0.980000 0.170200 0.102900
vn -0.014600 -0.999600 -0.026100
vn 0.107000 0.967300 0.229800
vn 0.380800 0.920600 -0.087100
vn -0.095600 0.914100 0.394100
vn -0.184700 0.974300 0.129200
vn 0.142600 0.706500 0.693300
vn 0.172700 0.853300 0.492000
usemtl HUM_ORGL_ARMOR_V0
s off
f 2/1/1 75/2/1 20/3/1
f 102/4/2 110/5/2 109/6/2
f 96/7/3 113/8/3 125/9/3
f 34/10/4 26/11/4 118/12/4
f 92/13/5 64/14/5 48/15/5
f 52/16/6 78/17/6 120/18/6
f 107/19/7 93/20/7 51/21/7
f 50/16/8 93/20/8 80/22/8
f 69/23/9 50/24/9 84/25/9
f 63/26/10 77/27/10 85/28/10
f 14/29/11 81/30/11 32/31/11
f 91/32/12 81/33/12 106/34/12
f 34/10/13 111/35/13 116/36/13
f 96/7/14 47/37/14 126/38/14
f 70/26/15 48/39/15 101/28/15
f 65/23/16 79/25/16 52/24/16
f 9/19/17 48/21/17 55/20/17
f 52/16/18 99/22/18 55/20/18
f 58/40/19 62/41/19 19/42/19
f 105/43/20 42/44/20 43/45/20
f 50/16/21 115/18/21 11/17/21
f 107/19/22 59/46/22 93/20/22
f 1/47/23 20/3/23 75/2/23
f 2/48/24 20/49/24 1/50/24
f 75/2/25 2/1/25 21/51/25
f 1/47/26 102/4/26 37/52/26
f 36/53/27 22/54/27 3/55/27
f 75/2/28 109/6/28 110/5/28
f 6/56/29 24/57/29 40/58/29
f 40/58/30 24/57/30 6/56/30
f 34/59/31 5/60/31 26/61/31
f 26/11/32 5/62/32 100/63/32
f 44/58/33 5/56/33 26/64/33
f 44/58/34 26/64/34 5/56/34
f 40/58/35 27/64/35 6/56/35
f 40/58/36 6/56/36 27/64/36
f 95/65/37 113/8/37 56/66/37
f 34/59/38 6/67/38 74/68/38
f 71/34/39 53/69/39 94/70/39
f 62/41/40 29/71/40 19/42/40
f 28/31/41 29/30/41 62/29/41
f 94/29/42 53/30/42 28/31/42
f 30/32/43 71/34/43 94/70/43
f 108/13/44 51/72/44 72/14/44
f 122/73/45 65/74/45 16/75/45
f 83/76/46 89/77/46 79/25/46
f 90/40/47 39/42/47 61/78/47
f 98/46/48 55/20/48 99/22/48
f 61/30/49 33/29/49 32/31/49
f 49/30/50 32/31/50 33/29/50
f 27/79/51 6/67/51 34/59/51
f 119/80/52 56/81/52 35/82/52
f 35/83/53 27/84/53 34/10/53
f 34/10/54 119/80/54 35/83/54
f 3/55/55 21/85/55 36/53/55
f 2/86/56 102/87/56 21/88/56
f 102/87/56 2/86/56 37/89/56
f 1/50/57 37/90/57 2/48/57
f 104/43/58 38/45/58 49/91/58
f 106/34/59 81/33/59 14/92/59
f 61/78/60 39/42/60 33/93/60
f 104/43/61 49/91/61 33/93/61
f 40/58/62 23/94/62 27/64/62
f 23/94/63 40/58/63 27/64/63
f 123/73/64 77/75/64 69/74/64
f 76/76/65 84/25/65 86/77/65
f 105/95/66 29/71/66 42/44/66
f 42/29/67 29/30/67 28/31/67
f 43/45/68 42/44/68 71/34/68
f 43/45/69 11/17/69 105/95/69
f 44/58/70 26/64/70 25/94/70
f 25/94/71 26/64/71 44/58/71
f 6/96/72 114/97/72 74/98/72
f 56/66/73 114/99/73 6/100/73
f 95/65/74 46/101/74 113/8/74
f 121/102/75 47/37/75 97/103/75
f 97/103/76 47/37/76 112/104/76
f 96/7/77 125/9/77 47/37/77
f 89/77/78 101/28/78 48/39/78
f 48/72/79 64/14/79 7/105/79
f 49/91/80 106/34/80 14/92/80
f 49/30/81 14/29/81 32/31/81
f 50/24/82 86/77/82 84/25/82
f 11/17/83 10/105/83 50/106/83
f 51/72/84 10/105/84 72/14/84
f 76/76/85 86/77/85 85/28/85
f 52/24/86 79/25/86 89/77/86
f 78/17/87 52/106/87 7/105/87
f 42/44/88 53/69/88 71/34/88
f 42/29/89 28/31/89 53/30/89
f 5/56/90 44/58/90 54/57/90
f 44/58/91 5/56/91 54/57/91
f 48/39/92 70/26/92 55/107/92
f 55/107/93 65/23/93 52/24/93
f 27/108/94 56/81/94 6/109/94
f 35/82/95 56/81/95 27/108/95
f 5/110/96 57/111/96 100/112/96
f 114/97/97 124/113/97 74/98/97
f 18/114/98 58/40/98 30/115/98
f 51/21/99 108/116/99 107/19/99
f 59/46/100 80/22/100 93/20/100
f 59/46/101 58/117/101 19/118/101
f 60/119/102 112/104/102 4/120/102
f 119/80/103 95/121/103 56/81/103
f 61/78/104 8/122/104 90/40/104
f 32/31/105 8/29/105 61/30/105
f 62/41/106 58/40/106 18/114/106
f 62/29/107 18/30/107 28/31/107
f 51/39/108 93/107/108 63/26/108
f 77/75/109 63/123/109 69/74/109
f 7/105/110 64/14/110 78/17/110
f 38/45/111 106/34/111 49/91/111
f 65/23/112 55/107/112 17/124/112
f 16/75/113 65/74/113 70/123/113
f 116/36/114 60/125/114 4/126/114
f 111/35/115 60/125/115 116/36/115
f 57/111/116 67/127/116 100/112/116
f 68/128/117 126/38/117 47/37/117
f 100/112/118 67/127/118 68/128/118
f 73/129/119 121/102/119 97/103/119
f 63/123/120 13/130/120 69/74/120
f 93/107/121 50/24/121 69/23/121
f 70/26/122 17/124/122 55/107/122
f 70/123/123 65/74/123 17/130/123
f 43/45/124 71/34/124 72/14/124
f 30/32/125 72/14/125 71/34/125
f 11/17/126 43/45/126 72/14/126
f 10/105/127 11/17/127 72/14/127
f 15/131/128 68/128/128 73/129/128
f 26/11/129 100/63/129 118/12/129
f 34/59/130 74/68/130 5/60/130
f 74/98/131 57/111/131 5/110/131
f 21/51/132 3/132/132 75/2/132
f 22/133/133 75/2/133 3/132/133
f 76/76/134 12/134/134 41/135/134
f 76/76/135 85/28/135 77/27/135
f 77/75/136 123/73/136 12/136/136
f 12/134/137 76/76/137 77/27/137
f 78/17/138 64/14/138 38/45/138
f 38/45/139 104/43/139 78/17/139
f 83/76/140 79/25/140 31/135/140
f 79/25/141 65/23/141 122/137/141
f 80/22/142 59/46/142 19/118/142
f 105/95/143 11/17/143 115/18/143
f 91/115/144 8/122/144 81/138/144
f 81/30/145 8/29/145 32/31/145
f 16/75/146 82/136/146 122/73/146
f 83/76/147 101/28/147 89/77/147
f 83/76/148 31/135/148 82/134/148
f 82/134/149 16/27/149 83/76/149
f 76/76/150 41/135/150 84/25/150
f 84/25/151 123/137/151 69/23/151
f 63/26/152 85/28/152 51/39/152
f 86/77/153 51/39/153 85/28/153
f 51/15/154 86/139/154 10/140/154
f 10/140/155 86/139/155 50/16/155
f 102/4/156 103/141/156 87/142/156
f 75/2/157 87/142/157 103/141/157
f 57/111/158 88/143/158 67/127/158
f 96/7/159 124/113/159 45/144/159
f 48/15/160 7/140/160 89/139/160
f 7/140/161 52/16/161 89/139/161
f 8/122/162 91/115/162 90/40/162
f 9/19/163 55/20/163 98/46/163
f 91/32/164 64/14/164 92/13/164
f 90/40/165 91/115/165 9/19/165
f 48/21/166 9/19/166 92/116/166
f 9/19/167 91/115/167 92/116/167
f 63/26/168 93/107/168 13/124/168
f 69/23/169 13/124/169 93/107/169
f 30/115/170 94/145/170 18/114/170
f 94/29/171 28/31/171 18/30/171
f 4/120/172 46/101/172 95/65/172
f 66/146/173 4/126/173 95/121/173
f 96/7/174 88/143/174 124/113/174
f 96/7/175 67/127/175 88/143/175
f 73/129/176 97/103/176 60/119/176
f 60/119/177 97/103/177 112/104/177
f 98/46/178 90/40/178 9/19/178
f 98/46/179 39/118/179 90/117/179
f 99/22/180 39/118/180 98/46/180
f 104/43/181 120/18/181 78/17/181
f 118/12/182 100/63/182 15/147/182
f 100/112/183 68/128/183 15/131/183
f 83/76/184 16/27/184 101/28/184
f 70/26/185 101/28/185 16/27/185
f 22/133/26 36/148/26 102/4/26
f 102/87/56 36/149/56 21/88/56
f 102/4/26 1/47/26 103/141/26
f 75/2/186 103/141/186 1/47/186
f 39/42/187 104/43/187 33/93/187
f 104/43/188 39/42/188 99/22/188
f 19/42/189 29/71/189 105/43/189
f 105/95/190 80/22/190 19/118/190
f 38/45/191 64/14/191 106/34/191
f 91/32/192 106/34/192 64/14/192
f 59/46/193 107/19/193 58/117/193
f 58/117/194 107/19/194 30/115/194
f 30/32/195 108/13/195 72/14/195
f 107/19/196 108/116/196 30/115/196
f 75/2/186 22/133/186 109/6/186
f 102/4/26 109/6/26 22/133/26
f 75/2/197 110/5/197 87/142/197
f 102/4/198 87/142/198 110/5/198
f 111/35/199 73/150/199 60/125/199
f 117/151/200 15/147/200 73/150/200
f 4/120/201 112/104/201 46/101/201
f 112/104/202 47/37/202 46/101/202
f 96/7/203 45/144/203 113/8/203
f 56/66/204 113/8/204 114/99/204
f 114/99/205 45/144/205 124/113/205
f 113/8/206 45/144/206 114/99/206
f 50/16/207 80/22/207 115/18/207
f 105/95/208 115/18/208 80/22/208
f 34/10/209 116/36/209 66/146/209
f 116/36/210 4/126/210 66/146/210
f 34/10/211 117/151/211 111/35/211
f 117/151/212 73/150/212 111/35/212
f 118/12/213 117/151/213 34/10/213
f 118/12/214 15/147/214 117/151/214
f 34/10/215 66/146/215 119/80/215
f 66/146/216 95/121/216 119/80/216
f 52/16/217 120/18/217 99/22/217
f 104/43/218 99/22/218 120/18/218
f 68/128/219 47/37/219 121/102/219
f 68/128/220 121/102/220 73/129/220
f 79/25/221 122/137/221 31/135/221
f 122/73/222 82/136/222 31/152/222
f 84/25/223 41/135/223 123/137/223
f 123/73/224 41/152/224 12/136/224
f 124/113/225 88/143/225 57/111/225
f 74/98/226 124/113/226 57/111/226
f 46/101/227 125/9/227 113/8/227
f 47/37/228 125/9/228 46/101/228
f 67/127/229 126/38/229 68/128/229
f 96/7/230 126/38/230 67/127/230
