# Blender v2.75 (sub 0) OBJ File: 'Empty.blend'
# www.blender.org
mtllib ITAR_BAU_L.mtl
o ITAR_BAU_L
v 0.186347 -0.075776 -0.153829
v 0.420807 -0.075776 0.283590
v 0.017497 -0.106747 0.422765
v 0.055041 -0.081645 -0.499603
v 0.229757 -0.111087 -0.125204
v -0.132014 -0.127392 0.040405
v -0.293081 -0.097950 -0.333994
v -0.115722 -0.075775 0.043337
v -0.186324 -0.078138 -0.089896
v -0.270773 -0.104385 -0.334784
v -0.420787 -0.104385 -0.117589
v 0.277636 -0.102658 0.496118
v 0.245818 -0.092319 0.209249
v 0.202353 0.018993 0.366647
v 0.253254 -0.100977 0.488735
v 0.293323 -0.079648 0.203602
v 0.319600 0.031487 0.365141
v 0.270581 -0.048444 -0.295689
v 0.031353 -0.074691 -0.464470
v 0.249522 -0.048444 -0.440952
v 0.133838 -0.074691 -0.278520
v 0.194159 0.000272 0.197090
v 0.289278 0.020082 0.307529
v 0.096931 0.061741 0.264096
v -0.303177 -0.078138 -0.029768
v 0.287915 0.007771 0.418979
v 0.335344 0.018269 0.195617
v 0.235074 0.024792 0.302779
v 0.323117 0.131514 0.215915
v 0.358660 -0.117608 0.450605
v 0.175992 -0.131494 0.454740
v 0.164940 0.096336 0.214138
v 0.392452 0.009322 0.301259
v 0.052217 -0.011944 -0.444994
v 0.046150 -0.004593 -0.467641
v 0.213581 0.020561 0.233179
v 0.155744 0.001419 0.276632
v 0.312716 0.035388 0.231408
v 0.370752 0.021426 0.276580
v -0.272726 -0.027925 -0.317213
v 0.294827 0.116798 0.417046
v 0.367702 0.113086 0.420905
v 0.396014 0.124590 0.270202
v 0.175487 -0.010529 -0.190660
v -0.263612 -0.041638 -0.307154
v 0.262525 0.020207 0.282761
v 0.262469 0.028453 0.279061
v 0.234376 0.000086 0.422210
v 0.128508 0.034850 0.412056
v 0.197762 0.058510 0.411377
v 0.216689 0.101636 0.264877
v 0.172166 0.021188 0.308497
v 0.270194 0.130339 0.265622
v 0.325687 0.076871 0.313900
v 0.295075 -0.068683 0.494578
v 0.232509 -0.074960 0.499583
v 0.017497 -0.075776 0.422765
v 0.186347 -0.106747 -0.153829
v -0.115722 -0.106747 0.043337
v 0.420807 -0.106747 0.283590
v 0.195672 -0.126197 0.238898
v 0.345723 -0.108718 0.234342
v -0.140988 -0.054690 -0.040106
v 0.040441 -0.017552 -0.070340
v -0.186324 -0.104385 -0.089896
v -0.420787 -0.078138 -0.117589
v 0.133838 -0.048444 -0.278520
v 0.249522 -0.074691 -0.440952
v 0.270581 -0.074691 -0.295689
v -0.303177 -0.104385 -0.029768
v 0.287330 0.019203 0.196033
v 0.134556 -0.012403 0.300849
v 0.332437 0.002680 0.417261
v 0.241758 0.006418 0.199184
v -0.264369 -0.110507 -0.173214
v 0.190726 -0.009844 0.419054
v 0.074844 -0.118402 -0.001926
v -0.051249 -0.051621 -0.254960
v -0.222362 -0.012817 -0.162553
v 0.110265 0.011027 -0.330336
vt 0.789575 -0.008688
vt 0.789575 -0.347385
vt 0.983112 -0.347385
vt 0.535177 -0.326947
vt 0.744312 -0.325375
vt 0.744312 -0.008688
vt 0.263005 -0.408219
vt 0.095654 -0.410593
vt 0.388488 -0.608667
vt 0.398856 -0.771310
vt 0.230447 -0.765973
vt 0.399462 -0.855303
vt 0.096349 -0.527327
vt 0.404498 -0.690449
vt 0.075671 -0.681140
vt 0.535177 -0.010260
vt 0.983112 -0.008688
vt 0.299121 -0.243768
vt 0.485644 -0.260676
vt 0.485644 -0.124382
vt 0.464079 -0.230743
vt 0.488849 -0.113399
vt 0.262972 -0.119950
vt 0.659685 -0.890752
vt 0.605064 -0.849924
vt 0.904770 -0.769445
vt 0.900703 -0.993315
vt 0.602201 -0.949501
vt 0.658597 -0.893168
vt 0.898724 -0.771860
vt 0.604401 -0.852339
vt 0.894663 -0.995730
vt 0.601538 -0.951917
vt 0.299121 -0.107474
vt 0.262883 -0.239709
vt 0.741378 -0.741527
vt 0.683107 -0.652681
vt 0.779015 -0.652677
vt 0.883148 -0.741509
vt 0.812115 -0.741084
vt 0.870236 -0.652591
vt 0.866673 -0.651502
vt 0.884658 -0.741509
vt 0.682196 -0.740605
vt 0.639891 -0.738338
vt 0.884611 -0.741517
vt 0.763138 -0.741186
vt 0.814178 -0.741084
vt 0.743991 -0.741527
vt 0.776161 -0.651588
vt 0.681000 -0.651591
vt 0.930766 -0.969825
vt 0.939066 -0.793387
vt 0.994410 -0.783073
vt 0.860311 -0.904869
vt 0.933849 -0.967409
vt 0.997993 -0.780657
vt 0.942215 -0.790971
vt 0.866082 -0.902453
vt 0.813547 -0.652592
vt 0.760675 -0.741186
vt 0.662814 -0.856924
vt 0.603263 -0.817720
vt 0.542966 -0.856694
vt 0.738758 -0.741709
vt 0.262228 -0.114840
vt 0.489570 -0.098448
vt 0.489042 -0.110579
vt 0.392041 -0.543606
vt 0.095919 -0.541263
vt 0.399518 -0.674965
vt 0.446977 -0.719706
vt 0.405370 -0.691074
vt 0.440616 -0.961076
vt 0.503401 -0.882752
vt 0.504167 -0.780438
vt 0.535092 -0.880665
vt 0.503500 -0.885167
vt 0.504263 -0.782853
vt 0.534944 -0.883081
vt 0.083928 -0.676905
vt 0.003994 -0.770633
vt 0.067775 -0.848883
vt 0.067890 -0.772318
vt 0.678858 -0.651716
vt 0.682209 -0.741837
vt 0.633028 -0.741633
vt 0.631819 -0.651680
vt 0.602532 -0.817880
vt 0.543261 -0.856476
vt 0.662609 -0.856936
vt 0.543089 -0.856737
vt 0.810424 -0.651502
vt 0.400422 -0.854011
vt 0.400037 -0.772441
vt 0.229969 -0.851606
vt 0.009313 -0.971355
vt 0.229288 -0.992378
vt 0.679099 -0.740605
vt 0.636461 -0.738338
vt 0.736104 -0.741709
vt 0.679111 -0.741837
vt 0.543014 -0.856640
vt 0.662749 -0.856875
vt 0.603099 -0.817720
vt 0.680948 -0.652806
vt 0.633541 -0.652770
vt 0.629545 -0.741633
vt 0.603236 -0.817720
vt 0.662825 -0.856802
vt 0.663153 -0.856502
vt 0.543182 -0.856681
vt 0.746286 -0.323426
vt 0.527282 -0.324999
vt 0.525309 -0.348686
vt 0.520185 -0.008083
vt 0.518211 -0.342888
vt 0.530372 -0.344460
vt 0.731355 -0.350134
vt 0.729382 -0.015329
vt 0.757140 -0.015329
vt 0.895377 -0.336695
vt 0.893602 -0.108143
vt 0.824024 -0.108750
vt 0.825799 -0.337302
vt 0.532345 -0.009655
vt 0.744312 -0.347114
vt 0.759114 -0.350134
vt 0.961227 -0.984701
vt 0.957931 -0.987116
vt 0.067753 -0.847743
vt 0.230046 -0.851542
vt 0.398845 -0.855687
vt 0.261837 -0.226321
vt 0.462192 -0.215698
vt 0.462048 -0.243453
vt 0.302754 -0.081667
vt 0.286045 -0.081668
vt 0.286045 -0.241801
vt 0.262304 -0.102708
vt 0.302533 -0.081870
vt 0.285824 -0.242004
vt 0.285824 -0.081870
vt 0.302533 -0.242003
vt 0.261816 -0.254076
vt 0.302754 -0.241801
vt 0.014176 -0.720310
vt 0.096866 -0.614134
vt 0.441098 -0.963912
vt 0.387276 -0.405127
vt 0.066698 -0.768150
vt 0.067713 -0.847207
vt 0.073656 -0.680502
vn 0.000000 -1.000000 0.000000
vn -0.000000 1.000000 -0.000000
vn 0.028000 -0.996800 -0.074700
vn -0.242600 0.935300 0.257600
vn 0.005900 -0.996600 -0.082400
vn 0.038600 0.971800 0.232600
vn -0.020400 0.984800 0.172700
vn -0.853600 0.366400 0.370400
vn 0.533400 0.748800 0.393400
vn 0.796900 0.443700 0.409900
vn -0.624100 0.676800 0.390400
vn 0.177900 0.975900 0.126700
vn -0.908100 -0.400900 0.120900
vn 0.778200 0.482300 -0.402100
vn -0.802700 0.417100 0.426100
vn -0.140400 -0.987500 -0.071300
vn -0.886500 0.139600 -0.441300
vn 0.982300 0.019800 0.186100
vn -0.166500 -0.985600 -0.030600
vn 0.717800 0.478100 0.506000
vn 0.272500 -0.962200 0.001200
vn -0.782400 0.411000 0.467900
vn -0.581000 -0.032400 -0.813300
vn 0.056600 0.783100 0.619300
vn 0.863300 -0.156000 -0.479900
vn -0.025900 -0.997200 -0.070500
vn 0.070400 0.274300 -0.959100
vn -0.420700 0.305800 -0.854100
vn 0.881900 0.263900 -0.390800
vn 0.990900 -0.073600 -0.112600
vn -0.957700 -0.271900 -0.094000
vn -0.600300 -0.001900 -0.799800
vn -0.973400 -0.173300 -0.149800
vn 0.983600 -0.167800 -0.065700
vn 0.624400 0.082500 -0.776700
vn -0.422800 0.325600 -0.845700
vn -0.760100 0.261900 0.594700
vn -0.984000 0.065300 0.165900
vn 0.857200 -0.287900 0.427000
vn -0.053700 -0.015800 0.998400
vn 0.065900 0.937000 -0.343000
vn -0.580700 0.812800 -0.047100
vn 0.597100 0.203500 -0.775900
vn 0.894200 0.234300 -0.381400
vn 0.137600 0.587800 0.797200
vn -0.756200 0.334100 -0.562700
vn 0.672400 0.332300 -0.661400
vn -0.680900 0.278500 -0.677400
vn 0.571500 0.717200 0.398700
vn 0.248300 -0.967800 -0.040300
vn -0.579500 -0.761000 0.291800
vn -0.866300 0.498300 0.034800
vn 0.794600 0.546900 0.263600
vn -0.029400 0.114500 0.993000
vn 0.545500 0.568500 -0.615800
vn -0.584600 0.612200 0.532300
vn 0.441900 0.894500 0.068300
vn -0.315000 0.914600 -0.253400
vn -0.650500 0.328500 -0.684800
vn 0.717000 0.694900 -0.054500
vn 0.394900 0.806800 0.439500
vn -0.273400 0.837000 0.473900
vn 0.236600 -0.461100 0.855200
vn -0.590500 0.688500 0.421000
vn -0.218300 -0.463100 0.859000
vn 0.497500 0.757600 0.422600
vn 0.326200 0.000000 0.945300
vn -0.943500 0.000000 0.331300
vn 0.881400 0.000000 -0.472400
vn -0.546600 -0.000000 -0.837400
vn 0.521200 -0.848800 -0.088400
vn -0.545200 0.076300 -0.834900
vn -0.423400 -0.897100 -0.126600
vn 0.562600 0.155400 -0.812000
vn -0.739800 0.456300 0.494500
vn -0.039400 0.739400 0.672100
vn -0.147500 0.983100 -0.108200
vn 0.517600 0.594200 0.615600
vn 0.457500 0.000000 0.889200
vn -0.598300 0.000000 0.801300
vn -0.822800 0.000000 -0.568300
vn 0.124600 0.000000 0.992200
vn 0.989700 0.000000 -0.143500
vn 0.107200 0.000000 -0.994200
vn -0.005100 0.175900 -0.984400
vn -0.019100 -0.998900 0.043000
vn -0.678800 -0.572400 -0.459900
vn 0.135600 -0.989800 -0.043000
vn 0.040300 0.015200 0.999100
vn -0.116600 -0.988900 -0.091800
vn 0.019900 0.180600 -0.983400
vn 0.124700 -0.989700 0.070100
vn -0.909100 0.370100 0.191200
vn 0.008900 -0.996800 -0.079400
vn -0.099000 0.121100 0.987700
vn 0.225600 -0.972300 -0.061500
vn 0.456900 0.645200 0.612400
vn -0.011200 -0.997300 -0.073200
vn 0.287200 0.948500 0.133500
vn -0.211900 0.974400 -0.074600
vn -0.936600 0.203900 0.285100
vn 0.144900 0.979100 -0.142800
vn 0.890100 0.145100 -0.432100
vn -0.340000 0.939000 0.051900
usemtl KNECHT
s off
f 58/1/1 60/2/1 3/3/1
f 57/4/2 2/5/2 1/6/2
f 77/7/3 6/8/3 4/9/3
f 80/10/4 78/11/4 44/12/4
f 75/13/5 4/9/5 6/8/5
f 35/14/6 40/15/6 78/11/6
f 1/6/2 8/16/2 57/4/2
f 3/3/1 59/17/1 58/1/1
f 11/18/1 10/19/1 65/20/1
f 9/21/7 45/22/7 66/23/7
f 14/24/8 37/25/8 31/26/8
f 12/27/9 46/28/9 14/24/9
f 17/29/10 30/30/10 39/31/10
f 15/32/11 17/29/11 47/33/11
f 67/21/12 20/23/12 34/22/12
f 68/18/1 21/20/1 19/19/1
f 21/20/1 68/18/1 69/34/1
f 20/23/2 67/21/2 18/35/2
f 72/36/13 49/37/13 24/38/13
f 23/39/14 74/40/14 51/41/14
f 66/23/2 25/35/2 9/21/2
f 65/20/1 70/34/1 11/18/1
f 53/42/15 28/43/15 26/44/15
f 73/45/16 28/46/16 27/47/16
f 28/43/17 53/42/17 71/48/17
f 33/49/18 43/50/18 42/51/18
f 62/52/19 30/53/19 15/54/19
f 17/29/20 55/55/20 30/30/20
f 61/56/21 12/57/21 31/58/21
f 14/24/22 31/26/22 56/59/22
f 32/60/23 22/61/23 24/38/23
f 24/62/24 52/63/24 32/64/24
f 33/49/25 27/47/25 43/50/25
f 33/65/26 73/45/26 27/47/26
f 20/66/27 19/67/27 34/68/27
f 4/69/28 7/70/28 35/71/28
f 4/72/29 35/73/29 5/74/29
f 46/28/30 12/27/30 13/75/30
f 61/76/31 31/26/31 37/25/31
f 36/77/32 13/75/32 37/25/32
f 47/33/33 16/78/33 15/32/33
f 62/79/34 39/31/34 30/30/34
f 38/80/35 39/31/35 16/78/35
f 40/81/36 35/71/36 7/70/36
f 75/82/37 63/83/37 79/84/37
f 53/42/38 26/44/38 41/85/38
f 42/51/39 73/86/39 33/49/39
f 41/85/40 73/87/40 42/88/40
f 54/89/41 41/90/41 42/91/41
f 43/92/42 54/89/42 42/91/42
f 29/93/43 43/50/43 27/47/43
f 44/94/44 5/74/44 80/95/44
f 64/96/45 6/97/45 77/98/45
f 66/66/46 45/68/46 10/67/46
f 13/75/47 36/77/47 46/28/47
f 16/78/48 47/33/48 38/80/48
f 51/41/49 48/99/49 23/39/49
f 76/100/50 22/61/50 23/39/50
f 49/37/51 72/101/51 76/102/51
f 50/103/52 51/104/52 52/105/52
f 51/41/53 50/106/53 48/99/53
f 50/106/54 49/107/54 76/108/54
f 51/41/55 74/40/55 32/60/55
f 32/64/56 52/109/56 51/104/56
f 24/64/57 49/110/57 52/109/57
f 52/105/58 49/110/58 50/103/58
f 53/42/59 29/93/59 71/48/59
f 41/90/60 54/89/60 53/111/60
f 29/112/61 53/111/61 54/89/61
f 43/92/62 29/112/62 54/89/62
f 30/30/63 55/55/63 15/32/63
f 15/32/64 55/55/64 17/29/64
f 31/26/65 12/27/65 56/59/65
f 12/27/66 14/24/66 56/59/66
f 2/113/67 57/114/67 3/115/67
f 59/116/68 3/117/68 57/118/68
f 60/119/69 58/120/69 1/121/69
f 8/122/70 1/123/70 58/124/70
f 58/124/70 59/125/70 8/122/70
f 57/118/68 8/126/68 59/116/68
f 3/115/67 60/127/67 2/113/67
f 1/121/69 2/128/69 60/119/69
f 61/56/71 13/129/71 12/57/71
f 61/76/72 37/25/72 13/75/72
f 62/52/73 15/54/73 16/130/73
f 62/79/74 16/78/74 39/31/74
f 6/97/75 63/83/75 75/82/75
f 63/131/76 6/97/76 64/96/76
f 64/132/77 44/133/77 78/11/77
f 77/98/78 44/12/78 64/96/78
f 70/134/79 65/135/79 9/136/79
f 25/137/80 66/138/80 11/139/80
f 10/67/81 11/140/81 66/66/81
f 69/134/82 67/136/82 21/135/82
f 18/141/83 68/142/83 20/143/83
f 19/67/84 20/66/84 68/140/84
f 68/142/83 18/141/83 69/144/83
f 67/136/82 69/134/82 18/145/82
f 11/139/80 70/146/80 25/137/80
f 9/136/79 25/145/79 70/134/79
f 27/47/85 71/48/85 29/93/85
f 71/48/86 27/47/86 28/46/86
f 72/36/87 24/38/87 22/61/87
f 72/101/88 22/61/88 76/100/88
f 26/44/89 73/87/89 41/85/89
f 26/44/90 28/46/90 73/45/90
f 22/61/91 32/60/91 74/40/91
f 74/40/92 23/39/92 22/61/92
f 79/84/93 7/147/93 75/82/93
f 7/148/94 4/9/94 75/13/94
f 48/99/95 50/106/95 76/108/95
f 48/99/96 76/100/96 23/39/96
f 5/149/97 44/12/97 77/98/97
f 5/150/98 77/7/98 4/9/98
f 79/151/99 63/152/99 78/11/99
f 63/152/100 64/132/100 78/11/100
f 40/153/101 7/147/101 79/84/101
f 79/151/102 78/11/102 40/15/102
f 80/95/103 5/74/103 35/73/103
f 35/14/104 78/11/104 80/10/104
