# Blender v2.75 (sub 0) OBJ File: 'Empty.blend'
# www.blender.org
mtllib ITAR_PIR_L_ADDON.mtl
o ITAR_PIR_L_ADDON
v 0.076023 0.067597 -0.063061
v -0.574107 0.259267 -0.084932
v -0.017836 0.258591 -0.490634
v -0.179862 0.103654 0.338373
v 0.415275 0.103654 0.043012
v -0.119662 0.030300 -0.041714
v 0.355075 0.030300 0.423099
v -0.195612 0.071818 0.134764
v 0.211797 0.117150 -0.125084
v 0.201660 0.322409 -0.332892
v 0.167572 0.301486 -0.093163
v 0.281573 0.117150 -0.181569
v 0.367166 0.322409 -0.371202
v 0.311021 0.301486 -0.135660
v 0.258796 0.290990 -0.172245
v 0.229571 0.290990 -0.108061
v 0.080724 0.330950 -0.205832
v 0.433119 0.330950 -0.208660
v 0.133116 0.062730 -0.316689
v 0.227716 0.057805 -0.021349
v 0.156497 0.196177 -0.171122
v 0.425003 0.062730 -0.331005
v 0.228742 0.057805 -0.090887
v 0.349897 0.196177 -0.204136
v -0.487818 0.058478 -0.056044
v -0.019590 0.057991 -0.397581
v 0.340927 0.058899 -0.068068
v 0.114974 0.058899 -0.041234
v 0.415275 0.030300 0.043012
v -0.119662 0.103654 -0.041714
v -0.179862 0.030300 0.338373
v 0.355075 0.103654 0.423099
v -0.041605 0.146660 0.058008
v 0.434701 0.183148 -0.241132
v 0.091154 0.183148 -0.236624
v 0.183578 0.101930 -0.009848
v 0.265594 0.101930 -0.064009
v 0.351727 0.269386 -0.232514
v 0.165195 0.269386 -0.198196
v 0.058593 0.179921 -0.299325
v 0.283377 0.297796 -0.299670
v 0.253402 0.297796 -0.235629
v 0.142821 0.269272 -0.305325
v 0.411808 0.269272 -0.323988
v 0.114357 0.121392 -0.105719
v 0.365135 0.121392 -0.127840
v 0.196178 0.180530 -0.258928
v 0.345159 0.180530 -0.300376
v 0.086046 0.040500 -0.265355
v 0.449983 0.040499 -0.265992
v 0.423025 0.333641 -0.332174
v 0.413776 0.288696 -0.237291
v 0.135384 0.333641 -0.317052
v 0.109214 0.288696 -0.225381
v 0.332682 0.250304 -0.200434
v 0.171158 0.250304 -0.161368
v 0.193797 0.060127 -0.000803
v 0.252771 0.060127 -0.059339
v 0.174320 0.044969 -0.284544
v 0.374884 0.044969 -0.316198
v -0.410111 0.180471 0.042583
v -0.385363 0.224079 -0.175756
v -0.161979 0.223707 -0.338568
v -0.220690 0.244830 -0.187946
v -0.251297 0.089123 0.126572
v 0.085659 0.085433 -0.118100
v 0.200786 0.275544 -0.245643
v 0.336002 0.275544 -0.289704
v 0.086458 0.054130 -0.107199
v 0.391635 0.054130 -0.118992
v 0.421075 0.273092 -0.219624
v 0.095949 0.273092 -0.211619
v -0.129873 0.223825 -0.067128
v 0.260489 0.054066 -0.170550
v 0.227375 0.054066 -0.107105
v 0.222100 0.255551 -0.249170
v 0.317464 0.255551 -0.300797
v 0.155169 0.292846 -0.267319
v 0.386389 0.292846 -0.293153
v -0.242804 0.039790 -0.211244
v 0.420506 0.183958 -0.332473
v 0.137837 0.183958 -0.316407
vt 0.656271 -0.237475
vt 0.633769 -0.276198
vt 0.601631 -0.237724
vt 0.657539 -0.337320
vt 0.659202 -0.450329
vt 0.574195 -0.343850
vt 0.734703 -0.344162
vt 0.772781 -0.276206
vt 0.702571 -0.276222
vt 0.484603 -0.276344
vt 0.525853 -0.340911
vt 0.424104 -0.364110
vt 0.502354 -0.236507
vt 0.426250 -0.236745
vt 0.725183 -0.474111
vt 0.199436 -0.872758
vt 0.481560 -0.961654
vt 0.503554 -0.894279
vt 0.543341 -0.509489
vt 0.095040 -0.546121
vt 0.202769 -0.502809
vt 0.091519 -0.856941
vt 0.509296 -0.551970
vt 0.717368 -0.722789
vt 0.704177 -0.938843
vt 0.844232 -0.526438
vt 0.962175 -0.926509
vt 0.991676 -0.683239
vt 0.579157 -0.472552
vt 0.425606 -0.462618
vt 0.519244 -0.472552
vt 0.753181 -0.722456
vt 0.746223 -0.576556
vt 0.373428 -0.276292
vt 0.352543 -0.236626
vt 0.305492 -0.276318
vt 0.326744 -0.344162
vt 0.392086 -0.706522
vt 0.339425 -0.474111
vt 0.013548 -0.665633
vt 0.856355 -0.939089
vt 0.828427 -0.657746
vt 0.553679 -0.276039
vt 0.892135 -0.503995
vt 0.899809 -0.984857
vt 0.337818 -0.678289
vt 0.277308 -0.787791
vt 0.242245 -0.642442
vt 0.969925 -0.554811
vt 0.558040 -0.276095
vt 0.710087 -0.238054
vt 0.192469 -0.731973
vt 0.048668 -0.666150
vt 0.223463 -0.745227
vt 0.222019 -0.977966
vt 0.381707 -0.710257
vt 0.226075 -0.320338
vt 0.401908 -0.293658
vt 0.312478 0.000910
vt 0.990774 -0.801464
vt 0.990774 -0.008158
vt 0.786807 -0.008158
vt 0.784883 -0.003049
vt 0.507204 -0.003049
vt 0.503256 -0.799761
vt 0.786807 -0.801464
vt 0.780935 -0.799761
vt 0.124210 -0.978199
vt 0.068424 -0.715382
vt 0.126774 -0.001942
vt 0.141808 -0.494964
vt 0.305120 -0.492294
vt 0.053501 -0.299015
vt 0.226157 -0.558828
vt 0.232955 -0.330132
vt 0.286094 -0.470627
vt 0.232936 -0.330165
vt 0.792374 -0.776515
vt 0.996860 -0.776515
vt 0.996831 -0.676621
vt 0.784833 -0.002980
vt 0.784833 -0.804870
vt 0.828942 -0.804870
vt 0.828942 -0.002980
vt 0.571274 -0.325510
vt 0.571274 -0.470734
vt 0.712917 -0.470734
vt 0.712917 -0.325510
vt 0.510707 -0.793676
vt 0.512680 -0.009134
vt 0.542696 -0.009134
vt 0.792346 -0.676621
vt 0.540723 -0.793676
vt 0.312925 -0.975185
vt 0.132342 -0.528666
vt 0.316008 -0.513895
vt 0.226223 -0.325128
vt 0.222650 -0.554297
vt 0.213661 -0.584494
vt 0.166884 -0.475523
vt 0.016395 -0.497129
vt 0.016187 -0.498119
vt 0.442736 -0.490884
vt 0.442585 -0.489906
vt 0.139894 -0.100271
vt 0.115978 -0.903382
vt 0.350645 -0.097017
vt 0.330125 -0.899879
vn 0.378500 0.783800 0.492300
vn -0.887100 0.110000 -0.448200
vn -0.532600 0.783800 0.319400
vn 0.989700 0.110000 -0.091900
vn -0.247800 0.070800 -0.966200
vn 0.022900 0.936800 0.349200
vn 0.584700 0.070800 -0.808200
vn -0.149300 0.936800 0.316500
vn -0.535300 -0.688900 0.488800
vn 0.429500 0.860900 -0.272800
vn 0.318900 -0.688900 0.651000
vn -0.299600 0.860900 -0.411200
vn 0.689900 -0.146200 -0.709000
vn -0.876500 0.356400 0.323500
vn 0.954600 -0.101000 -0.280300
vn -0.999400 0.035900 -0.000500
vn 0.970800 0.239800 0.000300
vn 0.072300 0.986300 0.148000
vn -0.382100 -0.146200 -0.912500
vn 0.697000 0.356400 0.622300
vn -0.785500 -0.101000 -0.610600
vn 0.930000 0.035900 0.365800
vn -0.903400 0.239800 -0.355600
vn -0.121600 0.986300 0.111200
vn 0.363500 0.566600 0.739500
vn -0.007000 -0.996000 0.089600
vn -0.609200 0.566500 0.554900
vn -0.026300 -0.996000 0.085900
vn 0.971700 0.182900 -0.149400
vn 0.373600 -0.161800 0.913400
vn -0.849300 0.182900 -0.495100
vn -0.682400 -0.161800 0.712900
vn -0.455900 0.080300 0.886400
vn 0.715700 0.647900 0.260800
vn 0.099300 0.080300 0.991800
vn -0.761500 0.647900 -0.019600
vn 0.542800 0.539900 0.643400
vn -0.888200 0.166300 -0.428400
vn -0.740800 0.539900 0.399700
vn 0.983400 0.166300 -0.073100
vn 0.367200 0.922300 0.120100
vn -0.474600 -0.879800 0.026000
vn -0.385700 0.922300 -0.022800
vn 0.432000 -0.879800 0.198100
vn 0.476200 -0.758300 -0.445200
vn -0.882500 -0.181000 -0.434100
vn -0.279900 -0.758300 -0.588800
vn 0.980200 -0.181000 -0.080400
vn 0.182300 0.587100 0.788700
vn -0.571200 0.698600 0.430800
vn -0.458700 0.587100 0.667000
vn 0.373500 0.698600 0.610200
vn 0.831100 -0.344000 0.436900
vn 0.735400 0.641600 0.218000
vn -0.933400 -0.344000 0.101900
vn -0.764100 0.641600 -0.066700
vn -0.760600 0.154200 -0.630600
vn 0.057900 -0.997700 0.033900
vn 0.938800 0.154200 -0.308000
vn -0.066300 -0.997700 0.010300
vn 0.587900 -0.202100 -0.783300
vn -0.447000 0.794500 0.411000
vn -0.504700 0.630600 -0.589600
vn -0.926300 0.367300 0.083700
vn -0.259900 -0.202100 -0.944300
vn 0.265200 0.794500 0.546200
vn 0.685700 0.630600 -0.363600
vn 0.831200 0.367300 0.417400
vn -0.942700 -0.308500 0.126800
vn 0.212000 0.000600 0.977300
vn 0.830700 -0.308500 0.463500
vn -0.555400 0.000600 0.831600
vn -0.021200 -0.996800 0.077600
vn 0.509300 0.299100 0.807000
vn -0.008700 -0.996800 0.080000
vn -0.769600 0.299100 0.564200
vn 0.626700 0.045900 -0.777900
vn -0.048900 -0.899400 -0.434300
vn -0.298000 0.045900 -0.953500
vn 0.204700 -0.899400 -0.386200
vn -0.244300 0.968000 -0.057600
vn 0.181900 0.938900 0.292300
vn 0.248400 0.968000 0.036000
vn -0.276400 0.938900 0.205300
vn -0.868000 0.352400 0.349800
vn -0.027500 -0.996100 0.083900
vn 0.679500 0.352400 0.643600
vn -0.005100 -0.996100 0.088200
vn 0.978600 -0.187800 -0.084100
vn 0.541100 -0.263900 0.798500
vn -0.879700 -0.187800 -0.436900
vn -0.796100 -0.263900 0.544600
vn -0.059900 -0.997900 0.023000
vn -0.898900 0.235900 -0.369300
vn 0.047300 -0.997900 0.043300
vn 0.971700 0.235900 -0.014100
vn 0.780600 -0.614700 0.113000
vn 0.554400 -0.148300 -0.818900
vn -0.767700 -0.614700 -0.180900
vn -0.215700 -0.148300 -0.965100
vn -0.305500 0.318600 0.897300
vn 0.218500 0.933300 0.285100
vn -0.044600 0.318600 0.946800
vn -0.307800 0.933300 0.185100
vn 0.987600 0.034800 -0.153200
vn -0.390800 -0.025600 -0.920100
vn -0.862700 0.034800 -0.504500
vn 0.700800 -0.025600 -0.712900
vn 0.458700 0.863700 0.209000
vn 0.084900 -0.996400 0.004400
vn -0.000000 -1.000000 0.000000
vn 0.000000 1.000000 0.000000
vn 0.032100 0.682700 0.730000
vn 0.047000 -0.995200 0.085700
vn -0.575500 -0.214400 -0.789200
vn -0.566600 -0.268800 0.778900
vn -0.607500 -0.254000 -0.752600
vn 0.894200 -0.328000 -0.304600
vn 0.987700 -0.000000 0.156400
vn 0.156400 0.000000 -0.987700
vn -0.987700 0.000000 -0.156400
vn -0.156400 0.000000 0.987700
vn 0.708400 0.656300 0.259700
vn 0.548300 -0.348500 0.760200
vn 0.204200 0.977200 -0.057400
vn 0.875200 -0.209900 -0.435900
vn 0.059000 0.867700 0.493500
vn -0.655600 -0.176100 0.734300
vn -0.458600 -0.316500 -0.830400
vn 0.279400 0.935000 0.218400
vn 0.126100 0.934200 0.333800
vn -0.651900 -0.314400 -0.690100
vn -0.136600 0.972300 -0.189600
vn -0.109600 0.977000 0.182700
vn -0.320900 -0.774300 0.545500
vn 0.169200 0.810200 0.561200
vn 0.601000 -0.785200 -0.149200
vn 0.487700 0.801800 0.345200
vn -0.065200 0.973700 0.218300
vn 0.226100 0.974100 -0.000600
vn -0.524700 -0.316500 -0.790300
vn -0.016200 -0.995400 0.094300
usemtl SOLDIER01
s off
f 78/1/1 53/2/1 54/3/1
f 43/4/2 82/5/2 72/6/2
f 79/1/3 52/3/3 51/2/3
f 44/4/4 71/6/4 81/5/4
f 81/5/5 77/7/5 44/4/5
f 41/8/6 79/1/6 13/9/6
f 82/5/7 43/4/7 76/7/7
f 42/8/8 10/9/8 78/1/8
f 11/10/9 72/11/9 56/12/9
f 54/13/10 11/10/10 39/14/10
f 14/10/11 55/12/11 71/11/11
f 52/13/12 38/14/12 14/10/12
f 76/7/13 47/15/13 82/5/13
f 35/16/14 69/17/14 45/18/14
f 75/19/15 59/20/15 47/21/15
f 69/17/16 35/16/16 49/22/16
f 75/19/17 47/21/17 9/23/17
f 45/18/18 36/24/18 9/23/18
f 77/7/19 81/5/19 48/15/19
f 34/16/20 46/18/20 70/17/20
f 74/19/21 48/21/21 60/20/21
f 70/17/22 50/22/22 34/16/22
f 74/19/23 12/23/23 48/21/23
f 46/18/24 12/23/24 37/24/24
f 27/25/25 46/18/25 37/24/25
f 23/26/26 50/27/26 70/28/26
f 28/25/27 36/24/27 45/18/27
f 20/26/28 69/28/28 49/27/28
f 34/29/29 81/5/29 71/6/29
f 71/11/30 24/30/30 34/31/30
f 35/29/31 72/6/31 82/5/31
f 72/11/32 35/31/32 21/30/32
f 57/32/33 36/24/33 28/25/33
f 9/23/34 36/24/34 20/33/34
f 58/32/35 27/25/35 37/24/35
f 12/23/36 23/33/36 37/24/36
f 38/14/37 15/34/37 55/12/37
f 14/10/38 38/14/38 55/12/38
f 39/14/39 56/12/39 16/34/39
f 11/10/40 56/12/40 39/14/40
f 15/34/41 68/35/41 41/36/41
f 15/34/42 77/37/42 55/12/42
f 16/34/43 42/36/43 67/35/43
f 16/34/44 56/12/44 76/37/44
f 43/4/45 10/9/45 42/8/45
f 72/6/46 53/2/46 43/4/46
f 44/4/47 41/8/47 13/9/47
f 71/6/48 44/4/48 51/2/48
f 45/18/49 9/23/49 21/38/49
f 21/38/50 35/16/50 45/18/50
f 46/18/51 24/38/51 12/23/51
f 24/38/52 46/18/52 34/16/52
f 47/39/53 76/37/53 21/30/53
f 47/21/54 21/38/54 9/23/54
f 48/39/55 24/30/55 77/37/55
f 48/21/56 12/23/56 24/38/56
f 35/16/57 19/40/57 49/22/57
f 59/41/58 75/42/58 49/27/58
f 34/16/59 50/22/59 22/40/59
f 60/41/60 50/27/60 74/42/60
f 13/9/61 51/2/61 44/4/61
f 13/9/62 79/1/62 51/2/62
f 18/43/63 52/13/63 14/10/63
f 51/2/64 52/3/64 18/43/64
f 10/9/65 43/4/65 53/2/65
f 10/9/66 53/2/66 78/1/66
f 17/43/67 11/10/67 54/13/67
f 53/2/68 17/43/68 54/3/68
f 55/12/69 77/37/69 24/30/69
f 24/30/70 71/11/70 55/12/70
f 56/12/71 21/30/71 76/37/71
f 21/30/72 56/12/72 72/11/72
f 69/28/73 20/26/73 57/44/73
f 36/24/74 57/32/74 20/33/74
f 70/28/75 58/44/75 23/26/75
f 37/24/76 23/33/76 58/32/76
f 47/21/77 59/20/77 19/40/77
f 19/45/78 59/41/78 49/27/78
f 48/21/79 22/40/79 60/20/79
f 22/45/80 50/27/80 60/41/80
f 39/14/81 16/34/81 67/35/81
f 54/46/82 39/47/82 78/48/82
f 38/14/83 68/35/83 15/34/83
f 52/46/84 79/48/84 38/47/84
f 28/25/85 45/18/85 69/17/85
f 28/49/86 69/28/86 57/44/86
f 27/25/87 70/17/87 46/18/87
f 27/49/88 58/44/88 70/28/88
f 71/6/89 51/2/89 18/50/89
f 71/11/90 18/50/90 14/10/90
f 72/6/91 17/50/91 53/2/91
f 72/11/92 11/10/92 17/50/92
f 74/42/93 50/27/93 23/26/93
f 23/33/94 12/23/94 74/19/94
f 75/42/95 20/26/95 49/27/95
f 20/33/96 75/19/96 9/23/96
f 76/37/97 42/36/97 16/34/97
f 42/8/98 76/7/98 43/4/98
f 77/37/99 15/34/99 41/36/99
f 41/8/100 44/4/100 77/7/100
f 67/51/101 42/8/101 78/1/101
f 67/52/102 78/48/102 39/47/102
f 68/51/103 79/1/103 41/8/103
f 68/52/104 38/47/104 79/48/104
f 22/40/105 81/53/105 34/16/105
f 81/53/106 22/40/106 48/21/106
f 19/40/107 35/16/107 82/53/107
f 82/53/108 47/21/108 19/40/108
usemtl DIEBCOOL
f 73/54/109 33/55/109 40/56/109
f 80/57/110 26/58/110 1/59/110
f 7/60/111 31/61/111 6/62/111
f 30/63/112 4/64/112 32/65/112
f 6/62/111 29/66/111 7/60/111
f 32/65/112 5/67/112 30/63/112
f 8/68/113 33/55/113 61/69/113
f 1/59/114 8/70/114 80/57/114
f 62/71/115 63/72/115 25/73/115
f 61/74/116 25/75/116 65/76/116
f 26/58/117 80/57/117 63/72/117
f 66/76/118 26/77/118 40/74/118
f 7/78/119 29/79/119 5/80/119
f 30/81/120 5/82/120 29/83/120
f 29/83/120 6/84/120 30/81/120
f 4/85/121 30/86/121 6/87/121
f 6/87/121 31/88/121 4/85/121
f 32/89/122 4/90/122 31/91/122
f 5/80/119 32/92/119 7/78/119
f 31/91/122 7/93/122 32/89/122
f 33/55/123 1/94/123 40/56/123
f 8/95/124 1/96/124 33/97/124
f 64/98/125 40/56/125 63/72/125
f 40/99/126 26/77/126 3/100/126
f 33/55/127 73/54/127 61/69/127
f 25/75/128 61/99/128 2/100/128
f 2/101/129 62/71/129 25/73/129
f 62/71/130 2/102/130 61/69/130
f 3/103/131 63/72/131 40/56/131
f 63/72/132 3/104/132 26/58/132
f 62/71/133 64/98/133 63/72/133
f 61/69/134 64/98/134 62/71/134
f 65/105/135 25/73/135 8/70/135
f 8/68/136 61/69/136 65/106/136
f 26/58/137 66/107/137 1/59/137
f 40/56/138 1/94/138 66/108/138
f 61/69/139 73/54/139 64/98/139
f 73/54/140 40/56/140 64/98/140
f 80/57/141 25/73/141 63/72/141
f 80/57/142 8/70/142 25/73/142
