# Blender v2.75 (sub 0) OBJ File: 'Empty.blend'
# www.blender.org
mtllib ITAR_LEATHER_L.mtl
o ITAR_LEATHER_L
v 0.183196 -0.076817 -0.155943
v 0.420878 -0.076817 0.287486
v 0.012026 -0.108214 0.428574
v 0.050086 -0.082767 -0.506467
v 0.227202 -0.112613 -0.126924
v -0.139539 -0.129143 0.040961
v -0.302820 -0.099296 -0.338583
v -0.123023 -0.076817 0.043932
v -0.194596 -0.079212 -0.091131
v -0.391661 -0.079212 0.235344
v -0.280205 -0.105819 -0.339384
v 0.129965 -0.049110 -0.282347
v 0.510908 -0.049110 -0.299751
v 0.026072 -0.075717 -0.470852
v 0.275740 -0.104069 0.502935
v 0.243485 -0.093588 0.212125
v 0.199422 0.019253 0.371685
v 0.251022 -0.102365 0.495451
v 0.291643 -0.080743 0.206400
v 0.318280 0.031920 0.370158
v -0.510888 -0.105819 0.146316
v 0.489559 -0.075717 -0.447010
v 0.191116 0.000275 0.199798
v 0.287541 0.020357 0.311755
v 0.092552 0.062589 0.267725
v 0.286160 0.007878 0.424736
v 0.334240 0.018520 0.198305
v 0.232593 0.025133 0.306939
v 0.321846 0.133321 0.218882
v 0.357876 -0.119224 0.456797
v 0.172699 -0.133301 0.460988
v 0.161495 0.097660 0.217081
v 0.392133 0.009450 0.305399
v 0.041072 -0.004656 -0.474066
v 0.047223 -0.012109 -0.451108
v 0.210804 0.020843 0.236383
v 0.152173 0.001438 0.280433
v 0.311301 0.035874 0.234588
v 0.370135 0.021720 0.280381
v -0.282185 -0.028309 -0.321571
v -0.272945 -0.042210 -0.311374
v 0.293167 0.118403 0.422776
v 0.367043 0.114639 0.426688
v 0.395745 0.126302 0.273915
v 0.172187 -0.010673 -0.193280
v 0.260421 0.020485 0.286646
v 0.260364 0.028844 0.282895
v 0.231886 0.000087 0.428011
v 0.124563 0.035329 0.417718
v 0.194768 0.059314 0.417030
v 0.213955 0.103032 0.268516
v 0.168821 0.021479 0.312736
v 0.268196 0.132130 0.269272
v 0.324451 0.077927 0.318214
v 0.293418 -0.069627 0.501373
v 0.229992 -0.075990 0.506447
v 0.012026 -0.076817 0.428574
v 0.183196 -0.108214 -0.155943
v -0.123023 -0.108214 0.043932
v 0.420878 -0.108214 0.287486
v 0.192650 -0.127931 0.242181
v 0.344762 -0.110212 0.237563
v -0.148636 -0.055442 -0.040657
v 0.035285 -0.017793 -0.071306
v -0.194596 -0.105819 -0.091131
v 0.489559 -0.049110 -0.447010
v 0.129965 -0.075717 -0.282347
v -0.510888 -0.079212 0.146316
v -0.391661 -0.105819 0.235344
v 0.510908 -0.075717 -0.299751
v 0.285567 0.019467 0.198727
v 0.130694 -0.012573 0.304983
v 0.331294 0.002716 0.422995
v 0.239369 0.006506 0.201921
v -0.273713 -0.112025 -0.175594
v 0.187636 -0.009979 0.424812
v 0.070161 -0.120029 -0.001952
v -0.057665 -0.052330 -0.258463
v -0.231129 -0.012994 -0.164786
v 0.106068 0.011179 -0.334875
vt 0.789575 -0.008688
vt 0.789575 -0.347385
vt 0.983112 -0.347385
vt 0.535177 -0.326947
vt 0.744312 -0.325375
vt 0.744312 -0.008688
vt 0.263005 -0.408219
vt 0.095654 -0.410593
vt 0.388488 -0.608667
vt 0.398856 -0.771310
vt 0.230447 -0.765973
vt 0.399462 -0.855303
vt 0.096349 -0.527327
vt 0.404498 -0.690449
vt 0.075671 -0.681140
vt 0.535177 -0.010260
vt 0.983112 -0.008688
vt 0.146947 -0.260676
vt 0.485644 -0.260676
vt 0.485644 -0.124382
vt 0.464079 -0.230743
vt 0.488849 -0.113399
vt 0.110798 -0.136858
vt 0.659685 -0.890752
vt 0.605064 -0.849924
vt 0.904770 -0.769445
vt 0.900703 -0.993315
vt 0.602201 -0.949501
vt 0.658597 -0.893168
vt 0.898724 -0.771860
vt 0.604401 -0.852339
vt 0.894663 -0.995730
vt 0.601538 -0.951917
vt 0.146947 -0.124382
vt 0.110709 -0.256617
vt 0.741378 -0.741527
vt 0.683107 -0.652681
vt 0.779015 -0.652677
vt 0.883148 -0.741509
vt 0.812115 -0.741084
vt 0.870236 -0.652591
vt 0.866673 -0.651502
vt 0.884658 -0.741509
vt 0.682196 -0.740605
vt 0.639891 -0.738338
vt 0.884611 -0.741517
vt 0.763138 -0.741186
vt 0.814178 -0.741084
vt 0.743991 -0.741527
vt 0.776161 -0.651588
vt 0.681000 -0.651591
vt 0.930766 -0.969825
vt 0.939066 -0.793387
vt 0.994410 -0.783073
vt 0.860311 -0.904869
vt 0.933849 -0.967409
vt 0.997993 -0.780657
vt 0.942215 -0.790971
vt 0.866082 -0.902453
vt 0.813547 -0.652592
vt 0.760675 -0.741186
vt 0.662814 -0.856924
vt 0.603263 -0.817720
vt 0.542966 -0.856694
vt 0.738758 -0.741709
vt 0.392041 -0.543606
vt 0.095919 -0.541263
vt 0.399518 -0.674965
vt 0.446977 -0.719706
vt 0.405370 -0.691074
vt 0.440616 -0.961076
vt 0.110054 -0.131748
vt 0.489570 -0.098448
vt 0.489042 -0.110579
vt 0.503401 -0.882752
vt 0.504167 -0.780438
vt 0.535092 -0.880665
vt 0.503500 -0.885167
vt 0.504263 -0.782853
vt 0.534944 -0.883081
vt 0.083928 -0.676905
vt 0.003994 -0.770633
vt 0.067775 -0.848883
vt 0.067890 -0.772318
vt 0.678858 -0.651716
vt 0.682209 -0.741837
vt 0.633028 -0.741633
vt 0.631819 -0.651680
vt 0.602532 -0.817880
vt 0.543261 -0.856476
vt 0.662609 -0.856936
vt 0.543089 -0.856737
vt 0.810424 -0.651502
vt 0.400422 -0.854011
vt 0.400037 -0.772441
vt 0.229969 -0.851606
vt 0.009313 -0.971355
vt 0.229288 -0.992378
vt 0.679099 -0.740605
vt 0.636461 -0.738338
vt 0.736104 -0.741709
vt 0.679111 -0.741837
vt 0.543014 -0.856640
vt 0.662749 -0.856875
vt 0.603099 -0.817720
vt 0.680948 -0.652806
vt 0.633541 -0.652770
vt 0.629545 -0.741633
vt 0.603236 -0.817720
vt 0.662825 -0.856802
vt 0.663153 -0.856502
vt 0.543182 -0.856681
vt 0.746286 -0.323426
vt 0.527282 -0.324999
vt 0.525309 -0.348686
vt 0.520185 -0.008083
vt 0.518211 -0.342888
vt 0.530372 -0.344460
vt 0.731355 -0.350134
vt 0.729382 -0.015329
vt 0.757140 -0.015329
vt 0.895377 -0.336695
vt 0.893602 -0.108143
vt 0.824024 -0.108750
vt 0.825799 -0.337302
vt 0.532345 -0.009655
vt 0.744312 -0.347114
vt 0.759114 -0.350134
vt 0.961227 -0.984701
vt 0.957931 -0.987116
vt 0.067753 -0.847743
vt 0.230046 -0.851542
vt 0.398845 -0.855687
vt 0.109663 -0.243230
vt 0.462192 -0.215698
vt 0.462048 -0.243453
vt 0.110791 -0.258624
vt 0.109878 -0.126612
vt 0.110887 -0.128999
vt 0.110131 -0.119617
vt 0.109782 -0.256238
vt 0.109642 -0.270984
vt 0.014176 -0.720310
vt 0.096866 -0.614134
vt 0.441098 -0.963912
vt 0.387276 -0.405127
vt 0.066698 -0.768150
vt 0.067713 -0.847207
vt 0.073656 -0.680502
vn 0.000000 -1.000000 0.000000
vn -0.000000 1.000000 -0.000000
vn 0.028000 -0.996800 -0.074700
vn -0.242600 0.935300 0.257600
vn 0.005900 -0.996600 -0.082400
vn 0.038600 0.971800 0.232600
vn 0.098200 0.986500 0.130800
vn 0.080400 0.981200 0.175700
vn -0.853600 0.366400 0.370400
vn 0.533400 0.748800 0.393400
vn 0.796900 0.443700 0.409900
vn -0.624100 0.676800 0.390400
vn -0.908100 -0.400900 0.121000
vn 0.778200 0.482300 -0.402100
vn -0.802700 0.417100 0.426100
vn -0.140400 -0.987500 -0.071300
vn -0.886500 0.139600 -0.441300
vn 0.982300 0.019800 0.186100
vn -0.166500 -0.985600 -0.030600
vn 0.717800 0.478100 0.506000
vn 0.272500 -0.962200 0.001200
vn -0.782400 0.411000 0.467900
vn -0.581000 -0.032400 -0.813300
vn 0.056600 0.783100 0.619300
vn 0.863300 -0.156000 -0.479900
vn -0.025900 -0.997200 -0.070500
vn -0.420700 0.305800 -0.854100
vn 0.881900 0.263900 -0.390800
vn 0.032800 0.286300 -0.957600
vn 0.990900 -0.073600 -0.112600
vn -0.957700 -0.271900 -0.094000
vn -0.600300 -0.001900 -0.799800
vn -0.973400 -0.173300 -0.149800
vn 0.983600 -0.167800 -0.065700
vn 0.624400 0.082500 -0.776700
vn -0.422800 0.325600 -0.845700
vn -0.760100 0.261900 0.594700
vn -0.859700 0.284800 -0.423900
vn -0.984000 0.065300 0.165900
vn 0.857200 -0.287900 0.427000
vn -0.053700 -0.015800 0.998400
vn 0.065900 0.937000 -0.343000
vn -0.580700 0.812800 -0.047100
vn 0.597100 0.203500 -0.775900
vn 0.894200 0.234300 -0.381400
vn 0.137600 0.587800 0.797200
vn 0.672400 0.332300 -0.661400
vn -0.680900 0.278500 -0.677400
vn 0.571500 0.717200 0.398700
vn 0.248300 -0.967800 -0.040300
vn -0.579500 -0.761000 0.291800
vn -0.866300 0.498300 0.034800
vn 0.794600 0.546900 0.263600
vn -0.029400 0.114500 0.993000
vn 0.545500 0.568500 -0.615800
vn -0.584600 0.612200 0.532300
vn 0.441800 0.894500 0.068300
vn -0.315000 0.914600 -0.253400
vn -0.650500 0.328500 -0.684800
vn 0.717000 0.694900 -0.054500
vn 0.394900 0.806800 0.439500
vn -0.273400 0.837000 0.473900
vn 0.236600 -0.461100 0.855200
vn -0.590500 0.688500 0.421000
vn -0.218300 -0.463100 0.859000
vn 0.497400 0.757600 0.422600
vn 0.326200 0.000000 0.945300
vn -0.943500 0.000000 0.331300
vn 0.881400 0.000000 -0.472400
vn -0.546600 -0.000000 -0.837400
vn 0.521200 -0.848800 -0.088400
vn -0.545200 0.076300 -0.834900
vn -0.423400 -0.897100 -0.126600
vn 0.562600 0.155400 -0.812000
vn -0.739800 0.456300 0.494500
vn -0.039400 0.739400 0.672100
vn -0.147500 0.983100 -0.108200
vn 0.517600 0.594200 0.615600
vn 0.856100 0.000000 0.516800
vn 0.989700 0.000000 -0.143500
vn 0.051400 0.000000 -0.998700
vn 0.045600 0.000000 0.999000
vn -0.598300 0.000000 0.801300
vn -0.903300 0.000000 -0.429000
vn -0.005100 0.175900 -0.984400
vn -0.019100 -0.998900 0.043000
vn -0.678800 -0.572400 -0.459900
vn 0.135600 -0.989800 -0.043000
vn 0.040300 0.015200 0.999100
vn -0.116600 -0.988900 -0.091800
vn 0.019900 0.180600 -0.983400
vn 0.124700 -0.989700 0.070100
vn -0.909100 0.370100 0.191200
vn 0.008900 -0.996800 -0.079400
vn -0.099000 0.121100 0.987700
vn 0.225600 -0.972300 -0.061500
vn 0.456900 0.645200 0.612400
vn -0.011200 -0.997300 -0.073200
vn 0.287200 0.948500 0.133500
vn -0.211900 0.974400 -0.074600
vn -0.936600 0.203900 0.285100
vn 0.144900 0.979100 -0.142800
vn 0.890100 0.145100 -0.432100
vn -0.340000 0.939000 0.051900
usemtl WALDLAEUFER
s off
f 58/1/1 60/2/1 3/3/1
f 57/4/2 2/5/2 1/6/2
f 77/7/3 6/8/3 4/9/3
f 80/10/4 78/11/4 45/12/4
f 75/13/5 4/9/5 6/8/5
f 34/14/6 40/15/6 78/11/6
f 1/6/2 8/16/2 57/4/2
f 3/3/1 59/17/1 58/1/1
f 21/18/1 11/19/1 65/20/1
f 9/21/7 41/22/7 68/23/7
f 22/18/1 67/20/1 14/19/1
f 12/21/8 66/23/8 35/22/8
f 17/24/9 37/25/9 31/26/9
f 15/27/10 46/28/10 17/24/10
f 20/29/11 30/30/11 39/31/11
f 18/32/12 20/29/12 47/33/12
f 65/20/1 69/34/1 21/18/1
f 68/23/2 10/35/2 9/21/2
f 67/20/1 22/18/1 70/34/1
f 66/23/2 12/21/2 13/35/2
f 72/36/13 49/37/13 25/38/13
f 24/39/14 74/40/14 51/41/14
f 53/42/15 28/43/15 26/44/15
f 73/45/16 28/46/16 27/47/16
f 28/43/17 53/42/17 71/48/17
f 33/49/18 44/50/18 43/51/18
f 62/52/19 30/53/19 18/54/19
f 20/29/20 55/55/20 30/30/20
f 61/56/21 15/57/21 31/58/21
f 17/24/22 31/26/22 56/59/22
f 32/60/23 23/61/23 25/38/23
f 25/62/24 52/63/24 32/64/24
f 33/49/25 27/47/25 44/50/25
f 33/65/26 73/45/26 27/47/26
f 4/66/27 7/67/27 34/68/27
f 4/69/28 34/70/28 5/71/28
f 66/72/29 14/73/29 35/74/29
f 46/28/30 15/27/30 16/75/30
f 61/76/31 31/26/31 37/25/31
f 36/77/32 16/75/32 37/25/32
f 47/33/33 19/78/33 18/32/33
f 62/79/34 39/31/34 30/30/34
f 38/80/35 39/31/35 19/78/35
f 40/81/36 34/68/36 7/67/36
f 75/82/37 63/83/37 79/84/37
f 68/72/38 41/74/38 11/73/38
f 53/42/39 26/44/39 42/85/39
f 43/51/40 73/86/40 33/49/40
f 42/85/41 73/87/41 43/88/41
f 54/89/42 42/90/42 43/91/42
f 44/92/43 54/89/43 43/91/43
f 29/93/44 44/50/44 27/47/44
f 45/94/45 5/71/45 80/95/45
f 64/96/46 6/97/46 77/98/46
f 16/75/47 36/77/47 46/28/47
f 19/78/48 47/33/48 38/80/48
f 51/41/49 48/99/49 24/39/49
f 76/100/50 23/61/50 24/39/50
f 49/37/51 72/101/51 76/102/51
f 50/103/52 51/104/52 52/105/52
f 51/41/53 50/106/53 48/99/53
f 50/106/54 49/107/54 76/108/54
f 51/41/55 74/40/55 32/60/55
f 32/64/56 52/109/56 51/104/56
f 25/64/57 49/110/57 52/109/57
f 52/105/58 49/110/58 50/103/58
f 53/42/59 29/93/59 71/48/59
f 42/90/60 54/89/60 53/111/60
f 29/112/61 53/111/61 54/89/61
f 44/92/62 29/112/62 54/89/62
f 30/30/63 55/55/63 18/32/63
f 18/32/64 55/55/64 20/29/64
f 31/26/65 15/27/65 56/59/65
f 15/27/66 17/24/66 56/59/66
f 2/113/67 57/114/67 3/115/67
f 59/116/68 3/117/68 57/118/68
f 60/119/69 58/120/69 1/121/69
f 8/122/70 1/123/70 58/124/70
f 58/124/70 59/125/70 8/122/70
f 57/118/68 8/126/68 59/116/68
f 3/115/67 60/127/67 2/113/67
f 1/121/69 2/128/69 60/119/69
f 61/56/71 16/129/71 15/57/71
f 61/76/72 37/25/72 16/75/72
f 62/52/73 18/54/73 19/130/73
f 62/79/74 19/78/74 39/31/74
f 6/97/75 63/83/75 75/82/75
f 63/131/76 6/97/76 64/96/76
f 64/132/77 45/133/77 78/11/77
f 77/98/78 45/12/78 64/96/78
f 69/134/79 65/135/79 9/136/79
f 13/137/80 22/138/80 66/139/80
f 14/73/81 66/72/81 22/140/81
f 70/134/82 12/136/82 67/135/82
f 10/137/83 68/139/83 21/138/83
f 11/73/84 21/140/84 68/72/84
f 21/138/83 69/141/83 10/137/83
f 9/136/79 10/142/79 69/134/79
f 22/138/80 13/137/80 70/141/80
f 12/136/82 70/134/82 13/142/82
f 27/47/85 71/48/85 29/93/85
f 71/48/86 27/47/86 28/46/86
f 72/36/87 25/38/87 23/61/87
f 72/101/88 23/61/88 76/100/88
f 26/44/89 73/87/89 42/85/89
f 26/44/90 28/46/90 73/45/90
f 23/61/91 32/60/91 74/40/91
f 74/40/92 24/39/92 23/61/92
f 79/84/93 7/143/93 75/82/93
f 7/144/94 4/9/94 75/13/94
f 48/99/95 50/106/95 76/108/95
f 48/99/96 76/100/96 24/39/96
f 5/145/97 45/12/97 77/98/97
f 5/146/98 77/7/98 4/9/98
f 79/147/99 63/148/99 78/11/99
f 63/148/100 64/132/100 78/11/100
f 40/149/101 7/143/101 79/84/101
f 79/147/102 78/11/102 40/15/102
f 80/95/103 5/71/103 34/70/103
f 34/14/104 78/11/104 80/10/104
