# Blender v2.75 (sub 0) OBJ File: 'Empty.blend'
# www.blender.org
mtllib ITAR_MIL_M.mtl
o ITAR_MIL_M
v 0.053247 -0.192148 -0.110290
v -0.553728 -0.013200 -0.130709
v -0.034381 -0.013832 -0.509481
v -0.018095 -0.145057 0.425746
v 0.318227 -0.154570 0.179051
v 0.068866 -0.161551 0.088142
v 0.553748 -0.161551 0.164940
v 0.499181 -0.161551 0.509461
v 0.014299 -0.161551 0.432663
v -0.200357 -0.188207 0.074404
v 0.160899 -0.082994 -0.112088
v 0.124117 0.155106 -0.122619
v 0.168315 -0.076737 -0.328908
v 0.214684 -0.075400 -0.115229
v 0.221627 0.212701 -0.117108
v 0.214096 -0.064104 -0.331971
v 0.091145 0.192482 -0.314370
v 0.250047 0.227242 -0.312643
v 0.179863 -0.182856 -0.047414
v 0.220117 -0.161780 -0.324613
v 0.246513 -0.051966 -0.167569
v 0.204357 -0.184517 -0.040236
v 0.172394 -0.174301 -0.319123
v 0.128729 -0.064312 -0.166105
v -0.070326 -0.154602 0.183134
v -0.259466 -0.150802 0.289211
v -0.067338 -0.127642 0.320581
v -0.205525 -0.209833 0.043292
v -0.316290 -0.125564 0.209637
v -0.162597 -0.086626 0.094330
v 0.060622 -0.095334 -0.230072
v 0.319699 -0.073868 -0.229673
v -0.473167 -0.200661 -0.103739
v -0.036020 -0.201116 -0.422604
v -0.229622 -0.115564 0.022349
v -0.076694 -0.070501 0.235975
v 0.285752 -0.199289 -0.084482
v 0.102247 -0.213010 -0.080463
v -0.294251 -0.210500 0.227066
v -0.147245 -0.168753 0.106389
v -0.252591 -0.225850 0.241001
v -0.062500 -0.194475 0.269241
v 0.229166 -0.072157 0.278071
v -0.056573 -0.118333 0.002743
v 0.140009 -0.062762 -0.295859
v 0.081907 -0.081677 -0.253616
v 0.239598 -0.048112 -0.297581
v 0.297900 -0.061908 -0.253666
v 0.022825 0.158298 -0.265803
v 0.294836 0.209033 -0.113357
v 0.054546 0.131727 -0.121960
v 0.323278 0.220400 -0.259866
v 0.143131 0.197719 -0.265044
v 0.216052 -0.063236 -0.223578
v 0.196881 0.226081 -0.264319
v 0.161600 -0.058582 -0.228196
v 0.189177 -0.063112 -0.247657
v 0.189120 -0.054964 -0.251254
v -0.256695 -0.201935 0.199616
v -0.324766 -0.227222 0.194039
v 0.095544 -0.148398 0.201957
v 0.068866 -0.196002 0.088142
v 0.014299 -0.196002 0.432663
v 0.499181 -0.196002 0.509461
v 0.553748 -0.196002 0.164940
v -0.341834 -0.134709 0.182312
v -0.263097 -0.127892 0.258474
v 0.036974 -0.087280 -0.330871
v 0.159023 -0.157148 -0.036868
v 0.221876 -0.150945 -0.041734
v 0.122018 -0.207776 -0.290299
v 0.272756 -0.190504 -0.294728
v 0.120498 -0.082810 -0.330944
v 0.262330 -0.065027 -0.332376
v 0.117049 -0.092806 -0.115157
v 0.259409 -0.080431 -0.116899
v 0.108000 -0.197071 0.345413
v -0.229541 -0.177591 0.019510
v -0.347156 -0.197059 0.172617
v -0.074901 -0.108254 0.186712
v -0.261417 -0.159117 0.203410
v -0.292056 -0.159298 0.232753
v -0.254312 -0.197794 0.284230
v -0.165155 -0.204499 0.086077
v -0.064344 -0.196365 0.224473
v -0.400617 -0.086766 -0.011659
v -0.377513 -0.046053 -0.215503
v -0.168956 -0.046400 -0.367509
v -0.223770 -0.026679 -0.226885
v -0.252346 -0.172051 0.066756
v 0.062243 -0.175496 -0.161675
v -0.138981 -0.046290 -0.114086
v -0.073331 -0.084255 0.282965
v -0.202297 -0.088054 0.052435
v 0.117649 -0.078123 0.146796
v -0.149000 -0.118240 0.106922
v -0.064217 -0.161846 0.307807
v -0.244416 -0.218109 -0.248636
v 0.029318 -0.198910 0.189235
v 0.073696 0.163517 -0.222637
v 0.271456 0.218538 -0.217384
vt 0.125176 -0.252214
vt 0.009574 -0.251559
vt 0.141245 -0.426122
vt 0.336231 -0.251722
vt 0.348067 -0.441051
vt 0.490384 -0.354507
vt 0.247211 -0.826611
vt 0.397218 -0.667744
vt 0.250636 -0.501286
vt 0.004545 -0.826618
vt 0.158721 -0.667899
vt 0.004861 -0.501286
vt 0.503256 -0.553140
vt 0.780935 -0.553140
vt 0.787298 -0.128019
vt 0.993189 -0.131643
vt 0.990774 -0.554348
vt 0.786807 -0.554348
vt 0.509619 -0.128019
vt 0.789222 -0.131643
vt 0.010190 -0.153774
vt 0.141245 -0.085906
vt 0.490477 -0.152825
vt 0.495450 -0.502524
vt 0.113522 -0.501285
vt 0.870743 -0.562720
vt 0.731685 -0.765676
vt 0.883694 -0.766580
vt 0.731339 -0.562809
vt 0.778080 -0.766598
vt 0.731694 -0.766908
vt 0.868088 -0.561630
vt 0.884818 -0.766580
vt 0.733992 -0.765676
vt 0.729769 -0.561720
vt 0.734001 -0.766908
vt 0.780027 -0.766598
vt 0.729731 -0.562934
vt 0.802787 -0.562805
vt 0.728173 -0.561845
vt 0.800661 -0.561716
vt 0.693172 -0.887786
vt 0.916345 -0.779677
vt 0.629767 -0.846957
vt 0.915980 -0.998549
vt 0.629866 -0.924850
vt 0.694445 -0.885370
vt 0.630542 -0.844542
vt 0.919368 -0.777261
vt 0.919000 -0.996134
vt 0.630642 -0.922434
vt 0.797722 -0.052949
vt 0.797629 -0.076200
vt 0.540766 -0.065655
vt 0.797733 -0.061448
vt 0.797829 -0.039226
vt 0.540767 -0.052011
vt 0.792456 -0.766257
vt 0.774151 -0.766780
vt 0.699921 -0.763409
vt 0.794291 -0.766257
vt 0.776128 -0.766780
vt 0.702476 -0.763409
vt 0.250135 -0.165603
vt 0.250134 -0.342955
vt 0.348237 -0.062669
vt 0.048616 -0.934761
vt 0.136724 -0.926591
vt 0.082235 -0.993916
vt 0.540496 -0.107716
vt 0.797404 -0.111002
vt 0.797514 -0.091390
vt 0.797822 -0.030567
vt 0.928009 -0.982511
vt 0.936392 -0.806072
vt 0.992287 -0.795759
vt 0.898805 -0.907688
vt 0.931124 -0.980095
vt 0.995905 -0.793343
vt 0.939573 -0.803657
vt 0.901691 -0.905273
vt 0.541036 -0.022184
vt 0.541119 -0.020083
vt 0.797991 -0.012898
vt 0.540653 -0.081773
vt 0.195055 -0.941490
vt 0.258467 -0.861140
vt 0.322996 -0.941734
vt 0.010154 -0.358718
vt 0.516038 -0.881313
vt 0.516441 -0.778013
vt 0.553114 -0.879226
vt 0.516153 -0.883728
vt 0.516553 -0.780428
vt 0.552941 -0.881642
vt 0.928200 -0.561885
vt 0.988112 -0.561742
vt 0.960289 -0.641886
vt 0.828512 -0.562720
vt 0.697364 -0.766704
vt 0.693131 -0.561809
vt 0.959941 -0.641727
vt 0.928333 -0.562068
vt 0.988004 -0.561608
vt 0.694414 -0.562898
vt 0.694769 -0.766704
vt 0.928247 -0.561807
vt 0.826185 -0.561630
vt 0.830777 -0.766154
vt 0.832313 -0.766154
vt 0.988276 -0.562042
vt 0.654285 -0.941777
vt 0.684116 -0.835679
vt 0.573218 -0.859079
vt 0.194229 -0.942452
vt 0.322872 -0.939619
vt 0.828942 -0.556763
vt 0.831358 -0.136473
vt 0.792080 -0.131642
vt 0.571274 -0.228695
vt 0.571274 -0.331691
vt 0.712917 -0.331691
vt 0.712917 -0.228695
vt 0.786946 -0.548825
vt 0.791335 -0.132335
vt 0.821351 -0.132335
vt 0.995852 -0.419890
vt 0.760020 -0.419890
vt 0.763967 -0.490738
vt 0.816962 -0.548825
vt 0.999799 -0.490738
vt 0.784833 -0.556763
vt 0.540553 -0.096023
vt 0.578220 -0.914405
vt 0.220023 -0.251128
vt 0.038802 -0.922923
vt 0.081100 -0.864659
vt 0.958774 -0.997387
vt 0.955445 -0.999802
vt 0.402276 -0.841746
vt 0.496369 -0.827836
vt 0.697287 -0.903291
vt 0.621110 -0.817707
vt 0.081099 -0.864645
vt 0.250190 -0.014497
vt 0.249699 -0.014338
vt 0.249699 -0.494590
vt 0.250187 -0.494359
vt 0.446388 -0.138800
vt 0.047458 -0.139736
vt 0.446291 -0.367683
vt 0.047458 -0.372292
vt 0.797479 -0.099367
vt 0.164905 -0.841700
vt 0.797720 -0.053023
vt 0.988106 -0.561620
vt 0.928293 -0.561863
vn 0.458700 0.863700 0.209000
vn 0.084900 -0.996400 0.004400
vn 0.151300 -0.988400 -0.010200
vn -0.338800 0.938900 0.060400
vn 0.000000 1.000000 0.000000
vn 0.000000 -1.000000 -0.000000
vn 0.032100 0.682700 0.730000
vn 0.047000 -0.995200 0.085700
vn -0.033900 -0.999100 -0.025300
vn -0.357600 0.917000 0.176600
vn 0.830700 0.306000 0.465100
vn -0.871700 -0.229500 0.433100
vn -0.882900 0.165200 0.439500
vn 0.878900 -0.113200 0.463300
vn 0.971500 0.157900 0.176900
vn -0.974100 -0.118000 0.193000
vn -0.985500 0.024800 0.167900
vn 0.981500 0.007700 0.191100
vn 0.789800 0.447100 0.419800
vn -0.616200 0.679400 0.398300
vn -0.847700 0.369900 0.380200
vn 0.525700 0.750400 0.400700
vn -0.198600 0.626200 0.753900
vn 0.112300 -0.690900 -0.714200
vn -0.159800 0.980100 0.118000
vn 0.137100 -0.990500 -0.005800
vn -0.832100 -0.197000 -0.518400
vn 0.133400 -0.990100 -0.043700
vn 0.869200 -0.060900 -0.490800
vn -0.025400 -0.997100 -0.071600
vn -0.575500 -0.214400 -0.789200
vn -0.566600 -0.268800 0.778900
vn -0.607500 -0.254000 -0.752600
vn 0.894200 -0.328000 -0.304600
vn -0.819800 0.025100 -0.572100
vn 0.723600 0.033300 -0.689400
vn -0.302100 0.751300 -0.586800
vn 0.993800 0.103300 -0.042000
vn -0.163900 -0.986000 -0.031100
vn 0.709000 0.480100 0.516500
vn 0.268300 -0.963300 0.001200
vn -0.774500 0.413600 0.478700
vn 0.649300 -0.111400 0.752400
vn -0.792600 0.159200 -0.588600
vn 0.658000 0.014900 0.752900
vn 0.724600 0.030700 -0.688500
vn 0.057100 -0.836400 0.545100
vn -0.270500 0.833900 -0.481100
vn 0.063700 -0.760500 0.646200
vn 0.994000 0.100600 -0.043200
vn 0.390600 -0.895900 0.211700
vn 0.380200 0.806400 -0.452900
vn 0.152400 0.888700 -0.432300
vn 0.708400 0.656300 0.259700
vn 0.990400 -0.074800 -0.116300
vn -0.956300 -0.276000 -0.097000
vn -0.587700 -0.001900 -0.809100
vn -0.972200 -0.176000 -0.154600
vn 0.983000 -0.170500 -0.067900
vn 0.612000 0.082200 -0.786600
vn -0.295300 0.925800 0.236100
vn -0.575300 -0.012100 -0.817800
vn -0.051500 -0.005900 0.998700
vn 0.045800 0.995700 0.080700
vn -0.000600 0.030100 0.999500
vn -0.307800 0.922500 0.232800
vn 0.032800 0.996000 0.083600
vn 0.587700 0.079100 -0.805200
vn 0.658100 0.227400 -0.717800
vn -0.310800 0.921200 0.234100
vn 0.887000 0.180300 -0.425100
vn 0.244500 -0.968800 -0.041000
vn -0.668400 0.131100 -0.732200
vn 0.048900 0.995400 0.082200
vn -0.889900 0.052800 -0.453000
vn -0.138200 -0.987800 -0.072500
vn 0.661500 0.332300 -0.672300
vn -0.669700 0.278500 -0.688500
vn 0.090100 -0.858400 -0.505000
vn -0.993100 -0.112500 0.033500
vn 0.279200 -0.935700 0.215800
vn -0.722100 -0.045700 0.690300
vn 0.047600 -0.746300 0.663900
vn 0.058800 0.946900 0.316200
vn 0.156400 0.000000 -0.987700
vn -0.987700 0.000000 -0.156400
vn -0.156400 0.000000 0.987700
vn 0.987700 0.000000 0.156400
vn -0.326400 0.945200 -0.011200
vn -0.252200 0.761400 0.597300
vn 0.204200 0.977200 -0.057400
vn 0.875200 -0.209900 -0.435900
vn -0.212300 -0.457900 0.863300
vn 0.489800 0.758400 0.430000
vn 0.230200 -0.456100 0.859700
vn -0.582400 0.690400 0.429000
vn 0.514900 -0.852500 -0.090200
vn -0.532700 0.075800 -0.842900
vn -0.417600 -0.899400 -0.129000
vn 0.550200 0.154500 -0.820600
vn 0.034400 0.063700 -0.997400
vn 0.122700 -0.989900 0.071300
vn -0.007100 0.067100 -0.997700
vn -0.018800 -0.998900 0.043700
vn -0.076900 0.032200 0.996500
vn 0.222100 -0.973000 -0.062600
vn 0.037900 0.005600 0.999300
vn -0.114700 -0.989000 -0.093300
vn -0.236600 -0.941900 0.238400
vn 0.496800 0.834000 0.239800
vn -0.498400 -0.723500 -0.477700
vn 0.724900 0.032400 -0.688100
vn -0.506200 -0.716600 -0.479900
vn -0.104600 0.066300 -0.992300
vn 0.994000 0.101300 -0.041500
vn -0.109400 0.075800 -0.991100
vn 0.320900 0.681300 0.657900
vn -0.145900 -0.120100 0.982000
vn 0.602300 -0.600600 0.525900
vn 0.720700 0.032300 -0.692400
vn 0.157700 -0.986900 0.035200
vn 0.993300 0.105900 -0.045400
vn 0.059000 0.867700 0.493500
vn -0.655600 -0.176100 0.734300
vn -0.458600 -0.316500 -0.830400
vn 0.279400 0.935000 0.218400
vn 0.126100 0.934200 0.333800
vn -0.651900 -0.314400 -0.690100
vn -0.136600 0.972300 -0.189600
vn -0.109600 0.977000 0.182700
vn -0.320900 -0.774300 0.545500
vn 0.169200 0.810200 0.561200
vn 0.601000 -0.785200 -0.149200
vn 0.487700 0.801800 0.345200
vn -0.065200 0.973700 0.218300
vn 0.226100 0.974100 -0.000600
vn -0.249800 0.924300 0.288400
vn -0.520700 0.810500 -0.268200
vn 0.382200 0.849600 -0.363300
vn -0.207100 0.969400 0.131800
vn 0.488800 0.496100 0.717600
vn 0.724700 0.037700 -0.688000
vn -0.049000 -0.353400 0.934200
vn 0.993800 0.104700 -0.037500
vn -0.524700 -0.316500 -0.790300
vn -0.016200 -0.995400 0.094300
vn -0.069900 -0.996400 0.046900
vn 0.149200 -0.986800 -0.063600
vn -0.312400 0.921300 0.231500
vn 0.050600 0.995500 0.079600
usemtl HUM_WACHE_V2
s off
f 92/1/1 44/2/1 68/3/1
f 98/4/2 34/5/2 1/6/2
f 5/7/3 99/8/3 1/9/3
f 4/10/4 95/11/4 10/12/4
f 8/13/5 7/14/5 6/15/5
f 62/16/6 65/17/6 64/18/6
f 6/15/5 9/19/5 8/13/5
f 64/18/6 63/20/6 62/16/6
f 10/21/7 44/2/7 86/22/7
f 1/6/8 10/23/8 98/4/8
f 1/9/9 99/8/9 10/24/9
f 10/12/10 95/11/10 44/25/10
f 53/26/11 11/27/11 54/28/11
f 51/29/12 31/30/12 75/31/12
f 55/32/13 56/33/13 14/34/13
f 50/35/14 76/36/14 32/37/14
f 53/26/15 12/38/15 11/27/15
f 31/30/16 51/29/16 49/39/16
f 55/32/17 14/34/17 15/40/17
f 32/37/18 52/41/18 50/35/18
f 21/42/19 37/43/19 48/44/19
f 19/45/20 21/42/20 58/46/20
f 24/47/21 46/48/21 38/49/21
f 22/50/22 57/51/22 24/47/22
f 27/52/23 93/53/23 26/54/23
f 25/55/24 85/56/24 59/57/24
f 30/52/25 94/53/25 29/54/25
f 28/55/26 84/56/26 60/57/26
f 31/30/27 49/39/27 73/58/27
f 31/59/28 73/58/28 75/60/28
f 32/37/29 74/61/29 52/41/29
f 32/62/30 76/63/30 74/61/30
f 87/64/31 88/65/31 33/66/31
f 86/67/32 33/68/32 90/69/32
f 34/5/33 98/4/33 88/65/33
f 91/69/34 34/68/34 68/67/34
f 66/70/35 35/71/35 78/72/35
f 94/53/36 96/73/36 78/72/36
f 67/70/37 36/71/37 80/72/37
f 93/53/38 97/73/38 80/72/38
f 72/74/39 37/75/39 19/76/39
f 21/42/40 70/77/40 37/43/40
f 71/78/41 22/79/41 38/80/41
f 24/47/42 38/49/42 69/81/42
f 82/82/43 39/83/43 40/84/43
f 66/70/44 78/72/44 79/85/44
f 40/84/45 96/73/45 82/82/45
f 84/56/46 78/72/46 96/73/46
f 83/82/47 41/83/47 42/84/47
f 67/70/48 80/72/48 81/85/48
f 42/84/49 97/73/49 83/82/49
f 85/56/50 80/72/50 97/73/50
f 4/86/51 61/87/51 43/88/51
f 95/11/52 5/7/52 1/9/52
f 95/11/53 1/9/53 44/25/53
f 44/2/54 1/89/54 68/3/54
f 57/51/55 22/50/55 23/90/55
f 71/91/56 38/49/56 46/48/56
f 45/92/57 23/90/57 46/48/57
f 58/46/58 20/93/58 19/45/58
f 72/94/59 48/44/59 37/43/59
f 47/95/60 48/44/60 20/93/60
f 49/96/61 51/97/61 100/98/61
f 17/99/62 73/58/62 49/39/62
f 15/40/63 76/100/63 50/101/63
f 101/102/64 15/103/64 50/104/64
f 12/38/65 51/105/65 75/106/65
f 100/98/66 51/97/66 12/96/66
f 52/107/67 101/102/67 50/104/67
f 18/108/68 52/41/68 74/61/68
f 53/26/69 13/109/69 17/99/69
f 12/96/70 53/97/70 100/98/70
f 54/28/71 13/109/71 53/26/71
f 75/60/72 73/58/72 54/28/72
f 55/32/73 18/108/73 16/110/73
f 15/103/74 101/102/74 55/111/74
f 56/33/75 55/32/75 16/110/75
f 76/63/76 56/33/76 74/61/76
f 23/90/77 45/92/77 57/51/77
f 20/93/78 58/46/78 47/95/78
f 41/83/79 59/57/79 85/56/79
f 81/112/80 41/113/80 26/114/80
f 39/83/81 60/57/81 84/56/81
f 79/112/82 39/113/82 29/114/82
f 5/115/83 43/88/83 61/87/83
f 5/115/84 61/87/84 77/116/84
f 65/117/85 62/118/85 6/119/85
f 9/120/86 6/121/86 62/122/86
f 62/122/86 63/123/86 9/120/86
f 8/124/87 9/125/87 63/126/87
f 7/127/88 8/128/88 64/129/88
f 63/126/87 64/130/87 8/124/87
f 64/129/88 65/131/88 7/127/88
f 6/119/85 7/132/85 65/117/85
f 94/53/89 66/133/89 29/54/89
f 79/112/82 29/114/82 66/134/82
f 93/53/90 67/133/90 26/54/90
f 81/112/80 26/114/80 67/134/80
f 89/135/91 68/3/91 88/65/91
f 68/136/92 34/68/92 3/137/92
f 38/49/93 22/50/93 69/81/93
f 22/50/94 24/47/94 69/81/94
f 37/43/95 70/77/95 19/45/95
f 19/45/96 70/77/96 21/42/96
f 71/78/97 23/138/97 22/79/97
f 71/91/98 46/48/98 23/90/98
f 72/74/99 19/76/99 20/139/99
f 72/94/100 20/93/100 48/44/100
f 73/58/101 17/99/101 13/109/101
f 13/109/102 54/28/102 73/58/102
f 74/61/103 16/110/103 18/108/103
f 16/110/104 74/61/104 56/33/104
f 11/27/105 12/38/105 75/106/105
f 11/27/106 75/60/106 54/28/106
f 14/34/107 76/100/107 15/40/107
f 14/34/108 56/33/108 76/63/108
f 10/24/109 77/140/109 4/141/109
f 4/86/110 77/116/110 61/87/110
f 78/72/111 28/55/111 60/57/111
f 78/72/112 84/56/112 28/55/112
f 79/85/113 78/72/113 60/57/113
f 39/113/82 79/112/82 60/142/82
f 80/72/114 25/55/114 59/57/114
f 80/72/115 85/56/115 25/55/115
f 81/85/116 80/72/116 59/57/116
f 41/113/80 81/112/80 59/142/80
f 82/82/117 30/52/117 29/54/117
f 29/114/82 39/113/82 82/143/82
f 83/82/118 27/52/118 26/54/118
f 26/114/80 41/113/80 83/143/80
f 40/84/119 39/83/119 84/56/119
f 84/56/120 96/73/120 40/84/120
f 42/84/121 41/83/121 85/56/121
f 85/56/122 97/73/122 42/84/122
f 44/2/123 92/1/123 86/22/123
f 33/68/124 86/136/124 2/144/124
f 2/145/125 87/64/125 33/66/125
f 87/64/126 2/146/126 86/22/126
f 3/147/127 88/65/127 68/3/127
f 88/65/128 3/148/128 34/5/128
f 87/64/129 89/135/129 88/65/129
f 86/22/130 89/135/130 87/64/130
f 90/149/131 33/66/131 10/23/131
f 10/21/132 86/22/132 90/150/132
f 34/5/133 91/151/133 1/6/133
f 68/3/134 1/89/134 91/152/134
f 86/22/135 92/1/135 89/135/135
f 92/1/136 68/3/136 89/135/136
f 67/133/137 93/53/137 36/153/137
f 93/53/115 80/72/115 36/71/115
f 66/133/138 94/53/138 35/153/138
f 94/53/112 78/72/112 35/71/112
f 43/154/139 5/7/139 95/11/139
f 4/10/140 43/154/140 95/11/140
f 96/73/141 30/155/141 82/82/141
f 96/73/142 94/53/142 30/52/142
f 97/73/143 27/155/143 83/82/143
f 97/73/144 93/53/144 27/52/144
f 98/4/145 33/66/145 88/65/145
f 98/4/146 10/23/146 33/66/146
f 10/24/147 99/8/147 77/140/147
f 99/8/148 5/7/148 77/140/148
f 17/107/149 100/98/149 53/97/149
f 49/156/61 100/98/61 17/107/61
f 18/157/150 55/111/150 101/102/150
f 52/107/67 18/157/67 101/102/67
