# Blender v2.75 (sub 0) OBJ File: 'Empty.blend'
# www.blender.org
mtllib ITAR_VLK_M.mtl
o ITAR_VLK_M
v 0.043515 -0.095880 -0.532861
v 0.264824 -0.136333 -0.018430
v -0.434811 -0.118283 -0.305311
v -0.213501 -0.158736 0.209120
v 0.059234 -0.091060 0.178750
v 0.046989 -0.091060 0.532841
v -0.279970 -0.091060 0.138182
v -0.372982 -0.127124 0.440132
v 0.271368 -0.103086 -0.052116
v 0.317248 -0.079064 -0.368065
v 0.347335 0.046101 -0.189068
v 0.299286 -0.104979 -0.043935
v 0.262854 -0.093335 -0.361808
v 0.213086 0.032030 -0.187399
v 0.203704 0.010945 -0.375282
v 0.312616 0.033256 -0.252907
v 0.092377 0.080174 -0.301034
v 0.311056 0.019391 -0.129412
v 0.365362 0.031214 -0.376914
v 0.250552 0.038561 -0.258170
v 0.351362 0.158756 -0.354422
v 0.182902 -0.137455 -0.089786
v 0.392059 -0.121815 -0.094367
v 0.031298 0.009992 -0.488945
v 0.170247 0.119137 -0.356391
v 0.430752 0.021138 -0.259854
v -0.406842 -0.022067 -0.282254
v 0.209010 0.001836 -0.108368
v 0.339452 0.050495 -0.337255
v 0.405905 0.034770 -0.287200
v 0.225942 0.033796 -0.335292
v 0.159718 0.012237 -0.287143
v 0.318970 0.142182 -0.131554
v 0.402413 0.138001 -0.127278
v 0.434831 0.150958 -0.294268
v 0.281919 0.042684 -0.284452
v 0.281983 0.033397 -0.280352
v 0.249753 0.010736 -0.125831
v 0.128532 0.049889 -0.137083
v 0.207829 0.076535 -0.137834
v 0.229501 0.125106 -0.300169
v 0.178522 0.034502 -0.251834
v 0.290765 0.157432 -0.299343
v 0.354305 0.097215 -0.245847
v -0.225831 -0.058843 0.098495
v 0.023454 -0.007814 0.056954
v 0.247614 -0.073784 -0.040096
v 0.319253 -0.066714 -0.045642
v -0.279970 -0.127124 0.138182
v -0.372982 -0.091060 0.440132
v 0.059234 -0.127124 0.178750
v 0.046989 -0.127124 0.532841
v 0.377246 -0.111803 -0.334003
v 0.205436 -0.131489 -0.328955
v 0.135457 -0.003329 -0.260309
v 0.310386 0.032267 -0.376453
v -0.395360 -0.135536 -0.084397
v 0.362034 0.013657 -0.131315
v 0.258205 0.017868 -0.372961
v 0.070725 -0.146383 0.150956
v 0.199773 -0.000447 -0.129329
v -0.102530 -0.054625 -0.196717
v -0.337642 -0.001309 -0.102581
v 0.119394 0.031454 -0.300285
vt 0.096349 -0.570490
vt 0.388488 -0.644436
vt 0.095654 -0.464368
vt 0.404498 -0.718783
vt 0.075671 -0.710320
vt 0.230447 -0.787441
vt 0.263005 -0.462210
vt 0.398856 -0.792293
vt 0.398845 -0.868999
vt 0.527930 -0.493613
vt 0.737066 -0.492041
vt 0.737066 -0.175354
vt 0.782329 -0.175354
vt 0.782329 -0.514052
vt 0.975866 -0.514052
vt 0.975866 -0.175354
vt 0.527930 -0.176927
vt 0.658597 -0.893168
vt 0.898724 -0.771860
vt 0.604401 -0.852339
vt 0.894663 -0.995730
vt 0.601538 -0.951917
vt 0.659685 -0.890752
vt 0.605064 -0.849924
vt 0.904770 -0.769445
vt 0.900703 -0.993315
vt 0.602201 -0.949501
vt 0.741378 -0.741527
vt 0.779015 -0.652677
vt 0.760675 -0.741186
vt 0.883148 -0.741509
vt 0.812115 -0.741084
vt 0.870236 -0.652591
vt 0.866673 -0.651502
vt 0.884658 -0.741509
vt 0.682196 -0.740605
vt 0.639891 -0.738338
vt 0.884611 -0.741517
vt 0.763138 -0.741186
vt 0.814178 -0.741084
vt 0.743991 -0.741527
vt 0.776161 -0.651588
vt 0.681000 -0.651591
vt 0.933849 -0.967409
vt 0.997993 -0.780657
vt 0.942215 -0.790971
vt 0.866082 -0.902453
vt 0.930766 -0.969825
vt 0.939066 -0.793387
vt 0.994410 -0.783073
vt 0.860311 -0.904869
vt 0.392041 -0.585289
vt 0.095919 -0.583159
vt 0.399518 -0.704706
vt 0.446977 -0.745380
vt 0.405370 -0.719351
vt 0.440616 -0.964808
vt 0.813547 -0.652592
vt 0.662814 -0.856924
vt 0.603263 -0.817720
vt 0.542966 -0.856694
vt 0.738758 -0.741709
vt 0.083928 -0.706470
vt 0.003994 -0.791677
vt 0.067775 -0.862813
vt 0.067890 -0.793209
vt 0.400422 -0.867476
vt 0.400037 -0.793321
vt 0.229969 -0.865289
vt 0.009313 -0.974152
vt 0.229288 -0.993264
vt 0.503500 -0.885167
vt 0.504263 -0.782853
vt 0.534944 -0.883081
vt 0.503401 -0.882752
vt 0.504167 -0.780438
vt 0.535092 -0.880665
vt 0.678858 -0.651716
vt 0.682209 -0.741837
vt 0.633028 -0.741633
vt 0.631819 -0.651680
vt 0.602532 -0.817880
vt 0.543261 -0.856476
vt 0.662609 -0.856936
vt 0.543089 -0.856737
vt 0.810424 -0.651502
vt 0.679099 -0.740605
vt 0.636461 -0.738338
vt 0.736104 -0.741709
vt 0.543014 -0.856640
vt 0.662749 -0.856875
vt 0.603099 -0.817720
vt 0.680948 -0.652806
vt 0.633541 -0.652770
vt 0.629545 -0.741633
vt 0.603236 -0.817720
vt 0.662825 -0.856802
vt 0.663153 -0.856502
vt 0.543182 -0.856681
vt 0.067713 -0.861290
vt 0.230046 -0.865231
vt 0.399462 -0.868650
vt 0.816778 -0.275416
vt 0.818553 -0.503969
vt 0.888131 -0.503362
vt 0.523125 -0.511127
vt 0.525099 -0.176322
vt 0.512938 -0.174750
vt 0.739039 -0.490093
vt 0.520036 -0.491665
vt 0.518063 -0.515353
vt 0.510965 -0.509555
vt 0.724109 -0.516801
vt 0.722135 -0.181996
vt 0.749894 -0.181996
vt 0.886356 -0.274809
vt 0.737066 -0.513780
vt 0.751868 -0.516801
vt 0.957931 -0.987116
vt 0.961227 -0.984701
vt 0.683107 -0.652681
vt 0.679111 -0.741837
vt 0.014176 -0.745929
vt 0.096866 -0.649405
vt 0.441098 -0.967385
vt 0.387276 -0.459399
vt 0.066698 -0.789420
vt 0.073656 -0.709740
vn 0.005900 -0.996600 -0.082400
vn 0.038600 0.971800 0.232600
vn 0.028000 -0.996800 -0.074700
vn -0.242600 0.935300 0.257600
vn -0.000000 1.000000 -0.000000
vn 0.000000 -1.000000 0.000000
vn 0.789800 0.447100 0.419800
vn -0.616200 0.679400 0.398300
vn -0.847700 0.369900 0.380200
vn 0.525700 0.750400 0.400700
vn -0.670400 -0.574700 -0.469300
vn 0.771000 0.485800 -0.411700
vn -0.795600 0.420300 0.436400
vn -0.138200 -0.987800 -0.072500
vn -0.880400 0.141000 -0.452800
vn 0.981200 0.020100 0.192000
vn 0.268300 -0.963300 0.001200
vn -0.774500 0.413600 0.478700
vn -0.163900 -0.986000 -0.031100
vn 0.709000 0.480100 0.516500
vn -0.420700 0.305800 -0.854100
vn 0.895400 0.254800 -0.365200
vn -0.568300 -0.032200 -0.822200
vn 0.055300 0.778200 0.625600
vn 0.856300 -0.157300 -0.491900
vn -0.025400 -0.997100 -0.071600
vn -0.422800 0.325600 -0.845700
vn -0.750500 0.394500 0.530200
vn 0.907300 0.100900 -0.408100
vn 0.137600 0.587800 0.797200
vn -0.972200 -0.176000 -0.154600
vn 0.983000 -0.170500 -0.067900
vn 0.612000 0.082200 -0.786600
vn 0.990400 -0.074800 -0.116300
vn -0.956300 -0.276000 -0.097000
vn -0.587700 -0.001900 -0.809100
vn -0.983000 0.066300 0.171300
vn 0.850800 -0.290500 0.437900
vn -0.051900 -0.015500 0.998500
vn 0.064700 0.935300 -0.348000
vn -0.574300 0.817200 -0.048100
vn 0.584900 0.202700 -0.785300
vn -0.669700 0.278500 -0.688500
vn 0.661500 0.332300 -0.672300
vn 0.563700 0.719100 0.406300
vn 0.244500 -0.968800 -0.041000
vn 0.133400 -0.990100 -0.043700
vn -0.862700 0.504500 0.035800
vn 0.788800 0.551900 0.270400
vn -0.028500 0.112700 0.993200
vn 0.535800 0.567700 -0.625000
vn -0.575600 0.612700 0.541500
vn 0.436000 0.897300 0.069600
vn -0.310000 0.915100 -0.257700
vn -0.639300 0.328200 -0.695400
vn 0.711200 0.700800 -0.055900
vn 0.388200 0.806200 0.446500
vn -0.268300 0.834900 0.480500
vn -0.739800 0.456300 0.494500
vn -0.039400 0.739400 0.672100
vn -0.147500 0.983100 -0.108200
vn 0.517600 0.594200 0.615600
vn -0.212300 -0.457900 0.863300
vn 0.489800 0.758400 0.430000
vn 0.230200 -0.456100 0.859700
vn -0.582400 0.690400 0.429000
vn 0.118800 -0.000000 -0.992900
vn -0.955700 -0.000000 -0.294400
vn -0.215600 0.000000 0.976500
vn 0.999400 -0.000000 0.034600
vn -0.417600 -0.899400 -0.129000
vn 0.550200 0.154500 -0.820600
vn 0.514900 -0.852500 -0.090200
vn -0.532700 0.075800 -0.842900
vn -0.905200 -0.406300 0.124600
vn -0.572300 -0.764100 0.297800
vn -0.004900 0.173100 -0.984900
vn -0.018800 -0.998900 0.043700
vn -0.892000 0.409500 0.191300
vn 0.008900 -0.996800 -0.079400
vn 0.039000 0.014900 0.999100
vn -0.114700 -0.989000 -0.093300
vn 0.019300 0.177800 -0.983900
vn 0.122700 -0.989900 0.071300
vn 0.505600 0.604800 0.615300
vn -0.012200 -0.997200 -0.073200
vn -0.095800 0.119200 0.988200
vn 0.222100 -0.973000 -0.062600
vn 0.266800 0.955600 0.125100
vn -0.211900 0.974400 -0.074600
vn -0.923600 0.188400 0.333900
vn 0.152200 0.973400 -0.171100
vn 0.901600 0.062300 -0.428100
vn -0.340000 0.939000 0.051900
usemtl BUERGER1
s off
f 57/1/1 1/2/1 4/3/1
f 24/4/2 27/5/2 62/6/2
f 60/7/3 4/3/3 1/2/3
f 64/8/4 62/6/4 28/9/4
f 50/10/5 6/11/5 5/12/5
f 51/13/6 52/14/6 8/15/6
f 8/15/6 49/16/6 51/13/6
f 5/12/5 7/17/5 50/10/5
f 11/18/7 23/19/7 30/20/7
f 9/21/8 11/18/8 36/22/8
f 14/23/9 32/24/9 22/25/9
f 12/26/10 37/27/10 14/23/10
f 55/28/11 17/29/11 15/30/11
f 16/31/12 59/32/12 41/33/12
f 43/34/13 20/35/13 18/36/13
f 58/37/14 20/38/14 19/39/14
f 20/35/15 43/34/15 56/40/15
f 26/41/16 35/42/16 34/43/16
f 54/44/17 12/45/17 22/46/17
f 14/23/18 22/25/18 47/47/18
f 53/48/19 23/49/19 9/50/19
f 11/18/20 48/51/20 23/19/20
f 1/52/21 3/53/21 24/54/21
f 1/55/22 24/56/22 2/57/22
f 25/58/23 15/30/23 17/29/23
f 17/59/24 42/60/24 25/61/24
f 26/41/25 19/39/25 35/42/25
f 26/62/26 58/37/26 19/39/26
f 27/63/27 24/54/27 3/53/27
f 57/64/28 45/65/28 63/66/28
f 28/67/29 2/57/29 64/68/29
f 46/69/30 4/70/30 60/71/30
f 36/22/31 10/72/31 9/21/31
f 53/73/32 30/20/32 23/19/32
f 29/74/33 30/20/33 10/72/33
f 37/27/34 12/26/34 13/75/34
f 54/76/35 22/25/35 32/24/35
f 31/77/36 13/75/36 32/24/36
f 43/34/37 18/36/37 33/78/37
f 34/43/38 58/79/38 26/41/38
f 33/78/39 58/80/39 34/81/39
f 44/82/40 33/83/40 34/84/40
f 35/85/41 44/82/41 34/84/41
f 21/86/42 35/42/42 19/39/42
f 10/72/43 36/22/43 29/74/43
f 13/75/44 31/77/44 37/27/44
f 41/33/45 38/87/45 16/31/45
f 61/88/46 15/30/46 16/31/46
f 55/89/47 15/30/47 61/88/47
f 40/90/48 41/91/48 42/92/48
f 41/33/49 40/93/49 38/87/49
f 40/93/50 39/94/50 61/95/50
f 41/33/51 59/32/51 25/58/51
f 25/61/52 42/96/52 41/91/52
f 17/61/53 39/97/53 42/96/53
f 42/92/54 39/97/54 40/90/54
f 43/34/55 21/86/55 56/40/55
f 33/83/56 44/82/56 43/98/56
f 21/99/57 43/98/57 44/82/57
f 35/85/58 21/99/58 44/82/58
f 4/70/59 45/65/59 57/64/59
f 45/100/60 4/70/60 46/69/60
f 46/101/61 28/9/61 62/6/61
f 60/71/62 28/102/62 46/69/62
f 22/25/63 12/26/63 47/47/63
f 12/26/64 14/23/64 47/47/64
f 23/19/65 48/51/65 9/21/65
f 9/21/66 48/51/66 11/18/66
f 51/103/67 49/104/67 7/105/67
f 50/106/68 7/107/68 49/108/68
f 6/109/69 50/110/69 8/111/69
f 49/108/68 8/112/68 50/106/68
f 52/113/70 51/114/70 5/115/70
f 7/105/67 5/116/67 51/103/67
f 8/111/69 52/117/69 6/109/69
f 5/115/70 6/118/70 52/113/70
f 53/48/71 9/50/71 10/119/71
f 53/73/72 10/72/72 30/20/72
f 54/44/73 13/120/73 12/45/73
f 54/76/74 32/24/74 13/75/74
f 55/28/75 39/121/75 17/29/75
f 39/121/76 55/28/76 61/122/76
f 19/39/77 56/40/77 21/86/77
f 56/40/78 19/39/78 20/38/78
f 63/66/79 3/123/79 57/64/79
f 3/124/80 1/2/80 57/1/80
f 18/36/81 58/80/81 33/78/81
f 18/36/82 20/38/82 58/37/82
f 15/30/83 25/58/83 59/32/83
f 59/32/84 16/31/84 15/30/84
f 2/125/85 28/102/85 60/71/85
f 2/126/86 60/7/86 1/2/86
f 38/87/87 40/93/87 61/95/87
f 38/87/88 61/88/88 16/31/88
f 63/127/89 45/100/89 62/6/89
f 45/100/90 46/101/90 62/6/90
f 27/128/91 3/123/91 63/66/91
f 63/127/92 62/6/92 27/5/92
f 64/68/93 2/57/93 24/56/93
f 24/4/94 62/6/94 64/8/94
