# Blender v2.75 (sub 0) OBJ File: 'Empty.blend'
# www.blender.org
mtllib ITAT_DRAGONEGG.mtl
o ITAT_DRAGONEGG
v 0.243972 0.251539 -0.265935
v -0.097153 0.124009 0.303720
v 0.212849 0.039957 0.036429
v -0.112958 0.156619 -0.238535
v -0.052230 -0.018261 0.106262
v 0.198777 0.481460 0.020864
v -0.046796 0.466357 -0.185515
v -0.257623 0.387539 0.166551
v 0.323935 0.207426 -0.108009
v 0.135058 0.351141 0.260634
v 0.204863 0.083347 -0.207091
v -0.262287 0.326704 -0.073294
v -0.069624 0.527467 0.087023
v -0.176677 0.026300 0.001235
v -0.032723 0.024854 -0.169951
v -0.221872 0.256221 0.288035
v -0.056263 0.315437 0.336488
v 0.078362 0.192323 -0.314388
v 0.074329 0.526021 -0.084163
v -0.190750 0.467803 -0.014329
v 0.194112 0.420626 -0.218981
v -0.248926 0.114674 0.176170
v 0.068895 0.041403 0.207615
v -0.256912 0.158065 -0.067349
v 0.140433 0.182502 0.266580
v -0.301835 0.300334 0.130108
v 0.075040 0.296547 -0.318062
v -0.105851 0.396873 0.294100
v 0.320613 0.311650 -0.111683
v 0.279011 0.349695 0.089448
v 0.284387 0.181056 0.095394
v 0.091724 -0.019707 -0.064924
v 0.054823 0.482906 0.192050
v -0.118333 0.325258 -0.244480
v -0.052941 0.211213 0.340162
v -0.298513 0.196110 0.133783
v 0.119253 0.383751 -0.281620
v 0.279722 0.120222 -0.144451
v -0.182763 0.424413 0.229190
v 0.271025 0.393086 -0.154071
v -0.172013 0.087134 0.241080
v 0.127950 0.110887 -0.272001
vt 0.489951 -0.726650
vt 0.494326 -0.805318
vt 0.518628 -0.815067
vt 1.508295 -0.673971
vt 1.508017 -0.753120
vt 1.531578 -0.768515
vt 0.601545 -1.691697
vt 0.658299 -1.469213
vt 0.582756 -1.580389
vt 0.526462 -0.672691
vt 0.547050 -0.740288
vt 0.571136 -0.728585
vt 0.514252 -0.736401
vt 0.550547 -0.660987
vt 0.595221 -0.716881
vt 0.574632 -0.649284
vt 0.468770 -0.733972
vt 0.441915 -0.782708
vt 0.468147 -0.768063
vt 0.566677 -0.639045
vt 0.567896 -0.717568
vt 0.585536 -0.737456
vt 0.502377 -0.684394
vt 0.522967 -0.751992
vt 0.546488 -0.621270
vt 0.500179 -0.614505
vt 0.538904 -0.678307
vt 0.567054 -0.659226
vt 0.529958 -0.593389
vt 0.554044 -0.581687
vt 0.426626 -0.798806
vt 0.447214 -0.866405
vt 0.471300 -0.854702
vt 0.535683 -0.633995
vt 0.534541 -0.713115
vt 0.557928 -0.729534
vt 3.488177 -0.761926
vt 3.502298 -0.742550
vt 3.500421 -0.712108
vt 0.478292 -0.696098
vt 0.625354 -1.582988
vt 0.566775 -1.612420
vt 0.576822 -1.689237
vt 0.545457 -0.676110
vt 0.611636 -0.645309
vt 0.601092 -0.558503
vt 0.543010 -3.611936
vt 0.574871 -3.603812
vt 0.539828 -3.593848
vt 0.487192 -0.633233
vt 0.507459 -0.699775
vt 0.531168 -0.688255
vt 1.483440 -0.680033
vt 1.496489 -0.722875
vt 1.511754 -0.715456
vt 0.495456 -0.733099
vt 0.547866 -0.722136
vt 0.510832 -0.694219
vt 0.619306 -0.705179
vt 0.532489 -0.761017
vt 0.628624 -0.460719
vt 0.633631 -0.487264
vt 0.648947 -0.483353
vt 0.570005 -0.647895
vt 0.589402 -0.716889
vt 0.613677 -0.706874
vt 0.551085 -3.648724
vt 0.488987 -3.786056
vt 0.545762 -3.692030
vt 3.486300 -0.731484
vt 0.593313 -0.656487
vt 0.606425 -0.731169
vt 0.631200 -0.729735
vt 0.498881 -0.763696
vt 0.559070 -0.650416
vt 0.505874 -0.605092
vt 0.606283 -0.760550
vt 0.546139 -0.589019
vt 0.503066 -0.673316
vt 0.568973 -0.688171
vt 0.607279 -0.674760
vt 0.602484 -0.626126
vt 0.565250 -0.474206
vt 0.573154 -0.547944
vt 0.597338 -0.537082
vt -0.423999 -0.570076
vt -0.439206 -0.648148
vt -0.414245 -0.668281
vt 0.594280 -0.637880
vt 0.494312 -3.742746
vt 0.598717 -0.637580
vt 1.494037 -0.665799
vt 1.513433 -0.734793
vt 1.537708 -0.724778
vt 1.531855 -0.689366
vt -1.585538 -0.787406
vt -1.521498 -0.817748
vt -1.511748 -0.732760
vt 0.589146 -0.745403
vt 0.621432 -0.706450
vt 0.608424 -0.664254
vt 0.589434 -0.658689
vt 0.608293 -0.757100
vt 0.612191 -0.678331
vt 0.472027 -0.633585
vt 0.510753 -0.697390
vt 2.461114 -4.767393
vt 2.425815 -4.771764
vt 2.421440 -4.800975
vt 0.545887 -0.730887
vt 0.620903 -0.695971
vt 0.608950 -0.597577
vt 0.442539 -0.748619
vt 1.449425 -0.691125
vt 1.440482 -0.786153
vt 1.463407 -0.731261
vt 1.454465 -0.826290
vt 1.477392 -0.771399
vt 0.450712 -0.787102
vt 1.463086 -0.699813
vt 1.438300 -0.751371
vt 1.450850 -0.793361
vt 0.402541 -0.810510
vt 0.544075 -0.691459
vt 0.596699 -0.685998
vt 0.560448 -0.654241
vt 1.490390 -3.641820
vt 1.484253 -3.767737
vt 1.498811 -3.684584
vt 1.583701 -3.680946
vt 1.560185 -3.675106
vt 1.549589 -3.698524
vt 0.613307 -0.464628
vt 0.618313 -0.491173
vt 1.518312 -0.655784
vt 3.531515 -5.680218
vt 3.494475 -5.610266
vt 3.471495 -5.656401
vt 1.468175 -0.687450
vt 0.544656 -0.700336
vt 0.593780 -0.677755
vt 0.540104 -0.563137
vt 0.515190 -0.585244
vt 0.423131 -0.878108
vt 0.526774 -0.643572
vt 0.613867 -0.603035
vt 0.599990 -0.488807
vt -0.593140 -1.812972
vt -0.591725 -1.858131
vt -0.588390 -1.849526
vt 0.510901 -0.621712
vt 0.600263 -0.761188
vt 0.624061 -0.719586
vt 0.580492 -0.622792
vt 0.566428 -0.692764
vt 0.589515 -0.710806
vt 1.498705 -0.672614
vt 0.550663 -1.680731
vt 0.579682 -1.693156
vt 0.594278 -1.681372
vt 0.582787 -1.491514
vt 0.562863 -1.555535
vt 0.584031 -1.581322
vn 0.266600 -0.935500 0.232100
vn 0.637400 -0.549100 0.540600
vn -0.216600 -0.551300 -0.805700
vn -0.637400 0.549100 -0.540600
vn -0.764700 -0.047000 -0.642700
vn 0.764700 0.047000 0.642700
vn -0.249400 0.478300 -0.842000
vn -0.266600 0.935500 -0.232100
vn 0.075700 0.817100 -0.571500
vn -0.509700 0.387300 0.768300
vn -0.980000 -0.038100 -0.195500
vn 0.868300 -0.484500 0.106000
vn 0.490100 0.842600 -0.223200
vn 0.599900 0.625200 0.499200
vn 0.206000 0.964500 0.165100
vn 0.353900 -0.253100 -0.900400
vn 0.843200 -0.223000 -0.489200
vn -0.128800 0.848800 0.512800
vn -0.543200 0.823300 0.164500
vn -0.490100 -0.842600 0.223200
vn -0.206000 -0.964500 -0.165100
vn -0.599900 -0.625200 -0.499200
vn -0.288800 0.024500 0.957100
vn -0.075700 -0.817100 0.571500
vn 0.361000 0.044300 0.931500
vn -0.868300 0.484500 -0.106000
vn 0.672600 0.375400 -0.637700
vn 0.339100 0.211200 -0.916700
vn -0.485700 -0.363900 0.794700
vn -0.893500 -0.012700 0.448900
vn -0.835500 -0.545000 -0.069700
vn 0.249400 -0.478300 0.842000
vn -0.843200 0.223000 0.489200
vn 0.288800 -0.024500 -0.957100
vn -0.361000 -0.044300 -0.931500
vn -0.353900 0.253100 0.900400
vn 0.216600 0.551300 0.805700
vn 0.893500 0.012700 -0.448900
vn 0.980000 0.038100 0.195500
vn 0.835500 0.545000 0.069700
vn 0.543200 -0.823300 -0.164500
vn 0.128800 -0.848800 -0.512800
vn -0.339100 -0.211200 0.916700
vn -0.828400 -0.241200 0.505600
vn 0.485700 0.363900 -0.794700
vn 0.696600 -0.375800 -0.611200
vn -0.696600 0.375800 0.611200
vn 0.828400 0.241200 -0.505600
vn -0.672600 -0.375400 0.637700
vn 0.509700 -0.387300 -0.768300
usemtl DRAGON
s off
f 5/1/1 32/2/1 3/3/1
f 23/4/2 3/5/2 31/6/2
f 4/7/3 42/8/3 15/9/3
f 20/10/4 7/11/4 34/12/4
f 5/1/1 3/3/1 23/13/1
f 12/14/5 4/15/5 24/16/5
f 25/17/6 30/18/6 10/19/6
f 7/20/7 37/21/7 27/22/7
f 13/23/8 19/24/8 7/11/8
f 19/25/9 37/21/9 7/20/9
f 16/26/10 28/27/10 39/28/10
f 26/29/11 24/16/11 36/30/11
f 3/31/12 38/32/12 9/33/12
f 6/34/13 40/35/13 21/36/13
f 10/37/14 30/38/14 6/39/14
f 33/40/15 19/24/15 13/23/15
f 1/41/16 42/42/16 18/43/16
f 1/44/17 9/45/17 38/46/17
f 26/29/11 12/14/11 24/16/11
f 13/23/8 7/11/8 20/10/8
f 28/47/18 13/48/18 39/49/18
f 39/50/19 13/51/19 20/52/19
f 22/53/20 14/54/20 5/55/20
f 14/56/21 32/57/21 5/58/21
f 24/16/22 4/15/22 15/59/22
f 14/56/21 15/60/21 32/57/21
f 16/61/23 35/62/23 17/63/23
f 41/64/24 5/65/24 23/66/24
f 35/67/25 10/68/25 17/69/25
f 10/37/14 6/39/14 33/70/14
f 4/71/3 18/72/3 42/73/3
f 12/14/5 34/12/5 4/15/5
f 33/40/15 6/74/15 19/24/15
f 6/34/13 21/36/13 19/75/13
f 8/76/26 20/10/26 12/14/26
f 20/10/4 34/12/4 12/14/4
f 1/77/27 21/78/27 40/79/27
f 1/80/28 27/81/28 37/82/28
f 16/83/29 41/84/29 2/85/29
f 16/86/30 26/87/30 36/88/30
f 41/64/24 23/66/24 2/89/24
f 35/67/25 25/90/25 10/68/25
f 36/30/31 24/16/31 14/91/31
f 24/16/22 15/59/22 14/91/22
f 2/92/32 23/93/32 25/94/32
f 23/4/2 31/6/2 25/95/2
f 16/96/33 8/97/33 26/98/33
f 8/76/26 12/14/26 26/29/26
f 1/99/34 18/100/34 27/101/34
f 34/102/35 18/103/35 4/104/35
f 16/105/36 17/106/36 28/27/36
f 17/107/37 10/108/37 33/109/37
f 1/110/38 29/111/38 9/112/38
f 25/17/6 31/113/6 30/18/6
f 31/114/39 29/115/39 30/116/39
f 30/116/40 40/117/40 6/118/40
f 3/31/12 9/33/12 31/119/12
f 31/120/39 9/121/39 29/122/39
f 32/123/41 38/32/41 3/31/41
f 15/124/42 11/125/42 32/126/42
f 17/127/37 33/128/37 28/129/37
f 28/130/18 33/131/18 13/132/18
f 7/20/7 27/22/7 34/102/7
f 34/102/35 27/22/35 18/103/35
f 16/133/43 2/134/43 35/62/43
f 2/92/32 25/94/32 35/135/32
f 16/136/44 36/137/44 22/138/44
f 36/139/31 14/54/31 22/53/31
f 19/25/9 21/140/9 37/21/9
f 1/141/45 37/142/45 21/143/45
f 32/123/41 11/144/41 38/32/41
f 1/145/46 38/146/46 11/147/46
f 16/148/47 39/149/47 8/150/47
f 39/50/19 20/52/19 8/151/19
f 30/116/40 29/115/40 40/117/40
f 1/80/48 40/152/48 29/153/48
f 16/154/49 22/155/49 41/156/49
f 22/53/20 5/55/20 41/157/20
f 15/158/42 42/159/42 11/160/42
f 1/161/50 11/162/50 42/163/50
