# Blender v2.75 (sub 0) OBJ File: 'Empty.blend'
# www.blender.org
mtllib ITAT_LURKERSKIN.mtl
o ITAT_LURKERSKIN
v 0.302469 -0.028679 -0.173400
v -0.302449 -0.028679 -0.173400
v 0.190447 -0.024769 0.274670
v -0.190427 -0.024769 0.274670
v 0.100830 -0.031025 -0.442242
v -0.100810 -0.031025 -0.442242
v 0.134436 -0.023413 0.429948
v 0.000010 -0.023661 0.401583
v 0.291267 -0.023986 0.364284
v -0.291247 -0.023986 0.364284
v 0.302469 -0.029852 -0.307821
v -0.302449 -0.029852 -0.307821
v 0.219351 -0.025978 0.136079
v 0.190447 -0.028190 -0.117391
v -0.205289 -0.025978 0.136079
v -0.190427 -0.028190 -0.117391
v -0.168023 -0.030145 -0.341426
v 0.168043 -0.030145 -0.341426
v 0.246458 -0.023009 0.476302
v -0.246438 -0.023009 0.476302
v 0.000010 -0.031318 -0.475848
v -0.134416 -0.023413 0.429948
v -0.161483 -0.002204 0.367098
v 0.179656 0.003469 -0.225585
v 0.000010 0.020303 -0.276865
v 0.087799 0.008219 0.047920
v -0.179636 -0.002873 -0.225529
v -0.087779 0.008219 0.047920
v 0.000010 -0.001431 0.311159
v 0.161503 -0.016503 0.367222
v 0.007834 0.026455 -0.083773
vt 0.824856 -0.219013
vt 0.444393 -0.485559
vt 0.630487 -0.250662
vt 0.776200 -0.081201
vt 0.480126 -0.138505
vt 0.852124 -0.348637
vt 0.750442 -0.423916
vt 0.620424 -0.493317
vt 0.221270 -0.487950
vt 0.277485 -0.191033
vt 0.332363 -0.442200
vt 0.972606 -0.255043
vt 0.861301 -0.592640
vt 0.996902 -0.457559
vt 0.280902 -0.761109
vt 0.458237 -0.639441
vt 0.119847 -0.435436
vt 0.010923 -0.260779
vn 0.000000 -1.000000 0.008700
vn -0.095400 0.993100 0.068200
vn -0.452100 0.888800 -0.075400
vn 0.107300 0.991600 0.072100
vn 0.171100 0.941500 -0.290300
vn 0.071900 0.995600 0.060500
vn 0.047500 0.990400 0.129600
vn -0.041500 0.994900 0.091700
vn -0.158700 0.969500 -0.187000
vn 0.069000 0.956200 -0.284400
vn -0.056400 0.970600 -0.234000
vn 0.226900 0.973100 0.038800
vn 0.256600 0.966500 -0.008400
vn -0.265500 0.963900 0.020100
vn -0.166200 0.986000 0.015800
vn -0.192100 0.950800 -0.243000
vn 0.227000 0.960700 -0.159800
vn 0.057900 0.998200 0.014400
vn -0.166500 0.984300 0.058000
vn 0.080600 0.964800 -0.250300
vn 0.116100 0.955200 0.272300
vn -0.052100 0.969800 0.238400
vn 0.052100 0.969800 0.238400
vn 0.137000 0.954300 0.265600
vn 0.276300 0.960200 -0.039900
vn -0.227000 0.960700 -0.159800
vn -0.080600 0.964800 -0.250300
vn 0.162900 0.985900 0.037600
vn 0.570600 0.801800 0.177700
vn -0.209100 0.977900 -0.008500
vn -0.112200 0.970000 0.215900
vn -0.297100 0.954500 -0.025700
vn -0.527800 0.837200 0.143300
vn 0.093100 0.954900 0.282100
vn 0.007100 0.999400 0.034300
vn 0.055800 0.995900 -0.071500
vn 0.293200 0.956000 0.006300
vn -0.135200 0.990500 -0.026100
vn 0.103400 0.994000 -0.035900
usemtl ITAT_LIZARDS_01
s off
f 8/1/1 16/2/1 14/2/1
f 28/3/2 29/4/2 31/5/2
f 23/6/3 28/3/3 4/7/3
f 8/1/1 15/8/1 16/2/1
f 16/2/1 18/9/1 14/2/1
f 26/3/4 31/5/4 29/4/4
f 25/10/5 24/11/5 18/9/5
f 16/2/1 17/9/1 18/9/1
f 29/4/6 30/6/6 26/3/6
f 8/1/1 14/2/1 13/8/1
f 7/12/1 8/1/1 3/7/1
f 29/4/7 7/12/7 30/6/7
f 9/13/1 7/12/1 3/7/1
f 30/6/8 7/12/8 19/14/8
f 10/13/9 23/6/9 4/7/9
f 4/7/1 8/1/1 22/12/1
f 11/15/10 18/9/10 24/11/10
f 14/2/1 18/9/1 11/15/1
f 12/15/11 27/11/11 17/9/11
f 2/16/1 12/15/1 17/9/1
f 26/3/12 3/7/12 13/8/12
f 8/1/1 13/8/1 3/7/1
f 14/2/1 11/15/1 1/16/1
f 11/15/13 24/11/13 1/16/13
f 4/7/14 28/3/14 15/8/14
f 15/8/1 8/1/1 4/7/1
f 16/2/1 2/16/1 17/9/1
f 28/3/15 31/5/15 27/11/15
f 25/10/16 17/9/16 27/11/16
f 17/9/1 6/17/1 21/18/1
f 25/10/17 18/9/17 5/17/17
f 17/9/1 21/18/1 18/9/1
f 19/14/18 9/13/18 30/6/18
f 19/14/1 7/12/1 9/13/1
f 20/14/19 23/6/19 10/13/19
f 4/7/1 22/12/1 10/13/1
f 5/17/20 21/18/20 25/10/20
f 18/9/1 21/18/1 5/17/1
f 23/6/21 20/14/21 22/12/21
f 20/14/1 10/13/1 22/12/1
f 29/4/22 8/1/22 7/12/22
f 29/4/23 22/12/23 8/1/23
f 1/16/24 24/11/24 14/2/24
f 26/3/25 13/8/25 14/2/25
f 25/10/26 6/17/26 17/9/26
f 6/17/27 25/10/27 21/18/27
f 24/11/28 31/5/28 26/3/28
f 26/3/29 14/2/29 24/11/29
f 12/15/30 2/16/30 27/11/30
f 2/16/31 16/2/31 27/11/31
f 28/3/32 16/2/32 15/8/32
f 16/2/33 28/3/33 27/11/33
f 29/4/34 23/6/34 22/12/34
f 23/6/35 29/4/35 28/3/35
f 9/13/36 3/7/36 30/6/36
f 30/6/37 3/7/37 26/3/37
f 25/10/38 27/11/38 31/5/38
f 25/10/39 31/5/39 24/11/39
