# Blender v2.75 (sub 0) OBJ File: 'Empty.blend'
# www.blender.org
mtllib ITAT_BLATTCRAWLER_01.mtl
o ITAT_BLATTCRAWLER_01
v -0.261595 0.001023 -0.049296
v 0.228397 0.074715 -0.110690
v -0.113870 -0.090367 0.148905
v 0.000010 -0.096558 0.199921
v 0.087520 -0.101655 0.174995
v 0.000010 0.106426 -0.102784
v -0.259792 0.086485 -0.023742
v -0.049918 0.001793 -0.218797
v -0.228378 0.074714 -0.110690
v 0.261615 0.001023 -0.049296
v 0.259812 0.086486 -0.023742
v 0.000010 -0.074619 0.215583
v 0.000010 -0.081175 -0.106005
v 0.149631 -0.081977 -0.052164
v 0.168988 0.123643 -0.012569
v -0.168968 0.123643 -0.012569
v -0.149611 -0.081977 -0.052164
v 0.208281 -0.010226 -0.056549
v -0.208261 -0.010226 -0.056549
v 0.113890 -0.090367 0.148905
v 0.000010 -0.041755 0.218777
v -0.190771 0.075476 -0.158968
v 0.190791 0.075476 -0.158968
v -0.125935 -0.005264 0.144401
v 0.125955 -0.005264 0.144401
v -0.087500 -0.101655 0.174995
v 0.000010 -0.123623 0.182740
v -0.100738 -0.004550 -0.137186
v -0.276607 0.046004 -0.036097
v 0.276627 0.046004 -0.036097
v 0.000010 -0.068016 0.084554
v 0.000010 0.015710 0.156087
v 0.100758 -0.004549 -0.137186
v 0.000010 0.088557 -0.174627
v 0.047560 -0.086061 0.198984
v -0.047540 -0.086061 0.198984
v 0.000010 0.087047 -0.005985
v 0.000010 -0.105582 -0.028702
vt 0.243542 -0.163322
vt 0.128750 -0.155075
vt 0.210296 -0.185382
vt 0.097066 -0.055484
vt 0.214050 -0.010191
vt 0.201315 -0.068078
vt 0.124012 -0.119644
vt 0.228594 -0.132799
vt 0.114675 -0.183221
vt 0.095147 -0.217032
vt 0.053283 -0.417591
vt 0.007285 -0.388308
vt 0.005131 -0.421984
vt 0.063032 -0.187431
vt 0.333331 -0.016081
vt 0.301513 -0.072038
vt 0.269333 -0.005846
vt 0.214712 -0.104454
vt 0.385301 -0.064891
vt 0.232992 -0.083308
vt 0.307945 -0.142357
vt 0.211357 -0.227234
vt 0.052292 -0.361361
vt 0.070346 -0.390314
vt 0.298605 -0.209961
vt 0.209535 -0.090397
vt 0.063828 -0.139460
vt 0.050540 -0.097564
vt 0.008440 -0.350430
vt 0.029623 -0.147770
vn 0.772800 -0.624900 0.111300
vn 0.179600 0.900400 0.396300
vn -0.817400 -0.085700 0.569700
vn 0.241900 -0.970100 -0.017900
vn 0.124000 0.963200 0.238300
vn 0.204800 -0.524600 0.826400
vn -0.086000 0.966800 -0.240500
vn -0.179600 0.900400 0.396300
vn -0.755500 -0.403600 0.516100
vn -0.104800 0.498400 -0.860600
vn -0.440300 -0.449200 -0.777400
vn -0.142400 -0.986200 -0.084100
vn -0.816000 -0.105600 -0.568300
vn -0.065000 0.950700 -0.303100
vn 0.755500 -0.403600 0.516100
vn 0.440300 -0.449200 -0.777400
vn 0.816000 -0.105600 -0.568300
vn 0.065000 0.950700 -0.303100
vn -0.138000 -0.985600 -0.098100
vn 0.817400 -0.085700 0.569700
vn 0.361100 -0.600500 -0.713400
vn -0.552500 -0.730800 -0.400900
vn 0.142400 -0.986200 -0.084100
vn 0.319700 -0.316000 -0.893300
vn 0.335900 0.603700 0.722900
vn 0.340900 0.907300 -0.246000
vn -0.335900 0.603700 0.722900
vn -0.340900 0.907300 -0.246000
vn -0.319700 -0.316000 -0.893300
vn -0.772800 -0.624900 0.111300
vn 0.240200 -0.891900 -0.383100
vn 0.232900 -0.937500 -0.258700
vn -0.240200 -0.891900 -0.383100
vn -0.232900 -0.937500 -0.258700
vn -0.028500 0.927600 0.372600
vn 0.424600 -0.904600 0.037700
vn 0.600200 -0.042800 0.798700
vn -0.600200 -0.042800 0.798700
vn -0.538900 -0.723700 -0.431200
vn -0.337400 0.908000 -0.248500
vn 0.538900 -0.723700 -0.431200
vn 0.337400 0.908000 -0.248500
vn -0.477700 0.124100 0.869700
vn -0.185900 0.792700 0.580500
vn 0.477700 0.124100 0.869700
vn 0.185900 0.792700 0.580500
vn -0.424600 -0.904600 0.037700
vn -0.124000 0.963200 0.238300
vn -0.241900 -0.970100 -0.017900
vn -0.204800 -0.524600 0.826400
vn -0.383200 -0.732700 -0.562500
vn -0.488900 -0.791800 -0.366000
vn -0.819100 0.449100 -0.356800
vn -0.747300 0.110400 0.655200
vn 0.819100 0.449100 -0.356800
vn 0.747300 0.110400 0.655200
vn 0.138000 -0.985600 -0.098100
vn 0.028500 0.927600 0.372600
vn 0.182400 0.724800 0.664400
vn -0.182400 0.724800 0.664400
vn 0.383200 -0.732700 -0.562500
vn 0.322700 -0.688600 -0.649400
vn 0.102300 0.403900 -0.909100
vn 0.086000 0.966800 -0.240500
vn -0.249700 -0.967100 -0.048700
vn 0.308400 -0.092000 0.946800
vn 0.249700 -0.967100 -0.048700
vn -0.308400 -0.092000 0.946800
vn -0.200500 0.960600 0.192300
vn 0.200500 0.960600 0.192300
vn 0.102700 -0.948600 -0.299500
vn -0.102700 -0.948600 -0.299500
usemtl CRW_BODY
s off
f 18/1/1 20/2/1 14/3/1
f 32/4/2 37/5/2 16/6/2
f 3/2/3 24/7/3 1/8/3
f 14/3/4 5/9/4 27/10/4
f 5/11/5 31/12/5 4/13/5
f 5/9/6 4/14/6 27/10/6
f 34/15/7 22/16/7 6/17/7
f 15/6/8 37/5/8 32/4/8
f 1/8/9 24/7/9 29/18/9
f 8/19/10 22/16/10 34/15/10
f 9/20/11 28/21/11 1/8/11
f 38/22/12 27/10/12 17/3/12
f 9/20/13 1/8/13 29/18/13
f 16/6/14 6/17/14 22/16/14
f 30/18/15 25/7/15 10/8/15
f 10/8/16 33/21/16 2/20/16
f 30/18/17 10/8/17 2/20/17
f 23/16/18 6/17/18 15/6/18
f 35/23/19 31/12/19 20/24/19
f 10/8/20 25/7/20 20/2/20
f 23/16/21 33/21/21 8/19/21
f 8/19/22 28/21/22 22/16/22
f 14/3/23 27/10/23 38/22/23
f 14/3/24 13/25/24 18/1/24
f 32/4/25 11/26/25 15/6/25
f 11/26/26 2/20/26 15/6/26
f 16/6/27 7/26/27 32/4/27
f 16/6/28 9/20/28 7/26/28
f 19/1/29 13/25/29 17/3/29
f 17/3/30 3/2/30 19/1/30
f 10/8/31 18/1/31 33/21/31
f 10/8/32 20/2/32 18/1/32
f 28/21/33 19/1/33 1/8/33
f 19/1/34 3/2/34 1/8/34
f 20/24/35 31/12/35 5/11/35
f 14/3/36 20/2/36 5/9/36
f 25/7/37 35/27/37 20/2/37
f 3/2/38 36/27/38 24/7/38
f 22/16/39 28/21/39 9/20/39
f 16/6/40 22/16/40 9/20/40
f 2/20/41 33/21/41 23/16/41
f 2/20/42 23/16/42 15/6/42
f 36/27/43 21/28/43 24/7/43
f 7/26/44 24/7/44 32/4/44
f 25/7/45 21/28/45 35/27/45
f 32/4/46 25/7/46 11/26/46
f 26/9/47 3/2/47 17/3/47
f 4/13/48 31/12/48 26/11/48
f 27/10/49 26/9/49 17/3/49
f 27/10/50 4/14/50 26/9/50
f 19/1/51 28/21/51 13/25/51
f 13/19/52 28/21/52 8/19/52
f 7/26/53 9/20/53 29/18/53
f 29/18/54 24/7/54 7/26/54
f 30/18/55 2/20/55 11/26/55
f 11/26/56 25/7/56 30/18/56
f 3/24/57 31/12/57 36/23/57
f 26/11/58 31/12/58 3/24/58
f 21/28/59 25/7/59 32/4/59
f 32/4/60 24/7/60 21/28/60
f 13/25/61 33/21/61 18/1/61
f 8/19/62 33/21/62 13/19/62
f 34/15/63 23/16/63 8/19/63
f 6/17/64 23/16/64 34/15/64
f 35/23/65 12/29/65 31/12/65
f 21/28/66 12/30/66 35/27/66
f 31/12/67 12/29/67 36/23/67
f 36/27/68 12/30/68 21/28/68
f 15/6/69 6/17/69 37/5/69
f 37/5/70 6/17/70 16/6/70
f 38/22/71 13/25/71 14/3/71
f 17/3/72 13/25/72 38/22/72
