# Blender v2.75 (sub 0) OBJ File: 'Empty.blend'
# www.blender.org
mtllib ITFO_WATER.mtl
o ITFO_WATER
v -0.020573 0.200346 -0.000010
v 0.000010 -0.142196 0.049578
v 0.000010 -0.142196 -0.049598
v -0.049578 -0.142196 -0.000010
v 0.038901 0.137408 0.038881
v 0.049598 -0.142196 -0.000010
v 0.038901 0.137408 -0.038901
v -0.038881 0.137408 0.038881
v 0.000010 0.161049 -0.020593
v 0.014564 0.200346 0.014544
v 0.014564 0.200346 -0.014564
v -0.020573 0.161049 -0.000010
v 0.000010 0.137408 -0.055010
v -0.054990 0.137408 -0.000010
v 0.014564 0.161049 0.014544
v -0.038881 0.137408 -0.038901
v 0.000010 0.137408 0.054990
v 0.055010 0.137408 -0.000010
v 0.035074 -0.142196 0.035054
v -0.035054 -0.142196 0.035054
v 0.035074 -0.142196 -0.035074
v -0.035054 -0.142196 -0.035074
v -0.014544 0.200346 -0.014564
v 0.014564 0.161049 -0.014564
v 0.000010 0.161049 0.020573
v 0.000010 0.200346 0.020573
v -0.014544 0.161049 -0.014564
v -0.014544 0.161049 0.014544
v -0.014544 0.200346 0.014544
v 0.000010 0.200346 -0.020593
v 0.020593 0.161049 -0.000010
v 0.020593 0.200346 -0.000010
v -0.031345 0.152173 -0.031365
v -0.044333 0.152173 -0.000010
v -0.031345 0.152173 0.031345
v 0.031365 0.152173 -0.031365
v 0.031365 0.152173 0.031345
v 0.000010 0.152173 0.044333
v 0.000010 0.152173 -0.044353
v 0.044352 0.152173 -0.000010
v -0.038881 -0.131800 -0.038901
v 0.038901 -0.131800 -0.038901
v -0.038881 -0.131800 0.038881
v 0.038901 -0.131800 0.038881
v -0.054990 -0.131800 -0.000010
v 0.000010 -0.131800 -0.055010
v 0.055010 -0.131800 -0.000010
v 0.000010 -0.131800 0.054990
v 0.000010 0.200346 -0.000010
v 0.000010 -0.142196 -0.000010
vt -0.425200 0.252169
vt -0.374794 0.252169
vt -0.374794 0.467831
vt -0.460843 0.252169
vt -0.460843 0.467831
vt 0.639243 1.253860
vt 0.560762 1.253860
vt 0.560762 1.467237
vt 0.600002 0.344998
vt 0.551417 0.296413
vt 0.531292 0.344998
vt -0.425200 0.467831
vt -0.339152 0.252169
vt -0.339152 0.467831
vt 0.648587 0.296413
vt 0.600002 0.276288
vt 0.694738 1.253860
vt 0.639243 1.467237
vt 0.694738 1.467237
vt 1.735260 0.307171
vt 1.601128 0.307488
vt 1.645527 0.409511
vt -0.371311 0.374991
vt -0.328332 0.365412
vt -0.293868 0.301319
vt -0.280071 0.391446
vt -0.251890 0.391446
vt -0.251890 0.498554
vt 0.505267 1.467237
vt -0.348105 0.391446
vt -0.348105 0.498554
vt -0.257680 0.494018
vt -0.009998 -0.014998
vt -0.009998 -0.010978
vt -0.007155 -0.012155
vt -0.280071 0.498554
vt -0.282469 0.406568
vt -0.317526 0.406568
vt -0.317526 0.494018
vt -0.342315 0.494018
vt 0.709083 0.318118
vt 0.562628 0.317897
vt 0.600355 0.421552
vt 0.584188 0.407148
vt 0.646449 0.407295
vt 0.690847 0.305271
vt -0.264418 0.292519
vt -0.359955 0.292745
vt 0.556715 0.304954
vt -0.387603 0.298855
vt -0.491918 0.299012
vt -0.462895 0.372757
vt 1.707788 0.409365
vt 0.659051 0.318424
vt 0.512595 0.318645
vt 0.553343 0.422181
vt -0.398182 0.301162
vt -0.338974 0.292136
vt -0.434511 0.291910
vt -0.414944 0.364698
vt 0.551417 0.393583
vt 0.668712 0.344998
vt 0.600002 0.413708
vt 0.505267 1.253860
vt -0.282469 0.494018
vt -0.012841 -0.017841
vt -0.014018 -0.014998
vt 0.668336 0.421654
vt -0.414475 0.372684
vt -0.319924 0.391446
vt -0.319924 0.498554
vt -0.012841 -0.012155
vt 0.621324 0.422078
vt -0.257680 0.406568
vt -0.283986 0.365307
vt -0.342315 0.406568
vt -0.009998 -0.019018
vt -0.007155 -0.017841
vt -0.370598 0.364803
vt 0.683572 0.251052
vt 0.501917 0.251326
vt 0.730897 0.250119
vt 0.564527 0.249726
vt -0.269983 0.253182
vt -0.388481 0.253462
vt -0.286262 0.253371
vt 1.727448 0.251943
vt 1.561078 0.252336
vt 0.719762 0.250800
vt -0.370138 0.250869
vt -0.499523 0.251064
vt -0.310448 0.252853
vt -0.415648 0.253176
vt 0.538107 0.250526
vt -0.428947 0.252573
vt 0.648587 0.393583
vt 0.653890 0.398886
vt 0.600002 0.421207
vt 0.653890 0.291110
vt 0.676211 0.344998
vt 0.546114 0.398886
vt 0.523793 0.344998
vt 0.546114 0.291110
vt 0.600002 0.268789
vt -0.005978 -0.014998
vn 0.382700 0.000000 0.923900
vn -0.923900 0.000000 0.382700
vn -0.382700 0.000000 -0.923900
vn 0.000000 -1.000000 0.000000
vn 0.923900 0.000000 -0.382700
vn 0.382700 0.000000 -0.923900
vn 0.346400 0.927100 -0.143500
vn -0.143500 0.927100 0.346400
vn -0.923900 0.000000 -0.382700
vn -0.382700 0.000000 0.923900
vn 0.000000 1.000000 0.000000
vn 0.143500 0.927100 -0.346400
vn -0.346400 0.927100 -0.143500
vn -0.346400 0.927100 0.143500
vn 0.143500 0.927100 0.346400
vn -0.143500 0.927100 -0.346400
vn 0.923900 0.000000 0.382700
vn 0.346400 0.927100 0.143500
vn -0.318400 0.554800 -0.768600
vn -0.768600 0.554800 -0.318400
vn -0.768600 0.554800 0.318400
vn -0.318400 0.554800 0.768600
vn 0.768600 0.554800 -0.318400
vn 0.318400 0.554800 -0.768600
vn 0.318400 0.554800 0.768600
vn 0.768600 0.554800 0.318400
vn -0.344900 -0.433400 -0.832600
vn -0.832600 -0.433400 -0.344900
vn 0.832600 -0.433400 -0.344900
vn 0.344900 -0.433400 -0.832600
vn -0.832600 -0.433400 0.344900
vn -0.344900 -0.433400 0.832600
vn 0.344900 -0.433400 0.832600
vn 0.832600 -0.433400 0.344900
usemtl IT_FOOD_01
s off
f 48/1/1 44/2/1 5/3/1
f 45/4/2 43/4/2 8/5/2
f 46/6/3 41/7/3 16/8/3
f 50/9/4 19/10/4 2/11/4
f 48/1/1 5/3/1 17/12/1
f 47/13/5 7/14/5 18/14/5
f 50/9/4 21/15/4 6/16/4
f 47/13/5 42/13/5 7/14/5
f 42/17/6 13/18/6 7/19/6
f 40/20/7 36/21/7 24/22/7
f 45/4/2 8/5/2 14/5/2
f 25/23/8 28/24/8 35/25/8
f 31/26/5 24/27/5 11/28/5
f 41/7/9 14/29/9 16/8/9
f 28/30/10 25/30/10 26/31/10
f 30/32/6 11/28/6 24/27/6
f 49/33/11 32/34/11 11/35/11
f 11/28/5 32/36/5 31/26/5
f 27/37/9 12/38/9 1/39/9
f 26/31/10 29/40/10 28/30/10
f 36/41/12 39/42/12 9/43/12
f 12/44/13 27/45/13 33/46/13
f 34/47/14 35/48/14 28/24/14
f 33/46/13 34/49/13 12/44/13
f 38/50/15 37/51/15 15/52/15
f 24/22/7 31/53/7 40/20/7
f 46/6/3 16/8/3 13/18/3
f 39/54/16 33/55/16 27/56/16
f 43/4/10 17/12/10 8/5/10
f 35/25/8 38/57/8 25/23/8
f 44/2/17 18/14/17 5/3/17
f 37/58/18 40/59/18 31/60/18
f 50/9/4 6/16/4 19/10/4
f 44/2/17 47/13/17 18/14/17
f 50/9/4 2/11/4 20/61/4
f 43/4/10 48/1/10 17/12/10
f 50/9/4 3/62/4 21/15/4
f 42/17/6 46/6/6 13/18/6
f 50/9/4 20/61/4 4/63/4
f 41/7/9 45/64/9 14/29/9
f 1/39/9 23/65/9 27/37/9
f 49/33/11 29/66/11 26/67/11
f 9/43/12 24/68/12 36/41/12
f 24/27/6 9/27/6 30/32/6
f 15/52/15 25/69/15 38/50/15
f 25/30/1 15/70/1 10/71/1
f 49/33/11 26/67/11 10/72/11
f 10/71/1 26/31/1 25/30/1
f 27/56/16 9/73/16 39/54/16
f 9/74/3 27/37/3 23/65/3
f 28/24/14 12/75/14 34/47/14
f 12/38/2 28/76/2 29/40/2
f 49/33/11 1/77/11 29/66/11
f 29/40/2 1/39/2 12/38/2
f 23/65/3 30/32/3 9/74/3
f 49/33/11 23/78/11 1/77/11
f 31/60/18 15/79/18 37/58/18
f 15/70/17 31/26/17 32/36/17
f 49/33/11 10/72/11 32/34/11
f 32/36/17 10/71/17 15/70/17
f 13/80/19 16/81/19 33/55/19
f 34/49/20 33/46/20 16/82/20
f 16/82/20 14/83/20 34/49/20
f 35/48/21 34/47/21 14/84/21
f 14/84/21 8/85/21 35/48/21
f 38/57/22 35/25/22 8/86/22
f 18/87/23 7/88/23 36/21/23
f 39/42/24 36/41/24 7/89/24
f 17/90/25 5/91/25 37/51/25
f 40/59/26 37/58/26 5/92/26
f 8/86/22 17/93/22 38/57/22
f 37/51/25 38/50/25 17/90/25
f 33/55/19 39/54/19 13/80/19
f 7/89/24 13/94/24 39/42/24
f 36/21/23 40/20/23 18/87/23
f 5/92/26 18/95/26 40/59/26
f 3/62/27 22/96/27 41/97/27
f 45/98/28 41/97/28 22/96/28
f 6/16/29 21/15/29 42/99/29
f 46/100/30 42/99/30 21/15/30
f 4/63/31 20/61/31 43/101/31
f 48/102/32 43/101/32 20/61/32
f 2/11/33 19/10/33 44/103/33
f 47/104/34 44/103/34 19/10/34
f 22/96/28 4/63/28 45/98/28
f 43/101/31 45/98/31 4/63/31
f 41/97/27 46/100/27 3/62/27
f 21/15/30 3/62/30 46/100/30
f 42/99/29 47/104/29 6/16/29
f 19/10/34 6/16/34 47/104/34
f 20/61/32 2/11/32 48/102/32
f 44/103/33 48/102/33 2/11/33
f 49/33/11 30/105/11 23/78/11
f 49/33/11 11/35/11 30/105/11
f 50/9/4 22/96/4 3/62/4
f 50/9/4 4/63/4 22/96/4
