# Blender v2.75 (sub 0) OBJ File: 'Empty.blend'
# www.blender.org
mtllib ITFO_FISH.mtl
o ITFO_FISH
v 0.027338 -0.000214 0.158186
v 0.191656 -0.000056 -0.149107
v -0.292116 0.000055 0.273080
v 0.384384 -0.000245 -0.196171
v 0.189286 0.000151 -0.319749
v -0.145114 0.060856 -0.072103
v -0.202000 0.047540 0.023935
v -0.219639 0.019021 0.118671
v -0.145251 -0.047087 -0.072232
v -0.219687 -0.018725 0.118626
v -0.202120 -0.047063 0.023822
v 0.121626 -0.000261 0.097271
v -0.070412 -0.000113 0.177694
v -0.125267 0.005697 0.014796
v -0.125281 -0.005393 0.014783
v 0.023327 -0.013211 0.073225
v 0.144655 0.000055 -0.191325
v -0.117834 -0.028966 0.021777
v -0.117760 0.029233 0.021846
v 0.023360 0.012996 0.073256
v -0.136258 0.062839 0.104528
v -0.136418 -0.062722 0.104378
v -0.185427 -0.012887 0.024761
v -0.265509 0.034633 0.257900
v -0.263696 0.000176 0.291118
v -0.213482 0.034559 0.264010
v -0.265597 -0.034553 0.257817
v -0.213570 -0.034627 0.263927
v 0.022087 0.013213 -0.106948
v -0.090113 0.013291 -0.052897
v -0.185393 0.013320 0.024793
v 0.158901 0.016739 -0.178903
v 0.158859 -0.016696 -0.178943
v -0.077675 0.024277 0.170873
v -0.077737 -0.024468 0.170814
v -0.284972 0.013217 0.217058
v -0.285005 -0.012990 0.217026
v -0.248510 -0.012928 0.125820
v 0.017039 -0.053718 -0.021222
v 0.017176 0.053745 -0.021093
v 0.022054 -0.012994 -0.106980
v -0.285912 0.000207 0.288604
v -0.090146 -0.012915 -0.052928
v -0.281908 -0.018353 0.275228
v -0.281891 0.018433 0.275250
v -0.213377 -0.000044 0.272729
v -0.248477 0.013279 0.125851
vt 0.366226 0.295105
vt 0.297699 0.262238
vt 0.128754 0.330032
vt 0.297272 0.262024
vt 0.366119 0.294830
vt 0.128708 0.330093
vt 0.049179 0.503845
vt 0.007584 0.313721
vt 0.007660 0.313599
vt 0.049286 0.503525
vt 0.624863 0.355820
vt 0.649994 0.446182
vt 0.599747 0.492661
vt 0.600128 0.417877
vt 0.600037 0.493195
vt 0.624893 0.354935
vt 0.599915 0.417862
vt 0.649765 0.447357
vt 0.552200 0.231735
vt 0.527176 0.322174
vt 0.577255 0.368027
vt 0.576599 0.293365
vt 0.472717 0.242645
vt 0.440720 0.176331
vt 0.472565 0.242538
vt 0.440384 0.176300
vt 0.502869 0.394821
vt 0.475418 0.484329
vt 0.530304 0.446335
vt 0.571548 0.384247
vt 0.502747 0.394531
vt 0.530426 0.446182
vt 0.475464 0.484283
vt 0.571350 0.384308
vt 0.394333 0.431503
vt 0.457230 0.471329
vt 0.444885 0.404831
vt 0.355148 0.378159
vt 0.142349 0.365234
vt 0.142273 0.365005
vt 0.703094 0.249786
vt 0.718735 0.185562
vt 0.687469 0.242981
vt 0.711914 0.111710
vt 0.715012 0.122116
vt 0.754150 0.101288
vt 0.184814 0.367371
vt 0.356842 0.330948
vt 0.352676 0.314987
vt 0.732803 0.173752
vt 0.736816 0.184097
vt 0.774704 0.163422
vt 0.298706 0.168732
vt 0.386566 0.115936
vt 0.585037 0.161194
vt 0.585312 0.161377
vt 0.298706 0.169128
vt 0.224564 0.242584
vt 0.484100 0.094681
vt 0.386719 0.115814
vt 0.484177 0.096207
vt 0.595154 0.118576
vt 0.566116 0.091888
vt 0.104248 0.133987
vt 0.181015 0.127884
vt 0.107147 0.117447
vt 0.611877 0.110657
vt 0.650345 0.120743
vt 0.180893 0.148544
vt 0.106964 0.146744
vt 0.595108 0.118408
vt 0.566254 0.091812
vt 0.611771 0.110794
vt 0.223953 0.242767
vt 0.116608 0.083374
vt 0.116608 0.094833
vt 0.170441 0.094833
vt 0.170441 0.083374
vt 0.224045 0.094833
vt 0.224045 0.083374
vt 0.271851 0.094833
vt 0.122467 0.315475
vt 0.122299 0.315964
vt 0.181015 0.139969
vt 0.245285 0.133865
vt 0.245224 0.144958
vt 0.271851 0.083374
vt 0.326935 0.089111
vt 0.307602 0.083374
vt 0.307602 0.094833
vt 0.051514 0.089111
vt 0.708633 0.317352
vt 0.723938 0.279877
vt 0.693329 0.311325
vt 0.691589 0.443802
vt 0.699493 0.417679
vt 0.683701 0.437302
vt 0.684280 0.460175
vt 0.654083 0.097809
vt 0.676163 0.334457
vt 0.654419 0.097870
vt 0.063553 0.129822
vn 0.540000 -0.785900 0.301100
vn 0.542000 0.783800 0.303000
vn 0.066900 0.992500 -0.102500
vn 0.064400 -0.992400 -0.104800
vn 0.163200 0.948400 0.271700
vn 0.350600 0.876800 0.329200
vn 0.558500 -0.760700 0.330900
vn 0.063700 -0.983200 0.170900
vn 0.081000 -0.977400 0.195200
vn -0.001300 -1.000000 -0.001200
vn 0.329300 -0.914300 0.235600
vn 0.331700 0.912900 0.237800
vn -0.481600 -0.810400 -0.333600
vn -0.476100 -0.787600 -0.391200
vn -0.479600 0.812400 -0.331700
vn -0.482600 0.827900 -0.285900
vn 0.096500 0.984200 0.148600
vn 0.031400 0.987900 0.152200
vn 0.097100 -0.910800 0.401200
vn 0.310200 -0.933500 0.179600
vn 0.099400 0.909600 0.403400
vn 0.312600 0.932300 0.181900
vn 0.929200 0.201600 -0.309900
vn 0.922400 -0.194200 -0.333900
vn 0.797300 -0.001700 0.603600
vn 0.237500 0.000900 -0.971400
vn -0.297200 0.882400 -0.364800
vn 0.270800 0.916700 0.293700
vn 0.268500 -0.918100 0.291500
vn -0.207500 -0.878900 -0.429500
vn -0.433600 -0.859400 -0.271000
vn -0.431400 0.861100 -0.269000
vn -0.460300 0.857400 -0.230200
vn 0.564200 0.203300 0.800200
vn -0.025200 0.641400 0.766800
vn 0.563700 -0.206700 0.799700
vn -0.018100 0.985900 0.166100
vn -0.074300 0.763000 0.642200
vn -0.462500 -0.855700 -0.232300
vn -0.024300 -0.636900 0.770500
vn -0.020600 -0.986300 0.163700
vn -0.076200 -0.764600 0.640000
vn -0.246100 0.871000 -0.425300
vn -0.434000 0.001600 -0.900900
vn -0.205300 0.880400 -0.427400
vn -0.631900 0.001700 -0.775000
vn -0.848300 0.001700 -0.529500
vn -0.651400 0.724300 -0.225800
vn -0.333100 0.729300 -0.597600
vn -0.653200 -0.722100 -0.227600
vn -0.248300 -0.869300 -0.427300
vn 0.664700 0.378200 0.644300
vn 0.514500 0.369600 0.773700
vn 0.663800 -0.381400 0.643400
vn 0.513600 -0.372800 0.772800
vn -0.716000 0.697700 -0.024600
vn -0.992000 0.001400 -0.126200
vn -0.718200 -0.695300 -0.025900
vn -0.427200 -0.887800 -0.171500
vn -0.928400 0.001600 -0.371500
vn -0.238500 -0.903400 -0.356200
vn 0.339000 -0.872600 0.351700
vn -0.236200 0.904900 -0.354100
vn 0.341200 0.870900 0.353800
vn -0.334900 -0.727100 -0.599300
vn -0.566900 0.001700 -0.823800
vn -0.874000 0.485900 0.002700
vn -0.874600 -0.484800 0.001900
vn -0.299500 -0.880700 -0.366900
vn -0.838900 -0.425500 0.339400
vn -0.091200 -0.595100 0.798500
vn -0.840500 0.428400 0.331700
vn -0.089000 0.601400 0.794000
vn 0.332800 -0.234300 0.913400
vn 0.334800 0.231200 0.913500
vn -0.424900 0.889200 -0.169400
usemtl OBJ_CITY_SWORDFISHWHEEL_01
s off
f 16/1/1 39/2/1 33/3/1
f 40/4/2 20/5/2 32/6/2
f 32/6/3 4/7/3 5/8/3
f 33/3/4 5/9/4 4/10/4
f 8/11/5 19/12/5 6/13/5
f 6/13/6 7/14/6 8/11/6
f 9/15/7 10/16/7 11/17/7
f 10/16/8 9/15/8 18/18/8
f 13/19/9 16/20/9 12/21/9
f 12/21/10 1/22/10 13/19/10
f 35/23/11 22/24/11 16/1/11
f 34/25/12 20/5/12 21/26/12
f 14/27/13 8/28/13 7/29/13
f 7/29/14 6/30/14 14/27/14
f 15/31/15 11/32/15 10/33/15
f 11/32/16 15/31/16 9/34/16
f 1/35/17 12/36/17 20/37/17
f 20/37/18 13/38/18 1/35/18
f 2/39/19 33/3/19 4/10/19
f 16/1/20 33/3/20 2/39/20
f 2/40/21 4/7/21 32/6/21
f 32/6/22 20/5/22 2/40/22
f 18/41/23 9/42/23 15/43/23
f 19/44/24 14/45/24 6/46/24
f 2/47/25 20/48/25 16/49/25
f 16/50/26 20/51/26 12/52/26
f 21/26/27 30/53/27 31/54/27
f 26/55/28 34/25/28 21/26/28
f 28/56/29 22/24/29 35/23/29
f 39/2/30 43/57/30 41/58/30
f 38/59/31 23/60/31 22/24/31
f 47/61/32 21/26/32 31/54/32
f 24/62/33 21/26/33 36/63/33
f 46/64/34 34/65/34 26/66/34
f 45/67/35 25/68/35 26/55/35
f 35/69/36 46/64/36 28/70/36
f 24/62/37 26/55/37 21/26/37
f 45/67/38 26/55/38 24/62/38
f 27/71/39 37/72/39 22/24/39
f 44/73/40 28/56/40 25/68/40
f 27/71/41 22/24/41 28/56/41
f 27/71/42 28/56/42 44/73/42
f 29/74/43 40/4/43 32/6/43
f 29/75/44 41/76/44 43/77/44
f 40/4/45 29/74/45 30/53/45
f 29/75/44 43/77/44 30/78/44
f 30/78/46 23/79/46 31/80/46
f 31/80/47 23/79/47 38/81/47
f 32/6/48 5/8/48 17/82/48
f 29/74/49 32/6/49 17/82/49
f 33/3/50 17/83/50 5/9/50
f 39/2/51 41/58/51 33/3/51
f 13/84/52 20/85/52 34/65/52
f 46/64/53 13/84/53 34/65/53
f 16/86/54 13/84/54 35/69/54
f 35/69/55 13/84/55 46/64/55
f 24/62/56 36/63/56 45/67/56
f 31/80/47 38/81/47 47/87/47
f 3/88/57 36/89/57 37/90/57
f 44/73/58 37/72/58 27/71/58
f 37/72/59 38/59/59 22/24/59
f 47/87/60 38/81/60 37/90/60
f 22/24/61 43/57/61 39/2/61
f 22/24/62 39/2/62 16/1/62
f 21/26/63 40/4/63 30/53/63
f 21/26/64 20/5/64 40/4/64
f 41/58/65 17/83/65 33/3/65
f 17/91/66 41/76/66 29/75/66
f 45/92/67 36/93/67 3/94/67
f 3/95/68 37/96/68 44/97/68
f 22/24/69 23/60/69 43/57/69
f 30/78/46 43/77/46 23/79/46
f 3/95/70 44/97/70 42/98/70
f 25/68/71 42/99/71 44/73/71
f 45/92/72 3/94/72 42/100/72
f 25/68/73 45/67/73 42/101/73
f 25/102/74 28/70/74 46/64/74
f 26/66/75 25/102/75 46/64/75
f 36/63/76 21/26/76 47/61/76
f 47/87/60 37/90/60 36/89/60
