# Blender v2.75 (sub 0) OBJ File: 'Empty.blend'
# www.blender.org
mtllib ITFO_STEW.mtl
o ITFO_STEW
v 0.043447 0.025000 -0.090796
v -0.128804 0.125000 0.103245
v 0.129318 0.125000 0.102601
v 0.000251 0.025000 0.100656
v -0.071994 0.125000 -0.148549
v 0.089185 -0.000000 0.070759
v 0.160845 0.125000 -0.037134
v -0.098188 0.025000 -0.022153
v 0.000412 0.125000 0.165075
v -0.088831 -0.000000 0.071203
v 0.071253 0.125000 -0.148906
v -0.161028 0.125000 -0.036331
v -0.049651 0.000000 -0.102448
v 0.078852 0.025000 0.062562
v 0.049140 0.000000 -0.102694
v 0.000284 -0.000000 0.113845
v 0.110927 0.000000 -0.025610
v -0.111054 0.000000 -0.025056
v 0.126887 0.065068 -0.026994
v 0.000033 0.065068 0.127505
v -0.134795 0.078122 -0.025609
v 0.051299 0.065068 -0.122923
v 0.062720 0.117121 -0.045541
v -0.078539 0.025000 0.062954
v -0.043899 0.025000 -0.090579
v 0.098076 0.025000 -0.022643
v -0.061394 0.112727 0.000072
v 0.099595 0.065068 0.083624
v 0.000522 0.106530 0.050896
v -0.000353 0.093697 -0.054963
v -0.100580 0.065068 0.088516
v 0.046106 0.112106 0.012944
v -0.056384 0.065068 -0.115879
v -0.147732 0.063482 -0.033332
v -0.118169 0.063482 0.094720
v 0.065369 0.063482 -0.136611
v -0.066050 0.063482 -0.136284
v 0.147564 0.063482 -0.034068
v 0.000378 0.063482 0.151445
v 0.118640 0.063482 0.094129
v 0.000000 -0.006053 -0.000000
vt 0.460667 -0.119358
vt 0.466022 -0.028293
vt 0.646047 -0.016142
vt -0.365000 -0.090000
vt -0.424085 -0.159931
vt -0.460063 -0.090223
vt -0.152471 0.944511
vt -0.157794 0.851621
vt -0.399875 0.825437
vt -0.385422 0.821826
vt -0.388834 0.985902
vt -0.157264 0.993497
vt -0.367610 0.842640
vt -0.404022 0.989252
vt -0.164880 0.949140
vt 0.637265 -0.165489
vt -0.254050 -0.029648
vt -0.252313 -0.124213
vt -0.347705 -0.152756
vt -0.260066 -0.041776
vt -0.262535 -0.150891
vt -0.350692 -0.166170
vt 6.603156 -0.024533
vt 6.653651 -0.189307
vt 6.494243 -0.103703
vt -0.347407 -0.021017
vt 0.460311 -0.195524
vt 0.472298 -0.105783
vt 0.610277 -0.008805
vt -0.391144 0.977777
vt -0.350017 -0.026959
vt -0.283887 -0.026228
vt -0.277158 -0.139417
vt -0.366048 -0.160726
vt -0.269550 -0.108479
vt -0.345816 -0.171984
vt -0.360640 -0.102725
vt 0.632999 -0.010654
vt 0.617593 -0.146960
vt 0.459840 -0.123116
vt -0.255504 -0.064822
vt -0.348181 -0.166879
vt -0.352215 -0.041125
vt 0.590618 -0.155981
vt -0.374999 -0.010154
vt -0.260105 -0.079393
vt -0.361946 -0.162699
vt -0.356991 -0.059700
vt -0.254381 -0.060630
vt -0.349413 -0.160591
vt -0.351328 -0.052475
vt -0.155183 0.893450
vt -0.252941 -0.141904
vt -0.343615 -0.176980
vt -0.424456 -0.020346
vt -0.258407 -0.160543
vt -0.279248 -0.128531
vt -0.252472 -0.159355
vt -0.263830 -0.156820
vt -0.279454 -0.051067
vt -0.418178 -0.338717
vt -0.440791 -0.269101
vt -0.391786 -0.307080
vt -0.344427 -0.339122
vt -0.351094 -0.295597
vt -0.296996 -0.302715
vt -0.363785 -0.250106
vt -0.142678 0.859742
vt 0.469233 -0.040002
vt 6.463453 -0.003232
vt -0.364780 -0.432443
vt -0.444177 -0.408422
vt -0.382817 -0.381909
vt -0.301889 -0.377662
vt -0.471329 -0.338396
vt -0.445089 -0.155160
vt -0.441918 -0.178914
vt -0.451675 -0.014791
vt -0.422231 -0.173306
vt -0.438389 -0.097813
vt -0.424857 -0.148625
vt -0.431756 -0.176542
vt -0.433844 -0.058695
vt -0.439687 -0.042891
vt -0.429255 -0.011553
vt -0.425061 -0.170384
vt -0.423156 -0.186175
vt -0.425675 -0.049056
vt -0.421481 -0.012167
vt -0.344078 -0.002920
vn -0.674800 0.502000 0.540900
vn 0.025700 -0.998300 0.053000
vn 0.373300 0.502000 -0.780200
vn -0.377200 0.502000 -0.778300
vn 0.842700 0.502000 -0.194600
vn 0.384800 -0.470800 0.793900
vn 0.860600 -0.470800 0.194200
vn -0.843700 0.502000 -0.190400
vn 0.677500 0.502000 0.537600
vn -0.859600 -0.470800 0.198500
vn -0.380800 -0.470800 0.795800
vn 0.002200 0.502000 0.864900
vn 0.688400 -0.470800 -0.551800
vn -0.691100 -0.470800 -0.548300
vn -0.002200 -0.470800 -0.882200
vn 0.057500 -0.998300 0.013000
vn -0.025400 -0.998300 0.053100
vn 0.046000 -0.998300 -0.036800
vn -0.000100 -0.998300 -0.058900
vn 0.233500 0.881700 0.410000
vn -0.228000 0.823100 -0.520100
vn 0.629000 0.598800 -0.495700
vn 0.547600 0.825700 0.135100
vn -0.481500 0.842700 0.240800
vn -0.284800 0.882200 -0.374900
vn 0.205700 0.860100 0.466800
vn -0.288600 0.842800 0.454300
vn -0.215000 0.969700 -0.115800
vn 0.195600 0.973400 -0.119600
vn -0.056500 0.922600 -0.381600
vn -0.159800 0.896800 0.412500
vn 0.572100 0.787200 0.230000
vn -0.345800 0.938200 -0.017800
vn -0.026500 0.913900 -0.405100
vn -0.768200 -0.195800 -0.609500
vn -0.955500 -0.195800 0.220600
vn -0.423300 -0.195800 0.884600
vn 0.765200 -0.195800 -0.613300
vn -0.002400 -0.195800 -0.980600
vn 0.956600 -0.195800 0.215800
vn 0.427700 -0.195800 0.882500
vn -0.046100 -0.998300 -0.036600
vn -0.057400 -0.998300 0.013300
usemtl IT_FOOD_01
s off
f 1/1/1 26/2/1 7/3/1
f 41/4/2 6/5/2 16/6/2
f 4/7/3 24/8/3 2/9/3
f 9/10/4 3/11/4 14/12/4
f 12/13/5 2/14/5 24/15/5
f 7/3/1 11/16/1 1/1/1
f 16/17/6 6/18/6 40/19/6
f 6/20/7 17/21/7 38/22/7
f 3/23/8 7/24/8 26/25/8
f 6/20/7 38/22/7 40/26/7
f 8/27/9 25/28/9 5/29/9
f 2/9/3 9/30/3 4/7/3
f 16/17/6 40/19/6 39/31/6
f 18/32/10 10/33/10 35/34/10
f 10/35/11 39/36/11 35/37/11
f 11/38/12 5/39/12 25/40/12
f 17/41/13 36/42/13 38/43/13
f 5/29/9 12/44/9 8/27/9
f 18/32/10 35/34/10 34/45/10
f 13/46/14 34/47/14 37/48/14
f 15/49/15 37/50/15 36/51/15
f 14/12/4 4/52/4 9/10/4
f 15/49/15 13/53/15 37/50/15
f 41/4/16 17/54/16 6/5/16
f 41/4/17 16/6/17 10/55/17
f 10/35/11 16/56/11 39/36/11
f 41/4/18 15/57/18 17/54/18
f 17/41/13 15/58/13 36/42/13
f 13/46/14 18/59/14 34/47/14
f 41/4/19 13/60/19 15/57/19
f 29/61/20 28/62/20 32/63/20
f 30/64/21 23/65/21 22/66/21
f 23/65/22 19/67/22 22/66/22
f 32/63/23 28/62/23 19/67/23
f 24/15/5 8/68/5 12/13/5
f 25/40/12 1/69/12 11/38/12
f 26/25/8 14/70/8 3/23/8
f 21/71/24 31/72/24 27/73/24
f 21/71/25 27/73/25 33/74/25
f 20/75/26 28/62/26 29/61/26
f 27/73/27 20/75/27 29/61/27
f 29/61/28 32/63/28 30/64/28
f 30/64/29 27/73/29 29/61/29
f 33/74/30 27/73/30 30/64/30
f 31/72/31 20/75/31 27/73/31
f 32/63/32 19/67/32 23/65/32
f 30/64/33 32/63/33 23/65/33
f 33/74/34 30/64/34 22/66/34
f 37/48/35 34/47/35 12/76/35
f 2/77/36 12/78/36 34/45/36
f 34/45/36 35/34/36 2/77/36
f 9/79/37 2/80/37 35/37/37
f 38/43/38 36/42/38 11/81/38
f 5/82/39 11/83/39 36/51/39
f 36/51/39 37/50/39 5/82/39
f 12/76/35 5/84/35 37/48/35
f 11/81/38 7/85/38 38/43/38
f 40/26/40 38/22/40 7/86/40
f 35/37/37 39/36/37 9/79/37
f 3/87/41 9/88/41 39/31/41
f 39/31/41 40/19/41 3/87/41
f 7/86/40 3/89/40 40/26/40
f 41/4/42 18/90/42 13/60/42
f 41/4/43 10/55/43 18/90/43
