# Blender v2.75 (sub 0) OBJ File: 'Empty.blend'
# www.blender.org
mtllib ITFO_BOOZE.mtl
o ITFO_BOOZE
v 0.028485 0.199365 0.000000
v 0.026236 -0.100804 -0.025227
v -0.026236 -0.100804 0.025227
v -0.020142 0.199365 0.020142
v 0.026236 -0.100804 0.025227
v -0.026236 -0.100804 -0.025227
v -0.020142 0.199365 -0.020142
v 0.000000 0.083490 0.051571
v 0.014093 0.110258 -0.014093
v -0.019931 0.110258 0.000000
v -0.037925 0.083490 -0.036466
v -0.053634 0.083490 0.000000
v 0.053634 0.083490 -0.000000
v 0.037925 0.083490 -0.036466
v 0.000000 0.110258 0.019931
v 0.000000 0.199365 -0.028485
v 0.000000 0.199365 0.028485
v 0.037925 0.083490 0.036466
v -0.037925 0.083490 0.036466
v -0.000000 0.083490 -0.051571
v 0.019931 0.110258 -0.000000
v -0.014093 0.110258 -0.014093
v 0.044399 0.013743 0.042692
v -0.044399 0.013743 -0.042692
v -0.037104 -0.100804 -0.000000
v 0.037104 -0.100804 -0.000000
v 0.044399 0.013743 -0.042692
v -0.044399 0.013743 0.042692
v 0.000000 -0.100804 0.035676
v 0.000000 -0.100804 -0.035677
v 0.020142 0.199365 -0.020142
v -0.028485 0.199365 0.000000
v 0.020142 0.199365 0.020142
v -0.014093 0.110258 0.014093
v 0.000000 0.110258 -0.019931
v 0.014093 0.110258 0.014093
v -0.062790 0.013743 0.000000
v -0.039291 -0.052727 -0.037780
v 0.062790 0.013743 -0.000000
v 0.039291 -0.052727 0.037780
v 0.000000 0.013743 0.060375
v -0.000000 0.013743 -0.060375
v -0.014093 0.177489 0.014093
v 0.019931 0.177489 0.000000
v -0.019931 0.177489 0.000000
v -0.028485 0.187103 0.000000
v -0.014093 0.177489 -0.014093
v -0.020142 0.187103 -0.020142
v 0.000000 0.177489 -0.019931
v 0.000000 0.187103 -0.028485
v 0.028485 0.187103 0.000000
v 0.014093 0.177489 -0.014093
v 0.020142 0.187103 -0.020142
v 0.014093 0.177489 0.014093
v 0.020142 0.187103 0.020142
v -0.020142 0.187103 0.020142
v 0.000000 0.177489 0.019931
v 0.000000 0.187103 0.028485
v 0.055566 -0.052727 -0.000000
v -0.055566 -0.052727 0.000000
v -0.039291 -0.052727 0.037780
v 0.039291 -0.052727 -0.037780
v 0.000000 -0.052727 0.053429
v -0.000000 -0.052727 -0.053429
vt 0.022229 0.301648
vt 0.067199 0.303546
vt 0.067210 0.367535
vt 0.150672 0.302476
vt 0.100352 0.304121
vt 0.100352 0.367406
vt 0.133035 0.367270
vt 0.157213 0.365547
vt 0.133900 0.303110
vt 0.176987 0.303583
vt 0.181723 0.367804
vt 0.110000 0.250754
vt 0.133284 0.309216
vt 0.133284 0.260785
vt 0.209411 -0.699611
vt 0.169275 -0.698981
vt 0.167753 -0.637286
vt 0.086716 0.260785
vt 0.086716 0.309216
vt 0.110000 0.319246
vt -0.143237 1.366763
vt -0.226763 1.283238
vt -0.185000 1.384061
vt 0.135119 -0.632965
vt 0.198388 -0.562658
vt 0.183504 -0.562553
vt 0.184491 -0.530755
vt 0.030958 0.439222
vt 0.025234 0.466379
vt 0.019098 0.466649
vt 0.037094 0.438951
vt 0.035152 0.436159
vt 0.047612 0.466765
vt 0.041678 0.465319
vt 0.208877 -0.562120
vt 0.199376 -0.530860
vt 0.209865 -0.530322
vt 0.183729 0.440863
vt 0.162930 0.441990
vt 0.162940 0.469076
vt 0.237292 -0.696679
vt 0.213107 -0.637998
vt 0.244613 -0.634685
vt 0.183736 0.423974
vt 0.237595 -0.568686
vt 0.210684 -0.571516
vt 0.022785 0.427230
vt 0.042984 0.425859
vt 0.037590 0.445902
vt 0.057454 0.432103
vt 0.043225 0.448259
vt 0.239696 0.426888
vt 0.171944 -0.570908
vt 0.144069 -0.567216
vt 0.172943 -0.561865
vt 0.008692 0.435414
vt 0.029826 0.446375
vt 0.024482 0.449402
vt -0.185000 1.265939
vt -0.125939 1.325000
vt -0.143237 1.283238
vt 0.183740 0.467950
vt -0.244061 1.325000
vt 0.173930 -0.530067
vt 0.016394 0.365391
vt 0.127765 0.426888
vt 0.043491 0.365547
vt 0.041086 0.437605
vt 0.075985 0.432383
vt 0.135844 0.429905
vt 0.051783 0.430531
vt 0.164110 0.432161
vt 0.100352 0.432119
vt 0.148922 0.430531
vt 0.077071 0.285000
vt 0.140395 -0.695157
vt 0.142929 0.285000
vt 0.050033 0.302476
vt 0.204525 0.441990
vt 0.204536 0.469076
vt -0.226763 1.366763
vt 0.027558 0.437841
vt 0.100352 0.257009
vt 0.066752 0.255910
vt 0.220371 -0.740768
vt 0.122522 0.431705
vt 0.044096 0.254180
vt 0.074123 0.255447
vt 0.032580 0.430552
vt 0.146956 0.447020
vt 0.086244 0.446698
vt 0.072747 0.472408
vt 0.033349 0.471390
vt 0.099582 0.471871
vt 1.080939 0.441169
vt 1.161507 0.474337
vt 1.066553 0.474199
vt 1.024184 0.433663
vt 1.091488 0.472967
vt 0.225866 0.442489
vt 0.179530 0.442447
vt 0.174438 0.472161
vt 0.159515 0.472868
vt 0.240661 0.472220
vt 0.158340 0.497125
vt 0.072309 0.496480
vt 0.113823 0.442834
vt 0.077333 0.442864
vt 0.069526 0.470897
vt 0.121677 0.470854
vt 0.069549 0.498511
vt 0.224562 0.497184
vt 1.169159 0.432739
vt 1.208591 0.432978
vt 1.214130 0.471808
vt 0.121700 0.498468
vt 1.198138 0.498280
vt 1.151796 0.497855
vt 1.076081 0.497746
vt 1.015293 0.472405
vt 1.112148 0.499695
vt 1.147378 0.441266
vt 1.141783 0.497939
vt 0.087505 -0.551342
vt 0.052982 -0.550658
vt 0.046000 -0.525202
vt 0.095340 -0.526181
vt 0.046421 -0.500266
vt 1.035953 0.499133
vt 0.049645 0.496297
vt 0.115878 0.496778
vt 0.047914 0.442002
vt 0.095760 -0.501245
vt 0.126927 0.254420
vt 0.115533 0.253733
vt 0.201754 -0.742726
vt 0.174953 -0.742305
vt 0.155698 0.254736
vt 0.133952 0.255910
vt 0.155669 -0.739751
vn 0.368300 -0.096600 0.924700
vn 0.368300 -0.096600 -0.924700
vn 0.913900 -0.099300 0.393700
vn 0.913900 -0.099300 -0.393700
vn 0.000000 -1.000000 0.000000
vn -0.913900 -0.099300 0.393700
vn 0.000000 1.000000 -0.000000
vn -0.368300 -0.096600 0.924700
vn -0.923900 -0.000000 0.382700
vn 0.382700 0.000000 0.923900
vn 0.923900 -0.000000 -0.382700
vn -0.923900 0.000000 -0.382700
vn -0.382700 0.000000 -0.923900
vn -0.913900 -0.099300 -0.393700
vn -0.258400 0.737500 -0.623900
vn -0.600800 0.756400 -0.258800
vn -0.602300 0.758300 0.249500
vn 0.600800 0.756400 0.258800
vn 0.603100 0.754100 -0.259800
vn 0.249100 0.739400 -0.625500
vn -0.249100 0.739400 0.625500
vn 0.258400 0.737500 0.623900
vn -0.382700 -0.000000 0.923900
vn 0.248200 0.741700 0.623100
vn -0.603100 0.754100 0.259800
vn -0.248200 0.741700 -0.623100
vn -0.368300 -0.096600 -0.924700
vn 0.602300 0.758300 -0.249500
vn -0.608500 0.752400 -0.252100
vn 0.367500 0.116500 0.922700
vn 0.911800 0.119700 0.392800
vn -0.367500 0.116500 -0.922700
vn -0.911800 0.119700 -0.392800
vn 0.911800 0.119700 -0.392800
vn 0.367500 0.116500 -0.922700
vn -0.911800 0.119700 0.392800
vn -0.367500 0.116500 0.922700
vn 0.382700 0.000000 -0.923900
vn 0.923900 0.000000 0.382700
vn -0.255800 0.743800 0.617500
vn 0.255800 0.743800 -0.617500
vn 0.608500 0.752400 0.252100
vn -0.350000 -0.324500 -0.878800
vn -0.866100 -0.332600 -0.373100
vn 0.350000 -0.324500 0.878800
vn 0.866100 -0.332600 0.373100
vn -0.713700 -0.635000 0.295600
vn -0.295600 -0.635000 0.713700
vn 0.713700 -0.635000 -0.295600
vn 0.713700 -0.635000 0.295600
vn -0.713700 -0.635000 -0.295600
vn -0.295600 -0.635000 -0.713700
vn 0.295600 -0.635000 -0.713700
vn 0.295600 -0.635000 0.713700
vn 0.866100 -0.332600 -0.373100
vn -0.866100 -0.332600 0.373100
vn -0.350000 -0.324500 0.878800
vn 0.350000 -0.324500 -0.878800
usemtl IT_FOOD_01
s off
f 63/1/1 40/2/1 23/3/1
f 62/4/2 64/5/2 42/6/2
f 40/2/3 39/7/3 23/3/3
f 62/4/2 42/6/2 27/8/2
f 59/9/4 62/10/4 27/11/4
f 26/12/5 6/13/5 2/14/5
f 60/15/6 61/16/6 28/17/6
f 5/18/5 3/19/5 25/20/5
f 31/21/7 4/22/7 1/23/7
f 61/16/8 41/24/8 28/17/8
f 10/25/9 34/26/9 43/27/9
f 15/28/10 54/29/10 57/30/10
f 15/28/10 36/31/10 54/29/10
f 21/32/11 52/33/11 44/34/11
f 22/35/12 45/36/12 47/37/12
f 35/38/13 22/39/13 47/40/13
f 38/41/14 37/42/14 24/43/14
f 20/44/15 22/39/15 35/38/15
f 11/45/16 12/46/16 10/25/16
f 12/46/17 34/26/17 10/25/17
f 18/47/18 13/48/18 21/49/18
f 39/7/4 59/9/4 27/11/4
f 13/48/19 14/50/19 9/51/19
f 14/52/20 20/44/20 35/38/20
f 19/53/21 8/54/21 15/55/21
f 8/56/22 36/57/22 15/58/22
f 32/59/7 16/60/7 7/61/7
f 35/38/13 47/40/13 49/62/13
f 1/23/7 4/22/7 17/63/7
f 34/26/23 57/64/23 43/27/23
f 8/56/24 18/47/24 36/57/24
f 63/1/1 23/3/1 41/65/1
f 12/46/25 19/53/25 34/26/25
f 60/15/6 28/17/6 37/42/6
f 20/44/26 11/66/26 22/39/26
f 64/5/27 24/67/27 42/6/27
f 13/48/28 9/51/28 21/49/28
f 21/32/11 9/68/11 52/33/11
f 11/45/29 10/25/29 22/35/29
f 22/35/12 10/25/12 45/36/12
f 41/65/30 23/3/30 18/69/30
f 23/3/31 13/70/31 18/69/31
f 42/6/32 24/67/32 11/71/32
f 24/43/33 12/46/33 11/45/33
f 26/12/5 25/20/5 6/13/5
f 38/41/14 60/15/14 37/42/14
f 5/18/5 25/20/5 26/12/5
f 40/2/3 59/9/3 39/7/3
f 39/7/34 27/11/34 14/72/34
f 27/8/35 20/73/35 14/74/35
f 37/42/36 28/17/36 19/53/36
f 28/17/37 8/54/37 19/53/37
f 29/75/5 3/19/5 5/18/5
f 61/16/8 63/76/8 41/24/8
f 2/14/5 6/13/5 30/77/5
f 64/5/27 38/78/27 24/67/27
f 16/60/7 32/59/7 31/21/7
f 9/79/38 49/62/38 52/80/38
f 31/21/7 32/59/7 4/22/7
f 10/25/9 43/27/9 45/36/9
f 1/23/7 17/63/7 33/81/7
f 36/82/39 44/34/39 54/29/39
f 19/53/40 15/55/40 34/26/40
f 34/26/23 15/55/23 57/64/23
f 14/52/41 35/38/41 9/79/41
f 9/79/38 35/38/38 49/62/38
f 18/47/42 21/49/42 36/57/42
f 36/82/39 21/32/39 44/34/39
f 24/43/33 37/42/33 12/46/33
f 37/42/36 19/53/36 12/46/36
f 30/83/43 6/84/43 38/78/43
f 6/85/44 60/15/44 38/41/44
f 39/7/34 14/72/34 13/86/34
f 23/3/31 39/7/31 13/70/31
f 29/87/45 5/88/45 40/2/45
f 5/88/46 59/9/46 40/2/46
f 28/17/37 41/24/37 8/54/37
f 41/65/30 18/69/30 8/89/30
f 42/6/32 11/71/32 20/73/32
f 27/8/35 42/6/35 20/73/35
f 45/90/47 43/91/47 56/92/47
f 43/91/48 58/93/48 56/94/48
f 44/95/49 53/96/49 51/97/49
f 54/98/50 44/95/50 51/99/50
f 47/100/51 45/101/51 46/102/51
f 45/90/47 56/92/47 46/103/47
f 48/104/12 46/102/12 32/105/12
f 46/103/9 4/106/9 32/105/9
f 49/107/52 47/108/52 48/109/52
f 47/100/51 46/102/51 48/104/51
f 50/110/13 48/109/13 7/111/13
f 48/104/12 32/105/12 7/112/12
f 49/107/52 48/109/52 50/110/52
f 52/113/53 49/114/53 50/115/53
f 50/110/13 7/111/13 16/116/13
f 53/96/38 50/115/38 16/117/38
f 51/97/11 31/118/11 1/119/11
f 55/120/39 51/99/39 1/121/39
f 44/95/49 52/122/49 53/96/49
f 52/113/53 50/115/53 53/96/53
f 51/97/11 53/96/11 31/118/11
f 53/96/38 16/117/38 31/123/38
f 57/124/54 54/125/54 55/126/54
f 54/98/50 51/99/50 55/120/50
f 58/127/10 55/126/10 33/128/10
f 55/120/39 1/121/39 33/129/39
f 46/103/9 56/92/9 4/106/9
f 56/94/23 17/130/23 4/131/23
f 43/91/48 57/132/48 58/93/48
f 57/124/54 55/126/54 58/127/54
f 56/94/23 58/93/23 17/130/23
f 58/127/10 33/128/10 17/133/10
f 26/134/55 62/10/55 59/9/55
f 5/88/46 26/135/46 59/9/46
f 6/85/44 25/136/44 60/15/44
f 25/136/56 61/16/56 60/15/56
f 25/136/56 3/137/56 61/16/56
f 3/137/57 63/76/57 61/16/57
f 26/134/55 2/138/55 62/10/55
f 2/139/58 64/5/58 62/4/58
f 3/137/57 29/140/57 63/76/57
f 29/87/45 40/2/45 63/1/45
f 30/83/43 38/78/43 64/5/43
f 2/139/58 30/83/58 64/5/58
