# Blender v2.75 (sub 0) OBJ File: 'Empty.blend'
# www.blender.org
mtllib ITFO_MILK.mtl
o ITFO_MILK
v 0.041019 0.199365 -0.000076
v -0.109910 -0.011265 -0.000076
v 0.066426 -0.118487 0.063795
v 0.000000 0.094351 0.028625
v -0.029005 0.199365 -0.029081
v 0.066426 -0.118487 -0.063947
v 0.109910 -0.011265 -0.000076
v -0.066426 -0.118487 0.063795
v -0.066426 -0.118487 -0.063947
v -0.000000 -0.011265 -0.105759
v -0.029005 0.199365 0.028929
v -0.077718 -0.011265 0.074653
v -0.028701 0.094351 -0.000076
v -0.077718 -0.011265 -0.074805
v 0.077718 -0.011265 0.074653
v 0.028701 0.094351 -0.000076
v 0.000000 0.094351 -0.028777
v 0.077718 -0.011265 -0.074805
v 0.000000 -0.011265 0.105607
v -0.093940 -0.118487 -0.000076
v 0.093940 -0.118487 -0.000076
v 0.000000 -0.118487 0.090251
v -0.000000 -0.118487 -0.090403
v 0.000000 0.199365 -0.041095
v 0.000000 0.199365 0.040943
v 0.029005 0.199365 -0.029081
v -0.041019 0.199365 -0.000076
v 0.029005 0.199365 0.028929
v 0.020295 0.094351 -0.020370
v -0.020295 0.094351 0.020219
v -0.020295 0.094351 -0.020370
v 0.020295 0.094351 0.020219
v -0.020295 0.177489 -0.020370
v -0.020295 0.177489 0.020219
v 0.028701 0.177489 -0.000076
v -0.029005 0.187103 -0.029081
v 0.000000 0.177489 -0.028777
v 0.000000 0.187103 -0.041095
v -0.028701 0.177489 -0.000076
v -0.041019 0.187103 -0.000076
v 0.041019 0.187103 -0.000076
v 0.020295 0.177489 -0.020370
v 0.029005 0.187103 -0.029081
v 0.020295 0.177489 0.020219
v 0.029005 0.187103 0.028929
v -0.029005 0.187103 0.028929
v 0.000000 0.177489 0.028625
v 0.000000 0.187103 0.040943
v -0.077718 -0.067150 -0.074805
v 0.077718 -0.067150 0.074653
v 0.086885 0.036130 -0.000076
v -0.086885 0.036130 -0.000076
v 0.061437 0.036130 0.058998
v -0.061437 0.036130 -0.059150
v -0.061437 0.036130 0.058998
v 0.061437 0.036130 -0.059150
v 0.000000 0.036130 0.083468
v -0.000000 0.036130 -0.083620
v -0.109910 -0.067150 -0.000076
v 0.109910 -0.067150 -0.000076
v -0.077718 -0.067150 0.074653
v 0.077718 -0.067150 -0.074805
v 0.000000 -0.067150 0.105607
v -0.000000 -0.067150 -0.105759
vt 0.319524 0.168930
vt 0.406191 0.168550
vt 0.378054 0.217917
vt -0.591883 0.170385
vt 0.473971 1.170619
vt -0.590574 0.214075
vt 0.417779 0.166848
vt 0.445187 0.215859
vt 0.431343 0.215598
vt 0.401656 1.214045
vt 0.427191 1.215140
vt 0.321220 0.159884
vt 0.351239 0.159884
vt 0.351239 0.220116
vt 0.321220 0.220116
vt 0.271329 0.029567
vt 0.315015 0.139252
vt 0.315015 0.010748
vt -0.725779 0.165512
vt -0.658470 0.166108
vt -0.657278 0.214981
vt -0.697070 0.066314
vt -0.600482 0.072204
vt -0.600482 0.139259
vt 0.467872 0.064286
vt 0.281870 0.129987
vt 0.465187 0.130663
vt 0.271329 0.120433
vt 0.278988 0.169391
vt 0.344828 0.169785
vt 0.293508 0.219111
vt -0.722924 0.065813
vt -0.641724 0.133940
vt -0.713443 0.132388
vt 0.397520 1.167187
vt 0.323320 1.171518
vt 0.376467 1.215567
vt 0.394934 1.059272
vt 0.301919 1.138332
vt 0.395782 1.128024
vt 0.491644 1.067441
vt -0.446143 -1.106157
vt -0.483828 -1.143843
vt -0.464985 -1.098353
vt 0.253750 0.154884
vt 0.283768 0.215116
vt 0.253750 0.215116
vt -0.651205 0.067364
vt -0.550623 0.136086
vt -0.652710 0.134622
vt 0.271124 0.219177
vt 0.283768 0.154884
vt 0.492493 1.136193
vt -0.697070 0.133369
vt -0.549572 0.068847
vt -0.681113 0.169771
vt -0.626787 0.215080
vt 0.391678 0.158453
vt 0.408349 0.221547
vt 0.391678 0.221547
vt 0.517234 0.150597
vt 0.500010 0.150597
vt 0.500010 0.219403
vt 0.408349 0.158453
vt -0.503893 0.133369
vt -0.574866 0.070245
vt -0.508446 0.134095
vt -0.582938 0.137006
vt 0.459571 0.167221
vt 0.358700 0.120433
vt 0.301071 1.069579
vt 0.358700 0.029567
vt -0.503893 0.066314
vt 0.253234 0.075000
vt -0.500373 0.067334
vt 0.376795 0.075000
vt 0.284555 0.063610
vt 0.517234 0.219403
vt -0.464985 -1.151648
vt -0.491633 -1.125000
vt 0.278768 0.220116
vt -0.438338 -1.125000
vt 0.420137 0.221547
vt -0.446143 -1.143843
vt 0.482787 0.219403
vt -0.483828 -1.106157
vt 0.379890 0.158453
vt 0.379890 0.221547
vt -0.612362 0.214202
vt 0.420137 0.158453
vt 0.349346 0.218182
vt 0.482787 0.150597
vt -0.674264 0.214911
vt 0.417288 0.187260
vt 0.362674 0.187551
vt 0.351140 0.222458
vt 0.354066 0.187796
vt 0.297011 0.222760
vt 0.358340 0.224095
vt -0.408013 0.175499
vt -0.355927 0.175724
vt -0.349972 0.219676
vt -0.340990 0.175946
vt -0.260735 0.217558
vt -0.354905 0.218060
vt 0.534890 0.174583
vt 0.549058 0.217543
vt 0.533466 0.216815
vt 0.329720 0.175000
vt 0.392608 0.175589
vt 0.400079 0.217958
vt 0.429194 0.222042
vt 0.351280 0.248865
vt 0.308233 0.246495
vt 0.369562 0.247831
vt 0.617042 0.173738
vt 0.562108 0.173601
vt 0.555514 0.219912
vt 0.429334 0.248449
vt 0.634024 0.220106
vt 0.540419 0.249932
vt 0.311154 0.186862
vt -0.424413 0.219355
vt -0.335853 0.248237
vt -0.410294 0.247916
vt 0.547953 0.250310
vt 0.532361 0.249582
vt 0.310201 0.217117
vt 0.405875 0.250831
vt 0.545800 0.175092
vt 0.618929 0.250127
vt -0.339830 0.173922
vt -0.287743 0.174051
vt -0.271641 0.218017
vt -0.346082 0.217832
vt -0.285954 0.246482
vt 0.315998 0.249991
vt -0.260565 0.249418
vt -0.354736 0.249920
vt -0.275099 0.175595
vt -0.360395 0.246297
vt 0.477519 1.007681
vt 0.394861 1.000700
vt -0.574118 0.005188
vt -0.510449 0.002701
vt -0.683036 0.002651
vt -0.688723 0.141094
vt -0.741159 0.136063
vt -0.656013 0.136817
vt 0.302431 0.143423
vt 0.409404 0.136736
vt 0.462272 0.137208
vt 0.385718 0.143923
vt 0.313946 0.138540
vt -0.575847 0.141871
vt -0.590180 0.144566
vt 0.423579 0.138059
vt 0.314636 1.009509
vt -0.713935 0.000894
vt -0.600482 0.007685
vt -0.652637 0.002220
vt -0.517927 0.002651
vt 0.456247 0.000951
vt -0.555629 0.004068
vt 0.299566 0.000373
vn -0.278400 0.658600 0.699100
vn 0.278400 0.658600 -0.699100
vn 0.288700 0.656500 0.696900
vn -0.288700 0.656500 -0.696900
vn 0.382700 0.000000 0.923900
vn 0.000000 -1.000000 -0.000000
vn 0.676600 0.676200 0.291500
vn 0.918400 -0.000000 0.395600
vn 0.370000 0.000000 -0.929000
vn -0.678400 0.674100 0.292200
vn -0.918400 0.000000 0.395600
vn -0.676600 0.676200 -0.291500
vn -0.918400 0.000000 -0.395600
vn -0.370000 0.000000 -0.929000
vn 0.000000 1.000000 -0.000000
vn -0.923900 0.000000 0.382700
vn -0.370000 0.000000 0.929000
vn -0.678800 0.678400 0.281200
vn -0.277700 0.660700 -0.697300
vn 0.678800 0.678400 -0.281200
vn 0.923900 -0.000000 -0.382700
vn -0.382700 0.000000 -0.923900
vn 0.918400 0.000000 -0.395600
vn 0.678400 0.674100 -0.292200
vn 0.370000 0.000000 0.929000
vn 0.277700 0.660700 0.697300
vn -0.382700 -0.000000 0.923900
vn 0.382700 0.000000 -0.923900
vn -0.923900 0.000000 -0.382700
vn 0.923900 0.000000 0.382700
vn 0.286500 0.663100 -0.691600
vn -0.286500 0.663100 0.691600
vn -0.684100 0.672100 -0.283300
vn 0.684100 0.672100 0.283300
vn -0.247000 -0.763900 -0.596200
vn -0.596200 -0.763900 -0.247000
vn -0.596200 -0.763900 0.247000
vn -0.247000 -0.763900 0.596200
vn 0.596200 -0.763900 -0.247000
vn 0.596200 -0.763900 0.247000
vn 0.247000 -0.763900 -0.596200
vn 0.247000 -0.763900 0.596200
vn -0.356500 -0.267700 -0.895100
vn -0.883100 -0.274700 -0.380400
vn 0.356500 -0.267700 0.895100
vn 0.883100 -0.274700 0.380400
vn 0.838700 0.407500 -0.361300
vn 0.838700 0.407500 0.361300
vn -0.838700 0.407500 -0.361300
vn -0.838700 0.407500 0.361300
vn 0.339400 0.398100 0.852200
vn -0.339400 0.398100 -0.852200
vn -0.339400 0.398100 0.852200
vn 0.339400 0.398100 -0.852200
vn -0.883100 -0.274700 0.380400
vn 0.883100 -0.274700 -0.380400
vn -0.356500 -0.267700 0.895100
vn 0.356500 -0.267700 -0.895100
usemtl IT_FOOD_01
s off
f 55/1/1 57/2/1 4/3/1
f 56/4/2 58/5/2 17/6/2
f 57/7/3 32/8/3 4/9/3
f 58/5/4 31/10/4 17/11/4
f 4/12/5 32/13/5 44/14/5
f 4/12/5 44/14/5 47/15/5
f 3/16/6 20/17/6 21/18/6
f 53/19/7 51/20/7 16/21/7
f 50/22/8 60/23/8 7/24/8
f 62/25/9 10/26/9 18/27/9
f 3/16/6 8/28/6 20/17/6
f 52/29/10 55/30/10 30/31/10
f 59/32/11 12/33/11 2/34/11
f 54/35/12 52/36/12 13/37/12
f 49/38/13 2/39/13 14/40/13
f 64/41/14 49/38/14 14/40/14
f 26/42/15 11/43/15 1/44/15
f 13/45/16 34/46/16 39/47/16
f 59/32/11 61/48/11 12/33/11
f 61/48/17 19/49/17 12/50/17
f 52/29/18 30/31/18 13/51/18
f 13/45/16 30/52/16 34/46/16
f 64/41/14 14/40/14 10/53/14
f 58/5/19 54/35/19 31/10/19
f 50/22/8 7/24/8 15/54/8
f 61/48/17 63/55/17 19/49/17
f 51/56/20 29/57/20 16/21/20
f 16/58/21 42/59/21 35/60/21
f 17/61/22 31/62/22 33/63/22
f 16/58/21 29/64/21 42/59/21
f 7/24/23 60/23/23 18/65/23
f 51/56/24 56/4/24 29/57/24
f 63/66/25 15/67/25 19/68/25
f 57/7/26 53/69/26 32/8/26
f 21/18/6 20/17/6 9/70/6
f 49/38/13 59/71/13 2/39/13
f 21/18/6 9/70/6 6/72/6
f 60/23/23 62/73/23 18/65/23
f 22/74/6 8/28/6 3/16/6
f 63/66/25 50/75/25 15/67/25
f 6/72/6 9/70/6 23/76/6
f 62/25/9 64/77/9 10/26/9
f 17/61/22 33/63/22 37/78/22
f 26/42/15 27/79/15 11/43/15
f 1/44/15 11/43/15 25/80/15
f 30/52/27 47/15/27 34/81/27
f 24/82/15 27/79/15 26/42/15
f 29/64/28 37/83/28 42/59/28
f 27/79/15 24/82/15 5/84/15
f 31/62/29 39/85/29 33/63/29
f 1/44/15 25/80/15 28/86/15
f 32/87/30 35/60/30 44/88/30
f 56/4/31 17/6/31 29/89/31
f 29/64/28 17/90/28 37/83/28
f 55/1/32 4/3/32 30/91/32
f 30/52/27 4/12/27 47/15/27
f 54/35/33 13/37/33 31/10/33
f 31/62/29 13/92/29 39/85/29
f 53/19/34 16/21/34 32/93/34
f 32/87/30 16/58/30 35/60/30
f 37/94/35 33/95/35 36/96/35
f 33/97/36 40/98/36 36/99/36
f 39/100/37 34/101/37 46/102/37
f 34/103/38 48/104/38 46/105/38
f 35/106/39 43/107/39 41/108/39
f 44/109/40 35/110/40 41/111/40
f 38/112/22 36/96/22 5/113/22
f 36/99/29 27/114/29 5/115/29
f 37/94/35 36/96/35 38/112/35
f 42/116/41 37/117/41 38/118/41
f 38/112/22 5/113/22 24/119/22
f 43/120/28 38/118/28 24/121/28
f 33/97/36 39/122/36 40/98/36
f 39/100/37 46/102/37 40/123/37
f 36/99/29 40/98/29 27/114/29
f 40/123/16 11/124/16 27/125/16
f 41/108/21 26/126/21 1/127/21
f 45/128/30 41/111/30 1/129/30
f 35/106/39 42/130/39 43/107/39
f 42/116/41 38/118/41 43/120/41
f 41/108/21 43/107/21 26/126/21
f 43/120/28 24/121/28 26/131/28
f 47/132/42 44/133/42 45/134/42
f 44/109/40 41/111/40 45/128/40
f 48/135/5 45/134/5 28/136/5
f 45/128/30 1/129/30 28/137/30
f 40/123/16 46/102/16 11/124/16
f 46/105/27 25/138/27 11/139/27
f 34/103/38 47/140/38 48/104/38
f 47/132/42 45/134/42 48/135/42
f 46/105/27 48/104/27 25/138/27
f 48/135/5 28/136/5 25/141/5
f 23/142/43 9/143/43 49/38/43
f 9/143/44 59/71/44 49/38/44
f 22/144/45 3/145/45 50/75/45
f 3/146/46 60/23/46 50/22/46
f 7/147/47 56/4/47 51/56/47
f 15/148/48 7/149/48 51/20/48
f 14/40/49 2/39/49 52/36/49
f 2/150/50 55/30/50 52/29/50
f 19/151/51 15/152/51 53/69/51
f 15/148/48 51/20/48 53/19/48
f 10/53/52 14/40/52 54/35/52
f 14/40/49 52/36/49 54/35/49
f 2/150/50 12/153/50 55/30/50
f 12/154/53 57/2/53 55/1/53
f 7/147/47 18/155/47 56/4/47
f 18/156/54 58/5/54 56/4/54
f 12/154/53 19/157/53 57/2/53
f 19/151/51 53/69/51 57/7/51
f 10/53/52 54/35/52 58/5/52
f 18/156/54 10/53/54 58/5/54
f 9/143/44 20/158/44 59/71/44
f 20/159/55 61/48/55 59/32/55
f 21/160/56 62/73/56 60/23/56
f 3/146/46 21/160/46 60/23/46
f 20/159/55 8/161/55 61/48/55
f 8/161/57 63/55/57 61/48/57
f 21/160/56 6/162/56 62/73/56
f 6/163/58 64/77/58 62/25/58
f 8/161/57 22/164/57 63/55/57
f 22/144/45 50/75/45 63/66/45
f 23/142/43 49/38/43 64/41/43
f 6/163/58 23/165/58 64/77/58
