# Blender v2.75 (sub 0) OBJ File: 'Empty.blend'
# www.blender.org
mtllib ITFO_FISHSOUP.mtl
o ITFO_FISHSOUP
v 0.085500 0.062461 0.148090
v 0.085500 0.062461 -0.148090
v -0.085500 0.062461 0.148090
v 0.148090 0.062461 0.085500
v -0.148090 0.062461 0.085500
v -0.000000 0.062461 -0.171000
v -0.171000 0.062461 0.000000
v -0.085500 0.062461 -0.148090
v 0.171000 0.062461 -0.000000
v -0.075967 -0.000261 -0.043860
v 0.064257 0.005762 0.037099
v 0.043860 -0.000261 0.075967
v -0.000000 -0.000261 -0.087719
v -0.037103 0.005762 -0.064266
v -0.105547 0.043325 -0.060937
v 0.000000 0.062461 0.171000
v -0.075967 -0.000261 0.043860
v 0.075967 -0.000261 -0.043860
v 0.105547 0.043325 -0.060937
v -0.037103 0.005762 0.064266
v 0.060938 0.043325 0.105547
v -0.057526 0.046305 0.099638
v 0.148090 0.062461 -0.085500
v 0.099630 0.046305 0.057521
v -0.000000 0.043325 -0.121875
v 0.064257 0.005762 -0.037099
v -0.057526 0.046305 -0.099638
v -0.148090 0.062461 -0.085500
v -0.115052 0.046305 0.000000
v 0.121875 0.043329 -0.000000
v 0.087719 -0.000261 -0.000000
v -0.121875 0.043325 0.000000
v -0.060937 0.043325 0.105547
v 0.000000 -0.000261 0.087719
v 0.057522 0.046305 0.099630
v -0.064265 0.005762 0.037104
v 0.037099 0.005762 0.064257
v 0.099630 0.046305 -0.057521
v 0.057522 0.046305 -0.099630
v 0.037099 0.005762 -0.064257
v -0.060938 0.043325 -0.105547
v 0.000000 0.043325 0.121875
v -0.105547 0.043325 0.060938
v -0.064265 0.005762 -0.037104
v 0.105547 0.043325 0.060937
v 0.060937 0.043325 -0.105547
v -0.099638 0.046305 -0.057526
v -0.099638 0.046305 0.057526
v 0.115043 0.046305 -0.000000
v 0.000000 0.046305 -0.115043
v 0.000000 0.046305 0.115043
v -0.043860 -0.000261 0.075967
v -0.087719 -0.000261 0.000000
v 0.075967 -0.000261 0.043860
v -0.043860 -0.000261 -0.075967
v 0.043860 -0.000261 -0.075967
v 0.085500 0.057739 -0.148090
v 0.085500 0.057739 0.148090
v 0.000000 0.057739 0.171000
v -0.148090 0.057739 0.085500
v -0.171000 0.057739 0.000000
v -0.148090 0.057739 -0.085500
v -0.000000 0.057739 -0.171000
v -0.085500 0.057739 -0.148090
v 0.148090 0.057739 0.085500
v 0.148090 0.057739 -0.085500
v -0.085500 0.057739 0.148090
v 0.171000 0.057743 -0.000000
v -0.074207 0.005762 0.000000
v 0.074198 0.005762 -0.000000
v 0.000001 0.005762 0.074197
v 0.000001 0.005762 -0.074197
v 0.000000 0.002136 -0.000000
v 0.057522 0.039634 0.099630
v 0.057522 0.039634 -0.099630
v 0.115043 0.039634 -0.000000
v 0.099630 0.039634 0.057521
v 0.099630 0.039634 -0.057521
v -0.057526 0.039634 0.099638
v -0.115052 0.039634 0.000000
v -0.099638 0.039634 0.057526
v -0.057526 0.039634 -0.099638
v 0.000000 0.039634 -0.115043
v 0.000000 0.039634 0.115043
v -0.099638 0.039634 -0.057526
vt 0.000000 -0.000000
vt -0.899122 0.303187
vt -0.899122 0.336813
vt -0.870000 0.353627
vt 0.015205 0.339911
vt 0.015277 0.339930
vt 0.015205 0.340198
vt 0.015205 0.340278
vt 0.015316 0.340248
vt -0.870000 0.286373
vt -0.840879 0.303187
vt -0.897509 -1.688562
vt -0.931886 -1.668037
vt -0.905274 -1.658864
vt -0.926770 0.352776
vt -0.902776 0.376770
vt -0.893360 0.360461
vt -0.795830 -1.621137
vt -0.769214 -1.611962
vt -0.756632 -1.640000
vt -0.846640 0.279539
vt -0.829539 0.296640
vt -0.813231 0.287224
vt -0.870000 0.385552
vt -0.870000 0.366720
vt -0.882145 -1.672674
vt -0.795826 -1.658864
vt -0.787365 -1.640000
vt -0.803591 -1.591438
vt -0.818957 -1.607328
vt -0.850550 -1.602274
vt -0.910461 0.296640
vt -0.893360 0.279539
vt -0.902776 0.263230
vt -0.829539 0.343360
vt -0.840879 0.336813
vt -0.853187 0.349122
vt -0.886814 0.349122
vt -0.913735 -1.640000
vt -0.944468 -1.640000
vt -0.931886 -1.611962
vt -0.905270 -1.621137
vt -0.897509 -1.591438
vt -0.886814 0.290879
vt -0.903627 0.320000
vt -0.916720 0.320000
vt -0.910461 0.343360
vt -0.823280 0.320000
vt -0.818955 -1.672674
vt -0.769214 -1.668037
vt -0.837224 0.376770
vt -0.846640 0.360461
vt -0.813231 0.352776
vt -0.935552 0.320000
vt -0.853187 0.290879
vt -0.837224 0.263230
vt -0.870000 0.254448
vt -0.926770 0.287224
vt 0.015093 0.339861
vt 0.015011 0.339943
vt 0.015080 0.339983
vt 0.014981 0.340055
vt -0.850550 -1.583925
vt -0.870000 0.273280
vt -0.882143 -1.607328
vt -0.804448 0.320000
vt 0.015133 0.340179
vt 0.015428 0.340055
vt 0.015398 0.339943
vt 0.015329 0.339983
vt -0.803591 -1.688562
vt -0.850550 -1.696075
vt -0.850550 -1.677728
vt 0.015080 0.340126
vt 0.015011 0.340166
vt 0.015398 0.340166
vt 0.015349 0.340055
vt -0.836373 0.320000
vt 0.015205 0.339831
vt 0.003254 -0.640041
vt 0.004331 -0.639015
vt 0.004778 -0.637633
vt -0.000900 -0.637615
vt -0.000575 -0.639015
vt 0.000435 -0.640058
vt -0.000453 -0.636232
vt 0.002041 -0.634814
vt 0.000610 -0.635189
vt 0.003443 -0.635189
vt 0.002054 -0.634831
vt 0.004439 -0.636214
vt 0.003456 -0.635207
vt 0.004453 -0.636232
vt 0.001836 -0.640434
vt 0.000422 -0.640041
vt 0.003267 -0.640058
vt 0.480204 -0.334999
vt 0.314898 -0.260846
vt 0.425102 -0.260846
vt 0.259795 -0.334999
vt 0.370000 -0.248601
vt 0.274560 -0.289300
vt 0.425106 -0.414157
vt 0.314893 -0.414157
vt 0.370000 -0.426403
vt 0.465440 -0.289300
vt 0.274553 -0.380701
vt 0.465447 -0.380701
vn 0.048800 0.998700 0.013100
vn 0.013100 0.998700 -0.048800
vn 0.035700 0.998700 -0.035700
vn -0.035700 0.998700 -0.035700
vn 0.013100 0.998700 0.048800
vn 0.035700 0.998700 0.035700
vn 0.048800 0.998700 -0.013100
vn -0.048800 0.998700 -0.013100
vn -0.013100 0.998700 -0.048800
vn -0.013100 0.998700 0.048800
vn -0.035700 0.998700 0.035700
vn -0.048800 0.998700 0.013100
vn 0.000000 -1.000000 -0.000000
vn 0.692300 0.697400 0.185500
vn -0.692300 0.697400 0.185500
vn 0.202500 0.958100 -0.202500
vn -0.205500 -0.956800 0.205500
vn -0.074100 0.958100 0.276600
vn 0.205500 -0.956800 -0.205500
vn -0.280800 -0.956800 0.075200
vn 0.074100 0.958100 0.276600
vn -0.276600 0.958100 0.074100
vn 0.205500 -0.956800 0.205500
vn -0.563800 -0.603500 -0.563800
vn -0.770200 -0.603500 0.206400
vn -0.074100 0.958100 -0.276600
vn -0.202500 0.958100 -0.202500
vn 0.563800 -0.603500 0.563800
vn -0.206400 -0.603500 0.770200
vn 0.563800 -0.603500 -0.563800
vn -0.206400 -0.603500 -0.770200
vn 0.202500 0.958100 0.202500
vn 0.074100 0.958100 0.276700
vn -0.280800 -0.956800 -0.075200
vn -0.075200 -0.956800 -0.280800
vn 0.074100 0.958100 -0.276600
vn -0.075200 -0.956800 0.280800
vn 0.280800 -0.956800 0.075200
vn 0.074100 0.958100 -0.276700
vn 0.075200 -0.956800 0.280800
vn 0.506800 0.697400 -0.506800
vn 0.185400 0.697400 -0.692300
vn 0.280800 -0.956800 -0.075200
vn -0.276600 0.958100 -0.074100
vn 0.075200 -0.956800 -0.280800
vn -0.692300 0.697400 -0.185500
vn 0.185400 0.697400 0.692300
vn 0.506800 0.697400 0.506800
vn -0.205500 -0.956800 -0.205500
vn 0.276700 0.958100 0.074100
vn 0.276700 0.958100 -0.074100
vn 0.770200 -0.603500 -0.206300
vn 0.770200 -0.603500 -0.206400
vn -0.770200 -0.603500 -0.206400
vn -0.563800 -0.603500 0.563800
vn 0.206400 -0.603500 0.770200
vn -0.506800 0.697400 -0.506800
vn 0.185300 0.697400 -0.692300
vn -0.202500 0.958100 0.202500
vn -0.506800 0.697400 0.506800
vn 0.185300 0.697400 0.692300
vn 0.770200 -0.603500 0.206300
vn 0.206400 -0.603500 -0.770200
vn 0.692300 0.697400 -0.185500
vn -0.185500 0.697400 0.692200
vn -0.185500 0.697400 -0.692200
vn 0.770200 -0.603500 0.206400
vn 0.707100 0.000000 -0.707100
vn 0.258800 0.000000 -0.965900
vn 0.258800 0.000000 0.965900
vn 0.707100 0.000000 0.707100
vn -0.258800 0.000000 0.965900
vn -0.965900 0.000000 0.258800
vn -0.707100 0.000000 0.707100
vn -0.965900 0.000000 -0.258800
vn -0.707100 0.000000 -0.707100
vn -0.258800 0.000000 -0.965900
vn 0.965900 0.000000 0.258800
vn 0.965900 0.000000 -0.258800
vn 0.000000 1.000000 0.000000
usemtl TELLER
s off
f 73/1/1 44/1/1 69/1/1
f 71/1/2 73/1/2 20/1/2
f 73/1/3 36/1/3 20/1/3
f 11/1/4 73/1/4 37/1/4
f 73/1/5 72/1/5 14/1/5
f 73/1/6 14/1/6 44/1/6
f 73/1/7 69/1/7 36/1/7
f 70/1/8 73/1/8 11/1/8
f 37/1/9 73/1/9 71/1/9
f 72/1/10 73/1/10 40/1/10
f 40/1/11 73/1/11 26/1/11
f 26/1/12 73/1/12 70/1/12
usemtl IT_FOOD_01
f 12/2/13 52/3/13 53/4/13
f 69/5/14 44/6/14 47/6/14
f 70/7/15 49/8/15 38/9/15
f 31/10/13 12/2/13 56/11/13
f 5/12/16 3/13/16 22/14/16
f 67/15/17 60/16/17 43/17/17
f 39/18/18 2/19/18 6/20/18
f 19/21/19 46/22/19 57/23/19
f 60/16/20 61/24/20 32/25/20
f 22/14/16 48/26/16 5/12/16
f 27/27/21 50/28/21 6/20/21
f 12/2/13 53/4/13 56/11/13
f 23/29/22 38/30/22 49/31/22
f 21/32/23 45/33/23 65/34/23
f 41/35/24 55/36/24 10/37/24
f 32/25/25 53/4/25 17/38/25
f 51/39/26 16/40/26 1/41/26
f 35/42/27 1/41/27 4/43/27
f 21/32/28 12/2/28 54/44/28
f 34/45/29 42/46/29 33/47/29
f 56/11/30 46/22/30 19/21/30
f 55/36/31 41/35/31 25/48/31
f 47/49/32 27/27/32 8/50/32
f 6/20/33 8/50/33 27/27/33
f 61/24/34 62/51/34 15/52/34
f 25/48/35 41/35/35 64/53/35
f 3/13/36 16/40/36 51/39/36
f 33/47/37 42/46/37 59/54/37
f 59/54/37 67/15/37 33/47/37
f 43/17/17 33/47/17 67/15/17
f 19/21/30 18/55/30 56/11/30
f 54/44/28 45/33/28 21/32/28
f 57/23/19 66/56/19 19/21/19
f 68/57/38 65/34/38 45/33/38
f 51/39/39 22/14/39 3/13/39
f 65/34/23 58/58/23 21/32/23
f 58/58/40 59/54/40 42/46/40
f 48/59/41 22/60/41 20/61/41
f 20/61/42 22/60/42 51/62/42
f 49/31/22 9/63/22 23/29/22
f 66/56/43 68/57/43 30/64/43
f 24/65/44 4/43/44 9/63/44
f 4/43/27 24/65/27 35/42/27
f 64/53/35 63/66/35 25/48/35
f 63/66/45 57/23/45 46/22/45
f 49/8/46 70/7/46 11/67/46
f 50/68/47 27/69/47 14/70/47
f 27/69/48 47/6/48 44/6/48
f 8/50/32 28/71/32 47/49/32
f 62/51/49 64/53/49 41/35/49
f 28/71/50 7/72/50 29/73/50
f 7/72/51 5/12/51 48/26/51
f 18/55/52 19/21/52 30/64/52
f 30/64/43 19/21/43 66/56/43
f 31/10/13 56/11/13 18/55/13
f 30/64/53 31/10/53 18/55/53
f 53/4/54 32/25/54 15/52/54
f 15/52/34 32/25/34 61/24/34
f 52/3/55 33/47/55 43/17/55
f 33/47/29 52/3/29 34/45/29
f 12/2/13 34/45/13 52/3/13
f 42/46/56 34/45/56 12/2/56
f 37/74/57 35/75/57 24/67/57
f 51/62/58 71/74/58 20/61/58
f 20/61/41 36/59/41 48/59/41
f 24/67/57 11/67/57 37/74/57
f 2/19/59 39/18/59 38/30/59
f 38/30/59 23/29/59 2/19/59
f 26/9/60 38/9/60 39/76/60
f 14/70/61 72/77/61 50/68/61
f 39/76/60 40/77/60 26/9/60
f 10/37/24 15/52/24 41/35/24
f 41/35/49 15/52/49 62/51/49
f 12/2/56 21/32/56 42/46/56
f 42/46/40 21/32/40 58/58/40
f 17/38/25 43/17/25 32/25/25
f 32/25/20 43/17/20 60/16/20
f 44/6/48 14/70/48 27/69/48
f 31/10/62 30/64/62 45/33/62
f 45/33/38 30/64/38 68/57/38
f 13/78/63 25/48/63 46/22/63
f 46/22/45 25/48/45 63/66/45
f 47/6/14 29/79/14 69/5/14
f 29/73/50 47/49/50 28/71/50
f 29/79/64 48/59/64 36/59/64
f 48/26/51 29/73/51 7/72/51
f 9/63/44 49/31/44 24/65/44
f 11/67/46 24/67/46 49/8/46
f 6/20/18 50/28/18 39/18/18
f 40/77/65 39/76/65 50/68/65
f 1/41/26 35/42/26 51/39/26
f 71/74/66 51/62/66 35/75/66
f 52/3/13 17/38/13 53/4/13
f 43/17/55 17/38/55 52/3/55
f 53/4/13 10/37/13 55/36/13
f 15/52/54 10/37/54 53/4/54
f 31/10/13 54/44/13 12/2/13
f 45/33/67 54/44/67 31/10/67
f 53/4/13 55/36/13 56/11/13
f 25/48/31 13/78/31 55/36/31
f 55/36/13 13/78/13 56/11/13
f 46/22/63 56/11/63 13/78/63
f 66/80/68 57/81/68 2/81/68
f 6/82/69 2/81/69 57/81/69
f 59/83/70 58/84/70 1/84/70
f 4/85/71 1/84/71 58/84/71
f 59/83/72 16/83/72 3/86/72
f 1/84/70 16/83/70 59/83/70
f 61/87/73 60/88/73 5/88/73
f 3/86/74 5/88/74 60/88/74
f 62/89/75 61/87/75 7/90/75
f 5/88/73 7/90/73 61/87/73
f 64/91/76 62/89/76 28/92/76
f 7/90/75 28/92/75 62/89/75
f 8/93/77 6/82/77 63/82/77
f 57/81/69 63/82/69 6/82/69
f 63/82/77 64/91/77 8/93/77
f 28/92/76 8/93/76 64/91/76
f 9/94/78 4/85/78 65/95/78
f 58/84/71 65/95/71 4/85/71
f 68/94/79 66/80/79 23/96/79
f 2/81/68 23/96/68 66/80/68
f 60/88/74 67/86/74 3/86/74
f 3/86/72 67/86/72 59/83/72
f 23/96/79 9/94/79 68/94/79
f 65/95/78 68/94/78 9/94/78
f 36/59/64 69/5/64 29/79/64
f 38/9/15 26/9/15 70/7/15
f 35/75/66 37/74/66 71/74/66
f 50/68/65 72/77/65 40/77/65
f 83/97/80 77/98/80 78/99/80
f 84/100/80 77/98/80 83/97/80
f 78/99/80 77/98/80 76/101/80
f 74/102/80 77/98/80 84/100/80
f 85/103/80 84/100/80 83/97/80
f 81/104/80 84/100/80 85/103/80
f 81/104/80 85/103/80 80/105/80
f 83/97/80 78/99/80 75/106/80
f 84/100/80 81/104/80 79/107/80
f 85/103/80 83/97/80 82/108/80
