# Blender v2.75 (sub 0) OBJ File: 'Empty.blend'
# www.blender.org
mtllib ITFO_HONEY.mtl
o ITFO_HONEY
v 0.115257 0.024702 0.111991
v 0.107510 0.020944 -0.100711
v -0.001920 0.058758 0.134681
v -0.006106 0.045573 -0.141903
v 0.138654 0.045585 0.005772
v 0.079216 0.092518 0.084374
v 0.079216 0.092518 -0.074018
v -0.068889 -0.118850 0.074087
v -0.096599 0.019544 0.114939
v -0.129619 0.052510 0.001851
v -0.079176 0.092518 0.084374
v -0.108505 0.041646 -0.088670
v -0.079176 0.092518 -0.074018
v 0.000020 -0.118850 -0.092275
v 0.000020 0.092518 -0.106822
v 0.112020 0.092529 0.005178
v 0.097473 -0.118850 0.005178
v -0.111980 0.092518 0.005178
v -0.115194 -0.000899 0.050488
v -0.150131 0.016749 -0.037729
v -0.135708 0.031197 0.038124
v 0.000020 0.092518 0.117178
v 0.150171 0.016749 0.047344
v 0.106487 0.016416 0.039411
v 0.144494 0.013882 -0.028510
v 0.146311 0.036533 0.024535
v -0.106447 0.016416 -0.029796
v -0.146271 0.036533 -0.014920
v -0.068889 -0.118850 -0.063732
v 0.000020 -0.118850 0.102630
v 0.106487 0.016416 -0.040873
v 0.141424 0.034064 -0.037729
v -0.106447 0.016416 0.039411
v 0.115234 -0.000899 -0.029796
v 0.141424 0.034064 0.047344
v -0.141384 0.034064 -0.037729
v 0.000020 0.118890 -0.106822
v 0.000020 0.118890 0.117178
v 0.112020 0.118890 0.005178
v -0.079176 0.118890 0.084374
v -0.079176 0.118890 -0.074018
v 0.079216 0.118890 0.084374
v 0.079216 0.118890 -0.074018
v -0.111980 0.118890 0.005178
v -0.165284 0.035270 -0.018556
v 0.165324 0.035270 0.028171
v 0.068929 -0.118850 0.074087
v 0.068929 -0.118850 -0.063732
v -0.097433 -0.118850 0.005178
v 0.096671 -0.002231 -0.091473
v -0.096631 -0.002231 -0.091473
v 0.000020 -0.002231 0.141863
v -0.144454 0.013882 0.038124
v -0.165284 0.035270 0.028171
v 0.096671 -0.002231 0.101829
v -0.136665 -0.002231 0.005178
v 0.000020 -0.002231 -0.131507
v -0.096631 -0.002231 0.101829
v 0.136705 -0.002220 0.005178
v 0.165324 0.035270 -0.018556
v 0.135748 0.031197 -0.028510
v 0.106487 0.016416 -0.029796
v -0.115194 -0.000899 0.039411
v -0.115194 -0.000899 -0.040873
v -0.106447 0.016416 -0.040873
v 0.115234 -0.000899 0.050488
v 0.106487 0.016416 0.050488
v -0.106447 0.016416 0.050488
v 0.115234 -0.000899 0.039411
v -0.115194 -0.000899 -0.029796
v 0.115234 -0.000899 -0.040873
v -0.145764 0.025410 -0.013708
v 0.145804 0.025410 0.023323
v 0.164818 0.024148 0.026959
v -0.164778 0.024148 -0.017344
v 0.150171 0.016749 -0.037729
v -0.150131 0.016749 0.047343
v -0.141384 0.034064 0.047343
v -0.155018 0.019218 -0.014920
v 0.155058 0.019218 0.024535
v -0.110820 0.007758 -0.046412
v 0.110860 0.007758 -0.046412
v 0.110860 0.007758 0.056026
v -0.110820 0.007758 0.033872
v 0.110860 0.007758 -0.024258
v -0.110820 0.007758 0.056026
v 0.148636 0.026841 -0.042339
v -0.148596 0.026841 -0.042339
v -0.148596 0.026840 0.051953
v 0.148636 0.026840 0.051953
v 0.110860 0.007758 0.033872
v -0.110820 0.007758 -0.024258
v -0.164778 0.024148 0.026959
v 0.164818 0.024148 -0.017344
v 0.156071 0.041463 0.026959
v -0.156031 0.041463 0.026959
v -0.156031 0.041463 -0.017344
v 0.156071 0.041463 -0.017344
v 0.137283 0.021105 -0.023900
v -0.137243 0.021105 0.033515
v 0.144494 0.013882 0.038124
v -0.144454 0.013882 -0.028510
v 0.135748 0.031197 0.038124
v 0.137283 0.021105 0.033515
v -0.135708 0.031197 -0.028510
v -0.137243 0.021105 -0.023900
v 0.146311 0.036533 -0.014920
v -0.155018 0.019218 0.024535
v 0.155058 0.019218 -0.014920
v 0.145804 0.025410 -0.013708
v -0.146271 0.036533 0.024535
v -0.145764 0.025410 0.023323
v -0.111980 -0.098594 0.005178
v 0.079216 -0.098594 -0.074018
v 0.000020 -0.098594 0.117178
v 0.112020 -0.098594 0.005178
v -0.079176 -0.098594 -0.074018
v 0.000020 -0.098594 -0.106822
v 0.079216 -0.098594 0.084374
v -0.079176 -0.098594 0.084374
vt -0.561013 -0.520999
vt -0.561013 -0.678998
vt -0.613835 -0.599998
vt -0.469503 -0.058344
vt -0.347585 -0.046606
vt -0.337154 -0.111601
vt 0.420773 0.472915
vt 0.434047 0.419668
vt 0.411423 0.420809
vt -0.454568 -0.016189
vt -0.349475 -0.005118
vt -0.340471 -0.066416
vt -1.540493 -1.615908
vt -1.531015 -1.554022
vt -1.501119 -1.553985
vt -0.447200 -0.066416
vt -0.349475 -0.127714
vt 0.460524 0.333996
vt 0.475328 0.289314
vt 0.416302 0.262617
vt -0.479438 -2.155997
vt -0.471207 -2.174410
vt -0.476820 -2.178252
vt -1.583821 -1.617380
vt -1.615870 -1.525720
vt -0.476951 -2.182038
vt -0.457951 -2.174410
vt -0.450426 -2.176199
vt 0.417584 0.327603
vt 0.395724 0.408918
vt 0.460867 0.396606
vt -0.441252 -2.151431
vt 0.476178 0.440468
vt -0.292049 -0.171904
vt -0.402261 -0.159213
vt -0.399018 -0.088341
vt -0.295472 -0.096708
vt -0.407961 -0.100460
vt -0.404215 -0.030531
vt -0.460956 -0.111601
vt -0.347585 -0.176597
vt 0.390528 0.288887
vt 0.408266 0.344109
vt 0.430890 0.342968
vt -0.282908 -0.159032
vt -0.407239 -0.173844
vt -0.420060 -0.099253
vt 0.413152 0.287745
vt -0.452823 -2.129956
vt -0.471823 -2.137583
vt -0.478287 -2.128649
vt 0.469570 0.338234
vt 0.475594 0.253427
vt -0.483217 -2.153287
vt -1.531014 -1.678153
vt -1.622571 -1.691741
vt -0.293413 -0.097912
vt -0.411539 -0.024436
vt -0.450336 -2.155997
vt -0.458567 -2.137583
vt -0.454455 -2.127360
vt 0.467034 0.498096
vt 0.486139 0.420069
vt -0.476547 -2.123178
vt -0.454568 -0.116644
vt 0.437553 0.467192
vt -0.476356 -2.185089
vt 0.000000 -0.000000
vt -0.292403 -0.039408
vt -0.477823 -2.129956
vt -0.451547 -2.123178
vt 0.581150 -0.047603
vt 0.561857 -0.116464
vt 0.561857 -0.049785
vt -0.315816 -0.115927
vt -0.277303 -0.081879
vt -0.277303 -0.115020
vt -0.370593 -1.078253
vt -0.395436 -1.079108
vt -0.388236 -1.060276
vt -0.275048 -1.090002
vt -0.362058 -1.088037
vt -0.346339 -1.084220
vt -0.254387 -0.109609
vt -0.288952 -0.105705
vt -0.288952 -0.042178
vt -0.429985 -0.129658
vt -0.326361 -0.127587
vt -0.306258 -0.142431
vt 0.640252 -0.060930
vt 0.619308 -0.128718
vt 0.619308 -0.064854
vt 0.596639 -0.042857
vt 0.533845 -0.022844
vt 0.608821 -0.027934
vt 0.581150 -0.118646
vt 0.595119 -0.043238
vt 0.595119 -0.123011
vt 0.574156 -0.159717
vt 0.524152 -0.145433
vt 0.566031 -0.143116
vt -0.289391 -0.113831
vt -0.469503 -0.164859
vt -0.326361 -0.020297
vt -0.369965 -0.027719
vt -0.463539 -0.027143
vt -0.339786 -0.044129
vt -0.306258 -0.005453
vt -0.429985 -0.018225
vt -0.254387 -0.038275
vt 0.511843 -0.030789
vt 0.566031 -0.023132
vt 0.549660 -0.031433
vt -0.354488 -0.130269
vt -0.316172 -0.136764
vt -0.354716 -0.132621
vt -0.497091 -0.018225
vt -0.280141 -1.048663
vt -0.260200 -1.051167
vt -0.348232 -1.051875
vt -0.428699 -1.079386
vt -0.421105 -1.059523
vt -0.316731 -1.089702
vt -0.403740 -1.087737
vt -0.390758 -1.089795
vt -0.315816 -0.080972
vt -0.354392 -0.115020
vt -0.354392 -0.081879
vt -0.315925 -0.063182
vt -0.277628 -0.064278
vt -0.277399 -0.066630
vt 0.496873 0.439745
vt 0.481562 0.395884
vt -1.510597 -1.615872
vt 0.481210 0.333274
vt -0.598364 -0.655859
vt -1.501119 -1.678116
vt 0.398149 0.474056
vt -0.508192 -0.599998
vt -0.598364 -0.544137
vt 0.496023 0.288591
vt -0.523663 -0.544137
vt -0.523663 -0.655859
vt -0.437118 -1.078809
vt -0.429918 -1.059977
vt -0.286430 -0.036607
vt -0.253918 -0.016189
vt -0.506974 -0.103763
vt -0.503905 -0.046462
vt -0.498170 -0.123977
vt -0.515053 -0.100390
vt -0.508818 -0.040608
vt -0.228183 -0.111601
vt -0.236730 -0.058344
vt 0.524152 -0.020816
vt 0.640252 -0.132642
vt 0.533845 -0.170727
vt 0.596639 -0.150715
vt 0.608821 -0.165638
vt -0.246538 -0.066416
vt -0.253918 -0.116644
vt -0.505673 -0.159992
vt -0.495512 -0.065904
vt -0.236730 -0.164859
vt -0.375434 -1.049714
vt -0.389914 -1.051575
vt -0.301883 -1.050867
vt -0.335510 -1.055896
vt -0.364181 -1.061482
vt -0.262001 -1.055875
vt 0.574156 -0.006532
vt -0.316172 -0.060135
vt -0.354488 -0.066630
vt -0.354716 -0.064278
vt 0.499535 -0.145433
vt 0.549660 -0.134816
vt 0.511843 -0.135460
vt 0.533846 -0.040774
vt -0.296789 -1.092206
vt -0.369965 -0.120165
vt -0.463539 -0.120740
vt -0.497091 -0.129658
vt -0.273248 -1.085293
vt 0.533846 -0.152797
vt -0.429986 -0.147493
vt 0.524152 -0.165378
vt -0.429986 -0.000390
vt 0.556533 -0.118646
vt 0.541414 -0.143116
vt -0.339786 -0.103754
vt -0.356056 -0.105705
vt -0.356056 -0.042178
vt -0.393466 -0.127587
vt 0.524152 -0.000871
vt -0.315925 -0.133718
vt -0.007699 0.020974
vt -0.007699 0.021864
vt -0.006618 0.021419
vt 0.499535 -0.020816
vt -0.277628 -0.132621
vt -0.277399 -0.130269
vt 0.005818 0.021864
vt 0.005818 0.020974
vt 0.004736 0.021419
vt -0.393466 -0.020297
vt 0.541414 -0.023132
vt 0.556533 -0.047603
vt -0.258222 -0.044262
vt -0.264297 -0.097604
vt -0.471734 -0.066416
vt -0.478144 -0.022713
vt -0.266940 -0.045988
vt -0.496854 -0.157942
vt -0.489417 -0.111601
vt -0.478144 -0.110120
vt -0.264189 -0.119691
vt -0.266501 -0.170221
vt -0.269611 -0.095846
vt -0.496854 -0.065261
vt -0.255156 -0.150786
vn 0.000000 1.000000 0.000000
vn 0.372400 -0.230300 0.899000
vn -0.382700 0.000000 -0.923900
vn 0.899100 -0.230300 -0.372400
vn 0.382700 0.000000 0.923900
vn 0.899100 -0.230300 0.372400
vn 0.775700 0.543100 0.321400
vn -0.331100 -0.501500 -0.799300
vn 0.301300 0.492600 0.816400
vn -0.823700 -0.452900 0.341200
vn 0.821600 0.453600 -0.345300
vn -0.389000 -0.452900 0.802200
vn 0.342900 0.444200 -0.827700
vn -0.372400 -0.230300 -0.899000
vn 0.372400 -0.230300 -0.899000
vn -0.372400 -0.230300 0.899000
vn -0.923900 0.000000 0.382700
vn -0.899000 -0.230300 0.372400
vn 0.863400 -0.355900 -0.357600
vn -0.864300 0.355400 0.356000
vn 0.352000 -0.431900 -0.830400
vn -0.345200 0.431500 0.833400
vn -0.899000 -0.230300 -0.372400
vn -0.923900 0.000000 -0.382700
vn 0.344100 -0.437600 0.830700
vn -0.421900 0.467100 -0.777100
vn 0.805100 -0.536800 0.252200
vn -0.777100 0.540800 -0.321900
vn 0.899000 -0.230300 0.372400
vn 0.392300 -0.582900 0.711600
vn -0.307600 0.595000 -0.742500
vn -0.322300 -0.539300 0.778000
vn 0.388600 0.518500 -0.761700
vn -0.818000 -0.459700 0.345600
vn 0.819900 0.460900 -0.339700
vn 0.834100 0.476700 0.277500
vn 0.000000 -1.000000 0.000000
vn 0.845900 -0.402100 0.350400
vn -0.877200 0.407800 -0.253500
vn 0.865800 -0.352200 -0.355500
vn -0.864900 0.351500 0.358300
vn 0.556200 -0.831100 0.000000
vn -0.999000 -0.045500 0.000000
vn 0.342100 -0.447900 -0.826000
vn -0.356000 0.446200 0.821100
vn -0.290000 -0.427300 -0.856300
vn 0.348100 0.415700 0.840300
vn -0.450900 0.892600 0.000000
vn 0.450900 -0.892600 0.000000
vn 0.450900 0.892600 0.000000
vn -0.450900 -0.892600 0.000000
vn 0.185100 -0.390600 0.901800
vn -0.556200 -0.831100 0.000000
vn -0.185100 -0.390600 -0.901800
vn 0.160900 0.472900 0.866300
vn -0.232900 0.437800 0.868400
vn -0.160900 0.472900 -0.866300
vn 0.556200 0.831100 0.000000
vn 0.265600 -0.366900 0.891600
vn -0.556200 0.831100 0.000000
vn -0.265600 -0.366900 -0.891600
vn 0.382700 0.000000 -0.923900
vn -0.382700 0.000000 0.923900
vn 0.923900 0.000000 0.382700
vn 0.923900 0.000000 -0.382700
vn -0.832200 -0.120600 -0.541200
vn 0.999000 -0.045500 0.000000
vn 0.832200 -0.120600 0.541200
vn 0.898200 0.234000 -0.372100
vn 0.372100 0.234000 -0.898200
vn -0.372100 0.234000 -0.898200
vn -0.898200 0.234000 -0.372100
vn -0.372100 0.234000 0.898200
vn 0.372100 0.234000 0.898200
vn -0.193000 -0.457700 -0.867900
vn 0.898200 0.234000 0.372100
vn -0.898200 0.234000 0.372100
vn 0.265600 -0.366900 -0.891600
vn 0.160900 0.472900 -0.866300
vn 0.232900 0.437800 0.868400
vn -0.160900 0.472900 0.866300
vn -0.232900 0.437800 -0.868400
vn 0.999000 0.045500 0.000000
vn 0.229100 0.375400 0.898100
vn -0.999000 0.045500 0.000000
vn -0.229100 0.375400 -0.898100
vn 0.824700 -0.098300 0.556900
vn -0.824700 -0.098300 -0.556900
vn 0.832200 -0.120600 -0.541200
vn 0.126700 0.440600 0.888700
vn -0.414300 0.726500 0.548300
vn -0.297100 -0.403500 -0.865400
vn 0.297100 -0.403500 -0.865400
vn 0.297100 -0.403500 0.865400
vn 0.892600 -0.450900 0.000000
vn 0.232900 0.437800 -0.868400
vn -0.892600 -0.450900 -0.000000
vn 0.193000 -0.457700 0.867900
vn -0.297100 -0.403500 0.865400
vn 0.414300 0.726500 -0.548300
vn -0.126700 0.440600 -0.888700
vn -0.414300 0.726500 -0.548300
vn 0.126700 0.440600 -0.888700
vn -0.832200 -0.120600 0.541200
vn -0.265600 -0.366900 0.891600
vn 0.414300 0.726500 0.548300
vn -0.126700 0.440600 0.888700
vn 0.193000 -0.457700 -0.867900
vn -0.193000 -0.457700 0.867900
vn -0.824700 -0.098300 0.556900
vn 0.824700 -0.098300 -0.556900
vn 0.390000 0.739500 0.548700
vn -0.390000 0.739500 0.548700
vn -0.390100 0.739500 -0.548700
vn 0.390000 0.739500 -0.548700
vn -0.229100 0.375400 0.898100
vn 0.229100 0.375400 -0.898100
vn -0.367400 -0.732500 -0.573200
vn 0.185100 -0.390600 -0.901800
vn 0.367400 -0.732500 0.573200
vn -0.185100 -0.390600 0.901800
vn -0.804300 0.100500 -0.585700
vn -0.788900 0.152000 -0.595400
vn -0.382800 -0.691800 -0.612300
vn 0.804300 0.100500 0.585700
vn 0.788900 0.152000 0.595400
vn 0.382800 -0.691800 0.612200
vn -0.804300 0.100500 0.585700
vn 0.367400 -0.732500 -0.573200
vn -0.367400 -0.732500 0.573200
vn -0.788900 0.152000 0.595400
vn -0.382800 -0.691800 0.612200
vn 0.804300 0.100500 -0.585700
vn 0.788900 0.152000 -0.595400
vn 0.382800 -0.691800 -0.612200
vn -0.769800 -0.552900 -0.318900
vn -0.769800 -0.552900 0.318900
vn 0.769800 -0.552900 -0.318900
vn 0.318900 -0.552900 -0.769800
vn -0.318900 -0.552900 0.769800
vn 0.318900 -0.552900 0.769800
vn 0.769800 -0.552900 0.318900
vn -0.318900 -0.552900 -0.769800
usemtl IT_FOOD_01
s off
f 39/1/1 44/2/1 38/3/1
f 119/4/2 55/5/2 52/6/2
f 15/7/3 13/8/3 41/9/3
f 114/10/4 50/11/4 59/12/4
f 22/13/5 6/14/5 42/15/5
f 116/16/6 59/12/6 55/17/6
f 16/18/7 6/19/7 1/20/7
f 22/21/8 6/22/8 1/23/8
f 3/24/9 1/25/9 6/14/9
f 16/26/10 7/27/10 2/28/10
f 5/29/11 2/30/11 7/31/11
f 4/32/12 2/28/12 7/27/12
f 15/33/13 7/31/13 2/30/13
f 117/34/14 51/35/14 57/36/14
f 118/37/15 57/38/15 50/39/15
f 115/40/16 52/6/16 58/41/16
f 40/42/17 44/43/17 18/44/17
f 120/45/18 58/46/18 56/47/18
f 18/44/17 11/48/17 40/42/17
f 18/49/19 11/50/19 9/51/19
f 10/52/20 9/53/20 11/48/20
f 3/54/21 9/51/21 11/50/21
f 22/13/22 11/55/22 9/56/22
f 113/57/23 56/47/23 51/58/23
f 13/8/24 18/44/24 44/43/24
f 15/59/25 13/60/25 12/61/25
f 4/62/26 12/63/26 13/8/26
f 10/64/27 12/61/27 13/60/27
f 18/44/28 13/8/28 12/63/28
f 56/47/18 113/57/18 120/45/18
f 55/17/29 119/65/29 116/16/29
f 12/61/30 4/32/30 15/59/30
f 13/8/31 15/7/31 4/62/31
f 7/27/32 15/59/32 4/32/32
f 2/30/33 4/66/33 15/33/33
f 2/28/34 5/67/34 16/26/34
f 7/31/35 16/18/35 5/29/35
f 1/20/36 5/29/36 16/18/36
f 30/68/37 49/68/37 17/68/37
f 50/39/15 114/69/15 118/37/15
f 13/60/38 18/70/38 10/64/38
f 12/63/39 10/52/39 18/44/39
f 9/51/40 10/71/40 18/49/40
f 11/48/41 18/44/41 10/52/41
f 108/72/42 72/73/42 112/74/42
f 54/75/43 75/76/43 93/77/43
f 11/50/44 22/21/44 3/54/44
f 9/56/45 3/24/45 22/13/45
f 1/23/46 3/54/46 22/21/46
f 6/14/47 22/13/47 3/24/47
f 26/78/48 95/79/48 98/80/48
f 67/81/48 35/82/48 103/83/48
f 74/84/49 80/85/49 109/86/49
f 69/87/49 101/88/49 23/89/49
f 97/90/50 111/91/50 28/92/50
f 105/93/50 65/94/50 36/95/50
f 79/96/51 93/97/51 75/98/51
f 20/99/51 70/100/51 102/101/51
f 57/36/14 118/102/14 117/34/14
f 49/68/37 14/68/37 17/68/37
f 30/68/37 8/68/37 49/68/37
f 58/41/16 120/103/16 115/40/16
f 25/104/52 99/105/52 85/106/52
f 110/107/53 109/86/53 80/85/53
f 76/108/49 25/104/49 34/109/49
f 109/86/49 94/110/49 74/84/49
f 84/111/54 53/112/54 100/113/54
f 78/114/55 86/115/55 68/116/55
f 62/117/56 85/106/56 99/105/56
f 82/118/57 31/119/57 32/120/57
f 95/79/58 46/121/58 60/122/58
f 66/123/59 23/124/59 90/125/59
f 45/126/60 96/127/60 97/128/60
f 88/129/61 64/130/61 20/131/61
f 37/132/62 43/133/62 7/31/62
f 7/31/62 15/33/62 37/132/62
f 11/55/63 22/13/63 38/134/63
f 42/15/5 38/134/5 22/13/5
f 6/19/64 16/18/64 39/135/64
f 16/18/65 7/31/65 43/133/65
f 44/2/1 40/136/1 38/3/1
f 38/134/63 40/137/63 11/55/63
f 41/9/3 37/138/3 15/7/3
f 39/1/1 37/139/1 44/2/1
f 42/140/1 39/1/1 38/3/1
f 39/135/64 42/141/64 6/19/64
f 39/1/1 43/142/1 37/139/1
f 43/133/65 39/135/65 16/18/65
f 37/139/1 41/143/1 44/2/1
f 44/43/24 41/9/24 13/8/24
f 75/76/43 54/75/43 45/126/43
f 20/131/66 45/126/66 88/129/66
f 46/121/67 74/144/67 94/145/67
f 46/121/68 90/125/68 23/124/68
f 47/68/37 30/68/37 17/68/37
f 52/6/2 115/40/2 119/4/2
f 14/68/37 48/68/37 17/68/37
f 59/12/4 116/16/4 114/10/4
f 49/68/37 29/68/37 14/68/37
f 51/58/23 117/146/23 113/57/23
f 59/12/69 50/11/69 7/147/69
f 15/148/70 7/149/70 50/39/70
f 57/36/71 51/35/71 13/150/71
f 18/151/72 13/152/72 51/58/72
f 58/41/73 52/6/73 22/153/73
f 6/154/74 22/153/74 52/6/74
f 53/112/75 84/111/75 63/155/75
f 93/97/51 79/96/51 108/72/51
f 111/91/50 97/90/50 96/156/50
f 68/157/50 21/158/50 78/159/50
f 16/160/76 6/161/76 55/17/76
f 52/6/74 55/5/74 6/154/74
f 51/58/72 56/47/72 18/151/72
f 11/162/77 18/151/77 56/47/77
f 13/150/71 15/163/71 57/36/71
f 50/39/70 57/38/70 15/148/70
f 56/47/77 58/46/77 11/162/77
f 22/153/73 11/164/73 58/41/73
f 7/147/69 16/160/69 59/12/69
f 55/17/76 59/12/76 16/160/76
f 60/122/58 98/80/58 95/79/58
f 87/165/78 76/166/78 71/167/78
f 61/168/48 32/120/48 31/119/48
f 98/80/48 107/169/48 26/78/48
f 31/119/48 62/170/48 61/168/48
f 63/155/51 77/171/51 53/112/51
f 81/172/79 36/173/79 65/174/79
f 27/175/80 106/176/80 92/177/80
f 65/94/50 105/93/50 27/178/50
f 35/82/81 67/81/81 83/179/81
f 104/180/82 91/181/82 24/182/82
f 103/83/48 24/183/48 67/81/48
f 21/158/50 68/157/50 33/184/50
f 23/89/49 66/185/49 69/87/49
f 70/100/51 20/99/51 64/186/51
f 34/109/49 71/187/49 76/108/49
f 28/188/83 112/74/83 72/73/83
f 106/176/84 27/175/84 105/189/84
f 73/190/85 26/191/85 107/192/85
f 24/182/86 103/193/86 104/180/86
f 74/84/49 23/89/49 101/88/49
f 23/124/87 74/144/87 46/121/87
f 102/101/51 75/98/51 20/99/51
f 45/126/88 20/131/88 75/76/88
f 76/166/89 87/165/89 60/122/89
f 94/145/67 60/122/67 46/121/67
f 77/171/51 63/155/51 19/194/51
f 86/115/90 78/114/90 89/195/90
f 89/195/91 96/127/91 54/75/91
f 96/127/60 45/126/60 54/75/60
f 72/73/42 108/72/42 79/96/42
f 75/98/51 102/101/51 79/96/51
f 80/85/53 73/190/53 110/107/53
f 101/88/49 80/85/49 74/84/49
f 64/130/92 88/129/92 81/172/92
f 71/167/93 82/118/93 87/165/93
f 90/125/94 83/179/94 66/123/94
f 33/196/95 63/197/95 84/198/95
f 100/113/96 33/199/96 84/111/96
f 34/109/97 85/106/97 62/117/97
f 85/106/98 34/109/98 25/104/98
f 89/195/99 19/200/99 86/115/99
f 98/80/100 60/122/100 87/165/100
f 32/120/101 87/165/101 82/118/101
f 97/128/102 88/129/102 45/126/102
f 36/173/103 81/172/103 88/129/103
f 54/75/104 77/201/104 89/195/104
f 19/200/105 89/195/105 77/201/105
f 90/125/106 46/121/106 95/79/106
f 83/179/107 90/125/107 35/82/107
f 24/182/97 91/181/97 69/87/97
f 101/88/108 69/87/108 91/181/108
f 70/202/95 27/203/95 92/204/95
f 92/177/109 102/101/109 70/100/109
f 93/97/51 53/112/51 77/171/51
f 77/201/110 54/75/110 93/77/110
f 25/104/49 76/108/49 94/110/49
f 60/122/111 94/145/111 76/166/111
f 95/79/112 35/82/112 90/125/112
f 35/82/48 95/79/48 26/78/48
f 96/127/113 89/195/113 78/114/113
f 78/159/50 111/91/50 96/156/50
f 88/129/114 97/128/114 36/173/114
f 28/92/50 36/95/50 97/90/50
f 87/165/115 32/120/115 98/80/115
f 107/169/48 98/80/48 32/120/48
f 99/105/116 61/205/116 62/117/116
f 107/192/85 110/107/85 73/190/85
f 33/199/117 100/113/117 21/206/117
f 112/74/83 28/188/83 111/207/83
f 80/85/118 101/88/118 104/180/118
f 91/181/119 104/180/119 101/88/119
f 106/176/120 79/96/120 102/101/120
f 102/101/121 92/177/121 106/176/121
f 26/78/48 103/83/48 35/82/48
f 103/193/122 26/191/122 73/190/122
f 73/190/123 104/180/123 103/193/123
f 104/180/124 73/190/124 80/85/124
f 36/95/50 28/92/50 105/93/50
f 72/73/125 105/189/125 28/188/125
f 105/189/126 72/73/126 106/176/126
f 79/96/127 106/176/127 72/73/127
f 32/120/48 61/168/48 107/169/48
f 110/107/128 107/192/128 61/205/128
f 108/72/129 100/113/129 53/112/129
f 53/112/51 93/97/51 108/72/51
f 99/105/130 25/104/130 109/86/130
f 94/110/49 109/86/49 25/104/49
f 61/205/131 99/105/131 110/107/131
f 109/86/132 110/107/132 99/105/132
f 111/91/50 78/159/50 21/158/50
f 21/206/133 112/74/133 111/207/133
f 112/74/134 21/206/134 100/113/134
f 100/113/135 108/72/135 112/74/135
f 29/208/136 49/209/136 113/57/136
f 120/45/137 113/57/137 49/209/137
f 17/210/138 48/211/138 114/10/138
f 118/37/139 114/69/139 48/212/139
f 8/213/140 30/214/140 115/40/140
f 119/4/141 115/40/141 30/214/141
f 114/10/138 116/16/138 17/210/138
f 47/215/142 17/210/142 116/16/142
f 14/216/143 29/217/143 117/34/143
f 113/57/136 117/146/136 29/208/136
f 117/34/143 118/102/143 14/216/143
f 48/212/139 14/218/139 118/37/139
f 30/214/141 47/219/141 119/4/141
f 116/16/142 119/65/142 47/215/142
f 49/209/137 8/220/137 120/45/137
f 115/40/140 120/103/140 8/213/140
