# Blender v2.75 (sub 0) OBJ File: 'Empty.blend'
# www.blender.org
mtllib ITFO_CHEESE.mtl
o ITFO_CHEESE
v 0.100000 0.050000 0.087500
v -0.100000 -0.050000 0.087500
v -0.000000 -0.050000 -0.112500
v 0.100000 -0.050000 0.087500
v -0.000000 0.050000 -0.112500
v -0.100000 0.050000 0.087500
v -0.000000 0.050000 0.112500
v -0.000000 -0.050000 0.112500
vt 0.431358 -0.248018
vt 0.256916 -0.082855
vt 0.348683 -0.020872
vt 0.477273 -0.230216
vt 0.281969 -0.110755
vt 0.349776 -0.005476
vt 0.249503 -0.222843
vt 0.249503 -0.077157
vt 0.496130 -0.077157
vt 0.298056 -0.068581
vt 0.275000 -0.001419
vt 0.298056 -0.001419
vt 0.250677 -0.181245
vt 0.494957 -0.181245
vt 0.494957 -0.088755
vt 0.496130 -0.222843
vt 0.250677 -0.088755
vt 0.275000 -0.068581
vt 0.251945 -0.001419
vt 0.251945 -0.068581
vt 0.257563 -0.242582
vt 0.458823 -0.009366
vn 0.000000 -1.000000 0.000000
vn 0.000000 1.000000 0.000000
vn 0.894400 0.000000 -0.447200
vn 0.242500 0.000000 0.970100
vn -0.894400 0.000000 -0.447200
vn -0.242500 0.000000 0.970100
usemtl IT_FOOD_01
s off
f 3/1/1 4/2/1 8/3/1
f 5/4/2 7/5/2 1/6/2
f 1/7/3 4/8/3 3/9/3
f 1/10/4 8/11/4 4/12/4
f 6/13/5 5/14/5 3/15/5
f 1/7/3 3/9/3 5/16/3
f 6/13/5 3/15/5 2/17/5
f 7/18/4 8/11/4 1/10/4
f 2/19/6 7/18/6 6/20/6
f 6/21/2 7/5/2 5/4/2
f 2/22/1 3/1/1 8/3/1
f 7/18/6 2/19/6 8/11/6
