# Blender v2.75 (sub 0) OBJ File: 'Empty.blend'
# www.blender.org
mtllib ITKE_KEY_02.mtl
o ITKE_KEY_02
v 0.051973 0.000010 -0.010328
v 0.122469 0.000010 0.009078
v 0.099950 0.000010 -0.037454
v -0.054457 0.001869 0.037529
v -0.104457 -0.003648 0.037529
v -0.054457 -0.003648 -0.005122
v -0.104457 -0.003648 -0.005122
v 0.051808 0.000010 0.028163
v 0.029288 0.000010 -0.018370
v -0.118417 0.000010 -0.014152
v 0.040513 0.000010 -0.014152
v -0.118417 0.000010 0.003908
v 0.040513 0.000010 0.003908
v -0.118417 0.007010 -0.005122
v 0.040513 0.007010 -0.005122
v -0.118417 -0.006990 -0.005122
v 0.040513 -0.006990 -0.005122
v 0.095205 -0.007786 -0.027842
v 0.095205 0.007806 -0.027842
v 0.090460 0.000010 -0.018230
v 0.056552 0.007806 0.018550
v 0.056552 -0.007786 0.018550
v 0.061297 0.000010 0.008938
v 0.099784 0.000010 0.001036
v 0.111127 -0.007786 0.005057
v 0.040631 -0.007786 -0.014349
v -0.104286 0.005317 0.009518
v 0.040631 0.007806 -0.014349
v 0.111127 0.007806 0.005057
v -0.054286 -0.000200 0.009518
v -0.054457 -0.003648 0.037529
v -0.104457 -0.001579 0.023524
v -0.104457 0.001869 0.037529
v -0.054457 0.001869 -0.005122
v -0.104457 0.001869 -0.005122
v -0.054457 -0.007096 0.023524
v -0.104286 -0.000200 0.009518
v -0.104457 -0.007096 0.023524
v -0.054286 0.005317 0.009518
v -0.054457 -0.001579 0.023524
v 0.122581 0.000010 -0.018141
v 0.029176 0.000010 0.008849
v 0.099679 0.000010 0.028258
v 0.052078 0.000010 -0.037549
v -0.122561 0.000010 -0.005122
v 0.111206 -0.007786 -0.014187
v 0.111206 0.007806 -0.014187
v 0.040551 0.007806 0.004895
v 0.040551 -0.007786 0.004895
v 0.056744 0.007806 -0.027909
v 0.095013 0.007806 0.018618
v 0.095013 -0.007786 0.018618
v 0.056744 -0.007786 -0.027909
v 0.099830 0.000010 -0.010233
v 0.051927 0.000010 0.000941
v 0.090348 0.000010 0.008977
v 0.061409 0.000010 -0.018269
vt 0.150370 -0.291972
vt 0.097981 -0.270376
vt 0.097996 -0.229604
vt 0.150371 -0.204789
vt 0.319203 -0.691155
vt 0.319203 -0.588704
vt 0.351058 -0.589055
vt 0.351058 -0.691505
vt 0.258948 -0.136334
vt 0.311265 -0.078600
vt 0.258851 -0.111566
vt 0.311431 -0.172284
vt 0.311345 -0.079247
vt 0.341059 -0.071270
vt 0.340824 -0.175972
vt 0.311179 -0.172932
vt 0.175411 -0.306066
vt 0.150375 -0.291704
vt 0.175404 -0.190343
vt 0.182866 -0.468589
vt 0.167319 -0.897294
vt 0.182866 -0.897294
vt 0.151771 -0.468589
vt 0.151771 -0.897294
vt 0.167319 -0.468589
vt 0.000000 -0.431914
vt 0.016904 -0.431914
vt 0.016904 -0.311640
vt 0.175398 -0.306444
vt 0.258765 -0.136713
vt 0.258862 -0.111945
vt 0.341145 -0.175057
vt 0.340910 -0.070354
vt 0.098053 -0.270154
vt 0.319195 -0.691505
vt 0.319195 -0.589055
vt 0.277814 -0.431914
vt 0.073851 -0.431914
vt 0.150373 -0.204597
vt 0.175406 -0.190209
vt 0.016904 -0.552187
vt 0.098037 -0.229434
vn -0.389600 0.799900 0.456500
vn -0.389600 -0.799900 0.456500
vn 0.000000 0.973400 -0.229300
vn 0.000000 -0.897100 -0.441800
vn 0.000000 -0.973400 0.229300
vn 0.000000 0.897100 0.441800
vn 0.000900 -0.776900 -0.629700
vn 0.001100 0.776900 -0.629600
vn 0.001200 -0.777300 -0.629200
vn 0.001100 0.777300 -0.629100
vn 0.000000 0.790300 0.612700
vn 0.000000 -0.790300 -0.612700
vn 0.000000 0.790300 -0.612700
vn -0.800400 0.473800 -0.367300
vn 0.000000 -0.790300 0.612700
vn -0.800400 -0.473800 -0.367300
vn 0.389600 -0.799900 -0.456500
vn 0.001100 -0.776900 -0.629600
vn 0.389600 0.799900 -0.456500
vn 0.001200 0.777000 -0.629500
vn -0.001100 0.776900 0.629600
vn -0.000900 -0.776900 0.629700
vn -0.001200 0.777000 0.629500
vn -0.001100 -0.776900 0.629600
vn 0.000900 0.777300 -0.629100
vn -0.001200 -0.777300 0.629200
vn 0.001100 -0.777300 -0.629100
vn -0.001100 -0.777300 0.629100
vn -0.999900 -0.000000 0.011700
vn -0.000900 0.777300 0.629100
vn -0.001100 0.777300 0.629100
vn 0.999900 -0.000000 -0.011700
vn 0.000000 -0.000000 1.000000
vn 0.999900 0.000000 0.012200
vn 0.000000 0.971000 -0.239100
vn -0.999900 0.000000 -0.012200
vn -1.000000 0.000000 0.000000
vn 0.000000 -0.000000 -1.000000
vn 0.000000 -0.971000 0.239100
vn 1.000000 0.000000 0.000000
vn 0.565900 0.824500 0.002300
vn 0.565900 -0.824500 0.002300
vn -0.565900 0.824500 -0.002300
vn -0.565900 -0.824500 -0.002300
vn 0.386700 0.799600 0.459500
vn 0.386700 -0.799600 0.459500
vn -0.386700 0.799600 -0.459500
vn -0.386700 -0.799600 -0.459500
vn -0.800400 0.473800 0.367300
vn -0.800400 -0.473800 0.367300
usemtl ITRINGS
s off
f 19/1/1 20/2/1 54/3/1
f 20/2/2 18/1/2 46/4/2
f 27/5/3 39/6/3 34/7/3
f 37/5/4 30/6/4 36/7/4
f 30/6/5 37/5/5 7/8/5
f 39/6/6 27/5/6 32/8/6
f 56/9/7 22/10/7 23/11/7
f 51/12/8 23/11/8 21/10/8
f 53/13/9 44/14/9 3/15/9
f 44/14/10 50/13/10 19/16/10
f 22/4/2 42/17/2 49/18/2
f 8/19/1 48/18/1 42/17/1
f 13/20/11 14/21/11 12/22/11
f 11/23/12 16/21/12 10/24/12
f 13/20/11 15/25/11 14/21/11
f 11/23/12 17/25/12 16/21/12
f 15/25/13 10/24/13 14/21/13
f 45/26/14 14/27/14 10/28/14
f 15/25/13 11/23/13 10/24/13
f 17/25/15 12/22/15 16/21/15
f 45/26/16 10/28/16 16/27/16
f 17/25/15 13/20/15 12/22/15
f 18/1/17 3/29/17 41/19/17
f 53/13/18 3/15/18 18/16/18
f 3/29/19 19/1/19 47/4/19
f 44/14/20 19/16/20 3/15/20
f 50/13/21 20/30/21 19/16/21
f 57/31/22 18/16/22 20/30/22
f 43/32/23 21/10/23 8/33/23
f 8/19/1 21/4/1 48/18/1
f 52/12/24 8/33/24 22/10/24
f 22/4/2 8/19/2 42/17/2
f 21/4/19 23/3/19 55/34/19
f 23/3/17 22/4/17 49/18/17
f 51/12/25 56/9/25 23/11/25
f 19/1/1 54/3/1 47/4/1
f 18/1/17 41/19/17 46/4/17
f 52/12/26 43/32/26 8/33/26
f 56/9/27 52/12/27 22/10/27
f 20/2/2 46/4/2 54/3/2
f 57/31/28 53/13/28 18/16/28
f 23/3/17 49/18/17 55/34/17
f 34/7/3 35/8/3 27/5/3
f 37/5/29 27/5/29 35/8/29
f 50/13/30 57/31/30 20/30/30
f 21/4/19 55/34/19 48/18/19
f 43/32/31 51/12/31 21/10/31
f 3/29/19 47/4/19 41/19/19
f 7/8/5 6/7/5 30/6/5
f 39/6/32 30/6/32 6/7/32
f 5/35/33 31/36/33 4/36/33
f 40/7/34 36/7/34 30/6/34
f 40/7/35 32/8/35 33/35/35
f 38/8/36 32/8/36 27/5/36
f 4/36/33 33/35/33 5/35/33
f 5/35/37 33/35/37 32/8/37
f 34/37/38 6/37/38 7/38/38
f 6/7/32 34/7/32 39/6/32
f 7/38/38 35/38/38 34/37/38
f 35/8/29 7/8/29 37/5/29
f 38/8/39 36/7/39 31/36/39
f 4/36/40 31/36/40 36/7/40
f 36/7/4 38/8/4 37/5/4
f 27/5/36 37/5/36 38/8/36
f 31/36/39 5/35/39 38/8/39
f 32/8/37 38/8/37 5/35/37
f 30/6/34 39/6/34 40/7/34
f 32/8/6 40/7/6 39/6/6
f 36/7/40 40/7/40 4/36/40
f 33/35/35 4/36/35 40/7/35
f 41/19/41 29/1/41 2/29/41
f 46/4/42 41/19/42 2/29/42
f 42/17/43 28/39/43 9/40/43
f 49/18/44 42/17/44 9/40/44
f 2/29/45 51/4/45 43/19/45
f 25/1/46 2/29/46 43/19/46
f 9/40/47 50/1/47 44/29/47
f 26/39/48 9/40/48 44/29/48
f 45/26/49 12/41/49 14/27/49
f 45/26/50 16/27/50 12/41/50
f 54/3/44 46/4/44 25/1/44
f 46/4/42 2/29/42 25/1/42
f 41/19/41 47/4/41 29/1/41
f 47/4/43 24/2/43 29/1/43
f 42/17/43 48/18/43 28/39/43
f 48/18/41 1/42/41 28/39/41
f 55/34/42 49/18/42 26/39/42
f 49/18/44 9/40/44 26/39/44
f 9/40/47 28/39/47 50/1/47
f 28/39/45 57/2/45 50/1/45
f 2/29/45 29/1/45 51/4/45
f 29/1/47 56/3/47 51/4/47
f 24/2/48 25/1/48 52/4/48
f 25/1/46 43/19/46 52/4/46
f 1/42/46 26/39/46 53/1/46
f 26/39/48 44/29/48 53/1/48
f 47/4/43 54/3/43 24/2/43
f 54/3/44 25/1/44 24/2/44
f 48/18/41 55/34/41 1/42/41
f 55/34/42 26/39/42 1/42/42
f 29/1/47 24/2/47 56/3/47
f 24/2/48 52/4/48 56/3/48
f 28/39/45 1/42/45 57/2/45
f 1/42/46 53/1/46 57/2/46
