# Blender v2.75 (sub 0) OBJ File: 'Empty.blend'
# www.blender.org
mtllib ITMI_PLIERS.mtl
o ITMI_PLIERS
v -0.443088 -0.016682 -0.088252
v 0.190091 0.007697 0.011786
v -0.340734 0.009283 0.000156
v -0.441280 0.012416 0.087150
v -0.513203 -0.011963 -0.024926
v -0.511395 -0.011963 0.023824
v -0.393908 -0.016682 0.051307
v -0.443088 0.012416 -0.088252
v -0.441280 -0.016682 0.087150
v 0.190091 0.007697 -0.011806
v -0.513203 0.007697 -0.024926
v -0.448194 0.012416 -0.062029
v -0.340734 -0.013276 0.000156
v -0.448194 -0.016682 -0.062029
v -0.511395 0.007697 0.023824
v -0.446386 0.012416 0.060927
v 0.190091 -0.011963 0.011786
v 0.190091 -0.011963 -0.011806
v -0.270763 0.007697 -0.016933
v -0.384823 0.012416 -0.083381
v -0.270763 0.007697 0.016372
v -0.270763 -0.011963 0.016372
v -0.270763 -0.011963 -0.016933
v -0.488161 0.007697 0.022208
v -0.446386 -0.016682 0.060927
v -0.383015 0.012416 0.082279
v -0.395716 0.012416 -0.052409
v -0.393908 0.012416 0.051307
v -0.395716 -0.016682 -0.052409
v -0.488161 -0.011963 0.022208
v -0.489969 0.007697 -0.023310
v -0.489969 -0.011963 -0.023310
v -0.383015 -0.016682 0.082279
v -0.384823 -0.016682 -0.083381
vt 0.491916 -0.615612
vt 0.174623 -0.619292
vt 0.174623 -0.592566
vt 0.126448 -0.606279
vt 0.097339 -0.672182
vt 0.088594 -0.564096
vt 0.096094 -0.539241
vt 0.089839 -0.647328
vt 0.053708 -0.655048
vt 0.057224 -0.676091
vt 0.008950 -0.625272
vt 0.024946 -0.623975
vt 0.055979 -0.535332
vt 0.007705 -0.586151
vt 0.491916 -0.596679
vt 0.023702 -0.587448
vt 0.052463 -0.556376
vn 0.000000 -1.000000 0.000000
vn 0.000000 1.000000 0.000000
vn 0.022700 0.999700 0.000000
vn 0.009900 -0.999300 -0.036400
vn -0.691000 0.000000 0.722800
vn 0.042600 0.999000 0.015000
vn 0.047800 -0.998700 -0.016800
vn -0.081400 -0.996600 0.015800
vn 0.029700 0.999100 -0.030300
vn -0.136500 0.990300 0.026600
vn -0.670300 0.000000 -0.742100
vn 0.011100 0.000000 -0.999900
vn -0.670300 0.000000 0.742100
vn 0.009900 0.000000 1.000000
vn 0.679800 0.000000 0.733400
vn -0.081400 0.996600 -0.015800
vn -0.693300 0.000000 -0.720700
vn -0.136500 -0.990300 -0.026600
vn 0.027500 -0.999000 0.035900
vn 0.679800 0.000000 -0.733400
vn 1.000000 0.000000 0.000000
vn 0.028200 0.999300 0.022600
vn 0.503400 -0.000000 -0.864100
vn 0.083300 0.000000 -0.996500
vn 0.034800 0.999300 -0.012200
vn 0.506300 0.000000 0.862300
vn 0.042000 -0.999100 0.000000
vn 0.034300 -0.999300 0.012100
vn -0.069400 0.000000 -0.997600
vn -0.004800 0.997600 -0.069000
vn -0.180300 0.000000 -0.983600
vn 0.083300 0.000000 0.996500
vn -0.180300 0.000000 0.983600
vn -0.007800 -0.993600 -0.112600
vn -0.069400 0.000000 0.997600
vn -0.007800 0.993600 0.112600
vn -0.004800 -0.997600 0.069000
usemtl RUNEMELTER
s off
f 17/1/1 22/2/1 23/3/1
f 19/3/2 21/2/2 2/1/2
f 21/2/3 19/3/3 3/4/3
f 33/5/4 13/4/4 23/3/4
f 27/6/5 29/6/5 13/4/5
f 20/7/6 27/6/6 3/4/6
f 33/5/7 7/8/7 13/4/7
f 25/9/8 9/10/8 6/11/8
f 21/2/9 3/4/9 28/8/9
f 4/10/10 16/9/10 24/12/10
f 8/13/11 1/13/11 5/14/11
f 18/15/12 23/3/12 19/3/12
f 9/10/13 4/10/13 15/11/13
f 2/1/14 21/2/14 22/2/14
f 2/1/2 10/15/2 19/3/2
f 23/3/1 18/15/1 17/1/1
f 5/14/11 11/14/11 8/13/11
f 31/16/15 32/16/15 14/17/15
f 12/17/16 8/13/16 11/14/16
f 14/17/15 12/17/15 31/16/15
f 13/4/5 3/4/5 27/6/5
f 7/8/17 3/4/17 13/4/17
f 1/13/18 14/17/18 32/16/18
f 23/3/19 13/4/19 29/6/19
f 15/11/13 6/11/13 9/10/13
f 30/12/20 24/12/20 16/9/20
f 16/9/20 25/9/20 30/12/20
f 7/8/17 28/8/17 3/4/17
f 22/2/14 17/1/14 2/1/14
f 10/15/21 2/1/21 17/1/21
f 17/1/21 18/15/21 10/15/21
f 19/3/12 10/15/12 18/15/12
f 3/4/22 19/3/22 20/7/22
f 34/7/23 20/7/23 19/3/23
f 27/6/2 20/7/2 8/13/2
f 1/13/24 8/13/24 20/7/24
f 28/8/25 26/5/25 21/2/25
f 22/2/26 21/2/26 26/5/26
f 23/3/27 22/2/27 33/5/27
f 26/5/26 33/5/26 22/2/26
f 29/6/28 34/7/28 23/3/28
f 19/3/23 23/3/23 34/7/23
f 15/11/29 24/12/29 30/12/29
f 24/12/30 15/11/30 4/10/30
f 9/10/1 25/9/1 7/8/1
f 28/8/31 7/8/31 25/9/31
f 33/5/32 26/5/32 4/10/32
f 16/9/2 4/10/2 26/5/2
f 8/13/2 12/17/2 27/6/2
f 29/6/33 27/6/33 12/17/33
f 26/5/2 28/8/2 16/9/2
f 25/9/31 16/9/31 28/8/31
f 34/7/1 29/6/1 14/17/1
f 12/17/33 14/17/33 29/6/33
f 30/12/29 6/11/29 15/11/29
f 6/11/34 30/12/34 25/9/34
f 31/16/35 11/14/35 5/14/35
f 11/14/36 31/16/36 12/17/36
f 5/14/35 32/16/35 31/16/35
f 32/16/37 5/14/37 1/13/37
f 7/8/1 33/5/1 9/10/1
f 4/10/32 9/10/32 33/5/32
f 20/7/24 34/7/24 1/13/24
f 14/17/1 1/13/1 34/7/1
