# Blender v2.75 (sub 0) OBJ File: 'Empty.blend'
# www.blender.org
mtllib ITMI_RUM_02.mtl
o ITMI_RUM_02
v -0.005212 -0.377386 -0.167629
v -0.005212 0.128424 0.054657
v -0.070605 -0.436107 0.113263
v 0.137934 -0.070678 -0.000000
v -0.052547 0.128424 -0.027329
v 0.139959 -0.377386 0.083814
v -0.005212 -0.070678 -0.143147
v 0.066361 -0.070678 -0.123969
v 0.118756 -0.070678 -0.071573
v 0.073286 -0.114828 -0.135963
v 0.130750 -0.114828 -0.078498
v 0.118756 -0.070678 0.071573
v 0.151784 -0.114828 -0.000000
v 0.066361 -0.070678 0.123969
v 0.130750 -0.114828 0.078498
v -0.005212 -0.070678 0.143147
v 0.073286 -0.114828 0.135963
v -0.076786 -0.070678 0.123969
v -0.005212 -0.114828 0.156996
v -0.129181 -0.070678 0.071573
v -0.083710 -0.114828 0.135963
v -0.129181 -0.070678 -0.071573
v -0.148359 -0.070678 0.000000
v -0.141175 -0.114828 0.078498
v -0.162208 -0.114828 0.000000
v -0.076786 -0.070678 -0.123969
v -0.141175 -0.114828 -0.078498
v -0.083710 -0.114828 -0.135963
v -0.005212 -0.114828 -0.156996
v -0.135997 -0.436107 0.000000
v 0.139958 -0.377386 -0.083814
v 0.017873 -0.000983 0.039985
v 0.042122 0.128424 -0.027329
v 0.017873 -0.000983 -0.039985
v -0.051382 -0.000983 0.000000
v -0.070605 -0.436107 -0.113263
v 0.060180 -0.436107 -0.113263
v 0.125572 -0.436107 -0.000000
v 0.060180 -0.436107 0.113263
v 0.042122 0.128424 0.027329
v -0.005212 0.128424 -0.054657
v -0.052547 0.128424 0.027329
v 0.040958 -0.000983 -0.000000
v -0.028297 -0.000983 0.039985
v -0.028297 -0.000983 -0.039985
v -0.110650 -0.049899 -0.060875
v -0.005212 -0.049899 0.121749
v -0.110650 -0.049899 0.060875
v 0.100226 -0.049899 0.060875
v 0.100226 -0.049899 -0.060875
v -0.089027 -0.377386 0.145171
v 0.078602 -0.377386 0.145171
v -0.172841 -0.377386 0.000000
v -0.089027 -0.377386 -0.145171
v -0.005212 -0.377386 0.167629
v -0.150383 -0.377386 -0.083814
v -0.150383 -0.377386 0.083814
v -0.066087 -0.049899 -0.105438
v 0.078602 -0.377386 -0.145171
v 0.162417 -0.377386 -0.000000
v 0.055662 -0.049899 -0.105438
v 0.108051 -0.436107 0.065392
v -0.118475 -0.436107 0.065392
v -0.118475 -0.436107 -0.065392
v -0.005212 -0.436107 -0.130785
v -0.005212 -0.436107 0.130785
v 0.108051 -0.436107 -0.065392
v 0.055662 -0.049899 0.105438
v -0.126962 -0.049899 0.000000
v -0.066087 -0.049899 0.105438
v -0.005212 -0.049899 -0.121749
v 0.116537 -0.049899 -0.000000
v 0.022116 0.128424 0.047335
v -0.059870 0.128424 0.000000
v -0.032541 0.128424 -0.047335
v 0.022116 0.128424 -0.047335
v -0.032541 0.128424 0.047335
v 0.049445 0.128424 -0.000000
v 0.034772 -0.000983 -0.023085
v -0.045197 -0.000983 0.023085
v -0.005212 -0.000983 0.046170
v -0.045197 -0.000983 -0.023085
v 0.034772 -0.000983 0.023085
v -0.005212 -0.000983 -0.046170
v 0.125293 -0.416876 -0.075347
v -0.080560 -0.416876 -0.130505
v 0.125293 -0.416876 0.075347
v -0.080560 -0.416876 0.130505
v 0.034772 0.109956 -0.023085
v -0.005212 0.109956 -0.046170
v -0.045197 0.109956 -0.023085
v 0.017873 0.109956 0.039985
v -0.028297 0.109956 0.039985
v -0.135718 -0.416876 0.075347
v -0.005212 -0.416876 -0.150695
v 0.070135 -0.416876 0.130505
v -0.155907 -0.416876 0.000000
v -0.005212 -0.416876 0.150695
v 0.070135 -0.416876 -0.130505
v -0.135718 -0.416876 -0.075347
v 0.145482 -0.416876 -0.000000
v -0.045197 0.109956 0.023085
v 0.040958 0.109956 -0.000000
v -0.028297 0.109956 -0.039985
v -0.051382 0.109956 0.000000
v 0.017873 0.109956 -0.039985
v 0.034772 0.109956 0.023085
v -0.005212 0.109956 0.046170
v -0.005212 -0.107653 0.150192
v -0.080308 -0.107653 0.130070
v -0.155404 -0.107653 0.000000
v -0.135282 -0.107653 0.075096
v 0.069884 -0.107653 0.130070
v 0.124857 -0.107653 0.075096
v -0.135282 -0.107653 -0.075096
v 0.069883 -0.107653 -0.130070
v -0.005212 -0.107653 -0.150192
v -0.080308 -0.107653 -0.130070
v 0.124857 -0.107653 -0.075096
v 0.144979 -0.107653 -0.000000
vt 1.166667 -0.755107
vt 1.333333 -0.755107
vt 1.333333 -0.548106
vt 1.666667 -0.755107
vt 1.833333 -0.755107
vt 1.833333 -0.548106
vt 0.333333 -0.548106
vt 0.166667 -0.548106
vt 0.166667 -0.755107
vt -0.000000 -0.755107
vt 1.500000 -0.755107
vt 1.500000 -0.548106
vt 1.333333 -0.999500
vt 1.500000 -0.999500
vt 1.166667 -0.999500
vt 1.000000 -0.999500
vt 0.833333 -0.999500
vt 1.000000 -0.755107
vt 0.833333 -0.755107
vt 0.333333 -0.755107
vt 0.500000 -0.755107
vt 0.666667 -0.755107
vt 0.666667 -0.548106
vt 0.500000 -0.999500
vt -0.000000 -0.999500
vt 1.000000 -0.548106
vt 1.666667 -0.548106
vt 0.500000 -0.548106
vt 0.000000 -0.548106
vt -0.166667 -0.548106
vt -0.166667 -0.755107
vt 0.166667 -0.999500
vt 0.333333 -0.999500
vt 1.166667 -0.548106
vt 0.666667 -0.999500
vt 1.666667 -0.999500
vt 1.833333 -0.999500
vt 2.000000 -0.999500
vt 2.000000 -0.755107
vt 0.833333 -0.548106
vt 0.003924 0.166667
vt 0.003924 0.333333
vt 0.999234 0.333333
vt 0.999234 0.500000
vt 0.999234 0.166667
vt 0.003924 0.500000
vt 0.003924 0.000000
vt 0.999234 0.000000
vt 0.003924 -0.166667
vt 0.999234 -0.166667
vt 0.003924 -0.333333
vt 0.999234 -0.333333
vt 0.003924 -0.500000
vt 0.999234 -0.500000
vt 0.003924 -0.666667
vt 0.999234 -0.666667
vt 0.003924 -0.833333
vt 0.999234 -0.833333
vt 0.003925 -1.000000
vt 0.999235 -1.000000
vt 0.003924 -1.166667
vt 0.999234 -1.166667
vt 0.003925 -1.333333
vt 0.999235 -1.333333
vt 0.003924 -1.500000
vt 0.999234 -1.500000
vt 0.122118 -1.164277
vt 0.122118 -1.035485
vt 0.674010 -1.035486
vt 0.122118 -0.133943
vt 0.122118 -0.005151
vt 0.674010 -0.005151
vt 0.674010 -0.520318
vt 0.674010 -0.649110
vt 0.122118 -0.649110
vt 0.674010 0.123640
vt 0.122118 -0.520318
vt 0.956662 -0.496378
vt 0.726247 -0.496378
vt 0.841455 -0.296834
vt 0.674010 -1.164277
vt 0.674010 0.252432
vt 0.122118 0.123640
vt 0.674010 -0.133943
vt 0.674010 -0.262735
vt 0.122118 -0.262735
vt 0.674010 -0.391527
vt 0.122118 -0.391527
vt 0.674010 -0.777902
vt 0.122118 -0.777902
vt 0.674010 -0.906694
vt 0.122118 -0.906694
vt 0.674010 -1.293069
vt 0.122118 -1.293069
vt 0.726247 -0.363348
vt 0.122118 0.252432
vt 0.774939 -0.314656
vt 0.039111 -1.293069
vt 0.039111 -1.164277
vt 0.039111 -0.005151
vt 0.039111 0.123640
vt 0.841454 -0.562893
vt 0.039111 -0.262735
vt 0.039111 -0.649110
vt 0.039111 -0.520318
vt 0.039111 -0.777902
vt 0.039111 -0.391527
vt 0.039111 -0.906694
vt 0.039111 -1.035485
vt 0.039111 0.252432
vt 0.039111 -0.133943
vt 0.956662 -0.363348
vt 0.774939 -0.545071
vt 0.708425 -0.429863
vt 0.907969 -0.314656
vt 0.907969 -0.545071
vt 0.974484 -0.429863
vt -0.001313 -0.005151
vt -0.001313 0.123640
vt -0.001313 -1.164277
vt -0.001313 -1.035485
vt -0.001313 -0.262735
vt -0.001313 -0.133943
vt -0.001313 -0.649110
vt -0.001313 -0.520318
vt -0.001313 -0.777902
vt -0.001313 -1.293069
vt -0.001313 0.252432
vt -0.001313 -0.391527
vt -0.001313 -0.906694
vt 0.689093 -0.520318
vt 0.689093 -0.649110
vt 0.689093 -0.777902
vt 0.689093 -0.906694
vt 0.689093 -1.035486
vt 0.689093 -0.391527
vt 0.689093 -0.262735
vt 0.689093 -1.164277
vt 0.689093 0.123640
vt 0.689093 -0.005151
vt 0.689093 -1.293069
vt 0.689093 0.252432
vt 0.689093 -0.133943
vt 0.383609 -0.748734
vt 0.402536 -0.748734
vt 0.402536 -0.537729
vt 0.264290 -0.598893
vt 0.313584 -0.684274
vt 0.362879 -0.598893
vt 0.421463 -0.748734
vt 0.421463 -0.537729
vt 0.459518 -0.537729
vt 0.478445 -0.537729
vt 0.478445 -0.748734
vt 0.440390 -0.537729
vt 0.459518 -0.748734
vt 0.383609 -0.537729
vt 0.402738 -0.537729
vt 0.402738 -0.748734
vt 0.362879 -0.655814
vt 0.313584 -0.570433
vt 0.478243 -0.537729
vt 0.459316 -0.537729
vt 0.459316 -0.748734
vt 0.264290 -0.655814
vt 0.421665 -0.537729
vt 0.440591 -0.537729
vt 0.440591 -0.748734
vt 0.440390 -0.748734
vt 0.421665 -0.748734
vt 0.478243 -0.748734
vt 0.497372 -0.748734
vt 0.497372 -0.537729
vt 0.342045 -0.676648
vt 0.256664 -0.627353
vt 0.285124 -0.578059
vt 0.342045 -0.578059
vt 0.285124 -0.676648
vt 0.370505 -0.627353
vt 0.459316 -0.503284
vt 0.478243 -0.503284
vt 0.478445 -0.503284
vt 0.497372 -0.503284
vt 0.459518 -0.503284
vt 0.440591 -0.503284
vt 0.402536 -0.503284
vt 0.421463 -0.503284
vt 0.402738 -0.503284
vt 0.383609 -0.503284
vt 0.421665 -0.503284
vt 0.440390 -0.503284
vn 0.393600 0.830700 0.393600
vn 0.393600 0.830700 -0.393600
vn -0.393600 0.830700 -0.393600
vn -0.144100 0.830700 -0.537700
vn 0.537700 0.830700 0.144100
vn 0.872300 0.429600 0.233700
vn 0.638500 0.429600 0.638500
vn 0.233700 0.429600 0.872300
vn -0.233700 0.429600 0.872300
vn -0.537700 0.830700 0.144100
vn -0.872300 0.429600 0.233700
vn -0.233700 0.429600 -0.872300
vn -0.144100 0.830700 0.537700
vn 0.537700 0.830700 -0.144100
vn 0.144100 0.830700 -0.537700
vn -0.638500 0.429600 -0.638500
vn -0.872300 0.429600 -0.233700
vn 0.144100 0.830700 0.537700
vn -0.638500 0.429600 0.638500
vn 0.872300 0.429600 -0.233700
vn 0.638500 0.429600 -0.638500
vn 0.233700 0.429600 -0.872300
vn -0.537700 0.830700 -0.144100
vn -0.393600 0.830700 0.393600
vn -0.676700 -0.290000 0.676700
vn -0.247700 -0.290000 0.924400
vn 0.676700 0.290000 -0.676700
vn 0.247700 0.290000 -0.924400
vn -0.924400 -0.290000 0.247700
vn 0.924400 0.290000 -0.247700
vn -0.924400 -0.290000 -0.247700
vn 0.924400 0.290000 0.247700
vn -0.676700 -0.290000 -0.676700
vn 0.676700 0.290000 0.676700
vn -0.247700 -0.290000 -0.924400
vn 0.247700 0.290000 0.924400
vn 0.247700 -0.290000 -0.924400
vn -0.247700 0.290000 0.924400
vn 0.676700 -0.290000 -0.676700
vn -0.676700 0.290000 0.676700
vn 0.924400 -0.290000 -0.247700
vn -0.924400 0.290000 0.247700
vn 0.924400 -0.290000 0.247700
vn -0.924400 0.290000 -0.247700
vn 0.676700 -0.290000 0.676700
vn -0.676700 0.290000 -0.676700
vn 0.247700 -0.290000 0.924400
vn -0.247700 0.290000 -0.924400
vn -0.706600 0.039100 -0.706600
vn 0.965200 0.039100 -0.258600
vn -0.258600 0.039100 0.965200
vn 0.706600 0.039100 -0.706600
vn 0.000000 -1.000000 0.000000
vn 0.258600 0.039100 -0.965200
vn 0.965200 0.039100 0.258600
vn 0.706600 0.039100 0.706600
vn 0.258600 0.039100 0.965200
vn -0.706600 0.039100 0.706600
vn -0.965200 0.039100 0.258600
vn -0.965200 0.039100 -0.258600
vn -0.258600 0.039100 -0.965200
vn -0.239100 -0.382700 -0.892400
vn 0.653300 -0.382700 -0.653300
vn 0.653300 -0.382700 0.653300
vn -0.239100 -0.382700 0.892400
vn -0.892400 -0.382700 0.239100
vn -0.653300 -0.382700 -0.653300
vn 0.239100 -0.382700 0.892400
vn -0.892400 -0.382700 -0.239100
vn -0.653300 -0.382700 0.653300
vn 0.239100 -0.382700 -0.892400
vn 0.892400 -0.382700 0.239100
vn 0.892400 -0.382700 -0.239100
vn 0.683000 -0.707100 -0.183000
vn 0.500000 -0.707100 -0.500000
vn -0.183000 -0.707100 -0.683000
vn -0.500000 -0.707100 -0.500000
vn 0.500000 -0.707100 0.500000
vn 0.683000 -0.707100 0.183000
vn -0.500000 -0.707100 0.500000
vn -0.183000 -0.707100 0.683000
vn -0.683000 -0.707100 0.183000
vn 0.183000 -0.707100 -0.683000
vn 0.183000 -0.707100 0.683000
vn -0.683000 -0.707100 -0.183000
vn -0.190900 0.675500 0.712300
vn 0.190900 0.675400 0.712300
vn -0.521400 0.675500 0.521400
vn -0.190900 0.675400 0.712300
vn -0.712300 0.675400 -0.190900
vn -0.712300 0.675500 0.190900
vn -0.712300 0.675400 0.190900
vn -0.521400 0.675400 0.521400
vn 0.521400 0.675400 0.521400
vn 0.712300 0.675400 0.190900
vn -0.521400 0.675400 -0.521400
vn 0.521400 0.675400 -0.521400
vn 0.190900 0.675400 -0.712300
vn -0.190900 0.675400 -0.712300
vn 0.712300 0.675400 -0.190900
vn 0.258800 0.000000 0.965900
vn 0.000000 1.000000 0.000000
vn 0.707100 -0.000000 0.707100
vn -0.707100 0.000000 -0.707100
vn 0.965900 -0.000000 0.258800
vn -0.258800 -0.000000 0.965900
vn 0.707100 0.000000 -0.707100
vn -0.965900 -0.000000 0.258800
vn 0.965900 -0.000000 -0.258800
vn 0.258800 0.000000 -0.965900
vn -0.965900 -0.000000 -0.258800
vn -0.258800 0.000000 -0.965900
vn -0.707100 0.000000 0.707100
vn 0.882900 -0.405700 -0.236600
vn 0.646300 -0.405700 -0.646300
vn -0.236600 -0.405700 -0.882900
vn 0.236600 -0.405700 -0.882900
vn -0.646300 -0.405700 -0.646300
vn -0.882900 -0.405700 -0.236600
vn 0.236600 -0.405700 0.882900
vn 0.646300 -0.405700 0.646300
vn -0.646300 -0.405700 0.646300
vn -0.236600 -0.405700 0.882900
vn -0.882900 -0.405700 0.236600
vn 0.882900 -0.405700 0.236600
usemtl NW_SEQ_OBJ_RUM_01
s off
f 68/1/1 49/2/1 83/3/1
f 50/4/2 61/5/2 34/6/2
f 82/7/3 45/8/3 58/9/3
f 71/10/4 58/9/4 45/8/4
f 49/2/5 72/11/5 43/12/5
f 114/13/6 120/14/6 72/11/6
f 49/2/7 68/1/7 113/15/7
f 109/16/8 113/15/8 68/1/8
f 110/17/9 109/16/9 47/18/9
f 47/18/9 70/19/9 110/17/9
f 58/9/3 46/20/3 82/7/3
f 69/21/10 48/22/10 80/23/10
f 48/22/11 69/21/11 111/24/11
f 58/9/12 71/10/12 117/25/12
f 70/19/13 47/18/13 81/26/13
f 79/27/14 43/12/14 72/11/14
f 80/23/10 35/28/10 69/21/10
f 84/29/15 34/30/15 61/31/15
f 118/32/16 115/33/16 46/20/16
f 115/33/17 111/24/17 69/21/17
f 32/34/18 81/26/18 47/18/18
f 83/3/1 32/34/1 68/1/1
f 111/24/11 112/35/11 48/22/11
f 112/35/19 110/17/19 70/19/19
f 113/15/7 114/13/7 49/2/7
f 72/11/6 49/2/6 114/13/6
f 120/14/20 119/36/20 50/4/20
f 61/5/21 50/4/21 119/36/21
f 117/25/12 118/32/12 58/9/12
f 46/20/16 58/9/16 118/32/16
f 119/36/21 116/37/21 61/5/21
f 116/37/22 117/38/22 71/39/22
f 68/1/8 47/18/8 109/16/8
f 47/18/18 68/1/18 32/34/18
f 69/21/17 46/20/17 115/33/17
f 46/20/23 69/21/23 35/28/23
f 70/19/19 48/22/19 112/35/19
f 48/22/24 70/19/24 44/40/24
f 71/39/22 61/5/22 116/37/22
f 61/31/15 71/10/15 84/29/15
f 50/4/20 72/11/20 120/14/20
f 72/11/14 50/4/14 79/27/14
f 34/6/2 79/27/2 50/4/2
f 44/40/24 80/23/24 48/22/24
f 81/26/13 44/40/13 70/19/13
f 35/28/23 82/7/23 46/20/23
f 43/12/5 83/3/5 49/2/5
f 45/8/4 84/29/4 71/10/4
usemtl OBJ_MISC_STRAWS_02
f 9/41/25 8/42/25 10/43/25
f 29/44/26 10/43/26 8/42/26
f 11/45/27 10/43/27 8/42/27
f 7/46/28 8/42/28 10/43/28
f 4/47/29 9/41/29 11/45/29
f 10/43/25 11/45/25 9/41/25
f 13/48/30 11/45/30 9/41/30
f 8/42/27 9/41/27 11/45/27
f 12/49/31 4/47/31 13/48/31
f 11/45/29 13/48/29 4/47/29
f 15/50/32 13/48/32 4/47/32
f 9/41/30 4/47/30 13/48/30
f 14/51/33 12/49/33 15/50/33
f 13/48/31 15/50/31 12/49/31
f 17/52/34 15/50/34 12/49/34
f 4/47/32 12/49/32 15/50/32
f 16/53/35 14/51/35 17/52/35
f 15/50/33 17/52/33 14/51/33
f 19/54/36 17/52/36 14/51/36
f 12/49/34 14/51/34 17/52/34
f 18/55/37 16/53/37 19/54/37
f 17/52/35 19/54/35 16/53/35
f 21/56/38 19/54/38 16/53/38
f 14/51/36 16/53/36 19/54/36
f 20/57/39 18/55/39 21/56/39
f 19/54/37 21/56/37 18/55/37
f 24/58/40 21/56/40 18/55/40
f 16/53/38 18/55/38 21/56/38
f 23/59/41 20/57/41 24/58/41
f 21/56/39 24/58/39 20/57/39
f 25/60/42 24/58/42 20/57/42
f 18/55/40 20/57/40 24/58/40
f 22/61/43 23/59/43 25/60/43
f 24/58/41 25/60/41 23/59/41
f 27/62/44 25/60/44 23/59/44
f 20/57/42 23/59/42 25/60/42
f 26/63/45 22/61/45 27/62/45
f 25/60/43 27/62/43 22/61/43
f 28/64/46 27/62/46 22/61/46
f 23/59/44 22/61/44 27/62/44
f 7/65/47 26/63/47 28/64/47
f 27/62/45 28/64/45 26/63/45
f 29/66/48 28/64/48 26/63/48
f 22/61/46 26/63/46 28/64/46
f 28/64/47 29/66/47 7/65/47
f 8/42/26 7/46/26 29/44/26
f 26/63/48 7/65/48 29/66/48
f 10/43/28 29/44/28 7/46/28
usemtl OBJ_MISC_STRAWS_01
f 54/67/49 56/68/49 27/69/49
f 60/70/50 31/71/50 11/72/50
f 19/73/51 21/74/51 51/75/51
f 10/76/52 11/72/52 31/71/52
f 51/75/51 55/77/51 19/73/51
f 62/78/53 63/79/53 65/80/53
f 27/69/49 28/81/49 54/67/49
f 29/82/54 10/76/54 59/83/54
f 11/72/50 13/84/50 60/70/50
f 13/84/55 15/85/55 6/86/55
f 15/85/56 17/87/56 52/88/56
f 17/87/57 19/73/57 55/77/57
f 21/74/58 24/89/58 57/90/58
f 24/89/59 25/91/59 53/92/59
f 25/91/60 27/69/60 56/68/60
f 28/81/61 29/93/61 1/94/61
f 63/79/53 64/95/53 65/80/53
f 53/92/59 57/90/59 24/89/59
f 59/83/54 1/96/54 29/82/54
f 64/95/53 36/97/53 65/80/53
f 1/94/62 95/98/62 86/99/62
f 1/94/61 54/67/61 28/81/61
f 31/71/63 85/100/63 99/101/63
f 31/71/52 59/83/52 10/76/52
f 62/78/53 66/102/53 63/79/53
f 6/86/55 60/70/55 13/84/55
f 52/88/56 6/86/56 15/85/56
f 87/103/64 6/86/64 52/88/64
f 51/75/65 88/104/65 98/105/65
f 94/106/66 57/90/66 53/92/66
f 52/88/64 96/107/64 87/103/64
f 98/105/65 55/77/65 51/75/65
f 53/92/66 97/108/66 94/106/66
f 100/109/67 56/68/67 54/67/67
f 86/99/62 54/67/62 1/94/62
f 54/67/67 86/99/67 100/109/67
f 96/107/68 52/88/68 55/77/68
f 55/77/57 52/88/57 17/87/57
f 97/108/69 53/92/69 56/68/69
f 56/68/60 53/92/60 25/91/60
f 88/104/70 51/75/70 57/90/70
f 57/90/58 51/75/58 21/74/58
f 99/101/63 59/83/63 31/71/63
f 95/110/71 1/96/71 59/83/71
f 101/111/72 60/70/72 6/86/72
f 85/100/73 31/71/73 60/70/73
f 67/112/53 62/78/53 65/80/53
f 6/86/72 87/103/72 101/111/72
f 66/102/53 3/113/53 63/79/53
f 57/90/70 94/106/70 88/104/70
f 63/79/53 30/114/53 64/95/53
f 56/68/69 100/109/69 97/108/69
f 67/112/53 65/80/53 37/115/53
f 59/83/71 99/101/71 95/110/71
f 62/78/53 39/116/53 66/102/53
f 55/77/68 98/105/68 96/107/68
f 67/112/53 38/117/53 62/78/53
f 60/70/73 101/111/73 85/100/73
f 67/118/74 85/100/74 101/111/74
f 85/100/75 67/118/75 37/119/75
f 36/120/76 86/99/76 95/98/76
f 86/99/77 36/120/77 64/121/77
f 62/122/78 87/103/78 96/107/78
f 87/103/79 62/122/79 38/123/79
f 3/124/80 88/104/80 94/106/80
f 88/104/81 3/124/81 66/125/81
f 63/126/82 94/106/82 97/108/82
f 94/106/80 63/126/80 3/124/80
f 95/98/76 65/127/76 36/120/76
f 65/128/83 95/110/83 99/101/83
f 39/129/84 96/107/84 98/105/84
f 96/107/78 39/129/78 62/122/78
f 30/130/85 97/108/85 100/109/85
f 97/108/82 30/130/82 63/126/82
f 66/125/81 98/105/81 88/104/81
f 98/105/84 66/125/84 39/129/84
f 37/119/75 99/101/75 85/100/75
f 99/101/83 37/119/83 65/128/83
f 64/121/77 100/109/77 86/99/77
f 100/109/85 64/121/85 30/130/85
f 38/123/79 101/111/79 87/103/79
f 101/111/74 38/123/74 67/118/74
f 19/73/86 109/131/86 110/132/86
f 109/131/87 19/73/87 17/87/87
f 21/74/88 110/132/88 112/133/88
f 110/132/89 21/74/89 19/73/89
f 25/91/90 111/134/90 115/135/90
f 111/134/91 25/91/91 24/89/91
f 24/89/92 112/133/92 111/134/92
f 112/133/93 24/89/93 21/74/93
f 17/87/87 113/136/87 109/131/87
f 113/136/94 17/87/94 15/85/94
f 15/85/94 114/137/94 113/136/94
f 114/137/95 15/85/95 13/84/95
f 27/69/96 115/135/96 118/138/96
f 115/135/90 27/69/90 25/91/90
f 10/76/97 116/139/97 119/140/97
f 116/139/98 10/76/98 29/82/98
f 117/141/99 29/93/99 28/81/99
f 29/82/98 117/142/98 116/139/98
f 28/81/99 118/138/99 117/141/99
f 118/138/96 28/81/96 27/69/96
f 11/72/100 119/140/100 120/143/100
f 119/140/97 11/72/97 10/76/97
f 13/84/95 120/143/95 114/137/95
f 120/143/100 13/84/100 11/72/100
usemtl IT_FOOD_01
f 81/144/101 32/145/101 92/146/101
f 5/147/102 2/148/102 33/149/102
f 32/145/103 83/150/103 107/151/103
f 91/152/104 104/153/104 45/154/104
f 103/155/105 107/151/105 83/150/105
f 45/154/104 82/156/104 91/152/104
f 108/157/106 93/158/106 44/159/106
f 2/148/102 40/160/102 33/149/102
f 107/151/103 92/146/103 32/145/103
f 41/161/102 5/147/102 33/149/102
f 106/162/107 89/163/107 79/164/107
f 5/147/102 42/165/102 2/148/102
f 102/166/108 105/167/108 35/168/108
f 43/169/109 79/164/109 89/163/109
f 35/168/108 80/170/108 102/166/108
f 34/171/110 84/172/110 90/173/110
f 2/148/102 73/174/102 40/160/102
f 92/146/101 108/157/101 81/144/101
f 5/147/102 74/175/102 42/165/102
f 105/167/111 91/152/111 82/156/111
f 41/161/102 75/176/102 5/147/102
f 104/153/112 90/173/112 84/172/112
f 41/161/102 33/149/102 76/177/102
f 90/173/110 106/162/110 34/171/110
f 42/165/102 77/178/102 2/148/102
f 93/158/113 102/166/113 80/170/113
f 40/160/102 78/179/102 33/149/102
f 89/163/109 103/155/109 43/169/109
f 79/164/107 34/171/107 106/162/107
f 80/170/113 44/159/113 93/158/113
f 44/159/106 81/144/106 108/157/106
f 82/156/111 35/168/111 105/167/111
f 83/150/105 43/169/105 103/155/105
f 84/172/112 45/154/112 104/153/112
f 103/155/114 89/163/114 33/180/114
f 76/181/115 33/180/115 89/163/115
f 75/182/116 41/183/116 90/173/116
f 106/162/117 90/173/117 41/183/117
f 104/153/118 91/152/118 5/184/118
f 74/185/119 5/184/119 91/152/119
f 108/157/120 92/146/120 73/186/120
f 40/187/121 73/186/121 92/146/121
f 102/166/122 93/158/122 77/188/122
f 2/189/123 77/188/123 93/158/123
f 105/167/124 102/166/124 42/190/124
f 77/188/122 42/190/122 102/166/122
f 107/151/125 103/155/125 78/191/125
f 33/180/114 78/191/114 103/155/114
f 90/173/116 104/153/116 75/182/116
f 5/184/118 75/182/118 104/153/118
f 91/152/119 105/167/119 74/185/119
f 42/190/124 74/185/124 105/167/124
f 89/163/115 106/162/115 76/181/115
f 41/183/117 76/181/117 106/162/117
f 92/146/121 107/151/121 40/187/121
f 78/191/125 40/187/125 107/151/125
f 93/158/123 108/157/123 2/189/123
f 73/186/120 2/189/120 108/157/120
