# Blender v2.75 (sub 0) OBJ File: 'Empty.blend'
# www.blender.org
mtllib ITMI_STONEPLATE_READ_02.mtl
o ITMI_STONEPLATE_READ_02
v -0.187563 0.029706 -0.132981
v 0.209547 -0.030165 0.248689
v -0.209547 -0.030165 0.248689
v 0.056690 0.029706 -0.240453
v 0.155009 -0.030165 -0.180041
v 0.056690 -0.030165 -0.240453
v 0.206240 0.029706 -0.078894
v -0.155009 -0.030165 -0.180040
v -0.027547 0.029706 0.248689
v -0.056690 -0.030165 -0.240453
v -0.209547 0.029706 0.116579
v -0.178434 0.029706 0.202981
v 0.209547 -0.006294 0.248689
v 0.155009 0.029706 -0.180041
v -0.206240 -0.030165 -0.078894
v -0.110074 0.000706 -0.217121
v 0.206240 -0.030165 -0.078894
v 0.184372 0.029706 0.140228
v 0.063547 0.029706 0.248689
v -0.000000 0.000706 -0.248230
v 0.209547 -0.006294 -0.020729
v -0.048763 0.029706 -0.212269
v 0.150744 0.029706 0.206873
v -0.206240 0.029706 -0.078894
v -0.188778 -0.011606 0.248689
v 0.110074 -0.030165 -0.217122
v -0.110074 -0.030165 -0.217121
v 0.110074 0.029706 -0.217122
v -0.155009 0.000706 -0.180040
v -0.056690 0.000706 -0.240453
v -0.187563 -0.030165 -0.132981
v -0.000000 -0.030165 -0.248230
v 0.187562 0.029706 -0.132982
v 0.187562 -0.030165 -0.132982
v -0.209547 0.000388 0.204678
v -0.130063 0.010806 0.248689
v 0.143331 0.016409 0.248689
v 0.194476 0.012320 0.213189
v -0.128570 0.029706 0.226265
v -0.094744 0.029706 -0.192173
v 0.134944 0.029706 0.221175
v -0.209547 0.029706 -0.020729
v 0.209547 -0.030165 -0.020729
v -0.209547 -0.030165 -0.020729
vt 0.632383 -0.943562
vt 0.365970 -0.943561
vt 0.632383 -0.626403
vt 0.481665 -0.943561
vt 0.616379 -0.815881
vt 0.630281 -0.557930
vt 0.365970 -0.626403
vt 0.365970 -0.788042
vt 0.438949 -0.424579
vt 0.379945 -0.494259
vt 0.618408 -0.494259
vt 0.142828 -0.336898
vt 0.179079 -0.336898
vt 0.179079 -0.169656
vt 0.597714 -0.438861
vt 0.499176 -0.358588
vt 0.569149 -0.395209
vt 0.142828 -0.012547
vt 0.108692 -0.012547
vt 0.108692 -0.336898
vt 0.045083 -0.336898
vt 0.190381 -0.336898
vt 0.190381 -0.207578
vt 0.079957 -0.336898
vt 0.241827 -0.012547
vt 0.167776 -0.012547
vt 0.167776 -0.336898
vt 0.118494 -0.049137
vt 0.108691 -0.032852
vt 0.059141 -0.087773
vt 0.417446 -0.917164
vt 0.095910 -0.114939
vt 0.313074 -0.336898
vt 0.219714 -0.012547
vt 0.429204 -0.395209
vt 0.463139 -0.367743
vt 0.107237 -0.012547
vt 0.081858 -0.169656
vt 0.081858 -0.336898
vt 0.289339 -0.171378
vt 0.161464 -0.336898
vt 0.096864 -0.322261
vt 0.095910 -0.336898
vt 0.045083 -0.250667
vt 0.045083 -0.308171
vt 0.064978 -0.307063
vt 0.385748 -0.889754
vt 0.045083 -0.207578
vt 0.270732 -0.084585
vt 0.535214 -0.367743
vt 0.276299 -0.012547
vt 0.250920 -0.012547
vt 0.250920 -0.336898
vt 0.400639 -0.438861
vt 0.107237 -0.336898
vt 0.215329 -0.336898
vt 0.249466 -0.336898
vt 0.249466 -0.169656
vt 0.215329 -0.169656
vt 0.221751 -0.336898
vt 0.368072 -0.557930
vt 0.296976 -0.266103
vt 0.303437 -0.313726
vt 0.313074 -0.161043
vt 0.270732 -0.336898
vt 0.265369 -0.318939
vt 0.219714 -0.336898
vt 0.161464 -0.012547
vt 0.539572 -0.943561
vt 0.584959 -0.911172
vt 0.142828 -0.017623
vt 0.221751 -0.012547
vt 0.310959 -0.123076
vt 0.468178 -0.400922
vt 0.215329 -0.017623
vt 0.179079 -0.012547
vt 0.147897 -0.036020
vt 0.275472 -0.309604
vt 0.595002 -0.894336
vt 0.136407 -0.012547
vt 0.058364 -0.336898
vt 0.278200 -0.336898
vt 0.278200 -0.169656
vt 0.079957 -0.012547
vt 0.079957 -0.057056
vt 0.136407 -0.336898
vt 0.276299 -0.336898
vt 0.058364 -0.236355
vt 0.313074 -0.207578
vn 0.000000 -1.000000 0.000000
vn -0.000000 1.000000 -0.000000
vn 0.135900 0.000000 -0.990700
vn 0.400500 0.000000 -0.916300
vn 1.000000 0.000000 0.000000
vn 0.636500 0.000000 -0.771300
vn -1.000000 -0.000000 0.000000
vn -0.378400 0.710500 -0.593300
vn 0.000000 0.000000 1.000000
vn -0.822400 0.000000 -0.568900
vn -0.140400 0.761600 0.632600
vn -0.659300 0.713400 0.237400
vn 0.822400 -0.000000 -0.568900
vn -0.400500 0.000000 -0.916300
vn 0.945200 0.000000 -0.326400
vn 0.842800 0.538100 0.011500
vn 0.151200 0.907300 0.392400
vn -0.283200 0.707100 -0.647900
vn 0.998400 0.000000 -0.056800
vn 0.964900 0.244200 0.096300
vn -0.205200 0.607000 -0.767700
vn 0.342200 0.923600 0.172700
vn -0.945200 0.000000 -0.326400
vn -0.595400 0.658500 0.460400
vn -0.636500 0.000000 -0.771300
vn -0.560700 0.473200 -0.679500
vn -0.135900 0.000000 -0.990700
vn -0.096100 0.707100 -0.700500
vn -0.591700 0.662200 0.459700
vn -0.283400 0.742500 0.606900
vn 0.305300 0.890500 0.337300
vn 0.777200 0.629300 -0.000000
vn -0.998400 -0.000000 -0.056800
usemtl ITMISTONEPLATES_01
s off
f 2/1/1 3/2/1 43/3/1
f 9/4/2 18/5/2 7/6/2
f 42/7/2 11/8/2 7/6/2
f 3/2/1 44/7/1 43/3/1
f 40/9/2 1/10/2 33/11/2
f 6/12/3 32/13/3 20/14/3
f 5/15/1 32/16/1 26/17/1
f 4/18/4 28/19/4 26/20/4
f 2/21/5 43/22/5 21/23/5
f 5/24/6 26/20/6 28/19/6
f 11/25/7 42/26/7 44/27/7
f 40/28/8 16/29/8 1/30/8
f 39/31/2 9/4/2 7/6/2
f 36/32/9 2/33/9 19/34/9
f 27/35/1 10/36/1 34/11/1
f 1/37/10 29/38/10 8/39/10
f 35/40/7 11/25/7 44/27/7
f 9/41/11 39/42/11 36/43/11
f 11/44/12 35/45/12 12/46/12
f 11/8/2 12/47/2 7/6/2
f 21/23/5 13/48/5 2/21/5
f 2/33/9 37/49/9 19/34/9
f 4/50/2 33/11/2 14/15/2
f 14/51/13 33/52/13 34/53/13
f 31/10/1 8/54/1 34/11/1
f 8/39/10 31/55/10 1/37/10
f 10/56/14 27/57/14 16/58/14
f 16/58/14 30/59/14 10/56/14
f 17/60/15 34/53/15 33/52/15
f 17/6/1 15/61/1 34/11/1
f 18/62/16 38/63/16 21/64/16
f 37/65/17 41/66/17 19/67/17
f 19/34/9 9/68/9 36/32/9
f 9/4/2 19/69/2 41/70/2
f 6/12/3 20/14/3 4/18/3
f 16/29/18 40/28/18 30/71/18
f 7/72/19 21/23/19 43/22/19
f 21/64/20 7/73/20 18/62/20
f 4/50/2 22/74/2 33/11/2
f 4/75/21 20/76/21 22/77/21
f 23/78/22 38/63/22 18/62/22
f 9/4/2 23/79/2 18/5/2
f 1/10/2 24/61/2 33/11/2
f 24/80/23 1/37/23 31/55/23
f 25/81/24 12/46/24 35/45/24
f 3/21/9 2/33/9 36/32/9
f 26/20/4 6/12/4 4/18/4
f 26/17/1 32/16/1 6/50/1
f 27/57/25 8/82/25 29/83/25
f 8/54/1 27/35/1 34/11/1
f 4/50/2 14/15/2 28/17/2
f 28/19/6 14/84/6 5/24/6
f 29/83/25 16/58/25 27/57/25
f 29/85/26 1/30/26 16/29/26
f 30/59/27 20/14/27 32/13/27
f 30/71/28 22/77/28 20/76/28
f 31/55/23 15/86/23 24/80/23
f 15/61/1 31/10/1 34/11/1
f 32/13/27 10/56/27 30/59/27
f 10/36/1 32/16/1 34/11/1
f 24/61/2 7/6/2 33/11/2
f 33/52/15 7/72/15 17/60/15
f 34/53/13 5/87/13 14/51/13
f 34/11/1 32/16/1 5/15/1
f 25/81/29 35/45/29 3/21/29
f 3/33/7 35/40/7 44/27/7
f 3/21/9 36/32/9 25/88/9
f 36/43/30 39/42/30 25/81/30
f 37/49/9 2/33/9 13/89/9
f 23/78/31 37/65/31 38/63/31
f 37/65/31 13/33/31 38/63/31
f 38/63/32 13/33/32 21/64/32
f 39/42/30 12/46/30 25/81/30
f 12/47/2 39/31/2 7/6/2
f 22/74/2 40/9/2 33/11/2
f 22/77/18 30/71/18 40/28/18
f 9/4/2 41/70/2 23/79/2
f 41/66/31 37/65/31 23/78/31
f 24/61/2 42/7/2 7/6/2
f 42/26/33 24/80/33 15/86/33
f 43/22/19 17/60/19 7/72/19
f 43/3/1 44/7/1 17/6/1
f 15/86/33 44/27/33 42/26/33
f 44/7/1 15/61/1 17/6/1
