# Blender v2.75 (sub 0) OBJ File: 'Empty.blend'
# www.blender.org
mtllib ITMI_GOLD.mtl
o ITMI_GOLD
v 0.050000 -0.010081 0.000000
v -0.035031 0.002561 -0.035355
v -0.000000 -0.010081 0.050000
v 0.035411 0.008724 0.035355
v 0.035355 -0.010081 -0.035355
v 0.000000 -0.010081 -0.050000
v 0.035411 0.003724 -0.035355
v -0.035355 -0.010081 0.035355
v 0.000190 0.005642 0.050000
v -0.050000 -0.010081 -0.000000
v -0.035355 -0.010081 -0.035355
v 0.035355 -0.010081 0.035355
v 0.050000 0.010000 0.000000
v -0.035031 0.002561 0.035355
v -0.049619 0.001284 -0.000000
v 0.000190 0.000642 -0.050000
vt 0.290001 -0.580896
vt 0.289261 -0.018117
vt 0.488604 -0.498479
vt 0.200486 0.213361
vt 0.044489 0.064670
vt 0.045915 0.240502
vt 0.131027 0.068319
vt 0.131027 0.329871
vt 0.300008 0.329514
vt 0.489662 -0.102331
vt 0.290000 -0.581321
vt 0.488924 -0.101076
vt 0.488924 -0.498924
vt 0.200008 0.050211
vt 0.200008 0.329514
vt 0.368967 0.329871
vt 0.571321 -0.300000
vt 0.572232 -0.301304
vt 0.368967 0.137863
vt 0.355092 0.256676
vt 0.354848 0.064670
vt 0.199651 0.064213
vt 0.095996 0.136519
vt 0.094572 0.297816
vt 0.249579 0.298257
vt 0.091076 -0.498924
vt 0.250413 0.097644
vt 0.404576 0.297816
vt 0.404821 0.057888
vt 0.090658 -0.100534
vt 0.091182 -0.498479
vt 0.091076 -0.101076
vt 0.290000 -0.018679
vt 0.215003 0.209095
vt 0.042600 0.089788
vt 0.042600 0.227716
vt 0.387397 0.227716
vt 0.387397 0.089788
vt 0.215003 0.085065
vt 0.008679 -0.300000
vt 0.300008 0.050211
vt 0.008611 -0.299506
vn -0.087200 0.996200 0.000000
vn -0.383500 0.009900 -0.923500
vn 0.923900 -0.002700 0.382700
vn -0.016300 0.985600 -0.168300
vn 0.000000 -1.000000 -0.000000
vn 0.923900 0.000000 -0.382700
vn 0.924600 -0.003700 -0.380900
vn 0.382700 -0.001500 -0.923900
vn -0.382700 0.009800 0.923800
vn 0.384000 -0.001100 0.923300
vn -0.924400 0.023800 0.380600
vn -0.923600 0.023700 -0.382600
vn 0.382700 -0.004600 0.923900
vn 0.924400 0.000000 0.381400
vn -0.384300 0.004700 0.923200
vn -0.924300 0.030900 -0.380300
vn -0.923400 0.030900 0.382500
vn -0.382700 0.006800 -0.923900
vn 0.384400 -0.006800 -0.923100
usemtl IT_GOLD_01
s off
f 15/1/1 13/2/1 2/3/1
f 16/4/2 11/5/2 2/6/2
f 4/7/3 12/8/3 1/9/3
f 2/3/4 13/2/4 7/10/4
f 1/11/5 11/12/5 5/13/5
f 13/14/6 1/15/6 5/16/6
f 5/13/5 11/12/5 6/17/5
f 2/3/4 7/10/4 16/18/4
f 13/14/7 5/16/7 7/19/7
f 7/20/8 5/21/8 6/22/8
f 14/23/9 8/24/9 3/25/9
f 12/26/5 11/12/5 1/11/5
f 9/27/10 12/28/10 4/29/10
f 4/30/1 15/1/1 14/31/1
f 12/26/5 8/32/5 10/33/5
f 15/34/11 8/35/11 14/36/11
f 11/12/5 12/26/5 10/33/5
f 2/37/12 11/38/12 10/39/12
f 8/32/5 12/26/5 3/40/5
f 9/27/13 3/25/13 12/28/13
f 4/30/1 13/2/1 15/1/1
f 4/7/14 1/9/14 13/41/14
f 14/23/15 3/25/15 9/27/15
f 4/30/1 14/31/1 9/42/1
f 2/37/16 10/39/16 15/34/16
f 15/34/17 10/39/17 8/35/17
f 16/4/18 6/22/18 11/5/18
f 7/20/19 6/22/19 16/4/19
