# Blender v2.75 (sub 0) OBJ File: 'Empty.blend'
# www.blender.org
mtllib ITMI_RAKE.mtl
o ITMI_RAKE
v -1.254530 0.068991 -0.030010
v 0.498945 0.029713 -0.000010
v -1.073430 -0.030287 -0.000010
v -1.322920 0.010681 -0.115510
v -1.322920 0.010681 0.115490
v -1.335675 -0.189319 0.147049
v -1.335675 -0.189319 -0.147069
v -1.348430 -0.048581 0.174990
v -1.322920 -0.048581 -0.175010
v -1.324120 0.025648 -0.030010
v -1.324120 0.025648 0.029990
v -1.254530 0.068991 0.029990
v 0.498945 -0.000287 -0.030010
v -1.073430 0.029713 -0.000010
v 0.498945 -0.000287 0.029990
v -1.348430 0.043339 -0.000010
v 0.452627 -0.030287 -0.000010
v -1.322920 0.043339 -0.000010
v -1.322920 -0.048581 0.174990
v -1.348430 -0.048581 -0.175010
v -1.322920 -0.121095 0.174990
v -1.322920 -0.121095 -0.175010
v -1.137068 0.044018 0.029990
v -1.137068 0.044019 -0.030010
v -1.142681 0.027716 -0.000010
v -1.073430 -0.000287 0.029990
v -1.073430 -0.000287 -0.030010
v -1.348430 0.010681 -0.115510
v -1.348430 0.010681 0.115490
v -1.324120 0.011949 -0.000010
v -1.324120 0.039346 -0.000010
v -1.254530 0.057670 -0.000010
v -1.254530 0.080311 -0.000010
v -1.348430 -0.121095 0.174990
v -1.348430 -0.121095 -0.175010
v -1.131455 0.060321 -0.000010
vt 0.793800 -0.004840
vt 0.766527 -0.998352
vt 0.766527 -0.004840
vt 0.821072 -0.004840
vt 0.821072 -0.998352
vt 0.793799 -0.998352
vt 0.793799 -0.971322
vt 0.745361 -0.532284
vt 0.773407 -0.512869
vt 0.773407 -0.756072
vt 0.774281 -0.756072
vt 0.774281 -0.512869
vt 0.745361 -0.736657
vt 0.909100 -0.554213
vt 0.909974 -0.554213
vt 0.937193 -0.634471
vt 0.909974 -0.714728
vt 0.909100 -0.714728
vt 0.936320 -0.634471
vt 0.943965 -0.634351
vt 0.769895 -0.687448
vt 0.943965 -0.687448
vt 0.769895 -0.581254
vt 0.943965 -0.581254
vt 0.769895 -0.634351
vt 0.967858 -0.634351
vt 0.987728 -0.634351
vt 0.838696 -0.512869
vt 0.839570 -0.512869
vt 0.839570 -0.756072
vt 0.977793 -0.687448
vt 0.977793 -0.581254
vt 0.865286 -0.581254
vt 0.865286 -0.634351
vt 0.865286 -0.687448
vt 0.838696 -0.756072
vn 0.000000 -0.707100 0.707100
vn 0.000000 -0.707100 -0.707100
vn 0.000000 0.707100 -0.707100
vn 0.000000 0.707100 0.707100
vn 1.000000 0.000000 0.000000
vn 0.543600 -0.839300 0.000000
vn -0.983000 -0.183800 -0.000000
vn 0.983000 -0.183800 -0.000000
vn 0.000000 0.962300 0.272100
vn -1.000000 0.000000 0.000000
vn 0.492900 -0.791500 0.361400
vn -0.492900 0.791500 -0.361400
vn -0.243000 -0.907500 0.342500
vn 0.523700 -0.797100 0.300800
vn -0.482400 0.819500 -0.309300
vn 0.150200 0.925000 -0.349000
vn 0.000000 0.962300 -0.272100
vn 0.000000 0.708500 0.705700
vn 0.000000 -0.379000 0.925400
vn 0.000000 -0.379000 -0.925400
vn 0.000000 0.708500 -0.705700
vn 0.000000 0.000000 1.000000
vn 0.000000 0.000000 -1.000000
vn -0.180600 -0.849600 0.495500
vn 0.180600 0.849600 0.495500
vn -0.180600 -0.849600 -0.495500
vn 0.180600 0.849600 -0.495500
vn -0.509600 -0.608400 -0.608400
vn -0.509600 -0.608400 0.608400
vn -0.500000 -0.718200 0.483800
vn 0.441700 0.634400 0.634400
vn -0.500000 -0.718200 -0.483800
vn 0.441700 0.634400 -0.634400
vn 0.492900 -0.791500 -0.361400
vn -0.492900 0.791500 0.361400
vn -0.243000 -0.907500 -0.342500
vn 0.523700 -0.797100 -0.300800
vn 0.150200 0.925000 0.349100
vn -0.482400 0.819500 0.309300
vn 0.405700 0.769100 0.493800
vn 0.405700 0.769100 -0.493800
usemtl ITMELEEREST
s off
f 3/1/1 15/2/1 26/3/1
f 3/1/2 27/4/2 13/5/2
f 14/1/3 13/5/3 27/4/3
f 13/5/3 14/1/3 2/6/3
f 15/2/1 3/1/1 17/7/1
f 14/1/4 26/3/4 15/2/4
f 15/2/4 2/6/4 14/1/4
f 13/5/5 2/6/5 15/2/5
f 13/5/2 17/7/2 3/1/2
f 15/2/6 17/7/6 13/5/6
usemtl ITMELEEBLADES
f 6/8/7 34/9/7 35/10/7
f 22/11/8 21/12/8 6/8/8
f 35/10/7 7/13/7 6/8/7
f 6/8/8 7/13/8 22/11/8
f 29/14/9 5/15/9 18/16/9
f 4/17/5 5/15/5 21/12/5
f 22/11/5 4/17/5 21/12/5
f 28/18/10 29/14/10 16/19/10
f 30/20/11 12/21/11 11/22/11
f 31/20/12 1/23/12 10/24/12
f 32/25/13 25/26/13 12/21/13
f 12/21/14 30/20/14 32/25/14
f 1/23/15 31/20/15 33/25/15
f 1/23/16 33/25/16 36/27/16
f 4/17/17 28/18/17 16/19/17
f 4/17/5 18/16/5 5/15/5
f 16/19/17 18/16/17 4/17/17
f 18/16/9 16/19/9 29/14/9
f 8/28/18 19/29/18 5/15/18
f 6/8/19 21/12/19 34/9/19
f 7/13/20 35/10/20 22/11/20
f 28/18/21 4/17/21 9/30/21
f 5/15/5 19/29/5 21/12/5
f 21/12/22 19/29/22 8/28/22
f 9/30/5 4/17/5 22/11/5
f 9/30/23 22/11/23 35/10/23
f 23/31/24 12/21/24 25/26/24
f 36/27/25 12/21/25 23/31/25
f 25/26/26 1/23/26 24/32/26
f 36/27/27 24/32/27 1/23/27
f 27/33/28 3/34/28 25/26/28
f 26/35/29 25/26/29 3/34/29
f 25/26/30 26/35/30 23/31/30
f 14/34/31 23/31/31 26/35/31
f 25/26/32 24/32/32 27/33/32
f 27/33/33 24/32/33 14/34/33
f 28/18/10 35/10/10 34/9/10
f 9/30/21 20/36/21 28/18/21
f 34/9/10 29/14/10 28/18/10
f 5/15/18 29/14/18 8/28/18
f 30/20/34 10/24/34 1/23/34
f 11/22/35 12/21/35 31/20/35
f 1/23/36 25/26/36 32/25/36
f 1/23/37 32/25/37 30/20/37
f 12/21/38 36/27/38 33/25/38
f 33/25/39 31/20/39 12/21/39
f 34/9/10 8/28/10 29/14/10
f 8/28/22 34/9/22 21/12/22
f 20/36/10 35/10/10 28/18/10
f 35/10/23 20/36/23 9/30/23
f 23/31/40 14/34/40 36/27/40
f 36/27/41 14/34/41 24/32/41
