# Blender v2.75 (sub 0) OBJ File: 'Empty.blend'
# www.blender.org
mtllib ITMI_SAW.mtl
o ITMI_SAW
v -0.098576 0.000010 0.427220
v -0.066550 0.010010 0.030339
v -0.014545 0.000010 0.261218
v -0.182594 0.000010 0.593197
v 0.069485 0.000010 0.095216
v 0.086187 0.010010 0.057005
v 0.121058 0.010010 0.013893
v 0.003291 -0.019990 0.010897
v -0.074267 0.020010 0.047296
v -0.219661 0.004640 0.537463
v -0.000282 -0.019990 0.060374
v 0.002802 0.020010 0.010478
v -0.000772 0.020010 0.059955
v 0.066230 0.020010 0.115821
v 0.066230 -0.019990 0.115821
v -0.019728 -0.019990 -0.029497
v -0.073707 -0.019990 0.047569
v -0.066512 -0.009990 0.030371
v 0.092537 -0.009990 0.010530
v -0.064940 0.020010 -0.003777
v -0.064450 -0.019990 -0.003358
v 0.086148 -0.009990 0.057086
v -0.020288 0.020010 -0.029770
v 0.106907 0.010010 0.037678
v 0.092304 0.010010 0.010331
v 0.107140 -0.009990 0.037878
v 0.111949 -0.009990 -0.006705
v 0.111716 0.010010 -0.006905
v 0.121291 -0.009990 0.014092
v -0.219623 -0.004620 0.537496
v 0.086320 -0.019990 0.074629
v 0.086320 0.020010 0.074629
v 0.058905 0.010010 0.050026
v 0.059177 -0.009990 0.050259
v 0.001496 -0.006142 0.062802
v 0.001458 0.006162 0.062770
v -0.201099 -0.002838 0.565354
v -0.201137 0.002858 0.565322
v -0.066067 0.005061 0.230270
v -0.066029 -0.005041 0.230303
v -0.133564 -0.003940 0.397828
v -0.133602 0.003960 0.397796
v -0.168629 0.006430 0.368439
v -0.168591 -0.006410 0.368471
v -0.117552 -0.008200 0.199421
v -0.117589 0.008220 0.199389
vt -0.637905 0.209340
vt -0.319271 0.243188
vt -0.326408 0.115011
vt -0.339273 0.118259
vt -0.332102 0.226927
vt -0.645006 0.197845
vt -0.655967 0.114064
vt -0.662867 0.117031
vt -0.015679 0.119486
vt 0.003150 0.115957
vt 0.249055 -0.353588
vt 0.444553 -0.300528
vt 0.020736 -0.294531
vt 0.398573 -0.443809
vt 0.296161 -0.372572
vt 0.077212 -0.479453
vt 0.236673 -0.342367
vt 0.027284 -0.266864
vt 0.425410 -0.309185
vt 0.055863 -0.490672
vt 0.271387 -0.409597
vt 0.362435 -0.486776
vt -0.957910 0.168763
vt -0.986413 0.115804
vt -0.985474 0.113118
vt -0.956538 0.175493
vt 0.236673 -0.287368
vt 0.447656 -0.384859
vt 0.479278 -0.434936
vt 0.296161 -0.477572
vt 0.189362 -0.533783
vt 0.192617 -0.382549
vt -0.220967 -0.382452
vt -0.207428 -0.535566
vt -0.205343 -0.389102
vt 0.074512 -0.425721
vt -0.224221 -0.533686
vt 0.143529 -0.444722
vt 0.139055 -0.462453
vt 0.004690 -0.365848
vt 0.017759 -0.417254
vt 0.014806 -0.383546
vt -0.249196 -0.364032
vt -0.611857 -0.363412
vt -0.612165 -0.534735
vt 0.354878 -0.389035
vt 0.354878 -0.513931
vt -0.330598 -0.513931
vt 0.044650 -0.456691
vt 0.042408 -0.327284
vt 0.360651 -0.360895
vt -0.330598 -0.545972
vt -0.327864 -0.421076
vt 0.354878 -0.421076
vt 0.042408 -0.402285
vt 0.044650 -0.531691
vt -0.122749 -0.533135
vt -0.329251 -0.670855
vt -0.331358 -0.709004
vt -0.645274 -0.675743
vt 0.073525 -0.498953
vt 0.024034 -0.549089
vt -0.237563 -0.535948
vt -0.239805 -0.406541
vt -0.124542 -0.403720
vt 0.447656 -0.439859
vt -0.002983 -0.413924
vt -0.000238 -0.490850
vt -0.576314 -0.529656
vt -0.249505 -0.535354
vt 0.479278 -0.329936
vt -0.016776 -0.507164
vt -0.003405 -0.437564
vt 0.048833 -0.543343
vt 0.171781 -0.425402
vt 0.010304 -0.429811
vt 0.002297 -0.503583
vt 0.078797 -0.270963
vt 0.077240 -0.437988
vt 0.289387 -0.438839
vt 0.170793 -0.498634
vt 0.361533 -0.425602
vt 0.290944 -0.271814
vt 0.451619 -0.438277
vt 0.453176 -0.271253
vt -0.643618 -0.645914
vt -0.929094 0.202039
vt -0.502072 0.238958
vt -0.502581 0.166292
vt -0.104326 -0.492519
vt 0.014806 -0.328546
vt 0.101705 -0.365944
vt -0.103459 -0.406858
vt 0.114690 -0.450192
vt 0.274159 -0.414163
vt 0.273662 -0.491084
vt 0.039542 -0.464363
vt 0.030516 -0.373021
vt -0.619928 0.304434
vt -0.312219 0.371120
vt -0.325035 0.335301
vt -0.627248 0.278417
vt -0.075337 0.262268
vt -0.075783 0.144153
vt -0.019245 0.256005
vt -0.000685 0.277030
vt -0.927591 0.237758
vt -0.929417 0.221541
vt -0.959143 -0.642488
vt -0.957939 -0.620977
vt -0.004510 0.437806
vt -0.014883 -0.695796
vt -0.017442 -0.742265
vt -0.022821 0.392185
vn 0.075500 -0.996500 0.037000
vn 0.075500 0.996500 0.037000
vn 0.078900 -0.996100 0.039900
vn 0.078800 0.996100 0.039900
vn 0.074900 0.996500 0.037900
vn 0.075000 -0.996500 0.038000
vn 0.000000 1.000000 -0.000000
vn 0.110700 0.991800 -0.063500
vn 0.000000 -1.000000 -0.000000
vn 0.110900 -0.991800 -0.063200
vn 0.086800 0.995300 0.043900
vn 0.087000 -0.995200 0.044000
vn 0.997300 0.013000 0.072000
vn 0.002900 0.010500 0.999900
vn -0.166100 -0.012400 -0.986000
vn 0.898800 0.000000 0.438400
vn -0.438400 0.000000 0.898800
vn 0.170400 -0.004300 -0.985400
vn -0.504600 -0.013000 -0.863300
vn -0.957300 -0.002800 -0.289000
vn 0.002800 0.010000 0.999900
vn 0.063300 -0.995400 0.071300
vn -0.983600 -0.015000 -0.179600
vn -0.983800 -0.013900 -0.178800
vn -0.165400 -0.013700 -0.986100
vn -0.503000 -0.015200 -0.864100
vn 0.063100 0.995500 0.071100
vn -0.882100 -0.005600 0.471000
vn 0.859300 0.015100 0.511200
vn 0.171100 -0.007800 -0.985200
vn 0.912200 0.006500 -0.409700
vn -0.957300 -0.003500 -0.289100
vn -0.832700 -0.002400 0.553700
vn 1.000000 0.000000 -0.009800
vn 0.073700 -0.891100 -0.447800
vn 1.000000 -0.002000 -0.006400
vn 0.075200 0.891700 -0.446200
vn 0.247800 -0.004400 -0.968800
vn 0.125400 0.862500 -0.490300
vn 0.245400 -0.007900 -0.969400
vn 0.124600 -0.861500 -0.492300
vn 0.046500 -0.998600 0.024600
vn 0.046500 0.998600 0.024600
vn -0.832700 -0.001500 0.553800
vn 0.048500 -0.998500 0.026100
vn -0.832800 -0.002400 0.553600
vn 0.048500 0.998500 0.026100
vn 0.046100 0.998600 0.025200
vn 0.073000 0.996700 0.036000
vn 0.046100 -0.998600 0.025200
vn 0.073000 -0.996700 0.036000
vn 0.053600 -0.998200 0.028200
vn 0.079900 -0.996100 0.038800
vn 0.079800 0.996100 0.038700
vn 0.053600 0.998200 0.028200
vn -0.957300 -0.004900 -0.289100
vn 0.049100 0.998500 0.025400
vn -0.957300 -0.003500 -0.289000
vn 0.049100 -0.998500 0.025400
vn 0.045000 -0.998700 0.024200
vn -0.957300 -0.002300 -0.289000
vn 0.045000 0.998700 0.024200
vn -0.957300 -0.002800 -0.289100
usemtl IT_LUTESAW_01
s off
f 41/1/1 40/2/1 3/3/1
f 3/4/2 39/5/2 42/6/2
f 3/3/3 1/7/3 41/1/3
f 42/6/4 1/8/4 3/4/4
f 39/5/5 3/4/5 5/9/5
f 5/10/6 3/3/6 40/2/6
f 13/11/7 9/12/7 14/13/7
f 23/14/8 12/15/8 25/16/8
f 11/17/9 15/18/9 17/19/9
f 19/20/10 8/21/10 16/22/10
f 38/23/11 4/24/11 1/8/11
f 1/7/12 4/25/12 37/26/12
f 8/21/9 11/27/9 21/28/9
f 20/29/7 13/11/7 12/30/7
f 8/31/13 12/32/13 13/33/13
f 12/34/14 8/35/14 19/36/14
f 13/33/13 11/37/13 8/31/13
f 11/38/15 13/39/15 33/40/15
f 13/11/7 14/13/7 32/41/7
f 11/17/9 31/42/9 15/18/9
f 32/43/16 14/44/16 15/45/16
f 15/46/17 14/47/17 9/48/17
f 21/28/9 16/22/9 8/21/9
f 16/49/18 23/50/18 28/51/18
f 9/52/17 17/53/17 15/54/17
f 23/55/19 16/56/19 21/57/19
f 46/58/20 45/59/20 44/60/20
f 19/36/21 25/61/21 12/34/21
f 16/22/22 27/62/22 19/20/22
f 17/63/23 9/64/23 20/65/23
f 13/11/7 20/29/7 9/12/7
f 20/65/24 21/57/24 17/63/24
f 11/17/9 17/19/9 21/66/9
f 33/67/25 34/68/25 11/69/25
f 15/45/16 31/70/16 32/43/16
f 21/57/26 20/65/26 23/55/26
f 12/15/7 23/14/7 20/71/7
f 29/72/9 26/73/9 19/20/9
f 25/16/27 28/74/27 23/14/27
f 25/61/28 19/36/28 26/75/28
f 25/16/7 24/76/7 7/77/7
f 24/78/29 26/79/29 29/80/29
f 26/75/28 24/81/28 25/61/28
f 28/51/30 27/82/30 16/49/30
f 29/80/29 7/83/29 24/78/29
f 7/77/7 28/74/7 25/16/7
f 27/84/31 28/85/31 7/83/31
f 19/20/9 27/62/9 29/72/9
f 7/83/31 29/80/31 27/84/31
f 44/60/32 43/86/32 46/58/32
f 4/87/33 38/88/33 37/89/33
f 32/43/34 31/70/34 22/90/34
f 31/91/35 11/27/35 34/92/35
f 22/90/36 6/93/36 32/43/36
f 33/94/37 13/11/37 32/41/37
f 33/67/38 6/95/38 22/96/38
f 32/41/39 6/97/39 33/94/39
f 22/96/40 34/68/40 33/67/40
f 34/92/41 22/98/41 31/91/41
f 44/99/42 45/100/42 40/2/42
f 39/5/43 46/101/43 43/102/43
f 10/103/44 30/104/44 37/89/44
f 40/2/45 41/1/45 44/99/45
f 37/89/46 38/88/46 10/103/46
f 43/102/47 42/6/47 39/5/47
f 46/101/48 39/5/48 36/105/48
f 5/9/49 36/105/49 39/5/49
f 35/106/50 40/2/50 45/100/50
f 40/2/51 35/106/51 5/10/51
f 41/1/52 37/26/52 30/107/52
f 37/26/53 41/1/53 1/7/53
f 1/8/54 42/6/54 38/23/54
f 10/108/55 38/23/55 42/6/55
f 30/109/56 10/110/56 43/86/56
f 42/6/57 43/102/57 10/108/57
f 43/86/58 44/60/58 30/109/58
f 30/107/59 44/99/59 41/1/59
f 45/100/60 18/111/60 35/106/60
f 2/112/61 18/113/61 45/59/61
f 36/105/62 2/114/62 46/101/62
f 45/59/63 46/58/63 2/112/63
