# Blender v2.75 (sub 0) OBJ File: 'Empty.blend'
# www.blender.org
mtllib ITMI_STONEOFKNOWLEGDE_MIS.mtl
o ITMI_STONEOFKNOWLEGDE_MIS
v 0.047149 0.061149 -0.000010
v 0.066881 0.028390 -0.048595
v 0.025553 0.028390 0.078602
v 0.014577 0.061149 -0.044841
v 0.025553 0.028390 -0.078622
v 0.066881 0.028390 0.048575
v 0.082667 0.028390 -0.000010
v -0.038126 0.061149 -0.027717
v -0.025533 0.028390 -0.078622
v -0.066861 0.028390 -0.048595
v -0.014557 0.061149 0.044821
v -0.025533 0.028390 0.078602
v -0.047129 0.061149 -0.000010
v -0.066861 0.028390 0.048575
v -0.082647 0.028390 -0.000010
v 0.085350 -0.013355 0.061993
v -0.032587 -0.013355 -0.100334
v 0.032607 -0.013355 -0.100334
v -0.105477 -0.013355 -0.000010
v -0.085330 -0.013355 -0.062013
v 0.085350 -0.013355 -0.062013
v 0.032607 -0.013355 0.100314
v -0.032587 -0.013355 0.100314
v -0.085330 -0.013355 0.061993
v 0.105497 -0.013355 -0.000010
v 0.014118 0.071513 -0.000010
v -0.038126 0.061149 0.027697
v -0.014557 0.061149 -0.044841
v 0.038146 0.061149 -0.027717
v 0.014577 0.061149 0.044821
v 0.038146 0.061149 0.027697
v -0.090756 -0.071493 -0.000010
v -0.011403 0.071513 -0.008302
v -0.004350 0.071513 0.013407
v 0.041809 -0.014358 -0.072408
v -0.041789 -0.014358 0.072388
v -0.072388 -0.014358 -0.041809
v -0.036189 0.029006 -0.062708
v -0.041789 0.059605 -0.000010
v 0.041809 -0.014358 0.072388
v 0.090776 -0.071493 -0.000010
v 0.020909 0.059605 0.036189
v 0.028058 -0.071493 -0.086334
v 0.004370 0.071513 -0.013427
v -0.028038 -0.071493 0.086314
v 0.083608 -0.014358 -0.000010
v 0.036209 0.029006 -0.062708
v 0.028058 -0.071493 0.086314
v -0.028038 -0.071493 -0.086334
v -0.011403 0.071513 0.008282
v -0.014098 0.071513 -0.000010
v 0.011423 0.071513 0.008282
v -0.004350 0.071513 -0.013427
v 0.011423 0.071513 -0.008302
v 0.004370 0.071513 0.013407
v 0.062708 0.029006 0.036189
v 0.000010 0.029006 0.072388
v 0.000010 -0.014358 -0.083608
v -0.072388 -0.014358 0.041789
v -0.062688 0.029006 0.036189
v 0.072408 0.029006 -0.000010
v 0.000010 0.059605 -0.041809
v 0.073441 -0.071493 -0.053361
v 0.073441 -0.071493 0.053341
v -0.073421 -0.071493 0.053341
v -0.073421 -0.071493 -0.053361
v -0.062688 0.029006 -0.036209
v 0.000010 0.070805 -0.000010
v -0.083588 -0.014358 -0.000010
v 0.072408 -0.014358 -0.041809
v -0.020889 0.059605 0.036189
v -0.113916 -0.022377 -0.000010
v -0.092158 -0.022377 0.066954
v 0.035215 -0.022377 0.108340
v -0.035195 -0.022377 -0.108360
v 0.035215 -0.022377 -0.108360
v 0.092178 -0.022377 0.066954
v -0.035195 -0.022377 0.108340
v 0.092178 -0.022377 -0.066974
v -0.092158 -0.022377 -0.066974
v 0.113936 -0.022377 -0.000010
v 0.041809 0.059605 -0.000010
v 0.072408 -0.014358 0.041789
v -0.041789 -0.014358 -0.072408
v 0.000010 -0.014358 0.083588
v -0.036189 0.029006 0.062688
v 0.062708 0.029006 -0.036209
v 0.036209 0.029006 0.062688
v -0.072388 0.029006 -0.000010
v 0.000010 0.029006 -0.072408
v -0.036189 0.059605 -0.020909
v 0.036209 0.059605 -0.020909
v 0.028058 -0.059420 0.086314
v 0.073441 -0.059420 0.053341
v 0.092178 -0.031398 0.066954
v 0.090776 -0.059420 -0.000010
v 0.113936 -0.031398 -0.000010
v 0.073441 -0.059420 -0.053361
v 0.092178 -0.031398 -0.066974
v -0.028038 -0.059420 0.086314
v 0.035215 -0.031398 0.108340
v -0.073421 -0.059420 -0.053361
v -0.090756 -0.059420 -0.000010
v -0.113916 -0.031398 -0.000010
v -0.028038 -0.059420 -0.086334
v -0.092158 -0.031398 -0.066974
v 0.028058 -0.059420 -0.086334
v -0.035195 -0.031398 -0.108360
v -0.073421 -0.059420 0.053341
v -0.035195 -0.031398 0.108340
v -0.092158 -0.031398 0.066954
v 0.035215 -0.031398 -0.108360
v -0.036189 0.059605 0.020889
v 0.036209 0.059605 0.020889
v 0.000010 0.059605 0.041789
v -0.020889 0.059605 -0.036209
v 0.020909 0.059605 -0.036209
v -0.105477 -0.040420 -0.000010
v -0.085330 -0.040420 0.061993
v 0.032607 -0.040420 -0.100334
v 0.085350 -0.040420 -0.062013
v -0.032587 -0.040420 -0.100334
v 0.032607 -0.040420 0.100314
v -0.085330 -0.040420 -0.062013
v -0.032587 -0.040420 0.100314
v 0.085350 -0.040420 0.061993
v 0.105497 -0.040420 -0.000010
v 0.000010 -0.013793 -0.000010
v 0.105497 -0.013793 -0.000010
v 0.000010 -0.071493 -0.000010
vt 0.193343 -0.498651
vt 0.099225 -0.195302
vt 0.301913 -0.195805
vt 0.099243 -0.195428
vt 0.000000 -1.000000
vt 0.150000 -0.999500
vt 0.050000 -0.999500
vt 0.331944 -0.376836
vt 0.055338 -0.376836
vt 0.055338 -0.502408
vt 0.323892 -0.196934
vt 0.323361 -0.313042
vt 0.222980 -0.313015
vt 0.332014 -0.502408
vt 0.055069 -0.502408
vt 0.055069 -0.376836
vt 0.301785 -0.195642
vt 0.301607 -0.195810
vt 0.332588 -0.502408
vt 0.332588 -0.376836
vt 0.331944 -0.502408
vt 0.099097 -0.195442
vt 0.223282 -0.196976
vt 0.350000 -0.999500
vt 0.250000 -0.999500
vt 0.301746 -0.195711
vt 0.055459 -0.376836
vt 0.332014 -0.376836
vt 0.301664 -0.195468
vt 0.388575 -0.196906
vt 0.387965 -0.313060
vt 0.129606 -0.312989
vt 0.129742 -0.197016
vt 0.162238 -0.381643
vt 0.168974 -0.402373
vt 0.226041 -0.402373
vt 0.350269 -0.066238
vt 0.377233 -0.050670
vt 0.342447 -0.015884
vt 0.262979 -0.042849
vt 0.247411 -0.015884
vt 0.212626 -0.050670
vt 0.258036 -0.098188
vt 0.231029 -0.098188
vt 0.239590 -0.130138
vt 0.294929 -0.061295
vt 0.276483 -0.066238
vt 0.239590 -0.066238
vt 0.294929 -0.162088
vt 0.294929 -0.193224
vt 0.342447 -0.180492
vt 0.294929 -0.098188
vt 0.262979 -0.116634
vt 0.226041 -0.360912
vt 0.186609 -0.348099
vt 0.208406 -0.348099
vt 0.055459 -0.502408
vt 0.350269 -0.130138
vt 0.377233 -0.145706
vt 0.389966 -0.098188
vt 0.326880 -0.042849
vt 0.294929 -0.003152
vt 0.294929 -0.034288
vt 0.550000 -0.999500
vt 0.450000 -0.999500
vt 0.950000 -0.999500
vt 0.186609 -0.415186
vt 0.208406 -0.415186
vt 0.168974 -0.360912
vt 0.232777 -0.381643
vt 0.313376 -0.130138
vt 0.326880 -0.116634
vt 0.326880 -0.153527
vt 0.294929 -0.135081
vt 0.262979 -0.153527
vt 0.247411 -0.180492
vt 0.212626 -0.145706
vt 0.358830 -0.098188
vt 0.313376 -0.066238
vt 0.326880 -0.079742
vt 0.650000 -0.999500
vt 0.750000 -0.999500
vt 0.199893 -0.098188
vt 0.276483 -0.130138
vt 0.332588 -0.257590
vt 0.055069 -0.257590
vt 0.055069 -0.197966
vt 0.332014 -0.197966
vt 0.332014 -0.257590
vt 0.055459 -0.197966
vt 0.055459 -0.257590
vt 0.331944 -0.257590
vt 0.055338 -0.257590
vt 0.055338 -0.197966
vt 0.332588 -0.197966
vt 0.332133 -0.197966
vt 0.331822 -0.098188
vt 0.262979 -0.079742
vt 0.068159 -0.197888
vt 0.319316 -0.197888
vt 0.319316 -0.313367
vt 0.067805 -0.313367
vt 0.067805 -0.197888
vt 0.319837 -0.313367
vt 0.332014 -0.317213
vt 0.055069 -0.317213
vt 0.068049 -0.313367
vt 0.319837 -0.197888
vt 0.332588 -0.317213
vt 0.068049 -0.197888
vt 0.055338 -0.317213
vt 0.068159 -0.313367
vt 0.055459 -0.317213
vt 0.331944 -0.317213
vt 0.850000 -0.999500
vn -0.004200 1.000000 -0.001300
vn -0.004200 1.000000 0.001300
vn 0.000000 -1.000000 -0.000000
vn 0.473200 -0.593200 -0.651300
vn -0.409200 -0.717900 0.563200
vn 0.409200 0.717900 -0.563200
vn 0.473200 -0.593200 0.651300
vn -0.002600 1.000000 -0.003500
vn -0.662100 -0.717900 -0.215100
vn 0.662100 0.717900 0.215100
vn -0.002600 1.000000 0.003500
vn -0.473200 -0.593200 -0.651300
vn 0.000000 1.000000 0.004400
vn 0.409200 -0.717900 0.563200
vn -0.409200 0.717900 -0.563200
vn -0.000000 1.000000 -0.004400
vn 0.000000 -0.717900 -0.696200
vn 0.000000 0.717900 0.696200
vn 0.002600 1.000000 0.003500
vn -0.765700 -0.593200 -0.248800
vn -0.473200 -0.593200 0.651300
vn 0.002600 1.000000 -0.003500
vn 0.662100 -0.717900 -0.215100
vn -0.662100 0.717900 0.215100
vn -0.843800 -0.461400 -0.274200
vn 0.844900 0.461000 0.271300
vn 0.521500 -0.461400 0.717700
vn -0.521500 0.461400 -0.717700
vn -0.521500 -0.461400 0.717700
vn 0.521500 0.461400 -0.717700
vn 0.843800 -0.461400 -0.274200
vn -0.843800 0.461400 0.274200
vn -0.000000 -0.461400 -0.887200
vn 0.000000 0.461400 0.887200
vn 0.298000 -0.949700 -0.096800
vn -0.298000 0.949700 0.096800
vn 0.184200 -0.949700 0.253500
vn -0.184200 0.949700 -0.253500
vn -0.184200 -0.949700 0.253500
vn 0.184200 0.949700 -0.253500
vn -0.000000 -0.949700 -0.313300
vn 0.000000 0.949700 0.313300
vn -0.298000 -0.949700 -0.096800
vn 0.298000 0.949700 0.096800
vn -0.765700 -0.593200 0.248800
vn -0.000000 1.000000 -0.000000
vn 0.686100 0.242100 -0.686100
vn -0.686100 0.242100 -0.686100
vn -0.694700 0.694700 0.186200
vn -0.186200 0.694700 -0.694700
vn -0.508600 0.694700 -0.508600
vn 0.251100 0.242100 0.937200
vn 0.765700 -0.593200 -0.248800
vn 0.765700 -0.593200 0.248800
vn -0.258200 0.963600 0.069200
vn 0.000000 -0.593200 -0.805100
vn 0.000000 -0.593200 0.805100
vn 0.937200 0.242100 0.251100
vn 0.251100 0.242100 -0.937200
vn 0.508600 0.694700 0.508600
vn 0.186200 0.694700 0.694700
vn -0.508600 0.694700 0.508600
vn -0.686100 0.242100 0.686100
vn -0.937200 0.242100 0.251100
vn 0.694700 0.694700 0.186200
vn 0.186200 0.694700 -0.694700
vn 0.508600 0.694700 -0.508600
vn -0.069200 0.963600 -0.258200
vn -0.937200 0.242100 -0.251100
vn 0.937200 0.242100 -0.251100
vn -0.069200 0.963600 0.258200
vn -0.186200 0.694700 0.694700
vn -0.710600 0.664700 -0.230900
vn -0.710600 0.664700 0.230900
vn -0.439200 0.664700 0.604400
vn 0.000000 0.664700 0.747100
vn 0.439200 0.664700 0.604400
vn -0.000000 0.664700 -0.747100
vn -0.439200 0.664700 -0.604400
vn 0.439200 0.664700 -0.604400
vn 0.710600 0.664700 0.230900
vn 0.710600 0.664700 -0.230900
vn 0.189000 0.963600 0.189000
vn 0.189000 0.963600 -0.189000
vn 0.686100 0.242100 0.686100
vn -0.251100 0.242100 -0.937200
vn -0.251100 0.242100 0.937200
vn 0.694700 0.694700 -0.186200
vn -0.694700 0.694700 -0.186200
vn -0.258200 0.963600 -0.069200
vn 0.258200 0.963600 -0.069200
vn 0.000000 0.000000 1.000000
vn 0.587800 0.000000 0.809000
vn 0.951100 0.000000 0.309000
vn 0.951100 -0.000000 -0.309000
vn 0.587800 0.000000 -0.809000
vn -0.587800 0.000000 0.809000
vn -0.587800 0.000000 -0.809000
vn -0.951100 0.000000 -0.309000
vn -0.951100 0.000000 0.309000
vn -0.000000 0.000000 -1.000000
vn -0.189000 0.963600 0.189000
vn 0.258200 0.963600 0.069200
vn 0.069200 0.963600 0.258200
vn -0.189000 0.963600 -0.189000
vn 0.069200 0.963600 -0.258200
vn -0.710600 -0.664700 -0.230900
vn -0.710600 -0.664700 0.230900
vn -0.439200 -0.664700 0.604400
vn 0.439200 -0.664700 -0.604400
vn -0.000000 -0.664700 -0.747100
vn 0.710600 -0.664700 -0.230900
vn -0.439200 -0.664700 -0.604400
vn 0.000000 -0.664700 0.747100
vn 0.439200 -0.664700 0.604400
vn 0.710600 -0.664700 0.230900
vn 0.004200 1.000000 0.001300
vn 0.004200 1.000000 -0.001300
vn 0.845600 0.457600 0.274800
usemtl ITMISC_01
s off
f 128/1/1 16/2/1 25/3/1
f 128/1/2 25/3/2 21/4/2
f 130/5/3 66/6/3 49/7/3
f 120/8/4 121/9/4 98/10/4
f 5/11/5 2/12/5 29/13/5
f 2/12/6 5/11/6 29/13/6
f 93/14/7 94/15/7 126/16/7
f 128/1/8 22/17/8 16/2/8
f 7/11/9 6/12/9 31/13/9
f 6/12/10 7/11/10 31/13/10
f 128/1/11 21/4/11 18/18/11
f 105/10/12 102/19/12 124/20/12
f 98/10/4 107/21/4 120/8/4
f 128/1/13 18/18/13 17/22/13
f 10/12/14 9/11/14 28/23/14
f 9/11/15 10/12/15 28/23/15
f 130/5/3 65/24/3 32/25/3
f 128/1/16 23/2/16 22/17/16
f 3/12/17 12/11/17 30/13/17
f 12/11/18 3/12/18 30/13/18
f 128/1/19 17/22/19 20/26/19
f 118/16/20 124/20/20 102/19/20
f 125/27/21 119/28/21 109/14/21
f 128/1/22 24/29/22 23/2/22
f 14/12/23 15/11/23 27/13/23
f 15/11/24 14/12/24 27/13/24
f 25/30/25 16/31/25 6/12/25
f 16/31/26 129/30/26 6/12/26
f 20/31/27 17/30/27 9/11/27
f 17/30/28 20/31/28 9/11/28
f 2/12/29 5/11/29 18/30/29
f 5/11/30 2/12/30 18/30/30
f 15/11/31 14/12/31 19/30/31
f 14/12/32 15/11/32 19/30/32
f 9/11/27 10/12/27 20/31/27
f 10/12/28 9/11/28 20/31/28
f 18/30/29 21/31/29 2/12/29
f 21/31/30 18/30/30 2/12/30
f 22/31/33 23/30/33 3/12/33
f 23/30/34 22/31/34 3/12/34
f 12/11/33 3/12/33 23/30/33
f 3/12/34 12/11/34 23/30/34
f 24/31/31 19/30/31 14/12/31
f 19/30/32 24/31/32 14/12/32
f 6/12/25 7/11/25 25/30/25
f 13/23/23 27/13/23 15/11/23
f 27/13/35 13/23/35 50/32/35
f 27/13/24 13/23/24 15/11/24
f 13/23/36 27/13/36 50/32/36
f 28/23/14 8/13/14 10/12/14
f 8/13/37 28/23/37 53/33/37
f 8/13/15 28/23/15 10/12/15
f 28/23/38 8/13/38 53/33/38
f 29/13/5 4/23/5 5/11/5
f 4/23/39 29/13/39 54/32/39
f 4/23/6 29/13/6 5/11/6
f 29/13/40 4/23/40 54/32/40
f 11/23/17 30/13/17 12/11/17
f 30/13/41 11/23/41 55/32/41
f 30/13/18 11/23/18 12/11/18
f 11/23/42 30/13/42 55/32/42
f 31/13/9 1/23/9 7/11/9
f 1/23/43 31/13/43 52/32/43
f 1/23/10 31/13/10 7/11/10
f 31/13/44 1/23/44 52/32/44
f 103/15/45 109/14/45 119/28/45
f 119/28/45 118/16/45 103/15/45
f 50/32/36 51/33/36 13/23/36
f 51/33/35 50/32/35 13/23/35
f 44/33/40 54/32/40 4/23/40
f 54/32/39 44/33/39 4/23/39
f 34/33/41 55/32/41 11/23/41
f 55/32/42 34/33/42 11/23/42
f 51/34/46 50/35/46 52/36/46
f 50/35/3 51/34/3 52/36/3
f 87/37/47 70/38/47 35/39/47
f 38/40/48 84/41/48 37/42/48
f 39/43/49 89/44/49 60/45/49
f 62/46/50 38/40/50 116/47/50
f 116/47/51 38/40/51 67/48/51
f 57/49/52 85/50/52 40/51/52
f 121/9/53 127/20/53 96/19/53
f 127/20/54 126/16/54 94/15/54
f 68/52/55 39/43/55 113/53/55
f 39/43/49 60/45/49 113/53/49
f 122/9/56 120/8/56 107/21/56
f 124/20/12 122/9/12 105/10/12
f 54/54/3 53/55/3 44/56/3
f 53/55/46 54/54/46 44/56/46
f 123/28/57 125/27/57 100/57/57
f 126/16/7 123/28/7 93/14/7
f 56/58/58 83/59/58 46/60/58
f 87/37/47 35/39/47 47/61/47
f 47/61/59 58/62/59 90/63/59
f 130/5/3 48/64/3 45/65/3
f 100/57/57 93/14/57 123/28/57
f 130/5/3 49/7/3 43/66/3
f 107/21/56 105/10/56 122/9/56
f 34/67/3 50/35/3 55/68/3
f 50/35/46 34/67/46 55/68/46
f 51/34/3 33/69/3 26/70/3
f 33/69/46 51/34/46 26/70/46
f 52/32/43 26/33/43 1/23/43
f 52/36/3 51/34/3 26/70/3
f 26/33/44 52/32/44 1/23/44
f 51/34/46 52/36/46 26/70/46
f 53/33/37 33/32/37 8/13/37
f 33/69/3 53/55/3 54/54/3
f 33/32/38 53/33/38 8/13/38
f 53/55/46 33/69/46 54/54/46
f 26/70/3 33/69/3 54/54/3
f 33/69/46 26/70/46 54/54/46
f 55/68/3 50/35/3 52/36/3
f 50/35/46 55/68/46 52/36/46
f 42/71/60 56/58/60 114/72/60
f 57/49/52 40/51/52 88/73/52
f 115/74/61 57/49/61 88/73/61
f 113/53/62 60/45/62 86/75/62
f 47/61/59 35/39/59 58/62/59
f 60/45/63 36/76/63 86/75/63
f 89/44/64 59/77/64 60/45/64
f 60/45/63 59/77/63 36/76/63
f 114/72/65 56/58/65 61/78/65
f 56/58/58 46/60/58 61/78/58
f 117/79/66 47/61/66 90/63/66
f 92/80/67 87/37/67 47/61/67
f 130/5/3 64/81/3 48/64/3
f 96/19/53 98/10/53 121/9/53
f 130/5/3 41/82/3 64/81/3
f 94/15/54 96/19/54 127/20/54
f 130/5/3 45/65/3 65/24/3
f 109/14/21 100/57/21 125/27/21
f 130/5/3 32/25/3 66/6/3
f 102/19/20 103/15/20 118/16/20
f 38/40/48 37/42/48 67/48/48
f 89/44/64 69/83/64 59/77/64
f 68/52/68 62/46/68 116/47/68
f 92/80/67 47/61/67 117/79/67
f 67/48/69 37/42/69 69/83/69
f 61/78/70 46/60/70 70/38/70
f 68/52/71 71/84/71 115/74/71
f 71/84/72 57/49/72 115/74/72
f 80/85/73 72/86/73 19/87/73
f 72/86/74 24/88/74 19/87/74
f 72/86/74 73/89/74 24/88/74
f 73/89/75 23/90/75 24/88/75
f 78/91/76 74/89/76 22/88/76
f 74/89/77 16/87/77 22/88/77
f 76/92/78 75/93/78 17/94/78
f 75/93/79 20/95/79 17/94/79
f 79/93/80 76/92/80 18/96/80
f 76/92/78 17/94/78 18/96/78
f 74/89/77 77/86/77 16/87/77
f 77/86/81 25/95/81 16/87/81
f 73/89/75 78/91/75 23/90/75
f 78/91/76 22/88/76 23/90/76
f 81/85/82 79/93/82 21/94/82
f 79/93/80 18/96/80 21/94/80
f 75/93/79 80/85/79 20/95/79
f 80/85/73 19/87/73 20/95/73
f 81/85/82 21/94/82 25/95/82
f 77/86/81 81/85/81 25/95/81
f 68/52/83 42/71/83 114/72/83
f 68/52/84 92/80/84 117/79/84
f 88/73/85 40/51/85 83/59/85
f 90/63/86 58/62/86 84/41/86
f 86/75/87 36/76/87 85/50/87
f 71/84/72 86/75/72 57/49/72
f 86/75/87 85/50/87 57/49/87
f 82/97/88 61/78/88 87/37/88
f 61/78/70 70/38/70 87/37/70
f 42/71/60 88/73/60 56/58/60
f 88/73/85 83/59/85 56/58/85
f 91/98/89 67/48/89 89/44/89
f 67/48/69 69/83/69 89/44/69
f 62/46/50 90/63/50 38/40/50
f 90/63/86 84/41/86 38/40/86
f 68/52/90 91/98/90 39/43/90
f 91/98/89 89/44/89 39/43/89
f 68/52/91 82/97/91 92/80/91
f 82/97/88 87/37/88 92/80/88
f 45/99/92 48/100/92 93/101/92
f 94/102/93 93/101/93 48/100/93
f 48/100/93 64/103/93 94/102/93
f 96/104/94 94/102/94 64/103/94
f 101/105/93 95/106/93 77/86/93
f 95/106/94 81/85/94 77/86/94
f 98/107/95 96/104/95 41/108/95
f 64/103/94 41/108/94 96/104/94
f 97/109/95 79/93/95 81/85/95
f 95/106/94 97/109/94 81/85/94
f 41/108/95 63/110/95 98/107/95
f 107/101/96 98/107/96 63/110/96
f 97/109/95 99/111/95 79/93/95
f 99/111/96 76/92/96 79/93/96
f 65/100/97 45/99/97 100/112/97
f 93/101/92 100/112/92 45/99/92
f 110/113/92 101/105/92 74/89/92
f 101/105/93 77/86/93 74/89/93
f 49/110/98 66/108/98 102/104/98
f 103/102/99 102/104/99 66/108/99
f 66/108/99 32/103/99 103/102/99
f 109/101/100 103/102/100 32/103/100
f 106/109/99 104/106/99 72/86/99
f 104/106/100 73/89/100 72/86/100
f 43/100/101 49/110/101 105/107/101
f 102/104/98 105/107/98 49/110/98
f 108/111/98 106/109/98 80/85/98
f 106/109/99 72/86/99 80/85/99
f 63/110/96 43/100/96 107/101/96
f 105/107/101 107/101/101 43/100/101
f 112/114/101 108/111/101 75/93/101
f 108/111/98 80/85/98 75/93/98
f 32/103/100 65/100/100 109/101/100
f 100/112/97 109/101/97 65/100/97
f 111/105/97 110/113/97 78/91/97
f 110/113/92 74/89/92 78/91/92
f 104/106/100 111/105/100 73/89/100
f 111/105/97 78/91/97 73/89/97
f 99/111/96 112/114/96 76/92/96
f 112/114/101 75/93/101 76/92/101
f 68/52/102 113/53/102 71/84/102
f 113/53/62 86/75/62 71/84/62
f 68/52/103 114/72/103 82/97/103
f 114/72/65 61/78/65 82/97/65
f 68/52/104 115/74/104 42/71/104
f 115/74/61 88/73/61 42/71/61
f 68/52/105 116/47/105 91/98/105
f 116/47/51 67/48/51 91/98/51
f 68/52/106 117/79/106 62/46/106
f 117/79/66 90/63/66 62/46/66
f 124/20/107 118/16/107 104/106/107
f 118/16/108 111/105/108 104/106/108
f 118/16/108 119/28/108 111/105/108
f 119/28/109 110/113/109 111/105/109
f 121/9/110 120/8/110 112/114/110
f 120/8/111 108/111/111 112/114/111
f 127/20/112 121/9/112 99/111/112
f 121/9/110 112/114/110 99/111/110
f 120/8/111 122/9/111 108/111/111
f 122/9/113 106/109/113 108/111/113
f 125/27/114 123/28/114 101/105/114
f 123/28/115 95/106/115 101/105/115
f 122/9/113 124/20/113 106/109/113
f 124/20/107 104/106/107 106/109/107
f 119/28/109 125/27/109 110/113/109
f 125/27/114 101/105/114 110/113/114
f 123/28/115 126/16/115 95/106/115
f 126/16/116 97/109/116 95/106/116
f 127/20/112 99/111/112 97/109/112
f 126/16/116 127/20/116 97/109/116
f 128/1/117 20/26/117 19/2/117
f 128/1/118 19/2/118 24/29/118
f 7/11/119 6/12/119 129/30/119
f 130/5/3 63/115/3 41/82/3
f 130/5/3 43/66/3 63/115/3
