# Blender v2.75 (sub 0) OBJ File: 'Empty.blend'
# www.blender.org
mtllib ITMI_GOLDCUP.mtl
o ITMI_GOLDCUP
v 0.000010 -0.135088 -0.000010
v 0.005604 -0.021755 0.029313
v 0.021771 -0.021755 0.020425
v 0.029626 -0.021755 0.003731
v 0.026169 -0.021755 -0.014391
v 0.012720 -0.021755 -0.027020
v -0.005584 -0.021755 -0.029333
v -0.021751 -0.021755 -0.020445
v -0.029606 -0.021755 -0.003751
v -0.026149 -0.021755 0.014371
v -0.012700 -0.021755 0.027000
v 0.013764 0.026637 0.072093
v 0.053519 0.026637 0.050238
v 0.072834 0.026637 0.009190
v 0.064334 0.026637 -0.035372
v 0.031264 0.026637 -0.066427
v -0.013744 0.026637 -0.072113
v -0.053499 0.026637 -0.050258
v -0.072814 0.026637 -0.009210
v -0.064314 0.026637 0.035352
v -0.031244 0.026637 0.066407
v 0.018199 0.082820 0.095339
v 0.070770 0.082820 0.066438
v 0.096313 0.082820 0.012156
v 0.085072 0.082820 -0.046773
v 0.041340 0.082820 -0.087840
v -0.018179 0.082820 -0.095359
v -0.070750 0.082820 -0.066458
v -0.096293 0.082820 -0.012176
v -0.085052 0.082820 0.046753
v -0.041320 0.082820 0.087820
v 0.018381 0.135108 0.096293
v 0.071478 0.135108 0.067102
v 0.097276 0.135108 0.012278
v 0.085922 0.135108 -0.047241
v 0.041753 0.135108 -0.088719
v -0.018361 0.135108 -0.096313
v -0.071458 0.135108 -0.067122
v -0.097256 0.135108 -0.012298
v -0.085902 0.135108 0.047221
v -0.041733 0.135108 0.088699
v 0.000010 0.026986 -0.000010
v 0.005604 -0.100186 0.029313
v 0.021771 -0.100186 0.020425
v 0.029626 -0.100186 0.003731
v 0.026169 -0.100186 -0.014391
v 0.012720 -0.100186 -0.027020
v -0.005584 -0.100186 -0.029333
v -0.021751 -0.100186 -0.020445
v -0.029606 -0.100186 -0.003751
v -0.026149 -0.100186 0.014371
v -0.012700 -0.100186 0.027000
v 0.015827 -0.125077 0.082907
v 0.061544 -0.125077 0.057774
v 0.083756 -0.125077 0.010570
v 0.073981 -0.125077 -0.040676
v 0.035951 -0.125077 -0.076388
v -0.015807 -0.125077 -0.082927
v -0.061524 -0.125077 -0.057794
v -0.083736 -0.125077 -0.010590
v -0.073961 -0.125077 0.040656
v -0.035931 -0.125077 0.076368
v 0.015827 -0.135088 0.082907
v 0.061544 -0.135088 0.057774
v 0.083756 -0.135088 0.010570
v 0.073981 -0.135088 -0.040676
v 0.035951 -0.135088 -0.076388
v -0.015807 -0.135088 -0.082927
v -0.061524 -0.135088 -0.057794
v -0.083736 -0.135088 -0.010590
v -0.073961 -0.135088 0.040656
v -0.035931 -0.135088 0.076368
v 0.017351 0.082673 0.090892
v 0.067470 0.082673 0.063339
v 0.091822 0.082673 0.011589
v 0.081105 0.082673 -0.044592
v 0.039412 0.082673 -0.083744
v -0.017331 0.082673 -0.090912
v -0.067450 0.082673 -0.063359
v -0.091802 0.082673 -0.011609
v -0.081085 0.082673 0.044572
v -0.039392 0.082673 0.083724
v 0.012843 0.026986 0.067265
v 0.049936 0.026986 0.046873
v 0.067958 0.026986 0.008574
v 0.060027 0.026986 -0.033004
v 0.029171 0.026986 -0.061980
v -0.012823 0.026986 -0.067285
v -0.049916 0.026986 -0.046893
v -0.067938 0.026986 -0.008594
v -0.060007 0.026986 0.032985
v -0.029151 0.026986 0.061960
vt 0.265747 -0.512238
vt 0.227378 -0.456710
vt 0.265747 -0.443602
vt 0.203665 -0.491028
vt 0.203665 -0.533448
vt 0.227378 -0.567766
vt 0.265747 -0.580874
vt 0.304116 -0.567766
vt 0.327829 -0.533448
vt 0.327829 -0.491028
vt 0.304116 -0.456710
vt 0.233127 -0.517160
vt 0.308548 -0.437594
vt 0.234560 -0.437594
vt 0.309091 -0.517160
vt 0.389273 -0.437594
vt 0.389273 -0.517160
vt 0.309634 -0.437594
vt 0.231695 -0.437594
vt 0.157707 -0.437594
vt 0.159139 -0.517160
vt 0.083719 -0.437594
vt 0.083175 -0.517160
vt 0.002065 -0.437594
vt 0.002065 -0.517160
vt 0.082632 -0.437594
vt 0.160572 -0.437594
vt 0.308548 -0.313773
vt 0.234560 -0.313773
vt 0.389273 -0.313773
vt 0.309634 -0.313773
vt 0.231695 -0.313773
vt 0.157707 -0.313773
vt 0.083719 -0.313773
vt 0.002065 -0.313773
vt 0.082632 -0.313773
vt 0.160572 -0.313773
vt 0.308548 -0.197787
vt 0.234560 -0.197787
vt 0.389273 -0.197787
vt 0.309634 -0.197787
vt 0.231695 -0.197787
vt 0.157707 -0.197787
vt 0.083719 -0.197787
vt 0.002065 -0.197787
vt 0.082632 -0.197787
vt 0.160572 -0.197787
vt 0.265747 -0.456550
vt 0.234616 -0.467185
vt 0.215376 -0.495029
vt 0.215376 -0.529447
vt 0.234616 -0.557291
vt 0.265747 -0.567927
vt 0.296878 -0.557291
vt 0.316118 -0.529447
vt 0.316118 -0.495029
vt 0.296878 -0.467185
vt 0.233127 -0.584659
vt 0.309091 -0.584659
vt 0.388963 -0.584659
vt 0.159139 -0.584659
vt 0.083175 -0.584659
vt 0.002065 -0.584659
vt 0.230826 -0.314095
vt 0.198016 -0.314081
vt 0.154829 -0.197764
vt 0.273975 -0.197765
vt 0.343664 -0.313571
vt 0.307486 -0.313571
vt 0.307486 -0.306272
vt 0.343664 -0.306272
vt 0.381774 -0.313571
vt 0.381774 -0.306272
vt 0.045229 -0.313571
vt 0.005834 -0.313571
vt 0.005834 -0.306272
vt 0.045229 -0.306272
vt 0.083339 -0.313571
vt 0.083339 -0.306272
vt 0.119516 -0.313571
vt 0.119516 -0.306272
vt 0.155694 -0.313571
vt 0.155694 -0.306272
vt 0.193804 -0.313571
vt 0.193804 -0.306272
vt 0.233199 -0.313571
vt 0.233199 -0.306272
vt 0.271309 -0.313571
vt 0.271309 -0.306272
vt 0.308548 -0.314015
vt 0.234560 -0.314015
vt 0.389273 -0.314015
vt 0.309634 -0.314015
vt 0.231695 -0.314015
vt 0.157707 -0.314015
vt 0.083719 -0.314015
vt 0.002065 -0.314015
vt 0.082632 -0.314015
vt 0.160572 -0.314015
vt 0.308548 -0.437019
vt 0.234560 -0.437019
vt 0.388344 -0.437019
vt 0.309634 -0.437019
vt 0.231695 -0.437019
vt 0.157707 -0.437019
vt 0.083719 -0.437019
vt 0.002065 -0.437019
vt 0.082632 -0.437019
vt 0.160572 -0.437019
vn 0.000000 -1.000000 0.000000
vn 0.366000 -0.650300 0.665700
vn 0.687400 -0.650300 0.323500
vn 0.746300 -0.650300 -0.142400
vn 0.520100 -0.650300 -0.553800
vn 0.095200 -0.650300 -0.753700
vn -0.366000 -0.650300 -0.665700
vn -0.687400 -0.650300 -0.323500
vn -0.746300 -0.650300 0.142400
vn -0.520100 -0.650300 0.553800
vn -0.095200 -0.650300 0.753700
vn 0.447200 -0.371900 0.813500
vn 0.839900 -0.371900 0.395200
vn 0.911800 -0.371900 -0.173900
vn 0.635500 -0.371900 -0.676700
vn 0.116300 -0.371900 -0.921000
vn -0.447200 -0.371900 -0.813500
vn -0.839900 -0.371900 -0.395200
vn -0.911800 -0.371900 0.173900
vn -0.635500 -0.371900 0.676700
vn -0.116300 -0.371900 0.921000
vn 0.481700 -0.017700 0.876200
vn 0.904700 -0.017700 0.425700
vn 0.982100 -0.017700 -0.187400
vn 0.684400 -0.017700 -0.728900
vn 0.125300 -0.017700 -0.992000
vn -0.481700 -0.017700 -0.876200
vn -0.904700 -0.017700 -0.425700
vn -0.982100 -0.017700 0.187400
vn -0.684400 -0.017700 0.728900
vn -0.125300 -0.017700 0.992000
vn 0.000000 1.000000 0.000000
vn 0.481800 0.000000 0.876300
vn 0.904800 0.000000 0.425800
vn 0.982300 0.000000 -0.187400
vn 0.684500 0.000000 -0.729000
vn 0.125300 0.000000 -0.992100
vn -0.481800 0.000000 -0.876300
vn -0.904800 0.000000 -0.425800
vn -0.982300 0.000000 0.187400
vn -0.684500 0.000000 0.729000
vn -0.125300 0.000000 0.992100
vn 0.208400 0.901600 0.379000
vn 0.391300 0.901600 0.184100
vn 0.424800 0.901600 -0.081000
vn 0.296100 0.901600 -0.315300
vn 0.054200 0.901600 -0.429100
vn -0.208400 0.901600 -0.379000
vn -0.391300 0.901600 -0.184100
vn -0.424800 0.901600 0.081000
vn -0.296100 0.901600 0.315300
vn -0.054200 0.901600 0.429100
vn -0.479400 0.099200 -0.872000
vn -0.900400 0.099200 -0.423700
vn -0.977400 0.099200 0.186500
vn -0.681200 0.099200 0.725400
vn -0.124700 0.099200 0.987200
vn 0.479400 0.099200 0.872000
vn 0.900400 0.099200 0.423700
vn 0.977400 0.099200 -0.186500
vn 0.681200 0.099200 -0.725400
vn 0.124700 0.099200 -0.987200
vn -0.445600 0.380000 -0.810600
vn -0.837000 0.380000 -0.393800
vn -0.908600 0.380000 0.173300
vn -0.633200 0.380000 0.674300
vn -0.115900 0.380000 0.917700
vn 0.445600 0.380000 0.810600
vn 0.837000 0.380000 0.393800
vn 0.908600 0.380000 -0.173300
vn 0.633200 0.380000 -0.674300
vn 0.115900 0.380000 -0.917700
usemtl ITMISC_01
s off
f 1/1/1 64/2/1 63/3/1
f 1/1/1 65/4/1 64/2/1
f 1/1/1 66/5/1 65/4/1
f 1/1/1 67/6/1 66/5/1
f 1/1/1 68/7/1 67/6/1
f 1/1/1 69/8/1 68/7/1
f 1/1/1 70/9/1 69/8/1
f 1/1/1 71/10/1 70/9/1
f 1/1/1 72/11/1 71/10/1
f 1/1/1 63/3/1 72/11/1
f 2/12/2 13/13/2 12/14/2
f 2/12/2 3/15/2 13/13/2
f 3/15/3 14/16/3 13/13/3
f 3/15/3 4/17/3 14/16/3
f 4/17/4 15/18/4 14/16/4
f 4/17/4 5/15/4 15/18/4
f 5/15/5 16/19/5 15/18/5
f 5/15/5 6/12/5 16/19/5
f 6/12/6 17/20/6 16/19/6
f 6/12/6 7/21/6 17/20/6
f 7/21/7 18/22/7 17/20/7
f 7/21/7 8/23/7 18/22/7
f 8/23/8 19/24/8 18/22/8
f 8/23/8 9/25/8 19/24/8
f 9/25/9 20/26/9 19/24/9
f 9/25/9 10/23/9 20/26/9
f 10/23/10 21/27/10 20/26/10
f 10/23/10 11/21/10 21/27/10
f 11/21/11 12/14/11 21/27/11
f 11/21/11 2/12/11 12/14/11
f 12/14/12 23/28/12 22/29/12
f 12/14/12 13/13/12 23/28/12
f 13/13/13 24/30/13 23/28/13
f 13/13/13 14/16/13 24/30/13
f 14/16/14 25/31/14 24/30/14
f 14/16/14 15/18/14 25/31/14
f 15/18/15 26/32/15 25/31/15
f 15/18/15 16/19/15 26/32/15
f 16/19/16 27/33/16 26/32/16
f 16/19/16 17/20/16 27/33/16
f 17/20/17 28/34/17 27/33/17
f 17/20/17 18/22/17 28/34/17
f 18/22/18 29/35/18 28/34/18
f 18/22/18 19/24/18 29/35/18
f 19/24/19 30/36/19 29/35/19
f 19/24/19 20/26/19 30/36/19
f 20/26/20 31/37/20 30/36/20
f 20/26/20 21/27/20 31/37/20
f 21/27/21 22/29/21 31/37/21
f 21/27/21 12/14/21 22/29/21
f 22/29/22 33/38/22 32/39/22
f 22/29/22 23/28/22 33/38/22
f 23/28/23 34/40/23 33/38/23
f 23/28/23 24/30/23 34/40/23
f 24/30/24 35/41/24 34/40/24
f 24/30/24 25/31/24 35/41/24
f 25/31/25 36/42/25 35/41/25
f 25/31/25 26/32/25 36/42/25
f 26/32/26 37/43/26 36/42/26
f 26/32/26 27/33/26 37/43/26
f 27/33/27 38/44/27 37/43/27
f 27/33/27 28/34/27 38/44/27
f 28/34/28 39/45/28 38/44/28
f 28/34/28 29/35/28 39/45/28
f 29/35/29 40/46/29 39/45/29
f 29/35/29 30/36/29 40/46/29
f 30/36/30 41/47/30 40/46/30
f 30/36/30 31/37/30 41/47/30
f 31/37/31 32/39/31 41/47/31
f 31/37/31 22/29/31 32/39/31
f 42/1/32 83/48/32 84/49/32
f 42/1/32 84/49/32 85/50/32
f 42/1/32 85/50/32 86/51/32
f 42/1/32 86/51/32 87/52/32
f 42/1/32 87/52/32 88/53/32
f 42/1/32 88/53/32 89/54/32
f 42/1/32 89/54/32 90/55/32
f 42/1/32 90/55/32 91/56/32
f 42/1/32 91/56/32 92/57/32
f 42/1/32 92/57/32 83/48/32
f 3/15/33 2/12/33 43/58/33
f 43/58/33 44/59/33 3/15/33
f 4/17/34 3/15/34 44/59/34
f 44/59/34 45/60/34 4/17/34
f 5/15/35 4/17/35 45/60/35
f 45/60/35 46/59/35 5/15/35
f 6/12/36 5/15/36 46/59/36
f 46/59/36 47/58/36 6/12/36
f 7/21/37 6/12/37 47/58/37
f 47/58/37 48/61/37 7/21/37
f 8/23/38 7/21/38 48/61/38
f 48/61/38 49/62/38 8/23/38
f 9/25/39 8/23/39 49/62/39
f 49/62/39 50/63/39 9/25/39
f 10/23/40 9/25/40 50/63/40
f 50/63/40 51/62/40 10/23/40
f 11/21/41 10/23/41 51/62/41
f 51/62/41 52/61/41 11/21/41
f 2/12/42 11/21/42 52/61/42
f 52/61/42 43/58/42 2/12/42
f 44/64/43 43/65/43 53/66/43
f 53/66/43 54/67/43 44/64/43
f 45/65/44 44/64/44 54/67/44
f 54/67/44 55/66/44 45/65/44
f 46/64/45 45/65/45 55/66/45
f 55/66/45 56/67/45 46/64/45
f 47/65/46 46/64/46 56/67/46
f 56/67/46 57/66/46 47/65/46
f 48/64/47 47/65/47 57/66/47
f 57/66/47 58/67/47 48/64/47
f 49/65/48 48/64/48 58/67/48
f 58/67/48 59/66/48 49/65/48
f 50/64/49 49/65/49 59/66/49
f 59/66/49 60/67/49 50/64/49
f 51/65/50 50/64/50 60/67/50
f 60/67/50 61/66/50 51/65/50
f 52/64/51 51/65/51 61/66/51
f 61/66/51 62/67/51 52/64/51
f 43/65/52 52/64/52 62/67/52
f 62/67/52 53/66/52 43/65/52
f 54/68/33 53/69/33 63/70/33
f 63/70/33 64/71/33 54/68/33
f 55/72/34 54/68/34 64/71/34
f 64/71/34 65/73/34 55/72/34
f 56/74/35 55/75/35 65/76/35
f 65/76/35 66/77/35 56/74/35
f 57/78/36 56/74/36 66/77/36
f 66/77/36 67/79/36 57/78/36
f 58/80/37 57/78/37 67/79/37
f 67/79/37 68/81/37 58/80/37
f 59/82/38 58/80/38 68/81/38
f 68/81/38 69/83/38 59/82/38
f 60/84/39 59/82/39 69/83/39
f 69/83/39 70/85/39 60/84/39
f 61/86/40 60/84/40 70/85/40
f 70/85/40 71/87/40 61/86/40
f 62/88/41 61/86/41 71/87/41
f 71/87/41 72/89/41 62/88/41
f 53/69/42 62/88/42 72/89/42
f 72/89/42 63/70/42 53/69/42
f 32/39/53 33/38/53 74/90/53
f 74/90/53 73/91/53 32/39/53
f 33/38/54 34/40/54 75/92/54
f 75/92/54 74/90/54 33/38/54
f 34/40/55 35/41/55 76/93/55
f 76/93/55 75/92/55 34/40/55
f 35/41/56 36/42/56 77/94/56
f 77/94/56 76/93/56 35/41/56
f 36/42/57 37/43/57 78/95/57
f 78/95/57 77/94/57 36/42/57
f 37/43/58 38/44/58 79/96/58
f 79/96/58 78/95/58 37/43/58
f 38/44/59 39/45/59 80/97/59
f 80/97/59 79/96/59 38/44/59
f 39/45/60 40/46/60 81/98/60
f 81/98/60 80/97/60 39/45/60
f 40/46/61 41/47/61 82/99/61
f 82/99/61 81/98/61 40/46/61
f 41/47/62 32/39/62 73/91/62
f 73/91/62 82/99/62 41/47/62
f 73/91/63 74/90/63 84/100/63
f 84/100/63 83/101/63 73/91/63
f 74/90/64 75/92/64 85/102/64
f 85/102/64 84/100/64 74/90/64
f 75/92/65 76/93/65 86/103/65
f 86/103/65 85/102/65 75/92/65
f 76/93/66 77/94/66 87/104/66
f 87/104/66 86/103/66 76/93/66
f 77/94/67 78/95/67 88/105/67
f 88/105/67 87/104/67 77/94/67
f 78/95/68 79/96/68 89/106/68
f 89/106/68 88/105/68 78/95/68
f 79/96/69 80/97/69 90/107/69
f 90/107/69 89/106/69 79/96/69
f 80/97/70 81/98/70 91/108/70
f 91/108/70 90/107/70 80/97/70
f 81/98/71 82/99/71 92/109/71
f 92/109/71 91/108/71 81/98/71
f 82/99/72 73/91/72 83/101/72
f 83/101/72 92/109/72 82/99/72
