# Blender v2.75 (sub 0) OBJ File: 'Empty.blend'
# www.blender.org
mtllib ITMI_IE_DRUMSCHEIT.mtl
o ITMI_IE_DRUMSCHEIT
v -0.121665 0.035663 0.909909
v 0.005300 0.035663 -0.304198
v 0.121685 0.035663 0.917844
v 0.013236 0.035663 -0.748577
v -0.002635 0.035663 -0.917864
v -0.002635 -0.040903 -0.917864
v 0.044877 0.087127 0.558412
v -0.027173 0.087127 0.558412
v 0.044877 0.035663 0.535948
v 0.121685 -0.087107 0.882311
v -0.121665 -0.087107 0.874375
v 0.058202 0.035663 -0.748577
v 0.028795 0.000222 -0.304198
v 0.068783 -0.040903 -0.909929
v 0.068783 0.035663 -0.909929
v 0.047622 0.035663 -0.301553
v -0.023796 -0.056120 -0.194245
v 0.044877 0.035663 0.580877
v -0.027173 0.035663 0.580877
v -0.027173 0.035663 0.535948
v 0.013236 0.000222 -0.748577
v 0.063493 -0.056120 -0.191600
v 0.058202 0.000222 -0.748577
v -0.023796 0.035663 -0.261876
v -0.002635 0.035663 -0.764448
v 0.063493 0.035663 -0.259231
v 0.071428 0.035663 -0.772383
v -0.027173 0.033356 0.890030
v 0.044877 0.033356 0.890030
vt 2.000000 -0.874016
vt 2.000000 -0.480315
vt 0.979309 -0.384803
vt 2.000000 -0.992126
vt 0.000000 -1.000000
vt 2.000000 -0.377953
vt 0.820959 -0.458816
vt 0.137741 -0.457902
vt 0.840358 9.332418
vt 0.135438 -0.915780
vt 0.819002 -0.916068
vt 0.301202 9.323008
vt 0.122356 -0.372481
vt 0.377644 -0.905843
vt 0.377644 -0.372481
vt 0.622356 -0.859015
vt -0.000000 -0.417323
vt 0.714286 -0.417323
vt 0.090240 -6.356308
vt 0.954117 -6.341229
vt 0.491702 -0.759362
vt 0.488562 -0.860811
vt 0.669322 -0.860811
vt 0.485698 -0.697094
vt 0.978997 -0.990753
vt 0.330678 -0.860811
vt 1.023520 -10.317339
vt 0.159642 -10.332418
vn -0.000000 1.000000 0.000000
vn 0.000900 -0.999600 -0.028900
vn 0.999700 0.000000 0.023700
vn -0.999800 0.000000 -0.017900
vn -1.000000 -0.000000 -0.000000
vn 0.999800 0.000000 -0.019200
vn 0.000000 0.400100 -0.916500
vn 0.000000 0.400100 0.916500
vn 0.998400 0.015500 -0.053700
vn -0.031300 -0.277900 0.960100
vn -0.995600 0.026200 -0.090400
vn -0.833100 -0.552300 0.029200
vn -0.994700 -0.061200 -0.083100
vn 0.110400 0.000000 -0.993900
vn -0.000000 -1.000000 -0.000000
vn 0.879800 -0.471700 0.058200
vn 0.998100 -0.036400 -0.049300
vn -0.723400 -0.409600 -0.555900
vn 1.000000 0.000000 0.000000
vn -0.925600 -0.338800 0.169100
vn -0.026500 -0.970800 0.238300
vn 0.855100 -0.307600 -0.417400
vn 0.013700 -0.892500 -0.450800
vn 0.954400 -0.268200 0.130900
vn 0.000000 -0.969000 0.247000
vn -0.723200 -0.479400 -0.497200
vn -0.707100 0.000000 0.707100
vn 0.847000 -0.426300 -0.317600
vn 0.874200 0.000000 0.485600
vn 0.000000 0.999200 -0.039300
vn 0.000000 0.987100 0.160100
usemtl HOLZ
s off
f 1/1/1 3/2/1 26/3/1
f 11/4/2 22/5/2 10/6/2
f 16/7/3 23/8/3 12/9/3
f 21/10/4 2/11/4 4/12/4
f 6/13/5 25/14/5 5/15/5
f 27/16/6 14/17/6 15/18/6
f 8/19/7 7/20/7 9/21/7
f 19/22/8 18/23/8 7/20/8
f 10/6/9 22/5/9 3/2/9
f 11/4/10 10/6/10 3/2/10
f 17/5/11 11/4/11 1/1/11
f 11/4/10 3/2/10 1/1/10
f 4/12/1 2/11/1 12/9/1
f 27/16/1 15/18/1 25/14/1
f 21/10/12 13/24/12 2/11/12
f 17/5/13 1/1/13 24/25/13
f 24/25/1 1/1/1 26/3/1
f 2/11/1 16/7/1 12/9/1
f 14/17/14 6/13/14 5/15/14
f 21/10/15 23/8/15 13/24/15
f 14/17/14 5/15/14 15/18/14
f 15/18/1 5/15/1 25/14/1
f 13/24/16 23/8/16 16/7/16
f 3/2/17 22/5/17 26/3/17
f 13/24/18 17/5/18 24/25/18
f 17/5/2 22/5/2 11/4/2
f 9/21/15 18/23/15 19/22/15
f 18/23/19 9/21/19 7/20/19
f 7/20/8 8/19/8 19/22/8
f 9/21/7 20/26/7 8/19/7
f 19/22/15 20/26/15 9/21/15
f 20/26/5 19/22/5 8/19/5
f 6/13/20 21/10/20 25/14/20
f 14/17/21 21/10/21 6/13/21
f 22/5/22 13/24/22 26/3/22
f 13/24/23 22/5/23 17/5/23
f 23/8/24 14/17/24 27/16/24
f 23/8/25 21/10/25 14/17/25
f 13/24/26 24/25/26 2/11/26
f 2/11/1 24/25/1 26/3/1
f 21/10/27 4/12/27 25/14/27
f 27/16/1 25/14/1 4/12/1
f 13/24/28 16/7/28 26/3/28
f 2/11/1 26/3/1 16/7/1
f 23/8/29 27/16/29 12/9/29
f 12/9/1 27/16/1 4/12/1
usemtl SAITE
f 8/19/30 7/20/30 12/9/30
f 12/9/30 4/12/30 8/19/30
f 7/20/31 8/19/31 29/27/31
f 28/28/31 29/27/31 8/19/31
