# Blender v2.75 (sub 0) OBJ File: 'Empty.blend'
# www.blender.org
mtllib ITMI_INNOSEYE_BROKEN_MIS.mtl
o ITMI_INNOSEYE_BROKEN_MIS
v -0.053833 0.001291 0.038846
v -0.057137 -0.010480 -0.034374
v -0.007978 -0.000924 -0.034460
v 0.007297 0.002029 0.013141
v -0.076730 -0.003149 0.006859
v -0.007857 -0.000924 0.034468
v -0.032571 -0.005702 -0.042553
v 0.007251 0.002029 -0.013187
v -0.086160 -0.013022 0.045433
v -0.101950 -0.013029 0.015482
v -0.071570 -0.013059 0.030431
v -0.089175 -0.003817 0.027882
v -0.004314 0.010919 0.030689
v 0.003370 0.012430 -0.019809
v -0.032423 -0.005702 0.042647
v -0.057016 -0.010480 0.034554
v -0.072291 -0.013433 -0.013048
v -0.041400 0.003735 -0.042862
v -0.072245 -0.013433 0.013280
v -0.090550 -0.013847 0.029291
v -0.053501 -0.003226 0.027877
v -0.041250 0.003735 0.042986
v -0.013856 0.004480 0.027808
v 0.003439 0.012430 0.019778
v -0.001673 0.006861 -0.010623
v -0.004421 0.010919 -0.030693
v -0.033787 0.000627 -0.034306
v -0.053968 0.001291 -0.038678
v -0.104935 -0.013004 0.036193
v -0.053598 -0.003226 -0.027710
v -0.076754 -0.003149 -0.006611
v -0.036249 0.009705 0.000053
v -0.024195 0.006549 0.014433
v -0.034521 0.004553 -0.017750
v -0.034341 0.004547 -0.000213
v -0.065819 -0.005608 -0.010511
v -0.001636 0.006861 0.010609
v -0.013953 0.004480 -0.027779
v -0.065782 -0.005608 0.010721
v -0.033667 0.000627 0.034404
v -0.097048 -0.013008 0.043863
v -0.106807 -0.013012 0.025352
v -0.076428 -0.013041 0.040302
v -0.051118 0.001322 -0.005421
v -0.051099 0.001322 0.005580
v -0.034459 0.004553 0.017851
v -0.044786 0.002556 -0.014333
v -0.044736 0.002556 0.014469
v -0.024245 0.006549 -0.014369
v -0.017863 0.007783 0.005522
v -0.017882 0.007783 -0.005479
v 0.111082 -0.005851 0.020770
v 0.054417 -0.005851 -0.075813
v 0.017426 -0.005851 0.075717
v -0.039238 -0.005851 -0.020865
vt 0.678227 0.000647
vt 0.678218 -0.126478
vt 0.819180 -0.128664
vt 0.000000 -0.500000
vt 0.904509 -0.190983
vt 1.000000 -0.500000
vt 0.095491 -0.190983
vt 0.095492 -0.809017
vt 0.345492 -1.000000
vt 0.654508 -0.000000
vt 0.733789 -0.000267
vt 0.179697 -0.000000
vt 0.819226 -0.205713
vt 0.733722 -0.126467
vt 0.733795 -0.247440
vt 0.904509 -0.809017
vt 0.678227 -0.248320
vt 0.654509 -1.000000
vt 0.481494 -0.333151
vt 0.648447 -0.368907
vt 0.648010 -0.293139
vt 0.481433 -0.044164
vt 0.481482 -0.333144
vt 0.648411 -0.369026
vt 0.648075 -0.293122
vt 0.481442 -0.044094
vt 0.648018 -0.083997
vt 0.648190 -0.021369
vt 0.648258 -0.021371
vt 0.819221 -0.048252
vt 0.000000 -1.000000
vt 1.000000 -1.000000
vt 1.000000 -0.000000
vt 0.000000 -0.000000
vt 0.292873 -0.095864
vt 0.321229 -0.004100
vt 0.264516 -0.004100
vt 0.384636 -0.095864
vt 0.367111 -0.039151
vt 0.321229 -0.187627
vt 0.367111 -0.152577
vt 0.218635 -0.039151
vt 0.201109 -0.095864
vt 0.218635 -0.152577
vt 0.264516 -0.187627
vt 0.196432 -0.383548
vt 0.224242 -0.404278
vt 0.232278 -0.382765
vt 0.166582 -0.400766
vt 0.183640 -0.415404
vt 0.205663 -0.416745
vt 0.226703 -0.360422
vt 0.161008 -0.378423
vn -0.110700 0.965900 -0.234000
vn 0.190800 -0.981600 -0.000300
vn -0.109800 0.965900 0.234400
vn 0.476000 0.879400 -0.000800
vn -0.652400 0.660200 -0.372100
vn 0.044200 0.795700 -0.604100
vn 0.010800 0.989400 0.144700
vn 0.817600 -0.062000 0.572400
vn 0.815600 -0.062000 -0.575200
vn 0.046300 0.795700 0.603900
vn -0.651100 0.660200 0.374400
vn -0.253200 -0.270300 0.928900
vn -0.917000 -0.399000 0.001600
vn -0.260000 0.936900 -0.233700
vn -0.256400 -0.270300 -0.928000
vn -0.259200 0.936900 0.234600
vn -0.937600 0.310600 -0.156300
vn -0.053700 0.922800 -0.381600
vn -0.499500 0.395400 0.770800
vn -0.493900 0.837100 -0.235100
vn 0.501300 0.590000 0.632900
vn -0.493100 0.837100 0.236800
vn 0.681800 0.625400 -0.379400
vn -0.052300 0.922800 0.381800
vn -0.937100 0.310600 0.159600
vn -0.380700 0.913400 -0.144100
vn -0.426600 0.904400 0.000700
vn -0.380200 0.913400 0.145400
vn -0.207500 0.452700 -0.867200
vn 0.219200 0.975700 -0.000400
vn 0.499100 0.590000 -0.634600
vn -0.502200 0.395400 -0.769000
vn -0.204500 0.452700 0.867900
vn 0.683100 0.625400 0.377000
vn 0.010300 0.989400 -0.144700
vn 0.056800 0.998400 -0.000100
vn 0.000000 1.000000 -0.000000
vn 0.104000 0.994600 -0.000200
vn 0.430400 0.877800 0.210300
vn 0.040200 -0.999000 0.021500
vn -0.066900 0.878800 0.472500
vn 0.065400 -0.147500 -0.986900
vn 0.050800 0.983600 -0.172900
vn 0.751300 -0.191600 -0.631500
vn -0.009000 -0.998500 0.053500
vn -0.470000 0.879000 0.080500
vn -0.053700 -0.998500 0.010000
vn 0.051400 0.983600 0.172700
vn -0.091600 0.954100 -0.285000
vn -0.760800 -0.310900 0.569600
vn -0.937700 -0.347400 0.009500
vn -0.190200 0.981700 -0.001600
vn -0.332100 0.879100 0.342000
vn -0.039300 -0.998400 0.040000
vn -0.427800 0.878600 -0.212100
vn -0.046200 -0.998700 -0.021000
vn 0.224300 0.878300 0.422200
vn 0.021800 -0.998700 0.045100
vn -0.189200 0.981900 0.001500
vn -0.188800 0.982000 0.000300
vn -0.191400 0.981500 -0.001600
vn -0.190200 0.981700 0.002300
vn -0.189200 0.981900 -0.000800
usemtl ITRINGS
s off
f 38/1/1 27/2/1 34/3/1
f 7/4/2 6/5/2 15/6/2
f 6/5/2 7/4/2 3/7/2
f 40/1/3 23/2/3 33/3/3
f 2/8/2 15/6/2 17/9/2
f 3/7/2 4/10/2 6/5/2
f 4/11/4 25/2/4 37/1/4
f 7/4/2 15/6/2 2/8/2
f 2/11/5 36/2/5 30/1/5
f 8/12/2 4/10/2 3/7/2
f 3/11/6 27/2/6 38/1/6
f 23/2/7 50/13/7 33/3/7
f 6/14/8 4/15/8 24/15/8
f 8/14/9 3/15/9 26/15/9
f 15/11/10 23/2/10 40/1/10
f 19/11/11 21/2/11 39/1/11
f 15/6/2 16/16/2 17/9/2
f 16/14/12 15/15/12 22/15/12
f 2/11/5 17/14/5 36/2/5
f 17/14/13 19/15/13 5/15/13
f 27/2/14 30/17/14 47/13/14
f 7/14/15 2/15/15 28/15/15
f 17/9/2 16/16/2 19/18/2
f 19/11/11 16/14/11 21/2/11
f 21/2/16 40/17/16 46/13/16
f 21/19/17 16/20/17 1/21/17
f 22/15/12 1/14/12 16/14/12
f 40/22/18 21/19/18 1/21/18
f 15/11/10 6/14/10 23/2/10
f 23/19/19 6/20/19 13/21/19
f 24/15/8 13/14/8 6/14/8
f 37/22/20 23/19/20 13/21/20
f 4/11/4 8/14/4 25/2/4
f 25/19/21 8/20/21 14/21/21
f 26/15/9 14/14/9 8/14/9
f 38/22/22 25/19/22 14/21/22
f 3/11/6 7/14/6 27/2/6
f 27/23/23 7/24/23 18/25/23
f 28/15/15 18/14/15 7/14/15
f 30/26/24 27/23/24 18/25/24
f 18/25/24 28/27/24 30/26/24
f 2/28/25 30/26/25 28/27/25
f 5/15/13 31/14/13 17/14/13
f 30/1/26 36/2/26 44/3/26
f 36/2/27 39/17/27 45/13/27
f 39/1/28 21/2/28 48/3/28
f 21/2/16 46/13/16 48/3/16
f 36/23/29 17/20/29 31/21/29
f 39/26/30 36/23/30 31/21/30
f 13/21/20 24/27/20 37/22/20
f 4/29/31 37/22/31 24/27/31
f 14/21/22 26/27/22 38/22/22
f 3/28/32 38/22/32 26/27/32
f 31/21/30 5/27/30 39/26/30
f 19/28/33 39/26/33 5/27/33
f 15/28/34 40/22/34 22/27/34
f 1/21/18 22/27/18 40/22/18
f 30/1/26 44/3/26 47/30/26
f 36/2/27 45/13/27 44/3/27
f 40/1/3 33/3/3 46/30/3
f 27/2/14 47/13/14 34/3/14
f 39/1/28 48/3/28 45/30/28
f 25/2/35 38/17/35 49/13/35
f 38/1/1 34/3/1 49/30/1
f 23/2/7 37/17/7 50/13/7
f 37/1/36 51/3/36 50/30/36
f 37/1/36 25/2/36 51/3/36
f 25/2/35 49/13/35 51/3/35
usemtl ITAM_CHAIN_01
f 52/31/37 53/32/37 55/33/37
f 55/33/37 54/34/37 52/31/37
usemtl ITMISC_01
f 32/35/38 50/36/38 51/37/38
f 12/35/39 43/38/39 11/39/39
f 43/38/40 20/35/40 11/39/40
f 12/35/41 41/40/41 9/41/41
f 11/39/42 20/35/42 12/35/42
f 32/35/43 51/37/43 49/42/43
f 10/43/44 12/35/44 20/35/44
f 41/40/45 20/35/45 9/41/45
f 12/35/46 42/44/46 29/45/46
f 42/44/47 20/35/47 29/45/47
f 32/35/48 33/39/48 50/36/48
f 32/35/49 49/42/49 34/43/49
f 33/39/50 32/35/50 35/35/50
f 34/43/51 35/35/51 32/35/51
f 35/46/52 48/47/52 46/48/52
f 12/35/53 29/45/53 41/40/53
f 29/45/54 20/35/54 41/40/54
f 12/35/55 10/43/55 42/44/55
f 10/43/56 20/35/56 42/44/56
f 12/35/57 9/41/57 43/38/57
f 9/41/58 20/35/58 43/38/58
f 35/46/59 47/49/59 44/50/59
f 35/46/60 44/50/60 45/51/60
f 33/52/61 35/46/61 46/48/61
f 35/46/62 34/53/62 47/49/62
f 35/46/63 45/51/63 48/47/63
