# Blender v2.75 (sub 0) OBJ File: 'Empty.blend'
# www.blender.org
mtllib ITMI_IE_DUDELBLAU.mtl
o ITMI_IE_DUDELBLAU
v 0.355122 -0.117057 -0.094536
v -0.362264 -0.063801 -0.017284
v 0.217784 -0.031242 0.135942
v 0.208384 0.407483 -0.519813
v 0.292335 0.286317 -0.395406
v 0.362284 0.407483 -0.519813
v 0.236187 -0.090072 0.071284
v 0.285751 0.063689 0.035526
v 0.344991 0.109189 0.040271
v 0.058760 0.036315 0.567083
v 0.123343 -0.094926 0.224662
v 0.109800 0.079959 0.554365
v 0.223344 -0.452055 0.117471
v 0.195212 -0.161870 0.096948
v 0.164152 -0.452055 0.083297
v 0.276583 -0.042568 -0.135990
v 0.268031 0.209024 -0.302785
v 0.268031 0.168916 -0.347330
v 0.276583 0.194726 -0.308858
v 0.302398 0.303413 -0.388303
v 0.302398 0.263859 -0.432232
v 0.104044 -0.139345 0.178249
v -0.203546 -0.186921 -0.037586
v 0.183883 -0.452054 0.117471
v 0.223344 -0.452055 0.049122
v 0.323809 0.452075 -0.470289
v 0.046086 0.095292 0.534948
v 0.294085 -0.022284 -0.113462
v 0.246859 0.362892 -0.569336
v 0.212014 -0.161870 0.067846
v -0.267630 -0.063801 -0.249454
v 0.146416 0.001868 -0.122435
v 0.041158 0.017358 -0.047026
v 0.233667 -0.089679 -0.121338
v 0.297664 -0.055440 -0.154059
v 0.217784 -0.181362 0.135942
v 0.127521 -0.068354 0.246522
v 0.272853 0.377743 -0.465518
v 0.319941 0.188970 -0.325057
v 0.225732 -0.079617 0.096893
v 0.251205 0.283636 -0.410267
v 0.133243 -0.119178 0.234563
v -0.213900 0.017357 -0.108064
v -0.031738 -0.193423 0.048197
v 0.227419 -0.160468 -0.108015
v 0.139825 -0.058404 0.106684
v 0.325235 -0.030048 -0.125858
v 0.149540 -0.106302 0.263115
v 0.127521 -0.144251 0.246522
v 0.310297 0.363278 -0.481584
v 0.323809 0.362892 -0.569336
v -0.176332 -0.115233 0.138811
v 0.246859 0.452075 -0.470289
v 0.139825 -0.182753 0.106684
v 0.224081 -0.128652 -0.114491
v 0.013418 -0.121735 0.139790
v 0.104044 -0.101812 0.178249
v 0.097011 0.045752 0.569316
v 0.183883 -0.452055 0.049122
v 0.243075 -0.452055 0.083297
v 0.340303 0.113876 0.051754
v 0.299329 0.050111 0.046612
v 0.236187 -0.090072 0.096893
v 0.276583 -0.022284 -0.113462
v 0.294085 -0.042568 -0.135990
v 0.294085 0.174441 -0.331386
v 0.294085 0.194726 -0.308858
v 0.302637 0.209024 -0.302785
v 0.250727 0.188970 -0.325057
v 0.302637 0.168916 -0.347329
v 0.276583 0.174441 -0.331386
v 0.268270 0.303413 -0.388303
v 0.319463 0.283636 -0.410267
v 0.268270 0.263859 -0.432232
v 0.195212 -0.161870 0.067846
v 0.212014 -0.161870 0.096948
v 0.099785 -0.106526 0.227567
v 0.267604 -0.106302 0.158124
v 0.073073 0.037862 0.522661
v 0.033297 0.061085 0.549899
v 0.297664 -0.004655 -0.097657
v 0.217883 -0.074459 -0.050675
v 0.312320 -0.021418 -0.057474
v -0.047058 -0.048305 -0.231882
v 0.093769 0.055560 0.517504
v 0.084337 0.104729 0.537181
v 0.278333 0.270089 -0.413428
v 0.278333 0.286317 -0.395406
v 0.225732 -0.079617 0.071284
v 0.292335 0.270089 -0.413428
v 0.297815 0.377743 -0.465518
v 0.297815 0.348812 -0.497649
v 0.260371 0.363278 -0.481584
v 0.272853 0.348812 -0.497649
v 0.184411 -0.422103 0.082397
v 0.281225 0.068215 0.046612
v 0.123343 -0.119178 0.224662
v 0.133243 -0.094926 0.234563
v 0.222816 -0.422103 0.082397
v 0.194012 -0.422103 0.065767
v 0.194012 -0.422103 0.099027
v 0.062747 0.047907 0.515693
v 0.083444 0.065605 0.510536
v 0.340303 0.113876 0.040271
v 0.294803 0.054637 0.057698
v 0.344991 0.109189 0.051754
v 0.088584 0.041689 0.523567
v 0.213215 -0.422103 0.099027
v 0.196307 -0.106302 0.245473
v 0.067933 0.061778 0.509630
v 0.213215 -0.422103 0.065767
v 0.294803 0.054637 0.035526
v 0.285751 0.063689 0.057698
vt 0.336749 -0.737183
vt 0.398358 -0.482012
vt 0.275565 -0.438456
vt 0.485452 -0.616652
vt 0.485502 -0.806138
vt 0.335979 -0.741369
vt 0.846721 -0.099222
vt 0.846794 -0.293280
vt 0.870742 -0.099222
vt 0.921482 -0.000500
vt 0.896382 -0.000500
vt 0.920897 -0.099222
vt 0.806252 -0.996115
vt 0.801441 -0.392982
vt 0.763098 -0.394025
vt 0.874981 -0.996115
vt 0.879234 -0.392982
vt 0.840059 -0.392460
vt 0.754271 -0.993341
vt 0.991156 -0.099311
vt 0.957205 -0.098976
vt 0.918318 -0.098808
vt 0.877741 -0.098976
vt 0.892897 -0.993048
vt 0.689893 -0.003002
vt 0.689965 -0.545996
vt 0.711595 -0.545996
vt 0.648610 -0.003002
vt 0.648670 -0.545996
vt 0.668857 -0.545996
vt 0.870787 -0.999500
vt 0.895356 -0.495039
vt 0.870787 -0.495039
vt 0.947116 -0.495039
vt 0.920949 -0.495039
vt 0.920949 -0.999500
vt 0.846676 -0.506126
vt 0.846676 -0.279845
vt 0.822107 -0.279845
vt 0.920949 -0.506126
vt 0.920949 -0.279845
vt 0.895356 -0.279845
vt 0.160506 -0.926929
vt 0.383069 -0.897911
vt 0.591195 -0.865431
vt 0.550824 -0.842783
vt 0.601148 -0.616652
vt 0.690447 -0.629705
vt 0.669781 -0.629705
vt 0.649114 -0.629705
vt 0.628448 -0.629705
vt 0.711113 -0.629705
vt 0.732704 -0.545996
vt 0.628892 -0.545996
vt 0.752951 -0.003002
vt 0.821081 -0.000500
vt 0.846181 -0.000500
vt 0.795980 -0.000500
vt 0.947168 -0.099222
vt 0.876042 -0.000855
vt 0.957051 -0.000855
vt 0.754613 -0.001682
vt 0.835368 -0.099311
vt 0.796513 -0.999500
vt 0.846676 -0.999500
vt 0.822107 -0.495039
vt 0.770880 -0.000500
vt 0.871282 -0.000500
vt 0.895260 -0.099222
vt 0.711667 -0.003002
vt -0.000660 -0.694866
vt 0.076026 -0.457812
vt 0.127956 -0.674136
vt 0.130063 -0.674861
vt 0.556956 -0.616652
vt 0.498243 -0.560244
vt 0.547185 -0.576360
vt 0.609684 -0.339732
vt 0.517109 -0.426622
vt 0.104078 -0.426622
vt 0.011503 -0.339732
vt 0.920810 -0.293280
vt 0.870668 -0.293280
vt 0.846676 -0.495039
vt 0.957866 -0.394547
vt 0.913134 -0.997320
vt 1.001485 -0.997320
vt 0.870787 -0.279845
vt 0.870787 -0.506126
vt 0.792932 -0.099479
vt 0.852181 -0.993341
vt 0.960134 -0.993048
vt 0.569527 -0.576360
vt 0.310593 -0.110974
vt 0.311424 -0.431970
vt 0.310593 -0.331721
vt 0.971683 -0.000500
vt 0.946583 -0.000500
vt 0.794784 -0.002096
vt 0.835539 -0.001682
vt 0.731780 -0.629705
vt 0.793417 0.001796
vt 0.884559 0.001796
vt 0.918691 -0.394025
vt 0.759457 0.001256
vt 0.926804 0.001256
vt 0.947116 -0.506126
vt 0.947116 -0.279845
vt 0.796513 -0.279845
vt 0.995156 -0.001682
vt 0.916546 -0.000441
vt 0.972805 -0.099222
vt 0.947255 -0.293280
vt 0.994434 0.001256
vn -0.076000 0.950500 -0.301300
vn 0.125500 -0.973700 -0.190400
vn 0.000000 -0.730600 -0.682900
vn -0.682700 -0.193500 0.704600
vn -0.170700 -0.170700 -0.970400
vn -0.749200 0.447400 0.488500
vn 0.179900 -0.847400 0.499500
vn -0.929200 0.216400 -0.299700
vn -0.000000 0.008000 1.000000
vn -0.866000 0.008000 -0.500000
vn -0.864900 -0.371900 -0.337100
vn 0.000000 0.633400 0.773800
vn 0.860800 -0.413900 -0.296100
vn -0.861300 0.255200 0.439300
vn 0.024300 0.800100 0.599300
vn 0.756800 -0.587200 0.287100
vn -0.029900 -0.779900 0.625200
vn 0.447000 -0.784000 -0.430700
vn 0.000000 0.524400 0.851500
vn 0.000000 -1.000000 0.000000
vn 0.866000 0.008000 -0.500000
vn 0.000000 0.743100 -0.669100
vn 0.000000 0.064100 0.997900
vn -0.161300 0.445200 0.880800
vn -0.179700 0.846800 -0.500600
vn 0.996300 -0.064100 0.057700
vn -0.996300 -0.064100 0.057700
vn -0.689300 -0.716200 0.109300
vn 0.999100 0.041500 0.000000
vn -0.999100 0.041500 0.000000
vn -0.613200 -0.749300 -0.250000
vn 0.088700 0.924500 -0.370700
vn -0.449900 -0.318500 -0.834300
vn 0.871800 0.220700 0.437300
vn -0.252700 0.793700 0.553400
vn 0.458900 0.877700 0.138100
vn -0.134000 -0.139400 -0.981100
vn 0.423700 0.798600 0.427400
vn -0.432500 -0.051700 -0.900100
vn -0.481200 0.815400 -0.321900
vn -0.331000 -0.942500 0.046100
vn -0.179500 -0.729800 0.659700
vn -0.568600 0.798900 -0.196000
vn 0.773600 0.585300 0.243000
vn 0.000000 0.608500 0.793500
vn -0.863000 -0.395900 -0.313900
vn 0.864900 -0.371900 -0.337100
vn -0.936200 0.351400 0.000000
vn 0.911800 -0.410700 -0.000000
vn -0.860800 -0.413900 -0.296100
vn 0.990400 0.000000 0.138200
vn -0.979000 0.000000 -0.203800
vn -0.115700 0.867600 0.483600
vn -0.572700 0.785800 -0.233400
vn 0.196700 -0.866100 -0.459500
vn -0.231700 -0.888200 0.396700
vn 0.265300 -0.530400 -0.805200
vn 0.327500 -0.942400 -0.067800
vn -0.414700 0.855000 0.311300
vn -0.295200 0.950600 -0.096000
vn 0.717100 -0.004600 -0.697000
vn -0.594700 0.597500 -0.537900
vn 0.403600 0.715900 0.569700
vn -0.835800 -0.487700 0.252400
vn 0.403600 -0.715900 0.569700
vn -0.581200 -0.018500 0.813600
vn 0.689300 -0.716200 0.109300
vn 0.682700 -0.193500 0.704600
vn 0.000000 -0.981300 -0.192700
vn -0.171200 0.856900 0.486300
vn -0.533500 -0.751700 0.387800
vn -0.155000 -0.877100 0.454600
vn 0.049000 -0.995300 -0.083300
vn -0.283400 -0.219700 -0.933500
vn -0.905400 -0.173800 -0.387400
vn -0.324900 -0.871900 0.366400
vn -0.342300 0.869400 0.356200
vn -0.390700 -0.000000 0.920500
vn -0.996300 -0.000000 -0.086000
vn 0.934200 -0.230200 0.272500
vn 0.000000 0.008000 -1.000000
vn 0.866000 0.008000 0.500000
vn -0.611500 0.791200 0.000000
vn 0.864800 -0.229300 0.446700
vn 0.791200 -0.611500 0.000000
vn 0.761700 -0.428600 -0.485900
vn 0.186000 0.186000 0.964800
vn 0.000000 -0.706900 -0.707300
vn 0.982500 -0.138400 0.124600
vn -0.982500 -0.138400 0.124600
vn -0.000000 0.590100 0.807300
vn 0.865000 0.298300 0.403500
vn -0.865000 0.298300 0.403500
vn 0.000000 -0.748200 -0.663400
vn 0.861300 0.255200 0.439300
vn -0.805800 0.592000 -0.013000
vn -0.581300 0.018400 0.813500
vn 0.634300 -0.574000 0.517800
vn 0.634300 0.574000 0.517800
vn 0.237000 -0.970600 0.042500
vn -0.758100 -0.001600 -0.652100
vn -0.599800 -0.769300 -0.220100
vn 0.808300 0.424500 0.408000
vn -0.721700 0.625700 -0.296000
vn 0.723700 0.689900 0.013100
vn -0.405000 0.781900 0.473900
vn 0.883700 0.448000 -0.135400
vn -0.022000 0.870700 -0.491400
vn 0.101100 -0.846600 -0.522600
vn 0.908200 -0.397200 -0.132000
vn 0.738800 0.367700 -0.564700
vn -0.090600 0.562000 -0.822200
vn -0.988000 -0.114800 0.103400
vn 0.988000 -0.114800 0.103400
vn 0.000000 -0.730500 -0.682900
vn 0.863200 0.273600 0.424300
vn 0.863000 -0.395900 -0.313900
vn -0.863200 0.273600 0.424300
vn -0.752100 0.495700 -0.434200
vn -0.742300 0.515000 0.428600
vn -0.857800 0.246700 -0.450900
vn -0.562900 0.659000 -0.498800
vn -0.380200 -0.843200 0.380200
vn 0.404300 0.820400 -0.404300
vn 0.752100 0.495700 -0.434200
vn 0.742300 0.515000 0.428600
vn -0.000000 0.485800 -0.874100
vn -0.866000 0.008000 0.500000
vn -0.750000 -0.628900 0.204900
vn 0.753000 0.618700 -0.224000
vn 0.045200 0.045200 -0.998000
vn 0.707100 0.707100 0.000000
vn 0.664300 -0.556900 0.498600
vn 0.056600 0.056600 0.996800
vn 0.742400 0.515000 0.428600
vn 0.300800 0.523200 0.797400
vn 0.300800 -0.523200 0.797400
vn 0.659000 -0.562900 -0.498800
vn -0.556900 0.664300 0.498600
usemtl MATERIAL_#47
s off
f 33/1/1 32/2/1 84/3/1
f 55/4/2 54/5/2 44/6/2
f 92/7/3 90/8/3 94/9/3
f 53/10/4 4/11/4 38/12/4
f 89/13/5 8/14/5 112/15/5
f 40/16/6 113/17/6 96/18/6
f 42/19/7 107/20/7 79/21/7
f 102/22/8 110/23/8 11/24/8
f 14/25/9 101/26/9 108/27/9
f 75/28/10 100/29/10 95/30/10
f 16/31/11 69/32/11 18/33/11
f 68/34/12 17/35/12 64/36/12
f 66/37/13 21/38/13 73/39/13
f 19/40/14 72/41/14 41/42/14
f 52/43/15 56/44/15 33/1/15
f 78/45/16 36/46/16 1/47/16
f 44/6/17 56/44/17 52/43/17
f 84/3/18 32/2/18 44/6/18
f 108/27/19 101/26/19 24/48/19
f 24/48/20 15/49/20 59/50/20
f 25/51/20 13/52/20 24/48/20
f 99/53/21 111/54/21 30/55/21
f 6/56/22 51/57/22 26/58/22
f 38/12/23 91/59/23 53/10/23
f 27/60/24 10/61/24 58/62/24
f 11/24/25 110/23/25 103/63/25
f 28/64/26 65/65/26 39/66/26
f 16/31/27 64/36/27 69/32/27
f 4/11/22 53/67/22 29/68/22
f 93/69/28 4/11/28 94/9/28
f 99/53/29 30/55/29 76/70/29
f 95/30/30 14/25/30 75/28/30
f 2/71/31 31/72/31 23/73/31
f 84/3/32 43/74/32 33/1/32
f 44/6/33 32/2/33 55/4/33
f 1/47/34 83/75/34 3/46/34
f 33/1/35 56/44/35 46/5/35
f 33/1/36 46/5/36 82/4/36
f 34/76/37 55/4/37 32/2/37
f 32/2/38 33/1/38 82/4/38
f 35/77/39 55/4/39 34/76/39
f 83/75/40 82/4/40 46/5/40
f 49/78/41 22/79/41 36/46/41
f 56/44/42 44/6/42 54/5/42
f 57/80/43 37/81/43 3/46/43
f 3/46/44 78/45/44 1/47/44
f 38/12/45 88/82/45 91/59/45
f 94/9/46 87/83/46 93/69/46
f 70/84/22 69/32/22 39/66/22
f 65/65/47 70/84/47 39/66/47
f 96/18/48 89/13/48 40/16/48
f 62/85/49 63/86/49 7/87/49
f 72/41/22 74/88/22 41/42/22
f 71/89/50 41/42/50 74/88/50
f 85/90/51 42/19/51 98/91/51
f 102/22/52 11/24/52 97/92/52
f 33/1/53 43/74/53 52/43/53
f 31/72/54 2/71/54 43/74/54
f 44/6/55 23/73/55 84/3/55
f 52/43/56 23/73/56 44/6/56
f 1/47/57 45/75/57 35/77/57
f 36/46/58 45/75/58 1/47/58
f 46/5/59 57/80/59 3/46/59
f 46/5/60 3/46/60 83/75/60
f 35/77/61 47/93/61 1/47/61
f 35/77/62 34/76/62 81/77/62
f 37/81/63 109/94/63 3/46/63
f 77/95/64 22/79/64 49/78/64
f 109/94/65 49/78/65 36/46/65
f 77/95/66 49/78/66 48/96/66
f 92/7/67 51/57/67 6/97/67
f 91/59/68 6/97/68 26/98/68
f 92/7/69 94/9/69 51/57/69
f 29/68/22 53/67/22 51/57/22
f 2/71/70 52/43/70 43/74/70
f 23/73/71 52/43/71 2/71/71
f 26/98/23 53/10/23 91/59/23
f 26/58/22 51/57/22 53/67/22
f 22/79/72 54/5/72 36/46/72
f 36/46/73 54/5/73 45/75/73
f 45/75/74 55/4/74 35/77/74
f 54/5/75 55/4/75 45/75/75
f 54/5/76 22/79/76 56/44/76
f 46/5/77 56/44/77 57/80/77
f 56/44/78 22/79/78 57/80/78
f 77/95/79 57/80/79 22/79/79
f 58/62/24 12/99/24 86/100/24
f 85/90/80 107/20/80 42/19/80
f 24/48/20 59/50/20 25/51/20
f 30/55/81 111/54/81 100/29/81
f 25/51/20 60/101/20 13/52/20
f 76/70/82 108/27/82 99/53/82
f 104/102/83 96/18/83 61/103/83
f 62/85/84 105/104/84 63/86/84
f 9/105/85 106/106/85 62/85/85
f 7/87/86 112/15/86 62/85/86
f 113/17/87 40/16/87 63/86/87
f 64/36/12 28/64/12 68/34/12
f 65/65/88 16/31/88 18/33/88
f 67/107/89 66/37/89 73/39/89
f 71/89/90 19/40/90 41/42/90
f 19/40/91 67/107/91 20/108/91
f 39/66/22 69/32/22 68/34/22
f 39/66/92 68/34/92 28/64/92
f 17/35/22 68/34/22 69/32/22
f 64/36/93 17/35/93 69/32/93
f 18/33/22 69/32/22 70/84/22
f 18/33/88 70/84/88 65/65/88
f 66/37/94 71/89/94 74/88/94
f 20/109/22 74/88/22 72/41/22
f 20/108/91 72/41/91 19/40/91
f 73/39/22 21/38/22 20/109/22
f 67/107/95 73/39/95 20/108/95
f 21/38/22 74/88/22 20/109/22
f 74/88/94 21/38/94 66/37/94
f 100/29/81 75/28/81 30/55/81
f 108/27/9 76/70/9 14/25/9
f 37/81/96 57/80/96 77/95/96
f 37/81/97 77/95/97 48/96/97
f 36/46/98 78/45/98 109/94/98
f 109/94/99 78/45/99 3/46/99
f 58/110/100 10/61/100 79/21/100
f 110/23/101 102/22/101 80/111/101
f 80/111/102 79/21/102 10/61/102
f 27/60/24 80/111/24 10/61/24
f 47/93/103 81/77/103 1/47/103
f 81/77/22 47/93/22 35/77/22
f 34/76/104 82/4/104 81/77/104
f 32/2/105 82/4/105 34/76/105
f 81/77/106 82/4/106 83/75/106
f 81/77/107 83/75/107 1/47/107
f 43/74/108 84/3/108 31/72/108
f 31/72/109 84/3/109 23/73/109
f 107/20/110 85/90/110 12/99/110
f 12/99/111 103/63/111 86/100/111
f 27/60/112 86/100/112 103/63/112
f 58/62/24 86/100/24 27/60/24
f 88/82/113 93/69/113 87/83/113
f 90/8/114 50/112/114 5/113/114
f 5/113/45 91/59/45 88/82/45
f 112/15/5 7/87/5 89/13/5
f 87/83/115 94/9/115 90/8/115
f 91/59/116 5/113/116 50/112/116
f 50/112/68 6/97/68 91/59/68
f 92/7/117 50/112/117 90/8/117
f 50/112/67 92/7/67 6/97/67
f 38/12/118 93/69/118 88/82/118
f 93/69/4 38/12/4 4/11/4
f 29/68/69 51/57/69 94/9/69
f 94/9/28 4/11/28 29/68/28
f 15/49/119 95/30/119 100/29/119
f 15/49/120 24/48/120 101/26/120
f 96/18/121 8/14/121 89/13/121
f 8/14/122 96/18/122 104/102/122
f 79/21/123 97/92/123 42/19/123
f 103/63/124 98/91/124 11/24/124
f 111/54/125 99/53/125 60/101/125
f 60/101/126 99/53/126 108/27/126
f 25/51/127 59/50/127 100/29/127
f 15/49/119 100/29/119 59/50/119
f 95/30/128 101/26/128 14/25/128
f 101/26/120 95/30/120 15/49/120
f 97/92/129 79/21/129 102/22/129
f 80/111/102 102/22/102 79/21/102
f 98/91/130 103/63/130 85/90/130
f 12/99/111 85/90/111 103/63/111
f 112/15/131 8/14/131 104/102/131
f 106/114/132 9/105/132 104/102/132
f 63/86/87 105/104/87 113/17/87
f 105/104/133 62/85/133 106/106/133
f 113/17/134 105/104/134 106/106/134
f 104/102/132 61/103/132 106/114/132
f 58/110/110 107/20/110 12/99/110
f 79/21/100 107/20/100 58/110/100
f 24/48/19 13/52/19 108/27/19
f 60/101/135 108/27/135 13/52/135
f 48/96/136 109/94/136 37/81/136
f 49/78/137 109/94/137 48/96/137
f 80/111/101 27/60/101 110/23/101
f 103/63/112 110/23/112 27/60/112
f 25/51/125 111/54/125 60/101/125
f 100/29/127 111/54/127 25/51/127
f 112/15/138 9/105/138 62/85/138
f 104/102/131 9/105/131 112/15/131
f 113/17/139 61/103/139 96/18/139
f 106/106/134 61/103/134 113/17/134
