# Blender v2.75 (sub 0) OBJ File: 'Empty.blend'
# www.blender.org
mtllib ITMI_OLDCOIN.mtl
o ITMI_OLDCOIN
v 0.050000 -0.010081 0.000000
v -0.035031 0.002561 -0.035355
v -0.000000 -0.010081 0.050000
v 0.035411 0.008724 0.035355
v 0.035355 -0.010081 -0.035355
v 0.000000 -0.010081 -0.050000
v 0.035411 0.003724 -0.035355
v -0.035355 -0.010081 0.035355
v 0.000190 0.005642 0.050000
v -0.050000 -0.010081 -0.000000
v -0.035355 -0.010081 -0.035355
v 0.035355 -0.010081 0.035355
v 0.050000 0.010000 0.000000
v -0.035031 0.002561 0.035355
v -0.049619 0.001284 -0.000000
v 0.000190 0.000642 -0.050000
vt -0.294997 0.009047
vt -0.295750 0.581951
vt -0.092821 0.092947
vt -0.199488 -0.330319
vt -0.364083 -0.367615
vt -0.362578 -0.323511
vt -0.318675 -0.197589
vt -0.318675 -0.067799
vt -0.198812 -0.066907
vt -0.091744 0.496221
vt -0.295000 0.009689
vt -0.093254 0.496746
vt -0.093254 0.093254
vt -0.201433 -0.206271
vt -0.080161 -0.068651
vt -0.009689 0.295000
vt -0.007688 0.293669
vt -0.081963 -0.164457
vt -0.036362 -0.319454
vt -0.036620 -0.367615
vt -0.200369 -0.367730
vt -0.358649 -0.164774
vt -0.359189 -0.083411
vt -0.204890 -0.079929
vt -0.496746 0.093254
vt -0.205152 -0.181144
vt -0.050605 -0.076892
vt -0.051667 -0.197959
vt -0.497926 0.498051
vt -0.497393 0.092947
vt -0.496746 0.496746
vt -0.295000 0.580311
vt -0.204997 -0.080104
vt -0.379476 -0.191480
vt -0.379476 -0.073293
vt -0.030526 -0.061259
vt -0.030526 -0.200848
vt -0.204997 -0.205628
vt -0.580311 0.295000
vt -0.581449 0.295499
vt -0.204997 -0.195528
vn -0.087200 0.996200 0.000000
vn -0.383500 0.009900 -0.923500
vn 0.923900 -0.002700 0.382700
vn -0.016300 0.985600 -0.168300
vn 0.000000 -1.000000 -0.000000
vn 0.923900 0.000000 -0.382700
vn 0.924600 -0.003700 -0.380900
vn 0.382700 -0.001500 -0.923900
vn -0.382700 0.009800 0.923800
vn 0.384000 -0.001100 0.923300
vn -0.924400 0.023800 0.380600
vn -0.923600 0.023700 -0.382600
vn 0.382700 -0.004600 0.923900
vn 0.924400 0.000000 0.381400
vn -0.384300 0.004700 0.923200
vn -0.924300 0.030900 -0.380300
vn -0.923400 0.030900 0.382500
vn -0.382700 0.006800 -0.923900
vn 0.384400 -0.006800 -0.923100
usemtl IT_GOLD_01
s off
f 15/1/1 13/2/1 2/3/1
f 16/4/2 11/5/2 2/6/2
f 4/7/3 12/8/3 1/9/3
f 2/3/4 13/2/4 7/10/4
f 1/11/5 11/12/5 5/13/5
f 13/14/6 1/9/6 5/15/6
f 5/13/5 11/12/5 6/16/5
f 2/3/4 7/10/4 16/17/4
f 13/14/7 5/15/7 7/18/7
f 7/19/8 5/20/8 6/21/8
f 14/22/9 8/23/9 3/24/9
f 12/25/5 11/12/5 1/11/5
f 9/26/10 12/27/10 4/28/10
f 4/29/1 15/1/1 14/30/1
f 12/25/5 8/31/5 10/32/5
f 15/33/11 8/34/11 14/35/11
f 11/12/5 12/25/5 10/32/5
f 2/36/12 11/37/12 10/38/12
f 8/31/5 12/25/5 3/39/5
f 9/26/13 3/24/13 12/27/13
f 4/29/1 13/2/1 15/1/1
f 4/7/14 1/9/14 13/14/14
f 14/22/15 3/24/15 9/26/15
f 4/29/1 14/30/1 9/40/1
f 2/36/16 10/38/16 15/33/16
f 15/33/17 10/41/17 8/34/17
f 16/4/18 6/21/18 11/5/18
f 7/19/19 6/21/19 16/4/19
