# Blender v2.75 (sub 0) OBJ File: 'Empty.blend'
# www.blender.org
mtllib ITMISWORDRAW.mtl
o ITMISWORDRAW
v 0.160911 0.011036 -0.012689
v -0.692310 0.011036 0.012689
v -0.692310 -0.016458 -0.012689
v 0.160911 -0.016458 -0.012689
v -0.692310 0.011036 -0.012689
v 0.160911 0.011036 0.012689
v -0.692310 -0.016458 0.012689
v 0.160911 -0.016458 0.012689
vt 0.815686 -0.745098
vt 0.815686 -0.498039
vt 0.752941 -0.498039
vt 0.752941 -0.745098
vn 0.000000 -0.000000 -1.000000
vn 0.000000 0.000000 1.000000
vn -0.000000 1.000000 -0.000000
vn -1.000000 -0.000000 0.000000
vn 1.000000 -0.000000 0.000000
vn 0.000000 -1.000000 0.000000
usemtl WEAPONS
s off
f 4/1/1 3/2/1 5/3/1
f 6/3/2 2/4/2 7/1/2
f 5/3/1 1/4/1 4/1/1
f 7/1/2 8/2/2 6/3/2
f 1/3/3 5/4/3 2/1/3
f 2/3/4 5/4/4 3/1/4
f 2/1/3 6/2/3 1/3/3
f 1/3/5 6/4/5 8/1/5
f 7/2/6 3/3/6 4/4/6
f 3/1/4 7/2/4 2/3/4
f 4/4/6 8/1/6 7/2/6
f 8/1/5 4/2/5 1/3/5
