# Blender v2.75 (sub 0) OBJ File: 'Empty.blend'
# www.blender.org
mtllib ITMI_IE_CELLO.mtl
o ITMI_IE_CELLO
v -0.210398 0.049494 0.674625
v -0.096554 0.034410 0.100161
v 0.210418 0.049494 0.681521
v -0.002936 0.034410 0.063385
v -0.002289 0.049494 -0.681541
v -0.002289 -0.017040 -0.681541
v 0.051861 0.034410 0.065683
v -0.210398 -0.057190 0.643747
v 0.210418 -0.057190 0.650643
v 0.059772 0.049494 -0.674645
v 0.059772 -0.017040 -0.674645
v 0.128354 -0.045347 0.161229
v 0.027484 0.003613 0.063385
v 0.011503 0.007379 -0.534434
v -0.096554 -0.045347 0.158931
v 0.128354 0.034410 0.102460
v 0.050578 0.007379 -0.534434
v 0.062071 0.049494 -0.555121
v 0.011503 0.038176 -0.534434
v -0.002289 0.049494 -0.548226
v 0.050578 0.038176 -0.534434
v 0.039403 0.057210 0.541191
v -0.024956 0.057210 0.541191
v 0.007223 0.045771 0.596116
vt 0.000500 -0.994446
vt 0.999500 -0.999500
vt 0.804684 -0.396357
vt 0.000500 -0.971816
vt 0.804684 -0.439430
vt 0.999500 -0.976870
vt 0.270762 -0.437745
vt 0.270762 -0.394673
vt 0.527284 -0.774982
vt 0.493006 -0.367719
vt 0.623092 -0.369403
vt 0.620047 -0.774982
vt 0.565222 -0.367719
vt 0.641873 -0.988645
vt 0.494544 -0.983591
vt 0.222386 -0.006968
vt 3.757226 -0.000173
vt 0.647330 -0.759820
vt 0.494544 -0.764874
vt 0.999500 -0.000500
vt 0.054238 -0.007797
vt 0.947533 -0.998478
vt 0.000500 -0.999500
vn 0.000400 0.999700 -0.026100
vn 0.000400 -0.999700 -0.024300
vn 0.000200 -0.999700 -0.024400
vn 0.000300 0.999700 -0.026200
vn -0.999700 0.000000 -0.024100
vn 1.000000 0.000000 -0.002100
vn -0.000300 1.000000 0.006300
vn 0.000000 1.000000 0.000000
vn -0.343900 -0.339700 -0.875400
vn -0.711400 -0.702700 0.014600
vn -0.971800 0.065600 -0.226600
vn -0.015700 -0.278000 0.960500
vn 0.985300 0.047500 -0.164100
vn 0.110400 -0.000000 -0.993900
vn 0.000000 1.000000 0.006300
vn 0.000000 -1.000000 -0.006300
vn 0.985400 -0.101000 -0.137000
vn 0.004600 -0.892400 -0.451300
vn 0.442200 -0.532100 -0.722100
vn 0.782900 -0.621600 0.026300
vn -0.953900 -0.268500 0.134000
vn -0.018400 -0.986100 0.165400
vn -0.360100 -0.553400 -0.751000
vn -0.972100 -0.139300 -0.189000
vn 0.417700 -0.265800 -0.868800
vn 0.971300 -0.215300 0.101200
vn 0.000000 -0.985200 0.171600
vn 0.999800 -0.000000 -0.019200
vn -1.000000 -0.000000 0.000000
vn -0.707100 0.000000 0.707100
vn 0.063700 0.801700 0.594300
vn 0.874200 0.000000 0.485600
vn 0.000000 0.877300 0.480000
vn 0.000000 0.979000 0.203900
vn -0.000800 1.000000 -0.007100
vn 0.000000 1.000000 -0.007100
usemtl HOLZ
s off
f 1/1/1 3/2/1 16/3/1
f 8/4/2 12/5/2 9/6/2
f 15/7/3 12/5/3 8/4/3
f 2/8/4 1/1/4 16/3/4
f 14/9/5 4/10/5 19/9/5
f 7/11/6 17/12/6 21/12/6
f 4/10/7 7/11/7 21/12/7
f 4/10/8 2/8/8 16/3/8
f 13/13/9 2/8/9 4/10/9
f 14/9/10 13/13/10 4/10/10
f 15/7/11 8/4/11 1/1/11
f 8/4/12 3/2/12 1/1/12
f 9/6/13 12/5/13 3/2/13
f 8/4/12 9/6/12 3/2/12
f 11/14/14 5/15/14 10/14/14
f 19/9/15 4/10/15 21/12/15
f 11/14/14 6/15/14 5/15/14
f 14/9/16 17/12/16 13/13/16
f 3/2/17 12/5/17 16/3/17
f 13/13/18 12/5/18 15/7/18
f 12/5/19 13/13/19 16/3/19
f 13/13/20 17/12/20 7/11/20
f 6/15/21 14/9/21 20/16/21
f 11/14/22 14/9/22 6/15/22
f 13/13/23 15/7/23 2/8/23
f 15/7/24 1/1/24 2/8/24
f 13/13/25 7/11/25 16/3/25
f 4/10/8 16/3/8 7/11/8
f 17/12/26 11/14/26 18/17/26
f 17/12/27 14/9/27 11/14/27
f 18/17/28 11/14/28 10/14/28
f 18/17/8 10/14/8 20/16/8
f 10/14/8 5/15/8 20/16/8
f 6/15/29 20/16/29 5/15/29
f 14/9/30 19/9/30 20/16/30
f 18/17/31 20/16/31 19/9/31
f 17/12/32 18/17/32 21/12/32
f 21/12/33 18/17/33 19/9/33
f 22/18/34 23/19/34 24/19/34
usemtl SAITE
f 18/20/35 20/21/35 22/22/35
f 23/23/36 22/22/36 20/21/36
