# Blender v2.75 (sub 0) OBJ File: 'Empty.blend'
# www.blender.org
mtllib ITMI_DARKPEARL.mtl
o ITMI_DARKPEARL
v -0.016953 -0.039984 -0.025679
v -0.011135 0.045991 -0.017053
v 0.022193 -0.030021 0.032358
v 0.041217 -0.022996 -0.016873
v -0.037551 0.002926 -0.033863
v -0.048923 -0.009808 0.004359
v 0.006994 0.036903 0.032178
v 0.030248 0.022996 -0.033136
v 0.042833 0.016989 0.018250
v -0.001712 -0.016989 -0.047790
v 0.006900 0.005491 0.048402
v 0.022415 0.044302 -0.006030
v -0.003303 0.024685 -0.044159
v -0.041618 -0.000000 0.027169
v -0.030392 0.039829 -0.000895
v -0.023146 0.029723 0.032201
v 0.010804 -0.045991 0.015473
v 0.013152 -0.044302 -0.019764
v -0.011392 -0.039829 0.027274
v -0.039364 -0.029723 0.008157
v 0.038870 -0.024685 0.018364
v 0.025552 0.019617 0.037338
v -0.025884 -0.019617 -0.038919
v -0.037645 -0.028486 -0.017638
v 0.027720 0.036903 0.018198
v -0.016825 0.002926 -0.047842
v 0.027591 -0.006007 0.040361
v 0.041286 0.000000 -0.028750
v -0.013483 0.044302 0.018183
v -0.003525 -0.049638 -0.005770
v -0.030579 -0.022996 0.031555
v -0.013646 -0.010106 0.046286
v 0.048592 0.009808 -0.005940
v 0.022874 -0.009808 -0.044068
v -0.039201 0.024685 -0.019945
v -0.041549 0.022996 0.015292
v 0.030060 -0.039829 -0.000686
v 0.011060 0.039829 -0.028854
v 0.013314 0.010106 -0.047866
v 0.048532 -0.010106 0.004346
v 0.002971 -0.024685 0.042578
v -0.022525 0.030021 -0.033939
v -0.022747 -0.044302 0.004450
v 0.003193 0.049638 0.004190
v 0.022814 -0.029723 -0.033782
v 0.039032 0.029723 -0.009738
v -0.048864 0.010106 -0.005927
v -0.023205 0.009808 0.042488
v 0.042798 0.005491 0.024189
v -0.007325 -0.036903 -0.033758
v 0.001381 0.016989 0.046210
v -0.043164 -0.016989 -0.019831
v -0.007231 -0.005491 -0.049983
v -0.028051 -0.036903 -0.019778
v 0.037220 -0.002926 0.032282
v 0.016622 0.039984 0.024098
v -0.001747 -0.028486 -0.041852
v 0.016494 -0.002926 0.046262
v 0.001415 0.028486 0.040271
v -0.043130 -0.005491 -0.025769
v -0.027923 0.006007 -0.041942
v 0.037313 0.028486 0.016057
vt 0.264748 -0.044482
vt 0.248588 -0.016493
vt 0.214873 -0.050208
vt 0.386756 -0.096264
vt 0.354437 -0.096264
vt 0.346426 -0.066368
vt 0.214873 -0.142321
vt 0.264748 -0.148047
vt 0.248588 -0.176036
vt 0.277384 -0.126161
vt 0.294644 -0.156057
vt 0.294644 -0.096264
vt 0.324541 -0.113525
vt 0.311905 -0.126161
vt 0.242862 -0.066368
vt 0.234851 -0.096264
vt 0.340700 -0.016493
vt 0.324541 -0.044482
vt 0.294644 -0.036471
vt 0.260123 -0.096264
vt 0.264748 -0.079004
vt 0.329166 -0.096264
vt 0.294644 -0.004152
vt 0.294644 -0.188377
vt 0.324541 -0.148047
vt 0.340700 -0.176036
vt 0.294644 -0.130786
vt 0.324541 -0.079004
vt 0.311905 -0.066368
vt 0.374416 -0.142321
vt 0.346426 -0.126161
vt 0.374416 -0.050208
vt 0.202532 -0.096264
vt 0.242862 -0.126161
vt 0.294644 -0.061743
vt 0.264748 -0.113525
vt 0.277384 -0.066368
vn -0.288500 -0.531400 0.796500
vn -0.541800 0.761800 -0.355100
vn 0.588800 -0.728000 -0.351200
vn 0.974200 0.101300 0.201800
vn -0.380400 -0.204200 -0.902000
vn -0.131400 -0.958400 0.253200
vn -0.959100 0.132200 0.250300
vn -0.496400 -0.615600 -0.612100
vn 0.050600 0.911600 0.407900
vn -0.701300 0.328800 0.632500
vn 0.591400 0.132200 -0.795500
vn 0.892500 0.443800 0.080700
vn 0.355400 -0.366500 0.859900
vn 0.496400 0.615600 0.612100
vn -0.266400 -0.441700 -0.856700
vn 0.701300 -0.328800 -0.632500
vn 0.297500 0.551900 0.779000
vn -0.591400 -0.132200 0.795500
vn 0.849200 0.328800 -0.413300
vn -0.126300 0.761800 -0.635300
vn 0.288500 0.531400 -0.796500
vn -0.546200 -0.728000 0.414400
vn -0.284000 0.958400 0.027000
vn -0.175900 0.740400 0.648800
vn 0.126300 -0.761800 0.635300
vn 0.846600 -0.531400 0.030900
vn 0.284000 -0.958400 -0.027000
vn 0.259500 -0.443800 -0.857700
vn -0.849200 -0.328800 0.413300
vn -0.974200 -0.101300 -0.201800
vn 0.664100 -0.366500 0.651700
vn 0.541800 -0.761800 0.355100
vn 0.694500 0.441700 0.567900
vn -0.609600 -0.140600 -0.780100
vn -0.724900 -0.314400 -0.612900
vn -0.892500 -0.443800 -0.080700
vn -0.359300 -0.911600 -0.199700
vn 0.359300 0.911600 0.199700
vn -0.047300 0.195200 -0.979600
vn -0.664100 0.366500 -0.651700
vn 0.609600 0.140600 0.780100
vn 0.380400 0.204200 0.902000
vn 0.959100 -0.132200 -0.250300
vn -0.588800 0.728000 0.351200
vn -0.050600 -0.911600 -0.407900
vn -0.177800 0.101300 0.978800
vn 0.047300 -0.195200 0.979600
vn -0.846600 0.531400 -0.030900
vn 0.546200 0.728000 -0.414400
vn 0.131400 0.958400 -0.253200
vn 0.177800 -0.101300 -0.978800
vn 0.890600 -0.195200 0.410800
vn -0.355400 0.366500 -0.859900
vn -0.667400 -0.740400 -0.080000
vn 0.175900 -0.740400 -0.648800
vn 0.667400 0.740400 0.080000
vn -0.890600 0.195200 -0.410800
vn -0.259500 0.443800 0.857700
vn 0.724900 0.314400 0.612900
vn -0.381600 -0.615600 -0.689500
vn 0.296800 0.314400 0.901700
vn -0.694500 -0.441700 -0.567900
vn -0.296800 -0.314400 -0.901700
vn -0.610900 -0.551900 -0.567600
vn 0.693800 0.204200 0.690600
vn 0.381600 0.615600 0.689500
vn -0.297500 -0.551900 -0.779000
vn 0.494900 0.140600 0.857500
vn 0.266400 0.441700 0.856700
vn -0.693800 -0.204200 -0.690600
vn -0.494900 -0.140600 -0.857500
vn 0.610900 0.551900 0.567600
usemtl ITMISC_01
s off
f 32/1/1 31/2/1 19/3/1
f 2/4/2 42/5/2 35/6/2
f 37/7/3 45/8/3 4/9/3
f 49/10/4 40/8/4 33/11/4
f 23/12/5 26/13/5 53/14/5
f 19/3/6 43/15/6 30/16/6
f 36/17/7 47/18/7 6/19/7
f 23/12/8 1/20/8 54/21/8
f 56/22/9 44/5/9 29/6/9
f 16/18/10 36/17/10 14/23/10
f 28/24/11 39/25/11 8/26/11
f 9/27/12 33/11/12 46/25/12
f 58/21/13 41/15/13 3/16/13
f 22/12/14 25/13/14 56/22/14
f 23/12/15 10/27/15 57/10/15
f 4/9/16 45/8/16 34/11/16
f 22/12/17 7/28/17 59/29/17
f 48/19/18 31/2/18 32/1/18
f 33/11/19 8/26/19 46/25/19
f 38/30/20 42/5/20 2/4/20
f 8/26/21 39/25/21 13/31/21
f 8/26/21 13/31/21 38/30/21
f 36/17/7 6/19/7 14/23/7
f 31/2/22 43/15/22 19/3/22
f 44/5/23 2/4/23 15/32/23
f 2/4/2 35/6/2 15/32/2
f 7/28/24 29/6/24 16/18/24
f 7/28/24 16/18/24 59/29/24
f 41/15/25 17/33/25 3/16/25
f 21/34/26 37/7/26 4/9/26
f 17/33/27 30/16/27 18/34/27
f 45/8/28 57/10/28 10/27/28
f 41/15/25 19/3/25 17/33/25
f 19/3/6 30/16/6 17/33/6
f 14/23/29 6/19/29 20/1/29
f 47/18/30 52/35/30 6/19/30
f 27/20/31 3/16/31 21/34/31
f 3/16/32 37/7/32 21/34/32
f 22/12/33 9/27/33 62/14/33
f 27/20/31 21/34/31 55/36/31
f 23/12/34 5/28/34 61/22/34
f 23/12/35 52/35/35 60/29/35
f 6/19/36 24/37/36 20/1/36
f 43/15/37 54/21/37 1/20/37
f 25/13/38 44/5/38 56/22/38
f 9/27/12 46/25/12 62/14/12
f 39/25/39 26/13/39 13/31/39
f 42/5/40 61/22/40 5/28/40
f 22/12/41 27/20/41 55/36/41
f 22/12/42 11/37/42 58/21/42
f 40/8/43 4/9/43 28/24/43
f 4/9/16 34/11/16 28/24/16
f 44/5/23 15/32/23 29/6/23
f 29/6/44 36/17/44 16/18/44
f 43/15/37 1/20/37 30/16/37
f 30/16/45 50/36/45 18/34/45
f 48/19/18 14/23/18 31/2/18
f 14/23/29 20/1/29 31/2/29
f 51/35/46 48/19/46 32/1/46
f 11/37/47 41/15/47 58/21/47
f 40/8/43 28/24/43 33/11/43
f 33/11/19 28/24/19 8/26/19
f 45/8/28 10/27/28 34/11/28
f 39/25/39 53/14/39 26/13/39
f 42/5/40 5/28/40 35/6/40
f 47/18/30 60/29/30 52/35/30
f 29/6/44 15/32/44 36/17/44
f 15/32/48 47/18/48 36/17/48
f 3/16/32 17/33/32 37/7/32
f 17/33/27 18/34/27 37/7/27
f 46/25/49 8/26/49 38/30/49
f 12/31/50 38/30/50 2/4/50
f 28/24/11 34/11/11 39/25/11
f 34/11/51 53/14/51 39/25/51
f 55/36/52 21/34/52 40/8/52
f 21/34/26 4/9/26 40/8/26
f 11/37/47 32/1/47 41/15/47
f 32/1/1 19/3/1 41/15/1
f 38/30/20 13/31/20 42/5/20
f 13/31/53 61/22/53 42/5/53
f 31/2/22 20/1/22 43/15/22
f 20/1/54 54/21/54 43/15/54
f 25/13/38 12/31/38 44/5/38
f 12/31/50 2/4/50 44/5/50
f 37/7/3 18/34/3 45/8/3
f 18/34/55 57/10/55 45/8/55
f 62/14/56 46/25/56 12/31/56
f 46/25/49 38/30/49 12/31/49
f 15/32/48 35/6/48 47/18/48
f 35/6/57 60/29/57 47/18/57
f 59/29/58 16/18/58 48/19/58
f 16/18/10 14/23/10 48/19/10
f 22/12/59 49/10/59 9/27/59
f 49/10/4 33/11/4 9/27/4
f 30/16/45 1/20/45 50/36/45
f 23/12/60 50/36/60 1/20/60
f 22/12/61 51/35/61 11/37/61
f 51/35/46 32/1/46 11/37/46
f 6/19/36 52/35/36 24/37/36
f 23/12/62 24/37/62 52/35/62
f 34/11/51 10/27/51 53/14/51
f 23/12/63 53/14/63 10/27/63
f 20/1/54 24/37/54 54/21/54
f 23/12/64 54/21/64 24/37/64
f 22/12/65 55/36/65 49/10/65
f 55/36/52 40/8/52 49/10/52
f 22/12/66 56/22/66 7/28/66
f 56/22/9 29/6/9 7/28/9
f 18/34/55 50/36/55 57/10/55
f 23/12/67 57/10/67 50/36/67
f 22/12/68 58/21/68 27/20/68
f 58/21/13 3/16/13 27/20/13
f 22/12/69 59/29/69 51/35/69
f 59/29/58 48/19/58 51/35/58
f 35/6/57 5/28/57 60/29/57
f 23/12/70 60/29/70 5/28/70
f 13/31/53 26/13/53 61/22/53
f 23/12/71 61/22/71 26/13/71
f 22/12/72 62/14/72 25/13/72
f 62/14/56 12/31/56 25/13/56
