# Blender v2.75 (sub 0) OBJ File: 'Empty.blend'
# www.blender.org
mtllib ITMI_PORTALRING_01.mtl
o ITMI_PORTALRING_01
v 0.041774 1.184317 0.299712
v -0.086603 1.215683 0.273831
v -0.086603 1.215683 0.373831
v -0.000000 1.215683 0.423831
v 0.086603 1.215683 0.373831
v 0.024118 1.184317 0.365604
v 0.086603 1.215683 0.273831
v 0.000000 1.184317 0.275594
v -0.050000 1.184317 0.237228
v -0.086603 1.184317 0.373831
v -0.000000 1.184317 0.423831
v 0.086603 1.184317 0.373831
v -0.041774 1.184317 0.347949
v 0.041774 1.215683 0.299712
v 0.024118 1.215683 0.365604
v 0.000000 1.215683 0.275594
v 0.050000 1.215683 0.237228
v 0.050000 1.184317 0.237228
v 0.100000 1.184317 0.323831
v -0.041774 1.184317 0.299712
v -0.041774 1.215683 0.299712
v -0.024118 1.215683 0.365604
v 0.050000 1.184317 0.410433
v -0.086603 1.184317 0.273831
v -0.050000 1.215683 0.237228
v 0.041774 1.215683 0.347949
v -0.041774 1.215683 0.347949
v 0.041774 1.184317 0.347949
v -0.024118 1.184317 0.365604
v 0.100000 1.215683 0.323831
v -0.100000 1.215683 0.323831
v -0.100000 1.184317 0.323831
v 0.000000 1.184317 0.223831
v 0.086603 1.184317 0.273831
v 0.000000 1.215683 0.223831
v -0.050000 1.184317 0.410433
v -0.050000 1.215683 0.410433
v 0.050000 1.215683 0.410433
v 0.024118 1.215683 0.282057
v -0.024118 1.184317 0.282057
v -0.024118 1.215683 0.282057
v 0.048236 1.184317 0.323831
v 0.048236 1.215683 0.323830
v -0.048236 1.215683 0.323830
v -0.048236 1.184317 0.323831
v 0.024118 1.184317 0.282057
v 0.000000 1.215683 0.372067
v 0.000000 1.184317 0.372067
vt 0.116336 -0.288816
vt 0.075140 -0.517308
vt 0.304741 -0.501741
vt 0.308836 -0.885475
vt 0.526984 -0.943509
vt 0.516276 -0.698262
vt 0.750626 -0.873576
vt 0.619303 -0.672173
vt 0.903973 -0.700432
vt 0.713242 -0.483906
vt 0.952545 -0.479000
vt 0.327379 -0.388603
vt 0.398680 -0.306092
vt 0.267839 -0.115752
vt 0.527783 -0.122031
vt 0.437045 -0.050116
vt 0.445918 -0.121348
vt 0.681151 -0.373157
vt 0.709791 -0.107541
vt 0.494404 -0.281847
vt 0.484099 -0.045820
vt 0.602930 -0.297174
vt 0.527783 -0.046703
vt 0.415052 -0.681090
vt 0.881011 -0.259125
vt 0.336832 -0.605108
vt 0.690604 -0.589662
vt 0.139460 -0.733811
vn 0.000000 1.000000 0.000000
vn 0.000000 -1.000000 0.000000
vn 0.707100 0.000000 0.707100
vn -0.258800 0.000000 -0.965900
vn -0.965900 0.000000 -0.258800
vn -0.258800 0.000000 0.965900
vn 0.258800 0.000000 0.965900
vn 0.965900 0.000000 0.258800
vn -0.965900 0.000000 0.258800
vn 0.258800 0.000000 -0.965900
vn 0.707100 -0.000000 -0.707100
vn 0.965900 0.000000 -0.258800
vn -0.707100 0.000000 -0.707100
vn -0.707100 0.000000 0.707100
usemtl NW_SEQ_MAYA_ORNAMENT_RED_04
s off
f 2/1/1 31/2/1 44/3/1
f 24/1/2 45/3/2 32/2/2
f 37/4/1 4/5/1 47/6/1
f 36/4/2 48/6/2 11/5/2
f 4/5/1 38/7/1 15/8/1
f 11/5/2 6/8/2 23/7/2
f 12/9/2 42/10/2 19/11/2
f 5/9/1 30/11/1 43/10/1
f 21/12/1 41/13/1 25/14/1
f 40/15/3 21/16/3 20/17/3
f 14/18/1 43/10/1 30/11/1
f 1/18/2 19/11/2 42/10/2
f 18/19/2 8/20/2 33/21/2
f 35/21/1 25/14/1 41/13/1
f 8/20/2 18/19/2 46/22/2
f 16/20/1 39/22/1 17/19/1
f 25/23/4 35/16/4 33/17/4
f 31/23/5 2/16/5 24/17/5
f 4/16/6 37/23/6 36/15/6
f 31/23/5 24/17/5 32/15/5
f 38/23/7 4/16/7 11/17/7
f 4/16/6 36/15/6 11/17/6
f 30/23/8 5/16/8 12/17/8
f 38/23/7 11/17/7 23/15/7
f 48/6/2 36/4/2 29/24/2
f 47/6/1 22/24/1 37/4/1
f 42/15/9 14/16/9 1/17/9
f 39/23/6 16/16/6 46/15/6
f 29/15/10 47/16/10 48/17/10
f 43/23/9 14/16/9 42/15/9
f 46/15/6 16/16/6 8/17/6
f 41/23/3 21/16/3 40/15/3
f 7/25/1 17/19/1 39/22/1
f 35/16/10 18/15/10 33/17/10
f 17/23/11 34/17/11 18/15/11
f 34/25/2 46/22/2 18/19/2
f 30/23/8 12/17/8 19/15/8
f 17/23/11 7/16/11 34/17/11
f 45/3/2 24/1/2 20/12/2
f 20/12/2 9/14/2 40/13/2
f 20/17/8 44/23/8 45/15/8
f 27/26/1 44/3/1 31/2/1
f 22/23/10 47/16/10 29/15/10
f 44/23/12 27/16/12 45/15/12
f 5/16/3 23/15/3 12/17/3
f 23/7/2 28/27/2 12/9/2
f 2/16/13 9/15/13 24/17/13
f 9/14/2 20/12/2 24/1/2
f 2/16/13 25/23/13 9/15/13
f 25/14/1 2/1/1 21/12/1
f 26/27/1 15/8/1 38/7/1
f 15/23/13 26/16/13 6/15/13
f 22/24/1 27/26/1 3/28/1
f 27/16/11 22/23/11 13/17/11
f 28/27/2 23/7/2 6/8/2
f 6/15/13 26/16/13 28/17/13
f 29/24/2 10/28/2 13/26/2
f 13/17/11 22/23/11 29/15/11
f 7/16/12 30/23/12 19/15/12
f 30/11/1 7/25/1 14/18/1
f 3/16/9 31/23/9 32/15/9
f 31/2/1 3/28/1 27/26/1
f 3/16/9 32/15/9 10/17/9
f 32/2/2 13/26/2 10/28/2
f 25/23/4 33/17/4 9/15/4
f 33/21/2 40/13/2 9/14/2
f 7/16/12 19/15/12 34/17/12
f 19/11/2 1/18/2 34/25/2
f 35/16/10 17/23/10 18/15/10
f 17/19/1 35/21/1 16/20/1
f 37/23/14 10/17/14 36/15/14
f 10/28/2 29/24/2 36/4/2
f 37/23/14 3/16/14 10/17/14
f 3/28/1 37/4/1 22/24/1
f 5/16/3 38/23/3 23/15/3
f 38/7/1 5/9/1 26/27/1
f 39/22/1 14/18/1 7/25/1
f 14/16/14 39/23/14 1/17/14
f 40/13/2 33/21/2 8/20/2
f 8/17/7 41/23/7 40/15/7
f 41/13/1 16/20/1 35/21/1
f 16/16/7 41/23/7 8/17/7
f 42/10/2 12/9/2 28/27/2
f 28/17/5 43/23/5 42/15/5
f 43/10/1 26/27/1 5/9/1
f 26/16/5 43/23/5 28/17/5
f 44/3/1 21/12/1 2/1/1
f 21/16/8 44/23/8 20/17/8
f 13/26/2 32/2/2 45/3/2
f 45/15/12 27/16/12 13/17/12
f 46/22/2 34/25/2 1/18/2
f 1/17/14 39/23/14 46/15/14
f 15/8/1 47/6/1 4/5/1
f 47/16/4 15/23/4 48/17/4
f 6/8/2 11/5/2 48/6/2
f 48/17/4 15/23/4 6/15/4
