# Blender v2.75 (sub 0) OBJ File: 'Empty.blend'
# www.blender.org
mtllib ITMI_PORTALRING_03.mtl
o ITMI_PORTALRING_03
v 0.000000 1.184317 0.275594
v -0.086603 1.184317 0.273831
v -0.100000 1.184317 0.323831
v 0.000000 1.184317 0.223831
v -0.100000 1.215683 0.323831
v -0.000000 1.215683 0.223831
v -0.048236 1.215683 0.323831
v -0.086603 1.215683 0.273831
v -0.048236 1.184317 0.323831
v -0.000000 1.215683 0.275594
v -0.024118 1.184317 0.282057
v -0.024118 1.215683 0.282057
v -0.050000 1.184317 0.237228
v -0.050000 1.215683 0.237228
v -0.041774 1.184317 0.299712
v -0.041774 1.215683 0.299712
vt 0.304741 -0.501741
vt 0.116336 -0.288816
vt 0.327379 -0.388603
vt 0.437045 -0.050116
vt 0.527783 -0.122031
vt 0.445918 -0.121348
vt 0.267839 -0.115752
vt 0.527783 -0.046703
vt -0.076045 -0.087013
vt 0.097952 -0.087013
vt 0.097952 0.066676
vt 0.100257 0.066676
vt -0.084296 0.066676
vt -0.084296 -0.087013
vt 0.075140 -0.517308
vt 0.100257 -0.087013
vt -0.076045 0.066676
vt 0.398680 -0.306092
vt 0.484099 -0.045820
vt 0.494404 -0.281847
vn 0.000000 -1.000000 0.000000
vn -0.707100 0.000000 -0.707100
vn 0.965900 0.000000 0.258800
vn -0.965900 0.000000 -0.258800
vn 1.000000 0.000000 -0.000000
vn 0.000000 1.000000 0.000000
vn 0.000000 0.000000 1.000000
vn 0.258800 0.000000 0.965900
vn -0.258800 0.000000 -0.965900
vn 0.707100 0.000000 0.707100
usemtl NW_SEQ_MAYA_ORNAMENT_RED_04
s off
f 9/1/1 2/2/1 15/3/1
f 8/4/2 13/5/2 2/6/2
f 13/7/1 15/3/1 2/2/1
f 16/4/3 7/8/3 15/6/3
f 5/8/4 2/6/4 3/5/4
f 15/6/3 7/8/3 9/5/3
f 1/9/5 4/10/5 6/11/5
f 8/4/2 14/8/2 13/5/2
f 7/1/6 16/3/6 8/2/6
f 7/12/7 5/13/7 3/14/7
f 5/8/4 8/4/4 2/6/4
f 8/2/6 5/15/6 7/1/6
f 2/2/1 9/1/1 3/15/1
f 3/14/7 9/16/7 7/12/7
f 6/11/5 10/17/5 1/9/5
f 14/7/6 8/2/6 16/3/6
f 11/18/1 4/19/1 1/20/1
f 1/6/8 12/8/8 11/5/8
f 12/18/6 10/20/6 6/19/6
f 10/4/8 12/8/8 1/6/8
f 14/8/9 4/6/9 13/5/9
f 4/19/1 11/18/1 13/7/1
f 14/8/9 6/4/9 4/6/9
f 6/19/6 14/7/6 12/18/6
f 15/3/1 13/7/1 11/18/1
f 11/5/10 16/4/10 15/6/10
f 16/3/6 12/18/6 14/7/6
f 12/8/10 16/4/10 11/5/10
