# Blender v2.75 (sub 0) OBJ File: 'Empty.blend'
# www.blender.org
mtllib ITMW_035_2H_AXE_LIGHT_03.mtl
o ITMW_035_2H_AXE_LIGHT_03
v -0.514754 0.000000 0.215807
v -0.688127 0.000000 0.117615
v -0.343697 0.000000 0.180602
v -0.440724 0.006474 0.091235
v -0.564512 0.005000 0.113219
v -0.283780 0.000000 0.091104
v -0.620271 0.000000 0.183155
v -0.490652 -0.009015 0.006221
v -0.559122 0.009015 -0.008333
v -0.406817 0.000000 0.208434
v -0.630904 -0.005000 0.088884
v -0.683355 0.005000 0.047065
v -0.486261 0.005000 0.129852
v -0.543117 0.000000 -0.001120
v -0.569482 0.000000 -0.163588
v -0.470518 0.000000 -0.163588
v -0.519511 0.000000 -0.054152
v -0.496883 0.000000 -0.001120
v -0.418063 0.005000 0.165150
v -0.552104 0.000000 -0.022288
v -0.675182 0.000000 0.000000
v -0.552104 0.000000 0.022288
v -0.569840 -0.008500 -0.027000
v -0.366152 -0.013500 0.000000
v -0.583736 0.016200 0.000000
v -0.503020 -0.000000 -0.018358
v 0.339300 -0.000000 -0.018539
v -0.503020 -0.000000 0.018497
v 0.339300 -0.000000 0.018258
v -0.710620 0.000000 0.031046
v -0.418063 -0.005000 0.165150
v -0.478904 -0.008500 -0.027000
v -0.569840 -0.011000 0.027000
v -0.490652 0.009015 0.006221
v -0.523495 -0.005854 0.091775
v -0.559122 -0.009015 -0.008333
v -0.366152 0.013500 0.000000
v -0.569840 0.008500 0.027000
v -0.683355 -0.005000 0.047065
v -0.583736 -0.016200 0.000000
v -0.549949 0.007270 0.044703
v 0.339300 -0.011608 0.000089
v -0.503020 0.011340 0.000069
v -0.503020 -0.011340 0.000069
v -0.478904 -0.011000 0.027000
v 0.339300 0.011319 0.000089
v -0.569840 0.007500 -0.027000
v -0.479400 -0.007619 0.049481
v -0.564512 -0.005000 0.113219
v -0.486261 -0.005000 0.129852
v -0.389911 -0.005000 0.109439
v -0.389911 0.005000 0.109439
v -0.440724 -0.006474 0.091235
v -0.479400 0.007619 0.049481
v -0.519303 -0.007200 -0.007636
v -0.519303 0.007200 -0.007636
v -0.552104 -0.007200 0.000000
v -0.552104 0.007200 0.000000
v -0.630904 0.005000 0.088884
v -0.549949 -0.007270 0.044703
v -0.478904 0.008500 0.027000
v -0.478904 0.007500 -0.027000
v -0.523495 0.005854 0.091775
v -0.327064 -0.005000 0.102350
v -0.327064 0.005000 0.102350
v -0.654625 0.005000 0.104289
v -0.654625 -0.005000 0.104289
v -0.592392 0.005000 0.148187
v -0.592392 -0.005000 0.148187
v -0.366804 0.005000 0.145020
v -0.366804 -0.005000 0.145020
v -0.058750 -0.011608 0.000089
v -0.486680 -0.016200 0.000000
v -0.486680 0.016200 0.000000
v -0.504358 0.005000 0.166899
v -0.504358 -0.005000 0.166899
v -0.135075 -0.000000 -0.018358
v -0.135075 -0.000000 0.018497
v -0.058750 0.011319 0.000089
v -0.135075 -0.011340 0.000069
v -0.058750 -0.000000 0.018258
v -0.058750 -0.000000 -0.018539
v -0.135075 0.011340 0.000069
vt 0.746050 -0.647310
vt 0.769403 -0.644654
vt 0.769404 -0.597573
vt 0.790981 -0.605910
vt 0.813794 -0.692715
vt 0.769433 -0.722264
vt 0.769417 -0.700691
vt 0.788445 -0.647760
vt 0.769408 -0.679815
vt 0.746062 -0.692403
vt 0.746081 -0.717978
vt 0.746057 -0.589235
vt 0.810652 -0.622998
vt 0.845194 -0.638276
vt 0.840366 -0.602188
vt 0.746084 -0.544729
vt 0.769415 -0.559360
vt 0.800250 -0.568760
vt 0.820594 -0.664350
vt 0.749138 -0.747202
vt 0.798744 -0.739176
vt 0.753971 -0.523573
vt 0.762951 -0.678393
vt 0.747217 -0.554976
vt 0.805255 -0.677415
vt 0.160913 -0.751027
vt 0.160474 -0.809564
vt 0.130957 -0.811907
vt 0.746125 -0.519554
vt 0.769432 -0.535779
vt 0.160474 -0.751720
vt 0.130957 -0.739714
vt 0.876230 -0.589071
vt 0.874011 -0.625689
vt 0.746130 -0.749110
vt 0.794756 -0.917856
vt 0.772144 0.274614
vt 0.794756 0.274614
vt 0.817368 0.274614
vt 0.817368 -0.917856
vt 0.225610 -0.236685
vt 0.199429 -0.236685
vt 0.173892 -0.004171
vt 0.199429 -0.004171
vt 0.173892 -0.236685
vt 0.225610 -0.004171
vt 0.772144 -0.917856
vt 0.794732 -1.008506
vt 0.772437 -1.008506
vt 0.817589 -1.008506
vn -0.020700 0.995000 0.097300
vn 0.000000 1.000000 -0.000000
vn 0.000000 -1.000000 0.000000
vn -0.020700 -0.995000 0.097300
vn 0.007700 -0.993600 0.112800
vn 0.088200 -0.992700 0.082200
vn -0.035200 -0.992900 0.113900
vn -0.035200 0.992900 0.113900
vn -0.007300 0.999400 0.034100
vn -0.007300 -0.999400 0.034100
vn 0.047800 -0.992900 0.108500
vn 0.088200 0.992700 0.082200
vn -0.104500 -0.988600 0.108200
vn -0.104500 0.988600 0.108200
vn 0.344200 0.000000 -0.938900
vn -0.320500 0.936300 -0.143500
vn -0.320500 -0.936300 -0.143500
vn 0.320400 0.935900 -0.146300
vn 0.320400 -0.935900 -0.146300
vn -0.277800 0.959600 0.045100
vn -0.277800 -0.959600 0.045100
vn 0.007700 0.993600 0.112800
vn 0.047800 0.992900 0.108500
vn -0.055600 0.950100 -0.306900
vn -0.055600 -0.950100 -0.306900
vn 0.021400 0.953400 -0.301000
vn 0.021600 -0.963100 -0.268400
vn -0.211200 -0.975900 0.054900
vn -0.211200 0.975900 0.054900
vn 0.000000 -0.961700 -0.274300
vn 0.232900 0.000000 -0.972500
vn -0.889200 0.000000 -0.457600
vn 0.021600 0.963100 0.268400
vn 0.733600 0.000000 -0.679600
vn -0.871800 0.000000 0.489900
vn -0.007300 -0.999500 0.029500
vn 0.232900 0.000000 0.972500
vn -0.889200 0.000000 0.457600
vn 0.506600 0.000000 -0.862200
vn 0.623400 0.000000 -0.781900
vn 0.022000 -0.982900 0.183000
vn -0.985400 0.000000 0.170400
vn 0.000000 -0.982000 0.189100
vn 0.000000 0.000000 1.000000
vn 0.000000 0.000000 -1.000000
vn 0.967800 0.000000 -0.251700
vn 0.207900 0.000000 -0.978100
vn -0.715000 0.000000 0.699100
vn -0.112100 0.000000 -0.993700
vn 0.337300 0.000000 -0.941400
vn 0.010800 0.998700 0.050800
vn 0.010800 -0.998700 0.050800
vn 0.292900 -0.955000 0.047500
vn 0.292900 0.955000 0.047500
vn -0.055600 -0.950100 0.306900
vn -0.055600 0.950100 0.306900
vn 0.000000 0.961700 0.274300
vn 0.000000 0.951800 -0.306700
vn -0.007300 0.999500 0.029500
vn 0.137900 -0.986100 0.092300
vn -0.251500 0.000000 -0.967900
vn 0.137900 0.986100 0.092300
vn -0.123200 0.990500 0.061900
vn -0.123200 -0.990500 0.061900
vn -0.064200 0.993800 0.091000
vn -0.064200 -0.993800 0.091000
vn 0.040900 0.993700 0.104200
vn 0.040900 -0.993700 0.104200
vn 0.002100 0.994800 0.102100
vn 0.002100 -0.994800 0.102100
vn 0.000000 -0.851700 0.524100
vn 0.000000 0.851700 -0.524100
vn 0.000000 -0.851700 -0.524100
vn 1.000000 -0.000000 0.000000
vn 0.000000 -0.842700 0.538400
vn 0.000000 0.851700 0.524100
vn 0.000000 0.848800 0.528800
vn 0.000000 -0.848700 -0.528900
vn 0.000000 0.854600 -0.519300
vn -0.002900 -0.851700 -0.524100
vn -0.003100 -0.851700 0.524100
vn 0.001700 0.848800 0.528800
vn 0.001700 -0.842700 0.538400
vn -0.001200 0.854600 -0.519300
vn -0.001200 -0.848700 -0.528900
vn 0.000100 0.851700 0.524100
vn 0.000400 0.851700 -0.524100
usemtl ITMELEEBLADES
s off
f 1/1/1 75/2/1 68/3/1
f 5/4/2 68/3/2 75/2/2
f 51/5/3 64/6/3 71/7/3
f 5/4/2 75/2/2 13/8/2
f 1/1/4 69/3/4 76/2/4
f 1/1/5 31/9/5 10/10/5
f 52/5/2 70/7/2 65/6/2
f 3/11/6 71/7/6 64/6/6
f 1/1/7 7/12/7 69/3/7
f 1/1/8 68/3/8 7/12/8
f 63/13/9 54/14/9 41/15/9
f 35/13/10 60/15/10 48/14/10
f 10/10/11 71/7/11 3/11/11
f 3/11/12 65/6/12 70/7/12
f 7/12/13 2/16/13 67/17/13
f 7/12/14 66/17/14 2/16/14
f 5/4/15 11/18/15 59/18/15
f 11/18/3 49/4/3 69/3/3
f 13/8/2 19/9/2 52/5/2
f 63/13/9 4/19/9 54/14/9
f 50/8/3 51/5/3 31/9/3
f 35/13/10 48/14/10 53/19/10
f 17/20/16 56/21/16 16/22/16
f 16/22/17 55/21/17 17/20/17
f 17/20/18 15/22/18 56/21/18
f 15/22/19 17/20/19 55/21/19
f 15/22/20 14/20/20 56/21/20
f 55/21/21 14/20/21 15/22/21
f 1/1/22 10/10/22 19/9/22
f 10/10/23 3/11/23 70/7/23
f 20/23/24 21/24/24 58/25/24
f 21/24/25 20/23/25 57/25/25
f 37/26/26 62/27/26 74/28/26
f 24/26/27 73/28/27 32/27/27
f 2/16/28 30/29/28 39/30/28
f 2/16/29 12/30/29 30/29/29
f 49/4/3 76/2/3 69/3/3
f 49/4/3 50/8/3 76/2/3
f 32/27/30 73/28/30 23/31/30
f 62/27/31 37/26/31 32/27/31
f 40/32/32 25/32/32 23/31/32
f 37/26/33 74/28/33 61/27/33
f 4/19/34 48/14/34 54/14/34
f 41/15/35 35/13/35 63/13/35
f 53/19/36 50/8/36 35/13/36
f 35/13/35 41/15/35 60/15/35
f 24/26/31 32/27/31 37/26/31
f 24/26/37 37/26/37 45/27/37
f 25/32/38 40/32/38 38/31/38
f 61/27/37 45/27/37 37/26/37
f 39/30/39 30/29/39 12/30/39
f 39/30/40 59/18/40 11/18/40
f 33/31/38 38/31/38 40/32/38
f 24/26/41 45/27/41 73/28/41
f 9/33/42 60/15/42 41/15/42
f 41/15/9 34/34/9 9/33/9
f 33/31/43 73/28/43 45/27/43
f 33/31/44 45/27/44 38/31/44
f 47/31/32 23/31/32 25/32/32
f 23/31/45 62/27/45 32/27/45
f 8/34/46 54/14/46 48/14/46
f 8/34/10 48/14/10 60/15/10
f 11/18/15 5/4/15 49/4/15
f 5/4/47 50/8/47 49/4/47
f 50/8/47 5/4/47 13/8/47
f 50/8/48 63/13/48 35/13/48
f 65/6/49 51/5/49 52/5/49
f 48/14/34 4/19/34 53/19/34
f 52/5/50 53/19/50 4/19/50
f 4/19/51 13/8/51 52/5/51
f 53/19/50 52/5/50 51/5/50
f 53/19/52 51/5/52 50/8/52
f 54/14/46 8/34/46 34/34/46
f 34/34/9 41/15/9 54/14/9
f 55/21/53 16/22/53 18/20/53
f 16/22/54 56/21/54 18/20/54
f 57/25/55 22/23/55 21/24/55
f 21/24/56 22/23/56 58/25/56
f 59/18/40 39/30/40 12/30/40
f 59/18/2 68/3/2 5/4/2
f 60/15/42 9/33/42 36/33/42
f 60/15/10 36/33/10 8/34/10
f 61/27/57 74/28/57 38/31/57
f 38/31/44 45/27/44 61/27/44
f 47/31/58 74/28/58 62/27/58
f 47/31/45 62/27/45 23/31/45
f 63/13/48 50/8/48 13/8/48
f 4/19/59 63/13/59 13/8/59
f 51/5/49 65/6/49 64/6/49
f 3/11/60 64/6/60 6/35/60
f 6/35/61 64/6/61 65/6/61
f 3/11/62 6/35/62 65/6/62
f 66/17/2 59/18/2 12/30/2
f 2/16/63 66/17/63 12/30/63
f 67/17/3 39/30/3 11/18/3
f 2/16/64 39/30/64 67/17/64
f 59/18/2 66/17/2 68/3/2
f 7/12/65 68/3/65 66/17/65
f 11/18/3 69/3/3 67/17/3
f 7/12/66 67/17/66 69/3/66
f 52/5/2 19/9/2 70/7/2
f 10/10/67 70/7/67 19/9/67
f 51/5/3 71/7/3 31/9/3
f 10/10/68 31/9/68 71/7/68
f 40/32/43 73/28/43 33/31/43
f 40/32/30 23/31/30 73/28/30
f 25/32/58 74/28/58 47/31/58
f 25/32/57 38/31/57 74/28/57
f 13/8/2 75/2/2 19/9/2
f 1/1/69 19/9/69 75/2/69
f 50/8/3 31/9/3 76/2/3
f 1/1/70 76/2/70 31/9/70
usemtl ITMELEEREST
f 80/36/71 28/37/71 44/38/71
f 26/39/72 43/38/72 77/40/72
f 83/36/72 77/40/72 43/38/72
f 44/38/73 77/40/73 80/36/73
f 27/41/74 46/42/74 42/42/74
f 81/43/75 72/44/75 29/45/75
f 43/38/76 28/37/76 83/36/76
f 77/40/73 44/38/73 26/39/73
f 29/45/77 46/42/77 81/43/77
f 29/45/74 42/42/74 46/42/74
f 72/44/78 82/46/78 42/42/78
f 42/42/75 29/45/75 72/44/75
f 27/41/78 42/42/78 82/46/78
f 82/46/79 79/44/79 27/41/79
f 28/37/71 80/36/71 78/47/71
f 78/47/76 83/36/76 28/37/76
f 79/44/77 81/43/77 46/42/77
f 46/42/79 27/41/79 79/44/79
f 80/36/80 77/40/80 72/48/80
f 78/47/81 80/36/81 72/48/81
f 81/49/82 79/48/82 78/47/82
f 81/49/83 78/47/83 72/48/83
f 82/50/84 77/40/84 79/48/84
f 82/50/85 72/48/85 77/40/85
f 83/36/86 78/47/86 79/48/86
f 77/40/87 83/36/87 79/48/87
