# Blender v2.75 (sub 0) OBJ File: 'Empty.blend'
# www.blender.org
mtllib ITMW_012_1H_KNIFE_02.mtl
o ITMW_012_1H_KNIFE_02
v 0.001010 0.007613 0.034070
v -0.279392 0.000010 0.006219
v -0.005990 0.008330 -0.022010
v 0.169010 0.000010 0.094990
v 0.154010 0.000010 0.044990
v 0.028010 0.000010 0.076990
v -0.019462 0.000010 0.086434
v -0.005990 -0.020790 -0.035010
v -0.005990 0.020810 -0.035010
v 0.146010 0.014570 -0.016010
v 0.120010 -0.008310 0.064990
v -0.302021 0.000010 -0.014010
v 0.012010 -0.008310 0.054990
v 0.147010 0.000427 0.013990
v -0.001315 0.005574 -0.010073
v -0.001315 0.000427 0.013990
v 0.147010 -0.004721 -0.009635
v -0.005990 -0.008310 0.019990
v 0.146010 -0.014550 -0.016010
v 0.075010 -0.008310 0.090990
v 0.135010 -0.008310 0.056990
v 0.012010 0.008330 0.054990
v -0.005990 0.008330 0.019990
v 0.001010 -0.007593 0.034070
v 0.135010 0.008330 0.056990
v -0.005990 -0.008310 -0.022010
v 0.075010 0.008330 0.090990
v 0.147010 0.005574 -0.009635
v -0.001315 -0.004721 -0.010073
v -0.005922 0.008330 0.068524
v -0.005922 -0.008310 0.068524
v 0.075010 0.000010 0.108990
v 0.120010 0.000010 0.076990
v -0.028990 0.000010 0.034990
v 0.000010 -0.020790 -0.035010
v 0.000010 0.020810 -0.035010
v 0.000010 0.000010 -0.039744
v 0.152010 -0.008310 0.074990
v -0.001315 0.000427 -0.013510
v 0.146010 -0.012470 0.021990
v 0.150010 -0.014550 -0.016010
v 0.150010 0.014570 -0.016010
v 0.147010 0.000427 -0.013010
v 0.146010 0.012490 0.021990
v 0.152010 0.008330 0.074990
v 0.120010 0.008330 0.064990
v 0.147010 -0.004721 0.010615
v 0.147010 0.005574 0.010615
v -0.001315 -0.004721 0.010552
v -0.001315 0.005574 0.010552
v 0.150010 -0.012470 0.021990
v 0.150010 0.012490 0.021990
v 0.028010 0.008330 0.064990
v 0.028010 -0.008310 0.064990
v -0.005990 0.000010 -0.039744
v -0.239990 0.004170 0.005990
v -0.239990 -0.004150 0.005990
v -0.001315 0.007290 0.000240
v 0.147010 0.007290 0.000490
v -0.001315 -0.006437 0.000240
v 0.147010 -0.006437 0.000490
v -0.234891 0.000010 0.021990
v 0.074010 0.008330 0.064990
v 0.074010 -0.008310 0.064990
v 0.073510 -0.008310 0.055990
v 0.073510 0.008330 0.055990
vt 0.846274 -0.503218
vt 0.871643 -0.507138
vt 0.844502 -0.215867
vt 0.881618 -0.462161
vt 0.848097 -0.416262
vt 0.871660 -0.389992
vt 0.820813 -0.417827
vt 0.828961 -0.489411
vt 0.822623 -0.471383
vt 0.842033 -0.379272
vt 0.105777 -0.892444
vt 0.162467 -0.753768
vt 0.136125 -0.741832
vt 0.105787 -0.927944
vt 0.105596 -0.753768
vt 0.836973 -0.350163
vt 0.820854 -0.320744
vt 0.101379 -0.436297
vt 0.107574 -0.365577
vt 0.108807 -0.436168
vt 0.109277 -0.486026
vt 0.119676 -0.412099
vt 0.117085 -0.486298
vt 0.871237 -0.143306
vt 0.874632 -0.391040
vt 0.852693 -0.470945
vt 0.842094 -0.505773
vt 0.162295 -0.892444
vt 0.105860 -0.810965
vt 0.105981 -0.970125
vt 0.088978 -0.937685
vt 0.105717 -0.897486
vt 0.162381 -0.801674
vt 0.105687 -0.801674
vt 0.821017 -0.490913
vt 0.088978 -0.810965
vt 0.162285 -0.927944
vt 0.162352 -0.897486
vt 0.821677 -0.341003
vt 0.088978 -0.800057
vt 0.105860 -0.800057
vt 0.105777 -0.985734
vt 0.095156 0.536328
vt 0.102969 0.563672
vt 0.102969 0.536328
vt 0.111868 -0.411826
vt 0.095156 0.563672
vt 0.100147 -0.365707
vt 0.162295 -0.985734
vt 0.967949 -0.503205
vt 0.950855 -0.454060
vt 0.959402 -0.454060
vt 0.136125 -0.955478
vt 0.824123 -0.153921
vt 0.824714 -0.212865
vt 0.413044 -0.239849
vt 0.411958 -0.472497
vt 0.437554 -0.472497
vt 0.438175 -0.239849
vt 0.463305 -0.239849
vt 0.403426 -0.472497
vt 0.404667 -0.239849
vt 0.471682 -0.239849
vt 0.471682 -0.472497
vt 0.463150 -0.472497
vn -0.017800 0.999800 0.000000
vn -0.017800 -0.999800 0.000000
vn 0.000000 1.000000 -0.000000
vn 0.312700 -0.780600 0.541200
vn -0.042000 -0.899600 0.434600
vn -0.042000 0.899600 0.434600
vn -0.339900 0.940500 0.000500
vn -0.339900 -0.940500 0.000500
vn -1.000000 -0.000000 0.000000
vn 0.999900 -0.003200 -0.013900
vn 0.593600 0.784800 -0.178100
vn 0.000000 0.998500 0.054700
vn 0.000000 -0.998500 0.054700
vn 0.256600 -0.935600 -0.242400
vn -0.030900 -0.993400 -0.110700
vn -0.030900 0.993400 -0.110700
vn 0.000000 -1.000000 0.000000
vn 0.889300 0.000000 -0.457300
vn -0.274000 -0.943900 0.184300
vn 1.000000 0.000000 0.000000
vn 0.285900 -0.869800 0.402100
vn 0.016300 0.000000 -0.999900
vn -0.326300 0.921800 0.209200
vn 0.999900 0.000000 -0.014500
vn -0.027000 0.000000 -0.999600
vn 0.285900 0.869800 0.402100
vn 0.095000 0.873400 0.477600
vn -0.300600 0.783800 0.543400
vn 0.095000 -0.873400 0.477600
vn -0.300600 -0.783800 0.543400
vn -0.274700 -0.872800 0.403400
vn -0.274700 0.872800 0.403400
vn -0.175300 -0.809100 0.561000
vn -0.186800 0.840600 0.508400
vn -0.441100 -0.893700 0.081700
vn -0.441100 0.893700 0.081700
vn 0.000000 -0.975200 0.221300
vn 0.000000 -0.221900 -0.975100
vn 0.000000 0.982200 0.187600
vn 0.000000 0.221900 -0.975100
vn 0.999900 0.003000 -0.013200
vn 0.593600 -0.784800 -0.178100
vn -0.186800 -0.840600 0.508400
vn -0.954000 0.000000 -0.299800
vn 0.520500 -0.813200 0.260200
vn 0.000000 0.000000 -1.000000
vn 0.520500 0.813200 0.260200
vn 0.256600 0.935600 -0.242400
vn -0.175300 0.809100 0.561000
vn 0.312700 0.780600 0.541200
vn 0.000000 -0.878900 0.476900
vn 0.000000 0.878900 0.476900
vn 0.985200 0.000000 -0.171300
vn 0.059200 0.820400 0.568800
vn 0.059200 -0.820400 0.568800
vn -0.103600 0.987800 0.115900
vn -0.016200 0.966400 0.256400
vn -0.103600 -0.987800 0.115900
vn -0.016200 -0.966400 0.256400
vn -0.099200 0.954900 0.279900
vn -0.099200 -0.954900 0.279900
vn 0.000500 0.986400 -0.164100
vn 0.000500 -0.986400 -0.164100
vn -0.000300 -0.985900 0.167100
vn -0.000300 0.985900 0.167100
vn 0.002800 -0.548300 -0.836300
vn 0.002500 -0.555300 -0.831600
vn 0.002500 0.555300 -0.831600
vn 0.002800 0.548300 -0.836300
vn 0.000000 -0.548300 0.836300
vn 0.000000 0.548300 0.836300
vn -0.000400 -0.555300 0.831600
vn -0.000400 0.555300 0.831600
vn -0.000100 0.986400 0.164100
vn 0.000300 0.985900 -0.167100
vn -0.000100 -0.986400 0.164100
vn 0.000300 -0.985900 -0.167100
usemtl ITMELEEBLADES
s off
f 23/1/1 3/2/1 56/3/1
f 57/3/2 26/2/2 18/1/2
f 66/4/3 46/5/3 25/6/3
f 33/7/4 20/8/4 11/5/4
f 34/9/5 57/3/5 18/1/5
f 56/3/6 34/9/6 23/1/6
f 23/1/7 34/9/7 30/10/7
f 31/10/8 34/9/8 18/1/8
f 18/11/9 9/12/9 55/13/9
f 24/14/10 35/15/10 37/13/10
f 5/7/11 45/16/11 4/17/11
f 52/18/12 10/19/12 44/20/12
f 40/21/13 41/22/13 51/23/13
f 5/7/14 38/16/14 21/6/14
f 57/3/15 12/24/15 26/2/15
f 56/3/16 3/2/16 12/24/16
f 31/10/17 18/1/17 13/25/17
f 64/26/17 13/25/17 65/4/17
f 66/4/3 63/26/3 46/5/3
f 22/25/3 23/1/3 30/10/3
f 23/27/18 13/25/18 18/27/18
f 9/12/9 18/11/9 23/28/9
f 35/29/19 24/30/19 18/31/19
f 40/32/9 10/33/9 19/34/9
f 42/33/20 51/32/20 41/34/20
f 20/8/21 33/7/21 32/35/21
f 13/25/17 64/26/17 54/5/17
f 21/6/17 11/5/17 64/26/17
f 11/5/17 21/6/17 38/16/17
f 22/25/18 13/25/18 23/27/18
f 66/4/22 65/4/22 13/6/22
f 9/36/23 23/31/23 1/30/23
f 24/14/24 36/12/24 1/37/24
f 25/6/22 21/6/22 66/4/22
f 10/33/9 40/32/9 44/38/9
f 12/24/25 3/2/25 26/2/25
f 33/7/26 27/8/26 32/35/26
f 53/5/3 63/26/3 66/4/3
f 6/9/27 30/10/27 7/39/27
f 53/5/28 6/7/28 27/8/28
f 31/10/29 6/9/29 7/39/29
f 20/8/30 6/7/30 54/5/30
f 32/35/31 6/7/31 20/8/31
f 27/8/32 6/7/32 32/35/32
f 38/16/33 33/7/33 11/5/33
f 45/16/34 33/7/34 4/17/34
f 7/39/35 34/9/35 31/10/35
f 30/10/36 34/9/36 7/39/36
f 18/31/37 8/36/37 35/29/37
f 55/40/38 37/41/38 35/29/38
f 1/30/39 36/29/39 9/36/39
f 37/41/40 55/40/40 9/36/40
f 9/36/40 36/29/40 37/41/40
f 24/14/41 37/13/41 36/12/41
f 38/16/42 5/7/42 4/17/42
f 4/17/43 33/7/43 38/16/43
f 21/42/44 44/38/44 40/32/44
f 40/5/45 5/7/45 21/6/45
f 19/43/46 42/44/46 41/45/46
f 41/22/13 40/21/13 19/46/13
f 42/44/46 19/43/46 10/47/46
f 10/19/12 52/18/12 42/48/12
f 44/38/44 21/42/44 25/49/44
f 25/6/47 5/7/47 44/5/47
f 25/6/3 46/5/3 45/16/3
f 45/16/48 5/7/48 25/6/48
f 46/5/49 33/7/49 45/16/49
f 27/8/50 33/7/50 46/5/50
f 5/50/51 40/51/51 51/52/51
f 51/32/20 42/33/20 52/38/20
f 52/52/52 44/51/52 5/50/52
f 5/53/53 51/32/53 52/38/53
f 53/1/3 22/25/3 30/10/3
f 30/10/54 6/9/54 53/1/54
f 13/25/17 54/1/17 31/10/17
f 6/9/55 31/10/55 54/1/55
f 55/13/9 8/15/9 18/11/9
f 35/29/38 8/36/38 55/40/38
f 56/3/56 12/24/56 2/54/56
f 34/9/57 56/3/57 62/55/57
f 12/24/58 57/3/58 2/54/58
f 57/3/59 34/9/59 62/55/59
f 56/3/60 2/54/60 62/55/60
f 62/55/61 2/54/61 57/3/61
f 27/8/3 46/5/3 63/26/3
f 63/26/3 53/5/3 27/8/3
f 20/8/17 54/5/17 64/26/17
f 64/26/17 11/5/17 20/8/17
f 66/4/22 21/6/22 65/4/22
f 21/6/17 64/26/17 65/4/17
f 13/6/22 22/6/22 66/4/22
f 53/5/3 66/4/3 22/25/3
usemtl ITMELEEREST
f 28/56/62 15/57/62 58/58/62
f 60/58/63 29/57/63 17/56/63
f 60/58/64 61/59/64 47/60/64
f 48/60/65 59/59/65 58/58/65
f 39/61/66 43/62/66 17/56/66
f 17/56/67 29/57/67 39/61/67
f 39/61/68 15/57/68 28/56/68
f 28/56/69 43/62/69 39/61/69
f 47/60/70 14/63/70 16/64/70
f 16/64/71 14/63/71 48/60/71
f 16/64/72 49/65/72 47/60/72
f 48/60/73 50/65/73 16/64/73
f 58/58/74 50/65/74 48/60/74
f 58/58/75 59/59/75 28/56/75
f 47/60/76 49/65/76 60/58/76
f 17/56/77 61/59/77 60/58/77
