# Blender v2.75 (sub 0) OBJ File: 'Empty.blend'
# www.blender.org
mtllib ITMW_010_1H_CLUB_01.mtl
o ITMW_010_1H_CLUB_01
v 0.208262 0.000008 -0.029703
v -0.469026 0.000000 0.065210
v -0.510088 -0.039341 -0.015549
v 0.184262 0.021808 0.014851
v -0.510088 0.039341 -0.015549
v -0.049072 -0.000000 -0.035502
v 0.184262 -0.021791 0.005465
v -0.282405 -0.000000 -0.025085
v -0.282405 -0.026029 -0.007990
v -0.519775 -0.039341 0.016560
v -0.519775 0.039341 0.016560
v -0.486620 0.000000 0.036182
v -0.486620 0.034637 0.018091
v -0.524618 -0.000000 0.032614
v -0.505244 -0.000000 -0.031603
v 0.184262 0.021808 -0.014851
v -0.049072 0.021808 0.009052
v 0.184262 0.000008 0.020316
v 0.208262 -0.021791 -0.014851
v -0.049072 -0.021791 0.014851
v 0.184262 -0.021791 -0.014851
v -0.486620 -0.034637 0.018091
v -0.282614 0.019869 0.027675
v -0.468584 0.018490 0.056622
v -0.282614 -0.019869 0.027675
v -0.468584 -0.018490 0.056622
v -0.049072 0.000008 0.023904
v -0.282405 0.026029 -0.007990
v 0.200587 0.000559 0.000375
v -0.049072 -0.025724 -0.014851
v -0.282405 -0.026029 0.017095
v -0.282405 0.026029 0.017095
v -0.477823 -0.030539 0.037357
v -0.477823 0.030539 0.037357
v -0.282614 0.000000 0.035267
v -0.049072 0.021808 -0.020651
v 0.184262 -0.000000 -0.029703
vt 0.750000 -0.669621
vt 0.591206 -0.669621
vt 0.499985 -0.351275
vt 0.908794 -0.669621
vt 0.750145 -0.351275
vt 0.162335 -0.351275
vt 0.041381 -0.351275
vt 0.000015 -0.033214
vt 0.114640 -0.669336
vt 0.250000 -0.669336
vt 0.250000 -0.973092
vt 0.750000 -0.999501
vt 0.506897 -0.992898
vt 0.514833 -0.947705
vt 0.250000 -0.351275
vt 0.363587 -0.351275
vt 0.385360 -0.669336
vt 0.250000 -0.033214
vt 0.243863 -0.010961
vt 0.350732 -0.033214
vt 0.350732 -0.000499
vt 0.395288 -0.979694
vt 0.683672 -0.923120
vt 0.601070 -0.935714
vt 0.104712 -0.979694
vt -0.006897 -0.992898
vt -0.014833 -0.947705
vt 0.750000 -0.947705
vt 0.985167 -0.947705
vt 0.993103 -0.992898
vt 0.149211 -0.033214
vt -0.249855 -0.351275
vt -0.091206 -0.669621
vt -0.013673 -0.669336
vt -0.249760 -0.033214
vt 0.249971 -0.000499
vt 0.435255 -0.033214
vt 0.513673 -0.669336
vt 0.986327 -0.669336
vt 0.898930 -0.935714
vt 0.816328 -0.923120
vt 0.750000 -0.923723
vt 0.750240 -0.033214
vt 0.500000 -0.164624
vt 0.893409 -0.667688
vt 0.893409 -0.332312
vt 0.106591 -0.667688
vt 0.500000 -0.835377
vt 0.452606 -0.194611
vt 0.440864 -0.500000
vt 0.731136 -0.500000
vt 0.106591 -0.332312
vt 0.311651 -0.628564
vt 0.542870 -0.506599
vt 0.276306 -0.367164
vt 0.506633 -0.238601
vt 0.577323 -0.761399
vt 0.723694 -0.590858
vt 0.688349 -0.329459
vt 0.452606 -0.805389
vt 0.645260 -0.315101
vt 0.645260 -0.684899
vt 0.259952 -0.846371
vt 0.259952 -0.153629
vn 0.048300 -0.356500 0.933000
vn 0.045400 0.356500 0.933200
vn 0.000000 1.000000 0.000000
vn 0.044900 -0.383100 0.922600
vn 0.024400 0.548800 -0.835600
vn 0.010700 -0.376700 0.926300
vn -0.022100 -0.625900 -0.779600
vn -0.035400 0.548600 -0.835300
vn 0.019400 -0.625900 -0.779700
vn -0.000000 -0.563000 0.826400
vn -0.036900 0.562500 -0.826000
vn -0.037300 -0.548600 -0.835300
vn 0.059700 -0.548000 -0.834400
vn 0.099600 -0.863200 0.495000
vn 0.057800 -0.998200 0.017400
vn 0.018100 0.999800 0.000000
vn 0.072000 -0.860800 0.503800
vn 0.138500 0.989500 0.041800
vn -0.083000 0.461400 0.883300
vn 0.010700 0.376700 0.926300
vn 0.027000 -0.380500 -0.924400
vn 0.020500 0.562800 -0.826400
vn 0.061100 0.562000 0.824900
vn -0.024100 0.243100 0.969700
vn 0.000000 -0.563000 -0.826400
vn 0.037100 -0.383200 0.922900
vn 0.019300 -0.991200 0.131200
vn 0.000000 -1.000000 0.000000
vn -0.083000 -0.461400 0.883300
vn 0.072100 0.860800 0.503800
vn 0.042400 0.993100 0.109300
vn 0.137000 0.414600 0.899700
vn 0.042100 -0.999100 0.000000
vn 0.001300 -1.000000 0.000000
vn 0.137000 -0.414600 0.899700
vn 0.012700 0.563000 0.826400
vn 0.012700 -0.563000 0.826400
vn 0.058400 0.998300 0.000000
vn 0.053000 0.382900 -0.922300
vn 0.009500 -0.563100 -0.826300
vn 0.016700 -0.991200 0.131200
vn 0.038800 -0.863200 0.503300
vn 0.020500 -0.863900 0.503300
vn 0.033000 0.863500 0.503300
vn 0.071900 0.861400 0.502900
vn 0.062600 -0.981600 0.180200
vn 0.042300 0.981000 0.189400
vn 0.148400 0.353000 0.923800
vn 0.148400 -0.353000 0.923800
vn 0.000200 -0.563200 -0.826300
vn -0.000200 0.562900 -0.826500
vn -0.957400 0.000000 -0.288800
vn -0.834100 0.220800 0.505500
vn 0.718300 0.674400 0.171000
vn 1.000000 0.000000 0.000000
vn 0.956500 0.164200 0.241100
vn -0.834100 -0.220800 0.505500
vn -0.788900 0.274300 0.549900
vn -0.788900 -0.274300 0.549900
vn 0.793000 0.609200 -0.000000
vn -0.865200 -0.232100 0.444500
vn -0.865200 0.232100 0.444500
usemtl NW_NATURE_BARK_03
s off
f 35/1/1 25/2/1 20/3/1
f 23/4/2 35/1/2 27/5/2
f 36/6/3 17/7/3 4/8/3
f 20/3/4 27/5/4 35/1/4
f 28/9/5 8/10/5 15/11/5
f 14/12/6 10/13/6 22/14/6
f 6/15/7 30/16/7 9/17/7
f 8/10/8 28/9/8 36/6/8
f 30/16/9 6/15/9 37/18/9
f 29/19/10 21/20/10 19/21/10
f 36/6/11 6/15/11 8/10/11
f 9/17/12 8/10/12 6/15/12
f 8/10/13 9/17/13 3/22/13
f 9/17/14 22/14/14 10/13/14
f 9/17/15 10/13/15 3/22/15
f 17/7/16 36/6/16 28/9/16
f 25/2/17 26/23/17 33/24/17
f 5/25/18 11/26/18 13/27/18
f 14/12/19 12/28/19 13/29/19
f 13/29/20 11/30/20 14/12/20
f 3/22/21 15/11/21 8/10/21
f 16/31/22 37/18/22 6/15/22
f 27/32/23 17/7/23 23/33/23
f 28/9/16 32/34/16 17/7/16
f 18/35/24 4/8/24 17/7/24
f 1/36/25 19/21/25 21/20/25
f 27/5/26 20/3/26 7/37/26
f 30/16/27 20/3/27 31/38/27
f 21/20/28 7/37/28 20/3/28
f 22/14/29 12/28/29 14/12/29
f 32/39/30 34/40/30 24/41/30
f 5/25/31 13/27/31 32/34/31
f 23/4/32 24/41/32 2/42/32
f 9/17/33 31/38/33 22/14/33
f 31/38/34 9/17/34 30/16/34
f 2/42/35 26/23/35 25/2/35
f 17/7/36 27/32/36 18/35/36
f 7/37/37 18/43/37 27/5/37
f 5/25/38 32/34/38 28/9/38
f 15/11/39 5/25/39 28/9/39
f 4/8/10 21/20/10 29/19/10
f 37/18/40 21/20/40 30/16/40
f 20/3/41 30/16/41 21/20/41
f 22/14/42 31/38/42 25/2/42
f 20/3/43 25/2/43 31/38/43
f 17/7/44 32/34/44 23/33/44
f 32/39/45 24/41/45 23/4/45
f 22/14/46 25/2/46 33/24/46
f 32/39/47 13/29/47 34/40/47
f 2/42/48 35/1/48 23/4/48
f 25/2/49 35/1/49 2/42/49
f 4/8/3 16/31/3 36/6/3
f 6/15/22 36/6/22 16/31/22
f 21/20/50 37/18/50 1/36/50
f 16/31/51 1/36/51 37/18/51
usemtl NW_NATURE_BARKRINGS_02
f 14/44/52 3/45/52 10/46/52
f 14/44/52 5/47/52 15/48/52
f 34/49/53 12/50/53 2/51/53
f 14/44/52 11/52/52 5/47/52
f 14/44/52 15/48/52 3/45/52
f 16/53/54 29/54/54 1/55/54
f 21/56/55 4/57/55 18/58/55
f 1/55/56 29/54/56 19/56/56
f 18/58/55 7/59/55 21/56/55
f 12/50/57 33/60/57 2/51/57
f 2/51/58 24/61/58 34/49/58
f 2/51/59 33/60/59 26/62/59
f 16/53/60 4/57/60 29/54/60
f 12/50/61 22/63/61 33/60/61
f 13/64/62 12/50/62 34/49/62
