# Blender v2.75 (sub 0) OBJ File: 'Empty.blend'
# www.blender.org
mtllib ITMW_2H_ORCSWORD_01.mtl
o ITMW_2H_ORCSWORD_01
v -0.090000 0.020073 -0.050000
v -0.641579 0.015073 -0.106636
v -0.545000 0.000073 0.165000
v 0.108362 0.000073 0.213344
v 0.340000 0.000073 0.140000
v -0.811509 0.000073 0.048491
v -0.980000 0.000073 -0.100000
v -0.450000 -0.009927 -0.130000
v -0.020000 0.020073 0.100000
v -0.159676 0.008643 0.169203
v -0.570000 0.000073 -0.230000
v -0.780000 0.015073 -0.070000
v 0.400000 0.000073 0.040000
v 0.394000 0.000073 -0.055000
v -0.070000 0.000073 0.035000
v 0.350000 0.000073 0.049000
v -0.015000 0.000073 0.180000
v -0.054957 0.001073 -0.131389
v -0.125000 -0.024927 -0.065000
v -0.733992 0.000073 0.091723
v -0.622730 0.000073 0.133862
v -0.105000 0.000073 -0.040000
v 0.181171 -0.003163 0.192203
v -0.143793 0.000073 0.218075
v 0.220000 0.000073 0.210000
v -0.559722 -0.005115 0.125768
v -0.793266 0.005382 0.011580
v -0.125000 0.025073 -0.065000
v -0.008957 0.001073 -0.133389
v -0.053478 -0.008927 -0.104694
v -0.020000 -0.019927 0.100000
v 0.280000 0.010073 0.100000
v -0.090000 -0.019927 -0.050000
v -0.641579 -0.014927 -0.106636
v 0.372000 0.027073 0.000000
v 0.372000 -0.026927 0.000000
v -0.075000 -0.024927 0.110000
v -0.070000 0.020073 -0.060000
v -0.280000 0.015073 -0.070000
v -0.085000 -0.019927 0.000000
v -0.085000 0.020073 0.000000
v -0.056922 0.000073 0.218296
v -0.160663 -0.008742 0.167773
v 0.280000 -0.009927 0.100000
v 0.020000 0.000073 0.180000
v -0.070000 -0.019927 -0.060000
v -0.780000 -0.014927 -0.070000
v -0.104620 0.002245 0.200770
v -0.450000 0.010073 -0.130000
v -0.053478 0.010073 -0.104694
v -0.075000 0.025073 0.110000
v -0.100478 -0.005927 -0.103694
v -0.767402 -0.002164 0.060250
v -0.791945 -0.006226 0.002992
v -0.559633 0.005939 0.121263
v -0.120000 -0.029927 0.000000
v -0.015000 0.025073 0.110000
v -0.015000 -0.024927 0.110000
v -0.100478 0.008073 -0.103694
v -0.280000 -0.014927 -0.070000
v 0.175683 0.003766 0.189688
v -0.120000 0.030073 0.000000
v -0.768108 0.002238 0.060441
v -0.055000 -0.024927 0.000000
v -0.231796 0.025373 0.072527
v -0.231796 -0.025226 0.072527
v -0.055000 0.025073 0.000000
v 0.312214 -0.021927 0.000000
v 0.312214 0.022073 0.000000
v -0.556762 0.024968 -0.005523
v -0.556762 -0.024822 -0.005523
v 0.297714 0.000073 0.039000
v 0.328500 0.000073 -0.045000
v -0.102399 -0.002502 0.198347
vt 0.039499 -0.576133
vt 0.086090 -0.373296
vt 0.113369 -0.583987
vt 0.095487 -0.070211
vt 0.028692 -0.091757
vt 0.074073 -0.028804
vt 0.037869 -0.115371
vt 0.077143 -0.250396
vt 0.032068 -0.614251
vt 0.053008 -0.682367
vt 0.171202 -0.402728
vt 0.099534 -0.718106
vt 0.150288 -0.830752
vt 0.145753 -0.709671
vt 0.153003 -0.821577
vt 0.149916 -0.713149
vt 0.135506 -0.714232
vt 0.202801 -0.526728
vt 0.170437 -0.289613
vt 0.041789 -0.326776
vt 0.016892 -0.167411
vt 0.008267 -0.261407
vt 0.180461 -0.633987
vt 0.245946 -0.592009
vt 0.128336 0.001195
vt 0.941334 -0.251010
vt 0.941331 -0.275384
vt 0.603826 -0.277142
vt 0.480790 -0.303463
vt 0.376065 -0.260377
vt 0.479111 -0.257502
vt 0.069739 -0.702221
vt 0.603753 -0.259398
vt 0.004744 -0.315490
vt 0.014593 -0.560774
vt 0.074613 -0.730695
vt 0.623351 -0.557583
vt 0.071544 -0.285695
vt 0.434292 -0.279275
vt 0.385254 -0.283506
vt 0.434292 -0.287738
vt 0.581940 -0.299881
vt 0.629106 -0.281582
vt 0.630723 -0.311621
vt 0.581510 -0.269544
vt 0.058806 -0.251587
vt 0.095336 -0.071563
vt 0.075119 -0.067482
vt 0.077585 -0.243866
vt 0.158672 -0.420757
vt 0.169285 -0.315100
vt 0.144246 -0.317953
vt 0.146356 -0.630102
vt 0.179035 -0.634490
vt 0.255325 -0.598784
vt 0.973009 -0.292116
vt 1.000649 -0.265765
vt 0.973009 -0.239413
vt 0.603880 -0.296278
vt 0.941329 -0.297257
vt 0.947946 -0.265765
vt 0.375728 -0.310970
vt 0.469304 -0.298890
vt 0.469304 -0.259827
vt 0.370098 -0.298890
vt 0.565862 -0.286390
vt 0.594708 -0.278577
vt 0.565862 -0.271546
vt 0.184856 -0.514166
vt 0.197375 -0.512740
vt 0.177452 -0.418617
vt 0.027852 -0.290405
vt 0.125679 -0.011178
vt 0.310448 -0.257063
vt 0.535932 -0.304292
vt 0.523784 -0.294983
vt 0.227897 -0.575722
vt 0.523784 -0.263733
vt 0.033505 -0.249808
vt 0.311890 -0.317659
vt 0.540526 -0.263944
vt 0.485578 -0.268999
vt 0.485578 -0.299223
vt 0.551367 -0.302245
vt 0.370098 -0.259827
vt 0.035138 -0.230609
vt 0.089613 -0.300589
vt 0.551367 -0.265976
vt 0.994387 -0.268966
vt 0.994252 -0.302495
vt 0.994522 -0.231332
vn -0.036700 0.988400 0.147500
vn -0.036700 -0.988400 0.147500
vn 0.076900 0.988300 0.131800
vn 0.033100 -0.993600 0.108400
vn -0.056600 -0.987100 0.149500
vn 0.017500 0.996800 -0.077900
vn -0.089800 -0.990600 0.103400
vn 0.148300 0.000000 -0.988900
vn 0.017500 -0.996800 -0.077900
vn 0.009800 0.993800 -0.110500
vn -0.019400 0.997700 -0.065500
vn -0.019400 -0.997700 -0.065500
vn -0.029600 0.981000 0.191900
vn -0.029100 -0.981100 0.191500
vn 0.005000 0.985700 0.168200
vn 0.005000 -0.985700 0.168200
vn 0.012000 -0.993400 -0.113800
vn 0.012800 0.994100 -0.108000
vn -0.089800 0.990600 0.103100
vn -0.056600 0.987100 0.149500
vn 0.117900 0.990500 0.070700
vn 0.076900 -0.988300 0.131800
vn -0.004500 -0.897700 -0.440500
vn -0.004500 0.897700 -0.440500
vn 0.076700 -0.997000 0.013900
vn 0.076700 0.997000 0.013900
vn -0.074700 0.991900 0.102300
vn -0.074700 -0.991900 0.102400
vn -0.062500 0.987200 0.146700
vn -0.062400 -0.987200 0.146800
vn -0.005100 0.895400 -0.445200
vn -0.005100 -0.895400 -0.445200
vn -0.023900 -0.983300 0.180300
vn -0.023800 0.983300 0.180200
vn 0.033100 0.993600 0.108400
vn -0.023700 -0.989900 0.139800
vn -0.023500 0.989800 0.140600
vn -0.087500 0.991200 0.099300
vn -0.087700 -0.991200 0.099500
vn -0.925500 0.000000 0.378600
vn -0.519700 0.000000 -0.854300
vn -0.015200 -0.936600 -0.350000
vn -0.067100 -0.935600 -0.346800
vn -0.047100 0.947300 -0.316800
vn -0.013900 0.947700 -0.318800
vn 0.906200 0.000000 -0.422900
vn 0.000000 0.000000 -1.000000
vn 0.104700 0.000000 -0.994500
vn -0.864900 0.000000 -0.501900
vn -0.255900 0.000000 -0.966700
vn 0.928500 0.000000 0.371400
vn -0.005300 0.871800 0.489800
vn 0.912300 0.000000 0.409600
vn -0.005300 -0.871800 0.489800
vn 0.000000 -1.000000 0.000000
vn 0.939800 0.000000 -0.341700
vn 0.541700 0.000000 0.840500
vn 0.332800 0.000000 -0.943000
vn -0.004400 -0.867400 0.497500
vn -0.004400 0.867400 0.497500
vn 0.009600 -0.983200 0.182300
vn 0.009800 0.983200 0.182200
vn -0.500700 -0.042700 0.864600
vn 0.949200 -0.028100 -0.313400
vn 0.117900 -0.990500 0.070700
vn -0.447200 0.000000 -0.894400
vn 0.000000 -0.941700 0.336300
vn 0.000000 1.000000 0.000000
vn -0.067000 -0.962800 -0.261700
vn 0.938000 0.000000 0.346700
vn 0.012800 -0.994100 -0.108000
vn -0.014700 0.986600 0.162200
vn -0.341500 -0.549100 0.762800
vn 0.640200 0.000000 -0.768200
vn 0.012000 0.993400 -0.113800
vn -0.046300 0.971000 -0.234400
vn -0.759300 0.000000 0.650800
vn 0.000000 0.941700 0.336300
vn 0.117800 -0.918900 -0.376600
vn -0.844700 0.000000 -0.535300
vn -0.063400 -0.988500 0.137500
vn -0.881700 -0.160600 0.443600
vn -0.839400 -0.381800 0.386900
vn 0.889200 -0.202400 0.410300
vn -0.932800 0.142400 0.331200
vn 0.148400 0.372200 0.916200
vn -0.997100 0.000000 0.076700
vn 0.097800 -0.991700 -0.083800
vn 0.894400 0.000000 -0.447200
vn 0.115600 0.934300 -0.337200
vn 0.009800 -0.993800 -0.110500
vn -0.416700 -0.000000 0.909100
vn 0.261300 0.505400 0.822400
vn 0.097800 0.991700 -0.083800
vn -0.063400 0.988500 0.137500
vn -0.674000 -0.139500 0.725400
vn 0.970100 0.000000 -0.242500
vn 0.076300 -0.991900 -0.101700
vn 0.002800 0.985700 0.168500
vn 0.026600 0.999600 -0.012400
vn 0.002800 -0.985700 0.168500
vn 0.026600 -0.999600 -0.012400
vn 0.076300 0.991900 -0.101700
vn -0.074000 -0.885100 -0.459500
vn -0.074200 -0.887100 0.455500
vn -0.074000 0.885100 -0.459500
vn -0.074200 0.887100 0.455500
vn -0.074500 0.991600 0.105700
vn -0.021100 0.996600 -0.079800
vn -0.074600 -0.991600 0.106000
vn -0.021100 -0.996600 -0.079800
vn -0.088800 0.881300 0.464100
vn -0.088800 -0.881300 0.464100
vn -0.070600 0.884000 -0.462200
vn -0.070600 -0.884000 -0.462200
vn -0.015200 -0.986700 0.162100
vn -0.311200 -0.543500 0.779600
usemtl ITMW2HORCSWORD01
s off
f 55/1/1 65/2/1 70/3/1
f 66/2/2 26/1/2 71/3/2
f 32/4/3 25/5/3 5/6/3
f 44/4/4 23/7/4 31/8/4
f 71/3/5 21/9/5 20/10/5
f 70/3/6 65/2/6 39/11/6
f 54/12/7 7/13/7 47/14/7
f 7/15/8 12/16/8 47/17/8
f 71/3/9 60/11/9 66/2/9
f 70/3/10 39/11/10 49/18/10
f 65/2/11 1/19/11 39/11/11
f 66/2/12 60/11/12 33/19/12
f 55/1/13 10/20/13 65/2/13
f 26/1/14 66/2/14 43/20/14
f 4/21/15 9/8/15 42/22/15
f 31/8/16 4/21/16 42/22/16
f 34/23/17 11/24/17 8/18/17
f 70/3/18 49/18/18 2/23/18
f 7/13/19 27/12/19 12/14/19
f 21/9/20 70/3/20 20/10/20
f 32/4/21 5/6/21 13/25/21
f 44/4/22 5/6/22 25/5/22
f 73/26/23 68/27/23 40/28/23
f 73/26/24 41/28/24 69/27/24
f 64/29/25 37/30/25 56/31/25
f 51/30/26 67/29/26 62/31/26
f 27/12/27 63/32/27 70/3/27
f 53/32/28 54/12/28 71/3/28
f 21/9/29 55/1/29 70/3/29
f 26/1/30 21/9/30 71/3/30
f 41/28/31 73/26/31 22/33/31
f 73/26/32 40/28/32 22/33/32
f 4/21/16 31/8/16 23/7/16
f 4/21/15 61/7/15 9/8/15
f 43/20/33 24/34/33 3/35/33
f 10/20/34 3/35/34 24/34/34
f 23/7/4 44/4/4 25/5/4
f 32/4/35 61/7/35 25/5/35
f 43/20/36 3/35/36 26/1/36
f 10/20/37 55/1/37 3/35/37
f 7/13/38 6/36/38 27/12/38
f 7/13/39 54/12/39 6/36/39
f 62/37/40 56/37/40 37/38/40
f 59/39/41 18/40/41 52/41/41
f 30/42/42 18/43/42 29/44/42
f 30/42/43 52/45/43 18/43/43
f 50/42/44 18/43/44 59/45/44
f 50/42/45 29/44/45 18/43/45
f 33/19/46 9/8/46 31/8/46
f 31/46/47 32/47/47 44/48/47
f 31/46/47 9/49/47 32/47/47
f 61/7/35 32/4/35 9/8/35
f 60/50/48 1/51/48 33/52/48
f 33/19/46 1/19/46 9/8/46
f 34/53/49 2/54/49 11/55/49
f 47/17/50 12/16/50 2/54/50
f 36/56/51 14/57/51 35/58/51
f 69/27/52 15/59/52 72/60/52
f 36/56/53 35/58/53 16/61/53
f 15/59/54 68/27/54 72/60/54
f 62/37/40 37/38/40 51/38/40
f 37/30/55 64/29/55 58/62/55
f 64/63/56 67/64/56 58/65/56
f 30/66/57 29/67/57 50/68/57
f 8/69/58 49/70/58 39/71/58
f 60/50/48 39/71/48 1/51/48
f 68/27/59 15/59/59 40/28/59
f 15/59/60 69/27/60 41/28/60
f 74/72/61 43/20/61 31/8/61
f 10/20/62 48/72/62 9/8/62
f 43/20/63 48/72/63 10/20/63
f 24/34/64 43/20/64 10/20/64
f 44/4/65 13/25/65 5/6/65
f 44/48/66 32/47/66 13/73/66
f 58/62/67 17/74/67 37/30/67
f 67/29/68 51/30/68 57/62/68
f 52/45/69 30/42/69 46/75/69
f 46/76/70 30/66/70 50/68/70
f 47/17/50 2/54/50 34/53/50
f 71/3/71 34/23/71 8/18/71
f 48/72/72 42/22/72 9/8/72
f 48/72/73 43/20/73 74/72/73
f 11/77/74 49/70/74 8/69/74
f 2/23/75 49/18/75 11/24/75
f 59/45/76 38/75/76 50/42/76
f 46/76/70 50/68/70 38/78/70
f 51/38/77 37/38/77 17/79/77
f 17/80/78 57/62/78 51/30/78
f 52/45/79 46/75/79 19/81/79
f 28/82/80 52/41/80 19/83/80
f 71/3/81 20/10/81 53/32/81
f 27/12/82 53/32/82 63/32/82
f 27/12/83 54/12/83 53/32/83
f 6/36/84 54/12/84 27/12/84
f 26/1/85 3/35/85 55/1/85
f 21/9/86 26/1/86 55/1/86
f 28/82/87 19/83/87 56/84/87
f 56/31/88 19/81/88 46/75/88
f 58/65/56 67/64/56 57/85/56
f 57/8/78 17/79/78 45/86/78
f 58/87/89 57/8/89 45/86/89
f 58/62/67 45/80/67 17/74/67
f 59/45/90 28/81/90 38/75/90
f 28/82/80 59/39/80 52/41/80
f 71/3/91 8/18/91 60/11/91
f 8/69/58 39/71/58 60/50/58
f 61/7/92 23/7/92 25/5/92
f 4/21/93 23/7/93 61/7/93
f 28/82/87 56/84/87 62/88/87
f 62/31/94 38/75/94 28/81/94
f 63/32/95 20/10/95 70/3/95
f 63/32/96 53/32/96 20/10/96
f 46/76/97 38/78/97 64/63/97
f 56/31/98 46/75/98 64/29/98
f 10/20/99 9/8/99 65/2/99
f 65/2/100 9/8/100 1/19/100
f 31/8/101 43/20/101 66/2/101
f 66/2/102 33/19/102 31/8/102
f 64/63/97 38/78/97 67/64/97
f 62/31/103 67/29/103 38/75/103
f 73/26/104 36/89/104 68/27/104
f 16/90/105 68/27/105 36/89/105
f 73/26/106 69/27/106 35/89/106
f 69/27/107 16/90/107 35/89/107
f 27/12/108 70/3/108 12/14/108
f 12/14/109 70/3/109 2/23/109
f 71/3/110 54/12/110 47/14/110
f 47/14/111 34/23/111 71/3/111
f 69/27/112 72/60/112 16/90/112
f 68/27/113 16/90/113 72/60/113
f 73/26/114 35/89/114 14/91/114
f 36/89/115 73/26/115 14/91/115
f 42/22/116 74/72/116 31/8/116
f 48/72/117 74/72/117 42/22/117
