# Blender v2.75 (sub 0) OBJ File: 'Empty.blend'
# www.blender.org
mtllib ITMW_CLUB_1H_01.mtl
o ITMW_CLUB_1H_01
v -1.001466 0.000000 0.010468
v 0.208262 0.000008 -0.029703
v -0.704920 0.054935 0.058485
v -0.049072 0.021808 0.009052
v 0.184262 0.021808 0.014851
v -0.951350 0.057721 -0.030463
v -0.704920 -0.054935 0.058485
v -0.951350 -0.057721 -0.030463
v -0.704710 -0.000000 -0.088742
v -0.986534 0.000000 -0.038107
v 0.184262 -0.021791 0.005465
v -0.951701 0.044076 0.048638
v -0.988099 -0.025572 0.032614
v -0.951636 0.000000 0.065489
v -0.282665 0.000000 0.044920
v -0.424634 0.043939 -0.020690
v -0.704710 0.071965 0.028961
v -0.424987 0.033542 0.039516
v -0.282375 -0.036160 -0.015174
v -0.704710 -0.071965 0.028961
v 0.184262 0.021808 -0.014851
v 0.208262 -0.021791 -0.014851
v 0.184262 -0.021791 -0.014851
v -0.986534 -0.035563 -0.014750
v -0.049072 0.000008 0.023904
v -0.986534 0.035563 -0.014750
v 0.184262 0.000008 0.020316
v -0.424634 -0.043939 0.021656
v -0.951701 -0.044076 0.048638
v -0.951350 -0.000000 -0.068373
v -0.988099 0.025572 0.032614
v -0.282665 0.027603 0.034373
v -0.049072 -0.025724 -0.014851
v 0.200587 0.000559 0.000375
v -0.989118 0.000000 0.040817
v -0.704710 0.071965 -0.041038
v -0.049072 -0.021791 0.014851
v -0.704920 0.000000 0.079669
v -0.872141 0.053703 0.056976
v -0.951262 0.057735 0.025168
v -0.951262 -0.057735 0.025168
v -0.704710 -0.071965 -0.041038
v -0.872141 -0.053703 0.056976
v -0.424634 -0.000000 -0.049549
v -0.871575 -0.070351 -0.039419
v -0.583938 -0.058104 -0.030735
v -0.424634 0.043939 0.021656
v -0.424987 -0.033542 0.039516
v -0.987730 -0.033657 0.019038
v -0.584405 0.044354 0.048879
v -0.987730 0.033657 0.019038
v -0.282375 -0.036160 0.019675
v -0.871575 -0.000000 -0.085625
v -0.871575 0.070351 -0.039420
v -0.049072 0.021808 -0.020651
v -0.049072 -0.000000 -0.035502
v -0.282375 -0.000000 -0.038923
v -0.871575 -0.070351 0.028380
v -0.871575 0.070351 0.028380
v -0.872141 0.000000 0.077495
v -0.584405 -0.044354 0.048879
v -0.424634 -0.043939 -0.020690
v -0.424987 0.000000 0.052331
v -0.282375 0.036160 -0.015174
v -0.282665 -0.027603 0.034373
v -0.583938 -0.000000 -0.068896
v 0.184262 -0.000000 -0.029703
v -0.583938 0.058104 -0.030735
v -0.584405 0.000000 0.065826
v -0.583938 -0.058104 0.025262
v -0.583938 0.058104 0.025262
v -0.282375 0.036160 0.019675
vt 0.303438 -0.693304
vt 0.303438 -0.553867
vt 0.110775 -0.559082
vt 0.303678 -0.397768
vt 0.303678 -0.299566
vt 0.110775 -0.263490
vt 0.110775 -0.749050
vt 0.110775 -0.397815
vt -0.081913 -0.532107
vt -0.081913 -0.216250
vt -0.081913 -0.397822
vt 0.790004 -0.721030
vt 0.790004 -0.578117
vt 0.652206 -0.578433
vt 0.303438 -0.897768
vt 0.421208 -0.294196
vt 0.421208 -0.397768
vt 0.552857 -0.397768
vt 0.420916 -0.091697
vt 0.420916 -0.233320
vt 0.552471 -0.223187
vt 0.652206 -0.217103
vt 0.652379 -0.283661
vt 0.790471 -0.283539
vt 0.652206 -0.722475
vt 0.652205 -0.897768
vt 0.790004 -0.897768
vt 0.790004 -0.074506
vt 0.790004 0.102232
vt 0.652206 0.102232
vt 0.420916 -0.897768
vt 0.420916 -1.091697
vt 0.552471 -1.080351
vt 0.479447 -0.376303
vt 0.449809 -0.500000
vt 0.511810 -0.499136
vt 0.479447 -0.623706
vt -0.095395 -0.415797
vt -0.081913 -0.077404
vt -0.101733 -0.077404
vt 0.303438 -1.102232
vt 0.110775 -0.897767
vt 0.885925 -0.550524
vt 0.855810 -0.572142
vt 0.884937 -0.692282
vt 0.652379 -0.397768
vt 0.652379 -0.511875
vt 0.790471 -0.511997
vt 0.522350 -0.617014
vt 0.856172 -0.507920
vt 0.886230 -0.493716
vt 0.856119 -0.397768
vt 0.887072 -0.397768
vt 0.790471 -0.397768
vt 0.552857 -0.508059
vt 0.303678 -0.495971
vt 0.420916 -0.562216
vt 0.420916 -0.703839
vt 0.552471 -0.715185
vt 0.552471 -0.897768
vt 0.552471 -0.572349
vt 0.421208 -0.501340
vt 0.110775 -1.087071
vt 0.303438 -0.241669
vt 0.303438 -0.102232
vt 0.110775 -0.087071
vt 0.652206 -0.073061
vt 0.790004 -0.217419
vt 0.552471 -0.080351
vt -0.101733 -0.897715
vt -0.101733 -1.077404
vt -0.081913 -1.077404
vt 0.855882 -0.080577
vt 0.884937 -0.103255
vt 0.855882 0.102232
vt 0.885925 -0.245011
vt 0.855882 -0.714959
vt 0.884937 -0.897768
vt 0.552857 -0.287477
vt 0.856172 -0.287616
vt 0.855810 -0.223394
vt 0.855882 -0.897768
vt 0.884937 0.102232
vt 0.550020 -0.499864
vt 0.539586 -0.410973
vt 0.522350 -0.382868
vt -0.081913 -0.897767
vt 0.539586 -0.588870
vt 0.886230 -0.301820
vt 0.652205 -1.073061
vt -0.081913 -0.718084
vn 0.061400 0.998100 0.000000
vn 0.086600 -0.355600 0.930600
vn 0.082800 -0.382200 0.920400
vn 0.000000 1.000000 0.000000
vn 0.012700 -0.563000 0.826400
vn -0.009700 1.000000 0.000000
vn 0.014100 0.548900 -0.835800
vn 0.078800 -0.355800 0.931200
vn 0.088600 -0.996100 0.000000
vn -0.010900 -0.866200 0.499600
vn -0.015600 0.552400 -0.833400
vn -0.015600 -0.548900 -0.835700
vn 0.101000 -0.546200 -0.831600
vn -0.938500 0.189500 -0.288500
vn -0.938500 -0.189500 -0.288500
vn -0.000000 -0.563000 0.826400
vn 0.012300 -0.548900 -0.835800
vn -0.554000 0.832100 0.027300
vn -0.011100 0.359800 0.933000
vn -0.924800 -0.380300 -0.011300
vn -0.509800 0.306600 0.803800
vn -0.528100 0.278400 0.802300
vn -0.011100 -0.356900 0.934100
vn 0.078800 0.355800 0.931200
vn 0.075900 0.861100 0.502800
vn 0.088600 0.996100 -0.000000
vn 0.101000 0.546200 -0.831600
vn -0.010100 0.866200 0.499600
vn 0.087900 0.860100 0.502500
vn 0.054200 0.862500 0.503200
vn 0.029100 -0.625800 -0.779500
vn 0.044700 -0.999000 -0.000000
vn -0.009700 -1.000000 0.000000
vn 0.012100 0.562800 -0.826500
vn 0.000000 -0.563000 -0.826400
vn 0.063600 -0.989300 0.131000
vn -0.583800 -0.445700 -0.678600
vn -0.523200 -0.851700 0.029500
vn 0.012700 0.563000 0.826400
vn 0.103000 0.560000 0.822000
vn -0.532700 0.846300 0.000600
vn -0.583800 0.445700 -0.678600
vn -0.024100 0.243100 0.969700
vn 0.087900 -0.860100 0.502500
vn 0.063500 -0.861900 0.503100
vn -0.523900 -0.303500 0.795900
vn -0.551100 -0.834500 0.000700
vn -0.914900 0.155900 0.372200
vn -0.924800 0.380300 -0.011300
vn 0.083700 0.355700 0.930900
vn 0.048600 0.356500 0.933000
vn 0.009500 -0.563100 -0.826300
vn 0.016700 -0.991200 0.131200
vn -0.914900 -0.155900 0.372200
vn -0.503100 -0.282100 0.816900
vn -0.013400 0.548900 -0.835800
vn 0.000000 -1.000000 0.000000
vn 0.037100 -0.383200 0.922900
vn -0.012100 0.356900 0.934100
vn -0.012100 -0.359800 0.933000
vn -0.010900 0.864300 0.502900
vn -0.139700 0.353400 0.925000
vn -0.155300 0.855100 0.494700
vn -0.549200 0.726700 0.412700
vn -0.550500 -0.725900 0.412200
vn -0.010100 -0.864300 0.503000
vn -0.013400 -0.552500 -0.833400
vn -0.139700 -0.353400 0.925000
vn -0.155300 -0.855100 0.494700
vn 0.135700 -0.547400 -0.825800
vn 0.136100 0.543900 -0.828100
vn -0.177900 -0.540200 -0.822500
vn -0.156400 -0.987700 0.000000
vn 0.133100 -0.544100 -0.828400
vn 0.114000 -0.993500 0.000000
vn -0.926500 -0.333900 0.173700
vn -0.548600 -0.724800 0.416800
vn 0.105200 0.354900 0.929000
vn 0.115100 0.860100 0.497000
vn -0.926500 0.333900 0.173700
vn -0.550900 0.723500 0.415900
vn 0.054600 -0.998500 -0.000000
vn 0.054200 -0.862500 0.503200
vn -0.177900 0.540200 -0.822500
vn -0.156400 0.987700 0.000000
vn 0.020500 0.562800 -0.826400
vn 0.019400 -0.625900 -0.779700
vn 0.062300 0.547900 -0.834200
vn 0.062300 -0.547900 -0.834200
vn 0.105400 -0.357800 0.927800
vn 0.115300 -0.857500 0.501500
vn 0.048600 -0.356500 0.933000
vn 0.054600 0.998500 0.000000
vn 0.000200 -0.563200 -0.826300
vn -0.000200 0.562900 -0.826500
vn 0.114000 0.993500 0.000000
vn 0.133300 0.547600 -0.826100
vn 0.106600 0.357800 0.927700
vn 0.106700 -0.354900 0.928800
vn 0.114000 -0.860200 0.497000
vn 0.113800 0.857600 0.501500
vn 0.718300 0.674400 0.171000
vn 0.956500 0.164200 0.241100
vn 1.000000 0.000000 0.000000
vn 0.793000 0.609200 -0.000000
usemtl NW_NATURE_BARK_03
s off
f 64/1/1 72/2/1 4/3/1
f 15/4/2 65/5/2 37/6/2
f 4/3/1 55/7/1 64/1/1
f 37/6/3 25/8/3 15/4/3
f 55/7/4 4/3/4 5/9/4
f 11/10/5 27/11/5 25/8/5
f 54/12/6 59/13/6 17/14/6
f 57/15/7 64/1/7 55/7/7
f 48/16/8 63/17/8 69/18/8
f 62/19/9 28/20/9 70/21/9
f 20/22/10 7/23/10 43/24/10
f 36/25/11 9/26/11 53/27/11
f 45/28/12 53/29/12 9/30/12
f 44/31/13 62/32/13 46/33/13
f 26/34/14 10/35/14 1/36/14
f 10/35/15 24/37/15 1/36/15
f 34/38/16 23/39/16 22/40/16
f 19/41/17 57/15/17 56/42/17
f 51/43/18 40/44/18 26/45/18
f 38/46/19 3/47/19 39/48/19
f 24/37/20 49/49/20 1/36/20
f 12/50/21 31/51/21 14/52/21
f 35/53/22 14/52/22 31/51/22
f 60/54/23 43/24/23 7/23/23
f 50/55/24 69/18/24 63/17/24
f 4/3/25 72/2/25 32/56/25
f 47/57/26 16/58/26 68/59/26
f 66/60/27 68/59/27 16/58/27
f 3/47/28 17/14/28 59/13/28
f 71/61/29 50/55/29 18/62/29
f 47/57/30 18/62/30 32/56/30
f 63/17/24 18/62/24 50/55/24
f 56/42/31 33/63/31 19/41/31
f 52/64/32 19/65/32 33/66/32
f 42/67/33 20/22/33 58/68/33
f 70/21/9 46/69/9 62/19/9
f 55/7/34 56/42/34 57/15/34
f 2/70/35 22/71/35 23/72/35
f 33/66/36 37/6/36 52/64/36
f 8/73/37 24/74/37 30/75/37
f 24/74/38 8/73/38 49/76/38
f 4/3/39 25/8/39 27/11/39
f 25/8/40 4/3/40 32/56/40
f 6/77/41 26/45/41 40/44/41
f 26/45/42 6/77/42 10/78/42
f 27/11/43 5/9/43 4/3/43
f 61/79/44 70/21/44 28/20/44
f 37/6/45 65/5/45 52/64/45
f 14/52/46 35/53/46 29/80/46
f 41/81/47 49/76/47 8/73/47
f 30/82/42 10/78/42 6/77/42
f 10/83/37 30/75/37 24/74/37
f 35/84/48 31/85/48 1/36/48
f 51/86/49 26/34/49 1/36/49
f 32/56/50 15/4/50 25/8/50
f 15/4/51 32/56/51 18/62/51
f 67/87/52 23/72/52 33/63/52
f 37/6/53 33/66/53 23/39/53
f 5/9/16 23/39/16 34/38/16
f 13/88/54 35/84/54 1/36/54
f 13/89/55 29/80/55 35/53/55
f 17/14/6 36/25/6 54/12/6
f 53/27/56 54/12/56 36/25/56
f 23/39/57 11/10/57 37/6/57
f 25/8/58 37/6/58 11/10/58
f 39/48/59 60/54/59 38/46/59
f 7/23/60 38/46/60 60/54/60
f 59/13/61 39/48/61 3/47/61
f 60/54/62 39/48/62 12/50/62
f 40/44/63 12/50/63 39/48/63
f 40/44/64 51/43/64 12/50/64
f 29/80/65 13/89/65 41/81/65
f 43/24/66 58/68/66 20/22/66
f 9/30/67 42/67/67 45/28/67
f 58/68/33 45/28/33 42/67/33
f 14/52/68 29/80/68 43/24/68
f 58/68/69 43/24/69 29/80/69
f 42/90/70 9/26/70 66/60/70
f 68/59/71 66/60/71 9/26/71
f 53/29/72 45/28/72 8/73/72
f 41/81/73 8/73/73 45/28/73
f 66/60/74 46/33/74 42/90/74
f 20/22/75 42/67/75 46/69/75
f 68/59/26 71/61/26 47/57/26
f 18/62/29 47/57/29 71/61/29
f 69/18/8 61/79/8 48/16/8
f 28/20/44 48/16/44 61/79/44
f 49/49/76 13/88/76 1/36/76
f 49/76/77 41/81/77 13/89/77
f 69/18/78 50/55/78 3/47/78
f 17/14/79 3/47/79 50/55/79
f 31/85/80 51/86/80 1/36/80
f 31/51/81 12/50/81 51/43/81
f 19/65/82 52/64/82 28/20/82
f 48/16/83 28/20/83 52/64/83
f 54/12/84 53/27/84 30/82/84
f 8/73/72 30/75/72 53/29/72
f 59/13/85 54/12/85 6/77/85
f 30/82/84 6/77/84 54/12/84
f 5/9/4 21/91/4 55/7/4
f 56/42/86 55/7/86 21/91/86
f 21/91/86 67/87/86 56/42/86
f 33/63/87 56/42/87 67/87/87
f 64/1/88 57/15/88 44/31/88
f 62/32/89 44/31/89 57/15/89
f 45/28/73 58/68/73 41/81/73
f 29/80/69 41/81/69 58/68/69
f 6/77/85 40/44/85 59/13/85
f 39/48/63 59/13/63 40/44/63
f 12/50/62 14/52/62 60/54/62
f 43/24/68 60/54/68 14/52/68
f 38/46/90 7/23/90 61/79/90
f 70/21/91 61/79/91 7/23/91
f 57/15/89 19/41/89 62/32/89
f 28/20/82 62/19/82 19/65/82
f 18/62/51 63/17/51 15/4/51
f 65/5/92 15/4/92 63/17/92
f 72/2/93 64/1/93 16/58/93
f 44/31/88 16/58/88 64/1/88
f 63/17/92 48/16/92 65/5/92
f 52/64/83 65/5/83 48/16/83
f 16/58/27 44/31/27 66/60/27
f 46/33/13 66/60/13 44/31/13
f 23/72/94 67/87/94 2/70/94
f 21/91/95 2/70/95 67/87/95
f 71/61/96 68/59/96 36/25/96
f 9/26/97 36/25/97 68/59/97
f 3/47/98 38/46/98 69/18/98
f 61/79/99 69/18/99 38/46/99
f 46/69/75 70/21/75 20/22/75
f 7/23/100 20/22/100 70/21/100
f 36/25/96 17/14/96 71/61/96
f 50/55/101 71/61/101 17/14/101
f 16/58/93 47/57/93 72/2/93
f 32/56/30 72/2/30 47/57/30
usemtl NW_NATURE_BARKRINGS_02
f 21/91/102 34/38/102 2/70/102
f 2/70/103 34/38/103 22/71/103
f 27/11/104 11/10/104 23/39/104
f 23/39/104 5/9/104 27/11/104
f 21/91/105 5/9/105 34/38/105
