# Blender v2.75 (sub 0) OBJ File: 'Empty.blend'
# www.blender.org
mtllib ITMW_040_1H_AXE_02.mtl
o ITMW_040_1H_AXE_02
v -0.698925 0.000010 0.000069
v 0.199300 -0.000000 -0.018490
v -0.453020 -0.011340 0.000069
v -0.453020 0.011340 0.000069
v -0.473094 0.000000 0.174846
v -0.473094 0.000000 -0.173285
v -0.337702 0.000000 -0.133720
v -0.337702 0.000000 0.135281
v -0.583739 0.000000 0.138562
v -0.583739 0.000000 -0.137001
v -0.527971 -0.009056 0.046708
v -0.422995 0.008742 0.053265
v -0.422995 -0.008742 -0.051704
v -0.527971 0.009056 -0.045147
v -0.396751 -0.007171 -0.084489
v -0.396751 0.007171 0.086050
v -0.495166 0.008428 0.059822
v -0.495166 -0.008428 -0.058261
v -0.490000 -0.012500 -0.025000
v -0.350000 -0.012500 0.000000
v -0.520000 -0.015000 0.000000
v -0.490000 -0.012500 0.025000
v -0.324580 0.000018 -0.097603
v -0.324580 0.000018 0.099164
v 0.199300 -0.000000 0.018564
v -0.396751 -0.007171 0.086050
v -0.396751 0.007171 -0.084489
v -0.422995 -0.008742 0.053265
v -0.422995 0.008742 -0.051704
v -0.527971 0.009056 0.046708
v -0.527971 -0.009056 -0.045147
v -0.495166 -0.008428 0.059822
v -0.495166 0.008428 -0.058261
v -0.520000 0.015000 0.000000
v -0.482044 -0.011254 0.000809
v -0.350000 0.012500 0.000000
v -0.490000 0.012500 0.025000
v -0.490000 0.012500 -0.025000
v 0.199300 -0.011908 0.000089
v 0.199300 0.011203 0.000089
v -0.514993 0.008272 0.063077
v -0.514993 -0.008272 0.063077
v -0.514993 0.008272 -0.061516
v -0.514993 -0.008272 -0.061516
v -0.363946 0.004293 0.099164
v -0.363946 0.004293 -0.097603
v -0.429556 -0.011254 0.000809
v -0.422500 -0.012500 -0.025000
v -0.422500 -0.012500 0.025000
v -0.482044 0.011254 0.000809
v -0.422500 0.012500 0.025000
v -0.422500 0.012500 -0.025000
v -0.363946 -0.004293 0.099164
v -0.363946 -0.004293 -0.097603
v -0.429556 0.011254 0.000809
v -0.403312 0.004344 0.145063
v -0.567337 0.005915 0.112278
v -0.403312 -0.004344 0.145063
v -0.567337 -0.005915 0.112278
v -0.403312 -0.004344 -0.143502
v -0.567337 -0.005915 -0.110717
v -0.403312 0.004344 -0.143502
v -0.567337 0.005915 -0.110717
v -0.453020 -0.000000 0.018497
v -0.393470 0.000000 0.168086
v -0.393470 0.000000 -0.166525
v -0.453020 -0.000000 -0.018358
v -0.350824 -0.003037 -0.123831
v -0.350824 -0.003037 0.125392
v -0.350824 0.003037 0.125392
v -0.350824 0.003037 -0.123831
v -0.473094 0.004178 0.148541
v -0.473094 -0.004178 0.148541
v -0.473094 0.004178 -0.146980
v -0.473094 -0.004178 -0.146980
v -0.534532 0.000000 0.161525
v -0.534532 0.000000 -0.159964
v -0.534532 0.004815 0.135228
v -0.534532 -0.004815 0.135228
v -0.534532 0.004815 -0.133667
v -0.534532 -0.004815 -0.133667
v -0.098750 -0.011908 0.000089
v -0.155075 -0.000000 -0.018358
v -0.427500 -0.015000 0.000000
v -0.427500 0.015000 0.000000
v -0.098750 0.011203 0.000089
v -0.155075 -0.000000 0.018497
v -0.155075 -0.011340 0.000069
v -0.155075 0.011340 0.000069
v -0.098750 -0.000000 -0.018490
v -0.098750 -0.000000 0.018564
vt 0.768547 -0.951329
vt 0.840067 -0.932656
vt 0.763159 -0.897667
vt 0.744876 -0.948972
vt 0.744478 -0.897667
vt 0.842090 -0.916099
vt 0.846166 -0.855830
vt 0.878748 -0.905141
vt 0.878748 -0.861309
vt 0.825786 -0.833915
vt 0.831951 -0.957632
vt 0.266378 -0.491560
vt 0.220303 -0.381101
vt 0.220303 -0.500499
vt 0.220303 -0.281268
vt 0.266378 -0.365233
vt 0.174229 -0.491560
vt 0.174229 -0.365233
vt 0.806081 -0.815946
vt 0.765997 -0.810880
vt 0.765993 -0.773646
vt 0.772224 -0.976367
vt 0.765321 -0.839393
vt 0.744680 -0.831175
vt 0.745562 -0.990064
vt 0.741907 -0.990167
vt 0.815554 -0.944368
vt 0.746329 -0.752328
vt 0.745660 -0.784604
vt 0.992831 -0.636711
vt 0.963747 -0.636711
vt 0.963747 -0.305007
vt 0.934663 -0.636711
vt 0.934663 -0.305007
vt 0.200518 -0.466420
vt 0.231012 -0.466420
vt 0.200518 -0.270288
vt 0.170025 -0.466420
vt 0.170025 -0.270288
vt 0.231012 -0.270288
vt 0.992831 -0.305007
vt 0.224261 -0.236180
vt 0.200543 -0.236180
vt 0.176826 -0.236180
vn 0.000000 0.998900 -0.047800
vn 0.000000 -0.998900 -0.047800
vn -0.034000 0.987100 0.156800
vn -0.034000 -0.987100 0.156800
vn -0.034000 0.987100 -0.156800
vn -0.034000 -0.987100 -0.156800
vn 0.000000 -0.998900 0.047800
vn 0.000000 0.998900 0.047800
vn 0.000000 -0.995000 -0.099500
vn 0.326000 0.000000 -0.945400
vn 0.000000 -0.995000 0.099500
vn 0.326000 0.000000 0.945400
vn 0.108900 -0.994000 0.006800
vn 0.108000 0.994100 0.006400
vn 0.108900 -0.994000 -0.006800
vn 0.108000 0.994100 -0.006400
vn 0.780700 0.000000 -0.624900
vn 0.000000 0.000000 -1.000000
vn 0.780700 0.000000 0.624900
vn 0.000000 0.000000 1.000000
vn 0.992300 0.000000 0.124000
vn 0.783600 0.000000 -0.621300
vn -0.857400 0.000000 -0.514700
vn 0.783600 0.000000 0.621300
vn -0.857400 0.000000 0.514700
vn -0.976200 0.000000 0.216900
vn -0.640200 0.000000 -0.768200
vn -0.640200 0.000000 0.768200
vn -0.976200 0.000000 -0.217100
vn 0.000000 0.995000 0.099500
vn 0.000000 0.995000 -0.099500
vn -0.162000 0.000000 -0.986800
vn -0.162000 0.000000 0.986800
vn 0.371200 0.000000 -0.928600
vn 0.065400 0.996300 0.055000
vn 0.371200 0.000000 0.928600
vn 0.065400 0.996300 -0.055000
vn 0.992300 0.000000 -0.124100
vn 0.065400 -0.996300 0.055000
vn 0.065400 -0.996300 -0.055000
vn 0.036100 0.998900 0.029800
vn 0.013300 0.987500 0.156800
vn -0.028800 0.983200 0.180000
vn 0.036100 -0.998900 0.029800
vn 0.013300 -0.987500 0.156800
vn -0.848400 0.000000 -0.529400
vn -0.028800 -0.983200 0.180000
vn 0.036100 -0.998900 -0.029800
vn 0.013300 -0.987500 -0.156800
vn -0.028800 -0.983200 -0.180000
vn 0.036100 0.998900 -0.029800
vn 0.013300 0.987500 -0.156800
vn -0.848400 0.000000 0.529400
vn -0.028800 0.983200 -0.180000
vn -0.039200 0.851000 0.523700
vn -0.039300 -0.851000 0.523700
vn 0.081200 -0.985200 0.151200
vn 0.081200 0.985200 0.151200
vn 0.081200 -0.985200 -0.151200
vn 0.081200 0.985200 -0.151200
vn -0.039200 0.851000 -0.523700
vn -0.039300 -0.851000 -0.523700
vn 0.099500 -0.980600 -0.169100
vn 0.178700 -0.981800 -0.064400
vn 0.099500 -0.980600 0.169100
vn 0.178700 -0.981800 0.064400
vn 0.099500 0.980600 0.169100
vn 0.178100 0.981900 0.065200
vn 0.099500 0.980600 -0.169100
vn 0.178100 0.981900 -0.065200
vn 0.006800 0.983200 0.182600
vn 0.006800 -0.983200 0.182600
vn 0.006800 0.983200 -0.182600
vn 0.006800 -0.983200 -0.182600
vn -0.083800 -0.980200 0.179500
vn -0.083800 0.980200 0.179500
vn -0.083800 -0.980200 -0.179500
vn -0.083800 0.980200 -0.179500
vn -0.084700 0.982100 0.168100
vn -0.084700 -0.982100 0.168100
vn -0.084700 0.982100 -0.168100
vn -0.084700 -0.982100 -0.168100
vn 0.032100 -0.995100 0.093100
vn 0.032100 -0.995100 -0.093100
vn 0.032100 0.995100 -0.093100
vn 0.032100 0.995100 0.093100
vn 0.000000 -0.851700 0.524100
vn 0.000000 -0.851700 -0.524100
vn 0.000000 0.851700 0.524100
vn 0.000000 0.851700 -0.524100
vn 1.000000 0.000000 0.000000
vn 0.000000 -0.840500 0.541800
vn 0.000000 0.855100 0.518500
vn 0.000000 -0.841900 -0.539600
vn 0.000000 0.856400 -0.516400
vn -0.008400 -0.851600 -0.524100
vn -0.008800 -0.851600 0.524100
vn 0.001900 0.851700 0.524100
vn 0.002300 0.851700 -0.524100
vn -0.001200 0.856400 -0.516400
vn -0.001300 -0.841900 -0.539600
vn -0.000600 0.855100 0.518500
vn -0.000600 -0.840500 0.541800
usemtl ITMELEEBLADES
s off
f 80/1/1 43/2/1 74/3/1
f 81/1/2 75/3/2 44/2/2
f 72/3/3 76/4/3 5/5/3
f 73/3/4 5/5/4 76/4/4
f 74/3/5 6/5/5 77/4/5
f 75/3/6 77/4/6 6/5/6
f 79/1/7 42/2/7 73/3/7
f 78/1/8 72/3/8 41/2/8
f 17/6/8 72/3/8 12/7/8
f 32/6/7 28/7/7 73/3/7
f 33/6/1 29/7/1 74/3/1
f 18/6/2 75/3/2 13/7/2
f 35/8/2 13/7/2 47/9/2
f 50/8/1 55/9/1 29/7/1
f 33/6/1 50/8/1 29/7/1
f 18/6/2 13/7/2 35/8/2
f 13/7/2 75/3/2 15/10/2
f 29/7/1 27/10/1 74/3/1
f 12/7/8 72/3/8 16/10/8
f 28/7/7 26/10/7 73/3/7
f 78/1/8 41/2/8 30/11/8
f 79/1/7 11/11/7 42/2/7
f 81/1/2 44/2/2 31/11/2
f 80/1/1 14/11/1 43/2/1
f 19/12/9 84/13/9 21/14/9
f 36/15/10 48/16/10 52/16/10
f 84/13/11 22/17/11 21/14/11
f 49/18/12 36/15/12 51/18/12
f 54/19/13 68/20/13 23/21/13
f 46/19/14 23/21/14 71/20/14
f 53/19/15 24/21/15 69/20/15
f 45/19/16 70/20/16 24/21/16
f 28/7/17 16/10/17 26/10/17
f 53/19/18 45/19/18 24/21/18
f 13/7/19 15/10/19 27/10/19
f 54/19/20 23/21/20 46/19/20
f 16/10/17 28/7/17 12/7/17
f 55/9/21 47/9/21 13/7/21
f 27/10/19 29/7/19 13/7/19
f 13/7/21 29/7/21 55/9/21
f 41/2/22 11/11/22 30/11/22
f 59/22/23 30/11/23 11/11/23
f 43/2/24 14/11/24 31/11/24
f 61/22/25 31/11/25 14/11/25
f 11/11/22 41/2/22 42/2/22
f 18/6/26 35/8/26 50/8/26
f 50/8/26 33/6/26 18/6/26
f 31/11/24 44/2/24 43/2/24
f 34/14/27 19/12/27 21/14/27
f 37/17/28 21/14/28 22/17/28
f 32/6/29 50/8/29 35/8/29
f 32/6/7 35/8/7 28/7/7
f 48/16/10 36/15/10 20/15/10
f 36/15/12 49/18/12 20/15/12
f 37/17/30 85/13/30 34/14/30
f 21/14/28 37/17/28 34/14/28
f 85/13/31 38/12/31 34/14/31
f 19/12/27 34/14/27 38/12/27
f 17/6/32 42/2/32 41/2/32
f 41/2/8 72/3/8 17/6/8
f 42/2/32 17/6/32 32/6/32
f 42/2/7 32/6/7 73/3/7
f 33/6/33 43/2/33 44/2/33
f 43/2/1 33/6/1 74/3/1
f 44/2/33 18/6/33 33/6/33
f 44/2/2 75/3/2 18/6/2
f 45/19/34 26/10/34 16/10/34
f 16/10/35 56/23/35 45/19/35
f 46/19/36 27/10/36 15/10/36
f 27/10/37 46/19/37 62/23/37
f 55/9/38 28/7/38 47/9/38
f 35/8/7 47/9/7 28/7/7
f 84/13/9 19/12/9 48/16/9
f 52/16/18 48/16/18 19/12/18
f 84/13/11 49/18/11 22/17/11
f 49/18/20 37/17/20 22/17/20
f 50/8/29 32/6/29 17/6/29
f 17/6/8 12/7/8 50/8/8
f 85/13/30 37/17/30 51/18/30
f 49/18/20 51/18/20 37/17/20
f 85/13/31 52/16/31 38/12/31
f 52/16/18 19/12/18 38/12/18
f 26/10/34 45/19/34 53/19/34
f 26/10/39 53/19/39 58/23/39
f 15/10/36 54/19/36 46/19/36
f 15/10/40 60/23/40 54/19/40
f 28/7/38 55/9/38 12/7/38
f 50/8/8 12/7/8 55/9/8
f 45/19/41 56/23/41 70/20/41
f 72/3/42 5/5/42 65/24/42
f 30/11/23 59/22/23 57/22/23
f 72/3/43 78/1/43 76/4/43
f 53/19/44 69/20/44 58/23/44
f 73/3/45 65/24/45 5/5/45
f 9/25/46 57/22/46 59/22/46
f 73/3/47 76/4/47 79/1/47
f 54/19/48 60/23/48 68/20/48
f 75/3/49 6/5/49 66/24/49
f 14/11/25 63/22/25 61/22/25
f 75/3/50 81/1/50 77/4/50
f 46/19/51 71/20/51 62/23/51
f 74/3/52 66/24/52 6/5/52
f 10/25/53 61/22/53 63/22/53
f 74/3/54 77/4/54 80/1/54
f 64/26/55 4/27/55 1/28/55
f 3/27/56 64/26/56 1/28/56
f 65/24/57 58/23/57 69/20/57
f 65/24/58 70/20/58 56/23/58
f 66/24/59 68/20/59 60/23/59
f 66/24/60 62/23/60 71/20/60
f 4/27/61 67/26/61 1/28/61
f 67/26/62 3/27/62 1/28/62
f 66/24/63 7/29/63 68/20/63
f 68/20/64 7/29/64 23/21/64
f 65/24/65 69/20/65 8/29/65
f 69/20/66 24/21/66 8/29/66
f 65/24/67 8/29/67 70/20/67
f 70/20/68 8/29/68 24/21/68
f 66/24/69 71/20/69 7/29/69
f 71/20/70 23/21/70 7/29/70
f 16/10/8 72/3/8 56/23/8
f 72/3/71 65/24/71 56/23/71
f 26/10/7 58/23/7 73/3/7
f 73/3/72 58/23/72 65/24/72
f 27/10/1 62/23/1 74/3/1
f 74/3/73 62/23/73 66/24/73
f 15/10/2 75/3/2 60/23/2
f 75/3/74 66/24/74 60/23/74
f 9/25/75 79/1/75 76/4/75
f 9/25/76 76/4/76 78/1/76
f 10/25/77 77/4/77 81/1/77
f 10/25/78 80/1/78 77/4/78
f 78/1/8 30/11/8 57/22/8
f 9/25/79 78/1/79 57/22/79
f 79/1/7 59/22/7 11/11/7
f 9/25/80 59/22/80 79/1/80
f 80/1/1 63/22/1 14/11/1
f 10/25/81 63/22/81 80/1/81
f 81/1/2 31/11/2 61/22/2
f 10/25/82 81/1/82 61/22/82
f 49/18/83 84/13/83 20/15/83
f 84/13/84 48/16/84 20/15/84
f 52/16/85 85/13/85 36/15/85
f 85/13/86 51/18/86 36/15/86
usemtl ITMELEEREST
f 64/30/87 3/31/87 88/32/87
f 3/31/88 67/33/88 83/34/88
f 64/30/89 89/32/89 4/31/89
f 4/31/90 83/34/90 67/33/90
f 83/34/90 4/31/90 89/32/90
f 83/34/88 88/32/88 3/31/88
f 40/35/91 39/35/91 2/36/91
f 82/37/92 25/38/92 91/39/92
f 40/35/93 91/39/93 25/38/93
f 39/35/91 40/35/91 25/38/91
f 90/40/94 39/35/94 82/37/94
f 25/38/92 82/37/92 39/35/92
f 39/35/94 90/40/94 2/36/94
f 86/37/95 2/36/95 90/40/95
f 91/39/93 40/35/93 86/37/93
f 2/36/95 86/37/95 40/35/95
f 88/32/87 87/41/87 64/30/87
f 89/32/89 64/30/89 87/41/89
f 83/42/96 82/37/96 88/43/96
f 88/43/97 82/37/97 87/44/97
f 87/44/98 86/37/98 89/43/98
f 89/43/99 86/37/99 83/42/99
f 83/42/100 86/37/100 90/40/100
f 82/37/101 83/42/101 90/40/101
f 86/37/102 87/44/102 91/39/102
f 87/44/103 82/37/103 91/39/103
