# Blender v2.75 (sub 0) OBJ File: 'Empty.blend'
# www.blender.org
mtllib ITMW_065_1H_SWORD_BASTARD_03.mtl
o ITMW_065_1H_SWORD_BASTARD_03
v -0.034990 0.000010 -0.064200
v -0.939990 0.000010 0.027990
v -0.256961 0.000010 0.034335
v -0.256961 0.000010 -0.034355
v -0.034990 0.000010 0.064180
v -0.094246 0.000010 -0.028381
v -0.155467 0.000010 -0.102467
v -0.022884 0.000010 -0.059083
v -0.155467 0.000010 0.102447
v -0.022884 0.000010 0.059063
v -0.094246 0.000010 0.028361
v -1.009990 0.000010 -0.000010
v -0.939990 0.000010 -0.028010
v -0.038490 0.011010 0.017490
v -0.013990 0.010010 0.132990
v -0.010490 -0.014990 0.066490
v -0.038490 0.011010 -0.017510
v -0.076990 -0.009990 -0.000010
v -0.013990 0.010010 -0.133010
v -0.010490 -0.014990 -0.066510
v 0.198270 0.000010 -0.015839
v -0.014045 0.000010 -0.020278
v -0.014045 0.000010 0.020458
v 0.198270 0.000010 0.014897
v -0.010490 0.015010 -0.066510
v -0.010490 0.015010 0.066490
v 0.208510 0.000010 0.012490
v 0.264510 0.000010 -0.000010
v 0.208510 0.000010 -0.012510
v 0.212010 -0.009990 -0.026510
v 0.212010 0.010010 0.026490
v 0.198010 0.010010 -0.026510
v 0.198010 -0.009990 0.026490
v -0.076990 0.010010 -0.000010
v -0.041990 0.010010 -0.133010
v -0.038490 -0.010990 -0.017510
v -0.041990 -0.009990 -0.133010
v -0.013990 -0.009990 -0.133010
v -0.041990 0.010010 0.132990
v -0.038490 -0.010990 0.017490
v -0.041990 -0.009990 0.132990
v -0.013990 -0.009990 0.132990
v 0.212010 0.010010 -0.026510
v 0.212010 -0.009990 0.026490
v 0.198010 0.010010 0.026490
v 0.198010 -0.009990 -0.026510
v 0.199399 -0.009428 -0.000135
v -0.016592 -0.010364 -0.000135
v -0.016592 0.009750 -0.000135
v 0.199792 0.008252 -0.000135
v -0.020990 0.005010 -0.119010
v -0.034990 -0.009990 -0.000010
v -0.034990 0.010010 -0.000010
v -0.020990 -0.004990 0.118990
v -0.020990 0.005010 0.118990
v -0.020990 -0.004990 -0.119010
v 0.208510 -0.004990 -0.000010
v 0.208510 0.005010 -0.000010
v -0.034990 0.005010 -0.119010
v -0.034990 0.005010 0.118990
v -0.034990 -0.004990 0.118990
v -0.034990 -0.004990 -0.119010
v -0.964490 -0.004990 -0.000010
v -0.964490 0.005010 -0.000010
vt 0.405143 -0.502965
vt 0.362484 -0.323592
vt 0.405143 -0.014347
vt 0.447802 -0.323592
vt 0.447778 -0.502965
vt 0.426858 -0.495507
vt 0.374471 -0.497168
vt 0.357533 -0.408942
vt 0.362650 -0.015797
vt 0.447635 -0.015797
vt 0.362507 -0.502965
vt 0.405143 -0.001130
vt 0.011594 -0.498287
vt 0.031465 -0.554674
vt 0.094065 -0.499346
vt 0.317360 -0.489748
vt 0.190581 -0.598665
vt 0.063803 -0.489748
vt 0.117810 -0.241090
vt 0.119348 -0.471347
vt 0.155182 -0.471486
vt 0.117810 -0.241246
vt 0.085621 -0.241925
vt 0.085027 -0.470570
vt 0.038538 -0.579874
vt 0.326333 -0.583651
vt 0.038386 -0.485274
vt 0.326445 -0.512141
vt 0.326429 -0.477931
vt 0.038260 -0.512141
vt 0.031360 -0.551424
vt 0.089878 -0.552217
vt 0.031360 -0.495342
vt 0.038212 -0.477931
vt 0.519614 -0.476126
vt 0.519614 -0.582914
vt 0.491395 -0.582914
vt 0.547833 -0.582914
vt 0.078122 -0.577380
vt 0.290155 -0.577380
vt 0.078122 -0.476006
vt 0.290155 -0.476006
vt 0.326349 -0.486993
vt 0.088339 -0.550448
vt 0.033351 -0.495549
vt 0.078829 -0.507432
vt 0.033351 -0.518961
vt 0.061289 -0.555701
vt 0.034200 -0.556799
vt 0.061289 -0.500024
vt 0.078829 -0.517158
vt 0.034200 -0.501123
vt 0.089878 -0.497572
vt 0.155152 -0.241461
vn -0.005200 -0.968700 0.248400
vn -0.005200 0.968700 0.248400
vn -0.005200 0.968700 -0.248400
vn -0.005200 -0.968700 -0.248400
vn -0.020700 0.987900 -0.153900
vn -0.020700 -0.987900 -0.153900
vn 0.000000 1.000000 -0.000000
vn 0.000000 -1.000000 0.000000
vn -0.001600 0.984200 0.177200
vn -0.001600 -0.984200 0.177200
vn -0.001600 0.984200 -0.177200
vn -0.001600 -0.984200 -0.177200
vn -0.020700 -0.987900 0.153900
vn -0.020700 0.987900 0.153900
vn -0.105400 -0.958900 0.263400
vn -0.105400 -0.958900 -0.263400
vn -0.105400 0.958900 0.263400
vn -0.105400 0.958900 -0.263400
vn -0.253000 -0.965200 0.065800
vn -0.253000 0.965200 0.065800
vn -0.075000 -0.997200 0.000000
vn -0.075000 0.997200 0.000000
vn -0.253000 -0.965200 -0.065800
vn -0.253000 0.965200 -0.065800
vn 0.006300 0.904300 0.426900
vn 0.003900 -0.893300 0.449500
vn 0.009700 0.885000 -0.465500
vn 0.010800 -0.856700 -0.515700
vn -0.707100 0.000000 -0.707100
vn 1.000000 0.000000 0.000000
vn 0.980600 0.000000 -0.196100
vn -0.707100 0.000000 0.707100
vn 0.980600 0.000000 0.196100
vn 0.082600 -0.925300 -0.370100
vn 0.082600 0.925300 0.370100
vn -1.000000 0.000000 0.000000
vn 0.000000 0.982300 -0.187100
vn 0.000000 -0.982300 -0.187100
vn -0.999400 0.000000 -0.034500
vn 0.000000 0.000000 -1.000000
vn 0.000000 0.982300 0.187100
vn 0.000000 -0.982300 0.187100
vn -0.999400 0.000000 0.034500
vn 0.000000 0.000000 1.000000
vn 0.013900 -0.846400 0.532400
vn 0.003900 -0.889200 -0.457500
vn 0.006200 0.900600 -0.434700
vn 0.012600 0.876200 0.481700
vn 0.894400 0.000000 0.447200
vn 0.000000 0.941700 0.336300
vn 0.894400 0.000000 -0.447200
vn 0.000000 -0.941700 -0.336300
vn 0.000000 0.941700 -0.336300
vn 0.000000 -0.941700 0.336300
vn 0.082600 -0.925300 0.370100
vn 0.082600 0.925300 -0.370100
vn -0.894400 0.000000 0.447200
vn -0.894400 0.000000 -0.447200
usemtl ITMELEEBLADES
s off
f 52/1/1 3/2/1 63/3/1
f 53/1/2 64/3/2 3/2/2
f 64/3/3 53/1/3 4/4/3
f 52/1/4 63/3/4 4/4/4
f 1/5/5 4/4/5 53/1/5
f 1/5/6 52/1/6 4/4/6
f 6/6/7 8/7/7 7/8/7
f 7/8/8 8/7/8 6/6/8
f 9/8/7 10/7/7 11/6/7
f 11/6/8 10/7/8 9/8/8
f 2/9/9 3/2/9 64/3/9
f 2/9/10 63/3/10 3/2/10
f 4/4/11 13/10/11 64/3/11
f 13/10/12 4/4/12 63/3/12
f 5/11/13 3/2/13 52/1/13
f 5/11/14 53/1/14 3/2/14
f 2/9/15 12/12/15 63/3/15
f 63/3/16 12/12/16 13/10/16
f 64/3/17 12/12/17 2/9/17
f 13/10/18 12/12/18 64/3/18
usemtl ITMELEEREST
f 40/13/19 16/14/19 61/15/19
f 60/15/20 26/14/20 14/13/20
f 16/16/21 18/17/21 20/18/21
f 25/18/22 34/17/22 26/16/22
f 36/13/23 62/15/23 20/14/23
f 59/15/24 17/13/24 25/14/24
f 50/19/25 49/20/25 23/21/25
f 47/22/26 23/21/26 48/20/26
f 21/23/27 22/24/27 50/19/27
f 21/23/28 47/22/28 22/24/28
f 20/25/29 18/26/29 25/27/29
f 20/28/30 25/29/30 16/30/30
f 20/31/31 56/32/31 25/33/31
f 16/25/32 26/27/32 18/26/32
f 26/34/30 16/30/30 25/29/30
f 16/31/33 26/33/33 54/32/33
f 28/35/34 57/36/34 29/37/34
f 27/38/35 28/35/35 58/36/35
f 32/39/36 46/40/36 45/41/36
f 43/41/30 31/39/30 30/42/30
f 33/42/36 45/41/36 46/40/36
f 44/40/30 30/42/30 31/39/30
f 34/43/32 18/26/32 26/27/32
f 34/43/29 25/27/29 18/26/29
f 51/44/37 59/15/37 25/14/37
f 56/44/38 20/14/38 62/15/38
f 17/45/39 59/46/39 36/47/39
f 37/48/40 35/49/40 38/50/40
f 59/46/39 62/51/39 36/47/39
f 19/52/40 38/50/40 35/49/40
f 51/53/31 25/33/31 56/32/31
f 55/44/41 26/14/41 60/15/41
f 54/44/42 61/15/42 16/14/42
f 14/45/43 40/47/43 60/46/43
f 41/48/44 42/50/44 39/49/44
f 60/46/43 40/47/43 61/51/43
f 15/52/44 39/49/44 42/50/44
f 55/53/33 54/32/33 26/33/33
f 32/39/7 45/40/7 43/41/7
f 43/39/40 30/40/40 32/41/40
f 44/42/44 31/41/44 33/40/44
f 33/39/8 46/40/8 44/41/8
f 45/39/44 33/40/44 31/41/44
f 31/42/7 43/41/7 45/40/7
f 46/42/40 32/41/40 30/40/40
f 30/42/8 44/41/8 46/40/8
f 47/22/45 24/54/45 23/21/45
f 47/22/46 48/20/46 22/24/46
f 22/24/47 49/20/47 50/19/47
f 23/21/48 24/54/48 50/19/48
f 19/49/49 51/52/49 38/48/49
f 51/48/50 19/49/50 59/50/50
f 54/50/51 55/52/51 42/48/51
f 42/48/52 41/50/52 54/49/52
f 15/49/51 42/48/51 55/52/51
f 55/48/53 60/50/53 15/49/53
f 56/50/49 38/48/49 51/52/49
f 38/48/54 56/49/54 37/50/54
f 57/36/55 28/35/55 27/38/55
f 29/37/56 58/36/56 28/35/56
f 35/52/50 59/50/50 19/49/50
f 35/52/57 37/50/57 59/49/57
f 39/52/53 15/49/53 60/50/53
f 39/52/58 60/49/58 41/50/58
f 61/52/52 54/49/52 41/50/52
f 61/48/58 41/50/58 60/49/58
f 62/52/54 37/50/54 56/49/54
f 62/48/57 59/49/57 37/50/57
