# Blender v2.75 (sub 0) OBJ File: 'Empty.blend'
# www.blender.org
mtllib ITMW_012_1H_NAILMACE_01.mtl
o ITMW_012_1H_NAILMACE_01
v -0.613490 0.000000 0.019333
v -0.458161 0.000000 -0.009339
v -0.536785 0.000000 -0.035646
v -0.536785 0.000000 0.045640
v -0.587714 -0.001055 0.006419
v -0.591972 0.010000 0.093182
v -0.548850 -0.005000 0.026568
v 0.200000 0.000000 0.017920
v -0.642080 0.016630 0.000000
v 0.200000 -0.000000 -0.017920
v -0.642080 -0.016630 -0.000000
v -0.551822 0.013023 -0.001114
v -0.601371 -0.042294 -0.077950
v -0.575858 0.015042 0.008540
v -0.587128 0.057336 0.058051
v -0.561891 0.001598 0.005364
v -0.557714 -0.003565 -0.001573
v -0.507127 0.054618 -0.043378
v -0.531891 -0.002764 -0.004313
v -0.523603 -0.009208 0.015713
v -0.473847 -0.050476 0.055802
v -0.499348 -0.003868 0.008087
v -0.501466 0.011741 -0.001573
v -0.538103 -0.068785 -0.043378
v -0.525927 0.003424 -0.004313
v -0.536785 -0.032411 0.004997
v -0.536785 0.032411 0.004997
v -0.637080 0.000000 0.027920
v -0.512521 -0.000100 0.009887
v -0.543680 0.004526 0.009887
v -0.562549 0.000377 0.009784
v 0.200000 0.016630 0.000000
v 0.200000 -0.016630 -0.000000
v -0.511476 0.005749 0.020504
v -0.561273 0.010000 0.022770
v -0.573688 -0.005052 0.019411
v -0.617080 -0.000000 -0.017920
v -0.458161 0.000000 0.019333
v -0.458162 -0.009175 0.004997
v -0.458162 0.009175 0.004997
v -0.613490 0.000000 -0.009339
v -0.613490 -0.009175 0.004997
v -0.613490 0.009175 0.004997
vt 0.403712 -0.443278
vt 0.439763 -0.352065
vt 0.397505 -0.352065
vt 0.440770 -0.445742
vt 0.402705 -0.268790
vt 0.439763 -0.271255
vt 0.415725 -0.508966
vt 0.550536 -0.506124
vt 0.413927 -0.569131
vt 0.993135 -0.767195
vt 0.968047 -0.767195
vt 0.993135 -0.042909
vt 0.944721 -0.767195
vt 0.944553 -0.031034
vt 0.968047 -0.028065
vt -0.167265 -0.531343
vt -0.197235 -0.839217
vt -0.181275 -0.613427
vt -0.197932 -0.537509
vt 0.483870 -0.444510
vt 0.482021 -0.352065
vt -0.137452 -0.766693
vt -0.137452 -0.291706
vt -0.137452 -0.529200
vt 0.482863 -0.270022
vt -0.228541 -0.612972
vt -0.228541 -0.445428
vt -0.228541 -0.529200
vn 0.204200 0.765400 0.610300
vn 0.225100 -0.761800 0.607500
vn -0.209100 0.764500 0.609700
vn -0.230500 -0.760800 0.606700
vn -0.051900 -0.980900 0.187300
vn -0.700100 0.645500 -0.305200
vn 0.000000 -0.733000 -0.680200
vn 0.008100 0.733000 0.680200
vn 0.006100 -0.859600 0.510900
vn 0.000000 0.733000 -0.680200
vn -0.137500 0.843800 -0.518800
vn 0.755700 -0.654700 -0.016000
vn 0.794100 -0.187100 0.578300
vn -0.098200 0.659800 -0.745000
vn -0.072200 -0.539800 -0.838700
vn -0.631000 0.732400 0.255700
vn -0.054300 -0.728600 -0.682700
vn -0.532000 0.165400 0.830500
vn -0.066600 0.483400 -0.872800
vn 0.819100 -0.509500 0.263700
vn 0.204200 -0.765400 -0.610300
vn -1.000000 0.000000 0.000000
vn -0.209100 -0.764500 -0.609700
vn 1.000000 0.000000 0.000000
vn 0.225100 0.761800 -0.607500
vn -0.230500 0.760800 -0.606700
vn -0.984300 0.000000 0.176300
vn 0.000000 0.859100 0.511700
vn -0.735900 -0.222000 0.639700
vn 0.786300 0.077900 0.612900
vn -0.643000 -0.537300 0.545800
vn 0.000000 -0.733000 0.680200
vn 0.737300 0.636200 0.227400
vn 0.694900 0.652200 0.303000
vn -0.662900 -0.492200 0.564200
vn -0.582600 0.000000 -0.812800
vn 0.241600 0.817300 0.523100
vn 0.241600 -0.817300 -0.523100
vn 0.177500 -0.828900 0.530500
vn 0.177500 0.828900 -0.530500
vn -0.247200 -0.816100 -0.522300
vn -0.247200 0.816100 0.522300
vn -0.181800 -0.828200 0.530100
vn -0.181800 0.828200 -0.530100
usemtl ITMELEEREST
s off
f 38/1/1 27/2/1 4/3/1
f 39/4/2 4/3/2 26/2/2
f 4/3/3 27/2/3 1/5/3
f 26/2/4 4/3/4 42/6/4
f 7/7/5 6/8/5 36/9/5
f 36/9/6 6/8/6 35/9/6
f 10/10/7 33/11/7 37/12/7
f 8/13/8 32/11/8 28/14/8
f 11/15/9 8/13/9 28/14/9
f 9/15/10 10/10/10 37/12/10
f 12/7/11 13/8/11 14/9/11
f 31/9/12 13/8/12 12/7/12
f 16/16/13 15/17/13 36/18/13
f 5/19/14 15/17/14 16/16/14
f 17/7/15 18/8/15 19/9/15
f 30/9/16 18/8/16 17/7/16
f 22/7/17 21/8/17 20/9/17
f 20/9/18 21/8/18 34/7/18
f 23/7/19 24/8/19 25/9/19
f 29/7/20 24/8/20 23/7/20
f 2/20/21 26/2/21 3/21/21
f 4/22/22 3/23/22 26/24/22
f 3/21/23 26/2/23 41/25/23
f 26/24/24 3/23/24 4/22/24
f 40/4/25 3/21/25 27/2/25
f 27/24/22 3/23/22 4/22/22
f 27/2/26 3/21/26 43/6/26
f 4/22/24 3/23/24 27/24/24
f 11/15/27 28/14/27 9/15/27
f 28/14/28 32/11/28 9/15/28
f 25/9/29 24/8/29 29/7/29
f 19/9/30 18/8/30 30/9/30
f 14/9/31 13/8/31 31/9/31
f 32/11/10 10/10/10 9/15/10
f 8/13/24 10/10/24 32/11/24
f 33/11/32 8/13/32 11/15/32
f 33/11/24 10/10/24 8/13/24
f 34/7/33 21/8/33 22/7/33
f 35/9/34 6/8/34 7/7/34
f 36/18/35 15/17/35 5/19/35
f 11/15/36 9/15/36 37/12/36
f 37/12/7 33/11/7 11/15/7
f 40/4/37 27/2/37 38/1/37
f 39/4/38 26/2/38 2/20/38
f 38/1/39 4/3/39 39/4/39
f 2/20/40 3/21/40 40/4/40
f 41/25/41 26/2/41 42/6/41
f 1/5/42 27/2/42 43/6/42
f 1/26/22 41/27/22 42/28/22
f 42/6/43 4/3/43 1/5/43
f 43/28/22 41/27/22 1/26/22
f 43/6/44 3/21/44 41/25/44
