# Blender v2.75 (sub 0) OBJ File: 'Empty.blend'
# www.blender.org
mtllib ITMW_028_2H_HALBERD_01.mtl
o ITMW_028_2H_HALBERD_01
v -0.413361 0.002364 0.142751
v -0.670887 -0.002433 0.142344
v -0.560927 0.005000 0.000000
v -0.692327 0.005000 0.085900
v -0.791327 0.000000 0.156700
v -0.296327 0.000000 0.156700
v -0.355727 -0.005000 0.091800
v -0.509969 -0.005000 0.070000
v -0.523827 -0.005000 -0.010000
v -0.503827 0.000000 -0.100000
v -0.578827 0.000000 -0.100000
v -0.628533 0.005000 0.095167
v -0.577685 -0.005000 0.070000
v -0.563827 0.005000 -0.010000
v -0.593667 -0.008500 -0.027000
v -0.389979 -0.013500 0.000000
v -0.607563 0.016200 0.000000
v -0.576847 -0.000000 -0.018358
v 0.339300 -0.000000 -0.018374
v -0.576847 -0.000000 0.018497
v 0.339300 -0.000000 0.018292
v -0.771527 0.005000 0.127200
v -0.526727 -0.005000 0.000000
v -0.809427 0.000000 -0.009131
v -0.568427 0.000000 -0.017664
v -0.568427 0.000000 0.017664
v -0.528827 -0.005000 -0.085000
v -0.648203 0.000000 0.156700
v -0.809741 0.000000 0.009022
v -0.681237 0.002224 0.143578
v -0.502732 -0.008500 -0.027000
v -0.593667 -0.011000 0.027000
v -0.771527 -0.005000 0.127200
v -0.628533 -0.005000 0.095167
v -0.731927 -0.005000 0.091800
v -0.389979 0.013500 0.000000
v -0.593667 0.008500 0.027000
v -0.607563 -0.016200 0.000000
v 0.339300 -0.011687 0.000089
v -0.577685 0.005000 0.070000
v -0.576847 -0.011340 0.000069
v -0.576847 0.011340 0.000069
v -0.502732 -0.011000 0.027000
v 0.339300 0.011179 0.000089
v -0.593667 0.007500 -0.027000
v -0.528827 0.005000 -0.085000
v -0.509969 0.005000 0.070000
v -0.526727 0.005000 0.000000
v -0.560927 -0.005000 0.000000
v -0.523827 0.005000 -0.010000
v -0.558827 -0.005000 -0.085000
v -0.563827 -0.005000 -0.010000
v -0.558827 0.005000 -0.085000
v -0.459122 0.005000 0.095167
v -0.395327 0.005000 0.085900
v -0.355727 0.005000 0.091800
v -0.762104 0.007200 0.000000
v -0.762104 -0.007200 0.000000
v -0.459122 -0.005000 0.095167
v -0.731927 0.005000 0.091800
v -0.566027 0.007102 0.000002
v -0.566027 -0.007102 0.000002
v -0.423916 -0.002578 0.141492
v -0.436662 0.000000 0.156700
v -0.543780 0.000000 -0.150000
v -0.502732 0.008500 0.027000
v -0.502732 0.007500 -0.027000
v -0.692327 -0.005000 0.085900
v -0.395327 -0.005000 0.085900
v -0.825182 0.000000 0.000000
v -0.316127 0.005000 0.127200
v -0.316127 -0.005000 0.127200
v -0.137303 -0.011687 0.000089
v -0.213628 -0.000000 -0.018358
v -0.510507 -0.016200 0.000000
v -0.510507 0.016200 0.000000
v -0.762104 0.000000 0.012288
v -0.762104 0.000000 -0.012288
v -0.137303 0.011179 0.000089
v -0.213628 -0.000000 0.018497
v -0.213628 -0.011340 0.000069
v -0.213628 0.011340 0.000069
v -0.137303 -0.000000 0.018292
v -0.543827 0.005000 0.127200
v -0.543827 -0.005000 0.127200
v -0.137303 -0.000000 -0.018374
vt 0.763978 -0.742913
vt 0.795015 -0.674312
vt 0.763978 -0.633674
vt 0.813510 -0.617431
vt 0.813510 -0.649918
vt 0.744817 -0.685087
vt 0.744817 -0.583600
vt 0.753878 -0.696265
vt 0.754695 -0.691202
vt 0.803993 -0.704917
vt 0.886043 -0.641878
vt 0.118193 -0.742306
vt 0.149220 -0.565899
vt 0.117632 -0.565899
vt 0.763978 -0.524435
vt 0.795015 -0.593037
vt 0.803993 -0.562432
vt 0.147688 -0.742306
vt 0.131328 -0.473223
vt 0.165676 -0.385199
vt 0.131328 -0.379129
vt 0.744817 -0.514936
vt 0.753340 -0.567752
vt 0.754141 -0.572717
vt 0.886043 -0.625471
vt 0.795721 -0.749355
vt 0.784416 -0.580975
vt 0.745886 -0.747295
vt 0.132495 -0.506571
vt 0.166805 -0.547729
vt 0.746080 -0.580975
vt 0.165676 -0.314207
vt 0.131328 -0.303359
vt 0.096980 -0.385199
vt 0.798277 -0.543433
vt 0.096980 -0.314207
vt 0.102399 -0.547729
vt 0.798277 -0.723915
vt 0.744629 -0.540201
vt 0.744502 -0.514232
vt 0.744817 -0.752412
vt 0.816738 -1.041390
vt 0.816719 -0.919704
vt 0.793676 -1.041390
vt 0.278931 -0.236582
vt 0.298511 -0.236582
vt 0.278931 -0.004973
vt 0.298511 -0.004973
vt 0.259627 -0.236582
vt 0.259627 -0.004973
vt 0.793701 -0.348402
vt 0.793701 -0.919704
vt 0.770683 -0.348402
vt 0.816719 -0.348402
vt 0.770683 -0.919704
vt 0.770939 -1.041389
vn 0.000000 1.000000 -0.000000
vn 0.000000 -1.000000 -0.000000
vn 0.000000 -0.985900 0.167100
vn 0.000000 0.985900 0.167100
vn 0.021400 0.953400 -0.301000
vn 0.021600 -0.963100 -0.268400
vn 0.000500 -0.927800 -0.373100
vn 0.000500 0.927800 -0.373100
vn 0.133200 -0.985400 -0.106400
vn 0.133200 0.985400 -0.106400
vn -0.014000 -0.862700 -0.505500
vn -0.014000 0.862700 -0.505500
vn 0.118400 0.000000 0.993000
vn -0.279000 -0.771500 0.571700
vn 0.000000 -0.961700 -0.274300
vn 0.232900 0.000000 -0.972500
vn -0.889200 0.000000 -0.457600
vn 0.021600 0.963100 0.268400
vn -0.666500 0.000000 -0.745500
vn -0.830300 0.000000 -0.557300
vn -0.443600 0.000000 -0.896200
vn 0.143700 0.000000 -0.989600
vn 0.232900 0.000000 0.972500
vn -0.889200 0.000000 0.457600
vn 0.022000 -0.982900 0.183000
vn -0.972500 0.000000 -0.232800
vn 0.000000 -0.982000 0.189100
vn 0.000000 0.000000 1.000000
vn 0.000000 0.000000 -1.000000
vn 0.514500 0.000000 0.857500
vn 0.997800 0.000000 -0.066500
vn 0.972500 0.000000 -0.232800
vn -0.143700 0.000000 -0.989600
vn 0.000000 -0.997100 -0.076700
vn 0.000000 0.997100 -0.076700
vn -0.997800 0.000000 -0.066500
vn -0.600000 0.000000 0.800000
vn 0.443600 0.000000 -0.896200
vn 0.666500 0.000000 -0.745500
vn 0.147400 0.000000 -0.989100
vn -0.014000 0.862700 0.505500
vn -0.111300 0.975100 -0.192000
vn -0.014000 -0.862700 0.505500
vn -0.111300 -0.975100 -0.192000
vn -0.147400 0.000000 -0.989100
vn 0.000500 0.927800 0.373100
vn 0.000500 -0.927800 0.373100
vn -0.118400 0.000000 0.993000
vn 0.341000 -0.837200 0.427700
vn -0.160700 -0.980600 -0.112600
vn -0.160700 0.980600 -0.112600
vn 0.000000 0.961700 0.274300
vn 0.000000 0.951800 -0.306700
vn -0.111300 0.975300 0.190500
vn -0.111300 -0.975300 0.190500
vn 0.830300 0.000000 -0.557300
vn -0.034600 0.862300 0.505200
vn -0.034600 -0.862300 0.505200
vn -0.033700 0.862300 -0.505300
vn -0.033700 -0.862300 -0.505300
vn -0.000100 0.855400 -0.517900
vn -0.000100 -0.844900 -0.534900
vn 0.000000 0.855400 -0.517900
vn 0.000000 -0.844900 -0.534900
vn 0.000000 -0.841500 0.540300
vn 1.000000 -0.000000 0.000000
vn 0.000000 0.852100 0.523300
vn 0.000000 -0.851700 -0.524100
vn 0.000000 -0.851700 0.524100
vn 0.000000 0.851700 -0.524100
vn 0.000000 0.851700 0.524100
vn -0.003700 -0.851700 -0.524100
vn -0.004000 -0.851700 0.524100
vn 0.001700 0.851700 0.524100
vn 0.001900 0.851700 -0.524100
vn 0.001400 0.852100 0.523300
vn 0.001400 -0.841500 0.540300
usemtl ITMELEEBLADES
s off
f 71/1/1 54/2/1 84/3/1
f 72/1/2 85/3/2 59/2/2
f 85/3/2 13/4/2 8/5/2
f 84/3/1 47/5/1 40/4/1
f 85/3/3 64/6/3 28/7/3
f 84/3/4 28/7/4 1/8/4
f 1/8/4 71/1/4 84/3/4
f 85/3/3 63/9/3 64/6/3
f 72/1/2 59/2/2 69/10/2
f 71/1/1 55/10/1 54/2/1
f 13/4/2 23/11/2 8/5/2
f 40/4/1 47/5/1 48/11/1
f 14/12/1 46/13/1 53/14/1
f 52/12/2 51/14/2 27/13/2
f 22/15/1 12/16/1 4/17/1
f 33/15/2 68/17/2 34/16/2
f 85/3/2 34/16/2 13/4/2
f 84/3/1 40/4/1 12/16/1
f 46/13/1 14/12/1 50/18/1
f 27/13/2 9/18/2 52/12/2
f 36/19/5 67/20/5 76/21/5
f 16/19/6 75/21/6 31/20/6
f 5/22/4 30/23/4 22/15/4
f 5/22/3 33/15/3 2/24/3
f 13/4/2 49/25/2 23/11/2
f 40/4/1 48/11/1 3/25/1
f 62/26/7 58/27/7 25/28/7
f 61/26/8 25/28/8 57/27/8
f 65/29/9 10/30/9 27/13/9
f 65/29/10 46/13/10 10/30/10
f 85/3/3 28/7/3 2/24/3
f 84/3/4 30/23/4 28/7/4
f 78/31/11 25/28/11 58/27/11
f 78/31/12 57/27/12 25/28/12
f 30/23/13 5/22/13 2/24/13
f 30/23/14 2/24/14 28/7/14
f 31/20/15 75/21/15 15/32/15
f 67/20/16 36/19/16 31/20/16
f 38/33/17 17/33/17 15/32/17
f 36/19/18 76/21/18 66/34/18
f 33/15/19 22/15/19 60/35/19
f 5/22/20 22/15/20 33/15/20
f 34/16/21 12/16/21 40/4/21
f 68/17/22 12/16/22 34/16/22
f 33/15/19 60/35/19 35/35/19
f 68/17/22 4/17/22 12/16/22
f 16/19/16 31/20/16 36/19/16
f 16/19/23 36/19/23 43/34/23
f 17/33/24 38/33/24 37/36/24
f 66/34/23 43/34/23 36/19/23
f 32/36/24 37/36/24 38/33/24
f 16/19/25 43/34/25 75/21/25
f 13/4/26 40/4/26 3/25/26
f 34/16/21 40/4/21 13/4/21
f 32/36/27 75/21/27 43/34/27
f 32/36/28 43/34/28 37/36/28
f 45/32/17 15/32/17 17/33/17
f 15/32/29 67/20/29 31/20/29
f 27/13/30 10/30/30 46/13/30
f 50/18/31 27/13/31 46/13/31
f 8/5/32 48/11/32 47/5/32
f 69/10/33 59/2/33 54/2/33
f 8/5/32 23/11/32 48/11/32
f 13/4/26 3/25/26 49/25/26
f 27/13/31 50/18/31 9/18/31
f 65/29/34 27/13/34 51/14/34
f 65/29/35 53/14/35 46/13/35
f 53/14/36 52/12/36 14/12/36
f 53/14/37 11/37/37 51/14/37
f 52/12/36 53/14/36 51/14/36
f 84/3/1 54/2/1 47/5/1
f 59/2/38 47/5/38 54/2/38
f 69/10/33 54/2/33 55/10/33
f 72/1/39 7/38/39 56/38/39
f 71/1/1 56/38/1 55/10/1
f 7/38/40 55/10/40 56/38/40
f 77/31/41 26/28/41 57/27/41
f 24/39/42 70/40/42 57/27/42
f 77/31/43 58/27/43 26/28/43
f 58/27/44 70/40/44 24/39/44
f 85/3/2 8/5/2 59/2/2
f 59/2/38 8/5/38 47/5/38
f 22/15/1 4/17/1 60/35/1
f 35/35/45 60/35/45 4/17/45
f 61/26/46 57/27/46 26/28/46
f 62/26/47 26/28/47 58/27/47
f 63/9/3 85/3/3 72/1/3
f 1/8/48 63/9/48 6/41/48
f 1/8/4 28/7/4 64/6/4
f 64/6/49 63/9/49 1/8/49
f 51/14/50 11/37/50 65/29/50
f 53/14/51 65/29/51 11/37/51
f 66/34/52 76/21/52 37/36/52
f 37/36/28 43/34/28 66/34/28
f 45/32/53 76/21/53 67/20/53
f 45/32/29 67/20/29 15/32/29
f 33/15/2 35/35/2 68/17/2
f 35/35/45 4/17/45 68/17/45
f 72/1/2 69/10/2 7/38/2
f 7/38/40 69/10/40 55/10/40
f 57/27/54 70/40/54 29/39/54
f 29/39/55 70/40/55 58/27/55
f 72/1/39 56/38/39 71/1/39
f 6/41/4 71/1/4 1/8/4
f 6/41/56 72/1/56 71/1/56
f 6/41/3 63/9/3 72/1/3
f 38/33/27 75/21/27 32/36/27
f 38/33/15 15/32/15 75/21/15
f 17/33/53 76/21/53 45/32/53
f 17/33/52 37/36/52 76/21/52
f 29/39/57 77/31/57 57/27/57
f 58/27/58 77/31/58 29/39/58
f 78/31/59 24/39/59 57/27/59
f 24/39/60 78/31/60 58/27/60
f 12/16/1 22/15/1 84/3/1
f 30/23/4 84/3/4 22/15/4
f 34/16/2 85/3/2 33/15/2
f 2/24/3 33/15/3 85/3/3
usemtl ITMELEEREST
f 86/42/61 74/43/61 79/44/61
f 86/42/62 73/44/62 74/43/62
f 44/45/63 19/46/63 79/47/63
f 73/47/64 86/48/64 39/45/64
f 39/45/65 21/49/65 73/47/65
f 19/46/66 44/45/66 39/45/66
f 83/50/65 73/47/65 21/49/65
f 79/47/67 83/50/67 44/45/67
f 21/49/67 44/45/67 83/50/67
f 21/49/66 39/45/66 44/45/66
f 41/51/68 74/43/68 81/52/68
f 81/52/69 20/53/69 41/51/69
f 74/43/68 41/51/68 18/54/68
f 18/54/70 42/51/70 74/43/70
f 82/52/70 74/43/70 42/51/70
f 42/51/71 20/53/71 82/52/71
f 20/53/69 81/52/69 80/55/69
f 80/55/71 82/52/71 20/53/71
f 81/52/72 74/43/72 73/44/72
f 80/55/73 81/52/73 73/44/73
f 82/52/74 80/55/74 79/44/74
f 74/43/75 82/52/75 79/44/75
f 83/56/76 79/44/76 80/55/76
f 83/56/77 80/55/77 73/44/77
f 86/48/63 79/47/63 19/46/63
f 19/46/64 39/45/64 86/48/64
