# Blender v2.75 (sub 0) OBJ File: 'Empty.blend'
# www.blender.org
mtllib ITMW_075_1H_SWORD_SMITH_04.mtl
o ITMW_075_1H_SWORD_SMITH_04
v -0.426398 -0.001934 -0.020010
v -0.012676 0.000010 -0.035010
v -0.295990 0.000010 0.034990
v -0.295990 0.000010 -0.035010
v -0.197323 0.000010 -0.035010
v -0.197323 0.000010 0.034990
v -0.012676 0.000010 0.036990
v -0.047350 0.000010 -0.126284
v -0.001151 0.000010 0.081917
v -0.001151 0.000010 -0.080222
v -0.047350 0.000010 0.127979
v -0.975399 0.000010 -0.020034
v -0.572132 0.000010 -0.039910
v -0.583133 0.000010 0.022790
v 0.222724 0.022617 0.000010
v -0.013521 0.000025 0.024418
v 0.222724 -0.022599 0.000010
v -0.426398 0.001954 0.019990
v -0.975399 0.000010 0.020014
v -1.007983 0.000010 -0.000010
v -0.583133 0.000010 -0.022810
v -0.572132 0.000010 0.039890
v -0.303038 0.001954 0.019990
v -0.303038 -0.001934 -0.020010
v -0.426398 0.000010 0.034990
v -0.426398 0.000010 -0.035010
v 0.251695 0.000009 0.000010
v -0.013521 0.000031 -0.024398
v -0.597995 0.004869 -0.000010
v -0.597995 -0.004849 -0.000010
v -0.426398 0.006181 -0.000010
v -0.426398 -0.006161 -0.000010
v -0.013521 0.013585 -0.073502
v -0.013521 -0.013565 -0.073502
v -0.013521 0.013585 0.075197
v -0.013521 -0.013565 0.075197
v 0.222724 0.000009 -0.034023
v -0.013099 -0.009994 -0.000007
v -0.013099 0.010013 -0.000007
v 0.222724 0.000009 0.032782
v -0.303038 0.001954 -0.020010
v -0.426398 0.001954 -0.020010
v -0.303038 -0.001934 0.019990
v -0.426398 -0.001934 0.019990
v 0.175919 0.010006 0.000012
v 0.175919 -0.009988 0.000012
v -0.031016 0.000010 0.122456
v -0.031016 0.000010 -0.120762
v 0.189450 -0.000001 -0.019356
v -0.031305 0.000010 -0.067742
v 0.189450 0.000020 0.019376
v -0.046770 0.000010 -0.105896
v -0.031305 0.000010 0.069437
v -0.046770 0.000010 0.107590
v -0.929175 0.004869 -0.000010
v -0.929175 -0.004849 -0.000010
v -0.157857 -0.006701 -0.000010
v -0.157857 0.006721 -0.000010
v -0.140942 0.000010 -0.025010
v -0.140942 0.000010 0.024990
v -0.303038 -0.005967 -0.000010
v -0.303038 0.005987 -0.000010
v -0.929175 0.000010 -0.025010
v -0.929175 0.000010 0.024990
vt 0.221738 -0.098676
vt 0.221738 -0.009837
vt 0.177424 -0.002447
vt 0.266224 -0.002447
vt 0.254962 -0.098676
vt 0.190630 -0.098676
vt 0.312144 -0.402403
vt 0.268647 -0.020240
vt 0.268646 -0.309276
vt 0.266224 -0.281505
vt 0.221738 -0.281342
vt 0.221738 -0.052108
vt 0.254378 -0.281436
vt 0.221738 -0.182448
vt 0.187965 -0.281436
vt 0.188516 -0.182448
vt 0.254962 -0.182448
vt 0.264502 -0.052108
vt 0.177396 -0.281505
vt 0.177417 -0.052108
vt 0.266218 -0.281436
vt 0.177424 -0.098666
vt 0.266239 -0.098666
vt 0.177424 -0.182448
vt 0.266224 -0.182448
vt 0.355707 -0.309276
vt 0.355707 -0.020240
vt 0.177423 -0.281436
vt 0.221738 0.001193
vt 0.187485 -0.020845
vt 0.255991 -0.020845
vt 0.312301 -0.003318
vt 0.325690 -0.001624
vt 0.297663 -0.001785
vt 0.287369 -0.480403
vt 0.087982 -0.480403
vt 0.079610 -0.541604
vt 0.069842 -0.578588
vt 0.305509 -0.578588
vt 0.295741 -0.541604
vt 0.516792 -0.024810
vt 0.517872 -0.220699
vt 0.550001 -0.220699
vt 0.486980 -0.018045
vt 0.485778 -0.220699
vt 0.546599 -0.018045
vt 0.024388 -0.547876
vt 0.352392 -0.547534
vt 0.375549 -0.515745
vt -0.000095 -0.520163
vt 0.022046 -0.481516
vt 0.351773 -0.481027
vt 0.198369 -0.106010
vt 0.295505 -0.192246
vt 0.295572 -0.106010
vt 0.389175 -0.106010
vt 0.295510 0.003117
vt 0.361572 -0.028432
vt 0.229438 -0.028432
vn -0.005000 -0.983100 0.182900
vn -0.005000 0.983100 0.182900
vn -0.005000 0.983100 -0.182900
vn -0.005000 -0.983100 -0.182900
vn -0.010000 -0.980200 -0.197700
vn -0.010000 0.980200 -0.197700
vn -0.010000 -0.980200 0.197700
vn -0.010000 0.980200 0.197700
vn -0.024400 0.965000 0.261200
vn -0.024400 -0.965000 0.261200
vn 0.000000 -0.992700 -0.120900
vn -0.007500 -0.977000 -0.213100
vn 0.000000 0.992700 -0.120900
vn -0.007500 0.977000 -0.213100
vn -0.008400 0.978300 0.206800
vn 0.000000 0.978400 0.206800
vn 0.000000 -0.978400 -0.206800
vn -0.008400 -0.978300 -0.206800
vn -0.008000 0.981600 -0.190800
vn -0.008000 -0.981600 -0.190800
vn -0.008000 -0.981600 0.190800
vn -0.008000 0.981600 0.190800
vn 0.840500 -0.033600 0.540700
vn 0.840500 0.033600 0.540700
vn 0.000000 -0.992700 0.120900
vn 0.000000 0.992700 0.120900
vn 0.000000 0.991700 0.128500
vn 0.000000 -0.991700 0.128500
vn 0.000000 -0.991700 -0.128500
vn 0.000000 0.991700 -0.128500
vn -0.010000 -0.991700 0.128500
vn -0.010000 0.991700 0.128500
vn -0.010000 -0.991700 -0.128500
vn -0.010000 0.991700 -0.128500
vn -0.021400 0.961200 -0.275000
vn -0.021400 -0.961200 -0.275000
vn -0.007500 0.977000 0.213100
vn 0.840500 0.033600 -0.540700
vn -0.007500 -0.977000 0.213100
vn 0.840500 -0.033600 -0.540700
vn -0.008400 0.978300 -0.206800
vn 0.000000 0.978400 -0.206800
vn -0.008400 -0.978300 0.206800
vn 0.000000 -0.978400 0.206800
vn -0.140500 0.000000 -0.990100
vn 0.905100 0.000000 0.425200
vn 1.000000 0.000000 0.000000
vn -0.114300 0.000000 -0.993400
vn -0.140500 0.000000 0.990100
vn 0.905100 0.000000 -0.425200
vn -0.114300 0.000000 0.993400
vn -0.061200 0.993100 0.099600
vn -0.061200 0.993100 -0.099600
vn -0.061200 -0.993100 0.099600
vn -0.061200 -0.993100 -0.099600
vn -0.021900 -0.961800 0.273000
vn -0.021900 -0.961800 -0.273000
vn -0.021900 0.961800 0.273000
vn -0.021900 0.961800 -0.273000
vn 0.041300 0.971600 -0.232900
vn 0.041300 -0.971600 -0.232900
vn 0.041300 -0.971600 0.232900
vn 0.041300 0.971600 0.232900
vn 0.001500 -0.980300 0.197700
vn 0.001500 -0.980300 -0.197700
vn 0.001500 0.980300 0.197700
vn 0.001500 0.980300 -0.197700
vn -0.020500 -0.981400 -0.190800
vn -0.020500 0.981400 -0.190800
vn -0.020500 -0.981400 0.190800
vn -0.020500 0.981400 0.190800
vn -0.606800 -0.794900 -0.000000
vn -0.606800 0.794900 0.000000
vn 0.739100 -0.673500 -0.000000
vn 0.739100 0.673500 0.000000
vn -0.000000 0.925600 0.378500
vn -0.000000 -0.925200 0.379500
vn 0.011400 0.891600 -0.452700
vn 0.011300 0.891900 0.452100
vn 0.011200 -0.891500 0.452900
vn 0.011100 -0.891900 -0.452100
vn 0.561600 0.716600 -0.413700
vn 0.561600 -0.716600 -0.413700
vn 0.561600 0.716600 0.413700
vn 0.561600 -0.716600 0.413700
vn 0.000100 -0.924900 -0.380100
vn 0.000100 0.925500 -0.378800
vn 0.104900 -0.944900 0.310200
vn 0.104900 0.944900 0.310200
vn 0.104900 -0.944900 -0.310200
vn 0.104900 0.944900 -0.310200
vn -0.545500 -0.808400 0.221100
vn -0.545500 0.808400 0.221100
vn -0.387200 -0.921900 0.011000
vn -0.387200 0.921900 0.011000
vn -0.545500 -0.808400 -0.221100
vn -0.545500 0.808400 -0.221100
vn -0.387200 -0.921900 -0.011000
vn -0.387200 0.921900 -0.011000
vn 0.545000 -0.698400 -0.463900
vn 0.545000 0.698400 -0.463900
vn 0.540500 -0.692600 0.477800
vn 0.540500 0.692600 0.477800
vn -0.215100 0.798600 0.562200
vn -0.215100 0.798200 -0.562700
vn -0.215000 -0.798200 0.562800
vn -0.215200 -0.798600 -0.562100
vn -0.236700 -0.809300 -0.537600
vn -0.237200 0.809200 -0.537500
vn -0.223300 -0.802400 0.553500
vn -0.222800 0.802500 0.553600
usemtl ITMELEEBLADES
s off
f 61/1/1 57/2/1 6/3/1
f 58/2/2 62/1/2 6/3/2
f 62/1/3 58/2/3 5/4/3
f 57/2/4 61/1/4 5/4/4
f 61/1/5 24/5/5 5/4/5
f 62/1/6 5/4/6 41/5/6
f 61/1/7 6/3/7 43/6/7
f 62/1/8 23/6/8 6/3/8
f 39/7/9 60/8/9 7/9/9
f 60/8/10 38/7/10 7/9/10
f 13/10/11 30/11/11 56/12/11
f 30/11/12 21/13/12 32/14/12
f 13/10/13 55/12/13 29/11/13
f 31/14/14 21/13/14 29/11/14
f 14/15/15 18/16/15 31/14/15
f 31/14/16 18/16/16 23/6/16
f 32/14/17 1/17/17 24/5/17
f 1/17/18 32/14/18 21/13/18
f 55/12/19 13/10/19 63/18/19
f 56/12/20 63/18/20 13/10/20
f 56/12/21 22/19/21 64/20/21
f 55/12/22 64/20/22 22/19/22
f 13/10/23 21/21/23 30/11/23
f 13/10/24 29/11/24 21/21/24
f 22/19/25 56/12/25 30/11/25
f 22/19/26 29/11/26 55/12/26
f 18/16/27 3/22/27 23/6/27
f 44/16/28 43/6/28 3/22/28
f 1/17/29 4/23/29 24/5/29
f 42/17/30 41/5/30 4/23/30
f 14/15/31 44/16/31 25/24/31
f 14/15/32 25/24/32 18/16/32
f 21/13/33 26/25/33 1/17/33
f 21/13/34 42/17/34 26/25/34
f 39/7/35 2/26/35 59/27/35
f 59/27/36 2/26/36 38/7/36
f 31/14/37 29/11/37 14/15/37
f 22/19/38 14/28/38 29/11/38
f 14/15/39 30/11/39 32/14/39
f 22/19/40 30/11/40 14/28/40
f 21/13/41 31/14/41 42/17/41
f 31/14/42 41/5/42 42/17/42
f 32/14/43 44/16/43 14/15/43
f 32/14/44 43/6/44 44/16/44
f 24/5/45 41/5/45 5/4/45
f 41/5/46 24/5/46 4/23/46
f 1/17/47 26/25/47 42/17/47
f 42/17/48 4/23/48 1/17/48
f 43/6/49 6/3/49 23/6/49
f 23/6/50 3/22/50 43/6/50
f 44/16/47 18/16/47 25/24/47
f 18/16/51 44/16/51 3/22/51
f 55/12/52 20/29/52 19/30/52
f 12/31/53 20/29/53 55/12/53
f 19/30/54 20/29/54 56/12/54
f 56/12/55 20/29/55 12/31/55
f 57/32/56 38/7/56 60/8/56
f 59/27/57 38/7/57 57/32/57
f 60/8/58 39/7/58 58/32/58
f 58/32/59 39/7/59 59/27/59
f 59/27/60 5/33/60 58/32/60
f 57/32/61 5/33/61 59/27/61
f 60/8/62 6/34/62 57/32/62
f 58/32/63 6/34/63 60/8/63
f 43/6/64 32/14/64 61/1/64
f 24/5/65 61/1/65 32/14/65
f 23/6/66 62/1/66 31/14/66
f 41/5/67 31/14/67 62/1/67
f 12/31/68 63/18/68 56/12/68
f 55/12/69 63/18/69 12/31/69
f 56/12/70 64/20/70 19/30/70
f 19/30/71 64/20/71 55/12/71
usemtl ITMELEEREST
f 53/35/72 50/36/72 34/37/72
f 53/35/73 33/37/73 50/36/73
f 10/38/74 9/39/74 36/40/74
f 10/38/75 35/40/75 9/39/75
f 45/41/76 39/42/76 16/43/76
f 16/43/77 38/42/77 46/41/77
f 45/41/78 49/44/78 28/45/78
f 16/43/79 51/46/79 45/41/79
f 51/46/80 16/43/80 46/41/80
f 46/41/81 28/45/81 49/44/81
f 35/40/75 10/38/75 33/37/75
f 48/47/82 33/37/82 10/38/82
f 36/40/74 34/37/74 10/38/74
f 48/47/83 10/38/83 34/37/83
f 35/40/84 47/48/84 9/39/84
f 33/37/73 53/35/73 35/40/73
f 36/40/85 9/39/85 47/48/85
f 34/37/72 36/40/72 53/35/72
f 46/41/86 38/42/86 28/45/86
f 28/45/87 39/42/87 45/41/87
f 36/40/88 47/48/88 11/49/88
f 35/40/89 11/49/89 47/48/89
f 34/37/90 8/50/90 48/47/90
f 33/37/91 48/47/91 8/50/91
f 34/37/92 50/36/92 52/51/92
f 33/37/93 52/51/93 50/36/93
f 8/50/94 34/37/94 52/51/94
f 8/50/95 52/51/95 33/37/95
f 53/35/96 36/40/96 54/52/96
f 53/35/97 54/52/97 35/40/97
f 36/40/98 11/49/98 54/52/98
f 35/40/99 54/52/99 11/49/99
usemtl ITMISC_01
f 37/53/100 27/54/100 17/55/100
f 27/54/101 37/53/101 15/55/101
f 27/54/102 40/56/102 17/55/102
f 40/56/103 27/54/103 15/55/103
f 45/57/104 51/58/104 15/55/104
f 49/59/105 45/57/105 15/55/105
f 51/58/106 46/57/106 17/55/106
f 46/57/107 49/59/107 17/55/107
f 49/59/108 37/53/108 17/55/108
f 37/53/109 49/59/109 15/55/109
f 40/56/110 51/58/110 17/55/110
f 51/58/111 40/56/111 15/55/111
