# Blender v2.75 (sub 0) OBJ File: 'Empty.blend'
# www.blender.org
mtllib ITMW_080_2H_SWORD_HEAVY_04.mtl
o ITMW_080_2H_SWORD_HEAVY_04
v -0.286992 -0.002851 -0.052899
v -0.024020 -0.003153 -0.028887
v -0.286992 -0.002851 0.052899
v -1.178645 0.000000 -0.016410
v -0.245000 0.000000 -0.036500
v -0.245000 0.000000 0.036500
v -0.024020 0.003153 0.028887
v -0.007500 -0.005000 -0.037500
v -0.007500 -0.005000 0.037500
v -0.040000 0.010000 0.000000
v -0.502426 0.000000 -0.031129
v -0.564779 0.000000 -0.030431
v -0.532500 0.000000 -0.060000
v -0.503819 0.000000 0.032467
v -0.564362 0.000000 0.030813
v -0.532500 0.000000 0.060000
v -0.027022 0.000000 0.025533
v -0.090000 0.000000 0.080000
v -0.064084 0.000000 0.027513
v -0.027137 0.000000 -0.025632
v -0.090000 0.000000 -0.080000
v -0.063803 0.000000 -0.026942
v -0.315494 0.000000 -0.032435
v -0.332500 0.000000 -0.085000
v -0.348405 0.000000 -0.031984
v -1.178645 0.000000 0.016410
v -0.316952 0.000000 0.032597
v -0.332500 0.000000 0.075000
v -0.346679 0.000000 0.033297
v -0.005069 0.000000 -0.014538
v 0.260460 0.000000 -0.007990
v -0.005069 0.000000 0.014538
v 0.271340 0.012349 0.000000
v 0.258990 0.000000 0.021390
v 0.271340 -0.012349 0.000000
v 0.283689 0.000000 -0.021390
v -1.198534 0.000000 0.000000
v -0.790332 0.000000 0.027876
v -0.830890 0.000000 0.028328
v -0.802500 0.000000 0.050000
v -0.032500 -0.005000 -0.037500
v -0.791128 0.000000 -0.029324
v -0.830516 0.000000 -0.028614
v -0.802500 0.000000 -0.050000
v -0.011000 0.000000 -0.150000
v -0.028500 0.004000 -0.032500
v -0.033000 -0.000000 -0.150000
v -0.011000 0.000000 0.150000
v -0.028500 0.004000 0.032500
v -0.033000 -0.000000 0.150000
v -0.010500 -0.003000 -0.032500
v -0.010500 -0.003000 0.032500
v 0.260460 0.000000 0.007990
v -0.263952 0.010454 0.000000
v -0.263952 -0.010454 0.000000
v -0.032500 -0.005000 0.037500
v 0.276902 -0.005448 0.000002
v 0.276902 0.005448 0.000002
v -0.017741 -0.006881 0.000009
v -0.017741 0.006881 0.000009
v -0.007500 0.005000 0.037500
v -0.007500 0.005000 -0.037500
v -0.032500 0.005000 -0.037500
v 0.283689 0.000000 0.021390
v 0.258990 0.000000 -0.021390
v -0.032500 0.005000 0.037500
v -0.028500 -0.003000 -0.032500
v -0.028500 -0.003000 0.032500
v -0.010500 0.004000 -0.032500
v -0.010500 0.004000 0.032500
v -0.149980 0.003398 0.031682
v -0.024020 -0.003153 0.028887
v -0.024020 0.003153 -0.028887
v -0.286992 0.002851 -0.052899
v -0.286992 0.002851 0.052899
v 0.000000 -0.010000 0.000000
v -0.023500 0.001000 -0.087000
v -0.023500 0.001000 0.087000
v 0.296038 0.000000 0.000000
v 0.246641 0.000000 -0.000000
v 0.000000 0.010000 0.000000
v -0.040000 -0.010000 0.000000
v -1.128617 0.005934 0.000000
v -1.128617 -0.005934 0.000000
v -0.023500 -0.001000 -0.087000
v -0.023500 -0.001000 0.087000
v -0.149980 -0.003398 -0.030504
v -0.149980 0.003398 -0.030504
v -0.245000 0.005000 -0.010500
v -0.245000 -0.005000 -0.010500
v -0.149980 -0.003398 0.031682
v -0.024020 0.006653 0.000000
v -0.024020 -0.006653 0.000000
v -0.245000 0.005000 0.010500
v -0.245000 -0.005000 0.010500
v -1.065854 0.000000 0.029123
v -1.065854 0.000000 -0.029123
v -0.010500 0.001000 -0.087000
v -0.010500 0.001000 0.087000
v 0.130000 -0.006413 0.000005
v 0.130000 0.006413 0.000005
v -0.149980 -0.006898 0.000000
v -0.149980 0.006898 0.000000
v -1.070000 0.005000 0.010500
v -1.070000 -0.005000 0.010500
v -1.128617 0.000000 0.025000
v -1.070000 0.005000 -0.010500
v -1.070000 -0.005000 -0.010500
v -1.128617 0.000000 -0.025000
v 0.130000 0.000000 0.013750
v 0.130000 0.000000 -0.013750
v -0.010500 -0.001000 -0.087000
v -0.010500 -0.001000 0.087000
vt 0.142183 -0.580192
vt 0.189532 -0.580193
vt 0.189532 -0.478094
vt 0.494334 -0.236914
vt 0.521124 -0.257801
vt 0.495784 -0.006580
vt 0.696946 -0.811382
vt 0.649390 -0.838706
vt 0.696946 -0.866030
vt 0.649390 -0.893355
vt 0.696946 -0.920679
vt 0.142183 -0.478385
vt 0.079683 -0.478502
vt 0.000138 -0.580192
vt 0.000138 -0.478522
vt 0.079683 -0.580191
vt 0.378926 -0.478522
vt 0.378926 -0.580192
vt 0.299380 -0.478502
vt 0.299380 -0.580191
vt 0.521117 -0.006732
vt 0.236880 -0.580192
vt 0.546430 -0.006580
vt 0.547881 -0.236914
vt 0.236880 -0.478385
vt 0.744501 -0.838706
vt 0.744501 -0.893355
vt 0.148496 -0.580191
vt 0.230567 -0.580191
vt 0.148496 -0.478502
vt 0.230567 -0.478502
vt 0.535821 -0.230193
vt 0.521110 -0.258120
vt 0.506393 -0.230193
vt 0.077757 -0.370315
vt 0.046118 -0.278111
vt 0.077393 -0.256979
vt 0.033214 -0.270842
vt 0.057609 -0.037820
vt 0.054995 -0.270842
vt 0.011662 -0.515415
vt 0.046118 -0.515415
vt 0.046118 -0.370315
vt 0.072927 -0.136273
vt 0.073219 -0.146169
vt 0.085279 -0.136353
vt 0.073087 -0.136274
vt 0.073778 -0.145714
vt 0.066685 -0.182823
vt 0.084790 -0.176026
vt 0.066002 -0.188191
vt 0.066488 -0.182897
vt 0.066625 -0.216317
vt 0.085594 -0.216419
vt 0.066786 -0.221969
vt 0.081560 -0.039028
vt 0.068683 -0.216328
vt 0.068399 -0.221493
vt 0.006648 -0.039028
vt 0.030600 -0.037820
vt 0.074344 -0.053431
vt 0.085153 -0.055624
vt 0.074119 -0.059595
vt 0.074487 -0.053460
vt 0.074841 -0.059335
vt 0.013257 -0.370315
vt 0.014844 -0.256979
vt 0.022999 -0.006159
vt 0.044104 -0.020738
vt 0.044104 -0.000363
vt 0.065210 -0.006159
vt 0.080574 -0.515415
vt 0.081962 -0.270842
vt 0.006247 -0.270842
vt 0.011951 -0.020738
vt 0.076258 -0.020738
vn -0.980600 0.000000 -0.196100
vn 0.000000 0.991200 -0.132200
vn 0.002500 0.904800 -0.425800
vn 0.002500 -0.904800 -0.425800
vn -0.433000 0.866000 0.250000
vn 0.433000 0.866000 0.250000
vn 0.433000 -0.866000 0.250000
vn -0.433000 -0.866000 0.250000
vn 0.000000 -0.991200 -0.132200
vn -0.000000 -0.999900 -0.015900
vn 0.000000 0.999900 -0.015900
vn 0.000000 -0.999900 0.015900
vn 0.000000 0.999900 0.015900
vn 0.002900 0.906400 -0.422500
vn 0.002900 -0.906400 -0.422500
vn 0.000000 0.991200 0.132200
vn 0.002900 -0.906200 0.422800
vn 0.002900 0.906200 0.422800
vn 0.002500 -0.904600 0.426300
vn 0.002500 0.904600 0.426300
vn 0.000000 0.000000 1.000000
vn 0.980600 0.000000 -0.196100
vn 0.000000 0.000000 -1.000000
vn 0.000000 -0.866000 0.500000
vn 0.000000 0.866000 0.500000
vn 0.000000 -0.866000 -0.500000
vn 0.000000 0.866000 -0.500000
vn -0.980600 0.000000 0.196100
vn -0.988800 0.000000 0.149100
vn -0.988800 0.000000 -0.149100
vn 1.000000 0.000000 -0.007900
vn 1.000000 0.000000 0.007900
vn 0.000000 -0.991200 0.132200
vn 0.980600 0.000000 0.196100
vn 0.000000 0.998500 -0.055000
vn -0.995800 0.000000 -0.091400
vn 0.000000 0.998500 0.055000
vn -0.995800 0.000000 0.091400
vn 0.433000 -0.866000 -0.250000
vn 0.433000 0.866000 -0.250000
vn -0.433000 -0.866000 -0.250000
vn -0.433000 0.866000 -0.250000
vn 0.000000 -0.999300 -0.036700
vn 0.000000 -0.999300 0.036700
vn 1.000000 0.000000 0.000000
vn 0.005400 -0.820900 0.571000
vn 0.005400 -0.821100 -0.570800
vn 0.005400 0.820900 0.571000
vn 0.005400 0.821100 -0.570800
vn 0.018700 0.906100 0.422700
vn 0.018700 -0.906100 0.422700
vn 0.018700 0.906200 -0.422400
vn 0.018700 -0.906200 -0.422400
vn 0.020800 -0.988300 -0.151100
vn 0.020800 0.988300 -0.151100
vn 0.000000 -1.000000 0.000000
vn 0.000000 1.000000 0.000000
vn 0.001900 0.992700 0.120300
vn 0.001900 -0.992700 0.120300
vn 0.000000 0.965800 -0.259300
vn 0.000000 -0.965800 -0.259300
vn 0.000000 -0.965800 0.259300
vn 0.000000 0.965800 0.259300
vn 0.019400 0.988400 0.150500
vn -0.916800 0.000000 0.399300
vn 0.019400 -0.988400 0.150500
vn -0.916800 0.000000 -0.399300
vn 0.004400 0.993900 0.109800
vn 0.153000 0.000000 0.988200
vn 0.022200 0.000000 0.999800
vn 0.161300 -0.000000 -0.986900
vn -0.084100 0.991200 0.102000
vn -0.084100 0.991200 -0.102000
vn -0.084100 -0.991200 0.102000
vn -0.084100 -0.991200 -0.102000
vn 0.003400 -0.993500 -0.114000
vn 0.012800 0.000000 -0.999900
vn 0.003400 0.993500 -0.114000
vn -0.001700 0.982000 -0.188800
vn -0.001700 -0.982000 -0.188800
vn 0.004400 -0.993900 0.109800
vn 0.001900 0.992700 -0.120300
vn 0.001900 -0.992700 -0.120300
vn -0.001700 0.982000 0.188800
vn -0.001700 -0.982000 0.188800
vn -0.017300 -0.964700 0.262800
vn -0.017300 0.964700 0.262800
vn -0.017300 -0.964700 -0.262800
vn -0.017300 0.964700 -0.262800
vn 0.031000 -0.993500 0.109800
vn 0.031000 -0.993000 -0.113900
vn 0.031000 0.993000 -0.113900
vn 0.031000 0.993500 0.109800
vn -0.025900 0.972600 0.230900
vn -0.025900 -0.972600 0.230900
vn -0.039600 -0.972200 0.230800
vn -0.039600 0.972200 0.230800
vn -0.025900 0.972600 -0.230900
vn 0.015900 0.999900 0.000000
vn -0.025900 -0.972600 -0.230900
vn 0.015900 -0.999900 0.000000
vn -0.039600 -0.972200 -0.230800
vn -0.039600 0.972200 -0.230800
usemtl ITMELEEREST
s off
f 63/1/1 82/2/1 10/2/1
f 10/2/2 81/3/2 63/1/2
f 30/4/3 60/5/3 111/6/3
f 111/6/4 59/5/4 30/4/4
f 80/7/5 34/8/5 33/9/5
f 64/10/6 79/11/6 33/9/6
f 79/11/7 64/10/7 35/9/7
f 34/8/8 80/7/8 35/9/8
f 41/1/9 8/12/9 82/2/9
f 63/1/2 81/3/2 62/12/2
f 112/13/10 47/14/10 45/15/10
f 77/16/11 45/15/11 47/14/11
f 48/17/12 50/18/12 113/19/12
f 50/18/13 48/17/13 78/20/13
f 85/16/10 47/14/10 112/13/10
f 98/13/11 45/15/11 77/16/11
f 113/19/12 50/18/12 86/20/12
f 78/20/13 48/17/13 99/19/13
f 111/6/14 60/5/14 101/21/14
f 100/21/15 59/5/15 111/6/15
f 82/2/9 8/12/9 76/3/9
f 66/22/16 81/3/16 10/2/16
f 110/23/17 59/5/17 100/21/17
f 101/21/18 60/5/18 110/23/18
f 32/24/19 59/5/19 110/23/19
f 110/23/20 60/5/20 32/24/20
f 9/25/21 61/25/21 56/22/21
f 81/3/22 76/3/22 62/12/22
f 41/1/23 62/12/23 8/12/23
f 62/12/22 76/3/22 8/12/22
f 63/1/23 62/12/23 41/1/23
f 41/1/1 82/2/1 63/1/1
f 64/10/24 34/8/24 35/9/24
f 34/8/25 64/10/25 33/9/25
f 65/26/26 36/27/26 35/9/26
f 36/27/27 65/26/27 33/9/27
f 10/2/28 82/2/28 66/22/28
f 56/22/21 61/25/21 66/22/21
f 77/16/29 47/14/29 85/16/29
f 86/20/30 50/18/30 78/20/30
f 112/13/31 45/15/31 98/13/31
f 99/19/32 48/17/32 113/19/32
f 76/3/33 9/25/33 82/2/33
f 9/25/34 76/3/34 61/25/34
f 46/28/35 98/13/35 77/16/35
f 46/28/36 77/16/36 67/28/36
f 78/20/37 99/19/37 49/29/37
f 68/29/38 78/20/38 49/29/38
f 36/27/39 79/11/39 35/9/39
f 79/11/40 36/27/40 33/9/40
f 80/7/41 65/26/41 35/9/41
f 65/26/42 80/7/42 33/9/42
f 61/25/16 81/3/16 66/22/16
f 61/25/34 76/3/34 81/3/34
f 66/22/28 82/2/28 56/22/28
f 82/2/33 9/25/33 56/22/33
f 67/28/43 85/16/43 51/30/43
f 67/28/36 77/16/36 85/16/36
f 52/31/44 86/20/44 68/29/44
f 86/20/38 78/20/38 68/29/38
f 69/30/45 112/13/45 98/13/45
f 69/30/35 98/13/35 46/28/35
f 99/19/45 113/19/45 70/31/45
f 49/29/37 99/19/37 70/31/37
f 53/32/46 100/21/46 57/33/46
f 57/33/47 100/21/47 31/34/47
f 58/33/48 101/21/48 53/32/48
f 31/34/49 101/21/49 58/33/49
f 53/32/50 101/21/50 110/23/50
f 110/23/51 100/21/51 53/32/51
f 111/6/52 101/21/52 31/34/52
f 31/34/53 100/21/53 111/6/53
f 51/30/43 85/16/43 112/13/43
f 51/30/45 112/13/45 69/30/45
f 113/19/44 86/20/44 52/31/44
f 70/31/45 113/19/45 52/31/45
usemtl ITMELEEBLADES
f 87/35/54 55/36/54 1/37/54
f 54/36/55 88/35/55 74/37/55
f 95/38/56 108/39/56 90/40/56
f 89/40/57 107/39/57 94/38/57
f 7/41/58 92/42/58 103/43/58
f 72/41/59 102/43/59 93/42/59
f 12/44/57 11/45/57 13/46/57
f 12/44/56 13/46/56 11/45/56
f 15/47/57 16/46/57 14/48/57
f 15/47/56 14/48/56 16/46/56
f 19/49/57 18/50/57 17/51/57
f 19/49/56 17/51/56 18/50/56
f 22/52/56 21/50/56 20/51/56
f 22/52/57 20/51/57 21/50/57
f 25/53/56 24/54/56 23/55/56
f 25/53/57 23/55/57 24/54/57
f 89/40/60 97/56/60 107/39/60
f 108/39/61 97/56/61 90/40/61
f 29/57/57 28/54/57 27/58/57
f 29/57/56 27/58/56 28/54/56
f 95/38/62 96/59/62 105/60/62
f 104/60/63 96/59/63 94/38/63
f 39/61/57 40/62/57 38/63/57
f 39/61/56 38/63/56 40/62/56
f 43/64/57 42/65/57 44/62/57
f 43/64/56 44/62/56 42/65/56
f 71/66/64 54/36/64 75/67/64
f 54/36/65 1/37/65 55/36/65
f 91/66/66 3/67/66 55/36/66
f 3/67/67 54/36/67 55/36/67
f 7/41/68 103/43/68 71/66/68
f 71/66/69 3/67/69 91/66/69
f 91/66/70 7/41/70 71/66/70
f 1/37/71 88/35/71 87/35/71
f 1/37/71 74/37/71 88/35/71
f 1/37/65 54/36/65 74/37/65
f 3/67/69 71/66/69 75/67/69
f 3/67/67 75/67/67 54/36/67
f 26/68/72 83/69/72 37/70/72
f 37/70/73 83/69/73 4/71/73
f 37/70/74 84/69/74 26/68/74
f 4/71/75 84/69/75 37/70/75
f 2/72/76 102/43/76 87/35/76
f 88/35/77 2/72/77 87/35/77
f 73/72/78 88/35/78 103/43/78
f 73/72/77 2/72/77 88/35/77
f 5/73/79 97/56/79 89/40/79
f 90/40/80 97/56/80 5/73/80
f 72/41/81 91/66/81 102/43/81
f 7/41/70 91/66/70 72/41/70
f 73/72/82 103/43/82 92/42/82
f 102/43/83 2/72/83 93/42/83
f 94/38/84 96/59/84 6/74/84
f 6/74/85 96/59/85 95/38/85
f 106/75/86 105/60/86 96/59/86
f 96/59/87 104/60/87 106/75/87
f 108/39/88 109/76/88 97/56/88
f 97/56/89 109/76/89 107/39/89
f 55/36/90 102/43/90 91/66/90
f 87/35/91 102/43/91 55/36/91
f 54/36/92 103/43/92 88/35/92
f 71/66/93 103/43/93 54/36/93
f 106/75/94 104/60/94 83/69/94
f 104/60/57 94/38/57 107/39/57
f 84/69/95 105/60/95 106/75/95
f 108/39/56 95/38/56 105/60/56
f 106/75/96 26/68/96 84/69/96
f 83/69/97 26/68/97 106/75/97
f 107/39/98 109/76/98 83/69/98
f 107/39/99 83/69/99 104/60/99
f 84/69/100 109/76/100 108/39/100
f 105/60/101 84/69/101 108/39/101
f 84/69/102 4/71/102 109/76/102
f 109/76/103 4/71/103 83/69/103
