# Blender v2.75 (sub 0) OBJ File: 'Empty.blend'
# www.blender.org
mtllib ITMW_070_2H_SWORD_09.mtl
o ITMW_070_2H_SWORD_09
v -0.023066 0.000010 0.044434
v -0.911847 0.000010 0.003126
v -1.165254 0.000010 -0.158121
v -0.844318 0.000010 -0.122232
v -0.644020 -0.005005 -0.087480
v -0.081736 0.000010 -0.137640
v -0.043428 0.003751 0.055546
v -0.002705 0.011121 -0.055566
v 0.021763 0.000010 0.126324
v -0.023066 0.009981 -0.044454
v 0.036845 0.000088 0.157603
v -0.021646 0.000088 0.133375
v 0.012618 0.000088 0.099112
v -0.044214 0.000088 -0.117904
v -0.102705 0.000088 -0.142132
v -0.068442 0.000088 -0.176395
v 0.257901 -0.013428 -0.000209
v -0.016386 0.000010 0.021368
v -0.016386 0.000010 -0.021070
v -0.854920 -0.000005 -0.155432
v 0.258665 0.012252 -0.000209
v -0.062830 0.000010 -0.144643
v 0.004826 0.000010 0.136422
v -0.322452 0.010582 -0.044066
v -0.068442 -0.016043 -0.142132
v 0.012618 -0.016043 0.133375
v 0.012618 0.016063 0.133375
v -0.068442 0.016063 -0.142132
v -0.023066 -0.009961 -0.044454
v -1.049205 0.019587 -0.115062
v -0.002705 -0.011101 -0.055566
v -0.002705 0.003751 0.055546
v -0.334915 -0.010627 0.011085
v -1.049205 -0.019567 -0.115062
v -0.043428 -0.011101 -0.055566
v -0.043428 0.016010 -0.000010
v -0.644020 0.005025 -0.087480
v 0.317283 0.000010 -0.000296
v -0.021325 -0.010364 -0.000209
v -0.021325 0.009750 -0.000209
v -0.043428 -0.003731 0.055546
v -0.334915 0.010647 0.011085
v -0.043428 0.011121 -0.055566
v 0.046881 0.000088 0.133375
v -0.034179 0.000088 -0.142132
v -0.092670 0.000088 -0.117904
v -0.011610 0.000088 0.157603
v -0.002705 -0.003731 0.055546
v -0.322452 -0.010562 -0.044066
v -0.043428 -0.015990 -0.000010
v -0.002705 0.016010 -0.000010
v -0.002705 -0.015990 -0.000010
v -0.806824 0.006206 -0.108497
v -1.083068 0.000010 -0.066976
v -0.923105 0.022260 -0.050391
v -0.806824 -0.006186 -0.108497
v -0.923105 -0.022240 -0.050391
v 0.279434 0.000010 -0.031752
v 0.279434 0.000010 0.029379
v 0.036845 0.000088 0.109147
v -0.011610 0.000088 0.109147
v 0.012618 0.000088 0.167638
v -0.044214 0.000088 -0.166360
v -0.092670 0.000088 -0.166360
v -0.068442 0.000088 -0.107869
v -0.023066 -0.009961 -0.000010
v -0.023066 0.009981 -0.000010
v -0.645942 0.013270 -0.009326
v -0.645943 -0.013250 -0.009326
v -0.108500 0.004615 0.022831
v -0.043428 0.009933 0.023894
v -0.070168 0.010199 0.023460
v -0.108500 -0.004595 0.022831
v -0.043428 -0.009913 0.023894
v -0.070168 -0.010179 0.023460
v -0.647338 0.000010 0.033791
v 0.214990 0.000010 0.020477
v 0.214990 0.000010 -0.021960
v -0.124336 0.008134 -0.000602
v -0.078704 0.009184 -0.035046
v -0.103462 0.012611 -0.000266
v -0.043428 0.013566 -0.024425
v -0.071324 0.013300 -0.026176
v -0.124336 -0.008114 -0.000602
v -0.078704 -0.009164 -0.035046
v -0.103462 -0.012591 -0.000266
v -0.043428 -0.013546 -0.024425
v -0.071324 -0.013280 -0.026176
v -0.077548 0.002762 0.031684
v -0.077548 -0.002742 0.031684
v -0.094900 -0.010445 0.013972
v -0.094900 0.010465 0.013972
v -0.105835 -0.009064 -0.023995
v -0.105835 0.009084 -0.023995
v -0.091993 0.013034 -0.014989
v -0.091993 -0.013014 -0.014989
v -0.085574 0.005854 -0.125000
v -0.068442 0.005854 -0.117904
v 0.029749 0.005854 0.116243
v 0.036845 0.005854 0.133375
v 0.012618 0.005854 0.109147
v -0.051310 0.005854 -0.159264
v -0.044214 0.005854 -0.142132
v -0.092670 0.005854 -0.142132
v 0.029749 0.005854 0.150507
v -0.004514 0.005854 0.150507
v -0.011610 0.005854 0.133375
v -0.051310 0.005854 -0.125000
v -0.004514 0.005854 0.116243
v -0.085574 0.005854 -0.159263
v -0.068442 0.005854 -0.166360
v 0.012618 0.005854 0.157603
v -0.068442 -0.005678 -0.117904
v -0.085574 -0.005678 -0.125000
v 0.012618 -0.005678 0.157603
v -0.004514 -0.005678 0.150507
v -0.051310 -0.005678 -0.159264
v -0.044214 -0.005678 -0.142132
v 0.029749 -0.005678 0.150507
v 0.036845 -0.005678 0.133375
v 0.029749 -0.005678 0.116243
v 0.012618 -0.005678 0.109147
v -0.051310 -0.005678 -0.125000
v -0.092670 -0.005678 -0.142132
v -0.085574 -0.005678 -0.159263
v -0.068442 -0.005678 -0.166360
v -0.011610 -0.005678 0.133375
v -0.004514 -0.005678 0.116243
v -0.938501 0.011307 -0.115182
v -0.938501 -0.011287 -0.115182
v -0.335112 0.000010 0.043802
v -0.043428 0.009284 -0.034759
v -0.043428 -0.009264 -0.034759
v -0.043428 -0.001877 0.033590
v -0.043428 0.001897 0.033590
vt 0.199666 0.010397
vt 0.237132 0.005744
vt 0.199666 -0.275142
vt 0.199666 -0.275026
vt 0.161896 0.005744
vt 0.161890 -0.232087
vt 0.237123 -0.232087
vt 0.479056 -0.366040
vt 0.476585 -0.232005
vt 0.450519 -0.231723
vt 0.450514 -0.366197
vt 0.528225 -0.232255
vt 0.523867 -0.370997
vt 0.468414 -0.110703
vt 0.517237 -0.162019
vt 0.459627 -0.500524
vt 0.503273 -0.500195
vt 0.557741 -0.170569
vt 0.469589 -0.363149
vt 0.465261 -0.212706
vt 0.463718 -0.363149
vt 0.463885 -0.501036
vt 0.495397 -0.095140
vt 0.524461 -0.145778
vt 0.489880 -0.003135
vt 0.450549 -0.117636
vt 0.450226 -0.035803
vt 0.468046 -0.212706
vt 0.466658 -0.111931
vt 0.469422 -0.501036
vt 0.474217 -0.061019
vt 0.523887 -0.499867
vt 0.388310 -0.195355
vt 0.139776 -0.314732
vt 0.139776 -0.195472
vt 0.174997 -0.240983
vt 0.174997 -0.269761
vt -0.000161 -0.313613
vt 0.000671 -0.314732
vt 0.389058 -0.314620
vt 0.292636 -0.097586
vt 0.222786 -0.167436
vt 0.292636 -0.196369
vt 0.362486 -0.167436
vt 0.387958 -0.314620
vt 0.000671 -0.195472
vt 0.389410 -0.195355
vt 0.222786 -0.027736
vt 0.292636 0.001197
vt 0.362486 -0.027736
vt 0.193853 -0.097586
vt 0.391419 -0.097586
vt 0.174582 -0.314285
vt 0.376705 -0.255372
vt 0.174582 -0.196459
vt -0.000161 -0.196032
vt 0.354679 -0.255372
vt 0.384309 -0.255372
vt 0.352545 -0.255372
vt 0.191281 -0.330897
vt 0.255464 -0.382011
vt 0.154768 -0.382153
vt 0.156062 -0.382153
vt 0.191281 -0.430231
vt 0.257711 -0.181902
vt 0.332605 -0.316593
vt 0.139165 -0.316588
vt 0.139031 -0.173010
vt 0.082001 -0.415767
vt 0.082001 -0.346808
vt 0.257711 -0.013269
vt 0.001680 -0.173233
vt 0.001753 -0.316708
vt 0.001640 -0.316707
vt 0.194156 -0.195907
vt 0.278813 -0.254441
vt 0.278556 -0.195907
vt 0.110819 -0.195907
vt 0.110674 -0.254441
vt 0.194156 -0.254441
vt 0.194156 -0.312975
vt 0.278556 -0.312975
vt 0.110819 -0.312975
vt 0.332605 -0.172983
vn -0.008100 0.910700 0.413000
vn -0.009900 -0.900300 0.435100
vn -0.002000 -0.852500 -0.522700
vn 0.002100 -0.836600 0.547800
vn 0.002000 0.858800 0.512400
vn -0.001900 0.873100 -0.487600
vn -0.009800 -0.894400 -0.447100
vn -0.008100 0.905300 -0.424600
vn -0.011200 0.955900 0.293600
vn -0.009900 0.951000 0.309100
vn 0.015200 -0.994400 -0.104500
vn -0.016600 -0.999800 -0.004900
vn 0.033400 -0.978500 -0.203600
vn 0.033400 0.978500 -0.203600
vn 0.009900 0.975700 0.218900
vn 0.009900 -0.975700 0.218900
vn 0.027600 -0.987000 -0.158300
vn 0.027700 0.986900 -0.159000
vn 0.133800 0.000000 -0.991000
vn 0.015200 0.994400 -0.104500
vn -0.001300 0.000000 -1.000000
vn 0.060300 0.839800 -0.539600
vn -0.167200 0.897400 0.408300
vn -0.009900 -0.951000 0.309100
vn -0.011200 -0.955900 0.293600
vn 0.060300 -0.839800 -0.539600
vn -0.167200 -0.897400 0.408300
vn 0.306700 0.000000 -0.951800
vn -0.016600 0.999800 -0.004900
vn 0.002100 1.000000 -0.000700
vn 0.002100 -1.000000 -0.000700
vn 0.060000 0.838300 -0.541900
vn -0.183500 0.981300 0.058100
vn -0.239900 0.946400 0.216300
vn -0.239900 -0.946400 0.216300
vn 0.047100 0.983000 -0.177400
vn -0.160300 0.948500 0.273300
vn 0.060000 -0.838300 -0.541900
vn -0.183800 -0.981200 0.059100
vn 0.047100 -0.983000 -0.177400
vn -0.160300 -0.948500 0.273300
vn 0.002000 -1.000000 0.000000
vn 0.002000 1.000000 0.000000
vn 0.047600 0.993500 -0.103600
vn -0.027700 0.920900 0.388700
vn 0.047600 -0.993500 -0.103600
vn -0.027700 -0.920900 0.388700
vn -0.033900 0.955600 0.292800
vn -0.033900 -0.955600 0.292800
vn 0.073100 0.980400 -0.183100
vn 0.061900 0.835200 -0.546500
vn 0.073100 -0.980400 -0.183100
vn 0.061900 -0.835200 -0.546500
vn -0.000600 0.951000 0.309200
vn -0.000600 -0.951000 0.309200
vn 0.000000 0.992300 -0.123800
vn 1.000000 0.000000 -0.000000
vn 0.000000 -0.976500 0.215500
vn 0.000000 0.998900 0.046200
vn -0.158800 0.909800 0.383400
vn -0.160800 -0.907400 0.388200
vn 0.158800 0.909800 0.383400
vn 0.160800 -0.907400 0.388200
vn -0.042400 0.992500 -0.114600
vn 0.000000 -0.998900 0.046200
vn 0.026100 0.998700 0.043800
vn -0.160800 -0.907400 -0.388200
vn 0.160800 -0.907400 -0.388200
vn -0.388200 -0.907400 -0.160800
vn 0.388200 -0.907400 -0.160800
vn -0.383400 0.909800 -0.158800
vn 0.383400 0.909800 -0.158800
vn -0.158800 0.909800 -0.383400
vn 0.158800 0.909800 -0.383400
vn 0.000000 -0.992300 -0.123800
vn 0.828900 0.000000 -0.559500
vn 0.000000 0.976500 0.215500
vn -0.042400 -0.992500 -0.114600
vn -0.906200 0.000000 0.422900
vn -1.000000 0.000000 0.000000
vn -0.858800 0.000000 0.512400
vn 0.000000 0.996200 -0.087700
vn 0.388200 -0.907400 0.160800
vn 0.383400 0.909800 0.158800
vn -0.388200 -0.907400 0.160800
vn -0.383400 0.909800 0.158800
vn 0.026100 -0.998700 0.043800
vn 0.945100 0.000000 -0.326700
vn 0.000000 -0.996200 -0.087700
vn 0.213000 -0.942800 -0.256300
vn 0.198200 0.950700 -0.238500
vn 0.212800 -0.938600 0.271400
vn 0.198200 0.947000 0.252700
vn -0.057600 0.982400 0.177600
vn 0.005600 0.969200 0.246400
vn -0.003500 0.743200 0.669000
vn -0.057600 -0.982400 0.177600
vn 0.005600 -0.969200 0.246400
vn -0.003500 -0.743200 0.669000
vn -0.062100 -0.890900 0.449900
vn -0.057400 0.907600 0.415900
vn -0.065100 -0.901300 -0.428400
vn -0.060100 0.916600 -0.395300
vn -0.056400 0.981700 0.181900
vn -0.043600 0.997400 -0.056800
vn -0.205600 0.937800 0.279800
vn -0.200200 0.972500 -0.118800
vn -0.003200 0.995000 -0.099600
vn 0.018600 0.900900 -0.433600
vn -0.171200 0.940400 -0.293900
vn -0.056400 -0.981700 0.181900
vn -0.043600 -0.997400 -0.056800
vn -0.205600 -0.937800 0.279800
vn -0.200200 -0.972500 -0.118800
vn -0.003200 -0.995000 -0.099600
vn 0.018600 -0.900900 -0.433600
vn -0.171200 -0.940400 -0.293900
vn -0.202500 0.809800 0.550600
vn -0.202500 -0.809800 0.550600
vn -0.223100 -0.935200 0.275100
vn -0.079200 -0.883400 0.461800
vn -0.223100 0.935200 0.275100
vn -0.079200 0.883400 0.461800
vn -0.107700 -0.960700 -0.255800
vn -0.107700 0.960700 -0.255800
vn -0.056500 0.998300 -0.015300
vn -0.205800 0.969600 -0.132500
vn -0.056500 -0.998300 -0.015300
vn -0.205800 -0.969600 -0.132500
vn -0.487900 0.849200 0.202100
vn -0.202100 0.849200 0.487900
vn 0.202100 0.849200 0.487900
vn 0.487900 0.849200 -0.202100
vn 0.202100 0.849200 -0.487900
vn 0.487900 0.849200 0.202100
vn -0.202100 0.849200 -0.487900
vn -0.487900 0.849200 -0.202100
vn -0.202100 -0.849200 0.487900
vn 0.202100 -0.849200 0.487900
vn -0.487900 -0.849200 0.202100
vn 0.487900 -0.849200 -0.202100
vn 0.202100 -0.849200 -0.487900
vn 0.487900 -0.849200 0.202100
vn -0.202100 -0.849200 -0.487900
vn -0.487900 -0.849200 -0.202100
vn 0.000500 0.923800 -0.382800
vn 0.000500 -0.923800 -0.382800
vn -0.016100 -0.769900 0.638000
vn -0.016100 0.769900 0.638000
usemtl ITMELEEREST
s off
f 40/1/1 18/2/1 21/3/1
f 18/2/2 39/1/2 17/4/2
f 17/4/3 19/5/3 78/6/3
f 77/7/4 18/2/4 17/4/4
f 77/7/5 21/3/5 18/2/5
f 19/5/6 21/3/6 78/6/6
f 39/1/7 19/5/7 17/4/7
f 40/1/8 21/3/8 19/5/8
usemtl ITMELEEBLADES
f 42/8/9 68/9/9 76/10/9
f 76/10/10 131/11/10 42/8/10
f 5/12/11 33/8/11 69/9/11
f 5/12/12 49/13/12 33/8/12
f 57/14/13 56/15/13 5/12/13
f 55/14/14 37/12/14 53/15/14
f 42/8/15 1/16/15 67/17/15
f 1/16/16 33/8/16 66/17/16
f 56/15/17 20/18/17 5/12/17
f 53/15/18 37/12/18 20/18/18
f 49/19/19 37/20/19 24/21/19
f 68/9/20 42/8/20 37/12/20
f 10/22/21 49/19/21 24/21/21
f 129/23/22 4/24/22 3/25/22
f 2/26/23 55/14/23 54/27/23
f 33/8/24 131/11/24 76/10/24
f 76/10/25 69/9/25 33/8/25
f 3/25/26 4/24/26 130/23/26
f 57/14/27 2/26/27 54/27/27
f 37/20/28 5/28/28 20/29/28
f 37/20/19 49/19/19 5/28/19
f 37/12/29 42/8/29 24/13/29
f 67/17/30 24/13/30 42/8/30
f 49/19/21 10/22/21 29/30/21
f 49/13/31 66/17/31 33/8/31
f 4/24/32 129/23/32 53/15/32
f 20/18/33 4/24/33 53/15/33
f 30/31/34 3/25/34 54/27/34
f 34/31/35 54/27/35 3/25/35
f 55/14/36 53/15/36 129/23/36
f 30/31/37 54/27/37 55/14/37
f 4/24/38 56/15/38 130/23/38
f 20/18/39 56/15/39 4/24/39
f 57/14/40 130/23/40 56/15/40
f 34/31/41 57/14/41 54/27/41
f 66/17/42 49/13/42 29/32/42
f 24/13/43 67/17/43 10/32/43
f 37/12/44 55/14/44 68/9/44
f 68/9/45 55/14/45 2/26/45
f 69/9/46 57/14/46 5/12/46
f 2/26/47 57/14/47 69/9/47
f 2/26/48 76/10/48 68/9/48
f 69/9/49 76/10/49 2/26/49
f 55/14/50 129/23/50 30/31/50
f 129/23/51 3/25/51 30/31/51
f 34/31/52 130/23/52 57/14/52
f 130/23/53 34/31/53 3/25/53
f 42/8/54 131/11/54 1/16/54
f 33/8/55 1/16/55 131/11/55
usemtl ITMISC_01
f 22/33/56 43/34/56 8/35/56
f 32/36/57 48/37/57 52/38/57
f 48/35/58 41/34/58 50/39/58
f 32/35/59 7/34/59 23/40/59
f 27/41/60 106/42/60 112/43/60
f 26/41/61 115/43/61 116/42/61
f 28/41/62 98/43/62 108/44/62
f 25/41/63 123/44/63 113/43/63
f 22/33/64 6/45/64 43/34/64
f 50/39/58 52/46/58 48/35/58
f 48/35/65 23/40/65 41/34/65
f 32/35/66 23/40/66 9/47/66
f 25/41/67 125/48/67 126/49/67
f 25/41/68 126/49/68 117/50/68
f 26/41/69 127/51/69 128/48/69
f 26/41/70 121/50/70 120/52/70
f 27/41/71 109/48/71 107/51/71
f 27/41/72 100/52/72 99/50/72
f 28/41/73 111/49/73 110/48/73
f 28/41/74 102/50/74 111/49/74
f 35/34/75 22/33/75 31/35/75
f 31/53/76 22/54/76 8/55/76
f 52/38/57 51/56/57 32/36/57
f 7/34/77 32/35/77 51/46/77
f 22/33/78 35/34/78 6/45/78
f 43/55/79 6/57/79 35/53/79
f 36/56/80 50/38/80 41/37/80
f 51/46/77 36/39/77 7/34/77
f 7/36/81 41/37/81 23/58/81
f 41/37/80 7/36/80 36/56/80
f 8/35/82 43/34/82 36/39/82
f 50/38/80 36/56/80 43/55/80
f 26/41/83 120/52/83 119/44/83
f 27/41/84 105/44/84 100/52/84
f 25/41/83 118/52/83 123/44/83
f 28/41/84 108/44/84 103/52/84
f 25/41/85 114/42/85 124/51/85
f 28/41/86 104/51/86 97/42/86
f 26/41/85 116/42/85 127/51/85
f 27/41/86 107/51/86 106/42/86
f 23/40/87 48/35/87 9/47/87
f 48/37/88 32/36/88 9/59/88
f 52/46/89 50/39/89 35/34/89
f 43/55/80 35/53/80 50/38/80
f 31/53/57 8/55/57 51/56/57
f 36/39/82 51/46/82 8/35/82
f 35/34/89 31/35/89 52/46/89
f 51/56/57 52/38/57 31/53/57
f 58/60/90 38/61/90 17/62/90
f 38/61/91 58/60/91 21/63/91
f 38/61/92 59/64/92 17/62/92
f 59/64/93 38/61/93 21/63/93
f 26/41/68 122/49/68 121/50/68
f 27/41/74 99/50/74 101/49/74
f 26/41/67 128/48/67 122/49/67
f 27/41/73 101/49/73 109/48/73
f 26/41/63 119/44/63 115/43/63
f 27/41/62 112/43/62 105/44/62
f 25/41/70 117/50/70 118/52/70
f 28/41/72 103/52/72 102/50/72
f 25/41/69 124/51/69 125/48/69
f 28/41/71 110/48/71 104/51/71
f 25/41/61 113/43/61 114/42/61
f 28/41/60 97/42/60 98/43/60
f 36/41/94 92/42/94 72/65/94
f 72/65/95 71/43/95 36/41/95
f 71/66/96 72/67/96 89/68/96
f 50/41/97 75/65/97 91/42/97
f 75/65/98 50/41/98 74/43/98
f 74/66/99 90/68/99 75/67/99
f 59/64/100 77/69/100 17/62/100
f 77/69/101 59/64/101 21/63/101
f 78/70/102 58/60/102 17/62/102
f 58/60/103 78/70/103 21/63/103
f 36/41/104 81/51/104 92/42/104
f 83/71/105 95/48/105 36/41/105
f 81/67/106 79/68/106 70/72/106
f 95/73/107 94/72/107 79/68/107
f 36/41/108 82/49/108 83/71/108
f 80/68/109 83/67/109 82/66/109
f 95/73/110 83/67/110 80/68/110
f 50/41/111 91/42/111 86/51/111
f 88/71/112 50/41/112 96/48/112
f 86/67/113 73/72/113 84/68/113
f 96/73/114 84/68/114 93/72/114
f 50/41/115 88/71/115 87/49/115
f 85/68/116 87/66/116 88/67/116
f 96/73/117 85/68/117 88/67/117
f 89/68/118 72/67/118 92/74/118
f 90/68/119 91/74/119 75/67/119
f 73/72/120 86/67/120 91/74/120
f 91/74/121 90/68/121 73/72/121
f 70/72/122 92/74/122 81/67/122
f 92/74/123 70/72/123 89/68/123
f 85/68/124 96/73/124 93/72/124
f 80/68/125 94/72/125 95/73/125
f 36/41/126 95/48/126 81/51/126
f 79/68/127 81/67/127 95/73/127
f 50/41/128 86/51/128 96/48/128
f 84/68/129 96/73/129 86/67/129
f 104/75/130 46/76/130 97/77/130
f 97/78/131 46/79/131 65/80/131
f 97/78/131 65/80/131 98/75/131
f 98/75/132 65/80/132 14/76/132
f 100/75/133 60/76/133 99/77/133
f 99/78/134 60/79/134 13/80/134
f 105/78/135 44/80/135 100/75/135
f 100/75/133 44/80/133 60/76/133
f 101/75/136 13/80/136 61/76/136
f 99/78/134 13/80/134 101/75/134
f 103/75/133 63/76/133 102/77/133
f 102/78/134 63/79/134 16/80/134
f 108/78/135 45/80/135 103/75/135
f 103/75/133 45/80/133 63/76/133
f 110/78/137 15/80/137 104/75/137
f 104/75/130 15/80/130 46/76/130
f 112/75/132 11/76/132 105/77/132
f 105/78/135 11/79/135 44/80/135
f 107/75/130 47/76/130 106/77/130
f 106/78/131 47/79/131 62/80/131
f 109/78/137 12/80/137 107/75/137
f 107/75/130 12/80/130 47/76/130
f 98/75/132 14/76/132 108/77/132
f 108/78/135 14/79/135 45/80/135
f 101/75/136 61/76/136 109/77/136
f 109/78/137 61/79/137 12/80/137
f 111/75/136 64/76/136 110/77/136
f 110/78/137 64/79/137 15/80/137
f 111/75/136 16/80/136 64/76/136
f 102/78/134 16/80/134 111/75/134
f 106/78/131 62/80/131 112/75/131
f 112/75/132 62/80/132 11/76/132
f 46/79/138 113/81/138 65/80/138
f 65/80/139 113/81/139 123/82/139
f 15/80/140 114/82/140 46/76/140
f 46/79/138 114/83/138 113/81/138
f 47/79/138 115/81/138 62/80/138
f 62/80/139 115/81/139 119/82/139
f 12/80/140 116/82/140 47/76/140
f 47/79/138 116/83/138 115/81/138
f 45/80/141 117/82/141 63/76/141
f 63/79/142 117/83/142 126/81/142
f 14/79/143 118/81/143 45/80/143
f 45/80/141 118/81/141 117/82/141
f 62/80/139 119/82/139 11/76/139
f 11/79/143 119/83/143 120/81/143
f 11/79/143 120/81/143 44/80/143
f 44/80/141 120/81/141 121/82/141
f 44/80/141 121/82/141 60/76/141
f 60/79/142 121/83/142 122/81/142
f 13/80/144 122/81/144 128/82/144
f 60/79/142 122/81/142 13/80/142
f 65/80/139 123/82/139 14/76/139
f 14/79/143 123/83/143 118/81/143
f 64/79/145 124/81/145 15/80/145
f 15/80/140 124/81/140 114/82/140
f 16/80/144 125/82/144 64/76/144
f 64/79/145 125/83/145 124/81/145
f 16/80/144 126/81/144 125/82/144
f 63/79/142 126/81/142 16/80/142
f 61/79/145 127/81/145 12/80/145
f 12/80/140 127/81/140 116/82/140
f 13/80/144 128/82/144 61/76/144
f 61/79/145 128/83/145 127/81/145
f 82/66/146 132/84/146 80/68/146
f 87/66/147 85/68/147 133/84/147
f 90/68/148 74/66/148 134/84/148
f 89/68/149 135/84/149 71/66/149
