# Blender v2.75 (sub 0) OBJ File: 'Empty.blend'
# www.blender.org
mtllib ITMW_060_2H_SWORD_01.mtl
o ITMW_060_2H_SWORD_01
v -0.011520 -0.006653 0.038887
v -0.224492 -0.002851 -0.042899
v -0.224492 0.002851 0.042899
v -0.011520 0.006653 -0.038887
v -0.193932 0.000000 -0.033737
v -1.128000 -0.000000 -0.024806
v -0.193932 0.000000 0.033737
v -1.128000 -0.000000 0.024806
v -1.178736 -0.000000 -0.013914
v -0.019584 -0.010800 -0.022861
v -0.100224 -0.008640 -0.036578
v -0.019584 0.010800 0.022861
v -0.201452 -0.010454 0.000000
v 0.017628 0.000000 0.087034
v -0.039729 0.000000 -0.087253
v -0.023040 0.011059 0.070298
v -0.008000 -0.010000 -0.019845
v 0.292000 0.005000 -0.014884
v -0.008000 0.010000 0.019845
v 0.307000 -0.018000 -0.029768
v 0.307000 0.017000 0.029768
v 0.287000 0.017000 -0.029768
v -0.100224 -0.008640 0.036578
v -0.065664 -0.008640 0.042294
v 0.307000 -0.018000 0.029768
v 0.292000 -0.005000 0.014884
v -0.023040 -0.011059 -0.070532
v -1.198000 0.000000 0.000000
v -1.178736 -0.000000 0.013914
v -0.126720 0.011232 0.000000
v -0.120960 -0.011232 0.000000
v -0.100224 0.008640 0.036578
v -0.100224 0.008640 -0.036578
v -0.061056 0.000000 -0.051438
v -0.039729 0.000000 0.087019
v -0.019584 0.010800 -0.022861
v -0.035712 0.009936 -0.022861
v -0.035712 -0.009936 0.022861
v -0.019584 -0.010800 0.022861
v -0.201452 0.010454 0.000000
v 0.307000 0.017000 -0.029768
v 0.287000 -0.018000 -0.029768
v 0.287000 0.017000 0.029768
v 0.287000 -0.018000 0.029768
v -0.008000 0.010000 -0.019845
v -0.008000 -0.010000 0.019845
v -0.057600 0.009072 0.000000
v -0.061056 0.000000 0.051438
v -0.057600 -0.009072 0.000000
v -0.035712 0.009936 0.022861
v -0.035712 -0.009936 -0.022861
v -0.132480 0.006898 -0.023004
v -0.011520 -0.006653 -0.038887
v -0.132480 -0.006898 0.024182
v -0.011520 0.006653 0.038887
v -0.104832 0.000000 0.044580
v -0.104832 0.000000 -0.044580
v 0.017628 0.000000 -0.087268
v -0.065664 0.008640 -0.042294
v -0.065664 0.008640 0.042294
v -0.065664 -0.008640 -0.042294
v 0.292000 -0.005000 -0.014884
v 0.292000 0.005000 0.014884
v 0.000922 0.011059 0.070298
v 0.000922 -0.011059 0.070298
v 0.000922 -0.011059 -0.070532
v 0.000922 0.011059 -0.070532
v -0.023040 -0.011059 0.070298
v -0.023040 0.011059 -0.070532
v -0.011059 0.000000 0.115564
v -0.011059 0.000000 -0.115798
v -0.126720 -0.011232 0.000000
v -0.120960 0.011232 0.000000
v -0.132480 -0.006898 -0.023004
v -0.132480 0.006898 0.024182
v -0.224492 -0.002851 0.042899
v -0.224492 0.002851 -0.042899
v -0.193932 0.005808 0.000000
v -0.193932 -0.005000 0.000000
v -1.128000 0.003808 0.000000
v -1.128000 -0.003000 0.000000
vt 0.184609 -0.507313
vt 0.194284 -0.395538
vt 0.260895 -0.507313
vt 0.250444 -0.395538
vt 0.714235 -0.500444
vt 0.674617 -0.500444
vt 0.719873 -0.031533
vt 0.680256 -0.031533
vt 0.640638 -0.031533
vt 0.702478 -0.006843
vt 0.658034 -0.006843
vt 0.222124 -0.323795
vt 0.196410 -0.302395
vt 0.247838 -0.302395
vt 0.635000 -0.500444
vt 0.680256 0.002532
vt 0.529772 -0.523109
vt 0.549432 -0.492100
vt 0.549344 -0.475556
vt 0.694965 -0.577872
vt 0.452410 -0.577898
vt 0.694745 -0.478178
vt 0.452191 -0.478181
vt 0.240926 -0.233894
vt 0.318149 -0.233894
vt 0.250579 -0.003905
vt 0.308496 -0.003905
vt 0.459311 -0.578585
vt 0.677789 -0.578585
vt 0.459311 -0.477423
vt 0.677789 -0.477423
vt 0.616059 -0.521866
vt 0.596073 -0.491428
vt 0.625362 -0.517005
vt 0.595986 -0.474884
vt 0.535789 -0.558475
vt 0.573215 -0.579208
vt 0.610416 -0.557401
vt 0.618603 -0.562010
vt 0.573246 -0.585117
vt 0.527652 -0.563320
vt 0.520418 -0.518516
vt 0.758502 -0.523361
vt 0.758012 -0.478151
vt 0.572871 -0.514216
vt 0.382653 -0.478155
vt 0.382689 -0.532781
vt 0.758511 -0.578082
vt 0.383205 -0.578114
vn -0.120700 0.000000 0.992700
vn 0.002000 1.000000 0.000000
vn 0.002000 -1.000000 0.000000
vn -0.001400 -0.989200 -0.146600
vn -0.001600 0.985500 -0.169700
vn -0.002100 0.988400 0.151700
vn -0.002100 -0.992800 0.120100
vn -0.002100 0.988400 -0.151700
vn -0.002100 -0.992800 -0.120100
vn -0.130200 0.000000 -0.991500
vn -0.025800 -0.992400 -0.120000
vn -0.032600 0.987900 -0.151700
vn -0.025800 -0.992400 0.120000
vn -0.032600 0.987900 0.151700
vn -0.881000 0.000000 -0.473100
vn -0.881000 0.000000 0.473100
vn 0.051500 0.998700 0.000000
vn -0.006300 0.985200 -0.171200
vn 0.051500 -0.998700 0.000000
vn -0.008800 -0.985400 0.169900
vn -0.006300 -0.985200 -0.171200
vn 0.211300 0.000000 -0.977400
vn -0.008800 0.985400 0.169900
vn 0.199300 0.000000 0.979900
vn -0.001600 0.985500 0.169700
vn -0.001400 -0.989200 0.146600
vn -0.054200 0.995700 0.075000
vn -0.054200 0.995700 -0.075000
vn -0.042700 -0.997300 0.059200
vn -0.042700 -0.997300 -0.059200
vn -0.053500 0.998400 0.015900
vn -0.544300 0.000000 0.838900
vn -1.000000 0.000000 0.000000
vn 1.000000 0.000000 0.000000
vn 0.016700 0.999900 0.000000
vn 0.016700 -0.999900 0.000000
vn -0.544300 0.000000 -0.838900
vn 0.221000 0.762000 0.608700
vn 0.869900 0.000000 0.493200
vn 0.869900 0.000000 -0.493200
vn -0.897600 0.000000 0.440700
vn -0.897600 0.000000 -0.440700
vn -0.109600 0.706200 0.699500
vn 0.163200 0.000000 -0.986600
vn -0.548300 0.706600 0.447200
vn -0.548300 0.706600 -0.447200
vn 0.221000 -0.762000 -0.608700
vn -0.109600 0.706200 -0.699500
vn 0.221000 0.762000 -0.608700
vn 0.298700 0.905800 0.300400
vn 0.000000 -1.000000 0.000000
vn 0.567400 0.000000 -0.823400
vn -0.053500 0.998600 0.000000
vn -0.039400 -0.999200 0.000000
vn -0.722300 0.000000 0.691600
vn -0.053500 -0.998600 0.000000
vn -0.053500 -0.998400 -0.015900
vn 0.567400 0.000000 0.823400
vn 0.000000 1.000000 0.000000
vn 0.000000 0.000000 -1.000000
vn 0.000000 0.000000 1.000000
vn 0.016500 0.000000 -0.999900
vn 0.016500 0.000000 0.999900
vn -0.039400 0.999200 0.000000
vn -0.722300 0.000000 -0.691600
vn -0.117900 -0.691500 0.712700
vn 0.221000 -0.762000 0.608700
vn -0.053500 0.998400 -0.015900
vn -0.053500 -0.998400 0.015900
vn -0.109600 -0.706200 0.699500
vn -0.548300 -0.706600 0.447200
vn -0.109600 -0.706200 -0.699500
vn -0.548300 -0.706600 -0.447200
vn 0.298700 -0.905800 -0.300400
vn -0.117900 0.691500 -0.712700
vn 0.163200 0.000000 0.986600
vn -0.117900 0.691500 0.712700
vn -0.117900 -0.691500 -0.712700
vn 0.000000 0.971400 0.237300
vn 0.707700 0.000000 -0.706500
vn 0.298700 -0.905800 0.300400
vn 0.000000 -0.971400 -0.237300
vn 0.707700 0.000000 0.706500
vn 0.298700 0.905800 -0.300400
vn -0.707800 0.000000 -0.706400
vn 0.000000 -0.971400 0.237300
vn -0.707800 0.000000 0.706400
vn 0.000000 0.971400 -0.237300
vn -0.299100 0.905700 0.300400
vn -0.299100 -0.905700 0.300400
vn -0.299100 0.905700 -0.300400
vn -0.299100 -0.905700 -0.300400
vn 0.000000 -0.997500 -0.070700
vn 0.000000 -0.997500 0.070700
vn 0.000000 0.997500 -0.070700
vn 0.000000 0.997500 0.070700
usemtl ITMELEEBLADES
s off
f 55/1/1 75/2/1 54/2/1
f 4/3/2 52/4/2 75/2/2
f 75/2/2 55/1/2 4/3/2
f 53/3/3 1/1/3 54/2/3
f 5/5/4 79/6/4 6/7/4
f 6/7/5 78/6/5 5/5/5
f 80/8/6 8/9/6 78/6/6
f 81/8/7 79/6/7 8/9/7
f 80/8/8 78/6/8 6/7/8
f 81/8/9 6/7/9 79/6/9
f 74/4/3 53/3/3 54/2/3
f 53/3/10 74/4/10 52/4/10
f 81/8/11 9/10/11 6/7/11
f 9/10/12 80/8/12 6/7/12
f 81/8/13 8/9/13 29/11/13
f 29/11/14 8/9/14 80/8/14
f 40/12/15 13/12/15 76/13/15
f 2/14/16 13/12/16 40/12/16
f 52/4/17 40/12/17 75/2/17
f 52/4/18 77/14/18 40/12/18
f 53/3/10 52/4/10 4/3/10
f 13/12/19 74/4/19 54/2/19
f 76/13/20 13/12/20 54/2/20
f 54/2/1 1/1/1 55/1/1
f 13/12/21 2/14/21 74/4/21
f 52/4/22 74/4/22 2/14/22
f 40/12/23 3/13/23 75/2/23
f 76/13/24 54/2/24 75/2/24
f 75/2/24 3/13/24 76/13/24
f 3/13/15 40/12/15 76/13/15
f 77/14/22 52/4/22 2/14/22
f 40/12/16 77/14/16 2/14/16
f 8/9/25 7/15/25 78/6/25
f 7/15/26 8/9/26 79/6/26
f 80/8/27 28/16/27 29/11/27
f 80/8/28 9/10/28 28/16/28
f 81/8/29 29/11/29 28/16/29
f 81/8/30 28/16/30 9/10/30
usemtl ITMELEEREST
f 59/17/31 37/18/31 36/19/31
f 51/18/32 37/18/32 59/17/32
f 16/20/33 27/21/33 68/20/33
f 65/22/34 67/23/34 64/22/34
f 45/24/35 19/25/35 18/26/35
f 46/25/36 17/24/36 26/27/36
f 22/28/33 42/28/33 43/29/33
f 41/30/34 21/31/34 20/30/34
f 24/32/37 60/32/37 38/33/37
f 48/34/38 12/35/38 60/32/38
f 25/31/34 20/30/34 21/31/34
f 44/29/33 43/29/33 42/28/33
f 62/26/36 26/27/36 17/24/36
f 63/27/35 18/26/35 19/25/35
f 27/21/33 16/20/33 69/21/33
f 67/23/34 65/22/34 66/23/34
f 33/36/39 73/37/39 31/37/39
f 31/37/40 73/37/40 32/38/40
f 56/39/41 30/40/41 72/40/41
f 72/40/42 30/40/42 57/41/42
f 32/38/40 23/38/40 31/37/40
f 32/38/43 56/39/43 48/34/43
f 23/38/44 32/38/44 24/32/44
f 32/38/45 30/40/45 56/39/45
f 31/37/39 11/36/39 33/36/39
f 57/41/46 30/40/46 33/36/46
f 51/18/32 59/17/32 61/17/32
f 34/42/47 10/19/47 61/17/47
f 34/42/48 57/41/48 33/36/48
f 59/17/49 36/19/49 34/42/49
f 64/22/50 70/43/50 14/44/50
f 68/20/51 27/21/51 65/22/51
f 10/19/52 34/42/52 36/19/52
f 50/33/53 36/19/53 37/18/53
f 49/45/54 51/18/54 38/33/54
f 38/33/55 50/33/55 47/45/55
f 60/32/37 50/33/37 38/33/37
f 39/35/56 38/33/56 10/19/56
f 24/32/57 38/33/57 39/35/57
f 12/35/58 48/34/58 39/35/58
f 22/28/59 43/29/59 41/30/59
f 41/30/60 20/30/60 22/28/60
f 42/28/60 22/28/60 20/30/60
f 20/30/51 25/31/51 42/28/51
f 43/29/61 44/29/61 21/31/61
f 21/31/59 41/30/59 43/29/59
f 25/31/61 21/31/61 44/29/61
f 44/29/51 42/28/51 25/31/51
f 17/24/62 45/24/62 62/26/62
f 19/25/63 46/25/63 63/27/63
f 50/33/64 37/18/64 47/45/64
f 51/18/65 47/45/65 37/18/65
f 48/34/66 23/38/66 24/32/66
f 24/32/67 39/35/67 48/34/67
f 38/33/55 47/45/55 49/45/55
f 47/45/65 51/18/65 49/45/65
f 36/19/53 50/33/53 12/35/53
f 12/35/68 50/33/68 60/32/68
f 51/18/56 10/19/56 38/33/56
f 10/19/69 51/18/69 61/17/69
f 48/34/70 56/39/70 23/38/70
f 56/39/71 72/40/71 23/38/71
f 11/36/72 57/41/72 34/42/72
f 11/36/73 72/40/73 57/41/73
f 58/46/74 66/23/74 71/47/74
f 69/21/59 64/22/59 67/23/59
f 34/42/75 33/36/75 59/17/75
f 33/36/76 61/17/76 59/17/76
f 60/32/77 32/38/77 48/34/77
f 60/32/44 24/32/44 32/38/44
f 61/17/76 33/36/76 11/36/76
f 61/17/78 11/36/78 34/42/78
f 18/26/62 62/26/62 45/24/62
f 26/27/63 63/27/63 46/25/63
f 64/22/59 69/21/59 16/20/59
f 16/20/79 70/43/79 64/22/79
f 64/22/80 14/44/80 65/22/80
f 14/44/81 70/43/81 65/22/81
f 66/23/51 65/22/51 27/21/51
f 66/23/82 27/21/82 71/47/82
f 58/46/83 67/23/83 66/23/83
f 71/47/84 67/23/84 58/46/84
f 35/48/85 16/20/85 68/20/85
f 65/22/86 70/43/86 68/20/86
f 69/21/87 15/49/87 27/21/87
f 71/47/88 69/21/88 67/23/88
f 70/43/89 16/20/89 35/48/89
f 35/48/90 68/20/90 70/43/90
f 69/21/91 71/47/91 15/49/91
f 15/49/92 71/47/92 27/21/92
f 31/37/93 72/40/93 11/36/93
f 23/38/94 72/40/94 31/37/94
f 33/36/95 30/40/95 73/37/95
f 73/37/96 30/40/96 32/38/96
