# Blender v2.75 (sub 0) OBJ File: 'Empty.blend'
# www.blender.org
mtllib ITMW_025_1H_MIL_SWORD_BROAD_01.mtl
o ITMW_025_1H_MIL_SWORD_BROAD_01
v -0.829640 -0.007488 0.000000
v -0.015520 0.000000 0.048800
v -0.015520 0.000000 -0.048800
v 0.275000 0.000000 0.025981
v 0.230000 0.000000 -0.000000
v 0.275000 0.000000 -0.025981
v -0.004608 0.000000 -0.022307
v 0.247408 0.000000 -0.017699
v -0.004608 0.000000 0.022307
v 0.247408 0.000000 0.017699
v -0.025000 0.000000 -0.100000
v -0.007500 0.000000 0.100000
v -0.007500 0.000000 -0.100000
v -0.025000 0.000000 0.100000
v -0.829640 0.007488 0.000000
v 0.260000 0.015000 0.000000
v 0.260000 -0.015000 0.000000
v 0.000000 -0.012500 0.000000
v -0.889840 0.000000 0.000000
v 0.263584 -0.010279 0.000002
v 0.263584 0.010279 0.000002
v 0.000000 0.012500 0.000000
v -0.016128 -0.008528 0.000008
v -0.016128 0.008528 0.000008
v 0.245000 0.000000 0.025981
v 0.245000 0.000000 -0.025981
v 0.290000 0.000000 0.000000
v -0.020000 0.012500 0.000000
v -0.020000 -0.012500 0.000000
v -0.011520 -0.007488 0.000000
v -0.011520 0.007488 0.000000
v -0.829640 0.000000 0.028040
v -0.829640 0.000000 -0.028040
vt 0.588632 -0.033924
vt 0.585532 -0.499654
vt 0.544838 -0.497377
vt 0.628293 -0.497377
vt 0.630953 -0.033924
vt 0.548378 -0.033924
vt 0.588632 0.000346
vt 0.697781 -0.865894
vt 0.721069 -0.819318
vt 0.674494 -0.819318
vt 0.438711 -0.231654
vt 0.394359 -0.476150
vt 0.438724 -0.486652
vt 0.403520 -0.246401
vt 0.574480 -0.518957
vt 0.574480 -0.574339
vt 0.758681 -0.574531
vt 0.758681 -0.519210
vt 0.651206 -0.865894
vt 0.674494 -0.912470
vt 0.744357 -0.865894
vt 0.383433 -0.519210
vt 0.473895 -0.246401
vt 0.483056 -0.476150
vt 0.383433 -0.574531
vt 0.721069 -0.912470
vn 0.000000 0.988400 -0.151700
vn 0.000000 -0.988400 0.151700
vn -0.006600 0.966100 0.258000
vn -0.006600 0.966100 -0.258000
vn -0.006600 -0.966100 -0.258000
vn -0.006600 -0.966100 0.258000
vn 0.000000 -0.988400 -0.151700
vn 0.000000 0.988400 0.151700
vn -0.119300 -0.959200 0.256200
vn -0.119300 0.959200 0.256200
vn -0.119300 -0.959200 -0.256200
vn -0.119300 0.959200 -0.256200
vn 0.000000 0.866000 -0.500000
vn 0.000000 -0.866000 -0.500000
vn -0.005900 0.933100 -0.359600
vn -0.005900 -0.933100 -0.359600
vn 0.009300 0.861000 -0.508500
vn 0.009300 -0.861000 -0.508500
vn 0.000000 0.992300 0.124000
vn 0.000000 -0.992300 0.124000
vn -0.433000 0.866000 0.250000
vn 0.433000 0.866000 -0.250000
vn -0.433000 -0.866000 0.250000
vn 0.433000 -0.866000 -0.250000
vn 0.000000 -0.992300 -0.124000
vn 0.997200 0.000000 0.074800
vn 0.009300 -0.861000 0.508600
vn 0.009300 0.861000 0.508600
vn 0.000000 0.992300 -0.124000
vn 0.997200 0.000000 -0.074800
vn -0.005800 -0.933000 0.359800
vn -0.005800 0.933000 0.359800
vn 0.000000 0.866000 0.500000
vn 0.000000 -0.866000 0.500000
vn -0.433000 0.866000 -0.250000
vn -0.433000 -0.866000 -0.250000
vn 0.433000 0.866000 0.250000
vn 0.433000 -0.866000 0.250000
vn -0.998800 0.000000 -0.049900
vn -0.998800 0.000000 0.049900
usemtl ITMELEEBLADES
s off
f 15/1/1 31/2/1 3/3/1
f 1/1/2 30/2/2 2/4/2
f 15/1/3 32/5/3 2/4/3
f 3/3/4 33/6/4 15/1/4
f 3/3/5 1/1/5 33/6/5
f 2/4/6 32/5/6 1/1/6
f 1/1/7 3/3/7 30/2/7
f 2/4/8 31/2/8 15/1/8
f 32/5/9 19/7/9 1/1/9
f 19/7/10 32/5/10 15/1/10
f 33/6/11 1/1/11 19/7/11
f 19/7/12 15/1/12 33/6/12
usemtl ITMELEEREST
f 16/8/13 6/9/13 26/10/13
f 17/8/14 26/10/14 6/9/14
f 21/11/15 7/12/15 24/13/15
f 23/13/16 7/12/16 20/11/16
f 7/12/17 21/11/17 8/14/17
f 8/14/18 20/11/18 7/12/18
f 22/15/19 28/16/19 14/17/19
f 29/16/20 18/15/20 12/18/20
f 22/15/19 14/17/19 12/18/19
f 29/16/20 12/18/20 14/17/20
f 16/8/21 5/19/21 25/20/21
f 16/8/22 27/21/22 6/9/22
f 17/8/23 25/20/23 5/19/23
f 17/8/24 6/9/24 27/21/24
f 29/16/25 13/22/25 18/15/25
f 18/15/26 22/15/26 12/18/26
f 10/23/27 9/24/27 20/11/27
f 21/11/28 9/24/28 10/23/28
f 22/15/29 13/22/29 11/25/29
f 18/15/30 13/22/30 22/15/30
f 23/13/31 20/11/31 9/24/31
f 9/24/32 21/11/32 24/13/32
f 16/8/33 25/20/33 4/26/33
f 17/8/34 4/26/34 25/20/34
f 16/8/35 26/10/35 5/19/35
f 17/8/36 5/19/36 26/10/36
f 16/8/37 4/26/37 27/21/37
f 17/8/38 27/21/38 4/26/38
f 22/15/29 11/25/29 28/16/29
f 28/16/39 29/16/39 14/17/39
f 28/16/40 11/25/40 29/16/40
f 29/16/25 11/25/25 13/22/25
