# Blender v2.75 (sub 0) OBJ File: 'Empty.blend'
# www.blender.org
mtllib ITMW_040_1H_AXE_03.mtl
o ITMW_040_1H_AXE_03
v -0.628500 0.000000 0.172500
v -0.375500 0.000000 0.200000
v -0.535683 -0.007500 -0.053294
v -0.414000 0.005872 0.117517
v -0.210500 0.000000 0.167000
v -0.513000 0.000000 0.205500
v -0.502500 -0.009500 0.025000
v -0.694500 0.000000 0.128500
v -0.238000 0.006047 0.112020
v -0.580000 0.015000 -0.025000
v -0.570000 -0.009500 0.025000
v -0.650500 0.006221 0.106523
v -0.538020 -0.000000 -0.018358
v 0.199300 -0.000000 -0.018105
v -0.538020 -0.000000 0.018497
v 0.199300 -0.000000 0.018221
v -0.580000 -0.015000 -0.025000
v -0.650500 -0.006221 0.106523
v -0.238000 -0.006047 0.112020
v -0.414000 -0.005872 0.117517
v -0.430000 -0.012500 0.000000
v -0.430000 0.012500 0.000000
v -0.502500 0.009500 0.025000
v -0.570000 0.009500 0.025000
v -0.495000 -0.007792 0.062054
v -0.458000 0.006396 0.101027
v 0.199300 0.011817 0.000089
v -0.535683 0.007500 -0.053294
v -0.538020 0.011340 0.000069
v -0.538020 -0.011340 0.000069
v 0.199300 -0.011103 0.000089
v -0.590500 0.007617 0.067550
v -0.232500 0.005349 0.139507
v -0.590500 -0.007617 0.067550
v -0.495000 0.007792 0.062054
v -0.458000 -0.006396 0.101027
v -0.482666 -0.010000 -0.034104
v -0.232500 -0.005349 0.139507
v -0.482666 0.010000 -0.034104
v -0.098750 0.011817 0.000089
v -0.527500 -0.015000 -0.010000
v -0.527500 0.015000 -0.010000
v -0.155075 -0.000000 -0.018358
v -0.606500 0.005523 0.128510
v -0.606500 -0.005523 0.128510
v -0.513000 0.004826 0.150497
v -0.513000 -0.004826 0.150497
v -0.155075 -0.000000 0.018497
v -0.098750 -0.011103 0.000089
v -0.386500 0.004826 0.150497
v -0.386500 -0.004826 0.150497
v -0.155075 0.011340 0.000069
v -0.155075 -0.011340 0.000069
v -0.098750 -0.000000 0.018221
v -0.098750 -0.000000 -0.018105
vt 0.773009 -0.881352
vt 0.841532 -0.890236
vt 0.868273 -0.881880
vt 0.773004 -0.936501
vt 0.824662 -0.991915
vt 0.828955 -0.907206
vt 0.745671 -0.906025
vt 0.773004 -0.990979
vt 0.745671 -0.839562
vt 0.868984 -0.835324
vt 0.745672 -0.792594
vt 0.773027 -0.818259
vt 0.745613 -0.991998
vt 0.941410 -0.847843
vt 0.898589 -0.891950
vt 0.991712 -0.910249
vt 0.922466 -0.955995
vt 0.857996 -0.955995
vt 0.773042 -0.781911
vt 0.745673 -0.771677
vt 0.848445 -0.864502
vt 0.890773 -0.812729
vt 0.892466 -0.887053
vt 0.895470 -0.855062
vt 0.814536 -1.091912
vt 0.793110 -0.586851
vt 0.793110 -1.091912
vt 0.771684 -1.091912
vt 0.771684 -0.586851
vt 0.038587 -0.232686
vt 0.069696 -0.232686
vt 0.814536 -0.586851
vt 0.007479 -0.232686
vt 0.007479 -0.052145
vt 0.038587 -0.052145
vt 0.069696 -0.052145
vt 0.014418 -0.004169
vt 0.038613 -0.004169
vt 0.062809 -0.004169
vn 0.002000 0.999400 0.033900
vn 0.002000 -0.999400 0.033900
vn 0.000000 0.999500 0.031700
vn 0.000000 -0.999500 0.031700
vn 0.003500 -0.995400 0.096300
vn 0.003500 0.995400 0.096300
vn 0.003800 -0.995400 0.096200
vn 0.003800 0.995400 0.096200
vn 0.000100 -0.999400 0.033500
vn 0.000100 0.999400 0.033500
vn -0.031200 -0.993500 0.109200
vn -0.031200 0.993500 0.109200
vn 0.033100 0.985700 0.165300
vn 0.033100 -0.985700 0.165300
vn 0.039000 0.990400 -0.132900
vn 0.039000 -0.990400 -0.132900
vn 0.000000 -0.987900 0.155200
vn 0.000000 0.987900 0.155200
vn -0.080000 0.989500 0.120000
vn -0.080000 -0.989500 0.120000
vn -0.538100 0.000000 -0.842900
vn -0.980600 0.000000 0.196100
vn -0.544700 0.000000 -0.838600
vn -0.446800 0.000000 -0.894600
vn -0.031200 0.000000 -0.999500
vn 0.780800 0.000000 -0.624800
vn 0.725200 0.000000 -0.688500
vn 0.010200 -0.988900 0.148100
vn 0.010200 0.988900 0.148100
vn 0.543500 0.000000 -0.839400
vn 0.326000 0.000000 0.945400
vn 0.000000 0.000000 1.000000
vn 0.980100 0.000000 -0.198400
vn 0.000000 -0.998900 0.046000
vn 0.350900 0.000000 -0.936400
vn -0.900900 0.000000 -0.434000
vn 0.000700 0.999000 0.044600
vn 0.980600 0.000000 -0.196200
vn -0.001600 0.999700 0.025700
vn 0.000700 -0.999000 0.044600
vn 0.000000 0.998900 0.046000
vn 0.016400 -0.984700 -0.173700
vn 0.340300 0.000000 -0.940300
vn -0.001600 -0.999700 0.025700
vn 0.016400 0.984700 -0.173700
vn -0.033100 -0.992700 0.115800
vn 0.051400 -0.982300 -0.179900
vn 0.051400 0.982300 -0.179900
vn -0.033100 0.992700 0.115800
vn -0.001100 0.999400 0.034000
vn -0.037300 0.993700 0.106100
vn -0.001100 -0.999400 0.034000
vn -0.037300 -0.993700 0.106100
vn -0.000600 0.999400 0.034200
vn -0.013100 0.996100 0.087400
vn -0.000600 -0.999400 0.034200
vn -0.013100 -0.996100 0.087400
vn 0.000000 0.996200 0.087400
vn 0.000000 -0.996200 0.087400
vn 0.000000 0.851700 0.524100
vn 0.000000 -0.851700 -0.524100
vn 0.000000 0.851700 -0.524100
vn 1.000000 0.000000 0.000000
vn 0.000000 -0.851700 0.524100
vn 0.000000 0.837800 0.546000
vn 0.000000 0.838600 -0.544700
vn 0.000000 -0.853600 -0.520900
vn 0.000000 -0.852800 0.522200
vn -0.007400 0.851600 0.524100
vn -0.007000 0.851600 -0.524100
vn 0.003800 -0.851700 -0.524100
vn 0.003400 -0.851700 0.524100
vn 0.002700 0.837800 0.546000
vn 0.002600 -0.852800 0.522200
vn 0.002400 0.838600 -0.544700
vn 0.002300 -0.853600 -0.520900
usemtl ITMELEEBLADES
s off
f 46/1/1 26/2/1 35/3/1
f 47/1/2 25/3/2 36/2/2
f 50/4/3 9/5/3 4/6/3
f 51/4/4 20/6/4 19/5/4
f 2/7/5 51/4/5 38/8/5
f 2/7/6 33/8/6 50/4/6
f 6/9/7 51/4/7 2/7/7
f 6/9/8 2/7/8 50/4/8
f 47/1/9 34/10/9 25/3/9
f 46/1/10 35/3/10 32/10/10
f 6/9/11 1/11/11 45/12/11
f 6/9/12 44/12/12 1/11/12
f 2/7/13 5/13/13 33/8/13
f 2/7/14 38/8/14 5/13/14
f 39/14/15 42/15/15 22/16/15
f 41/15/16 37/14/16 21/16/16
f 41/15/17 7/17/17 11/18/17
f 42/15/18 24/18/18 23/17/18
f 1/11/19 12/19/19 8/20/19
f 1/11/20 8/20/20 18/19/20
f 10/21/21 3/22/21 17/21/21
f 17/21/22 24/18/22 10/21/22
f 12/19/23 34/10/23 18/19/23
f 8/20/24 12/19/24 18/19/24
f 20/6/25 9/5/25 19/5/25
f 33/8/26 5/13/26 38/8/26
f 9/5/25 20/6/25 4/6/25
f 25/3/27 26/2/27 36/2/27
f 7/17/28 41/15/28 21/16/28
f 42/15/29 23/17/29 22/16/29
f 37/14/30 22/16/30 21/16/30
f 22/16/31 7/17/31 21/16/31
f 7/17/31 22/16/31 23/17/31
f 7/17/32 23/17/32 24/18/32
f 26/2/27 25/3/27 35/3/27
f 24/18/22 17/21/22 11/18/22
f 7/17/32 24/18/32 11/18/32
f 12/19/23 32/10/23 34/10/23
f 23/23/33 25/3/33 7/23/33
f 11/24/34 7/23/34 25/3/34
f 4/6/35 36/2/35 26/2/35
f 46/1/3 4/6/3 26/2/3
f 3/22/21 10/21/21 28/22/21
f 22/16/30 37/14/30 39/14/30
f 32/10/36 24/24/36 11/24/36
f 32/10/37 35/3/37 24/24/37
f 33/8/38 19/5/38 9/5/38
f 9/5/39 50/4/39 33/8/39
f 32/10/36 11/24/36 34/10/36
f 34/10/40 11/24/40 25/3/40
f 25/3/33 23/23/33 35/3/33
f 24/24/41 35/3/41 23/23/41
f 36/2/35 4/6/35 20/6/35
f 47/1/4 36/2/4 20/6/4
f 41/15/42 3/22/42 37/14/42
f 39/14/43 37/14/43 3/22/43
f 19/5/38 33/8/38 38/8/38
f 19/5/44 38/8/44 51/4/44
f 42/15/45 39/14/45 28/22/45
f 39/14/43 3/22/43 28/22/43
f 41/15/46 11/18/46 17/21/46
f 3/22/47 41/15/47 17/21/47
f 42/15/48 28/22/48 10/21/48
f 24/18/49 42/15/49 10/21/49
f 44/12/50 32/10/50 12/19/50
f 1/11/51 44/12/51 12/19/51
f 45/12/52 18/19/52 34/10/52
f 1/11/53 18/19/53 45/12/53
f 46/1/54 32/10/54 44/12/54
f 6/9/55 46/1/55 44/12/55
f 47/1/56 45/12/56 34/10/56
f 6/9/57 45/12/57 47/1/57
f 50/4/3 4/6/3 46/1/3
f 6/9/58 50/4/58 46/1/58
f 51/4/4 47/1/4 20/6/4
f 6/9/59 47/1/59 51/4/59
usemtl ITMELEEREST
f 15/25/60 52/26/60 29/27/60
f 30/27/61 13/28/61 43/29/61
f 43/29/61 53/26/61 30/27/61
f 43/29/62 29/27/62 52/26/62
f 27/30/63 31/30/63 14/31/63
f 52/26/60 15/25/60 48/32/60
f 29/27/62 43/29/62 13/28/62
f 15/25/64 30/27/64 53/26/64
f 31/30/63 27/30/63 16/33/63
f 53/26/64 48/32/64 15/25/64
f 54/34/65 27/30/65 40/35/65
f 14/31/66 40/35/66 27/30/66
f 31/30/67 55/36/67 14/31/67
f 40/35/66 14/31/66 55/36/66
f 49/35/68 16/33/68 54/34/68
f 27/30/65 54/34/65 16/33/65
f 55/36/67 31/30/67 49/35/67
f 16/33/68 49/35/68 31/30/68
f 48/37/69 40/35/69 52/38/69
f 52/38/70 40/35/70 43/39/70
f 43/39/71 49/35/71 53/38/71
f 53/38/72 49/35/72 48/37/72
f 40/35/73 48/37/73 54/34/73
f 48/37/74 49/35/74 54/34/74
f 43/39/75 40/35/75 55/36/75
f 49/35/76 43/39/76 55/36/76
