# Blender v2.75 (sub 0) OBJ File: 'Empty.blend'
# www.blender.org
mtllib ITMW_1H_MACHETE_01.mtl
o ITMW_1H_MACHETE_01
v -0.700318 0.000010 0.069989
v -0.012485 0.000010 0.034362
v -0.369220 0.000010 0.087155
v -0.557437 0.000010 0.087362
v -0.660852 0.003975 -0.040253
v -0.011447 -0.001972 -0.013234
v -0.371567 0.005957 -0.013784
v -0.547145 -0.004748 -0.022499
v -0.012821 0.000010 0.015733
v 0.127974 0.010010 0.012112
v -0.012821 0.000010 -0.016267
v 0.127974 -0.009990 0.012112
v 0.147215 0.000010 0.011987
v -0.012821 0.008010 0.000166
v -0.012830 -0.007990 0.000166
v -0.660852 -0.003955 -0.040253
v -0.011447 0.001992 -0.013234
v 0.139242 0.000010 0.024517
v 0.106556 0.000010 0.013807
v 0.133341 0.000010 -0.001031
v 0.110382 0.005010 -0.000147
v 0.110382 -0.004990 -0.000147
v 0.122929 0.000010 0.024468
v -0.368543 0.005957 0.059433
v -0.547145 0.004768 -0.022499
v -0.011447 -0.001972 0.024271
v -0.693641 0.003975 0.049765
v -0.693641 -0.003955 0.049765
v 0.113477 0.000010 -0.011435
v -0.368543 -0.005937 0.059433
v -0.142138 0.003975 0.028650
v -0.371567 -0.005937 -0.013784
v -0.214142 0.000010 0.067485
v -0.011447 0.001992 0.024271
v -0.142138 -0.003955 0.028650
v -0.142061 -0.003955 -0.013768
v -0.212781 0.004768 -0.013970
v -0.556719 -0.004748 0.063661
v -0.556719 0.004768 0.063661
v -0.142749 0.000010 0.048631
v -0.213516 0.004768 0.044162
v -0.060536 -0.002964 -0.013227
v -0.213516 -0.004748 0.044162
v -0.060536 0.002984 -0.013227
v -0.061681 -0.002964 0.024328
v -0.061681 0.002984 0.024328
v -0.212781 -0.004748 -0.013970
v -0.142061 0.003975 -0.013768
v -0.062266 0.000010 0.039347
vt 0.926969 -0.183319
vt 0.829806 -0.181052
vt 0.882133 -0.104168
vt 0.926424 -0.184414
vt 0.881588 -0.105263
vt 0.829261 -0.182148
vt 0.787964 -0.109810
vt 0.815640 -0.005498
vt 0.815095 -0.006593
vt 0.787419 -0.110905
vt 0.982292 -0.098167
vt 0.981747 -0.099262
vt 0.933753 -0.008392
vt 0.934298 -0.007297
vt 0.882060 -0.104931
vt 0.881515 -0.106026
vt 0.247811 -0.270945
vt 0.279745 -0.002494
vt 0.281952 -0.270995
vt 0.280553 -0.003095
vt 0.246435 -0.272158
vt 0.280576 -0.272207
vt 0.316904 -0.003217
vt 0.246447 -0.002996
vt 0.245639 -0.002396
vt 0.316096 -0.002617
vt 0.316924 -0.271925
vt 0.318300 -0.270712
vt 0.745273 -0.622919
vt 0.745273 -0.518018
vt 0.775936 -0.518130
vt 0.838131 -0.751078
vt 0.788896 -0.729628
vt 0.828761 -0.662412
vt 0.775936 -0.640388
vt 0.745273 -0.638631
vt 0.846360 -0.604222
vt 0.868161 -0.678627
vt 0.900094 -0.638122
vt 0.885853 -0.640141
vt 0.810802 -0.730833
vt 0.804645 -0.725668
vt 0.948206 -0.568847
vt 0.899362 -0.518408
vt 0.881517 -0.635306
vt 0.886442 -0.639438
vt 0.935417 -0.580239
vt 0.931313 -0.576795
vt 0.909740 -0.607393
vt 0.819723 -0.607393
vt 0.819723 -0.615322
vt 0.845217 -0.613340
vt 0.882721 -0.613340
vt 0.882721 -0.609375
vt 0.880928 -0.636008
vt 0.775936 -0.621135
vt 0.845217 -0.609375
vt 0.909740 -0.615322
vt 0.745273 -0.736715
vt 0.775936 -0.734121
vt 0.888355 -0.630894
vt 0.859736 -0.618752
vt 0.885779 -0.565755
vt 0.745273 -0.722770
vt 0.745273 -0.669324
vt 0.775936 -0.667848
vt 0.775936 -0.721745
vt 0.775936 -0.755709
vt 0.745273 -0.755774
vt 0.951052 -0.560564
vt 0.916157 -0.603192
vt 0.912053 -0.599748
vt 0.911426 -0.575778
vt 0.947973 -0.557981
vt 0.971859 -0.534726
vt 0.925541 -0.542688
vt 0.900258 -0.531906
vt 0.969806 -0.533004
vn 0.443800 -0.850400 0.282400
vn 0.443800 0.850400 0.282400
vn -0.331000 -0.795100 0.508300
vn -0.331000 0.795100 0.508300
vn 0.412100 -0.798300 -0.439200
vn 0.412100 0.798300 -0.439200
vn 0.156200 0.815700 -0.556900
vn -0.399900 0.892200 0.210000
vn 0.156200 -0.815700 -0.556900
vn -0.399900 -0.892200 0.210000
vn -0.001900 -0.777700 0.628600
vn -0.001900 0.777700 0.628600
vn 0.185900 -0.916200 -0.354900
vn 0.185900 0.916200 -0.354900
vn 0.020800 -0.898900 -0.437600
vn 0.020800 0.898900 -0.437600
vn 0.023700 0.939000 0.343000
vn 0.015400 0.915800 -0.401400
vn 0.015400 -0.915800 -0.401400
vn 0.023700 -0.939000 0.343000
vn 0.007400 0.889400 0.457100
vn -1.000000 0.000600 -0.000300
vn 0.007400 -0.889400 0.457100
vn -1.000000 0.000600 0.000300
vn 0.026700 -0.977300 0.210300
vn 0.007600 1.000000 -0.000300
vn -0.001800 0.980400 0.196800
vn 0.000200 -0.980400 0.196800
vn 0.007600 -1.000000 -0.000300
vn -0.006300 1.000000 0.000300
vn 0.007500 -1.000000 0.000100
vn 0.007500 1.000000 0.000100
vn -0.006700 1.000000 -0.000700
vn -0.001200 0.000000 -1.000000
vn -0.006600 -1.000000 -0.002400
vn 0.049600 0.000000 -0.998800
vn 0.154300 0.000000 -0.988000
vn -0.939600 0.000000 -0.342300
vn 1.000000 0.000000 0.000000
vn 0.000200 0.977800 0.209800
vn 0.028200 0.977200 0.210300
vn -0.006600 1.000000 -0.002400
vn 0.027300 -0.979300 0.200500
vn -0.023800 0.980300 0.196100
vn -0.949600 0.000000 -0.313500
vn -0.022500 -0.982500 0.185200
vn -0.006300 -1.000000 0.000300
vn -0.001500 -0.977800 0.209700
vn 0.012300 0.999900 0.000000
vn 0.025400 0.979400 0.200500
vn -0.006700 -1.000000 -0.000700
vn 0.022500 -0.980500 0.195200
vn 0.022600 0.980500 0.195200
vn 0.994800 0.000000 0.102300
vn 0.022500 0.980500 0.195000
vn 0.012300 -0.999900 0.000000
vn 0.022600 -0.980500 0.195000
vn 0.006600 0.000000 -1.000000
vn 0.012200 -0.999900 0.000400
vn 0.012200 0.999900 0.000400
vn -0.005700 -1.000000 -0.000600
vn -0.025600 -0.980300 0.196000
vn -0.005700 1.000000 -0.000600
vn -0.024400 0.982500 0.184500
vn 0.051700 0.979300 0.195900
vn 0.053100 -0.978200 0.201000
vn 0.011100 0.999900 0.000100
vn 0.054500 0.978100 0.201000
vn -0.000100 0.000000 -1.000000
vn 0.020200 -0.999800 0.000000
vn 0.011100 -0.999900 0.000100
vn 0.053500 -0.979200 0.195900
vn 0.020200 0.999800 0.000000
vn 0.019700 -0.999800 0.000600
vn 0.019600 -0.980700 0.194700
vn 0.019700 0.999800 0.000600
vn 0.019600 0.980600 0.194900
vn 0.002800 0.000000 -1.000000
vn 0.011200 -0.999900 0.000000
vn 0.011200 0.999900 0.000000
vn 0.019500 0.980700 0.194700
vn 0.019500 -0.980600 0.194900
usemtl ITMISC_01
s off
f 13/1/1 18/2/1 12/3/1
f 13/4/2 10/5/2 18/6/2
f 12/3/3 23/7/3 19/8/3
f 10/5/4 19/9/4 23/10/4
f 13/1/5 12/3/5 20/11/5
f 13/4/6 20/12/6 10/5/6
f 21/13/7 10/5/7 20/12/7
f 21/13/8 19/9/8 10/5/8
f 22/14/9 20/11/9 12/3/9
f 22/14/10 12/3/10 19/8/10
f 18/2/11 23/7/11 12/3/11
f 18/6/12 10/5/12 23/10/12
f 22/14/13 29/15/13 20/11/13
f 21/13/14 20/12/14 29/16/14
usemtl ITMELEEREST
f 11/17/15 22/18/15 15/19/15
f 21/20/16 11/21/16 14/22/16
f 14/22/17 19/23/17 21/20/17
f 11/21/18 21/20/18 29/24/18
f 22/18/19 11/17/19 29/25/19
f 22/18/20 19/26/20 15/19/20
f 14/22/21 9/27/21 19/23/21
f 11/17/22 15/19/22 14/19/22
f 19/26/23 9/28/23 15/19/23
f 9/28/24 14/19/24 15/19/24
usemtl ITMELEEBLADES
f 33/29/25 3/30/25 30/31/25
f 7/32/26 24/33/26 41/34/26
f 24/31/27 39/35/27 4/36/27
f 3/30/28 4/36/28 38/35/28
f 30/33/29 32/32/29 43/34/29
f 7/32/30 39/37/30 24/33/30
f 32/32/31 47/38/31 43/34/31
f 37/38/32 7/32/32 41/34/32
f 7/32/33 25/39/33 39/37/33
f 47/40/34 32/41/34 7/42/34
f 16/43/35 8/39/35 28/44/35
f 25/45/36 7/42/36 32/41/36
f 8/46/37 16/47/37 5/48/37
f 27/49/38 5/50/38 16/51/38
f 26/52/39 6/53/39 17/54/39
f 7/42/34 37/55/34 47/40/34
f 4/36/40 3/30/40 24/31/40
f 41/56/41 24/31/41 3/30/41
f 25/39/42 5/43/42 27/44/42
f 5/48/37 25/45/37 8/46/37
f 17/54/39 34/57/39 26/52/39
f 30/31/43 43/56/43 33/29/43
f 16/51/38 28/58/38 27/49/38
f 1/59/44 4/36/44 39/35/44
f 27/60/45 28/60/45 1/59/45
f 4/36/46 1/59/46 28/60/46
f 38/37/47 32/32/47 30/33/47
f 38/35/48 30/31/48 3/30/48
f 48/61/49 31/62/49 46/63/49
f 3/30/50 33/29/50 41/56/50
f 32/41/36 8/46/36 25/45/36
f 8/39/51 32/32/51 38/37/51
f 49/64/52 40/65/52 35/66/52
f 46/67/53 31/66/53 40/65/53
f 26/68/54 34/68/54 2/69/54
f 40/65/55 49/64/55 46/67/55
f 35/62/56 36/61/56 45/63/56
f 35/66/57 45/67/57 49/64/57
f 42/70/58 36/71/58 48/72/58
f 36/61/59 42/73/59 45/63/59
f 48/72/58 44/74/58 42/70/58
f 44/73/60 48/61/60 46/63/60
f 28/44/61 8/39/61 38/37/61
f 28/60/62 38/35/62 4/36/62
f 25/39/63 27/44/63 39/37/63
f 39/35/64 27/60/64 1/59/64
f 33/29/65 40/65/65 31/66/65
f 40/65/66 33/29/66 43/56/66
f 37/38/67 41/34/67 31/62/67
f 31/66/68 41/56/68 33/29/68
f 6/75/69 42/70/69 44/74/69
f 42/73/70 6/76/70 26/77/70
f 43/34/71 47/38/71 35/62/71
f 43/56/72 35/66/72 40/65/72
f 17/76/73 44/73/73 34/77/73
f 44/74/69 17/78/69 6/75/69
f 45/63/74 42/73/74 26/77/74
f 45/67/75 26/68/75 2/69/75
f 44/73/76 46/63/76 34/77/76
f 34/68/77 46/67/77 49/64/77
f 36/71/78 47/40/78 37/55/78
f 47/38/79 36/61/79 35/62/79
f 48/61/80 37/38/80 31/62/80
f 37/55/78 48/72/78 36/71/78
f 49/64/81 2/69/81 34/68/81
f 2/69/82 49/64/82 45/67/82
