# Blender v2.75 (sub 0) OBJ File: 'Empty.blend'
# www.blender.org
mtllib ITMW_022_1H_MACE_WAR_01.mtl
o ITMW_022_1H_MACE_WAR_01
v -0.470000 -0.003207 -0.011314
v -0.265000 0.005303 -0.005303
v -0.457500 0.051594 -0.051972
v -0.470000 0.011314 -0.003207
v -0.265000 0.005303 0.005303
v -0.457500 0.051972 0.051594
v -0.470000 0.003207 0.011314
v -0.265000 -0.005303 0.005303
v -0.457500 -0.051594 0.051972
v -0.470000 -0.011314 0.003207
v -0.265000 -0.005303 -0.005303
v -0.457500 -0.051972 -0.051594
v -0.302304 0.034499 -0.034651
v -0.302304 0.034651 0.034499
v -0.302304 -0.034499 0.034651
v -0.302304 -0.034651 -0.034499
v -0.271856 0.000000 -0.025344
v -0.468656 0.000000 -0.025344
v -0.271856 0.000000 0.025344
v -0.278000 0.000000 -0.019200
v 0.202000 0.000000 -0.019200
v -0.278000 0.000000 0.019200
v -0.488656 0.000000 0.000000
v 0.202000 0.019200 0.000000
v -0.271856 0.025344 0.000000
v -0.271856 -0.025344 0.000000
v -0.278000 0.019200 0.000000
v 0.202000 0.000000 0.019200
v -0.278000 -0.019200 0.000000
v 0.202000 -0.019200 0.000000
v -0.470000 0.010935 0.002828
v -0.470000 -0.002828 0.010935
v -0.470000 -0.010935 -0.002828
v -0.470000 0.002828 -0.010935
v -0.468656 0.025344 0.000000
v -0.468656 -0.025344 0.000000
v -0.468656 0.000000 0.025344
v -0.072458 0.000000 0.019200
v -0.072458 0.019200 0.000000
v -0.072458 0.000000 -0.019200
v -0.072458 -0.019200 0.000000
vt 0.841034 -0.747980
vt 0.743864 -0.617530
vt 0.744094 -0.756762
vt 0.764618 -0.524887
vt 0.989220 -0.523931
vt 0.989220 -0.635266
vt 0.766465 -0.635266
vt 0.766465 -0.523931
vt 0.989220 -0.746600
vt 0.746234 -0.635266
vt 0.766465 -0.746600
vt 0.794934 -0.305807
vt 0.794934 -0.008203
vt 0.818615 -0.008203
vt 0.042135 -0.469553
vt 0.072563 -0.469553
vt 0.072563 -0.211607
vt 0.042135 -0.211607
vt 0.011708 -0.211607
vt 0.011708 -0.469553
vt 0.771253 -0.305807
vt 0.818615 -0.305807
vt 0.771253 -0.008203
vn 0.021300 0.800600 0.598800
vn 0.023300 -0.599100 -0.800300
vn 0.021300 -0.598800 0.800600
vn 0.023300 0.800300 -0.599100
vn 0.021300 -0.800600 -0.598800
vn 0.023300 0.599100 0.800300
vn 0.021300 0.598800 -0.800600
vn 0.023300 -0.800300 0.599100
vn 0.047000 0.737400 0.673800
vn 0.049600 -0.675800 -0.735400
vn 0.047000 -0.673800 0.737400
vn 0.049600 0.735400 -0.675800
vn 0.047000 -0.737400 -0.673800
vn 0.049600 0.675800 0.735400
vn 0.047000 0.673800 -0.737400
vn 0.049600 -0.735400 0.675800
vn 0.000000 -0.707100 -0.707100
vn 0.000000 0.707100 -0.707100
vn 1.000000 0.000000 0.000000
vn 0.000000 0.707100 0.707100
vn 0.000000 -0.707100 0.707100
vn -0.983300 0.128800 -0.128800
vn -0.983300 0.128800 0.128800
vn -0.983300 -0.128800 0.128800
vn -0.983300 -0.128800 -0.128800
vn -0.667300 0.526600 -0.526600
vn -0.667300 -0.526600 -0.526600
vn -0.667300 -0.526600 0.526600
vn -0.667300 0.526600 0.526600
usemtl ITMELEEBLADES
s off
f 31/1/1 13/2/1 3/3/1
f 1/1/2 3/3/2 13/2/2
f 32/1/3 14/2/3 6/3/3
f 4/1/4 6/3/4 14/2/4
f 33/1/5 15/2/5 9/3/5
f 7/1/6 9/3/6 15/2/6
f 34/1/7 16/2/7 12/3/7
f 10/1/8 12/3/8 16/2/8
f 31/1/9 2/4/9 13/2/9
f 1/1/10 13/2/10 2/4/10
f 32/1/11 5/4/11 14/2/11
f 4/1/12 14/2/12 5/4/12
f 33/1/13 8/4/13 15/2/13
f 7/1/14 15/2/14 8/4/14
f 34/1/15 11/4/15 16/2/15
f 10/1/16 16/2/16 11/4/16
f 17/5/17 26/6/17 36/7/17
f 35/7/18 25/6/18 17/5/18
f 36/7/17 18/8/17 17/5/17
f 17/5/18 18/8/18 35/7/18
f 26/6/19 17/5/19 25/6/19
f 19/9/20 25/6/20 35/7/20
f 25/6/19 19/9/19 26/6/19
f 36/7/21 26/6/21 19/9/21
f 1/1/22 31/1/22 3/3/22
f 4/1/23 32/1/23 6/3/23
f 7/1/24 33/1/24 9/3/24
f 10/1/25 34/1/25 12/3/25
f 18/8/26 23/10/26 35/7/26
f 35/7/20 37/11/20 19/9/20
f 23/10/27 18/8/27 36/7/27
f 19/9/21 37/11/21 36/7/21
f 37/11/28 23/10/28 36/7/28
f 23/10/29 37/11/29 35/7/29
usemtl ITMELEEREST
f 29/12/21 41/13/21 38/14/21
f 39/15/20 38/16/20 28/17/20
f 39/15/18 24/18/18 21/19/18
f 41/15/17 40/20/17 21/19/17
f 40/20/18 39/15/18 21/19/18
f 28/17/20 24/18/20 39/15/20
f 30/18/19 21/19/19 24/18/19
f 29/12/17 20/21/17 41/13/17
f 30/18/19 24/18/19 28/17/19
f 38/16/21 41/15/21 28/17/21
f 38/14/21 22/22/21 29/12/21
f 39/13/20 22/22/20 38/14/20
f 27/12/18 39/13/18 40/23/18
f 27/12/20 22/22/20 39/13/20
f 41/13/17 20/21/17 40/23/17
f 40/23/18 20/21/18 27/12/18
f 41/15/21 30/18/21 28/17/21
f 21/19/17 30/18/17 41/15/17
