# Blender v2.75 (sub 0) OBJ File: 'Empty.blend'
# www.blender.org
mtllib ITMW_2H_ORCSWORD_02.mtl
o ITMW_2H_ORCSWORD_02
v -0.746139 -0.013627 -0.000010
v -0.000078 -0.019552 -0.000010
v -0.746139 0.013647 -0.000010
v -1.119990 -0.009938 -0.000010
v -1.119990 0.009958 -0.000010
v -1.399529 0.000010 -0.000010
v 0.042591 0.000010 0.149503
v -0.147424 0.000010 0.132882
v -0.047073 0.000010 0.199034
v 0.042591 0.000010 -0.149523
v -0.147424 0.000010 -0.132902
v -0.047073 0.000010 -0.199054
v -0.373838 -0.008299 0.025680
v -0.000078 0.000010 0.066886
v -0.373838 0.000010 0.119962
v -0.316883 0.000010 0.058305
v -0.373838 -0.008299 -0.025700
v -0.373838 0.000010 -0.119982
v -0.316883 0.000010 -0.058325
v 0.271515 -0.035531 0.000475
v 0.271515 0.024538 0.039478
v 0.271515 -0.000343 -0.054685
v 0.251795 0.012125 0.017916
v 0.000010 0.000010 -0.032616
v 0.000010 0.000010 0.032596
v -0.430704 0.000010 0.054345
v -0.430704 0.000010 -0.054365
v -0.373838 0.008319 -0.025700
v -0.373838 0.008319 0.025680
v -0.000078 0.019572 -0.000010
v -0.000078 0.000010 -0.066906
v 0.010900 0.000010 0.101130
v 0.010900 0.000010 -0.101150
v -0.028972 0.000010 0.165544
v -0.028972 0.000010 -0.166358
v 0.028283 0.000010 0.165544
v 0.028283 0.000010 -0.166358
v 0.284011 0.002735 0.019780
v 0.359320 -0.010561 0.023437
v 0.359320 0.003681 -0.026673
v 0.251795 0.000010 -0.025361
v -0.746270 0.000010 0.078180
v -0.746270 0.000010 -0.078200
v 0.251795 -0.012105 0.017916
v -0.014658 0.023922 -0.000407
v -0.014990 -0.023902 -0.000010
v 0.284011 -0.007836 -0.017413
v 0.284011 0.012031 -0.012927
v 0.359320 -0.019857 -0.009270
v 0.245313 0.011300 -0.017777
v 0.284011 -0.014736 0.006863
v 0.286116 -0.020681 -0.027990
v 0.271515 -0.000343 0.055634
v 0.245313 -0.000343 0.026287
v 0.245313 -0.011987 -0.017777
v 0.379182 0.000010 -0.000010
v 0.359320 0.016206 0.017393
v 0.271515 0.024538 -0.038529
v 0.000010 -0.012105 -0.023066
v 0.000010 0.012125 0.023046
v 0.286116 0.019994 0.028940
v 0.251795 0.000010 0.025341
v 0.271515 -0.025225 0.039478
v 0.286116 -0.020681 0.028940
v 0.286116 0.019994 -0.027990
v 0.015773 -0.013188 0.135633
v 0.015773 0.013208 -0.135653
v 0.015773 0.013208 0.135633
v 0.015773 -0.013188 -0.135653
v 0.286116 -0.000343 0.040730
v 0.013969 -0.023902 -0.000407
v 0.013969 0.023922 -0.000407
v 0.251795 0.012125 -0.017936
v 0.251795 -0.012105 -0.017936
v 0.286116 -0.000343 -0.039781
v 0.332559 0.024052 -0.000010
v 0.359320 0.016206 -0.017413
v 0.271515 -0.025225 -0.038529
v 0.000010 0.012125 -0.023066
v 0.000010 -0.012105 0.023046
v 0.359320 0.003681 0.026653
v -0.087603 -0.007520 -0.160037
v -0.087603 0.007540 -0.160037
v -0.087603 -0.007520 0.160017
v -0.087603 0.007540 0.160017
v 0.284011 0.012031 0.012907
v 0.245313 0.011300 0.018727
v 0.332559 0.018427 -0.019800
v 0.359320 -0.010561 -0.023457
v 0.245313 -0.000343 -0.025338
v 0.271515 0.034844 0.000475
v -0.039246 0.000010 -0.136782
v -0.039246 0.000010 0.136762
v 0.286116 0.028418 0.000475
v 0.286116 -0.029105 0.000475
v 0.309026 0.002735 -0.019800
v 0.284011 0.002735 -0.019800
v 0.332559 -0.012011 -0.026673
v 0.332559 0.004185 -0.030330
v 0.245313 -0.011987 0.018727
v 0.118212 0.000010 0.032273
v 0.118212 0.000010 -0.032293
v 0.359320 -0.019857 0.009250
v 0.284011 -0.007836 0.017393
v 0.332559 0.004185 0.030310
v 0.251795 -0.017123 -0.000010
v 0.251795 0.017143 -0.000010
v 0.359320 0.021152 -0.000010
v 0.000010 0.017143 -0.000010
v 0.000010 -0.017123 -0.000010
v 0.309026 0.012031 -0.012927
v 0.332559 -0.012011 0.026653
v 0.309026 -0.007836 0.017393
v 0.332559 0.018427 0.019780
v 0.309026 0.002735 0.019780
v 0.284011 -0.014736 -0.006883
v 0.332559 -0.022582 -0.010540
v 0.309026 -0.007836 -0.017413
v 0.284011 0.015702 -0.000010
v 0.309026 0.012031 0.012907
v 0.013969 -0.005397 0.165544
v 0.013969 -0.005397 -0.166358
v -0.014658 0.005417 -0.166358
v -0.014658 0.005417 0.165544
v 0.245313 0.016123 0.000475
v 0.245313 -0.016809 0.000475
v 0.332559 -0.022582 0.010520
v 0.309026 -0.014736 0.006863
v 0.309026 -0.014736 -0.006883
v 0.309026 0.015702 -0.000010
v -1.258701 0.000010 0.024878
v -1.258701 0.000010 -0.024898
v 0.035528 0.000010 0.170792
v 0.035528 0.000010 -0.170812
v 0.013969 0.005417 -0.166358
v 0.013969 0.005417 0.165544
v -0.014658 -0.005397 -0.166358
v -0.014658 -0.005397 0.165544
v -0.030449 -0.011941 -0.158423
v -0.030449 0.011961 -0.158423
v -0.030449 0.011961 0.158403
v -0.030449 -0.011941 0.158403
v -0.787896 0.000010 0.043790
v -0.787896 0.000010 -0.043810
v -0.704513 0.000010 0.047753
v -0.704513 0.000010 -0.047773
v 0.118212 -0.012105 -0.022838
v 0.118212 0.012125 0.022818
v -0.110431 0.000010 0.173273
v -0.110431 0.000010 -0.173293
v -0.088829 0.000010 0.142178
v -0.088829 0.000010 -0.142198
v 0.012387 0.000010 0.189768
v 0.012387 0.000010 -0.189788
v 0.034132 0.000010 0.128548
v 0.034132 0.000010 -0.128568
v -0.746270 0.008319 0.018226
v -0.746270 -0.008299 -0.018246
v -0.746270 -0.008299 0.018226
v -0.746270 0.008319 -0.018246
v 0.118212 0.012125 -0.022838
v 0.118212 -0.012105 0.022818
v 0.118212 -0.017123 -0.000010
v 0.118212 0.017143 -0.000010
v -0.373749 -0.015251 -0.000010
v -0.373749 0.015271 -0.000010
v -1.120319 0.000010 0.035202
v -1.120319 0.000010 -0.035222
v -0.028972 0.000010 -0.000407
v 0.028283 0.000010 -0.000407
v 0.286116 -0.000343 0.000475
vt 0.869565 -0.232076
vt 0.826010 -0.217247
vt 0.826028 -0.099991
vt 0.910902 -0.099991
vt 0.910921 -0.217247
vt 0.869565 -0.100180
vt 0.987578 -0.271405
vt 0.932828 -0.320372
vt 0.932791 -0.191679
vt 0.910930 -0.246659
vt 0.869565 -0.363443
vt 0.869565 -0.495280
vt 0.910954 -0.383389
vt 0.910973 -0.495136
vt 0.889110 -0.363360
vt 0.877536 -0.368465
vt 0.915992 -0.325369
vt 0.915653 -0.368097
vt 0.826002 -0.246659
vt 0.825981 -0.383389
vt 0.850020 -0.363360
vt 0.938226 -0.365165
vt 0.980983 -0.276185
vt 0.936977 -0.256076
vt 0.925543 -0.246090
vt 0.870507 -0.362505
vt 0.870140 -0.283937
vt 0.910945 -0.343240
vt 0.825989 -0.343240
vt 0.825963 -0.495136
vt 0.869630 -0.208711
vt 0.871648 -0.274238
vt 0.973942 -0.274229
vt 0.973942 -0.329936
vt 0.871648 -0.329942
vt 0.871648 -0.274314
vt 0.973942 -0.274347
vt 0.926223 -0.399974
vt 0.984130 -0.382399
vt 0.983998 -0.263869
vt 0.927452 -0.427751
vt 0.872266 -0.460495
vt 0.925473 -0.476397
vt 0.987598 -0.431408
vt 0.973942 -0.329972
vt 0.871728 -0.329972
vt 0.871728 -0.274292
vt 0.871648 -0.329955
vt 0.984669 -0.123649
vt 0.867943 -0.124139
vt 0.872480 -0.322823
vt 0.871728 -0.329943
vt 0.871728 -0.274225
vt 0.910879 -0.051179
vt 0.869565 -0.001504
vt 0.826049 -0.051179
vt 0.966121 -0.513442
vt 0.932821 -0.454118
vt 0.987584 -0.489614
vt 0.919356 -0.163180
vt 0.919517 -0.199001
vt 0.888360 -0.179820
vt 0.962712 -0.040944
vt 0.932827 -0.500507
vt 0.887125 -0.231991
vt 0.852006 -0.231991
vt 0.294030 -0.096299
vt 0.261313 -0.005023
vt 0.211188 -0.047732
vt 0.376873 -0.047732
vt 0.326747 -0.005023
vt 0.355518 -0.170708
vt 0.388235 -0.113166
vt 0.232542 -0.170708
vt 0.294030 -0.193433
vt 0.199825 -0.113166
vt 0.079173 -0.900472
vt 0.079173 -0.871682
vt 0.225514 -0.871663
vt 0.147840 -1.014243
vt 0.099220 -0.874457
vt 0.099226 -1.014243
vt 0.099231 -0.874430
vt 0.147855 -1.014223
vt 0.147882 -0.874455
vt 0.147813 -0.874457
vt 0.000435 -0.232380
vt 0.078080 -0.232380
vt 0.078080 -0.343604
vt 0.225514 -0.896035
vt 0.079173 -0.929885
vt 0.225514 -0.929885
vt 0.075057 -1.014223
vt 0.075057 -0.874456
vt 0.000435 -0.343604
vt 0.000470 -0.343604
vt 0.172111 -1.014223
vt 0.172111 -0.874456
vt 0.000470 -0.232380
vt 0.224963 -0.929885
vt 0.224963 -0.900656
vt 0.224963 -0.871626
vn -0.007500 0.956800 -0.290700
vn -0.007500 0.956800 0.290700
vn -0.007500 -0.956800 -0.290700
vn -0.007500 -0.956800 0.290700
vn -0.009500 -0.962300 0.271800
vn -0.009500 -0.962300 -0.271800
vn -0.009500 0.962300 -0.271800
vn -0.009500 0.962300 0.271800
vn -0.067400 0.964300 0.256100
vn -0.067400 -0.964300 0.256100
vn -0.067400 0.964300 -0.256100
vn -0.067400 -0.964300 -0.256100
vn -0.004200 -0.960600 0.277900
vn -0.004200 0.960600 0.277900
vn -0.007600 0.959800 0.280700
vn -0.007600 -0.959800 0.280700
vn -0.008800 0.965300 0.261200
vn 0.094600 0.991700 0.087400
vn -0.008800 -0.965300 0.261200
vn 0.094600 -0.991700 0.087400
vn -0.004200 -0.960600 -0.277900
vn -0.004200 0.960600 -0.277900
vn -0.008800 0.965300 -0.261200
vn 0.094600 0.991700 -0.087400
vn -0.008800 -0.965300 -0.261200
vn 0.094600 -0.991700 -0.087400
vn 1.000000 0.000000 0.000000
vn -0.568400 -0.795500 0.210200
vn -0.009400 -0.965200 0.261200
vn -0.100800 -0.991100 0.087300
vn -0.009400 -0.965200 -0.261200
vn -0.100800 -0.991100 -0.087300
vn -0.009400 0.965200 -0.261200
vn -0.100800 0.991100 -0.087300
vn -0.009400 0.965200 0.261200
vn -0.100800 0.991100 0.087300
vn -0.007600 0.959800 -0.280700
vn -0.007600 -0.959800 -0.280700
vn -0.082000 0.920200 -0.382800
vn -0.082000 -0.920200 -0.382800
vn -0.082000 0.920200 0.382800
vn -0.082000 -0.920200 0.382800
vn -0.342100 -0.786000 0.515000
vn -0.006400 -0.964500 0.264100
vn -0.006400 0.964500 0.264100
vn -0.006400 -0.964500 -0.264100
vn -0.006400 0.964500 -0.264100
vn -0.316300 -0.948700 0.000000
vn -0.342100 -0.786000 -0.515000
vn -0.568400 0.795500 -0.210200
vn -0.568400 -0.795500 -0.210200
vn 0.436600 -0.869800 -0.229800
vn 0.391500 -0.889600 0.235100
vn -0.568400 0.795500 0.210200
vn -0.684700 0.396900 0.611300
vn -0.684700 -0.396900 -0.611300
vn -0.368500 0.552700 0.747500
vn -0.684700 0.396900 -0.611300
vn 0.615300 -0.395400 -0.682000
vn 0.388800 0.883400 0.261400
vn 0.650300 0.413700 0.637100
vn -0.684700 -0.396900 0.611300
vn 0.661900 -0.375900 0.648500
vn 0.449500 -0.856500 0.253500
vn 0.612500 -0.430500 0.663000
vn 0.612500 0.430500 -0.663000
vn 0.391500 0.889600 -0.235100
vn 0.441700 -0.815400 -0.374300
vn 0.046700 -0.953000 0.299400
vn 0.441700 0.815400 0.374300
vn 0.046700 0.953000 -0.299400
vn 0.441700 0.815400 -0.374300
vn 0.046700 0.953000 0.299400
vn 0.441700 -0.815400 0.374300
vn 0.046700 -0.953000 -0.299400
vn 0.615300 0.395400 0.682000
vn 0.661900 0.375900 -0.648500
vn -0.323000 0.910300 0.258700
vn 0.103700 0.956700 -0.271900
vn -0.389500 -0.202900 -0.898400
vn 0.650300 -0.413700 -0.637100
vn -0.389500 -0.202900 0.898400
vn -0.127800 -0.940700 -0.314300
vn 0.062100 -0.918000 0.391700
vn -0.127800 0.940700 -0.314300
vn 0.062100 0.918000 0.391700
vn -0.127800 -0.940700 0.314300
vn 0.062100 -0.918000 -0.391700
vn -0.127800 0.940700 0.314300
vn 0.062100 0.918000 -0.391700
vn 0.120200 0.590200 -0.798300
vn 0.128100 -0.218400 -0.967400
vn 0.436600 0.869800 0.229800
vn -0.227200 0.919800 0.319800
vn -0.227200 -0.919800 0.319800
vn -0.227200 0.919800 -0.319800
vn -0.227200 -0.919800 -0.319800
vn 0.449500 0.856500 -0.253500
vn 0.388800 -0.883400 -0.261400
vn -0.323000 0.910300 -0.258700
vn 0.110500 -0.831300 -0.544700
vn -0.368500 0.552700 -0.747500
vn 0.128100 -0.218400 0.967400
vn 0.120200 0.590200 0.798300
vn 0.103700 0.956700 0.271900
vn 0.110500 -0.831300 0.544700
vn 0.101300 -0.994900 0.000000
vn -0.034900 0.979700 0.197300
vn -0.034900 -0.979700 0.197300
vn -0.034900 0.979700 -0.197300
vn -0.034900 -0.979700 -0.197300
vn 0.384100 0.914400 0.127400
vn 0.384100 -0.914400 0.127400
vn 0.384100 0.914400 -0.127400
vn 0.384100 -0.914400 -0.127400
vn 0.092800 -0.966000 -0.241300
vn -0.221500 -0.889000 0.400900
vn 0.092800 0.966000 -0.241300
vn -0.221500 0.889000 0.400900
vn 0.092800 0.966000 0.241300
vn -0.221500 0.889000 -0.400900
vn 0.092800 -0.966000 0.241300
vn -0.221500 -0.889000 -0.400900
vn -0.112700 0.984200 0.136400
vn -0.112700 -0.984200 0.136400
vn -0.112700 0.984200 -0.136400
vn -0.112700 -0.984200 -0.136400
vn 0.099500 0.985600 0.136600
vn 0.099500 -0.985600 0.136600
vn 0.099500 0.985600 -0.136600
vn 0.099500 -0.985600 -0.136600
vn -0.206700 0.959900 0.189300
vn -0.206700 -0.959900 0.189300
vn -0.206700 0.959900 -0.189300
vn -0.206700 -0.959900 -0.189300
vn -0.051000 0.882900 -0.466800
vn -0.051000 -0.882900 -0.466800
vn -0.051000 0.882900 0.466800
vn -0.051000 -0.882900 0.466800
vn 0.200000 0.949000 0.243900
vn 0.200000 -0.949000 0.243900
vn 0.200000 0.949000 -0.243900
vn 0.200000 -0.949000 -0.243900
vn 0.516500 0.830500 -0.208500
vn 0.516500 -0.830500 -0.208500
vn 0.516500 0.830500 0.208500
vn 0.516500 -0.830500 0.208500
vn -0.019500 0.959700 0.280300
vn -0.007200 0.959900 0.280400
vn -0.019500 -0.959700 -0.280300
vn -0.007200 -0.959900 -0.280400
vn -0.019500 -0.959700 0.280300
vn -0.007200 -0.959900 0.280400
vn -0.019500 0.959700 -0.280300
vn -0.007200 0.959900 -0.280400
vn -0.011100 -0.964700 -0.263300
vn -0.011100 -0.964700 0.263300
vn -0.011100 0.964700 -0.263300
vn -0.011100 0.964700 0.263300
vn -0.020300 0.962200 0.271600
vn -0.020300 -0.962200 0.271600
vn -0.020300 0.962200 -0.271600
vn -0.020300 -0.962200 -0.271600
vn 0.737500 -0.564900 -0.370100
vn 0.737500 -0.564900 0.370100
vn 0.765400 0.382600 0.517500
vn 0.715400 0.672100 -0.191000
vn 0.765400 0.382600 -0.517500
vn 0.785400 -0.136300 0.603800
vn 0.785400 -0.136300 -0.603800
vn 0.707200 -0.707000 0.000000
vn 0.715400 0.672100 0.191000
vn -0.000000 -0.976700 0.214700
vn -0.000000 0.976700 -0.214700
vn 0.000000 0.993800 0.110800
vn -0.001500 -0.993800 -0.110800
vn 0.000000 0.993800 -0.110800
vn 0.000000 -0.993900 -0.110600
vn -0.000000 0.961900 -0.273400
vn -0.000000 -0.963000 -0.269600
vn 0.009900 0.962900 -0.269600
vn 0.044200 -0.522000 0.851800
vn -0.858000 0.513600 0.000000
vn -0.863300 -0.504800 -0.000000
vn 0.000000 -0.993800 0.111100
vn -0.000000 0.594500 -0.804100
vn 0.040900 -0.614800 -0.787700
vn 0.040900 0.614800 0.787700
vn 0.031300 0.522300 0.852200
vn 0.858000 -0.513600 0.000000
vn 0.001500 -0.993800 0.110800
vn 0.858000 0.513600 0.000000
vn 0.044200 0.522000 -0.851800
vn 0.031300 -0.522300 -0.852200
vn 0.028900 0.615000 -0.788000
vn 0.028900 -0.615000 0.788000
vn 0.000000 -0.220300 -0.975400
vn 0.002200 -0.615300 0.788300
vn 0.002100 0.619100 0.785300
vn 0.002100 -0.619100 -0.785300
vn 0.002200 0.615300 -0.788300
vn 0.009900 -0.962900 0.269600
vn 0.000000 0.963000 0.269600
vn 0.007900 0.976700 0.214700
vn 0.007900 -0.976700 -0.214700
vn 0.000000 -0.836400 0.548100
vn 0.000000 -0.220300 0.975400
vn 0.000000 0.594500 0.804100
vn -0.000000 -0.836400 -0.548100
vn -0.000000 0.961900 0.273400
vn 0.351500 -0.930400 0.103800
vn 0.351500 -0.930400 -0.103800
vn -0.351500 0.930400 -0.103800
vn -0.351500 0.930400 0.103800
vn -0.000000 -1.000000 0.000000
vn 0.351500 0.930400 -0.103800
vn 0.351500 0.930400 0.103800
vn -0.351400 -0.930400 -0.104200
vn -0.351400 -0.930300 0.104700
vn 0.000400 -0.977100 -0.212700
vn 0.001500 -0.615300 -0.788300
vn 0.000400 0.977100 0.212700
vn 0.001500 0.615300 0.788300
vn 0.001500 0.619100 -0.785300
vn 0.000400 0.976700 -0.214700
vn 0.001500 -0.619100 0.785300
vn 0.000400 -0.976700 0.214700
vn 0.000000 -0.977100 0.212700
vn 0.000000 -0.976700 -0.214700
vn 0.000000 0.977100 -0.212700
vn 0.000000 0.976700 0.214700
usemtl ITMELEEBLADES
s off
f 3/1/1 144/2/1 168/3/1
f 3/1/2 167/4/2 143/5/2
f 1/1/3 168/3/3 144/2/3
f 1/1/4 143/5/4 167/4/4
f 167/4/5 4/6/5 1/1/5
f 168/3/6 1/1/6 4/6/6
f 168/3/7 5/6/7 3/1/7
f 167/4/8 3/1/8 5/6/8
f 9/7/9 141/8/9 85/9/9
f 9/7/10 84/9/10 142/8/10
f 12/7/11 83/9/11 140/8/11
f 12/7/12 139/8/12 82/9/12
f 145/10/13 1/1/13 165/11/13
f 145/10/14 166/11/14 3/1/14
f 30/12/15 16/13/15 14/14/15
f 2/12/16 14/14/16 16/13/16
f 166/11/17 29/15/17 16/13/17
f 29/16/18 15/17/18 16/18/18
f 165/11/19 16/13/19 13/15/19
f 13/16/20 16/18/20 15/17/20
f 146/19/21 165/11/21 1/1/21
f 146/19/22 3/1/22 166/11/22
f 166/11/23 19/20/23 28/21/23
f 28/16/24 19/18/24 18/17/24
f 165/11/25 17/21/25 19/20/25
f 17/16/26 18/17/26 19/18/26
f 171/22/27 52/23/27 75/24/27
f 20/25/28 100/26/28 126/27/28
f 165/11/29 13/15/29 26/28/29
f 26/18/30 13/16/30 15/17/30
f 165/11/31 27/29/31 17/21/31
f 27/18/32 18/17/32 17/16/32
f 166/11/33 28/21/33 27/29/33
f 27/18/34 28/16/34 18/17/34
f 166/11/35 26/28/35 29/15/35
f 26/18/36 15/17/36 29/16/36
f 30/12/37 31/30/37 19/20/37
f 2/12/38 19/20/38 31/30/38
f 141/8/39 151/31/39 85/9/39
f 142/8/40 84/9/40 151/31/40
f 140/8/41 83/9/41 152/31/41
f 139/8/42 152/31/42 82/9/42
f 128/32/43 127/33/43 112/34/43
f 165/11/44 26/28/44 145/10/44
f 166/11/45 145/10/45 26/28/45
f 165/11/46 146/19/46 27/29/46
f 166/11/47 27/29/47 146/19/47
f 129/35/48 127/33/48 128/32/48
f 118/36/49 98/37/49 117/34/49
f 91/25/50 58/38/50 50/26/50
f 78/38/51 20/25/51 126/27/51
f 128/32/43 112/34/43 113/35/43
f 52/39/52 20/25/52 78/38/52
f 95/40/53 63/38/53 20/25/53
f 171/22/27 64/23/27 95/24/27
f 21/38/54 125/27/54 87/26/54
f 20/25/28 63/38/28 100/26/28
f 53/25/55 21/38/55 87/26/55
f 22/25/56 55/26/56 90/27/56
f 115/36/57 105/33/57 114/34/57
f 58/38/58 22/25/58 90/27/58
f 75/40/59 52/39/59 78/38/59
f 61/39/60 94/40/60 91/25/60
f 70/40/61 21/38/61 53/25/61
f 63/38/62 53/25/62 54/27/62
f 64/39/63 70/40/63 53/25/63
f 95/40/64 64/39/64 63/38/64
f 64/39/65 53/25/65 63/38/65
f 65/39/66 22/25/66 58/38/66
f 94/40/67 58/38/67 91/25/67
f 66/41/68 32/42/68 155/43/68
f 153/44/69 9/7/69 142/8/69
f 67/41/70 33/42/70 156/43/70
f 154/44/71 12/7/71 140/8/71
f 68/41/72 155/43/72 32/42/72
f 153/44/73 141/8/73 9/7/73
f 69/41/74 156/43/74 33/42/74
f 154/44/75 139/8/75 12/7/75
f 171/22/27 70/24/27 64/23/27
f 70/40/76 61/39/76 21/38/76
f 171/22/27 75/24/27 65/23/27
f 65/39/77 75/40/77 22/25/77
f 120/35/78 114/34/78 76/37/78
f 76/45/79 108/46/79 77/47/79
f 96/48/80 98/37/80 118/36/80
f 75/40/81 78/38/81 22/25/81
f 22/25/56 78/38/56 55/26/56
f 113/35/82 112/34/82 105/33/82
f 12/7/83 82/9/83 150/49/83
f 11/50/84 82/9/84 152/31/84
f 12/7/85 150/49/85 83/9/85
f 11/50/86 152/31/86 83/9/86
f 9/7/87 149/49/87 84/9/87
f 8/50/88 151/31/88 84/9/88
f 9/7/89 85/9/89 149/49/89
f 8/50/90 85/9/90 151/31/90
f 115/36/57 114/34/57 120/35/57
f 53/25/55 87/26/55 54/27/55
f 76/45/79 77/47/79 88/37/79
f 88/37/91 77/47/91 40/46/91
f 99/45/92 40/46/92 89/47/92
f 58/38/58 90/27/58 50/26/58
f 61/39/93 91/25/93 21/38/93
f 21/38/54 91/25/54 125/27/54
f 33/42/94 67/41/94 92/51/94
f 33/42/95 92/51/95 69/41/95
f 32/42/96 93/51/96 68/41/96
f 32/42/97 66/41/97 93/51/97
f 171/22/27 65/23/27 94/24/27
f 94/40/98 65/39/98 58/38/98
f 171/22/27 95/24/27 52/23/27
f 52/39/99 95/40/99 20/25/99
f 130/48/100 88/37/100 111/36/100
f 88/37/91 40/46/91 99/45/91
f 99/45/92 89/47/92 98/37/92
f 98/37/101 89/47/101 49/52/101
f 111/36/102 88/37/102 99/45/102
f 96/48/80 99/45/80 98/37/80
f 63/38/62 54/27/62 100/26/62
f 129/35/48 117/34/48 127/33/48
f 113/35/82 105/33/82 115/36/82
f 112/34/103 81/53/103 105/33/103
f 105/33/104 81/53/104 57/52/104
f 114/34/105 108/47/105 76/37/105
f 111/36/102 99/45/102 96/48/102
f 127/33/106 39/52/106 112/34/106
f 112/34/103 39/52/103 81/53/103
f 105/33/104 57/52/104 114/34/104
f 114/34/105 57/52/105 108/47/105
f 118/36/49 117/34/49 129/35/49
f 98/37/101 49/52/101 117/34/101
f 117/34/107 49/52/107 103/53/107
f 91/25/50 50/26/50 125/27/50
f 78/38/51 126/27/51 55/26/51
f 117/34/107 103/53/107 127/33/107
f 127/33/106 103/53/106 39/52/106
f 130/48/100 76/45/100 88/37/100
f 120/35/78 76/37/78 130/36/78
f 131/54/108 5/6/108 6/55/108
f 131/54/109 6/55/109 4/6/109
f 132/56/110 6/55/110 5/6/110
f 132/56/111 4/6/111 6/55/111
f 7/57/112 68/58/112 133/59/112
f 7/57/113 133/59/113 66/58/113
f 10/57/114 134/59/114 67/58/114
f 10/57/115 69/58/115 134/59/115
f 69/58/116 139/8/116 154/44/116
f 69/41/117 92/51/117 139/8/117
f 67/58/118 154/44/118 140/8/118
f 67/41/119 140/8/119 92/51/119
f 68/58/120 141/8/120 153/44/120
f 68/41/121 93/51/121 141/8/121
f 66/58/122 153/44/122 142/8/122
f 66/41/123 142/8/123 93/51/123
f 143/60/124 42/61/124 157/62/124
f 143/60/125 159/62/125 42/61/125
f 144/60/126 160/62/126 43/61/126
f 144/60/127 43/61/127 158/62/127
f 157/62/128 42/61/128 145/60/128
f 159/62/129 145/60/129 42/61/129
f 160/62/130 146/60/130 43/61/130
f 158/62/131 43/61/131 146/60/131
f 149/49/132 85/9/132 8/63/132
f 149/49/133 8/63/133 84/9/133
f 150/49/134 11/63/134 83/9/134
f 150/49/135 82/9/135 11/63/135
f 151/31/136 141/8/136 93/51/136
f 151/31/137 93/51/137 142/8/137
f 152/31/138 92/51/138 140/8/138
f 152/31/139 139/8/139 92/51/139
f 68/58/140 153/44/140 133/59/140
f 66/58/141 133/59/141 153/44/141
f 67/58/142 134/59/142 154/44/142
f 69/58/143 154/44/143 134/59/143
f 7/57/144 155/64/144 68/58/144
f 7/57/145 66/58/145 155/64/145
f 10/57/146 67/58/146 156/64/146
f 10/57/147 156/64/147 69/58/147
f 3/1/148 143/5/148 157/65/148
f 3/1/149 157/65/149 145/10/149
f 1/1/150 144/2/150 158/66/150
f 1/1/151 158/66/151 146/19/151
f 1/1/152 159/65/152 143/5/152
f 1/1/153 145/10/153 159/65/153
f 3/1/154 160/66/154 144/2/154
f 3/1/155 146/19/155 160/66/155
f 19/20/156 2/12/156 165/11/156
f 16/13/157 165/11/157 2/12/157
f 19/20/158 166/11/158 30/12/158
f 16/13/159 30/12/159 166/11/159
f 5/6/160 131/54/160 167/4/160
f 4/6/161 167/4/161 131/54/161
f 5/6/162 168/3/162 132/56/162
f 4/6/163 132/56/163 168/3/163
f 171/22/27 61/23/27 70/24/27
f 171/22/27 94/24/27 61/23/27
usemtl ITMISC_01
f 56/67/164 49/68/164 89/69/164
f 56/67/165 39/70/165 103/71/165
f 56/67/166 57/72/166 81/73/166
f 56/67/167 77/74/167 108/75/167
f 56/67/168 40/76/168 77/74/168
f 56/67/169 81/73/169 39/70/169
f 56/67/170 89/69/170 40/76/170
f 56/67/171 103/71/171 49/68/171
f 56/67/172 108/75/172 57/72/172
usemtl ITMELEEREST
f 162/77/173 163/78/173 106/79/173
f 161/77/174 164/78/174 107/79/174
f 136/80/175 45/81/175 124/82/175
f 46/83/176 122/84/176 71/85/176
f 135/80/177 45/81/177 72/86/177
f 137/82/178 122/84/178 46/83/178
f 130/87/179 111/88/179 48/89/179
f 163/78/180 74/90/180 106/79/180
f 161/77/181 107/79/181 73/90/181
f 101/91/182 44/90/182 62/92/182
f 135/80/177 123/82/177 45/81/177
f 45/81/183 35/93/183 169/94/183
f 35/93/184 46/83/184 169/94/184
f 46/83/185 121/84/185 138/82/185
f 48/89/179 119/95/179 130/87/179
f 97/96/186 48/89/186 111/88/186
f 147/77/187 102/91/187 41/92/187
f 148/77/188 101/91/188 62/92/188
f 148/77/189 62/92/189 23/90/189
f 71/85/190 37/97/190 170/98/190
f 46/83/191 71/85/191 121/84/191
f 37/97/192 72/86/192 170/98/192
f 72/86/175 45/81/175 136/80/175
f 102/91/193 73/90/193 41/92/193
f 147/77/194 41/92/194 74/90/194
f 102/91/195 161/77/195 73/90/195
f 101/91/196 162/77/196 44/90/196
f 47/89/197 97/96/197 96/99/197
f 25/100/198 162/77/198 101/91/198
f 60/101/199 25/100/199 101/91/199
f 59/101/200 24/100/200 102/91/200
f 24/100/201 161/77/201 102/91/201
f 162/77/202 106/79/202 44/90/202
f 164/78/203 23/90/203 107/79/203
f 164/78/204 148/77/204 23/90/204
f 163/78/205 147/77/205 74/90/205
f 111/88/186 96/99/186 97/96/186
f 128/88/206 113/99/206 104/96/206
f 38/89/207 104/96/207 113/99/207
f 113/99/207 115/88/207 38/89/207
f 86/96/208 38/89/208 115/88/208
f 96/99/197 118/88/197 47/89/197
f 116/96/209 47/89/209 118/88/209
f 120/99/210 130/88/210 119/89/210
f 115/88/208 120/99/208 86/96/208
f 119/89/210 86/96/210 120/99/210
f 71/85/211 36/97/211 121/84/211
f 122/84/212 37/97/212 71/85/212
f 123/82/213 35/93/213 45/81/213
f 45/81/214 34/93/214 124/82/214
f 129/99/215 128/88/215 51/89/215
f 104/96/206 51/89/206 128/88/206
f 118/88/209 129/99/209 116/96/209
f 51/89/215 116/96/215 129/99/215
f 37/97/216 135/80/216 72/86/216
f 36/97/217 72/86/217 136/80/217
f 35/93/218 137/82/218 46/83/218
f 34/93/219 46/83/219 138/82/219
f 110/102/220 59/101/220 147/77/220
f 59/101/221 102/91/221 147/77/221
f 109/102/222 60/101/222 148/77/222
f 60/101/223 101/91/223 148/77/223
f 24/100/224 79/101/224 161/77/224
f 79/101/225 164/78/225 161/77/225
f 25/100/226 80/101/226 162/77/226
f 80/101/227 163/78/227 162/77/227
f 80/101/228 110/102/228 163/78/228
f 110/102/229 147/77/229 163/78/229
f 79/101/230 109/102/230 164/78/230
f 109/102/231 148/77/231 164/78/231
f 45/81/183 169/94/183 34/93/183
f 169/94/184 46/83/184 34/93/184
f 170/98/192 72/86/192 36/97/192
f 71/85/190 170/98/190 36/97/190
