# Blender v2.75 (sub 0) OBJ File: 'Empty.blend'
# www.blender.org
mtllib ITMW_030_1H_SWORD_03.mtl
o ITMW_030_1H_SWORD_03
v -0.425113 0.000010 0.010655
v -0.012771 -0.004732 -0.031031
v -0.217539 0.000010 0.024823
v -0.599961 0.000010 -0.017281
v 0.145987 -0.000361 0.012981
v 0.045025 0.061063 0.039066
v 0.111783 -0.034449 0.059661
v 0.113542 0.048897 0.037803
v 0.041615 0.014809 0.081448
v -0.012863 0.000010 0.030969
v 0.042832 -0.042868 0.066322
v -0.649926 0.000010 -0.047705
v -0.595952 -0.004732 -0.074369
v -0.671261 0.000010 -0.090290
v 0.077373 -0.015532 0.084325
v 0.080783 -0.061785 0.041943
v -0.016122 0.000010 0.039358
v -0.012283 0.000010 -0.053190
v 0.014940 -0.007826 0.067697
v 0.011591 -0.034449 0.051600
v 0.013349 0.048897 0.029742
v 0.080783 0.061063 0.041943
v -0.008946 -0.019278 0.027948
v 0.135837 -0.019278 0.039597
v -0.007970 0.026975 0.015818
v 0.045025 -0.061785 0.039066
v -0.014710 -0.000361 0.000052
v 0.136813 0.026975 0.027467
v -0.012821 0.000010 0.015733
v 0.127974 0.010010 0.012112
v -0.012821 0.000010 -0.016267
v 0.078590 -0.042868 0.069199
v 0.042832 0.042145 0.066322
v 0.078590 0.042145 0.069199
v 0.077373 0.014809 0.084325
v 0.041615 -0.015532 0.081448
v -0.422306 0.004752 -0.051192
v 0.111783 0.033726 0.059661
v 0.013349 -0.049619 0.029742
v 0.011591 0.033726 0.051600
v 0.113542 -0.049619 0.037803
v 0.010615 0.011805 0.063730
v 0.110808 0.011805 0.071791
v 0.010615 -0.012527 0.063730
v 0.110808 -0.012527 0.071791
v 0.127974 -0.009990 0.012112
v -0.007970 -0.027697 0.015818
v 0.135837 0.018556 0.039597
v -0.008946 0.018556 0.027948
v 0.136813 -0.027697 0.027467
v -0.009487 0.006390 0.034680
v 0.135295 0.006390 0.046329
v -0.009487 -0.007113 0.034680
v 0.135295 -0.007113 0.046329
v 0.147215 0.000010 0.011987
v -0.012821 0.008010 0.000166
v -0.012830 -0.007990 0.000166
v -0.014445 -0.007826 -0.000608
v -0.422304 -0.004732 -0.051192
v -0.216103 -0.004732 -0.037136
v -0.012777 0.004752 -0.031031
v -0.014445 0.007846 -0.000608
v 0.014940 0.007846 0.067697
v 0.030207 0.000010 0.074535
v 0.018075 0.000010 0.079708
v -0.000071 0.000010 0.041881
v -0.005610 0.000010 -0.056724
v -0.008875 0.007846 -0.042017
v -0.008875 -0.007826 -0.042017
v -0.009157 0.007846 0.040797
v -0.009157 -0.007826 0.040797
v 0.139242 0.000010 0.024517
v 0.106556 0.000010 0.013807
v 0.133341 0.000010 -0.001031
v 0.110382 0.005010 -0.000147
v 0.110382 -0.004990 -0.000147
v 0.122929 0.000010 0.024468
v -0.000604 0.000010 -0.052412
v -0.020843 0.000010 -0.000632
v -0.005973 0.000010 -0.000577
v 0.025625 0.000010 0.079801
v 0.006382 0.000010 0.070200
v -0.017669 0.000010 -0.040440
v 0.024961 0.000010 0.063321
v 0.113477 0.000010 -0.011435
v -0.595952 0.004752 -0.074369
v -0.216107 0.004752 -0.037137
v 0.000249 0.000010 -0.042667
vt 0.242891 -0.240388
vt 0.277009 -0.002429
vt 0.277032 -0.240437
vt 0.277119 -0.002319
vt 0.243001 -0.239948
vt 0.277142 -0.239997
vt 0.313470 -0.002441
vt 0.243013 -0.002220
vt 0.242903 -0.002330
vt 0.313360 -0.002551
vt 0.313490 -0.239715
vt 0.313380 -0.240155
vt 0.865682 -0.346477
vt 0.826210 -0.341313
vt 0.826210 -0.188763
vt 0.826210 -0.346499
vt 0.865682 -0.199114
vt 0.826210 -0.199136
vt 0.865682 -0.493840
vt 0.826210 -0.493840
vt 0.857875 -0.053074
vt 0.825559 -0.051803
vt 0.826246 -0.023615
vt 0.830929 -0.005201
vt 0.873544 -0.194790
vt 0.862228 -0.194789
vt 0.862228 -0.344721
vt 0.873544 -0.044878
vt 0.862228 -0.044878
vt 0.873544 -0.344724
vt 0.873544 -0.494659
vt 0.833133 -0.007491
vt 0.862228 -0.494654
vt 0.568253 -0.242605
vt 0.620970 -0.242605
vt 0.621033 -0.219059
vt 0.724085 -0.266198
vt 0.672789 -0.289584
vt 0.672788 -0.266128
vt 0.621113 -0.195456
vt 0.568207 -0.219059
vt 0.568149 -0.195456
vt 0.620935 -0.266111
vt 0.568278 -0.266111
vt 0.568278 -0.289603
vt 0.514701 -0.289584
vt 0.514702 -0.266128
vt 0.620935 -0.289603
vt 0.620971 -0.313110
vt 0.568252 -0.313110
vt 0.584271 -0.386339
vt 0.584271 -0.406097
vt 0.518656 -0.406097
vt 0.514467 -0.219132
vt 0.673029 -0.219132
vt 0.460270 -0.289510
vt 0.724086 -0.289510
vt 0.460272 -0.266198
vt 0.514615 -0.313059
vt 0.405273 -0.277516
vt 0.775134 -0.277516
vt 0.514619 -0.242655
vt 0.673226 -0.195537
vt 0.672873 -0.242655
vt 0.724694 -0.195868
vt 0.460142 -0.312855
vt 0.459918 -0.219426
vt 0.514276 -0.195537
vt 0.672877 -0.313059
vt 0.460147 -0.242856
vt 0.724420 -0.219426
vt 0.724203 -0.242856
vt 0.459630 -0.195868
vt 0.724208 -0.312855
vt 0.584271 -0.421017
vt 0.523429 -0.421017
vt 0.649886 -0.406097
vt 0.645113 -0.421017
vt 0.705954 -0.421017
vt 0.715500 -0.406097
vt 0.726638 -0.386339
vt 0.655454 -0.386339
vt 0.569478 -0.370198
vt 0.595740 -0.415428
vt 0.617345 -0.400637
vt 0.599621 -0.372160
vt 0.556516 -0.402018
vt 0.577708 -0.416525
vt 0.513088 -0.386339
vt 0.605423 -0.419526
vt 0.564683 -0.418576
vt 0.586623 -0.386339
vt 0.604951 -0.418590
vt 0.586378 -0.385803
vt 0.564702 -0.417651
vt 0.547139 -0.388705
vt 0.558744 -0.344968
vt 0.558834 -0.344930
vt 0.547370 -0.388140
vt 0.628619 -0.383823
vt 0.627868 -0.383317
vt 0.607987 -0.345675
vt 0.608495 -0.345722
vt 0.549637 -0.370314
vt 0.624358 -0.368315
vt 0.549526 -0.401379
vt 0.619190 -0.402745
vt 0.592754 -0.339962
vt 0.586593 -0.386659
vt 0.586348 -0.386119
vt 0.578091 -0.340113
vn 0.020800 -0.898900 -0.437600
vn 0.020800 0.898900 -0.437600
vn 0.023700 0.939000 0.343000
vn 0.015400 0.915800 -0.401400
vn 0.015400 -0.915800 -0.401400
vn 0.023700 -0.939000 0.343000
vn 0.007400 0.889400 0.457100
vn 0.007400 -0.889400 0.457100
vn -0.005200 -0.997100 0.076200
vn -0.005200 0.997100 0.076200
vn -0.002300 -0.997100 0.076300
vn -0.002300 0.997100 0.076300
vn -0.048300 -0.995700 0.079300
vn -0.012100 -0.997000 0.075900
vn -0.010900 0.996600 0.082000
vn -0.012100 0.997000 0.075900
vn -0.070200 -0.996900 0.035200
vn -0.048300 0.995700 0.079300
vn 0.068000 0.000000 -0.997700
vn 0.132300 0.000000 -0.991200
vn -0.010900 -0.996600 0.082000
vn 0.030000 -0.000000 -0.999500
vn 0.206800 0.000000 -0.978400
vn -0.070200 0.996900 0.035200
vn -0.070100 0.485400 0.871500
vn 0.070100 -0.485400 -0.871500
vn -0.717000 0.312800 -0.623000
vn 0.717000 -0.312800 0.623000
vn 0.045600 -0.822400 -0.567100
vn -0.045600 0.822400 0.567100
vn -0.070100 -0.485400 0.871500
vn 0.070100 0.485400 -0.871500
vn 0.477100 0.441700 -0.759800
vn -0.477100 -0.441700 0.759800
vn -0.349500 0.441700 -0.826300
vn 0.045600 0.822400 -0.567100
vn 0.349500 -0.441700 0.826300
vn -0.045600 -0.822400 0.567100
vn 0.350600 -0.755900 0.552900
vn -0.350600 0.755900 -0.552900
vn 0.676000 -0.731200 0.090900
vn 0.676000 0.731200 0.090900
vn 0.434500 -0.755900 -0.489700
vn -0.434500 0.755900 0.489700
vn -0.349500 -0.441700 -0.826300
vn 0.349500 0.441700 0.826300
vn -0.807300 -0.312800 0.500400
vn 0.807300 0.312800 -0.500400
vn -0.434500 -0.755900 0.489700
vn 0.434500 0.755900 -0.489700
vn -0.985400 -0.113800 0.126400
vn 0.985400 0.113800 -0.126400
vn -0.952500 0.113800 -0.282300
vn 0.952500 -0.113800 0.282300
vn -0.477100 0.441700 0.759800
vn 0.477100 -0.441700 -0.759800
vn 0.350600 0.755900 0.552900
vn -0.350600 -0.755900 -0.552900
vn -0.080200 0.000000 0.996800
vn 0.351000 0.000000 0.936400
vn 0.080200 0.000000 -0.996800
vn -0.351000 0.000000 -0.936400
vn -0.496200 0.000000 0.868200
vn 0.496200 -0.000000 -0.868200
vn 0.711800 0.548900 0.438300
vn -0.711800 -0.548900 -0.438300
vn -0.772700 -0.548900 0.318800
vn 0.772700 0.548900 -0.318800
vn -0.772700 0.548900 0.318800
vn 0.772700 -0.548900 -0.318800
vn 0.711800 -0.548900 0.438300
vn -0.711800 0.548900 -0.438300
vn -0.807300 0.312800 0.500400
vn 0.807300 -0.312800 -0.500400
vn 0.717000 0.312800 0.623000
vn -0.717000 -0.312800 -0.623000
vn -0.822300 0.000000 0.569000
vn 0.822300 0.000000 -0.569000
vn 0.720800 0.000000 0.693200
vn -0.720800 0.000000 -0.693200
vn -0.976800 -0.204400 0.063200
vn 0.976800 0.204400 -0.063200
vn 0.954200 0.204400 0.218600
vn -0.954200 -0.204400 -0.218600
vn -0.976800 0.204400 0.063200
vn 0.976800 -0.204400 -0.063200
vn 0.954200 -0.204400 0.218600
vn -0.954200 0.204400 -0.218600
vn -0.985400 0.113800 0.126400
vn 0.985400 -0.113800 -0.126400
vn 0.952500 0.113800 0.282300
vn -0.952500 -0.113800 -0.282300
vn -0.988800 0.000000 0.149100
vn 0.988800 0.000000 -0.149100
vn 0.952300 0.000000 0.305300
vn -0.952300 0.000000 -0.305300
vn -0.773100 -0.631300 -0.061600
vn -0.752700 -0.651300 0.096100
vn -0.752700 0.651300 0.096100
vn -0.773100 0.631300 -0.061600
vn 0.676700 0.731200 -0.086400
vn -0.689700 -0.520600 0.503300
vn 0.405200 0.782300 -0.473100
vn -0.689700 0.520600 0.503300
vn -0.006700 0.836700 0.547600
vn -0.006700 -0.836700 0.547600
vn 0.405200 -0.782300 -0.473100
vn 0.676700 -0.731200 -0.086400
vn -0.671500 -0.735500 -0.090300
vn -0.671500 0.735500 -0.090300
vn -0.264000 0.825700 -0.498500
vn 0.652500 0.751700 0.096400
vn -0.264000 -0.825700 -0.498500
vn 0.652500 -0.751700 0.096500
vn -0.519800 0.716300 0.465600
vn 0.589800 0.610800 -0.528300
vn -0.519800 -0.716300 0.465600
vn 0.589800 -0.610800 -0.528300
vn 0.443800 -0.850400 0.282400
vn 0.443800 0.850400 0.282400
vn -0.331000 -0.795100 0.508300
vn -0.331000 0.795100 0.508300
vn 0.412100 -0.798300 -0.439200
vn 0.412100 0.798300 -0.439200
vn 0.156200 0.815700 -0.556900
vn -0.399900 0.892200 0.210000
vn 0.156200 -0.815700 -0.556900
vn -0.399900 -0.892200 0.210000
vn -0.001900 -0.777700 0.628600
vn -0.001900 0.777700 0.628600
vn 0.331800 0.861100 -0.385200
vn 0.331800 -0.861100 -0.385200
vn -0.771600 0.629600 0.091100
vn -0.771600 -0.629600 0.091100
vn 0.656600 0.748700 -0.091300
vn 0.656600 -0.748700 -0.091300
vn 0.331700 0.898100 0.288700
vn 0.331700 -0.898100 0.288700
vn -0.460400 0.683700 0.566200
vn -0.460400 -0.683700 0.566200
vn -0.666000 0.690800 -0.281400
vn -0.666000 -0.690800 -0.281400
vn 0.527700 0.812800 -0.246900
vn 0.527700 -0.812800 -0.246900
vn 0.185900 -0.916200 -0.354900
vn 0.185900 0.916200 -0.354900
vn 0.648200 0.759400 -0.056700
vn 0.648200 -0.759400 -0.056700
usemtl ITMELEEREST
s off
f 31/1/1 76/2/1 57/3/1
f 75/4/2 31/5/2 56/6/2
f 56/6/3 73/7/3 75/4/3
f 31/5/4 75/4/4 85/8/4
f 76/2/5 31/1/5 85/9/5
f 76/2/6 73/10/6 57/3/6
f 56/6/7 29/11/7 73/7/7
f 73/10/8 29/12/8 57/3/8
usemtl ITMELEEBLADES
f 60/13/9 3/14/9 1/15/9
f 3/16/10 87/13/10 37/17/10
f 37/17/10 1/18/10 3/16/10
f 1/15/9 59/17/9 60/13/9
f 2/19/11 10/20/11 3/14/11
f 87/13/12 3/16/12 10/20/12
f 13/21/13 4/22/13 12/23/13
f 59/17/14 1/15/14 4/22/14
f 37/17/15 86/21/15 4/22/15
f 4/22/16 1/18/16 37/17/16
f 13/21/17 12/23/17 14/24/17
f 86/21/18 12/23/18 4/22/18
f 59/25/19 37/26/19 87/27/19
f 13/28/20 86/29/20 37/26/20
f 4/22/21 13/21/21 59/17/21
f 37/26/20 59/25/20 13/28/20
f 3/14/11 60/13/11 2/19/11
f 87/27/19 60/30/19 59/25/19
f 2/31/22 60/30/22 87/27/22
f 14/32/23 86/29/23 13/28/23
f 12/23/24 86/21/24 14/24/24
f 87/27/22 61/33/22 2/31/22
f 10/20/12 61/19/12 87/13/12
usemtl ITMISC_01
f 9/34/25 35/35/25 34/36/25
f 35/35/26 9/34/26 34/36/26
f 54/37/27 7/38/27 45/39/27
f 54/37/28 45/39/28 7/38/28
f 22/40/29 33/41/29 6/42/29
f 22/40/30 6/42/30 33/41/30
f 15/43/31 36/44/31 11/45/31
f 15/43/32 11/45/32 36/44/32
f 36/44/33 20/46/33 44/47/33
f 36/44/34 44/47/34 20/46/34
f 7/38/35 32/48/35 45/39/35
f 16/49/36 26/50/36 32/48/36
f 32/48/37 7/38/37 45/39/37
f 26/50/38 16/49/38 32/48/38
f 7/38/39 32/48/39 16/49/39
f 7/38/40 16/49/40 32/48/40
f 80/51/41 58/52/41 69/53/41
f 68/53/42 62/52/42 80/51/42
f 20/46/34 11/45/34 36/44/34
f 11/45/33 20/46/33 36/44/33
f 33/41/43 40/54/43 6/42/43
f 40/54/44 33/41/44 6/42/44
f 38/55/45 35/35/45 34/36/45
f 38/55/46 34/36/46 35/35/46
f 23/56/47 20/46/47 44/47/47
f 20/46/48 23/56/48 44/47/48
f 7/38/28 24/57/28 54/37/28
f 24/57/27 7/38/27 54/37/27
f 44/47/48 23/56/48 53/58/48
f 44/47/47 53/58/47 23/56/47
f 39/59/49 26/50/49 11/45/49
f 32/48/38 11/45/38 26/50/38
f 26/50/50 39/59/50 11/45/50
f 32/48/36 26/50/36 11/45/36
f 27/60/51 23/56/51 53/58/51
f 23/56/52 27/60/52 53/58/52
f 54/37/53 5/61/53 24/57/53
f 5/61/54 54/37/54 24/57/54
f 11/45/31 32/48/31 15/43/31
f 45/39/37 15/43/37 32/48/37
f 32/48/32 11/45/32 15/43/32
f 45/39/35 32/48/35 15/43/35
f 42/62/55 9/34/55 33/41/55
f 34/36/25 33/41/25 9/34/25
f 9/34/56 42/62/56 33/41/56
f 34/36/26 9/34/26 33/41/26
f 33/41/30 34/36/30 22/40/30
f 8/63/57 22/40/57 34/36/57
f 34/36/29 33/41/29 22/40/29
f 8/63/58 34/36/58 22/40/58
f 36/44/59 15/43/59 35/35/59
f 43/64/60 35/35/60 15/43/60
f 15/43/61 36/44/61 35/35/61
f 43/64/62 15/43/62 35/35/62
f 44/47/63 36/44/63 9/34/63
f 35/35/59 9/34/59 36/44/59
f 36/44/64 44/47/64 9/34/64
f 35/35/61 36/44/61 9/34/61
f 34/36/57 38/55/57 8/63/57
f 28/65/65 8/63/65 38/55/65
f 38/55/58 34/36/58 8/63/58
f 28/65/66 38/55/66 8/63/66
f 47/66/67 39/59/67 20/46/67
f 11/45/49 20/46/49 39/59/49
f 39/59/68 47/66/68 20/46/68
f 11/45/50 39/59/50 20/46/50
f 49/67/69 40/54/69 21/68/69
f 6/42/44 21/68/44 40/54/44
f 40/54/70 49/67/70 21/68/70
f 6/42/43 40/54/43 21/68/43
f 16/49/39 41/69/39 7/38/39
f 24/57/71 7/38/71 41/69/71
f 41/69/40 16/49/40 7/38/40
f 24/57/72 41/69/72 7/38/72
f 51/70/73 42/62/73 40/54/73
f 33/41/55 40/54/55 42/62/55
f 42/62/74 51/70/74 40/54/74
f 33/41/56 42/62/56 40/54/56
f 35/35/46 43/64/46 38/55/46
f 48/71/75 38/55/75 43/64/75
f 43/64/45 35/35/45 38/55/45
f 48/71/76 43/64/76 38/55/76
f 53/58/77 44/47/77 42/62/77
f 9/34/63 42/62/63 44/47/63
f 44/47/78 53/58/78 42/62/78
f 9/34/64 44/47/64 42/62/64
f 15/43/60 45/39/60 43/64/60
f 52/72/79 43/64/79 45/39/79
f 45/39/62 15/43/62 43/64/62
f 52/72/80 45/39/80 43/64/80
f 27/60/81 47/66/81 23/56/81
f 20/46/67 23/56/67 47/66/67
f 47/66/82 27/60/82 23/56/82
f 20/46/68 47/66/68 23/56/68
f 38/55/65 48/71/65 28/65/65
f 5/61/83 28/65/83 48/71/83
f 48/71/66 38/55/66 28/65/66
f 28/65/84 5/61/84 48/71/84
f 27/60/85 49/67/85 25/73/85
f 21/68/69 25/73/69 49/67/69
f 49/67/86 27/60/86 25/73/86
f 21/68/70 49/67/70 25/73/70
f 41/69/71 50/74/71 24/57/71
f 5/61/87 24/57/87 50/74/87
f 50/74/72 41/69/72 24/57/72
f 24/57/88 5/61/88 50/74/88
f 27/60/89 51/70/89 49/67/89
f 40/54/73 49/67/73 51/70/73
f 51/70/90 27/60/90 49/67/90
f 40/54/74 51/70/74 49/67/74
f 43/64/75 52/72/75 48/71/75
f 5/61/91 48/71/91 52/72/91
f 52/72/76 43/64/76 48/71/76
f 48/71/92 5/61/92 52/72/92
f 27/60/93 53/58/93 51/70/93
f 42/62/77 51/70/77 53/58/77
f 53/58/94 27/60/94 51/70/94
f 42/62/78 53/58/78 51/70/78
f 45/39/79 54/37/79 52/72/79
f 5/61/95 52/72/95 54/37/95
f 54/37/80 45/39/80 52/72/80
f 52/72/96 5/61/96 54/37/96
f 58/52/97 79/75/97 83/76/97
f 58/52/98 71/77/98 17/78/98
f 17/78/99 70/77/99 62/52/99
f 83/76/100 79/75/100 62/52/100
f 80/51/101 62/52/101 70/77/101
f 82/79/102 17/78/102 71/77/102
f 63/80/103 84/81/103 66/82/103
f 70/77/104 17/78/104 82/79/104
f 63/83/105 65/84/105 81/85/105
f 65/84/106 19/83/106 81/85/106
f 66/82/107 84/81/107 19/80/107
f 71/77/108 58/52/108 80/51/108
f 83/76/109 69/53/109 58/52/109
f 62/52/110 68/53/110 83/76/110
f 68/86/111 67/87/111 18/88/111
f 80/51/112 88/89/112 68/53/112
f 18/88/113 67/87/113 69/86/113
f 69/53/114 88/89/114 80/51/114
f 82/79/115 63/80/115 70/77/115
f 66/82/116 70/77/116 63/80/116
f 71/77/117 19/80/117 82/79/117
f 19/80/118 71/77/118 66/82/118
f 55/90/119 72/91/119 46/92/119
f 55/93/120 30/94/120 72/95/120
f 46/92/121 77/96/121 73/97/121
f 30/94/122 73/98/122 77/99/122
f 55/90/123 46/92/123 74/100/123
f 55/93/124 74/101/124 30/94/124
f 75/102/125 30/94/125 74/101/125
f 75/102/126 73/98/126 30/94/126
f 76/103/127 74/100/127 46/92/127
f 76/103/128 46/92/128 73/97/128
f 72/91/129 77/96/129 46/92/129
f 72/95/130 30/94/130 77/99/130
f 68/86/131 78/104/131 67/87/131
f 67/87/132 78/104/132 69/86/132
f 62/52/133 79/75/133 17/78/133
f 17/78/134 79/75/134 58/52/134
f 70/77/135 66/82/135 80/51/135
f 80/51/136 66/82/136 71/77/136
f 63/83/137 81/85/137 64/105/137
f 81/85/138 19/83/138 64/105/138
f 82/106/139 65/84/139 63/83/139
f 65/84/140 82/106/140 19/83/140
f 83/107/141 68/86/141 18/88/141
f 18/88/142 69/86/142 83/107/142
f 63/83/143 64/105/143 84/108/143
f 64/105/144 19/83/144 84/108/144
f 76/103/145 85/109/145 74/100/145
f 75/102/146 74/101/146 85/110/146
f 68/86/147 88/111/147 78/104/147
f 78/104/148 88/111/148 69/86/148
