# Blender v2.75 (sub 0) OBJ File: 'Empty.blend'
# www.blender.org
mtllib ITMW_035_1H_MACE_03.mtl
o ITMW_035_1H_MACE_03
v -0.551406 0.044894 0.000117
v -0.451829 0.000000 -0.044777
v -0.551406 -0.044894 0.000117
v -0.279520 0.027648 0.000000
v -0.455800 0.023040 0.000000
v -0.279520 -0.027648 0.000000
v -0.455800 -0.023040 0.000000
v -0.325600 0.023040 0.000000
v 0.230400 0.023040 0.000000
v -0.325600 -0.023040 0.000000
v 0.230400 -0.023040 0.000000
v -0.548010 -0.017538 0.000000
v -0.643584 -0.000000 -0.000000
v -0.548010 0.017538 0.000000
v -0.516208 -0.000000 0.043483
v -0.467330 0.000000 0.162537
v -0.482118 -0.000000 0.043483
v -0.516208 -0.000000 -0.043483
v -0.467330 0.000000 -0.162537
v -0.482118 -0.000000 -0.043483
v -0.483792 0.043483 0.000000
v -0.548670 0.162537 -0.000000
v -0.517882 0.043483 0.000000
v -0.483792 -0.043483 0.000000
v -0.548670 -0.162537 -0.000000
v -0.517882 -0.043483 0.000000
v -0.551406 0.000000 -0.044777
v -0.551406 0.000000 0.045011
v -0.279520 0.000000 -0.027648
v -0.279520 0.000000 0.027648
v -0.325600 0.000000 -0.023040
v -0.325600 0.000000 0.023040
v 0.230400 0.000000 -0.023040
v 0.230400 0.000000 0.023040
v -0.455800 0.000000 -0.023040
v -0.455800 0.000000 0.023040
v -0.451829 0.000000 0.045011
v -0.499118 0.044894 -0.044777
v -0.451829 0.044894 0.000117
v -0.499118 -0.044894 -0.044777
v -0.451829 -0.044894 0.000117
v -0.499118 0.044894 0.045011
v -0.499118 -0.044894 0.045011
v -0.422715 0.000000 0.000117
v -0.548010 -0.000000 -0.017502
v -0.548010 -0.000000 0.017502
v -0.500837 0.043483 -0.013673
v -0.500837 -0.043483 -0.013673
v -0.500837 0.043483 0.013673
v -0.500837 -0.043483 0.013673
v -0.499163 0.013673 0.043483
v -0.499163 0.013673 -0.043483
v -0.499163 -0.013673 0.043483
v -0.499163 -0.013673 -0.043483
v -0.570520 0.000000 0.000117
v -0.050190 0.000000 0.023040
v -0.050190 0.000000 -0.023040
v -0.050190 -0.023040 0.000000
v -0.050190 0.023040 0.000000
vt 0.795021 -0.990639
vt 0.795021 -0.671705
vt 0.823308 -0.671705
vt 0.766734 -0.990639
vt 0.001657 -0.210338
vt 0.040162 -0.468279
vt 0.001657 -0.468279
vt 0.078667 -0.210338
vt 0.078667 -0.468279
vt 0.040162 -0.210338
vt 0.823308 -0.990639
vt 0.766734 -0.671705
vt 0.891056 -0.740575
vt 0.831228 -0.740575
vt 0.831228 -0.639770
vt 0.891056 -0.538965
vt 0.831228 -0.538965
vt 1.014522 -0.651233
vt 0.843289 -0.565617
vt 0.843289 -0.651233
vt 0.843289 -0.736850
vt 1.014522 -0.579886
vt 1.014522 -0.722580
vt 0.746641 -0.657192
vt 0.782043 -0.632050
vt 0.771834 -0.657192
vt 0.782043 -0.682335
vt 0.797767 -0.639770
vt 0.945163 -0.639770
vt 0.945163 -0.538965
vt 0.978474 -0.639770
vt 0.945163 -0.740575
vn 0.000000 0.707100 0.707100
vn 0.000000 0.707100 -0.707100
vn 0.000000 -0.707100 -0.707100
vn 0.000000 -0.707100 0.707100
vn 1.000000 0.000000 0.000000
vn -0.519000 -0.604400 0.604400
vn -0.519000 0.604400 -0.604400
vn -0.018500 0.707000 0.707000
vn -0.018500 0.707000 -0.707000
vn -0.128500 -0.700500 0.702000
vn -0.128500 -0.700500 -0.702000
vn -0.606100 -0.755500 0.248800
vn -0.606100 0.755500 0.248800
vn -0.606100 -0.755500 -0.248800
vn -0.606100 0.755500 -0.248800
vn 0.592300 0.322700 0.738300
vn 0.592300 0.322700 -0.738300
vn 0.592300 -0.322700 0.738300
vn 0.592300 -0.322700 -0.738300
vn -0.519000 -0.604400 -0.604400
vn -0.856700 -0.364700 -0.364700
vn -0.519000 0.604400 0.604400
vn -0.856700 0.364700 -0.364700
vn -0.018500 -0.707000 -0.707000
vn -0.018500 -0.707000 0.707000
vn 0.000000 -1.000000 0.000000
vn 0.000000 1.000000 0.000000
vn 0.000000 0.000000 -1.000000
vn 0.557400 0.587100 -0.587100
vn 0.737000 0.477900 -0.477900
vn 0.557400 -0.587100 -0.587100
vn 0.737000 -0.477900 -0.477900
vn 0.000000 0.000000 1.000000
vn 0.557400 0.587100 0.587100
vn 0.557400 -0.587100 0.587100
vn 0.737000 -0.477900 0.477900
vn 0.737000 0.477900 0.477900
vn -0.128500 0.700500 -0.702000
vn -0.128500 0.700500 0.702000
vn -0.617700 -0.159700 -0.770000
vn -0.617700 0.159700 -0.770000
vn -0.617700 -0.159700 0.770000
vn -0.617700 0.159700 0.770000
vn 0.623900 0.777700 -0.077500
vn 0.623900 0.777700 0.077500
vn 0.623900 -0.777700 -0.077500
vn 0.623900 -0.777700 0.077500
vn -0.856700 0.364700 0.364700
vn -0.856700 -0.364700 0.364700
usemtl ITMELEEREST
s off
f 59/1/1 8/2/1 32/3/1
f 57/4/2 8/2/2 59/1/2
f 34/5/1 59/6/1 56/7/1
f 33/8/2 57/9/2 59/6/2
f 33/8/3 58/6/3 57/9/3
f 34/5/4 56/7/4 58/6/4
f 9/10/5 11/10/5 33/8/5
f 58/6/3 33/8/3 11/10/3
f 11/10/5 9/10/5 34/5/5
f 34/5/4 58/6/4 11/10/4
f 10/2/4 56/11/4 32/3/4
f 56/11/1 59/1/1 32/3/1
f 57/4/3 58/1/3 31/12/3
f 8/2/2 57/4/2 31/12/2
f 56/11/4 10/2/4 58/1/4
f 58/1/3 10/2/3 31/12/3
f 59/6/1 34/5/1 9/10/1
f 33/8/2 59/6/2 9/10/2
usemtl ITMELEEBLADES
f 43/13/6 28/14/6 3/15/6
f 38/16/7 27/17/7 1/15/7
f 5/18/8 30/19/8 4/20/8
f 29/21/9 5/18/9 4/20/9
f 30/19/8 5/18/8 36/22/8
f 5/18/9 29/21/9 35/23/9
f 13/24/10 12/25/10 46/26/10
f 13/24/11 45/26/11 12/25/11
f 16/24/12 15/27/12 53/26/12
f 16/24/13 51/26/13 15/27/13
f 19/24/14 54/26/14 18/27/14
f 19/24/15 18/27/15 52/26/15
f 22/24/16 49/26/16 21/27/16
f 22/24/17 21/27/17 47/26/17
f 25/24/18 24/27/18 50/26/18
f 25/24/19 48/26/19 24/27/19
f 40/16/20 3/15/20 27/17/20
f 3/15/21 55/28/21 27/17/21
f 42/13/22 1/15/22 28/14/22
f 27/17/23 55/28/23 1/15/23
f 6/20/24 35/23/24 29/21/24
f 6/20/25 30/19/25 36/22/25
f 6/20/24 7/18/24 35/23/24
f 6/20/25 36/22/25 7/18/25
f 40/16/26 43/13/26 3/15/26
f 38/16/27 1/15/27 42/13/27
f 38/16/28 40/16/28 27/17/28
f 38/16/29 39/29/29 2/30/29
f 38/16/27 42/13/27 39/29/27
f 39/29/30 44/31/30 2/30/30
f 38/16/28 2/30/28 40/16/28
f 40/16/31 2/30/31 41/29/31
f 40/16/26 41/29/26 43/13/26
f 2/30/32 44/31/32 41/29/32
f 43/13/33 42/13/33 28/14/33
f 42/13/34 37/32/34 39/29/34
f 43/13/33 37/32/33 42/13/33
f 43/13/35 41/29/35 37/32/35
f 41/29/36 44/31/36 37/32/36
f 37/32/37 44/31/37 39/29/37
f 13/24/38 14/27/38 45/26/38
f 13/24/39 46/26/39 14/27/39
f 22/24/40 47/26/40 23/25/40
f 25/24/41 26/25/41 48/26/41
f 22/24/42 23/25/42 49/26/42
f 25/24/43 50/26/43 26/25/43
f 16/24/44 17/25/44 51/26/44
f 19/24/45 52/26/45 20/25/45
f 16/24/46 53/26/46 17/25/46
f 19/24/47 20/25/47 54/26/47
f 1/15/48 55/28/48 28/14/48
f 28/14/49 55/28/49 3/15/49
