# Blender v2.75 (sub 0) OBJ File: 'Empty.blend'
# www.blender.org
mtllib ITPL_HEALTH_HERB_03.mtl
o ITPL_HEALTH_HERB_03
v -0.203686 -0.557437 -0.027482
v 0.150779 -0.398149 0.002725
v 0.263364 -0.557437 -0.023312
v -0.118744 -0.398149 -0.104248
v 0.038889 -0.398149 0.161716
v -0.155045 -0.557437 -0.199210
v -0.136636 -0.398149 0.096370
v 0.022648 -0.557437 -0.258190
v -0.066527 -0.069665 -0.082023
v 0.112611 -0.015705 0.016404
v -0.127148 -0.235137 -0.119588
v 0.184740 -0.321169 -0.044449
v -0.137183 -0.247333 0.045074
v -0.215389 -0.412805 0.101226
v 0.009712 -0.220685 0.145586
v -0.092564 -0.229423 -0.127504
v 0.078237 -0.193373 -0.127367
v -0.000133 -0.307787 0.018162
v 0.004551 0.027853 -0.013545
v -0.015865 -0.529860 0.015251
v 0.009605 0.198240 -0.048639
v -0.134028 -0.381054 -0.195032
v 0.066388 -0.557437 0.247802
v -0.213021 -0.557437 0.139436
v 0.037894 -0.398149 -0.155488
v -0.018708 -0.136422 -0.015173
v 0.198206 -0.326361 0.118876
v 0.127210 -0.191810 0.050993
v 0.139253 -0.323558 -0.191073
v 0.173521 -0.145890 0.040063
v -0.093244 -0.043544 0.047001
v -0.021801 -0.148693 0.168394
v -0.133093 -0.182026 0.108044
v -0.054296 -0.357785 -0.071521
v 0.055665 -0.357785 0.079452
v 0.043909 -0.234131 0.063044
v -0.066051 -0.234131 -0.087929
v -0.092715 -0.234131 0.050967
v 0.065181 -0.234131 -0.048797
v -0.075568 -0.357785 0.040320
v 0.082329 -0.357785 -0.059444
v 0.008328 0.041247 -0.018071
v 0.004486 -0.014142 0.100548
v -0.000033 -0.158012 0.069571
v 0.000098 -0.062893 -0.102893
v 0.000098 -0.062893 0.052751
v -0.000033 -0.158012 -0.086073
v -0.086008 -0.062893 -0.022414
v 0.086072 -0.158012 -0.010908
v 0.069298 -0.062893 -0.012149
v -0.069233 -0.158012 -0.021173
v 0.067742 0.011267 -0.067789
v -0.063839 0.011267 0.015347
v 0.053452 0.106386 -0.058916
v -0.078128 0.106386 0.024220
v 0.047494 0.109159 0.019787
v -0.044521 0.102355 -0.105599
v 0.052745 0.015297 0.040843
v -0.039270 0.008493 -0.084543
v 0.006725 0.097820 -0.094497
v -0.062656 0.106870 -0.053987
v 0.068418 0.104025 -0.042766
v 0.035169 0.116514 0.026846
v -0.000971 0.040492 -0.137297
v 0.008265 0.136245 -0.034484
v -0.047070 0.117056 0.012152
v -0.106578 0.058892 -0.047154
v -0.088545 0.070440 0.027906
v 0.064214 -0.051755 -0.100492
v 0.104009 0.051492 -0.046549
v 0.056183 -0.051755 -0.100492
v 0.049285 0.071412 0.064105
v 0.065371 -0.359695 0.226420
v -0.010863 0.118821 -0.071708
v 0.036797 0.130744 -0.005549
v -0.020559 0.163937 -0.086257
v 0.027101 0.175860 -0.020098
v -0.033056 0.170527 -0.025390
v 0.049294 0.124153 -0.066416
v 0.037076 0.170546 -0.069108
v -0.020838 0.124135 -0.022697
v 0.005969 -0.565150 0.022345
v 0.014449 -0.250970 -0.002278
v -0.012153 0.024169 -0.036367
v 0.005969 -0.565150 -0.014801
v 0.004419 -0.253182 -0.015981
v -0.015865 -0.529860 -0.007707
v 0.086118 -0.143501 0.112812
v 0.014360 -0.267659 0.185735
v 0.090612 -0.203386 -0.148032
v 0.065371 -0.329042 0.226420
vt 0.000499 -0.999500
vt 0.097928 -0.000499
vt 0.902072 -0.999500
vt 0.999501 -0.000500
vt 0.386820 -0.198496
vt 0.232830 0.065823
vt -0.084625 -0.655078
vt 0.776813 -0.305071
vt 1.004567 -0.936334
vt 0.975907 -0.149532
vt 0.594277 -0.967861
vt 0.370826 -0.812052
vt 0.774820 -0.701498
vt 0.524767 -0.487173
vt 0.158972 -0.538070
vt 0.183988 -0.999389
vt 0.018539 -0.420805
vt 0.123231 -0.453775
vt 1.229644 -0.062445
vt 1.280535 -0.276184
vt 1.248044 -0.618624
vt 0.265937 -0.958741
vt 0.295713 -0.291748
vt 0.200830 -0.292084
vt 0.341270 -0.999539
vt 0.161430 -0.958022
vt 1.169583 -1.002812
vt 1.187630 -0.617972
vt 1.316950 -1.002386
vt 0.241937 -0.082318
vt 0.172175 -0.998375
vt 0.243369 -0.640313
vt 0.326995 -0.958587
vt 0.294640 -0.321147
vt 0.231706 -0.121204
vt 0.238139 -0.999560
vn -0.808300 0.001300 0.588700
vn 0.808300 -0.001300 -0.588700
vn -0.534100 -0.001300 -0.845400
vn 0.534100 0.001300 0.845400
vn -1.000000 0.001400 0.000000
vn 1.000000 -0.001400 -0.000000
vn -0.066000 0.001400 0.997800
vn 0.066000 -0.001400 -0.997800
vn -0.534100 -0.001400 -0.845400
vn 0.534100 0.001400 0.845400
vn -0.805400 0.086500 0.586400
vn 0.805400 -0.086500 -0.586400
vn -0.812500 0.013300 0.582900
vn 0.812500 -0.013300 -0.582900
vn 0.519800 0.185300 0.833900
vn -0.519800 -0.185300 -0.833900
vn 0.596000 0.521100 -0.610900
vn -0.596000 -0.521100 0.610900
vn -0.330800 0.403900 0.852900
vn 0.895000 -0.438800 0.079800
vn -0.895000 0.438800 -0.079800
vn -0.745100 -0.412000 -0.524400
vn 0.736100 0.435600 0.518000
vn -0.460300 -0.824800 0.328400
vn 0.460300 0.824800 -0.328400
vn 0.780400 0.284300 -0.556800
vn -0.780400 -0.284300 0.556800
vn 0.571400 -0.819100 0.051000
vn -0.571400 0.819100 -0.051000
vn 0.321600 -0.387800 -0.863800
vn -0.321600 0.387800 0.863800
vn 0.265100 -0.540300 0.798600
vn -0.265100 0.540300 -0.798600
vn -0.182800 0.280900 -0.942200
vn 0.171500 -0.277400 0.945300
vn 0.556600 -0.490600 -0.670500
vn -0.815700 -0.531400 0.228600
vn 0.815700 0.531400 -0.228600
vn -0.432400 0.466300 0.771800
vn 0.910500 -0.363200 0.197700
vn -0.910500 0.363200 -0.197700
vn 0.460800 -0.750000 -0.474600
vn -0.460800 0.750000 0.474600
vn -0.084900 0.405600 -0.910100
vn 0.084900 -0.405600 0.910100
vn -0.708700 0.696800 -0.110900
vn 0.708700 -0.696800 0.110900
vn -0.506500 -0.785100 -0.356500
vn 0.208900 -0.801000 -0.561000
vn 0.506500 0.785100 0.356500
vn -0.208900 0.801000 0.561000
vn -0.075900 0.422900 -0.903000
vn 0.075900 -0.422900 0.903000
vn -0.730600 -0.429600 -0.530800
vn 0.905800 -0.420700 0.050700
vn -0.905800 0.420700 -0.050700
vn 0.157900 -0.861400 0.482800
vn -0.157900 0.861400 -0.482800
vn -0.262200 0.537500 -0.801400
vn 0.262200 -0.537500 0.801400
vn -0.170800 0.811200 -0.559300
vn 0.398500 0.909600 -0.117400
vn 0.170800 -0.811200 0.559300
vn -0.398500 -0.909600 0.117400
vn -0.577700 0.225000 0.784600
vn 0.136900 0.887100 0.440800
vn -0.136900 -0.887100 -0.440800
vn -0.422100 -0.575900 -0.700100
vn 0.422100 0.575900 0.700100
vn -0.818200 -0.511800 0.262200
vn 0.818200 0.511800 -0.262200
vn 0.567400 0.396600 0.721700
vn -0.560700 -0.421400 -0.712700
vn -0.203700 0.588600 -0.782400
vn 0.191400 -0.584000 0.788800
vn 0.714300 -0.642300 0.277900
vn -0.714300 0.642300 -0.277900
vn -0.885700 0.383800 -0.261100
vn 0.925100 -0.363700 0.109000
vn 0.957000 -0.172600 0.233100
vn -0.525700 0.462700 0.713900
vn 0.525600 -0.465200 -0.712300
vn 0.537500 0.697100 -0.474500
vn 0.329900 0.851200 0.408200
vn -0.538100 -0.716600 0.443800
vn -0.329900 -0.851200 -0.408200
vn 0.446500 -0.816200 -0.366700
vn -0.446500 0.816200 0.366700
vn 0.529000 -0.462200 -0.711700
vn -0.528900 0.465100 0.709900
vn -0.198500 0.827700 -0.524900
vn 0.198500 -0.827700 0.524900
vn -0.052100 0.943800 0.326500
vn 0.052100 -0.943800 -0.326500
vn 0.545600 0.453100 -0.705000
vn -0.475800 0.566300 -0.673000
vn -0.545600 -0.453100 0.705000
vn 0.475800 -0.566300 0.673000
vn -0.350000 -0.784800 0.511500
vn -0.478600 -0.875100 -0.071600
vn 0.350000 0.784800 -0.511500
vn 0.478600 0.875100 0.071600
vn 0.368900 -0.927800 0.056000
vn -0.368900 0.927800 -0.056000
vn 0.452900 -0.294700 0.841500
vn 0.730700 -0.679000 -0.071100
vn -0.452900 0.294700 -0.841500
vn -0.730700 0.679000 0.071100
vn 0.733700 -0.676000 -0.068800
vn -0.733700 0.676000 0.068800
vn -0.839900 -0.312200 0.444000
vn -0.799300 -0.519800 -0.301700
vn 0.799300 0.519800 0.301700
vn 0.821400 0.295700 -0.487700
vn -0.136200 0.605300 0.784300
vn 0.812600 0.500700 0.298300
vn 0.136200 -0.605300 -0.784300
vn -0.812600 -0.500700 -0.298300
vn 0.422100 0.576100 0.700000
vn -0.591800 -0.403700 -0.697700
vn 0.546300 -0.512300 -0.662600
vn 0.821600 0.331900 -0.463600
vn -0.458600 -0.670600 -0.583100
vn 0.929500 0.047800 0.365800
vn -0.810100 0.059800 0.583300
vn -0.221900 0.058400 0.973300
vn -1.000000 0.006700 0.000000
vn 0.806800 0.001800 -0.590800
vn 0.518500 0.052900 0.853500
vn -0.809600 0.141400 0.569700
vn 0.809800 -0.051600 -0.584400
vn -0.850400 -0.526100 0.000000
vn 0.999600 -0.027000 -0.000000
vn 0.311000 -0.051200 -0.949000
vn 0.016200 -0.072300 -0.997200
vn -0.316500 -0.005200 -0.948600
usemtl NW_NATURE_BERRY_01
s off
f 35/1/1 36/2/1 34/3/1
f 36/2/2 35/1/2 34/3/2
f 37/4/1 34/3/1 36/2/1
f 34/3/2 37/4/2 36/2/2
f 40/3/3 38/4/3 39/2/3
f 38/4/4 40/3/4 39/2/4
f 41/1/4 39/2/4 40/3/4
f 39/2/3 41/1/3 40/3/3
f 44/1/5 46/2/5 47/3/5
f 46/2/6 44/1/6 47/3/6
f 47/3/6 45/4/6 46/2/6
f 45/4/5 47/3/5 46/2/5
f 49/1/7 50/2/7 51/3/7
f 50/2/8 49/1/8 51/3/8
f 48/4/7 51/3/7 50/2/7
f 51/3/8 48/4/8 50/2/8
f 54/2/9 52/1/9 53/3/9
f 52/1/10 54/2/10 53/3/10
f 55/4/10 53/3/10 54/2/10
f 53/3/9 55/4/9 54/2/9
f 58/1/11 56/2/11 59/3/11
f 56/2/12 58/1/12 59/3/12
f 57/4/11 59/3/11 56/2/11
f 59/3/12 57/4/12 56/2/12
f 76/4/13 74/3/13 77/2/13
f 74/3/14 76/4/14 77/2/14
f 75/1/13 77/2/13 74/3/13
f 77/2/14 75/1/14 74/3/14
f 79/1/15 80/2/15 81/3/15
f 80/2/16 79/1/16 81/3/16
f 81/3/16 78/4/16 80/2/16
f 78/4/15 81/3/15 80/2/15
usemtl NW_NATURE_LEAVES_02
f 2/5/17 3/6/17 8/7/17
f 3/6/18 2/5/18 8/7/18
f 5/8/19 24/9/19 23/10/19
f 1/11/20 4/12/20 7/13/20
f 4/12/21 1/11/21 7/13/21
f 23/10/22 5/8/22 2/5/22
f 5/8/23 3/6/23 2/5/23
f 2/5/24 18/14/24 25/15/24
f 18/14/25 2/5/25 25/15/25
f 2/5/26 8/7/26 25/15/26
f 8/7/27 2/5/27 25/15/27
f 4/12/28 18/14/28 7/13/28
f 18/14/29 4/12/29 7/13/29
f 24/9/30 7/13/30 5/8/30
f 7/13/31 24/9/31 5/8/31
f 8/7/32 25/15/32 6/16/32
f 25/15/33 8/7/33 6/16/33
f 9/5/34 71/8/34 11/6/34
f 11/6/35 69/8/35 9/5/35
f 14/6/36 13/5/36 89/17/36
f 12/11/37 28/12/37 17/13/37
f 28/12/38 12/11/38 17/13/38
f 13/5/39 14/6/39 73/7/39
f 14/6/40 16/8/40 13/5/40
f 13/5/41 16/8/41 14/6/41
f 13/5/42 26/14/42 15/15/42
f 26/14/43 13/5/43 15/15/43
f 17/13/44 29/9/44 16/8/44
f 29/9/45 17/13/45 16/8/45
f 26/14/46 16/8/46 13/5/46
f 16/8/47 26/14/47 13/5/47
f 5/8/48 18/14/48 2/5/48
f 7/13/49 18/14/49 5/8/49
f 18/14/50 5/8/50 2/5/50
f 18/14/51 7/13/51 5/8/51
f 16/8/52 29/9/52 22/10/52
f 29/9/53 16/8/53 22/10/53
f 23/10/54 2/5/54 3/6/54
f 1/11/55 7/13/55 24/9/55
f 7/13/56 1/11/56 24/9/56
f 25/15/57 18/14/57 4/12/57
f 18/14/58 25/15/58 4/12/58
f 25/15/59 6/16/59 4/12/59
f 6/16/60 25/15/60 4/12/60
f 26/14/61 17/13/61 16/8/61
f 26/14/62 28/12/62 17/13/62
f 17/13/63 26/14/63 16/8/63
f 28/12/64 26/14/64 17/13/64
f 13/5/65 73/7/65 15/15/65
f 26/14/66 15/15/66 28/12/66
f 15/15/67 26/14/67 28/12/67
f 27/16/68 15/15/68 28/12/68
f 15/15/69 27/16/69 28/12/69
f 12/11/70 17/13/70 29/9/70
f 17/13/71 12/11/71 29/9/71
f 43/12/72 30/9/72 10/13/72
f 88/11/73 43/12/73 10/13/73
f 42/14/74 71/8/74 9/5/74
f 69/8/75 42/14/75 9/5/75
f 9/5/76 42/14/76 31/15/76
f 42/14/77 9/5/77 31/15/77
f 9/5/78 11/6/78 31/15/78
f 11/6/79 9/5/79 33/7/79
f 33/7/80 9/5/80 31/15/80
f 43/12/81 33/7/81 32/16/81
f 33/7/82 31/15/82 32/16/82
f 42/14/83 10/13/83 71/8/83
f 42/14/84 43/12/84 10/13/84
f 10/13/85 42/14/85 69/8/85
f 43/12/86 42/14/86 10/13/86
f 31/15/87 42/14/87 43/12/87
f 42/14/88 31/15/88 43/12/88
f 32/16/89 31/15/89 43/12/89
f 31/15/90 33/7/90 43/12/90
f 65/14/91 60/5/91 61/15/91
f 60/5/92 65/14/92 61/15/92
f 65/14/93 66/12/93 63/13/93
f 66/12/94 65/14/94 63/13/94
f 62/8/95 64/6/95 60/5/95
f 60/5/96 64/6/96 67/7/96
f 64/6/97 62/8/97 60/5/97
f 64/6/98 60/5/98 67/7/98
f 62/8/99 65/14/99 60/5/99
f 63/13/100 65/14/100 62/8/100
f 65/14/101 62/8/101 60/5/101
f 65/14/102 63/13/102 62/8/102
f 61/15/103 65/14/103 66/12/103
f 65/14/104 61/15/104 66/12/104
f 67/7/105 60/5/105 61/15/105
f 67/7/106 61/15/106 68/16/106
f 60/5/107 67/7/107 61/15/107
f 61/15/108 67/7/108 68/16/108
f 68/16/109 61/15/109 66/12/109
f 61/15/110 68/16/110 66/12/110
f 30/9/111 10/13/111 69/8/111
f 72/9/112 62/8/112 70/10/112
f 62/8/113 72/9/113 70/10/113
f 10/13/114 30/9/114 71/8/114
f 66/12/115 72/9/115 63/13/115
f 63/13/116 72/9/116 62/8/116
f 72/9/117 66/12/117 63/13/117
f 72/9/118 63/13/118 62/8/118
f 15/15/119 73/7/119 27/16/119
f 88/11/120 10/13/120 30/9/120
f 89/17/121 13/5/121 15/18/121
f 71/8/122 30/9/122 90/10/122
f 91/7/123 15/15/123 27/16/123
usemtl NW_NATURE_PLANT_02
f 21/19/124 19/20/124 83/21/124
f 20/22/125 19/23/125 84/24/125
f 20/22/126 82/25/126 19/23/126
f 87/26/127 20/22/127 84/24/127
f 85/27/128 86/28/128 83/21/128
f 82/29/129 83/21/129 19/20/129
f 21/30/130 84/24/130 19/23/130
f 83/21/131 86/28/131 21/19/131
f 85/31/132 82/25/132 20/22/132
f 82/29/133 85/27/133 83/21/133
f 86/32/134 87/33/134 84/34/134
f 86/32/135 84/34/135 21/35/135
f 85/36/136 87/33/136 86/32/136
f 85/31/132 20/22/132 87/26/132
