# Blender v2.75 (sub 0) OBJ File: 'Empty.blend'
# www.blender.org
mtllib ITPL_MUSHROOM_02.mtl
o ITPL_MUSHROOM_02
v 0.273513 0.065029 -0.176077
v -0.070239 0.012122 0.314025
v -0.314034 0.117936 -0.061385
v 0.071723 0.117936 -0.311899
v 0.315517 0.012122 0.063511
v -0.272029 0.065029 0.178203
v 0.173130 -0.009793 0.266518
v -0.171647 0.139851 -0.264392
v 0.061962 -0.192492 -0.049087
v 0.072081 0.146901 -0.033506
v -0.086707 -0.192492 -0.009252
v -0.076588 0.146901 0.006330
v -0.083163 -0.043403 0.056178
v -0.039612 0.064335 0.175954
v -0.028793 -0.101421 0.159873
v -0.002555 -0.187473 0.061980
v -0.084049 0.009162 0.119790
v -0.004207 -0.137986 0.001030
v -0.011189 0.009162 0.149080
v -0.024780 0.146901 0.086107
v 0.003024 -0.065913 0.080726
v -0.114980 -0.078912 0.135325
v -0.078476 -0.097520 0.163991
v 0.004965 -0.088328 0.125383
v -0.047699 -0.003237 0.142387
v -0.116921 -0.056496 0.090667
v 0.056984 -0.192492 0.045906
v -0.034899 -0.192492 0.070526
v 0.067103 0.146901 0.061487
v -0.026843 -0.192492 -0.083177
v -0.016725 0.146901 -0.067595
v -0.086028 -0.008576 0.164921
v -0.048606 -0.156888 0.006209
v -0.227529 0.126825 0.166722
v -0.263906 0.172644 -0.040768
v -0.052774 0.081006 0.284347
v 0.157991 0.062027 0.243205
v 0.244925 0.126825 -0.140093
v -0.140595 0.191623 -0.216577
v 0.070169 0.172644 -0.257719
v -0.010643 -0.088427 0.105517
v 0.024254 -0.156888 0.035499
v -0.047585 -0.187473 0.043878
v -0.037796 0.020125 0.109999
v -0.040998 -0.008576 0.183023
v 0.008791 0.127549 0.013458
v 0.171910 0.145609 0.053507
v -0.040506 -0.102348 0.141152
v -0.012304 0.049264 0.153203
v -0.055397 0.060519 0.140929
v -0.033480 -0.047304 0.052060
v 0.281302 0.081006 0.067396
v -0.028311 0.017706 0.093522
v -0.053054 0.033460 0.194836
v -0.121863 0.172063 0.110853
v 0.050299 -0.060282 0.035612
v -0.037390 -0.067473 0.070863
v -0.071672 0.209474 -0.110445
v -0.024252 -0.029161 0.186891
v -0.011333 0.038056 0.175532
v -0.100573 0.009746 0.126957
v -0.071305 0.042765 0.180503
v -0.085709 -0.089998 0.128521
v -0.028212 0.031510 0.192777
v -0.030556 0.058569 0.138870
v -0.072276 0.053973 0.158174
v 0.100716 0.134652 0.155010
v -0.020968 0.145609 0.178764
v 0.050013 0.198516 -0.134198
v -0.142866 0.198516 -0.008941
v 0.150908 0.172063 -0.066287
v 0.016654 0.188621 0.025566
v -0.083783 -0.068444 0.085080
v -0.040964 -0.052180 0.061187
v -0.090765 -0.025960 -0.015501
v -0.030281 -0.017858 -0.088471
v 0.004983 -0.017822 0.157022
v -0.071338 0.021084 0.097088
v -0.098892 -0.009667 0.165631
v 0.003302 0.001590 0.118348
v -0.067279 -0.025783 0.190457
v 0.056901 -0.039070 -0.056882
vt 0.507196 -0.765865
vt 0.507196 -0.813938
vt 0.517876 -0.447033
vt 0.366075 -0.591683
vt 0.358490 -0.553671
vt -0.215539 -0.212044
vt -0.321065 -0.053907
vt -0.178338 -0.025607
vt 0.309461 -0.307956
vt 0.281153 -0.166093
vt 0.389757 -0.187627
vt -0.057403 -0.106518
vt 0.167597 -0.336264
vt 0.063746 -0.356986
vt 0.101045 -0.168879
vt -0.373676 -0.317569
vt -0.401976 -0.174842
vt 0.229164 -0.428285
vt -0.252741 -0.398481
vt 0.189132 -0.227660
vt 0.260431 -0.062242
vt -0.029102 -0.249245
vt 0.448538 -0.099541
vt 0.555175 -0.258926
vt 0.198914 0.036517
vt 0.231205 0.133562
vt 0.012950 0.126014
vt 0.015474 0.226979
vt 0.244382 0.233299
vt -0.017731 0.058373
vt -0.018702 0.181599
vt 0.239102 0.195415
vt 0.280718 0.767476
vt 0.270219 0.788488
vt 0.322347 0.953179
vt 0.231447 0.685824
vt 0.241946 0.664811
vt 0.189818 0.500121
vt 0.284138 0.039217
vt 0.282059 0.148335
vt 0.408315 0.123019
vt 0.153824 0.200280
vt 0.422807 0.345883
vt 0.438763 0.256994
vt 0.172005 -0.035571
vt 0.157145 0.064941
vt 0.180338 0.115088
vt 0.460714 0.004526
vt 0.384315 0.889615
vt 0.389843 0.929522
vt 0.433169 0.731376
vt -0.191417 -0.221650
vt -0.243415 -0.389295
vt -0.346728 -0.303425
vt -0.359063 -0.169653
vt 0.275328 0.545285
vt 0.263996 0.531924
vt 0.127850 0.563685
vt 0.122322 0.523777
vt 0.078996 0.721924
vt -0.273193 -0.066339
vt -0.109642 -0.376961
vt 0.325862 0.910102
vt -0.023772 -0.273647
vt -0.139420 -0.054005
vt -0.036107 -0.139874
vt 0.186303 0.543197
vt -0.237499 -0.146423
vt -0.193819 -0.032633
vt -0.135277 -0.080039
vt -0.016859 0.161725
vt 0.251028 0.219727
vt 0.223638 0.125253
vt -0.256996 -0.073660
vt 0.250562 0.072722
vt -0.016901 0.260106
vt 0.195449 0.030849
vt 0.422193 0.136427
vt 0.421435 0.038115
vt -0.162273 -0.150365
vt -0.017616 0.063414
vt 0.161808 0.291266
vt 0.149040 0.087661
vt 0.458798 0.348360
vt 0.499573 0.208073
vt 0.170384 -0.516372
vt 0.148868 -0.548614
vt 0.025734 -0.364571
vt 0.429789 -0.388252
vt 0.337768 -0.449819
vt 0.068803 -0.147364
vt 0.252846 -0.024230
vt 0.470053 -0.067298
vt 0.593187 -0.251341
vt 0.550118 -0.468548
vt 0.260364 0.248896
vt 0.409946 0.234125
vt 0.411777 0.018022
vt 0.436635 0.168797
vt -0.110014 -0.370180
vt 0.140332 0.168789
vt -0.037177 0.090659
vt 0.369213 0.780586
vt 0.421836 0.718015
vt 0.390876 0.681513
vt 0.348582 0.631650
vt 0.236837 0.908015
vt 0.248169 0.921376
vt 0.306289 0.581787
vt 0.309401 0.710069
vt 0.387764 0.553231
vt 0.361700 0.470886
vt 0.422150 0.234807
vt 0.419741 0.192472
vt 0.420711 0.069245
vt -0.105090 0.095547
vt -0.118222 0.241078
vt 0.168560 0.232450
vt 0.451324 -0.279649
vt 0.335465 0.792414
vt 0.202764 0.743231
vt 0.176700 0.660885
vt 0.327952 0.482714
vt 0.090329 0.735284
vt -0.035049 0.178856
vt 0.205876 0.871513
vt -0.018213 0.270772
vt 0.015135 0.024999
vt 0.458530 0.105541
vt 0.461054 0.206505
vt 0.142952 0.672714
vt 0.121289 0.771787
vn 0.247100 -0.749000 -0.614800
vn -0.617500 0.700600 -0.357500
vn 0.081900 -0.970100 -0.228600
vn 0.234500 0.957100 0.170200
vn 0.047000 -0.996100 -0.074600
vn 0.181100 0.813700 0.552400
vn -0.157800 -0.907200 -0.389900
vn -0.002900 -0.933300 -0.359200
vn -0.107300 0.862100 0.495200
vn -0.292000 -0.907200 -0.302700
vn 0.431000 0.813700 0.390100
vn -0.087200 -0.996100 0.012600
vn 0.338100 0.930700 -0.139800
vn -0.838700 -0.000000 0.544600
vn -0.776400 -0.042500 -0.628800
vn -0.767600 -0.034500 -0.640000
vn 0.256200 -0.140500 0.956300
vn 0.737100 -0.276800 0.616400
vn -0.714800 0.463400 -0.523800
vn 0.761100 0.610900 -0.218000
vn -0.958600 -0.233100 -0.163300
vn 0.833300 0.229200 -0.503000
vn -0.363500 -0.687800 0.628300
vn 0.682500 0.353700 -0.639600
vn -0.641800 -0.252500 -0.724100
vn -0.096000 -0.192400 -0.976600
vn 0.049800 -0.352500 0.934500
vn -0.660200 -0.167100 0.732300
vn 0.467700 -0.339600 -0.816000
vn -0.849900 -0.484800 -0.206400
vn 0.999200 0.015700 -0.035600
vn -0.598500 -0.753100 0.273200
vn 0.511000 -0.840200 0.181200
vn -0.976900 0.170800 0.128200
vn 0.719100 -0.608000 -0.336400
vn 0.000000 -1.000000 0.000000
vn 0.994900 -0.087600 0.050900
vn 0.255600 -0.140200 0.956600
vn 0.994800 -0.087200 0.052100
vn 0.358300 -0.021200 -0.933400
vn 0.357000 0.087800 -0.930000
vn -0.957900 -0.237900 -0.160500
vn -0.325300 0.554000 -0.766300
vn -0.416000 0.446700 0.792100
vn -0.758600 0.595400 0.264500
vn -0.200200 0.979100 -0.034700
vn 0.209600 0.341600 0.916200
vn 0.751700 0.341600 0.564100
vn 0.892800 0.446700 -0.057900
vn 0.550200 0.595400 -0.585500
vn -0.075400 0.700600 -0.709600
vn 0.787800 -0.192800 0.584900
vn 0.791300 -0.190700 0.580900
vn 0.738700 0.616800 -0.271800
vn -0.259900 -0.717200 0.646600
vn 0.832700 0.229100 -0.504200
vn 0.788000 -0.247300 0.563800
vn -0.326900 -0.933300 -0.148800
vn -0.242100 -0.970100 -0.018200
vn 0.496000 0.862100 0.103400
vn 0.788500 -0.247300 0.563200
vn -0.344300 -0.384300 0.856600
vn 0.667300 0.569400 -0.480100
vn 0.468300 0.883300 -0.023000
vn -0.034700 -0.900400 0.433800
vn -0.027400 0.539100 -0.841800
vn 0.109900 0.483300 0.868500
vn -0.323100 0.945400 0.042600
vn -0.265200 0.930700 0.252000
vn 0.994800 0.056800 0.084000
vn 0.257800 0.088000 0.962200
vn -0.278300 0.390700 -0.877400
vn -0.241000 0.623300 -0.743900
vn 0.049700 0.979100 -0.197000
vn 0.075100 -0.091400 0.993000
vn 0.647700 0.691900 0.319100
vn -0.640400 0.672100 -0.371700
vn -0.292200 0.588300 0.754000
vn -0.999200 0.013000 -0.037800
vn 0.499200 0.526200 0.688400
vn 0.718400 -0.020600 0.695300
vn 0.066200 0.988300 -0.137500
vn 0.002900 0.743000 -0.669300
vn -0.471600 0.779700 0.411900
vn -0.885700 0.398400 0.238500
vn 0.215700 0.943100 0.253100
vn 0.143500 0.943100 0.300000
vn 0.105500 0.990900 0.083400
vn 0.033300 0.990900 0.130300
vn 0.188900 0.976900 0.099900
vn 0.014500 0.976900 0.213200
vn 0.060100 0.957100 0.283500
vn -0.999200 0.013800 -0.038400
vn -0.277100 0.391500 -0.877500
vn 0.275300 0.075700 0.958400
vn -0.769800 0.141700 -0.622300
vn -0.769200 0.142200 -0.622900
vn 0.358200 0.088300 -0.929400
vn 0.963700 0.253200 0.085200
vn -0.589300 0.082100 0.803700
vn 0.998000 0.035600 0.052300
vn 0.332500 -0.036900 -0.942400
usemtl ITFOOD
s off
f 42/1/1 43/2/1 33/1/1
f 42/1/1 33/1/1 18/1/1
f 42/1/1 16/2/1 43/2/1
usemtl IT_MUSHROOMS_01
f 39/3/2 3/4/2 35/5/2
f 46/6/3 6/7/3 3/8/3
f 72/9/4 47/10/4 71/11/4
f 46/6/5 3/8/5 8/12/5
f 68/13/6 36/14/6 37/15/6
f 46/6/7 7/16/7 2/17/7
f 46/6/8 2/17/8 6/7/8
f 55/18/9 36/14/9 68/13/9
f 46/6/10 5/19/10 7/16/10
f 67/20/11 37/15/11 52/21/11
f 46/6/12 8/12/12 4/22/12
f 71/11/13 38/23/13 40/24/13
f 74/25/14 75/26/14 11/27/14
f 75/26/15 30/28/15 11/27/15
f 75/26/16 76/29/16 30/28/16
f 29/30/17 20/31/17 74/32/17
f 59/33/18 15/34/18 24/35/18
f 78/36/19 13/37/19 26/38/19
f 57/39/20 41/40/20 42/41/20
f 63/42/21 33/43/21 43/44/21
f 44/45/22 19/46/22 41/40/22
f 48/47/23 63/42/23 43/44/23
f 20/48/14 75/26/14 74/25/14
f 80/49/24 21/50/24 51/51/24
f 25/52/25 24/53/25 15/54/25
f 25/52/26 15/54/26 23/55/26
f 81/56/27 23/57/27 15/34/27
f 79/58/28 22/59/28 23/60/28
f 25/52/29 23/55/29 22/61/29
f 25/52/30 21/62/30 24/53/30
f 77/63/31 24/35/31 21/50/31
f 25/52/32 51/64/32 21/62/32
f 25/52/33 26/65/33 13/66/33
f 61/67/34 26/38/34 22/59/34
f 25/52/35 22/61/35 26/65/35
f 27/68/36 11/69/36 30/70/36
f 10/71/37 56/72/37 82/73/37
f 27/68/36 28/74/36 11/69/36
f 29/30/38 74/32/38 56/75/38
f 10/71/39 29/76/39 56/72/39
f 76/77/40 9/78/40 30/79/40
f 27/68/36 30/70/36 9/80/36
f 31/81/41 10/71/41 82/73/41
f 63/42/42 73/82/42 33/43/42
f 73/83/43 18/84/43 33/85/43
f 34/86/44 6/87/44 2/88/44
f 35/5/45 3/4/45 6/87/45
f 58/89/46 35/5/46 70/90/46
f 35/5/45 6/87/45 34/86/45
f 34/86/44 2/88/44 36/14/44
f 36/14/47 2/88/47 7/91/47
f 36/14/47 7/91/47 37/15/47
f 37/15/48 7/91/48 5/92/48
f 52/21/49 1/93/49 38/23/49
f 38/23/50 1/93/50 4/94/50
f 39/3/2 8/95/2 3/4/2
f 40/24/51 8/95/51 39/3/51
f 40/24/51 4/94/51 8/95/51
f 38/23/50 4/94/50 40/24/50
f 41/40/52 48/96/52 16/97/52
f 41/40/53 16/97/53 42/41/53
f 57/39/54 42/41/54 18/98/54
f 48/47/55 43/44/55 16/99/55
f 44/45/56 41/40/56 57/39/56
f 19/46/57 48/96/57 41/40/57
f 46/6/58 1/100/58 5/19/58
f 46/6/59 4/22/59 1/100/59
f 47/10/60 52/21/60 38/23/60
f 47/10/60 38/23/60 71/11/60
f 19/46/61 45/101/61 48/96/61
f 45/102/62 63/42/62 48/47/62
f 49/103/63 53/104/63 65/105/63
f 59/33/18 24/35/18 77/63/18
f 14/106/64 49/103/64 65/105/64
f 61/67/34 22/59/34 79/58/34
f 25/52/65 13/66/65 51/64/65
f 53/107/66 13/37/66 78/36/66
f 37/15/48 5/92/48 52/21/48
f 52/21/49 5/92/49 1/93/49
f 80/49/24 51/51/24 53/104/24
f 53/107/66 51/108/66 13/37/66
f 14/106/67 54/109/67 64/110/67
f 14/106/68 50/111/68 66/112/68
f 55/18/9 34/86/9 36/14/9
f 70/90/69 35/5/69 34/86/69
f 82/73/70 56/72/70 27/113/70
f 56/75/71 28/114/71 27/115/71
f 17/116/72 44/117/72 57/118/72
f 73/83/73 57/118/73 18/84/73
f 58/89/46 39/3/46 35/5/46
f 69/119/74 40/24/74 39/3/74
f 54/109/75 59/33/75 64/110/75
f 81/56/27 15/34/27 59/33/27
f 14/106/76 60/120/76 49/103/76
f 77/63/31 21/50/31 80/49/31
f 50/121/77 61/67/77 66/122/77
f 78/36/19 26/38/19 61/67/19
f 14/106/78 62/123/78 54/109/78
f 79/58/28 23/60/28 81/124/28
f 45/102/62 32/125/62 63/42/62
f 32/125/79 73/82/79 63/42/79
f 14/106/80 64/110/80 60/120/80
f 64/110/81 59/33/81 77/63/81
f 14/106/82 65/105/82 50/111/82
f 65/126/83 53/107/83 78/36/83
f 14/106/84 66/112/84 62/123/84
f 66/122/85 61/67/85 79/58/85
f 72/9/86 67/20/86 47/10/86
f 67/20/11 52/21/11 47/10/11
f 72/9/87 68/13/87 67/20/87
f 68/13/6 37/15/6 67/20/6
f 72/9/88 69/119/88 58/89/88
f 69/119/74 39/3/74 58/89/74
f 72/9/89 58/89/89 70/90/89
f 70/90/69 34/86/69 55/18/69
f 72/9/90 71/11/90 69/119/90
f 71/11/13 40/24/13 69/119/13
f 72/9/91 70/90/91 55/18/91
f 72/9/92 55/18/92 68/13/92
f 32/125/93 17/127/93 73/82/93
f 17/116/94 57/118/94 73/83/94
f 56/75/95 74/32/95 28/114/95
f 74/25/14 11/27/14 28/128/14
f 20/48/14 12/129/14 75/26/14
f 12/129/96 76/29/96 75/26/96
f 12/129/97 31/130/97 76/29/97
f 31/81/98 82/73/98 76/77/98
f 64/110/81 77/63/81 60/120/81
f 60/120/99 77/63/99 80/49/99
f 65/126/83 78/36/83 50/121/83
f 50/121/77 78/36/77 61/67/77
f 66/122/85 79/58/85 62/131/85
f 62/131/100 79/58/100 81/124/100
f 60/120/99 80/49/99 49/103/99
f 49/103/63 80/49/63 53/104/63
f 62/131/100 81/124/100 54/132/100
f 54/109/75 81/56/75 59/33/75
f 82/73/101 27/113/101 9/78/101
f 76/77/102 82/73/102 9/78/102
