# Blender v2.75 (sub 0) OBJ File: 'Empty.blend'
# www.blender.org
mtllib ITPL_PLANEBERRY.mtl
o ITPL_PLANEBERRY
v -0.135171 -0.065594 -0.017380
v 0.099574 -0.000426 0.002624
v 0.025475 -0.000426 0.107917
v 0.024816 -0.000426 -0.102152
v 0.122065 0.031069 -0.028616
v -0.091129 0.061276 0.030670
v 0.006152 0.072179 0.097235
v -0.061580 0.068604 -0.083620
v 0.009289 0.059788 -0.000688
v 0.006081 0.243570 -0.031391
v -0.010786 -0.054312 -0.004284
v -0.090767 -0.000426 0.064641
v -0.000367 0.036543 0.012848
v 0.051533 0.083352 -0.083529
v 0.174134 -0.065594 -0.014619
v -0.078918 -0.000426 -0.068219
v -0.012669 0.106653 -0.009228
v 0.014719 -0.065594 -0.170167
v -0.102959 -0.065594 -0.131107
v -0.142921 -0.006422 0.067857
v 0.083966 0.083992 0.034590
v 0.043686 -0.065594 0.164927
v -0.044337 0.133964 -0.053500
v 0.074298 0.156040 0.011684
v -0.062030 0.144651 0.031946
v -0.141353 -0.065594 0.093162
v 0.130983 0.028944 0.079546
v -0.084484 0.066266 -0.078377
v -0.089040 0.006568 -0.128340
v 0.091941 0.030091 -0.125719
v 0.005236 0.179341 -0.011147
v 0.002691 0.156680 0.067408
v -0.088421 0.087995 0.072372
v -0.014718 0.101632 0.112339
v 0.114635 0.102779 0.027352
v 0.004174 0.202486 -0.061761
v 0.045031 0.205025 -0.027502
v -0.041774 0.206188 -0.034933
v -0.036237 0.016088 -0.046545
v 0.036585 0.016088 0.053437
v 0.028800 0.066678 0.042571
v -0.044022 0.066678 -0.057411
v -0.061680 0.066678 0.034573
v 0.042887 0.066678 -0.031496
v 0.054243 0.016088 -0.038547
v -0.050324 0.016088 0.027522
v 0.023011 0.210134 0.018599
v -0.031452 0.210356 0.008867
v 0.005194 0.218207 -0.022017
v 0.031174 0.207125 0.013924
v -0.029763 0.204342 -0.069113
v 0.034651 0.168724 0.027868
v -0.026286 0.165941 -0.055169
v -0.000302 0.097820 0.046893
v -0.000215 0.136735 -0.067321
v -0.000215 0.136735 0.035755
v -0.000302 0.097820 -0.056182
v -0.057238 0.136735 -0.014024
v 0.056722 0.097820 -0.006404
v 0.045613 0.136735 -0.007226
v -0.046129 0.097820 -0.013202
v 0.044583 0.167075 -0.044074
v -0.042557 0.167075 0.010984
v 0.035119 0.205990 -0.038197
v -0.052020 0.205990 0.016860
v -0.000922 0.179032 -0.090105
v -0.070861 0.186560 -0.030408
v -0.058919 0.191284 0.019301
v 0.042246 0.141292 -0.065731
v 0.036928 0.141292 -0.065731
v 0.032360 0.191682 0.043274
v 0.068600 0.183532 -0.030007
v 0.043012 0.015307 0.150767
v -0.007473 0.211078 -0.046669
v 0.024089 0.215956 -0.002855
v 0.017668 0.234414 -0.012490
v -0.013895 0.229536 -0.056304
v 0.002734 0.173861 -0.008150
v 0.003674 -0.068749 -0.008982
v -0.022171 0.232232 -0.015995
v 0.032366 0.213260 -0.043164
v 0.024274 0.232240 -0.044947
v -0.014080 0.213252 -0.014211
v 0.003674 -0.068749 0.015618
v 0.002647 0.058883 -0.009763
v -0.008328 0.172354 -0.023264
v -0.010786 -0.054312 0.010920
v 0.056752 0.103756 0.075530
v 0.009231 0.052960 0.123824
v 0.059728 0.079256 -0.097215
v 0.043012 0.027847 0.150767
vt 1.248044 -0.618624
vt 1.187630 -0.617972
vt 1.229644 -0.062445
vt 1.316950 -1.002386
vt 1.280535 -0.276184
vt 0.265937 -0.958741
vt 0.295713 -0.291748
vt 0.200830 -0.292084
vt 1.169583 -1.002812
vt 0.161430 -0.958022
vt 0.172175 -0.998375
vt 0.238139 -0.999560
vt 0.326995 -0.958587
vt 0.243369 -0.640313
vt 0.294640 -0.321147
vt 0.231706 -0.121204
vt 0.241937 -0.082318
vt 0.341270 -0.999539
vt 0.000499 -0.999500
vt 0.097928 -0.000499
vt 0.902072 -0.999500
vt 0.999501 -0.000500
vt 0.524767 -0.487173
vt 0.158972 -0.538070
vt 0.370826 -0.812052
vt 0.386820 -0.198496
vt -0.084625 -0.655078
vt 0.183988 -0.999389
vt 0.774820 -0.701498
vt 0.776813 -0.305071
vt 0.232830 0.065823
vt 0.975907 -0.149532
vt 0.594277 -0.967861
vt 0.018539 -0.420805
vt 1.004567 -0.936334
vt 0.123231 -0.453775
vn 0.808100 -0.083300 -0.583100
vn 0.517300 0.085400 0.851500
vn -0.807800 0.096500 0.581600
vn 0.927700 0.077200 0.365100
vn 0.806800 0.002900 -0.590800
vn -0.999900 0.010800 0.000000
vn 0.999000 -0.043600 -0.000000
vn -0.706600 -0.707600 0.000000
vn -0.316500 -0.008300 -0.948500
vn 0.310300 -0.082700 -0.947000
vn 0.016200 -0.116600 -0.993000
vn -0.796800 0.225200 0.560700
vn -0.221300 0.094200 0.970600
vn -0.808300 0.002100 0.588700
vn 0.808300 -0.002100 -0.588700
vn 0.534100 0.002100 0.845400
vn -0.534100 -0.002100 -0.845400
vn -0.800600 0.139100 0.582800
vn 0.800600 -0.139100 -0.582800
vn -1.000000 0.002200 0.000000
vn 1.000000 -0.002200 0.000000
vn -0.066000 0.002200 0.997800
vn 0.066000 -0.002200 -0.997800
vn -0.534100 -0.002200 -0.845400
vn 0.534100 0.002200 0.845400
vn -0.812300 0.021600 0.582800
vn 0.812300 -0.021600 -0.582800
vn 0.505900 0.291900 0.811700
vn -0.505900 -0.291900 -0.811700
vn -0.106400 0.939600 -0.325400
vn 0.106400 -0.939600 0.325400
vn 0.317500 0.920800 -0.226500
vn -0.317500 -0.920800 0.226500
vn 0.090700 0.952000 0.292200
vn -0.090700 -0.952000 -0.292200
vn 0.340400 0.752000 0.564500
vn -0.333300 0.878100 0.343300
vn 0.333300 -0.878100 -0.343300
vn 0.395500 -0.917800 0.035300
vn -0.395500 0.917800 -0.035300
vn -0.358300 -0.898900 -0.252200
vn 0.146200 -0.907900 -0.392800
vn 0.358300 0.898900 0.252200
vn -0.146200 0.907900 0.392800
vn 0.260500 0.962400 -0.076700
vn -0.260500 -0.962400 0.076700
vn 0.643800 0.616700 0.453100
vn 0.496700 0.703000 -0.509000
vn -0.641000 -0.610100 -0.465700
vn -0.496700 -0.703000 0.509000
vn 0.781400 -0.620100 0.069700
vn -0.781400 0.620100 -0.069700
vn 0.530200 -0.843800 0.083000
vn -0.530200 0.843800 -0.083000
vn -0.118800 0.913500 -0.389100
vn 0.118800 -0.913500 0.389100
vn -0.733900 -0.432800 0.523600
vn 0.218400 -0.720600 0.658000
vn 0.733900 0.432800 -0.523600
vn -0.218400 0.720600 -0.658000
vn -0.216400 0.718100 -0.661400
vn 0.216400 -0.718100 0.661400
vn 0.826400 -0.533700 0.179500
vn 0.472100 -0.673600 -0.568700
vn -0.826400 0.533700 -0.179500
vn -0.555400 0.350100 0.754300
vn 0.675600 0.712500 -0.189400
vn -0.675600 -0.712500 0.189400
vn -0.659900 -0.590700 -0.464400
vn -0.294200 0.581400 0.758600
vn 0.553000 -0.804900 0.215200
vn -0.553000 0.804900 -0.215200
vn 0.288400 -0.562900 -0.774600
vn -0.288400 0.562900 0.774600
vn 0.798500 -0.600300 0.044700
vn -0.798500 0.600300 -0.044700
vn -0.340400 -0.751900 -0.564600
vn 0.340400 0.751900 0.564600
vn -0.795900 0.558200 -0.234600
vn -0.172100 0.428100 -0.887200
vn 0.161800 -0.423500 0.891400
vn 0.839500 -0.534200 0.098900
vn -0.066800 0.602800 -0.795100
vn 0.066800 -0.602800 0.795100
vn -0.075400 0.583400 -0.808700
vn 0.075400 -0.583400 0.808700
vn -0.685500 -0.694100 0.219700
vn 0.685500 0.694100 -0.219700
vn -0.163000 0.762500 -0.626100
vn 0.153600 -0.758700 0.633100
vn 0.223800 0.934500 0.276800
vn -0.223800 -0.934500 -0.276800
vn 0.309600 -0.916200 -0.254300
vn -0.309600 0.916200 0.254300
vn 0.934700 -0.272900 0.227700
vn 0.452200 -0.648000 -0.612900
vn -0.455100 0.647900 0.610900
vn 0.455900 -0.644900 -0.613400
vn -0.453000 0.645300 0.615100
vn 0.506500 0.573100 0.644200
vn -0.494100 -0.601100 -0.628100
vn 0.402100 0.844000 -0.354900
vn -0.397500 -0.857000 0.327900
vn 0.136700 -0.922400 0.361300
vn -0.136700 0.922400 -0.361300
vn -0.033300 0.977400 0.208900
vn 0.033300 -0.977400 -0.208900
vn 0.238400 -0.970500 0.036200
vn -0.238400 0.970500 -0.036200
vn -0.247600 -0.898800 0.361900
vn -0.319700 -0.946300 -0.047800
vn 0.247600 0.898800 -0.361900
vn 0.319700 0.946300 0.047800
vn 0.472600 0.635300 -0.610700
vn -0.386000 0.743600 -0.545900
vn -0.472600 -0.635300 0.610700
vn 0.386000 -0.743600 0.545900
vn 0.424000 -0.446700 0.787800
vn 0.552800 -0.831600 -0.053800
vn -0.424000 0.446700 -0.787800
vn -0.552800 0.831600 0.053800
vn 0.556100 -0.829500 -0.052100
vn -0.556100 0.829500 0.052100
vn -0.780500 -0.469700 0.412600
vn 0.768800 0.447900 -0.456400
vn -0.107900 0.776100 0.621300
vn 0.685200 0.683500 0.251500
vn 0.107900 -0.776100 -0.621300
vn -0.685200 -0.683500 -0.251500
vn -0.666600 -0.701700 -0.251600
vn 0.666600 0.701700 0.251600
vn -0.371800 0.649000 0.663700
vn -0.526400 -0.581200 -0.620600
vn 0.457600 -0.694600 -0.555100
vn 0.756800 0.494900 -0.427000
vn -0.348800 -0.825600 -0.443500
usemtl NW_NATURE_PLANT_02
s off
f 9/1/1 85/2/1 10/3/1
f 84/4/2 9/1/2 78/5/2
f 87/6/3 78/7/3 86/8/3
f 10/3/4 78/5/4 9/1/4
f 79/9/5 85/2/5 9/1/5
f 11/10/6 87/6/6 86/8/6
f 84/4/7 79/9/7 9/1/7
f 79/11/8 87/6/8 11/10/8
f 79/12/9 11/13/9 85/14/9
f 85/14/10 11/13/10 86/15/10
f 85/14/11 86/15/11 10/16/11
f 10/17/12 86/8/12 78/7/12
f 87/6/13 84/18/13 78/7/13
f 79/11/8 84/18/8 87/6/8
usemtl NW_NATURE_BERRY_02
f 40/19/14 41/20/14 39/21/14
f 41/20/15 40/19/15 39/21/15
f 42/22/14 39/21/14 41/20/14
f 39/21/15 42/22/15 41/20/15
f 45/19/16 44/20/16 46/21/16
f 44/20/17 45/19/17 46/21/17
f 46/21/17 43/22/17 44/20/17
f 43/22/16 46/21/16 44/20/16
f 52/19/18 50/20/18 53/21/18
f 50/20/19 52/19/19 53/21/19
f 51/22/18 53/21/18 50/20/18
f 53/21/19 51/22/19 50/20/19
f 54/19/20 56/20/20 57/21/20
f 56/20/21 54/19/21 57/21/21
f 57/21/21 55/22/21 56/20/21
f 55/22/20 57/21/20 56/20/20
f 59/19/22 60/20/22 61/21/22
f 60/20/23 59/19/23 61/21/23
f 58/22/22 61/21/22 60/20/22
f 61/21/23 58/22/23 60/20/23
f 64/20/24 62/19/24 63/21/24
f 62/19/25 64/20/25 63/21/25
f 65/22/25 63/21/25 64/20/25
f 63/21/24 65/22/24 64/20/24
f 75/19/26 76/20/26 74/21/26
f 76/20/27 75/19/27 74/21/27
f 77/22/26 74/21/26 76/20/26
f 74/21/27 77/22/27 76/20/27
f 81/19/28 82/20/28 83/21/28
f 82/20/29 81/19/29 83/21/29
f 83/21/29 80/22/29 82/20/29
f 80/22/28 83/21/28 82/20/28
usemtl NW_NATURE_LEAVES_02
f 13/23/30 4/24/30 16/25/30
f 4/24/31 13/23/31 16/25/31
f 13/23/32 2/26/32 4/24/32
f 2/26/33 13/23/33 4/24/33
f 17/23/34 7/24/34 21/25/34
f 7/24/35 17/23/35 21/25/35
f 7/24/36 73/27/36 27/28/36
f 17/23/37 6/26/37 7/24/37
f 6/26/38 17/23/38 7/24/38
f 16/25/39 13/23/39 12/29/39
f 13/23/40 16/25/40 12/29/40
f 3/30/41 13/23/41 2/26/41
f 12/29/42 13/23/42 3/30/42
f 13/23/43 3/30/43 2/26/43
f 13/23/44 12/29/44 3/30/44
f 17/23/45 21/25/45 14/29/45
f 21/25/46 17/23/46 14/29/46
f 3/30/47 15/31/47 2/26/47
f 2/26/48 15/31/48 18/27/48
f 22/32/49 2/26/49 15/31/49
f 15/31/50 2/26/50 18/27/50
f 1/33/51 16/25/51 12/29/51
f 16/25/52 1/33/52 12/29/52
f 8/30/53 17/23/53 6/26/53
f 17/23/54 8/30/54 6/26/54
f 17/23/55 14/29/55 8/30/55
f 14/29/56 17/23/56 8/30/56
f 18/27/57 2/26/57 4/24/57
f 18/27/58 4/24/58 19/28/58
f 2/26/59 18/27/59 4/24/59
f 4/24/60 18/27/60 19/28/60
f 4/24/61 19/28/61 16/25/61
f 19/28/62 4/24/62 16/25/62
f 20/31/63 8/30/63 6/26/63
f 20/31/64 6/26/64 89/34/64
f 6/26/65 8/30/65 20/31/65
f 6/26/66 73/27/66 7/24/66
f 21/25/67 5/33/67 14/29/67
f 5/33/68 21/25/68 14/29/68
f 22/32/69 3/30/69 2/26/69
f 3/30/70 26/35/70 22/32/70
f 23/26/71 31/23/71 25/24/71
f 31/23/72 23/26/72 25/24/72
f 26/35/73 12/29/73 3/30/73
f 12/29/74 26/35/74 3/30/74
f 1/33/75 12/29/75 26/35/75
f 12/29/76 1/33/76 26/35/76
f 27/28/77 7/24/77 21/25/77
f 7/24/78 27/28/78 21/25/78
f 23/26/79 28/31/79 25/24/79
f 23/26/80 70/30/80 28/31/80
f 28/31/81 69/30/81 23/26/81
f 28/31/82 23/26/82 33/27/82
f 8/30/83 30/35/83 29/32/83
f 30/35/84 8/30/84 29/32/84
f 14/29/85 30/35/85 8/30/85
f 30/35/86 14/29/86 8/30/86
f 5/33/87 14/29/87 30/35/87
f 14/29/88 5/33/88 30/35/88
f 31/23/89 70/30/89 23/26/89
f 69/30/90 31/23/90 23/26/90
f 31/23/91 32/25/91 24/29/91
f 32/25/92 31/23/92 24/29/92
f 25/24/93 31/23/93 32/25/93
f 31/23/94 25/24/94 32/25/94
f 33/27/95 23/26/95 25/24/95
f 33/27/96 25/24/96 34/28/96
f 25/24/97 33/27/97 32/25/97
f 34/28/98 25/24/98 32/25/98
f 32/25/99 33/27/99 34/28/99
f 32/25/100 35/35/100 24/29/100
f 88/33/101 32/25/101 24/29/101
f 31/23/102 24/29/102 70/30/102
f 24/29/103 31/23/103 69/30/103
f 36/26/104 49/23/104 38/24/104
f 49/23/105 36/26/105 38/24/105
f 49/23/106 48/25/106 47/29/106
f 48/25/107 49/23/107 47/29/107
f 38/24/108 49/23/108 48/25/108
f 49/23/109 38/24/109 48/25/109
f 37/30/110 49/23/110 36/26/110
f 47/29/111 49/23/111 37/30/111
f 49/23/112 37/30/112 36/26/112
f 49/23/113 47/29/113 37/30/113
f 37/30/114 66/31/114 36/26/114
f 36/26/115 66/31/115 67/27/115
f 66/31/116 37/30/116 36/26/116
f 66/31/117 36/26/117 67/27/117
f 67/27/118 36/26/118 38/24/118
f 67/27/119 38/24/119 68/28/119
f 36/26/120 67/27/120 38/24/120
f 38/24/121 67/27/121 68/28/121
f 68/28/122 38/24/122 48/25/122
f 38/24/123 68/28/123 48/25/123
f 35/35/124 24/29/124 69/30/124
f 24/29/125 35/35/125 70/30/125
f 48/25/126 71/35/126 47/29/126
f 47/29/127 71/35/127 37/30/127
f 71/35/128 48/25/128 47/29/128
f 71/35/129 47/29/129 37/30/129
f 71/35/130 37/30/130 72/32/130
f 37/30/131 71/35/131 72/32/131
f 6/26/132 20/31/132 73/27/132
f 88/33/133 24/29/133 35/35/133
f 89/34/134 6/26/134 7/36/134
f 70/30/135 35/35/135 90/32/135
f 91/27/136 7/24/136 27/28/136
