# Blender v2.75 (sub 0) OBJ File: 'Empty.blend'
# www.blender.org
mtllib ITPL_TEMP_HERB.mtl
o ITPL_TEMP_HERB
v -0.387677 0.695542 0.277456
v -0.029354 -0.314888 -0.013517
v 0.402908 0.739148 -0.342816
v -0.361199 0.695541 -0.288563
v 0.290808 0.695542 0.227548
v 0.244029 -0.057678 -0.036904
v 0.244029 -0.727734 0.027615
v -0.276404 -0.057678 -0.036904
v -0.276404 -0.727734 0.027615
v -0.129798 -0.032219 -0.206237
v -0.167848 -0.482477 -0.178976
v 0.100840 -0.030168 0.169688
v 0.062790 -0.480427 0.196949
v 0.073968 -0.058792 -0.215364
v 0.020040 -0.729676 -0.224271
v -0.074449 -0.055736 0.156884
v -0.128378 -0.726621 0.147976
v 0.013422 -0.195784 -0.078030
v -0.013971 -0.370228 -0.067493
v -0.065952 -0.282886 0.069352
v -0.024278 -0.115331 -0.015655
v -0.092831 -0.351338 -0.023408
v 0.028296 -0.144075 -0.014937
v -0.005892 -0.400396 0.014033
v -0.050564 -0.148285 -0.060396
v 0.059072 -0.309188 -0.001070
v 0.013422 -0.174839 0.051952
v -0.099676 -0.185312 -0.013039
v 0.033969 -0.320966 0.047477
v -0.065952 -0.335489 -0.071492
v -0.050564 -0.139864 0.030522
v 0.033969 -0.358745 -0.040693
v -0.013971 -0.309482 0.074277
v -0.092831 -0.328372 0.030192
v -0.066544 -0.234537 -0.083332
v 0.060256 -0.218763 -0.010743
v -0.066544 -0.202989 0.061846
vt 1.232061 -0.004582
vt -0.117520 -0.020746
vt 0.508209 -1.232423
vt 1.232061 -0.024828
vt -0.117520 -0.000500
vt 0.516284 -1.232423
vt 1.213941 -0.008854
vt -0.091599 -0.004772
vt 0.507633 -1.238549
vt 1.254336 -0.004582
vt -0.095245 -0.000499
vt 0.497945 -1.232423
vt 0.000000 -0.325141
vt -0.061073 -0.684734
vt 0.061073 -0.684734
vt 0.333333 -0.325141
vt 0.272260 -0.684734
vt 0.394406 -0.684734
vt 0.666667 -0.325141
vt 0.727740 -0.684734
vt 0.833333 -0.405449
vt 0.500000 -0.405449
vt 0.605594 -0.684734
vt 0.833333 -0.608173
vt 0.938927 -0.684734
vt 0.500000 -0.933314
vt 0.500000 -0.202725
vt 0.833333 -0.202725
vt 0.166667 -0.405449
vt 0.500000 -0.608173
vt 0.666667 -0.000000
vt 0.166667 -0.202725
vt -0.166667 -0.202725
vt 1.000000 -0.325141
vt -0.000000 -0.000000
vt 0.333333 -0.000000
vt 0.166667 -0.608173
vt 0.000500 -0.000500
vt 0.000500 -0.999500
vt 0.999501 -0.999500
vt 0.999500 -0.000500
vn 0.617500 -0.007500 0.786500
vn -0.617500 0.007500 -0.786500
vn -0.620600 0.009600 0.784000
vn 0.620600 -0.009600 -0.784000
vn -0.998900 -0.042300 0.018100
vn 0.495300 0.043100 0.867600
vn 0.102600 -0.076000 -0.991800
vn 0.815600 -0.029500 -0.577800
vn -0.861900 -0.064000 -0.502900
vn -0.567000 -0.757200 0.324400
vn 0.334100 0.688900 -0.643300
vn 0.069400 0.149400 0.986300
vn -0.372900 -0.881600 -0.289300
vn 0.876600 -0.062500 -0.477100
vn 0.358500 0.638600 -0.681000
vn -0.903800 0.083600 0.419600
vn 0.832300 -0.509600 0.218300
vn 0.327500 -0.501500 0.800800
vn 0.305900 0.837300 0.453100
vn 0.829400 0.099800 0.549700
vn -0.643000 0.762600 -0.070600
vn -0.907500 -0.011200 -0.419900
vn 0.883800 0.038300 0.466300
vn 0.766400 -0.590500 0.253000
vn -0.001400 -0.116500 -0.993200
vn -0.455100 -0.738300 -0.497800
vn -0.737300 0.672700 -0.062300
vn 0.379900 0.709700 0.593300
vn 0.507500 -0.131100 -0.851600
vn 0.399800 -0.846000 -0.352700
vn -0.046600 0.093100 0.994600
vn -0.306100 -0.544600 0.780800
vn -0.846600 0.043600 0.530500
vn -0.330000 -0.496300 0.803000
vn -0.066100 0.267800 -0.961200
vn -0.768900 0.293500 -0.568000
vn 0.824400 0.326800 -0.462200
vn 0.848300 0.383500 0.365000
vn -0.788100 0.421900 0.448300
vn -0.049800 0.454000 0.889600
vn 0.000000 -0.095800 -0.995400
vn 0.000000 0.095800 0.995400
vn -0.848100 0.103100 0.519700
vn 0.848100 -0.103100 -0.519700
vn -0.925700 0.079300 -0.369700
vn 0.925700 -0.079300 0.369700
usemtl NW_NATURE_BRANCH_07
s off
f 3/1/1 1/2/1 2/3/1
f 1/4/2 3/5/2 2/6/2
f 5/7/3 4/8/3 2/9/3
f 4/10/4 5/11/4 2/12/4
usemtl NW_NATURE_ACKER_03
f 28/13/5 22/14/5 34/15/5
f 27/16/6 33/17/6 29/18/6
f 18/19/7 19/20/7 35/21/7
f 36/22/8 32/23/8 18/19/8
f 35/21/9 30/24/9 22/25/9
f 24/26/10 34/15/10 22/14/10
f 23/27/11 18/19/11 25/28/11
f 37/29/12 33/17/12 27/16/12
f 24/26/13 22/25/13 19/20/13
f 36/22/14 26/30/14 32/23/14
f 21/31/15 23/27/15 25/28/15
f 28/13/16 34/15/16 37/29/16
f 29/18/17 24/26/17 32/23/17
f 29/18/18 33/17/18 24/26/18
f 31/32/19 27/16/19 23/27/19
f 27/16/20 29/18/20 36/22/20
f 25/33/21 28/13/21 31/32/21
f 35/21/22 22/25/22 28/34/22
f 36/22/23 29/18/23 26/30/23
f 26/30/24 29/18/24 32/23/24
f 35/21/25 19/20/25 30/24/25
f 19/20/26 22/25/26 30/24/26
f 21/35/27 25/33/27 31/32/27
f 21/36/28 31/32/28 23/27/28
f 18/19/29 32/23/29 19/20/29
f 32/23/30 24/26/30 19/20/30
f 37/29/31 20/37/31 33/17/31
f 33/17/32 34/15/32 24/26/32
f 37/29/33 34/15/33 20/37/33
f 33/17/34 20/37/34 34/15/34
f 25/28/35 18/19/35 35/21/35
f 25/28/36 35/21/36 28/34/36
f 23/27/37 36/22/37 18/19/37
f 23/27/38 27/16/38 36/22/38
f 31/32/39 28/13/39 37/29/39
f 31/32/40 37/29/40 27/16/40
usemtl OW_NATURE_BUSH_01
f 9/38/41 8/39/41 6/40/41
f 8/39/42 9/38/42 6/40/42
f 6/40/41 7/41/41 9/38/41
f 7/41/42 6/40/42 9/38/42
f 13/38/43 12/39/43 10/40/43
f 12/39/44 13/38/44 10/40/44
f 10/40/43 11/41/43 13/38/43
f 11/41/44 10/40/44 13/38/44
f 17/38/45 16/39/45 14/40/45
f 16/39/46 17/38/46 14/40/46
f 14/40/45 15/41/45 17/38/45
f 15/41/46 14/40/46 17/38/46
