# Blender v2.75 (sub 0) OBJ File: 'Empty.blend'
# www.blender.org
mtllib ITPL_HEALTH_HERB_02.mtl
o ITPL_HEALTH_HERB_02
v -0.028233 0.489850 -0.007549
v -0.040500 0.001000 0.024249
v 0.000008 0.270115 -0.016585
v -0.044343 0.056643 0.036326
v 0.059915 0.097136 0.122714
v -0.031989 0.103279 0.144001
v -0.147774 0.128988 0.029158
v -0.147930 0.131902 -0.062503
v 0.013569 0.118840 -0.105879
v 0.093206 0.102757 -0.065403
v 0.076856 0.108430 -0.166178
v -0.229464 0.134135 -0.001405
v 0.068517 0.083650 0.200908
v 0.023744 0.257429 0.016411
v 0.094075 0.267787 -0.055256
v 0.107765 0.256499 0.009897
v 0.038439 0.296001 0.096729
v -0.020175 0.325153 0.099068
v -0.048780 0.345311 -0.015515
v -0.025613 0.330638 -0.074265
v -0.089663 0.362709 -0.060010
v 0.018404 0.300502 0.155662
v 0.054938 0.028205 0.276704
v 0.011633 0.086834 0.214755
v -0.044982 0.060788 -0.021558
v -0.315074 0.095271 -0.036813
v -0.230355 0.135486 -0.058464
v 0.140982 0.236676 -0.064307
v 0.135668 0.053810 -0.227494
v 0.126670 0.097880 -0.141694
v 0.000908 0.050394 -0.009478
v -0.040500 0.107000 -0.024249
v -0.040500 0.001000 -0.024249
v 0.173366 0.177195 -0.061677
v 0.149706 0.229092 -0.024055
v -0.012596 0.277266 0.018494
v -0.017964 0.277813 0.213213
v -0.018238 0.318276 0.157635
v -0.144468 0.351593 -0.105594
v -0.075860 0.353464 -0.096788
v -0.006878 0.271436 -0.015230
v 0.016026 0.271293 0.006832
v -0.009000 0.001000 0.000000
v -0.010696 0.270115 0.016361
v -0.007598 0.408965 0.008080
v -0.040500 0.107000 0.024249
v -0.009000 0.107000 0.000000
v -0.002352 0.408965 -0.008063
v 0.005052 0.412188 0.003266
vt 0.660935 -0.486962
vt 0.674184 -0.560100
vt 0.673608 -0.492488
vt 0.650730 -0.562231
vt 0.650173 -0.488729
vt 0.645378 -0.460442
vt 0.585936 -0.619058
vt 0.579137 -0.454077
vt 0.643270 -0.478158
vt 0.587722 -0.617379
vt 0.580798 -0.476390
vt 0.639819 -0.515910
vt 0.587063 -0.622985
vt 0.583299 -0.511892
vt 0.593646 -0.426841
vt 0.591009 -0.425787
vt 0.591106 -0.409476
vt 0.750647 -0.457793
vt 0.703794 -0.621250
vt 0.687250 -0.451103
vt 0.748348 -0.491713
vt 0.701422 -0.606980
vt 0.691493 -0.491217
vt 0.745880 -0.524778
vt 0.697801 -0.615501
vt 0.697175 -0.524171
vt 0.703447 -0.410596
vt 0.702019 -0.431354
vt 0.636010 -0.407298
vt 0.615059 -0.371109
vt 0.627364 -0.624762
vt 0.628346 -0.614529
vt 0.634080 -0.423375
vt 0.611948 -0.370286
vt 0.699281 -0.412741
vt 0.630534 -0.422866
vt 0.614157 -0.382082
vt 0.635728 -0.623107
vt 0.407583 -0.453821
vt 0.410895 -0.568585
vt 0.659691 -0.565497
vt 0.674184 -0.621815
vt 0.650730 -0.623946
vt 0.736849 -0.447400
vt 0.716422 -0.372760
vt 0.748673 -0.622767
vt 0.740496 -0.628813
vt 0.750412 -0.425076
vt 0.726703 -0.386815
vt 0.735605 -0.414582
vt 0.724624 -0.371084
vt 0.738587 -0.602171
vt 0.485918 -0.469793
vt 0.661399 -0.429177
vt 0.671331 -0.427342
vt 0.653813 -0.426000
vt 0.659691 -0.627212
vt 0.660133 -0.386070
vn 0.816500 -0.176900 -0.549600
vn -0.939300 0.156900 -0.305200
vn 0.012900 -0.944500 0.328200
vn -0.012900 0.944500 -0.328200
vn -0.571800 -0.820000 -0.025100
vn 0.571800 0.820000 0.025100
vn 0.092900 -0.849100 -0.520100
vn -0.092900 0.849100 0.520100
vn -0.185600 -0.982300 -0.025200
vn 0.185600 0.982300 0.025200
vn -0.051000 -0.998200 -0.031600
vn 0.051000 0.998200 0.031600
vn -0.102300 -0.982100 -0.158100
vn 0.102300 0.982100 0.158100
vn -0.095200 -0.984000 -0.150500
vn 0.095200 0.984000 0.150500
vn -0.381700 -0.804000 0.456000
vn 0.381700 0.804000 -0.456000
vn -0.823700 -0.533700 -0.191500
vn 0.823700 0.533700 0.191500
vn -0.437900 -0.897500 0.051500
vn 0.437900 0.897500 -0.051500
vn -0.446400 -0.890900 -0.083700
vn 0.446400 0.890900 0.083700
vn -0.096000 -0.981000 -0.168800
vn -0.189900 -0.775900 -0.601600
vn 0.096000 0.981000 0.168800
vn 0.189900 0.775900 0.601600
vn -0.553100 -0.831400 -0.053400
vn 0.553100 0.831400 0.053400
vn -0.242200 0.900100 -0.362100
vn 0.242200 -0.900100 0.362100
vn -0.044500 -0.998700 -0.023000
vn 0.422800 -0.905800 -0.028000
vn 0.044500 0.998700 0.023000
vn -0.422800 0.905800 0.028000
vn -0.556200 -0.830600 -0.027000
vn 0.556200 0.830600 0.027000
vn -0.196100 -0.980300 -0.023400
vn -0.371400 -0.841200 0.393100
vn 0.196100 0.980300 0.023400
vn 0.371400 0.841200 -0.393100
vn 0.010300 -0.738300 -0.674400
vn -0.010300 0.738300 0.674400
vn 0.203400 0.976800 0.067700
vn 0.608900 -0.059900 -0.791000
vn -0.970500 0.241000 0.000000
vn 0.610000 0.000000 -0.792400
vn -1.000000 0.000000 0.000000
vn -0.565200 -0.824300 -0.032800
vn -0.875700 -0.472300 0.100800
vn 0.565200 0.824300 0.032800
vn 0.875700 0.472300 -0.100800
vn -0.411600 -0.799900 0.436700
vn 0.411600 0.799900 -0.436700
vn 0.039100 0.927200 0.372600
vn -0.039100 -0.927200 -0.372600
vn -0.438600 -0.894100 -0.090500
vn -0.390500 -0.745200 -0.540600
vn 0.438600 0.894100 0.090500
vn 0.390500 0.745200 0.540600
vn -0.435800 -0.897900 0.062100
vn -0.004600 -0.970200 0.242100
vn 0.435800 0.897900 -0.062100
vn 0.004600 0.970200 -0.242100
vn -0.920100 -0.381100 -0.090100
vn 0.920100 0.381100 0.090100
vn 0.474800 0.877200 -0.071100
vn 0.338100 -0.090400 0.936800
vn 0.823200 0.049800 -0.565600
vn 0.608400 -0.072900 0.790300
vn -0.951100 0.002800 -0.309000
vn 0.333600 0.048700 0.941500
vn 0.343900 0.050500 0.937600
vn 0.610000 0.000000 0.792400
vn 0.829800 0.048200 -0.556000
vn -0.910400 -0.289400 -0.295800
vn 0.775700 0.251900 -0.578600
vn 0.287500 0.251900 0.924100
usemtl ORCHERB
s off
f 42/1/1 32/2/1 3/3/1
f 3/3/2 46/4/2 44/5/2
f 6/6/3 31/7/3 5/8/3
f 5/8/4 31/7/4 6/6/4
f 8/9/5 4/10/5 7/11/5
f 7/11/6 4/10/6 8/9/6
f 10/12/7 25/13/7 9/14/7
f 9/14/8 25/13/8 10/12/8
f 10/12/9 9/14/9 11/15/9
f 9/14/10 10/12/10 11/15/10
f 8/9/11 7/11/11 12/16/11
f 7/11/12 8/9/12 12/16/12
f 6/6/13 5/8/13 13/17/13
f 5/8/14 6/6/14 13/17/14
f 16/18/15 41/19/15 15/20/15
f 15/20/16 41/19/16 16/18/16
f 18/21/17 14/22/17 17/23/17
f 17/23/18 14/22/18 18/21/18
f 20/24/19 36/25/19 19/26/19
f 19/26/20 36/25/20 20/24/20
f 20/24/21 19/26/21 21/27/21
f 19/26/22 20/24/22 21/27/22
f 18/21/23 17/23/23 22/28/23
f 17/23/24 18/21/24 22/28/24
f 24/29/25 6/6/25 13/17/25
f 13/17/26 23/30/26 24/29/26
f 24/29/27 13/17/27 6/6/27
f 24/29/28 23/30/28 13/17/28
f 25/31/29 4/10/29 8/9/29
f 8/9/30 4/10/30 25/31/30
f 6/6/31 31/7/31 4/32/31
f 4/32/32 31/7/32 6/6/32
f 27/33/33 8/9/33 12/16/33
f 12/16/34 26/34/34 27/33/34
f 27/33/35 12/16/35 8/9/35
f 27/33/36 26/34/36 12/16/36
f 16/18/37 15/20/37 28/35/37
f 15/20/38 16/18/38 28/35/38
f 30/36/39 10/12/39 11/15/39
f 11/15/40 29/37/40 30/36/40
f 30/36/41 11/15/41 10/12/41
f 30/36/42 29/37/42 11/15/42
f 31/38/43 25/13/43 10/12/43
f 10/12/44 25/13/44 31/38/44
f 25/39/45 4/40/45 31/7/45
f 42/1/46 47/41/46 32/2/46
f 3/3/47 32/2/47 46/4/47
f 47/41/48 33/42/48 32/2/48
f 32/2/49 33/42/49 2/43/49
f 35/44/50 16/18/50 28/35/50
f 28/35/51 34/45/51 35/44/51
f 35/44/52 28/35/52 16/18/52
f 35/44/53 34/45/53 28/35/53
f 36/46/54 14/22/54 18/21/54
f 18/21/55 14/22/55 36/46/55
f 16/18/56 41/19/56 14/47/56
f 14/47/57 41/19/57 16/18/57
f 38/48/58 18/21/58 22/28/58
f 22/28/59 37/49/59 38/48/59
f 38/48/60 22/28/60 18/21/60
f 38/48/61 37/49/61 22/28/61
f 40/50/62 20/24/62 21/27/62
f 21/27/63 39/51/63 40/50/63
f 40/50/64 21/27/64 20/24/64
f 40/50/65 39/51/65 21/27/65
f 41/52/66 36/25/66 20/24/66
f 20/24/67 36/25/67 41/52/67
f 36/46/68 14/22/68 41/53/68
f 44/5/69 47/41/69 42/1/69
f 49/54/70 42/1/70 3/3/70
f 44/5/71 46/4/71 47/41/71
f 48/55/72 3/3/72 44/5/72
f 45/56/73 44/5/73 42/1/73
f 48/55/72 44/5/72 45/56/72
f 45/56/74 42/1/74 49/54/74
f 32/2/49 2/43/49 46/4/49
f 46/4/75 2/43/75 43/57/75
f 47/41/48 43/57/48 33/42/48
f 46/4/75 43/57/75 47/41/75
f 49/54/76 3/3/76 48/55/76
f 1/58/77 48/55/77 45/56/77
f 1/58/78 49/54/78 48/55/78
f 1/58/79 45/56/79 49/54/79
