# Blender v2.75 (sub 0) OBJ File: 'Empty.blend'
# www.blender.org
mtllib ITPL_WEED.mtl
o ITPL_WEED
v -0.008524 -0.300542 0.035126
v 0.233600 0.221374 0.091254
v -0.252627 0.243898 -0.090377
v -0.037448 0.221374 0.231905
v -0.023678 -0.300542 0.005284
v 0.014631 0.221374 -0.194448
v -0.149790 -0.585771 0.282426
v -0.149790 -0.585771 -0.254947
v 0.315590 -0.585771 0.013739
v -0.017543 -0.147939 0.015030
vt 0.999500 -0.000500
vt 0.000500 -0.020746
vt 0.495963 -0.999500
vt 0.999500 -0.020746
vt 0.000500 -0.000500
vt 0.504037 -0.999500
vt 0.981380 -0.004772
vt 0.026420 -0.004772
vt 0.538865 -0.959732
vt 1.021775 -0.000500
vt 0.022775 -0.000499
vt 0.485698 -0.999500
vt 0.611617 -0.004766
vt 0.928385 -0.195732
vt 0.398185 -0.849872
vt 0.920312 -0.223350
vt 0.574012 0.004585
vt 0.408598 -0.827354
vt 0.880784 -0.247037
vt 0.622236 0.083591
vt 0.397159 -0.847021
vn 0.346800 -0.060200 -0.936000
vn -0.346800 0.060200 0.936000
vn 0.992300 -0.026400 0.121200
vn -0.992300 0.026400 -0.121200
vn 0.466900 0.357700 -0.808700
vn -0.957300 0.289100 0.000000
vn 0.467700 0.353500 0.810100
usemtl ITMISWAMPHERB_2
s off
f 3/1/1 2/2/1 1/3/1
f 2/4/2 3/5/2 1/6/2
f 6/7/3 4/8/3 5/9/3
f 4/10/4 6/11/4 5/12/4
usemtl ITMISWAMPHERB_1
f 9/13/5 8/14/5 10/15/5
f 8/16/6 7/17/6 10/18/6
f 7/19/7 9/20/7 10/21/7
