# Blender v2.75 (sub 0) OBJ File: 'Empty.blend'
# www.blender.org
mtllib ITPO_SPEED.mtl
o ITPO_SPEED
v -0.008758 0.199805 -0.020632
v 0.081963 -0.053684 -0.034791
v -0.057328 -0.079684 0.024334
v 0.009487 0.086809 -0.077264
v -0.061265 0.016563 0.081301
v -0.077264 0.086809 -0.009487
v 0.013489 0.128598 -0.017900
v -0.039776 0.016563 -0.093707
v 0.010851 -0.053684 -0.088377
v 0.101041 0.016563 0.012406
v 0.039776 0.016563 0.093707
v -0.007590 -0.079684 0.061814
v -0.017900 0.128598 -0.013489
v 0.017900 0.128598 0.013489
v -0.013489 0.128598 0.017900
v 0.026474 0.195559 0.003251
v -0.024552 0.195559 0.010422
v -0.101041 0.016563 -0.012406
v 0.061265 0.016563 -0.081301
v 0.010422 0.195559 0.024552
v -0.049738 -0.079684 -0.037480
v 0.030416 0.086809 0.071656
v 0.077264 0.086809 0.009487
v 0.061814 -0.079684 0.007590
v 0.071111 -0.053684 0.053586
v -0.046848 0.086809 0.062169
v 0.046848 0.086809 -0.062169
v -0.062169 0.086809 -0.046848
v 0.013489 0.199805 -0.017900
v 0.081301 0.016563 0.061265
v 0.037480 -0.079684 -0.049738
v 0.093707 0.016563 -0.039776
v 0.012406 0.016563 -0.101041
v -0.093707 0.016563 0.039776
v -0.081963 -0.053684 0.034791
v -0.012406 0.016563 0.101041
v -0.010851 -0.053684 0.088377
v -0.081301 0.016563 -0.061265
v -0.071111 -0.053684 -0.053586
v -0.088377 -0.053684 -0.010851
v 0.053586 -0.053684 -0.071111
v 0.088377 -0.053684 0.010851
v -0.034791 -0.053684 -0.081963
v 0.034791 -0.053684 0.081963
v -0.053586 -0.053684 0.071111
v -0.026474 0.195559 -0.003251
v -0.071656 0.086809 0.030416
v 0.071656 0.086809 -0.030416
v 0.062169 0.086809 0.046848
v -0.009487 0.086809 0.077264
v -0.030416 0.086809 -0.071656
v 0.024334 -0.079684 0.057328
v -0.024334 -0.079684 -0.057328
v -0.003251 0.195559 0.026474
v 0.020632 0.128598 -0.008758
v 0.008758 0.128598 0.020632
v -0.008758 0.128598 -0.020632
v -0.020632 0.128598 0.008758
v 0.008758 0.199805 0.020632
v -0.013489 0.199805 0.017900
v -0.061814 -0.079684 -0.007590
v 0.057328 -0.079684 -0.024334
v 0.049738 -0.079684 0.037480
v 0.007590 -0.079684 -0.061814
v -0.037480 -0.079684 0.049738
v -0.010422 0.195559 -0.024552
v 0.016052 0.195559 -0.021302
v 0.024552 0.195559 -0.010422
v -0.021302 0.195559 -0.016052
v -0.016052 0.195559 0.021302
v 0.021302 0.195559 0.016052
v 0.003251 0.195559 -0.026474
v 0.022247 0.199805 0.002732
v -0.022247 0.199805 -0.002732
v -0.022247 0.128598 -0.002732
v 0.022247 0.128598 0.002732
v 0.002732 0.128598 -0.022247
v -0.002732 0.128598 0.022247
v 0.008758 0.187551 0.020632
v 0.020632 0.187551 -0.008758
v 0.002732 0.187551 -0.022247
v -0.022247 0.187551 -0.002732
v -0.013489 0.187551 0.017900
v 0.022247 0.187551 0.002732
v -0.017900 0.187551 -0.013489
v 0.017900 0.187551 0.013489
v 0.013489 0.187551 -0.017900
v -0.008758 0.187551 -0.020632
v -0.002732 0.187551 0.022247
v -0.020632 0.187551 0.008758
v 0.020632 0.199805 -0.008758
v 0.017900 0.199805 0.013489
v -0.002732 0.199805 0.022247
v -0.017900 0.199805 -0.013489
v 0.002732 0.199805 -0.022247
v -0.020632 0.199805 0.008758
vt 0.583333 -0.999501
vt 0.416667 -0.999501
vt 0.750000 -0.999501
vt 0.725315 -0.411978
vt 0.669573 -0.411978
vt 0.669573 -0.276245
vt 0.781020 -0.276245
vt 0.836643 -0.276245
vt 0.836638 -0.411978
vt 0.725315 -0.276245
vt 0.781020 -0.547711
vt 0.781020 -0.411978
vt 0.669573 -0.547711
vt 0.725315 -0.547711
vt 0.781020 -0.195500
vt 0.725315 -0.195500
vt 0.250000 -0.999501
vt 0.083333 -0.999501
vt 0.080790 -0.196438
vt 0.110179 -0.196438
vt 0.110179 -0.029360
vt 0.080790 -0.029360
vt 0.168958 -0.196438
vt 0.139569 -0.196438
vt 0.139569 -0.029360
vt 0.198347 -0.196438
vt 0.198347 -0.029360
vt 0.051504 -0.029360
vt 0.051504 -0.196438
vt 0.168958 -0.029360
vt 0.183733 -0.068693
vt 0.096164 -0.071772
vt 0.142616 -0.146069
vt 0.836652 -0.547711
vt 0.097943 -0.122330
vt 0.669573 -0.195500
vt 0.836652 -0.597950
vt 0.781020 -0.597950
vt 0.669573 -0.597950
vt 0.725315 -0.597950
vt 0.185511 -0.119250
vt 0.227702 -0.029360
vt 0.139059 -0.044954
vt 0.836671 -0.195500
vt 0.166667 -0.999501
vt 0.916667 -0.999501
vt 0.833333 -0.999501
vt 0.139569 -0.000760
vt 0.168958 -0.000760
vt 0.168958 -0.012429
vt 0.227702 -0.196438
vt 0.139569 -0.012429
vt 0.110179 -0.000760
vt 0.198347 -0.000760
vt 0.227736 -0.000760
vt 0.227674 -0.012429
vt 0.198347 -0.012429
vt 0.500000 -0.999501
vt 0.333333 -0.999501
vt 0.666667 -0.999501
vt 1.000000 -0.999501
vt 0.110179 -0.012429
vt 0.051504 -0.012429
vt 0.080790 -0.012429
vt 0.080790 -0.000760
vt 0.051504 -0.000760
vt 0.117099 -0.140184
vt 0.090280 -0.097289
vt 0.114019 -0.052616
vt 0.191395 -0.093733
vt 0.167656 -0.138406
vt 0.164576 -0.050838
vn 0.000000 -1.000000 0.000000
vn 0.132200 0.312900 0.940600
vn 0.748500 0.312900 -0.584800
vn -0.776200 -0.172800 0.606400
vn 0.137100 -0.172800 0.975400
vn -0.748500 0.312900 0.584800
vn -0.606400 -0.172800 -0.776200
vn 0.484800 0.788300 -0.378800
vn -0.378800 0.788300 -0.484800
vn -0.584800 0.312900 -0.748500
vn 0.355800 0.312900 -0.880600
vn 0.369000 -0.172800 -0.913200
vn 0.940600 0.312900 -0.132200
vn 0.606400 -0.172800 0.776200
vn 0.584800 0.312900 0.748500
vn -0.369000 -0.172800 0.913200
vn 0.230500 0.788300 -0.570500
vn 0.374600 0.000000 -0.927200
vn 0.927200 0.000000 0.374600
vn 0.139200 -0.000000 0.990300
vn -0.570500 0.788300 -0.230500
vn -0.927200 0.000000 -0.374600
vn 0.788000 0.000000 -0.615700
vn -0.374600 -0.000000 0.927200
vn 0.000000 1.000000 0.000000
vn -0.748400 0.312900 0.584800
vn 0.975400 -0.172800 -0.137100
vn 0.615700 -0.000000 0.788000
vn -0.913200 -0.172800 -0.369000
vn 0.085600 0.788300 0.609300
vn 0.570500 0.788300 0.230500
vn 0.378800 0.788300 0.484800
vn 0.558800 -0.705100 -0.436600
vn 0.913200 -0.172800 0.369000
vn 0.436600 -0.705100 0.558800
vn 0.657500 -0.705100 0.265600
vn -0.484800 0.788300 0.378800
vn -0.880600 0.312900 -0.355800
vn -0.139200 0.000000 -0.990300
vn 0.880600 0.312900 0.355800
vn 0.265600 -0.705100 -0.657500
vn 0.776200 -0.172800 -0.606400
vn -0.137100 -0.172800 -0.975400
vn -0.132200 0.312900 -0.940600
vn -0.975400 -0.172800 0.137100
vn -0.940600 0.312900 0.132200
vn -0.265600 -0.705100 0.657500
vn -0.657500 -0.705100 -0.265600
vn -0.355800 0.312900 0.880600
vn -0.436600 -0.705100 -0.558800
vn -0.702200 -0.705100 0.098700
vn 0.702200 -0.705100 -0.098700
vn -0.098700 -0.705100 -0.702200
vn 0.098700 -0.705100 0.702200
vn -0.558800 -0.705100 0.436600
vn -0.990300 -0.000000 0.139200
vn -0.609300 0.788300 0.085600
vn 0.609300 0.788300 -0.085600
vn -0.230500 0.788300 0.570500
vn -0.085600 0.788300 -0.609300
vn 0.100000 0.695800 0.711300
vn -0.615700 0.000000 -0.788000
vn -0.788000 -0.000000 0.615700
vn 0.442200 0.695800 0.566000
vn -0.566000 0.695800 0.442200
vn -0.269100 0.695800 0.665900
vn -0.100000 0.695800 -0.711300
vn -0.665900 0.695800 -0.269100
vn 0.566000 0.695800 -0.442200
vn 0.990300 0.000000 -0.139200
vn -0.442200 0.695800 -0.566000
vn 0.269100 0.695800 -0.665900
vn 0.665900 0.695800 0.269100
vn 0.711300 0.695800 -0.100000
vn -0.711300 0.695800 0.100000
vn 0.123800 -0.456900 0.880800
vn 0.547600 -0.456900 0.700900
vn 0.880800 -0.456900 -0.123800
vn 0.700900 -0.456900 -0.547600
vn 0.333200 -0.456900 -0.824700
vn -0.123800 -0.456900 -0.880800
vn -0.824700 -0.456900 -0.333200
vn -0.880800 -0.456900 0.123800
vn -0.700900 -0.456900 0.547600
vn -0.333200 -0.456900 0.824700
vn 0.824700 -0.456900 0.333200
vn -0.547600 -0.456900 -0.700900
usemtl IT_POTIONS_01
s off
f 31/1/1 24/2/1 53/3/1
f 36/4/2 11/5/2 22/6/2
f 27/7/3 48/8/3 32/9/3
f 22/6/2 50/10/2 36/4/2
f 45/11/4 5/12/4 34/9/4
f 44/13/5 11/5/5 36/4/5
f 34/9/6 5/12/6 26/7/6
f 39/14/7 38/4/7 8/5/7
f 48/8/8 27/7/8 7/15/8
f 51/6/9 28/10/9 13/16/9
f 28/10/10 51/6/10 8/5/10
f 19/12/11 33/4/11 4/10/11
f 9/14/12 33/4/12 19/12/12
f 8/5/7 43/13/7 39/14/7
f 10/12/13 32/9/13 48/8/13
f 11/5/14 44/13/14 25/14/14
f 25/14/14 30/4/14 11/5/14
f 11/5/15 30/4/15 49/10/15
f 24/2/1 52/17/1 65/18/1
f 5/12/16 45/11/16 37/14/16
f 77/16/17 7/15/17 27/7/17
f 7/19/18 77/20/18 81/21/18
f 14/20/19 76/19/19 84/22/19
f 78/23/20 56/24/20 79/25/20
f 75/15/21 13/16/21 28/10/21
f 13/23/22 75/26/22 82/27/22
f 87/22/23 80/28/23 55/29/23
f 89/30/24 83/27/24 15/26/24
f 74/31/25 59/32/25 29/33/25
f 82/27/22 85/30/22 13/23/22
f 8/5/10 38/4/10 28/10/10
f 26/7/26 47/8/26 34/9/26
f 19/12/12 41/11/12 9/14/12
f 2/34/27 32/9/27 10/12/27
f 86/21/28 79/25/28 56/24/28
f 59/32/25 73/35/25 29/33/25
f 24/2/1 65/18/1 53/3/1
f 38/4/29 39/14/29 40/11/29
f 50/10/30 22/6/30 56/36/30
f 49/10/15 22/6/15 11/5/15
f 76/15/31 14/16/31 49/10/31
f 22/6/32 49/10/32 14/16/32
f 62/37/33 31/38/33 41/11/33
f 30/4/34 25/14/34 42/11/34
f 52/39/35 63/40/35 25/14/35
f 42/11/36 25/14/36 63/40/36
f 47/8/37 26/7/37 15/15/37
f 56/36/30 78/16/30 50/10/30
f 27/7/17 4/10/17 77/16/17
f 4/10/11 27/7/11 19/12/11
f 28/10/21 6/7/21 75/15/21
f 6/7/38 28/10/38 38/4/38
f 1/41/25 74/31/25 29/33/25
f 88/25/39 81/21/39 77/20/39
f 42/11/34 10/12/34 30/4/34
f 30/4/40 10/12/40 23/7/40
f 31/38/41 64/40/41 9/14/41
f 9/14/41 41/11/41 31/38/41
f 41/11/42 19/12/42 32/9/42
f 32/9/3 19/12/3 27/7/3
f 43/13/43 8/5/43 33/4/43
f 33/4/44 8/5/44 51/6/44
f 35/34/45 34/9/45 18/12/45
f 18/12/46 34/9/46 47/8/46
f 37/14/47 45/11/47 65/38/47
f 21/40/48 61/38/48 40/11/48
f 37/14/16 36/4/16 5/12/16
f 5/12/49 36/4/49 50/10/49
f 65/38/47 12/40/47 37/14/47
f 25/14/35 44/13/35 52/39/35
f 40/11/29 18/12/29 38/4/29
f 38/4/38 18/12/38 6/7/38
f 39/14/50 43/13/50 53/39/50
f 40/11/48 39/14/48 21/40/48
f 35/34/51 40/11/51 61/38/51
f 18/12/45 40/11/45 35/34/45
f 41/11/33 2/34/33 62/37/33
f 32/9/42 2/34/42 41/11/42
f 2/34/52 42/11/52 24/38/52
f 10/12/27 42/11/27 2/34/27
f 43/13/53 9/14/53 64/40/53
f 33/4/43 9/14/43 43/13/43
f 44/13/54 37/14/54 12/40/54
f 36/4/5 37/14/5 44/13/5
f 45/11/55 35/34/55 3/37/55
f 34/9/4 35/34/4 45/11/4
f 90/42/56 82/27/56 75/26/56
f 74/31/25 60/43/25 59/32/25
f 6/7/57 47/8/57 58/44/57
f 47/8/46 6/7/46 18/12/46
f 23/7/58 48/8/58 55/44/58
f 48/8/13 23/7/13 10/12/13
f 49/10/31 23/7/31 76/15/31
f 23/7/40 49/10/40 30/4/40
f 26/7/59 50/10/59 78/16/59
f 50/10/49 26/7/49 5/12/49
f 4/10/60 51/6/60 57/36/60
f 51/6/44 4/10/44 33/4/44
f 52/17/1 12/45/1 65/18/1
f 12/40/54 52/39/54 44/13/54
f 61/46/1 21/47/1 53/3/1
f 53/39/50 21/40/50 39/14/50
f 59/48/61 93/49/61 54/50/61
f 79/25/20 89/30/20 78/23/20
f 7/15/8 55/44/8 48/8/8
f 55/29/23 7/19/23 87/22/23
f 14/16/32 56/36/32 22/6/32
f 56/24/28 14/20/28 86/21/28
f 13/16/9 57/36/9 51/6/9
f 57/24/62 13/23/62 85/30/62
f 15/15/37 58/44/37 47/8/37
f 58/51/63 15/26/63 83/27/63
f 54/50/61 20/52/61 59/48/61
f 92/53/64 59/48/64 20/52/64
f 60/54/65 96/55/65 17/56/65
f 70/57/66 54/50/66 93/49/66
f 65/18/1 61/46/1 53/3/1
f 61/38/51 3/37/51 35/34/51
f 31/1/1 62/58/1 24/2/1
f 24/38/52 62/37/52 2/34/52
f 24/2/1 63/59/1 52/17/1
f 63/40/36 24/38/36 42/11/36
f 64/60/1 31/1/1 53/3/1
f 64/40/53 53/39/53 43/13/53
f 65/18/1 3/61/1 61/46/1
f 3/37/55 65/38/55 45/11/55
f 72/62/67 66/52/67 1/48/67
f 74/54/68 94/49/68 69/50/68
f 68/63/69 67/64/69 29/65/69
f 1/48/67 95/53/67 72/62/67
f 29/65/69 91/66/69 68/63/69
f 80/28/70 84/22/70 76/19/70
f 66/52/71 69/50/71 94/49/71
f 85/30/62 88/25/62 57/24/62
f 17/56/65 70/57/65 60/54/65
f 83/27/63 90/42/63 58/51/63
f 20/52/64 71/62/64 92/53/64
f 84/22/19 86/21/19 14/20/19
f 67/64/72 72/62/72 95/53/72
f 81/21/18 87/22/18 7/19/18
f 71/62/73 16/64/73 73/65/73
f 16/64/74 68/63/74 91/66/74
f 69/50/68 46/57/68 74/54/68
f 46/57/75 17/56/75 96/55/75
f 58/44/57 75/15/57 6/7/57
f 75/26/56 58/51/56 90/42/56
f 55/44/58 76/15/58 23/7/58
f 76/19/70 55/29/70 80/28/70
f 57/36/60 77/16/60 4/10/60
f 77/20/39 57/24/39 88/25/39
f 78/16/59 15/15/59 26/7/59
f 15/26/24 78/23/24 89/30/24
f 79/25/76 20/52/76 54/50/76
f 20/52/77 79/25/77 86/21/77
f 80/28/78 68/63/78 16/64/78
f 68/63/79 80/28/79 87/22/79
f 81/21/80 72/62/80 67/64/80
f 72/62/81 81/21/81 88/25/81
f 82/27/82 46/57/82 69/50/82
f 46/57/83 82/27/83 90/42/83
f 83/27/84 70/57/84 17/56/84
f 70/57/85 83/27/85 89/30/85
f 84/22/86 16/64/86 71/62/86
f 16/64/78 84/22/78 80/28/78
f 85/30/87 69/50/87 66/52/87
f 69/50/82 85/30/82 82/27/82
f 86/21/77 71/62/77 20/52/77
f 71/62/86 86/21/86 84/22/86
f 87/22/79 67/64/79 68/63/79
f 67/64/80 87/22/80 81/21/80
f 66/52/87 88/25/87 85/30/87
f 88/25/81 66/52/81 72/62/81
f 89/30/85 54/50/85 70/57/85
f 54/50/76 89/30/76 79/25/76
f 90/42/83 17/56/83 46/57/83
f 17/56/84 90/42/84 83/27/84
f 73/35/25 91/67/25 29/33/25
f 91/66/74 73/65/74 16/64/74
f 59/32/25 92/68/25 73/35/25
f 73/65/73 92/53/73 71/62/73
f 60/43/25 93/69/25 59/32/25
f 93/49/66 60/54/66 70/57/66
f 1/41/25 94/70/25 74/31/25
f 94/49/71 1/48/71 66/52/71
f 95/71/25 1/41/25 29/33/25
f 95/53/72 29/65/72 67/64/72
f 74/31/25 96/72/25 60/43/25
f 96/55/75 74/54/75 46/57/75
