# Blender v2.75 (sub 0) OBJ File: 'Empty.blend'
# www.blender.org
mtllib ITPO_HEALTH_03.mtl
o ITPO_HEALTH_03
v -0.003918 0.192405 0.031910
v 0.090362 -0.091094 -0.119915
v -0.149031 -0.091094 -0.018299
v 0.119915 -0.091094 0.090362
v 0.019348 0.192405 -0.025676
v -0.018299 -0.091094 0.149031
v -0.025676 0.192405 -0.019348
v -0.058668 -0.091094 -0.138214
v -0.058298 -0.143189 0.077365
v -0.028239 0.096901 -0.003467
v 0.058298 -0.143189 -0.077365
v -0.037850 -0.143189 -0.089170
v 0.031910 0.192405 0.003918
v 0.022722 0.096901 0.017122
v 0.017122 0.096901 -0.022722
v 0.149031 -0.091094 0.018299
v 0.096149 -0.143189 0.011806
v 0.037851 -0.143189 0.089170
v -0.003467 0.096901 0.028239
v -0.090363 -0.091094 0.119915
v -0.029594 0.192405 0.012562
v -0.011117 0.096901 -0.026189
v -0.089170 -0.143189 0.037850
v -0.077365 -0.143189 -0.058298
v -0.089170 -0.124309 0.037850
v 0.037851 -0.124309 0.089170
v -0.011806 -0.124309 0.096149
v 0.058298 -0.124309 -0.077365
v -0.037850 -0.124309 -0.089170
v 0.096149 -0.124309 0.011806
v -0.119915 -0.091094 -0.090363
v -0.138214 -0.091094 0.058668
v 0.138214 -0.091094 -0.058668
v 0.018299 -0.091094 -0.149031
v 0.058668 -0.091094 0.138214
v -0.096149 -0.124309 -0.011806
v -0.096149 -0.143189 -0.011806
v -0.077365 -0.124309 -0.058298
v 0.077365 -0.124309 0.058298
v 0.077365 -0.143189 0.058298
v -0.011806 -0.143189 0.096149
v 0.011806 -0.124309 -0.096149
v 0.089170 -0.124309 -0.037851
v -0.058298 -0.124309 0.077365
v 0.089170 -0.143189 -0.037851
v 0.011806 -0.143189 -0.096149
v 0.058668 -0.061289 0.138214
v -0.090363 -0.061289 0.119915
v 0.018299 -0.061289 -0.149031
v 0.138214 -0.061289 -0.058668
v -0.119915 -0.061289 -0.090363
v 0.090362 -0.061289 -0.119915
v 0.149031 -0.061289 0.018299
v -0.018299 -0.061289 0.149031
v -0.138214 -0.061289 0.058668
v -0.058668 -0.061289 -0.138214
v -0.149031 -0.061289 -0.018299
v 0.119915 -0.061289 0.090362
v 0.058044 -0.011630 -0.077027
v -0.037685 -0.011630 -0.088781
v -0.011754 -0.011630 0.095729
v 0.003918 0.192405 -0.031910
v 0.025676 0.192405 0.019348
v -0.088781 -0.011630 0.037685
v -0.026189 0.096901 0.011117
v 0.095729 -0.011630 0.011754
v 0.028239 0.096901 0.003467
v -0.000000 0.199806 0.000000
v 0.037685 -0.011630 0.088781
v -0.077027 -0.011630 -0.058044
v -0.058044 -0.011630 0.077027
v -0.095729 -0.011630 -0.011754
v 0.077027 -0.011630 0.058044
v 0.011754 -0.011630 -0.095729
v 0.088781 -0.011630 -0.037685
v -0.012562 0.192405 -0.029594
v -0.031910 0.192405 -0.003918
v -0.019348 0.192405 0.025676
v 0.012562 0.192405 0.029594
v 0.029594 0.192405 -0.012562
v 0.003467 0.096901 -0.028239
v 0.011117 0.096901 0.026189
v -0.017122 0.096901 0.022722
v -0.022722 0.096901 -0.017122
v 0.026189 0.096901 -0.011117
v -0.026189 0.178497 0.011117
v -0.022722 0.178497 -0.017122
v 0.022722 0.178497 0.017122
v -0.003467 0.178497 0.028239
v 0.017122 0.178497 -0.022722
v 0.026189 0.178497 -0.011117
v -0.011117 0.178497 -0.026189
v -0.028239 0.178497 -0.003467
v -0.017122 0.178497 0.022722
v 0.028239 0.178497 0.003467
v 0.011117 0.178497 0.026189
v 0.003467 0.178497 -0.028239
vt 0.220609 -0.379353
vt 0.146878 -0.379353
vt 0.146878 -0.197037
vt 0.000721 -0.379353
vt 0.072968 -0.379353
vt 0.072968 -0.197037
vt 0.146878 -0.566002
vt 0.220609 -0.566002
vt 0.220609 -0.510984
vt 0.000721 -0.197037
vt -0.166667 -0.999501
vt 0.166667 -0.999501
vt -0.000000 -0.999501
vt 0.169330 -0.027981
vt 0.138777 -0.027981
vt 0.138777 -0.193779
vt 0.139478 -0.095761
vt 0.114144 -0.053076
vt 0.096196 -0.071462
vt 0.000721 -0.566002
vt 0.072968 -0.510984
vt 0.000721 -0.510984
vt 0.072968 -0.566002
vt 0.146878 -0.510984
vt 0.230405 -0.027981
vt 0.199883 -0.027981
vt 0.199883 -0.193779
vt 0.220669 -0.197037
vt 0.500000 -0.999501
vt 0.333333 -0.999501
vt 0.833333 -0.999501
vt 0.096793 -0.121095
vt 0.115179 -0.139043
vt 0.169330 -0.193779
vt 0.047181 -0.027981
vt 0.077671 -0.027981
vt 0.077671 -0.193779
vt 0.108224 -0.193779
vt 0.108224 -0.027981
vt 0.047181 -0.193779
vt 0.416667 -0.999501
vt 0.138880 -0.046128
vt 0.083333 -0.999501
vt 0.666667 -0.999501
vt 0.146878 -0.597277
vt 0.220629 -0.597277
vt 0.072968 -0.597277
vt 0.000721 -0.597277
vt 1.000000 -0.999501
vt 0.916667 -0.999501
vt 0.250000 -0.999501
vt 0.583333 -0.999501
vt 0.750000 -0.999501
vt 0.000721 -0.461612
vt 0.072968 -0.461612
vt 0.146878 -0.461612
vt 0.220609 -0.461612
vt 0.140076 -0.145394
vt 0.164812 -0.138445
vt 0.089845 -0.096359
vt 0.182761 -0.120060
vt 0.189111 -0.095163
vt 0.182163 -0.070427
vt 0.163777 -0.052478
vt 0.230437 -0.000163
vt 0.199883 -0.000163
vt 0.169330 -0.000163
vt 0.108224 -0.000163
vt 0.077671 -0.000163
vt 0.138777 -0.000163
vt 0.047181 -0.000163
vn -0.674200 0.517700 0.526700
vn -0.526700 0.517700 -0.674200
vn 0.674200 0.517700 -0.526700
vn -0.537000 -0.840200 0.075500
vn 0.320500 0.517700 -0.793200
vn 0.119100 0.517700 0.847200
vn 0.000000 -1.000000 0.000000
vn -0.615700 0.000000 -0.788000
vn 0.032300 0.972800 0.229600
vn -0.333900 -0.840200 -0.427300
vn 0.075500 -0.840200 0.537000
vn -0.427300 -0.840200 0.333900
vn -0.990300 -0.000000 0.139200
vn 0.203100 -0.840200 -0.502800
vn 0.427300 -0.840200 -0.333900
vn 0.229600 0.972800 -0.032300
vn 0.847200 0.517700 -0.119100
vn 0.139200 -0.000000 0.990300
vn 0.990300 -0.000000 -0.139200
vn 0.374600 0.000000 -0.927200
vn 0.502800 -0.840200 0.203100
vn 0.793200 0.517700 0.320500
vn -0.788000 -0.000000 0.615700
vn -0.203100 -0.840200 0.502800
vn -0.320500 0.517700 0.793200
vn -0.374600 -0.000000 0.927200
vn -0.086800 0.972800 0.214900
vn -0.502800 -0.840200 -0.203100
vn 0.927200 0.000000 0.374600
vn 0.788000 0.000000 -0.615700
vn -0.793200 0.517700 -0.320500
vn -0.847200 0.517700 0.119100
vn 0.537000 -0.840200 -0.075500
vn -0.075500 -0.840200 -0.537000
vn -0.119100 0.517700 -0.847200
vn 0.333900 -0.840200 0.427300
vn 0.526700 0.517700 0.674200
vn -0.927200 0.000000 -0.374600
vn 0.615700 0.000000 0.788000
vn -0.139200 0.000000 -0.990300
vn 0.544900 0.722300 -0.425700
vn 0.259100 0.722300 -0.641200
vn -0.425700 0.722300 -0.544900
vn -0.096200 0.722300 -0.684800
vn -0.259100 0.722300 0.641200
vn 0.096200 0.722300 0.684800
vn 0.086800 0.972800 -0.214900
vn 0.214900 0.972800 0.086800
vn -0.684800 0.722300 0.096200
vn -0.544900 0.722300 0.425700
vn 0.641200 0.722300 0.259100
vn 0.684800 0.722300 -0.096200
vn -0.142700 0.972800 -0.182700
vn -0.229600 0.972800 0.032300
vn 0.425700 0.722300 0.544900
vn -0.641200 0.722300 -0.259100
vn -0.032300 0.972800 -0.229600
vn -0.214900 0.972800 -0.086800
vn -0.182700 0.972800 0.142700
vn 0.142700 0.972800 0.182700
vn 0.182700 0.972800 -0.142700
vn -0.959100 -0.248800 0.134800
vn -0.763200 -0.248800 0.596300
vn -0.596300 -0.248800 -0.763200
vn -0.898000 -0.248800 -0.362800
vn 0.596300 -0.248800 0.763200
vn 0.898000 -0.248800 0.362800
vn -0.362800 -0.248800 0.898000
vn 0.134800 -0.248800 0.959100
vn 0.763200 -0.248800 -0.596300
vn 0.362800 -0.248800 -0.898000
vn 0.959100 -0.248800 -0.134800
vn -0.134800 -0.248800 -0.959100
usemtl IT_POTIONS_01
s off
f 64/1/1 71/2/1 83/3/1
f 60/4/2 70/5/2 84/6/2
f 75/1/3 59/2/3 15/3/3
f 36/7/4 25/8/4 32/9/4
f 59/2/5 81/6/5 15/3/5
f 61/5/6 82/10/6 19/6/6
f 61/5/6 69/4/6 82/10/6
f 24/11/7 41/12/7 23/13/7
f 87/14/8 92/15/8 22/16/8
f 68/17/9 1/18/9 79/19/9
f 29/20/10 31/21/10 8/22/10
f 59/2/5 74/5/5 81/6/5
f 27/23/11 35/22/11 6/21/11
f 25/8/12 20/24/12 32/9/12
f 86/25/13 93/26/13 10/27/13
f 64/1/1 83/3/1 65/28/1
f 28/7/14 34/21/14 2/24/14
f 43/8/15 2/24/15 33/9/15
f 28/7/14 42/23/14 34/21/14
f 45/29/7 40/30/7 24/31/7
f 68/17/16 13/32/16 80/33/16
f 66/2/17 85/28/17 67/3/17
f 19/34/18 82/16/18 96/15/18
f 91/35/19 95/36/19 67/37/19
f 15/37/20 81/38/20 97/39/20
f 67/37/19 85/40/19 91/35/19
f 39/23/21 30/7/21 16/24/21
f 73/5/22 66/2/22 67/3/22
f 40/30/7 45/29/7 17/41/7
f 43/8/15 28/7/15 2/24/15
f 39/23/21 16/24/21 4/21/21
f 27/23/11 26/20/11 35/22/11
f 96/15/18 89/14/18 19/34/18
f 65/28/23 83/27/23 94/26/23
f 44/7/24 6/21/24 20/24/24
f 71/2/25 61/5/25 19/6/25
f 89/14/26 94/26/26 83/27/26
f 68/17/27 78/42/27 1/18/27
f 60/4/2 84/6/2 22/10/2
f 22/16/8 84/34/8 87/14/8
f 23/13/7 41/12/7 9/43/7
f 44/7/24 27/23/24 6/21/24
f 45/29/7 24/31/7 46/44/7
f 38/23/28 36/7/28 3/24/28
f 37/45/13 23/46/13 25/8/13
f 23/46/23 9/45/23 44/7/23
f 41/47/18 26/20/18 27/23/18
f 40/47/29 30/7/29 39/23/29
f 9/45/26 27/23/26 44/7/26
f 9/45/26 41/47/26 27/23/26
f 45/46/30 28/7/30 43/8/30
f 11/45/20 42/23/20 28/7/20
f 11/45/20 46/47/20 42/23/20
f 12/48/8 24/47/8 38/23/8
f 40/47/29 17/45/29 30/7/29
f 17/45/19 45/46/19 43/8/19
f 38/23/28 3/24/28 31/21/28
f 70/5/31 72/2/31 10/3/31
f 36/7/4 32/9/4 3/24/4
f 72/2/32 64/1/32 65/28/32
f 30/7/33 33/9/33 16/24/33
f 66/2/17 75/1/17 85/28/17
f 42/23/34 8/22/34 34/21/34
f 74/5/35 60/4/35 22/10/35
f 26/20/36 4/21/36 35/22/36
f 69/4/37 73/5/37 14/6/37
f 24/47/38 36/7/38 38/23/38
f 37/45/13 25/8/13 36/7/13
f 24/31/7 23/49/7 37/50/7
f 24/47/38 37/45/38 36/7/38
f 12/48/8 38/23/8 29/20/8
f 29/20/10 38/23/10 31/21/10
f 18/48/39 39/23/39 26/20/39
f 26/20/36 39/23/36 4/21/36
f 40/30/7 41/12/7 24/11/7
f 18/48/39 40/47/39 39/23/39
f 18/51/7 41/12/7 40/30/7
f 41/47/18 18/48/18 26/20/18
f 46/47/40 29/20/40 42/23/40
f 42/23/34 29/20/34 8/22/34
f 17/45/19 43/8/19 30/7/19
f 30/7/33 43/8/33 33/9/33
f 23/46/23 44/7/23 25/8/23
f 25/8/12 44/7/12 20/24/12
f 45/29/7 46/44/7 11/52/7
f 45/46/30 11/45/30 28/7/30
f 46/44/7 24/31/7 12/53/7
f 46/47/40 12/48/40 29/20/40
f 6/21/18 35/22/18 47/54/18
f 35/22/39 58/55/39 47/54/39
f 32/9/23 20/24/23 48/56/23
f 20/24/26 54/55/26 48/56/26
f 2/24/20 34/21/20 49/55/20
f 34/21/40 56/54/40 49/55/40
f 16/24/19 33/9/19 50/57/19
f 33/9/30 52/56/30 50/57/30
f 8/22/8 31/21/8 51/55/8
f 31/21/38 57/56/38 51/55/38
f 33/9/30 2/24/30 52/56/30
f 2/24/20 49/55/20 52/56/20
f 4/21/29 16/24/29 53/56/29
f 16/24/19 50/57/19 53/56/19
f 20/24/26 6/21/26 54/55/26
f 6/21/18 47/54/18 54/55/18
f 3/24/13 32/9/13 55/57/13
f 32/9/23 48/56/23 55/57/23
f 8/22/8 51/55/8 56/54/8
f 34/21/40 8/22/40 56/54/40
f 31/21/38 3/24/38 57/56/38
f 3/24/13 55/57/13 57/56/13
f 35/22/39 4/21/39 58/55/39
f 4/21/29 53/56/29 58/55/29
f 50/57/41 52/56/41 59/2/41
f 52/56/42 74/5/42 59/2/42
f 56/54/43 70/5/43 60/4/43
f 49/55/44 56/54/44 60/4/44
f 48/56/45 54/55/45 61/5/45
f 54/55/46 69/4/46 61/5/46
f 68/17/47 5/58/47 62/59/47
f 97/39/20 90/36/20 15/37/20
f 68/17/48 63/60/48 13/32/48
f 95/36/29 88/39/29 14/38/29
f 57/56/49 55/57/49 64/1/49
f 55/57/50 71/2/50 64/1/50
f 72/2/32 65/28/32 10/3/32
f 10/27/13 65/28/13 86/25/13
f 58/55/51 53/56/51 66/2/51
f 53/56/52 75/1/52 66/2/52
f 73/5/22 67/3/22 14/6/22
f 14/38/29 67/37/29 95/36/29
f 68/17/53 76/61/53 7/62/53
f 68/17/54 77/63/54 21/64/54
f 54/55/46 47/54/46 69/4/46
f 47/54/55 73/5/55 69/4/55
f 56/54/43 51/55/43 70/5/43
f 51/55/56 72/2/56 70/5/56
f 55/57/50 48/56/50 71/2/50
f 48/56/45 61/5/45 71/2/45
f 51/55/56 57/56/56 72/2/56
f 57/56/49 64/1/49 72/2/49
f 47/54/55 58/55/55 73/5/55
f 58/55/51 66/2/51 73/5/51
f 52/56/42 49/55/42 74/5/42
f 49/55/44 60/4/44 74/5/44
f 53/56/52 50/57/52 75/1/52
f 50/57/41 59/2/41 75/1/41
f 68/17/57 62/59/57 76/61/57
f 92/15/40 97/39/40 81/38/40
f 68/17/58 7/62/58 77/63/58
f 93/26/38 87/14/38 84/34/38
f 68/17/59 21/64/59 78/42/59
f 94/26/23 86/25/23 65/28/23
f 68/17/60 79/19/60 63/60/60
f 88/39/39 96/15/39 82/16/39
f 68/17/61 80/33/61 5/58/61
f 90/36/30 91/35/30 85/40/30
f 74/5/35 22/10/35 81/6/35
f 81/38/40 22/16/40 92/15/40
f 69/4/37 14/6/37 82/10/37
f 82/16/39 14/38/39 88/39/39
f 71/2/25 19/6/25 83/3/25
f 83/27/26 19/34/26 89/14/26
f 70/5/31 10/3/31 84/6/31
f 84/34/38 10/27/38 93/26/38
f 75/1/3 15/3/3 85/28/3
f 85/40/30 15/37/30 90/36/30
f 93/26/62 86/25/62 21/65/62
f 78/66/63 21/65/63 86/25/63
f 92/15/64 87/14/64 7/67/64
f 77/66/65 7/67/65 87/14/65
f 96/15/66 88/39/66 63/68/66
f 13/69/67 63/68/67 88/39/67
f 94/26/68 89/14/68 1/67/68
f 79/70/69 1/67/69 89/14/69
f 91/35/70 90/36/70 5/69/70
f 62/68/71 5/69/71 90/36/71
f 95/36/72 91/35/72 80/71/72
f 5/69/70 80/71/70 91/35/70
f 7/67/64 76/70/64 92/15/64
f 97/39/73 92/15/73 76/70/73
f 87/14/65 93/26/65 77/66/65
f 21/65/62 77/66/62 93/26/62
f 86/25/63 94/26/63 78/66/63
f 1/67/68 78/66/68 94/26/68
f 88/39/67 95/36/67 13/69/67
f 80/71/72 13/69/72 95/36/72
f 89/14/69 96/15/69 79/70/69
f 63/68/66 79/70/66 96/15/66
f 90/36/71 97/39/71 62/68/71
f 76/70/73 62/68/73 97/39/73
