# Blender v2.75 (sub 0) OBJ File: 'Empty.blend'
# www.blender.org
mtllib ITRU_BELIAR03.mtl
o ITRU_BELIAR03
v 0.090045 -0.000000 -0.090045
v -0.090045 -0.000000 0.090045
v 0.090045 0.090000 0.090045
v 0.090045 -0.000000 0.090045
v -0.090045 -0.000000 -0.090045
v -0.090045 0.090000 0.090045
v 0.090045 0.090000 -0.090045
v -0.090045 0.090000 -0.090045
v 0.135000 0.045000 0.000000
v -0.000000 0.045000 0.135000
v -0.135000 0.045000 0.000000
v -0.000000 0.045000 -0.135000
vt 0.250936 -0.248706
vt 0.375548 -0.373607
vt 0.375548 -0.248706
vt 0.250936 -0.373607
vt 0.876668 -0.248778
vt 0.812113 -0.312357
vt 0.876668 -0.373901
vt 0.751425 -0.373901
vt 0.751425 -0.248778
vn 0.000000 1.000000 0.000000
vn 0.000000 -1.000000 0.000000
vn 0.446700 0.000000 0.894700
vn 0.707500 -0.706800 0.000000
vn -0.894700 0.000000 0.446700
vn 0.000000 -0.706800 0.707500
vn 0.894700 0.000000 -0.446700
vn 0.446700 0.000000 -0.894700
vn 0.000000 -0.706800 -0.707500
vn -0.707500 -0.706800 0.000000
vn 0.707500 0.706800 0.000000
vn 0.894700 0.000000 0.446700
vn 0.000000 0.706800 0.707500
vn -0.446700 0.000000 0.894700
vn -0.707500 0.706800 0.000000
vn -0.894700 0.000000 -0.446700
vn -0.446700 0.000000 -0.894700
vn 0.000000 0.706800 -0.707500
usemtl ITARRUNE3
s off
f 8/1/1 3/2/1 7/3/1
f 1/3/2 4/2/2 2/4/2
f 3/5/3 10/6/3 4/7/3
f 9/6/4 4/8/4 1/7/4
f 1/3/2 2/4/2 5/1/2
f 8/1/1 6/4/1 3/2/1
f 6/5/5 11/6/5 2/7/5
f 10/6/6 2/8/6 4/7/6
f 7/5/7 9/6/7 1/7/7
f 7/9/8 1/8/8 12/6/8
f 12/6/9 1/8/9 5/7/9
f 11/6/10 5/8/10 2/7/10
f 3/9/11 9/6/11 7/5/11
f 3/9/12 4/8/12 9/6/12
f 6/9/13 10/6/13 3/5/13
f 6/9/14 2/8/14 10/6/14
f 8/9/15 11/6/15 6/5/15
f 8/9/16 5/8/16 11/6/16
f 8/5/17 12/6/17 5/7/17
f 7/9/18 12/6/18 8/5/18
