# Blender v2.75 (sub 0) OBJ File: 'Empty.blend'
# www.blender.org
mtllib ITRU_SLEEP.mtl
o ITRU_SLEEP
v 0.090045 -0.000000 -0.090045
v -0.090045 -0.000000 0.090045
v 0.090045 0.090000 0.090045
v 0.090045 -0.000000 0.090045
v -0.090045 -0.000000 -0.090045
v -0.090045 0.090000 0.090045
v 0.090045 0.090000 -0.090045
v -0.090045 0.090000 -0.090045
v 0.135000 0.045000 0.000000
v -0.000000 0.045000 0.135000
v -0.135000 0.045000 0.000000
v -0.000000 0.045000 -0.135000
vt 0.000172 -0.123436
vt 0.124784 -0.248337
vt 0.124784 -0.123436
vt 0.113591 -0.123547
vt 0.000172 -0.248337
vt 0.999882 -0.249184
vt 0.936829 -0.310004
vt 0.999882 -0.371547
vt 0.876142 -0.371547
vt 0.876142 -0.249184
vn 0.000000 1.000000 0.000000
vn 0.000000 -1.000000 0.000000
vn 0.446700 0.000000 0.894700
vn 0.707500 -0.706800 0.000000
vn -0.894700 0.000000 0.446700
vn 0.000000 -0.706800 0.707500
vn 0.894700 0.000000 -0.446700
vn 0.446700 0.000000 -0.894700
vn 0.000000 -0.706800 -0.707500
vn -0.707500 -0.706800 0.000000
vn 0.707500 0.706800 0.000000
vn 0.894700 0.000000 0.446700
vn 0.000000 0.706800 0.707500
vn -0.446700 0.000000 0.894700
vn -0.707500 0.706800 0.000000
vn -0.894700 0.000000 -0.446700
vn -0.446700 0.000000 -0.894700
vn 0.000000 0.706800 -0.707500
usemtl ITARRUNE1
s off
f 8/1/1 3/2/1 7/3/1
f 1/4/2 4/2/2 2/5/2
f 3/6/3 10/7/3 4/8/3
f 9/7/4 4/9/4 1/8/4
f 1/4/2 2/5/2 5/1/2
f 8/1/1 6/5/1 3/2/1
f 6/6/5 11/7/5 2/8/5
f 10/7/6 2/9/6 4/8/6
f 7/6/7 9/7/7 1/8/7
f 7/10/8 1/9/8 12/7/8
f 12/7/9 1/9/9 5/8/9
f 11/7/10 5/9/10 2/8/10
f 3/10/11 9/7/11 7/6/11
f 3/10/12 4/9/12 9/7/12
f 6/10/13 10/7/13 3/6/13
f 6/10/14 2/9/14 10/7/14
f 8/10/15 11/7/15 6/6/15
f 8/10/16 5/9/16 11/7/16
f 8/6/17 12/7/17 5/8/17
f 7/10/18 12/7/18 8/6/18
