# Blender v2.75 (sub 0) OBJ File: 'Empty.blend'
# www.blender.org
mtllib ITRW_BOLT.mtl
o ITRW_BOLT
v 0.072728 -0.003974 0.003967
v -0.179410 0.000000 -0.000155
v -0.034272 0.005564 -0.005719
v -0.034272 0.005564 0.005410
v 0.088645 -0.024196 -0.000112
v -0.020337 -0.024196 -0.000112
v -0.039657 -0.003390 -0.000149
v 0.088645 0.024196 -0.000112
v -0.020337 0.024196 -0.000112
v -0.039657 0.003390 -0.000149
v 0.069325 -0.003390 -0.000149
v 0.069325 0.003389 -0.000149
v -0.084272 0.000000 -0.008023
v -0.084272 0.000000 0.007714
v 0.072728 -0.003974 -0.004276
v -0.149272 -0.002693 0.002538
v -0.134272 -0.006397 -0.000155
v -0.034272 -0.005564 -0.005719
v -0.134272 0.000000 -0.006552
v -0.155717 0.000000 -0.007419
v 0.072728 0.003974 0.003967
v 0.072728 0.003974 -0.004276
v -0.149272 0.002693 0.002538
v -0.084272 -0.007869 -0.000154
v -0.034272 -0.005564 0.005410
v -0.084272 0.007869 -0.000154
v -0.134272 0.000000 0.006243
v -0.155717 -0.007264 -0.000155
v -0.134272 0.006397 -0.000155
v -0.149272 -0.002693 -0.002847
v -0.149272 0.002693 -0.002847
v -0.155717 -0.005137 0.004982
v -0.155717 0.005137 -0.005291
v -0.155717 0.005137 0.004982
v -0.155717 0.007264 -0.000155
v -0.155717 0.000000 0.007110
v -0.155717 -0.005137 -0.005291
v 0.072728 -0.000000 0.005674
v 0.072728 -0.000000 -0.005983
v 0.072728 -0.005621 -0.000154
v 0.072728 0.005621 -0.000154
v -0.149272 0.000000 -0.003963
v -0.149272 -0.003808 -0.000155
v -0.149272 0.000000 0.003653
v -0.149272 0.003808 -0.000155
v -0.134272 -0.004524 -0.004678
v -0.134272 0.004524 0.004369
v -0.134272 0.004524 -0.004678
v -0.134272 -0.004524 0.004369
v -0.034272 -0.007869 -0.000154
v 0.057758 -0.003974 -0.004276
v -0.034272 0.007869 -0.000154
v 0.057758 0.003974 0.003967
v -0.034272 0.000000 -0.008023
v 0.057758 0.003974 -0.004276
v -0.034272 -0.000000 0.007714
v 0.057758 -0.003974 0.003967
v -0.084272 0.005564 0.005410
v -0.084272 0.005564 -0.005719
v -0.084272 -0.005564 -0.005719
v -0.084272 -0.005564 0.005410
v 0.057758 0.005621 -0.000154
v 0.057758 -0.005621 -0.000154
v 0.057758 -0.000000 0.005674
v 0.057758 -0.000000 -0.005983
v 0.072728 -0.000000 -0.000154
vt 0.774242 -0.917986
vt 0.814244 -0.679392
vt 0.774355 -0.679392
vt 0.814179 -0.917986
vt 0.774582 -0.917986
vt 0.793942 -0.116471
vt 0.818056 -0.116471
vt 0.818050 0.007189
vt 0.793942 0.007189
vt 0.769682 0.007189
vt 0.769682 -0.116471
vt 0.697465 -0.866547
vt 0.756477 -0.866547
vt 0.739193 -0.906784
vt 0.697465 -0.923451
vt 0.739193 -0.826311
vt 0.655738 -0.906784
vt 0.638454 -0.866547
vt 0.697465 -0.809644
vt 0.793942 -0.007051
vt 0.769682 -0.007051
vt 0.774422 -0.998783
vt 0.814178 -0.998783
vt 0.818054 -0.007051
vt 0.774242 -0.998783
vt 0.655738 -0.826311
vt 0.813985 -0.000000
vt 1.039858 -1.000000
vt 0.000500 -0.000000
vt 0.248877 -1.000000
vt 0.792043 -0.635417
vt 0.759045 -0.635417
vt 0.774452 -0.548229
vt 0.746689 -0.745726
vt 0.782148 -0.675078
vt 0.746966 -0.672879
vt 0.812933 -0.548229
vn 0.022600 0.923600 -0.382600
vn 0.022000 -0.923700 -0.382600
vn 0.020500 0.382600 0.923700
vn 0.022000 0.923700 0.382600
vn -0.027200 0.382500 -0.923500
vn 0.021100 0.382600 -0.923700
vn -0.027200 0.382500 0.923500
vn 0.022600 -0.923600 0.382600
vn 0.021900 -0.928400 0.370800
vn 0.021900 0.928400 -0.370800
vn -0.027200 -0.382500 0.923500
vn -0.027200 -0.382500 -0.923500
vn -0.027200 -0.923500 -0.382500
vn -0.027200 -0.923500 0.382500
vn 0.020500 -0.382600 -0.923700
vn -0.027200 0.923500 -0.382500
vn 0.020400 -0.394600 0.918600
vn 1.000000 0.000000 0.000000
vn 0.020400 0.394600 -0.918600
vn 0.021100 -0.382600 0.923700
vn -0.027200 0.923500 0.382500
vn 0.021200 0.394600 0.918600
vn 0.021200 -0.394600 -0.918600
vn 0.022700 -0.928400 -0.370800
vn 0.022700 0.928400 0.370800
vn -0.000000 -0.923900 -0.382700
vn -0.000000 -0.923900 0.382700
vn 0.000000 -0.394700 -0.918800
vn 0.000000 -0.928700 -0.370900
vn 0.000000 0.923900 -0.382700
vn 0.000000 0.923900 0.382700
vn 0.000000 0.394700 0.918800
vn -0.000000 0.928700 0.370900
vn 0.000000 0.382700 -0.923900
vn 0.000000 -0.382700 -0.923900
vn -0.000000 0.928700 -0.370900
vn 0.000000 0.394700 -0.918800
vn -0.000000 -0.382700 0.923900
vn 0.000000 0.382700 0.923900
vn -0.000000 -0.928700 0.370900
vn -0.000000 -0.394700 0.918800
vn 0.000000 -0.001700 -1.000000
vn -0.000000 0.001700 1.000000
vn 0.000000 0.001700 -1.000000
vn -0.000000 -0.001700 1.000000
vn -0.157500 -0.377900 -0.912300
vn -0.272500 -0.888900 -0.368200
vn -0.272500 -0.368200 0.888900
vn -0.272500 0.888900 0.368200
vn -0.157500 0.377900 0.912300
vn -0.272500 -0.888900 0.368200
vn 0.443900 -0.827800 -0.342900
vn -0.157500 0.912300 -0.377900
vn 0.443900 -0.827800 0.342900
vn -0.157500 -0.912300 0.377900
vn 0.443900 -0.342900 -0.827800
vn -0.272500 0.368200 -0.888900
vn 0.443900 -0.342900 0.827800
vn 0.443900 0.827800 -0.342900
vn 0.443900 0.342900 -0.827800
vn 0.443900 0.342900 0.827800
vn 0.443900 0.827800 0.342900
vn -0.272500 0.888900 -0.368200
vn -0.272500 0.368200 0.888900
vn -0.272500 -0.368200 -0.888900
vn -0.157500 0.377900 -0.912300
vn -0.157500 -0.912300 -0.377900
vn -0.157500 -0.377900 0.912300
vn -0.157500 0.912300 0.377900
usemtl ITMELEEREST
s off
f 62/1/1 3/2/1 52/3/1
f 51/4/2 50/3/2 18/2/2
f 64/5/3 4/2/3 56/3/3
f 53/4/4 52/3/4 4/2/4
f 59/6/5 13/7/5 19/8/5
f 55/4/6 54/3/6 3/2/6
f 14/7/7 58/6/7 47/9/7
f 63/1/8 25/2/8 50/3/8
f 63/1/9 57/4/9 25/2/9
f 62/1/10 55/4/10 3/2/10
f 61/6/11 27/8/11 49/9/11
f 13/7/12 46/9/12 19/8/12
f 60/6/13 17/10/13 46/9/13
f 24/11/14 61/6/14 49/9/14
f 65/5/15 18/2/15 54/3/15
f 13/7/12 60/6/12 46/9/12
f 59/6/5 19/8/5 48/9/5
f 26/11/16 59/6/16 48/9/16
f 57/4/17 64/5/17 56/3/17
f 66/12/18 38/13/18 1/14/18
f 66/12/18 1/14/18 40/15/18
f 55/4/19 65/5/19 54/3/19
f 60/6/13 24/11/13 17/10/13
f 24/11/14 49/9/14 17/10/14
f 57/4/20 56/3/20 25/2/20
f 61/6/11 14/7/11 27/8/11
f 26/11/16 48/9/16 29/10/16
f 58/6/21 26/11/21 29/10/21
f 14/7/7 47/9/7 27/8/7
f 58/6/21 29/10/21 47/9/21
f 66/12/18 21/16/18 38/13/18
f 64/5/22 53/4/22 4/2/22
f 66/12/18 15/17/18 39/18/18
f 65/5/23 51/4/23 18/2/23
f 66/12/18 40/15/18 15/17/18
f 51/4/24 63/1/24 50/3/24
f 66/12/18 41/19/18 21/16/18
f 53/4/25 62/1/25 52/3/25
f 18/20/26 50/21/26 24/11/26
f 50/21/27 61/6/27 24/11/27
f 39/22/28 15/23/28 51/4/28
f 63/1/29 51/4/29 15/23/29
f 52/21/30 59/6/30 26/11/30
f 4/20/31 52/21/31 26/11/31
f 38/22/32 21/23/32 53/4/32
f 62/1/33 53/4/33 21/23/33
f 3/20/34 54/24/34 13/7/34
f 54/24/35 60/6/35 13/7/35
f 41/25/36 22/23/36 55/4/36
f 65/5/37 55/4/37 22/23/37
f 25/20/38 56/24/38 14/7/38
f 56/24/39 58/6/39 14/7/39
f 40/25/40 1/23/40 57/4/40
f 64/5/41 57/4/41 1/23/41
f 56/24/39 4/20/39 58/6/39
f 4/20/31 26/11/31 58/6/31
f 52/21/30 3/20/30 59/6/30
f 3/20/34 13/7/34 59/6/34
f 54/24/35 18/20/35 60/6/35
f 18/20/26 24/11/26 60/6/26
f 50/21/27 25/20/27 61/6/27
f 25/20/38 14/7/38 61/6/38
f 55/4/36 62/1/36 41/25/36
f 21/23/33 41/25/33 62/1/33
f 15/23/29 40/25/29 63/1/29
f 57/4/40 63/1/40 40/25/40
f 1/23/41 38/22/41 64/5/41
f 53/4/32 64/5/32 38/22/32
f 22/23/37 39/22/37 65/5/37
f 51/4/28 65/5/28 39/22/28
f 66/12/18 22/26/18 41/19/18
f 66/12/18 39/18/18 22/26/18
usemtl ITAMMUNITIONFEATHER
f 6/27/42 7/28/42 5/29/42
f 7/28/43 6/27/43 5/29/43
f 9/27/44 8/29/44 10/28/44
f 10/28/45 8/29/45 9/27/45
f 11/30/42 5/29/42 7/28/42
f 5/29/43 11/30/43 7/28/43
f 12/30/44 10/28/44 8/29/44
f 8/29/45 10/28/45 12/30/45
usemtl ITMELEEBLADES
f 30/31/46 42/32/46 19/33/46
f 2/34/47 37/35/47 28/36/47
f 2/34/48 32/35/48 36/36/48
f 2/34/49 34/35/49 35/36/49
f 23/31/50 44/32/50 27/33/50
f 2/34/51 28/36/51 32/35/51
f 28/36/52 37/35/52 30/31/52
f 31/31/53 45/32/53 29/33/53
f 32/35/54 28/36/54 43/32/54
f 16/31/55 43/32/55 17/33/55
f 42/32/56 30/31/56 37/35/56
f 2/34/57 33/35/57 20/36/57
f 43/32/54 16/31/54 32/35/54
f 36/36/58 32/35/58 16/31/58
f 45/32/59 31/31/59 33/35/59
f 20/36/60 33/35/60 31/31/60
f 44/32/61 23/31/61 34/35/61
f 35/36/62 34/35/62 23/31/62
f 2/34/63 35/36/63 33/35/63
f 33/35/59 35/36/59 45/32/59
f 2/34/64 36/36/64 34/35/64
f 34/35/61 36/36/61 44/32/61
f 2/34/65 20/36/65 37/35/65
f 37/35/56 20/36/56 42/32/56
f 48/37/66 19/33/66 42/32/66
f 31/31/60 42/32/60 20/36/60
f 46/37/67 17/33/67 43/32/67
f 30/31/52 43/32/52 28/36/52
f 49/37/68 27/33/68 44/32/68
f 16/31/58 44/32/58 36/36/58
f 47/37/69 29/33/69 45/32/69
f 23/31/62 45/32/62 35/36/62
f 19/33/46 46/37/46 30/31/46
f 43/32/67 30/31/67 46/37/67
f 27/33/50 47/37/50 23/31/50
f 45/32/69 23/31/69 47/37/69
f 29/33/53 48/37/53 31/31/53
f 42/32/66 31/31/66 48/37/66
f 17/33/55 49/37/55 16/31/55
f 44/32/68 16/31/68 49/37/68
