# Blender v2.75 (sub 0) OBJ File: 'Empty.blend'
# www.blender.org
mtllib ITRW_CROSSBOW_H_02.mtl
o ITRW_CROSSBOW_H_02
v -0.048673 -0.021047 0.015000
v -0.219991 0.005420 0.035158
v -0.218552 0.009393 -0.035423
v -0.048673 -0.021047 -0.015051
v -0.271412 0.084732 0.467609
v -0.090209 0.080888 -0.000181
v -0.279645 0.080888 0.463616
v -0.279440 0.080888 -0.464351
v -0.271418 0.084732 -0.467541
v -0.083267 0.084732 -0.000181
v -0.271418 0.077045 -0.467541
v -0.271412 0.077045 0.467609
v -0.083267 0.077045 -0.000181
v -0.218552 0.009393 0.035158
v -0.219991 0.005420 -0.035423
v -0.050111 -0.025020 0.015000
v -0.050111 -0.025020 -0.015051
v -0.528459 0.073061 0.050501
v -0.059011 0.069134 -0.050098
v -0.059012 0.068904 0.050483
v -0.528457 0.073291 -0.050080
v -0.528459 0.073061 0.050501
v -0.423082 0.054258 0.336435
v -0.507777 0.029109 0.150347
v -0.597028 0.071754 0.150469
v 0.277043 -0.079289 0.026532
v 0.076260 0.039509 0.027141
v 0.075065 -0.043268 0.026557
v -0.528457 0.073291 -0.050080
v -0.030662 0.043790 -0.043711
v -0.500905 -0.000286 -0.050727
v -0.500907 -0.000516 0.037762
v -0.528459 0.073061 0.038409
v -0.590517 0.035072 0.049853
v -0.422741 0.080593 0.336509
v -0.516079 0.071754 0.150469
v -0.500905 -0.000286 -0.050727
v -0.500907 -0.000516 0.049853
v -0.528457 0.073291 -0.050080
v -0.500907 -0.000516 0.049853
v -0.528459 0.073061 0.050501
v 0.278240 0.034505 -0.027603
v 0.076262 0.039970 -0.027578
v 0.075067 -0.042806 -0.028162
v -0.500905 -0.000286 -0.050727
v -0.528457 0.073291 -0.050080
v -0.590515 0.035302 -0.050727
v -0.507777 0.029109 0.150347
v -0.516079 0.071754 0.150469
v -0.507763 0.029109 -0.150441
v -0.597015 0.071754 -0.150319
v -0.516066 0.071754 -0.150319
v -0.030662 0.043790 -0.043711
v 0.076262 0.039970 -0.027578
v -0.030664 0.043560 0.043410
v -0.422741 0.080593 0.336509
v -0.452455 0.080593 0.372819
v 0.076260 0.039509 0.027141
v 0.278238 0.034043 0.027116
v 0.277043 -0.079289 0.026532
v -0.421247 0.054258 -0.354887
v -0.507763 0.029109 -0.150441
v -0.455034 0.039615 -0.143496
v -0.059011 0.069134 -0.050098
v -0.528457 0.073291 -0.050080
v -0.030662 0.043790 -0.043711
v -0.455046 0.039615 0.143400
v -0.423082 0.054258 0.336435
v -0.396917 0.060471 0.320324
v -0.459038 0.071754 -0.143374
v -0.394944 0.080593 -0.338335
v -0.420954 0.080593 -0.354698
v 0.277045 -0.078828 -0.028188
v 0.278240 0.034505 -0.027603
v 0.278238 0.034043 0.027116
v -0.276851 0.075941 0.486380
v -0.423082 0.054258 0.336435
v -0.030664 0.043560 0.043410
v 0.076260 0.039509 0.027141
v -0.459038 0.071754 -0.143374
v -0.516066 0.071754 -0.150319
v -0.500905 -0.000286 -0.050727
v -0.029804 0.000283 -0.034677
v -0.030662 0.043790 -0.043711
v -0.516079 0.071754 0.150469
v -0.423082 0.054258 0.336435
v -0.507777 0.029109 0.150347
v -0.507763 0.029109 -0.150441
v -0.421247 0.054258 -0.354887
v -0.420954 0.080593 -0.354698
v -0.278073 0.085751 -0.485494
v -0.450321 0.080593 -0.391308
v -0.421247 0.054258 -0.354887
v -0.459050 0.071754 0.143522
v -0.396576 0.080593 0.320398
v -0.455046 0.039615 0.143400
v -0.500907 -0.000516 0.049853
v -0.030664 0.043560 0.043410
v -0.528459 0.073061 0.050501
v -0.276851 0.075941 0.486380
v -0.396576 0.080593 0.320398
v -0.265541 0.085751 0.470206
v 0.277043 -0.079289 0.026532
v -0.059012 0.068904 0.050483
v -0.030662 0.043790 -0.043711
v -0.030664 0.043560 0.043410
v -0.278073 0.085751 -0.485494
v -0.394944 0.080593 -0.338335
v -0.265546 0.085751 -0.469969
v 0.278238 0.034043 0.027116
v -0.422741 0.080593 0.336509
v -0.459050 0.071754 0.143522
v -0.265541 0.085751 0.470206
v -0.266091 0.075941 0.470162
v -0.276851 0.075941 0.486380
v -0.516066 0.071754 -0.150319
v -0.507777 0.029109 0.150347
v -0.507763 0.029109 -0.150441
v -0.423082 0.054258 0.336435
v -0.276851 0.075941 0.486380
v -0.396576 0.080593 0.320398
v -0.455034 0.039615 -0.143496
v -0.507777 0.029109 0.150347
v -0.455046 0.039615 0.143400
v -0.516079 0.071754 0.150469
v -0.516066 0.071754 -0.150319
v -0.507777 0.029109 0.150347
v -0.395239 0.060471 -0.338520
v -0.266001 0.075941 -0.470283
v -0.276851 0.075941 0.486380
v -0.422741 0.080593 0.336509
v -0.459038 0.071754 -0.143374
v 0.278240 0.034505 -0.027603
v 0.278238 0.034043 0.027116
v -0.421247 0.054258 -0.354887
v -0.420954 0.080593 -0.354698
v -0.516066 0.071754 -0.150319
v -0.420954 0.080593 -0.354698
v -0.421247 0.054258 -0.354887
v -0.278073 0.085751 -0.485494
v -0.507763 0.029109 -0.150441
v -0.421247 0.054258 -0.354887
v -0.500907 -0.000516 0.049853
v -0.528459 0.073061 0.050501
v -0.500905 -0.000286 -0.050727
v -0.500905 -0.000286 -0.038634
v -0.528457 0.073291 -0.037987
v -0.528457 0.073291 -0.050080
v 0.075067 -0.042806 -0.028162
v 0.277045 -0.078828 -0.028188
v 0.278240 0.034505 -0.027603
v 0.075065 -0.043268 0.026557
v 0.277043 -0.079289 0.026532
v 0.277045 -0.078828 -0.028188
v 0.277045 -0.078828 -0.028188
v 0.075067 -0.042806 -0.028162
v 0.075065 -0.043268 0.026557
v -0.029804 0.000283 -0.034677
v 0.075067 -0.042806 -0.028162
v 0.076262 0.039970 -0.027578
v -0.029805 0.000053 0.033261
v 0.075065 -0.043268 0.026557
v 0.075067 -0.042806 -0.028162
v -0.029804 0.000283 -0.034677
v -0.029805 0.000053 0.033261
v -0.029805 0.000053 0.033261
v 0.076260 0.039509 0.027141
v -0.029804 0.000283 -0.034677
v 0.076262 0.039970 -0.027578
v -0.030662 0.043790 -0.043711
v -0.528459 0.073061 0.050501
v -0.059012 0.068904 0.050483
v -0.030664 0.043560 0.043410
v 0.076260 0.039509 0.027141
v -0.029805 0.000053 0.033261
v -0.030664 0.043560 0.043410
v -0.500907 -0.000516 0.049853
v -0.030664 0.043560 0.043410
v -0.029805 0.000053 0.033261
v -0.059011 0.069134 -0.050098
v -0.059012 0.068904 0.050483
v -0.396576 0.080593 0.320398
v -0.459050 0.071754 0.143522
v -0.459050 0.071754 0.143522
v -0.516079 0.071754 0.150469
v -0.459038 0.071754 -0.143374
v -0.459038 0.071754 -0.143374
v -0.516079 0.071754 0.150469
v -0.516066 0.071754 -0.150319
v -0.394944 0.080593 -0.338335
v -0.507777 0.029109 0.150347
v -0.423082 0.054258 0.336435
v -0.455046 0.039615 0.143400
v -0.507763 0.029109 -0.150441
v -0.507777 0.029109 0.150347
v -0.455034 0.039615 -0.143496
v -0.421247 0.054258 -0.354887
v -0.276851 0.075941 0.486380
v -0.423082 0.054258 0.336435
v -0.276851 0.075941 0.486380
v -0.455046 0.039615 0.143400
v -0.459038 0.071754 -0.143374
v -0.455034 0.039615 -0.143496
v -0.394944 0.080593 -0.338335
v -0.265546 0.085751 -0.469969
v -0.266001 0.075941 -0.470283
v -0.266001 0.075941 -0.470283
v -0.500905 -0.000286 -0.050727
v -0.500907 -0.000516 0.049853
v -0.029805 0.000053 0.033261
v -0.500905 -0.000286 -0.050727
v -0.029804 0.000283 -0.034677
v -0.528459 0.073061 0.050501
v -0.265541 0.085751 0.470206
v -0.266091 0.075941 0.470162
v -0.276851 0.075941 0.486380
v -0.455034 0.039615 -0.143496
v -0.459050 0.071754 0.143522
v -0.278073 0.085751 -0.485494
v -0.265546 0.085751 -0.469969
v -0.266001 0.075941 -0.470283
vt 0.701778 0.631294
vt 0.701778 0.878873
vt 0.656333 0.878873
vt 0.656333 0.632572
vt 0.656333 0.880151
vt 0.701778 0.880151
vt 0.656333 0.631294
vt 0.701778 0.632572
vt 0.363994 0.699676
vt 0.372599 0.695156
vt 0.372402 1.049390
vt 0.363797 1.049390
vt 0.378563 0.699652
vt 0.369958 0.695760
vt 0.743308 0.633161
vt 0.743300 0.112963
vt 0.827927 0.112962
vt 0.827945 0.633160
vt 0.037604 0.811186
vt 0.038289 0.912256
vt 0.000358 0.808771
vt 0.744173 0.234729
vt 0.834882 0.237230
vt 0.829946 0.397404
vt 0.768902 0.077521
vt 0.830218 0.633601
vt 0.742594 0.633240
vt 0.042569 0.805556
vt 0.028962 0.872329
vt 0.003986 0.828394
vt 0.038923 0.912256
vt 0.816350 0.487361
vt 0.754877 0.589898
vt 0.816354 0.591016
vt 0.744177 0.398523
vt 0.827994 0.290624
vt 0.743290 0.402112
vt 0.743276 0.290625
vt 0.000158 0.909768
vt 0.310545 0.409634
vt 0.214847 0.409387
vt 0.214842 0.217497
vt 0.745821 0.090291
vt 0.311873 0.218442
vt 0.743275 0.543959
vt 0.827963 0.412748
vt 0.827972 0.544262
vt 0.827963 0.402111
vt 0.826047 0.077025
vt 0.413999 0.639056
vt 0.415326 0.830248
vt 0.310930 0.033563
vt 0.214497 0.033619
vt 0.743271 0.412445
vt 0.743328 0.447959
vt 0.827874 0.448287
vt 0.827874 0.539127
vt 0.827962 0.544078
vt 0.401060 0.923622
vt 0.400972 0.663018
vt 0.320323 0.928610
vt 0.297519 0.917484
vt 0.216777 0.925115
vt 0.297606 0.656880
vt 0.320230 0.655387
vt 0.743290 0.544078
vt 0.827978 0.336156
vt 0.743293 0.335870
vt 0.743293 0.542990
vt 0.827978 0.543277
vt 0.827963 0.444106
vt 0.743305 0.442003
vt 0.743363 0.537523
vt 0.827813 0.539419
vt 0.743328 0.538799
vt 0.216869 0.651892
vt 0.414383 1.015130
vt 0.827850 0.187048
vt 0.827969 0.581682
vt 0.743249 0.581682
vt 0.743317 0.187047
vt 0.754873 0.486243
vt 0.290888 0.739535
vt 0.204665 0.649929
vt 0.203042 0.739535
vt 0.204529 0.649930
vt 0.292376 0.649930
vt 0.202905 0.739535
vn 0.176400 0.984300 0.000000
vn -0.176400 -0.984300 0.000000
vn -0.360000 0.921600 -0.144800
vn -0.359100 -0.921700 -0.146700
vn -0.376600 0.913500 0.153600
vn -0.377300 -0.913600 0.151900
vn -0.475200 0.858200 -0.194100
vn -0.475400 0.858700 0.191400
vn -0.475200 -0.858300 0.193700
vn -0.475500 -0.858700 -0.191200
vn 0.927600 0.000000 -0.373500
vn 0.927800 0.000000 0.373100
vn 0.110700 -0.040100 0.993100
vn 0.111800 -0.040500 -0.992900
vn 0.940300 -0.340400 0.000000
vn 0.008900 1.000000 0.002300
vn -0.410500 -0.860000 0.303100
vn -0.001100 -0.007000 1.000000
vn 0.013600 0.013900 -0.999800
vn -0.152400 -0.048400 -0.987100
vn 0.000000 0.998900 -0.047500
vn -0.936500 -0.350700 -0.000800
vn -0.004100 -0.010300 0.999900
vn 0.000100 0.007100 -1.000000
vn 0.004100 0.010300 -0.999900
vn 0.000000 0.002900 -1.000000
vn 0.000000 -0.002900 1.000000
vn 0.035300 0.999400 0.002600
vn -0.027100 0.999400 -0.022100
vn -0.000000 -0.005200 1.000000
vn 0.199800 -0.979200 -0.035900
vn -0.002200 -0.246700 -0.969100
vn 0.249600 -0.967800 0.032100
vn -0.023600 0.999000 0.037500
vn 0.999900 -0.010500 -0.000100
vn -0.283000 -0.870900 0.401900
vn 0.039100 0.999200 0.008400
vn -0.005000 0.999200 0.040900
vn 0.033600 -0.202600 -0.978700
vn -0.887200 -0.173900 0.427300
vn -0.890200 -0.172100 -0.421700
vn -0.921400 0.013000 -0.388300
vn -0.020800 0.999600 0.016700
vn -0.420000 -0.860900 -0.287200
vn 0.934500 0.117700 -0.336000
vn 0.014000 -0.003500 0.999900
vn -0.361400 0.887600 0.285600
vn 0.666800 0.745300 0.002000
vn -0.675400 0.012800 -0.737300
vn -0.021900 0.999600 0.017700
vn 0.027100 0.999600 0.008400
vn -0.894000 0.010300 0.448000
vn -0.005400 0.999000 -0.044700
vn 0.752800 -0.010300 -0.658100
vn 0.754700 -0.039400 -0.654900
vn 0.067000 -0.996800 0.044400
vn -0.981600 -0.191100 -0.000000
vn -0.405600 -0.864100 0.298000
vn 0.011900 0.999700 0.019400
vn 0.195400 -0.980700 0.000000
vn -0.265300 -0.892400 -0.365000
vn 0.017300 0.999700 0.014200
vn 0.946000 0.116700 0.302500
vn 0.225200 -0.974200 0.012000
vn -0.026000 0.999400 0.020800
vn 0.000000 0.999100 0.043200
vn -0.220200 -0.865400 -0.450000
vn -0.414000 -0.865600 -0.281700
vn -0.369100 -0.929400 0.000000
vn -0.522100 0.852900 0.000000
vn -0.160200 -0.068600 0.984700
vn 0.000800 0.005100 -1.000000
vn -0.175600 -0.984400 -0.008300
vn 0.064500 0.006100 -0.997900
vn -0.382200 -0.924000 -0.007800
vn -0.379900 -0.925000 -0.003100
vn 0.060500 -0.007900 0.998100
vn 0.139300 -0.198700 -0.970100
vn -0.002400 -0.271200 0.962500
vn 0.138400 -0.222400 0.965100
vn 0.034600 -0.226400 0.973400
vn 0.666300 0.745700 0.001700
vn -0.025200 0.998800 -0.041000
vn 0.000000 1.000000 0.000000
vn -0.014700 0.999600 0.023400
vn 0.200400 -0.978800 0.041100
vn 0.248500 -0.968200 -0.027300
vn 0.199600 -0.978400 -0.053200
vn -0.716400 0.007300 0.697600
vn 0.950500 -0.015000 -0.310500
vn 0.992300 0.123600 0.000000
vn 0.950100 -0.016800 0.311600
vn 0.713100 -0.055400 0.698800
vn 0.714800 -0.016900 0.699100
vn 0.001100 -1.000000 -0.002300
vn 0.001300 -1.000000 -0.003400
vn 0.832300 -0.049100 0.552200
vn 0.778100 -0.016000 -0.627900
usemtl ITRWCROSSBOW4-ITRANGEDWEAPONS
s off
f 4/1/1 3/2/1 14/3/1
f 16/4/2 2/5/2 15/6/2
f 14/3/1 1/7/1 4/1/1
f 15/6/2 17/8/2 16/4/2
f 7/9/3 5/10/3 10/11/3
f 12/10/4 7/9/4 6/12/4
f 6/12/5 9/13/5 8/14/5
f 13/11/6 8/14/6 11/13/6
f 7/9/7 10/11/7 6/12/7
f 6/12/8 10/11/8 9/13/8
f 13/11/9 6/12/9 8/14/9
f 12/10/10 6/12/10 13/11/10
f 10/11/11 11/13/11 9/13/11
f 5/10/12 12/10/12 13/11/12
f 5/10/12 13/11/12 10/11/12
f 10/11/11 13/11/11 11/13/11
f 1/7/13 14/3/13 2/5/13
f 15/6/14 3/2/14 4/1/14
f 2/5/13 16/4/13 1/7/13
f 1/7/15 16/4/15 17/8/15
f 4/1/14 17/8/14 15/6/14
f 17/8/15 4/1/15 1/7/15
f 18/15/16 20/16/16 19/17/16
f 22/15/16 19/17/16 21/18/16
f 24/19/17 23/20/17 25/21/17
f 27/22/18 28/23/18 26/24/18
f 30/25/19 31/26/19 29/27/19
f 33/28/20 32/29/20 34/30/20
f 35/31/21 36/19/21 25/21/21
f 38/32/22 39/33/22 37/34/22
f 40/29/23 41/28/23 34/30/23
f 44/23/24 43/22/24 42/35/24
f 46/28/25 45/29/25 47/30/25
f 49/19/26 48/19/26 25/21/26
f 52/19/27 51/21/27 50/19/27
f 55/36/28 54/37/28 53/38/28
f 25/21/29 57/39/29 56/31/29
f 60/24/30 59/35/30 58/22/30
f 63/40/31 62/41/31 61/42/31
f 66/25/32 65/27/32 64/43/32
f 69/44/33 68/42/33 67/40/33
f 71/44/34 72/42/34 70/40/34
f 75/45/35 73/46/35 74/47/35
f 77/20/36 76/19/36 57/39/36
f 78/36/37 79/48/37 54/37/37
f 72/42/38 81/41/38 80/40/38
f 84/25/39 83/49/39 82/26/39
f 87/50/40 86/51/40 85/41/40
f 72/42/41 88/50/41 81/41/41
f 89/51/42 88/50/42 72/42/42
f 91/19/43 92/39/43 90/31/43
f 51/21/44 92/39/44 93/20/44
f 95/42/45 96/40/45 94/41/45
f 98/25/46 99/27/46 97/26/46
f 102/52/47 101/44/47 100/53/47
f 75/45/35 103/54/35 73/46/35
f 104/55/48 106/56/48 105/57/48
f 107/53/49 89/51/49 72/42/49
f 109/52/50 107/53/50 108/44/50
f 54/37/51 79/48/51 110/58/51
f 85/41/52 86/51/52 111/42/52
f 85/41/53 111/42/53 112/40/53
f 113/53/54 69/44/54 95/42/54
f 114/52/55 69/44/55 113/53/55
f 115/53/56 69/44/56 114/52/56
f 118/59/57 117/60/57 116/61/57
f 57/39/58 25/21/58 119/20/58
f 120/53/59 121/44/59 111/42/59
f 124/62/60 123/63/60 122/64/60
f 126/61/57 127/60/57 125/65/57
f 128/44/61 107/53/61 129/52/61
f 130/19/62 131/31/62 57/39/62
f 63/40/63 128/44/63 132/41/63
f 134/58/51 133/66/51 54/37/51
f 128/44/64 135/42/64 107/53/64
f 51/21/65 136/31/65 92/39/65
f 138/31/66 51/21/66 137/19/66
f 92/39/67 140/19/67 139/20/67
f 142/20/68 141/19/68 51/21/68
f 34/30/69 32/29/69 143/29/69
f 33/28/70 34/30/70 144/28/70
f 47/30/69 145/29/69 146/29/69
f 146/29/71 147/28/71 47/30/71
f 148/28/70 47/30/70 147/28/70
f 151/35/72 150/24/72 149/23/72
f 154/67/73 153/68/73 152/69/73
f 157/69/73 156/70/73 155/67/73
f 160/22/74 159/23/74 158/49/74
f 163/71/75 162/72/75 161/73/75
f 165/73/76 164/74/76 163/71/76
f 167/22/77 166/49/77 28/23/77
f 170/25/78 169/22/78 168/49/78
f 173/25/79 172/43/79 171/27/79
f 176/25/80 175/49/80 174/22/80
f 179/49/81 178/25/81 177/26/81
f 181/55/82 105/57/82 180/75/82
f 183/40/83 111/42/83 182/44/83
f 186/64/84 185/63/84 184/62/84
f 189/76/84 188/63/84 187/64/84
f 107/53/85 72/42/85 190/44/85
f 193/40/86 192/42/86 191/41/86
f 196/64/60 195/63/60 194/76/60
f 63/40/87 197/42/87 128/44/87
f 199/42/88 69/44/88 198/53/88
f 86/51/89 200/77/89 111/42/89
f 69/44/90 201/40/90 95/42/90
f 218/63/91 203/64/91 202/76/91
f 132/41/92 128/44/92 204/42/92
f 204/42/93 206/52/93 205/53/93
f 128/44/94 207/52/94 204/42/94
f 210/78/95 209/79/95 208/80/95
f 210/78/96 211/80/96 212/81/96
f 38/32/22 213/82/22 39/33/22
f 216/83/97 215/84/97 214/85/97
f 124/62/91 217/64/91 218/63/91
f 221/86/98 219/87/98 220/88/98
