# Blender v2.75 (sub 0) OBJ File: 'Empty.blend'
# www.blender.org
mtllib ITSC_PALHOLYBOLT.mtl
o ITSC_PALHOLYBOLT
v 0.227490 -0.023457 0.145323
v -0.232490 -0.023457 0.145323
v 0.227490 0.024026 -0.123967
v -0.232490 0.024026 -0.123967
v -0.232490 -0.028507 -0.269271
v 0.227490 -0.028507 -0.269271
v 0.227490 0.013979 0.283156
v -0.232490 0.013979 0.283156
vt 0.945250 -0.279859
vt 0.824742 -0.189652
vt 0.945250 -0.189652
vt 0.338542 -0.126597
vt 0.338542 -0.054180
vt 0.235476 -0.126597
vt 0.824742 -0.279859
vt 0.235476 -0.054180
vt 0.824742 -0.141541
vt 0.235476 -0.012980
vt 0.338542 -0.012980
vt 0.945250 -0.151203
vt 0.945250 -0.335807
vt 0.338542 -0.170371
vt 0.235476 -0.170371
vt 0.824742 -0.335807
vn 0.000000 -0.984800 -0.173600
vn -0.000000 0.984800 0.173600
vn 0.000000 -0.940400 0.340000
vn 0.000000 0.940400 -0.340000
vn 0.000000 -0.965000 0.262100
vn 0.000000 0.965000 -0.262100
usemtl ITAR_SCROLL2
s off
f 1/1/1 4/2/1 3/3/1
f 1/4/2 3/5/2 2/6/2
f 2/7/1 4/2/1 1/1/1
f 4/8/2 2/6/2 3/5/2
f 4/2/3 5/9/3 3/3/3
f 5/10/4 4/8/4 6/11/4
f 3/3/3 5/9/3 6/12/3
f 3/5/4 6/11/4 4/8/4
f 2/7/5 1/1/5 7/13/5
f 7/14/6 1/4/6 8/15/6
f 8/16/5 2/7/5 7/13/5
f 2/6/6 8/15/6 1/4/6
