# Blender v2.75 (sub 0) OBJ File: 'Empty.blend'
# www.blender.org
mtllib ITWR_BOOK_02_02.mtl
o ITWR_BOOK_02_02
v -0.120000 0.018000 -0.160000
v -0.120000 0.018000 0.160000
v 0.100000 -0.030426 -0.160000
v 0.100000 0.030000 0.160000
v 0.100000 0.030000 -0.160000
v 0.100000 -0.030426 0.160000
v -0.120000 -0.018000 -0.160000
v -0.120000 -0.018000 0.160000
v -0.100000 -0.030426 0.160000
v -0.100000 -0.030426 -0.160000
v -0.100000 0.030000 0.160000
v -0.100000 0.030000 -0.160000
vt 0.747036 -0.301323
vt 0.747036 -0.494579
vt 0.999102 -0.301323
vt 0.747036 -0.190806
vt 0.999102 -0.000159
vt 0.747036 -0.000159
vt 0.999102 -0.190806
vt 0.999102 -0.494579
vt 0.355711 -0.739168
vt 0.259477 -0.739168
vt 0.273122 -0.495148
vt 0.260528 -0.515067
vt 0.355957 -0.738955
vt 0.355956 -0.515067
vt 0.260528 -0.738955
vt 0.342534 -0.495148
vt 0.747036 -0.272901
vt 0.999102 -0.272901
vt 0.747036 -0.221512
vt 0.999102 -0.221512
vt 0.259477 -0.503700
vt 0.355711 -0.503700
vn 0.000000 -1.000000 0.000000
vn 0.000000 1.000000 0.000000
vn -0.000000 0.000000 -1.000000
vn 1.000000 0.000000 0.000000
vn -0.000000 0.000000 1.000000
vn -1.000000 0.000000 0.000000
vn -0.527700 -0.849400 0.000000
vn -0.514500 0.857500 0.000000
usemtl ITWRITTEN
s off
f 10/1/1 3/2/1 9/3/1
f 12/4/2 4/5/2 5/6/2
f 11/7/2 4/5/2 12/4/2
f 9/3/1 3/2/1 6/8/1
f 5/9/3 3/10/3 7/11/3
f 5/12/4 6/13/4 3/14/4
f 6/10/5 4/9/5 8/11/5
f 4/15/4 6/13/4 5/12/4
f 1/16/3 5/9/3 7/11/3
f 7/17/6 8/18/6 1/19/6
f 2/16/5 8/11/5 4/9/5
f 2/20/6 1/19/6 8/18/6
f 9/21/5 6/10/5 8/11/5
f 8/18/7 10/1/7 9/3/7
f 10/21/3 7/11/3 3/10/3
f 7/17/7 10/1/7 8/18/7
f 2/16/5 4/9/5 11/22/5
f 11/7/8 12/4/8 2/20/8
f 12/22/3 5/9/3 1/16/3
f 2/20/8 12/4/8 1/19/8
