# Blender v2.75 (sub 0) OBJ File: 'Empty.blend'
# www.blender.org
mtllib LEVER_1_OC.mtl
o LEVER_1_OC
v 0.025004 0.004280 0.088652
v -0.024896 0.226070 -0.244241
v -0.025019 -0.037310 0.060933
v -0.024918 0.184460 -0.271962
v -0.024996 0.004300 0.088654
v 0.024981 -0.037330 0.060931
v 0.025104 0.226040 -0.244243
v 0.025082 0.184430 -0.271964
v 0.050000 -0.150000 0.049652
v -0.050000 0.150000 0.049652
v -0.125000 0.275000 0.087153
v 0.125000 -0.275000 0.087153
v 0.050000 -0.150000 -0.062500
v -0.050000 0.150000 -0.062500
v -0.125000 -0.275000 0.087153
v 0.125000 0.275000 0.087153
v -0.050000 -0.150000 0.049652
v -0.050000 -0.150000 -0.062500
v 0.050000 0.150000 0.049652
v 0.050000 0.150000 -0.062500
v -0.100000 -0.250000 -0.021965
v 0.100000 -0.250000 -0.021965
v -0.100000 0.250000 -0.021965
v 0.100000 0.250000 -0.021965
v -0.125000 -1.250504 0.127436
vt 0.986409 0.495422
vt 0.986409 0.660671
vt 0.016505 0.660671
vt 0.016505 0.164923
vt 0.986409 0.164923
vt 0.986409 0.330172
vt 0.016505 0.495422
vt 0.016505 0.330172
vt 0.986409 0.825921
vt 0.016505 0.825921
vt 0.453618 0.045909
vt 0.453618 0.954091
vt 0.355579 0.772455
vt 0.061461 0.954091
vt 0.061461 0.045909
vt 0.159500 0.772455
vt 0.159500 0.227545
vt 0.355579 0.227545
vt 0.502638 0.000500
vt 0.012442 0.000500
vt 0.502638 0.999500
vt 0.012441 0.999500
vn -1.000000 0.000500 0.000000
vn 1.000000 -0.000500 -0.000000
vn 0.000400 0.832200 0.554400
vn -0.000400 -0.832200 -0.554400
vn 0.000300 0.554400 -0.832200
vn 0.000500 0.832200 0.554400
vn -0.000500 -0.832200 -0.554400
vn -0.629700 0.000000 -0.776800
vn 0.629700 -0.000000 -0.776800
vn -1.000000 0.000000 0.000000
vn 1.000000 0.000000 0.000000
vn -0.000000 -0.375700 -0.926800
vn 0.000000 0.375700 -0.926800
vn -0.000000 -0.000000 -1.000000
vn 0.000000 1.000000 -0.000000
vn 0.000000 -1.000000 0.000000
vn -0.974700 0.000000 -0.223300
vn -0.000000 -0.974700 -0.223300
vn 0.974700 -0.000000 -0.223300
vn 0.000000 0.974700 -0.223300
vn 0.000000 -0.041300 -0.999100
usemtl LEVER
s off
f 3/1/1 5/2/1 2/3/1
f 7/4/2 1/5/2 6/6/2
f 2/3/1 4/7/1 3/1/1
f 6/6/2 8/8/2 7/4/2
f 2/3/3 5/2/3 1/9/3
f 8/8/4 6/6/4 3/1/4
f 4/7/5 2/3/5 7/10/5
f 1/9/6 7/10/6 2/3/6
f 3/1/7 4/7/7 8/8/7
f 7/4/5 8/8/5 4/7/5
f 21/11/8 23/12/8 14/13/8
f 24/14/9 22/15/9 20/16/9
f 20/16/9 22/15/9 13/17/9
f 21/11/8 14/13/8 18/18/8
f 20/16/10 13/17/10 9/17/10
f 10/13/11 17/18/11 18/18/11
f 18/18/11 14/13/11 10/13/11
f 9/17/10 19/16/10 20/16/10
f 18/18/12 22/15/12 21/11/12
f 20/16/13 23/12/13 24/14/13
f 9/17/14 17/18/14 10/13/14
f 17/18/15 9/17/15 13/17/15
f 13/17/12 22/15/12 18/18/12
f 13/17/15 18/18/15 17/18/15
f 10/13/14 19/16/14 9/17/14
f 19/16/16 10/13/16 14/13/16
f 14/13/13 23/12/13 20/16/13
f 14/13/16 20/16/16 19/16/16
f 23/12/17 21/11/17 15/19/17
f 15/19/18 21/11/18 22/15/18
f 12/20/19 22/15/19 24/14/19
f 22/15/18 12/20/18 15/19/18
f 15/19/17 11/21/17 23/12/17
f 23/12/20 11/21/20 16/22/20
f 24/14/19 16/22/19 12/20/19
f 16/22/20 24/14/20 23/12/20
f 15/19/21 12/20/21 25/20/21
