# Blender v2.75 (sub 0) OBJ File: 'Empty.blend'
# www.blender.org
mtllib LIGHT.mtl
o LIGHT
v -0.000002 -0.221046 0.000000
v -0.000002 0.254262 0.000000
v 0.061626 -0.000011 0.189669
v -0.161344 -0.000011 0.117222
v 0.061626 -0.000011 -0.189669
v -0.161344 -0.000011 -0.117222
v 0.199428 -0.000011 0.000000
v -0.114088 -0.162635 0.082888
v -0.114088 -0.162635 -0.082888
v 0.043575 -0.162635 -0.134116
v 0.043575 -0.162635 0.134116
v 0.141017 -0.162635 0.000000
v 0.032924 0.195850 0.102641
v 0.097714 0.195850 0.000363
v -0.083423 0.195850 0.060801
v 0.032069 0.195850 -0.097679
v -0.080859 0.195850 -0.059258
vt 0.000000 -0.000000
vn 0.487200 0.816900 0.308600
vn -0.191000 0.825500 0.531100
vn 0.486000 0.811100 -0.325400
vn -0.186700 0.815000 -0.548600
vn -0.579600 0.814800 -0.012400
vn -0.289100 0.353000 0.889800
vn 0.746200 0.386500 0.542100
vn -0.929200 0.369700 0.000000
vn -0.296700 -0.279000 0.913300
vn 0.776900 -0.279000 0.564400
vn -0.960300 -0.279000 0.000000
vn -0.286100 0.378100 -0.880400
vn -0.296700 -0.279000 -0.913300
vn 0.751600 0.369900 -0.546100
vn 0.776900 -0.279000 -0.564400
vn -0.455700 -0.890100 0.000000
vn -0.140800 -0.890100 -0.433400
vn -0.140800 -0.890100 0.433400
vn 0.368700 -0.890100 -0.267900
vn 0.368700 -0.890100 0.267900
vn -0.313600 0.375900 0.872000
vn 0.794400 0.340000 0.503200
vn 0.762700 0.397000 -0.510600
vn -0.922700 0.385000 -0.019700
vn -0.299500 0.368200 -0.880200
usemtl FELSWAND
s off
f 2/1/1 13/1/1 14/1/1
f 2/1/2 15/1/2 13/1/2
f 2/1/3 14/1/3 16/1/3
f 2/1/4 16/1/4 17/1/4
f 2/1/5 17/1/5 15/1/5
usemtl LIGHT
f 4/1/6 3/1/6 13/1/6
f 3/1/7 7/1/7 14/1/7
f 6/1/8 4/1/8 15/1/8
f 8/1/9 3/1/9 4/1/9
f 11/1/10 7/1/10 3/1/10
f 9/1/11 4/1/11 6/1/11
f 5/1/12 6/1/12 17/1/12
f 10/1/13 6/1/13 5/1/13
f 7/1/14 5/1/14 16/1/14
f 12/1/15 5/1/15 7/1/15
f 9/1/11 8/1/11 4/1/11
f 8/1/9 11/1/9 3/1/9
f 10/1/13 9/1/13 6/1/13
f 1/1/16 8/1/16 9/1/16
f 12/1/15 10/1/15 5/1/15
f 1/1/17 9/1/17 10/1/17
f 11/1/10 12/1/10 7/1/10
f 1/1/18 11/1/18 8/1/18
f 1/1/19 10/1/19 12/1/19
f 1/1/20 12/1/20 11/1/20
f 4/1/21 13/1/21 15/1/21
f 3/1/22 14/1/22 13/1/22
f 7/1/23 16/1/23 14/1/23
f 6/1/24 15/1/24 17/1/24
f 5/1/25 17/1/25 16/1/25
