# Blender v2.75 (sub 0) OBJ File: 'Empty.blend'
# www.blender.org
mtllib MBG_BODY.mtl
o MBG_BODY
v 0.124119 -0.033111 0.124293
v 0.033291 0.004306 0.096790
v 0.113979 0.001481 0.108527
v 0.059490 0.022448 0.094156
v 0.043522 0.004306 0.074848
v 0.105523 0.001481 0.126661
v 0.123886 0.014751 0.124185
v 0.139429 -0.033111 0.058380
v 0.044430 -0.000485 0.054770
v 0.125555 0.001481 0.045775
v 0.069203 0.022448 0.045997
v 0.048634 -0.000485 0.030928
v 0.122080 0.001481 0.065479
v 0.139177 0.014751 0.058335
v 0.141154 -0.033111 -0.009427
v 0.048457 -0.000485 0.011674
v 0.124490 0.001481 -0.018012
v 0.070116 0.022448 -0.003212
v 0.046347 -0.000485 -0.012444
v 0.126234 0.001481 0.001921
v 0.140899 0.014751 -0.009405
v 0.131615 -0.033111 -0.066504
v 0.041110 -0.000485 -0.037404
v 0.114266 0.001481 -0.073603
v 0.061388 0.022448 -0.054121
v 0.036906 -0.000485 -0.061246
v 0.117740 0.001481 -0.053899
v 0.131362 0.014751 -0.066459
v 0.111076 -0.033111 -0.123580
v 0.031187 0.010777 -0.079944
v 0.044066 0.028100 -0.099190
v 0.022907 0.010777 -0.102695
v 0.092758 0.001481 -0.127559
v 0.099601 0.001481 -0.108757
v 0.110835 0.014751 -0.123492
v 0.014273 0.047138 0.325431
v 0.022897 0.040773 0.212212
v 0.005648 0.040773 0.212212
v 0.014273 0.054865 0.213304
v 0.022897 0.040773 0.212212
v 0.021139 0.043574 0.101989
v 0.005648 0.040773 0.212212
v 0.004999 0.043574 0.101989
v 0.014273 0.054865 0.213304
v 0.013972 0.055740 0.100520
v -0.032672 0.085358 -0.098296
v 0.046395 0.035368 -0.098296
v 0.019474 0.044200 -0.186504
v -0.046395 0.035368 -0.098296
v -0.039984 0.060118 -0.169438
v 0.032672 0.085358 -0.098296
v 0.019474 0.076525 -0.186504
v -0.019474 0.044200 -0.186504
v 0.039984 0.060118 -0.169438
v 0.052339 0.060363 -0.098296
v -0.052339 0.060363 -0.098296
v -0.019474 0.076525 -0.186504
v 0.000000 0.020480 -0.098296
v 0.000000 0.060363 -0.196071
v 0.000000 0.032069 -0.169438
v 0.000000 0.091370 -0.098296
v 0.000000 0.083904 -0.169438
v -0.014273 0.047138 0.325431
v -0.022897 0.040773 0.212212
v -0.005648 0.040773 0.212212
v -0.014273 0.054865 0.213304
v -0.022897 0.040773 0.212212
v -0.021139 0.043574 0.101989
v -0.005648 0.040773 0.212212
v -0.004999 0.043574 0.101989
v -0.014273 0.054865 0.213304
v -0.013972 0.055740 0.100520
v 0.072074 0.019980 -0.116837
v 0.000000 0.066139 -0.060982
v -0.072071 0.019980 -0.116837
v 0.000000 0.053972 0.107139
v 0.078978 0.033826 0.125061
v -0.078879 0.033826 0.125061
v 0.038272 0.094909 -0.161345
v -0.038204 0.094909 -0.161345
v -0.027085 0.074733 0.159541
v 0.039419 0.026735 -0.108902
v -0.039419 0.026735 -0.108902
v 0.024946 0.074733 0.159541
v -0.029348 0.020420 -0.140222
v 0.029348 0.020420 -0.140222
v 0.000000 0.027966 0.142364
v -0.038989 0.112945 0.088129
v -0.038204 0.094909 -0.161345
v -0.027085 0.074733 0.159541
v 0.024946 0.074733 0.159541
v -0.100626 0.020837 0.037920
v -0.087257 0.075240 -0.035342
v 0.038273 0.094909 -0.161345
v 0.100626 0.020837 0.037920
v 0.039058 0.112945 0.088129
v 0.087326 0.075240 -0.035342
v -0.078879 0.033826 0.125061
v -0.091744 0.064647 0.088130
v 0.078879 0.033826 0.125061
v 0.091813 0.064647 0.088130
v 0.072072 0.019980 -0.116836
v -0.072072 0.019980 -0.116836
v 0.041569 0.117384 -0.044287
v -0.041500 0.117384 -0.044287
v -0.131615 -0.033111 -0.066504
v -0.041110 -0.000485 -0.037404
v -0.114266 0.001481 -0.073603
v -0.061388 0.022448 -0.054121
v -0.036906 -0.000485 -0.061246
v -0.117740 0.001481 -0.053899
v -0.131362 0.014751 -0.066459
v -0.139429 -0.033111 0.058380
v -0.044430 -0.000485 0.054770
v -0.125555 0.001481 0.045775
v -0.069203 0.022448 0.045997
v -0.048634 -0.000485 0.030928
v -0.122080 0.001481 0.065479
v -0.139177 0.014751 0.058335
v -0.141154 -0.033111 -0.009427
v -0.048457 -0.000485 0.011674
v -0.124490 0.001481 -0.018012
v -0.070116 0.022448 -0.003212
v -0.046347 -0.000485 -0.012444
v -0.126234 0.001481 0.001921
v -0.140898 0.014751 -0.009405
v -0.124119 -0.033111 0.124293
v -0.033291 0.004306 0.096790
v -0.113979 0.001481 0.108527
v -0.059490 0.022448 0.094156
v -0.043522 0.004306 0.074848
v -0.105523 0.001481 0.126661
v -0.123886 0.014751 0.124185
v -0.111076 -0.033111 -0.123580
v -0.031187 0.010777 -0.079944
v -0.044066 0.028100 -0.099190
v -0.022906 0.010777 -0.102695
v -0.092758 0.001481 -0.127559
v -0.099601 0.001481 -0.108757
v -0.110835 0.014751 -0.123492
v -0.072072 0.025091 -0.116836
v -0.099801 0.022658 0.037920
v -0.078977 0.033826 0.125061
v 0.072072 0.025091 -0.116836
v 0.099801 0.022658 0.037920
v 0.078977 0.033826 0.125061
v -0.065366 -0.004525 0.090223
v 0.065366 -0.004525 0.090223
v 0.051066 -0.011249 -0.047309
v -0.051066 -0.011249 -0.047309
v 0.000000 0.027962 0.142373
v 0.028065 0.020420 -0.140222
v -0.028065 0.020420 -0.140222
v 0.042353 0.074733 0.159541
v -0.042353 0.074733 0.159541
vt 0.998999 0.691580
vt 0.904549 0.746582
vt 0.959496 0.653855
vt 0.999402 0.745323
vt 0.912654 0.556319
vt 0.874681 0.011130
vt 0.936181 0.502213
vt 0.992803 0.008309
vt 0.881893 0.012162
vt 0.879560 0.508612
vt 0.997579 0.507260
vt 0.997333 0.012641
vt 0.705905 0.718475
vt 0.705905 0.014221
vt 0.633256 0.014221
vt 0.602744 0.014221
vt 0.794812 0.718475
vt 0.822285 0.014221
vt 0.778554 0.014221
vt 0.749208 0.889913
vt 0.662603 0.889912
vt 0.589526 0.014221
vt 0.616998 0.718475
vt 0.705905 0.953989
vt 0.809067 0.014221
vt 0.918541 0.873902
vt 0.980470 0.935854
vt 0.873325 0.933945
vt 0.980470 0.811949
vt 0.937663 0.873902
vt 0.969326 0.997872
vt 0.969326 0.749777
vt 0.905034 0.834695
vt 0.873325 0.813751
vt 0.905034 0.916470
vt 0.991087 0.760627
vt 0.990395 0.827777
vt 0.991087 0.987172
vt 0.990395 0.920027
vt 0.978536 0.873902
vt 0.152904 0.777177
vt 0.146829 0.364933
vt 0.036140 0.392779
vt 0.347780 0.364933
vt 0.341704 0.777177
vt 0.307568 0.999501
vt 0.181701 0.999500
vt 0.025284 0.777178
vt 0.003800 0.620862
vt 0.072873 0.139067
vt 0.458469 0.392779
vt 0.469324 0.777177
vt 0.490642 0.620862
vt 0.421569 0.139067
vt 0.056406 0.892154
vt 0.438036 0.892154
vt 0.339806 0.000500
vt 0.154803 0.000500
vt 0.555001 0.948695
vt 0.519966 0.657545
vt 0.570747 0.142368
vt 0.579301 0.832935
vt 0.606370 0.374797
vt 0.784722 0.377769
vt 0.807599 0.836739
vt 0.822464 0.146562
vt 0.868528 0.663353
vt 0.830837 0.953290
vt 0.692655 1.008720
vt 0.745972 0.067309
vt 0.647952 0.065676
vn 0.370200 0.579900 -0.725700
vn -0.298500 0.557600 0.774600
vn -0.299500 0.546200 0.782300
vn 0.419500 0.462200 -0.781200
vn -0.032800 -0.999300 -0.015300
vn -0.823900 -0.416600 -0.384200
vn 0.131600 0.002900 0.991300
vn 0.843900 0.002900 -0.536400
vn 0.136200 0.603700 -0.785500
vn -0.124900 0.590300 0.797500
vn -0.106200 0.453300 0.885000
vn 0.201800 0.405000 -0.891800
vn 0.024700 -0.999700 0.004400
vn -0.895300 -0.416600 -0.157900
vn 0.383600 0.002900 0.923500
vn 0.676400 0.002900 -0.736600
vn -0.071800 0.603700 -0.794000
vn 0.085700 0.590300 0.802600
vn 0.126500 0.453300 0.882300
vn -0.035900 0.405000 -0.913600
vn 0.025000 -0.999700 -0.002200
vn -0.905600 -0.416600 0.079200
vn 0.609600 0.002900 0.792700
vn 0.462700 0.002900 -0.886500
vn -0.140700 0.603700 -0.784700
vn 0.155400 0.590300 0.792100
vn 0.202900 0.453300 0.868000
vn -0.115400 0.405000 -0.907000
vn 0.024700 -0.999700 -0.004400
vn -0.895300 -0.416600 0.157800
vn 0.676400 0.002900 0.736600
vn 0.383700 0.002900 -0.923500
vn 0.380800 0.546000 0.746300
vn -0.224800 0.449500 -0.864500
vn -0.116900 -0.992200 0.042500
vn -0.216400 0.543400 -0.811100
vn 0.391100 0.515500 0.762400
vn -0.854300 -0.416600 0.310900
vn 0.794000 0.002900 0.607900
vn 0.217500 0.002900 -0.976100
vn 0.000000 -0.998400 0.056100
vn 0.853600 0.519700 0.035800
vn -0.853600 0.519700 0.035800
vn 0.000000 -0.999700 -0.025400
vn 0.852900 0.522000 -0.000300
vn -0.804400 0.594100 0.006800
vn -0.853400 0.520900 0.018300
vn 0.861500 0.507700 0.001600
vn 0.180000 0.978300 -0.102700
vn 0.302000 -0.940900 -0.153300
vn -0.778500 0.612500 -0.137300
vn -0.247100 0.959800 -0.133100
vn 0.380600 -0.901400 -0.206400
vn 0.778500 0.612500 -0.137300
vn 0.000000 -0.509400 -0.860500
vn 0.724100 -0.628600 -0.283900
vn -0.440900 0.000000 -0.897500
vn -0.724100 -0.628600 -0.283900
vn 0.639600 0.000000 -0.768700
vn 0.699400 0.693200 -0.174100
vn 0.959400 -0.228200 -0.165800
vn -0.959400 -0.228200 -0.165800
vn -0.639600 0.000000 -0.768700
vn -0.699400 0.693200 -0.174100
vn -0.302000 -0.940900 -0.153300
vn 0.000000 0.509400 -0.860500
vn 0.440900 0.000000 -0.897500
vn 0.000000 -0.815100 -0.579400
vn -0.380600 -0.901400 -0.206400
vn -0.180000 0.978300 -0.102700
vn 0.000000 0.917900 -0.396900
vn 0.247100 0.959800 -0.133100
vn -0.852900 0.522000 -0.000300
vn 0.804400 0.594100 0.006800
vn 0.853400 0.520900 0.018300
vn -0.861500 0.507700 0.001600
vn 0.844000 -0.336400 -0.417700
vn 0.000000 0.772400 -0.635100
vn 0.000000 0.664700 0.747100
vn -0.317200 -0.820200 0.476000
vn -0.844000 -0.335800 -0.418100
vn 0.000000 -0.961300 -0.275600
vn 0.318400 -0.813400 0.486800
vn -0.303700 -0.584100 -0.752700
vn 0.000000 0.980300 -0.197600
vn 0.303800 -0.584300 -0.752500
vn 0.000000 -0.929700 0.368300
vn -0.140700 0.960800 -0.239000
vn 0.140700 0.960800 -0.239000
vn 0.000000 0.947200 0.320800
vn -0.673000 0.738700 0.037500
vn 0.000000 0.999400 0.033500
vn 0.000000 0.881700 0.471800
vn -0.674800 0.737000 0.038700
vn -0.976000 0.217200 -0.016800
vn -0.983400 -0.002700 -0.181400
vn 0.673000 0.738700 0.037500
vn 0.674800 0.737000 0.038700
vn 0.976300 0.215800 -0.017000
vn 0.983400 -0.003900 -0.181400
vn -0.602200 0.657800 0.452400
vn -0.706000 0.403100 0.582300
vn -0.962200 -0.096600 0.254500
vn 0.597100 0.652200 0.467000
vn 0.962000 -0.098400 0.254700
vn 0.692400 0.415900 0.589600
vn 0.919700 0.222800 -0.323300
vn -0.919600 0.223700 -0.323100
vn 0.000000 0.982100 -0.188600
vn 0.685500 0.711200 -0.155900
vn -0.685500 0.711200 -0.155900
vn 0.140700 0.603700 -0.784700
vn -0.155400 0.590300 0.792100
vn -0.202900 0.453300 0.868000
vn 0.115400 0.405000 -0.907000
vn -0.024700 -0.999700 -0.004400
vn 0.895300 -0.416600 0.157800
vn -0.676400 0.002900 0.736600
vn -0.383700 0.002900 -0.923500
vn -0.136200 0.603700 -0.785500
vn 0.124900 0.590300 0.797500
vn 0.106200 0.453300 0.885000
vn -0.201800 0.405000 -0.891800
vn -0.024700 -0.999700 0.004400
vn 0.895300 -0.416600 -0.157900
vn -0.383600 0.002900 0.923500
vn -0.676400 0.002900 -0.736600
vn 0.071800 0.603700 -0.794000
vn -0.085700 0.590300 0.802600
vn -0.126500 0.453300 0.882300
vn 0.035900 0.405000 -0.913600
vn -0.025000 -0.999700 -0.002200
vn 0.905600 -0.416600 0.079200
vn -0.609600 0.002900 0.792700
vn -0.462700 0.002900 -0.886500
vn -0.370100 0.579900 -0.725700
vn 0.298500 0.557600 0.774600
vn 0.299500 0.546200 0.782300
vn -0.419500 0.462200 -0.781200
vn 0.032800 -0.999300 -0.015300
vn 0.823900 -0.416600 -0.384200
vn -0.131600 0.002900 0.991300
vn -0.843900 0.002900 -0.536400
vn -0.380800 0.546000 0.746300
vn 0.224800 0.449500 -0.864500
vn 0.116900 -0.992200 0.042500
vn 0.216400 0.543400 -0.811100
vn -0.391100 0.515500 0.762400
vn 0.854300 -0.416600 0.310900
vn -0.794000 0.002900 0.607900
vn -0.217500 0.002900 -0.976100
vn 0.325100 -0.944700 0.043400
vn -0.325100 0.944700 -0.043400
vn 0.000000 -0.998800 0.048800
vn -0.325100 -0.944700 0.043400
vn 0.325100 0.944700 -0.043400
vn -0.202500 -0.696900 0.688000
vn -0.946600 -0.322000 -0.015400
vn 0.000000 -0.848800 0.528700
vn 0.946600 -0.322000 -0.015400
vn 0.000000 -0.946500 -0.322600
vn 0.813900 -0.578300 -0.056400
vn -0.813900 -0.578300 -0.056400
vn 0.202500 -0.696900 0.688000
vn 0.291500 -0.881100 -0.372500
vn -0.291500 -0.881100 -0.372500
usemtl MATERIAL_#4
s off
f 5/1/1 7/2/1 3/3/1
f 2/1/2 6/3/2 7/2/2
f 4/4/3 2/1/3 7/2/3
f 4/4/4 7/2/4 5/1/4
f 2/1/5 5/1/5 3/3/5
f 2/1/5 3/3/5 6/3/5
f 6/3/6 3/3/6 1/5/6
f 7/2/7 6/3/7 1/5/7
f 3/3/8 7/2/8 1/5/8
f 12/1/9 14/2/9 10/3/9
f 9/1/10 13/3/10 14/2/10
f 11/4/11 9/1/11 14/2/11
f 11/4/12 14/2/12 12/1/12
f 9/1/13 12/1/13 10/3/13
f 9/1/13 10/3/13 13/3/13
f 13/3/14 10/3/14 8/5/14
f 14/2/15 13/3/15 8/5/15
f 10/3/16 14/2/16 8/5/16
f 19/1/17 21/2/17 17/3/17
f 16/1/18 20/3/18 21/2/18
f 18/4/19 16/1/19 21/2/19
f 18/4/20 21/2/20 19/1/20
f 16/1/21 19/1/21 17/3/21
f 16/1/21 17/3/21 20/3/21
f 20/3/22 17/3/22 15/5/22
f 21/2/23 20/3/23 15/5/23
f 17/3/24 21/2/24 15/5/24
f 26/1/25 28/2/25 24/3/25
f 23/1/26 27/3/26 28/2/26
f 25/4/27 23/1/27 28/2/27
f 25/4/28 28/2/28 26/1/28
f 23/1/29 26/1/29 24/3/29
f 23/1/29 24/3/29 27/3/29
f 27/3/30 24/3/30 22/5/30
f 28/2/31 27/3/31 22/5/31
f 24/3/32 28/2/32 22/5/32
f 31/4/33 30/1/33 35/2/33
f 31/4/34 35/2/34 32/1/34
f 30/1/35 32/1/35 33/3/35
f 30/1/35 33/3/35 34/3/35
f 32/1/36 35/2/36 33/3/36
f 30/1/37 34/3/37 35/2/37
f 34/3/38 33/3/38 29/5/38
f 35/2/39 34/3/39 29/5/39
f 33/3/40 35/2/40 29/5/40
f 38/6/41 37/6/41 36/7/41
f 37/6/42 39/8/42 36/7/42
f 39/8/43 38/6/43 36/7/43
f 43/9/44 40/10/44 42/10/44
f 41/9/45 44/11/45 40/10/45
f 45/12/46 43/9/46 44/11/46
f 43/9/44 41/9/44 40/10/44
f 43/9/47 42/10/47 44/11/47
f 45/12/48 44/11/48 41/9/48
f 62/13/49 61/14/49 51/15/49
f 47/16/50 58/14/50 60/13/50
f 50/17/51 56/18/51 46/19/51
f 57/20/52 46/19/52 62/13/52
f 47/16/53 60/13/53 48/21/53
f 51/15/54 55/22/54 54/23/54
f 53/20/55 59/24/55 48/21/55
f 54/23/56 47/16/56 48/21/56
f 53/20/57 57/20/57 59/24/57
f 53/20/58 49/25/58 50/17/58
f 52/21/59 54/23/59 48/21/59
f 52/21/60 51/15/60 54/23/60
f 54/23/61 55/22/61 47/16/61
f 49/25/62 56/18/62 50/17/62
f 53/20/63 50/17/63 57/20/63
f 50/17/64 46/19/64 57/20/64
f 58/14/65 49/25/65 60/13/65
f 57/20/66 52/21/66 59/24/66
f 52/21/67 48/21/67 59/24/67
f 48/21/68 60/13/68 53/20/68
f 60/13/69 49/25/69 53/20/69
f 46/19/70 61/14/70 62/13/70
f 57/20/71 62/13/71 52/21/71
f 62/13/72 51/15/72 52/21/72
f 63/7/41 64/6/41 65/6/41
f 63/7/43 66/8/43 64/6/43
f 63/7/42 65/6/42 66/8/42
f 69/10/44 67/10/44 70/9/44
f 67/10/73 71/11/73 68/9/73
f 71/11/74 70/9/74 72/12/74
f 67/10/44 68/9/44 70/9/44
f 71/11/75 69/10/75 70/9/75
f 68/9/76 71/11/76 72/12/76
f 74/26/77 83/27/77 80/28/77
f 83/27/78 74/26/78 82/29/78
f 76/30/79 78/31/79 77/32/79
f 84/33/80 76/30/80 77/32/80
f 74/26/81 79/34/81 82/29/81
f 80/28/82 79/34/82 74/26/82
f 81/35/83 78/31/83 76/30/83
f 79/34/84 73/36/84 82/29/84
f 82/29/85 86/37/85 83/27/85
f 80/28/86 83/27/86 75/38/86
f 86/37/85 85/39/85 83/27/85
f 76/30/87 84/33/87 81/35/87
f 75/38/88 83/27/88 85/39/88
f 73/36/89 86/37/89 82/29/89
f 87/40/90 77/32/90 78/31/90
f 88/41/91 105/42/91 93/43/91
f 104/44/92 88/41/92 96/45/92
f 91/46/93 88/41/93 90/47/93
f 88/41/94 93/43/94 99/48/94
f 93/43/95 92/49/95 99/48/95
f 92/49/96 93/43/96 103/50/96
f 88/41/92 104/44/92 105/42/92
f 96/45/97 97/51/97 104/44/97
f 91/46/93 96/45/93 88/41/93
f 96/45/98 101/52/98 97/51/98
f 101/52/99 95/53/99 97/51/99
f 102/54/100 97/51/100 95/53/100
f 90/47/101 88/41/101 99/48/101
f 98/55/102 90/47/102 99/48/102
f 99/48/103 92/49/103 98/55/103
f 91/46/104 101/52/104 96/45/104
f 101/52/105 100/56/105 95/53/105
f 100/56/106 101/52/106 91/46/106
f 94/57/107 97/51/107 102/54/107
f 93/43/108 89/58/108 103/50/108
f 105/42/109 104/44/109 94/57/109
f 97/51/110 94/57/110 104/44/110
f 93/43/111 105/42/111 89/58/111
f 105/42/109 94/57/109 89/58/109
f 108/3/112 112/2/112 110/1/112
f 112/2/113 111/3/113 107/1/113
f 112/2/114 107/1/114 109/4/114
f 110/1/115 112/2/115 109/4/115
f 108/3/116 110/1/116 107/1/116
f 111/3/116 108/3/116 107/1/116
f 106/5/117 108/3/117 111/3/117
f 106/5/118 111/3/118 112/2/118
f 106/5/119 112/2/119 108/3/119
f 115/3/120 119/2/120 117/1/120
f 119/2/121 118/3/121 114/1/121
f 119/2/122 114/1/122 116/4/122
f 117/1/123 119/2/123 116/4/123
f 115/3/124 117/1/124 114/1/124
f 118/3/124 115/3/124 114/1/124
f 113/5/125 115/3/125 118/3/125
f 113/5/126 118/3/126 119/2/126
f 113/5/127 119/2/127 115/3/127
f 122/3/128 126/2/128 124/1/128
f 126/2/129 125/3/129 121/1/129
f 126/2/130 121/1/130 123/4/130
f 124/1/131 126/2/131 123/4/131
f 122/3/132 124/1/132 121/1/132
f 125/3/132 122/3/132 121/1/132
f 120/5/133 122/3/133 125/3/133
f 120/5/134 125/3/134 126/2/134
f 120/5/135 126/2/135 122/3/135
f 129/3/136 133/2/136 131/1/136
f 133/2/137 132/3/137 128/1/137
f 133/2/138 128/1/138 130/4/138
f 131/1/139 133/2/139 130/4/139
f 129/3/140 131/1/140 128/1/140
f 132/3/140 129/3/140 128/1/140
f 127/5/141 129/3/141 132/3/141
f 127/5/142 132/3/142 133/2/142
f 127/5/143 133/2/143 129/3/143
f 140/2/144 135/1/144 136/4/144
f 137/1/145 140/2/145 136/4/145
f 138/3/146 137/1/146 135/1/146
f 139/3/146 138/3/146 135/1/146
f 138/3/147 140/2/147 137/1/147
f 140/2/148 139/3/148 135/1/148
f 134/5/149 138/3/149 139/3/149
f 134/5/150 139/3/150 140/2/150
f 134/5/151 140/2/151 138/3/151
f 143/59/152 142/60/152 141/61/152
f 141/61/153 142/60/153 143/59/153
f 147/62/154 150/63/154 149/64/154
f 147/62/154 149/64/154 148/65/154
f 144/66/155 145/67/155 146/68/155
f 144/66/156 146/68/156 145/67/156
f 147/62/157 151/69/157 143/59/157
f 147/62/158 143/59/158 141/61/158
f 147/62/159 148/65/159 151/69/159
f 146/68/160 148/65/160 144/66/160
f 150/63/161 152/70/161 149/64/161
f 149/64/162 144/66/162 148/65/162
f 147/62/163 141/61/163 150/63/163
f 153/71/161 152/70/161 150/63/161
f 146/68/164 151/69/164 148/65/164
f 144/66/165 149/64/165 152/70/165
f 153/71/166 150/63/166 141/61/166
