# Blender v2.75 (sub 0) OBJ File: 'Empty.blend'
# www.blender.org
mtllib MIN_LOB_PLANKS_3X7M.mtl
o MIN_LOB_PLANKS_3X7M
v -0.183647 -0.314946 3.378042
v -7.290593 -0.199518 -1.528874
v -0.183647 -0.314946 -1.528874
v -7.290593 -0.199518 3.378042
v -7.259524 0.176693 -1.528874
v -0.222777 0.011827 3.378042
v -0.218784 -0.071858 -1.528874
v -2.339074 -0.241403 -1.546859
v -7.301416 0.000000 3.378042
v -4.711664 -0.241403 3.360057
v -2.300320 -0.057276 3.292600
v -4.711664 -0.556348 3.360057
v -4.675197 -0.157633 -1.546859
v -2.335377 -0.417436 -1.528874
v -4.707967 -0.417436 -1.528874
v -2.300320 -0.372221 3.292600
vt 0.206639 -0.969355
vt 0.697132 -0.993154
vt 0.213770 -0.006845
vt 0.793361 -0.969355
vt 0.785478 -0.000500
vt 0.302868 -0.993154
vt 0.696379 -0.006845
vt -0.215392 -0.006845
vt -0.223914 -0.999500
vt 0.310286 -0.000500
vt 1.215392 -0.150699
vt 0.689714 -0.469317
vt 1.221712 -0.509235
vt 0.006845 -0.509235
vt 0.999500 -0.509235
vt 0.006845 -0.150699
vt 0.000500 -0.619240
vt 0.993154 -0.619240
vt 0.000500 -0.307819
vt 0.793361 -0.373675
vt 0.302868 -0.549152
vt 0.793361 -0.673824
vt 0.993154 -0.387572
vt 0.213770 -0.716915
vt 0.696379 -0.716915
vt 0.214522 -0.549152
vt 1.216767 -0.006846
vt -0.216767 -0.387572
vt 0.999500 -0.319090
vt -0.223914 -0.319090
vt 0.302868 -0.849301
vt 1.215954 -0.999500
vt 1.215954 -0.307819
vt 1.223914 -0.619240
vt 1.221712 -0.999500
vt -0.221712 -0.509235
vt -0.223914 -0.006846
vt -0.223914 -0.619240
vt 1.221712 -0.006845
vn 0.076400 -0.997000 0.008800
vn -0.077100 0.996300 -0.037300
vn 0.000000 -0.999600 -0.028400
vn 0.128500 0.991000 0.036800
vn -0.006900 0.000600 -1.000000
vn -0.996600 0.082300 0.000000
vn 0.992900 0.118900 0.000000
vn 0.028000 0.000000 0.999600
vn 0.989700 0.143100 -0.001600
vn 0.000000 -0.101600 -0.994800
vn -0.079300 0.996200 -0.037300
vn 0.016500 -0.101300 -0.994700
vn 0.092900 0.995500 0.017700
vn -0.998500 -0.054200 -0.010500
vn 0.006900 0.000000 1.000000
vn -0.032500 0.999300 -0.017100
vn -0.040900 -0.004900 0.999200
vn -0.137200 -0.990100 -0.028200
vn 0.007000 0.000400 1.000000
vn 0.035800 0.999200 0.017300
vn -0.002500 -0.068800 -0.997600
vn 0.047600 -0.998800 0.009000
vn 0.000000 0.000000 -1.000000
vn -0.084100 -0.996500 0.000000
vn -0.005800 -0.068300 -0.997600
vn 0.027000 -0.999600 0.000000
vn -0.040300 0.000000 0.999200
usemtl MIN_LOB_PLANKS_3X7M_1
s off
f 16/1/1 12/2/1 14/3/1
f 11/4/2 8/5/2 10/6/2
f 15/7/3 14/3/3 12/2/3
f 5/8/4 9/9/4 13/10/4
f 5/11/5 13/12/5 2/13/5
f 2/14/6 4/15/6 5/16/6
f 1/17/7 3/18/7 6/19/7
f 11/20/8 10/21/8 16/22/8
f 7/23/9 6/19/9 3/18/9
f 14/24/10 15/25/10 8/26/10
f 8/5/11 11/4/11 7/27/11
f 8/26/12 7/28/12 14/24/12
f 10/6/13 13/10/13 9/9/13
f 9/29/14 5/16/14 4/15/14
f 10/21/15 9/30/15 12/31/15
f 12/31/8 16/22/8 10/21/8
f 6/32/16 7/27/16 11/4/16
f 6/33/17 11/20/17 1/34/17
f 12/2/18 4/35/18 15/7/18
f 4/36/19 12/31/19 9/30/19
f 13/10/20 10/6/20 8/5/20
f 13/12/21 8/26/21 15/25/21
f 14/3/22 3/37/22 16/1/22
f 3/38/23 14/24/23 7/28/23
f 2/39/24 15/7/24 4/35/24
f 15/25/25 2/13/25 13/12/25
f 1/9/26 16/1/26 3/37/26
f 16/22/27 1/34/27 11/20/27
