# Blender v2.75 (sub 0) OBJ File: 'Empty.blend'
# www.blender.org
mtllib MIN_LOB_BRIDGESTAND.mtl
o MIN_LOB_BRIDGESTAND
v -0.876344 -15.053386 -0.343540
v -0.674451 -0.674257 -0.582456
v -0.192431 -0.700902 -0.018231
v -0.674946 -15.193970 -4.304743
v -0.553059 -0.773635 -3.983935
v -0.492231 -15.193970 -3.595911
v -0.474877 -15.080610 0.249922
v -0.341554 -0.773635 -3.318268
v -0.509099 -3.657386 -0.394449
v -0.563528 -1.365116 -3.697457
v -0.445910 -0.697193 -3.573893
v -0.509099 -4.264479 -0.284005
v -0.563528 -4.621202 -3.706896
v -0.445910 -3.946981 -3.624339
v -0.374978 -3.140948 -0.331038
v -0.374978 -3.744875 -0.256773
v -0.560612 -0.747725 -4.581545
v -0.887591 -0.740212 0.614328
v -0.478118 -1.070039 0.552529
v -0.117600 -0.768724 -4.446352
v -0.796407 -0.663435 -0.066964
v -0.949704 -15.193970 -3.820711
v -0.336555 -15.096189 -0.189608
v -0.710785 -3.304732 -0.351148
v -0.710785 -3.909664 -0.265409
v -0.995057 -15.049257 0.061679
v -0.542736 -0.391872 0.450749
v -0.215706 -0.706857 -0.494583
v -0.466324 -0.364472 -4.429590
v -0.668492 -0.754654 -3.642105
v -0.258424 -0.781845 -3.715868
v -0.399531 -0.712229 0.723460
v -0.559099 -1.045058 -4.180269
v -0.388593 -15.193970 -3.941633
v -0.298903 -3.392833 -0.361965
v -0.298903 -3.998305 -0.270055
v -0.831268 -0.736023 -4.368750
v -0.627720 -0.998186 -3.634392
v -0.627720 -4.251106 -3.666349
v -0.173212 -0.655273 0.535430
v -0.399682 -1.038042 -3.652357
v -0.399682 -4.291985 -3.681849
vt 0.098470 0.280173
vt -0.006414 0.280289
vt 0.137604 5.904180
vt 0.123590 0.274905
vt 0.011299 0.275675
vt 0.112710 5.897075
vt 1.998689 5.931137
vt 2.086544 5.936396
vt 2.029038 0.300843
vt 2.141031 -5.942083
vt 2.016471 -5.940711
vt 2.113276 -0.307787
vt 0.041877 5.904435
vt 0.136543 -5.892184
vt 0.016683 -5.878004
vt 0.108162 -0.270138
vt 1.111492 0.307767
vt 1.014468 0.302256
vt 1.108081 5.938416
vt 2.032579 -0.298937
vt 1.005188 1.525309
vt 1.131940 1.578098
vt 1.001498 -0.055679
vt 1.013581 0.023563
vt 1.130972 -0.038464
vt 1.005826 -1.543909
vt -0.001082 2.170199
vt 0.123282 2.140244
vt 0.030075 0.832422
vt 1.009335 -0.872409
vt 1.119749 -0.840809
vt 1.011753 -2.207739
vt 1.119904 0.120288
vt 1.019820 0.071113
vt 1.106263 1.701179
vt 1.133624 -1.608865
vt 0.129192 0.828607
vt 0.012336 0.845099
vt 0.128039 2.166777
vt 1.132704 -2.184903
vt 1.127427 -0.648744
vt 1.009791 -0.666407
vt 1.106232 0.735535
vt 1.115559 -0.897827
vt 1.005980 -0.928435
vt 1.132861 1.008557
vt 0.998216 0.554106
vt 1.122173 0.633519
vt 1.008527 -0.883698
vt 1.004615 1.017821
vt 0.032053 -0.262388
vt 0.133046 -0.266118
vt 0.005971 -5.882354
vt -0.999499 5.945461
vt -0.880714 5.941549
vt -0.991328 0.303710
vt 0.004172 5.894708
vt 1.132928 -1.520592
vt 1.002875 -1.489431
vt 1.123849 0.046545
vt 1.132559 -1.862313
vt 1.012249 -1.870572
vt 1.129509 -0.527397
vt 0.086473 -5.883482
vt 0.126221 -0.872353
vt 0.021536 -0.832733
vt 0.117151 0.334572
vt 0.023590 0.360179
vt 0.149083 0.381858
vt 0.087287 0.252009
vt 0.008420 -0.259854
vt 0.005923 0.349307
vt 0.131856 -0.786179
vt -0.000676 -0.833281
vt 0.053695 -0.672503
vt -0.883996 0.307332
vt 2.104763 0.301996
vt 0.062927 0.261435
vt 0.143466 0.164609
vt -0.002936 0.183806
vt 1.130895 -0.880175
vt 1.013930 0.791008
vt 1.119851 0.130847
vt 0.991780 0.196233
vt 1.134921 0.324923
vt 1.021845 5.936534
vt 1.092852 -0.007791
vt 0.125285 0.822156
vt 1.098905 -1.154439
vt 1.000531 -1.108588
vt 1.133175 -0.995222
vt 1.109705 -0.045521
vt 0.993151 0.083686
vt 1.134207 0.085490
vt 1.005484 0.096508
vt 1.016429 -0.553028
vt -1.004124 -0.133142
vt -0.923550 -0.026450
vt -0.871308 -0.100012
vt -0.001824 0.356704
vt 0.129240 0.362690
vt 0.084453 0.296866
vt 0.999762 1.641505
vt 0.001758 2.189443
vn -0.079200 0.020100 0.996700
vn 0.998800 -0.009400 -0.048700
vn 0.785200 0.002600 -0.619200
vn -0.869500 0.018300 -0.493600
vn -0.339600 0.013100 0.940500
vn 0.272500 -0.022700 -0.961900
vn 0.978700 -0.012000 0.204900
vn -0.946800 0.022400 -0.321000
vn 0.991000 0.121400 0.056500
vn -0.980300 -0.149200 -0.129600
vn 0.989400 0.139400 -0.041200
vn -0.985400 -0.170100 -0.007000
vn 0.738900 -0.537100 -0.407000
vn -0.844400 -0.446600 -0.296000
vn 0.783700 -0.620400 0.030300
vn -0.866000 -0.495700 0.065400
vn -0.626700 -0.779200 0.006600
vn 0.578300 0.815700 0.013600
vn 0.524700 -0.851200 -0.013500
vn 0.757000 0.653300 -0.006400
vn -0.973000 0.011400 -0.230400
vn -0.441000 -0.002500 0.897500
vn 0.953700 -0.013100 0.300600
vn -0.399300 0.754900 0.520200
vn -0.436200 0.894200 -0.100400
vn -0.959600 0.008800 -0.281200
vn -0.712400 0.701800 -0.007500
vn -0.209500 0.577800 0.788800
vn 0.186800 -0.018900 -0.982200
vn -0.714000 0.700100 -0.007200
vn 0.291900 0.289600 -0.911500
vn -0.703900 -0.006300 0.710300
vn 0.673100 0.010800 -0.739500
vn -0.179300 -0.391700 0.902400
vn 0.806000 -0.591600 0.022500
vn -0.747700 -0.664000 -0.009000
vn 0.142300 -0.795000 -0.589600
vn 0.957800 -0.015500 0.287100
vn 0.947800 0.264300 0.178500
vn 0.956600 0.289100 -0.037500
vn -0.549200 0.421300 -0.721700
vn -0.448600 -0.718900 -0.531000
vn -0.832500 0.433500 0.344900
vn -0.857500 0.514400 -0.012800
vn 0.349500 0.693000 0.630600
vn 0.636500 -0.441800 0.632200
vn 0.871200 -0.396500 -0.289500
vn 0.893800 -0.447300 0.032400
usemtl MIN_LOB_BRIDGESTAND_1
s off
f 3/1/1 21/2/1 7/3/1
f 28/4/2 3/5/2 23/6/2
f 34/7/3 4/8/3 31/9/3
f 4/10/4 22/11/4 5/12/4
f 26/13/5 7/3/5 21/2/5
f 23/14/6 1/15/6 28/16/6
f 31/17/7 8/18/7 34/19/7
f 30/20/8 5/12/8 22/11/8
f 41/21/9 11/22/9 35/23/9
f 38/24/10 10/25/10 24/26/10
f 42/27/11 14/28/11 36/29/11
f 39/30/12 13/31/12 25/32/12
f 35/33/13 9/34/13 41/35/13
f 9/36/14 24/26/14 10/25/14
f 36/37/15 12/38/15 42/39/15
f 12/40/16 25/32/16 13/31/16
f 19/41/17 18/42/17 33/43/17
f 27/44/18 40/45/18 29/46/18
f 33/47/19 20/48/19 19/49/19
f 20/50/20 29/46/20 40/45/20
f 21/51/21 2/52/21 26/53/21
f 22/54/22 6/55/22 30/56/22
f 7/57/23 23/6/23 3/5/23
f 24/58/24 15/59/24 38/60/24
f 25/61/25 16/62/25 39/63/25
f 1/64/26 26/53/26 2/52/26
f 18/65/27 27/66/27 37/67/27
f 27/68/28 18/69/28 32/70/28
f 2/71/29 28/16/29 1/15/29
f 29/72/30 37/67/30 27/66/30
f 29/73/31 20/74/31 17/75/31
f 8/76/32 30/56/32 6/55/32
f 5/77/33 31/9/33 4/8/33
f 32/78/34 18/79/34 19/80/34
f 40/81/35 19/49/35 20/48/35
f 37/82/36 33/43/36 18/42/36
f 17/83/37 20/84/37 33/85/37
f 6/86/38 34/19/38 8/18/38
f 15/87/39 35/23/39 11/22/39
f 16/88/40 36/29/40 14/28/40
f 17/89/41 37/90/41 29/91/41
f 17/92/42 33/93/42 37/94/42
f 11/95/43 38/60/43 15/59/43
f 14/96/44 39/63/44 16/62/44
f 27/97/45 32/98/45 40/99/45
f 19/100/46 40/101/46 32/102/46
f 10/103/47 41/35/47 9/34/47
f 13/104/48 42/39/48 12/38/48
