# Blender v2.75 (sub 0) OBJ File: 'Empty.blend'
# www.blender.org
mtllib MIN_LOB_BRIDGERAMP.mtl
o MIN_LOB_BRIDGERAMP
v 4.429697 -0.913687 -2.243386
v 4.383458 -0.869861 1.666233
v 0.170679 -0.960589 1.749672
v 4.030089 1.619148 1.569683
v 0.264765 -0.935167 -2.029515
v 4.052584 1.497196 -1.799361
v 2.716835 0.885359 1.827657
v 3.244243 1.066925 1.517992
v 1.787226 0.120505 1.397490
v 1.738606 0.463552 1.422477
v 2.273187 0.906364 -1.932658
v 4.052584 1.237874 -1.799361
v 2.716835 0.631383 1.629755
v 4.068941 1.232034 1.296043
v 4.067899 1.673466 1.318456
v 0.300577 -0.850380 -1.749344
v 4.038186 1.487196 -1.997262
v 0.163809 -0.746401 1.715594
v 0.264765 -0.602173 -2.029515
v 0.350151 -0.511105 -1.786747
v 0.246280 -0.648723 1.535957
v 2.272440 0.902245 -1.713043
v 1.368355 -0.078002 -1.846546
v 3.577538 1.486427 -2.128894
v 0.209883 -0.844978 1.536270
v 4.096902 0.384164 1.578809
v 4.167647 0.272518 -2.155540
v 4.409809 -0.133953 -2.156875
v 2.716835 0.890706 1.629755
v 3.387142 0.691372 -0.340769
v 2.508325 -1.053716 1.823112
v 1.738606 0.456374 1.620379
v 1.762195 -0.935167 1.625383
v 3.319571 -0.935830 -2.327691
v 3.577428 1.485098 -1.834397
v 1.665366 -0.158433 0.008423
v 3.244243 1.062562 1.715894
v 3.622731 1.123628 -1.821484
v 1.783374 -0.951226 -2.205781
v 3.171161 0.922291 1.525665
v 3.313300 -0.999172 1.670661
v 2.413297 0.455792 -1.756787
v 1.229478 0.162552 -1.826124
v 2.680107 0.361152 -0.264189
v 4.087986 1.186678 -0.053388
v 1.229478 0.155375 -2.024025
vt 0.817169 0.384961
vt 0.290984 0.432161
vt 0.359239 0.647184
vt 0.390572 -0.318724
vt -0.370348 -0.519687
vt -0.404532 -0.051254
vt 0.086846 0.870149
vt 0.674882 0.832430
vt 0.758982 0.402929
vt 0.098204 -0.318201
vt 0.124276 -0.238261
vt 0.148561 -0.856458
vt 0.389412 -0.476256
vt 0.265478 -0.832831
vt 1.859411 -1.043627
vt 2.385581 -1.140375
vt 2.179078 -1.775720
vt 1.666050 0.822155
vt 1.635201 0.415156
vt 1.372649 0.239328
vt 0.742470 0.353118
vt 0.117781 0.722756
vt 1.692227 0.032850
vt 1.355949 0.190383
vt -0.164560 0.390297
vt -0.431659 0.464536
vt -0.187558 0.762049
vt 0.721452 -1.331812
vt 0.068367 -1.204922
vt 0.749096 -1.464099
vt 1.324705 -1.476915
vt 1.682641 -1.576283
vt 1.281450 -1.434759
vt 1.155882 0.271504
vt 1.123491 -1.489898
vt 1.720657 -1.890701
vt 0.034448 0.737212
vt 0.337279 -0.924339
vt 1.049811 -1.491804
vt 1.014908 -1.308479
vt 1.490422 -1.297397
vt 1.089848 -1.395626
vt -0.011271 0.355327
vt 1.626357 -1.414937
vt -0.045160 -0.812803
vt 1.688483 -0.044296
vt -0.271355 -0.991161
vt -0.361849 -0.972787
vt -0.265463 -0.830077
vt 0.167119 0.053044
vt 0.166236 0.124804
vt 0.564013 0.090381
vt 0.565210 0.155097
vt 0.266731 -0.927438
vt -0.272331 0.093931
vt -0.272580 0.190176
vt 0.095715 0.796028
vt 0.110324 -0.796103
vt 0.023376 -0.240551
vt 2.552097 -1.573394
vt -0.007407 -0.309364
vt 0.088608 0.943749
vt 0.083839 -0.848305
vt 1.539131 -1.431700
vt 0.233276 -1.386094
vt 0.160123 -1.278665
vt 0.611367 -1.331949
vt 0.611392 -1.443313
vt 1.562786 -1.866365
vt 0.794248 1.538757
vt 0.790071 1.477831
vt 0.657020 1.437370
vt 0.048941 -0.796978
vt 0.105924 -1.271190
vt 1.543809 -1.423003
vt 0.417951 -0.033500
vt 1.469325 -1.263832
vt -0.305059 0.965358
vt -0.430311 0.668091
vt -0.428344 0.956794
vt 1.256320 0.863020
vt 1.172516 0.320751
vt 0.963791 0.916477
vt 1.478772 -0.983793
vt 0.656986 1.527918
vt 1.638274 -1.251108
vt 1.682919 -1.341021
vt 0.422896 0.973788
vt 0.795143 0.939506
vt 2.905021 -1.249073
vt 2.898116 -1.366800
vt 0.944562 0.157605
vt 0.906979 0.078077
vn -0.525900 0.841600 -0.122900
vn 0.972900 0.225800 0.050200
vn 0.077800 0.004900 0.997000
vn -0.896500 0.442600 -0.019300
vn 0.993500 0.112700 0.015500
vn -0.079700 0.165500 -0.983000
vn 0.253500 0.124800 0.959200
vn -0.595900 0.802500 0.029100
vn -0.575700 0.817500 0.018000
vn -0.357500 0.920900 -0.155300
vn -0.120900 0.055100 -0.991100
vn -0.306200 0.104500 -0.946200
vn -0.405800 0.913300 0.033100
vn 0.166400 0.095100 -0.981500
vn -0.191600 0.100500 -0.976300
vn -0.431900 0.887700 -0.159800
vn 0.993700 0.099100 0.052500
vn 0.091000 -0.068600 0.993500
vn 0.242400 0.000000 -0.970200
vn -0.450400 0.882200 -0.137600
vn -0.263100 0.048300 -0.963600
vn 0.999300 -0.032000 -0.021200
vn -0.576600 0.812200 0.088800
vn 0.989000 -0.005200 0.147700
vn -0.579400 0.814900 0.013300
vn -0.582100 0.812600 -0.029500
vn 0.997400 0.000000 -0.072600
vn -0.405800 0.913900 0.004000
vn -0.058800 0.155000 0.986200
vn -0.960800 0.276000 -0.027000
vn -0.991900 0.000000 0.126800
vn -0.022300 0.151200 -0.988300
vn -0.948000 0.168300 0.270300
vn -0.408000 0.903700 0.130200
vn -0.593500 0.789400 0.156800
vn -0.974500 -0.065400 -0.214500
vn -0.406500 0.913500 0.015700
vn 0.072700 0.044700 0.996400
vn 0.012500 0.107800 0.994100
vn -0.034000 -0.104000 0.994000
vn 0.274300 0.049600 -0.960400
vn 0.013000 0.998600 -0.051400
vn -0.927400 0.171500 -0.332500
vn -0.086500 0.014500 -0.996100
vn 0.171500 0.016600 0.985000
vn 0.996400 0.054400 0.064500
vn 0.014900 0.130800 -0.991300
vn 0.999600 0.024200 0.011600
vn 0.106400 0.066700 -0.992100
vn 0.859100 0.511800 0.001000
vn -0.312800 0.949600 0.020900
vn -0.227000 0.063200 -0.971800
vn -0.468300 0.865400 0.178100
vn -0.586500 0.809200 0.035600
vn 0.006800 -0.021700 0.999700
vn -0.405900 0.913600 0.024700
vn -0.216000 0.020900 0.976200
vn -0.256300 -0.000900 0.966600
vn 0.073000 0.111800 -0.991000
vn -0.025800 0.999700 0.004500
vn -0.073500 0.000000 0.997300
vn -0.573700 0.809100 0.126900
vn -0.438200 0.898800 -0.013600
vn 0.211900 -0.014300 0.977200
vn -0.313500 0.949200 0.025600
vn -0.261000 0.937000 0.232000
vn -0.058900 0.028300 0.997900
vn -0.115300 0.000000 -0.993300
vn -0.223300 0.000000 -0.974700
vn -0.553400 0.826000 -0.107100
vn 0.187500 -0.022500 0.982000
vn -0.030700 -0.107100 0.993800
vn -0.459900 0.877200 0.137800
vn -0.608400 0.789400 -0.082100
vn 0.075900 -0.040800 0.996300
vn -0.430000 0.896400 0.107700
vn -0.477100 0.871300 -0.115100
vn 0.999200 0.037200 0.012900
vn -0.567000 0.823000 -0.035700
vn -0.087500 0.118600 -0.989100
vn -0.617200 0.786300 -0.028500
usemtl MIN_LOB_BRIDGERAMP_1
s off
f 25/1/1 9/2/1 36/3/1
f 28/4/2 26/5/2 2/6/2
f 3/7/3 33/8/3 32/9/3
f 16/10/4 5/11/4 3/12/4
f 26/5/5 27/13/5 12/14/5
f 34/15/6 39/16/6 11/17/6
f 2/18/7 26/19/7 37/20/7
f 10/21/8 21/22/8 32/9/8
f 37/20/9 4/23/9 8/24/9
f 40/25/10 14/26/10 30/27/10
f 9/28/11 25/29/11 10/30/11
f 8/31/12 15/32/12 40/33/12
f 10/21/13 32/9/13 29/34/13
f 9/28/14 10/30/14 29/35/14
f 34/15/15 11/17/15 24/36/15
f 40/25/16 30/27/16 44/37/16
f 12/14/17 27/13/17 17/38/17
f 22/39/18 42/40/18 38/41/18
f 13/42/19 9/28/19 29/35/19
f 36/3/20 9/2/20 13/43/20
f 15/32/21 14/44/21 40/33/21
f 12/14/22 45/45/22 26/5/22
f 4/23/23 15/46/23 8/24/23
f 15/47/24 4/48/24 14/49/24
f 22/50/25 11/51/25 43/52/25
f 46/53/26 43/52/26 11/51/26
f 12/14/27 17/38/27 6/54/27
f 35/55/28 24/56/28 11/51/28
f 18/57/29 3/7/29 32/9/29
f 3/12/30 25/58/30 16/10/30
f 16/10/31 19/59/31 5/11/31
f 39/16/32 46/60/32 11/17/32
f 20/61/33 19/59/33 16/10/33
f 42/62/34 44/37/34 30/27/34
f 21/22/35 18/57/35 32/9/35
f 3/12/36 18/63/36 25/58/36
f 11/51/37 22/50/37 35/55/37
f 35/64/38 22/39/38 38/41/38
f 20/65/39 16/66/39 23/67/39
f 43/68/40 23/67/40 22/39/40
f 24/36/41 17/69/41 34/15/41
f 6/70/42 17/71/42 24/72/42
f 25/58/43 18/63/43 21/73/43
f 25/29/44 21/74/44 10/30/44
f 26/19/45 4/23/45 37/20/45
f 26/5/46 14/49/46 4/48/46
f 17/69/47 27/75/47 34/15/47
f 2/6/48 1/76/48 28/4/48
f 27/75/49 28/77/49 34/15/49
f 27/13/50 26/5/50 28/4/50
f 37/20/51 8/24/51 29/34/51
f 8/31/52 40/33/52 29/35/52
f 38/78/53 42/62/53 30/27/53
f 45/79/54 12/80/54 30/27/54
f 41/81/55 2/18/55 37/20/55
f 7/82/56 29/34/56 32/9/56
f 7/82/57 32/9/57 31/83/57
f 32/9/58 33/8/58 31/83/58
f 28/77/59 1/84/59 34/15/59
f 35/85/60 6/70/60 24/72/60
f 12/86/61 6/87/61 35/64/61
f 23/88/62 16/89/62 36/3/62
f 16/89/63 25/1/63 36/3/63
f 37/20/64 7/82/64 41/81/64
f 29/34/65 7/82/65 37/20/65
f 12/80/66 38/78/66 30/27/66
f 38/41/67 12/86/67 35/64/67
f 5/90/68 19/91/68 39/16/68
f 13/42/69 29/35/69 40/33/69
f 44/37/70 13/43/70 40/25/70
f 7/82/71 31/83/71 41/81/71
f 42/40/72 22/39/72 23/67/72
f 42/62/73 23/88/73 44/37/73
f 19/92/74 20/93/74 43/52/74
f 43/68/75 20/65/75 23/67/75
f 23/88/76 36/3/76 44/37/76
f 44/37/77 36/3/77 13/43/77
f 45/45/78 14/49/78 26/5/78
f 14/26/79 45/79/79 30/27/79
f 19/91/80 46/60/80 39/16/80
f 46/53/81 19/92/81 43/52/81
