# Blender v2.75 (sub 0) OBJ File: 'Empty.blend'
# www.blender.org
mtllib MIN_LOB_PLANKS_3X11M.mtl
o MIN_LOB_PLANKS_3X11M
v 1.624052 -1.057142 3.115308
v -3.993655 -0.024117 -2.274123
v 7.328214 -0.680112 3.113613
v 7.328214 -0.680112 -2.268088
v -3.873276 -0.394585 3.079566
v 4.449053 -0.917162 3.100687
v 7.329658 -0.829484 -2.274123
v 7.329658 -0.829484 3.107578
v -3.940230 -0.215783 -2.274123
v 1.624052 -1.057142 -2.266392
v -3.869874 -0.512507 3.085986
v 1.624052 -0.776413 -2.266392
v 4.383836 -0.517404 -2.198975
v 1.624052 -0.776413 3.115308
v -1.161927 -0.839906 -2.266392
v -1.161927 -0.559178 -2.266392
v -1.161928 -0.839906 3.115308
v 4.438996 -1.043996 3.107578
v 4.386853 -0.899356 -2.203949
v -1.161928 -0.559178 3.115308
vt 0.509017 -0.003361
vt -0.057840 -0.026468
vt 0.509017 -0.999500
vt 0.490983 -0.003361
vt 0.490983 -0.999500
vt 1.057221 -0.028309
vt 1.661333 -0.998873
vt 1.661333 -0.002734
vt 1.070601 -0.994090
vt -0.661629 -0.996640
vt -0.068538 -0.996640
vt -0.661629 -0.000501
vt -0.080630 -0.999500
vt 1.080630 -0.999500
vt 1.068538 -0.986788
vt 1.661629 -0.779341
vt 1.070601 -0.864131
vt 0.490983 -0.728018
vt -0.080630 -0.517938
vt 0.997266 -0.634889
vt 0.001127 -0.634889
vt 0.999499 -0.779341
vt -0.057840 -0.846912
vt -0.057221 -0.477540
vt 1.661333 -0.634889
vt 0.003360 -0.779341
vt 1.650668 -0.000500
vt 1.636232 -0.988649
vt 1.661629 -0.000500
vt 0.509017 -0.728018
vt 1.080630 -0.789420
vt 1.650668 -0.185853
vt 1.080630 -0.517938
vt 1.080630 -0.003361
vt 0.986273 -0.358766
vt 0.000500 -0.000499
vt 0.988649 -0.472804
vt -0.080630 -0.789420
vt -0.636931 -0.986273
vt -0.080630 -0.003361
vt -0.661333 -0.634889
vt -0.636232 -0.472804
vt -0.636931 -0.358766
vt -0.661629 -0.779341
vn 0.057000 -0.998400 0.000000
vn -0.093400 0.995600 0.000000
vn -0.082100 0.996600 0.000000
vn 0.074000 -0.997300 -0.000000
vn 0.077700 0.997000 0.000000
vn -0.077700 -0.997000 0.000000
vn -0.004000 0.054600 0.998500
vn 0.000000 0.000000 1.000000
vn 1.000000 0.009700 0.000000
vn 0.021800 0.013200 -0.999700
vn -0.001200 -0.040400 0.999200
vn -0.963300 -0.268500 -0.002200
vn 0.024400 0.000000 -0.999700
vn 0.002800 0.000000 -1.000000
vn -0.218800 -0.974400 -0.051100
vn -0.999400 -0.027700 0.020600
vn 0.002900 0.000800 -1.000000
vn 0.185100 0.980600 0.063700
vn 0.056800 0.995600 0.074400
vn -0.022800 0.012800 -0.999700
vn 0.050000 0.996000 0.074500
vn 0.007800 0.053600 0.998500
vn 0.000000 0.000000 -1.000000
vn -0.120000 -0.992800 0.000000
vn -0.004300 0.054200 0.998500
vn 0.004600 -0.999600 -0.027300
vn 0.002700 0.000000 1.000000
vn 0.023100 -0.999400 -0.027400
vn -0.024800 0.040100 -0.998900
vn 0.060600 0.998200 0.000000
vn -0.013200 0.000000 0.999900
usemtl MIN_LOB_PLANKS_3X11M_1
s off
f 10/1/1 19/2/1 1/3/1
f 12/4/2 14/5/2 13/6/2
f 3/7/3 4/8/3 6/9/3
f 8/10/4 18/11/4 7/12/4
f 14/5/5 12/4/5 20/13/5
f 1/3/6 17/14/6 10/1/6
f 18/15/7 8/16/7 6/17/7
f 14/18/8 20/19/8 1/5/8
f 4/20/9 3/21/9 7/22/9
f 19/23/10 10/3/10 13/24/10
f 3/25/11 6/17/11 8/16/11
f 8/26/9 7/22/9 3/21/9
f 9/27/12 11/28/12 2/29/12
f 12/30/13 13/24/13 10/3/13
f 15/31/14 9/32/14 16/33/14
f 9/27/15 15/34/15 11/28/15
f 5/35/16 2/36/16 11/37/16
f 17/38/8 1/5/8 20/19/8
f 2/29/17 16/33/17 9/32/17
f 2/12/18 5/39/18 16/40/18
f 13/6/19 6/9/19 4/8/19
f 13/24/20 4/41/20 19/23/20
f 6/9/21 13/6/21 14/5/21
f 6/17/22 14/18/22 18/15/22
f 15/34/6 10/1/6 17/14/6
f 10/3/23 15/31/23 12/30/23
f 16/40/5 20/13/5 12/4/5
f 16/33/23 12/30/23 15/31/23
f 17/14/24 11/28/24 15/34/24
f 11/42/25 17/38/25 5/43/25
f 18/11/26 1/3/26 19/2/26
f 1/5/27 18/15/27 14/18/27
f 19/2/28 7/12/28 18/11/28
f 7/44/29 19/23/29 4/41/29
f 20/13/30 16/40/30 5/39/30
f 20/19/31 5/43/31 17/38/31
