# Blender v2.75 (sub 0) OBJ File: 'Empty.blend'
# www.blender.org
mtllib NC_BIRDFRIGHTENER.mtl
o NC_BIRDFRIGHTENER
v 0.001134 0.565101 -0.852498
v 0.007716 -0.408719 -0.565331
v -0.105342 -1.209070 -0.329647
v 0.006041 0.375625 0.915457
v 0.006041 -0.388503 0.498302
v 0.005746 0.375624 0.081145
v -0.024133 0.467749 0.515740
v 0.141229 -0.576887 -0.092533
v -0.038862 -0.397653 -0.256643
v -0.024133 0.467749 -0.295290
v -0.070597 0.210869 0.483083
v -0.070301 -1.136097 0.096829
v -0.070301 0.210868 -0.289427
v -0.062743 0.377588 -0.050126
v -0.062743 0.377588 -0.884438
v -0.063039 -0.243654 -0.467282
v 0.006041 0.378048 0.198501
v 0.006041 0.378047 -0.635811
v 0.005746 -0.209743 -0.218655
v -0.093969 1.163171 -1.118136
v -0.062743 0.379984 1.000724
v -0.062743 0.379984 0.166412
v -0.063038 -0.066874 0.583568
v -0.089154 -0.932493 -0.092533
v 0.122513 -0.894435 0.312983
v 0.035172 -0.015421 0.507269
v -0.084734 0.138340 -0.740211
v 0.093039 0.210868 0.335692
v 0.093335 -1.136097 0.117469
v 0.093335 0.210868 -0.100755
v -0.089154 -0.650622 0.122570
v -0.110628 0.856868 -1.090744
v 0.180450 0.959188 0.092796
v -0.149046 0.599709 0.257607
v -0.083342 1.034525 0.035056
v -0.145788 -0.727213 0.381102
v -0.085722 1.221483 -0.890385
v -0.100226 0.767477 -0.754672
v 0.122513 -0.419312 0.053731
v 0.023593 0.430824 1.118136
v -0.064069 0.430824 -0.881864
v 0.023592 0.343162 -0.881864
v 0.088715 0.749768 -0.048359
v 0.075842 0.778517 0.059726
v 0.075842 -1.221483 0.059726
v -0.024158 0.778517 0.059726
v -0.024158 -1.221483 0.059726
v -0.092864 0.411610 0.515740
v -0.064069 0.430824 1.118136
v 0.044598 0.411610 -0.295290
v -0.024133 0.430677 0.110225
v 0.175984 0.796585 0.169761
v -0.098232 0.731529 0.002299
v 0.007763 0.788392 0.267222
v -0.069037 0.575583 0.075663
v 0.002684 0.614059 0.254923
v 0.120282 0.926910 -0.057587
v -0.072790 -1.220618 -0.375070
v 0.075842 0.778517 0.159726
v -0.024158 0.778517 0.159726
v 0.075842 -1.221483 0.159726
v -0.024158 -1.221483 0.159726
v -0.177205 0.875170 0.163018
v -0.046078 1.054516 0.128194
v 0.008912 -0.393517 -0.510343
v 0.023593 0.343162 1.118136
v -0.064069 0.343162 1.118136
v 0.023592 0.430824 -0.881864
v -0.064069 0.343162 -0.881864
v -0.100456 0.873899 0.250738
v -0.180144 0.583026 0.179881
v -0.043212 0.768622 -0.756746
v -0.056022 0.862781 -1.075268
v -0.042057 0.587078 -0.891523
v -0.178874 0.831829 0.054738
v -0.079833 0.563388 -0.849870
v -0.017985 0.512058 -0.919635
v -0.030868 0.134857 -0.758719
v 0.010937 0.550013 -0.908274
v -0.065409 0.513197 -0.910330
v 0.164619 0.721546 0.058816
v -0.092864 0.411610 -0.295290
v 0.044598 0.411610 0.515740
v -0.043410 0.697988 0.029109
v -0.072715 0.759108 -0.788021
v -0.145401 0.993149 0.124992
v -0.037814 0.536920 -0.827329
v -0.071594 -1.205415 -0.320082
v 0.010218 0.003296 -0.257244
v 0.034983 0.740044 0.225044
v 0.017639 0.972711 -0.058836
v 0.099096 1.016410 0.144756
v 0.087673 1.017380 0.026317
v -0.077337 0.854715 -1.102183
v -0.071104 0.773576 -0.735739
v -0.106081 -1.218465 -0.363632
v 0.029030 -0.400654 -0.538416
v -0.051476 -1.212552 -0.348155
v -0.062145 0.855336 0.249065
v -0.077258 0.791316 0.268469
v -0.146862 0.809888 0.037323
v -0.161868 0.745926 0.056996
v -0.166549 0.747198 0.186152
v -0.065682 0.743331 0.241858
v -0.128914 0.709409 0.083816
v 0.187094 0.811367 0.030564
v -0.142085 0.562249 0.215043
v -0.125014 0.844829 0.174923
v -0.064199 -0.046614 0.446235
v -0.145788 0.388145 0.312983
v -0.142638 0.835375 0.130875
v -0.093014 0.868091 -1.051978
v -0.025575 -0.406567 -0.553892
v -0.085473 0.128945 -0.774195
v -0.050986 0.141994 -0.730646
v 0.008483 0.980073 0.208549
v -0.086018 0.929376 -0.027645
v -0.161798 0.695088 0.233659
v -0.187094 0.681517 0.170433
v -0.157920 0.822665 0.166528
v -0.182911 0.774752 0.186814
v 0.097521 0.388145 -0.092533
v -0.024836 -0.397171 -0.519908
v -0.145788 0.388145 -0.092533
v -0.145221 0.791799 0.202328
v -0.167959 0.779601 0.145495
v -0.082419 0.964580 0.215697
v -0.155276 0.925494 0.033597
v 0.097521 0.388145 0.312983
v 0.021343 1.041370 0.048001
v -0.052182 0.126792 -0.785634
v -0.145788 0.388145 0.110225
v -0.086134 0.807891 -0.027658
v 0.025664 0.867868 0.251769
v -0.123813 0.585437 0.254694
v -0.157664 0.567277 0.170087
v -0.137771 0.726671 0.228976
v -0.170914 0.708890 0.146138
v -0.024133 0.503297 0.110225
v -0.179717 0.649865 0.212281
v -0.024133 0.492538 -0.092533
v 0.023450 0.672088 0.240392
v -0.052401 0.631396 0.050810
v -0.024133 0.492538 0.312983
v -0.070301 0.210869 0.483083
v -0.070597 0.210868 -0.289427
v -0.070597 -1.136097 0.096829
v -0.062743 -0.066874 0.583568
v -0.062743 -0.243654 -0.467282
v 0.006041 0.375624 0.081145
v 0.006041 -0.209743 -0.218655
v 0.005746 -0.388503 0.498302
v 0.005746 0.375625 0.915457
v 0.005746 0.378047 -0.635811
v 0.005746 0.378048 0.198501
v 0.093335 0.210868 0.335692
v 0.093039 0.210868 -0.100755
v 0.093039 -1.136097 0.117469
v -0.063038 0.379984 0.166412
v -0.063038 0.379984 1.000724
v -0.063039 0.377588 -0.884438
v -0.063039 0.377588 -0.050126
v 0.097521 0.388145 0.110225
v -0.081456 -1.213224 -0.347317
vt 0.500000 -0.999500
vt 1.843656 -0.000500
vt -0.843656 -0.000500
vt 0.650545 -0.813301
vt 0.485176 -0.093159
vt 0.010997 -0.093159
vt 0.485176 -0.813357
vt 0.956833 -0.813108
vt 0.010997 -0.068779
vt 0.808664 -0.813118
vt 0.503219 -0.093159
vt 0.148144 -0.813137
vt 0.995441 -0.093159
vt 0.901620 -0.813190
vt 0.503219 -0.813370
vt 0.977397 -0.042136
vt -0.018971 -0.813215
vt 0.503219 -0.813250
vt 0.977397 -0.093159
vt 0.485175 -0.033319
vt 0.503219 -0.033319
vt 0.903079 -0.813101
vt 0.995441 -0.042136
vt 0.010997 -0.027151
vt 0.679358 -0.994605
vt 0.663758 -0.659700
vt 0.649018 -0.659700
vt 0.661553 -0.994605
vt 0.662386 -0.659700
vt 0.691378 -0.663094
vt 0.643790 -0.439943
vt 0.707980 -0.432387
vt 0.677551 -0.428993
vt 0.633830 -0.428993
vt 0.676956 -0.439943
vt 0.633366 -0.432387
vt 0.694039 -0.269911
vt 0.702173 -0.117620
vt 0.706244 -0.117620
vt 0.656511 -0.253421
vt 0.697298 -0.114226
vt 0.690171 -0.114226
vt 0.646072 -0.184586
vt 0.637147 -0.184586
vt 0.645885 0.004817
vt 0.653528 -0.269408
vt 0.635101 -0.279110
vt 0.672494 -0.264371
vt 0.654452 -0.184586
vt 0.503286 -1.000000
vt 0.603286 -1.000000
vt 0.603286 -0.000000
vt 0.503286 -0.000000
vt 0.693820 -0.994605
vt 0.679609 -0.994605
vt 0.681657 -0.659700
vt 0.603286 -0.450000
vt 0.503286 -0.450000
vt 0.503286 -0.550000
vt 0.603286 -0.550000
vt 0.692618 -0.659700
vt 0.708443 -0.428993
vt 0.653992 -0.266014
vt 0.645729 -0.184586
vt 0.664547 -0.243684
vt 0.689707 -0.117620
vt 0.699675 0.006650
vt 0.665011 -0.240290
vt 0.672552 -0.266517
vt 0.672088 -0.269911
vt 0.672790 -0.994605
vt 0.696835 -0.117620
vt 0.699212 0.003256
vt 0.650475 -0.994605
vt 0.066236 -0.922663
vt 0.051705 -0.752282
vt 0.149088 -0.691386
vt 0.933764 -0.922664
vt 0.855715 -0.691386
vt 0.948012 -0.752283
vt 0.000925 -0.986533
vt 0.202346 -0.942055
vt -0.191055 -0.903663
vt 0.213630 -0.263087
vt 0.221277 -0.470346
vt 0.140031 -0.455202
vt 0.500000 -0.494636
vt 0.586825 -0.264102
vt 0.627625 -0.568451
vt 0.868165 -0.466677
vt 0.780362 -0.486738
vt 0.786370 -0.263087
vt 0.372374 -0.568450
vt 0.500000 -0.657023
vt 0.780412 -0.726696
vt 0.219588 -0.726696
vt 0.178498 -0.606872
vt 0.319542 -0.722403
vt 0.183368 -0.724755
vt 0.795395 -0.939797
vt 0.321449 -0.604441
vt 0.413971 -0.264102
vt 0.501332 -0.102461
vt 0.878802 -0.105856
vt 0.676471 -0.181866
vt 0.121198 -0.105856
vt 0.130808 -0.288343
vt 0.869192 -0.288343
vt -0.121198 -0.105856
vt -0.000000 -0.205893
vt 1.000000 -0.414211
vt 1.000000 -0.205893
vt 0.856110 -0.499122
vt 0.971857 -0.494005
vt 0.861552 -0.627576
vt -0.000000 -0.821701
vt -0.066236 -0.922664
vt -0.053045 -0.962537
vt -0.000000 -0.414211
vt 0.143309 -0.635542
vt 0.023083 -0.490427
vt 0.151815 -0.487647
vt 0.216928 -0.800284
vt 0.177010 -0.637958
vt 0.819788 -0.634756
vt 0.778555 -0.800284
vt 0.323529 -0.181866
vt 0.500000 -0.138120
vt 0.970050 -0.605585
vt 0.023393 -0.589192
vt 0.053045 -0.962537
vt 1.000000 -0.532239
vt 0.001639 -0.522404
vt 1.000000 -0.821701
vt 0.951201 -0.697402
vt -0.000000 -0.664540
vt -0.051988 -0.752283
vt 0.048799 -0.697402
vt 1.000000 -0.664540
vt 1.000000 -0.617180
vt -0.000000 -0.617180
vt 0.946955 -0.962537
vt 0.314587 -0.811214
vt 0.189423 -0.813437
vn -1.000000 0.000000 0.000000
vn 1.000000 0.000000 -0.000000
vn -0.994000 -0.105400 0.030000
vn 0.992400 -0.114700 -0.044600
vn 0.999500 0.030900 -0.000000
vn -0.846900 -0.081600 -0.525500
vn 0.992900 -0.062400 0.101000
vn 0.998400 0.027400 0.050200
vn -0.952100 -0.146400 -0.268400
vn 0.940300 0.018300 0.339800
vn -0.992500 -0.122000 0.011200
vn -0.997500 -0.042800 0.056100
vn 0.995300 -0.059000 0.077300
vn -0.971700 -0.055700 -0.229400
vn 0.978600 -0.056600 0.197600
vn 0.995900 0.045100 0.078800
vn -0.982900 -0.173700 0.061300
vn 0.631000 -0.772500 0.070600
vn -0.648400 0.755600 0.092400
vn 0.651200 0.758900 0.000000
vn -0.974900 -0.184900 0.124000
vn 0.999900 -0.017100 -0.001600
vn -0.631000 -0.772500 -0.070600
vn 0.036900 -0.045200 -0.998300
vn -0.651200 0.758900 0.000000
vn 0.629800 0.771000 0.094300
vn -0.015900 -0.019500 0.999700
vn 0.520000 -0.122600 -0.845300
vn -0.983200 0.067000 -0.169800
vn -0.793800 0.037100 0.607000
vn 0.985000 0.036000 0.168600
vn -0.959900 -0.099800 0.262100
vn -0.630800 0.772300 0.075300
vn 0.967900 0.043800 -0.247600
vn 0.630800 0.772300 -0.075300
vn -0.965600 -0.041400 -0.256800
vn -0.649000 0.756300 -0.081900
vn 0.966500 -0.026400 0.255300
vn 0.649000 0.756300 0.081900
vn -0.998500 -0.054400 0.000000
vn -0.687400 0.726200 0.000000
vn 0.648400 0.755600 -0.092400
vn -0.629800 0.771000 -0.094300
vn -0.650700 0.758300 -0.040200
vn 0.686900 0.725700 -0.038500
vn -0.686900 0.725700 0.038500
vn 0.650700 0.758300 0.040200
vn 0.000000 -0.275700 0.961300
vn 0.000000 1.000000 -0.000000
vn 0.000000 -0.275700 -0.961300
vn 0.000000 -0.275600 -0.961300
vn 0.000000 -0.275600 0.961300
vn 0.000000 -0.682400 -0.731000
vn 0.000000 -0.682400 0.731000
vn 0.000000 -0.557500 -0.830200
vn 0.000000 -0.557500 0.830200
vn 0.000000 -0.479200 -0.877700
vn 0.000000 -0.578800 -0.815500
vn 0.000000 -0.578800 0.815500
vn 0.000000 -0.479200 0.877700
vn 0.000000 -0.159900 0.987100
vn 0.000000 -0.159900 -0.987100
vn 0.999800 0.019500 0.000000
vn 0.687400 0.726200 0.000000
vn -0.288800 0.245500 0.925400
vn -0.995200 0.097400 -0.005300
vn -0.321600 -0.390800 -0.862500
vn 0.810100 0.298300 0.504700
vn -0.994700 -0.091900 0.047000
vn -0.290300 0.336100 0.896000
vn -0.916200 0.085000 0.391600
vn 0.796300 -0.143300 -0.587700
vn -0.780800 -0.155900 -0.605000
vn 0.466300 0.136100 0.874100
vn -0.999700 0.016000 0.017300
vn 0.740400 -0.125400 -0.660300
vn 0.000000 0.000000 -1.000000
vn 0.000000 0.000000 1.000000
vn 0.000000 -1.000000 0.000000
vn 0.818000 0.053100 0.572700
vn 0.796500 -0.151700 -0.585300
vn 0.796100 -0.211800 -0.566900
vn 0.633900 -0.211800 0.743800
vn 0.609000 0.276500 0.743400
vn 0.512900 0.493900 0.702100
vn 0.782500 0.010000 -0.622600
vn 0.552000 0.481600 0.680700
vn 0.578800 0.447000 -0.682000
vn -0.779600 0.199100 -0.593800
vn 0.559200 -0.229600 0.796600
vn 0.639600 -0.272200 -0.718900
vn -0.180300 -0.475700 -0.860900
vn 0.671400 -0.310100 -0.673100
vn 0.982800 -0.033500 0.181800
vn 0.540400 0.831300 -0.129900
vn -0.848300 0.138000 0.511200
vn -0.782800 0.374000 -0.497300
vn -0.709800 0.266000 -0.652300
vn 0.713800 0.450000 -0.536600
vn -0.606800 -0.359700 0.708800
vn -0.338000 0.238800 0.910400
vn 0.029000 -0.963600 0.265800
vn -0.311700 -0.488300 -0.815200
vn -0.328100 -0.066400 -0.942300
vn -0.432700 -0.416300 0.799700
vn -0.564000 0.253000 0.786100
vn -0.330000 -0.184200 -0.925800
vn -0.916200 0.084900 0.391700
vn 0.542500 0.185500 0.819300
vn -0.976800 -0.024400 -0.212800
vn -0.327300 -0.300300 -0.895900
vn 0.818800 0.063500 0.570600
vn -0.290000 0.297700 0.909600
vn -0.190300 -0.307400 -0.932400
vn 0.793300 -0.261600 -0.549800
vn -0.807700 -0.112500 -0.578800
vn -0.189700 0.215200 0.958000
vn 0.317400 -0.945300 0.075900
vn -0.664100 0.000700 -0.747700
vn 0.996700 0.010800 0.080700
vn 0.009600 0.360700 0.932600
vn -0.117500 0.000200 -0.993100
vn 0.085900 -0.980600 0.176100
vn 0.573900 0.369400 0.730900
vn 0.479600 -0.748900 0.457400
vn -0.670200 -0.257500 -0.696100
vn 0.919900 -0.228200 -0.319100
vn 0.007700 0.104600 0.994500
vn 0.891600 0.209200 -0.401600
vn 0.248200 0.967400 0.050100
vn -0.615600 0.415100 -0.669900
vn -0.065700 0.709400 0.701800
vn -0.040100 0.980100 -0.194300
vn -0.793100 0.527400 -0.304700
vn -0.697800 0.383200 0.605200
vn -0.738500 0.349200 0.576800
vn -0.897400 -0.187800 0.399300
vn 0.199100 -0.883200 0.424700
vn -0.968600 0.238100 -0.071600
vn -0.974600 0.223500 -0.016900
vn 0.154900 -0.922800 -0.352700
vn 0.676200 -0.158000 -0.719600
vn -0.547000 -0.191700 -0.814900
vn -0.112800 -0.726400 -0.678000
vn -0.455200 0.708600 0.539200
vn -0.526100 0.850000 0.028000
vn 0.471300 -0.414000 0.778700
vn 0.167800 0.190000 0.967300
vn -0.010200 -0.050200 -0.998700
vn 0.675800 0.617200 -0.402900
vn 0.554600 0.830800 -0.046700
vn 0.656400 0.307900 0.688700
vn 0.321700 0.703600 -0.633600
vn 0.011900 0.841000 -0.540900
vn -0.377000 -0.817400 0.435600
vn -0.013800 -0.117900 0.992900
vn -0.072800 0.305000 0.949600
vn 0.109900 -0.617500 0.778800
vn -0.649300 -0.477300 -0.592100
vn -0.449200 -0.856700 0.253700
vn -0.730700 -0.038200 -0.681700
vn -0.349100 -0.862800 -0.365500
vn -0.586400 0.536900 0.606500
vn -0.910800 0.361100 -0.200100
vn -0.003900 -0.485700 0.874100
vn -0.609000 -0.492000 0.622200
vn -0.515000 -0.758300 -0.399600
vn -0.790400 -0.588700 0.169600
vn 0.711000 -0.366700 -0.600100
vn 0.972500 -0.226500 0.053600
vn -0.018500 -0.994300 -0.104800
vn -0.697400 -0.590700 0.405800
vn -0.523600 -0.725000 0.447600
vn -0.530400 0.539900 0.653600
vn -0.579000 -0.753800 0.310700
vn -0.902200 0.340000 -0.265500
vn 0.482300 0.263700 0.835300
vn 0.130900 0.770000 0.624500
vn -0.239100 -0.121500 -0.963400
vn -0.428800 0.470700 -0.771100
vn -0.806200 0.040400 0.590300
vn -0.237300 0.316700 0.918400
vn -0.922300 0.211000 0.323700
vn -0.829200 -0.005900 -0.558900
vn -0.233900 -0.020900 0.972000
vn -0.818400 -0.332000 -0.469100
vn -0.913100 0.339600 -0.225500
vn -0.567700 0.525800 0.633500
vn -0.241600 0.343700 0.907500
vn -0.518200 0.548200 0.656500
vn -0.894300 0.346700 -0.282900
vn -0.829000 0.029600 -0.558400
vn -0.694900 0.375300 0.613400
vn 0.012300 0.358300 0.933500
vn -0.662300 -0.002200 -0.749200
vn -0.970800 0.227400 -0.076100
vn 0.124800 0.832700 -0.539500
vn 0.332900 0.942600 -0.024400
vn -0.664300 -0.179400 -0.725600
vn -0.217400 -0.326400 -0.919900
vn 0.498500 0.055900 0.865100
vn 0.020800 0.186300 0.982300
vn 0.031300 -0.146400 0.988700
vn -0.346000 -0.731700 0.587300
vn -0.613400 -0.490700 -0.618900
vn -0.543100 -0.834300 0.094900
vn -0.813700 -0.490700 0.311600
vn -0.472700 0.286800 0.833200
vn -0.941100 0.036300 -0.336300
vn -0.734500 -0.448400 0.509400
vn -0.922100 0.212500 0.323300
vn -0.989700 -0.057300 0.131200
vn 0.882800 -0.383700 -0.270900
vn 0.163200 0.184300 0.969200
vn -0.550800 -0.197000 -0.811100
usemtl NC_BIRDFRIGHTENER_2
s off
f 152/1/1 153/2/1 6/3/1
f 5/1/2 150/3/2 4/2/2
f 36/4/1 110/5/1 132/6/1
f 25/7/3 26/8/3 51/9/3
f 109/10/4 36/4/4 51/9/4
f 122/11/5 163/6/5 39/12/5
f 12/1/2 13/3/2 145/2/2
f 147/1/1 11/2/1 146/3/1
f 16/1/1 162/2/1 161/3/1
f 149/1/2 15/3/2 14/2/2
f 19/1/1 155/2/1 154/3/1
f 151/1/2 18/3/2 17/2/2
f 23/1/1 160/2/1 159/3/1
f 148/1/2 22/3/2 21/2/2
f 82/13/6 9/14/6 24/15/6
f 24/15/7 9/14/7 51/9/7
f 25/7/8 39/12/8 163/6/8
f 39/12/9 25/7/9 51/9/9
f 26/8/10 25/7/10 129/5/10
f 7/16/11 51/9/11 26/8/11
f 29/1/2 30/3/2 156/2/2
f 158/1/1 28/2/1 157/3/1
f 124/11/12 24/15/12 31/17/12
f 31/17/13 24/15/13 51/9/13
f 132/6/14 31/17/14 36/4/14
f 36/4/15 31/17/15 51/9/15
f 39/12/16 8/18/16 122/11/16
f 8/18/17 39/12/17 51/9/17
f 51/9/18 7/16/18 48/19/18
f 7/16/19 144/20/19 110/5/19
f 163/6/20 122/11/20 141/21/20
f 89/22/21 8/18/21 51/9/21
f 10/23/22 51/9/22 9/14/22
f 51/9/23 10/23/23 50/13/23
f 9/14/24 82/13/24 10/23/24
f 132/6/25 110/5/25 144/20/25
f 144/20/26 7/16/26 83/19/26
f 26/8/27 83/19/27 7/16/27
f 8/18/28 89/22/28 50/13/28
f 50/13/29 89/22/29 51/9/29
f 110/5/30 36/4/30 109/10/30
f 48/19/31 109/10/31 51/9/31
f 109/10/32 48/19/32 110/5/32
f 110/5/33 48/19/33 7/16/33
f 50/13/34 122/11/34 8/18/34
f 122/11/35 50/13/35 10/23/35
f 24/15/36 124/11/36 82/13/36
f 82/13/37 124/11/37 141/21/37
f 129/5/38 83/19/38 26/8/38
f 83/19/39 129/5/39 144/20/39
f 31/17/40 132/6/40 124/11/40
f 124/11/41 132/6/41 139/24/41
f 10/23/42 141/21/42 122/11/42
f 141/21/43 10/23/43 82/13/43
f 139/24/44 141/21/44 124/11/44
f 141/21/45 139/24/45 163/6/45
f 144/20/46 139/24/46 132/6/46
f 139/24/47 144/20/47 129/5/47
f 145/2/48 11/2/48 147/1/48
f 11/2/49 145/2/49 13/3/49
f 147/1/50 146/3/50 13/3/50
f 13/3/49 146/3/49 11/2/49
f 13/3/51 12/1/51 147/1/51
f 147/1/52 12/1/52 145/2/52
f 22/3/53 148/1/53 23/1/53
f 23/1/54 148/1/54 21/2/54
f 15/3/55 149/1/55 16/1/55
f 16/1/56 149/1/56 14/2/56
f 152/1/57 6/3/57 150/3/57
f 150/3/49 6/3/49 153/2/49
f 18/3/58 151/1/58 19/1/58
f 19/1/59 151/1/59 17/2/59
f 150/3/57 5/1/57 152/1/57
f 152/1/60 5/1/60 4/2/60
f 4/2/60 153/2/60 152/1/60
f 153/2/49 4/2/49 150/3/49
f 19/1/58 154/3/58 18/3/58
f 18/3/49 154/3/49 155/2/49
f 17/2/59 155/2/59 19/1/59
f 155/2/49 17/2/49 18/3/49
f 156/2/61 28/2/61 158/1/61
f 28/2/49 156/2/49 30/3/49
f 158/1/62 157/3/62 30/3/62
f 30/3/49 157/3/49 28/2/49
f 30/3/62 29/1/62 158/1/62
f 158/1/61 29/1/61 156/2/61
f 23/1/53 159/3/53 22/3/53
f 22/3/49 159/3/49 160/2/49
f 21/2/54 160/2/54 23/1/54
f 160/2/49 21/2/49 22/3/49
f 16/1/55 161/3/55 15/3/55
f 15/3/49 161/3/49 162/2/49
f 14/2/56 162/2/56 16/1/56
f 162/2/49 14/2/49 15/3/49
f 163/6/63 129/5/63 25/7/63
f 129/5/64 163/6/64 139/24/64
usemtl NC_BIRDFRIGHTENER_1
f 3/25/65 65/26/65 123/27/65
f 96/28/66 123/27/66 113/29/66
f 2/30/67 114/31/67 131/32/67
f 65/26/68 78/33/68 115/34/68
f 113/29/69 27/35/69 114/31/69
f 123/27/70 65/26/70 115/36/70
f 80/37/71 112/38/71 32/39/71
f 79/40/72 94/41/72 73/42/72
f 85/43/73 38/44/73 37/45/73
f 27/35/74 1/46/74 87/47/74
f 114/31/75 27/35/75 76/48/75
f 72/49/76 85/43/76 37/45/76
f 42/50/2 68/51/2 40/52/2
f 41/50/1 69/51/1 67/52/1
f 46/52/77 44/53/77 45/50/77
f 60/52/1 46/53/1 47/50/1
f 45/50/77 47/51/77 46/52/77
f 62/50/78 61/51/78 59/52/78
f 49/52/49 40/53/49 68/50/49
f 66/52/79 67/53/79 69/50/79
f 88/54/80 98/55/80 97/56/80
f 96/28/66 3/25/66 123/27/66
f 44/52/2 59/53/2 61/50/2
f 44/57/49 46/58/49 60/59/49
f 60/59/49 59/60/49 44/57/49
f 59/52/78 60/53/78 62/50/78
f 45/58/79 61/59/79 62/60/79
f 61/50/2 45/51/2 44/52/2
f 62/60/79 47/57/79 45/58/79
f 47/50/1 62/51/1 60/52/1
f 97/56/81 2/61/81 131/62/81
f 98/55/82 2/61/82 97/56/82
f 67/59/78 66/60/78 40/57/78
f 40/52/2 66/53/2 42/50/2
f 40/57/78 49/58/78 67/59/78
f 67/52/1 49/53/1 41/50/1
f 69/60/77 41/57/77 68/58/77
f 68/50/49 41/51/49 49/52/49
f 68/58/77 42/59/77 69/60/77
f 69/50/79 42/51/79 66/52/79
f 87/47/83 1/63/83 72/49/83
f 95/64/84 72/49/84 37/45/84
f 74/65/85 73/66/85 112/38/85
f 73/42/86 94/41/86 20/67/86
f 74/65/87 79/40/87 73/66/87
f 1/63/88 85/43/88 72/49/88
f 74/68/89 76/48/89 38/44/89
f 87/47/90 72/49/90 95/64/90
f 79/40/91 77/69/91 94/41/91
f 77/70/92 80/37/92 32/39/92
f 97/56/81 131/62/81 78/33/81
f 78/33/93 77/69/93 79/40/93
f 78/33/94 79/40/94 1/63/94
f 74/68/95 1/63/95 79/40/95
f 80/37/96 74/65/96 112/38/96
f 80/37/97 76/48/97 74/68/97
f 74/68/98 38/44/98 85/43/98
f 1/63/99 74/68/99 85/43/99
f 76/48/100 87/47/100 95/64/100
f 87/47/101 76/48/101 27/35/101
f 164/71/102 98/55/102 88/54/102
f 3/25/65 88/54/65 65/26/65
f 77/70/103 32/39/103 94/72/103
f 94/72/104 32/39/104 20/73/104
f 76/48/105 95/64/105 38/44/105
f 38/44/106 95/64/106 37/45/106
f 164/71/102 96/28/102 58/74/102
f 58/74/107 96/28/107 113/29/107
f 88/54/80 97/56/80 65/26/80
f 65/26/68 97/56/68 78/33/68
f 164/71/102 58/74/102 98/55/102
f 98/55/82 58/74/82 2/61/82
f 32/39/108 112/38/108 20/73/108
f 112/38/109 73/66/109 20/73/109
f 58/74/107 113/29/107 2/30/107
f 2/30/67 113/29/67 114/31/67
f 114/31/110 76/48/110 80/37/110
f 131/32/111 114/31/111 80/37/111
f 78/33/112 1/63/112 115/34/112
f 27/35/113 115/36/113 1/46/113
f 113/29/69 123/27/69 27/35/69
f 123/27/70 115/36/70 27/35/70
f 131/32/114 80/37/114 77/70/114
f 78/33/115 131/62/115 77/69/115
f 164/71/102 3/25/102 96/28/102
f 164/71/102 88/54/102 3/25/102
usemtl NC_BIRDFRIGHTENER_4
f 71/75/116 119/76/116 105/77/116
f 34/78/117 104/79/117 118/80/117
f 107/81/118 55/82/118 56/83/118
f 117/84/119 133/85/119 75/86/119
f 106/87/120 33/88/120 52/89/120
f 70/90/121 134/91/121 116/92/121
f 43/93/122 133/85/122 117/84/122
f 81/94/123 90/95/123 84/96/123
f 52/89/124 116/92/124 134/91/124
f 81/94/125 52/89/125 90/95/125
f 71/75/126 105/77/126 55/82/126
f 84/97/127 142/98/127 143/99/127
f 56/100/128 104/79/128 34/78/128
f 84/97/127 90/101/127 142/98/127
f 57/102/129 33/88/129 106/87/129
f 130/103/130 64/104/130 92/105/130
f 35/106/131 117/84/131 128/107/131
f 116/92/132 64/104/132 127/108/132
f 64/109/133 130/103/133 35/106/133
f 86/110/134 35/106/134 128/107/134
f 63/111/135 127/108/135 86/112/135
f 99/113/136 108/114/136 100/115/136
f 140/116/137 71/75/137 34/117/137
f 135/118/138 107/81/138 56/83/138
f 86/110/139 128/107/139 63/119/139
f 102/120/140 111/121/140 101/122/140
f 84/96/141 43/93/141 81/94/141
f 43/93/142 57/102/142 106/87/142
f 84/96/143 143/123/143 105/77/143
f 53/124/144 43/93/144 84/96/144
f 127/108/145 64/104/145 86/112/145
f 64/109/146 35/106/146 86/110/146
f 52/89/147 54/125/147 90/95/147
f 90/95/148 104/79/148 142/126/148
f 43/93/149 91/127/149 57/102/149
f 33/88/150 57/102/150 93/128/150
f 92/105/151 33/88/151 93/128/151
f 33/88/152 92/105/152 52/89/152
f 93/128/153 57/102/153 91/127/153
f 91/127/154 35/106/154 130/103/154
f 70/90/155 108/114/155 99/113/155
f 134/91/156 70/90/156 99/113/156
f 134/91/157 99/113/157 100/115/157
f 54/125/158 104/79/158 90/95/158
f 101/122/159 75/86/159 133/85/159
f 101/122/160 111/121/160 75/86/160
f 101/122/161 133/85/161 102/120/161
f 105/77/162 53/124/162 84/96/162
f 100/115/163 108/114/163 125/129/163
f 126/130/164 111/121/164 102/120/164
f 54/125/165 100/115/165 104/79/165
f 100/115/166 125/129/166 104/79/166
f 105/77/167 102/120/167 53/124/167
f 105/77/168 126/130/168 102/120/168
f 43/93/169 106/87/169 81/94/169
f 81/94/170 106/87/170 52/89/170
f 55/82/171 107/81/171 136/131/171
f 34/117/172 71/75/172 107/81/172
f 63/111/173 108/114/173 70/90/173
f 125/129/174 108/114/174 120/132/174
f 75/86/175 111/121/175 63/119/175
f 120/133/176 111/121/176 126/130/176
f 92/105/177 116/92/177 52/89/177
f 64/104/178 116/92/178 92/105/178
f 43/93/179 117/84/179 91/127/179
f 91/127/180 117/84/180 35/106/180
f 118/80/181 140/134/181 34/78/181
f 118/80/182 104/79/182 137/135/182
f 103/136/183 119/76/183 118/137/183
f 105/77/184 119/76/184 138/138/184
f 120/132/185 108/114/185 63/111/185
f 111/121/186 120/133/186 63/119/186
f 119/76/187 103/136/187 138/138/187
f 137/135/188 103/139/188 118/80/188
f 104/79/189 125/129/189 137/135/189
f 121/140/190 125/129/190 120/132/190
f 120/133/191 126/130/191 121/141/191
f 126/130/192 105/77/192 138/138/192
f 70/90/193 127/108/193 63/111/193
f 70/90/194 116/92/194 127/108/194
f 128/107/195 117/84/195 75/86/195
f 63/119/196 128/107/196 75/86/196
f 130/103/197 93/128/197 91/127/197
f 92/105/198 93/128/198 130/103/198
f 102/120/199 133/85/199 53/124/199
f 133/85/200 43/93/200 53/124/200
f 52/89/201 134/91/201 54/125/201
f 54/125/202 134/91/202 100/115/202
f 56/100/203 34/78/203 135/142/203
f 34/117/204 107/81/204 135/118/204
f 136/131/205 71/75/205 55/82/205
f 107/81/206 71/75/206 136/131/206
f 121/140/207 103/139/207 137/135/207
f 125/129/208 121/140/208 137/135/208
f 138/138/209 121/141/209 126/130/209
f 138/138/210 103/136/210 121/141/210
f 140/116/211 118/137/211 119/76/211
f 71/75/212 140/116/212 119/76/212
f 143/99/213 142/98/213 56/143/213
f 142/126/214 104/79/214 56/100/214
f 143/99/213 56/143/213 55/144/213
f 105/77/215 143/123/215 55/82/215
