# Blender v2.75 (sub 0) OBJ File: 'Empty.blend'
# www.blender.org
mtllib NC_OREHEAP_FENCE.mtl
o NC_OREHEAP_FENCE
v 0.196056 -0.219084 5.599998
v -0.064089 -0.479230 -5.599998
v -0.064089 0.430304 0.085435
v 0.085435 0.479230 0.254230
v -5.599999 -0.430304 0.254230
v 5.599999 -0.170158 -0.005915
v 2.698184 -0.257808 4.555649
v -5.100344 -0.257808 0.053168
v 0.098674 0.391580 0.053168
v -2.500834 -0.257808 4.555650
v -2.500835 -0.257808 -4.449313
v 2.698183 -0.257808 -4.449314
v 5.297692 -0.257808 0.053168
v -0.064090 -0.479229 5.599998
v 0.196057 -0.219084 -5.599998
v 5.599999 -0.430304 0.254231
v -5.599999 -0.170159 -0.005916
v 0.196056 0.170159 0.092292
v 0.092292 0.219084 -0.005915
v -0.064089 -0.219084 -5.599998
v 0.196057 -0.479230 -5.599998
v 5.599999 -0.430304 -0.005915
v 5.599999 -0.170158 0.254231
v 0.196056 -0.479229 5.599998
v -0.064090 -0.219084 5.599998
v -5.599999 -0.430304 -0.005916
v -5.599999 -0.170159 0.254230
v -0.064089 0.170159 0.083891
v 0.083892 0.219084 0.254230
v 0.196056 0.430304 0.093238
v 0.093239 0.479230 -0.005915
vt 3.281250 -0.009648
vt -0.050060 -0.170352
vt -0.054632 -0.009648
vt -3.281250 0.009648
vt 0.049155 0.170352
vt 0.050060 0.009648
vt -3.402651 -0.398265
vt 0.056078 -0.201735
vt 0.050974 -0.398265
vt -3.281250 -0.170352
vt 3.281250 -0.170352
vt -3.402651 -0.201735
vt -3.281250 -0.010017
vt 0.054632 -0.010017
vt 0.054078 -0.189983
vt 3.402651 -0.201735
vt -3.281250 0.170352
vt -3.281250 -0.189983
vt 3.281250 -0.189983
vt 3.281250 0.170352
vt 3.281250 0.009648
vt 3.402651 -0.398265
vt -3.281250 -0.009648
vt 3.281250 -0.010017
vt 0.500000 -0.500000
vt 1.848293 1.835312
vt 3.196586 -0.500001
vt -0.848293 -2.835312
vt -2.196586 -0.500000
vt 1.848293 -2.835312
vt -0.848292 1.835312
vn 0.003400 0.993600 -0.113300
vn -1.000000 0.000000 -0.000000
vn -0.113300 0.993600 -0.003400
vn -0.000000 0.000000 1.000000
vn -0.003700 -0.993500 0.113500
vn -0.003500 0.993100 0.116900
vn 0.000000 0.993500 -0.113500
vn 0.000000 -0.993600 0.113300
vn 0.113500 -0.993500 0.003700
vn 0.116900 0.993100 0.003500
vn -0.113500 0.993500 0.000000
vn 0.113300 -0.993600 0.000000
vn 1.000000 0.000000 0.000000
vn 0.003800 -0.993100 -0.117100
vn 0.000000 -0.000000 -1.000000
vn -0.117100 -0.993100 -0.003800
vn 0.000000 -0.993100 -0.116900
vn -0.116900 -0.993100 0.000000
vn 0.000000 0.993100 0.117100
vn 0.117100 0.993100 0.000000
vn -0.123600 -0.989800 0.071400
vn 0.123600 -0.989800 -0.071400
vn 0.123600 0.989800 -0.071400
vn -0.123600 0.989800 0.071400
vn -0.000000 -0.989800 -0.142800
vn 0.000000 0.989800 0.142800
vn 0.123600 -0.989800 0.071400
vn -0.123600 0.989800 -0.071400
vn 0.000000 -0.989800 0.142800
vn -0.000000 0.989800 -0.142800
vn -0.123600 -0.989800 -0.071400
vn 0.123600 0.989800 0.071400
usemtl NC_REHEAPFENCE2
s off
f 15/1/1 3/2/1 30/3/1
f 20/4/2 28/5/2 3/6/2
f 17/1/3 4/2/3 31/3/3
f 27/4/4 29/5/4 4/6/4
f 2/7/5 18/8/5 28/9/5
f 25/10/6 30/3/6 3/2/6
f 3/2/7 15/1/7 20/11/7
f 18/8/8 2/7/8 21/12/8
f 5/7/9 19/8/9 29/9/9
f 23/10/10 31/3/10 4/2/10
f 4/2/11 17/1/11 27/11/11
f 19/8/12 5/7/12 26/12/12
f 15/13/13 30/14/13 18/15/13
f 24/16/14 28/9/14 18/8/14
f 17/13/15 31/14/15 19/15/15
f 22/16/16 29/9/16 19/8/16
f 28/5/2 20/4/2 2/17/2
f 15/13/13 18/15/13 21/18/13
f 22/19/15 19/15/15 31/14/15
f 4/6/4 16/20/4 23/21/4
f 24/19/13 18/15/13 30/14/13
f 3/6/2 14/20/2 25/21/2
f 17/13/15 19/15/15 26/18/15
f 29/5/4 27/4/4 5/17/4
f 28/9/17 24/16/17 14/22/17
f 14/20/2 3/6/2 28/5/2
f 29/9/18 22/16/18 16/22/18
f 16/20/4 4/6/4 29/5/4
f 30/3/19 25/10/19 1/23/19
f 24/19/13 30/14/13 1/24/13
f 31/3/20 23/10/20 6/23/20
f 22/19/15 31/14/15 6/24/15
usemtl NC_OREHEAPFENCE1
f 9/25/21 12/26/21 13/27/21
f 9/25/22 10/28/22 8/29/22
f 9/25/23 13/27/23 12/26/23
f 9/25/24 8/29/24 10/28/24
f 9/25/25 7/30/25 10/28/25
f 9/25/26 10/28/26 7/30/26
f 9/25/27 8/29/27 11/31/27
f 9/25/28 11/31/28 8/29/28
f 9/25/29 11/31/29 12/26/29
f 9/25/30 12/26/30 11/31/30
f 9/25/31 13/27/31 7/30/31
f 9/25/32 7/30/32 13/27/32
