# Blender v2.75 (sub 0) OBJ File: 'Empty.blend'
# www.blender.org
mtllib NW_CITY_TABLE_RICH_02.mtl
o NW_CITY_TABLE_RICH_02
v 1.000010 0.450010 0.599990
v -0.999990 0.450010 0.599990
v 1.000010 0.350010 -0.600010
v -0.999990 0.350010 -0.600010
v -0.774990 0.350010 0.524990
v -0.924990 -0.449990 0.524990
v -0.924990 0.350010 0.374990
v 0.775010 0.350010 0.524990
v 0.925010 -0.449990 0.524990
v 0.925010 0.350010 0.374990
v -0.774990 0.350010 -0.525010
v -0.924990 -0.449990 -0.525010
v -0.924990 0.350010 -0.375010
v 0.775010 0.350010 -0.525010
v 0.925010 -0.449990 -0.525010
v 0.925010 0.350010 -0.375010
v 0.800010 0.350010 -0.400010
v 0.800010 0.150010 -0.400010
v 0.800010 0.350010 0.399990
v -0.799990 0.350010 -0.400010
v -0.799990 0.150010 -0.400010
v -0.799990 0.350010 0.399990
v -0.799990 0.150010 0.399990
v 0.800010 0.150010 0.399990
v -0.774990 -0.449990 0.524990
v 0.775010 -0.449990 0.524990
v -0.774990 -0.449990 -0.525010
v 0.775010 -0.449990 -0.525010
v -0.924990 0.350010 0.524990
v -0.774990 0.350010 0.374990
v -0.924990 -0.449990 0.374990
v -0.774990 -0.449990 0.374990
v 0.925010 0.350010 0.524990
v 0.775010 0.350010 0.374990
v 0.925010 -0.449990 0.374990
v 0.775010 -0.449990 0.374990
v -0.924990 0.350010 -0.525010
v -0.774990 0.350010 -0.375010
v -0.924990 -0.449990 -0.375010
v -0.774990 -0.449990 -0.375010
v 0.925010 0.350010 -0.525010
v 0.775010 0.350010 -0.375010
v 0.925010 -0.449990 -0.375010
v 0.775010 -0.449990 -0.375010
v 1.000010 0.450010 -0.600010
v -0.999990 0.450010 -0.600010
v 1.000010 0.350010 0.599990
v -0.999990 0.350010 0.599990
v 0.800010 0.150010 0.499990
v -0.799990 0.150010 0.499990
v 0.800010 0.350010 0.499990
v -0.799990 0.350010 0.499990
v 0.800010 0.150010 -0.500010
v -0.799990 0.150010 -0.500010
v 0.800010 0.350010 -0.500010
v -0.799990 0.350010 -0.500010
v 0.900010 0.150010 -0.400010
v 0.900010 0.150010 0.399990
v 0.900010 0.350010 -0.400010
v 0.900010 0.350010 0.399990
v -0.899990 0.150010 -0.400010
v -0.899990 0.150010 0.399990
v -0.899990 0.350010 -0.400010
v -0.899990 0.350010 0.399990
vt -0.000288 -0.059289
vt -0.000288 -0.808644
vt 0.830754 -0.808644
vt 0.830754 -0.059289
vt 0.893663 -0.219052
vt 0.830754 -0.219052
vt 0.830754 -0.717911
vt 0.893663 -0.717911
vt 0.665505 -0.808644
vt 0.665505 -0.938702
vt 0.999835 -0.938702
vt -0.000288 -0.938702
vt 0.999835 -0.808644
vt 0.893663 -0.808644
vt -0.000541 -0.059273
vt 0.745064 -0.059273
vt 0.745064 0.002218
vt 0.830754 0.002218
vt -0.000288 0.002218
vt -0.000541 0.002218
vt -0.000288 -0.998258
vt 0.665505 -0.998258
vt 0.999835 -0.998258
vn 0.000000 -1.000000 0.000000
vn 0.000000 1.000000 0.000000
vn 1.000000 0.000000 0.000000
vn 0.000000 0.000000 1.000000
vn -1.000000 0.000000 0.000000
vn 0.000000 0.000000 -1.000000
usemtl OBJ_CITY_TABLERICH_01
s off
f 3/1/1 47/2/1 48/3/1
f 2/2/2 1/3/2 45/4/2
f 48/3/1 4/4/1 3/1/1
f 45/4/2 46/1/2 2/2/2
f 30/5/3 5/6/3 25/7/3
f 5/5/4 29/6/4 6/7/4
f 34/6/5 26/8/5 8/5/5
f 8/6/4 9/8/4 33/5/4
f 38/6/3 27/8/3 11/5/3
f 11/6/6 12/8/6 37/5/6
f 42/5/5 14/6/5 28/7/5
f 14/5/6 41/6/6 15/7/6
f 17/9/5 18/10/5 24/11/5
f 18/10/4 17/9/4 20/2/4
f 20/2/4 21/12/4 18/10/4
f 21/11/3 20/13/3 22/9/3
f 22/9/3 23/10/3 21/11/3
f 23/10/6 22/9/6 19/2/6
f 24/11/5 19/13/5 17/9/5
f 19/2/6 24/12/6 23/10/6
f 6/7/4 25/8/4 5/5/4
f 32/7/6 31/8/6 7/5/6
f 9/8/4 8/6/4 26/7/4
f 36/8/6 10/6/6 35/7/6
f 12/8/6 11/6/6 27/7/6
f 40/8/4 13/6/4 39/7/4
f 15/7/6 28/8/6 14/5/6
f 44/7/4 43/8/4 16/5/4
f 29/5/5 7/6/5 31/7/5
f 7/5/6 30/6/6 32/7/6
f 6/14/1 31/8/1 32/7/1
f 31/7/5 6/8/5 29/5/5
f 32/7/1 25/3/1 6/14/1
f 25/7/3 32/8/3 30/5/3
f 33/6/3 35/8/3 10/5/3
f 10/6/6 36/8/6 34/5/6
f 9/3/1 36/8/1 35/7/1
f 35/8/3 33/6/3 9/7/3
f 36/8/1 9/3/1 26/14/1
f 26/8/5 34/6/5 36/7/5
f 37/6/5 39/8/5 13/5/5
f 13/6/4 40/8/4 38/5/4
f 12/8/1 40/3/1 39/14/1
f 39/8/5 37/6/5 12/7/5
f 40/3/1 12/8/1 27/7/1
f 27/8/3 38/6/3 40/7/3
f 41/5/3 16/6/3 43/7/3
f 16/5/4 42/6/4 44/7/4
f 15/7/1 43/3/1 44/14/1
f 43/7/3 15/8/3 41/5/3
f 44/14/1 28/8/1 15/7/1
f 28/7/5 44/8/5 42/5/5
f 47/15/3 3/16/3 45/17/3
f 46/18/6 45/19/6 3/1/6
f 3/1/6 4/4/6 46/18/6
f 2/15/5 46/16/5 4/17/5
f 48/1/4 47/4/4 1/18/4
f 45/17/3 1/20/3 47/15/3
f 1/18/4 2/19/4 48/1/4
f 4/17/5 48/20/5 2/15/5
f 24/12/1 49/21/1 50/22/1
f 50/22/1 23/10/1 24/12/1
f 49/10/4 51/9/4 52/2/4
f 52/2/4 50/12/4 49/10/4
f 53/12/1 18/21/1 21/22/1
f 21/22/1 54/10/1 53/12/1
f 55/2/6 53/12/6 54/10/6
f 54/10/6 56/9/6 55/2/6
f 18/23/1 57/11/1 58/10/1
f 58/10/1 24/22/1 18/23/1
f 57/11/3 59/13/3 60/9/3
f 60/9/3 58/10/3 57/11/3
f 61/23/1 21/11/1 23/10/1
f 23/10/1 62/22/1 61/23/1
f 63/9/5 61/10/5 62/11/5
f 62/11/5 64/13/5 63/9/5
