# Blender v2.75 (sub 0) OBJ File: 'Empty.blend'
# www.blender.org
mtllib NW_CITY_MARKETSTALL_FOOD_01.mtl
o NW_CITY_MARKETSTALL_FOOD_01
v 2.500020 -0.716281 0.782551
v -2.499980 0.033719 -0.617449
v 2.500020 0.033719 -0.617449
v -2.499980 -0.716281 0.782551
v 0.775020 -0.716281 -0.167449
v 0.825020 -1.066281 -0.617449
v 0.575020 -1.066281 -0.267449
v -0.774980 -0.716281 -0.167449
v -0.824980 -1.066281 -0.617449
v -0.574980 -1.066281 -0.267449
v -0.774980 -0.716281 0.232551
v -0.824980 -1.066281 0.682551
v -0.574980 -1.066281 0.332551
v 2.325020 -0.716281 0.232551
v 2.375020 -1.066281 0.682551
v 2.125020 -1.066281 0.332551
v 2.500020 -0.716281 -0.717449
v -2.499980 -0.716281 -0.717449
v 2.175020 -0.716281 -0.167449
v 2.325020 -0.716281 -0.517449
v 2.375020 -1.066281 -0.617449
v -2.174980 -0.716281 -0.167448
v -2.324980 -0.716281 -0.517448
v -2.374980 -1.066281 -0.617449
v -2.124980 -1.066281 -0.267448
v 2.125020 -1.066281 -0.267449
v 0.625020 -0.716281 0.232551
v 0.775020 -0.716281 0.582551
v 0.825020 -1.066281 0.682551
v 0.575020 -1.066281 0.332551
v -2.174980 -0.716281 0.232551
v -2.324980 -0.716281 0.582551
v -2.124980 -1.066281 0.332551
v -2.374980 -1.066281 0.682551
v -2.374980 -1.066281 -0.267448
v -0.824980 -1.066281 0.332551
v -2.374980 -1.066281 0.332551
v 0.825020 -1.066281 0.332551
v 2.375020 -1.066281 0.332551
v 0.825020 -1.066281 -0.267449
v 2.375020 -1.066281 -0.267449
v -0.824980 -1.066281 -0.267449
v 2.125020 -1.066281 -0.617449
v 0.575020 -1.066281 0.682551
v -2.124980 -1.066281 -0.617449
v -2.124980 -1.066281 0.682551
v 0.575020 -1.066281 -0.617449
v 0.625020 -0.716281 -0.517449
v -0.574980 -1.066281 0.682551
v -0.624980 -0.716281 0.582551
v 2.125020 -1.066281 0.682551
v 2.175020 -0.716281 0.582551
v -0.574980 -1.066281 -0.617449
v -0.624980 -0.716281 -0.517449
v -2.499980 -0.466281 0.782551
v 2.500020 -0.466281 0.782551
v 0.625020 -0.716281 -0.167449
v 2.325020 -0.716281 -0.167449
v -0.624980 -0.716281 0.232551
v -2.324980 -0.716281 0.232551
v 2.175020 -0.716281 0.232551
v -2.324980 -0.716281 -0.167448
v 0.775020 -0.716281 0.232551
v -0.624980 -0.716281 -0.167449
v 0.775020 -0.716281 -0.517449
v -0.774980 -0.716281 0.582551
v 0.625020 -0.716281 0.582551
v -0.774980 -0.716281 -0.517449
v 2.325020 -0.716281 0.582551
v -2.174980 -0.716281 -0.517448
v -2.174980 -0.716281 0.582551
v 2.175020 -0.716281 -0.517449
v -2.399980 -0.095573 -0.552827
v -2.399980 -0.001399 -0.519194
v 2.400020 -0.095573 -0.552827
v 2.400020 -0.001399 -0.519194
v 2.400020 -0.528305 0.658824
v 2.400020 -0.434131 0.692458
v -2.399980 -0.528305 0.658824
v -2.399980 -0.434131 0.692458
vt -0.997143 -0.247424
vt -0.003340 -0.247424
vt -0.003341 -0.002568
vt -0.997143 -0.002568
vt -0.010322 0.005749
vt -0.232398 0.005749
vt -0.232116 0.574246
vt -0.023610 0.574246
vt -0.023610 0.005749
vt -0.812088 -0.210379
vt -0.854005 -0.281460
vt -0.864485 -0.210379
vt 0.412564 -0.170469
vt 0.257986 -0.285838
vt 0.264288 -0.122291
vt -1.157906 -0.210379
vt -1.105510 -0.210379
vt -1.115989 -0.281460
vt 0.353809 0.244057
vt 0.218450 0.293323
vt 0.207357 0.142514
vt -0.136131 -0.208260
vt -0.097068 -0.139901
vt -0.087303 -0.208260
vt -0.175955 0.087890
vt -0.051875 0.191034
vt -0.049980 0.054135
vt 0.488869 -0.208260
vt 0.440041 -0.208260
vt 0.449807 -0.139901
vt -0.149289 -0.178363
vt -0.061638 -0.158128
vt -0.066240 -0.252449
vt -0.306652 0.880786
vt -0.306652 0.257375
vt -0.618356 0.298936
vt -0.615452 -2.646594
vt -0.620396 -2.114298
vt -0.414545 -2.119991
vt -0.409600 -2.652287
vt 0.445771 -0.158409
vt 0.630408 -0.675392
vt 0.353453 -0.712320
vt 0.209725 0.306978
vt 0.333991 0.106902
vt 0.345084 0.257711
vt 0.278159 -0.287973
vt 0.432738 -0.172604
vt 0.426435 -0.336151
vt 0.196861 -0.159034
vt 0.345137 -0.207212
vt 0.338835 -0.370759
vt 0.198212 0.162289
vt 0.333571 0.113022
vt 0.344664 0.263831
vt -1.482766 -0.210379
vt -1.430369 -0.210379
vt -1.440849 -0.281460
vt 0.209305 0.313098
vt -0.487228 -0.210379
vt -0.529146 -0.281460
vt -0.539625 -0.210379
vt 0.284461 -0.124426
vt -0.030885 0.125398
vt -0.156860 0.159153
vt -0.158755 0.296051
vt -0.063567 -0.192344
vt -0.151217 -0.212580
vt -0.146615 -0.118258
vt 0.186135 -0.208260
vt 0.137307 -0.208260
vt 0.147072 -0.139901
vt -0.058965 -0.098023
vt -0.438865 -0.208260
vt -0.399803 -0.139901
vt -0.390037 -0.208260
vt -0.197095 0.118993
vt -0.073015 0.222136
vt -0.071120 0.085238
vt -0.064844 -0.202500
vt -0.157096 -0.317057
vt -0.152495 -0.222736
vt -0.198991 0.255891
vt -0.704406 0.030037
vt -0.772766 0.030037
vt -0.772766 0.078866
vt 0.190558 -0.322581
vt -0.958312 -0.272697
vt -0.889953 -0.223869
vt -0.889953 -0.272697
vt -0.159770 -0.262162
vt -0.067518 -0.147605
vt -0.072120 -0.241927
vt -0.958312 0.030037
vt -0.889953 0.078866
vt -0.889953 0.030037
vt -0.069446 -0.296822
vt -0.958312 -0.497306
vt -0.889953 -0.497306
vt -0.889953 -0.546134
vt -0.032780 0.262296
vt -0.958312 -0.800041
vt -0.889953 -0.800041
vt -0.889953 -0.848869
vt -0.177615 0.374949
vt -0.051640 0.341193
vt -0.049744 0.204295
vt -0.704406 -0.497306
vt -0.772766 -0.546134
vt -0.772766 -0.497306
vt 0.314846 0.016677
vt 0.190580 0.216753
vt 0.179488 0.065943
vt -0.704406 -0.800041
vt -0.772766 -0.848869
vt -0.772766 -0.800041
vt 0.198632 0.156169
vt -0.704406 -0.272697
vt -0.772766 -0.272697
vt -0.772766 -0.223869
vt 0.409008 -0.332894
vt 0.260732 -0.284716
vt 0.267034 -0.121169
vt -0.704406 -0.848869
vt 0.479104 -0.139901
vt -0.958312 -0.546134
vt -0.822568 -0.281460
vt -0.704406 0.078866
vt -0.429100 -0.139901
vt -0.958312 0.078866
vt -1.472287 -0.281460
vt -0.704406 -0.546134
vt 0.325939 0.167486
vt 0.406262 -0.334016
vt 0.176369 -0.139901
vt -0.958312 -0.223869
vt -0.155168 -0.167841
vt -0.177850 0.224789
vt -1.147427 -0.281460
vt -0.958312 -0.848869
vt -0.175719 0.238050
vt -0.153890 -0.272685
vt -0.497708 -0.281460
vt -0.704406 -0.223869
vt 0.415311 -0.169347
vt 0.342716 0.093247
vt -0.126365 -0.139901
vt -0.067170 0.906072
vt -0.984061 0.906072
vt -0.984061 0.954900
vt 0.353453 -0.158409
vt -0.067170 0.954900
vt -0.410553 0.880786
vt -0.345887 -1.018748
vt -0.094597 -1.018748
vt -0.074218 -1.038279
vt 0.920119 -0.070160
vt 0.014684 -0.053332
vt 0.033122 -0.033550
vt -0.095323 0.904364
vt -0.964672 0.904364
vt -0.964672 0.923895
vt -0.041852 0.066686
vt -0.042183 0.506429
vt -0.005424 0.506776
vt 0.902340 -0.049705
vt -0.364570 -0.061716
vt -0.074218 -0.061716
vt -0.094597 -0.081248
vt -0.934264 -0.007878
vt -0.132634 -0.014205
vt -0.133010 -0.095583
vt -0.095323 0.923895
vt -0.345887 -0.081248
vt -0.066365 -0.063793
vt -0.990232 -0.063793
vt -0.971755 -0.042714
vt -0.979214 -0.031771
vt -0.070782 -0.031771
vt -0.070782 -0.056490
vt -0.934640 -0.089257
vt -0.364570 -1.038279
vt -0.084843 -0.042714
vt -0.979214 -0.056490
vt -0.005093 0.067032
vn 0.000000 0.941700 0.336300
vn 0.000000 -1.000000 0.000000
vn 0.000000 -0.274700 0.961500
vn -0.989900 0.141400 0.000000
vn 0.989900 0.141400 0.000000
vn 0.000000 -0.274700 -0.961500
vn 1.000000 0.000000 -0.000000
vn 0.000000 0.132200 -0.991200
vn -1.000000 -0.000000 0.000000
vn 0.000000 0.274700 -0.961500
vn 0.000000 0.274700 0.961500
vn 0.000000 0.000000 1.000000
vn 0.000300 0.941700 0.336300
vn 0.000000 0.941700 0.336600
vn 0.000000 -0.336300 0.941700
vn -0.000300 0.941700 0.336300
vn 0.000000 0.941800 0.336100
vn -0.000000 0.336300 -0.941700
usemtl OBJ_CITY_MARKETSTALLS_01
s off
f 79/1/1 77/2/1 75/3/1
f 75/3/1 73/4/1 79/1/1
usemtl OBJ_CITY_GALLOW_01
f 17/5/2 1/6/2 4/7/2
f 4/7/2 18/8/2 17/9/2
f 40/10/3 57/11/3 7/12/3
f 48/13/4 7/14/4 57/15/4
f 42/16/3 10/17/3 64/18/3
f 54/19/5 64/20/5 10/21/5
f 36/22/6 59/23/6 13/24/6
f 50/25/5 13/26/5 59/27/5
f 39/28/6 16/29/6 61/30/6
f 52/31/4 61/32/4 16/33/4
f 1/34/7 17/35/7 3/36/7
f 2/37/8 3/38/8 17/39/8
f 17/39/8 18/40/8 2/37/8
f 55/41/9 2/42/9 18/43/9
f 58/44/5 21/45/5 20/46/5
f 26/47/4 72/48/4 43/49/4
f 62/50/4 23/51/4 24/52/4
f 25/53/5 45/54/5 70/55/5
f 35/56/3 25/57/3 22/58/3
f 70/55/5 22/59/5 25/53/5
f 41/60/3 19/61/3 26/62/3
f 72/48/4 26/47/4 19/63/4
f 63/64/5 28/65/5 29/66/5
f 30/67/4 44/68/4 67/69/4
f 38/70/6 30/71/6 27/72/6
f 67/69/4 27/73/4 30/67/4
f 37/74/6 31/75/6 33/76/6
f 71/77/5 33/78/5 31/79/5
f 60/80/4 34/81/4 32/82/4
f 33/78/5 71/77/5 46/83/5
f 45/84/2 25/85/2 35/86/2
f 24/52/4 35/87/4 62/50/4
f 49/88/2 36/89/2 13/90/2
f 12/91/4 11/92/4 36/93/4
f 46/94/2 37/95/2 33/96/2
f 34/81/4 60/80/4 37/97/4
f 44/98/2 30/99/2 38/100/2
f 29/66/5 38/101/5 63/64/5
f 51/102/2 16/103/2 39/104/2
f 15/105/5 39/106/5 14/107/5
f 47/108/2 40/109/2 7/110/2
f 6/111/5 5/112/5 40/113/5
f 43/114/2 41/115/2 26/116/2
f 21/45/5 58/44/5 41/117/5
f 53/118/2 10/119/2 42/120/2
f 9/121/4 42/122/4 8/123/4
f 41/115/2 43/114/2 21/124/2
f 43/29/10 20/125/10 21/28/10
f 38/100/2 29/126/2 44/98/2
f 44/12/11 29/10/11 28/127/11
f 35/86/2 24/128/2 45/84/2
f 45/76/10 24/74/10 23/129/10
f 37/95/2 46/94/2 34/130/2
f 46/57/11 32/131/11 34/56/11
f 40/109/2 47/108/2 6/132/2
f 5/112/5 6/111/5 65/133/5
f 7/14/4 48/13/4 47/134/4
f 47/71/10 65/135/10 6/70/10
f 36/89/2 49/88/2 12/136/2
f 11/92/4 12/91/4 66/137/4
f 13/26/5 50/25/5 49/138/5
f 49/17/11 66/139/11 12/16/11
f 39/104/2 15/140/2 51/102/2
f 14/107/5 69/141/5 15/105/5
f 16/33/4 51/142/4 52/31/4
f 51/62/11 15/60/11 69/143/11
f 42/120/2 9/144/2 53/118/2
f 8/123/4 68/145/4 9/121/4
f 10/21/5 53/146/5 54/19/5
f 53/24/10 9/22/10 68/147/10
f 56/148/12 55/149/12 4/150/12
f 18/43/9 4/151/9 55/41/9
f 4/150/12 1/152/12 56/148/12
f 3/36/7 56/153/7 1/34/7
f 57/11/3 40/10/3 5/127/3
f 19/61/3 41/60/3 58/143/3
f 59/23/6 36/22/6 11/147/6
f 31/75/6 37/74/6 60/129/6
f 61/30/6 14/125/6 39/28/6
f 22/58/3 62/131/3 35/56/3
f 27/72/6 63/135/6 38/70/6
f 64/18/3 8/139/3 42/16/3
f 65/135/10 47/71/10 48/72/10
f 66/139/11 49/17/11 50/18/11
f 28/127/11 67/11/11 44/12/11
f 68/147/10 54/23/10 53/24/10
f 69/143/11 52/61/11 51/62/11
f 23/129/10 70/75/10 45/76/10
f 32/131/11 46/57/11 71/58/11
f 20/125/10 43/29/10 72/30/10
f 80/154/13 74/155/13 2/156/13
f 3/157/14 2/158/14 74/159/14
f 76/160/15 74/161/15 73/162/15
f 79/163/7 73/164/7 74/165/7
f 74/159/14 76/166/14 3/157/14
f 56/167/16 3/168/16 76/169/16
f 78/170/9 76/171/9 75/172/9
f 73/162/15 75/173/15 76/160/15
f 76/169/16 78/174/16 56/167/16
f 55/175/17 56/176/17 78/177/17
f 80/178/18 78/179/18 77/180/18
f 75/172/9 77/181/9 78/170/9
f 2/156/13 55/182/13 80/154/13
f 78/177/17 80/183/17 55/175/17
f 77/180/18 79/184/18 80/178/18
f 74/165/7 80/185/7 79/163/7
