# Blender v2.75 (sub 0) OBJ File: 'Empty.blend'
# www.blender.org
mtllib NW_CITY_CARPET_01.mtl
o NW_CITY_CARPET_01
v 1.749955 -0.024990 -1.250094
v -1.749957 -0.024990 -1.250094
v 1.749955 -0.024990 1.249905
v 1.450065 0.025010 -0.950178
v -1.749957 -0.024990 1.249905
v -1.449935 0.025010 -0.950010
v -1.449935 0.025010 0.949990
v 1.450065 0.025010 0.949821
v -0.483242 -0.024990 -1.249982
v 1.450065 0.025010 -0.316813
v 1.450065 0.025010 0.316551
v -1.749935 -0.024990 -0.316866
v -1.749935 -0.024990 0.316499
v 1.749977 -0.024990 -0.316771
v -1.449935 0.025010 -0.316645
v 1.749977 -0.024990 0.316594
v -1.449935 0.025010 0.316720
v -1.749935 -0.024990 0.949863
v 1.749977 -0.024990 -0.950136
v 1.749977 -0.024990 0.949863
v -1.749935 -0.024990 -0.950136
v 0.483495 0.025010 -0.316757
v 0.483495 0.025010 0.316608
v -0.483220 0.025010 -0.316701
v -0.483220 0.025010 0.316664
v 0.483473 -0.024990 -1.250038
v -0.483220 0.025010 -0.950066
v 0.483495 0.025010 -0.950122
v 0.483328 -0.024990 1.249962
v -0.483387 -0.024990 1.250018
v -0.483220 0.025010 0.949934
v 0.483495 0.025010 0.949877
v 1.450043 -0.024990 -1.250094
v -1.449957 -0.024990 -1.249925
v 1.450043 -0.024990 1.249905
v -1.449957 -0.024990 1.250074
vt 0.404385 0.626208
vt 0.594270 0.626661
vt 0.594428 0.374410
vt 0.214371 0.878006
vt 0.215942 0.997452
vt 0.405798 0.997905
vt 0.214529 0.625755
vt 0.157247 0.625593
vt 0.157089 0.877838
vt 0.784312 0.374863
vt 0.783997 0.879364
vt 0.844559 0.879562
vt 0.844717 0.627349
vt 0.404227 0.878459
vt 0.786194 0.003143
vt 0.784470 0.122650
vt 0.845108 0.003357
vt 0.844874 0.375099
vt 0.784155 0.627113
vt 0.594585 0.122197
vt 0.214686 0.373505
vt 0.595683 0.998357
vt 0.785568 0.998810
vt 0.157404 0.373348
vt 0.214844 0.121292
vt 0.404543 0.373957
vt 0.845032 0.122849
vt 0.157562 0.121140
vt 0.157028 0.997299
vt 0.157654 0.001633
vt 0.844498 0.999023
vt 0.594112 0.878911
vt 0.404700 0.121745
vt 0.406443 0.002238
vt 0.216553 0.001785
vt 0.596333 0.002690
vn -0.000000 1.000000 -0.000000
vn -0.000000 0.986400 -0.164400
vn 0.164400 0.986400 -0.000000
vn -0.164400 0.986400 -0.000000
vn -0.000100 0.986400 0.164400
vn 0.000000 0.986400 0.164400
vn 0.000100 0.986400 -0.164400
usemtl OBJ_CITY_CARPET_01
s off
f 22/1/1 24/2/1 25/3/1
f 4/4/2 33/5/2 26/6/2
f 10/7/3 14/8/3 19/9/3
f 17/10/1 25/3/1 24/2/1
f 6/11/4 21/12/4 12/13/4
f 26/6/2 28/14/2 4/4/2
f 36/15/5 7/16/5 5/17/5
f 13/18/4 17/10/4 15/19/4
f 31/20/6 7/16/6 36/15/6
f 14/8/3 10/7/3 11/21/3
f 9/22/2 34/23/2 6/11/2
f 19/9/3 4/4/3 10/7/3
f 4/4/1 28/14/1 22/1/1
f 16/24/3 11/21/3 8/25/3
f 23/26/1 11/21/1 10/7/1
f 17/10/4 13/18/4 18/27/4
f 15/19/4 12/13/4 13/18/4
f 11/21/3 16/24/3 14/8/3
f 12/13/4 15/19/4 6/11/4
f 24/2/1 22/1/1 28/14/1
f 8/25/3 20/28/3 16/24/3
f 18/27/4 7/16/4 17/10/4
f 25/3/1 17/10/1 7/16/1
f 18/27/4 5/17/4 7/16/4
f 19/9/3 1/29/3 4/4/3
f 3/30/3 20/28/3 8/25/3
f 2/31/4 21/12/4 6/11/4
f 10/7/1 22/1/1 23/26/1
f 22/1/1 10/7/1 4/4/1
f 8/25/1 11/21/1 23/26/1
f 7/16/1 31/20/1 25/3/1
f 15/19/1 24/2/1 27/32/1
f 24/2/1 15/19/1 17/10/1
f 32/33/1 23/26/1 25/3/1
f 25/3/1 23/26/1 22/1/1
f 28/14/2 26/6/2 9/22/2
f 27/32/1 6/11/1 15/19/1
f 6/11/2 27/32/2 9/22/2
f 9/22/2 27/32/2 28/14/2
f 28/14/1 27/32/1 24/2/1
f 32/33/6 29/34/6 35/35/6
f 31/20/6 30/36/6 29/34/6
f 23/26/1 32/33/1 8/25/1
f 35/35/6 8/25/6 32/33/6
f 29/34/6 32/33/6 31/20/6
f 25/3/1 31/20/1 32/33/1
f 33/5/2 4/4/2 1/29/2
f 6/11/7 34/23/7 2/31/7
f 8/25/6 35/35/6 3/30/6
f 36/15/6 30/36/6 31/20/6
