# Blender v2.75 (sub 0) OBJ File: 'Empty.blend'
# www.blender.org
mtllib NW_CITY_TABLE_RICH_01.mtl
o NW_CITY_TABLE_RICH_01
v -1.321992 0.350022 0.000162
v 1.322012 0.350022 0.000162
v 0.850010 0.450010 -0.649838
v -0.849990 0.450010 -0.649838
v 0.850010 0.350010 0.649818
v -0.849990 0.350010 0.649818
v 0.603942 -0.019653 0.049215
v 0.603942 -0.280619 0.049215
v 0.432825 -0.019653 -0.049579
v -0.603922 -0.019653 0.049215
v -0.603922 -0.280619 0.049215
v -0.432805 -0.019653 -0.049579
v 0.365341 -0.450003 0.343930
v 0.892914 -0.450003 0.039335
v 0.518383 -0.280594 -0.098976
v 0.365341 -0.450003 -0.344294
v 0.432825 -0.450003 -0.049579
v -0.365321 -0.450003 0.343930
v -0.892894 -0.450003 0.039335
v -0.518363 -0.280594 -0.098976
v -0.365321 -0.450003 -0.344294
v -0.432805 -0.450003 -0.049579
v 0.603942 -0.450003 -0.049579
v -0.603922 -0.450003 -0.049579
v 0.309333 0.149755 -0.263475
v 0.432825 0.149755 -0.049579
v -0.309313 0.149755 -0.263475
v -0.432805 0.149755 -0.049579
v 1.057612 0.350002 0.000093
v 0.680010 0.349990 0.519818
v -0.679990 0.349990 0.519818
v 0.905583 0.150002 0.305238
v 0.850927 0.149755 0.049215
v 0.518383 -0.019653 0.098612
v 0.394891 0.149755 0.312507
v 0.603942 0.149755 0.049215
v -0.850907 0.149755 0.049215
v -0.518363 -0.019653 0.098612
v -0.394871 0.149755 0.312507
v -0.603922 0.149755 0.049215
v -1.057592 0.350002 0.000093
v -0.645990 0.149990 0.493829
v -0.679990 0.349990 -0.519907
v -0.905563 0.150002 -0.305056
v 0.432825 -0.450003 0.049215
v -0.432805 -0.450003 0.049215
v 0.518383 -0.280619 0.098612
v 0.518383 -0.450003 -0.098976
v -0.518363 -0.280619 0.098612
v -0.518363 -0.450003 -0.098976
v 0.518383 -0.450003 0.098612
v -0.518363 -0.450003 0.098612
v 0.603942 -0.450003 0.049215
v -0.603922 -0.450003 0.049215
v 0.953245 0.350002 -0.321114
v 0.646010 0.149990 -0.493909
v 0.905583 0.150002 -0.305056
v 0.850010 0.350010 -0.649838
v -0.849990 0.350010 -0.649838
v 0.518383 0.149755 0.098612
v 0.518383 0.149755 -0.098976
v -0.518363 0.149755 0.098612
v -0.518363 0.149755 -0.098976
v 0.394891 0.149755 -0.312872
v 0.518383 -0.019628 -0.098976
v -0.394871 0.149755 -0.312872
v -0.518363 -0.019628 -0.098976
v -0.953225 0.350002 -0.321114
v -0.905563 0.150002 0.305238
v -1.191534 0.450022 0.401671
v -1.191534 0.450022 -0.401347
v 1.191554 0.450022 0.401671
v 1.191554 0.450022 -0.401347
v 0.432825 -0.280619 0.049215
v 0.603942 -0.280619 -0.049579
v -0.603922 -0.280619 -0.049579
v -0.432805 -0.280619 0.049215
v 0.432825 -0.280619 -0.049579
v -0.432805 -0.280619 -0.049579
v 1.322012 0.450022 0.000162
v 0.850010 0.450010 0.649818
v -0.849990 0.450010 0.649818
v -1.321992 0.450022 0.000162
v -1.191534 0.350022 0.401671
v 1.191554 0.350022 0.401671
v -1.191534 0.350022 -0.401347
v 1.191554 0.350022 -0.401347
v 0.296895 -0.450003 0.304412
v -0.296875 -0.450003 0.304412
v 0.892914 -0.450003 -0.039700
v -0.892894 -0.450003 -0.039700
v -0.296875 -0.450003 -0.304777
v 0.296895 -0.450003 -0.304777
v 0.603942 -0.019653 -0.049579
v 0.850927 0.149755 -0.049579
v -0.603922 -0.019653 -0.049579
v -0.850907 0.149755 -0.049579
v 0.432825 -0.019653 0.049215
v 0.309333 0.149755 0.263110
v -0.432805 -0.019653 0.049215
v -0.309313 0.149755 0.263110
v -0.365321 -0.362861 -0.344294
v 0.365341 -0.362861 -0.344294
v 0.892914 -0.362887 0.039335
v -0.892894 -0.362887 0.039335
v 0.296895 -0.362887 0.304412
v -0.296875 -0.362887 0.304412
v 0.680010 0.349990 -0.519907
v 0.296895 -0.362887 -0.304777
v -0.296875 -0.362887 -0.304777
v 0.892914 -0.362887 -0.039700
v -0.892894 -0.362887 -0.039700
v 0.365341 -0.362887 0.343930
v -0.365321 -0.362887 0.343930
v -0.953225 0.350002 0.321301
v 0.953245 0.350002 0.321301
v -0.645990 0.149990 -0.493909
v 0.646010 0.149990 0.493829
v 1.004732 0.150002 0.000091
v -1.004712 0.150002 0.000091
v 0.603942 0.149755 -0.049579
v -0.603922 0.149755 -0.049579
v 0.432825 0.149755 0.049215
v -0.432805 0.149755 0.049215
v 0.309333 0.113451 0.263110
v 0.394891 0.113451 0.312507
v 0.456637 0.077151 0.205559
v -0.309313 0.113451 0.263110
v -0.394871 0.113451 0.312507
v -0.456617 0.077151 0.205559
v 0.309333 0.113451 -0.263475
v -0.309313 0.113451 -0.263475
v 0.850927 0.113451 0.049215
v 0.850927 0.113451 -0.049579
v -0.850907 0.113451 0.049215
v -0.850907 0.113451 -0.049579
v 0.394891 0.113476 -0.312872
v -0.394871 0.113476 -0.312872
v -0.456617 0.077176 -0.205924
v -0.371059 0.077151 -0.156527
v 0.456637 0.077176 -0.205924
v 0.371079 0.077151 -0.156527
v 0.727434 0.077151 0.049215
v 0.727434 0.077151 -0.049579
v 0.371079 0.077151 0.156162
v -0.727414 0.077151 0.049215
v -0.727414 0.077151 -0.049579
v -0.371059 0.077151 0.156162
v 0.371079 0.149755 0.156162
v 0.371079 0.149755 -0.156527
v -0.371059 0.149755 -0.156527
v 0.456637 0.149755 0.205559
v -0.456617 0.149755 0.205559
v 0.727434 0.149755 0.049215
v 0.727434 0.149755 -0.049579
v 0.456637 0.149755 -0.205924
v -0.371059 0.149755 0.156162
v -0.727414 0.149755 0.049215
v -0.727414 0.149755 -0.049579
v -0.456617 0.149755 -0.205924
vt 0.063103 -0.804299
vt 0.767346 -0.804299
vt 0.767346 -0.067235
vt 0.063103 -0.067235
vt 0.104939 -0.059052
vt 0.625640 -0.059052
vt 0.625640 -0.002698
vt 0.650648 -0.663570
vt 0.104939 -0.002698
vt 0.203458 -0.663570
vt 0.829771 -0.238647
vt 0.889783 -0.805314
vt 0.889783 -0.238647
vt 0.499892 -0.814468
vt 0.227412 -0.813958
vt 0.499892 -0.997576
vt 0.829771 -0.805314
vt 0.829206 -0.722256
vt 0.875093 -0.483509
vt 0.894777 -0.722256
vt 0.766881 -0.064837
vt 0.766881 -0.788251
vt 0.064358 -0.788251
vt 0.064749 -0.714691
vt 0.234107 -0.144953
vt 0.064667 -0.144866
vt 0.765647 -0.714750
vt 0.064358 -0.064836
vt 0.765876 -0.144896
vt 0.601742 -0.144994
vt 0.170937 -0.650127
vt 0.602016 -0.714972
vt 0.064755 -0.714802
vt 0.765663 -0.714802
vt 0.064618 -0.715245
vt 0.064674 -0.145090
vt 0.234005 -0.714972
vt 0.636076 -0.203152
vt 0.636076 -0.650128
vt 0.000326 -0.059045
vt 0.730253 -0.059045
vt 0.998736 -0.938972
vt 1.209844 -0.814463
vt 0.998737 -0.814452
vt 1.209838 -0.938983
vt 0.765005 -0.715245
vt 0.602042 -0.714945
vt 0.764846 -0.145090
vt 0.000326 -0.002691
vt 0.183635 -0.059052
vt 0.183635 -0.002690
vt 0.026212 -0.002691
vt 0.730253 -0.002691
vt 0.203458 -0.208160
vt 0.341059 -0.002691
vt 0.650648 -0.208160
vt 0.664366 -0.814181
vt 0.896564 -0.940119
vt 0.664366 -0.940173
vt 0.664136 -0.814195
vt 0.896448 -0.940132
vt 0.664136 -0.940186
vt 0.026212 -0.059052
vt 0.613550 -0.435865
vt 0.341059 -0.059052
vt 0.240557 -0.435865
vt 0.896564 -0.814239
vt 0.896448 -0.814253
vt 0.896563 -0.814267
vt 1.209844 -0.814442
vt 0.998737 -0.814442
vt 0.996753 -0.814267
vt 0.227412 -0.997576
vt 0.996097 -0.814253
vt 0.996756 -0.814239
vt 0.996756 -0.940146
vt 0.996097 -0.940132
vt 0.234025 -0.714862
vt 0.170937 -0.203151
vt 0.600382 -0.426640
vt 0.206631 -0.426639
vt 0.887619 -0.814442
vt 0.849490 -0.938983
vt 0.887619 -0.938983
vt 0.829206 -0.483509
vt 0.849490 -0.814442
vt 0.874913 -0.281924
vt 0.829206 -0.281924
vn 0.000000 1.000000 -0.000000
vn 0.000000 -1.000000 0.000000
vn 0.000000 0.000000 1.000000
vn 1.000000 0.000000 0.000000
vn -0.500000 0.000000 0.866000
vn -1.000000 0.000000 0.000000
vn 0.500000 0.000000 0.866000
vn 0.034200 0.000000 -0.999400
vn -0.882600 0.000000 -0.470100
vn -0.882600 0.000000 0.470100
vn 0.848400 0.000000 -0.529300
vn -0.034200 0.000000 -0.999400
vn 0.882600 0.000000 -0.470100
vn 0.882600 0.000000 0.470100
vn -0.848400 0.000000 -0.529300
vn 0.500000 0.000000 -0.866000
vn -0.500000 0.000000 -0.866000
vn -0.866000 0.000000 0.500000
vn 0.866000 0.000000 -0.500000
vn 0.866000 0.000000 0.500000
vn -0.866000 0.000000 -0.500000
vn 0.575800 -0.200900 0.792500
vn 0.000000 -0.128900 0.991700
vn 0.000000 0.000000 -1.000000
vn -0.575800 -0.200900 0.792500
vn -0.576300 -0.200900 -0.792100
vn 0.000000 -0.128900 -0.991700
vn 0.848400 0.000000 0.529300
vn -0.848400 0.000000 0.529300
vn 0.034200 0.000000 0.999400
vn -0.034200 0.000000 0.999400
vn 0.922300 -0.243900 -0.299700
vn 0.576300 -0.200900 -0.792100
vn 0.588300 0.000000 -0.808600
vn -0.588300 0.000000 -0.808600
vn -0.308300 -0.787000 -0.534400
vn 0.308300 -0.787000 -0.534400
vn -0.922300 -0.243900 -0.299700
vn -0.587800 0.000000 0.809000
vn -0.951100 0.000000 -0.309000
vn 0.587800 0.000000 0.809000
vn 0.951100 0.000000 -0.309000
vn -0.136900 0.961800 0.237100
vn 0.273800 0.961800 0.000000
vn -0.273800 0.961800 0.000000
vn 0.136900 0.961800 0.237100
vn -0.137100 0.961800 -0.237000
vn 0.137100 0.961800 -0.237000
vn 0.951100 0.000000 0.309000
vn -0.951100 0.000000 0.309000
vn 0.137200 0.961800 -0.237000
vn -0.137200 0.961800 -0.237000
vn 0.616900 -0.787000 0.000000
vn -0.616900 -0.787000 0.000000
vn -0.308500 -0.787000 0.534300
vn 0.308500 -0.787000 0.534300
vn -0.922300 -0.243900 0.299700
vn 0.922300 -0.243900 0.299700
vn -0.141000 -0.959400 0.244200
vn 0.141000 -0.959400 0.244200
vn 0.140800 -0.959400 -0.244400
vn -0.140800 -0.959400 -0.244400
vn 0.282000 -0.959400 0.000000
vn -0.282000 -0.959400 0.000000
usemtl OBJ_CITY_TABLERICH_01
s off
f 82/1/1 81/2/1 3/3/1
f 58/3/2 5/2/2 6/1/2
f 3/3/1 4/4/1 82/1/1
f 6/1/2 59/4/2 58/3/2
f 6/5/3 5/6/3 81/7/3
f 58/3/2 85/8/2 5/2/2
f 81/7/3 82/9/3 6/5/3
f 59/4/2 6/1/2 84/10/2
f 36/11/4 23/12/4 121/13/4
f 123/11/5 51/12/5 60/13/5
f 40/11/6 122/13/6 24/12/6
f 124/11/7 62/13/7 52/12/7
f 75/14/8 111/15/8 23/16/8
f 23/1/2 14/1/2 53/1/2
f 23/12/4 36/11/4 53/17/4
f 51/1/2 88/1/2 45/1/2
f 45/16/9 106/15/9 74/14/9
f 51/12/5 123/11/5 45/17/5
f 78/14/10 109/15/10 17/16/10
f 48/16/11 103/15/11 15/14/11
f 76/14/12 24/16/12 112/15/12
f 24/1/2 54/1/2 19/1/2
f 24/12/6 54/17/6 40/11/6
f 52/1/2 46/1/2 89/1/2
f 46/16/13 77/14/13 107/15/13
f 52/12/7 46/17/7 124/11/7
f 79/14/14 22/16/14 110/15/14
f 50/16/15 20/14/15 102/15/15
f 48/12/16 121/11/16 23/17/16
f 53/1/2 48/1/2 23/1/2
f 50/12/17 24/17/17 122/11/17
f 54/1/2 24/1/2 50/1/2
f 26/18/18 142/19/18 9/20/18
f 65/20/19 141/19/19 61/18/19
f 28/18/20 12/20/20 140/19/20
f 67/20/21 63/18/21 139/19/21
f 56/21/2 118/22/2 42/23/2
f 118/24/22 116/25/22 30/26/22
f 42/27/23 118/24/23 30/26/23
f 121/18/24 144/19/24 94/20/24
f 7/20/3 143/19/3 36/18/3
f 98/20/21 145/19/21 123/18/21
f 60/18/20 127/19/20 34/20/20
f 122/18/24 96/20/24 147/19/24
f 10/20/3 40/18/3 146/19/3
f 100/20/19 124/18/19 148/19/19
f 62/18/18 38/20/18 130/19/18
f 42/23/2 117/28/2 56/21/2
f 30/26/23 31/29/23 42/27/23
f 42/27/25 31/29/25 115/30/25
f 117/28/2 42/23/2 69/31/2
f 44/32/26 68/30/26 43/29/26
f 56/33/27 117/34/27 43/29/27
f 45/12/6 26/11/6 17/17/6
f 45/1/2 48/1/2 53/1/2
f 46/12/4 22/17/4 28/11/4
f 46/1/2 54/1/2 50/1/2
f 45/1/2 53/1/2 51/1/2
f 53/12/7 60/11/7 51/17/7
f 17/1/2 16/1/2 48/1/2
f 17/1/2 48/1/2 45/1/2
f 17/12/17 61/11/17 48/17/17
f 46/1/2 52/1/2 54/1/2
f 54/12/5 52/17/5 62/11/5
f 22/1/2 50/1/2 21/1/2
f 22/1/2 46/1/2 50/1/2
f 22/12/16 50/17/16 63/11/16
f 47/14/28 113/15/28 51/16/28
f 49/14/29 52/16/29 114/15/29
f 53/16/30 104/15/30 8/14/30
f 54/16/31 11/14/31 105/15/31
f 119/35/32 55/25/32 29/36/32
f 43/29/27 108/26/27 56/33/27
f 119/35/32 57/37/32 55/25/32
f 56/21/2 57/38/2 32/39/2
f 57/37/33 56/33/33 108/26/33
f 4/7/24 3/9/24 58/5/24
f 87/40/34 58/5/34 3/9/34
f 58/5/24 59/6/24 4/7/24
f 86/41/35 4/7/35 59/6/35
f 60/11/7 53/12/7 36/13/7
f 61/11/17 17/12/17 26/13/17
f 62/11/5 40/13/5 54/12/5
f 63/11/16 28/13/16 22/12/16
f 141/42/36 9/43/36 142/44/36
f 9/43/36 141/42/36 65/45/36
f 139/42/37 140/44/37 12/43/37
f 12/43/37 67/45/37 139/42/37
f 120/46/38 68/30/38 44/32/38
f 42/27/25 115/30/25 69/47/25
f 120/46/38 41/48/38 68/30/38
f 6/5/39 70/49/39 84/40/39
f 1/50/40 83/51/40 71/52/40
f 86/41/35 71/53/35 4/7/35
f 4/4/1 71/54/1 70/10/1
f 5/6/41 85/41/41 72/53/41
f 2/50/42 73/55/42 80/51/42
f 87/40/34 3/9/34 73/49/34
f 3/3/1 72/8/1 73/56/1
f 74/57/43 113/58/43 47/59/43
f 8/60/44 111/61/44 75/62/44
f 11/60/45 76/62/45 112/61/45
f 77/57/46 49/59/46 114/58/46
f 15/57/47 109/58/47 78/59/47
f 20/57/48 79/59/48 110/58/48
f 85/63/49 80/51/49 72/52/49
f 73/56/1 72/8/1 80/64/1
f 5/6/41 72/53/41 81/7/41
f 3/3/1 81/2/1 72/8/1
f 6/5/39 82/9/39 70/49/39
f 4/4/1 70/10/1 82/1/1
f 84/65/50 70/55/50 83/51/50
f 71/54/1 83/66/1 70/10/1
f 59/4/2 84/10/2 86/54/2
f 84/65/50 83/51/50 1/50/50
f 58/3/2 87/56/2 85/8/2
f 85/63/49 2/50/49 80/51/49
f 84/10/2 1/66/2 86/54/2
f 1/50/40 71/52/40 86/63/40
f 85/8/2 87/56/2 2/64/2
f 2/50/42 87/65/42 73/55/42
f 88/1/2 51/1/2 13/1/2
f 113/58/43 74/57/43 106/67/43
f 89/1/2 18/1/2 52/1/2
f 114/58/46 107/67/46 77/57/46
f 14/1/2 23/1/2 90/1/2
f 111/61/44 8/60/44 104/68/44
f 19/1/2 91/1/2 24/1/2
f 112/61/45 105/68/45 11/60/45
f 21/1/2 92/1/2 22/1/2
f 110/58/51 102/69/51 20/57/51
f 16/1/2 17/1/2 93/1/2
f 109/58/52 15/57/52 103/69/52
f 94/70/53 143/42/53 7/45/53
f 143/42/53 94/70/53 144/71/53
f 96/70/54 10/45/54 146/42/54
f 146/42/54 147/71/54 96/70/54
f 34/70/55 145/42/55 98/45/55
f 145/42/55 34/70/55 127/71/55
f 38/70/56 100/45/56 148/42/56
f 148/42/56 130/71/56 38/70/56
f 21/72/16 102/69/16 110/58/16
f 102/15/15 21/73/15 50/16/15
f 16/72/17 109/58/17 103/69/17
f 103/15/11 48/16/11 16/73/11
f 14/74/4 111/61/4 104/68/4
f 104/15/30 53/16/30 14/73/30
f 19/74/6 105/68/6 112/61/6
f 105/15/31 19/73/31 54/16/31
f 88/75/5 113/58/5 106/67/5
f 106/15/9 45/16/9 88/73/9
f 89/75/7 107/67/7 114/58/7
f 107/15/13 89/73/13 46/16/13
f 57/37/33 108/26/33 55/25/33
f 109/58/17 16/72/17 93/76/17
f 93/73/10 17/16/10 109/15/10
f 110/58/16 92/76/16 21/72/16
f 92/73/14 110/15/14 22/16/14
f 111/61/4 14/74/4 90/77/4
f 90/73/8 23/16/8 111/15/8
f 112/61/6 91/77/6 19/74/6
f 91/73/12 112/15/12 24/16/12
f 113/58/5 88/75/5 13/76/5
f 13/73/28 51/16/28 113/15/28
f 114/58/7 18/76/7 89/75/7
f 18/73/29 114/15/29 52/16/29
f 69/47/57 115/30/57 41/48/57
f 32/78/58 29/36/58 116/25/58
f 117/28/2 69/31/2 44/79/2
f 44/32/26 43/29/26 117/34/26
f 56/21/2 32/39/2 118/22/2
f 118/24/22 32/78/22 116/25/22
f 32/39/2 57/38/2 119/80/2
f 32/78/58 119/35/58 29/36/58
f 69/31/2 120/81/2 44/79/2
f 69/47/57 41/48/57 120/46/57
f 121/11/16 48/12/16 61/13/16
f 122/11/17 63/13/17 50/12/17
f 26/11/6 45/12/6 123/13/6
f 28/11/4 124/13/4 46/12/4
f 126/82/5 99/83/5 125/84/5
f 149/85/21 123/18/21 145/19/21
f 99/83/5 126/82/5 35/86/5
f 127/19/20 60/18/20 152/85/20
f 152/85/20 126/87/20 127/19/20
f 125/84/59 127/71/59 126/82/59
f 129/82/7 128/84/7 101/83/7
f 101/88/19 128/87/19 157/85/19
f 101/83/7 39/86/7 129/82/7
f 130/19/18 153/85/18 62/18/18
f 153/85/18 130/19/18 129/87/18
f 128/84/60 129/82/60 130/71/60
f 64/83/17 131/82/17 25/86/17
f 131/87/18 150/85/18 25/88/18
f 66/83/16 27/86/16 132/82/16
f 132/87/20 27/88/20 151/85/20
f 134/82/4 33/83/4 133/84/4
f 33/88/3 154/85/3 133/87/3
f 33/83/4 134/82/4 95/86/4
f 134/87/24 155/85/24 95/88/24
f 136/82/6 135/84/6 37/83/6
f 37/88/3 135/87/3 158/85/3
f 37/83/6 97/86/6 136/82/6
f 136/87/24 97/88/24 159/85/24
f 131/82/17 64/83/17 137/84/17
f 64/88/19 156/85/19 137/87/19
f 132/82/16 138/84/16 66/83/16
f 66/88/21 138/87/21 160/85/21
f 140/44/61 139/42/61 138/84/61
f 139/19/21 160/85/21 138/87/21
f 151/85/20 140/19/20 132/87/20
f 138/84/61 132/82/61 140/44/61
f 142/44/62 137/84/62 141/42/62
f 141/19/19 137/87/19 156/85/19
f 150/85/18 131/87/18 142/19/18
f 137/84/62 142/44/62 131/82/62
f 144/71/63 133/84/63 143/42/63
f 143/19/3 133/87/3 154/85/3
f 155/85/24 134/87/24 144/19/24
f 133/84/63 144/71/63 134/82/63
f 127/71/59 125/84/59 145/42/59
f 145/19/21 125/87/21 149/85/21
f 147/71/64 146/42/64 135/84/64
f 146/19/3 158/85/3 135/87/3
f 159/85/24 147/19/24 136/87/24
f 135/84/64 136/82/64 147/71/64
f 130/71/60 148/42/60 128/84/60
f 148/19/19 157/85/19 128/87/19
f 99/88/21 149/85/21 125/87/21
f 142/19/18 26/18/18 150/85/18
f 140/19/20 151/85/20 28/18/20
f 126/87/20 152/85/20 35/88/20
f 129/87/18 39/88/18 153/85/18
f 154/85/3 36/18/3 143/19/3
f 144/19/24 121/18/24 155/85/24
f 156/85/19 61/18/19 141/19/19
f 157/85/19 148/19/19 124/18/19
f 158/85/3 146/19/3 40/18/3
f 147/19/24 159/85/24 122/18/24
f 160/85/21 139/19/21 63/18/21
