# Blender v2.75 (sub 0) OBJ File: 'Empty.blend'
# www.blender.org
mtllib NW_CITY_HIDDENDOOR_01.mtl
o NW_CITY_HIDDENDOOR_01
v -0.053298 -1.802491 1.102621
v -0.053298 1.802510 1.102621
v 0.000319 -1.802491 -1.102659
v 0.000319 1.802510 -1.102659
v -0.052681 -1.802491 -1.102674
v -0.052681 1.802510 -1.102674
v -0.000298 -1.802491 1.102636
v -0.000298 1.802510 1.102636
v -0.053298 0.600783 1.102621
v 0.000319 0.600783 -1.102659
v -0.052681 -0.600764 -1.102674
v -0.000298 -0.600764 1.102636
v -0.000298 0.600963 1.102636
v -0.053298 -0.600944 1.102621
v -0.052681 0.600963 -1.102674
v 0.000319 -0.600944 -1.102659
v -0.052990 -0.600854 -0.000026
v -0.052990 0.600873 -0.000026
v -0.052990 1.802510 -0.000026
v -0.052990 -1.802491 -0.000026
v 0.000010 -0.600854 -0.000012
v 0.000010 0.600873 -0.000012
v 0.000010 -1.802491 -0.000012
v 0.000010 1.802510 -0.000012
vt 0.000401 -0.667756
vt 0.402138 -0.667782
vt 0.402138 -0.323105
vt 0.000401 -0.323080
vt 0.402138 -1.012432
vt 0.000401 -1.012432
vt 0.803875 -0.667808
vt 0.803875 -0.323080
vt 0.402138 0.021545
vt 0.000401 0.021545
vt 0.803875 0.021545
vt 0.803875 -1.012432
vn 1.000000 0.000000 0.000300
vn -1.000000 0.000000 -0.000300
vn 0.000000 -1.000000 0.000000
vn 0.000300 0.000000 -1.000000
vn 0.000000 1.000000 -0.000000
vn -0.000300 0.000000 1.000000
usemtl NW_CITY_INSIDEWALL_11
s off
f 12/1/1 21/2/1 22/3/1
f 18/3/2 17/2/2 14/1/2
f 22/3/1 13/4/1 12/1/1
f 14/1/2 9/4/2 18/3/2
f 20/5/3 23/5/3 7/6/3
f 16/7/4 11/7/4 15/8/4
f 24/9/5 19/9/5 2/10/5
f 15/8/4 10/8/4 16/7/4
f 7/6/3 1/6/3 20/5/3
f 14/1/6 12/1/6 13/4/6
f 2/10/5 8/10/5 24/9/5
f 13/4/6 9/4/6 14/1/6
f 9/4/2 2/10/2 19/9/2
f 8/10/6 2/10/6 9/4/6
f 6/11/4 4/11/4 10/8/4
f 22/3/1 24/9/1 8/10/1
f 3/12/4 5/12/4 11/7/4
f 17/2/2 20/5/2 1/6/2
f 1/6/6 7/6/6 12/1/6
f 21/2/1 12/1/1 7/6/1
f 9/4/6 13/4/6 8/10/6
f 8/10/1 13/4/1 22/3/1
f 12/1/6 14/1/6 1/6/6
f 1/6/2 14/1/2 17/2/2
f 10/8/4 15/8/4 6/11/4
f 19/9/2 18/3/2 9/4/2
f 11/7/4 16/7/4 3/12/4
f 7/6/1 23/5/1 21/2/1
f 11/7/2 17/2/2 18/3/2
f 17/2/2 11/7/2 5/12/2
f 18/3/2 15/8/2 11/7/2
f 6/11/2 15/8/2 18/3/2
f 4/11/5 6/11/5 19/9/5
f 18/3/2 19/9/2 6/11/2
f 23/5/3 20/5/3 5/12/3
f 5/12/2 20/5/2 17/2/2
f 3/12/1 16/7/1 21/2/1
f 22/3/1 21/2/1 16/7/1
f 24/9/1 22/3/1 10/8/1
f 16/7/1 10/8/1 22/3/1
f 5/12/3 3/12/3 23/5/3
f 21/2/1 23/5/1 3/12/1
f 10/8/1 4/11/1 24/9/1
f 19/9/5 24/9/5 4/11/5
