# Blender v2.75 (sub 0) OBJ File: 'Empty.blend'
# www.blender.org
mtllib NW_CITY_DECO_SHADOWHEAD_01.mtl
o NW_CITY_DECO_SHADOWHEAD_01
v 0.210768 -0.057782 -0.274787
v 0.000010 0.563699 0.358080
v -0.248570 0.336900 -0.271614
v 0.248590 0.336900 -0.264465
v 0.223644 -0.007499 -0.042531
v 0.000010 -0.469314 0.125904
v 0.000010 -0.065927 0.241147
v -0.223624 -0.007499 -0.042531
v 0.000010 -0.091341 0.217272
v -0.210748 -0.057782 -0.274787
v 0.000010 0.182762 0.118793
v 0.000010 0.108499 0.266313
v -0.115394 0.279699 0.029992
v 0.000010 0.411291 0.099493
v 0.115414 0.279699 0.029992
v -0.104166 -0.330715 0.092109
v -0.222982 0.297325 0.046402
v 0.173581 0.008000 0.178735
v -0.173561 0.008000 0.178735
v 0.000010 -0.143458 0.224839
v 0.223002 0.297325 0.046402
v 0.000010 -0.021567 0.247109
v 0.357010 -0.419843 -0.358100
v -0.356990 -0.419843 -0.358100
v -0.475990 0.413157 -0.358100
v -0.237990 0.651157 -0.358100
v -0.349771 0.371084 -0.258100
v -0.166244 0.162451 0.081970
v 0.166264 0.162451 0.081970
v 0.104186 -0.330715 0.092109
v -0.288924 0.175235 -0.135923
v 0.192645 -0.222805 -0.179066
v -0.192625 -0.222805 -0.179066
v 0.000010 -0.320464 0.028593
v 0.000010 -0.651137 -0.358100
v 0.000010 -0.509345 -0.258100
v 0.288943 0.175235 -0.135923
v 0.238010 0.651157 -0.358100
v 0.476010 0.413157 -0.358100
v 0.349791 0.371084 -0.258100
v 0.246863 -0.349412 -0.258100
v -0.246843 -0.349412 -0.258100
v 0.144713 -0.101381 0.145382
v -0.144693 -0.101381 0.145382
v 0.126568 -0.016398 0.188311
v -0.126548 -0.016398 0.188311
v 0.133982 -0.093266 0.144996
v -0.133962 -0.093266 0.144996
v 0.074791 0.334511 0.187419
v -0.074771 0.334511 0.187419
v -0.271047 -0.106484 -0.141622
v 0.124300 0.366362 -0.270886
v -0.124280 0.366362 -0.267268
v -0.188699 0.532157 -0.258100
v 0.188719 0.532157 -0.258100
v -0.275710 0.143852 -0.265388
v 0.275730 0.143852 -0.269061
v 0.265104 -0.036875 -0.265139
v 0.271067 -0.106484 -0.141622
v 0.097796 0.103776 0.212321
v -0.097776 0.103776 0.212321
v -0.265084 -0.036875 -0.235898
v 0.000010 0.395824 -0.271063
v -0.223062 0.226634 -0.049100
v 0.223082 0.226634 -0.049100
v 0.000010 -0.220045 -0.152814
v 0.000010 0.316762 0.240927
v 0.000010 -0.006667 -0.087262
v 0.120734 -0.052371 0.187436
v -0.120714 -0.052371 0.187436
v 0.091003 -0.084702 0.183107
v -0.090983 -0.084702 0.183107
v -0.172750 -0.039147 0.060276
v 0.172770 -0.039147 0.060276
v -0.175058 -0.033589 0.107697
v 0.175078 -0.033589 0.107697
v 0.000010 0.532157 -0.258100
v 0.000010 0.651157 -0.358100
vt 0.917256 -0.130005
vt 0.784056 -0.160856
vt 0.877847 -0.178702
vt 0.791355 -0.137203
vt 0.941665 -0.205899
vt 0.875965 -0.235205
vt 0.827615 -0.484575
vt 0.914535 -0.539478
vt 0.820384 -0.520170
vt 0.926430 -0.506055
vt 0.838910 -0.441382
vt 0.867529 -0.409698
vt 0.708702 -0.694663
vt 0.793099 -0.805258
vt 0.706009 -0.812291
vt 0.937043 -0.433390
vt 0.839212 -0.302277
vt 0.918712 -0.314880
vt 0.802846 -0.732059
vt 0.699532 -0.693110
vt 0.767743 -0.623980
vt 0.789855 -0.244084
vt 0.758830 -0.323450
vt 0.933344 -0.256793
vt 0.955207 -0.152099
vt 0.982149 -0.155375
vt 0.988284 -0.083134
vt 0.952161 -0.545710
vt 0.973404 -0.444994
vt 0.776757 -0.184510
vt 0.840320 -0.196199
vt 0.914586 -0.407238
vt 0.978421 -0.413108
vt 0.947989 -0.404174
vt 0.973617 -0.444845
vt 0.874551 -0.329417
vt 0.818584 -0.227570
vt 0.747666 -0.252410
vt 0.794091 -0.425901
vt 0.734909 -0.329536
vt 0.817518 -0.389261
vt 0.799425 -0.734109
vt 0.982962 -0.308149
vt 0.936591 -0.342754
vt 0.871356 -0.656701
vt 0.982443 -0.343472
vt 0.816653 -0.419220
vt 0.977869 -0.245213
vt 0.934632 -0.385902
vt 0.917181 -0.359625
vt 0.684727 -0.097554
vt 0.212198 -0.097439
vt 0.182583 -0.006009
vt 0.563977 -0.570007
vt 0.350117 -0.116029
vt 0.350117 -0.652367
vt 0.012774 -0.005966
vt 0.653148 -0.198976
vt 0.566213 -0.570008
vt 0.711934 -0.006058
vt 0.932059 -0.006053
vt 0.919165 -0.097345
vt 0.684697 -0.097525
vt 0.012975 -0.005963
vt 0.027806 -0.097292
vt 0.711905 -0.006047
vt 0.027605 -0.097301
vt 0.655384 -0.198976
vt 0.513603 -0.116029
vt 0.515840 -0.116029
vn -0.786100 0.586700 0.194500
vn -0.231600 0.972000 -0.040600
vn 0.245200 0.479800 0.842400
vn -0.078300 -0.872200 -0.482800
vn 0.822100 -0.567800 0.042200
vn 0.853500 -0.102600 0.510900
vn -0.080300 0.904800 0.418300
vn 0.933000 -0.229300 0.277300
vn -0.933000 -0.229300 0.277300
vn -0.921100 0.026500 0.388400
vn -0.853500 -0.102600 0.510900
vn 0.921100 0.026500 0.388400
vn 0.003700 -0.999300 -0.037000
vn -0.947000 -0.217700 0.236100
vn 0.859800 0.106100 0.499400
vn -0.859900 0.106100 0.499400
vn -0.212100 0.844600 0.491600
vn 0.212100 0.844600 0.491600
vn -0.245200 0.479800 0.842400
vn -0.599100 -0.343200 0.723400
vn -0.828900 0.482000 -0.284100
vn 0.599100 -0.343200 0.723400
vn 0.785900 0.587600 0.192500
vn 0.828900 0.482000 -0.284100
vn -0.571800 -0.238300 0.785000
vn 0.112500 -0.935300 -0.335500
vn 0.176700 0.978400 0.107500
vn -0.871200 -0.062500 0.486900
vn 0.927700 -0.275400 0.252100
vn -0.927700 -0.275400 0.252100
vn -0.416800 -0.187100 0.889500
vn 0.416800 -0.187100 0.889500
vn -0.177000 0.978100 0.109900
vn 0.871200 -0.062500 0.486900
vn -0.896500 -0.247400 0.367500
vn 0.896500 -0.247400 0.367500
vn 0.194500 0.325800 0.925200
vn -0.993400 -0.091500 0.068600
vn -0.194500 0.325800 0.925200
vn 0.993200 -0.093300 0.069900
vn 0.415300 -0.497800 -0.761400
vn 0.571800 -0.238300 0.785000
vn -0.811900 0.480700 0.331300
vn -0.993900 -0.072100 -0.083900
vn -0.124700 -0.487500 -0.864100
vn 0.334300 -0.500100 -0.798900
vn 0.000000 -0.600900 -0.799300
vn -0.614800 -0.162100 -0.771900
vn -0.112500 -0.935300 -0.335500
vn -0.415300 -0.497800 -0.761400
vn 0.950000 -0.233300 0.207700
vn 0.814100 0.472100 0.338100
vn 0.523300 -0.279500 0.805000
vn 0.527700 -0.389500 0.754800
vn -0.045900 0.914900 0.401000
vn -0.523300 -0.279500 0.805000
vn -0.527700 -0.389500 0.754800
vn 0.045900 0.914900 0.401000
vn 0.422700 -0.079200 0.902800
vn 0.413700 -0.281400 0.865800
vn 0.020100 -0.998800 -0.044500
vn -0.422700 -0.079200 0.902800
vn -0.413700 -0.281400 0.865800
vn -0.020100 -0.998800 -0.044500
vn 0.350200 -0.368300 0.861200
vn -0.350200 -0.368300 0.861200
vn 0.739800 0.671400 -0.042900
vn 0.748800 -0.541700 0.381800
vn -0.739800 0.671400 -0.042900
vn -0.748800 -0.541700 0.381800
vn -0.822100 -0.567800 0.042200
vn -0.628400 -0.440800 -0.641000
vn 0.208100 0.938200 0.276400
vn -0.230700 0.932300 0.278700
vn -0.982100 0.133800 -0.132700
vn 0.981300 0.141100 -0.130600
vn 0.186800 -0.032300 -0.981900
vn 0.994600 -0.060300 -0.084500
vn 0.832700 -0.464200 -0.301800
vn 0.939100 0.316700 0.133100
vn 0.474600 -0.128600 0.870800
vn 0.279800 0.857500 0.431700
vn -0.474600 -0.128600 0.870800
vn -0.279800 0.857500 0.431700
vn -0.820700 -0.433600 -0.372000
vn -0.942700 0.294000 0.157500
vn 0.230500 0.972200 -0.040600
vn -0.915900 -0.322200 0.239300
vn -0.837000 0.251500 0.486000
vn 0.915900 -0.322200 0.239300
vn 0.837000 0.251500 0.486000
vn 0.124700 -0.487500 -0.864100
vn 0.078300 -0.872200 -0.482800
vn -0.567200 -0.554800 0.608700
vn 0.567200 -0.554800 0.608700
vn -0.003700 -0.999300 -0.037000
vn 0.080300 0.904800 0.418300
vn 0.549200 -0.373000 0.747800
vn -0.549200 -0.373000 0.747800
vn 0.578800 -0.357200 0.733000
vn -0.578800 -0.357200 0.733000
vn -0.928500 -0.110300 0.354600
vn 0.928500 -0.110300 0.354600
vn -0.930900 -0.306400 0.199000
vn 0.930900 -0.306400 0.199000
vn -0.636900 -0.091000 0.765600
vn 0.000000 0.000000 1.000000
vn -0.454900 0.454900 0.765600
vn -0.349800 -0.539900 0.765600
vn 0.349800 -0.539900 0.765600
vn 0.000000 0.643300 0.765600
vn 0.636900 -0.091000 0.765600
vn 0.454900 0.454900 0.765600
usemtl SHA_BODY_V0
s off
f 14/1/1 53/2/1 13/3/1
f 63/4/2 53/2/2 14/1/2
f 11/5/3 29/6/3 15/3/3
f 32/7/4 34/8/4 66/9/4
f 30/10/5 32/7/5 59/11/5
f 30/10/6 59/11/6 5/12/6
f 68/13/7 43/14/7 5/15/7
f 30/10/8 5/12/8 43/16/8
f 8/12/9 16/10/9 44/16/9
f 28/6/10 8/17/10 46/18/10
f 51/11/11 16/10/11 8/12/11
f 5/17/12 29/6/12 45/18/12
f 68/19/13 5/20/13 45/21/13
f 31/22/14 62/23/14 8/17/14
f 45/18/15 29/6/15 60/24/15
f 28/6/16 46/18/16 61/24/16
f 28/6/17 61/24/17 11/5/17
f 60/24/18 29/6/18 11/5/18
f 28/6/19 11/5/19 13/3/19
f 50/25/20 67/26/20 2/27/20
f 14/1/21 50/25/21 2/27/21
f 67/26/22 49/25/22 2/27/22
f 15/3/23 52/2/23 14/1/23
f 49/25/24 14/1/24 2/27/24
f 16/10/25 6/28/25 20/29/25
f 32/7/26 30/10/26 34/8/26
f 13/3/27 3/30/27 17/31/27
f 28/6/28 31/22/28 8/17/28
f 43/16/29 5/12/29 76/32/29
f 8/12/30 44/16/30 75/32/30
f 7/33/31 70/34/31 20/35/31
f 69/34/32 7/33/32 20/35/32
f 4/30/33 15/3/33 21/31/33
f 37/22/34 29/6/34 5/17/34
f 8/17/35 73/36/35 46/18/35
f 74/36/36 5/17/36 45/18/36
f 17/31/37 28/6/37 13/3/37
f 3/30/38 64/37/38 17/31/38
f 29/6/39 21/31/39 15/3/39
f 65/37/40 4/30/40 21/31/40
f 6/28/41 34/8/41 30/10/41
f 6/28/42 30/10/42 20/29/42
f 3/30/43 31/22/43 64/37/43
f 56/38/44 62/23/44 31/22/44
f 66/39/45 1/40/45 32/41/45
f 32/41/46 1/40/46 58/23/46
f 66/39/47 10/40/47 1/40/47
f 10/40/48 62/23/48 56/38/48
f 16/10/49 33/7/49 34/8/49
f 34/8/50 6/28/50 16/10/50
f 58/23/51 37/22/51 5/17/51
f 37/22/52 4/30/52 65/37/52
f 30/10/53 43/16/53 20/29/53
f 69/34/54 20/29/54 43/16/54
f 20/42/55 43/14/55 68/13/55
f 44/16/56 16/10/56 20/29/56
f 20/29/57 70/34/57 44/16/57
f 44/14/58 20/42/58 68/13/58
f 22/43/59 45/18/59 60/24/59
f 45/18/60 22/43/60 71/44/60
f 22/45/61 68/19/61 45/21/61
f 46/18/62 22/43/62 61/24/62
f 22/43/63 46/18/63 72/44/63
f 68/19/64 22/45/64 46/21/64
f 9/46/65 71/44/65 22/43/65
f 72/44/66 9/46/66 22/43/66
f 14/1/67 49/25/67 15/3/67
f 11/5/68 15/3/68 49/25/68
f 50/25/69 14/1/69 13/3/69
f 13/3/70 11/5/70 50/25/70
f 33/7/71 16/10/71 51/11/71
f 10/40/72 33/41/72 62/23/72
f 4/30/73 52/2/73 15/3/73
f 53/2/74 3/30/74 13/3/74
f 31/22/75 3/30/75 56/38/75
f 4/30/76 37/22/76 57/38/76
f 58/23/77 1/40/77 57/38/77
f 58/23/78 57/38/78 37/22/78
f 32/7/79 58/47/79 59/11/79
f 59/11/80 58/47/80 5/12/80
f 60/24/81 12/48/81 22/43/81
f 60/24/82 11/5/82 12/48/82
f 12/48/83 61/24/83 22/43/83
f 11/5/84 61/24/84 12/48/84
f 62/47/85 33/7/85 51/11/85
f 62/47/86 51/11/86 8/12/86
f 52/2/87 63/4/87 14/1/87
f 17/31/88 64/37/88 28/6/88
f 64/37/89 31/22/89 28/6/89
f 65/37/90 21/31/90 29/6/90
f 37/22/91 65/37/91 29/6/91
f 10/40/92 66/39/92 33/41/92
f 34/8/93 33/7/93 66/9/93
f 67/26/94 50/25/94 11/5/94
f 49/25/95 67/26/95 11/5/95
f 8/20/96 68/19/96 46/21/96
f 44/14/97 68/13/97 8/15/97
f 69/34/98 43/16/98 18/49/98
f 44/16/99 70/34/99 19/49/99
f 71/44/100 47/50/100 45/18/100
f 48/50/101 72/44/101 46/18/101
f 73/36/102 48/50/102 46/18/102
f 47/50/103 74/36/103 45/18/103
f 19/49/104 75/32/104 44/16/104
f 76/32/105 18/49/105 43/16/105
usemtl OBJ_CITY_GALLOW_01
f 42/51/106 27/52/106 25/53/106
f 41/54/107 77/55/107 36/56/107
f 26/57/108 25/53/108 27/52/108
f 40/58/107 77/55/107 41/54/107
f 42/59/107 36/56/107 77/55/107
f 24/60/109 35/61/109 36/62/109
f 41/63/110 36/62/110 35/61/110
f 38/64/111 78/53/111 77/52/111
f 77/52/111 55/65/111 38/64/111
f 23/66/112 39/53/112 40/52/112
f 39/53/113 38/64/113 55/65/113
f 35/61/110 23/66/110 41/63/110
f 40/52/112 41/63/112 23/66/112
f 36/62/109 42/51/109 24/60/109
f 25/53/106 24/60/106 42/51/106
f 27/52/108 54/67/108 26/57/108
f 27/68/107 42/59/107 77/55/107
f 55/69/107 77/55/107 40/58/107
f 55/65/113 40/52/113 39/53/113
f 54/70/107 27/68/107 77/55/107
f 54/67/111 77/52/111 78/53/111
f 78/53/111 26/57/111 54/67/111
