# Blender v2.75 (sub 0) OBJ File: 'Empty.blend'
# www.blender.org
mtllib NW_CAVEWEBS_V201.mtl
o NW_CAVEWEBS_V201
v 3.572864 3.705939 -1.798848
v -3.572844 3.705939 -1.798848
v 3.572864 -1.685696 -1.798848
v 3.572864 0.070375 2.277347
v -3.572844 3.705939 2.277347
v -1.121694 -0.708300 2.277347
v -2.802312 0.070375 -2.328250
v 2.802332 -0.440408 2.104482
v 2.802332 3.705939 2.104482
v 1.524050 0.017153 -3.658049
v 2.003125 0.070375 3.471581
v 1.524050 3.705939 -3.658049
v -2.802312 3.705939 -2.328250
v 3.572864 3.705939 2.277347
v 2.003125 3.705939 3.471581
v -2.007369 0.070375 3.658028
v -1.896363 0.070375 -3.486816
v -2.007369 3.705939 3.658028
v -1.896363 3.705939 -3.486816
v -3.572844 1.413036 -1.798848
vt 1.999001 -0.999500
vt 1.999001 -0.000499
vt 0.000999 -0.999500
vt 0.000500 -0.000499
vt 0.000500 -0.999500
vt 0.999501 -0.000500
vt 0.999500 -0.999501
vt 0.000999 -0.000500
vn 0.000000 0.000000 1.000000
vn 0.000000 0.000000 -1.000000
vn 0.620300 0.000000 -0.784300
vn -0.620300 0.000000 0.784300
vn 0.997800 0.000000 -0.067000
vn -0.997800 0.000000 0.067000
vn -0.999900 0.000000 -0.015500
vn 0.999900 0.000000 0.015500
usemtl NW_NATURE_ROOTS_01
s off
f 3/1/1 1/2/1 20/3/1
f 1/2/2 3/1/2 20/3/2
f 5/4/1 6/5/1 14/6/1
f 6/5/2 5/4/2 14/6/2
f 9/4/3 8/5/3 13/6/3
f 8/5/4 9/4/4 13/6/4
f 10/1/5 12/2/5 11/3/5
f 12/2/6 10/1/6 11/3/6
f 7/7/3 13/6/3 8/5/3
f 13/6/4 7/7/4 8/5/4
f 4/7/1 14/6/1 6/5/1
f 14/6/2 4/7/2 6/5/2
f 15/8/5 11/3/5 12/2/5
f 11/3/6 15/8/6 12/2/6
f 16/1/7 18/2/7 17/3/7
f 18/2/8 16/1/8 17/3/8
f 19/8/7 17/3/7 18/2/7
f 17/3/8 19/8/8 18/2/8
f 2/8/1 20/3/1 1/2/1
f 20/3/2 2/8/2 1/2/2
