# Blender v2.75 (sub 0) OBJ File: 'Empty.blend'
# www.blender.org
mtllib NW_CITY_WINDOW_WOOD_OUT_01.mtl
o NW_CITY_WINDOW_WOOD_OUT_01
v -0.899980 0.850019 -0.112530
v 0.900020 0.850019 -0.112530
v -0.649980 0.650019 0.036470
v -0.899980 0.850020 0.112490
v -0.649980 -0.649757 0.036470
v 0.650020 -0.649757 0.036437
v -0.899980 -0.649757 -0.112530
v 0.900020 -0.849979 -0.112530
v 0.900020 -0.849980 0.112490
v -0.899980 -0.849980 0.112490
v -0.899980 -0.649757 0.112490
v 0.900020 -0.649757 0.112490
v 0.900020 -0.649757 -0.112530
v -0.899980 -0.849979 -0.112530
v 0.650020 0.650019 0.036437
v 0.900020 0.850020 0.112490
v -0.899980 0.650020 0.112490
v -0.899980 0.650020 -0.112530
v 0.900020 0.650020 0.112490
v 0.900020 0.650020 -0.112530
v 0.075020 0.500020 -0.012530
v 0.550020 0.550020 0.036404
v 0.500020 0.500020 -0.012530
v 0.075020 -0.499980 -0.012530
v 0.025020 0.550020 0.036470
v 0.550020 -0.549535 0.036404
v 0.025020 -0.549535 0.036470
v -0.499980 0.500020 -0.012530
v -0.549980 0.550020 0.036404
v -0.499980 -0.499980 -0.012530
v -0.549980 -0.549535 0.036404
v 0.500020 -0.499980 -0.012530
v -0.074980 -0.499980 -0.012530
v -0.024980 -0.549535 0.036470
v -0.074980 0.500020 -0.012530
v -0.024980 0.550020 0.036470
v 0.800020 -0.649757 0.036470
v 0.800020 0.650019 0.036470
v 0.800020 -0.649757 -0.112530
v 0.800020 0.650019 -0.112530
v 0.650020 -0.649757 -0.112530
v 0.650020 0.650020 -0.112530
v -0.799980 0.650019 0.036470
v -0.799980 -0.649757 0.036470
v -0.799980 -0.649757 -0.112530
v -0.799980 0.650019 -0.112530
v -0.649980 -0.649757 -0.112530
v -0.649980 0.650020 -0.112530
vt -0.121973 -0.460783
vt -0.121973 -0.109221
vt -0.107125 -0.158049
vt 0.112811 0.527457
vt 0.112811 0.162546
vt 0.067193 0.162546
vt -0.078023 -0.109221
vt -0.054243 0.461390
vt -0.054251 0.110683
vt -0.074760 0.043239
vt -0.074760 0.528833
vt 0.086976 0.440779
vt 0.086976 0.089217
vt 0.043027 0.089217
vt -0.014055 0.528833
vt 0.043027 0.440779
vt -0.014055 0.043239
vt -1.095470 0.902019
vt -1.894527 0.902019
vt -1.894527 0.990902
vt 0.006983 -0.365562
vt 0.006983 -0.271210
vt 0.113021 -0.271210
vt -1.095470 0.990902
vt -0.163368 -0.579889
vt -0.163368 -0.701560
vt -0.026628 -0.701560
vt -0.026628 -0.579889
vt 0.113020 -0.365562
vt -0.107119 -0.411955
vt 0.067193 0.527457
vt -0.078023 -0.460783
vt -0.072469 -0.013719
vt -0.947527 -0.013719
vt -0.947527 -0.096281
vt 0.011983 0.341288
vt 0.011983 0.435535
vt 0.118021 0.435535
vt 0.118021 0.341288
vt -0.072469 -0.096281
vt -0.163368 0.331493
vt -0.163368 0.209957
vt -0.026628 0.209957
vt -0.026628 0.331493
vt 0.358011 -0.053844
vt 0.649967 -0.097097
vt 0.087682 -0.097097
vt 0.702380 0.884919
vt 0.702380 0.363599
vt 0.678437 0.403707
vt 0.379637 -0.053844
vt 0.606714 -0.053844
vt -0.656348 -0.070995
vt -0.493998 -0.070995
vt -0.474898 -0.090054
vt 0.358011 -0.093256
vt 0.087682 -0.049908
vt 0.649967 -0.049908
vt 0.606714 -0.093257
vt 0.379637 -0.093256
vt -0.026702 0.458666
vt -0.026702 0.081383
vt -0.045566 0.062519
vt -0.675448 -0.090054
vt 0.678437 0.844721
vt 0.205011 0.339851
vt 0.205011 0.021111
vt 0.187283 0.035605
vt -0.045566 0.477363
vt -0.474898 -0.075025
vt -0.656348 -0.093997
vt -0.675448 -0.075025
vt 0.130934 -0.053844
vt 0.317163 0.351899
vt 0.317163 0.866703
vt 0.356269 0.391506
vt -0.167279 0.387297
vt -0.167279 0.032735
vt -0.185007 0.015007
vt -0.713648 -0.070995
vt -0.895098 -0.090054
vt -0.875998 -0.070995
vt 0.356269 0.827007
vt 0.130934 -0.093256
vt -0.713648 -0.093997
vt -0.875998 -0.093997
vt -0.895098 -0.075025
vt -0.185007 0.404868
vt -0.493998 -0.093997
vt 0.187283 0.325485
vt -0.694548 -0.075025
vt -0.083294 0.081383
vt -0.083294 0.458666
vt -0.064430 0.477363
vt -0.694548 -0.090054
vt -0.064430 0.062519
vt 0.738296 0.363599
vt 0.738296 0.884919
vt 0.077821 0.425997
vt 0.117031 0.083955
vt 0.077821 0.083955
vt 0.117031 0.425997
vt -0.014055 0.461390
vt -0.078023 -0.411955
vt 0.258504 0.351899
vt 0.258504 0.866702
vt -0.113341 0.055252
vt -0.113341 0.504795
vt -0.061807 0.504795
vt -0.061808 0.055252
vt -0.014055 0.110683
vt -0.078023 -0.158049
vt -1.012544 0.006122
vt -1.012544 -1.006122
vt -0.007517 0.006122
vt -0.007517 -1.006122
vt -0.016885 0.006122
vt -0.016885 -1.006122
vt 1.006961 -1.006122
vt 1.006961 0.006122
vn 0.000000 -1.000000 0.000000
vn 0.000000 1.000000 -0.000000
vn 0.000000 0.000000 1.000000
vn -1.000000 0.000000 0.000000
vn 1.000000 0.000000 0.000000
vn 0.000000 0.000200 1.000000
vn -0.000300 0.000000 1.000000
vn 0.000100 -0.000500 1.000000
vn 0.000000 -0.699500 0.714700
vn 0.000000 -0.000200 1.000000
vn 0.000100 0.000500 1.000000
vn 0.699900 0.000000 0.714200
vn 0.000100 -0.699900 0.714300
vn -0.699500 0.000000 0.714700
vn 0.000100 0.703100 0.711100
vn -0.000100 -0.000800 1.000000
vn 0.000700 0.000000 1.000000
vn 0.699500 0.000000 0.714700
vn -0.000100 0.000800 1.000000
vn 0.000000 0.702600 0.711600
vn -0.000000 0.702600 0.711500
vn -0.000100 0.703100 0.711100
vn -0.699900 0.000000 0.714200
vn 0.000000 -0.000300 1.000000
vn -0.000100 -0.699900 0.714300
vn 0.000000 0.000300 1.000000
vn -0.000200 0.000000 1.000000
usemtl OBJ_CITY_GALLOW_01
s off
f 19/1/1 17/2/1 3/3/1
f 2/4/2 1/5/2 4/6/2
f 17/2/1 18/7/1 3/3/1
f 6/8/2 5/9/2 11/10/2
f 11/10/2 12/11/2 6/8/2
f 14/12/1 8/13/1 9/14/1
f 6/8/2 12/11/2 13/15/2
f 9/14/1 10/16/1 14/12/1
f 5/9/2 7/17/2 11/10/2
f 12/18/3 11/19/3 10/20/3
f 10/21/4 11/22/4 7/23/4
f 10/20/3 9/24/3 12/18/3
f 12/25/5 9/26/5 8/27/5
f 8/27/5 13/28/5 12/25/5
f 7/23/4 14/29/4 10/21/4
f 3/3/1 15/30/1 19/1/1
f 4/6/2 16/31/2 2/4/2
f 19/1/1 15/30/1 20/32/1
f 16/33/3 4/34/3 17/35/3
f 17/36/4 4/37/4 1/38/4
f 1/38/4 18/39/4 17/36/4
f 17/35/3 19/40/3 16/33/3
f 16/41/5 19/42/5 20/43/5
f 20/43/5 2/44/5 16/41/5
f 36/45/6 15/46/6 3/47/6
f 6/48/7 15/49/7 22/50/7
f 15/46/8 25/51/8 22/52/8
f 21/53/9 23/54/9 22/55/9
f 34/56/10 5/57/10 6/58/10
f 6/58/11 26/59/11 27/60/11
f 24/61/12 21/62/12 25/63/12
f 22/55/13 25/64/13 21/53/13
f 22/50/7 26/65/7 6/48/7
f 26/66/14 22/67/14 23/68/14
f 25/63/12 27/69/12 24/61/12
f 26/70/15 24/71/15 27/72/15
f 3/47/16 29/73/16 36/45/16
f 3/74/17 5/75/17 29/76/17
f 30/77/18 28/78/18 29/79/18
f 35/80/9 29/81/9 28/82/9
f 31/83/17 29/76/17 5/75/17
f 5/57/19 34/56/19 31/84/19
f 33/85/20 30/86/20 31/87/20
f 29/79/18 31/88/18 30/77/18
f 24/71/21 26/70/21 32/89/21
f 23/68/14 32/90/14 26/66/14
f 31/87/22 34/91/22 33/85/22
f 35/92/23 33/93/23 34/94/23
f 6/58/24 27/60/24 34/56/24
f 27/69/3 25/63/3 34/94/3
f 29/81/25 35/80/25 36/95/25
f 34/94/23 36/96/23 35/92/23
f 36/96/3 34/94/3 25/63/3
f 15/46/26 36/45/26 25/51/26
f 6/48/27 38/97/27 15/49/27
f 38/97/27 6/48/27 37/98/27
f 37/99/5 40/100/5 38/101/5
f 40/100/5 37/99/5 39/102/5
f 41/103/2 6/8/2 13/15/2
f 15/30/1 42/104/1 20/32/1
f 5/75/3 3/74/3 43/105/3
f 43/105/3 44/106/3 5/75/3
f 44/107/4 43/108/4 46/109/4
f 46/109/4 45/110/4 44/107/4
f 47/111/2 7/17/2 5/9/2
f 3/3/1 18/7/1 48/112/1
usemtl OBJ_CITY_WINDOWSTONE_01
f 28/113/3 30/114/3 35/115/3
f 33/116/3 35/115/3 30/114/3
f 21/117/3 24/118/3 32/119/3
f 32/119/3 23/120/3 21/117/3
