# Blender v2.75 (sub 0) OBJ File: 'Empty.blend'
# www.blender.org
mtllib NW_CITY_FIREPLACE_NORMAL_01.mtl
o NW_CITY_FIREPLACE_NORMAL_01
v 0.408661 0.450465 -0.599995
v -1.108641 -1.499990 0.099975
v 1.108661 -1.499990 0.100005
v -0.658641 -1.499990 0.749975
v -0.408641 -1.399990 0.099975
v -0.408641 -1.399990 -0.600025
v -0.408641 -0.499990 0.099975
v -0.408641 0.450465 -0.600025
v 0.408661 -0.499990 0.100005
v 0.408661 -1.399990 0.100005
v 0.408661 -1.399990 -0.599995
v -0.658641 -1.499990 0.099975
v -0.508641 1.500010 -0.750025
v -1.208641 -0.349990 0.199975
v 0.408661 0.450010 -0.249988
v -0.408641 0.450010 -0.250017
v 0.658661 -1.499990 0.100005
v 0.508661 1.500010 -0.749995
v 1.208661 -0.349990 0.200005
v 0.508691 1.300010 -0.298995
v 1.208661 -0.349990 -0.749995
v 1.059157 -0.349990 0.000835
v -0.508671 1.300010 -0.299025
v -1.208641 -0.349990 -0.750025
v -1.059137 -0.349990 0.000835
v 0.658661 -1.499990 0.750005
v -0.658641 -1.399990 0.749975
v 0.608661 0.450807 -0.749995
v -0.608641 0.450807 -0.750025
v 1.208661 -0.499990 0.200005
v -1.208641 -0.499990 0.199975
v 1.208661 -0.499990 -0.749995
v 1.108661 -0.499990 0.100005
v -1.208641 -0.499990 -0.750025
v -1.108641 -0.499990 0.099975
v 0.658661 -1.399990 0.750005
v 1.108661 -0.499990 -0.749995
v 0.658661 -1.399990 0.100005
v -1.108641 -0.499990 -0.750025
v -0.658641 -1.399990 0.099975
v 1.058646 -0.349990 -0.749995
v -1.058626 -0.349990 -0.750025
v 0.408661 -0.499990 0.000012
v -0.408641 -0.499990 -0.000017
v -0.609152 0.450465 -0.199083
v 0.609172 0.450465 -0.199083
v 0.508661 1.300010 -0.749995
v -0.508641 1.300010 -0.750025
v 0.000010 -1.399990 0.750005
v 0.000010 -0.349990 0.000835
v 0.000010 0.450465 -0.199083
v 0.000010 -0.499990 0.000012
v 0.000010 0.450010 -0.249988
v 0.000010 1.500010 -0.749995
v 0.000010 1.300010 -0.298995
v 1.108661 -1.499990 -0.749995
v 0.408661 -0.499990 -0.599995
v 0.000010 -0.499990 0.100005
v 0.000010 -0.349990 0.200005
v 0.000010 -0.499990 0.200005
v 0.000010 -1.499990 0.750005
v 0.000010 -1.399990 0.100005
v 0.000010 0.450465 -0.599995
v 0.000010 -0.499990 -0.599995
v 0.000010 -1.399990 -0.599995
v -1.108641 -1.499990 -0.750025
v -0.408641 -0.499990 -0.600025
vt 0.668503 -0.341904
vt 0.644241 -0.508484
vt 0.648682 -0.256897
vt 0.442444 -0.767990
vt 0.512863 -0.502747
vt 0.515930 -0.767166
vt 0.130157 -0.210846
vt 0.248398 -0.402969
vt 0.054871 -0.401093
vt 0.442657 -0.764999
vt 0.516129 -0.764099
vt 0.512817 -0.499695
vt 0.370300 -0.213089
vt 0.443741 -0.213806
vt 0.441925 -0.404816
vt 0.882324 -0.139740
vt 0.966309 -0.140030
vt 0.979874 -0.266098
vt 0.250244 -0.212006
vt 0.669449 -0.257217
vt 0.931839 -0.006927
vt 0.910172 -0.275436
vt 0.849915 -0.418427
vt 0.848892 -0.275909
vt 0.870636 -0.053879
vt 0.783936 -0.257172
vt 0.785751 -0.053131
vt 0.868820 -0.257950
vt 0.966110 -0.139832
vt 0.882355 -0.006638
vt 0.882126 -0.139679
vt 0.972504 -0.417526
vt 0.911209 -0.417953
vt 0.132111 -0.005157
vt 0.979874 -0.265884
vt 0.307159 -0.502258
vt 0.748276 -0.767258
vt 0.748077 -0.958786
vt 0.502167 -0.958557
vt 0.310837 -0.796066
vt 0.251038 -0.989456
vt 0.007660 -0.990067
vt 0.007111 -0.791168
vt 0.825424 -0.365921
vt 0.826187 -0.450851
vt 0.753479 -0.451447
vt 0.931351 -0.006805
vt 0.882813 -0.006699
vt 0.752716 -0.366562
vt 0.307175 -0.505066
vt 0.889709 -0.767410
vt 0.993942 -0.959076
vt 0.310593 -0.798889
vt 0.008453 -0.792664
vt 0.008942 -0.991577
vt 0.252289 -0.991135
vt 0.605026 -0.661591
vt 0.528946 -0.660126
vt 0.530472 -0.581665
vt 0.251862 -0.845139
vt 0.041809 -0.794556
vt 0.039139 -0.500732
vt 0.288910 -0.498505
vt 0.850281 -0.040802
vt 0.694336 -0.037781
vt 0.653519 -0.005936
vt 0.648804 -0.257004
vt 0.603500 -0.740021
vt 0.527420 -0.738556
vt 0.250549 -0.843506
vt 0.290222 -0.500488
vt 0.040482 -0.498352
vt 0.038025 -0.792206
vt 0.644135 -0.508026
vt 0.686066 -0.477737
vt 0.842056 -0.480560
vt 0.690216 -0.257767
vt 0.056747 -0.210098
vt 0.476318 -0.215103
vt 0.474258 -0.406052
vt 0.444885 -0.405746
vt 0.068253 -0.454666
vt 0.261780 -0.458023
vt 0.261246 -0.487396
vt 0.461380 -0.990631
vt 0.461166 -0.871155
vt 0.459869 -0.869431
vt 0.460175 -0.988892
vt 0.636627 -0.507950
vt 0.605499 -0.507675
vt 0.607758 -0.256546
vt 0.838913 -0.522110
vt 0.641571 -0.524521
vt 0.641937 -0.555695
vt 0.641632 -0.555450
vt 0.641342 -0.524292
vt 0.838745 -0.522614
vt 0.638916 -0.256851
vt 0.839294 -0.553284
vt 0.686142 -0.477554
vt 0.841705 -0.480804
vt 0.838959 -0.553787
vt 0.850555 -0.041122
vt 0.694580 -0.037811
vt 0.653656 -0.006836
vt 0.671265 -0.172134
vt 0.067749 -0.484039
vt 0.444382 -0.405746
vt 0.473724 -0.406143
vt 0.476425 -0.215179
vt 0.841919 -0.511108
vt 0.442795 -0.797363
vt 0.447052 -0.214722
vt 0.850113 -0.009003
vt 0.443008 -0.794373
vt 0.446945 -0.214813
vt 0.850830 -0.009613
vt 0.841476 -0.511734
vt 0.980118 -0.139877
vt 0.690216 -0.257568
vt 0.689209 -0.342255
vt 0.980316 -0.140091
vt 0.866547 -0.570419
vt 0.630386 -0.570190
vt 0.748489 -0.570282
vt 0.507584 -0.990524
vt 0.506332 -0.988770
vt 0.455276 -0.461441
vt 0.606812 -0.767120
vt 0.691986 -0.172501
vt 0.699036 -0.256439
vt 0.700836 -0.052353
vt 0.751968 -0.281647
vt 0.606522 -0.583160
vt 0.291519 -0.792236
vt 0.881882 -0.265686
vt 0.912201 -0.552933
vt 0.850906 -0.553391
vt 0.610062 -0.005478
vt 0.641235 -0.005768
vt 0.454712 -0.490814
vt 0.372269 -0.007431
vt 0.252182 -0.006317
vt 0.824677 -0.281021
vt 0.971451 -0.274994
vt 0.287750 -0.794327
vt 0.973480 -0.552475
vn 0.000000 -1.000000 0.000000
vn 0.000000 0.000000 1.000000
vn 0.000000 1.000000 0.000000
vn 1.000000 0.000000 0.000000
vn 0.000000 -0.254500 -0.967100
vn -1.000000 0.000000 0.000000
vn -0.000100 0.000000 1.000000
vn 0.000000 0.242300 0.970200
vn -0.871800 0.489900 -0.000600
vn 0.000000 -1.000000 -0.001300
vn 0.871800 0.489900 -0.000600
vn 0.000000 0.914100 0.405400
vn 0.871800 0.489900 -0.000500
vn -0.871800 0.489900 -0.000500
vn 0.993100 0.116900 -0.000100
vn -0.993100 0.116900 -0.000100
vn 0.000000 0.116800 0.993200
vn -0.993100 0.117400 -0.000800
vn 0.993100 0.117400 -0.000800
vn 1.000000 0.000000 -0.000100
vn -1.000000 0.000000 -0.000100
vn 0.000100 -0.254500 -0.967100
vn -0.000100 0.116800 0.993200
usemtl OBJ_CITY_BOULDERPOOR_01
s off
f 9/1/1 30/2/1 60/3/1
f 38/4/2 9/5/2 10/6/2
f 10/7/3 49/8/3 36/9/3
f 40/10/2 5/11/2 7/12/2
f 5/13/3 40/14/3 27/15/3
f 67/16/4 44/17/4 5/18/4
f 5/13/3 49/8/3 62/19/3
f 9/1/1 60/3/1 58/20/1
f 67/16/4 16/21/4 44/17/4
f 63/22/2 57/23/2 1/24/2
f 15/25/5 52/26/5 53/27/5
f 52/26/5 15/25/5 43/28/5
f 43/29/6 1/30/6 57/31/6
f 10/7/3 62/19/3 49/8/3
f 67/32/7 64/33/7 63/22/7
f 62/19/3 10/7/3 11/34/3
f 57/31/6 10/35/6 43/29/6
f 40/10/2 7/12/2 35/36/2
f 51/37/8 50/38/8 22/39/8
f 40/10/2 35/36/2 2/40/2
f 29/41/9 42/42/9 25/43/9
f 63/44/10 1/45/10 15/46/10
f 1/30/6 43/29/6 15/47/6
f 16/21/4 67/16/4 8/48/4
f 15/46/10 53/49/10 63/44/10
f 38/4/2 33/50/2 9/5/2
f 51/37/8 45/51/8 25/52/8
f 38/4/2 3/53/2 33/50/2
f 22/54/11 41/55/11 28/56/11
f 54/57/12 55/58/12 20/59/12
f 28/56/13 46/60/13 22/54/13
f 56/61/4 37/62/4 33/63/4
f 41/64/3 22/65/3 19/66/3
f 59/67/3 19/66/3 22/65/3
f 54/57/12 13/68/12 23/69/12
f 25/43/14 45/70/14 29/41/14
f 35/71/6 39/72/6 66/73/6
f 14/74/3 25/75/3 42/76/3
f 22/65/3 50/77/3 59/67/3
f 10/7/3 36/9/3 38/78/3
f 12/79/6 4/80/6 27/81/6
f 36/82/2 49/83/2 61/84/2
f 28/56/15 47/85/15 20/86/15
f 23/87/16 48/88/16 29/41/16
f 30/89/2 19/90/2 59/91/2
f 21/92/4 19/93/4 30/94/4
f 31/95/6 14/96/6 24/97/6
f 59/91/2 60/98/2 30/89/2
f 30/94/4 32/99/4 21/92/4
f 30/2/1 33/100/1 37/101/1
f 9/1/1 33/100/1 30/2/1
f 24/97/6 34/102/6 31/95/6
f 39/103/1 35/104/1 31/105/1
f 7/106/1 31/105/1 35/104/1
f 61/84/2 26/107/2 36/82/2
f 36/108/4 26/109/4 17/110/4
f 37/101/1 32/111/1 30/2/1
f 38/4/2 17/112/2 3/53/2
f 17/110/4 38/113/4 36/108/4
f 31/105/1 34/114/1 39/103/1
f 40/10/2 2/40/2 12/115/2
f 27/81/6 40/116/6 12/79/6
f 19/66/3 21/117/3 41/64/3
f 42/76/3 24/118/3 14/74/3
f 10/35/6 9/119/6 43/29/6
f 52/120/1 43/121/1 9/1/1
f 44/17/4 7/122/4 5/18/4
f 9/1/1 58/20/1 52/120/1
f 23/123/17 45/51/17 51/37/17
f 29/41/18 45/70/18 23/87/18
f 20/86/19 46/60/19 28/56/19
f 20/124/17 55/125/17 51/37/17
f 20/86/20 47/85/20 18/126/20
f 23/87/21 13/127/21 48/88/21
f 61/84/2 49/83/2 27/128/2
f 5/13/3 27/15/3 49/8/3
f 25/52/8 50/38/8 51/37/8
f 59/67/3 50/77/3 25/75/3
f 22/39/8 46/129/8 51/37/8
f 51/37/17 46/129/17 20/124/17
f 52/120/1 7/106/1 44/130/1
f 52/26/22 44/131/22 16/132/22
f 63/44/10 53/49/10 16/133/10
f 16/132/22 53/27/22 52/26/22
f 20/59/12 18/134/12 54/57/12
f 23/69/12 55/58/12 54/57/12
f 51/37/23 55/125/23 23/123/23
f 33/63/4 3/135/4 56/61/4
f 57/31/6 11/136/6 10/35/6
f 65/137/2 11/138/2 57/23/2
f 7/106/1 58/20/1 60/3/1
f 7/106/1 52/120/1 58/20/1
f 59/91/2 14/139/2 31/140/2
f 25/75/3 14/74/3 59/67/3
f 31/140/2 60/98/2 59/91/2
f 7/106/1 60/3/1 31/105/1
f 27/128/2 4/141/2 61/84/2
f 6/142/3 5/13/3 62/19/3
f 11/34/3 65/143/3 62/19/3
f 16/133/10 8/144/10 63/44/10
f 63/22/7 8/145/7 67/32/7
f 57/23/2 64/33/2 65/137/2
f 57/23/2 63/22/2 64/33/2
f 65/137/7 64/33/7 67/32/7
f 62/19/3 65/143/3 6/142/3
f 66/73/6 2/146/6 35/71/6
f 67/16/4 5/18/4 6/136/4
f 67/32/7 6/147/7 65/137/7
