# Blender v2.75 (sub 0) OBJ File: 'Empty.blend'
# www.blender.org
mtllib NW_CITY_OILLAMP_01.mtl
o NW_CITY_OILLAMP_01
v 0.114890 -0.224826 -0.013536
v 0.013625 0.230238 0.111833
v -0.145260 -0.244887 -0.142514
v 0.101668 -0.034110 -0.204999
v -0.101648 -0.034110 -0.204999
v -0.114870 -0.243822 -0.013536
v 0.145280 -0.225891 -0.142514
v 0.012735 0.025551 0.109091
v -0.044050 0.230238 0.069929
v 0.114890 -0.153960 0.153395
v -0.114870 -0.243822 0.153395
v 0.013625 0.230238 0.028026
v 0.044070 0.230238 0.069929
v 0.000010 0.142940 0.069929
v -0.041167 0.025551 0.069929
v 0.101668 -0.034110 -0.142514
v -0.101648 -0.034110 -0.142514
v -0.145260 -0.244887 -0.204999
v 0.145280 -0.244887 -0.204999
v 0.043890 -0.243822 0.204979
v -0.043870 -0.153960 0.204979
v 0.142010 -0.243822 0.069929
v 0.081315 -0.171998 -0.162505
v 0.069381 -0.171998 -0.030593
v 0.058395 -0.155320 -0.033027
v -0.081295 -0.171998 -0.162505
v -0.069361 -0.171998 -0.030593
v -0.058375 -0.155320 -0.033027
v 0.070276 -0.155320 -0.162505
v -0.070256 -0.155320 -0.162505
v -0.043870 -0.243822 -0.065121
v 0.041187 0.025551 0.069929
v -0.012715 0.025551 0.030767
v 0.114890 -0.243822 -0.013536
v -0.145260 -0.225891 -0.142514
v -0.114870 -0.224826 -0.013536
v 0.145280 -0.244887 -0.142514
v -0.043870 -0.243822 0.204979
v 0.114890 -0.243822 0.153395
v -0.141990 -0.243822 0.069929
v -0.114870 -0.153960 -0.013536
v 0.043890 -0.243822 -0.065121
v 0.114890 -0.153960 -0.013536
v 0.043890 -0.153960 0.204979
v -0.114870 -0.153960 0.153395
v 0.043890 -0.153960 -0.065121
v -0.035635 0.230238 0.044031
v -0.013605 0.230238 0.111833
v 0.142010 -0.153960 0.069929
v -0.141990 -0.153960 0.069929
v -0.043870 -0.153960 -0.065121
v 0.012735 0.025551 0.030767
v -0.012715 0.025551 0.109091
v 0.068979 -0.160273 -0.030682
v -0.068959 -0.160273 -0.030682
v 0.058797 -0.167045 -0.032938
v -0.058777 -0.167045 -0.032938
v 0.070680 -0.167045 -0.162505
v -0.070660 -0.167045 -0.162505
v 0.080912 -0.160273 -0.162505
v -0.080892 -0.160273 -0.162505
v 0.035655 0.230238 0.044031
v -0.035635 0.230238 0.095827
v -0.013605 0.230238 0.028026
v 0.035655 0.230238 0.095827
v -0.033303 0.025551 0.094133
v 0.033323 0.025551 0.045726
v -0.033303 0.025551 0.045726
v 0.033323 0.025551 0.094133
v 0.000010 -0.255093 0.069929
v -0.073160 -0.057529 0.123090
v 0.027958 -0.057529 -0.016087
v 0.073180 -0.057529 0.123090
v -0.090433 -0.057529 0.069929
v 0.027958 -0.057529 0.155946
v -0.027938 -0.057529 0.155946
v 0.073180 -0.057529 0.016768
v 0.090453 -0.057529 0.069929
v -0.073160 -0.057529 0.016768
v -0.027938 -0.057529 -0.016087
vt 0.150458 -0.041805
vt 0.000500 -0.722422
vt 0.999500 -0.722422
vt 0.849542 -0.041805
vt 0.999500 -0.121983
vt 0.000500 -0.121983
vt 0.104993 -0.372946
vt 0.000500 -0.097436
vt 0.650879 -0.217723
vt 0.349121 -0.217723
vt 0.895007 -0.372946
vt 0.999500 -0.097436
vt 0.500000 -0.427622
vt 0.895007 -0.557347
vt 0.650879 -0.637522
vt 0.349120 -0.637521
vt 0.999601 -0.041805
vt 0.878017 -0.041805
vt 0.878017 -0.722422
vt 0.849542 -0.121983
vt 0.849542 -0.000399
vt 0.150458 -0.000399
vt 0.121983 -0.041805
vt 0.000399 -0.041805
vt 0.000399 -0.722422
vt 0.150458 -0.121983
vt 0.000500 -0.000319
vt 0.121983 -0.722422
vt 0.999501 -0.000319
vt 0.999601 -0.722422
vt 0.316168 -1.001960
vt 0.611337 -1.001960
vt 0.611337 -0.659924
vt 0.004863 -1.001960
vt 0.316168 -0.659924
vt 0.004863 -0.659924
vt 0.895007 -0.297897
vt 0.988256 -0.427622
vt 0.700752 -0.231622
vt 0.737146 -0.233642
vt 0.778174 -0.120145
vt 0.738527 -0.233718
vt 0.742993 -0.120145
vt 0.702133 -0.231699
vt 0.879855 -0.155286
vt 0.879855 -0.117425
vt 0.766358 -0.117425
vt 0.879855 -0.101432
vt 0.768301 -0.139293
vt 0.879855 -0.139293
vt 0.104992 -0.297897
vt 0.627054 -0.657643
vt 0.627054 -0.718984
vt 0.121983 -0.661081
vt 0.372946 -0.718984
vt 0.372946 -0.657643
vt 0.878017 -0.661081
vt 0.104992 -0.557347
vt -0.306784 -1.001960
vt 0.897541 -0.659924
vt 1.816168 -1.001960
vt 2.111337 -1.001960
vt 2.111337 -0.659924
vt 2.397541 -0.659924
vt 0.897541 -1.001960
vt 1.193216 -1.001960
vt 1.193216 -0.659924
vt 1.504863 -0.659924
vt 2.397541 -1.001960
vt 2.693216 -1.001960
vt 2.693216 -0.659924
vt -0.306784 -0.659924
vt 1.504863 -1.001960
vt 1.816168 -0.659924
vt 0.766282 -0.155286
vt 0.768378 -0.101432
vt 0.779562 -0.120145
vt 0.741606 -0.120145
vt 0.011744 -0.427622
vt 0.279764 -0.922501
vt 0.282477 -0.930367
vt 0.432349 -0.930367
vt 0.282580 -0.948986
vt 0.432349 -0.941121
vt 0.279867 -0.941121
vt 0.432349 -0.948986
vt 0.432349 -0.922501
vt 0.900000 -0.999500
vt 1.100000 -0.999500
vt 1.100000 -0.748758
vt -0.100000 -0.999500
vt 0.100000 -0.999500
vt 0.100000 -0.748758
vt 1.700000 -0.999500
vt 1.900000 -0.748758
vt 1.700000 -0.748758
vt 0.300000 -0.999500
vt 0.500000 -0.748758
vt 0.300000 -0.748758
vt 0.700000 -0.532731
vt 0.900000 -0.000500
vt 0.700000 -0.000500
vt 1.700000 -0.532731
vt 1.900000 -0.000500
vt 1.700000 -0.000500
vt 1.300000 -0.999500
vt 1.500000 -0.999500
vt 1.500000 -0.748758
vt 0.500000 -0.999500
vt 0.700000 -0.999500
vt 0.700000 -0.748758
vt 1.000000 -0.227495
vt -0.100000 -0.000500
vt 0.100000 -0.000500
vt 0.300000 -0.532731
vt 0.500000 -0.532731
vt 0.500000 -0.000500
vt 1.100000 -0.532731
vt 1.300000 -0.000500
vt 1.100000 -0.000500
vt 0.900000 -0.748758
vt 0.900000 -0.532731
vt 1.300000 -0.748758
vt 1.300000 -0.532731
vt -0.100000 -0.532731
vt 1.900000 -0.532731
vt 1.900000 -0.999500
vt 0.300000 -0.000500
vt 0.100000 -0.532731
vt -0.100000 -0.748758
vt 1.500000 -0.532731
vt 1.500000 -0.000500
vn 0.000000 0.000000 1.000000
vn 0.000000 -0.000000 -1.000000
vn 0.000000 1.000000 -0.008300
vn 0.000000 -0.999900 0.013800
vn 0.048900 -0.996500 0.067300
vn 0.000000 -0.996500 0.083200
vn 0.979300 0.202600 0.000000
vn 0.000000 1.000000 -0.000000
vn -0.979300 0.202600 -0.000000
vn 0.000000 -1.000000 0.000000
vn 0.587800 0.000000 0.809000
vn 0.079100 -0.996500 -0.025700
vn 0.416700 0.908300 0.037700
vn 0.416600 -0.908300 -0.038200
vn 0.995300 0.034300 0.090100
vn 0.995200 -0.034200 -0.091300
vn 0.000000 -0.996500 -0.083200
vn 0.005100 -1.000000 0.007000
vn 0.973300 0.000000 0.229300
vn -0.973300 -0.000000 0.229300
vn -0.048900 -0.996500 0.067300
vn -0.587800 0.000000 0.809000
vn 0.079100 -0.996500 0.025700
vn 0.951100 0.000000 0.309000
vn -0.048900 -0.996500 -0.067300
vn -0.587800 0.000000 -0.809000
vn -0.951100 0.000000 -0.309000
vn 0.048900 -0.996500 -0.067300
vn -0.005100 -1.000000 0.007000
vn 0.951100 -0.000000 -0.309000
vn 0.587800 -0.000000 -0.809000
vn -0.951100 0.000000 0.309000
vn 0.995300 0.034800 0.090000
vn 0.995200 -0.034800 -0.091300
vn 0.421900 -0.905900 -0.038200
vn 0.421800 0.905800 0.038700
vn -0.079100 -0.996500 -0.025700
vn -0.079100 -0.996500 0.025700
vn -0.416600 -0.908300 -0.038200
vn -0.416700 0.908300 0.037700
vn -0.995200 -0.034300 -0.091300
vn -0.995300 0.034300 0.090100
vn -0.995300 0.034800 0.090000
vn -0.995200 -0.034800 -0.091300
vn -0.421900 -0.905900 -0.038200
vn -0.421800 0.905800 0.038700
vn 0.000000 0.453300 0.891400
vn 0.000000 0.453300 -0.891400
vn 0.523900 0.453300 -0.721100
vn -0.847800 0.453300 -0.275500
vn -0.587700 -0.013400 0.808900
vn 0.587700 -0.013400 -0.808900
vn 0.847800 0.453300 0.275500
vn -0.847800 0.453300 0.275500
vn 0.000000 0.432700 0.901500
vn -0.951000 -0.013400 -0.309000
vn 0.587700 -0.013400 0.808900
vn 0.529900 0.432700 -0.729300
vn -0.529900 0.432700 0.729300
vn -0.529900 0.432700 -0.729300
vn -0.523900 0.453300 0.721100
vn 0.523900 0.453300 0.721100
vn 0.847800 0.453300 -0.275500
vn -0.523900 0.453300 -0.721100
vn 0.000000 -0.013400 -0.999900
vn 0.857400 0.432700 0.278600
vn 0.000000 -0.013400 0.999900
vn 0.000000 0.432700 -0.901500
vn 0.951000 -0.013400 -0.309000
vn -0.857400 0.432700 0.278600
vn -0.951000 -0.013400 0.309000
vn 0.857400 0.432700 -0.278600
vn -0.587700 -0.013400 -0.808900
vn 0.529900 0.432700 0.729300
vn 0.951000 -0.013400 0.309000
vn -0.857400 0.432700 -0.278600
vn -0.828400 0.491200 0.269200
vn -0.512000 0.491200 0.704700
vn 0.512000 0.491200 -0.704700
vn 0.000000 0.491200 -0.871000
vn 0.512000 0.491200 0.704700
vn 0.828400 0.491200 0.269200
vn -0.828400 0.491200 -0.269200
vn 0.000000 0.491200 0.871000
vn 0.828400 0.491200 -0.269200
vn -0.512000 0.491200 -0.704700
usemtl NW_MISC_OILLAMP_01
s off
f 17/1/1 3/2/1 37/3/1
f 19/2/2 18/3/2 5/4/2
f 5/4/2 4/1/2 19/2/2
f 37/3/1 16/4/1 17/1/1
f 7/5/3 35/6/3 36/7/3
f 3/8/4 42/9/4 31/10/4
f 36/7/3 1/11/3 7/5/3
f 3/8/4 37/12/4 42/9/4
f 70/13/5 39/14/5 20/15/5
f 70/13/6 20/15/6 38/16/6
f 4/17/7 16/18/7 37/19/7
f 16/20/8 4/21/8 5/22/8
f 17/23/9 5/24/9 18/25/9
f 5/22/8 17/26/8 16/20/8
f 37/12/10 3/8/10 18/27/10
f 18/25/9 3/28/9 17/23/9
f 18/27/10 19/29/10 37/12/10
f 37/19/7 19/30/7 4/17/7
f 20/31/11 39/32/11 10/33/11
f 38/34/1 44/35/1 21/36/1
f 70/13/12 34/37/12 22/38/12
f 25/39/13 54/40/13 60/41/13
f 27/42/14 59/43/14 57/44/14
f 23/45/15 60/46/15 54/47/15
f 30/48/16 57/49/16 59/50/16
f 70/13/17 31/10/17 42/9/17
f 3/8/18 31/10/18 6/51/18
f 1/52/19 34/53/19 37/19/19
f 35/54/20 3/28/20 6/55/20
f 6/55/20 36/56/20 35/54/20
f 37/19/19 7/57/19 1/52/19
f 70/13/21 38/16/21 11/58/21
f 11/59/22 38/34/22 21/36/22
f 70/13/23 22/38/23 39/14/23
f 39/32/24 49/60/24 10/33/24
f 70/13/25 6/51/25 31/10/25
f 31/61/26 6/62/26 41/63/26
f 6/62/27 50/64/27 41/63/27
f 70/13/28 42/9/28 34/37/28
f 42/9/29 37/12/29 34/37/29
f 22/65/30 34/66/30 43/67/30
f 34/66/31 46/68/31 43/67/31
f 38/34/1 20/31/1 44/35/1
f 20/31/11 10/33/11 44/35/11
f 40/69/32 11/70/32 45/71/32
f 11/59/22 21/36/22 45/72/22
f 34/66/31 42/73/31 46/68/31
f 42/73/2 51/74/2 46/68/2
f 22/65/30 43/67/30 49/60/30
f 39/32/24 22/65/24 49/60/24
f 6/62/27 40/69/27 50/64/27
f 40/69/32 45/71/32 50/64/32
f 42/73/2 31/61/2 51/74/2
f 31/61/26 41/63/26 51/74/26
f 54/47/33 24/75/33 23/45/33
f 57/49/34 30/48/34 28/76/34
f 59/43/35 27/42/35 26/77/35
f 60/41/36 29/78/36 25/39/36
f 70/13/37 40/79/37 6/51/37
f 70/13/38 11/58/38 40/79/38
usemtl OBJ_CITY_SWORDFISHWHEEL_01.TGA
f 24/80/39 56/81/39 58/82/39
f 28/83/40 61/84/40 55/85/40
f 29/86/41 58/82/41 56/81/41
f 26/87/42 55/85/42 61/84/42
f 55/85/43 26/87/43 27/80/43
f 56/81/44 25/83/44 29/86/44
f 58/82/45 23/87/45 24/80/45
f 61/84/46 28/83/46 30/86/46
usemtl NW_MISC_OILLAMP_02
f 21/88/47 44/89/47 75/90/47
f 46/91/48 51/92/48 80/93/48
f 43/94/49 72/95/49 77/96/49
f 41/97/50 74/98/50 79/99/50
f 66/100/51 48/101/51 63/102/51
f 67/103/52 12/104/52 62/105/52
f 10/106/53 49/107/53 78/108/53
f 50/109/54 45/110/54 71/111/54
f 14/112/55 12/113/55 64/114/55
f 68/115/56 15/116/56 9/117/56
f 8/118/57 65/119/57 2/120/57
f 14/112/58 63/102/58 48/101/58
f 14/112/59 62/105/59 12/104/59
f 14/112/60 2/120/60 65/119/60
f 45/110/61 76/121/61 71/111/61
f 66/100/51 53/122/51 48/101/51
f 44/89/62 10/106/62 73/123/62
f 45/110/61 21/88/61 76/121/61
f 49/107/63 43/94/63 77/96/63
f 51/92/64 41/97/64 79/99/64
f 44/89/62 73/123/62 75/90/62
f 8/118/57 69/124/57 65/119/57
f 52/125/65 64/114/65 12/113/65
f 67/103/52 52/126/52 12/104/52
f 41/97/50 50/109/50 74/98/50
f 43/94/49 46/127/49 72/95/49
f 68/115/56 9/117/56 47/128/56
f 14/112/66 47/128/66 9/117/66
f 53/122/67 2/120/67 48/101/67
f 14/112/68 48/101/68 2/120/68
f 52/125/65 33/129/65 64/114/65
f 46/91/48 80/93/48 72/130/48
f 53/122/67 8/118/67 2/120/67
f 21/88/47 75/90/47 76/121/47
f 32/131/69 62/105/69 13/132/69
f 14/112/70 13/132/70 62/105/70
f 15/116/71 63/102/71 9/117/71
f 14/112/72 9/117/72 63/102/72
f 33/129/73 47/128/73 64/114/73
f 14/112/74 64/114/74 47/128/74
f 69/124/75 13/132/75 65/119/75
f 14/112/76 65/119/76 13/132/76
f 15/116/71 66/100/71 63/102/71
f 50/109/54 71/111/54 74/98/54
f 32/131/69 67/103/69 62/105/69
f 49/107/63 77/96/63 78/108/63
f 33/129/73 68/115/73 47/128/73
f 51/92/64 79/99/64 80/93/64
f 69/124/75 32/131/75 13/132/75
f 10/106/53 78/108/53 73/123/53
f 74/98/77 71/111/77 66/100/77
f 71/111/78 53/122/78 66/100/78
f 77/96/79 72/95/79 52/126/79
f 72/130/80 33/129/80 52/125/80
f 75/90/81 73/123/81 69/124/81
f 73/123/82 32/131/82 69/124/82
f 79/99/83 74/98/83 15/116/83
f 74/98/77 66/100/77 15/116/77
f 76/121/84 75/90/84 8/118/84
f 75/90/81 69/124/81 8/118/81
f 71/111/78 76/121/78 53/122/78
f 76/121/84 8/118/84 53/122/84
f 78/108/85 77/96/85 67/103/85
f 77/96/79 52/126/79 67/103/79
f 78/108/85 67/103/85 32/131/85
f 73/123/82 78/108/82 32/131/82
f 80/93/86 79/99/86 68/115/86
f 79/99/83 15/116/83 68/115/83
f 72/130/80 80/93/80 33/129/80
f 80/93/86 68/115/86 33/129/86
