# Blender v2.75 (sub 0) OBJ File: 'Empty.blend'
# www.blender.org
mtllib NW_CITY_BEAMS_SMITH_01.mtl
o NW_CITY_BEAMS_SMITH_01
v 3.376781 3.550020 -0.409359
v 3.376781 -3.549980 -0.409359
v 3.826781 3.550020 0.040641
v -3.837435 3.550020 -0.409359
v -3.837434 -3.549980 -0.409359
v -3.387435 3.550020 0.040641
v 0.262258 3.550020 0.040641
v 0.262258 -3.549979 0.040641
v -0.187742 -3.549980 -0.409359
v -0.187742 3.550020 -0.409359
v 3.826781 -3.549980 0.040641
v -3.387434 -3.549980 0.040641
v 3.514983 -0.176060 -0.334359
v -3.585017 0.273939 -0.034359
v 3.514983 0.273940 -0.034359
v -3.585017 -0.176061 -0.334359
v -3.853314 2.193697 -2.597546
v -3.853314 0.072498 -0.069600
v -3.553313 -0.233920 -0.326715
v 0.191241 1.887279 -2.854661
v 0.191242 -0.233920 -0.326715
v -0.108759 0.072498 -0.069600
v -3.853315 2.193697 2.234398
v -3.853314 0.072498 -0.293548
v -3.553313 -0.233920 -0.036433
v 3.553355 2.193697 -2.597546
v 3.553355 0.072498 -0.069600
v 3.853355 -0.233920 -0.326715
v 3.553355 2.193697 2.234398
v 3.553355 0.072498 -0.293548
v 3.853355 -0.233920 -0.036433
v -3.553314 1.887279 2.491513
v 0.191241 1.887279 2.491513
v 0.191241 -0.233920 -0.036433
v -0.108759 0.072498 -0.293548
v -3.553314 1.887279 -2.854661
v 3.552660 -0.172748 5.066258
v 3.552660 -0.172748 -5.066298
v 3.852660 -0.572748 -5.066298
v 3.852660 -0.572748 5.066258
v -3.850751 -0.172748 5.066258
v -3.850751 -0.172748 -5.066298
v -3.550751 -0.572748 -5.066298
v -3.550751 -0.572748 5.066258
v 0.191241 -0.572748 5.066258
v 0.191241 -0.572748 -5.066298
v -0.108759 -0.172748 5.066258
v -0.108759 -0.172748 -5.066298
v -0.108759 2.193697 2.234398
v 3.853355 1.887279 -2.854661
v 3.853355 1.887279 2.491513
v -0.108759 2.193697 -2.597546
v 0.262258 -3.549979 -0.409359
v 0.262258 3.550020 -0.409359
v -0.187742 3.550020 0.040641
v -0.187742 -3.549979 0.040641
v 3.376781 3.550020 0.040641
v 3.376781 -3.549980 0.040641
v 3.826781 3.550020 -0.409359
v 3.826781 -3.549980 -0.409359
v -3.837435 3.550020 0.040641
v -3.837434 -3.549980 0.040641
v -3.387435 3.550020 -0.409359
v -3.387434 -3.549980 -0.409359
v -0.108759 1.887279 -2.854661
v -3.553314 2.193697 2.234398
v -3.853314 -0.233920 -0.036433
v 3.552660 -0.572748 5.066258
v 3.552660 -0.572748 -5.066298
v 3.852660 -0.172748 5.066258
v 3.852660 -0.172748 -5.066298
v 3.553355 -0.233920 -0.326715
v 3.553355 1.887279 -2.854661
v 3.853355 2.193697 -2.597546
v 3.853355 0.072498 -0.069600
v 3.553355 1.887279 2.491513
v 3.853355 2.193697 2.234398
v -3.850751 -0.572748 5.066258
v -3.850751 -0.572748 -5.066298
v -3.550751 -0.172748 5.066258
v -3.550751 -0.172748 -5.066298
v -0.108759 -0.572748 5.066258
v -0.108759 -0.572748 -5.066298
v -3.585017 -0.176061 -0.034359
v 3.514983 -0.176060 -0.034359
v 3.514983 0.273940 -0.334359
v -0.108758 -0.233920 -0.326715
v -3.585017 0.273939 -0.334359
v 0.191241 -0.172748 -5.066298
v 3.553355 -0.233920 -0.036433
v 0.191241 -0.172748 5.066258
v 0.191241 2.193697 2.234398
v 0.191241 0.072498 -0.069600
v 0.191241 2.193697 -2.597546
v 0.191241 0.072498 -0.293548
v -3.553314 0.072498 -0.293548
v 3.853355 0.072498 -0.293548
v -3.853313 -0.233920 -0.326715
v -3.853314 1.887279 -2.854661
v -3.553314 2.193697 -2.597546
v -0.108759 1.887279 2.491513
v -0.108759 -0.233920 -0.036433
v -3.553314 0.072498 -0.069600
v -3.853314 1.887279 2.491513
v -0.108759 0.779494 -0.912165
v -3.553314 0.473076 -1.169280
v 0.191242 0.473076 -1.169280
v -3.853314 1.180177 1.648822
v 0.191241 1.486595 1.391707
v 3.853355 1.180177 -2.011971
v -3.853314 0.473076 0.806132
v -3.553314 0.473182 0.806258
v 3.553355 1.180283 -2.012097
v -3.553314 1.486595 1.391707
v 3.853355 0.779600 -0.912291
v -3.853314 0.473182 -1.169406
v 0.191241 1.486701 -1.754982
v -3.853314 0.779494 -0.912165
v -3.553314 0.779600 -0.912291
v -0.108759 1.486595 -1.754856
v 0.191241 0.779600 -0.912291
v 3.553355 0.473076 0.806132
v 3.853355 0.473182 0.806258
v 3.853355 1.486701 -1.754982
v 3.553355 0.779494 -0.912165
v 3.826781 2.366628 -0.409359
v 3.376781 -2.366587 -0.409359
v 3.376781 0.000198 -0.409359
v 3.376781 2.366628 0.040641
v 3.376781 -0.000157 0.040641
v 3.826781 -2.366587 0.040641
v 3.826781 0.000198 0.040641
v 3.826781 -0.000157 -0.409359
v 0.262258 -2.366587 0.040641
v 0.262258 0.000198 0.040641
v 0.262258 2.366628 -0.409359
v 0.262258 -0.000157 -0.409359
v -3.387434 2.366628 -0.409359
v -3.837434 -2.366587 -0.409359
v -3.837434 0.000198 -0.409359
v -3.837434 2.366628 0.040641
v -3.837434 -0.000157 0.040641
v -3.387434 -2.366587 0.040641
v -3.387434 0.000198 0.040641
v -3.387434 -0.000157 -0.409359
v -0.187742 -2.366587 -0.409359
v -0.187742 0.000198 -0.409359
v -0.187742 2.366628 0.040641
v -0.187742 -0.000157 0.040641
v 3.376781 2.366805 -0.409359
v 3.376781 -2.366765 0.040641
v 3.826781 2.366805 0.040641
v 3.826781 -2.366765 -0.409359
v 0.262258 2.366805 0.040641
v 0.262258 -2.366765 -0.409359
v -3.837435 2.366805 -0.409359
v -3.837434 -2.366765 0.040641
v -3.387435 2.366805 0.040641
v -3.387434 -2.366765 -0.409359
v -0.187742 2.366805 -0.409359
v -0.187742 -2.366765 0.040641
v 3.376781 -1.183195 -0.409359
v 3.376781 1.183590 -0.409359
v 3.376781 1.183235 0.040641
v 3.376781 -1.183550 0.040641
v 3.826781 -1.183195 0.040641
v 3.826781 1.183590 0.040641
v 3.826781 1.183235 -0.409359
v 3.826781 -1.183550 -0.409359
v 0.262258 -1.183195 0.040641
v 0.262258 1.183590 0.040641
v 0.262258 1.183235 -0.409359
v 0.262258 -1.183550 -0.409359
v -3.837434 -1.183195 -0.409359
v -3.837435 1.183590 -0.409359
v -3.837434 1.183235 0.040641
v -3.837434 -1.183550 0.040641
v -3.387434 -1.183195 0.040641
v -3.387435 1.183590 0.040641
v -3.387434 1.183235 -0.409359
v -3.387434 -1.183550 -0.409359
v -0.187742 -1.183195 -0.409359
v -0.187742 1.183590 -0.409359
v -0.187742 1.183235 0.040641
v -0.187742 -1.183550 0.040641
v 3.553355 1.486595 -1.754856
v 3.553355 0.473182 -1.169406
v 3.853355 0.473076 -1.169280
v 0.191241 1.180177 -2.011971
v 3.553355 0.779599 0.549143
v 3.553355 1.486701 1.391834
v 3.553355 1.180177 1.648822
v 3.853355 1.180283 1.648949
v 3.853355 1.486595 1.391707
v 3.853355 0.779493 0.549017
v 0.191241 0.473182 0.806258
v 0.191241 1.180283 1.648949
v 0.191241 0.779493 0.549017
v -3.853314 1.486595 -1.754856
v -3.853314 1.180283 -2.012097
v -3.553314 1.180177 -2.011971
v -3.553314 1.486701 -1.754982
v -0.108758 0.473182 -1.169406
v -0.108759 1.180283 -2.012097
v -3.853314 0.779599 0.549143
v -3.853314 1.486701 1.391834
v -3.553314 1.180283 1.648949
v -3.553314 0.779493 0.549017
v -0.108759 0.779599 0.549143
v -0.108759 1.486701 1.391834
v -0.108759 1.180177 1.648822
v -0.108759 0.473076 0.806132
v 3.552660 -0.172748 -3.377455
v 3.552660 -0.172748 0.000233
v 3.552660 -0.572748 3.377414
v 3.552660 -0.572748 -0.000273
v 3.852660 -0.572748 -3.377455
v 3.852660 -0.572748 0.000233
v 3.852660 -0.172748 3.377414
v 3.852660 -0.172748 -0.000274
v 0.191241 -0.572748 -3.377455
v 0.191241 -0.572748 0.000233
v 0.191241 -0.172748 3.377414
v 0.191241 -0.172748 -0.000274
v -3.850751 -0.172748 -3.377455
v -3.850751 -0.172748 0.000233
v -3.850751 -0.572748 3.377414
v -3.850751 -0.572748 -0.000273
v -3.550751 -0.572748 -3.377455
v -3.550751 -0.572748 0.000233
v -3.550751 -0.172748 3.377414
v -3.550751 -0.172748 -0.000274
v -0.108759 -0.172748 -3.377455
v -0.108759 -0.172748 0.000233
v -0.108759 -0.572748 3.377414
v -0.108759 -0.572748 -0.000273
v 3.552660 -0.172748 3.377667
v 3.552660 -0.572748 -3.377708
v 3.852660 -0.572748 3.377667
v 3.852660 -0.172748 -3.377708
v 0.191241 -0.572748 3.377667
v 0.191241 -0.172748 -3.377708
v -3.850751 -0.172748 3.377667
v -3.850751 -0.572748 -3.377708
v -3.550751 -0.572748 3.377667
v -3.550751 -0.172748 -3.377708
v -0.108759 -0.172748 3.377667
v -0.108759 -0.572748 -3.377708
v 3.552660 -0.172748 -1.688611
v 3.552660 -0.172748 1.689077
v 3.552660 -0.572748 1.688570
v 3.552660 -0.572748 -1.689117
v 3.852660 -0.572748 -1.688611
v 3.852660 -0.572748 1.689077
v 3.852660 -0.172748 1.688570
v 3.852660 -0.172748 -1.689117
v 0.191241 -0.572748 -1.688611
v 0.191241 -0.572748 1.689077
v 0.191241 -0.172748 1.688570
v 0.191241 -0.172748 -1.689117
v -3.850751 -0.172748 -1.688611
v -3.850751 -0.172748 1.689077
v -3.850751 -0.572748 1.688570
v -3.850751 -0.572748 -1.689117
v -3.550751 -0.572748 -1.688611
v -3.550751 -0.572748 1.689077
v -3.550751 -0.172748 1.688570
v -3.550751 -0.172748 -1.689117
v -0.108759 -0.172748 -1.688611
v -0.108759 -0.172748 1.689077
v -0.108759 -0.572748 1.688570
v -0.108759 -0.572748 -1.689117
vt 0.000500 -0.795804
vt 0.999500 -0.795893
vt 0.999499 -1.091696
vt 0.000500 -1.091696
vt 0.000500 -0.795893
vt 0.000500 -0.204196
vt 0.999500 -0.204108
vt 0.999499 0.091696
vt 0.000500 0.091696
vt 0.000500 -0.204108
vt 0.999500 -0.499956
vt 0.999500 -0.204196
vt 0.999500 -0.795804
vt -0.000001 0.387500
vt 0.000000 -1.387500
vt 1.000000 -1.387500
vt 1.000000 0.387500
vt 0.028426 -0.316339
vt 0.985353 -0.316982
vt 0.971573 -0.683661
vt 0.985351 -0.682963
vt 0.028428 -0.683717
vt 0.014649 -0.317037
vt 0.000869 -1.049643
vt 0.014647 -0.683018
vt 0.971573 -0.316339
vt 0.999130 0.049643
vt 0.957794 0.050341
vt 0.042206 0.050341
vt 1.000000 0.344223
vt -0.000000 0.344286
vt -0.000000 -0.077859
vt 1.000000 0.344484
vt 0.000000 0.344548
vt 0.000000 -0.077597
vt 0.000000 -0.922276
vt 1.000000 -0.922403
vt 1.000000 -0.500194
vt -0.000000 -1.344223
vt 1.000000 -1.344286
vt 1.000000 -0.922141
vt -0.000000 -0.922014
vt 1.000000 -0.499932
vt 0.000000 -1.344484
vt 1.000000 -1.344548
vt 0.000869 0.049643
vt 0.000500 -0.499956
vt 0.858852 -0.683018
vt 0.141149 -0.682963
vt 0.141149 -0.316284
vt 0.858852 0.049643
vt 0.141149 0.049643
vt 0.141148 -0.317037
vt 0.858852 -0.316284
vt 0.874995 -0.499806
vt 0.125004 -0.500194
vt 0.139742 -0.922403
vt 0.110267 -0.077986
vt 0.860258 -0.077597
vt 0.845523 0.344548
vt 0.860263 -0.922276
vt 0.110263 -0.922141
vt 0.095528 -1.344286
vt 0.139737 -0.077724
vt 0.889737 -0.077859
vt 0.904472 0.344286
vt 0.141148 0.050341
vt 0.858852 -0.317037
vt 0.858852 -0.683717
vt 0.141148 -0.683661
vt 0.858852 0.050341
vt 0.889733 -0.922014
vt 0.154477 -1.344548
vt 0.833333 -1.387500
vt 0.833333 0.387500
vt 0.166667 0.387500
vt 0.166666 -1.387500
vt 0.858853 -1.049643
vt 0.875000 -0.500068
vt 0.125000 -0.499932
vt 0.999130 -1.049643
vt 0.042206 -1.050341
vt 0.858851 -1.050341
vt 0.141148 -1.050341
vt 0.141149 -1.049643
vt 0.957794 -1.050341
vt 0.999499 -1.387500
vt 0.000499 -1.387500
vt 0.000499 0.387500
vt 0.999500 0.387500
vt 1.000000 0.766693
vt 0.000000 0.766693
vt 0.919207 0.766431
vt 0.169212 0.766693
vt 0.154475 0.344484
vt -0.000000 -0.499806
vt 1.000000 -0.077724
vt 0.169212 -1.766693
vt 0.919207 -1.766431
vt 0.904470 -1.344223
vt -0.000001 -1.766431
vt 0.999999 0.766431
vt 0.830788 0.766693
vt 0.080792 0.766431
vt 0.095530 0.344223
vt 1.000000 -0.077986
vt 0.080792 -1.766431
vt 0.830788 -1.766693
vt 0.845525 -1.344484
vt 0.000000 -1.766693
vt -0.000000 -0.500068
vt 0.999999 -1.766431
vt 1.000000 -1.766693
vt -0.000001 0.766431
vn 0.000000 0.000000 -1.000000
vn -1.000000 0.000000 0.000000
vn 0.000000 0.000000 1.000000
vn 1.000000 0.000000 -0.000000
vn 0.000000 -0.766000 -0.642800
vn 0.000000 0.766000 -0.642800
vn 0.000000 -0.766000 0.642800
vn 0.000000 -1.000000 -0.000000
vn 0.000000 1.000000 0.000000
vn -0.000000 0.766000 0.642800
usemtl NW_CITY_WOOD_ORNAMENT_02
s off
f 168/1/1 163/2/1 150/3/1
f 129/3/2 150/4/2 163/5/2
f 180/6/1 175/7/1 156/8/1
f 141/8/2 156/9/2 175/10/2
f 170/1/3 185/2/3 161/3/3
f 134/3/4 155/4/4 173/5/4
f 184/6/2 183/7/2 147/11/2
f 136/9/4 154/8/4 171/7/4
f 166/12/3 165/10/3 151/9/3
f 162/12/1 169/10/1 153/9/1
f 178/13/3 177/5/3 157/4/3
f 174/13/1 181/5/1 159/4/1
f 84/14/3 85/15/3 15/16/3
f 88/14/1 86/15/1 13/16/1
f 13/16/1 16/17/1 88/14/1
f 15/16/3 14/17/3 84/14/3
f 201/18/4 202/19/4 119/20/4
f 116/21/2 118/22/2 199/23/2
f 203/21/2 105/22/2 120/23/2
f 21/24/4 107/25/4 121/20/4
f 114/19/4 207/18/4 112/25/4
f 108/26/2 206/23/2 205/22/2
f 115/20/4 188/25/4 110/18/4
f 187/21/2 125/22/2 186/23/2
f 123/25/4 195/20/4 194/19/4
f 192/26/2 191/23/2 190/22/2
f 207/18/4 114/19/4 66/27/4
f 206/23/2 108/26/2 104/28/2
f 209/22/2 212/21/2 211/26/2
f 109/19/4 197/18/4 196/25/4
f 202/19/4 201/18/4 36/29/4
f 99/28/2 200/26/2 199/23/2
f 217/30/4 240/31/4 256/32/4
f 213/33/2 238/34/2 252/35/2
f 255/36/4 254/37/4 218/38/4
f 215/39/2 237/40/2 250/41/2
f 229/30/4 246/31/4 268/32/4
f 225/33/2 244/34/2 264/35/2
f 267/36/4 266/37/4 230/38/4
f 227/39/2 243/40/2 262/41/2
f 271/42/2 270/41/2 234/43/2
f 223/44/4 241/45/4 258/37/4
f 233/33/2 248/34/2 272/35/2
f 221/30/4 242/31/4 260/32/4
f 101/28/2 49/46/2 210/23/2
f 197/18/4 109/19/4 92/27/4
f 110/18/4 124/19/4 115/20/4
f 73/28/2 113/26/2 186/23/2
f 51/29/4 193/18/4 194/19/4
f 191/23/2 192/26/2 76/28/2
f 120/23/2 204/26/2 203/21/2
f 189/18/4 117/19/4 121/20/4
f 182/1/1 173/2/1 155/3/1
f 137/11/1 147/47/1 183/10/1
f 184/12/3 171/10/3 154/9/3
f 146/3/2 161/4/2 185/5/2
f 130/47/3 132/11/3 167/2/3
f 127/9/2 151/8/2 165/7/2
f 168/13/4 167/5/4 132/47/4
f 131/9/4 153/8/4 169/7/4
f 142/47/3 144/11/3 179/7/3
f 139/4/2 157/3/2 177/2/2
f 180/12/4 179/10/4 144/47/4
f 143/4/4 159/3/4 181/2/4
f 107/48/5 203/49/5 204/50/5
f 23/51/6 66/52/6 114/53/6
f 111/49/7 112/48/7 207/54/7
f 216/55/8 218/56/8 254/57/8
f 253/58/8 252/59/8 238/60/8
f 255/61/9 250/62/9 237/63/9
f 249/64/9 256/65/9 240/66/9
f 113/50/5 110/54/5 188/48/5
f 110/54/5 113/50/5 73/67/5
f 124/53/10 186/68/10 125/69/10
f 125/69/10 115/70/10 124/53/10
f 51/71/7 76/67/7 192/50/7
f 191/68/6 194/53/6 195/70/6
f 228/55/8 230/56/8 266/57/8
f 265/58/8 264/59/8 244/60/8
f 267/61/9 262/62/9 243/63/9
f 261/64/9 268/65/9 246/66/9
f 271/72/8 258/57/8 241/73/8
f 257/58/8 272/59/8 248/60/8
f 85/74/8 84/75/8 16/76/8
f 16/76/8 13/77/8 85/74/8
f 15/77/9 86/74/9 88/75/9
f 203/49/5 107/48/5 21/78/5
f 88/75/9 14/76/9 15/77/9
f 269/64/9 260/65/9 242/66/9
f 192/50/7 193/54/7 51/71/7
f 224/79/9 234/80/9 270/62/9
f 49/51/6 92/52/6 109/53/6
f 105/69/10 121/70/10 117/53/10
f 117/53/10 120/68/10 105/69/10
f 109/53/6 210/68/6 49/51/6
f 208/70/6 205/69/6 206/68/6
f 195/70/6 190/69/6 191/68/6
f 201/54/5 200/50/5 99/67/5
f 99/67/5 36/71/5 201/54/5
f 202/53/10 199/68/10 118/69/10
f 197/54/7 211/50/7 212/49/7
f 212/49/7 196/48/7 197/54/7
f 118/69/10 119/70/10 202/53/10
f 32/71/7 104/67/7 108/50/7
f 87/81/2 22/82/2 105/22/2
f 105/69/10 22/83/10 93/84/10
f 19/24/4 106/25/4 119/20/4
f 106/48/5 19/78/5 98/85/5
f 117/19/4 189/18/4 20/29/4
f 20/71/5 189/54/5 204/50/5
f 207/54/7 108/50/7 111/49/7
f 205/22/2 111/21/2 108/26/2
f 210/68/6 109/53/6 198/70/6
f 196/25/4 198/20/4 109/19/4
f 124/19/4 110/18/4 50/29/4
f 73/67/5 50/71/5 110/54/5
f 67/81/2 111/21/2 205/22/2
f 112/48/7 111/49/7 67/85/7
f 208/20/4 112/25/4 25/24/4
f 67/85/7 25/78/7 112/48/7
f 188/48/5 187/49/5 113/50/5
f 186/23/2 113/26/2 187/21/2
f 112/25/4 208/20/4 114/19/4
f 206/68/6 114/53/6 208/70/6
f 115/20/4 75/86/4 28/24/4
f 27/83/10 75/84/10 115/70/10
f 118/22/2 116/21/2 98/81/2
f 98/85/5 116/49/5 106/48/5
f 120/68/10 117/53/10 94/52/10
f 20/29/4 94/27/4 117/19/4
f 98/81/2 18/82/2 118/22/2
f 119/70/10 118/69/10 18/83/10
f 119/20/4 103/86/4 19/24/4
f 18/83/10 103/84/10 119/70/10
f 120/23/2 52/46/2 65/28/2
f 94/52/10 52/51/10 120/68/10
f 93/84/10 121/70/10 105/69/10
f 121/20/4 93/86/4 21/24/4
f 90/81/2 122/21/2 190/22/2
f 123/48/7 122/49/7 90/85/7
f 195/20/4 123/25/4 31/24/4
f 90/85/7 31/78/7 123/48/7
f 124/53/10 74/52/10 26/51/10
f 50/29/4 74/27/4 124/19/4
f 72/81/2 27/82/2 125/22/2
f 115/70/10 125/69/10 27/83/10
f 1/87/1 59/88/1 126/4/1
f 152/4/4 126/3/4 59/87/4
f 127/9/2 2/89/2 58/90/2
f 60/89/1 2/90/1 127/8/1
f 130/11/2 128/47/2 162/6/2
f 169/10/1 162/12/1 128/11/1
f 3/87/3 57/88/3 129/4/3
f 150/4/2 129/3/2 57/87/2
f 167/2/3 164/1/3 130/47/3
f 128/47/2 130/11/2 164/13/2
f 153/8/4 131/9/4 11/89/4
f 58/89/3 11/90/3 131/8/3
f 151/9/3 131/8/3 166/12/3
f 169/7/4 166/6/4 131/9/4
f 163/2/1 168/1/1 133/47/1
f 132/47/4 133/11/4 168/13/4
f 134/3/4 8/87/4 53/88/4
f 56/87/3 8/88/3 134/4/3
f 137/47/4 135/11/4 170/13/4
f 185/2/3 170/1/3 135/47/3
f 10/89/1 54/90/1 136/8/1
f 154/8/4 136/9/4 54/89/4
f 183/10/1 172/12/1 137/11/1
f 135/11/4 137/47/4 172/6/4
f 4/90/1 63/89/1 138/9/1
f 158/9/4 138/8/4 63/90/4
f 139/4/2 5/88/2 62/87/2
f 64/88/1 5/87/1 139/3/1
f 142/11/2 140/47/2 174/1/2
f 181/5/1 174/13/1 140/11/1
f 6/90/3 61/89/3 141/9/3
f 156/9/2 141/8/2 61/90/2
f 179/7/3 176/6/3 142/47/3
f 140/47/2 142/11/2 176/12/2
f 159/3/4 143/4/4 12/88/4
f 62/88/3 12/87/3 143/3/3
f 157/4/3 143/3/3 178/13/3
f 181/2/4 178/1/4 143/4/4
f 175/7/1 180/6/1 145/47/1
f 144/47/4 145/11/4 180/12/4
f 161/4/2 146/3/2 9/87/2
f 53/87/1 9/88/1 146/4/1
f 155/3/1 146/4/1 182/1/1
f 185/5/2 182/13/2 146/3/2
f 7/89/3 55/90/3 148/8/3
f 160/8/2 148/9/2 55/89/2
f 171/10/3 184/12/3 149/11/3
f 147/11/2 149/47/2 184/6/2
f 126/4/1 150/3/1 1/87/1
f 57/87/2 1/88/2 150/4/2
f 58/90/2 151/8/2 127/9/2
f 131/8/3 151/9/3 58/89/3
f 59/87/4 3/88/4 152/4/4
f 129/4/3 152/3/3 3/87/3
f 11/89/4 60/90/4 153/8/4
f 127/8/1 153/9/1 60/89/1
f 148/8/3 154/9/3 7/89/3
f 54/89/4 7/90/4 154/8/4
f 146/4/1 155/3/1 53/87/1
f 53/88/4 155/4/4 134/3/4
f 138/9/1 156/8/1 4/90/1
f 61/90/2 4/89/2 156/9/2
f 62/87/2 157/3/2 139/4/2
f 143/3/3 157/4/3 62/88/3
f 63/90/4 6/89/4 158/9/4
f 141/9/3 158/8/3 6/90/3
f 12/88/4 64/87/4 159/3/4
f 139/3/1 159/4/1 64/88/1
f 55/89/2 10/90/2 160/8/2
f 136/8/1 160/9/1 10/89/1
f 9/87/2 56/88/2 161/4/2
f 134/4/3 161/3/3 56/87/3
f 153/9/1 127/8/1 162/12/1
f 165/7/2 162/6/2 127/9/2
f 133/47/1 128/11/1 163/2/1
f 164/13/2 163/5/2 128/47/2
f 152/3/3 129/4/3 164/1/3
f 163/5/2 164/13/2 129/3/2
f 132/11/3 130/47/3 165/10/3
f 162/6/2 165/7/2 130/11/2
f 133/11/4 132/47/4 166/6/4
f 165/10/3 166/12/3 132/11/3
f 126/3/4 152/4/4 167/5/4
f 164/1/3 167/2/3 152/3/3
f 167/5/4 168/13/4 126/3/4
f 150/3/1 126/4/1 168/1/1
f 166/6/4 169/7/4 133/11/4
f 128/11/1 133/47/1 169/10/1
f 161/3/3 134/4/3 170/1/3
f 173/5/4 170/13/4 134/3/4
f 149/11/3 135/47/3 171/10/3
f 172/6/4 171/7/4 135/11/4
f 160/9/1 136/8/1 172/12/1
f 171/7/4 172/6/4 136/9/4
f 147/47/1 137/11/1 173/2/1
f 170/13/4 173/5/4 137/47/4
f 159/4/1 139/3/1 174/13/1
f 177/2/2 174/1/2 139/4/2
f 145/47/1 140/11/1 175/7/1
f 176/12/2 175/10/2 140/47/2
f 158/8/3 141/9/3 176/6/3
f 175/10/2 176/12/2 141/8/2
f 144/11/3 142/47/3 177/5/3
f 174/1/2 177/2/2 142/11/2
f 145/11/4 144/47/4 178/1/4
f 177/5/3 178/13/3 144/11/3
f 138/8/4 158/9/4 179/10/4
f 176/6/3 179/7/3 158/8/3
f 179/10/4 180/12/4 138/8/4
f 156/8/1 138/9/1 180/6/1
f 178/1/4 181/2/4 145/11/4
f 140/11/1 145/47/1 181/5/1
f 149/47/2 147/11/2 182/13/2
f 173/2/1 182/1/1 147/47/1
f 148/9/2 160/8/2 183/7/2
f 172/12/1 183/10/1 160/9/1
f 183/7/2 184/6/2 148/9/2
f 154/9/3 148/8/3 184/12/3
f 182/13/2 185/5/2 149/47/2
f 135/47/3 149/11/3 185/2/3
f 26/51/10 186/68/10 124/53/10
f 186/23/2 26/46/2 73/28/2
f 125/22/2 187/21/2 72/81/2
f 72/85/5 187/49/5 188/48/5
f 28/24/4 188/25/4 115/20/4
f 188/48/5 28/78/5 72/85/5
f 204/50/5 189/54/5 107/48/5
f 121/20/4 107/25/4 189/18/4
f 190/22/2 30/82/2 90/81/2
f 97/84/6 30/83/6 190/69/6
f 194/53/6 191/68/6 29/51/6
f 76/28/2 29/46/2 191/23/2
f 193/54/7 192/50/7 122/49/7
f 190/22/2 122/21/2 192/26/2
f 194/19/4 193/18/4 123/25/4
f 122/49/7 123/48/7 193/54/7
f 29/51/6 77/52/6 194/53/6
f 194/19/4 77/27/4 51/29/4
f 31/24/4 97/86/4 195/20/4
f 190/69/6 195/70/6 97/84/6
f 198/20/4 196/25/4 34/24/4
f 102/85/7 34/78/7 196/48/7
f 211/50/7 197/54/7 33/71/7
f 92/27/4 33/29/4 197/18/4
f 209/69/6 198/70/6 95/84/6
f 34/24/4 95/86/4 198/20/4
f 17/51/10 199/68/10 202/53/10
f 199/23/2 17/46/2 99/28/2
f 106/48/5 116/49/5 200/50/5
f 199/23/2 200/26/2 116/21/2
f 119/20/4 106/25/4 201/18/4
f 200/50/5 201/54/5 106/48/5
f 202/53/10 100/52/10 17/51/10
f 36/29/4 100/27/4 202/19/4
f 105/22/2 203/21/2 87/81/2
f 21/78/5 87/85/5 203/49/5
f 204/50/5 65/67/5 20/71/5
f 65/28/2 204/26/2 120/23/2
f 205/22/2 24/82/2 67/81/2
f 24/83/6 205/69/6 208/70/6
f 114/53/6 206/68/6 23/51/6
f 104/28/2 23/46/2 206/23/2
f 66/27/4 32/29/4 207/18/4
f 108/50/7 207/54/7 32/71/7
f 25/24/4 96/86/4 208/20/4
f 208/70/6 96/84/6 24/83/6
f 209/22/2 35/82/2 102/81/2
f 95/84/6 35/83/6 209/69/6
f 211/26/2 210/23/2 209/22/2
f 198/70/6 209/69/6 210/68/6
f 33/71/7 101/67/7 211/50/7
f 210/23/2 211/26/2 101/28/2
f 102/81/2 212/21/2 209/22/2
f 196/48/7 212/49/7 102/85/7
f 213/33/2 38/91/2 69/92/2
f 71/93/9 38/94/9 213/95/9
f 216/96/2 214/43/2 249/97/2
f 256/65/9 249/64/9 214/80/9
f 40/98/8 68/99/8 215/100/8
f 237/40/2 215/39/2 68/101/2
f 254/57/8 251/72/8 216/55/8
f 214/43/2 216/96/2 251/42/2
f 240/31/4 217/30/4 39/102/4
f 69/103/8 39/104/8 217/105/8
f 238/60/8 217/105/8 253/58/8
f 256/32/4 253/106/4 217/30/4
f 37/107/9 70/108/9 219/109/9
f 239/45/4 219/44/4 70/110/4
f 250/62/9 255/61/9 220/79/9
f 218/38/4 220/111/4 255/36/4
f 242/31/4 221/30/4 46/102/4
f 83/103/8 46/104/8 221/105/8
f 224/111/4 222/38/4 257/106/4
f 272/59/8 257/58/8 222/56/8
f 47/107/9 91/108/9 223/109/9
f 241/45/4 223/44/4 91/110/4
f 270/62/9 259/61/9 224/79/9
f 222/38/4 224/111/4 259/36/4
f 225/33/2 42/91/2 79/92/2
f 81/93/9 42/94/9 225/95/9
f 228/96/2 226/43/2 261/97/2
f 268/65/9 261/64/9 226/80/9
f 44/98/8 78/99/8 227/100/8
f 243/40/2 227/39/2 78/101/2
f 266/57/8 263/72/8 228/55/8
f 226/43/2 228/96/2 263/42/2
f 246/31/4 229/30/4 43/102/4
f 79/103/8 43/104/8 229/105/8
f 244/60/8 229/105/8 265/58/8
f 268/32/4 265/106/4 229/30/4
f 41/107/9 80/108/9 231/109/9
f 245/45/4 231/44/4 80/110/4
f 262/62/9 267/61/9 232/79/9
f 230/38/4 232/111/4 267/36/4
f 233/33/2 48/91/2 83/92/2
f 89/93/9 48/94/9 233/95/9
f 242/66/9 233/95/9 269/64/9
f 272/35/2 269/97/2 233/33/2
f 45/98/8 82/99/8 235/100/8
f 247/40/2 235/39/2 82/101/2
f 258/57/8 271/72/8 236/55/8
f 234/43/2 236/96/2 271/42/2
f 219/109/9 237/63/9 37/107/9
f 68/101/2 37/112/2 237/40/2
f 69/92/2 238/34/2 213/33/2
f 217/105/8 238/60/8 69/103/8
f 70/110/4 40/113/4 239/45/4
f 215/100/8 239/73/8 40/98/8
f 39/102/4 71/114/4 240/31/4
f 213/95/9 240/66/9 71/93/9
f 235/100/8 241/73/8 45/98/8
f 91/110/4 45/113/4 241/45/4
f 233/95/9 242/66/9 89/93/9
f 46/102/4 89/114/4 242/31/4
f 231/109/9 243/63/9 41/107/9
f 78/101/2 41/112/2 243/40/2
f 79/92/2 244/34/2 225/33/2
f 229/105/8 244/60/8 79/103/8
f 80/110/4 44/113/4 245/45/4
f 227/100/8 245/73/8 44/98/8
f 43/102/4 81/114/4 246/31/4
f 225/95/9 246/66/9 81/93/9
f 82/101/2 47/112/2 247/40/2
f 223/109/9 247/63/9 47/107/9
f 83/92/2 248/34/2 233/33/2
f 221/105/8 248/60/8 83/103/8
f 240/66/9 213/95/9 249/64/9
f 252/35/2 249/97/2 213/33/2
f 220/79/9 214/80/9 250/62/9
f 251/42/2 250/41/2 214/43/2
f 239/73/8 215/100/8 251/72/8
f 250/41/2 251/42/2 215/39/2
f 218/56/8 216/55/8 252/59/8
f 249/97/2 252/35/2 216/96/2
f 220/111/4 218/38/4 253/106/4
f 252/59/8 253/58/8 218/56/8
f 219/44/4 239/45/4 254/37/4
f 251/72/8 254/57/8 239/73/8
f 254/37/4 255/36/4 219/44/4
f 237/63/9 219/109/9 255/61/9
f 253/106/4 256/32/4 220/111/4
f 214/80/9 220/79/9 256/65/9
f 248/60/8 221/105/8 257/58/8
f 260/32/4 257/106/4 221/30/4
f 236/55/8 222/56/8 258/57/8
f 259/36/4 258/37/4 222/38/4
f 247/63/9 223/109/9 259/61/9
f 258/37/4 259/36/4 223/44/4
f 234/80/9 224/79/9 260/65/9
f 257/106/4 260/32/4 224/111/4
f 246/66/9 225/95/9 261/64/9
f 264/35/2 261/97/2 225/33/2
f 232/79/9 226/80/9 262/62/9
f 263/42/2 262/41/2 226/43/2
f 245/73/8 227/100/8 263/72/8
f 262/41/2 263/42/2 227/39/2
f 230/56/8 228/55/8 264/59/8
f 261/97/2 264/35/2 228/96/2
f 232/111/4 230/38/4 265/106/4
f 264/59/8 265/58/8 230/56/8
f 231/44/4 245/45/4 266/37/4
f 263/72/8 266/57/8 245/73/8
f 266/37/4 267/36/4 231/44/4
f 243/63/9 231/109/9 267/61/9
f 265/106/4 268/32/4 232/111/4
f 226/80/9 232/79/9 268/65/9
f 236/96/2 234/43/2 269/97/2
f 260/65/9 269/64/9 234/80/9
f 235/39/2 247/40/2 270/41/2
f 259/61/9 270/62/9 247/63/9
f 270/41/2 271/42/2 235/39/2
f 241/73/8 235/100/8 271/72/8
f 269/97/2 272/35/2 236/96/2
f 222/56/8 236/55/8 272/59/8
