# Blender v2.75 (sub 0) OBJ File: 'Empty.blend'
# www.blender.org
mtllib NW_CITY_FIREPLACE_NORMAL_011.mtl
o NW_CITY_FIREPLACE_NORMAL_011
v 0.408661 0.371702 -0.599995
v -1.108641 -1.499990 0.099975
v 1.108661 -1.499990 0.100005
v -0.408641 -0.499990 0.099975
v -0.408641 -1.399990 0.099975
v -0.658641 -1.499990 0.749975
v -0.408641 -1.399990 -0.600025
v -0.408641 0.371702 -0.600025
v 0.408661 -0.499990 0.100005
v 0.408661 -1.399990 0.100005
v 0.408661 -1.399990 -0.599995
v -0.658641 -1.499990 0.099975
v -0.508641 1.116060 -0.750025
v -1.208641 -0.349990 0.199975
v 0.508661 1.116060 -0.749995
v 1.208661 -0.349990 0.200005
v 0.408661 0.371379 -0.249988
v -0.408641 0.371379 -0.250017
v 0.658661 -1.499990 0.100005
v 0.658661 -1.499990 0.750005
v -0.658641 -1.399990 0.749975
v 1.208661 -0.349990 -0.749995
v -1.208641 -0.349990 -0.750025
v -0.508671 0.974216 -0.299025
v 0.508691 0.974216 -0.298995
v 1.059157 -0.349990 0.000835
v -1.059137 -0.349990 0.000835
v 1.208661 -0.499990 0.200005
v -1.208641 -0.499990 0.199975
v 1.208661 -0.499990 -0.749995
v 1.108661 -0.499990 0.100005
v -1.208641 -0.499990 -0.750025
v -1.108641 -0.499990 0.099975
v 0.658661 -1.399990 0.750005
v 1.108661 -0.499990 -0.749995
v 0.658661 -1.399990 0.100005
v -1.108641 -0.499990 -0.750025
v -0.658641 -1.399990 0.099975
v 1.058646 -0.349990 -0.749995
v -1.058626 -0.349990 -0.750025
v 0.408661 -0.499990 0.000012
v -0.408641 -0.499990 -0.000017
v 0.608661 0.371944 -0.749995
v -0.608641 0.371944 -0.750025
v -0.609152 0.371702 -0.199083
v 0.609172 0.371702 -0.199083
v 0.508661 0.974216 -0.749995
v -0.508641 0.974216 -0.750025
v 0.000010 -1.399990 0.750005
v 0.000010 -0.499990 0.000012
v 0.000010 0.371379 -0.249988
v 0.000010 0.371702 -0.199083
v 0.000010 0.974216 -0.298995
v 1.108661 -1.499990 -0.749995
v 0.408661 -0.499990 -0.599995
v 0.000010 -0.349990 0.000835
v 0.000010 1.116060 -0.749995
v 0.000010 -0.499990 0.100005
v 0.000010 -0.349990 0.200005
v 0.000010 -0.499990 0.200005
v 0.000010 -1.499990 0.750005
v 0.000010 -1.399990 0.100005
v 0.000010 0.371702 -0.599995
v 0.000010 -0.499990 -0.599995
v 0.000010 -1.399990 -0.599995
v -1.108641 -1.499990 -0.750025
v -0.408641 -0.499990 -0.600025
vt 0.442444 -0.767990
vt 0.512863 -0.502747
vt 0.515930 -0.767166
vt 0.668503 -0.341904
vt 0.644241 -0.508484
vt 0.648682 -0.256897
vt 0.669449 -0.257217
vt 0.130157 -0.210846
vt 0.248398 -0.402969
vt 0.054871 -0.401093
vt 0.442657 -0.764999
vt 0.516129 -0.764099
vt 0.512817 -0.499695
vt 0.882324 -0.139740
vt 0.931839 -0.006927
vt 0.966309 -0.140030
vt 0.370300 -0.213089
vt 0.443741 -0.213806
vt 0.441925 -0.404816
vt 0.979874 -0.266098
vt 0.250244 -0.212006
vt 0.910172 -0.275436
vt 0.849915 -0.418427
vt 0.848892 -0.275909
vt 0.870636 -0.053879
vt 0.783936 -0.257172
vt 0.785751 -0.053131
vt 0.868820 -0.257950
vt 0.966110 -0.139832
vt 0.882355 -0.006638
vt 0.882126 -0.139679
vt 0.972504 -0.417526
vt 0.911209 -0.417953
vt 0.132111 -0.005157
vt 0.979874 -0.265884
vt 0.307159 -0.502258
vt 0.748276 -0.767258
vt 0.748077 -0.958786
vt 0.502167 -0.958557
vt 0.310837 -0.796066
vt 0.251038 -0.989456
vt 0.007660 -0.990067
vt 0.007111 -0.791168
vt 0.606812 -0.767120
vt 0.307175 -0.505066
vt 0.008453 -0.792664
vt 0.008942 -0.991577
vt 0.252289 -0.991135
vt 0.825424 -0.365921
vt 0.826187 -0.450851
vt 0.753479 -0.451447
vt 0.931351 -0.006805
vt 0.882813 -0.006699
vt 0.752716 -0.366562
vt 0.310593 -0.798889
vt 0.056747 -0.210098
vt 0.476318 -0.215103
vt 0.474258 -0.406052
vt 0.444885 -0.405746
vt 0.068253 -0.454666
vt 0.261780 -0.458023
vt 0.261246 -0.487396
vt 0.041809 -0.794556
vt 0.039139 -0.500732
vt 0.288910 -0.498505
vt 0.290222 -0.500488
vt 0.040482 -0.498352
vt 0.038025 -0.792206
vt 0.605026 -0.661591
vt 0.528946 -0.660126
vt 0.530472 -0.581665
vt 0.250549 -0.843506
vt 0.606522 -0.583160
vt 0.251862 -0.845139
vt 0.850281 -0.040802
vt 0.694336 -0.037781
vt 0.653519 -0.005936
vt 0.648804 -0.257004
vt 0.644135 -0.508026
vt 0.686066 -0.477737
vt 0.842056 -0.480560
vt 0.690216 -0.257767
vt 0.636627 -0.507950
vt 0.605499 -0.507675
vt 0.607758 -0.256546
vt 0.838913 -0.522110
vt 0.641571 -0.524521
vt 0.641937 -0.555695
vt 0.641632 -0.555450
vt 0.641342 -0.524292
vt 0.838745 -0.522614
vt 0.638916 -0.256851
vt 0.839294 -0.553284
vt 0.686142 -0.477554
vt 0.841705 -0.480804
vt 0.838959 -0.553787
vt 0.850555 -0.041122
vt 0.694580 -0.037811
vt 0.653656 -0.006836
vt 0.671265 -0.172134
vt 0.067749 -0.484039
vt 0.444382 -0.405746
vt 0.473724 -0.406143
vt 0.476425 -0.215179
vt 0.841919 -0.511108
vt 0.442795 -0.797363
vt 0.447052 -0.214722
vt 0.850113 -0.009003
vt 0.443008 -0.794373
vt 0.446945 -0.214813
vt 0.850830 -0.009613
vt 0.841476 -0.511734
vt 0.980118 -0.139877
vt 0.690216 -0.257568
vt 0.689209 -0.342255
vt 0.980316 -0.140091
vt 0.461380 -0.990631
vt 0.461166 -0.871155
vt 0.459869 -0.869431
vt 0.460175 -0.988892
vt 0.630386 -0.570190
vt 0.748489 -0.570282
vt 0.507584 -0.990524
vt 0.506332 -0.988770
vt 0.455276 -0.461441
vt 0.691986 -0.172501
vt 0.699036 -0.256439
vt 0.700836 -0.052353
vt 0.751968 -0.281647
vt 0.889709 -0.767410
vt 0.993942 -0.959076
vt 0.866547 -0.570419
vt 0.527420 -0.738556
vt 0.291519 -0.792236
vt 0.881882 -0.265686
vt 0.912201 -0.552933
vt 0.850906 -0.553391
vt 0.603500 -0.740021
vt 0.610062 -0.005478
vt 0.641235 -0.005768
vt 0.454712 -0.490814
vt 0.372269 -0.007431
vt 0.252182 -0.006317
vt 0.824677 -0.281021
vt 0.971451 -0.274994
vt 0.287750 -0.794327
vt 0.973480 -0.552475
vn 0.000000 0.000000 1.000000
vn 0.000000 -1.000000 0.000000
vn 0.000000 1.000000 0.000000
vn 1.000000 -0.000000 0.000000
vn 0.000000 -0.275800 -0.961200
vn -1.000000 0.000000 0.000000
vn -0.000100 0.000000 1.000000
vn 0.000000 0.267000 0.963700
vn -0.848600 0.529000 -0.000600
vn 0.848600 0.529000 -0.000600
vn 0.000000 -1.000000 -0.000900
vn 0.000000 0.953900 0.300000
vn 0.986500 0.163800 -0.000100
vn -0.986500 0.163800 -0.000100
vn -0.986400 0.164400 -0.000800
vn 0.000000 0.163600 0.986500
vn 0.986400 0.164400 -0.000800
vn 1.000000 0.000000 -0.000100
vn -1.000000 0.000000 -0.000100
vn 0.000100 -0.275800 -0.961200
vn -0.000100 0.163600 0.986500
usemtl OBJ_CITY_BOULDERPOOR_01
s off
f 36/1/1 9/2/1 10/3/1
f 9/4/2 28/5/2 60/6/2
f 9/4/2 60/6/2 58/7/2
f 10/8/3 49/9/3 34/10/3
f 38/11/1 5/12/1 4/13/1
f 67/14/4 18/15/4 42/16/4
f 5/17/3 38/18/3 21/19/3
f 67/14/4 42/16/4 5/20/4
f 5/17/3 49/9/3 62/21/3
f 63/22/1 55/23/1 1/24/1
f 17/25/5 50/26/5 51/27/5
f 50/26/5 17/25/5 41/28/5
f 41/29/6 1/30/6 55/31/6
f 10/8/3 62/21/3 49/9/3
f 67/32/7 64/33/7 63/22/7
f 62/21/3 10/8/3 11/34/3
f 55/31/6 10/35/6 41/29/6
f 38/11/1 4/13/1 33/36/1
f 52/37/8 56/38/8 26/39/8
f 38/11/1 33/36/1 2/40/1
f 44/41/9 40/42/9 27/43/9
f 26/39/8 46/44/8 52/37/8
f 36/1/1 31/45/1 9/2/1
f 26/46/10 39/47/10 43/48/10
f 63/49/11 1/50/11 17/51/11
f 1/30/6 41/29/6 17/52/6
f 18/15/4 67/14/4 8/53/4
f 17/51/11 51/54/11 63/49/11
f 36/1/1 3/55/1 31/45/1
f 10/8/3 34/10/3 36/56/3
f 12/57/6 6/58/6 21/59/6
f 34/60/1 49/61/1 61/62/1
f 54/63/4 35/64/4 31/65/4
f 33/66/6 37/67/6 66/68/6
f 57/69/12 53/70/12 25/71/12
f 27/43/9 45/72/9 44/41/9
f 25/71/12 15/73/12 57/69/12
f 43/48/10 46/74/10 26/46/10
f 39/75/3 26/76/3 16/77/3
f 59/78/3 16/77/3 26/76/3
f 14/79/3 27/80/3 40/81/3
f 26/76/3 56/82/3 59/78/3
f 28/83/1 16/84/1 59/85/1
f 22/86/4 16/87/4 28/88/4
f 29/89/6 14/90/6 23/91/6
f 59/85/1 60/92/1 28/83/1
f 28/88/4 30/93/4 22/86/4
f 28/5/2 31/94/2 35/95/2
f 9/4/2 31/94/2 28/5/2
f 23/91/6 32/96/6 29/89/6
f 37/97/2 33/98/2 29/99/2
f 4/100/2 29/99/2 33/98/2
f 61/62/1 20/101/1 34/60/1
f 34/102/4 20/103/4 19/104/4
f 35/95/2 30/105/2 28/5/2
f 36/1/1 19/106/1 3/55/1
f 19/104/4 36/107/4 34/102/4
f 29/99/2 32/108/2 37/97/2
f 38/11/1 2/40/1 12/109/1
f 21/59/6 38/110/6 12/57/6
f 16/77/3 22/111/3 39/75/3
f 40/81/3 23/112/3 14/79/3
f 10/35/6 9/113/6 41/29/6
f 50/114/2 41/115/2 9/4/2
f 42/16/4 4/116/4 5/20/4
f 9/4/2 58/7/2 50/114/2
f 43/48/13 47/117/13 25/118/13
f 24/119/14 48/120/14 44/41/14
f 44/41/15 45/72/15 24/119/15
f 25/121/16 53/122/16 52/37/16
f 52/37/16 46/44/16 25/121/16
f 25/118/17 46/74/17 43/48/17
f 25/118/18 47/117/18 15/123/18
f 24/119/19 13/124/19 48/120/19
f 61/62/1 49/61/1 21/125/1
f 5/17/3 21/19/3 49/9/3
f 50/114/2 4/100/2 42/126/2
f 50/26/20 42/127/20 18/128/20
f 63/49/11 51/54/11 18/129/11
f 18/128/20 51/27/20 50/26/20
f 52/37/8 45/130/8 27/131/8
f 24/132/16 45/130/16 52/37/16
f 24/133/12 53/70/12 57/69/12
f 52/37/21 53/122/21 24/132/21
f 31/65/4 3/134/4 54/63/4
f 55/31/6 11/135/6 10/35/6
f 65/136/1 11/137/1 55/23/1
f 27/131/8 56/38/8 52/37/8
f 59/78/3 56/82/3 27/80/3
f 57/69/12 13/138/12 24/133/12
f 4/100/2 58/7/2 60/6/2
f 4/100/2 50/114/2 58/7/2
f 59/85/1 14/139/1 29/140/1
f 27/80/3 14/79/3 59/78/3
f 29/140/1 60/92/1 59/85/1
f 4/100/2 60/6/2 29/99/2
f 21/125/1 6/141/1 61/62/1
f 7/142/3 5/17/3 62/21/3
f 11/34/3 65/143/3 62/21/3
f 18/129/11 8/144/11 63/49/11
f 63/22/7 8/145/7 67/32/7
f 55/23/1 64/33/1 65/136/1
f 55/23/1 63/22/1 64/33/1
f 65/136/7 64/33/7 67/32/7
f 62/21/3 65/143/3 7/142/3
f 66/68/6 2/146/6 33/66/6
f 67/14/4 5/20/4 7/135/4
f 67/32/7 7/147/7 65/136/7
