# Blender v2.75 (sub 0) OBJ File: 'Empty.blend'
# www.blender.org
mtllib NW_CITY_DECO_PICTURE_02.mtl
o NW_CITY_DECO_PICTURE_02
v 0.952457 -0.702437 0.020259
v -0.952437 -0.702437 0.020259
v 0.952457 0.702457 0.020259
v 1.047563 -0.797543 0.020259
v -0.952437 0.702457 0.020259
v -1.047543 -0.797543 0.020259
v -1.047543 0.797563 0.020259
v 1.047563 0.797563 0.020259
v -0.970601 0.720621 -0.057661
v 0.970621 0.720621 -0.057661
v 0.970621 -0.720601 -0.057661
v -0.970601 -0.720601 -0.057661
v -1.029379 0.779399 -0.057661
v 1.029399 0.779399 -0.057661
v 1.029399 -0.779379 -0.057661
v -1.029379 -0.779379 -0.057661
v -0.999990 0.750010 0.054808
v 1.000010 -0.749990 0.054808
v 1.000010 0.750010 0.054808
v -0.999990 -0.749990 0.054808
v 1.000010 0.750010 0.009160
v -0.999990 0.750010 0.009160
v 1.000010 -0.749990 0.009160
v -0.999990 -0.749990 0.009160
vt 0.428284 -0.055825
vt 0.037900 -0.055825
vt 0.024686 -0.073050
vt 0.018446 -0.074863
vt 0.438557 -0.074863
vt 0.428568 -0.058332
vt 0.449664 -0.083696
vt 0.016519 -0.083696
vt 0.032852 -0.062404
vt 0.032852 -0.062059
vt 0.432383 -0.064646
vt 0.444730 -0.085079
vt 0.037900 -0.055479
vt 0.441497 -0.072705
vt 0.024686 -0.072705
vt 0.016519 -0.083351
vt 0.433331 -0.062059
vt 0.428284 -0.055479
vt 0.438557 -0.074779
vt 0.018446 -0.074779
vt 0.028434 -0.091310
vt 0.449664 -0.083350
vt 0.432383 -0.084996
vt 0.024619 -0.084996
vt 0.012272 -0.064562
vt 0.441497 -0.073050
vt 0.428568 -0.091310
vt 0.433331 -0.062404
vt 0.444730 -0.064562
vt 0.028434 -0.058332
vt 0.024619 -0.064646
vt 0.008457 -0.058248
vt 0.011472 -0.089930
vt 0.454711 -0.089930
vt 0.448545 -0.058248
vt 0.454711 -0.090275
vt 0.012272 -0.085079
vt 0.448545 -0.091394
vt 0.011472 -0.090275
vt 0.008457 -0.091394
vt 1.000000 -1.000000
vt 1.000000 -0.000000
vt 0.000000 -1.000000
vt 0.000000 -0.000000
vn -0.587800 0.000000 0.809000
vn 0.000000 0.587800 0.809000
vn 0.000000 -0.000000 -1.000000
vn 0.587800 0.000000 0.809000
vn 0.000000 -0.587800 0.809000
vn 0.000000 -0.973900 -0.227000
vn 0.973900 0.000000 -0.227000
vn -0.973900 -0.000000 -0.227000
vn 0.000000 0.973900 -0.227000
vn 0.000000 0.000000 1.000000
usemtl OBJ_CITY_CUPBOARDPOORICH_01
s off
f 3/1/1 1/2/1 18/3/1
f 20/4/2 18/5/2 1/6/2
f 14/7/3 15/8/3 11/9/3
f 12/10/3 11/11/3 15/12/3
f 1/6/2 2/13/2 20/4/2
f 17/14/4 20/15/4 2/13/4
f 15/12/3 16/16/3 12/10/3
f 9/17/3 12/10/3 16/16/3
f 2/13/4 5/18/4 17/14/4
f 19/19/5 17/20/5 5/21/5
f 16/16/3 13/22/3 9/17/3
f 10/23/3 9/24/3 13/25/3
f 18/3/1 19/26/1 3/1/1
f 5/21/5 3/27/5 19/19/5
f 11/9/3 10/28/3 14/7/3
f 13/25/3 14/29/3 10/23/3
f 3/27/6 5/21/6 9/24/6
f 12/10/7 9/17/7 5/18/7
f 9/24/6 10/23/6 3/27/6
f 1/2/8 3/1/8 10/28/8
f 2/30/9 1/6/9 11/11/9
f 10/28/8 11/9/8 1/2/8
f 5/18/7 2/13/7 12/10/7
f 11/11/9 12/31/9 2/30/9
f 14/29/9 13/25/9 7/32/9
f 6/33/8 7/34/8 13/22/8
f 7/32/9 8/35/9 14/29/9
f 15/8/7 14/7/7 8/36/7
f 16/37/6 15/12/6 4/38/6
f 8/36/7 4/39/7 15/8/7
f 13/22/8 16/16/8 6/33/8
f 4/38/6 6/40/6 16/37/6
f 8/35/2 7/32/2 17/20/2
f 20/15/1 17/14/1 7/34/1
f 6/33/5 4/38/5 18/5/5
f 19/26/4 18/3/4 4/39/4
f 17/20/2 19/19/2 8/35/2
f 4/39/4 8/36/4 19/26/4
f 7/34/1 6/33/1 20/15/1
f 18/5/5 20/4/5 6/33/5
usemtl OBJ_CITY_PICTURE_02
f 23/41/10 21/42/10 24/43/10
f 22/44/10 24/43/10 21/42/10
