# Blender v2.75 (sub 0) OBJ File: 'Empty.blend'
# www.blender.org
mtllib NW_CITY_VLIES_01.mtl
o NW_CITY_VLIES_01
v 1.499955 -0.024990 -1.000094
v -1.499935 -0.024990 -0.700136
v 1.200043 -0.024990 0.999906
v 1.200065 0.025010 -0.700179
v -1.499957 -0.024990 0.999906
v -1.199935 0.025010 0.699990
v -1.199957 -0.024990 -0.999926
v -1.199935 0.025010 -0.700010
v 1.499977 -0.024990 0.699864
v 1.200065 0.025010 0.699821
v -1.199957 -0.024990 1.000074
v 1.499977 -0.024990 -0.700136
v 1.200043 -0.024990 -1.000094
v -1.499957 -0.024990 -1.000094
v -1.499935 -0.024990 0.699864
v 1.499955 -0.024990 0.999906
vt 0.000000 -0.000000
vn 0.000000 1.000000 0.000000
vn 0.164400 0.986400 0.000000
vn -0.000000 0.986400 -0.164400
vn 0.000000 0.986400 0.164400
vn -0.164400 0.986400 0.000000
vn -0.162200 0.973300 -0.162300
vn 0.162200 0.973300 0.162200
vn -0.000100 0.986400 0.164400
usemtl 1_-_DEFAULT
s off
f 10/1/1 4/1/1 6/1/1
f 4/1/2 10/1/2 12/1/2
f 4/1/3 13/1/3 8/1/3
f 8/1/1 6/1/1 4/1/1
f 6/1/4 11/1/4 10/1/4
f 6/1/5 8/1/5 15/1/5
f 7/1/3 8/1/3 13/1/3
f 2/1/5 15/1/5 8/1/5
f 8/1/6 7/1/6 2/1/6
f 9/1/2 12/1/2 10/1/2
f 3/1/4 10/1/4 11/1/4
f 10/1/7 3/1/7 9/1/7
f 11/1/8 6/1/8 5/1/8
f 12/1/2 1/1/2 4/1/2
f 13/1/3 4/1/3 1/1/3
f 14/1/1 2/1/1 7/1/1
f 15/1/5 5/1/5 6/1/5
f 16/1/1 9/1/1 3/1/1
