# Blender v2.75 (sub 0) OBJ File: 'Empty.blend'
# www.blender.org
mtllib NW_CITY_CANDLE_01.mtl
o NW_CITY_CANDLE_01
v 0.061813 -0.099655 0.190343
v -0.199990 -0.099655 0.000132
v -0.061793 -0.099655 -0.190079
v 0.200010 -0.099655 0.000132
v -0.024711 0.122505 -0.075953
v -0.064711 -0.140722 0.047155
v 0.024731 -0.140722 -0.075953
v -0.061793 -0.099655 0.190343
v 0.080010 -0.140722 0.000132
v 0.064731 0.116962 0.047155
v -0.064711 0.101206 0.047155
v -0.013764 -0.099655 0.245172
v 0.046234 -0.099655 0.221605
v -0.043766 -0.099655 0.221605
v -0.013764 -0.099655 -0.245192
v 0.046234 -0.099655 -0.221625
v -0.043766 -0.099655 -0.221625
v -0.016571 0.161136 0.034141
v 0.001671 0.135339 -0.000203
v 0.001720 0.099680 -0.002014
v 0.024731 -0.140722 0.076216
v -0.064711 -0.140722 -0.046891
v 0.051234 -0.099655 -0.189873
v 0.051234 -0.099655 0.189853
v 0.046234 -0.145155 0.148653
v -0.048766 -0.099655 0.189853
v -0.048766 -0.099655 -0.189873
v 0.064731 0.102711 -0.046891
v -0.043766 -0.145155 -0.148673
v -0.044491 -0.161116 -0.136829
v 0.046234 -0.145155 -0.148673
v -0.043766 -0.145155 0.148653
v 0.116516 -0.161116 -0.084515
v 0.116516 -0.161116 0.084778
v 0.161813 -0.099655 -0.117425
v -0.044491 -0.161116 0.137093
v 0.012657 0.099680 0.006079
v -0.064711 0.122505 -0.046891
v 0.024731 0.084795 0.076216
v -0.116496 -0.161116 0.084778
v -0.116496 -0.161116 -0.084515
v 0.000010 -0.140722 0.000132
v -0.161793 -0.099655 -0.117425
v -0.161793 -0.099655 0.117689
v 0.061813 -0.099655 -0.190079
v 0.161813 -0.099655 0.117689
v 0.010939 0.135339 0.006656
v 0.044511 -0.161116 0.137093
v 0.044511 -0.161116 -0.136829
v 0.144019 -0.161116 0.000132
v -0.143999 -0.161116 0.000132
v 0.003142 0.099680 0.007501
v 0.080010 0.118392 0.000132
v -0.079990 0.109278 0.000132
v -0.079990 -0.140722 0.000132
v 0.000010 0.101640 0.000132
v -0.024711 0.109278 0.076216
v -0.024711 -0.140722 0.076216
v -0.024711 -0.140722 -0.075953
v 0.024731 0.109278 -0.075953
v 0.064731 -0.140722 -0.046891
v 0.064731 -0.140722 0.047155
v 0.011235 0.099680 -0.003436
v -0.002128 0.160569 0.014624
v -0.043766 -0.109978 0.214320
v 0.046234 -0.109978 0.214320
v -0.013769 -0.109978 0.237887
v -0.043766 -0.109978 -0.214340
v 0.046234 -0.109978 -0.214340
v -0.013769 -0.109978 -0.237907
v 0.016237 -0.099655 -0.245192
v 0.016237 -0.099655 0.245172
v 0.016233 -0.109978 0.237887
v 0.016233 -0.109978 -0.237907
v -0.004019 0.152971 0.017179
v -0.006384 0.156770 0.013452
v 0.000236 0.156770 0.018351
v 0.009382 0.137884 -0.000931
v 0.003228 0.132793 0.007385
vt 0.468658 -1.032980
vt 0.245348 -1.032980
vt 0.245348 0.007878
vt 0.028077 -1.032980
vt 0.245613 -1.032980
vt 0.245493 0.007273
vt 0.468798 -1.032980
vt 0.028077 0.007773
vt 0.468658 0.008313
vt 0.248792 -0.471739
vt 0.065108 -0.331417
vt 0.021747 -0.471739
vt 0.027895 0.007773
vt 0.028308 -1.032980
vt 0.028308 0.008087
vt 0.027895 -1.032980
vt 0.245775 -1.032980
vt 0.468798 0.007505
vt 0.245775 0.008145
vt 0.318953 -0.244694
vt 0.178631 -0.244693
vt 0.178631 -0.698785
vt 0.318953 -0.698785
vt 0.475838 -0.471739
vt 0.432476 -0.331417
vt 0.065108 -0.612061
vt 0.432476 -0.612061
vt 0.463456 -0.578069
vt 0.989255 0.000217
vt 0.028102 0.000370
vt 1.838952 -0.348301
vt 1.343714 -0.348301
vt 1.343715 -0.701676
vt 0.000000 -1.000000
vt 0.649985 -0.236102
vt 0.050000 -0.471771
vt 0.950000 -0.471771
vt 0.000000 -0.716443
vt 1.000000 -0.716443
vt 0.649985 -0.163254
vt 0.500000 -0.807276
vt 0.557650 -0.450694
vt 0.500000 -0.425241
vt 0.431973 -0.807276
vt 0.442350 -0.450694
vt 0.050000 -0.398924
vt 0.349970 -0.163254
vt 0.950000 -1.128440
vt 0.624271 -0.471771
vt 0.272500 -1.128440
vt 0.727500 -0.716443
vt 0.950000 -0.398924
vt 0.050000 -1.128440
vt 0.272500 -0.716443
vt 0.375729 -0.471771
vt 0.727500 -1.128440
vt 2.899914 -0.348301
vt 2.360637 -0.701676
vt 2.899914 -0.701676
vt 1.838952 -0.701676
vt -1.724645 -0.348301
vt -2.246330 -0.348301
vt -2.246329 -0.701676
vt -0.734170 -0.348301
vt -1.229407 -0.348301
vt -1.229407 -0.701676
vt -0.212485 -0.348301
vt -0.734169 -0.701676
vt -0.212484 -0.701676
vt 0.326792 -0.348301
vt -1.724644 -0.701676
vt 0.326792 -0.701676
vt 0.848477 -0.348301
vt 0.848477 -0.701676
vt 0.568027 -0.807276
vt -0.313164 -0.050301
vt 2.360637 -0.348301
vt 0.500000 -0.476147
vt 0.599123 -0.476147
vt 0.650850 -0.450694
vt 0.493176 -0.236376
vt 0.334297 -0.807276
vt 0.402324 -0.807276
vt 0.400877 -0.476147
vt 0.665703 -0.807276
vt 0.733731 -0.807276
vt 0.702577 -0.425241
vt 0.509067 -0.198387
vt 0.297423 -0.425241
vt 0.349150 -0.450694
vt 0.506824 -0.236376
vt 0.050000 -0.272500
vt 0.050000 -0.375729
vt 0.349970 -0.375729
vt 0.272500 -0.398924
vt 0.727500 -0.398924
vt 0.950000 -0.375729
vt 0.950000 -0.272500
vt 0.650030 -0.272500
vt 0.350015 -0.272500
vt 0.649985 -0.375729
vt 0.349970 -0.236102
vt 0.500000 -0.274365
vt 0.458821 -0.236376
vt 0.500000 -0.490933
vt 0.458821 -0.506824
vt 0.500000 -0.733731
vt 0.522715 -0.274365
vt 0.733731 -0.192724
vt 0.541179 -0.506824
vt 0.477285 -0.274365
vt 0.266269 -0.192724
vt 0.490933 -0.198387
vt 0.541179 -0.236376
vn -0.587800 0.000000 -0.809000
vn 0.000000 0.000000 1.000000
vn 0.587800 0.000000 -0.809000
vn 0.000000 0.000000 -1.000000
vn 0.090800 0.950600 0.296900
vn -0.951100 0.000000 -0.309000
vn 0.587800 0.000000 0.809000
vn -0.951100 0.000000 0.309000
vn 0.951100 0.000000 -0.309000
vn 0.254300 0.950600 0.178100
vn 0.155500 0.964400 0.214000
vn 0.443100 0.894800 0.054100
vn 0.951100 0.000000 0.309000
vn -0.198400 0.947300 -0.251500
vn 0.094100 0.985900 0.138700
vn -0.436200 0.838200 0.327300
vn -0.204800 0.978100 -0.036800
vn -0.587800 0.000000 0.809000
vn -0.102800 0.985900 -0.132400
vn 0.073100 0.989700 0.123100
vn 0.200700 0.977500 0.065200
vn -0.718800 -0.654800 -0.233500
vn 0.124000 0.977500 -0.170700
vn 0.000000 -1.000000 0.000000
vn 0.000000 0.977500 -0.211000
vn 0.000000 1.000000 0.000000
vn -0.113400 0.059500 -0.991800
vn 0.981500 0.050300 -0.184600
vn 0.000000 -0.881500 -0.472200
vn 0.000000 -0.881500 0.472200
vn 0.971900 -0.207400 0.111100
vn -0.971900 -0.207400 -0.111100
vn 0.000000 -0.654800 -0.755800
vn 0.971900 -0.207400 -0.111100
vn -0.971900 -0.207400 0.111100
vn 0.444200 -0.654800 -0.611400
vn 0.718800 -0.654800 0.233500
vn 0.444200 -0.654800 0.611400
vn 0.000000 -0.654800 0.755800
vn 0.718800 -0.654800 -0.233500
vn 0.000000 0.977500 0.211000
vn -0.444200 -0.654800 0.611400
vn 0.147800 -0.008900 0.989000
vn -0.147600 0.050000 -0.987800
vn -0.444200 -0.654800 -0.611400
vn -0.200700 0.977500 0.065200
vn -0.124000 0.977500 -0.170700
vn 0.124000 0.977500 0.170700
vn -0.718800 -0.654800 0.233500
vn 0.200700 0.977500 -0.065200
vn -0.124000 0.977500 0.170700
vn -0.200700 0.977500 -0.065200
vn 0.093000 0.003300 0.995700
vn 0.211900 -0.384500 0.898500
vn -0.989000 0.003100 0.147800
vn 0.987400 0.057600 -0.147600
vn 0.876500 0.476300 -0.070700
vn -0.232500 0.458900 -0.857500
vn -0.540200 -0.485200 0.687600
vn -0.981900 -0.109100 0.154600
vn 0.981900 -0.109100 0.154600
vn 0.540200 -0.485200 0.687600
vn -0.540200 -0.485100 0.687700
vn 0.540100 -0.485400 0.687500
vn -0.540200 -0.485200 -0.687600
vn -0.981900 -0.109100 -0.154600
vn 0.981900 -0.109100 -0.154600
vn 0.540200 -0.485200 -0.687600
vn -0.540200 -0.485100 -0.687700
vn 0.540100 -0.485400 -0.687500
vn 0.000000 -0.576600 -0.817000
vn 0.000000 -0.576600 0.817000
vn -0.895500 -0.423600 0.136500
vn -0.980300 -0.011400 0.197400
vn -0.537700 0.731600 -0.419100
vn -0.720100 -0.659600 -0.215400
vn 0.558000 0.731600 0.391700
vn 0.416500 -0.659600 0.625700
vn 0.884400 0.466000 -0.025200
vn -0.197500 0.484200 -0.852300
vn -0.928100 -0.366200 0.067700
vn 0.108700 -0.402200 0.909100
usemtl NW_MONASTERY_WALL_65
s off
f 59/1/1 22/2/1 38/3/1
f 58/4/2 21/5/2 39/6/2
f 61/7/3 7/5/3 60/6/3
f 58/4/2 39/6/2 57/8/2
f 7/5/4 5/9/4 60/6/4
f 56/10/5 38/11/5 54/12/5
f 22/2/6 54/13/6 38/3/6
f 21/5/7 62/14/7 10/15/7
f 55/16/8 6/2/8 11/3/8
f 9/17/9 28/18/9 53/19/9
f 56/10/10 60/20/10 5/21/10
f 59/1/1 38/3/1 5/9/1
f 56/10/11 5/21/11 38/11/11
f 21/5/7 10/15/7 39/6/7
f 56/10/12 57/22/12 39/23/12
f 62/14/13 53/19/13 10/15/13
f 56/10/14 53/24/14 28/25/14
f 55/16/8 11/3/8 54/13/8
f 56/10/15 54/12/15 11/26/15
f 22/2/6 55/16/6 54/13/6
f 56/10/16 39/23/16 10/27/16
f 56/10/17 10/27/17 53/24/17
f 6/2/18 57/8/18 11/3/18
f 56/10/19 11/26/19 57/22/19
f 6/2/18 58/4/18 57/8/18
f 7/5/4 59/1/4 5/9/4
f 61/7/3 60/6/3 28/18/3
f 56/10/20 28/25/20 60/20/20
f 9/17/9 61/7/9 28/18/9
f 62/14/13 9/17/13 53/19/13
usemtl NW_HARBOUR_CANON_01
f 42/28/21 43/29/21 2/30/21
f 41/31/22 51/32/22 2/33/22
f 42/28/23 44/29/23 8/30/23
f 33/34/24 51/34/24 30/34/24
f 42/28/25 8/30/25 1/29/25
f 34/34/24 51/34/24 33/34/24
f 73/35/24 65/36/24 66/37/24
f 24/38/26 26/39/26 12/40/26
f 74/35/24 69/37/24 68/36/24
f 23/38/26 15/40/26 27/39/26
f 63/41/27 19/42/27 78/43/27
f 37/44/28 78/43/28 47/45/28
f 23/38/26 16/46/26 71/47/26
f 68/36/29 69/37/29 31/48/29
f 24/38/26 72/47/26 13/46/26
f 65/36/30 25/48/30 66/37/30
f 66/49/31 25/50/31 24/51/31
f 12/40/26 26/39/26 14/52/26
f 32/53/30 25/48/30 65/36/30
f 15/40/26 17/52/26 27/39/26
f 29/53/29 68/36/29 31/48/29
f 27/54/32 68/55/32 29/56/32
f 49/57/33 3/58/33 45/59/33
f 41/31/22 2/33/22 43/60/22
f 69/49/34 23/51/34 31/50/34
f 26/54/35 32/56/35 65/55/35
f 33/61/36 49/62/36 45/63/36
f 34/64/37 50/65/37 4/66/37
f 48/67/38 46/68/38 1/69/38
f 36/70/39 48/67/39 1/69/39
f 50/65/40 35/71/40 4/66/40
f 42/28/41 45/29/41 3/30/41
f 36/70/39 1/69/39 8/72/39
f 40/73/42 8/72/42 44/74/42
f 52/41/43 37/75/43 47/42/43
f 63/41/44 20/75/44 19/42/44
f 40/73/42 36/70/42 8/72/42
f 36/34/24 51/34/24 34/34/24
f 30/34/24 51/34/24 41/76/24
f 30/77/45 41/31/45 43/60/45
f 42/28/46 4/29/46 35/30/46
f 42/28/47 1/29/47 46/30/47
f 30/77/45 43/60/45 3/58/45
f 42/28/48 3/30/48 43/29/48
f 51/32/49 44/74/49 2/33/49
f 42/28/50 2/30/50 44/29/50
f 33/61/36 45/63/36 35/71/36
f 42/28/51 35/30/51 45/29/51
f 34/64/37 4/66/37 46/68/37
f 42/28/52 46/30/52 4/29/52
f 52/41/53 47/42/53 79/78/53
f 79/79/54 47/80/54 77/81/54
f 36/34/24 34/34/24 48/34/24
f 48/67/38 34/64/38 46/68/38
f 33/34/24 30/34/24 49/34/24
f 49/57/33 30/77/33 3/58/33
f 34/34/24 33/34/24 50/34/24
f 50/65/40 33/61/40 35/71/40
f 36/34/24 40/34/24 51/34/24
f 51/32/49 40/73/49 44/74/49
f 20/82/55 52/83/55 79/84/55
f 37/85/56 63/86/56 78/87/56
f 47/80/57 64/88/57 77/81/57
f 78/89/58 19/90/58 76/91/58
f 14/92/59 65/93/59 67/94/59
f 65/55/60 14/95/60 26/54/60
f 24/51/61 13/96/61 66/49/61
f 66/97/62 13/98/62 72/99/62
f 67/94/63 12/100/63 14/92/63
f 72/99/64 73/101/64 66/97/64
f 17/92/65 70/94/65 68/93/65
f 68/55/66 27/54/66 17/95/66
f 23/51/67 69/49/67 16/96/67
f 69/97/68 71/99/68 16/98/68
f 70/94/69 17/92/69 15/100/69
f 71/99/70 69/97/70 74/101/70
f 23/38/26 71/47/26 15/40/26
f 74/101/71 15/100/71 71/99/71
f 24/38/26 12/40/26 72/47/26
f 73/101/72 72/99/72 12/100/72
f 65/36/24 73/35/24 67/102/24
f 12/100/72 67/94/72 73/101/72
f 68/36/24 70/102/24 74/35/24
f 15/100/71 74/101/71 70/94/71
f 19/45/73 75/103/73 76/104/73
f 20/44/74 79/78/74 19/45/74
f 64/105/75 76/106/75 18/107/75
f 76/91/76 75/108/76 18/109/76
f 77/110/77 64/105/77 18/107/77
f 75/111/78 77/81/78 18/112/78
f 47/80/79 78/87/79 64/88/79
f 78/89/80 76/91/80 64/113/80
f 19/90/81 79/84/81 75/108/81
f 79/78/82 77/114/82 75/103/82
