# Blender v2.75 (sub 0) OBJ File: 'Empty.blend'
# www.blender.org
mtllib NW_DRAGONISLE_STALAGTITE_03.mtl
o NW_DRAGONISLE_STALAGTITE_03
v -0.812575 25.522116 0.744785
v 0.165746 19.564648 -0.421973
v 0.489154 25.891665 -0.744785
v 0.812581 25.522116 0.138496
v -0.199655 24.491220 -0.401270
v -0.675085 25.891665 -0.340078
v -0.194372 24.926691 0.218320
v 0.384154 24.256378 -0.274141
v -0.060036 21.626528 -0.492676
v 0.108343 20.520840 -0.485430
v 0.118646 24.149372 -0.554844
v 0.132377 19.917955 -0.368340
v 0.022376 23.793953 -0.083184
v -0.373825 25.056990 0.332871
v 0.217992 24.059597 -0.511836
v 0.691790 25.587542 -0.373496
v -0.764401 25.814184 0.156406
v -0.115016 24.266787 -0.099043
v 0.281830 21.527094 -0.309629
v 0.320980 24.621078 -0.097266
v -0.070426 23.167444 -0.343809
v 0.136741 25.585749 0.313125
v 0.257435 23.857025 -0.115000
v -0.385661 24.898109 -0.096719
v -0.093395 25.818115 -0.572500
vt -2.614732 -1.124179
vt -2.648793 -0.854850
vt -2.681465 -1.160673
vt 3.626333 -0.844234
vt 3.650829 -1.174536
vt 3.657307 -1.092969
vt 3.515120 -1.135602
vt 3.463326 -0.634731
vt 3.458006 -1.114595
vt -2.642222 -1.302327
vt 3.930222 -1.270728
vt 3.768341 -1.207162
vt 3.734922 -1.277521
vt -2.431343 -1.204111
vt -2.493770 -1.221072
vt -2.413578 -1.301908
vt -2.469289 -1.136714
vt -2.440980 -1.019352
vt -2.414578 -1.160673
vt -2.421396 -0.854850
vt 3.634064 -1.270728
vt 3.544575 -1.277712
vt -2.466191 -0.672449
vt -2.626006 -0.736811
vt -2.639166 -0.672449
vt 3.446234 -0.736811
vt -2.535472 -1.310179
vt -2.626862 -0.634731
vt 3.639166 -0.672449
vt 3.695049 -1.086236
vt -2.413578 -3.840199
vt -2.493770 -3.809920
vt -2.489975 -3.930222
vt -2.502949 -3.768341
vt 3.437874 -1.124179
vt 3.463410 -1.310179
vt -2.757355 -1.310179
vt -2.750840 -1.204111
vt -2.840199 -1.301908
vt 3.809920 -1.221072
vt 3.712237 -1.136714
vt -2.490962 -1.086236
vt -2.502949 -1.207162
vt 3.626862 -0.634731
vt 3.495630 -0.844234
vt 3.616881 -1.135602
vt 3.614648 -1.270728
vt -2.712237 -1.136714
vn -0.427500 0.008000 -0.904000
vn 0.540400 -0.064400 0.838900
vn 0.827400 -0.020800 -0.561200
vn -0.495100 -0.072100 -0.865800
vn 0.409200 -0.328000 0.851500
vn -0.890800 -0.417700 0.179000
vn -0.905700 -0.388900 0.168800
vn -0.837400 -0.058200 0.543500
vn 0.938700 -0.235700 -0.251600
vn 0.358100 -0.306800 0.881800
vn -0.846600 -0.056800 0.529200
vn -0.080800 -0.018800 -0.996600
vn -0.850200 -0.132800 -0.509300
vn 0.543200 -0.023100 -0.839300
vn -0.278000 -0.045500 -0.959500
vn 0.877100 -0.234000 -0.419400
vn -0.985400 -0.069500 -0.155400
vn 0.413300 -0.071500 0.907800
vn 0.151800 -0.068200 0.986100
vn -0.974100 -0.086000 0.208900
vn -0.813300 -0.491900 -0.310800
vn -0.011100 -0.668800 0.743400
vn 0.382900 -0.018800 -0.923600
vn 0.266600 -0.160300 -0.950400
vn 0.787300 -0.191100 -0.586200
vn -0.921900 -0.321500 -0.216000
vn 0.278200 -0.388900 0.878300
vn -0.917600 -0.256400 0.303800
vn 0.522600 -0.079500 0.848900
vn 0.897800 -0.027900 -0.439500
vn 0.912400 -0.039500 0.407300
vn 0.274400 -0.380700 0.883000
vn -0.887300 -0.058800 0.457400
vn -0.703800 -0.181500 0.686800
vn 0.203300 -0.350200 0.914400
vn 0.188300 -0.218800 0.957400
vn 0.494600 -0.061300 0.867000
vn -0.918600 -0.393700 -0.035100
vn -0.937300 -0.311400 -0.156500
vn -0.379200 -0.088500 -0.921100
usemtl NW_DRAGONISLAND_ROCK_08
s off
f 11/1/1 9/2/1 5/3/1
f 19/4/2 20/5/2 23/6/2
f 8/7/3 2/8/3 15/9/3
f 11/1/4 5/3/4 25/10/4
f 1/11/5 7/12/5 22/13/5
f 24/14/6 14/15/6 17/16/6
f 24/14/7 18/17/7 14/15/7
f 21/18/8 5/19/8 9/20/8
f 4/21/9 8/7/9 16/22/9
f 7/12/10 20/5/10 22/13/10
f 21/18/11 9/20/11 12/23/11
f 9/2/12 11/1/12 10/24/12
f 12/25/13 9/2/13 10/24/13
f 10/26/14 15/9/14 2/8/14
f 3/27/15 11/1/15 25/10/15
f 8/7/16 15/9/16 16/22/16
f 12/25/17 10/24/17 2/28/17
f 23/6/18 12/29/18 19/4/18
f 13/30/19 12/29/19 23/6/19
f 18/17/20 5/19/20 21/18/20
f 17/31/21 14/32/21 1/33/21
f 7/34/22 1/33/22 14/32/22
f 11/35/23 15/9/23 10/26/23
f 11/35/24 3/36/24 15/9/24
f 16/22/25 15/9/25 3/36/25
f 6/37/26 24/38/26 17/39/26
f 7/12/27 14/40/27 18/41/27
f 13/42/28 7/43/28 18/17/28
f 19/4/29 12/29/29 2/44/29
f 2/8/30 8/7/30 19/45/30
f 8/46/31 20/5/31 19/4/31
f 8/46/32 4/47/32 20/5/32
f 21/18/33 12/23/33 13/42/33
f 18/17/34 21/18/34 13/42/34
f 22/13/35 20/5/35 4/47/35
f 23/6/36 7/12/36 13/30/36
f 7/12/37 23/6/37 20/5/37
f 18/48/38 24/38/38 5/3/38
f 24/38/39 6/37/39 5/3/39
f 25/10/40 5/3/40 6/37/40
