# Blender v2.75 (sub 0) OBJ File: 'Empty.blend'
# www.blender.org
mtllib NW_DRAGONISLE_BIGDOOR_RIGHT_01.mtl
o NW_DRAGONISLE_BIGDOOR_RIGHT_01
v -4.378201 -5.218975 0.914106
v 0.277949 5.398616 0.914107
v -4.378201 5.398616 0.914106
v 0.277949 -5.218975 0.914107
v -4.138390 -4.947059 -0.000010
v -4.138390 5.068424 -0.000010
v 0.000410 -4.947058 -0.000009
v 0.000410 5.068424 -0.000009
v -0.093590 -2.396187 1.102790
v -0.093590 0.060683 1.102790
v -0.093590 -4.853057 1.102790
v -0.093590 4.974424 1.102790
v -4.044391 4.974424 1.102789
v -4.044391 -4.853059 1.102789
v 0.000010 -2.547571 -0.000010
v -0.095297 -3.760627 -0.095317
v 0.095317 -2.682355 -0.095317
v 0.000010 3.895431 -0.000010
v -0.095297 2.682375 0.095297
v 0.000010 2.547591 -0.000010
v 0.000010 -3.895410 -0.000010
v -0.095297 3.760647 -0.095317
v -0.095297 3.760647 0.095297
v 0.095317 3.760647 0.095297
v 0.095317 3.760647 -0.095317
v -0.095297 -3.760627 0.095297
v 0.095317 -3.760627 -0.095317
v 0.095317 -3.760627 0.095297
v -4.138391 -4.947059 0.998990
v -4.138391 5.068424 0.998990
v 0.000410 -4.947058 0.998991
v 0.000410 5.068424 0.998991
v 0.095317 2.682375 0.095297
v 0.095317 2.682375 -0.095317
v -0.095297 2.682375 -0.095317
v 0.095317 -2.682355 0.095297
v -0.095297 -2.682355 0.095297
v -0.095297 -2.682355 -0.095317
v 0.000010 3.760647 0.134774
v 0.000010 3.760647 -0.134794
v 0.000010 -2.682355 0.134774
v 0.000010 -2.682355 -0.134794
v 0.134794 -2.682355 -0.000010
v 0.134794 3.760647 -0.000010
v 0.000010 2.682375 0.134774
v 0.000010 2.682375 -0.134794
v 0.000010 -3.760627 0.134774
v 0.000010 -3.760627 -0.134794
v -0.134774 -2.682355 -0.000010
v 0.134794 -3.760627 -0.000010
v -0.134774 -3.760627 -0.000010
v -0.134774 3.760647 -0.000010
v 0.134794 2.682375 -0.000010
v -0.134774 2.682375 -0.000010
v 0.000410 -2.443187 0.998991
v -2.727391 4.974424 1.102790
v -2.758929 5.068424 0.998990
v -1.410392 4.974424 1.102790
v -0.093590 2.517554 1.102790
v 0.000410 0.060683 0.998991
v -1.379259 5.068424 0.998991
v -1.379052 -4.947058 0.998991
v 0.000410 2.564553 0.998991
v -1.379156 -4.947058 0.499490
v -2.758825 -4.947059 0.499490
v -2.758825 5.068424 0.499490
v -1.379156 5.068424 0.499490
v 0.000410 0.060683 0.499491
v -4.138391 0.060682 0.499490
v 0.000410 2.564553 0.499491
v 0.000410 -2.443187 0.499491
v -4.138391 -2.443188 0.499490
v -4.138391 2.564553 0.499490
v 0.000410 -4.947058 0.499491
v -4.138391 -4.947059 0.499490
v 0.000410 5.068424 0.499491
v -4.138391 5.068424 0.499490
v -2.758721 0.060683 -0.000010
v -1.379052 0.060683 -0.000010
v -1.410589 0.060683 1.102790
v -2.727589 0.060683 1.102790
v -2.758721 -2.443188 -0.000010
v -1.379052 -2.443188 -0.000010
v -2.758721 2.564553 -0.000010
v -1.379052 2.564554 -0.000010
v -1.410589 -2.396187 1.102790
v -2.727589 -2.396188 1.102790
v -1.410589 2.517554 1.102790
v -2.727589 2.517554 1.102790
v -2.758722 -4.947059 0.998990
v -1.379259 -4.947058 -0.000010
v -2.758928 -4.947059 -0.000010
v -2.758721 5.068424 -0.000010
v -1.379052 5.068424 -0.000010
v -1.410589 -4.853058 1.102790
v -2.727589 -4.853058 1.102790
v 0.000410 -2.443187 -0.000009
v 0.000410 2.564554 -0.000009
v 0.000410 0.060683 -0.000009
v -4.138391 -2.443188 0.998990
v -4.138391 2.564553 0.998990
v -4.138391 0.060682 0.998990
v -4.138390 2.564553 -0.000010
v -4.138390 -2.443188 -0.000010
v -4.138390 0.060682 -0.000010
v -4.044391 2.517553 1.102789
v -4.044391 -2.396188 1.102789
v -4.044391 0.060683 1.102789
vt 0.666534 -0.500000
vt 0.999500 -0.500000
vt 0.999500 -0.749750
vt 0.341031 -0.500000
vt 0.023189 -0.500000
vt 0.023189 -0.745062
vt 0.333517 -0.250250
vt 0.333517 -0.000500
vt 0.666534 -0.000500
vt 0.341079 -0.009876
vt 0.341031 -0.254938
vt 0.658921 -0.254938
vt 0.341031 -0.745062
vt 0.658921 -0.745062
vt 0.976811 -0.254938
vt 0.976811 -0.500000
vt 0.976811 -0.745062
vt 0.658921 -0.500000
vt 0.347145 -0.546932
vt 0.386790 -0.546932
vt 0.386790 -0.441820
vt 0.666533 -0.999500
vt 0.333516 -0.999500
vt 0.307501 -0.231596
vt 0.307501 -0.336708
vt 0.347145 -0.336708
vt 0.666484 -0.657016
vt 0.999500 -0.657016
vt 0.999501 -0.560764
vt 0.666509 -0.560764
vt 0.242450 -0.166151
vt 0.242450 -0.333075
vt 0.275750 -0.333075
vt 0.000500 -0.999500
vt 0.275750 -0.666925
vt 0.275750 -0.500000
vt 0.242450 -0.500000
vt 0.000500 -0.500000
vt 0.000500 -0.749750
vt 0.341031 -0.990124
vt 0.658969 -0.009876
vt 0.658921 -0.990124
vt 0.976811 -0.990124
vt 0.976811 -0.009876
vt 0.999500 -0.000500
vt 0.999500 -0.250250
vt 0.999500 -0.999500
vt 0.307501 -0.546932
vt 0.307501 -0.652044
vt 0.347145 -0.652044
vt 0.023189 -0.009876
vt 0.000500 -0.000500
vt 0.000500 -0.657016
vt 0.333467 -0.657016
vt 0.333492 -0.560764
vt 0.347145 -0.441820
vt 0.000500 -0.560764
vt 0.666534 -0.464512
vt 0.333517 -0.464512
vt 0.307501 -0.441820
vt 0.209150 -0.500000
vt 0.209150 -0.666925
vt 0.242450 -0.666925
vt 0.386790 -0.336708
vt 0.347146 -0.231596
vt 0.242450 -0.833849
vt 0.275750 -0.833849
vt 0.209150 -0.833849
vt 0.386790 -0.231596
vt 0.209150 -0.333075
vt 0.000500 -0.464512
vt 0.333517 -0.500000
vt 0.666533 -0.749750
vt 0.333517 -0.749750
vt 0.666534 -0.250250
vt 0.023189 -0.990124
vt 0.000500 -0.250250
vt 0.999501 -0.464512
vt 0.386790 -0.652044
vt 0.275750 -0.166151
vt 0.023189 -0.254938
vt 0.209150 -0.166151
vt 0.578838 0.001715
vt 0.578838 -0.719006
vt 0.589967 -0.719006
vt 0.548394 0.001715
vt 0.548394 -0.719006
vt 0.478473 -0.719006
vt 0.451606 -0.719006
vt 0.451605 0.001715
vt 0.410033 0.001715
vt 0.410033 -0.719006
vt 0.421162 0.001715
vt 0.589967 0.001715
vt 0.421162 -0.719006
vt 0.500000 -0.809096
vt 0.500000 0.091805
vt 0.478473 0.001715
vt 0.521527 0.001715
vt 0.521527 -0.719006
vn 0.000000 0.000000 -1.000000
vn -0.000000 0.000000 1.000000
vn 0.741200 0.000000 0.671300
vn 1.000000 0.000000 0.000000
vn 0.000000 -1.000000 -0.000000
vn -0.000000 1.000000 0.000000
vn -1.000000 0.000000 0.000000
vn -0.741200 0.000000 0.671300
vn 0.000000 -0.741200 0.671300
vn -0.000000 0.741200 0.671300
vn -0.000000 0.741200 0.671200
vn 0.000000 -0.741200 0.671200
vn 0.382700 0.000000 -0.923900
vn 0.923900 0.000000 0.382700
vn -0.923900 0.000000 0.382700
vn -0.382700 0.000000 0.923900
vn -0.678600 0.678600 0.281100
vn -0.281100 0.678600 0.678600
vn 0.281100 0.678600 -0.678600
vn 0.678600 0.678600 0.281100
vn -0.678600 -0.678600 0.281100
vn 0.281100 -0.678600 -0.678600
vn 0.678600 -0.678600 0.281100
vn -0.281100 -0.678600 0.678600
vn 0.382700 0.000000 0.923900
vn 0.281100 0.678600 0.678600
vn -0.382700 0.000000 -0.923900
vn -0.281100 0.678600 -0.678600
vn 0.923900 0.000000 -0.382700
vn 0.678600 0.678600 -0.281100
vn 0.281100 -0.678600 0.678600
vn -0.281100 -0.678600 -0.678600
vn -0.923900 0.000000 -0.382700
vn -0.678600 0.678600 -0.281100
vn 0.678600 -0.678600 -0.281100
vn -0.678600 -0.678600 -0.281100
usemtl NW_DRAGONISLAND_BIGDOOR_02
s off
f 79/1/1 99/2/1 97/3/1
f 81/4/2 108/5/2 107/6/2
f 84/7/1 93/8/1 94/9/1
f 56/10/2 89/11/2 88/12/2
f 81/4/2 87/13/2 86/14/2
f 59/15/3 10/16/3 60/2/3
f 60/2/3 10/16/3 9/17/3
f 80/18/2 86/14/2 9/17/2
f 71/19/4 97/20/4 99/21/4
f 62/22/5 90/23/5 65/23/5
f 32/24/4 63/25/4 70/26/4
f 61/27/6 32/28/6 76/29/6
f 76/29/6 67/30/6 61/27/6
f 77/31/7 73/32/7 101/33/7
f 75/34/5 65/23/5 90/23/5
f 100/35/7 102/36/7 69/37/7
f 102/38/8 100/39/8 107/6/8
f 96/40/9 90/23/9 62/22/9
f 107/6/8 108/5/8 102/38/8
f 57/8/10 56/10/10 58/41/10
f 62/22/9 95/42/9 96/40/9
f 55/3/3 9/17/3 11/43/3
f 12/44/10 32/45/10 61/9/10
f 63/46/3 32/45/3 12/44/3
f 11/43/3 31/47/3 55/3/3
f 55/48/4 31/49/4 74/50/4
f 89/11/2 56/10/2 13/51/2
f 13/51/10 56/10/10 57/8/10
f 57/8/10 30/52/10 13/51/10
f 30/53/6 57/54/6 66/55/6
f 61/9/10 58/41/10 12/44/10
f 10/16/2 59/15/2 88/12/2
f 59/15/2 12/44/2 58/41/2
f 12/44/3 59/15/3 63/46/3
f 9/17/3 55/3/3 60/2/3
f 74/50/4 71/19/4 55/48/4
f 58/41/11 61/9/11 57/8/11
f 57/54/6 61/27/6 67/30/6
f 62/22/9 31/47/9 11/43/9
f 31/47/5 62/22/5 64/22/5
f 60/2/3 63/46/3 59/15/3
f 68/56/4 70/26/4 63/25/4
f 64/22/5 74/47/5 31/47/5
f 65/23/5 92/23/5 91/22/5
f 91/22/5 64/22/5 65/23/5
f 65/23/5 64/22/5 62/22/5
f 66/55/6 77/57/6 30/53/6
f 67/30/6 94/58/6 93/59/6
f 93/59/6 66/55/6 67/30/6
f 67/30/6 66/55/6 57/54/6
f 63/25/4 60/60/4 68/56/4
f 60/60/4 55/48/4 71/19/4
f 69/37/7 105/61/7 104/62/7
f 69/37/7 72/63/7 100/35/7
f 98/64/4 70/26/4 68/56/4
f 70/26/4 76/65/4 32/24/4
f 99/21/4 68/56/4 71/19/4
f 71/19/4 68/56/4 60/60/4
f 104/62/7 72/63/7 69/37/7
f 72/63/7 75/66/7 29/67/7
f 105/61/7 69/37/7 73/32/7
f 73/32/7 69/37/7 102/36/7
f 97/20/4 71/19/4 74/50/4
f 7/47/5 74/47/5 64/22/5
f 92/23/5 65/23/5 75/34/5
f 5/68/7 75/66/7 72/63/7
f 94/58/6 67/30/6 76/29/6
f 8/69/4 76/65/4 70/26/4
f 103/70/7 73/32/7 77/31/7
f 6/71/6 77/57/6 66/55/6
f 104/39/1 105/38/1 78/72/1
f 79/1/1 83/73/1 82/74/1
f 82/74/1 78/72/1 79/1/1
f 94/9/1 85/75/1 84/7/1
f 88/12/2 80/18/2 10/16/2
f 9/17/2 10/16/2 80/18/2
f 86/14/2 80/18/2 81/4/2
f 80/18/2 88/12/2 89/11/2
f 92/23/1 82/74/1 83/73/1
f 78/72/1 82/74/1 104/39/1
f 97/3/1 83/73/1 79/1/1
f 83/73/1 91/22/1 92/23/1
f 78/72/1 84/7/1 85/75/1
f 84/7/1 78/72/1 105/38/1
f 99/2/1 79/1/1 85/75/1
f 85/75/1 79/1/1 78/72/1
f 95/42/2 86/14/2 87/13/2
f 11/43/2 9/17/2 86/14/2
f 107/6/2 87/13/2 81/4/2
f 87/13/2 96/40/2 95/42/2
f 58/41/2 88/12/2 59/15/2
f 88/12/2 58/41/2 56/10/2
f 108/5/2 81/4/2 89/11/2
f 89/11/2 81/4/2 80/18/2
f 14/76/12 29/34/12 90/23/12
f 90/23/5 29/34/5 75/34/5
f 7/47/1 91/22/1 83/73/1
f 64/22/5 91/22/5 7/47/5
f 75/34/5 5/34/5 92/23/5
f 82/74/1 92/23/1 5/34/1
f 93/8/1 84/7/1 103/77/1
f 66/55/6 93/59/6 6/71/6
f 76/29/6 8/78/6 94/58/6
f 85/75/1 94/9/1 8/45/1
f 11/43/9 95/42/9 62/22/9
f 86/14/2 95/42/2 11/43/2
f 90/23/9 96/40/9 14/76/9
f 14/76/2 96/40/2 87/13/2
f 74/50/4 7/79/4 97/20/4
f 83/73/1 97/3/1 7/47/1
f 70/26/4 98/64/4 8/69/4
f 8/45/1 98/46/1 85/75/1
f 85/75/1 98/46/1 99/2/1
f 68/56/4 99/21/4 98/64/4
f 100/39/8 29/34/8 14/76/8
f 29/67/7 100/35/7 72/63/7
f 13/51/8 30/52/8 101/77/8
f 101/33/7 30/80/7 77/31/7
f 106/81/8 101/77/8 102/38/8
f 102/36/7 101/33/7 73/32/7
f 77/31/7 6/82/7 103/70/7
f 103/77/1 6/52/1 93/8/1
f 72/63/7 104/62/7 5/68/7
f 5/34/1 104/39/1 82/74/1
f 73/32/7 103/70/7 105/61/7
f 105/38/1 103/77/1 84/7/1
f 101/77/8 106/81/8 13/51/8
f 13/51/2 106/81/2 89/11/2
f 87/13/2 107/6/2 14/76/2
f 14/76/8 107/6/8 100/39/8
f 89/11/2 106/81/2 108/5/2
f 102/38/8 108/5/8 106/81/8
usemtl NW_HARBOUR_CANON_01
f 48/83/13 42/84/13 17/85/13
f 50/86/14 43/87/14 36/88/14
f 52/89/15 54/90/15 19/91/15
f 23/92/16 19/91/16 45/93/16
f 17/85/13 27/94/13 48/83/13
f 49/89/15 51/90/15 26/91/15
f 19/91/15 23/92/15 52/89/15
f 46/83/13 40/84/13 25/85/13
f 45/93/16 39/95/16 23/92/16
f 23/92/17 18/96/17 52/89/17
f 53/86/14 44/87/14 24/88/14
f 39/95/18 18/96/18 23/92/18
f 40/84/19 18/96/19 25/85/19
f 44/87/20 18/96/20 24/88/20
f 51/90/21 21/97/21 26/91/21
f 37/92/16 26/91/16 47/93/16
f 27/94/22 21/97/22 48/83/22
f 36/88/14 28/98/14 50/86/14
f 28/98/23 21/97/23 50/86/23
f 26/91/24 21/97/24 47/93/24
f 24/88/14 33/98/14 53/86/14
f 19/91/24 20/97/24 45/93/24
f 25/85/13 34/94/13 46/83/13
f 33/98/23 20/97/23 53/86/23
f 54/90/21 20/97/21 19/91/21
f 34/94/22 20/97/22 46/83/22
f 43/87/20 15/96/20 36/88/20
f 47/93/16 41/95/16 37/92/16
f 26/91/15 37/92/15 49/89/15
f 41/95/18 15/96/18 37/92/18
f 37/92/17 15/96/17 49/89/17
f 42/84/19 15/96/19 17/85/19
f 33/98/25 24/88/25 39/95/25
f 24/88/26 18/96/26 39/95/26
f 35/99/27 22/100/27 40/84/27
f 22/100/28 18/96/28 40/84/28
f 28/98/25 36/88/25 41/95/25
f 36/88/26 15/96/26 41/95/26
f 16/99/27 38/100/27 42/84/27
f 38/100/28 15/96/28 42/84/28
f 27/94/29 17/85/29 43/87/29
f 17/85/30 15/96/30 43/87/30
f 34/94/29 25/85/29 44/87/29
f 25/85/30 18/96/30 44/87/30
f 45/93/31 20/97/31 33/98/31
f 39/95/25 45/93/25 33/98/25
f 46/83/32 20/97/32 35/99/32
f 40/84/27 46/83/27 35/99/27
f 47/93/31 21/97/31 28/98/31
f 41/95/25 47/93/25 28/98/25
f 48/83/32 21/97/32 16/99/32
f 42/84/27 48/83/27 16/99/27
f 51/90/33 49/89/33 38/100/33
f 49/89/34 15/96/34 38/100/34
f 50/86/35 21/97/35 27/94/35
f 43/87/29 50/86/29 27/94/29
f 16/99/36 21/97/36 51/90/36
f 38/100/33 16/99/33 51/90/33
f 54/90/33 52/89/33 22/100/33
f 52/89/34 18/96/34 22/100/34
f 53/86/35 20/97/35 34/94/35
f 44/87/29 53/86/29 34/94/29
f 35/99/36 20/97/36 54/90/36
f 22/100/33 35/99/33 54/90/33
usemtl NW_MISC_FULLALPHA_01
f 4/28/2 2/28/2 3/53/2
f 3/53/1 2/28/1 4/28/1
f 3/53/2 1/53/2 4/28/2
f 4/28/1 1/53/1 3/53/1
