# Blender v2.75 (sub 0) OBJ File: 'Empty.blend'
# www.blender.org
mtllib NW_DRAGONISLE_TORTURE_03.mtl
o NW_DRAGONISLE_TORTURE_03
v 1.459773 0.450010 0.599990
v -1.460227 0.450010 0.599990
v 1.459773 0.350010 -0.600010
v -1.460227 0.350010 -0.600010
v 0.605399 0.350010 -0.261744
v 0.605399 0.150010 -0.261744
v 0.605399 0.350010 0.282474
v -0.604964 0.350010 -0.261744
v -0.604964 0.150010 -0.261744
v -0.604964 0.350010 0.282474
v -0.604964 0.150010 0.282474
v 0.605399 0.150010 0.282474
v -0.586052 0.350010 -0.346778
v -0.699523 -0.449990 -0.346778
v -0.699523 0.350010 -0.244737
v -0.586052 0.350010 0.367508
v -0.699523 -0.449990 0.367508
v -0.699523 0.350010 0.265467
v 0.586487 0.350010 -0.346778
v 0.699958 -0.449990 -0.346778
v 0.699958 0.350010 -0.244737
v 0.586487 0.350010 0.367508
v 0.699958 -0.449990 0.367508
v 0.699958 0.350010 0.265467
v -0.586052 -0.449990 0.367508
v -0.586052 -0.449990 -0.346778
v 0.586487 -0.449990 0.367508
v 0.586487 -0.449990 -0.346778
v -0.699523 0.350010 -0.346778
v -0.586052 0.350010 -0.244737
v -0.699523 -0.449990 -0.244737
v -0.586052 -0.449990 -0.244737
v 0.699958 0.350010 -0.346778
v 0.586487 0.350010 -0.244737
v 0.699958 -0.449990 -0.244737
v 0.586487 -0.449990 -0.244737
v -0.699523 0.350010 0.367508
v -0.586052 0.350010 0.265467
v -0.699523 -0.449990 0.265467
v -0.586052 -0.449990 0.265467
v 0.699958 0.350010 0.367508
v 0.586487 0.350010 0.265467
v 0.699958 -0.449990 0.265467
v 0.586487 -0.449990 0.265467
v 1.459773 0.450010 -0.600010
v -1.460227 0.450010 -0.600010
v 1.459773 0.350010 0.599990
v -1.460227 0.350010 0.599990
v 0.605399 0.150010 0.350501
v -0.604964 0.150010 0.350501
v 0.605399 0.350010 0.350501
v -0.604964 0.350010 0.350501
v 0.605399 0.150010 -0.329771
v -0.604964 0.150010 -0.329771
v 0.605399 0.350010 -0.329771
v -0.604964 0.350010 -0.329771
v 0.681046 0.150010 -0.261744
v 0.681046 0.150010 0.282474
v 0.681046 0.350010 -0.261744
v 0.681046 0.350010 0.282474
v -0.680612 0.150010 -0.261744
v -0.680612 0.150010 0.282474
v -0.680612 0.350010 -0.261744
v -0.680612 0.350010 0.282474
vt -0.000288 -0.059289
vt -0.000288 -0.808644
vt 0.830754 -0.808644
vt 0.830754 -0.059289
vt 0.665505 -0.808644
vt 0.665505 -0.938702
vt 0.999835 -0.938702
vt -0.000288 -0.938702
vt 0.999835 -0.808644
vt 0.830754 -0.219052
vt 0.893663 -0.717911
vt 0.893663 -0.219052
vt 0.830754 -0.717911
vt 0.893663 -0.808644
vt -0.000541 -0.059273
vt 0.745064 -0.059273
vt 0.745064 0.002218
vt 0.830754 0.002218
vt -0.000288 0.002218
vt -0.000541 0.002218
vt -0.000288 -0.998258
vt 0.665505 -0.998258
vt 0.999835 -0.998258
vn 0.000000 -1.000000 0.000000
vn 0.000000 1.000000 0.000000
vn -1.000000 0.000000 0.000000
vn 0.000000 0.000000 1.000000
vn 1.000000 0.000000 0.000000
vn -0.000000 0.000000 -1.000000
usemtl OBJ_CITY_TABLENORMAL_01
s off
f 3/1/1 47/2/1 48/3/1
f 2/2/2 1/3/2 45/4/2
f 48/3/1 4/4/1 3/1/1
f 45/4/2 46/1/2 2/2/2
f 5/5/3 6/6/3 12/7/3
f 6/6/4 5/5/4 8/2/4
f 8/2/4 9/8/4 6/6/4
f 9/7/5 8/9/5 10/5/5
f 10/5/5 11/6/5 9/7/5
f 11/6/6 10/5/6 7/2/6
f 12/7/3 7/9/3 5/5/3
f 7/2/6 12/8/6 11/6/6
f 15/10/4 32/11/4 30/12/4
f 13/10/6 14/11/6 29/12/6
f 18/12/6 38/10/6 40/13/6
f 16/12/4 37/10/4 17/13/4
f 21/12/4 34/10/4 36/13/4
f 19/12/6 33/10/6 20/13/6
f 24/10/6 44/11/6 42/12/6
f 22/10/4 23/11/4 41/12/4
f 17/13/4 25/11/4 16/12/4
f 40/13/6 39/11/6 18/12/6
f 14/11/6 13/10/6 26/13/6
f 32/11/4 15/10/4 31/13/4
f 23/11/4 22/10/4 27/13/4
f 44/11/6 24/10/6 43/13/6
f 20/13/6 28/11/6 19/12/6
f 36/13/4 35/11/4 21/12/4
f 29/10/3 31/11/3 15/12/3
f 30/10/5 26/11/5 13/12/5
f 14/11/1 32/3/1 31/14/1
f 31/11/3 29/10/3 14/13/3
f 32/3/1 14/11/1 26/13/1
f 26/11/5 30/10/5 32/13/5
f 33/12/5 21/10/5 35/13/5
f 34/12/3 19/10/3 28/13/3
f 20/13/1 35/3/1 36/14/1
f 35/13/5 20/11/5 33/12/5
f 36/14/1 28/11/1 20/13/1
f 28/13/3 36/11/3 34/12/3
f 37/12/3 18/10/3 39/13/3
f 38/12/5 16/10/5 25/13/5
f 17/14/1 39/11/1 40/13/1
f 39/13/3 17/11/3 37/12/3
f 40/13/1 25/3/1 17/14/1
f 25/13/5 40/11/5 38/12/5
f 41/10/5 43/11/5 24/12/5
f 42/10/3 27/11/3 22/12/3
f 23/3/1 44/11/1 43/13/1
f 43/11/5 41/10/5 23/13/5
f 44/11/1 23/3/1 27/14/1
f 27/11/3 42/10/3 44/13/3
f 47/15/5 3/16/5 45/17/5
f 46/18/6 45/19/6 3/1/6
f 3/1/6 4/4/6 46/18/6
f 2/15/3 46/16/3 4/17/3
f 48/1/4 47/4/4 1/18/4
f 45/17/5 1/20/5 47/15/5
f 1/18/4 2/19/4 48/1/4
f 4/17/3 48/20/3 2/15/3
f 12/8/1 49/21/1 50/22/1
f 50/22/1 11/6/1 12/8/1
f 49/6/4 51/5/4 52/2/4
f 52/2/4 50/8/4 49/6/4
f 53/8/1 6/21/1 9/22/1
f 9/22/1 54/6/1 53/8/1
f 55/2/6 53/8/6 54/6/6
f 54/6/6 56/5/6 55/2/6
f 6/23/1 57/7/1 58/6/1
f 58/6/1 12/22/1 6/23/1
f 57/7/5 59/9/5 60/5/5
f 60/5/5 58/6/5 57/7/5
f 61/23/1 9/7/1 11/6/1
f 11/6/1 62/22/1 61/23/1
f 63/5/3 61/6/3 62/7/3
f 62/7/3 64/9/3 63/5/3
