# Blender v2.75 (sub 0) OBJ File: 'Empty.blend'
# www.blender.org
mtllib NW_DRAGONISLE_BIGDOOR_HEAD_RIGHT_01.mtl
o NW_DRAGONISLE_BIGDOOR_HEAD_RIGHT_01
v 0.000363 -1.332539 0.924876
v 0.000162 1.293246 0.671029
v 0.583046 -0.914801 0.985404
v 0.000010 -0.661428 1.099121
v 0.000162 0.726551 0.751186
v 0.000162 0.642953 1.225951
v 0.780897 -1.386207 0.590191
v 0.009569 -1.256447 0.602201
v 0.000162 -0.226925 0.968178
v 0.000162 0.784901 0.480951
v 0.000363 -1.657852 0.443582
v 0.339530 -1.188009 0.602592
v 0.000363 -0.753377 0.971733
v 0.305077 0.711190 0.633959
v 0.383905 0.628353 0.713569
v 0.504140 -1.049533 0.618451
v 0.859140 0.382547 0.462748
v 0.364413 0.583431 1.178920
v 0.000363 -1.365967 0.954897
v 0.000162 -1.482882 0.582631
v 0.000162 0.567962 0.758295
v 0.000162 -0.688272 1.031945
v 0.528749 0.414706 0.614936
v 0.056210 -0.987160 0.970756
v 0.000363 -0.924670 0.981967
v 0.112108 -1.022106 0.959076
v 0.178476 -1.314857 0.924897
v 0.663046 -0.213595 1.064467
v 0.369921 -0.071428 0.893373
v 0.257655 0.463983 0.888412
v 0.495077 1.295101 0.305678
v 0.109101 -0.238485 0.912709
v 0.525546 -0.767667 0.574623
v 0.440468 -0.178986 0.801850
v 0.207421 -0.200069 0.826032
v 0.215272 -0.152897 0.891147
v 0.327968 -0.156413 0.766893
v 0.441015 0.382704 0.800483
v 0.586171 -0.265211 0.633959
v 0.468983 1.160707 0.659623
v 1.029843 -0.471232 0.396850
v 0.438437 -0.496456 0.850014
v 0.000363 -1.596778 0.715923
v 0.000010 0.463178 0.888251
v 0.158905 -0.709313 0.937865
v 0.057513 -0.592374 0.749272
v 0.341601 -0.349713 0.856537
v 0.000363 -1.255896 0.969975
v 0.000363 -1.103313 0.943900
v 0.101093 -1.256295 0.969975
v 0.394921 0.040467 0.908256
v 0.000162 -0.269099 0.948139
v 0.387655 -0.880797 0.838686
v 0.202812 0.036424 0.960014
v 0.094921 -1.103585 0.944584
v 0.249804 -1.213595 0.884233
v 0.063836 -0.661645 1.063511
v 0.185233 -0.350470 0.887162
v 0.335780 -0.148248 0.859506
v 0.586015 -0.043014 0.551303
v 0.131249 -0.183049 0.959584
v 0.056210 -0.924640 0.981967
v 0.175155 -0.975607 0.925326
v 0.000162 0.252132 0.936420
v 0.295390 -0.574684 0.903490
v 0.448319 -0.178986 0.801850
v 0.264062 -0.960329 0.902748
v 0.195351 -1.022487 0.922787
v 0.453515 -0.075783 0.802748
v 0.000010 0.036424 0.960014
v 0.000363 -1.021680 0.959119
v 0.107239 -0.986745 0.954350
v 0.157577 -0.434547 0.908998
v 0.000363 -0.987154 0.970780
v 0.268515 -0.923327 0.883842
v 0.411483 -0.667555 0.849818
v 0.006434 -0.575963 0.561783
v 0.003298 0.104520 0.521364
v 1.013358 -1.157433 0.228608
v 0.000162 1.358553 0.247514
vt 0.552800 -0.860064
vt 0.573771 -0.943061
vt 0.573435 -0.830748
vt 0.667265 -0.404406
vt 0.680721 -0.631236
vt 0.809524 -0.528947
vt 0.717163 -0.008164
vt 0.743879 -0.197063
vt 0.902119 -0.224935
vt 0.813182 -0.779807
vt 0.694178 -0.858066
vt 0.808110 -0.807018
vt 0.666842 -0.930757
vt 0.619290 -0.786100
vt 0.837456 -0.668672
vt 0.544789 -0.613699
vt 0.545035 -0.740536
vt 0.580729 -0.667898
vt 0.653810 -0.177609
vt 0.813482 -0.427107
vt 0.816203 -0.514890
vt 0.501433 -0.348749
vt 0.502916 -0.449856
vt 0.549626 -0.348749
vt 0.687699 -0.933536
vt 0.801769 -0.883426
vt 0.548214 -0.999500
vt 0.649782 -0.963271
vt 0.817386 -0.690373
vt 0.511501 -0.657855
vt 0.530970 -0.516637
vt 0.982625 -0.004316
vt 0.502915 -0.028020
vt 0.666751 -0.074079
vt 0.811775 -0.894569
vt 0.732125 -0.971503
vt 0.746249 -0.249926
vt 0.502916 -0.716651
vt 0.502916 -0.525358
vt 0.502170 -0.657752
vt 0.574871 -0.151855
vt 0.643693 -0.190190
vt 0.578635 -0.813298
vt 0.620521 -0.687908
vt 0.500201 -0.859684
vt 0.524781 -0.898312
vt 0.528132 -0.859885
vt 0.502914 -0.744159
vt 0.500332 -0.813930
vt 0.513589 -0.813915
vt 0.820798 -0.747471
vt 0.517870 -0.835476
vt 0.547308 -0.837954
vt 0.500403 -0.986159
vt 0.499972 -0.999159
vt 0.600856 -0.346842
vt 0.625635 -0.642897
vt 0.749995 -0.732745
vt 0.777394 -0.452808
vt 0.502916 -0.251772
vt 0.532759 -0.444542
vt 0.560612 -0.496608
vt 0.599538 -0.447662
vt 0.643061 -0.505063
vt 0.598631 -0.494415
vt 0.645050 -0.432598
vt 0.563257 -0.492759
vt 0.601301 -0.490566
vt 0.603522 -0.573688
vt 0.745674 -0.175098
vt 0.641353 -0.991857
vt 0.501511 -0.152235
vt 0.789564 -0.284855
vt 0.816800 -0.857879
vt 0.524758 -0.963200
vt 0.500213 -0.898185
vt 0.500443 -0.963011
vt 0.555734 -0.574045
vt 0.644472 -0.505063
vt 0.523900 -0.843208
vt 0.538585 -0.839432
vt 0.805618 -0.355204
vt 0.817069 -0.768299
vt 0.499748 -0.835326
vt 0.053458 -0.345373
vt 0.021045 -0.477174
vt 0.196363 -0.469561
vt 0.635600 -0.185360
vt 0.345069 -0.226985
vt 0.675052 -0.341463
vt 0.323407 -0.133323
vt 0.242974 -0.351999
vt 0.327385 -0.329206
vt 0.261560 -0.389503
vt 0.403761 -0.551660
vt 0.340872 -0.345373
vt 0.220268 -0.354281
vt 0.405524 -0.477174
vt 0.779732 -0.071684
vt 0.659128 -0.053458
vt 0.665359 -0.242974
vt 0.151745 -0.641277
vt 0.164171 -0.572989
vt 0.014724 -0.592862
vt 0.221607 -0.525431
vt 0.554808 -0.046687
vt 0.550547 -0.014337
vt 0.254535 -0.047062
vt 0.786296 -0.262129
vt 0.301255 -0.467681
vt 0.000131 -0.656781
vt 0.379303 -0.592862
vt 0.765592 -0.070151
vt 0.346493 -0.556774
vt 0.230006 -0.656781
vt 0.684985 -0.537474
vt 0.786153 -0.048759
vn 0.351400 -0.087900 0.932100
vn -0.999900 -0.005300 -0.012000
vn -1.000000 0.000000 0.000000
vn -0.999600 0.005500 -0.029400
vn 0.904700 -0.339500 0.257400
vn -0.999900 -0.002800 -0.014000
vn 0.145200 0.104100 0.983900
vn -1.000000 -0.000800 -0.007600
vn 0.000000 0.031000 0.999500
vn -0.998900 0.043100 -0.018300
vn 0.195700 -0.941900 -0.272900
vn -0.999900 0.007600 -0.011500
vn 0.812800 0.116500 0.570800
vn 0.129300 0.969300 0.209300
vn -1.000000 -0.000800 0.000800
vn 0.147700 -0.882500 0.446500
vn -1.000000 -0.000400 -0.002100
vn 0.546600 0.547400 0.633700
vn 0.337900 -0.064000 0.939000
vn -0.000300 -0.175100 0.984600
vn -0.000000 0.059600 0.998200
vn -0.999900 -0.000900 -0.015200
vn -0.000900 -0.318200 0.948000
vn 0.237800 0.049900 0.970000
vn 0.096300 -0.969400 -0.225900
vn 0.293400 -0.108000 0.949900
vn 0.494300 0.199800 0.846000
vn 0.930800 -0.066100 0.359500
vn 0.299500 0.655800 0.693000
vn 0.053600 0.158200 0.985900
vn 0.215100 0.307300 0.927000
vn 0.476000 -0.796500 0.373000
vn 0.879300 -0.369100 0.301000
vn -0.332400 -0.728100 0.599500
vn 0.883400 0.020400 0.468200
vn 0.426200 0.542600 0.723900
vn 0.453300 0.095300 0.886300
vn -0.060100 0.994800 -0.082600
vn -0.621600 0.668100 -0.409000
vn 0.473500 -0.795800 0.377600
vn -0.197500 0.400900 0.894600
vn -0.495100 0.730900 -0.469800
vn 0.731600 0.523900 0.436300
vn 0.884000 0.027900 0.466700
vn 0.844000 0.075200 0.531100
vn 0.279600 0.142300 0.949500
vn -1.000000 -0.001400 0.000300
vn -0.002000 0.461600 0.887100
vn -1.000000 0.000700 0.000100
vn 0.326600 -0.641200 0.694400
vn 0.176600 0.116000 0.977400
vn 0.272300 0.420600 0.865400
vn 0.226800 0.106600 0.968100
vn -0.999600 0.014700 -0.025000
vn 0.055700 -0.561800 0.825400
vn -0.007600 -0.183300 0.983000
vn -0.999700 -0.004300 -0.025000
vn -0.002000 -0.507100 0.861900
vn 0.000700 0.168400 0.985700
vn 0.706500 -0.246100 0.663500
vn 0.310400 -0.103000 0.945000
vn 0.382800 -0.396500 0.834400
vn -1.000000 0.002500 -0.005200
vn 0.343300 -0.109900 0.932800
vn 0.895200 -0.141500 0.422500
vn 0.259300 -0.184000 0.948100
vn 0.255500 0.127700 0.958300
vn 0.457000 0.163800 0.874200
vn -0.006700 0.163700 0.986500
vn 0.836900 -0.500700 0.221100
vn 0.500600 -0.004900 0.865700
vn 0.462700 0.318200 0.827400
vn 0.200000 -0.909700 0.364000
vn 0.178600 0.347800 0.920400
vn 0.592700 0.226700 0.772800
vn 0.212300 0.971700 -0.103600
vn 0.899300 0.052100 0.434200
vn 0.320500 -0.899300 0.297400
vn 0.074100 -0.026100 0.996900
vn 0.424000 -0.016800 0.905500
vn 0.000100 -0.176500 0.984300
vn 0.402300 -0.075200 0.912400
vn 0.363000 0.172400 0.915700
vn -0.001300 0.222500 0.974900
vn -1.000000 -0.002300 -0.006800
vn 0.378500 -0.060700 0.923600
vn 0.243800 0.202500 0.948400
vn 0.000000 0.840100 0.542500
vn 0.503900 -0.091200 0.858900
vn 0.181700 0.430000 0.884400
vn 0.387000 -0.240000 0.890300
vn 0.397100 0.121800 0.909700
vn 0.729100 -0.098100 0.677300
vn 0.884900 -0.115800 0.451200
vn 0.000000 0.108700 0.994100
vn -1.000000 -0.000100 -0.007500
vn -0.999900 0.002300 -0.012600
vn 0.000400 -0.176200 0.984300
vn 0.300600 0.166900 0.939000
vn 0.303000 -0.168200 0.938000
vn 0.433600 0.090200 0.896600
vn 0.187900 0.188500 0.963900
vn 0.000400 -0.320000 0.947400
vn -0.999900 0.003700 -0.011100
vn 0.150600 0.435400 0.887600
vn 0.414200 -0.017600 0.910000
vn 0.381100 -0.090600 0.920100
vn 0.900300 -0.122400 0.417700
vn -0.999700 -0.005900 -0.021900
vn -1.000000 -0.004900 -0.004200
vn -0.952100 -0.233100 0.198000
vn 0.889700 0.144500 0.433100
vn 0.829100 0.238000 0.506000
vn -0.937300 -0.340800 -0.072200
vn 0.353400 -0.509500 0.784600
vn 0.124900 -0.060000 0.990400
vn 0.144700 -0.985500 -0.089100
vn -0.599200 0.784600 -0.159200
vn 0.211400 0.002800 0.977400
vn 0.823600 0.289500 0.487700
vn 0.200200 0.636000 0.745300
vn -0.139500 -0.977700 0.156800
vn 0.292600 -0.687800 0.664300
vn -0.624300 0.745400 -0.233800
vn 0.839500 -0.154500 0.520900
vn -0.982000 0.093500 0.164100
vn 0.197800 0.635500 0.746300
vn 0.238900 -0.044200 0.970000
vn -0.979700 0.099000 0.174300
vn 0.262000 0.895700 0.359400
vn 0.893700 0.393600 0.215300
vn 0.829900 -0.110200 0.546900
vn 0.286000 -0.935000 0.209700
vn 0.093000 -0.188900 0.977600
vn 0.870400 -0.136900 0.473000
vn 0.108200 0.982500 0.151500
usemtl MAINNPCHEAD
s off
f 68/1/1 56/2/1 67/3/1
f 78/4/2 77/5/2 52/6/2
f 2/7/3 5/8/3 6/9/3
f 71/10/4 8/11/4 49/12/4
f 56/2/5 12/13/5 53/14/5
f 52/6/6 77/5/6 22/15/6
f 73/16/7 45/17/7 65/18/7
f 2/7/3 10/19/3 5/8/3
f 70/20/8 78/4/8 9/21/8
f 70/22/9 9/23/9 54/24/9
f 8/11/10 20/25/10 1/26/10
f 12/13/11 27/27/11 8/28/11
f 22/15/12 77/5/12 13/29/12
f 57/30/13 45/17/13 32/31/13
f 10/32/14 5/33/14 14/34/14
f 19/35/15 20/25/15 43/36/15
f 5/8/3 21/37/3 6/9/3
f 45/17/16 57/30/16 22/38/16
f 52/39/17 22/38/17 4/40/17
f 30/41/18 38/42/18 14/34/18
f 45/17/19 75/43/19 76/44/19
f 71/45/20 55/46/20 26/47/20
f 13/48/21 25/49/21 62/50/21
f 13/29/22 77/5/22 25/51/22
f 26/47/23 24/52/23 71/45/23
f 63/53/24 68/1/24 67/3/24
f 8/54/25 27/27/25 1/55/25
f 56/2/26 68/1/26 55/46/26
f 30/41/27 51/56/27 38/42/27
f 42/57/28 33/58/28 60/59/28
f 5/33/29 30/41/29 14/34/29
f 64/60/30 54/24/30 30/41/30
f 57/30/31 32/31/31 52/39/31
f 61/61/32 35/62/32 29/63/32
f 33/58/33 53/14/33 12/13/33
f 34/64/34 29/63/34 37/65/34
f 60/59/35 51/56/35 69/66/35
f 32/31/36 35/62/36 9/23/36
f 73/16/37 32/31/37 45/17/37
f 36/67/38 59/68/38 37/65/38
f 35/62/39 32/31/39 36/67/39
f 37/65/40 29/63/40 35/62/40
f 34/64/41 37/65/41 47/69/41
f 37/65/42 35/62/42 36/67/42
f 38/42/43 23/70/43 14/34/43
f 38/42/44 51/56/44 60/59/44
f 60/59/45 34/64/45 42/57/45
f 47/69/46 42/57/46 34/64/46
f 20/25/47 11/71/47 43/36/47
f 44/72/48 30/41/48 5/33/48
f 10/19/49 44/73/49 5/8/49
f 22/38/50 13/48/50 45/17/50
f 13/48/51 62/50/51 45/17/51
f 37/65/52 35/62/52 47/69/52
f 47/69/53 73/16/53 42/57/53
f 48/74/54 8/11/54 1/26/54
f 27/27/55 50/75/55 1/55/55
f 71/45/56 49/76/56 55/46/56
f 49/12/57 8/11/57 48/74/57
f 50/75/58 48/77/58 1/55/58
f 50/75/59 49/76/59 48/77/59
f 51/56/60 29/63/60 69/66/60
f 61/61/61 29/63/61 54/24/61
f 9/23/62 52/39/62 32/31/62
f 78/4/63 52/6/63 9/21/63
f 65/18/64 45/17/64 76/44/64
f 33/58/65 42/57/65 76/44/65
f 54/24/66 29/63/66 51/56/66
f 51/56/67 30/41/67 54/24/67
f 50/75/68 56/2/68 55/46/68
f 55/46/69 49/76/69 50/75/69
f 12/13/70 56/2/70 27/27/70
f 27/27/71 56/2/71 50/75/71
f 57/30/72 52/39/72 4/40/72
f 22/38/73 57/30/73 4/40/73
f 35/62/74 58/78/74 47/69/74
f 35/62/75 32/31/75 58/78/75
f 59/68/76 66/79/76 37/65/76
f 38/42/77 60/59/77 23/70/77
f 9/23/78 35/62/78 61/61/78
f 9/23/79 61/61/79 54/24/79
f 63/53/80 45/17/80 62/50/80
f 62/50/81 25/49/81 24/52/81
f 62/50/82 72/80/82 63/53/82
f 63/53/83 72/81/83 26/47/83
f 44/72/84 64/60/84 30/41/84
f 44/73/85 78/4/85 64/82/85
f 65/18/86 76/44/86 42/57/86
f 73/16/87 65/18/87 42/57/87
f 37/65/88 34/64/88 66/79/88
f 67/3/89 56/2/89 53/14/89
f 75/43/90 67/3/90 53/14/90
f 68/1/91 26/47/91 55/46/91
f 68/1/92 63/53/92 26/47/92
f 29/63/93 34/64/93 69/66/93
f 69/66/94 34/64/94 60/59/94
f 64/60/95 70/22/95 54/24/95
f 64/82/96 78/4/96 70/20/96
f 77/5/97 74/83/97 25/51/97
f 25/49/98 74/84/98 24/52/98
f 24/52/99 26/47/99 72/81/99
f 62/50/100 24/52/100 72/80/100
f 58/78/101 32/31/101 73/16/101
f 47/69/102 58/78/102 73/16/102
f 24/52/103 74/84/103 71/45/103
f 77/5/104 71/10/104 74/83/104
f 63/53/105 67/3/105 75/43/105
f 75/43/106 45/17/106 63/53/106
f 53/14/107 76/44/107 75/43/107
f 33/58/108 76/44/108 53/14/108
f 77/5/109 8/11/109 71/10/109
f 10/19/110 78/4/110 44/73/110
usemtl NW_DRAGONISLAND_STATUE_01
f 15/85/111 39/86/111 28/87/111
f 17/88/112 28/89/112 41/90/112
f 18/91/113 28/89/113 17/88/113
f 28/87/114 18/92/114 15/85/114
f 3/93/115 19/94/115 7/95/115
f 15/96/116 21/97/116 39/98/116
f 21/99/117 15/100/117 18/101/117
f 19/102/118 3/103/118 16/104/118
f 46/105/119 39/98/119 21/97/119
f 17/88/120 40/106/120 18/91/120
f 2/107/121 6/108/121 18/91/121
f 18/101/122 6/109/122 21/99/122
f 43/110/123 7/95/123 19/94/123
f 16/104/124 20/111/124 19/102/124
f 3/93/125 41/90/125 28/89/125
f 3/103/126 28/87/126 39/86/126
f 40/106/127 2/107/127 18/91/127
f 39/98/128 46/105/128 16/112/128
f 39/86/129 16/104/129 3/103/129
f 31/113/130 2/107/130 40/106/130
f 31/113/131 40/106/131 17/88/131
f 41/90/132 3/93/132 7/95/132
f 11/114/133 7/95/133 43/110/133
f 20/115/134 16/112/134 46/105/134
f 7/95/135 79/116/135 41/90/135
f 2/107/136 31/113/136 80/117/136
