# Blender v2.75 (sub 0) OBJ File: 'Empty.blend'
# www.blender.org
mtllib NW_HARBOUR_ANCHOR_01.mtl
o NW_HARBOUR_ANCHOR_01
v -0.990561 -0.412115 0.252215
v 1.016311 -0.401405 0.310944
v 0.000010 -0.789252 0.995374
v 0.573326 -0.617176 0.710150
v -0.786865 -0.545772 0.567598
v -0.892106 -0.363894 0.465769
v -0.696117 -0.734167 0.605440
v -0.696117 -0.382513 0.740428
v 0.892126 -0.564221 0.388871
v 0.696137 -0.382513 0.740428
v 0.696137 -0.734167 0.605440
v -0.149426 -0.623147 0.848641
v -0.051890 0.077217 -0.975870
v 0.147773 -0.623147 0.848641
v -0.635974 -0.576648 0.887318
v -0.892106 -0.564221 0.388871
v 0.892126 -0.363894 0.465769
v 0.635994 -0.576648 0.887318
v 0.956399 -0.422538 0.319158
v -0.956379 -0.422538 0.319158
v -0.044742 0.812290 -0.495306
v 0.050429 -0.779084 -1.074519
v 0.050429 0.779104 -0.404128
v 0.050237 0.077217 -0.975870
v 0.050429 -0.812270 -0.983341
v 0.990581 -0.412115 0.252215
v -1.016291 -0.401405 0.310944
v -0.573306 -0.536897 0.740966
v 0.573326 -0.536897 0.740966
v 0.000010 -0.635613 0.658332
v 0.000010 -0.504950 0.692936
v 0.339106 -0.550796 0.787677
v 0.856078 -0.586363 0.666391
v 0.155377 0.044811 -0.844655
v -0.138448 0.051299 -0.849437
v -0.142316 -0.001532 -0.846376
v -0.856058 -0.586363 0.666391
v 0.050429 0.812290 -0.495306
v -0.044742 0.779104 -0.404128
v -0.044742 -0.779084 -1.074519
v -0.044742 -0.812270 -0.983341
v -0.339086 -0.637841 0.754264
v 0.000010 -0.594591 1.064313
v 0.031549 -0.403918 0.103898
v -0.033202 -0.287736 0.148497
v 0.786885 -0.494719 0.587196
v 0.155818 0.016463 -0.857296
v -0.065577 -0.345827 0.126198
v -0.075126 -0.685965 0.824527
v 0.063924 -0.345827 0.126198
v 0.073473 -0.560330 0.872754
v -0.026358 0.114481 -0.961566
v 0.024705 0.039954 -0.990174
v 0.666428 -0.722791 0.575807
v 0.666428 -0.371137 0.710794
v -0.666408 -0.722791 0.575807
v -0.666408 -0.371137 0.710794
v -0.091530 -0.115952 -0.883922
v 0.097217 -0.181769 -0.703093
v 0.635994 -0.683990 0.846114
v -0.635974 -0.683990 0.846114
v 0.000010 -0.708652 1.074499
v -0.339086 -0.550796 0.787677
v 0.339106 -0.637841 0.754264
v 0.990581 -0.383131 0.263341
v 0.856078 -0.530372 0.687884
v -0.990561 -0.383131 0.263341
v -0.856058 -0.530372 0.687884
v 0.073473 -0.685965 0.824527
v -0.075126 -0.560330 0.872754
v 0.646439 -0.639200 0.890242
v -0.646419 -0.639200 0.890242
v -0.573306 -0.617176 0.710150
v -0.026358 0.039953 -0.990174
v 0.024705 0.114481 -0.961566
v -0.786865 -0.494719 0.587196
v 0.786885 -0.545772 0.567598
v 1.016311 -0.430388 0.299819
v -1.016291 -0.430388 0.299819
v 0.152893 0.037324 -0.828226
v 0.153334 0.008976 -0.840867
v -0.864900 -0.563886 0.691587
v 0.864920 -0.563886 0.691587
v -0.316317 -0.712414 0.853599
v 0.316337 -0.560272 0.912002
v -0.316317 -0.560272 0.912002
v -0.859837 -0.354014 0.440031
v 0.859857 -0.354014 0.440031
v -0.859837 -0.554341 0.363132
v 0.859857 -0.554341 0.363132
v 0.316337 -0.712414 0.853599
v -0.140440 0.011657 -0.862801
v -0.140325 0.038110 -0.833013
v 0.785803 -0.688936 0.522907
v -0.785784 -0.688936 0.522907
v 0.097217 0.181789 -0.775553
v -0.330827 -0.676284 0.989987
v 0.330847 -0.676284 0.989987
v -1.024444 -0.416543 0.307066
v 1.024464 -0.416543 0.307066
v -0.091530 0.115972 -0.594724
v 0.785803 -0.360900 0.648828
v -0.785784 -0.360900 0.648828
v -0.033202 -0.403918 0.103898
v 0.031549 -0.287736 0.148497
v 0.753534 -0.351020 0.623089
v -0.753514 -0.351020 0.623089
v 0.753534 -0.679056 0.497168
v -0.753514 -0.679056 0.497168
v -0.829532 -0.506129 0.647487
v 0.829552 -0.506129 0.647487
v -0.829531 -0.577491 0.620094
v 0.829551 -0.577491 0.620094
v 0.327219 -0.595714 0.990285
v -0.327199 -0.595714 0.990285
v 0.604660 -0.541137 0.820144
v -0.604640 -0.541137 0.820144
v 0.604660 -0.666218 0.772130
v -0.604640 -0.666218 0.772130
v -0.327199 -0.736883 0.936095
v 0.327219 -0.736883 0.936095
v 0.097217 -0.115952 -0.883922
v -0.091530 0.181789 -0.775553
v 0.097217 0.115972 -0.594724
v -0.091530 -0.181769 -0.703093
v 0.000010 -0.531918 0.838136
v 0.000010 -0.684172 0.780026
v -0.073883 -0.419847 -0.975384
v 0.079570 0.419867 -0.503262
v -0.073883 0.473376 -0.650278
v 0.079570 -0.473356 -0.828369
v 0.079570 -0.419847 -0.975384
v -0.073883 0.419867 -0.503262
v 0.079570 0.473376 -0.650278
v -0.073883 -0.473356 -0.828369
vt -0.087647 -0.700109
vt -0.087647 -0.946182
vt 0.277863 -0.793517
vt 0.311184 -0.793517
vt 0.000500 -0.699738
vt 0.000500 -0.939781
vt 0.688816 -0.793517
vt 0.678239 -0.895197
vt 0.999500 -0.946182
vt 0.000500 -0.498783
vt 0.321761 -0.580973
vt 0.325287 -0.498783
vt 0.290308 -0.895197
vt 0.135246 -0.477821
vt 0.184039 -0.406259
vt -0.048900 -0.000500
vt 0.417617 -0.650793
vt 0.417617 -0.349206
vt 0.216326 -0.592088
vt 0.615061 -0.650793
vt 0.816352 -0.592088
vt 0.615061 -0.349206
vt 0.224289 -0.662026
vt 0.775711 -0.662026
vt 0.668373 -0.401479
vt 0.331627 -0.401479
vt -0.093584 -1.482882
vt 0.093584 -0.479882
vt -0.093584 -0.479882
vt 0.406416 -1.482882
vt 0.593584 -0.479882
vt 0.406416 -0.479882
vt 0.709692 -0.562121
vt 1.087647 -0.496986
vt 0.705544 -0.496986
vt 0.321761 -0.417202
vt 0.000500 -0.417202
vt 0.216326 -0.407912
vt 0.063689 -0.216326
vt 0.185275 -0.417617
vt 0.100591 -0.183648
vt 0.662026 -0.451308
vt 0.401479 -0.451308
vt 0.401479 -0.548692
vt 0.321761 -0.895197
vt 0.768567 -0.406259
vt 0.810040 -0.477822
vt 0.966565 -0.000500
vt 0.536749 -0.204438
vt 0.337974 -0.548692
vt 0.598521 -0.548692
vt 0.598521 -0.451308
vt 0.079002 -0.500000
vt 0.899409 -0.183648
vt 0.777823 -0.384939
vt 0.936311 -0.216326
vt 0.093584 -1.482882
vt 0.593584 -1.482882
vt 0.033435 -0.000500
vt 0.189960 -0.477822
vt 0.231433 -0.406259
vt 0.991575 -0.060937
vt -0.078323 -0.060937
vt 0.864753 -0.477821
vt 1.048900 -0.000500
vt 0.815961 -0.406259
vt 0.593741 -0.475393
vt 0.593741 -0.522329
vt 0.999500 -0.485592
vt 0.265419 -0.621022
vt -0.087647 -0.544822
vt 0.406259 -0.530762
vt 0.406259 -0.471535
vt 0.000500 -0.484405
vt 0.999500 -0.501217
vt 0.699394 -0.450422
vt 0.699394 -0.551404
vt 0.999500 -0.551404
vt -0.087647 -0.498916
vt -0.087647 -0.538688
vt 0.265419 -0.538688
vt 1.087647 -0.699738
vt 0.722137 -0.793517
vt 1.087647 -0.939781
vt 0.300606 -0.621022
vt 0.000500 -0.544822
vt 0.439017 -0.454499
vt 0.467179 -0.533460
vt 0.939063 -0.518029
vt 0.936923 -0.501217
vt 0.448847 -0.500954
vt 0.250000 -0.479882
vt 0.750000 -0.479882
vt 0.060937 -0.512239
vt 0.532820 -0.524467
vt 0.063076 -0.498916
vt 0.551153 -0.498707
vt 0.265419 -0.458661
vt 0.571745 -0.535699
vt 0.815961 -0.522329
vt 0.571745 -0.461892
vt 0.709692 -0.432334
vt 1.087647 -0.432334
vt 0.709692 -0.895197
vt 0.593584 0.482882
vt 0.093584 0.482882
vt 0.591440 -0.683745
vt 0.231433 -0.471535
vt 0.231433 -0.530762
vt 0.750000 -1.482882
vt 0.250000 -1.482882
vt 0.250000 0.482882
vt 0.406416 0.482882
vt 0.906416 -0.479882
vt 0.750000 0.482882
vt 0.906416 0.482882
vt 0.395846 -0.902823
vt 0.603373 -0.698772
vt 0.395846 -0.698772
vt 0.707136 -0.800797
vt 0.204438 -0.548692
vt 0.795562 -0.548692
vt 0.795562 -0.451308
vt 0.337974 -0.451308
vt 0.204438 -0.451308
vt 0.662026 -0.548692
vt 0.509466 -0.661651
vt 0.509466 -0.338349
vt 0.471843 -0.661651
vt 0.814725 -0.417617
vt 0.471843 -0.338349
vt 0.222177 -0.384939
vt 0.632050 -0.500000
vt 0.621898 -0.562416
vt 0.835825 -0.533460
vt 0.164175 -0.532821
vt 0.378102 -0.773160
vt 0.408560 -0.683745
vt 0.356591 -0.547415
vt 0.344646 -0.497951
vt 0.104912 -0.524467
vt 0.643409 -0.773160
vt 0.895088 -0.532820
vt 0.607577 -0.683745
vt 0.000500 -0.580973
vt 1.087647 -0.562121
vt 0.734581 -0.621022
vt 1.087647 -0.544822
vt 0.439017 -0.547632
vt 0.999500 -0.544822
vt 0.699394 -0.621022
vt 0.000500 -0.518029
vt 0.999500 -0.484405
vt 0.621898 -0.773160
vt 0.835825 -0.532821
vt 0.844420 -0.500954
vt 0.999500 -0.512239
vt 0.000500 -0.485592
vt 0.356590 -0.773160
vt 0.392423 -0.683745
vt 0.104912 -0.532820
vt 0.094800 -0.498707
vt 0.835825 -0.468504
vt 0.621898 -0.437888
vt 0.356590 -0.448728
vt 0.104912 -0.472991
vt 0.571745 -0.594330
vt 0.292083 -0.800797
vt 0.906416 -1.482882
vt 0.603373 -0.902823
vt 0.815961 -0.475393
vt 0.008425 -0.060937
vt 0.999500 -0.518029
vt 1.078323 -0.060937
vt 0.000500 -0.512239
vt 0.532820 -0.472991
vt 0.467179 -0.468504
vt 0.560983 -0.594330
vt 0.428255 -0.594330
vt 0.816352 -0.407912
vt -0.009810 -0.079002
vt 0.899409 -0.592088
vt 1.009810 -0.500000
vt 0.899409 -0.407912
vt 1.009810 -0.079002
vt 0.463251 -0.204438
vt 0.439017 -0.594330
vt 0.577769 -0.211533
vt 0.378765 -0.841490
vt 0.677272 -0.526510
vt 0.279263 -0.526510
vt 0.204438 -0.795562
vt 0.795562 -0.795562
vt 0.528157 -0.661651
vt 0.528157 -0.338349
vt 0.712186 -0.528157
vt 0.678213 -0.490534
vt 0.060937 -0.485592
vt 0.939063 -0.484405
vt 0.287814 -0.528157
vt -0.093584 0.482882
vt 0.777823 -0.349206
vt 0.678213 -0.338349
vt 0.777823 -0.650793
vt 0.321787 -0.490534
vt 0.678213 -0.661651
vt 0.999500 -0.700109
vt -0.000000 0.940179
vt -0.000000 0.330642
vt 0.221167 0.335670
vt 0.221166 0.724137
vt -0.000000 0.729164
vt 0.221166 0.935151
vt 0.778834 0.335670
vt 0.778834 0.724137
vt 0.996377 0.330642
vt 0.535212 -0.285559
vt 0.453323 -0.285559
vt 0.453323 -0.579237
vt -0.000000 -1.303126
vt -0.000000 -0.267454
vt 0.221167 -1.298098
vt 0.535212 -0.579237
vt 0.221167 -0.978968
vt 0.221166 -0.006540
vt -0.000000 -0.001512
vt 0.321133 -0.747512
vt 0.321133 -0.097177
vt 0.707917 -0.097177
vt 0.221166 -0.272482
vt 0.707917 -0.747512
vt 0.778834 -0.006539
vt 0.778834 -0.978968
vt 0.996377 -0.983995
vt 0.996377 0.729164
vt 0.778834 -1.298098
vt 0.778834 -0.272482
vt 0.996377 -1.303126
vt 0.778834 0.935151
vt 0.996377 -0.001512
vt 0.996377 0.940179
vt 0.996377 -0.267454
vt -0.000000 -0.983995
vt 0.593548 0.336377
vt 0.593548 0.941691
vt 0.406452 0.941691
vt 0.593548 -0.265942
vt 0.593548 -1.297391
vt 0.406452 -0.265942
vt 0.406452 -1.297391
vt 0.593548 0.730676
vt 0.406452 0.730676
vt 0.593548 -0.978261
vt 0.593548 -0.000000
vt 0.406452 -0.000000
vt 0.406452 0.336377
vt 0.406452 -0.978261
vn -0.021800 -0.898500 -0.438400
vn 0.024000 0.963400 0.267000
vn 0.098700 -0.950400 -0.294900
vn 0.246900 -0.652200 0.716700
vn -0.098700 -0.950400 -0.294900
vn 0.111400 0.959100 0.260400
vn -0.847600 -0.190200 0.495400
vn 0.847600 0.190200 -0.495400
vn 0.847600 -0.190200 0.495400
vn -0.847600 0.190200 -0.495400
vn -0.000000 0.940200 0.340700
vn 0.000000 -0.926600 -0.375900
vn -0.246900 -0.652200 0.716700
vn 0.220100 0.086800 0.971600
vn -0.211900 0.971400 0.107200
vn 0.211900 0.971400 0.107200
vn 0.093600 0.911800 0.399800
vn -0.111400 0.959100 0.260400
vn 0.874500 -0.173800 0.452900
vn 0.211900 -0.793600 -0.570300
vn -0.874500 -0.173800 0.452900
vn -0.211900 -0.793600 -0.570300
vn -0.109800 -0.887700 -0.447100
vn 0.062500 0.942600 0.328000
vn -0.062500 0.942600 0.328000
vn 0.109800 -0.887700 -0.447100
vn 0.859400 0.183300 -0.477400
vn -0.155900 -0.806800 -0.569900
vn -0.859400 0.183300 -0.477400
vn 0.295500 0.342400 -0.891900
vn 0.265300 0.246800 -0.932000
vn -0.003300 -0.928800 -0.370600
vn -0.265300 0.246800 -0.932000
vn -0.024000 0.963400 0.267000
vn 0.107200 0.989700 0.095100
vn -0.203100 0.350900 -0.914100
vn 0.824600 -0.551500 0.125800
vn 0.846700 -0.508500 0.156500
vn -0.006300 -0.319200 0.947700
vn 0.022500 0.318300 -0.947700
vn -0.824600 -0.551500 0.125800
vn -0.846700 -0.508500 0.156500
vn -0.295500 0.342400 -0.891900
vn 0.596400 0.287700 -0.749400
vn -0.220100 0.086800 0.971600
vn -0.093600 0.911800 0.399800
vn 0.887000 -0.425900 -0.178300
vn 0.000000 -0.931200 -0.364500
vn -0.887000 0.435800 0.152400
vn -0.000000 0.935900 0.352300
vn -0.006600 0.981700 0.190500
vn -0.596400 0.287700 -0.749400
vn 0.010400 0.407400 -0.913200
vn -0.016000 -0.407400 0.913100
vn -0.887100 -0.427200 -0.175000
vn -0.883000 0.463200 0.075300
vn -0.669500 -0.664200 -0.332700
vn 0.887100 0.434600 0.155800
vn 0.883000 -0.394600 -0.254000
vn 0.669500 0.716200 0.197200
vn -0.842400 0.506500 0.184000
vn 0.000000 0.358400 -0.933600
vn 0.842400 -0.499500 -0.202200
vn -0.730100 -0.244900 0.637900
vn 0.730100 -0.244900 0.637900
vn 0.646700 -0.606500 0.462500
vn 0.172600 -0.938700 -0.298600
vn -0.646700 -0.606500 0.462500
vn -0.172600 -0.938700 -0.298600
vn 0.234700 -0.681000 0.693700
vn -0.234700 -0.681000 0.693700
vn -0.107200 0.989700 0.095100
vn 0.203100 0.350900 -0.914100
vn 0.155900 -0.806800 -0.569900
vn 0.749000 -0.098000 -0.655300
vn 0.170400 0.901800 0.397200
vn 0.603300 -0.688500 0.402500
vn -0.749000 -0.098000 -0.655300
vn -0.170400 0.901800 0.397200
vn -0.603300 -0.688500 0.402500
vn 0.670700 -0.676600 -0.303900
vn -0.670700 0.706200 0.227000
vn 0.647900 0.143200 0.748200
vn 0.246800 0.007500 0.969000
vn -0.647900 0.143200 0.748200
vn -0.246800 0.007500 0.969000
vn 0.044100 -0.794100 -0.606200
vn -0.842300 -0.497600 -0.207100
vn 0.842300 0.508400 0.179000
vn 0.006600 0.981700 0.190500
vn -0.007700 -0.858600 -0.512500
vn 0.061800 -0.920200 -0.386600
vn 0.892800 0.161400 -0.420600
vn -0.061800 -0.920200 -0.386600
vn -0.892800 0.161400 -0.420600
vn 0.013300 0.909100 0.416300
vn 0.990600 -0.042700 0.130300
vn 0.040000 -0.911500 -0.409300
vn -0.846700 0.273800 0.456200
vn -0.605200 0.243400 0.757900
vn 0.846700 0.273800 0.456200
vn 0.605200 0.243400 0.757900
vn 0.116900 -0.806700 -0.579200
vn 0.007700 -0.858600 -0.512500
vn -0.045700 0.996700 0.067600
vn -0.122100 0.987300 0.101200
vn 0.045700 0.996700 0.067600
vn 0.122100 0.987300 0.101200
vn -0.413800 0.893200 -0.175900
vn 0.413800 0.893200 -0.175900
vn 0.674900 0.264500 -0.688900
vn -0.413800 -0.546100 -0.728400
vn -0.674900 0.264500 -0.688900
vn 0.413800 -0.546100 -0.728400
vn -0.044100 -0.794100 -0.606200
vn -0.116900 -0.806700 -0.579200
vn 0.024300 -0.780900 -0.624200
vn -0.995900 0.069600 -0.057900
vn -0.008100 0.780200 0.625500
vn 0.720900 -0.248400 0.647000
vn 0.071100 -0.905300 -0.418800
vn -0.720900 -0.248400 0.647000
vn -0.071100 -0.905300 -0.418800
vn -0.287600 -0.705400 0.647900
vn -0.290100 0.093000 0.952500
vn 0.287600 -0.705400 0.647900
vn 0.290100 0.093000 0.952500
vn -0.824800 0.325900 0.462100
vn -0.824100 0.508000 -0.250400
vn 0.824800 0.325900 0.462100
vn 0.824100 0.508000 -0.250400
vn 0.063300 0.955700 0.287500
vn -0.063300 0.955700 0.287500
vn -0.886000 -0.412100 -0.212800
vn 0.886000 0.448600 0.117600
vn -0.715000 0.250500 -0.652700
vn 0.073800 0.953600 0.292000
vn 0.715000 0.250500 -0.652700
vn -0.073800 0.953600 0.292000
vn 0.065800 -0.901200 -0.428400
vn -0.065800 -0.901200 -0.428400
vn -0.213000 0.893100 0.396100
vn -0.180700 0.891200 0.416100
vn 0.213000 0.893100 0.396100
vn 0.180700 0.891200 0.416100
vn -0.215100 -0.929000 -0.301200
vn -0.179900 -0.941900 -0.283600
vn 0.215100 -0.929000 -0.301200
vn 0.179900 -0.941900 -0.283600
vn 0.315700 0.010700 0.948800
vn 0.077800 0.912200 0.402200
vn -0.315700 0.010700 0.948800
vn -0.077800 0.912200 0.402200
vn 0.079600 0.896100 0.436600
vn -0.043600 0.996500 0.070600
vn -0.079600 0.896100 0.436600
vn 0.043600 0.996500 0.070600
vn -0.044000 -0.794200 -0.606100
vn 0.079300 -0.961100 -0.264400
vn 0.044000 -0.794200 -0.606100
vn -0.079300 -0.961100 -0.264400
vn -0.313900 -0.641400 0.700100
vn -0.077900 -0.953000 -0.292900
vn 0.313900 -0.641400 0.700100
vn 0.077900 -0.953000 -0.292900
vn 0.045400 0.982200 0.182400
vn -0.045400 0.982200 0.182400
vn 0.021800 -0.898500 -0.438400
vn 0.003300 -0.928800 -0.370600
vn 0.996900 0.073500 0.026700
vn -0.996900 0.073500 0.026700
vn -0.996900 -0.073500 -0.026700
vn 0.000000 0.939700 0.342000
vn 0.000000 0.415800 -0.909400
vn 0.000000 -0.266000 0.964000
vn 0.000000 -0.939700 -0.342000
vn 0.000000 -0.415800 0.909400
vn 0.000000 0.266000 -0.964000
vn 0.996900 -0.073500 -0.026700
vn 1.000000 0.000000 -0.000000
vn 0.000000 0.342000 -0.939700
vn -1.000000 0.000000 0.000000
vn 0.000000 -0.342000 0.939700
vn 0.000000 0.288200 -0.957600
vn -0.998500 -0.052300 -0.019000
vn 0.000000 -0.288200 0.957600
vn 0.998500 0.052300 0.019000
vn 0.000000 0.394700 -0.918800
vn -0.998500 0.052300 0.019000
vn 0.000000 -0.394700 0.918800
vn 0.998500 -0.052300 -0.019000
usemtl NW_HARBOUR_BLACKIRON_01
s off
f 127/1/1 3/2/1 84/3/1
f 85/4/2 126/5/2 43/6/2
f 91/7/3 121/8/3 3/9/3
f 62/10/4 121/11/4 98/12/4
f 120/13/5 84/3/5 3/2/5
f 110/14/6 76/15/6 67/16/6
f 95/17/7 103/18/7 16/19/7
f 109/20/8 89/21/8 107/22/8
f 102/23/9 94/24/9 9/25/9
f 90/26/10 108/23/10 106/24/10
f 75/27/11 45/28/11 105/29/11
f 74/30/12 44/31/12 104/32/12
f 120/33/13 62/34/13 97/35/13
f 62/10/14 114/36/14 43/37/14
f 6/38/7 16/19/7 103/18/7
f 6/39/15 103/40/15 87/41/15
f 9/25/9 17/26/9 102/23/9
f 102/42/16 17/43/16 88/44/16
f 43/6/17 114/45/17 85/4/17
f 46/46/18 111/47/18 65/48/18
f 17/26/19 9/25/19 19/49/19
f 108/50/20 90/51/20 9/52/20
f 16/19/21 6/38/21 20/53/21
f 89/54/22 109/55/22 16/56/22
f 75/27/11 52/57/11 45/28/11
f 74/30/12 53/58/12 44/31/12
f 26/59/23 113/60/23 77/61/23
f 111/47/24 2/62/24 65/48/24
f 27/63/25 110/14/25 67/16/25
f 112/64/26 1/65/26 5/66/26
f 76/67/27 5/68/27 67/69/27
f 42/70/28 30/71/28 84/3/28
f 77/72/29 46/73/29 65/74/29
f 31/75/30 32/76/30 64/77/30
f 30/78/31 31/75/31 64/77/31
f 127/1/32 84/3/32 30/71/32
f 31/79/33 30/80/33 42/81/33
f 126/82/34 86/83/34 43/84/34
f 85/4/35 32/85/35 31/86/35
f 64/77/36 32/76/36 29/87/36
f 33/88/37 78/89/37 100/90/37
f 100/90/38 83/91/38 33/88/38
f 81/57/39 93/92/39 36/28/39
f 34/58/40 92/93/40 35/31/40
f 79/94/41 37/95/41 99/96/41
f 82/97/42 99/96/42 37/95/42
f 63/98/43 31/79/43 42/81/43
f 73/99/44 5/100/44 28/101/44
f 115/102/45 62/34/45 43/103/45
f 115/104/46 43/84/46 86/83/46
f 53/58/47 50/93/47 44/31/47
f 104/32/48 44/31/48 69/105/48
f 52/57/49 48/92/49 45/28/49
f 105/29/50 45/28/50 70/106/50
f 116/107/51 111/47/51 46/46/51
f 29/87/52 46/108/52 77/109/52
f 34/58/53 47/110/53 92/93/53
f 81/57/54 80/111/54 93/92/54
f 13/111/55 104/32/55 48/92/55
f 45/28/56 48/92/56 12/112/56
f 48/92/57 49/113/57 12/112/57
f 24/110/58 105/114/58 50/93/58
f 44/31/59 50/93/59 14/115/59
f 50/93/60 51/116/60 14/115/60
f 52/57/61 13/111/61 48/92/61
f 52/117/62 53/118/62 74/119/62
f 53/58/63 24/110/63 50/93/63
f 52/117/62 24/120/62 53/118/62
f 55/121/64 54/122/64 11/123/64
f 9/52/20 94/124/20 108/50/20
f 11/123/64 10/125/64 55/121/64
f 88/44/16 106/126/16 102/42/16
f 56/127/65 57/128/65 7/129/65
f 95/130/22 16/56/22 109/55/22
f 8/131/65 7/129/65 57/128/65
f 107/132/15 87/41/15 103/40/15
f 71/133/66 60/134/66 33/135/66
f 33/136/67 60/137/67 118/138/67
f 61/139/68 72/140/68 37/141/68
f 61/142/69 37/143/69 119/144/69
f 121/11/70 62/10/70 3/145/70
f 62/34/71 120/33/71 3/146/71
f 63/147/72 86/83/72 31/148/72
f 63/98/73 42/81/73 28/101/73
f 64/77/36 29/87/36 4/149/36
f 30/150/74 64/151/74 91/7/74
f 65/74/29 26/152/29 77/72/29
f 65/153/75 100/90/75 78/89/75
f 116/107/76 18/154/76 66/155/76
f 33/135/77 83/156/77 71/133/77
f 1/157/27 67/69/27 5/68/27
f 99/96/78 67/158/78 79/94/78
f 15/159/79 117/160/79 68/161/79
f 82/162/80 37/141/80 72/140/80
f 44/31/81 14/115/81 69/105/81
f 45/28/82 12/112/82 70/106/82
f 66/163/83 18/164/83 71/133/83
f 114/36/84 62/10/84 98/12/84
f 15/165/85 68/166/85 72/140/85
f 62/34/86 115/102/86 97/35/86
f 28/101/73 42/81/73 73/99/73
f 42/70/87 84/3/87 73/167/87
f 13/111/88 74/30/88 104/32/88
f 52/117/62 74/119/62 13/168/62
f 24/110/89 75/169/89 105/114/89
f 52/117/62 75/170/62 24/120/62
f 110/14/90 117/160/90 76/15/90
f 76/171/44 28/101/44 5/100/44
f 77/109/52 4/149/52 29/87/52
f 77/61/91 113/60/91 118/138/91
f 78/172/92 113/60/92 26/59/92
f 65/153/93 78/89/93 26/173/93
f 112/64/94 79/174/94 1/65/94
f 79/94/95 67/158/95 1/175/95
f 80/111/96 34/30/96 35/32/96
f 81/117/97 34/119/97 80/168/97
f 47/110/98 81/169/98 36/114/98
f 81/117/97 47/120/97 34/118/97
f 82/97/99 68/176/99 99/96/99
f 82/162/100 72/140/100 68/166/100
f 66/177/101 83/91/101 100/90/101
f 71/133/102 83/156/102 66/163/102
f 73/167/103 119/144/103 5/66/103
f 112/64/104 5/66/104 119/144/104
f 29/178/105 32/85/105 85/4/105
f 46/46/106 29/178/106 116/107/106
f 63/147/107 28/179/107 86/83/107
f 28/179/108 76/15/108 117/160/108
f 87/180/8 107/22/8 89/21/8
f 87/41/109 20/181/109 6/39/109
f 106/24/10 88/25/10 90/26/10
f 19/121/110 88/44/110 17/43/110
f 89/182/111 20/183/111 87/184/111
f 16/56/112 20/185/112 89/54/112
f 19/186/113 90/26/113 88/25/113
f 19/123/114 9/52/114 90/51/114
f 91/7/115 64/151/115 4/187/115
f 118/138/116 4/187/116 77/61/116
f 47/110/117 36/114/117 92/93/117
f 36/188/118 35/189/118 92/190/118
f 80/111/119 35/32/119 93/92/119
f 36/188/118 93/191/118 35/189/118
f 10/192/120 11/193/120 94/24/120
f 94/124/121 11/125/121 54/121/121
f 7/194/122 8/195/122 95/17/122
f 7/196/123 95/130/123 56/197/123
f 72/140/124 61/139/124 97/35/124
f 72/140/125 97/35/125 15/165/125
f 60/134/126 71/133/126 98/12/126
f 98/12/127 71/133/127 18/164/127
f 27/198/128 99/96/128 68/176/128
f 27/198/129 67/158/129 99/96/129
f 100/90/130 2/199/130 66/177/130
f 65/153/131 2/199/131 100/90/131
f 94/24/120 102/23/120 10/192/120
f 10/123/132 102/42/132 106/126/132
f 103/18/122 95/17/122 8/195/122
f 103/40/133 8/200/133 107/132/133
f 48/92/134 104/32/134 49/113/134
f 104/32/48 69/105/48 49/113/48
f 50/93/135 105/114/135 51/116/135
f 105/29/50 70/106/50 51/201/50
f 55/193/136 106/24/136 108/23/136
f 106/126/137 55/122/137 10/123/137
f 107/202/138 57/203/138 109/204/138
f 57/205/139 107/132/139 8/200/139
f 108/23/136 54/192/136 55/193/136
f 54/121/140 108/50/140 94/124/140
f 56/206/138 109/204/138 57/203/138
f 109/55/141 56/197/141 95/130/141
f 110/14/142 27/63/142 68/161/142
f 110/14/143 68/161/143 117/160/143
f 2/62/144 111/47/144 66/155/144
f 66/155/145 111/47/145 116/107/145
f 79/174/146 112/64/146 37/143/146
f 112/64/147 119/144/147 37/143/147
f 113/60/148 78/172/148 33/136/148
f 118/138/149 113/60/149 33/136/149
f 18/164/150 114/36/150 98/12/150
f 85/4/151 114/45/151 18/154/151
f 115/102/152 15/165/152 97/35/152
f 115/104/153 86/83/153 15/159/153
f 18/154/154 116/107/154 85/4/154
f 85/4/155 116/107/155 29/178/155
f 117/160/156 15/159/156 86/83/156
f 117/160/157 86/83/157 28/179/157
f 4/187/158 118/138/158 91/7/158
f 91/7/159 118/138/159 60/137/159
f 119/144/160 73/167/160 84/3/160
f 119/144/161 84/3/161 61/142/161
f 120/33/162 97/35/162 61/139/162
f 120/13/163 61/142/163 84/3/163
f 98/12/164 121/11/164 60/134/164
f 60/137/165 121/8/165 91/7/165
f 31/86/166 126/5/166 85/4/166
f 126/82/167 31/148/167 86/83/167
f 3/9/168 127/207/168 91/7/168
f 91/7/169 127/207/169 30/150/169
usemtl NW_HARBOUR_WOOD_IRON_01
f 38/208/170 23/209/170 129/210/170
f 130/211/171 133/210/171 21/212/171
f 129/210/170 134/213/170 38/208/170
f 135/214/172 128/215/172 41/216/172
f 38/217/173 21/218/173 39/219/173
f 21/220/174 38/221/174 130/222/174
f 39/219/173 23/223/173 38/217/173
f 133/224/175 129/225/175 23/226/175
f 41/227/176 40/228/176 22/229/176
f 134/230/174 130/222/174 38/221/174
f 22/229/176 25/231/176 41/227/176
f 131/232/177 135/233/177 41/234/177
f 40/235/172 41/216/172 128/215/172
f 128/236/178 132/237/178 40/238/178
f 132/239/179 131/214/179 25/216/179
f 41/234/177 25/240/177 131/232/177
f 25/216/179 22/241/179 132/239/179
f 22/242/178 40/238/178 132/237/178
f 39/209/171 21/212/171 133/210/171
f 23/226/175 39/243/175 133/224/175
f 59/244/180 122/245/180 96/246/180
f 122/247/181 58/248/181 96/249/181
f 123/250/181 96/249/181 58/248/181
f 58/251/182 125/244/182 123/252/182
f 125/253/183 59/254/183 124/255/183
f 96/246/180 124/256/180 59/244/180
f 124/255/183 101/257/183 125/253/183
f 101/256/182 123/252/182 125/244/182
f 58/248/184 122/247/184 128/236/184
f 128/215/185 135/214/185 58/251/185
f 101/257/186 124/255/186 129/225/186
f 134/213/187 129/210/187 124/256/187
f 130/222/188 134/230/188 123/250/188
f 123/252/189 101/256/189 130/211/189
f 135/233/190 131/232/190 59/254/190
f 122/245/191 59/244/191 131/214/191
f 131/214/191 132/239/191 122/245/191
f 132/237/184 128/236/184 122/247/184
f 129/225/186 133/224/186 101/257/186
f 133/210/189 130/211/189 101/256/189
f 124/256/187 96/246/187 134/213/187
f 96/249/188 123/250/188 134/230/188
f 59/254/190 125/253/190 135/233/190
f 125/244/185 58/251/185 135/214/185
