# Blender v2.75 (sub 0) OBJ File: 'Empty.blend'
# www.blender.org
mtllib NW_HARBOUR_CRATEBROKEN_01.mtl
o NW_HARBOUR_CRATEBROKEN_01
v -0.115086 -0.449506 -0.250010
v 0.600010 -0.096525 -0.000010
v -0.599990 -0.044924 0.249990
v 0.300010 0.407235 -0.500010
v -0.599990 0.427262 -0.250010
v 0.600010 0.443126 -0.000010
v 0.300010 -0.499990 -0.500010
v 0.300010 -0.166678 0.499990
v 0.600010 -0.499990 0.249990
v 0.300010 0.431324 0.499990
v -0.599990 0.500010 0.249990
v -0.299990 0.204483 0.499990
v -0.545133 -0.449506 -0.250010
v 0.600010 0.500010 -0.500010
v 0.000010 0.500010 0.499990
v 0.600010 -0.166690 0.499990
v 0.000010 -0.499990 -0.500010
v -0.599990 -0.166665 -0.000010
v -0.599990 0.500010 -0.000010
v -0.599990 -0.499990 0.499990
v -0.075521 -0.499990 -0.000010
v -0.026032 -0.499990 0.249990
v -0.545133 0.166710 0.451505
v -0.599990 0.464242 0.499990
v 0.600010 -0.499990 -0.000010
v 0.600010 -0.499990 0.499990
v -0.299990 0.452592 0.499990
v -0.545133 -0.449506 0.451505
v 0.600010 -0.499990 -0.500010
v 0.534867 -0.449506 0.451505
v 0.534867 -0.449506 -0.448495
v 0.300010 -0.166678 0.451505
v 0.000010 0.500010 0.451505
v 0.534867 -0.449506 0.249990
v 0.534867 -0.449506 -0.000010
v 0.534867 -0.166690 0.451505
v 0.534867 0.500010 -0.448495
v -0.599990 -0.499990 -0.250010
v 0.300010 -0.449506 -0.448495
v 0.534867 -0.096525 -0.000010
v 0.534867 0.443126 -0.000010
v -0.599990 0.166710 0.499990
v -0.545133 -0.044924 0.249990
v -0.545133 -0.166665 -0.000010
v -0.545133 0.427262 -0.250010
v -0.545133 0.500010 -0.000010
v -0.545133 0.500010 0.249990
v 0.300010 0.407235 -0.448495
v -0.118248 -0.499990 -0.250010
v 0.300010 0.431324 0.451505
v -0.299990 0.204483 0.451505
v -0.299990 0.452592 0.451505
v 0.600010 0.500010 -0.250010
v -0.082484 -0.449506 -0.000010
v -0.009486 -0.449506 0.123982
v -0.036275 -0.449506 0.249990
v -0.000621 -0.499990 0.126147
v 0.600010 -0.166690 0.249990
v -0.545133 0.464242 0.451505
v 0.000010 -0.449506 -0.448495
v 0.534867 -0.166690 0.249990
v 0.534867 0.500010 -0.250010
v -0.599990 0.102567 -0.250010
v 0.600010 -0.499990 -0.250010
v -0.599990 -0.499990 0.249990
v -0.599990 -0.499990 -0.000010
v 0.300010 -0.499990 0.499990
v -0.299990 -0.499990 0.499990
v 0.000010 -0.499990 0.499990
v -0.545133 0.102567 -0.250010
v 0.534867 -0.449506 -0.250010
v -0.545133 -0.449506 0.249990
v -0.545133 -0.449506 -0.000010
v 0.300010 -0.449506 0.451505
v -0.299990 -0.449506 0.451505
v 0.000010 -0.449506 0.451505
vt 0.795089 -0.495570
vt 0.265989 -0.495570
vt 0.763392 -0.303999
vt 0.770398 -0.300975
vt 0.224821 -0.300975
vt 0.256162 -0.515814
vt 0.556806 -0.303692
vt 0.225731 -0.303692
vt 0.408877 -0.490723
vt 0.760942 -0.296220
vt 0.450019 -0.296220
vt 0.601649 -0.513140
vt 0.546545 -0.515814
vt 0.462681 -0.303999
vt 0.770032 -0.749750
vt 0.437065 -0.749750
vt 0.437065 -0.999500
vt 0.432234 -0.500000
vt 0.765201 -0.500000
vt 0.432234 -0.749750
vt 0.265989 -0.303999
vt 0.763648 -0.515814
vt 0.513786 -0.660266
vt 0.395555 -0.494642
vt 0.229336 -0.494642
vt 0.577160 -0.500173
vt 0.456681 -0.691744
vt 0.746539 -0.500173
vt 0.550225 -0.999500
vt 0.217258 -0.999500
vt 0.550225 -0.749750
vt 0.558129 -0.500000
vt 0.225731 -0.490723
vt 0.225137 -0.749750
vt 0.660625 -0.484974
vt 0.396268 -0.484974
vt 0.660625 -0.665479
vt 0.775182 -0.490723
vt 0.735210 -0.303692
vt 0.226183 -0.513140
vt 0.267154 -0.296220
vt 0.768013 -0.494642
vt 0.558142 -0.749750
vt 0.209354 -0.660266
vt 0.766901 -0.691744
vt 0.770032 -0.500000
vt 0.765201 -0.749750
vt 0.770032 -0.999500
vt 0.226360 -0.500173
vt 0.282482 -0.665479
vt 0.224821 0.009162
vt 0.437065 -0.500000
vt 0.217258 -0.749750
vt 0.752010 -0.493227
vt 0.752010 -0.302388
vt 0.225694 -0.493227
vt 0.770398 0.009162
vt 0.768013 -0.660266
vt 0.225694 -0.302388
vt 0.226360 -0.691744
vt 0.760942 -0.513140
vt 0.478506 -0.298600
vt 0.219624 -0.298600
vt 0.496966 -0.488473
vt 0.239625 -0.482759
vt 0.487449 -0.482759
vt 0.498693 -0.310345
vt 0.759674 -0.479474
vt 0.439563 -0.479474
vt 0.759674 -0.660623
vt 0.434778 -0.839342
vt 0.754858 -0.839342
vt 0.754858 -0.629258
vt 0.769075 -0.298600
vt 0.649591 -0.488473
vt 0.743979 -0.678869
vt 0.229693 -0.678869
vt 0.583913 -0.502664
vt 0.232042 -0.500000
vt 0.775204 -0.500000
vt 0.552994 -0.250250
vt 0.223907 -0.642048
vt 0.752421 -0.642048
vt 0.576261 -0.511940
vt 0.285195 -0.250250
vt 0.229693 -0.502664
vt 0.220098 -0.839342
vt 0.455620 -0.660623
vt 0.765567 -0.749750
vt 0.210328 -0.749750
vt 0.210328 -0.999500
vt 0.229652 -0.749750
vt 0.758321 -0.749750
vt 0.229652 -0.999500
vt 0.260209 -0.511940
vt 0.252207 -0.501088
vt 0.596414 -0.501088
vt 0.212671 -0.309517
vt 0.220306 -0.999500
vt 0.553273 -0.999500
vt 0.553286 -0.749750
vt 0.372090 -0.661162
vt 0.757046 -0.508257
vt 0.296217 -0.508257
vt 0.267771 -0.495694
vt 0.580838 -0.336204
vt 0.354577 -0.336204
vt 0.453819 -0.629258
vt 0.227759 -0.479474
vt 0.402872 -0.610981
vt 0.686962 -0.498474
vt 0.402872 -0.387767
vt 0.740613 -0.498344
vt 0.339007 -0.400638
vt 0.339007 -0.597876
vt 0.690427 -0.597876
vt 0.648246 -0.387767
vt 0.229242 -0.615246
vt 0.755558 -0.615246
vt 0.259641 -0.413633
vt 0.224808 -0.250250
vt 0.777632 -0.250250
vt 0.777645 -0.000499
vt 0.757760 -0.482759
vt 0.774863 -0.250250
vt 0.718296 -0.502664
vt 0.765567 -0.999500
vt 0.564568 -0.661162
vt 0.546027 -0.999500
vt 0.213060 -0.999500
vt 0.546039 -0.749750
vt 0.759209 -0.309517
vt 0.758321 -0.999500
vt 0.757967 -0.495694
vt 0.328985 -0.722047
vt 0.328985 -0.770531
vt 0.628985 -0.770531
vt 0.242116 -0.416084
vt 0.753228 -0.416084
vt 0.753228 -0.367599
vt 0.490338 -0.949100
vt 0.490338 -0.997584
vt 0.765567 -0.997585
vt 0.215109 -0.949100
vt 0.283983 -0.942270
vt 0.218841 -0.992754
vt 0.765172 -0.995169
vt 0.232692 -0.609337
vt 0.482692 -0.674480
vt 0.482692 -0.609337
vt 0.214608 -0.939855
vt 0.781159 -0.992754
vt 0.716017 -0.942270
vt 0.232692 -0.674480
vt 0.563843 -0.722047
vt 0.472435 -0.785778
vt 0.722435 -0.720635
vt 0.472435 -0.720635
vt 0.696693 -0.469390
vt 0.761836 -0.417874
vt 0.461836 -0.417874
vt 0.758118 -0.305725
vt 0.508118 -0.305725
vt 0.508118 -0.370867
vt 0.762589 -0.461986
vt 0.243576 -0.522099
vt 0.719483 -0.517282
vt 0.764251 -0.992754
vt 0.709394 -0.942270
vt 0.279348 -0.942270
vt 0.222955 -0.491423
vt 0.756333 -0.550854
vt 0.726902 -0.498900
vt 0.758937 -0.053931
vt 0.758937 -0.002415
vt 0.458937 -0.002415
vt 1.034857 -0.056884
vt 1.034857 -0.596535
vt 1.100000 -0.596535
vt 0.222435 -0.785777
vt 1.100000 -0.056884
vt 0.758118 -0.370867
vt 0.269001 -0.176429
vt 0.566533 -0.231286
vt 0.566532 -0.176429
vt 0.273698 -0.946684
vt 0.218841 -0.995169
vt 0.518840 -0.995169
vt 0.220394 -0.292649
vt 0.765328 -0.292649
vt 0.765328 -0.237792
vt 0.482380 -0.654844
vt 0.232380 -0.599987
vt 0.232380 -0.654844
vt 0.245720 -0.357856
vt 0.758527 -0.363674
vt 0.758896 -0.308819
vt 0.482380 -0.599987
vt 0.229965 -0.514238
vt 0.229965 -0.569095
vt 0.479965 -0.569095
vt 0.243163 -0.467244
vt 0.479965 -0.514238
vt 0.246088 -0.303001
vt 0.423723 -0.866036
vt 0.222215 -0.864277
vt 0.221737 -0.919132
vt 0.220394 -0.237792
vt 0.461836 -0.469389
vt 0.222691 -0.542937
vt 0.467391 -0.987923
vt 0.467391 -0.937439
vt 0.268906 -0.937439
vt 0.282509 -0.992754
vt 0.242116 -0.367599
vt 0.765567 -0.949100
vt 0.951515 -0.047418
vt 0.951515 -0.295527
vt 1.000000 -0.295527
vt 0.518840 -0.946684
vt 0.215109 -0.997584
vt 1.000000 -0.047418
vt 0.258118 -0.305725
vt 0.309633 -0.370867
vt 0.373843 -1.000000
vt 0.500000 -1.000000
vt 0.500000 -0.949516
vt 0.221570 -0.990338
vt 0.672754 -0.610981
vt 0.376008 -0.949516
vt 0.250000 -0.949516
vt 0.250000 -1.000000
vt 0.775416 -0.944686
vt 0.723587 -0.400638
vt 0.222435 -0.720635
vt 0.269001 -0.231286
vt 0.471727 -0.921314
vt 0.217391 -0.987923
vt 0.458937 -0.053931
vt 0.673950 -0.785778
vt 0.540972 -0.524933
vt 0.540559 -0.470078
vt 0.757046 -0.661162
vt 0.369159 -0.310345
vt 0.220098 -0.629258
vt 0.220306 -0.749750
vt 0.757760 -0.310345
vt 0.628227 -0.310345
vt 0.239625 -0.310345
vt 0.224821 -0.000499
vt 0.752421 -0.511940
vt 0.757967 -0.336204
vt 0.344341 -0.488473
vt 0.227759 -0.660623
vt 0.213060 -0.749750
vt 0.769075 -0.488473
vt 0.219624 -0.488473
vt 0.755558 -0.413633
vt 0.759209 -0.501088
vn -1.000000 0.000000 0.000000
vn 1.000000 0.000000 0.000000
vn 0.000000 1.000000 0.000000
vn 0.000000 -1.000000 0.000000
vn -0.000000 0.000000 -1.000000
vn -0.000000 0.000000 1.000000
vn 0.223200 0.974800 0.000000
vn -0.156100 0.987700 0.000000
vn -0.612600 -0.790400 0.000000
vn 0.000100 1.000000 -0.000100
vn -0.276800 0.894900 -0.350000
vn 0.000000 0.975100 0.221900
vn 0.000000 0.714200 -0.699900
vn 0.000000 0.962800 0.270200
vn 0.662200 0.000000 0.749300
vn -0.123700 0.982400 -0.140000
vn 0.000000 0.899100 -0.437800
vn 0.000000 0.960200 -0.279400
vn 0.000000 0.984600 0.174800
vn -0.367400 0.930100 0.000000
vn -0.863800 0.054100 -0.500900
vn -0.152300 0.988300 0.000000
vn 0.853900 0.117800 -0.507000
vn 0.854600 0.128500 -0.503100
vn 0.959400 0.194700 0.204000
vn 0.964000 0.177700 0.197800
vn 0.124200 0.982300 0.140500
vn -0.828500 0.399900 -0.391900
usemtl NW_HARBOUR_WOODCRATE_02
s off
f 62/1/1 71/2/1 41/3/1
f 64/4/2 53/5/2 6/6/2
f 63/7/1 38/8/1 18/9/1
f 13/10/2 70/11/2 44/12/2
f 6/6/2 2/13/2 64/4/2
f 40/14/1 41/3/1 71/2/1
f 9/15/2 58/16/2 16/17/2
f 40/18/1 35/19/1 61/20/1
f 35/21/1 40/14/1 71/2/1
f 2/13/2 25/22/2 64/4/2
f 3/23/1 42/24/1 24/25/1
f 23/26/2 43/27/2 59/28/2
f 30/29/1 36/30/1 34/31/1
f 18/32/1 66/33/1 65/34/1
f 73/35/2 44/36/2 72/37/2
f 18/9/1 19/38/1 5/39/1
f 46/40/2 44/12/2 45/41/2
f 3/23/1 20/42/1 42/24/1
f 65/34/1 3/43/1 18/32/1
f 24/25/1 11/44/1 3/23/1
f 47/45/2 59/28/2 43/27/2
f 58/16/2 9/15/2 25/46/2
f 34/47/1 61/20/1 35/19/1
f 16/17/2 26/48/2 9/15/2
f 28/49/2 43/27/2 23/26/2
f 43/50/2 72/37/2 44/36/2
f 14/51/2 53/5/2 64/4/2
f 25/46/2 2/52/2 58/16/2
f 61/53/1 34/31/1 36/30/1
f 62/54/1 37/55/1 71/56/1
f 5/39/1 63/7/1 18/9/1
f 64/4/2 29/57/2 14/51/2
f 3/23/1 65/58/1 20/42/1
f 66/33/1 18/9/1 38/8/1
f 70/11/2 45/41/2 44/12/2
f 31/59/1 71/56/1 37/55/1
f 72/60/2 43/27/2 28/49/2
f 44/12/2 73/61/2 13/10/2
usemtl NW_HARBOUR_WOODCRATE_01
f 56/62/3 72/63/3 76/64/3
f 65/65/4 22/66/4 69/67/4
f 71/68/3 1/69/3 35/70/3
f 49/71/4 64/72/4 25/73/4
f 34/74/3 56/62/3 74/75/3
f 33/76/5 76/77/5 51/78/5
f 69/79/6 15/80/6 12/81/6
f 15/82/6 69/83/6 8/84/6
f 12/81/6 68/85/6 69/79/6
f 75/86/5 51/78/5 76/77/5
f 38/87/4 49/71/4 25/73/4
f 54/88/3 35/70/3 1/69/3
f 7/89/5 4/90/5 14/91/5
f 48/92/6 39/93/6 37/94/6
f 8/84/6 10/95/6 15/82/6
f 50/96/5 32/97/5 33/98/5
f 26/99/6 16/100/6 8/101/6
f 17/102/4 64/103/4 49/104/4
f 1/105/3 39/106/3 60/107/3
f 25/73/4 21/108/4 38/87/4
f 1/69/3 13/109/3 54/88/3
f 72/110/3 55/111/3 73/112/3
f 57/113/4 65/114/4 66/115/4
f 66/115/4 21/116/4 57/113/4
f 54/117/3 73/112/3 55/111/3
f 51/118/5 75/119/5 23/120/5
f 68/121/6 12/122/6 42/123/6
f 22/66/4 9/124/4 69/67/4
f 27/125/6 12/81/6 15/80/6
f 51/78/5 52/126/5 33/76/5
f 14/91/5 29/127/5 7/89/5
f 64/103/4 17/102/4 7/128/4
f 36/129/5 30/130/5 32/131/5
f 76/132/5 33/98/5 32/97/5
f 31/133/6 37/94/6 39/93/6
f 71/134/3 39/106/3 1/105/3
f 32/135/3 8/136/3 16/137/3
f 10/138/2 8/139/2 32/140/2
f 33/141/7 15/142/7 10/143/7
f 52/144/8 15/142/8 33/141/8
f 34/145/5 9/146/5 22/147/5
f 35/148/9 9/149/9 34/150/9
f 54/151/6 25/152/6 35/153/6
f 35/148/9 25/154/9 9/149/9
f 32/135/10 16/137/10 36/155/10
f 61/156/3 16/157/3 58/158/3
f 37/159/11 14/160/11 4/161/11
f 6/162/12 53/163/12 62/164/12
f 38/165/5 70/166/5 13/167/5
f 38/168/5 13/169/5 1/170/5
f 48/171/1 7/172/1 39/173/1
f 39/174/13 7/175/13 17/176/13
f 41/177/6 40/178/6 2/179/6
f 40/180/14 61/156/14 58/158/14
f 41/177/6 2/179/6 6/181/6
f 6/162/12 62/164/12 41/182/12
f 59/183/15 42/184/15 23/185/15
f 23/186/16 42/187/16 12/188/16
f 47/189/5 43/190/5 3/191/5
f 44/192/17 3/193/17 43/194/17
f 19/195/6 18/196/6 44/197/6
f 44/192/17 18/198/17 3/193/17
f 45/199/18 5/200/18 19/201/18
f 38/165/5 63/202/5 70/166/5
f 45/199/18 19/201/18 46/203/18
f 19/195/6 44/197/6 46/204/6
f 59/205/19 47/206/19 11/207/19
f 47/189/5 3/191/5 11/208/5
f 37/159/20 4/161/20 48/209/20
f 48/171/1 4/210/1 7/172/1
f 49/211/21 1/212/21 60/213/21
f 38/168/5 1/170/5 49/214/5
f 10/138/2 32/140/2 50/215/2
f 33/141/7 10/143/7 50/216/7
f 52/217/1 51/218/1 12/219/1
f 23/186/22 12/188/22 51/220/22
f 52/144/8 27/221/8 15/142/8
f 52/217/1 12/219/1 27/222/1
f 53/163/3 14/223/3 37/224/3
f 57/225/23 21/226/23 54/227/23
f 54/151/6 21/228/6 25/152/6
f 72/110/3 56/229/3 55/111/3
f 54/227/24 55/230/24 57/225/24
f 55/230/25 56/231/25 22/232/25
f 34/145/5 22/147/5 56/233/5
f 22/232/26 57/225/26 55/230/26
f 57/113/4 22/234/4 65/114/4
f 40/180/14 58/158/14 2/235/14
f 59/183/15 24/236/15 42/184/15
f 59/205/27 11/207/27 24/237/27
f 49/211/28 60/213/28 17/238/28
f 39/174/13 17/176/13 60/239/13
f 61/156/3 36/240/3 16/157/3
f 53/163/3 37/224/3 62/164/3
f 45/241/5 63/202/5 5/242/5
f 64/103/4 7/128/4 29/243/4
f 69/67/4 68/244/4 65/65/4
f 21/108/4 66/245/4 38/87/4
f 8/101/6 67/246/6 26/99/6
f 26/247/4 67/248/4 9/124/4
f 68/244/4 20/249/4 65/65/4
f 42/123/6 20/250/6 68/121/6
f 67/251/6 8/84/6 69/83/6
f 67/248/4 69/67/4 9/124/4
f 45/241/5 70/166/5 63/202/5
f 39/106/3 71/134/3 31/252/3
f 75/253/3 76/64/3 72/63/3
f 73/254/3 54/88/3 13/109/3
f 74/255/5 32/131/5 30/130/5
f 74/75/3 30/256/3 34/74/3
f 28/257/3 75/253/3 72/63/3
f 28/258/5 23/120/5 75/119/5
f 32/97/5 74/259/5 76/132/5
f 76/64/3 74/75/3 56/62/3
