# Blender v2.75 (sub 0) OBJ File: 'Empty.blend'
# www.blender.org
mtllib NW_HARBOUR_RINGBIG_01.mtl
o NW_HARBOUR_RINGBIG_01
v 0.129259 0.179593 -0.381788
v 0.113762 -0.181963 0.130843
v -0.095032 -0.177445 -0.521567
v -0.251519 -0.018169 -0.115596
v -0.451426 0.002968 0.203981
v -0.146670 -0.117945 0.380932
v 0.259204 -0.032556 -0.102258
v 0.009350 0.151563 -0.196485
v 0.136627 -0.124504 0.384874
v 0.317255 -0.086501 0.169834
v -0.143504 0.036906 0.410957
v 0.010236 0.100092 -0.345617
v 0.122782 -0.182488 -0.518538
v -0.104058 -0.176921 0.127812
v -0.092901 0.182508 -0.040163
v -0.089245 0.181110 -0.379773
v 0.124539 0.179867 -0.042190
v 0.141671 0.029549 0.419748
v 0.006187 -0.003289 -0.226510
v 0.262373 0.122295 -0.072232
v 0.451446 -0.017934 0.216542
v -0.248110 0.134112 -0.079335
v -0.320396 -0.070085 0.154359
v -0.316134 0.083086 0.191003
v 0.321629 0.066855 0.204020
v 0.195247 -0.071834 0.521547
v -0.354938 0.075343 -0.179454
v -0.206569 -0.062532 0.515957
v 0.369110 0.058581 -0.169381
vt 0.999895 -0.362323
vt 0.790237 -0.362323
vt 0.790237 -0.637677
vt 0.000105 -0.637677
vt 0.209763 -0.637677
vt 0.209763 -0.362323
vt 0.662297 -0.837507
vt 0.999500 -0.633653
vt 0.854519 -0.576488
vt 0.271426 -0.993060
vt 0.150195 -0.618703
vt 0.000500 -0.633653
vt 0.510336 -0.211272
vt 0.506835 -0.535180
vt 0.786791 -0.596400
vt 0.107260 -0.191924
vt 0.225464 -0.307265
vt 0.510336 -0.172304
vt 0.778309 -0.265490
vt 0.892740 -0.191924
vt 0.488684 -0.000499
vt 0.493165 -0.137714
vt 0.091601 -0.203529
vt 0.315448 -0.272494
vt 0.594315 -0.709240
vt 0.633699 -0.388459
vt 0.148976 -0.594315
vt 0.000499 -0.648125
vt 0.283976 -0.999500
vt 0.348837 -0.842048
vt 0.842048 -0.788730
vt 0.127903 -0.451105
vt 0.162493 -0.775011
vt 0.423512 -0.674900
vt 0.728574 -0.993060
vt 0.333333 -0.571429
vt 0.666667 -0.571429
vt 0.666667 -0.428571
vt 0.511316 -0.000499
vt 0.790296 -0.315448
vt 0.155767 -0.637677
vt 0.155767 -0.362323
vt 0.844233 -0.637677
vt 0.999922 -0.637677
vt 0.844233 -0.362323
vt 0.999922 -0.790237
vt 0.844233 -0.790237
vt 0.844233 -0.999895
vt 0.000078 -0.362323
vt 0.999922 -0.999895
vt 0.999501 -0.648125
vt 0.656743 -0.882224
vt 0.716024 -0.999500
vt 0.333333 -0.428571
vt 0.225464 -0.247775
vt 0.790296 -0.272494
vt 0.908399 -0.203529
vt 0.855862 -0.633699
vt 0.280857 -0.596400
vt 0.213209 -0.280857
vt 0.221691 -0.566306
vt 0.381297 -0.354509
vt 0.734510 -0.566306
vt 0.692735 -0.247775
vt 0.882224 -0.466492
vt 0.341206 -0.872097
vn -0.999700 0.020400 -0.010800
vn 0.999600 -0.023100 0.013900
vn -0.438000 -0.886600 0.148600
vn -0.410800 0.772300 0.484600
vn -0.450000 -0.161100 0.878400
vn -0.208300 0.924200 -0.320200
vn -0.247400 -0.717900 -0.650700
vn 0.225900 -0.739500 -0.634200
vn -0.978300 -0.018100 0.206200
vn 0.398700 -0.900100 0.175800
vn -0.769600 0.159800 -0.618200
vn 0.799700 0.098500 -0.592300
vn -0.026600 -0.928900 0.369400
vn -0.444600 -0.880500 0.164100
vn 0.018700 0.220200 -0.975300
vn 0.259700 0.913300 -0.313700
vn 0.021400 0.367400 -0.929800
vn -0.002600 0.431500 0.902100
vn 0.013600 0.423000 0.906000
vn -0.999600 0.024500 -0.013900
vn 0.006900 1.000000 -0.004000
vn -0.006200 0.353400 -0.935400
vn 0.012100 0.999900 -0.000600
vn 0.444100 0.740800 0.504000
vn 0.035100 0.189500 -0.981200
vn 0.417500 -0.181200 0.890500
vn -0.234100 -0.730300 -0.641800
vn 0.545600 0.836500 0.050800
vn -0.978600 -0.019700 0.204900
vn 0.511100 -0.815800 -0.270800
vn 0.396300 -0.221100 0.891100
vn 0.793000 0.120800 -0.597100
vn 0.969300 -0.082300 0.231500
vn -0.537500 -0.792100 -0.289500
vn 0.970300 -0.076400 0.229700
vn -0.506700 0.861400 0.035100
vn 0.440500 0.747800 0.496800
vn -0.771200 0.164500 -0.614900
vn -0.003500 0.707600 0.706600
vn -0.547000 -0.786700 -0.286100
vn 0.007200 0.723900 0.689900
vn 0.542700 0.838400 0.050400
usemtl NW_HARBOUR_BLACKIRON_01
s off
f 15/1/1 16/2/1 3/3/1
f 2/4/2 13/5/2 1/6/2
f 6/7/3 5/8/3 23/9/3
f 28/10/4 24/11/4 5/12/4
f 8/13/5 19/14/5 7/15/5
f 27/16/6 22/17/6 8/18/6
f 4/19/7 27/20/7 12/21/7
f 19/22/8 12/21/8 29/23/8
f 20/24/9 10/25/9 25/26/9
f 10/27/10 21/28/10 26/29/10
f 10/27/10 26/29/10 9/30/10
f 25/26/11 10/25/11 9/31/11
f 11/32/12 6/33/12 23/34/12
f 9/30/13 28/35/13 6/7/13
f 6/7/14 28/35/14 5/8/14
f 18/36/15 9/37/15 6/38/15
f 12/39/16 8/18/16 20/40/16
f 27/16/6 8/18/6 12/39/6
f 13/4/17 3/41/17 16/42/17
f 14/43/18 2/44/18 17/1/18
f 17/1/19 15/45/19 14/43/19
f 3/3/20 14/44/20 15/1/20
f 1/46/21 16/47/21 15/48/21
f 16/42/22 1/49/22 13/4/22
f 1/6/2 17/49/2 2/4/2
f 15/48/23 17/50/23 1/46/23
f 21/51/24 18/52/24 26/53/24
f 18/36/25 6/38/25 11/54/25
f 22/55/26 19/14/26 8/13/26
f 4/19/27 12/21/27 19/22/27
f 8/13/5 7/15/5 20/56/5
f 12/39/16 20/40/16 29/57/16
f 29/57/28 20/40/28 25/58/28
f 20/24/29 7/59/29 10/25/29
f 7/60/30 21/28/30 10/27/30
f 19/22/8 29/23/8 7/60/8
f 22/55/31 4/61/31 19/14/31
f 11/32/32 23/34/32 24/62/32
f 24/62/33 23/34/33 4/63/33
f 23/9/34 27/20/34 4/19/34
f 24/62/35 4/63/35 22/64/35
f 5/12/36 24/11/36 22/17/36
f 21/51/37 25/58/37 18/52/37
f 25/26/38 9/31/38 18/65/38
f 26/53/39 18/52/39 11/66/39
f 28/10/4 11/66/4 24/11/4
f 23/9/40 5/8/40 27/20/40
f 5/12/36 22/17/36 27/16/36
f 9/30/13 26/29/13 28/35/13
f 26/53/41 11/66/41 28/10/41
f 7/60/30 29/23/30 21/28/30
f 29/57/42 25/58/42 21/51/42
