# Blender v2.75 (sub 0) OBJ File: 'Empty.blend'
# www.blender.org
mtllib NW_HARBOUR_SMALL_BOAT_03.mtl
o NW_HARBOUR_SMALL_BOAT_03
v 0.933228 0.070763 -2.422811
v 0.975227 0.070763 2.740889
v -0.015968 1.603267 -4.600070
v -1.178018 1.605746 3.297675
v 1.226312 1.605746 3.184961
v -0.997104 0.070763 2.743524
v -0.955103 0.070763 -2.422811
v -0.015968 0.068284 -3.526124
v -0.096262 12.879575 -1.109029
v -0.135836 1.065898 -1.040486
v -0.135836 1.065898 -1.324979
v 0.110543 1.065898 -1.182732
v -0.005909 0.070763 3.246187
v 0.499597 2.161424 5.448201
v -0.374261 2.334780 -3.257277
v -0.399013 2.521286 -3.185426
v 1.069323 1.605746 -3.150324
v -1.030463 1.605746 -3.150325
v -0.015969 1.171905 2.912418
v 0.474717 2.306585 5.454353
v -0.096262 12.879575 -1.256435
v -0.015969 -0.495441 -0.331213
v 0.447696 2.212483 4.511172
v -0.035693 12.075924 -1.207230
v 0.430332 2.308802 4.527515
v -0.058152 12.156677 -1.157783
v 0.031395 12.879575 -1.182732
v 0.612109 2.256019 5.437180
v -0.262329 2.449934 -3.235377
v -1.525603 1.605746 -0.226639
v 0.628886 1.605746 3.451002
v -0.015968 1.171905 -3.178261
v 0.485359 2.287787 4.523885
v 1.493666 1.605746 -0.226638
v -0.000816 12.143306 -1.177989
v -0.600839 1.604375 -3.973079
v -1.125959 0.070763 -0.253626
v -0.730935 1.605746 3.473546
v 1.104083 0.070763 -0.253625
v -0.015969 1.171905 -0.259604
v 0.533954 1.604416 -3.948555
v -0.015969 1.605746 3.490960
vt 0.502992 -0.627899
vt 0.491288 -0.920492
vt 0.140500 -0.955911
vt 0.078420 -0.628212
vt 0.927187 -0.637031
vt 0.815752 -0.979082
vt 0.689061 -1.002974
vt 0.487973 -1.003380
vt 0.519719 -0.209741
vt 0.804750 -0.216706
vt 0.306922 -0.995772
vt 0.688691 -0.097575
vt 0.214465 -0.210573
vt 0.369541 -0.097774
vt 0.528081 -0.000690
vt 0.815257 -7.212546
vt 0.983137 -7.123173
vt 0.865172 2.246390
vt 0.453349 -7.142760
vt 0.646714 2.188468
vt 0.312393 2.242400
vt 0.147770 -0.367016
vt 0.464318 -0.367022
vt 0.462765 -0.044147
vt 0.489246 -0.603317
vt 0.004737 -0.366772
vt 0.144368 -0.046295
vt 0.000499 -0.044197
vt 0.065290 -0.045142
vt 0.810881 -0.367022
vt 0.997938 -0.366878
vt 0.999501 -0.045183
vt 0.998976 -0.520804
vt 0.998976 -0.479196
vt -1.048986 -0.485879
vt 0.001024 -0.000046
vt 0.001024 -0.091401
vt 2.048986 -0.069390
vt 0.001024 -0.479196
vt 0.001024 -0.520804
vt 2.048986 -0.507438
vt 0.912346 -0.044703
vt 0.811352 -0.044147
vt 0.915449 -0.044720
vt 2.048986 -0.022056
vt 2.048986 -0.485879
vt -1.048986 -0.507438
vt 0.954277 -0.507438
vt 0.977944 -0.485879
vt 0.930610 -0.485879
vt 0.057740 -0.045031
vn -0.329700 0.944100 0.000000
vn -0.275700 0.961000 -0.021600
vn 0.275600 0.960900 -0.027200
vn 0.349800 0.936800 0.000000
vn 0.014600 0.800000 -0.599900
vn 0.393900 0.916700 0.066700
vn -0.202800 0.866900 -0.455400
vn 0.389800 0.898500 0.202000
vn -0.365400 0.898400 0.243600
vn -0.371800 0.926700 0.054000
vn 0.298700 0.913200 0.277100
vn 0.177300 0.874900 -0.450600
vn 0.276200 0.961100 -0.000000
vn -0.276200 0.961100 -0.000000
vn -0.326900 0.904300 0.274400
vn -0.037100 0.799500 -0.599500
vn -0.974400 -0.146700 -0.170400
vn 0.771600 -0.290300 -0.566000
vn -0.970100 -0.155600 -0.186400
vn 0.848500 -0.233000 -0.475100
vn 0.243900 0.494600 0.834200
vn 0.389000 0.475000 0.789400
vn 0.968300 -0.246500 0.041700
vn 0.450000 -0.892800 0.019400
vn -0.079100 -0.984600 0.156100
vn 0.980200 -0.182600 0.076800
vn -0.024000 -0.157600 0.987200
vn -0.423500 -0.351400 0.835000
vn -0.983800 -0.151000 0.097000
vn -0.966700 -0.252400 0.041600
vn 0.690200 -0.414800 -0.592900
vn -0.694100 -0.412700 -0.589900
vn -0.453200 -0.891200 0.019500
vn 0.500000 0.003300 -0.866000
vn -1.000000 0.003300 0.000000
vn 0.500000 0.003300 0.866000
vn 0.434500 -0.315200 0.843700
vn 0.080100 -0.984600 0.155600
vn 0.455700 0.889800 -0.024000
vn -0.981400 -0.166900 0.095200
vn 0.787100 -0.319800 -0.527400
vn -0.857500 -0.254100 -0.447300
vn -0.980500 -0.172100 0.094900
vn 0.637000 -0.766800 -0.079200
vn 0.200400 -0.964800 -0.170200
vn -0.202500 -0.964400 -0.170200
vn 0.000000 1.000000 -0.000000
vn 0.343900 0.938900 -0.013700
vn 0.115900 -0.022200 0.993000
vn 0.722600 -0.685600 -0.088200
vn -0.163800 0.335600 -0.927600
vn -0.955700 -0.246000 -0.161800
vn 0.390700 -0.278600 0.877300
vn 0.960400 -0.241300 -0.139400
vn -0.649200 -0.461400 -0.604700
vn -0.993200 -0.085800 -0.078200
vn -0.456100 -0.889200 -0.035900
vn -0.349600 -0.296700 0.888700
vn 0.989100 -0.124600 -0.077900
vn 0.452800 -0.890900 -0.035700
vn 0.699200 -0.404400 -0.589500
vn 0.061100 -0.156800 0.985700
usemtl NW_MISC_SMALLBOAT_TOP_01
s off
f 40/1/1 19/2/1 5/3/1
f 5/3/2 34/4/2 40/1/2
f 40/1/3 30/5/3 4/6/3
f 4/6/4 19/2/4 40/1/4
f 38/7/5 42/8/5 19/2/5
f 32/9/6 18/10/6 30/5/6
f 31/11/7 5/3/7 19/2/7
f 18/10/8 32/9/8 36/12/8
f 32/9/9 17/13/9 41/14/9
f 34/4/10 17/13/10 32/9/10
f 36/12/11 32/9/11 3/15/11
f 4/6/12 38/7/12 19/2/12
f 30/5/13 40/1/13 32/9/13
f 32/9/14 40/1/14 34/4/14
f 32/9/15 41/14/15 3/15/15
f 42/8/16 31/11/16 19/2/16
usemtl NW_CITY_ROPE_01
f 23/16/17 25/17/17 26/18/17
f 33/19/18 23/16/18 24/20/18
f 26/18/19 24/20/19 23/16/19
f 24/20/20 35/21/20 33/19/20
f 25/17/21 33/19/21 35/21/21
f 35/21/22 26/18/22 25/17/22
usemtl NW_SHIP_HULL_01
f 2/22/23 39/23/23 34/24/23
f 39/23/24 2/22/24 22/25/24
f 13/26/25 6/22/25 22/25/25
f 34/24/26 5/27/26 2/22/26
f 13/26/27 42/28/27 38/29/27
f 4/27/28 6/22/28 13/26/28
f 6/22/29 4/27/29 30/24/29
f 30/24/30 37/23/30 6/22/30
f 1/30/31 8/31/31 3/32/31
f 3/32/32 8/31/32 7/30/32
f 6/22/33 37/23/33 22/25/33
f 12/33/34 11/34/34 21/35/34
f 11/36/35 10/37/35 9/38/35
f 10/39/36 12/40/36 27/41/36
f 13/26/37 2/22/37 5/27/37
f 2/22/38 13/26/38 22/25/38
f 29/33/39 16/34/39 20/35/39
f 16/36/40 15/37/40 14/38/40
f 41/42/41 17/43/41 1/30/41
f 7/30/42 18/43/42 36/44/42
f 14/38/43 20/45/43 16/36/43
f 28/41/44 14/46/44 15/39/44
f 21/35/34 27/47/34 12/33/34
f 9/38/35 21/45/35 11/36/35
f 8/31/45 1/30/45 22/25/45
f 7/30/46 8/31/46 22/25/46
f 27/41/36 9/46/36 10/39/36
f 27/48/47 21/49/47 9/50/47
f 20/35/48 28/47/48 29/33/48
f 28/48/49 20/49/49 14/50/49
f 15/39/50 29/40/50 28/41/50
f 16/34/51 29/33/51 15/37/51
f 37/23/52 30/24/52 18/43/52
f 5/27/53 31/51/53 13/26/53
f 17/43/54 34/24/54 39/23/54
f 7/30/55 36/44/55 3/32/55
f 18/43/56 7/30/56 37/23/56
f 37/23/57 7/30/57 22/25/57
f 13/26/58 38/29/58 4/27/58
f 39/23/59 1/30/59 17/43/59
f 1/30/60 39/23/60 22/25/60
f 3/32/61 41/42/61 1/30/61
f 31/51/62 42/28/62 13/26/62
