# Blender v2.75 (sub 0) OBJ File: 'Empty.blend'
# www.blender.org
mtllib NW_MISC_GRAVESTONE_02.mtl
o NW_MISC_GRAVESTONE_02
v 0.070339 0.616295 -0.066558
v -0.322185 -0.642039 0.066538
v 0.323132 -0.642039 0.066538
v 0.320557 0.264957 0.066538
v -0.322185 -0.642039 -0.066558
v 0.323132 -0.642038 -0.066558
v -0.060527 0.620937 0.066538
v -0.172261 0.509968 -0.066558
v -0.100469 0.488510 -0.066558
v -0.060527 0.620937 -0.066558
v -0.315325 0.267433 0.066538
v 0.284209 0.260628 -0.066558
v -0.269390 0.262230 -0.066558
v -0.315325 0.267433 -0.066558
v -0.269390 0.262230 0.066538
v -0.291066 0.395663 0.066538
v -0.291066 0.395663 -0.066558
v -0.191390 0.414723 0.066538
v -0.100469 0.488510 0.066538
v -0.172261 0.509968 0.066538
v 0.320557 0.264957 -0.066558
v 0.284209 0.260628 0.066538
v 0.301526 0.382620 0.066538
v -0.191390 0.414723 -0.066558
v 0.070339 0.616295 0.066538
v 0.268446 0.417600 -0.066558
v 0.110243 0.484897 -0.066558
v 0.110243 0.484897 0.066538
v 0.180233 0.502859 -0.066558
v 0.180233 0.502859 0.066538
v 0.212355 0.412068 -0.066558
v 0.212355 0.412068 0.066538
v -0.213725 0.436318 -0.066558
v -0.213725 0.436318 0.066538
v 0.268446 0.417600 0.066538
v 0.301526 0.382620 -0.066558
v -0.113391 0.511770 0.066538
v -0.113391 0.511770 -0.066558
v 0.126623 0.507261 0.066538
v 0.126623 0.507261 -0.066558
v -0.013718 0.642059 -0.066558
v -0.013718 0.642059 0.066538
v -0.292791 0.276096 -0.066558
v -0.292791 0.276096 0.066538
v 0.304117 0.272742 -0.066558
v 0.304117 0.272742 0.066538
v -0.192262 0.484035 -0.066558
v -0.192262 0.484035 0.066538
v -0.254481 0.429816 0.066538
v -0.254481 0.429816 -0.066558
v -0.086466 0.571310 0.066538
v -0.082191 0.520436 0.066538
v -0.086466 0.571310 -0.066558
v -0.082191 0.520437 -0.066558
v -0.299729 0.353208 0.066538
v -0.299729 0.353208 -0.066558
v 0.309314 0.334145 -0.066558
v 0.309314 0.334145 0.066538
v 0.204552 0.470885 0.066538
v -0.138520 0.520434 -0.066558
v 0.204552 0.470885 -0.066558
v -0.138520 0.520434 0.066538
v 0.096254 0.571933 0.066538
v 0.096254 0.571933 -0.066558
v 0.094660 0.520436 0.066538
v 0.094660 0.520437 -0.066558
v 0.152466 0.512270 0.066538
v 0.152466 0.512270 -0.066558
v 0.026178 0.639126 -0.066558
v 0.026178 0.639126 0.066538
v 0.236405 0.420624 -0.066558
v 0.236405 0.420624 0.066538
v -0.323418 0.228258 -0.066558
v -0.323418 0.228258 0.066538
v 0.323438 0.224963 -0.066558
v 0.323438 0.224963 0.066538
vt 0.495236 -0.987081
vt 0.495469 -0.319057
vt 0.003127 -0.987081
vt 0.993054 -0.319057
vt 0.992821 -0.987081
vt 0.500711 -0.987081
vt 0.163939 -0.928036
vt 0.496995 -0.928036
vt 0.163939 -0.994670
vt 0.002186 -0.316518
vt 0.003712 -0.928036
vt 0.338035 -0.928036
vt 0.003712 -0.994670
vt 0.496055 -0.994670
vt 0.003945 -0.994670
vt 0.496055 -0.928036
vt 0.496995 -0.994670
vt 0.003945 -0.928036
vt 0.069468 -0.928036
vt 0.092063 -0.928036
vt 0.069468 -0.994670
vt 0.499771 -0.316518
vt 0.332890 -0.118778
vt 0.102869 -0.172847
vt 0.410759 -0.174893
vt 0.469817 -0.994670
vt 0.450274 -0.994670
vt 0.469817 -0.928036
vt 0.600454 -0.172847
vt 0.669788 -0.115995
vt 0.830475 -0.118778
vt 0.450274 -0.928036
vt 0.683727 -0.091395
vt 0.680467 -0.052198
vt 0.818591 -0.091395
vt 0.013609 -0.994670
vt 0.004839 -0.994670
vt 0.013609 -0.928036
vt 0.338035 -0.994670
vt 0.465553 -0.291578
vt 0.043388 -0.290343
vt 0.092063 -0.994670
vt 0.908344 -0.174893
vt 0.351085 -0.928036
vt 0.386034 -0.928036
vt 0.351085 -0.994670
vt 0.963138 -0.291578
vt 0.540972 -0.290343
vt 0.149623 -0.994670
vt 0.144296 -0.994670
vt 0.149623 -0.928036
vt 0.144296 -0.928036
vt 0.144713 -0.994670
vt 0.118982 -0.994670
vt 0.144713 -0.928036
vt 0.415463 -0.994670
vt 0.402343 -0.994670
vt 0.415463 -0.928036
vt 0.517836 -0.220245
vt 0.552341 -0.161218
vt 0.386034 -0.994670
vt 0.054757 -0.161218
vt 0.020251 -0.220245
vt 0.402343 -0.928036
vt 0.172204 -0.115995
vt 0.409665 -0.928036
vt 0.436291 -0.928036
vt 0.409665 -0.994670
vt 0.118982 -0.928036
vt 0.102204 -0.119443
vt 0.355123 -0.994670
vt 0.350469 -0.994670
vt 0.355123 -0.928036
vt 0.350469 -0.928036
vt 0.121997 -0.928036
vt 0.150238 -0.928036
vt 0.121997 -0.994670
vt 0.436291 -0.994670
vt 0.599788 -0.119443
vt 0.004839 -0.928036
vt 0.182882 -0.052198
vt 0.186142 -0.091395
vt 0.321006 -0.091395
vt 0.150238 -0.994670
vt 0.800044 -0.017536
vt 0.050433 -0.994670
vt 0.030651 -0.994670
vt 0.050433 -0.928036
vt 0.030651 -0.928036
vt 0.302460 -0.017536
vt 0.387789 -0.994670
vt 0.366614 -0.994670
vt 0.387789 -0.928036
vt 0.902393 -0.129575
vt 0.366614 -0.928036
vt 0.404808 -0.129575
vt 0.951118 -0.170631
vt 0.455059 -0.994670
vt 0.430625 -0.994670
vt 0.455059 -0.928036
vt 0.453533 -0.170631
vt 0.430625 -0.928036
vt 0.091043 -0.994670
vt 0.087362 -0.994670
vt 0.091043 -0.928036
vt 0.087362 -0.928036
vt 0.484698 -0.234933
vt 0.089938 -0.928036
vt 0.103375 -0.928036
vt 0.089938 -0.994670
vt 0.103375 -0.994670
vt 0.982283 -0.234933
vt 0.053762 -0.928036
vt 0.062698 -0.928036
vt 0.053762 -0.994670
vt 0.143187 -0.091397
vt 0.062698 -0.994670
vt 0.640772 -0.091397
vt 0.436622 -0.928036
vt 0.445213 -0.928036
vt 0.436622 -0.994670
vt 0.365089 -0.097688
vt 0.445213 -0.994670
vt 0.862673 -0.097688
vt 0.239885 -0.994670
vt 0.204189 -0.994670
vt 0.239885 -0.928036
vt 0.735943 0.002314
vt 0.238359 0.002314
vt 0.204189 -0.928036
vt 0.027068 -0.994670
vt 0.009884 -0.994670
vt 0.027068 -0.928036
vt 0.523127 -0.279660
vt 0.025542 -0.279660
vt 0.009884 -0.928036
vt 0.494798 -0.994670
vt 0.482261 -0.994670
vt 0.494798 -0.928036
vt 0.978320 -0.282244
vt 0.480735 -0.282244
vt 0.482261 -0.928036
vt 0.446253 -0.994670
vt 0.446253 -0.928036
vt 0.615041 -0.099461
vt 0.117456 -0.099461
vt 0.085836 -0.156209
vt 0.056283 -0.928036
vt 0.056283 -0.994670
vt 0.583421 -0.156209
vt 0.202663 -0.013960
vt 0.488881 -0.928036
vt 0.438010 -0.928036
vt 0.438010 -0.994670
vt 0.488881 -0.994670
vt 0.700248 -0.013960
vt 0.026858 -0.187534
vt 0.524442 -0.187534
vt 0.976344 -0.197582
vt 0.478760 -0.197582
vt 0.386263 -0.104939
vt 0.057186 -0.928036
vt 0.057186 -0.994670
vt 0.659934 -0.098073
vt 0.883847 -0.104939
vt 0.162350 -0.098073
vt 0.322222 -0.051717
vt 0.819806 -0.051717
vt 0.064085 -0.928036
vt 0.064085 -0.994670
vt 0.345381 -0.101547
vt 0.346907 -0.928036
vt 0.346907 -0.994670
vt 0.842965 -0.101547
vt 0.270309 -0.994670
vt 0.270309 -0.928036
vt 0.766367 0.000055
vt 0.268783 0.000055
vt 0.412285 -0.994670
vt 0.926683 -0.168301
vt 0.429099 -0.168301
vt 0.412285 -0.928036
vt 0.353083 -0.994670
vt 0.353083 -0.928036
vt 0.505943 -0.286335
vt 0.008358 -0.286335
vt 0.148575 -0.994670
vt 0.990857 -0.288242
vt 0.493272 -0.288242
vt 0.148575 -0.928036
vn -0.000000 -0.000000 1.000000
vn 0.000000 0.000000 -1.000000
vn 1.000000 -0.000400 0.000000
vn -1.000000 -0.001400 0.000000
vn 0.000000 -1.000000 0.000000
vn 0.991300 0.131500 0.000000
vn -0.996500 -0.083700 -0.000000
vn 0.459200 0.888300 0.000000
vn -0.948600 -0.316400 0.000000
vn 0.509800 0.860300 0.000000
vn -0.296300 0.955100 0.000000
vn -0.682400 0.731000 -0.000000
vn -0.999900 -0.012600 0.000000
vn -0.519800 0.854300 0.000000
vn 0.946300 -0.323200 0.000000
vn 0.999500 -0.030900 0.000000
vn 0.321000 0.947100 0.000000
vn 0.094000 0.995600 0.000000
vn 0.695100 0.718900 0.000000
vn 0.726600 0.687100 0.000000
vn 0.874200 0.485600 0.000000
vn -0.806800 0.590900 0.000000
vn -0.411300 0.911500 0.000000
vn -0.358900 0.933400 0.000000
vn 0.428000 0.903800 0.000000
vn -0.791800 0.610700 0.000000
vn -0.157500 0.987500 0.000000
vn -0.886200 0.463200 0.000000
vn -0.867800 0.496800 0.000000
vn -0.979800 0.199900 0.000000
vn 0.987300 0.158600 0.000000
vn 0.795900 0.605400 0.000000
vn 0.326000 0.945400 0.000000
vn 0.863500 0.504400 0.000000
vn 0.915800 0.401600 0.000000
vn -0.190300 0.981700 0.000000
vn 0.073300 0.997300 -0.000000
vn -0.335200 0.942200 0.000000
vn -0.979300 0.202300 0.000000
vn 0.997400 0.071800 0.000000
usemtl NW_MISC_GRAVESTONE_01
s off
f 3/1/1 76/2/1 2/3/1
f 75/4/2 6/5/2 5/6/2
f 76/7/3 3/8/3 75/9/3
f 76/2/1 74/10/1 2/3/1
f 2/11/4 74/12/4 5/13/4
f 5/14/5 6/15/5 2/16/5
f 6/17/3 75/9/3 3/8/3
f 3/18/5 2/16/5 6/15/5
f 59/19/6 32/20/6 61/21/6
f 73/22/2 75/4/2 5/6/2
f 28/23/1 18/24/1 32/25/1
f 53/26/7 54/27/7 51/28/7
f 24/29/2 9/30/2 27/31/2
f 52/32/7 51/28/7 54/27/7
f 54/33/2 53/34/2 66/35/2
f 1/36/8 69/37/8 25/38/8
f 73/39/4 5/13/4 74/12/4
f 22/40/1 18/24/1 15/41/1
f 31/42/6 61/21/6 32/20/6
f 24/29/2 27/31/2 31/43/2
f 15/44/9 55/45/9 13/46/9
f 24/29/2 12/47/2 13/48/2
f 13/48/2 75/4/2 73/22/2
f 13/49/10 43/50/10 15/51/10
f 76/2/1 15/41/1 74/10/1
f 44/52/10 15/51/10 43/50/10
f 60/53/11 8/54/11 62/55/11
f 50/56/12 17/57/12 49/58/12
f 56/59/2 50/60/2 13/48/2
f 56/61/9 13/46/9 55/45/9
f 49/62/1 55/63/1 15/41/1
f 16/64/12 49/58/12 17/57/12
f 19/65/1 18/24/1 28/23/1
f 18/66/13 48/67/13 24/68/13
f 20/69/11 62/55/11 8/54/11
f 48/70/1 18/24/1 19/65/1
f 12/47/2 75/4/2 13/48/2
f 45/71/14 12/72/14 46/73/14
f 76/2/1 22/40/1 15/41/1
f 22/74/14 46/73/14 12/72/14
f 58/75/15 22/76/15 57/77/15
f 22/40/1 32/25/1 18/24/1
f 47/78/13 24/68/13 48/67/13
f 24/29/2 47/79/2 9/30/2
f 70/80/8 25/38/8 69/37/8
f 51/81/1 52/82/1 65/83/1
f 12/84/15 57/77/15 22/76/15
f 31/43/2 12/47/2 24/29/2
f 66/35/2 53/34/2 1/85/2
f 66/86/16 64/87/16 65/88/16
f 63/89/16 65/88/16 64/87/16
f 51/81/1 65/83/1 25/90/1
f 29/91/17 68/92/17 30/93/17
f 27/31/2 61/94/2 31/43/2
f 67/95/17 30/93/17 68/92/17
f 59/96/1 28/23/1 32/25/1
f 26/97/2 12/47/2 31/43/2
f 26/98/18 71/99/18 35/100/18
f 22/40/1 35/101/1 32/25/1
f 72/102/18 35/100/18 71/99/18
f 24/103/19 33/104/19 18/105/19
f 13/48/2 50/60/2 24/29/2
f 34/106/19 18/105/19 33/104/19
f 49/62/1 15/41/1 18/24/1
f 58/107/1 35/101/1 22/40/1
f 35/108/20 23/109/20 26/110/20
f 36/111/20 26/110/20 23/109/20
f 26/97/2 57/112/2 12/47/2
f 37/113/21 19/114/21 38/115/21
f 62/116/1 48/70/1 19/65/1
f 9/117/21 38/115/21 19/114/21
f 47/79/2 60/118/2 9/30/2
f 28/119/22 39/120/22 27/121/22
f 67/122/1 28/23/1 59/96/1
f 40/123/22 27/121/22 39/120/22
f 27/31/2 68/124/2 61/94/2
f 41/125/23 10/126/23 42/127/23
f 1/85/2 53/34/2 41/128/2
f 51/81/1 25/90/1 42/129/1
f 7/130/23 42/127/23 10/126/23
f 43/131/24 14/132/24 44/133/24
f 73/22/2 43/134/2 13/48/2
f 44/135/1 74/10/1 15/41/1
f 11/136/24 44/133/24 14/132/24
f 21/137/25 45/138/25 4/139/25
f 12/47/2 45/140/2 75/4/2
f 46/141/1 22/40/1 76/2/1
f 46/142/25 4/139/25 45/138/25
f 8/143/26 47/78/26 20/144/26
f 47/79/2 8/145/2 60/118/2
f 20/146/1 48/70/1 62/116/1
f 48/67/26 20/144/26 47/78/26
f 34/147/1 49/62/1 18/24/1
f 49/148/27 34/106/27 50/149/27
f 33/104/27 50/149/27 34/106/27
f 50/60/2 33/150/2 24/29/2
f 7/151/1 51/81/1 42/129/1
f 51/28/28 7/152/28 53/26/28
f 52/82/1 19/65/1 28/23/1
f 19/153/29 52/32/29 9/154/29
f 10/155/28 53/26/28 7/152/28
f 53/34/2 10/156/2 41/128/2
f 54/27/29 9/154/29 52/32/29
f 9/30/2 54/33/2 27/31/2
f 16/157/1 55/63/1 49/62/1
f 55/45/30 16/64/30 56/61/30
f 17/57/30 56/61/30 16/64/30
f 56/59/2 17/158/2 50/60/2
f 57/77/31 36/111/31 58/75/31
f 26/97/2 36/159/2 57/112/2
f 23/160/1 35/101/1 58/107/1
f 23/109/31 58/75/31 36/111/31
f 67/122/1 59/96/1 30/161/1
f 30/162/32 59/19/32 29/163/32
f 38/9/33 60/53/33 37/7/33
f 60/118/2 38/164/2 9/30/2
f 61/21/32 29/163/32 59/19/32
f 61/94/2 68/124/2 29/165/2
f 37/166/1 62/116/1 19/65/1
f 62/55/33 37/7/33 60/53/33
f 25/90/1 65/83/1 63/167/1
f 25/38/34 63/89/34 1/36/34
f 64/87/34 1/36/34 63/89/34
f 66/35/2 1/85/2 64/168/2
f 65/83/1 52/82/1 28/23/1
f 65/88/35 28/169/35 66/86/35
f 27/170/35 66/86/35 28/169/35
f 54/33/2 66/35/2 27/31/2
f 39/171/1 28/23/1 67/122/1
f 39/172/36 67/95/36 40/173/36
f 68/92/36 40/173/36 67/95/36
f 27/31/2 40/174/2 68/124/2
f 69/175/37 41/125/37 70/176/37
f 1/85/2 41/128/2 69/177/2
f 42/129/1 25/90/1 70/178/1
f 42/127/37 70/176/37 41/125/37
f 71/99/38 31/179/38 72/102/38
f 71/180/2 26/97/2 31/43/2
f 35/101/1 72/181/1 32/25/1
f 32/182/38 72/102/38 31/179/38
f 14/183/39 73/39/39 11/184/39
f 73/22/2 14/185/2 43/134/2
f 11/186/1 74/10/1 44/135/1
f 74/12/39 11/184/39 73/39/39
f 75/9/40 21/187/40 76/7/40
f 45/140/2 21/188/2 75/4/2
f 4/189/1 46/141/1 76/2/1
f 4/190/40 76/7/40 21/187/40
