# Blender v2.75 (sub 0) OBJ File: 'Empty.blend'
# www.blender.org
mtllib NW_MISC_CHAIN_01.mtl
o NW_MISC_CHAIN_01
v 0.200010 -1.163740 0.003490
v -0.199990 -1.543740 0.003490
v -0.199990 -1.163740 0.003490
v 0.200010 -1.543740 0.003490
v 0.000012 1.543760 0.099990
v 0.000012 -1.213740 0.099990
v 0.000012 1.543760 -0.100010
v 0.000012 -1.213740 -0.100010
v 0.103460 1.543760 0.003438
v 0.103460 -1.213740 0.003438
v -0.096540 1.543760 0.003438
v -0.096540 -1.213740 0.003438
v 0.000010 1.543760 0.003440
v 0.000010 -1.213740 0.003440
v 0.000011 1.543760 0.051715
vt 0.960026 7.289576
vt -0.020027 6.325429
vt -0.036553 7.272181
vt -1.044673 -5.988054
vt -0.035326 -6.946936
vt -1.044673 -6.946936
vt 0.976552 6.342825
vt -0.035326 -5.988054
vt -2.502065 1.210514
vt -2.053115 1.210514
vt -2.053115 -10.756455
vt 0.894081 11.066463
vt 0.894081 -0.900506
vt 0.445131 -0.900506
vt -2.502065 -10.756455
vt 0.445131 11.066463
vt -2.539130 0.710502
vt -2.090179 0.710502
vt -2.090179 -11.256467
vt 0.904274 10.566451
vt 0.904274 -1.400518
vt 0.455325 -1.400518
vt -2.539130 -11.256467
vt 0.455325 10.566451
vt -2.721568 1.210514
vt -2.931071 -10.756455
vt -2.921071 1.210514
vt 0.026123 -0.900506
vt 0.026123 11.066463
vt -2.958135 0.710502
vt 0.036317 -1.400518
vt -2.958135 -11.256467
vt 0.036317 10.566451
vn 0.000000 0.000000 1.000000
vn 0.000000 0.000000 -1.000000
vn -1.000000 0.000000 -0.000000
vn 1.000000 0.000000 0.000000
usemtl OC_O_CHAIN
s off
f 4/1/1 3/2/1 2/3/1
f 3/4/2 4/5/2 2/6/2
f 3/2/1 4/1/1 1/7/1
f 4/5/2 3/4/2 1/8/2
f 13/9/3 7/10/3 8/11/3
f 8/12/4 7/13/4 13/14/4
f 8/11/3 14/15/3 13/9/3
f 13/14/4 14/16/4 8/12/4
f 13/17/2 9/18/2 10/19/2
f 10/20/1 9/21/1 13/22/1
f 10/19/2 14/23/2 13/17/2
f 13/22/1 14/24/1 10/20/1
f 15/25/3 6/26/3 5/27/3
f 14/16/4 13/14/4 5/28/4
f 5/28/4 6/29/4 14/16/4
f 14/15/3 6/26/3 15/25/3
f 11/30/2 13/17/2 14/23/2
f 14/24/1 13/22/1 11/31/1
f 14/23/2 12/32/2 11/30/2
f 11/31/1 12/33/1 14/24/1
f 15/25/3 13/9/3 14/15/3
