# Blender v2.75 (sub 0) OBJ File: 'Empty.blend'
# www.blender.org
mtllib NW_MISC_WINDMILL_ROTOR_01.mtl
o NW_MISC_WINDMILL_ROTOR_01
v 0.125951 2.120152 -0.025128
v -5.382102 7.457838 0.155013
v -6.895493 5.896138 -0.040363
v -1.387451 0.558451 -0.024906
v 6.558878 -5.766410 -0.004630
v 1.050830 -0.428725 -0.020092
v 5.152880 -7.217289 0.214588
v -2.188570 -0.285780 -0.024961
v -7.660972 -5.660023 0.131867
v -6.246223 -7.100619 -0.020108
v -0.355173 -1.879601 -0.019881
v -0.773808 -1.726377 -0.020893
v 6.182236 7.321719 -0.025529
v 0.852386 1.806068 -0.024738
v 2.295346 0.411715 0.071517
v 7.625196 5.927364 0.060696
v -6.559469 -6.463627 0.423909
v 6.254005 6.758806 0.386806
v 6.507743 6.511993 0.059105
v 6.708306 -6.255202 0.423870
v -6.760485 6.304056 0.386806
v -6.513672 6.557794 0.059105
v -0.202244 0.146956 2.162930
v -0.202244 -0.146936 0.162931
v 0.250010 0.000010 2.162930
v 0.250010 0.000010 0.162931
v -6.305251 -6.709985 0.423870
v 6.461949 -6.509420 0.423909
v -0.202244 -0.146936 2.162930
v -0.202244 0.146956 0.162931
v 6.508224 6.512449 0.386768
v 6.253524 6.758351 0.059144
v -6.514127 6.558274 0.386768
v -6.760029 6.303575 0.059144
v -6.559953 -6.464071 0.096263
v -6.305734 -6.710429 0.096224
v 6.708750 -6.255685 0.096224
v 6.462393 -6.509904 0.096263
v 0.077264 0.237774 2.162930
v 0.077264 0.237774 0.162931
v 0.077264 -0.237754 2.162930
v 0.077264 -0.237754 0.162931
vt 1.000000 -0.077560
vt 0.000000 -0.077560
vt 0.000000 -1.000000
vt 1.000000 -1.000000
vt 5.103091 -0.821856
vt 5.102781 -0.113848
vt -4.103422 -0.178203
vt 5.103094 -0.178125
vt -4.103112 -0.113789
vt -4.103422 -0.821797
vt 0.341715 -0.999501
vt 0.535150 -0.000500
vt 0.341715 -0.000500
vt -0.035150 -0.999501
vt 0.158285 -0.000500
vt -0.035150 -0.000500
vt 0.535150 -0.999501
vt 0.158285 -0.999501
vt 5.102784 -0.886133
vt -4.103112 -0.886211
vt 5.103422 -0.209438
vt -4.102781 -0.135192
vt -4.103112 -0.790516
vt 0.790594 -0.821797
vt 0.790516 -0.113789
vt 0.135192 -0.113848
vt -4.102784 -0.864808
vt 5.103422 -0.790594
vt 5.103091 -0.135269
vt 0.135269 -0.821856
vt -4.103112 -0.209516
vt 0.135269 -0.178125
vt 0.135192 -0.886133
vt 0.790484 -0.886211
vt 0.790562 -0.178203
vt 5.103094 -0.864731
vt 0.750000 -0.999501
vt 0.964850 -0.000500
vt 0.750000 -0.000500
vt 0.964850 -0.999501
vn -0.045500 -0.080500 0.995700
vn 0.045500 0.080500 -0.995700
vn -0.001400 0.001500 1.000000
vn 0.001400 -0.001500 -1.000000
vn 0.053200 0.098600 0.993700
vn -0.053200 -0.098600 -0.993700
vn 0.067100 -0.039300 0.997000
vn -0.067100 0.039300 -0.997000
vn -0.001300 0.001500 1.000000
vn 0.001300 -0.001500 -1.000000
vn -0.034400 0.033400 0.998900
vn 0.034400 -0.033400 -0.998900
vn -0.029900 0.030800 0.999100
vn 0.029900 -0.030800 -0.999100
vn -0.001500 -0.001400 -1.000000
vn 0.001500 0.001400 1.000000
vn -0.309000 -0.951100 0.000000
vn -0.309000 0.951100 -0.000000
vn -1.000000 0.000000 0.000000
vn 0.718100 -0.695900 -0.000100
vn 0.695900 0.718100 -0.002000
vn -0.718100 0.695900 0.000100
vn 0.695900 0.718100 -0.000100
vn -0.718100 0.695900 -0.002000
vn -0.695900 -0.718100 0.000100
vn -0.695900 -0.718100 0.002000
vn 0.718100 -0.695900 0.002000
vn 0.809000 0.587800 -0.000000
vn 0.809000 -0.587800 0.000000
usemtl NW_MISC_WINDMILL_ROTOR_01
s off
f 1/1/1 2/2/1 3/3/1
f 2/2/2 1/1/2 3/3/2
f 3/3/3 4/4/3 1/1/3
f 4/4/4 3/3/4 1/1/4
f 11/3/5 7/4/5 5/1/5
f 7/4/6 11/3/6 5/1/6
f 8/1/7 9/2/7 10/3/7
f 9/2/8 8/1/8 10/3/8
f 5/1/3 6/2/3 11/3/3
f 6/2/4 5/1/4 11/3/4
f 10/3/9 12/4/9 8/1/9
f 12/4/10 10/3/10 8/1/10
f 13/1/11 14/2/11 15/3/11
f 14/2/12 13/1/12 15/3/12
f 15/3/13 16/4/13 13/1/13
f 16/4/14 15/3/14 13/1/14
usemtl NW_CITY_WOOD_01
f 32/5/15 19/6/15 36/7/15
f 27/8/16 31/9/16 18/10/16
f 34/5/4 22/6/4 37/7/4
f 20/8/3 33/9/3 21/10/3
f 24/11/17 41/12/17 29/13/17
f 40/14/18 23/15/18 39/16/18
f 24/11/17 42/17/17 41/12/17
f 40/14/18 30/18/18 23/15/18
f 18/10/16 17/19/16 27/8/16
f 36/7/15 35/20/15 32/5/15
f 21/10/3 28/19/3 20/8/3
f 37/7/4 38/20/4 34/5/4
f 30/18/19 29/13/19 23/15/19
f 30/18/19 24/11/19 29/13/19
f 36/21/20 19/22/20 31/23/20
f 18/24/21 31/25/21 19/26/21
f 17/27/22 18/28/22 32/29/22
f 19/26/21 32/30/21 18/24/21
f 37/21/23 22/22/23 33/23/23
f 21/24/24 33/25/24 22/26/24
f 28/27/25 21/28/25 34/29/25
f 22/26/24 34/30/24 21/24/24
f 32/29/22 35/31/22 17/27/22
f 27/32/26 17/33/26 35/34/26
f 35/34/26 36/35/26 27/32/26
f 31/23/20 27/36/20 36/21/20
f 38/34/27 37/35/27 20/32/27
f 33/23/23 20/36/23 37/21/23
f 34/29/25 38/31/25 28/27/25
f 20/32/27 28/33/27 38/34/27
f 26/37/28 39/38/28 25/39/28
f 26/37/28 40/40/28 39/38/28
f 42/17/29 25/39/29 41/12/29
f 42/17/29 26/37/29 25/39/29
