# Blender v2.75 (sub 0) OBJ File: 'Empty.blend'
# www.blender.org
mtllib NW_MISC_BOARDS_01B.mtl
o NW_MISC_BOARDS_01B
v 1.713175 -0.112021 -0.531036
v -1.944630 -0.112021 -0.345740
v 1.726461 -0.056034 -0.268763
v 2.042444 -0.031494 0.065350
v -1.607736 0.259943 -0.006234
v 2.032605 -0.205005 -0.139335
v -1.617575 0.086432 -0.210918
v -1.740282 0.335180 -0.189652
v 0.432314 0.144243 0.070206
v -1.773055 0.196321 0.037818
v -2.043437 0.030465 0.147864
v 1.240989 0.030465 0.073160
v -2.027282 -0.089617 -0.091619
v 1.224834 -0.089617 0.312643
v 1.237255 -0.087776 -0.168116
v -2.039703 -0.087776 -0.132994
v -2.023625 -0.207858 0.106494
v 0.402218 0.125018 0.307700
v 0.987471 0.147775 0.110060
v -1.205640 0.027693 0.110060
v -1.205640 0.027693 0.350224
v 0.987471 0.147775 0.350224
v 1.722164 -0.087776 0.110060
v -1.940332 -0.087776 0.110060
v 1.722164 -0.087776 0.350224
v -1.940332 -0.087776 0.350224
v -1.935134 0.037813 -0.158287
v 1.221177 -0.087776 -0.407604
v 1.224834 0.030465 0.312643
v 2.042444 -0.088781 -0.167882
v -1.205640 0.147775 0.110060
v 0.987471 0.027693 0.350224
v -1.940332 -0.207858 0.110060
v 1.221177 -0.207858 -0.407604
v 1.237255 -0.207858 -0.168116
v -2.039703 -0.207858 -0.132994
v 1.716965 -0.205867 -0.456216
v 0.987471 0.027693 0.110060
v 2.032605 -0.147717 0.093897
v -1.205640 0.147775 0.350224
v 1.722164 -0.207858 0.110060
v -1.940332 -0.207858 0.350224
v -2.027282 0.030465 -0.091619
v -2.023625 -0.087776 0.106494
v -1.607736 0.202656 -0.239466
v 1.722164 -0.207858 0.350224
v 1.240989 -0.089617 0.073160
v -2.043437 -0.089617 0.147864
v 1.722671 0.037813 -0.343584
v 0.434992 0.263876 0.080229
v -1.940840 -0.205867 -0.270919
v -1.931343 -0.056034 -0.083467
v 0.404896 0.244651 0.317723
v -1.742959 0.215547 -0.199676
v -1.770377 0.315954 0.047842
v -1.617575 0.143719 0.022313
v 0.497636 -0.205867 -0.394447
v -0.712014 -0.056034 -0.145235
v -0.715988 0.037813 -0.220047
v -0.391131 0.162807 0.017625
v 0.816000 -0.050582 0.070038
v -0.400788 0.046569 0.046176
v 0.825657 0.065656 0.041487
v 0.503342 0.037813 -0.281815
v -0.721693 -0.205867 -0.332679
v 0.507315 -0.056034 -0.207004
v -0.390948 0.105505 -0.215603
v 0.825839 0.008355 -0.191741
v -0.320231 0.268420 0.227758
v 0.135519 -0.089617 0.257722
v 0.135356 0.030465 0.257714
v -0.290027 0.287642 -0.009722
v -0.292813 0.168012 -0.019759
v 0.494029 -0.112021 -0.469277
v 0.151674 0.030465 0.018239
v -1.047928 0.172552 0.127783
v 0.151511 -0.089617 0.018231
v -0.954122 0.030465 0.202785
v -1.017941 0.191781 -0.109724
v -1.015154 0.311411 -0.099687
v -0.937967 -0.089617 -0.036698
v -0.937804 0.030465 -0.036690
v -0.953959 -0.089617 0.202793
v -0.952852 -0.207858 -0.224522
v -0.952689 -0.087776 -0.224535
v 0.256398 0.027693 0.110060
v -0.474676 0.027693 0.110060
v -0.719622 -0.207858 0.110060
v 0.501271 -0.207858 0.110060
v 0.501454 -0.087776 0.110060
v -0.719439 -0.087776 0.110060
v -0.474566 0.027693 0.350224
v 0.501454 -0.207858 0.350224
v -0.719439 -0.207858 0.350224
v -0.474676 0.147775 0.350224
v 0.256508 0.027693 0.350224
v -0.474566 0.147775 0.110060
v 0.256508 0.147775 0.110060
v 0.815817 -0.107854 -0.163197
v -0.400970 -0.010704 -0.187059
v 0.256398 0.147775 0.350224
v 0.501271 -0.087776 0.350224
v -0.719622 -0.087776 0.350224
v -1.045359 0.292189 0.137793
v -0.322800 0.148784 0.217748
v 0.150241 -0.087776 -0.076575
v -0.936774 -0.087776 0.014966
v 0.134326 -0.087776 -0.316076
v 0.134163 -0.207858 -0.316063
v -0.936611 -0.207858 0.014953
v 0.150404 -0.207858 -0.076589
v -0.725301 -0.112021 -0.407508
vt 0.600205 -0.000499
vt -0.000205 -0.000499
vt -0.000205 -0.333466
vt 0.600205 -0.333516
vt -0.000205 -0.666483
vt 0.600205 -0.666533
vt -0.000205 -0.999500
vt 0.600205 -0.999501
vt 0.729659 -0.333467
vt 0.429455 -0.333516
vt 0.429455 -0.666533
vt 0.729659 -0.666484
vt 0.429454 -0.999501
vt 0.729659 -0.999501
vt -0.129659 -0.333516
vt 0.170545 -0.333467
vt 0.170545 -0.000499
vt -0.129659 -0.666533
vt 0.170545 -0.666484
vt -0.129659 -0.999500
vt 0.729659 -0.000499
vt 0.429455 -0.000499
vt -0.129659 -0.000499
vt 0.170545 -0.999501
vt -0.000341 -0.249830
vt 1.000342 -0.249830
vt 1.000342 -0.750171
vt -0.000342 -0.750170
vn 0.031600 -0.781500 0.623100
vn -0.031600 0.781500 -0.623100
vn -0.081900 -0.967900 0.237700
vn 0.081900 0.967900 -0.237700
vn -0.022300 -0.996300 -0.083500
vn 0.022300 0.996300 0.083500
vn -0.000000 -1.000000 0.000000
vn -0.000000 1.000000 -0.000000
vn -0.050400 0.000000 0.998700
vn 0.000000 -0.238500 -0.971100
vn 0.000000 0.000000 -1.000000
vn -0.000000 0.000000 1.000000
vn -0.083900 0.000000 -0.996500
vn 0.083900 0.000000 0.996500
vn -0.039500 -0.623900 -0.780500
vn 0.000000 0.238500 0.971100
vn 0.050400 0.000000 -0.998700
vn 0.039500 0.623900 0.780500
vn 0.125300 0.080100 -0.988900
vn -0.125300 -0.080100 0.988900
vn 0.997700 -0.000000 0.067300
vn 0.996600 -0.079600 0.019500
vn -1.000000 -0.000000 0.000000
vn 1.000000 0.000000 0.000000
vn 0.997800 0.000000 -0.067000
vn -0.997800 0.000000 0.067000
vn 0.998700 -0.000000 -0.050600
vn -0.997700 0.000000 -0.067300
vn -0.996600 0.079600 -0.019500
vn 0.991900 -0.032500 0.123100
vn -0.998700 -0.000000 0.050600
vn -0.991900 0.032500 -0.123100
usemtl NW_CITY_WOOD_ORNAMENT_02
s off
f 37/1/1 3/2/1 66/3/1
f 64/4/2 74/3/2 112/5/2
f 6/1/3 39/2/3 61/3/3
f 60/6/4 67/5/4 45/7/4
f 7/8/3 100/6/3 62/5/3
f 45/7/4 5/8/4 60/6/4
f 76/5/5 10/7/5 54/8/5
f 69/4/6 72/3/6 80/5/6
f 48/1/7 13/2/7 81/3/7
f 43/1/8 11/2/8 78/3/8
f 77/5/7 70/6/7 83/4/7
f 71/5/8 75/6/8 82/4/8
f 17/1/7 36/2/7 84/3/7
f 85/4/8 107/3/8 106/5/8
f 76/5/5 79/6/5 73/4/5
f 72/3/6 69/4/6 53/1/6
f 92/5/7 87/6/7 86/4/7
f 31/7/8 40/8/8 95/6/8
f 95/6/8 97/5/8 31/7/8
f 38/1/7 32/2/7 96/3/7
f 102/4/8 90/3/8 91/5/8
f 93/3/7 89/4/7 41/1/7
f 91/5/8 103/6/8 102/4/8
f 89/4/7 93/3/7 94/5/7
f 112/5/2 59/6/2 64/4/2
f 58/5/1 65/6/1 57/4/1
f 106/5/8 108/6/8 85/4/8
f 109/5/7 111/6/7 110/4/7
f 78/9/9 83/10/9 70/11/9
f 67/12/10 100/11/10 7/13/10
f 20/13/11 31/14/11 97/12/11
f 101/15/12 96/16/12 32/17/12
f 88/11/11 91/12/11 90/9/11
f 84/16/13 85/15/13 108/18/13
f 111/11/14 106/12/14 107/9/14
f 85/15/13 84/16/13 36/17/13
f 74/9/15 57/10/15 65/11/15
f 98/9/11 86/10/11 87/11/11
f 63/15/16 61/16/16 39/17/16
f 92/19/12 95/18/12 40/20/12
f 23/21/11 41/22/11 89/10/11
f 103/18/12 94/19/12 93/16/12
f 82/15/17 81/16/17 13/17/17
f 107/9/14 110/10/14 111/11/14
f 7/13/10 45/14/10 67/12/10
f 93/16/12 102/15/12 103/18/12
f 81/16/17 82/15/17 75/18/17
f 83/10/9 78/9/9 11/21/9
f 64/15/18 66/16/18 3/17/18
f 72/9/19 73/10/19 79/11/19
f 65/11/15 112/12/15 74/9/15
f 66/16/18 64/15/18 59/18/18
f 18/17/20 53/23/20 69/15/20
f 79/11/19 80/12/19 72/9/19
f 55/20/20 10/24/20 76/19/20
f 62/19/16 60/18/16 5/20/16
f 1/21/15 37/22/15 57/10/15
f 66/3/1 57/4/1 37/1/1
f 58/5/1 52/7/1 51/8/1
f 27/20/18 52/24/18 58/19/18
f 2/7/2 27/8/2 59/6/2
f 58/19/18 59/18/18 27/20/18
f 61/16/16 63/15/16 60/18/16
f 67/5/4 60/6/4 63/4/4
f 99/4/3 61/3/3 62/5/3
f 60/18/16 62/19/16 61/16/16
f 62/5/3 56/7/3 7/8/3
f 5/20/16 56/24/16 62/19/16
f 39/17/16 4/23/16 63/15/16
f 68/3/4 63/4/4 4/1/4
f 3/17/18 49/23/18 64/15/18
f 74/3/2 64/4/2 49/1/2
f 51/8/1 65/6/1 58/5/1
f 112/12/15 65/11/15 51/13/15
f 57/4/1 66/3/1 58/5/1
f 59/18/18 58/19/18 66/16/18
f 100/11/10 67/12/10 68/9/10
f 63/4/4 68/3/4 67/5/4
f 99/10/10 68/9/10 30/21/10
f 4/1/4 30/2/4 68/3/4
f 105/16/20 69/15/20 104/18/20
f 80/5/6 104/6/6 69/4/6
f 14/8/7 70/6/7 77/5/7
f 71/12/9 70/11/9 14/13/9
f 75/6/8 71/5/8 29/7/8
f 14/13/9 29/14/9 71/12/9
f 73/10/19 72/9/19 50/21/19
f 53/1/6 50/2/6 72/3/6
f 50/21/19 9/22/19 73/10/19
f 105/3/5 73/4/5 9/1/5
f 57/10/15 74/9/15 1/21/15
f 49/1/2 1/2/2 74/3/2
f 29/7/8 12/8/8 75/6/8
f 77/19/17 75/18/17 12/20/17
f 69/15/20 105/16/20 18/17/20
f 9/1/5 18/2/5 105/3/5
f 77/5/7 47/7/7 14/8/7
f 12/20/17 47/24/17 77/19/17
f 70/11/9 71/12/9 78/9/9
f 82/4/8 78/3/8 71/5/8
f 54/8/5 79/6/5 76/5/5
f 80/12/19 79/11/19 54/13/19
f 104/6/6 80/5/6 8/7/6
f 54/13/19 8/14/19 80/12/19
f 83/4/7 81/3/7 77/5/7
f 75/18/17 77/19/17 81/16/17
f 13/17/17 43/23/17 82/15/17
f 78/3/8 82/4/8 43/1/8
f 11/21/9 48/22/9 83/10/9
f 81/3/7 83/4/7 48/1/7
f 110/4/7 84/3/7 109/5/7
f 108/18/13 109/19/13 84/16/13
f 36/17/13 16/23/13 85/15/13
f 107/3/8 85/4/8 16/1/8
f 19/21/11 38/22/11 86/10/11
f 96/3/7 86/4/7 38/1/7
f 20/8/7 87/6/7 92/5/7
f 97/12/11 87/11/11 20/13/11
f 33/8/7 88/6/7 94/5/7
f 91/12/11 88/11/11 33/13/11
f 94/5/7 88/6/7 89/4/7
f 90/9/11 89/10/11 88/11/11
f 89/10/11 90/9/11 23/21/11
f 25/1/8 23/2/8 90/3/8
f 103/6/8 91/5/8 24/7/8
f 33/13/11 24/14/11 91/12/11
f 92/5/7 21/7/7 20/8/7
f 40/20/12 21/24/12 92/19/12
f 41/1/7 46/2/7 93/3/7
f 102/15/12 93/16/12 46/17/12
f 94/5/7 42/7/7 33/8/7
f 26/20/12 42/24/12 94/19/12
f 98/3/8 101/4/8 22/1/8
f 32/17/12 22/23/12 101/15/12
f 86/4/7 96/3/7 92/5/7
f 95/18/12 92/19/12 96/16/12
f 87/11/11 97/12/11 98/9/11
f 101/4/8 98/3/8 97/5/8
f 86/10/11 98/9/11 19/21/11
f 22/1/8 19/2/8 98/3/8
f 30/21/10 6/22/10 99/10/10
f 61/3/3 99/4/3 6/1/3
f 62/5/3 100/6/3 99/4/3
f 68/9/10 99/10/10 100/11/10
f 96/16/12 101/15/12 95/18/12
f 97/5/8 95/6/8 101/4/8
f 46/17/12 25/23/12 102/15/12
f 90/3/8 102/4/8 25/1/8
f 24/7/8 26/8/8 103/6/8
f 94/19/12 103/18/12 26/20/12
f 8/7/6 55/8/6 104/6/6
f 76/19/20 104/18/20 55/20/20
f 73/4/5 105/3/5 76/5/5
f 104/18/20 76/19/20 105/16/20
f 108/6/8 106/5/8 15/7/8
f 35/13/14 15/14/14 106/12/14
f 110/10/14 107/9/14 44/21/14
f 16/1/8 44/2/8 107/3/8
f 15/7/8 28/8/8 108/6/8
f 109/19/13 108/18/13 28/20/13
f 109/5/7 34/7/7 35/8/7
f 28/20/13 34/24/13 109/19/13
f 44/21/14 17/22/14 110/10/14
f 84/3/7 110/4/7 17/1/7
f 35/8/7 111/6/7 109/5/7
f 106/12/14 111/11/14 35/13/14
f 59/6/2 112/5/2 2/7/2
f 51/13/15 2/14/15 112/12/15
usemtl NW_NATURE_BARKRINGS_02
f 12/25/21 29/26/21 14/27/21
f 39/28/22 6/27/22 30/26/22
f 40/25/23 31/26/23 20/27/23
f 19/26/24 22/25/24 32/28/24
f 26/25/23 24/26/23 33/27/23
f 35/27/25 34/28/25 28/25/25
f 28/25/25 15/26/25 35/27/25
f 44/26/26 16/25/26 36/28/26
f 3/28/27 37/27/27 1/26/27
f 32/28/24 38/27/24 19/26/24
f 30/26/22 4/25/22 39/28/22
f 20/27/23 21/28/23 40/25/23
f 46/28/24 41/27/24 23/26/24
f 33/27/23 42/28/23 26/25/23
f 11/26/28 43/25/28 13/28/28
f 36/28/26 17/27/26 44/26/26
f 5/25/29 45/26/29 7/27/29
f 23/26/24 25/25/24 46/28/24
f 14/27/21 47/28/21 12/25/21
f 13/28/28 48/27/28 11/26/28
f 1/26/27 49/25/27 3/28/27
f 18/28/30 9/27/30 50/26/30
f 27/25/31 2/26/31 51/27/31
f 51/27/31 52/28/31 27/25/31
f 50/26/30 53/25/30 18/28/30
f 55/25/32 8/26/32 54/27/32
f 54/27/32 10/28/32 55/25/32
f 7/27/29 56/28/29 5/25/29
