# Blender v2.75 (sub 0) OBJ File: 'Empty.blend'
# www.blender.org
mtllib NW_MISC_SIGN_01.mtl
o NW_MISC_SIGN_01
v 0.025010 1.029856 -0.426581
v 0.025010 1.179856 0.339670
v -0.024990 0.879856 0.339670
v -0.024990 0.879856 -0.260330
v 0.025010 1.179856 -0.260330
v 0.035365 1.250010 0.411916
v 0.000010 -1.249990 0.426561
v 0.035365 -1.249990 0.341205
v 0.035365 1.250010 0.341205
v -0.049990 -1.249990 0.376561
v -0.035345 1.250010 0.411916
v -0.035345 1.250010 0.341205
v 0.025010 0.879856 -0.260330
v 0.025010 0.879856 0.339670
v -0.024990 1.029856 -0.426581
v -0.024990 1.179856 -0.260330
v -0.024990 1.179856 0.339670
v 0.035365 -1.249990 0.411916
v -0.035345 -1.249990 0.341205
v 0.000010 1.250010 0.426561
v 0.000010 1.250010 0.326561
v -0.049990 1.250010 0.376561
v -0.035345 -1.249990 0.411916
v 0.000010 -1.249990 0.326561
v 0.050010 1.250010 0.376561
v 0.050010 -1.249990 0.376561
vt 0.000500 -0.999501
vt 0.999501 -0.999501
vt 0.000500 -0.217250
vt 0.999501 -0.217250
vt 0.500000 -0.000499
vt 0.625000 -0.999001
vt 0.750000 -0.999001
vt 0.750000 0.999001
vt -0.000000 -0.999001
vt 0.125000 -0.999001
vt 0.125000 0.999001
vt 0.625000 0.999001
vt 0.375000 0.999001
vt 0.250000 0.999001
vt 0.250000 -0.999001
vt 0.375000 -0.999001
vt 0.500000 -0.999001
vt 0.500000 0.999001
vt 0.853200 -0.853200
vt 0.999501 -0.500000
vt 0.500000 -0.999501
vt -0.000000 0.999001
vt 0.000500 -0.500000
vt 0.583333 -0.999501
vt 0.583333 -0.217250
vt 0.416667 -0.217250
vt 0.583333 -0.000499
vt 0.416667 -0.999501
vt 0.416667 -0.000499
vt 0.146800 -0.853200
vt 1.000000 0.999001
vt 0.875000 0.999001
vt 0.875000 -0.999001
vt 0.146800 -0.146800
vt 1.000000 -0.999001
vt 0.853200 -0.146800
vn -1.000000 0.000000 0.000000
vn 1.000000 -0.000000 -0.000000
vn 0.923900 0.000000 0.382700
vn -0.382700 0.000000 -0.923900
vn -0.923900 0.000000 0.382700
vn -0.382700 0.000000 0.923900
vn 0.000000 1.000000 0.000000
vn 0.382700 0.000000 0.923900
vn 0.000000 -1.000000 0.000000
vn 0.000000 -0.742500 -0.669900
vn 0.000000 0.742500 -0.669900
vn -0.923900 0.000000 -0.382700
vn 0.382700 0.000000 -0.923900
vn 0.923900 0.000000 -0.382700
usemtl NW_CITY_WOOD_ORNAMENT_02
s off
f 3/1/1 17/2/1 4/3/1
f 14/2/2 5/3/2 2/1/2
f 4/3/1 17/2/1 16/4/1
f 14/2/2 13/4/2 5/3/2
f 5/3/2 13/4/2 1/5/2
f 15/5/1 4/3/1 16/4/1
f 18/6/3 26/7/3 25/8/3
f 24/9/4 19/10/4 12/11/4
f 25/8/3 6/12/3 18/6/3
f 11/13/5 22/14/5 10/15/5
f 23/16/6 7/17/6 20/18/6
f 6/19/7 25/20/7 20/21/7
f 6/12/8 20/18/8 7/17/8
f 12/11/4 21/22/4 24/9/4
f 21/5/7 22/23/7 20/21/7
f 3/24/9 4/25/9 13/26/9
f 13/26/10 4/25/10 15/27/10
f 13/26/9 14/28/9 3/24/9
f 15/27/10 1/29/10 13/26/10
f 15/29/11 5/25/11 1/27/11
f 2/24/7 5/25/7 16/26/7
f 5/25/11 15/29/11 16/26/11
f 16/26/7 17/28/7 2/24/7
f 7/17/8 18/6/8 6/12/8
f 19/10/12 10/15/12 22/14/12
f 20/18/6 11/13/6 23/16/6
f 22/23/7 11/30/7 20/21/7
f 21/31/13 9/32/13 8/33/13
f 25/20/7 21/5/7 20/21/7
f 22/14/12 12/11/12 19/10/12
f 21/5/7 12/34/7 22/23/7
f 10/15/5 23/16/5 11/13/5
f 8/33/13 24/35/13 21/31/13
f 9/32/14 25/8/14 26/7/14
f 25/20/7 9/36/7 21/5/7
f 26/7/14 8/33/14 9/32/14
