# Blender v2.75 (sub 0) OBJ File: 'Empty.blend'
# www.blender.org
mtllib NW_MISC_BOARDS_02C.mtl
o NW_MISC_BOARDS_02C
v 0.727034 0.970632 0.225616
v 0.424349 -1.192745 0.030885
v 0.987900 0.929746 0.274355
v 0.282468 -1.192717 -0.101902
v 0.743072 0.673321 0.043356
v 0.328117 -1.216770 0.161605
v -1.007984 -1.011751 0.208592
v 0.914454 -1.275541 0.296241
v -1.009192 -1.259363 0.312443
v 0.685215 -1.233631 0.079623
v 0.555929 -1.206116 -0.157811
v 0.744092 0.962016 0.113366
v 1.009858 0.943117 0.080059
v 0.916603 -1.035918 0.312202
v 0.675543 0.672049 0.273828
v 0.166495 -1.213330 -0.470717
v 0.873886 1.262993 -0.189792
v 0.180398 -1.244273 -0.232961
v 0.887789 1.232050 0.047964
v 0.756306 -1.206947 -0.290201
v 0.629894 0.696102 0.010321
v 0.956410 0.944497 0.159418
v 0.395646 -1.215498 -0.068866
v 0.944469 0.961184 -0.019024
v 0.621318 -1.224183 -0.058728
v 0.821695 -1.225015 -0.191118
v 0.066733 -1.207281 -0.221500
v 0.214939 -1.193989 0.128569
v 0.915661 -1.027929 0.192390
v 0.987552 1.226001 -0.201253
v 0.913512 -1.267552 0.176429
v -1.007042 -1.019740 0.328404
v 0.758524 0.955880 0.340553
v 0.455839 -1.207497 0.145822
v 0.052830 -1.176337 -0.459256
v 0.562365 0.694830 0.240792
v -1.010134 -1.251374 0.192631
v 0.653725 -1.218879 -0.035313
v 0.809481 0.943948 0.212449
v 1.001455 1.195057 0.036503
v 0.326529 -0.363186 -0.369430
v 0.947134 0.220370 -0.010338
v 0.881754 0.238546 -0.109407
v 0.330736 -0.564446 0.165973
v 0.626134 0.249470 0.160703
v 0.884410 -0.502377 -0.100734
v 0.511443 -0.585954 -0.031462
v 0.398282 -0.563079 -0.064493
v 0.786100 -0.512577 0.144527
v 0.887000 0.208584 0.209441
v -0.365795 -1.025133 0.323003
v 0.274414 -1.022536 0.197791
v 0.600228 0.449964 -0.279604
v 0.440153 -0.400301 -0.380905
v 0.713853 0.412850 -0.291079
v 0.727797 0.382028 -0.053310
v -0.368887 -1.256767 0.187230
v 0.446551 0.065192 0.203382
v 0.627257 0.043684 0.005947
v 0.559746 0.042506 0.236424
v 0.525234 -0.471692 0.095789
v 0.819030 -0.484201 -0.199804
v 0.614090 0.418899 -0.041862
v 0.514097 0.066559 -0.027083
v 0.340391 -0.394252 -0.131688
v 0.454098 -0.431123 -0.143135
v 0.272361 -1.262160 0.181829
v 0.618644 -0.483478 -0.067428
v 0.681368 0.239269 0.022969
v 0.746766 0.221310 0.122065
v 0.684042 -0.501437 0.031669
v 0.443932 -0.587132 0.199014
v -0.366833 -1.017143 0.203192
v 0.275452 -1.030526 0.317602
v 0.273206 -1.270148 0.301642
v -0.368041 -1.264755 0.307043
v 0.754625 -0.497718 0.029601
v 0.855525 0.223444 0.094514
v 0.556739 -0.486335 0.210735
v 0.657639 0.234826 0.275649
vt -0.000205 -0.666483
vt 0.600205 -0.666533
vt 0.600205 -0.333516
vt -0.000205 -0.333466
vt -0.000205 -0.999501
vt 0.600205 -0.999501
vt 0.600205 -0.000499
vt -0.000205 -0.000499
vt 0.729659 -0.333467
vt 0.429455 -0.333516
vt 0.429455 -0.666533
vt -0.129659 -0.666533
vt 0.170545 -0.666484
vt 0.170545 -0.333467
vt 0.729659 -0.000499
vt -0.129659 -0.999500
vt 0.170545 -0.999501
vt 0.429455 -0.000499
vt 0.729659 -0.666484
vt 0.170545 -0.000499
vt -0.129659 -0.000499
vt -0.129659 -0.333516
vt 0.429454 -0.999501
vt 0.729659 -0.999501
vt -0.000342 -0.750170
vt 1.000341 -0.750170
vt 1.000341 -0.249830
vt -0.000341 -0.249830
vn 0.262200 -0.122800 0.957200
vn -0.262200 0.122800 -0.957200
vn 0.946600 -0.308100 -0.095400
vn -0.946600 0.308100 0.095400
vn 0.955100 -0.108800 -0.275600
vn 0.057900 -0.128800 0.990000
vn -0.057900 0.128800 -0.990000
vn -0.955100 0.108800 0.275600
vn 0.942500 -0.189700 0.275100
vn -0.942500 0.189700 -0.275100
vn 0.007800 -0.066500 0.997800
vn -0.007800 0.066500 -0.997800
vn 0.544500 -0.150500 0.825100
vn -0.544500 0.150500 -0.825100
vn 0.281200 0.005300 -0.959600
vn 0.834300 -0.003500 -0.551200
vn -0.834300 0.003500 0.551200
vn -0.281200 -0.005300 0.959600
vn 0.009000 0.997700 0.066500
vn -0.009000 -0.997700 -0.066500
vn 0.180600 0.981800 0.058300
vn 0.138000 0.986400 0.088800
vn -0.180600 -0.981800 -0.058300
vn 0.085800 0.988600 0.123600
vn -0.085800 -0.988600 -0.123700
vn -0.085800 -0.988600 -0.123600
vn -0.317300 -0.942600 -0.104100
vn 0.999900 -0.008400 -0.008400
vn 0.317300 0.942600 0.104100
vn -0.999900 0.008400 0.008400
vn -0.138000 -0.986400 -0.088800
usemtl NW_CITY_RICH_BLACKWOOD_01
s off
f 79/1/1 49/2/1 50/3/1
f 45/3/2 78/4/2 77/1/2
f 79/1/1 34/5/1 10/6/1
f 38/5/2 2/6/2 61/2/2
f 18/7/3 16/8/3 54/4/3
f 65/4/4 41/3/4 35/7/4
f 41/3/4 65/4/4 63/1/4
f 30/5/3 40/6/3 56/2/3
f 78/9/5 50/10/5 49/11/5
f 56/12/6 63/13/6 65/14/6
f 41/10/7 54/9/7 16/15/7
f 79/13/8 61/12/8 2/16/8
f 2/16/8 34/17/8 79/13/8
f 16/15/7 35/18/7 41/10/7
f 49/11/5 77/19/5 78/9/5
f 63/13/6 56/12/6 40/16/6
f 63/1/4 53/2/4 41/3/4
f 54/9/7 41/10/7 53/11/7
f 33/20/8 1/21/8 45/22/8
f 78/4/2 45/3/2 1/7/2
f 10/6/1 49/2/1 79/1/1
f 77/19/5 49/11/5 10/23/5
f 22/15/5 3/18/5 50/10/5
f 80/4/1 50/3/1 3/7/1
f 17/6/4 53/2/4 63/1/4
f 55/19/7 53/11/7 17/23/7
f 53/11/7 55/19/7 54/9/7
f 66/3/3 54/4/3 55/1/3
f 56/2/3 55/1/3 30/5/3
f 17/23/7 30/24/7 55/19/7
f 65/14/6 66/22/6 56/12/6
f 55/1/3 56/2/3 66/3/3
f 80/14/8 45/22/8 61/12/8
f 77/1/2 61/2/2 45/3/2
f 63/1/4 19/5/4 17/6/4
f 40/16/6 19/17/6 63/13/6
f 35/7/4 27/8/4 65/4/4
f 66/22/6 65/14/6 27/20/6
f 27/20/6 18/21/6 66/22/6
f 54/4/3 66/3/3 18/7/3
f 61/2/2 77/1/2 38/5/2
f 10/23/5 38/24/5 77/19/5
f 50/10/5 78/9/5 22/15/5
f 1/7/2 22/8/2 78/4/2
f 45/22/8 80/14/8 33/20/8
f 3/7/1 33/8/1 80/4/1
f 50/3/1 80/4/1 79/1/1
f 61/12/8 79/13/8 80/14/8
usemtl NW_CITY_WOOD_ORNAMENT_02
f 72/1/9 6/5/9 23/6/9
f 48/1/10 44/2/10 58/3/10
f 51/1/11 32/5/11 9/6/11
f 57/1/12 73/2/12 52/3/12
f 39/6/13 70/2/13 42/1/13
f 69/1/14 43/2/14 62/3/14
f 74/4/11 75/3/11 8/7/11
f 52/3/12 67/4/12 57/1/12
f 72/1/9 47/2/9 59/3/9
f 58/3/10 64/4/10 48/1/10
f 20/7/14 11/8/14 68/4/14
f 25/7/13 26/8/13 46/4/13
f 64/9/15 59/10/15 47/11/15
f 47/11/15 48/19/15 64/9/15
f 46/14/16 62/22/16 43/12/16
f 71/10/17 68/9/17 11/15/17
f 62/22/16 46/14/16 26/20/16
f 28/16/18 6/17/18 72/13/18
f 74/14/19 52/22/19 73/12/19
f 31/15/20 8/18/20 75/10/20
f 7/16/19 32/17/19 51/13/19
f 60/14/18 58/22/18 44/12/18
f 76/11/20 57/19/20 67/9/20
f 69/19/17 70/11/17 39/23/17
f 42/1/13 13/5/13 39/6/13
f 24/16/16 13/17/16 42/13/16
f 12/5/14 24/6/14 43/2/14
f 42/13/16 43/12/16 24/16/16
f 4/5/10 28/6/10 44/2/10
f 72/13/18 44/12/18 28/16/18
f 71/3/13 46/4/13 42/1/13
f 43/12/16 42/13/16 46/14/16
f 23/6/9 47/2/9 72/1/9
f 48/19/15 47/11/15 23/23/15
f 44/2/10 48/1/10 4/5/10
f 23/23/15 4/24/15 48/19/15
f 52/22/19 74/14/19 14/20/19
f 8/7/11 14/8/11 74/4/11
f 14/20/19 29/21/19 52/22/19
f 67/4/12 52/3/12 29/7/12
f 73/2/12 57/1/12 37/5/12
f 9/23/20 37/24/20 57/19/20
f 15/20/18 36/21/18 58/22/18
f 64/4/10 58/3/10 36/7/10
f 21/15/15 5/18/15 59/10/15
f 60/4/9 59/3/9 5/7/9
f 5/7/9 15/8/9 60/4/9
f 58/22/18 60/14/18 15/20/18
f 26/20/16 20/21/16 62/22/16
f 68/4/14 62/3/14 20/7/14
f 59/10/15 64/9/15 21/15/15
f 36/7/10 21/8/10 64/4/10
f 75/10/20 67/9/20 31/15/20
f 29/7/12 31/8/12 67/4/12
f 70/11/17 69/19/17 68/9/17
f 62/3/14 68/4/14 69/1/14
f 43/2/14 69/1/14 12/5/14
f 39/23/17 12/24/17 69/19/17
f 46/4/13 71/3/13 25/7/13
f 11/15/17 25/18/17 71/10/17
f 42/1/13 70/2/13 71/3/13
f 68/9/17 71/10/17 70/11/17
f 59/3/9 60/4/9 72/1/9
f 44/12/18 72/13/18 60/14/18
f 37/5/12 7/6/12 73/2/12
f 51/13/19 73/12/19 7/16/19
f 75/3/11 74/4/11 51/1/11
f 73/12/19 51/13/19 74/14/19
f 51/1/11 76/2/11 75/3/11
f 67/9/20 75/10/20 76/11/20
f 9/6/11 76/2/11 51/1/11
f 57/19/20 76/11/20 9/23/20
usemtl NW_NATURE_BARKRINGS_02
f 15/25/21 5/26/21 21/27/21
f 33/25/22 3/26/22 22/27/22
f 28/28/23 4/27/23 23/26/23
f 39/26/24 13/25/24 24/28/24
f 26/25/25 25/26/25 11/27/25
f 11/27/26 20/28/26 26/25/26
f 16/27/27 18/28/27 27/25/27
f 23/26/23 6/25/23 28/28/23
f 31/27/28 29/28/28 14/25/28
f 40/28/29 30/27/29 17/26/29
f 14/25/28 8/26/28 31/27/28
f 9/26/30 32/25/30 7/28/30
f 22/27/22 1/28/22 33/25/22
f 10/26/31 34/25/31 2/28/31
f 27/25/27 35/26/27 16/27/27
f 21/27/21 36/28/21 15/25/21
f 7/28/30 37/27/30 9/26/30
f 2/28/31 38/27/31 10/26/31
f 24/28/24 12/27/24 39/26/24
f 17/26/29 19/25/29 40/28/29
