# Blender v2.75 (sub 0) OBJ File: 'Empty.blend'
# www.blender.org
mtllib NW_MISC_CAVE_BOARDING_01.mtl
o NW_MISC_CAVE_BOARDING_01
v 0.799990 -3.199835 -0.250006
v 0.800064 0.199639 0.249990
v 0.800189 3.200087 0.249992
v 4.800011 -2.199835 -0.250008
v 0.799951 0.200087 -0.250018
v -4.799989 -2.199835 -0.250008
v -0.799867 0.200087 -0.250016
v -0.799750 -3.199835 -0.250005
v -0.799869 0.199639 0.249984
v -0.799994 -3.200067 0.249989
v 0.799752 -3.200067 0.249996
v 0.800069 -2.199835 -0.250012
v -0.799994 -2.200067 0.249984
v 0.799752 -2.200067 0.249990
v 0.799753 3.200087 -0.250008
v -4.799991 -3.199835 0.249998
v 4.800009 -2.199835 0.249992
v -4.799989 -3.199835 -0.250003
v 4.800011 -3.199835 -0.250003
v 4.800009 -3.199835 0.249998
v -0.799986 3.200087 -0.250006
v -0.799750 -2.199835 -0.250010
v -4.799991 3.200087 0.249994
v -0.799738 3.200087 0.249993
v -4.799989 3.200087 -0.250006
v 4.800011 3.200087 -0.250006
v 4.800009 3.200087 0.249994
v -4.799991 -2.199835 0.249992
vt 0.989264 -1.001109
vt 0.989264 0.000405
vt 0.098481 -0.556083
vt 0.107121 0.000842
vt 0.211722 0.000999
vt 0.211721 -1.001843
vt 0.098468 -1.001109
vt 0.098468 -0.556000
vt 1.219807 -0.264423
vt 0.103865 -0.264423
vt 0.103865 -0.735577
vt 0.098459 0.000405
vt 0.098460 -1.001152
vt 0.108587 -0.665428
vt 0.108587 -0.325917
vt 0.214698 -0.325893
vt 0.098459 -1.186577
vt 0.107122 -1.001924
vt 0.214696 -0.665429
vt 0.107121 -1.187214
vt 0.211719 -1.187133
vt 0.989264 -1.186577
vt 1.219807 -0.735577
vn -0.000000 -0.000000 1.000000
vn -1.000000 -0.000000 0.000200
vn 0.000000 -0.000000 -1.000000
vn -0.000000 -1.000000 -0.000900
vn 1.000000 -0.000100 0.000000
vn 1.000000 0.000000 0.000500
vn -1.000000 0.000100 -0.000600
vn -1.000000 -0.000000 -0.000500
usemtl NW_HARBOUR_WOODCRATE_02
s off
f 17/1/1 27/2/1 2/3/1
f 2/4/2 5/5/2 12/6/2
f 4/1/3 12/7/3 5/8/3
f 24/9/1 9/10/1 2/11/1
f 25/2/3 21/12/3 7/8/3
f 9/3/1 28/1/1 13/13/1
f 5/11/3 7/10/3 21/9/3
f 7/14/4 5/15/4 2/16/4
f 6/1/3 22/7/3 8/17/3
f 7/5/5 9/4/5 13/18/5
f 2/16/4 9/19/4 7/14/4
f 10/20/6 8/21/6 22/6/6
f 12/6/7 14/18/7 2/4/7
f 12/7/3 4/1/3 19/22/3
f 14/18/7 12/6/7 1/21/7
f 13/13/1 28/1/1 16/22/1
f 22/6/6 13/18/6 10/20/6
f 17/1/1 2/3/1 14/13/1
f 1/21/8 11/20/8 14/18/8
f 4/1/3 5/8/3 26/2/3
f 16/22/1 10/17/1 13/13/1
f 17/1/1 14/13/1 11/17/1
f 8/17/3 18/22/3 6/1/3
f 19/22/3 1/17/3 12/7/3
f 11/17/1 20/22/1 17/1/1
f 21/9/3 15/23/3 5/11/3
f 22/7/3 6/1/3 7/8/3
f 13/18/6 22/6/6 7/5/6
f 2/11/1 3/23/1 24/9/1
f 24/12/1 23/2/1 9/3/1
f 7/8/3 6/1/3 25/2/3
f 5/8/3 15/12/3 26/2/3
f 27/2/1 3/12/1 2/3/1
f 23/2/1 28/1/1 9/3/1
