# Blender v2.75 (sub 0) OBJ File: 'Empty.blend'
# www.blender.org
mtllib NW_MISC_MINE_ENTRANCE_01.mtl
o NW_MISC_MINE_ENTRANCE_01
v -2.045952 1.819359 -3.645614
v 1.835009 1.581691 -3.607671
v -2.129337 1.741054 -1.812776
v 1.984269 1.585584 -1.860228
v 1.873237 1.396019 -1.171202
v -1.958399 1.360199 0.224303
v -2.009159 1.620545 -1.150512
v -1.923375 1.360623 0.175805
v 1.989438 1.308976 0.173488
v -2.054637 1.334860 1.568993
v 1.892714 1.326608 0.169464
v 2.013345 1.337516 1.419309
v -2.032600 1.560932 2.606100
v 1.967400 1.476658 3.647926
v 1.847665 1.338590 2.448893
v -2.032600 1.470160 3.647926
v -1.923375 1.585841 2.578194
v 1.989437 1.360932 2.382795
v -2.054637 1.322450 1.579388
v 2.013345 1.360932 1.444700
v -2.124068 1.508948 -1.854869
v 2.083856 1.456063 -1.921610
v 2.103332 1.383753 -1.184055
v 1.270564 1.214173 2.971924
v 1.389264 -2.012065 3.584480
v 1.901331 -2.012065 3.096845
v -1.401715 1.214173 3.424020
v -2.012547 -2.012065 3.438853
v -1.527600 -2.012065 2.924240
v -1.393862 1.214173 -0.512738
v -1.393862 -2.012065 -0.512738
v -1.893862 -2.012065 -0.012738
v 1.263522 1.214173 0.016555
v 1.885445 -2.012065 0.049692
v 1.419681 -2.012065 -0.482346
v -2.073308 1.425481 -1.193038
v -1.606773 0.845826 3.344684
v 1.454570 0.830579 3.337754
v 1.451436 1.315104 3.053010
v -1.594945 1.422929 -0.390943
v 1.441715 0.802936 -0.390944
v 1.464291 1.302534 -0.134533
v -1.803707 1.322672 3.029015
v -1.755638 1.383529 -0.176173
v -1.548133 0.823075 3.059634
v -1.617521 0.923332 -0.134533
v -1.609315 1.345099 3.315925
v 1.716647 0.845826 3.107426
v 1.431187 0.815831 -0.099598
v 1.687823 1.345099 3.109063
v 1.402363 1.315104 -0.097962
v -1.756347 0.883931 -0.153608
v -1.547423 1.330951 -0.358148
v -1.925535 1.724294 -3.541261
v -1.548133 0.831583 -0.385315
v 1.716647 0.849475 -0.335499
v 1.343298 1.147499 -3.583597
v 1.687823 1.346117 -0.284283
v 1.258348 1.214173 3.471775
v -1.393862 1.214173 -0.012738
v -1.416548 1.214173 2.924240
v 1.296659 1.214173 -0.482346
v 1.314473 1.547629 -3.532381
v -1.926244 1.354392 -3.568428
v -1.393862 -2.012065 -0.012738
v -1.893862 1.214173 -0.012738
v -1.893862 1.214173 -0.512738
v -1.893862 -2.012065 -0.512738
v -1.512767 -2.012065 3.424020
v 1.386545 -2.012065 0.016555
v -2.027380 -2.012065 2.939073
v 1.918582 -2.012065 -0.449209
v 1.401480 -2.012065 3.084629
v 1.889114 -2.012065 3.596696
v 1.762423 1.214173 0.049691
v -1.901495 1.214173 3.438853
v -1.916328 1.214173 2.939073
v 1.795560 1.214173 -0.449209
v 1.770415 1.214173 2.984140
v 1.758199 1.214173 3.483991
v -1.923375 1.322450 2.578194
v -2.054637 1.585841 1.579388
v -1.547423 1.322672 3.037069
v 1.441715 0.802936 -0.134533
v -1.594945 1.422929 -0.134533
v -1.617521 0.923332 -0.390944
v 1.464291 1.302534 -0.390944
v 1.452029 1.329852 3.308995
v 1.453978 0.815831 3.081769
v -1.609907 1.330351 3.059940
v -1.607365 0.831078 3.088699
v -1.499354 1.383529 -0.168119
v -1.500063 0.883931 -0.145554
v -1.804416 0.823075 3.051580
v 1.687064 0.830579 -0.092150
v 1.658240 1.329852 -0.090513
v 1.460770 0.831078 3.099977
v 1.431946 1.330351 3.101614
v 1.460770 0.835539 -0.344376
v 1.431946 1.332181 -0.293160
v 1.599175 1.158726 -3.574720
v -1.669961 1.353799 -3.560413
v -1.669252 1.723702 -3.533247
v -1.804416 0.832383 -0.393329
v -1.803707 1.331751 -0.366162
v 1.570351 1.558856 -3.523504
v 1.847665 1.538590 2.448893
v -2.032600 1.360932 2.606100
v -2.009159 1.427819 -1.168885
v -2.016115 1.643861 -1.239892
v 1.873237 1.580533 -1.161203
v -2.186530 1.522673 -1.930230
v -1.958399 1.578580 0.177448
v -1.988758 2.012085 -3.627240
v 1.892714 1.536777 0.125879
v -1.923375 1.511828 0.194179
v -2.066875 1.701674 -1.763095
v 1.989438 1.451969 0.183487
v 2.013345 1.504274 1.444700
v 1.989437 1.504274 2.382795
v -2.032600 1.312007 3.606100
v 1.967400 1.318506 3.606100
v 2.103332 1.526625 -1.227640
v 1.984269 1.442711 -1.921247
v 2.013345 1.480509 1.375724
v -2.054637 1.486064 1.522139
v 1.835009 1.698909 -3.597672
v 2.083856 1.573280 -1.838211
vt 0.000000 -1.000000
vt 1.000000 -1.000000
vt 1.000000 -0.000000
vt 0.000000 -0.000000
vt 0.000500 -0.999500
vt 0.999500 -0.999500
vt 0.999500 -0.000500
vt 0.000500 -0.000500
vt 0.900000 -0.694293
vt 0.100000 -0.694293
vt 0.100000 -0.594293
vt 0.900000 -0.594293
vt 0.044836 -0.593966
vt 0.996006 -0.554906
vt 0.999500 -0.406034
vt 0.394024 -0.999500
vt 0.000500 -0.901986
vt 1.013672 -0.219923
vt 0.016821 -0.201248
vt 0.014671 -0.343373
vt 0.000500 -0.428897
vt 0.970502 -0.378861
vt 0.556199 -0.113878
vt 0.979445 -0.786861
vt -0.019556 -0.690716
vt -0.019556 -0.810167
vt 0.936424 -0.903200
vt 0.524605 -0.072929
vt 0.517310 -0.989746
vt 1.104012 -0.871048
vt -0.103657 -0.845626
vt 0.491562 -0.940237
vt 0.483590 -0.071886
vt 1.070564 -0.005174
vt -0.070551 -0.004276
vt 0.508220 -0.060076
vt 0.512804 -0.724288
vt 1.283097 -0.740027
vt -0.283057 -0.769083
vt 0.487244 -0.755261
vt 0.491571 -0.057628
vt 0.651466 -0.102149
vt 1.649700 0.071875
vt 1.634163 -0.626296
vt -0.634069 -0.622410
vt -0.650388 0.043265
vt 0.347891 -0.128844
vt -0.284763 -0.097904
vt 1.284595 -0.096462
vt 0.672262 -0.721222
vt 0.327738 -0.721222
vt -0.233008 -1.184780
vt -0.244809 -1.765724
vt 0.554094 -1.661051
vt 0.445468 -1.681936
vt 1.244371 -1.786608
vt 1.233008 -1.184780
vt 0.456373 -1.161737
vt 0.543627 -1.161737
vt 0.020705 -0.000500
vt 0.999500 -0.935627
vt 0.000500 -0.935627
vt 0.979295 -0.000500
vt 0.982390 -0.004504
vt 0.017610 -0.004504
vt 0.900000 -0.250000
vt 0.100000 -0.250000
vt 0.100000 -0.750000
vt 0.900000 -0.750000
vt 1.000000 -1.026954
vt 1.000000 -0.526954
vt 0.000000 -0.526955
vt 0.000000 -1.026954
vt 0.000000 -0.023770
vt 0.000000 -0.523770
vt 1.000000 -0.523770
vt 1.000000 -0.023770
vt 0.982390 -0.449871
vt 0.020705 -0.368304
vt 0.020705 -0.631696
vt 0.000500 -0.593213
vt 0.999500 -0.631696
vt 0.999500 -0.368304
vt 0.543627 -0.437769
vt -0.233008 -0.448940
vt -0.233008 -0.548940
vt 0.543627 -0.537769
vt 1.284763 -0.433870
vt 0.508429 -0.440367
vt 0.508220 -0.537134
vt 1.284595 -0.526251
vt -0.104012 -0.464597
vt 0.482690 -0.543798
vt 0.491562 -0.430777
vt -0.283097 -0.549255
vt 0.487196 -0.562530
vt 0.487244 -0.455236
vt 1.070551 -0.401708
vt 0.516410 -0.518929
vt 0.524605 -0.615698
vt -0.283057 -0.445943
vt 0.327738 -0.559955
vt -0.634163 -0.534114
vt -0.634069 -0.458055
vt 0.327738 -0.488284
vt 0.000500 -0.449871
vt 0.982390 -0.593213
vt 1.244371 -0.479906
vt 0.445468 -0.483155
vt 0.445906 -0.562231
vt 1.244809 -0.558982
vt -0.103657 -0.391207
vt 1.649700 -0.498372
vt 0.651466 -0.502268
vt 0.652109 -0.432466
vt 1.650388 -0.424588
vt 1.070564 -0.460523
vn 0.000000 1.000000 0.000000
vn -0.991500 0.000000 0.130300
vn -0.031400 0.045100 0.998500
vn 0.999000 -0.045100 0.000000
vn -0.999000 0.045100 0.000000
vn 1.000000 0.004900 -0.002600
vn -1.000000 -0.004900 0.002600
vn 0.031400 -0.045100 -0.998500
vn 0.028800 0.004900 -0.999600
vn -0.028800 -0.004900 0.999600
vn -0.028800 -0.104200 0.994100
vn 0.028700 0.128900 -0.991200
vn 0.031300 0.073100 -0.996800
vn -0.031400 -0.054300 0.998000
vn 0.994700 0.000000 -0.102900
vn -1.000000 0.000000 0.000000
vn -0.999300 -0.003600 0.038100
vn -0.955800 0.273500 0.107800
vn 0.999900 0.000800 -0.014500
vn -0.962500 0.269400 -0.032300
vn -0.999300 0.007900 0.036800
vn -0.957400 0.287100 -0.031300
vn 0.999900 -0.003200 -0.015200
vn -0.995100 0.011900 -0.098100
vn -0.965900 0.229900 0.119100
vn 0.999800 0.001300 -0.019200
vn 0.999700 0.000000 0.025500
vn 0.994800 0.025900 -0.098000
vn 0.999400 -0.010000 -0.032600
vn 0.995900 0.035500 -0.083200
vn 0.999800 -0.006100 -0.019900
vn -0.995100 -0.029200 -0.094300
vn 0.996100 0.007500 -0.087500
vn 0.999500 0.017600 -0.024700
vn 0.039100 0.987800 0.150600
vn -0.018500 -0.984900 -0.171900
vn 0.081000 0.995000 0.057900
vn -0.060200 -0.995200 -0.076700
vn 0.011300 0.999500 0.031200
vn -0.009400 -0.998800 -0.048100
vn -0.000000 -0.999800 -0.018500
vn 0.002100 0.999800 0.019600
vn -0.008200 -0.998600 -0.051600
vn 0.010400 0.999400 0.033800
vn -0.013200 -0.999600 0.023200
vn 0.015200 0.999600 -0.024200
vn 0.001600 -0.999800 -0.017500
vn -0.001600 0.998700 0.051700
vn 0.009300 0.996200 0.086800
vn -0.007700 -0.998800 -0.048900
vn 0.009400 -1.000000 -0.001200
vn 0.020000 0.999800 -0.002600
vn 0.009800 -1.000000 0.000300
vn 0.020900 0.999800 0.000500
vn -0.014000 -0.995200 -0.097200
vn 0.032200 0.996700 0.075100
vn 0.024400 -0.033900 -0.999100
vn -0.024400 0.033900 0.999100
vn 0.999000 -0.034400 -0.029600
vn -0.999000 0.034400 0.029600
vn 1.000000 0.000000 -0.000000
vn -0.997100 -0.038000 -0.066200
vn 0.997100 0.038000 0.066200
vn -0.009600 -0.992200 -0.124400
vn 0.028000 0.993900 0.107100
vn -0.002500 -0.057500 -0.998300
vn 0.002500 0.057500 0.998300
vn 0.000000 0.000000 1.000000
vn -0.000000 0.000000 -1.000000
vn 0.999900 -0.000700 0.015000
vn -0.999900 0.000700 -0.015000
vn 0.998300 0.057700 -0.009500
vn -0.998300 -0.057700 0.009500
vn 0.999300 0.000700 -0.038200
vn -0.999300 -0.000700 0.038300
vn 0.997700 0.061000 -0.030400
vn -0.997600 -0.061200 0.032100
vn -0.998800 -0.041400 -0.024400
vn 0.998800 0.041400 0.024400
vn -0.996700 -0.075500 0.028900
vn 0.996600 0.075800 -0.031200
vn -0.999300 -0.000900 0.038200
vn 0.999300 0.000900 -0.038200
vn 0.029700 -0.001000 0.999600
vn -0.066300 -0.002500 0.997800
vn -0.029700 0.001000 -0.999600
vn 0.066300 0.002500 -0.997800
vn 0.049900 0.000000 0.998800
vn -0.033100 0.000000 -0.999500
vn -0.000600 0.999800 0.019000
vn -0.039300 -0.999200 0.000000
vn 0.039300 0.999200 0.000000
vn 0.004800 0.998300 -0.057500
vn -0.004800 -0.998300 0.057500
vn 0.000600 -0.999800 -0.019000
vn 0.057400 -0.998300 0.004200
vn -0.057400 0.998300 -0.004200
vn 0.057500 -0.993500 -0.097800
vn -0.056600 0.996100 0.067500
vn 0.047000 -0.994200 -0.096600
vn 0.002800 -0.986700 -0.162400
vn -0.001500 0.992400 0.122800
vn 0.002000 -0.986700 -0.162300
vn -0.000700 0.992400 0.122800
vn -0.046100 0.996600 0.068000
vn -0.040500 0.000000 -0.999200
vn 0.000200 0.094900 -0.995500
vn 0.003000 0.209000 0.977900
vn -0.002200 0.054100 -0.998500
vn -0.007700 -0.472100 0.881500
vn 0.015400 0.209800 0.977600
vn 0.015300 0.090400 -0.995800
vn 0.015700 0.203000 0.979000
vn 0.001000 0.120600 -0.992700
vn -0.008900 0.432100 -0.901800
vn -0.001700 0.069800 -0.997600
vn 0.000400 -0.255700 0.966800
vn 0.000900 0.291800 0.956500
vn -0.009500 -0.392800 0.919600
vn 0.035000 0.291400 0.956000
vn 0.034800 0.295800 0.954600
vn 0.014700 0.085000 -0.996300
vn 0.003200 0.579700 -0.814800
usemtl NW_NATURE_BARKRINGS_01
s off
f 66/1/1 60/2/1 30/3/1
f 30/3/1 67/4/1 66/1/1
f 62/5/1 33/6/1 75/7/1
f 76/7/1 27/8/1 61/5/1
f 61/5/1 77/6/1 76/7/1
f 75/7/1 78/8/1 62/5/1
f 80/5/1 79/6/1 24/7/1
f 24/7/1 59/8/1 80/5/1
f 19/9/2 81/10/2 17/11/2
f 17/11/2 82/12/2 19/9/2
f 45/5/3 83/6/3 43/7/3
f 42/6/4 84/5/4 41/8/4
f 46/5/5 85/6/5 40/7/5
f 40/7/5 86/8/5 46/5/5
f 42/6/4 41/8/4 87/7/4
f 88/8/6 89/6/6 39/5/6
f 88/8/6 38/7/6 89/6/6
f 37/7/7 47/8/7 90/5/7
f 90/5/7 91/6/7 37/7/7
f 92/6/8 52/8/8 44/7/8
f 92/6/8 93/5/8 52/8/8
f 43/7/3 94/8/3 45/5/3
f 96/8/9 95/7/9 49/6/9
f 96/8/9 49/6/9 51/5/9
f 98/5/10 97/6/10 48/7/10
f 48/7/10 50/8/10 98/5/10
f 100/5/11 99/6/11 56/7/11
f 56/7/11 58/8/11 100/5/11
f 106/3/12 101/4/12 57/1/12
f 103/1/13 102/2/13 64/3/13
f 103/1/13 64/3/13 54/4/13
f 105/7/14 104/8/14 55/5/14
f 55/5/14 53/6/14 105/7/14
f 106/3/12 57/1/12 63/2/12
f 122/9/15 15/10/15 107/11/15
f 16/11/16 13/12/16 108/9/16
f 113/13/17 7/14/17 109/15/17
f 21/7/18 36/16/18 110/17/18
f 11/18/19 5/19/19 111/20/19
f 1/11/20 112/12/20 3/9/20
f 109/15/21 6/21/21 113/13/21
f 3/9/22 114/10/22 1/11/22
f 111/20/23 115/22/23 11/18/23
f 126/9/24 116/10/24 8/11/24
f 110/17/25 117/23/25 21/7/25
f 12/24/26 9/25/26 118/26/26
f 18/9/27 20/10/27 119/11/27
f 119/11/27 120/12/27 18/9/27
f 108/9/16 121/10/16 16/11/16
f 107/11/28 14/12/28 122/9/28
f 128/9/29 123/10/29 23/11/29
f 127/9/30 4/10/30 124/11/30
f 118/26/31 125/27/31 12/24/31
f 8/11/32 10/12/32 126/9/32
f 124/11/33 2/12/33 127/9/33
f 23/11/34 22/12/34 128/9/34
usemtl NW_CITY_WOOD_01
f 114/28/35 3/29/35 4/30/35
f 124/31/36 112/32/36 1/33/36
f 4/30/37 127/34/37 114/28/37
f 1/33/38 2/35/38 124/31/38
f 7/36/39 113/37/39 115/38/39
f 11/39/40 6/40/40 109/41/40
f 12/42/41 10/43/41 8/44/41
f 116/45/42 126/46/42 125/47/42
f 109/41/43 5/48/43 11/39/43
f 115/38/44 111/49/44 7/36/44
f 8/44/45 9/50/45 12/42/45
f 125/47/46 118/51/46 116/45/46
f 15/52/47 122/53/47 121/54/47
f 16/55/48 14/56/48 107/57/48
f 107/57/49 13/58/49 16/55/49
f 121/54/50 108/59/50 15/52/50
f 81/60/51 19/5/51 20/61/51
f 119/62/52 82/6/52 17/63/52
f 20/61/53 18/64/53 81/60/53
f 17/63/54 120/65/54 119/62/54
f 21/66/55 22/67/55 23/68/55
f 123/69/56 128/66/56 117/67/56
f 26/70/57 73/71/57 24/72/57
f 25/72/58 74/73/58 80/70/58
f 69/72/59 29/73/59 61/70/59
f 71/70/60 28/71/60 76/72/60
f 68/72/16 32/73/16 66/70/16
f 65/70/61 31/71/61 30/72/61
f 35/74/62 70/75/62 33/76/62
f 34/76/63 72/77/63 78/74/63
f 23/68/64 36/69/64 21/66/64
f 117/67/65 110/68/65 123/69/65
f 39/74/66 89/75/66 91/76/66
f 38/76/67 88/77/67 47/74/67
f 84/74/68 42/75/68 85/76/68
f 87/76/69 41/77/69 86/74/69
f 83/76/70 45/77/70 93/74/70
f 94/74/71 43/75/71 44/76/71
f 85/76/68 46/77/68 84/74/68
f 86/74/69 40/75/69 87/76/69
f 47/74/67 37/75/67 38/76/67
f 91/76/66 90/77/66 39/74/66
f 50/74/72 48/75/72 95/76/72
f 97/76/73 98/77/73 51/74/73
f 51/74/73 49/75/73 97/76/73
f 95/76/72 96/77/72 50/74/72
f 44/76/71 52/77/71 94/74/71
f 93/74/70 92/75/70 83/76/70
f 53/76/74 55/77/74 102/74/74
f 104/74/75 105/75/75 54/76/75
f 58/74/76 56/75/76 101/76/76
f 99/76/77 100/77/77 63/74/77
f 59/74/78 24/75/78 73/76/78
f 79/76/79 80/77/79 74/74/79
f 30/72/61 60/73/61 65/70/61
f 66/70/16 67/71/16 68/72/16
f 61/70/59 27/71/59 69/72/59
f 76/72/60 77/73/60 71/70/60
f 33/76/62 62/77/62 35/74/62
f 78/74/63 75/75/63 34/76/63
f 63/74/80 57/75/80 99/76/80
f 101/76/81 106/77/81 58/74/81
f 54/76/82 64/77/82 104/74/82
f 102/74/83 103/75/83 53/76/83
f 32/74/68 65/75/68 60/76/68
f 60/76/68 66/77/68 32/74/68
f 67/74/69 30/75/69 31/76/69
f 31/76/69 68/77/69 67/74/69
f 28/76/84 69/77/84 27/74/84
f 70/70/85 34/71/85 75/72/85
f 29/74/86 71/75/86 77/76/86
f 72/72/87 35/73/87 62/70/87
f 73/76/78 25/77/78 59/74/78
f 74/74/79 26/75/79 79/76/79
f 75/72/85 33/73/85 70/70/85
f 27/74/84 76/75/84 28/76/84
f 77/76/86 61/77/86 29/74/86
f 62/70/87 78/71/87 72/72/87
f 24/72/57 79/73/57 26/70/57
f 80/70/58 59/71/58 25/72/58
f 120/78/88 17/79/88 81/80/88
f 20/81/89 19/82/89 82/83/89
f 43/72/90 83/73/90 92/70/90
f 41/72/91 84/73/91 46/70/91
f 40/72/92 85/73/92 42/70/92
f 46/70/91 86/71/91 41/72/91
f 42/70/92 87/71/92 40/72/92
f 88/72/93 39/73/93 90/70/93
f 89/70/94 38/71/94 37/72/94
f 90/70/93 47/71/93 88/72/93
f 37/72/94 91/73/94 89/70/94
f 92/70/90 44/71/90 43/72/90
f 52/72/95 93/73/95 45/70/95
f 45/70/95 94/71/95 52/72/95
f 49/70/96 95/71/96 48/72/96
f 96/72/97 51/73/97 98/70/97
f 48/72/96 97/73/96 49/70/96
f 98/70/97 50/71/97 96/72/97
f 56/72/98 99/73/98 57/70/98
f 100/70/99 58/71/99 106/72/99
f 57/70/100 101/71/100 56/72/100
f 64/72/101 102/73/101 55/70/101
f 103/70/102 54/71/102 105/72/102
f 55/70/103 104/71/103 64/72/103
f 105/72/104 53/73/104 103/70/104
f 106/72/105 63/73/105 100/70/105
f 13/84/106 107/85/106 15/86/106
f 15/86/106 108/87/106 13/84/106
f 5/88/107 109/89/107 7/90/107
f 123/10/108 110/9/108 36/12/108
f 7/90/109 111/91/109 5/88/109
f 4/92/110 3/93/110 112/94/110
f 115/95/111 113/96/111 6/97/111
f 2/98/112 1/99/112 114/100/112
f 6/97/113 11/101/113 115/95/113
f 9/102/114 8/103/114 116/104/114
f 22/12/115 21/11/115 117/10/115
f 116/104/116 118/105/116 9/102/116
f 82/83/89 119/106/89 20/81/89
f 81/80/88 18/107/88 120/78/88
f 14/108/117 16/109/117 121/110/117
f 121/110/117 122/111/117 14/108/117
f 36/12/118 23/11/118 123/10/118
f 112/94/119 124/112/119 4/92/119
f 10/113/120 12/114/120 125/115/120
f 125/115/121 126/116/121 10/113/121
f 114/100/122 127/117/122 2/98/122
f 117/10/123 128/9/123 22/12/123
