# Blender v2.75 (sub 0) OBJ File: 'Empty.blend'
# www.blender.org
mtllib NW_MISC_STRAW_02.mtl
o NW_MISC_STRAW_02
v 0.146567 0.928631 0.451045
v -0.611101 -0.928611 -0.000010
v 0.494409 -0.928611 -0.359212
v 0.188854 -0.928611 0.581191
v -0.383680 0.928631 0.278757
v -0.146547 0.928631 0.451045
v -0.146547 0.928631 -0.451065
v -0.383680 0.928631 -0.278777
v 0.146567 0.928631 -0.451065
v -0.474257 0.928631 -0.000010
v 0.383700 0.928631 0.278757
v 0.383700 0.928631 -0.278777
v 0.474277 0.928631 -0.000010
v -0.188834 -0.928611 -0.581211
v 0.333654 0.721389 0.242396
v 0.127451 0.721389 0.392212
v -0.127430 0.721389 0.392212
v -0.333634 0.721389 0.242396
v -0.412396 0.721389 -0.000010
v -0.333634 0.721389 -0.242416
v -0.127431 0.721389 -0.392232
v 0.127451 0.721389 -0.392232
v 0.333654 0.721389 -0.242416
v 0.412416 0.721389 -0.000010
v -0.494389 -0.928611 0.359192
v 0.611121 -0.928611 -0.000010
v 0.094973 0.319608 0.292257
v -0.248607 0.319608 -0.180641
v 0.307317 0.319608 -0.000010
v 0.094973 0.319608 -0.292277
v 0.188854 -0.928611 -0.581211
v -0.494389 -0.928611 -0.359212
v 0.494409 -0.928611 0.359192
v -0.188834 -0.928611 0.581191
v -0.248607 0.319608 0.180621
v -0.094953 0.319608 0.292257
v 0.248627 0.319608 -0.180641
v -0.307297 0.319608 -0.000010
v -0.094953 0.319608 -0.292277
v 0.248627 0.319608 0.180621
v 0.000010 0.721389 -0.000010
vt 0.672417 -0.719661
vt 0.672417 -0.280339
vt 0.162883 -0.365239
vt 0.671788 -0.280338
vt 0.671788 -0.719661
vt 0.162254 -0.634762
vt 0.671788 -1.075081
vt 0.162254 -0.852810
vt 0.671788 0.075081
vt 0.162254 -0.365238
vt 0.162254 -0.147189
vt 0.672417 -1.075081
vt 0.162883 -0.634762
vt 0.162883 -0.852811
vt 0.837560 -0.487440
vt 0.741218 -0.230168
vt 0.681675 -0.389170
vt 0.001305 -0.351762
vt 0.933903 -0.230168
vt 0.837560 -0.169434
vt 0.671788 -0.500000
vt 0.162254 -0.769523
vt 0.162254 -0.500000
vt 0.162883 -0.147190
vt 0.993446 -0.389171
vt 0.001389 -0.111909
vt 0.001389 -0.351762
vt 0.993446 -0.585709
vt 0.001305 -0.796475
vt 0.001305 -0.500000
vt 0.681675 -0.585709
vt 0.672417 -0.939323
vt 0.162883 -0.500000
vt 0.162883 -0.769523
vt 0.933903 -0.744712
vt 0.001389 -0.648238
vt 0.001389 -0.888092
vt 0.741218 -0.744712
vt 0.001389 -0.500000
vt 0.001389 -0.796475
vt 0.672417 0.075081
vt 0.671788 -0.939323
vt 0.672417 -0.500000
vt 0.672417 -0.060677
vt 0.162883 -0.230477
vt 0.001305 -0.888091
vt 0.001305 -0.648238
vt 0.162254 -0.230477
vt 0.001305 -0.203524
vt 0.001389 -0.203525
vt 0.671788 -0.060677
vt 0.001305 -0.111908
vt 0.837560 -0.805446
vt -0.851598 0.282057
vt -0.851598 -0.065263
vt -0.065292 -0.065263
vt -0.065292 -0.394976
vt -0.851598 0.641089
vt -0.065292 0.282057
vt -0.851598 0.988409
vt -0.065292 0.641088
vt -0.851598 1.318121
vt -0.065292 0.988409
vt -0.851598 1.647833
vt -0.065292 1.318121
vt -0.851598 1.995153
vt -0.065292 1.647833
vt -0.851598 2.354185
vt -0.065292 1.995153
vt -0.851598 -0.724687
vt -0.851598 -1.072007
vt -0.065292 -1.072007
vt -0.065292 2.354185
vt -0.851598 -0.394975
vt -0.065292 -0.724688
vn 0.000000 0.225500 -0.974200
vn 0.000000 0.225500 0.974200
vn 0.572600 0.225500 0.788200
vn -0.572600 0.225500 0.788200
vn 0.572600 0.225500 -0.788200
vn 0.000000 1.000000 0.000000
vn -0.570400 -0.241400 0.785100
vn -0.926600 0.225500 0.301100
vn -0.572600 0.225500 -0.788200
vn -0.570400 -0.241400 -0.785100
vn -0.922900 -0.241400 0.299900
vn 0.926600 0.225500 0.301100
vn 0.570400 -0.241400 -0.785100
vn 0.922900 -0.241400 0.299900
vn 0.926600 0.225500 -0.301100
vn 0.570400 -0.241400 0.785100
vn 0.000000 -0.241400 0.970400
vn -0.922900 -0.241400 -0.299900
vn 0.922900 -0.241400 -0.299900
vn -0.000000 -0.241400 -0.970400
vn -0.926600 0.225500 -0.301100
vn -0.565400 0.273100 -0.778300
vn -0.914900 0.273100 -0.297300
vn 0.565400 -0.273100 0.778300
vn 0.914900 -0.273100 0.297300
vn 0.000000 0.273100 -0.962000
vn 0.000000 -0.273100 0.962000
vn 0.565400 0.273100 -0.778300
vn -0.565400 -0.273100 0.778300
vn 0.914900 0.273100 -0.297300
vn -0.914900 -0.273100 0.297300
vn 0.914900 0.273100 0.297300
vn -0.914900 -0.273100 -0.297300
vn 0.565400 0.273100 0.778300
vn -0.565400 -0.273100 -0.778300
vn 0.000000 0.273100 0.962000
vn 0.000000 -0.273100 -0.962000
vn -0.565400 0.273100 0.778300
vn 0.565400 -0.273100 -0.778300
vn -0.914900 0.273100 0.297300
vn 0.914900 -0.273100 -0.297300
usemtl OBJ_MISC_STRAWS_01
s off
f 31/1/1 14/2/1 39/3/1
f 34/4/2 4/5/2 27/6/2
f 4/5/3 33/7/3 40/8/3
f 25/9/4 36/10/4 35/11/4
f 3/12/5 30/13/5 37/14/5
f 41/15/6 18/16/6 17/17/6
f 35/11/7 36/10/7 17/18/7
f 41/15/6 20/19/6 19/20/6
f 2/21/8 35/22/8 38/23/8
f 14/2/9 28/24/9 39/3/9
f 41/15/6 21/25/6 20/19/6
f 39/3/10 20/26/10 21/27/10
f 41/15/6 22/28/6 21/25/6
f 41/15/6 19/20/6 18/16/6
f 38/23/11 18/29/11 19/30/11
f 41/15/6 17/17/6 16/31/6
f 33/32/12 29/33/12 40/34/12
f 41/15/6 23/35/6 22/28/6
f 37/14/13 22/36/13 23/37/13
f 41/15/6 16/31/6 15/38/6
f 40/34/14 24/39/14 15/40/14
f 14/2/9 32/41/9 28/24/9
f 2/21/8 25/42/8 35/22/8
f 26/43/15 3/44/15 37/45/15
f 27/6/16 15/46/16 16/47/16
f 36/10/17 16/47/17 17/18/17
f 39/3/10 28/24/10 20/26/10
f 28/48/18 19/30/18 20/49/18
f 29/33/19 23/50/19 24/39/19
f 40/34/14 29/33/14 24/39/14
f 37/14/13 30/13/13 22/36/13
f 30/13/20 21/27/20 22/36/20
f 3/12/5 31/1/5 30/13/5
f 32/51/21 2/21/21 38/23/21
f 33/32/12 26/43/12 29/33/12
f 25/9/4 34/4/4 36/10/4
f 38/23/11 35/22/11 18/29/11
f 35/11/7 17/18/7 18/52/7
f 34/4/2 27/6/2 36/10/2
f 36/10/17 27/6/17 16/47/17
f 26/43/15 37/45/15 29/33/15
f 29/33/19 37/45/19 23/50/19
f 32/51/21 38/23/21 28/48/21
f 28/48/18 38/23/18 19/30/18
f 31/1/1 39/3/1 30/13/1
f 30/13/20 39/3/20 21/27/20
f 4/5/3 40/8/3 27/6/3
f 27/6/16 40/8/16 15/46/16
f 41/15/6 24/53/6 23/35/6
f 41/15/6 15/38/6 24/53/6
usemtl OBJ_MISC_STRAWS_02
f 1/54/22 11/55/22 15/56/22
f 24/57/23 15/56/23 11/55/23
f 11/55/24 1/54/24 15/56/24
f 15/56/25 24/57/25 11/55/25
f 6/58/26 1/54/26 16/59/26
f 15/56/22 16/59/22 1/54/22
f 1/54/27 6/58/27 16/59/27
f 16/59/24 15/56/24 1/54/24
f 5/60/28 6/58/28 17/61/28
f 16/59/26 17/61/26 6/58/26
f 6/58/29 5/60/29 17/61/29
f 17/61/27 16/59/27 6/58/27
f 10/62/30 5/60/30 18/63/30
f 17/61/28 18/63/28 5/60/28
f 5/60/31 10/62/31 18/63/31
f 18/63/29 17/61/29 5/60/29
f 8/64/32 10/62/32 19/65/32
f 18/63/30 19/65/30 10/62/30
f 10/62/33 8/64/33 19/65/33
f 19/65/31 18/63/31 10/62/31
f 7/66/34 8/64/34 20/67/34
f 19/65/32 20/67/32 8/64/32
f 8/64/35 7/66/35 20/67/35
f 20/67/33 19/65/33 8/64/33
f 9/68/36 7/66/36 21/69/36
f 20/67/34 21/69/34 7/66/34
f 7/66/37 9/68/37 21/69/37
f 21/69/35 20/67/35 7/66/35
f 12/70/38 9/71/38 22/72/38
f 21/69/36 22/73/36 9/68/36
f 9/71/39 12/70/39 22/72/39
f 22/73/37 21/69/37 9/68/37
f 13/74/40 12/70/40 23/75/40
f 22/72/38 23/75/38 12/70/38
f 12/70/41 13/74/41 23/75/41
f 23/75/39 22/72/39 12/70/39
f 23/75/40 24/57/40 13/74/40
f 11/55/23 13/74/23 24/57/23
f 24/57/41 23/75/41 13/74/41
f 13/74/25 11/55/25 24/57/25
