# Blender v2.75 (sub 0) OBJ File: 'Empty.blend'
# www.blender.org
mtllib NW_MORPH_SKATE_01.mtl
o NW_MORPH_SKATE_01
v -1.859490 0.179836 0.696198
v -0.071249 0.000005 3.296640
v 0.153863 0.116937 -0.550590
v 1.781130 -0.027566 0.518085
v 2.051860 -0.022859 1.629510
v 0.070652 -0.077795 -3.139440
v 0.669703 0.102389 -0.094622
v -0.911936 -0.058187 -0.108871
v -1.538890 -0.025843 0.304350
v 1.282410 -0.073560 2.242210
v 0.726699 0.024236 2.783680
v -1.481900 -0.110723 1.971480
v -2.180100 0.178396 1.088050
v 1.111420 -0.050946 -0.009128
v 0.729871 -0.006233 -0.379000
v 0.025871 -0.116808 -0.579000
v 1.980610 0.163958 0.909933
v 0.214490 0.076439 -1.324170
v 0.099815 0.017287 -2.526150
v 0.179490 -0.059725 -3.784040
v 0.281871 -0.116809 -0.579000
v 0.669703 -0.131484 -0.094622
v -0.416129 -0.009568 -0.379000
v -0.384723 0.102982 -0.151618
v -0.384723 -0.130891 -0.151618
v -2.094600 -0.095745 1.458520
v 0.548151 0.127208 1.215700
v 2.180100 0.197196 1.301780
v -0.515904 0.130043 1.153770
v 1.020470 -0.077584 1.243180
v 1.065950 -0.044810 0.617028
v 0.179834 -0.086004 -2.528300
v 0.141773 -0.079436 -3.142690
v 0.127435 -0.022310 -3.350800
v -1.510820 0.206071 1.125420
v -1.510820 -0.027802 1.125420
v -0.977694 -0.037989 0.507097
v -0.897687 0.030407 2.698180
v 0.343947 -0.101507 -1.324630
v 1.065950 0.072127 0.617028
v -0.970569 0.008001 1.910620
v -0.302520 -0.121859 1.945600
v -0.071249 -0.116917 2.738470
v 1.565790 -0.017270 1.262530
v -1.043450 0.165351 1.123070
v -1.496360 -0.008114 1.548450
v -0.071249 0.116956 2.738470
v 1.424100 -0.002653 1.752370
v 1.565790 0.216602 1.262530
v -0.977694 0.078948 0.507097
v -0.450313 0.120323 0.501075
v 1.673460 0.056910 0.890305
v 0.608927 0.119589 0.560537
v -1.524860 0.063982 0.714886
v 0.160425 -0.041219 -3.567420
v 1.424100 -0.119590 1.752370
v -1.043450 -0.068522 1.123070
v 0.209304 -0.119267 1.975390
v 1.020470 0.156289 1.243180
v 0.873584 0.017681 2.013430
v 0.119917 -0.101746 -1.324630
v -1.496360 -0.125050 1.548450
v 0.151249 -0.078806 -3.351190
v -0.293576 0.112300 1.946120
v 0.323525 -0.108546 -0.951814
v -1.524860 0.180918 0.714886
v 0.489858 -0.108940 1.212300
v 1.673460 0.173846 0.890305
v 0.873584 -0.099255 2.013430
v 0.101160 -0.011223 -3.141590
v 0.045259 -0.086145 -2.523930
v -0.970569 -0.108935 1.910620
v -0.459257 -0.113434 0.500555
v 0.147694 -0.069329 -3.566200
v -0.533791 -0.102993 1.152730
v 0.194792 0.096690 -0.937379
v 0.187012 0.057533 -1.722050
v 0.238451 0.113909 1.977080
v 0.579780 -0.114567 0.558840
v 0.083509 -0.108910 -0.951814
v 0.303054 -0.095853 -1.723520
v 0.102947 -0.096246 -1.720990
v 0.138296 0.037969 -2.119930
v 0.172332 -0.069300 -3.567620
v 0.060222 -0.079245 -2.930510
v 0.079307 0.116938 0.530806
v 0.064740 -0.091446 -2.117340
v 0.142490 -0.116939 -0.123120
v 0.060262 -0.116925 0.529697
v 0.153187 -0.081207 -2.934180
v 0.095776 -0.001604 -2.932370
v 0.101972 -0.078132 -3.348370
v 0.142490 0.116934 -0.123120
v 0.016124 0.116986 1.184730
v 0.240924 -0.089451 -2.122420
v -0.021967 -0.116718 1.182510
vt 0.382849 0.164072
vt 0.351321 0.246814
vt 0.295428 0.167306
vt 0.539935 0.828680
vt 0.520042 0.757367
vt 0.585708 0.755201
vt 0.438742 0.243581
vt 0.651654 0.753025
vt 0.717600 0.750849
vt 0.688002 0.823598
vt 0.785966 0.748593
vt 0.783394 0.690905
vt 0.864859 0.710077
vt 0.468081 0.079843
vt 0.492216 0.160277
vt 0.448729 0.311996
vt 0.361703 0.315101
vt 0.644545 0.461640
vt 0.614332 0.466533
vt 0.616664 0.432113
vt 0.373841 0.613649
vt 0.367403 0.575334
vt 0.390269 0.576822
vt 0.655209 0.632070
vt 0.723108 0.629629
vt 0.720354 0.690239
vt 0.198825 0.381899
vt 0.188020 0.317576
vt 0.274678 0.318205
vt 0.622056 0.825774
vt 0.520204 0.700417
vt 0.452918 0.724654
vt 0.445616 0.687251
vt 0.263900 0.250048
vt 0.777483 0.820426
vt 0.844484 0.791286
vt 0.832906 0.837431
vt 0.559393 0.136386
vt 0.582675 0.187538
vt 0.768999 0.892259
vt 0.658404 0.896348
vt 0.201166 0.088771
vt 0.342348 0.084564
vt 0.102795 0.208832
vt 0.189191 0.171012
vt 0.177215 0.253254
vt 0.467744 0.800598
vt 0.523825 0.306097
vt 0.531297 0.371483
vt 0.780823 0.633218
vt 0.458715 0.380411
vt 0.470422 0.398267
vt 0.367403 0.428026
vt 0.014047 0.116286
vt 0.177986 0.072336
vt 0.177986 0.152973
vt 0.360379 0.612533
vt 0.351013 0.573846
vt 0.764225 0.112521
vt 0.568937 0.150790
vt 0.568937 0.070152
vt 0.516352 0.240710
vt 0.605958 0.238690
vt 0.623649 0.277560
vt 0.873656 0.675012
vt 0.366232 0.499448
vt 0.366817 0.463737
vt 0.389372 0.462249
vt 0.347501 0.465225
vt 0.393781 0.614765
vt 0.380280 0.651964
vt 0.369744 0.651220
vt 0.642411 0.428213
vt 0.152030 0.105093
vt 0.337543 0.053622
vt 0.385148 0.133043
vt 0.662633 0.594636
vt 0.729940 0.613313
vt 0.595942 0.100441
vt 0.432752 0.051189
vt 0.653432 0.692547
vt 0.273748 0.410170
vt 0.285455 0.386363
vt 0.372085 0.383387
vt 0.629023 0.591879
vt 0.587310 0.634511
vt 0.575130 0.614348
vt 0.004493 0.218224
vt 0.105171 0.164657
vt 0.374009 0.765046
vt 0.460220 0.762057
vt 0.389925 0.798102
vt 0.904457 0.708931
vt 0.935258 0.742850
vt 0.856061 0.745141
vt 0.098112 0.295878
vt 0.100418 0.253008
vt 0.923229 0.774043
vt 0.636263 0.366491
vt 0.620458 0.369924
vt 0.626511 0.355168
vt 0.618996 0.397693
vt 0.640276 0.394785
vt 0.397293 0.652708
vt 0.392465 0.699741
vt 0.387304 0.684699
vt 0.397466 0.685010
vt 0.387197 0.698625
vt 0.376768 0.682467
vt -0.009555 0.256911
vt 0.043125 0.297829
vt 0.409813 0.726149
vt 0.520366 0.643467
vt 0.586509 0.694856
vt 0.559828 0.899992
vt 0.625541 0.561846
vt 0.658557 0.562012
vt 0.388475 0.425050
vt 0.641341 0.316429
vt 0.475268 0.839139
vt 0.664894 0.946801
vt 0.336965 0.026277
vt 0.685826 0.200368
vt 0.706898 0.234591
vt 0.674120 0.275510
vt 0.095806 0.338748
vt 0.397546 0.699897
vt 0.346330 0.431002
vt 0.397380 0.668859
vt 0.638270 0.380638
vt 0.390269 0.499448
vt 0.654480 0.529388
vt 0.383792 0.668331
vt 0.397626 0.714783
vt 0.634414 0.353452
vt 0.348672 0.499448
vt 0.366817 0.537391
vt 0.622060 0.531812
vt 0.390269 0.538135
vt 0.618196 0.499172
vt 0.649512 0.495514
vt 0.349842 0.536647
vt 0.632565 0.340413
vt 0.373256 0.666843
vt 0.619727 0.383809
vn -0.003300 1.000000 0.004800
vn -0.064800 -0.996900 -0.045200
vn -0.019800 0.999800 0.009400
vn 0.015600 -0.999800 -0.007800
vn 0.181700 -0.982600 -0.038200
vn 0.148700 0.988700 0.019900
vn -0.004300 0.999900 -0.012000
vn 0.010900 -0.999800 -0.013600
vn 0.773500 0.625000 -0.105100
vn -0.028800 -0.999300 0.021900
vn -0.078800 0.971300 -0.224600
vn -0.025900 -0.999500 -0.016200
vn -0.099000 -0.971400 0.215900
vn -0.078500 0.996700 -0.022700
vn 0.008800 -0.995300 0.096100
vn 0.119600 0.977100 0.176000
vn -0.024000 -0.987800 0.153800
vn 0.201600 0.979000 0.030100
vn 0.170200 -0.983200 0.065600
vn -0.105300 0.994200 0.023700
vn -0.173000 0.962600 0.208300
vn 0.070200 -0.995900 -0.057600
vn 0.123900 0.975300 -0.182700
vn 0.170000 -0.984200 0.048900
vn 0.281900 0.914700 -0.289700
vn 0.190000 0.000000 -0.981800
vn -0.868000 0.494300 0.048000
vn -0.080800 0.000000 -0.996700
vn -0.103800 0.984300 -0.143100
vn 0.056100 -0.970000 0.236400
vn 0.847500 0.530500 0.015400
vn -0.875300 0.478600 -0.069600
vn -0.882400 0.466700 0.059800
vn 0.784300 0.610000 -0.112900
vn -0.909200 0.416100 -0.010300
vn 0.000800 -1.000000 -0.008600
vn 0.329600 0.289700 -0.898600
vn -0.027100 -0.999600 -0.008600
vn 0.978300 0.000000 0.207000
vn 0.356700 -0.880500 -0.312300
vn -0.334500 0.292100 -0.896000
vn 0.004500 -1.000000 0.000600
vn -0.309300 0.868600 -0.387200
vn -0.005000 1.000000 -0.000500
vn -0.990600 0.000000 0.136800
vn -0.381100 -0.836500 -0.393700
vn -0.175700 0.955300 0.237700
vn -0.218300 -0.807900 -0.547400
vn 0.103500 0.994600 -0.002000
vn -0.102000 0.984900 -0.139800
vn 0.333400 -0.938500 -0.090100
vn -0.115000 0.918700 0.377900
vn 0.086300 0.994200 -0.063900
vn 0.136400 0.983000 -0.123300
vn -0.055200 -0.997700 -0.038600
vn 0.321100 -0.839600 -0.438100
vn 0.025700 -0.999600 0.011700
vn 0.139700 -0.990000 0.019800
vn 0.789600 0.612500 -0.036300
vn -0.016200 -0.998900 -0.043800
vn -0.021500 -0.999700 -0.010400
vn 0.809700 0.585000 -0.046200
vn 0.916600 0.385600 0.105900
vn -0.899000 0.402600 -0.172400
vn -0.066600 0.794700 0.603400
vn -0.039700 0.998800 -0.028800
vn -0.275000 -0.933900 -0.228400
vn -0.208600 -0.975400 -0.070600
vn -0.032200 -0.999100 0.029300
vn -0.143800 -0.989500 0.017100
vn -0.151500 0.988400 -0.014100
vn -0.177900 -0.982300 0.058000
vn 0.001500 -0.999800 -0.022000
vn 0.845700 0.523000 0.106100
vn 0.110700 0.976700 -0.183900
vn 0.059500 0.885000 -0.461700
vn -0.226900 0.973900 -0.006700
vn -0.192800 0.952100 0.237500
vn 0.007500 -0.999400 0.033600
vn 0.023900 -0.984800 0.172000
vn 0.159500 -0.966200 0.202400
vn -0.181400 -0.962500 0.201600
vn 0.114200 -0.980100 -0.162300
vn 0.114300 -0.978600 -0.171300
vn 0.073800 0.988700 -0.130800
vn 0.054500 0.980100 0.190800
vn -0.195200 0.872300 0.448300
vn 0.079800 0.890400 0.448100
vn 0.101600 0.973700 0.204000
vn -0.111800 0.972600 0.203800
vn 0.063200 0.985000 0.160900
vn 0.113500 0.894200 0.433100
vn -0.009200 0.831800 0.554900
vn 0.038000 0.993900 -0.103700
vn -0.099200 0.969000 -0.226300
vn -0.004300 0.893200 -0.449700
vn -0.296000 0.953600 -0.055100
vn -0.024900 0.999300 -0.029000
vn 0.298000 -0.908700 0.292400
vn 0.332900 -0.938600 -0.090700
vn 0.327000 0.945000 0.005500
vn 0.028800 0.999300 -0.023600
vn -0.310900 -0.929800 -0.197200
vn -0.330300 -0.919700 0.212500
vn 0.915700 0.387500 0.106200
vn -0.900100 0.400200 -0.172000
vn 0.117400 -0.978400 -0.170400
vn 0.178000 -0.973600 0.143000
vn -0.085800 -0.971600 -0.220400
vn -0.085800 -0.972900 -0.214600
vn 0.005300 -1.000000 -0.004800
vn 0.004800 -1.000000 0.004800
vn 0.130500 0.971100 0.199700
vn -0.052900 0.989200 -0.136800
vn 0.145100 0.986500 0.076200
vn -0.070100 0.984000 0.163700
vn -0.000000 -0.999800 -0.021200
vn -0.869000 0.479000 -0.124200
vn -0.054200 -0.997900 0.035700
vn -0.014100 -0.974600 -0.223600
vn 0.920700 0.387800 0.043000
vn -0.013900 -0.999900 -0.003700
vn 0.023600 0.999600 0.015800
vn -0.155300 0.985700 0.065600
vn 0.807500 0.587300 0.055300
vn 0.001500 -0.999800 -0.018800
vn 0.022300 0.892600 -0.450300
vn 0.000200 0.998100 -0.061200
vn 0.061700 -0.997000 -0.047700
vn 0.059900 -0.998100 -0.016600
vn 0.038600 0.993900 -0.103000
vn 0.058000 0.884900 -0.462100
vn 0.020400 -0.986600 0.162100
vn 0.030200 -0.999500 -0.002400
vn 0.857000 0.508900 0.080700
vn -0.903700 0.406300 -0.135000
vn 0.000500 -0.999900 -0.017000
vn -0.884500 0.466000 -0.024600
vn -0.018400 -0.999700 -0.018400
vn -0.028300 -0.983900 0.176700
vn 0.024800 -0.999300 0.029600
vn -0.135700 -0.990700 0.011000
vn -0.906800 0.405700 -0.114500
vn -0.001300 -0.999000 -0.044000
vn -0.064100 -0.996400 -0.056200
vn -0.144000 -0.989600 -0.000600
vn -0.865000 0.487900 -0.117100
vn 0.878500 0.472800 0.068200
vn -0.882700 0.468400 0.038700
vn 0.805700 0.586400 -0.083500
vn 0.113000 0.992700 0.042000
vn -0.002700 1.000000 -0.005100
vn 0.004000 -0.999900 0.009200
vn 0.138700 -0.989900 0.027600
vn 0.001100 -0.999800 -0.019100
vn -0.880600 0.467600 -0.077000
vn 0.795000 0.602200 -0.073000
vn 0.001800 -0.999900 -0.014400
vn -0.876500 0.479400 0.044200
vn 0.001100 -0.999900 -0.013900
vn 0.790500 0.599300 -0.126300
vn -0.874100 0.478400 0.083500
vn -0.001400 -0.999000 -0.044200
vn 0.919700 0.389600 0.047700
vn -0.908800 0.415100 -0.042500
vn -0.021400 -0.999700 -0.008000
vn 0.007200 0.999900 -0.014200
vn 0.006400 1.000000 0.000600
vn 0.001800 -0.999900 -0.012300
vn -0.865100 0.493500 0.089400
vn 0.026800 -0.999600 -0.007200
vn -0.000000 -1.000000 -0.000300
vn -0.006700 -1.000000 -0.000800
vn -0.007600 -0.999900 0.015100
vn 0.858200 0.511600 -0.042600
vn -0.023400 -0.999700 -0.007200
vn 0.811000 0.585000 -0.006000
vn -0.023200 -0.999700 -0.001900
vn -0.902300 0.409100 -0.135900
vn -0.026400 0.999700 -0.000700
vn 0.027500 0.999600 0.000700
vn 0.024400 0.999700 0.002300
vn -0.019100 0.999800 -0.001900
vn 0.773000 0.624700 -0.110400
vn 0.010800 -0.999800 -0.017700
vn 0.015100 -0.999900 0.002200
vn -0.026600 -0.999600 -0.003000
usemtl NW_MORPH_SKATE_01_MESH-NW_NATURE_GREATSEA_SKATE_01
s off
f 78/1/1 94/2/1 64/3/1
f 72/4/2 57/5/2 75/6/2
f 27/7/3 94/2/3 78/1/3
f 96/8/4 67/9/4 58/10/4
f 30/11/5 31/12/5 52/13/5
f 11/14/6 60/15/6 78/1/6
f 27/7/7 53/16/7 86/17/7
f 95/18/8 87/19/8 71/20/8
f 19/21/9 83/22/9 95/23/9
f 88/24/10 22/25/10 79/26/10
f 8/27/11 50/28/11 51/29/11
f 75/6/12 96/8/12 42/30/12
f 37/31/13 54/32/13 9/33/13
f 29/34/14 51/29/14 50/28/14
f 69/35/15 56/36/15 10/37/15
f 10/38/16 48/39/16 60/15/16
f 10/37/17 11/40/17 69/35/17
f 60/15/18 11/14/18 10/38/18
f 11/40/19 43/41/19 58/10/19
f 38/42/20 47/43/20 64/3/20
f 46/44/21 41/45/21 45/46/21
f 57/5/22 72/4/22 62/47/22
f 53/16/23 40/48/23 14/49/23
f 79/26/24 22/25/24 14/50/24
f 7/51/25 15/52/25 3/53/25
f 14/54/26 22/55/26 7/56/26
f 71/57/27 87/58/27 83/22/27
f 8/59/28 24/60/28 25/61/28
f 59/62/29 49/63/29 68/64/29
f 4/65/30 52/13/30 31/12/30
f 18/66/31 76/67/31 65/68/31
f 80/69/32 76/67/32 18/66/32
f 83/22/33 19/21/33 71/57/33
f 95/23/34 32/70/34 19/21/34
f 19/21/35 91/71/35 85/72/35
f 71/20/36 32/73/36 95/18/36
f 15/74/37 21/75/37 3/76/37
f 21/77/38 22/25/38 88/24/38
f 15/74/39 7/56/39 22/55/39
f 21/77/40 15/78/40 22/25/40
f 23/79/41 3/76/41 16/80/41
f 79/26/42 89/81/42 88/24/42
f 3/53/43 23/82/43 24/83/43
f 93/84/44 86/17/44 53/16/44
f 23/79/45 25/61/45 24/60/45
f 16/85/46 25/86/46 23/87/46
f 26/88/47 12/89/47 46/44/47
f 13/90/48 36/91/48 26/92/48
f 40/48/49 53/16/49 27/7/49
f 68/64/50 40/48/50 59/62/50
f 17/93/51 28/94/51 44/95/51
f 48/39/52 49/63/52 59/62/52
f 66/96/53 35/97/53 45/46/53
f 45/46/54 50/28/54 66/96/54
f 56/36/55 69/35/55 30/11/55
f 44/95/56 28/94/56 5/98/56
f 31/12/57 14/50/57 4/65/57
f 14/50/58 31/12/58 79/26/58
f 91/71/59 19/21/59 32/70/59
f 63/99/60 92/100/60 74/101/60
f 85/102/61 90/103/61 32/73/61
f 32/70/62 90/104/62 91/71/62
f 55/105/63 34/106/63 63/107/63
f 74/108/64 92/109/64 34/106/64
f 35/97/65 13/110/65 26/88/65
f 35/97/66 1/111/66 13/110/66
f 36/91/67 13/90/67 1/112/67
f 54/32/68 37/31/68 57/5/68
f 9/33/69 8/113/69 37/31/69
f 73/114/70 37/31/70 8/113/70
f 64/3/71 41/45/71 38/42/71
f 42/30/72 43/41/72 38/115/72
f 80/116/73 65/117/73 21/77/73
f 21/118/74 65/68/74 76/67/74
f 4/119/75 14/49/75 40/48/75
f 40/48/76 68/64/76 4/119/76
f 12/89/77 38/42/77 41/45/77
f 41/45/78 46/44/78 12/89/78
f 12/120/79 62/47/79 72/4/79
f 72/4/80 38/115/80 12/120/80
f 2/121/81 43/41/81 11/40/81
f 2/121/82 38/115/82 43/41/82
f 52/13/83 44/95/83 30/11/83
f 30/11/84 44/95/84 56/36/84
f 50/28/85 45/46/85 29/34/85
f 29/34/86 45/46/86 41/45/86
f 35/97/87 26/88/87 46/44/87
f 45/46/88 35/97/88 46/44/88
f 47/43/89 2/122/89 11/14/89
f 38/42/90 2/122/90 47/43/90
f 48/39/91 10/38/91 5/123/91
f 49/63/92 48/39/92 5/123/92
f 49/63/93 5/123/93 28/124/93
f 49/63/94 28/124/94 17/125/94
f 50/28/95 8/27/95 9/126/95
f 9/126/96 66/96/96 50/28/96
f 51/29/97 24/83/97 8/27/97
f 51/29/98 93/84/98 24/83/98
f 4/65/99 17/93/99 52/13/99
f 44/95/100 52/13/100 17/93/100
f 14/49/101 7/51/101 53/16/101
f 53/16/102 7/51/102 93/84/102
f 1/112/103 54/32/103 36/91/103
f 1/112/104 9/33/104 54/32/104
f 63/107/105 84/127/105 55/105/105
f 34/106/106 55/105/106 74/108/106
f 56/36/107 44/95/107 5/98/107
f 10/37/108 56/36/108 5/98/108
f 62/47/109 36/91/109 57/5/109
f 57/5/110 36/91/110 54/32/110
f 42/30/111 96/8/111 58/10/111
f 58/10/112 43/41/112 42/30/112
f 59/62/113 60/15/113 48/39/113
f 27/7/114 59/62/114 40/48/114
f 27/7/115 78/1/115 60/15/115
f 60/15/116 59/62/116 27/7/116
f 21/77/117 16/85/117 80/116/117
f 76/67/118 80/69/118 16/128/118
f 62/47/119 12/120/119 26/92/119
f 36/91/120 62/47/120 26/92/120
f 33/129/121 63/107/121 34/106/121
f 92/100/122 63/99/122 33/130/122
f 94/2/123 29/34/123 64/3/123
f 41/45/124 64/3/124 29/34/124
f 65/68/125 39/131/125 18/66/125
f 39/132/126 65/117/126 80/116/126
f 9/126/127 1/111/127 66/96/127
f 1/111/128 35/97/128 66/96/128
f 67/9/129 31/12/129 30/11/129
f 67/9/130 30/11/130 69/35/130
f 17/125/131 68/64/131 49/63/131
f 17/125/132 4/119/132 68/64/132
f 58/10/133 69/35/133 11/40/133
f 69/35/134 58/10/134 67/9/134
f 34/106/135 70/133/135 33/129/135
f 70/133/136 34/106/136 92/109/136
f 32/73/137 71/20/137 85/102/137
f 85/72/138 71/57/138 19/21/138
f 75/6/139 42/30/139 72/4/139
f 38/115/140 72/4/140 42/30/140
f 88/24/141 73/114/141 25/86/141
f 8/113/142 25/86/142 73/114/142
f 20/134/143 74/108/143 55/105/143
f 74/101/144 84/135/144 63/99/144
f 75/6/145 57/5/145 37/31/145
f 37/31/146 73/114/146 75/6/146
f 16/128/147 3/53/147 76/67/147
f 76/67/148 3/53/148 21/118/148
f 61/136/149 18/66/149 77/137/149
f 77/137/150 18/66/150 39/131/150
f 78/1/151 47/43/151 11/14/151
f 64/3/152 47/43/152 78/1/152
f 89/81/153 79/26/153 67/9/153
f 31/12/154 67/9/154 79/26/154
f 80/116/155 61/138/155 39/132/155
f 18/66/156 61/136/156 80/69/156
f 39/131/157 81/139/157 77/137/157
f 82/140/158 81/141/158 39/132/158
f 77/137/159 82/142/159 61/136/159
f 39/132/160 61/138/160 82/140/160
f 83/22/161 77/137/161 81/139/161
f 82/142/162 77/137/162 83/22/162
f 20/143/163 84/135/163 74/101/163
f 84/127/164 20/134/164 55/105/164
f 6/144/165 85/72/165 91/71/165
f 90/103/166 85/102/166 6/145/166
f 29/34/167 86/17/167 51/29/167
f 93/84/168 51/29/168 86/17/168
f 81/141/169 82/140/169 87/19/169
f 83/22/170 87/58/170 82/142/170
f 25/86/171 16/85/171 88/24/171
f 16/85/172 21/77/172 88/24/172
f 73/114/173 88/24/173 89/81/173
f 89/81/174 75/6/174 73/114/174
f 90/104/175 33/129/175 70/133/175
f 6/145/176 33/130/176 90/103/176
f 91/71/165 70/133/165 6/144/165
f 70/133/177 91/71/177 90/104/177
f 33/130/178 6/145/178 92/100/178
f 92/109/179 6/144/179 70/133/179
f 3/53/180 24/83/180 93/84/180
f 93/84/181 7/51/181 3/53/181
f 86/17/182 29/34/182 94/2/182
f 86/17/183 94/2/183 27/7/183
f 81/139/184 95/23/184 83/22/184
f 87/19/185 95/18/185 81/141/185
f 67/9/186 96/8/186 89/81/186
f 75/6/187 89/81/187 96/8/187
