# Blender v2.75 (sub 0) OBJ File: 'Empty.blend'
# www.blender.org
mtllib NW_NATURE_SMALLTREE_79P.mtl
o NW_NATURE_SMALLTREE_79P
v -0.812474 3.898220 1.148846
v -1.406554 7.471659 -1.923623
v -1.369228 9.757016 1.468295
v -0.418614 4.688875 -1.105364
v 1.953139 7.743097 -0.092032
v -0.548286 9.696392 -1.557820
v 1.095269 4.135494 -1.730339
v -2.286418 3.500643 -0.890494
v -3.656960 9.058928 -1.472790
v 0.744341 4.335215 0.299636
v -0.671952 9.893504 -0.217081
v 0.389565 2.309435 1.072945
v -1.915070 4.346257 0.150251
v 0.494428 5.648885 1.451404
v -2.080530 6.642513 1.040608
v 0.649832 4.891674 1.583801
v 1.048376 6.382764 0.504689
v -0.994061 10.164360 0.536710
v -1.614021 6.471179 -0.636117
v -0.292924 7.137306 1.991499
v 0.008935 12.196914 1.859502
v 0.073715 6.225001 -0.722400
v 0.375575 11.284616 -0.854391
v 1.634703 4.316944 -1.197610
v 2.664622 9.067616 -1.945371
v 0.430652 9.780928 -0.311259
v -0.557965 5.030252 0.357218
v -0.740073 2.444679 -1.474588
v -1.578044 2.061398 1.183347
v -2.525571 5.229560 1.923134
v 0.476818 2.537095 -0.432792
v -0.470715 5.705259 0.307000
v 1.509532 8.976014 0.706633
v 0.078166 7.034424 -1.890667
v 1.934254 10.999804 -0.640228
v -1.331365 9.493235 -1.369321
v -0.556212 3.943413 -0.307189
v 0.816011 5.577154 -0.778169
v -0.738792 6.621995 -0.542181
v 1.513946 9.470939 -0.280951
v -0.085929 3.873652 1.786239
v -0.400460 11.559544 -0.091212
v 0.304381 3.744462 -1.135514
v 0.483281 6.285654 -1.802292
v -0.082848 4.126020 0.325606
v 0.838670 4.051893 0.373152
v 0.099388 6.667213 -0.350872
v -0.083802 4.647967 -0.029309
v -0.074526 6.922639 0.012381
v -0.352910 0.192268 0.068591
v 0.026255 3.236218 0.009250
v -0.588338 5.198077 -0.896331
v -1.494274 5.498533 0.314101
v 0.566385 6.501398 -0.707886
v 0.117060 0.192268 -0.339948
v 0.235880 0.192268 0.271327
v 0.043966 1.136274 -0.127667
v -0.100785 6.008397 0.019583
v 0.033440 6.008397 -0.097097
v 0.088587 1.136274 0.101886
v 0.067375 6.008397 0.077484
v -0.185918 1.136274 0.054937
vt 1.000000 -1.000000
vt 1.000000 -0.000000
vt 0.000000 -1.000000
vt 0.000000 -0.000000
vt 0.116636 -3.665854
vt 0.379921 -1.561345
vt 0.122394 -0.146526
vt 0.750000 -3.665854
vt 0.750000 1.216860
vt 0.375375 1.216860
vt -0.250000 -3.665854
vt 0.383364 -3.665854
vt -0.250000 -5.330759
vt 0.397584 -5.330759
vt 0.750000 -5.330759
vt 0.124625 1.216860
vt -0.250000 1.216860
vt 0.250000 4.330759
vt 0.102416 -5.330759
vt 0.000000 -0.500000
vt 1.000000 -0.500000
vn 0.367200 -0.006900 -0.930100
vn -0.367200 0.006900 0.930100
vn 0.384800 0.012300 -0.922900
vn -0.384800 -0.012300 0.922900
vn -0.986900 0.054900 -0.151800
vn 0.986900 -0.054900 0.151800
vn 0.588600 -0.008700 0.808400
vn -0.588600 0.008700 -0.808400
vn 0.579000 0.002800 0.815300
vn -0.579000 -0.002800 -0.815300
vn -0.618000 -0.001300 -0.786200
vn 0.618000 0.001300 0.786200
vn 0.966600 -0.000800 0.256400
vn -0.966600 0.000800 -0.256400
vn 0.966700 -0.001200 0.256000
vn -0.966700 0.001200 -0.256000
vn -0.031000 0.024900 0.999200
vn 0.994400 0.001500 0.105900
vn 0.981600 -0.009900 -0.190800
vn -0.488300 -0.014200 0.872600
vn -0.622000 -0.000700 -0.783000
vn -0.168500 0.038400 0.985000
vn 0.981400 0.020700 -0.190800
vn -0.617000 0.126900 -0.776700
vn 0.974800 0.118100 -0.189500
vn -0.325300 -0.038000 0.944800
vn 0.314700 0.038000 -0.948400
vn -0.656100 0.003300 -0.754700
vn -0.656000 0.012900 -0.754600
vn -0.323300 0.118100 0.938900
vn -0.325500 0.016800 0.945400
vn 0.972300 0.137500 -0.189000
vn -0.652500 0.104600 -0.750600
vn -0.168400 0.044000 0.984700
vn 0.973300 -0.227000 0.034100
vn -0.973300 0.227000 -0.034100
vn -0.530500 -0.227000 0.816700
vn 0.530500 0.227000 -0.816700
vn 0.680900 0.539300 0.495600
vn -0.680900 -0.539300 -0.495600
vn 0.489200 -0.313400 -0.813900
vn -0.489200 0.313400 0.813900
vn -0.858500 -0.408900 -0.309600
vn 0.858500 0.408900 0.309600
vn -0.801200 0.529800 0.278400
vn 0.801200 -0.529800 -0.278400
vn 0.390500 0.218500 -0.894300
vn -0.390500 -0.218500 0.894300
vn 0.696100 0.663800 -0.273400
vn -0.696100 -0.663800 0.273400
vn -0.096100 -0.060300 0.993500
vn 0.096100 0.060300 -0.993500
vn 0.713700 -0.353600 -0.604700
vn -0.713700 0.353600 0.604700
vn -0.308300 -0.481300 -0.820500
vn 0.308300 0.481300 0.820500
vn 0.976300 -0.090300 0.196700
vn -0.976300 0.090300 -0.196700
vn 0.101600 -0.230000 0.967900
vn -0.101600 0.230000 -0.967900
vn -0.671500 -0.090300 0.735500
vn 0.671500 0.090300 -0.735500
vn -0.652900 -0.469500 0.594400
vn 0.652900 0.469500 -0.594400
vn -0.111900 -0.367800 -0.923100
vn 0.111900 0.367800 0.923100
vn -0.400700 0.548200 0.734100
vn 0.400700 -0.548200 -0.734100
vn 0.186600 -0.413600 -0.891100
vn -0.186600 0.413600 0.891100
vn 0.642800 -0.127300 -0.755400
vn -0.642800 0.127300 0.755400
vn -0.058900 -0.091500 0.994100
vn 0.058900 0.091500 -0.994100
usemtl NW_NATURE_BRANCH_02
s off
f 8/1/1 9/2/1 10/3/1
f 9/2/2 8/1/2 10/3/2
f 11/4/3 10/3/3 9/2/3
f 10/3/4 11/4/4 9/2/4
f 20/1/5 21/2/5 22/3/5
f 21/2/6 20/1/6 22/3/6
f 23/4/5 22/3/5 21/2/5
f 22/3/6 23/4/6 21/2/6
f 26/4/7 27/3/7 25/2/7
f 27/3/8 26/4/8 25/2/8
f 24/1/9 25/2/9 27/3/9
f 25/2/10 24/1/10 27/3/10
f 29/1/11 30/2/11 31/3/11
f 30/2/12 29/1/12 31/3/12
f 32/4/11 31/3/11 30/2/11
f 31/3/12 32/4/12 30/2/12
f 43/1/13 44/2/13 45/3/13
f 44/2/14 43/1/14 45/3/14
f 47/4/15 45/3/15 44/2/15
f 45/3/16 47/4/16 44/2/16
usemtl NW_NATURE_BARK_01
f 62/5/17 51/6/17 48/7/17
f 51/6/18 57/8/18 59/9/18
f 51/6/19 59/9/19 61/10/19
f 48/7/20 51/6/20 61/10/20
f 57/11/21 62/5/21 48/7/21
f 62/5/22 60/12/22 51/6/22
f 60/12/23 57/8/23 51/6/23
f 55/13/24 62/5/24 57/11/24
f 56/14/25 55/15/25 57/8/25
f 48/7/26 61/10/26 58/16/26
f 57/11/27 48/7/27 58/16/27
f 57/11/28 58/16/28 59/17/28
f 59/17/29 58/16/29 49/18/29
f 50/19/30 56/14/30 60/12/30
f 56/14/25 57/8/25 60/12/25
f 58/16/31 61/10/31 49/18/31
f 61/10/32 59/9/32 49/18/32
f 55/13/33 50/19/33 62/5/33
f 50/19/34 60/12/34 62/5/34
usemtl NW_NATURE_BRANCH_03
f 3/4/35 15/20/35 36/2/35
f 15/20/36 3/4/36 36/2/36
f 6/4/37 34/20/37 40/2/37
f 34/20/38 6/4/38 40/2/38
f 7/1/39 2/21/39 1/3/39
f 2/21/40 7/1/40 1/3/40
f 14/4/41 41/20/41 53/2/41
f 41/20/42 14/4/42 53/2/42
f 15/20/43 2/21/43 1/3/43
f 15/20/44 1/3/44 2/21/44
f 16/1/45 5/21/45 4/3/45
f 5/21/46 16/1/46 4/3/46
f 19/1/47 18/21/47 17/3/47
f 18/21/48 19/1/48 17/3/48
f 28/1/49 13/21/49 12/3/49
f 13/21/50 28/1/50 12/3/50
f 33/20/51 18/21/51 17/3/51
f 33/20/52 17/3/52 18/21/52
f 34/20/53 5/21/53 4/3/53
f 34/20/54 4/3/54 5/21/54
f 35/4/55 33/20/55 42/2/55
f 33/20/56 35/4/56 42/2/56
f 2/21/57 36/2/57 15/20/57
f 2/21/58 15/20/58 36/2/58
f 39/4/59 52/20/59 54/2/59
f 52/20/60 39/4/60 54/2/60
f 5/21/61 40/2/61 34/20/61
f 5/21/62 34/20/62 40/2/62
f 41/20/63 13/21/63 12/3/63
f 41/20/64 12/3/64 13/21/64
f 18/21/65 42/2/65 33/20/65
f 18/21/66 33/20/66 42/2/66
f 46/1/67 38/21/67 37/3/67
f 38/21/68 46/1/68 37/3/68
f 52/20/69 38/21/69 37/3/69
f 52/20/70 37/3/70 38/21/70
f 13/21/71 53/2/71 41/20/71
f 13/21/72 41/20/72 53/2/72
f 38/21/73 54/2/73 52/20/73
f 38/21/74 52/20/74 54/2/74
