# Blender v2.75 (sub 0) OBJ File: 'Empty.blend'
# www.blender.org
mtllib NW_NATURE_BUSH_56P.mtl
o NW_NATURE_BUSH_56P
v 0.123792 0.995955 0.179015
v -0.328608 -0.344105 -0.459376
v 0.050723 -0.713340 0.546935
v 0.680093 0.745877 -0.023168
v -0.353352 -0.375021 -0.312216
v 0.527812 -0.995936 0.049589
v 0.287596 0.745877 -0.740328
v -0.425231 -0.375021 0.061816
v 0.286234 -0.995935 -0.571564
v -0.360556 0.753665 -0.426854
v 0.022636 -0.328390 0.617316
v -0.249429 -0.985688 -0.269717
v 0.232114 -0.552255 1.677773
v 0.298184 -0.253139 -0.141400
v -0.603959 -0.140414 1.405609
v 1.216229 -0.518261 0.678870
v 0.191865 -0.260639 -0.382572
v 0.592922 -0.045689 1.238080
v 1.056346 0.197985 -0.739209
v -0.115102 0.628305 1.015034
v 1.016085 0.197985 0.668271
v -0.035583 0.166291 -1.090592
v 1.011229 -0.588398 -1.144748
v -0.301807 -0.390200 -0.509232
v 1.019417 -0.104522 -0.372853
v -0.570485 -0.454885 -1.548432
v -0.225636 -0.253139 -0.115595
v 0.257715 -0.196177 -1.677793
v -0.290183 0.063689 -1.493691
v -0.458588 -0.327249 0.301310
v 0.348906 -0.567604 0.279872
v 0.480792 0.352549 -1.313598
v -0.283094 -0.712449 0.147105
v -1.159523 -0.552255 0.292590
v 0.054685 -0.253139 0.104836
v 0.014017 -0.717022 -0.597613
v -1.216209 -0.464923 -0.543733
v 0.193955 0.702662 1.132333
v -0.186572 -0.291631 -0.374254
v -0.042768 -0.976748 0.095013
v -0.220503 0.114795 1.571551
v -0.403089 -0.717022 -0.198889
v 0.057658 0.377000 1.329317
v 0.181533 -0.250623 -0.209466
v -0.612049 -0.474208 -0.034783
v 0.470595 -0.717022 -0.217331
v -0.488175 0.813601 0.858444
v -1.065563 0.439311 0.292589
v 0.198354 -0.325220 0.104836
v -1.064170 0.543411 -0.543734
v -1.064132 -0.235225 -0.780525
v -0.085593 -0.233495 0.151988
v 0.242382 -0.615800 -0.521056
v 0.031295 -0.635803 0.207140
v -0.023703 -0.687056 -0.597613
v -0.802143 0.228315 -1.394775
vt 0.000500 -0.000499
vt 0.000500 -0.999500
vt 0.999500 -0.999501
vt 0.999501 -0.000500
vn 0.937600 0.212000 -0.275600
vn -0.937600 -0.212000 0.275600
vn 0.502400 0.226900 -0.834300
vn -0.502400 -0.226900 0.834300
vn -0.529600 0.226900 -0.817300
vn 0.529600 -0.226900 0.817300
vn -0.961300 0.254300 0.106400
vn 0.961300 -0.254300 -0.106400
vn -0.392700 -0.905100 -0.163100
vn 0.392700 0.905100 0.163100
vn -0.451500 -0.863100 0.226200
vn 0.451500 0.863100 -0.226200
vn -0.299500 -0.421900 -0.855700
vn 0.299500 0.421900 0.855700
vn 0.926000 -0.362700 0.105100
vn -0.926000 0.362700 -0.105100
vn 0.637800 -0.421900 -0.644300
vn -0.637800 0.421900 0.644300
vn -0.909900 -0.405700 -0.086500
vn 0.909900 0.405700 0.086500
vn 0.127600 -0.841000 0.525800
vn -0.127600 0.841000 -0.525800
vn 0.306200 -0.950100 0.060100
vn -0.306200 0.950100 -0.060100
vn -0.259400 -0.826900 -0.499000
vn 0.259400 0.826900 0.499000
vn 0.379300 -0.910800 -0.162800
vn -0.379300 0.910800 0.162800
vn 0.651500 -0.756200 -0.060900
vn -0.651500 0.756200 0.060900
vn -0.144300 -0.821900 0.551100
vn 0.144300 0.821900 -0.551100
vn 0.220600 -0.968400 -0.116100
vn -0.220600 0.968400 0.116100
vn 0.981400 0.190500 -0.022700
vn -0.981400 -0.190500 0.022700
vn 0.851700 -0.509800 0.121300
vn -0.851700 0.509800 -0.121300
vn 0.497200 -0.794800 0.347900
vn -0.497200 0.794800 -0.347900
vn 0.325500 -0.559800 0.762000
vn -0.325500 0.559800 -0.762000
vn -0.563300 -0.800800 -0.203500
vn 0.563300 0.800800 0.203500
vn -0.715900 -0.664800 0.213500
vn 0.715900 0.664800 -0.213500
vn -0.526100 -0.843800 -0.105900
vn 0.526100 0.843800 0.105900
vn -0.670900 -0.735900 0.091100
vn 0.670900 0.735900 -0.091100
vn 0.233000 -0.881600 -0.410600
vn -0.233000 0.881600 0.410600
vn -0.650300 -0.571800 0.500100
vn 0.650300 0.571800 -0.500100
vn 0.411700 -0.803200 -0.430500
vn -0.411700 0.803200 0.430500
usemtl NW_NATURE_LEAVE_03
s off
f 20/1/1 3/2/1 2/3/1
f 3/2/2 20/1/2 2/3/2
f 21/1/3 6/2/3 5/3/3
f 6/2/4 21/1/4 5/3/4
f 19/1/5 9/2/5 8/3/5
f 9/2/6 19/1/6 8/3/6
f 22/1/7 12/2/7 11/3/7
f 12/2/8 22/1/8 11/3/8
f 14/3/9 13/4/9 15/1/9
f 13/4/10 14/3/10 15/1/10
f 17/3/11 16/4/11 18/1/11
f 16/4/12 17/3/12 18/1/12
f 8/3/13 7/4/13 19/1/13
f 7/4/14 8/3/14 19/1/14
f 2/3/15 1/4/15 20/1/15
f 1/4/16 2/3/16 20/1/16
f 5/3/17 4/4/17 21/1/17
f 4/4/18 5/3/18 21/1/18
f 11/3/19 10/4/19 22/1/19
f 10/4/20 11/3/20 22/1/20
f 24/3/21 23/4/21 25/1/21
f 23/4/22 24/3/22 25/1/22
f 27/3/23 26/4/23 28/1/23
f 26/4/24 27/3/24 28/1/24
f 32/1/25 31/2/25 30/3/25
f 31/2/26 32/1/26 30/3/26
f 30/3/27 29/4/27 32/1/27
f 29/4/28 30/3/28 32/1/28
f 18/1/29 33/2/29 17/3/29
f 33/2/30 18/1/30 17/3/30
f 37/1/31 36/2/31 35/3/31
f 36/2/32 37/1/32 35/3/32
f 35/3/33 34/4/33 37/1/33
f 34/4/34 35/3/34 37/1/34
f 41/1/35 40/2/35 39/3/35
f 40/2/36 41/1/36 39/3/36
f 39/3/37 38/4/37 41/1/37
f 38/4/38 39/3/38 41/1/38
f 15/1/39 42/2/39 14/3/39
f 42/2/40 15/1/40 14/3/40
f 47/1/41 45/2/41 44/3/41
f 45/2/42 47/1/42 44/3/42
f 28/1/43 46/2/43 27/3/43
f 46/2/44 28/1/44 27/3/44
f 44/3/45 43/4/45 47/1/45
f 43/4/46 44/3/46 47/1/46
f 49/3/47 48/4/47 50/1/47
f 48/4/48 49/3/48 50/1/48
f 56/1/49 53/2/49 52/3/49
f 53/2/50 56/1/50 52/3/50
f 25/1/51 54/2/51 24/3/51
f 54/2/52 25/1/52 24/3/52
f 50/1/53 55/2/53 49/3/53
f 55/2/54 50/1/54 49/3/54
f 52/3/55 51/4/55 56/1/55
f 51/4/56 52/3/56 56/1/56
