# Blender v2.75 (sub 0) OBJ File: 'Empty.blend'
# www.blender.org
mtllib NW_NATURE_WATERGRASS_02_100P.mtl
o NW_NATURE_WATERGRASS_02_100P
v -1.501440 -1.092356 -1.881653
v -1.599689 0.218892 -1.426042
v -2.373252 1.093029 -0.589313
v -2.090959 0.110531 -1.475865
v -0.727201 -0.863870 1.267021
v -0.282716 0.165813 1.595012
v 0.555365 0.811860 2.556643
v -0.383986 0.027432 2.062900
v -1.494573 -1.093312 -1.873607
v -1.574729 0.271986 -2.028341
v -1.013528 1.259590 -2.968364
v -1.126428 0.141614 -2.191395
v -0.713409 -0.863232 1.239083
v 0.190428 0.121810 1.222747
v 1.260638 0.838471 1.581554
v -0.103620 0.087616 1.604264
v -1.505497 -1.089692 -1.932138
v -2.157446 0.248808 -2.591959
v -2.560772 1.280905 -3.330914
v -1.684896 0.235737 -2.685799
v -1.464761 -1.091882 -1.965873
v -2.303786 -0.548591 -0.803595
v -3.629848 -0.543441 0.771537
v -2.706737 -0.550683 -1.065644
v -0.689577 -0.862465 1.249086
v -0.176165 0.208110 1.058843
v 0.993738 0.965715 0.606171
v 0.257403 0.094267 1.214155
v 1.255674 -1.275139 3.152925
v 0.995471 0.085994 3.196454
v 0.433797 1.015791 2.510830
v 1.042927 -0.045800 2.821075
v 1.239423 -1.275171 3.131896
v 1.322288 0.084834 2.897913
v 2.206781 1.014413 2.844539
v 1.599891 -0.045658 3.154222
v -0.431936 -1.224940 1.244614
v -0.163365 0.307902 1.585329
v -0.581317 1.336869 2.091440
v -0.518623 0.164615 1.499166
v -0.704466 -0.861917 1.242202
v -0.396001 0.168908 1.556176
v -0.655347 0.832098 2.304201
v -0.754725 0.062167 1.624081
v 1.210672 -1.277127 3.140955
v 0.407896 -0.007153 3.416653
v -0.339211 0.954524 3.481252
v 0.501223 -0.013543 3.050922
v 1.258557 -1.277194 3.138411
v 1.230131 -0.007504 3.686029
v 0.868608 0.955186 4.344678
v 0.976883 -0.013243 3.406269
v 1.176121 -1.280873 3.165615
v 2.053150 -0.658743 2.783437
v 3.630893 -0.559773 2.462201
v 2.174225 -0.697709 3.136811
v -1.493822 -1.095853 -1.845518
v -1.309666 0.198235 -1.306216
v -1.138752 1.035778 -0.421787
v -1.538953 0.053616 -1.051344
v -1.438170 -1.096292 -1.861889
v -0.844176 0.221958 -1.748906
v 0.037287 1.103144 -1.623208
v -0.631053 0.062655 -1.499130
v -1.482875 -1.080445 -1.884438
v -1.591000 -0.276059 -0.539982
v -1.728947 0.308569 0.769298
v -1.922697 -0.318062 -0.621014
v -1.469782 -1.102898 -1.840969
v -1.397288 -0.391904 -2.899228
v -1.183995 -0.169055 -4.342685
v -1.059698 -0.442738 -2.900044
v -1.261926 -1.583804 -1.660550
v -1.225595 0.381512 -1.368364
v -1.670360 1.748137 -1.211417
v -1.413705 0.211960 -1.545571
v 1.255037 -1.275159 3.144611
v 1.061562 0.085862 3.176409
v 0.584063 1.016234 2.760604
v 1.050604 -0.045594 2.906303
v 1.283004 -1.275264 3.116981
v 1.439979 0.084374 2.773707
v 1.741925 1.013421 2.219207
v 1.700817 -0.046920 2.703101
v 1.270794 -1.275188 3.141073
v 1.484585 0.085674 3.312467
v 1.420498 1.018169 3.945656
v 1.271855 -0.044432 3.478212
v 1.269959 -1.292594 3.137892
v 1.886560 -0.361334 2.500674
v 2.539686 0.333303 1.981539
v 1.972963 -0.325448 2.753818
v -0.560639 -1.231277 1.484456
v -0.528507 0.345491 1.069418
v -0.198255 1.452922 0.427084
v -0.302096 0.204977 1.044975
v 1.353300 -1.742841 3.149536
v 1.480983 0.267449 3.143441
v 1.836522 1.645247 3.393541
v 1.510212 0.074301 3.325597
vt 0.620662 -0.472424
vt 0.769017 0.024130
vt 0.903068 -0.475856
vt 0.774171 -0.996773
vt 0.316315 -0.474839
vt 0.498486 0.021715
vt 0.632537 -0.478272
vt 0.445669 -0.999188
vt 0.002305 -0.472424
vt 0.150660 0.024130
vt 0.284711 -0.475856
vt 0.218616 -0.996773
vn -0.068900 0.657400 -0.750400
vn 0.068900 -0.657400 0.750400
vn -0.023000 -0.329700 0.943800
vn 0.023000 0.329700 -0.943800
vn -0.662600 0.745000 0.076900
vn 0.662600 -0.745000 -0.076900
vn 0.906900 -0.414900 0.073600
vn -0.906900 0.414900 -0.073600
vn 0.420200 0.488900 0.764500
vn -0.420200 -0.488900 -0.764500
vn -0.371300 -0.126100 -0.919900
vn 0.371300 0.126100 0.919900
vn -0.465900 0.838000 -0.284000
vn 0.465900 -0.838000 0.284000
vn 0.659900 -0.597900 0.455000
vn -0.659900 0.597900 -0.455000
vn 0.169700 0.616700 0.768700
vn -0.169700 -0.616700 -0.768700
vn -0.181600 -0.504500 -0.844100
vn 0.181600 0.504500 0.844100
vn -0.002000 1.000000 -0.004900
vn 0.002000 -1.000000 0.004900
vn -0.190100 -0.934900 0.299800
vn 0.190100 0.934900 -0.299800
vn -0.110200 0.629600 0.769000
vn 0.110200 -0.629600 -0.769000
vn 0.255500 -0.286600 -0.923300
vn -0.255500 0.286600 0.923300
vn 0.873200 0.483700 -0.059400
vn -0.873200 -0.483700 0.059400
vn -0.980900 -0.185600 -0.058800
vn 0.980900 0.185600 0.058800
vn -0.461400 0.481800 0.745000
vn 0.461400 -0.481800 -0.745000
vn 0.624500 -0.169200 -0.762500
vn -0.624500 0.169200 0.762500
vn 0.033800 0.452100 -0.891300
vn -0.033800 -0.452100 0.891300
vn -0.159500 -0.187500 0.969200
vn 0.159500 0.187500 -0.969200
vn -0.323500 0.649600 -0.688100
vn 0.323500 -0.649600 0.688100
vn 0.274700 -0.354400 0.893800
vn -0.274700 0.354400 -0.893800
vn 0.781600 0.594500 0.189100
vn -0.781600 -0.594500 -0.189100
vn -0.846600 -0.490100 -0.207500
vn 0.846600 0.490100 0.207500
vn 0.589700 0.595000 -0.546000
vn -0.589700 -0.595000 0.546000
vn -0.705600 -0.293900 0.644800
vn 0.705600 0.293900 -0.644800
vn -0.037300 0.991800 0.122200
vn 0.037300 -0.991800 -0.122200
vn 0.481900 -0.837500 -0.257500
vn -0.481900 0.837500 0.257500
vn -0.753600 0.543800 -0.369400
vn 0.753600 -0.543800 0.369400
vn 0.787200 -0.329300 0.521400
vn -0.787200 0.329300 -0.521400
vn -0.533200 0.429400 0.728900
vn 0.533200 -0.429400 -0.728900
vn 0.659700 -0.236100 -0.713500
vn -0.659700 0.236100 0.713500
vn -0.015600 0.912400 -0.409000
vn 0.015600 -0.912400 0.409000
vn -0.016400 -0.858600 0.512400
vn 0.016400 0.858600 -0.512400
vn 0.147100 0.974000 0.172100
vn -0.147100 -0.974000 -0.172100
vn -0.124800 -0.819600 -0.559200
vn 0.124800 0.819600 0.559200
vn 0.524800 0.263700 -0.809400
vn -0.524800 -0.263700 0.809400
vn -0.631500 -0.102600 0.768500
vn 0.631500 0.102600 -0.768500
vn 0.904500 0.367800 -0.215700
vn -0.904500 -0.367800 0.215700
vn -0.983800 -0.142400 0.109200
vn 0.983800 0.142400 -0.109200
vn 0.410100 0.365400 0.835600
vn -0.410100 -0.365400 -0.835600
vn -0.345300 -0.192100 -0.918600
vn 0.345300 0.192100 0.918600
vn -0.700900 0.367100 -0.611500
vn 0.700900 -0.367100 0.611500
vn 0.674400 -0.195600 0.712000
vn -0.674400 0.195600 -0.712000
vn -0.673700 0.728100 0.126700
vn 0.673700 -0.728100 -0.126700
vn 0.763000 -0.623000 -0.172100
vn -0.763000 0.623000 0.172100
vn 0.337400 0.395000 0.854500
vn -0.337400 -0.395000 -0.854500
vn -0.251100 -0.241600 -0.937300
vn 0.251100 0.241600 0.937300
vn -0.924800 0.177500 0.336600
vn 0.924800 -0.177500 -0.336600
vn 0.973000 -0.062500 -0.222400
vn -0.973000 0.062500 0.222400
usemtl NW_MISC_GRASS_SPITZEN_01
s off
f 4/1/1 3/2/1 2/3/1
f 3/2/2 4/1/2 2/3/2
f 2/3/3 4/1/3 1/4/3
f 4/1/4 2/3/4 1/4/4
f 8/1/5 7/2/5 6/3/5
f 7/2/6 8/1/6 6/3/6
f 6/3/7 8/1/7 5/4/7
f 8/1/8 6/3/8 5/4/8
f 12/1/9 11/2/9 10/3/9
f 11/2/10 12/1/10 10/3/10
f 10/3/11 12/1/11 9/4/11
f 12/1/12 10/3/12 9/4/12
f 16/5/13 15/6/13 14/7/13
f 15/6/14 16/5/14 14/7/14
f 14/7/15 16/5/15 13/8/15
f 16/5/16 14/7/16 13/8/16
f 20/5/17 19/6/17 18/7/17
f 19/6/18 20/5/18 18/7/18
f 18/7/19 20/5/19 17/8/19
f 20/5/20 18/7/20 17/8/20
f 24/9/21 23/10/21 22/11/21
f 23/10/22 24/9/22 22/11/22
f 22/11/23 24/9/23 21/12/23
f 24/9/24 22/11/24 21/12/24
f 28/1/25 27/2/25 26/3/25
f 27/2/26 28/1/26 26/3/26
f 26/3/27 28/1/27 25/4/27
f 28/1/28 26/3/28 25/4/28
f 32/1/29 31/2/29 30/3/29
f 31/2/30 32/1/30 30/3/30
f 30/3/31 32/1/31 29/4/31
f 32/1/32 30/3/32 29/4/32
f 36/1/33 35/2/33 34/3/33
f 35/2/34 36/1/34 34/3/34
f 34/3/35 36/1/35 33/4/35
f 36/1/36 34/3/36 33/4/36
f 40/1/37 39/2/37 38/3/37
f 39/2/38 40/1/38 38/3/38
f 38/3/39 40/1/39 37/4/39
f 40/1/40 38/3/40 37/4/40
f 44/1/41 43/2/41 42/3/41
f 43/2/42 44/1/42 42/3/42
f 42/3/43 44/1/43 41/4/43
f 44/1/44 42/3/44 41/4/44
f 48/5/45 47/6/45 46/7/45
f 47/6/46 48/5/46 46/7/46
f 46/7/47 48/5/47 45/8/47
f 48/5/48 46/7/48 45/8/48
f 52/5/49 51/6/49 50/7/49
f 51/6/50 52/5/50 50/7/50
f 50/7/51 52/5/51 49/8/51
f 52/5/52 50/7/52 49/8/52
f 56/9/53 55/10/53 54/11/53
f 55/10/54 56/9/54 54/11/54
f 54/11/55 56/9/55 53/12/55
f 56/9/56 54/11/56 53/12/56
f 60/1/57 59/2/57 58/3/57
f 59/2/58 60/1/58 58/3/58
f 58/3/59 60/1/59 57/4/59
f 60/1/60 58/3/60 57/4/60
f 64/1/61 63/2/61 62/3/61
f 63/2/62 64/1/62 62/3/62
f 62/3/63 64/1/63 61/4/63
f 64/1/64 62/3/64 61/4/64
f 68/5/65 67/6/65 66/7/65
f 67/6/66 68/5/66 66/7/66
f 66/7/67 68/5/67 65/8/67
f 68/5/68 66/7/68 65/8/68
f 72/9/69 71/10/69 70/11/69
f 71/10/70 72/9/70 70/11/70
f 70/11/71 72/9/71 69/12/71
f 72/9/72 70/11/72 69/12/72
f 76/1/73 75/2/73 74/3/73
f 75/2/74 76/1/74 74/3/74
f 74/3/75 76/1/75 73/4/75
f 76/1/76 74/3/76 73/4/76
f 80/1/77 79/2/77 78/3/77
f 79/2/78 80/1/78 78/3/78
f 78/3/79 80/1/79 77/4/79
f 80/1/80 78/3/80 77/4/80
f 84/1/81 83/2/81 82/3/81
f 83/2/82 84/1/82 82/3/82
f 82/3/83 84/1/83 81/4/83
f 84/1/84 82/3/84 81/4/84
f 88/1/85 87/2/85 86/3/85
f 87/2/86 88/1/86 86/3/86
f 86/3/87 88/1/87 85/4/87
f 88/1/88 86/3/88 85/4/88
f 92/5/89 91/6/89 90/7/89
f 91/6/90 92/5/90 90/7/90
f 90/7/91 92/5/91 89/8/91
f 92/5/92 90/7/92 89/8/92
f 96/1/93 95/2/93 94/3/93
f 95/2/94 96/1/94 94/3/94
f 94/3/95 96/1/95 93/4/95
f 96/1/96 94/3/96 93/4/96
f 100/1/97 99/2/97 98/3/97
f 99/2/98 100/1/98 98/3/98
f 98/3/99 100/1/99 97/4/99
f 100/1/100 98/3/100 97/4/100
