# Blender v2.75 (sub 0) OBJ File: 'Empty.blend'
# www.blender.org
mtllib NW_NATURE_WATERLILI_WHITE_64P.mtl
o NW_NATURE_WATERLILI_WHITE_64P
v 0.034378 -0.268599 2.967166
v 0.834288 -0.270660 2.034038
v 0.834288 0.436052 2.034038
v 0.884171 -0.268599 2.773028
v -0.015463 -0.270660 2.228150
v -0.015463 0.436052 2.228150
v 3.435539 -0.268599 -2.734004
v 4.498225 -0.270660 -2.116524
v 4.498225 0.436052 -2.116524
v 3.780526 -0.268599 -1.933490
v 4.153272 -0.270660 -2.917001
v 4.153272 0.436052 -2.917001
v -2.412116 -0.268599 3.668221
v -1.349429 -0.270660 4.285700
v -1.349429 0.436052 4.285700
v -2.067129 -0.268599 4.468734
v -1.694383 -0.270660 3.485223
v -1.694383 0.436052 3.485223
v 0.034378 0.438062 2.967166
v 0.884171 0.438062 2.773028
v 3.435539 0.438062 -2.734004
v 3.780526 0.438062 -1.933490
v -2.412116 0.438062 3.668221
v -2.067129 0.438062 4.468734
v -3.876257 -0.225333 -3.581443
v -4.248909 -0.227141 -2.627169
v -4.248909 0.392782 -2.627169
v -4.574804 -0.225333 -3.108919
v -3.550391 -0.227141 -3.099658
v -3.550391 0.392782 -3.099658
v -1.987025 -0.396997 -1.040874
v -2.359676 -0.398805 -0.086601
v -2.359676 0.221118 -0.086601
v -2.685572 -0.396997 -0.568350
v -1.661159 -0.398805 -0.559090
v -1.661159 0.221118 -0.559090
v -3.876257 0.394545 -3.581443
v -4.574804 0.394545 -3.108919
v -1.987025 0.222881 -1.040874
v -2.685572 0.222881 -0.568350
v -10.808019 -0.438042 -1.371073
v -2.281898 -0.438042 3.904105
v -5.346988 -0.438042 -10.197581
v 3.179132 -0.438042 -4.922404
v -3.814443 -0.044947 -3.146739
v -4.281367 -0.438042 -3.142152
v -8.290023 -0.438042 6.047675
v 5.232230 -0.438042 1.007735
v 1.223575 -0.438042 10.197561
v -1.528896 -0.044947 3.527705
v 10.063869 -0.438042 3.643130
v 10.808007 -0.438042 -6.355294
v -0.286816 -0.438042 2.872774
v 0.457323 -0.438042 -7.125649
v 5.260596 -0.044947 -1.741260
v -3.533224 -0.438042 8.122619
v 0.448617 -0.438042 -0.509150
v 5.632665 -0.438042 -6.740472
v 4.888527 -0.438042 3.257952
v -8.077503 -0.438042 -5.784327
v 0.475432 -0.438042 -1.067208
v -6.285696 -0.438042 1.452761
v -6.544958 -0.438042 1.266516
v 3.227903 -0.438042 5.602649
v 0.085254 -0.438042 -2.126438
v 10.435937 -0.438042 -1.356082
v -1.083928 -0.438042 -7.559992
vt 0.999500 -0.999500
vt 0.999500 -0.500000
vt 0.500000 -0.500000
vt 0.500000 -0.000500
vt 0.000500 -0.000500
vt 0.500000 -0.999500
vt 0.000500 -0.500000
vt 0.999501 -0.000500
vt 0.000500 -0.999500
vt 0.000500 -0.003333
vt 0.999500 -0.996595
vn -0.066500 0.996900 -0.041100
vn -0.039700 0.997100 0.064200
vn 0.039700 0.997100 -0.064200
vn 0.066500 0.996900 0.041100
vn -0.069200 0.997100 -0.030200
vn 0.031300 0.996900 -0.071700
vn 0.069200 0.997100 0.030200
vn -0.031300 0.996900 0.071700
vn 0.075300 0.997100 0.005600
vn 0.005800 0.996900 -0.078000
vn -0.075300 0.997100 -0.005600
vn -0.005800 0.996900 0.078000
vn -0.759200 0.000000 -0.650800
vn 0.759200 0.000000 0.650800
vn -0.518100 0.000000 0.855300
vn 0.518100 0.000000 -0.855300
vn 0.502400 0.000000 -0.864600
vn -0.502400 0.000000 0.864600
vn -0.935100 0.000000 -0.354400
vn 0.935100 0.000000 0.354400
vn 0.931500 0.000000 0.363800
vn -0.931500 0.000000 -0.363800
vn 0.009000 0.000000 -1.000000
vn -0.009000 0.000000 1.000000
usemtl NW_MISC_SEEROSE_01
s off
f 43/1/1 60/2/1 45/3/1
f 45/3/2 63/4/2 42/5/2
f 45/3/3 67/6/3 43/1/3
f 42/5/4 57/7/4 45/3/4
f 62/4/5 50/3/5 46/8/5
f 61/2/6 46/8/6 50/3/6
f 50/3/7 64/6/7 48/1/7
f 47/5/8 56/7/8 50/3/8
f 66/4/9 55/3/9 51/8/9
f 58/7/10 54/9/10 55/3/10
f 65/6/11 55/3/11 54/9/11
f 59/2/12 51/8/12 55/3/12
f 56/7/8 49/9/8 50/3/8
f 57/7/4 44/9/4 45/3/4
f 52/5/10 58/7/10 55/3/10
f 53/1/12 59/2/12 55/3/12
f 60/2/1 41/8/1 45/3/1
f 48/1/6 61/2/6 50/3/6
f 50/3/5 62/4/5 47/5/5
f 63/4/2 45/3/2 41/8/2
f 64/6/7 50/3/7 49/9/7
f 55/3/11 65/6/11 53/1/11
f 55/3/9 66/4/9 52/5/9
f 67/6/3 45/3/3 44/9/3
usemtl NW_MISC_SEEROSE_BLUETE_WEISS_01
f 19/8/13 3/10/13 2/9/13
f 3/10/14 19/8/14 2/9/14
f 20/8/15 6/10/15 5/9/15
f 6/10/16 20/8/16 5/9/16
f 21/8/17 9/10/17 8/9/17
f 9/10/18 21/8/18 8/9/18
f 22/8/19 12/10/19 11/9/19
f 12/10/20 22/8/20 11/9/20
f 23/8/17 15/10/17 14/9/17
f 15/10/18 23/8/18 14/9/18
f 24/8/19 18/10/19 17/9/19
f 18/10/20 24/8/20 17/9/20
f 2/9/13 1/11/13 19/8/13
f 1/11/14 2/9/14 19/8/14
f 5/9/15 4/11/15 20/8/15
f 4/11/16 5/9/16 20/8/16
f 8/9/17 7/11/17 21/8/17
f 7/11/18 8/9/18 21/8/18
f 11/9/19 10/11/19 22/8/19
f 10/11/20 11/9/20 22/8/20
f 14/9/17 13/11/17 23/8/17
f 13/11/18 14/9/18 23/8/18
f 17/9/19 16/11/19 24/8/19
f 16/11/20 17/9/20 24/8/20
f 37/8/21 27/10/21 26/9/21
f 27/10/22 37/8/22 26/9/22
f 38/8/23 30/10/23 29/9/23
f 30/10/24 38/8/24 29/9/24
f 39/8/21 33/10/21 32/9/21
f 33/10/22 39/8/22 32/9/22
f 40/8/23 36/10/23 35/9/23
f 36/10/24 40/8/24 35/9/24
f 26/9/21 25/11/21 37/8/21
f 25/11/22 26/9/22 37/8/22
f 29/9/23 28/11/23 38/8/23
f 28/11/24 29/9/24 38/8/24
f 32/9/21 31/11/21 39/8/21
f 31/11/22 32/9/22 39/8/22
f 35/9/23 34/11/23 40/8/23
f 34/11/24 35/9/24 40/8/24
