# Blender v2.75 (sub 0) OBJ File: 'Empty.blend'
# www.blender.org
mtllib NW_NATURE_BUSH_01.mtl
o NW_NATURE_BUSH_01
v 0.052067 1.022478 0.293150
v -0.043822 0.050629 -0.362539
v -0.028683 1.577018 -0.559448
v 0.491553 0.872229 0.509514
v -0.008511 0.033408 -0.146176
v 0.654285 1.408468 -0.343084
v 0.565169 0.786124 0.009838
v 0.105583 -0.041032 -0.467065
v 0.672927 1.044281 -0.928175
v -0.488076 0.815344 0.504907
v -0.672055 1.228045 -0.748412
v -1.139181 1.110254 -0.025992
v -0.070842 1.284965 -0.174742
v 1.187399 0.832857 -0.476598
v 0.153468 0.207610 0.461019
v 0.028703 0.277177 0.244655
v -0.461054 0.034988 -0.458957
v -1.006137 0.172041 -0.140052
v 0.269933 0.230979 0.092305
v 0.062202 0.346752 -0.288802
v -0.408214 1.542966 -0.068005
v 0.296300 1.539044 0.148358
v 0.715021 -0.055375 -0.344652
v 0.052067 0.669446 0.872583
v -0.028683 1.192787 0.070276
v -0.408214 1.114772 0.556227
v 1.052389 1.140425 0.047168
v 0.445617 1.503711 -0.169196
v 0.445617 1.094605 0.452360
v -0.244538 0.442403 -0.359273
v -0.404924 0.228961 0.433619
v -0.043822 -0.023089 0.140526
v 0.028703 0.090875 0.763035
v 0.227840 1.330635 -0.491219
v -0.605011 1.197610 -0.100367
v -0.244636 0.475653 0.070767
v -0.445597 0.350484 -0.145597
v 0.511454 0.077035 -0.030424
v 0.408234 0.311229 -0.246788
v -0.445597 0.189057 0.380951
v 0.408234 0.168890 0.277084
v -0.539011 0.289832 -0.862473
v 0.694404 1.271001 0.538610
v 0.066085 1.469659 0.322247
v 0.431598 1.056530 -0.198293
v 0.849538 0.741654 0.018071
v 0.451434 1.009697 -0.372181
v -0.042701 1.129837 -0.588545
v 0.707619 1.081746 -0.483908
v -0.416359 0.014698 -0.026927
v -0.066066 0.384536 -0.637040
v 0.113349 0.345078 -0.420676
v -0.422233 1.095785 -0.097102
v 0.018701 1.523339 -0.118601
v 0.093449 1.140272 0.119262
v 0.674344 1.339735 0.097763
v 0.018701 1.104689 0.504294
v 0.200550 0.156049 -0.796230
v -0.066066 0.267072 -0.105001
v 0.050698 0.997548 -0.441739
v 0.742311 1.119211 -0.039641
v 0.495786 0.711194 -0.878696
v 1.010257 0.499770 -0.427118
v -1.089290 0.758424 -0.068764
v -0.537968 1.167174 0.547679
v -0.020950 0.933135 -0.217515
v -0.622163 0.876215 -0.791186
v -0.422233 0.767629 0.490498
v 0.066085 1.016590 0.938311
v -0.042701 0.845644 0.004547
v 0.431598 0.747462 0.386632
v -0.471967 0.259396 -0.214426
v 0.133409 0.276344 0.020171
v -0.018681 0.330857 -0.196192
v 0.128711 -0.016055 -0.170887
v 0.004861 -0.012415 0.147722
v -0.012233 0.014843 -0.068642
v -0.012233 -0.081822 0.429871
v 0.235241 0.193514 -0.351962
v -0.616763 -0.004275 -0.218150
v -0.260650 0.053962 -0.267734
v -0.018681 0.178973 0.329018
v 0.277074 -0.111507 -0.316539
v -0.042780 0.054419 -0.321412
v -0.170332 0.039279 -0.198725
v 0.124190 -0.055940 -0.016092
v -0.170332 -0.049094 0.302510
v -0.127840 0.076933 0.017638
v 0.114278 0.026194 -0.232456
v 0.114278 -0.055816 0.267887
v -0.438707 0.024843 -0.242942
v 0.117147 -0.028544 -0.318976
v -0.028027 0.032736 -0.215591
v -0.001825 0.010497 0.000773
v -0.028027 -0.052455 0.285198
vt 0.660210 0.993697
vt 0.250347 0.999236
vt 0.327619 0.368183
vt 0.202223 1.984738
vt 0.611474 2.007802
vt 0.323327 1.360612
vt 0.408470 0.452117
vt 0.305636 0.982092
vt 0.653149 1.001677
vt 0.976353 0.594870
vt 0.275649 0.173528
vt 0.646222 1.005847
vt 0.214627 0.691341
vt 0.540000 0.188946
vt 0.540000 0.992779
vt 0.186702 0.697738
vt 0.520000 0.201777
vt 0.520000 0.995315
vt 0.517520 0.200916
vt 0.221159 0.705701
vt 0.562901 0.983949
vt 0.485013 0.197941
vt 0.182200 0.706918
vt 0.539509 0.991792
vt 0.119904 0.976185
vt 0.853298 0.697738
vt 0.855946 0.681278
vt 0.870607 0.674923
vt 0.893995 0.657003
vt 0.865373 0.691341
vt 0.868177 1.688237
vt 0.186702 0.201777
vt 0.148140 0.210762
vt 0.214627 0.188946
vt 0.192796 0.216305
vt 0.865373 0.188946
vt 0.842244 0.185527
vt 0.853298 0.201777
vt 0.821886 0.185121
vt 0.186702 0.995315
vt 0.202636 1.004612
vt 0.865373 0.992779
vt 0.887626 0.968561
vt 0.853298 0.995315
vt 0.876383 0.978972
vt 0.408901 0.003392
vt 0.520000 0.003392
vt 0.471390 -0.000521
vt 0.359099 0.003752
vt 0.214627 0.992779
vt 0.238177 0.999339
vt 0.540000 -0.012013
vt 0.506175 0.005157
vt 0.631099 0.003392
vt 0.583681 -0.004795
vt 0.431542 -0.012013
vt 0.397933 0.010287
vt 0.648457 -0.012013
vt 0.614416 0.000028
vn 0.740800 0.313900 0.593900
vn -0.740800 -0.313900 -0.593900
vn 0.722700 -0.446900 0.527200
vn -0.722700 0.446900 -0.527200
vn 0.114300 -0.068100 0.991100
vn 0.993700 -0.024000 -0.109700
vn -0.114300 0.068100 -0.991100
vn -0.993700 0.024000 0.109700
vn 0.804000 -0.030900 0.593900
vn -0.804000 0.030900 -0.593900
vn 0.464100 -0.711800 0.527200
vn -0.464100 0.711800 -0.527200
vn 0.074500 -0.110200 0.991100
vn 0.889100 -0.444300 -0.109700
vn -0.074500 0.110200 -0.991100
vn -0.889100 0.444300 0.109700
vn 0.754500 0.241300 0.610400
vn -0.754500 -0.241300 -0.610400
vn -0.880800 0.472700 0.028900
vn -0.048000 -0.121700 -0.991400
vn 0.880800 -0.472700 -0.028900
vn 0.048000 0.121700 0.991400
vn 0.313400 -0.615800 0.722900
vn -0.313400 0.615800 -0.722900
vn 0.448200 0.712100 -0.540400
vn -0.984000 -0.151000 0.094700
vn 0.984000 0.151000 -0.094700
vn -0.613500 -0.613900 -0.496800
vn 0.613500 0.613900 0.496800
vn -0.235900 0.748900 0.619300
vn 0.235900 -0.748900 -0.619300
vn -0.152900 0.097900 -0.983400
vn -0.759400 0.506500 -0.408400
vn -0.643200 0.433500 0.631100
vn 0.152900 -0.097900 0.983400
vn 0.759400 -0.506500 0.408400
vn 0.643200 -0.433500 -0.631100
vn 0.586300 0.562000 -0.583400
vn -0.993500 0.018900 0.112300
vn 0.993500 -0.018900 -0.112300
vn -0.359500 0.556600 0.749000
vn 0.359500 -0.556600 -0.749000
vn -0.562000 0.350900 0.749000
vn 0.562000 -0.350900 -0.749000
vn -0.719400 -0.324800 -0.614000
vn 0.719400 0.324800 0.614000
vn -0.114200 0.189300 -0.975300
vn -0.682200 0.584800 -0.438900
vn -0.542000 0.351900 0.763200
vn 0.114200 -0.189300 0.975300
vn 0.682200 -0.584800 0.438900
vn 0.542000 -0.351900 -0.763200
vn 0.674700 0.072800 -0.734500
vn 0.616100 0.412000 -0.671400
vn 0.732800 0.110900 -0.671400
usemtl NW_NATURE_BRANCH_07
s off
f 48/1/1 53/2/1 74/3/1
f 53/4/2 48/5/2 74/6/2
f 74/7/3 45/8/3 1/9/3
f 45/10/4 74/11/4 1/12/4
f 53/13/5 74/14/5 54/15/5
f 1/16/6 74/17/6 54/18/6
f 74/19/7 53/20/7 54/21/7
f 74/22/8 1/23/8 54/24/8
f 47/1/9 55/2/9 73/3/9
f 55/4/10 47/5/10 73/6/10
f 73/7/11 46/8/11 4/9/11
f 46/10/12 73/11/12 4/12/12
f 55/13/13 73/14/13 56/15/13
f 4/16/14 73/17/14 56/18/14
f 73/19/15 55/20/15 56/21/15
f 73/22/16 4/23/16 56/24/16
f 62/1/17 60/2/17 79/3/17
f 60/4/18 62/5/18 79/6/18
f 79/22/19 7/23/19 49/24/19
f 79/19/20 60/20/20 49/21/20
f 7/16/21 79/17/21 49/18/21
f 60/13/22 79/14/22 49/15/22
f 79/7/23 63/8/23 7/9/23
f 63/10/24 79/11/24 7/12/24
f 64/25/25 10/12/25 72/11/25
f 72/22/26 10/23/26 35/24/26
f 10/16/27 72/17/27 35/18/27
f 64/4/28 67/5/28 72/6/28
f 72/17/27 67/26/27 35/18/27
f 67/1/29 64/2/29 72/3/29
f 67/27/26 72/22/26 35/24/26
f 63/28/20 79/19/20 49/21/20
f 62/1/30 79/3/30 63/29/30
f 79/14/22 63/30/22 49/15/22
f 79/6/31 62/5/31 63/31/31
f 73/17/14 4/16/14 15/32/14
f 4/23/16 73/22/16 15/33/16
f 74/17/6 1/16/6 16/32/6
f 1/23/8 74/22/8 16/33/8
f 66/28/32 72/19/32 35/21/32
f 66/10/33 72/11/33 10/12/33
f 67/1/34 72/3/34 66/29/34
f 72/14/35 66/30/35 35/15/35
f 72/7/36 66/8/36 10/9/36
f 72/6/37 67/5/37 66/31/37
f 72/14/35 64/13/35 18/34/35
f 64/20/32 72/19/32 18/35/32
f 79/17/21 7/16/21 19/32/21
f 7/23/19 79/22/19 19/33/19
f 20/36/35 66/30/35 72/14/35
f 66/28/32 20/37/32 72/19/32
f 48/27/8 74/22/8 54/24/8
f 45/28/7 74/19/7 54/21/7
f 74/17/6 48/26/6 54/18/6
f 74/14/5 45/30/5 54/15/5
f 47/27/16 73/22/16 56/24/16
f 46/28/15 73/19/15 56/21/15
f 73/17/14 47/26/14 56/18/14
f 73/14/13 46/30/13 56/15/13
f 23/36/22 63/30/22 79/14/22
f 63/28/20 23/37/20 79/19/20
f 68/25/38 24/12/38 82/11/38
f 82/22/39 24/23/39 57/24/39
f 24/16/40 82/17/40 57/18/40
f 47/1/41 73/3/41 46/29/41
f 73/6/42 47/5/42 46/31/42
f 48/1/43 74/3/43 45/29/43
f 74/6/44 48/5/44 45/31/44
f 68/4/45 70/5/45 82/6/45
f 82/17/40 70/26/40 57/18/40
f 70/1/46 68/2/46 82/3/46
f 70/27/39 82/22/39 57/24/39
f 79/14/22 60/13/22 30/34/22
f 60/20/20 79/19/20 30/35/20
f 72/17/27 10/16/27 31/32/27
f 10/23/26 72/22/26 31/33/26
f 71/28/47 82/19/47 57/21/47
f 71/10/48 82/11/48 24/12/48
f 70/1/49 82/3/49 71/29/49
f 82/14/50 71/30/50 57/15/50
f 82/7/51 71/8/51 24/9/51
f 82/6/52 70/5/52 71/31/52
f 82/17/40 24/16/40 33/32/40
f 24/23/39 82/22/39 33/33/39
f 60/25/53 7/12/53 79/11/53
f 64/13/35 72/14/35 35/15/35
f 72/19/32 64/20/32 35/21/32
f 73/14/13 55/13/13 36/34/13
f 55/20/15 73/19/15 36/35/15
f 74/14/5 53/13/5 37/34/5
f 53/20/7 74/19/7 37/35/7
f 38/36/13 46/30/13 73/14/13
f 46/28/15 38/37/15 73/19/15
f 39/36/5 45/30/5 74/14/5
f 45/28/7 39/37/7 74/19/7
f 82/14/50 68/13/50 40/34/50
f 68/20/47 82/19/47 40/35/47
f 41/36/50 71/30/50 82/14/50
f 71/28/47 41/37/47 82/19/47
f 42/38/27 67/26/27 72/17/27
f 67/27/26 42/39/26 72/22/26
f 43/40/14 4/16/14 56/18/14
f 4/23/16 43/41/16 56/24/16
f 44/40/6 1/16/6 54/18/6
f 1/23/8 44/41/8 54/24/8
f 45/30/5 28/42/5 54/15/5
f 28/43/7 45/28/7 54/21/7
f 46/30/13 27/42/13 56/15/13
f 27/43/15 46/28/15 56/21/15
f 47/26/14 6/44/14 56/18/14
f 6/45/16 47/27/16 56/24/16
f 48/26/6 3/44/6 54/18/6
f 3/45/8 48/27/8 54/24/8
f 79/17/21 62/26/21 49/18/21
f 62/27/19 79/22/19 49/24/19
f 31/32/27 50/46/27 91/47/27
f 91/48/26 50/49/26 31/33/26
f 51/38/6 48/26/6 74/17/6
f 48/27/8 51/39/8 74/22/8
f 52/38/14 47/26/14 73/17/14
f 47/27/16 52/39/16 73/22/16
f 53/25/54 1/12/54 74/11/54
f 21/50/5 53/13/5 54/15/5
f 53/20/7 21/51/7 54/21/7
f 55/25/55 4/12/55 73/11/55
f 22/50/13 55/13/13 56/15/13
f 55/20/15 22/51/15 56/21/15
f 68/13/50 82/14/50 57/15/50
f 82/19/47 68/20/47 57/21/47
f 58/38/21 62/26/21 79/17/21
f 62/27/19 58/39/19 79/22/19
f 59/38/40 70/26/40 82/17/40
f 70/27/39 59/39/39 82/22/39
f 34/50/22 60/13/22 49/15/22
f 60/20/20 34/51/20 49/21/20
f 61/40/21 7/16/21 49/18/21
f 7/23/19 61/41/19 49/24/19
f 62/26/21 9/44/21 49/18/21
f 9/45/19 62/27/19 49/24/19
f 63/30/22 14/42/22 49/15/22
f 14/43/20 63/28/20 49/21/20
f 12/50/35 64/13/35 35/15/35
f 64/20/32 12/51/32 35/21/32
f 65/40/27 10/16/27 35/18/27
f 10/23/26 65/41/26 35/24/26
f 66/30/35 13/42/35 35/15/35
f 13/43/32 66/28/32 35/21/32
f 67/26/27 11/44/27 35/18/27
f 11/45/26 67/27/26 35/24/26
f 26/50/50 68/13/50 57/15/50
f 68/20/47 26/51/47 57/21/47
f 69/40/40 24/16/40 57/18/40
f 24/23/39 69/41/39 57/24/39
f 70/26/40 25/44/40 57/18/40
f 25/45/39 70/27/39 57/24/39
f 71/30/50 29/42/50 57/15/50
f 29/43/47 71/28/47 57/21/47
f 20/36/35 72/14/35 91/52/35
f 91/52/35 72/14/35 18/34/35
f 91/47/27 72/17/27 31/32/27
f 42/38/27 72/17/27 91/47/27
f 91/53/32 72/19/32 20/37/32
f 18/35/32 72/19/32 91/53/32
f 31/33/26 72/22/26 91/48/26
f 91/48/26 72/22/26 42/39/26
f 38/36/13 73/14/13 94/52/13
f 94/52/13 73/14/13 36/34/13
f 94/47/14 73/17/14 15/32/14
f 52/38/14 73/17/14 94/47/14
f 94/53/15 73/19/15 38/37/15
f 36/35/15 73/19/15 94/53/15
f 15/33/16 73/22/16 94/48/16
f 94/48/16 73/22/16 52/39/16
f 39/36/5 74/14/5 93/52/5
f 93/52/5 74/14/5 37/34/5
f 93/47/6 74/17/6 16/32/6
f 51/38/6 74/17/6 93/47/6
f 93/53/7 74/19/7 39/37/7
f 37/35/7 74/19/7 93/53/7
f 16/33/8 74/22/8 93/48/8
f 93/48/8 74/22/8 51/39/8
f 19/32/21 75/46/21 92/47/21
f 92/48/19 75/49/19 19/33/19
f 94/47/14 5/54/14 52/38/14
f 52/39/16 5/55/16 94/48/16
f 16/32/6 77/46/6 93/47/6
f 93/48/8 77/49/8 16/33/8
f 33/32/40 78/46/40 95/47/40
f 95/48/39 78/49/39 33/33/39
f 23/36/22 79/14/22 92/52/22
f 92/52/22 79/14/22 30/34/22
f 92/47/21 79/17/21 19/32/21
f 58/38/21 79/17/21 92/47/21
f 92/53/20 79/19/20 23/37/20
f 30/35/20 79/19/20 92/53/20
f 19/33/19 79/22/19 92/48/19
f 92/48/19 79/22/19 58/39/19
f 18/34/35 80/56/35 91/52/35
f 91/53/32 80/57/32 18/35/32
f 42/39/26 17/55/26 91/48/26
f 91/47/27 17/54/27 42/38/27
f 41/36/50 82/14/50 95/52/50
f 95/52/50 82/14/50 40/34/50
f 95/47/40 82/17/40 33/32/40
f 59/38/40 82/17/40 95/47/40
f 95/53/47 82/19/47 41/37/47
f 40/35/47 82/19/47 95/53/47
f 33/33/39 82/22/39 95/48/39
f 95/48/39 82/22/39 59/39/39
f 92/52/22 83/58/22 23/36/22
f 23/37/20 83/59/20 92/53/20
f 30/34/22 84/56/22 92/52/22
f 92/53/20 84/57/20 30/35/20
f 37/34/5 85/56/5 93/52/5
f 93/53/7 85/57/7 37/35/7
f 94/52/13 86/58/13 38/36/13
f 38/37/15 86/59/15 94/53/15
f 40/34/50 87/56/50 95/52/50
f 95/53/47 87/57/47 40/35/47
f 94/48/16 76/49/16 15/33/16
f 15/32/14 76/46/14 94/47/14
f 51/39/8 2/55/8 93/48/8
f 93/47/6 2/54/6 51/38/6
f 59/39/39 32/55/39 95/48/39
f 95/47/40 32/54/40 59/38/40
f 91/52/35 81/58/35 20/36/35
f 20/37/32 81/59/32 91/53/32
f 92/47/21 8/54/21 58/38/21
f 58/39/19 8/55/19 92/48/19
f 93/52/5 89/58/5 39/36/5
f 39/37/7 89/59/7 93/53/7
f 36/34/13 88/56/13 94/52/13
f 94/53/15 88/57/15 36/35/15
f 95/52/50 90/58/50 41/36/50
f 41/37/47 90/59/47 95/53/47
