# Blender v2.75 (sub 0) OBJ File: 'Empty.blend'
# www.blender.org
mtllib NW_NATURE_BUSH_120P.mtl
o NW_NATURE_BUSH_120P
v -0.633931 1.339407 -2.788077
v -0.371873 -0.322964 -0.873333
v 0.337061 -2.114727 -2.017027
v -1.121135 1.077242 -2.128148
v 0.632463 0.056903 -0.535679
v -0.147330 -1.944429 -1.062379
v -0.619532 1.093952 0.658391
v 0.337973 1.093952 -2.551682
v -0.041705 -0.958513 -2.618629
v 0.059857 1.093952 -0.713027
v -0.209312 1.093952 2.625974
v 0.175988 -0.958513 2.612519
v -0.239854 -0.958513 0.725338
v -0.325443 -0.958513 -0.699572
v 1.528490 -0.945995 0.337670
v 0.384955 -0.129438 -1.968036
v 0.041259 0.431408 0.441997
v -0.103218 1.795585 -2.283533
v -0.656786 -0.500689 -1.751070
v 0.770605 -0.898287 -0.372068
v 0.581828 0.288925 -2.930058
v 1.136287 -1.814743 -1.346916
v -0.564035 -0.503603 -1.488790
v 0.841607 1.981541 -0.738239
v -0.423488 -0.334007 -1.805486
v 0.404569 -1.746889 -0.738921
v 0.344413 1.277095 2.322426
v -0.645636 0.202795 0.344286
v 0.290527 -1.285486 1.072092
v 0.370203 1.319535 -0.551180
v -0.703311 1.989003 1.833214
v 0.435549 -0.345466 1.702832
v -0.606690 -0.658697 0.218419
v -0.053007 0.597933 2.534573
v -0.321034 -1.552510 1.738180
v 0.301272 -0.078537 0.899874
v 1.853701 -0.891032 -1.551460
v 0.061005 -0.263860 -2.210285
v 0.018611 -1.089254 -0.630208
v -1.365244 -0.807683 -0.816295
v -1.675914 0.004936 -2.320956
v 0.092302 0.059260 -1.181001
v -0.405354 -1.267294 -1.014192
v -1.250483 0.061179 1.923412
v 0.396397 -0.317685 1.463521
v -0.999997 -1.267428 0.966541
v -0.762835 1.349462 0.309901
v -1.487383 0.280317 -1.204262
v -0.648170 -0.163866 1.593364
v -0.180891 1.250819 -0.943547
v 1.781225 0.439552 -1.831631
v -1.099690 -0.635640 0.314376
v 0.250519 -0.010519 -1.371560
v -0.157318 -1.459856 -2.002297
v -1.250767 -0.922220 -3.090148
v -0.291937 -0.116976 -1.419610
v 0.742565 -1.276200 -1.893049
v -1.151842 0.692100 -0.213246
v -0.443880 -0.161800 1.638403
v -0.161331 1.765362 0.477066
v 0.550860 -0.090609 -0.172436
v -0.427630 0.054481 1.132941
v 0.055255 -1.318573 1.824008
v 0.164597 -1.180656 -2.190567
v 0.942940 1.297352 -0.069716
v 0.176414 -0.156291 -1.955447
v -0.321083 2.114747 -0.557032
v -0.885728 -0.436791 -1.909557
v -0.398719 0.753887 -3.387947
v -0.251209 -0.092981 -0.528044
v 0.773009 -0.863204 2.994895
v 0.094189 0.013730 1.318141
v -0.805965 -1.239879 1.492197
v 1.240814 -0.073613 1.294441
v -0.326132 -1.131589 1.882090
v -0.252370 0.166803 1.014291
v -0.654765 -0.606974 -0.756352
v -0.944218 1.288128 -0.457817
v 0.470627 -0.183013 -1.456679
v -0.219551 -1.388146 -1.988371
v 0.541605 1.306335 0.691969
v -0.627125 -0.142167 1.153712
v 0.106426 -1.243654 1.825398
v 1.754832 0.035327 -0.402302
v -1.627704 1.133343 -1.757995
v -1.853681 -0.830553 -0.916375
v 0.609976 0.661408 -3.118185
v 0.445302 -0.957925 1.068065
v 0.903099 -0.678513 -1.163397
v 0.481711 -0.896569 -3.369507
v -0.640944 -0.635075 -1.814740
v 0.452128 -0.876843 -0.907709
v -1.466246 -0.850189 0.432009
v -0.365658 -0.286486 1.882613
v 0.087635 -0.784960 0.634446
v -1.027171 1.491322 0.374735
v 0.179540 -0.229536 1.679224
v -0.202672 -1.119356 0.654062
v 1.138607 0.466698 2.572916
v 0.470229 -0.096842 2.844491
v 0.216858 0.171421 0.574343
v -0.911012 -0.598697 0.823628
v -1.103344 -0.259224 2.543605
v -0.714878 -1.050610 2.793067
v 0.428411 -0.479918 1.757241
v -0.406449 -0.686100 0.739931
v 0.633124 -0.285746 0.890426
v -1.421563 -0.208495 2.108210
v -0.354667 0.377475 3.715735
v -0.598240 1.287326 -0.801793
v 1.359517 -0.373625 0.746717
v 0.576259 1.122274 0.115369
v 0.292446 0.274206 3.048564
v -0.472343 0.415864 -2.878261
v 0.955597 0.114429 -2.983303
v -0.915540 -0.322282 -0.352792
v -1.459314 -0.076244 0.858435
v -0.651047 -0.365595 -3.715755
v -0.148284 -0.649646 3.357574
v 1.029881 0.984311 1.440853
vt 0.457535 -0.000500
vt 0.457535 -0.999500
vt 1.456535 -0.000500
vt 1.456535 -0.999501
vt 0.000500 -0.000499
vt 0.000500 -0.999500
vt 0.999500 -0.999501
vt 0.999501 -0.000500
vn -0.942000 0.183400 -0.281000
vn 0.942000 -0.183400 0.281000
vn 0.979900 0.183400 0.079000
vn -0.979900 -0.183400 -0.079000
vn -0.981300 -0.183400 -0.058100
vn 0.981300 0.183400 0.058100
vn 0.972000 -0.183400 -0.147100
vn -0.972000 0.183400 0.147100
vn -0.899400 -0.081900 -0.429300
vn 0.899400 0.081900 0.429300
vn -0.868400 0.221600 0.443500
vn 0.868400 -0.221600 -0.443500
vn -0.674800 -0.734200 0.074600
vn 0.674800 0.734200 -0.074600
vn 0.703100 0.069800 -0.707700
vn -0.703100 -0.069800 0.707700
vn -0.066100 -0.191600 -0.979200
vn 0.066100 0.191600 0.979200
vn 0.847700 0.104200 -0.520200
vn -0.847700 -0.104200 0.520200
vn 0.865700 0.392600 -0.310700
vn -0.865700 -0.392600 0.310700
vn 0.899000 -0.292300 -0.326000
vn -0.899000 0.292300 0.326000
vn -0.806200 -0.089300 0.584900
vn 0.806200 0.089300 -0.584900
vn 0.756400 0.051500 0.652000
vn -0.756400 -0.051500 -0.652000
vn 0.537600 -0.753200 -0.379000
vn -0.537600 0.753200 0.379000
vn 0.346800 -0.793500 -0.500100
vn -0.346800 0.793500 0.500100
vn 0.878300 -0.422600 0.223600
vn -0.878300 0.422600 -0.223600
vn -0.313900 -0.034900 0.948800
vn 0.313900 0.034900 -0.948800
vn -0.872300 -0.437700 0.217900
vn 0.872300 0.437700 -0.217900
vn 0.606800 -0.736500 -0.299000
vn -0.606800 0.736500 0.299000
vn 0.332300 -0.912700 -0.237700
vn -0.332300 0.912700 0.237700
vn 0.354100 -0.455200 0.817000
vn -0.354100 0.455200 -0.817000
vn -0.694900 -0.695200 0.184000
vn 0.694900 0.695200 -0.184000
vn 0.775900 -0.405100 -0.483500
vn -0.775900 0.405100 0.483500
vn -0.296700 -0.510500 -0.807000
vn 0.296700 0.510500 0.807000
vn -0.426300 -0.586000 0.689100
vn 0.426300 0.586000 -0.689100
vn -0.577600 -0.516000 0.632600
vn 0.577600 0.516000 -0.632600
vn 0.782200 -0.585200 -0.213600
vn -0.782200 0.585200 0.213600
vn 0.802100 -0.589300 -0.096300
vn -0.802100 0.589300 0.096300
vn 0.717000 -0.415000 -0.560000
vn -0.717000 0.415000 0.560000
vn 0.837700 -0.141300 0.527500
vn -0.837700 0.141300 -0.527500
vn -0.286500 -0.244600 0.926300
vn 0.286500 0.244600 -0.926300
vn 0.357700 -0.300900 -0.884000
vn -0.357700 0.300900 0.884000
vn -0.447600 -0.714600 0.537600
vn 0.447600 0.714600 -0.537600
vn -0.531300 -0.762100 0.370000
vn 0.531300 0.762100 -0.370000
vn 0.349800 -0.934500 -0.066300
vn -0.349800 0.934500 0.066300
vn -0.510800 -0.682600 -0.522700
vn 0.510800 0.682600 0.522700
vn -0.655900 -0.601400 -0.456200
vn 0.655900 0.601400 0.456200
vn -0.533300 -0.818200 -0.214800
vn 0.533300 0.818200 0.214800
vn 0.132200 -0.906500 -0.400900
vn -0.132200 0.906500 0.400900
vn -0.527100 -0.837600 0.143100
vn 0.527100 0.837600 -0.143100
vn -0.946700 0.038000 0.320000
vn 0.946700 -0.038000 -0.320000
vn -0.214400 -0.905700 0.365600
vn 0.214400 0.905700 -0.365600
vn 0.580400 -0.798900 0.158000
vn -0.580400 0.798900 -0.158000
vn 0.577100 -0.702800 0.415900
vn -0.577100 0.702800 -0.415900
vn -0.089900 -0.959200 0.268100
vn 0.089900 0.959200 -0.268100
vn -0.558800 -0.366400 -0.744000
vn 0.558800 0.366400 0.744000
vn -0.229700 -0.722800 -0.651800
vn 0.229700 0.722800 0.651800
vn -0.530200 -0.846900 -0.040900
vn 0.530200 0.846900 0.040900
vn -0.746900 -0.645300 -0.160400
vn 0.746900 0.645300 0.160400
vn -0.248300 -0.965500 -0.078800
vn 0.248300 0.965500 0.078800
vn 0.894900 -0.421600 -0.146200
vn -0.894900 0.421600 0.146200
vn 0.911600 -0.271000 -0.309100
vn -0.911600 0.271000 0.309100
vn -0.603800 -0.779800 0.165300
vn 0.603800 0.779800 -0.165300
vn 0.650200 -0.517300 0.556500
vn -0.650200 0.517300 -0.556500
vn 0.582800 -0.802000 -0.130500
vn -0.582800 0.802000 0.130500
vn -0.178600 -0.970800 0.160300
vn 0.178600 0.970800 -0.160300
vn 0.666700 -0.744900 -0.023600
vn -0.666700 0.744900 0.023600
vn -0.333700 -0.884000 -0.327200
vn 0.333700 0.884000 0.327200
vn 0.518300 -0.609400 -0.600000
vn -0.518300 0.609400 0.600000
usemtl NW_NATURE_LEAVE_01
s off
f 8/1/1 9/2/1 7/3/1
f 9/2/2 8/1/2 7/3/2
f 11/1/3 12/2/3 10/3/3
f 12/2/4 11/1/4 10/3/4
f 13/4/5 7/3/5 9/2/5
f 7/3/6 13/4/6 9/2/6
f 14/4/7 10/3/7 12/2/7
f 10/3/8 14/4/8 12/2/8
usemtl NW_NATURE_LEAVE_03
f 87/5/9 3/6/9 2/7/9
f 3/6/10 87/5/10 2/7/10
f 114/5/11 6/6/11 5/7/11
f 6/6/12 114/5/12 5/7/12
f 16/7/13 15/8/13 17/5/13
f 15/8/14 16/7/14 17/5/14
f 30/5/15 20/6/15 19/7/15
f 20/6/16 30/5/16 19/7/16
f 51/5/17 22/6/17 23/7/17
f 22/6/18 51/5/18 23/7/18
f 112/5/19 26/6/19 25/7/19
f 26/6/20 112/5/20 25/7/20
f 113/5/21 29/6/21 28/7/21
f 29/6/22 113/5/22 28/7/22
f 19/7/23 18/8/23 30/5/23
f 18/8/24 19/7/24 30/5/24
f 47/5/25 33/6/25 32/7/25
f 33/6/26 47/5/26 32/7/26
f 103/5/27 35/6/27 36/7/27
f 35/6/28 103/5/28 36/7/28
f 84/5/29 39/6/29 38/7/29
f 39/6/30 84/5/30 38/7/30
f 42/7/31 40/8/31 41/5/31
f 40/8/32 42/7/32 41/5/32
f 17/5/33 43/6/33 16/7/33
f 43/6/34 17/5/34 16/7/34
f 117/5/35 46/6/35 45/7/35
f 46/6/36 117/5/36 45/7/36
f 32/7/37 31/8/37 47/5/37
f 31/8/38 32/7/38 47/5/38
f 49/7/39 48/8/39 50/5/39
f 48/8/40 49/7/40 50/5/40
f 23/7/41 21/8/41 51/5/41
f 21/8/42 23/7/42 51/5/42
f 86/5/43 54/6/43 53/7/43
f 54/6/44 86/5/44 53/7/44
f 118/5/45 57/6/45 56/7/45
f 57/6/46 118/5/46 56/7/46
f 59/7/47 58/8/47 60/5/47
f 58/8/48 59/7/48 60/5/48
f 111/5/49 63/6/49 62/7/49
f 63/6/50 111/5/50 62/7/50
f 41/5/51 64/6/51 42/7/51
f 64/6/52 41/5/52 42/7/52
f 66/7/53 65/8/53 67/5/53
f 65/8/54 66/7/54 67/5/54
f 70/7/55 68/8/55 69/5/55
f 68/8/56 70/7/56 69/5/56
f 119/5/57 73/6/57 72/7/57
f 73/6/58 119/5/58 72/7/58
f 99/5/59 75/6/59 76/7/59
f 75/6/60 99/5/60 76/7/60
f 67/5/61 77/6/61 66/7/61
f 77/6/62 67/5/62 66/7/62
f 85/5/63 80/6/63 79/7/63
f 80/6/64 85/5/64 79/7/64
f 120/5/65 83/6/65 82/7/65
f 83/6/66 120/5/66 82/7/66
f 38/7/67 37/8/67 84/5/67
f 37/8/68 38/7/68 84/5/68
f 79/7/69 78/8/69 85/5/69
f 78/8/70 79/7/70 85/5/70
f 53/7/71 52/8/71 86/5/71
f 52/8/72 53/7/72 86/5/72
f 2/7/73 1/8/73 87/5/73
f 1/8/74 2/7/74 87/5/74
f 50/5/75 88/6/75 49/7/75
f 88/6/76 50/5/76 49/7/76
f 69/5/77 89/6/77 70/7/77
f 89/6/78 69/5/78 70/7/78
f 115/5/79 92/6/79 91/7/79
f 92/6/80 115/5/80 91/7/80
f 116/5/81 95/6/81 94/7/81
f 95/6/82 116/5/82 94/7/82
f 110/5/83 98/6/83 97/7/83
f 98/6/84 110/5/84 97/7/84
f 76/7/85 74/8/85 99/5/85
f 74/8/86 76/7/86 99/5/86
f 109/5/87 102/6/87 101/7/87
f 102/6/88 109/5/88 101/7/88
f 36/7/89 34/8/89 103/5/89
f 34/8/90 36/7/90 103/5/90
f 108/5/91 106/6/91 105/7/91
f 106/6/92 108/5/92 105/7/92
f 60/5/93 107/6/93 59/7/93
f 107/6/94 60/5/94 59/7/94
f 105/7/95 104/8/95 108/5/95
f 104/8/96 105/7/96 108/5/96
f 101/7/97 100/8/97 109/5/97
f 100/8/98 101/7/98 109/5/98
f 97/7/99 96/8/99 110/5/99
f 96/8/100 97/7/100 110/5/100
f 62/7/101 61/8/101 111/5/101
f 61/8/102 62/7/102 111/5/102
f 25/7/103 24/8/103 112/5/103
f 24/8/104 25/7/104 112/5/104
f 28/7/105 27/8/105 113/5/105
f 27/8/106 28/7/106 113/5/106
f 5/7/107 4/8/107 114/5/107
f 4/8/108 5/7/108 114/5/108
f 91/7/109 90/8/109 115/5/109
f 90/8/110 91/7/110 115/5/110
f 94/7/111 93/8/111 116/5/111
f 93/8/112 94/7/112 116/5/112
f 45/7/113 44/8/113 117/5/113
f 44/8/114 45/7/114 117/5/114
f 56/7/115 55/8/115 118/5/115
f 55/8/116 56/7/116 118/5/116
f 72/7/117 71/8/117 119/5/117
f 71/8/118 72/7/118 119/5/118
f 82/7/119 81/8/119 120/5/119
f 81/8/120 82/7/120 120/5/120
