# Blender v2.75 (sub 0) OBJ File: 'Empty.blend'
# www.blender.org
mtllib NW_NATURE_SIDEPLANT_CORNER_01.mtl
o NW_NATURE_SIDEPLANT_CORNER_01
v 1.566991 1.001913 -1.540649
v 1.041118 1.001912 0.442340
v 1.043399 -0.017350 -1.599942
v 1.017267 1.001913 0.607850
v -1.012301 1.001912 0.308449
v 1.017267 -0.017350 0.080912
v -1.012301 -0.017350 0.171470
v 0.905008 -0.017350 0.426927
v 1.231070 -0.038690 -0.618999
v 1.053130 1.206131 -1.919495
v 1.159172 1.206075 -0.409664
v 0.063671 -0.038690 0.377770
v 1.335914 -0.038643 0.122945
v 1.335885 1.206131 0.054623
v -0.152424 1.206075 0.329883
v 1.121021 -0.038643 -1.911836
v 0.627315 0.945322 -1.647061
v 0.437848 0.945322 0.374024
v -1.333778 1.206030 0.054506
v -1.333750 -0.038743 -0.025690
v 0.752614 1.206030 0.733201
v 0.672930 -0.038743 0.724148
v 1.017267 0.945322 -0.337832
v -1.012301 0.945322 -0.298676
vt 1.570279 -0.999497
vt 2.998470 -0.000499
vt 1.327690 -0.000503
vt 2.998502 -0.999494
vt 0.001499 -0.000506
vt 0.001530 -0.999501
vt 0.000500 -0.999501
vt 0.000500 -0.000500
vt 0.999500 -0.999500
vt 0.999500 -0.000499
vt 0.999500 -1.053912
vt 0.999500 -0.103074
vt 0.000500 -1.053912
vt 0.000500 -0.103074
vn 0.995100 0.069200 -0.069900
vn 0.196100 0.053700 0.979100
vn 0.181400 0.069200 0.981000
vn 0.995000 0.053700 -0.084700
vn -0.227000 -0.001900 0.973900
vn -0.276900 -0.061800 0.958900
vn 0.942200 -0.001900 0.335200
vn 0.921700 -0.061800 0.383000
vn 0.886400 -0.458900 0.060500
vn -0.886400 0.458900 -0.060500
vn 0.039600 -0.458900 0.887600
vn -0.039600 0.458900 -0.887600
vn -0.144700 -0.131800 0.980700
vn 0.144700 0.131800 -0.980700
vn 0.958200 -0.131800 0.254100
vn -0.958200 0.131800 -0.254100
vn 0.915000 0.398500 0.062500
vn 0.894700 0.438800 0.083900
vn 0.040900 0.398500 0.916200
vn 0.017300 0.438800 0.898400
usemtl NW_NATURE_GRASS_DECAL_01
s off
f 9/1/1 10/2/1 11/3/1
f 14/2/2 12/1/2 13/4/2
f 12/1/3 14/2/3 15/3/3
f 10/2/4 9/1/4 16/4/4
f 12/1/5 15/3/5 19/5/5
f 19/5/6 20/6/6 12/1/6
f 9/1/7 11/3/7 21/5/7
f 21/5/8 22/6/8 9/1/8
usemtl NW_NATURE_HOUSEGRASS_DECAL_01
f 3/7/9 1/8/9 8/9/9
f 1/8/10 3/7/10 8/9/10
f 6/7/11 4/8/11 7/9/11
f 4/8/12 6/7/12 7/9/12
f 5/10/13 7/9/13 4/8/13
f 7/9/14 5/10/14 4/8/14
f 2/10/15 8/9/15 1/8/15
f 8/9/16 2/10/16 1/8/16
f 3/11/17 17/12/17 8/13/17
f 18/14/18 8/13/18 17/12/18
f 6/11/19 23/12/19 7/13/19
f 24/14/20 7/13/20 23/12/20
