# Blender v2.75 (sub 0) OBJ File: 'Empty.blend'
# www.blender.org
mtllib NW_NATURE_PLANT_02.mtl
o NW_NATURE_PLANT_02
v 0.988642 0.989395 -0.407451
v -0.094248 -0.078445 -0.482842
v 0.633432 0.643098 0.121972
v 0.559561 0.989395 0.891598
v 0.322116 -0.078445 -0.167625
v -0.049333 0.643098 0.702629
v -0.993023 1.136418 -0.034176
v -0.194137 -0.144972 0.161871
v -0.669690 0.705969 -0.520543
v 1.382816 0.772545 0.365801
v 0.306699 -0.054428 -0.324636
v 0.718936 0.584903 0.590382
v 0.277511 0.985822 -1.356099
v -0.285941 -0.067360 -0.411671
v 0.592556 0.630994 -0.807257
v 0.830758 1.091377 -0.012980
v 0.035746 -0.189308 -0.228426
v 0.369794 0.745461 0.427745
v -0.928966 0.989395 -0.625477
v -0.302316 -0.078445 0.260889
v -0.294234 0.643098 -0.685289
v -0.538418 0.812875 1.122666
v 0.239115 -0.048533 0.136747
v -0.714407 0.587842 0.455754
v -0.894197 0.015507 -0.628276
v -0.415251 -0.036201 0.015231
v -0.311788 0.155861 -0.790631
v -0.218058 0.252983 0.305910
v 0.440898 0.244787 -0.399963
v 0.257299 0.300304 0.380767
v 0.021944 0.279987 0.408315
v 0.014121 0.252982 -0.384007
v -0.337835 0.228564 -0.520543
v -0.468680 0.286282 0.023639
v 0.205030 0.252982 0.170194
v -0.139198 0.535729 0.819221
v 0.557099 0.643098 -0.556160
v 1.040395 0.502682 -0.005934
v 0.578646 0.643098 0.435550
v -0.771143 0.643098 -0.197183
v 0.543844 0.642600 -0.224034
v -0.051934 0.648194 -1.030924
v -0.669691 0.705969 0.161871
v -0.741026 0.184998 -0.260918
v -0.305863 -0.078445 0.099454
v 0.578758 0.218083 -0.215550
v -0.014761 0.027793 0.271681
v -0.017915 -0.078445 0.195290
v 0.409922 0.252982 0.038831
v -0.462787 0.252983 0.104099
v 0.174592 -0.078445 -0.227218
v -0.336094 0.003581 -0.226720
v 0.195993 0.177125 -0.243464
v -0.203591 0.261988 -0.623630
v 0.358549 -0.084561 -0.188003
v -0.138304 -0.086446 0.423352
v 0.128696 0.252983 -0.507938
v 0.106529 0.234168 0.387106
v -0.337835 0.228564 0.161871
v -0.194137 -0.144972 -0.520543
v 0.464231 1.083530 -1.886612
v 0.728588 1.076474 -1.794868
v 0.541868 0.978767 -1.264355
v 0.779329 1.092049 1.408336
v 0.301977 0.989395 1.001148
v -0.843620 0.808527 1.605043
v -1.079560 0.829903 1.455956
v 1.349452 1.305492 0.091740
v 1.278060 1.347684 0.359087
v 0.759366 1.133569 0.254367
v 1.546649 1.092049 -0.470262
v 1.577959 1.092049 -0.192106
v 1.883635 0.750408 0.638832
v 1.751778 0.784133 0.883429
v 1.250960 0.806270 0.610398
v 1.019952 0.989395 -0.129295
v -1.516858 1.363249 -0.034176
v -1.516858 1.363249 -0.314089
v -0.993023 1.136418 -0.314089
v 0.521745 1.092049 1.517887
v -1.330608 1.092049 -1.017906
v -0.733348 0.989395 -0.825688
v -1.134990 1.092049 -1.218117
v -0.718132 0.003555 -0.845554
v -0.774357 0.834251 0.973578
v -0.125649 0.076770 -0.635447
v -0.786792 0.231254 -0.553111
v -0.464771 0.224888 -0.291819
v -0.610728 0.219302 -0.770389
v 0.928800 0.657800 0.136874
v -0.584884 0.812186 -0.034176
v -0.277472 0.681755 0.690903
v 0.467163 0.373201 -0.072742
v 0.520772 0.765725 -0.354785
v 0.206568 0.375610 0.061610
v 0.092369 0.375610 -0.306563
v 0.375293 0.765725 0.458330
v -0.034375 0.380142 -0.503987
v 0.070263 0.313292 -0.093265
v -0.031745 0.380195 0.258787
v -0.283846 0.375610 0.004843
v -0.592202 0.765725 -0.296439
v 0.418114 0.778766 -0.073836
v 0.117282 0.766349 -0.911281
v -0.253028 0.334781 -0.034176
v -0.127167 0.021863 -0.264165
v -0.113375 -0.087413 -0.079065
v 0.162901 0.078787 -0.196168
v 0.117743 0.074404 -0.021631
v -0.087195 -0.073861 -0.034176
v 0.107220 0.014982 -0.171986
v -0.159883 0.014983 -0.278168
v -0.102280 0.014982 0.182244
v -0.554887 0.105906 -0.105735
v 0.013987 -0.065337 -0.514481
v -0.311565 0.075395 -0.159451
v -0.285583 0.367426 0.109360
v 0.397866 0.725995 -0.830227
v -0.398970 0.732871 -0.516683
v 0.140703 0.342756 -0.017582
v 0.015931 0.328828 0.196100
v 0.334498 0.373222 0.190556
v -0.607605 0.783729 -0.326751
v -0.275749 0.306324 -0.326751
v 0.569106 0.732871 -0.065804
v 0.796136 0.657821 0.400172
v -0.090614 0.342756 -0.215401
v 0.246209 0.339788 -0.422933
v -0.056521 0.342756 0.190570
v 0.363782 0.794303 0.215530
v 0.112204 0.732871 0.587289
v -0.531311 0.668986 0.541475
v -0.271848 0.178276 -0.509841
v 0.153417 -0.018490 -0.183110
v -0.155869 -0.017871 -0.043027
v 0.090952 -0.017871 -0.038000
v -0.136095 0.061636 -0.171059
v 0.030236 0.078808 0.067130
v -0.167707 -0.071877 0.210300
v -0.109916 -0.102318 -0.326751
v -0.111548 -0.017871 0.010813
v -0.118642 0.028784 -0.377472
v -0.457987 0.257368 -0.665024
v -0.650910 0.303979 -0.447003
vt 1.153029 -0.495938
vt 1.353463 -0.499829
vt 1.138872 -0.729822
vt 1.123178 -0.989094
vt 1.323612 -0.992985
vt 1.339306 -0.733712
vt 1.368891 -0.244964
vt 1.012647 -0.493213
vt 0.998490 -0.727097
vt 1.383302 -0.006887
vt 1.182867 -0.002997
vt 1.168456 -0.241074
vt 1.501297 -0.502698
vt 0.982796 -0.986369
vt 1.471445 -0.995854
vt 1.487139 -0.736582
vn 0.648800 -0.736300 -0.192200
vn -0.648800 0.736300 0.192200
vn 0.369700 -0.736300 0.566800
vn -0.369700 0.736300 -0.566800
vn -0.815300 -0.566800 0.118400
vn 0.815300 0.566800 -0.118400
vn 0.437400 -0.871800 0.220400
vn -0.437400 0.871800 -0.220400
vn 0.086800 -0.738800 -0.668300
vn -0.086800 0.738800 0.668300
vn 0.784500 -0.593700 0.179200
vn -0.784500 0.593700 -0.179200
vn -0.559300 -0.736300 -0.380900
vn 0.559300 0.736300 0.380900
vn -0.230800 -0.854600 0.465100
vn 0.230800 0.854600 -0.465100
vn -0.525200 -0.798600 -0.294000
vn 0.525200 0.798600 0.294000
vn -0.124500 -0.948100 0.292600
vn 0.124500 0.948100 -0.292600
vn 0.467800 -0.866000 -0.176700
vn -0.467800 0.866000 0.176700
vn 0.253800 -0.958800 0.127900
vn -0.253800 0.958800 -0.127900
vn 0.303100 -0.866000 0.397800
vn -0.303100 0.866000 -0.397800
vn -0.432800 -0.866000 -0.250500
vn 0.432800 0.866000 0.250500
vn 0.633600 -0.757000 0.159600
vn -0.633600 0.757000 -0.159600
vn 0.019300 -0.866800 -0.498300
vn -0.019300 0.866800 0.498300
vn -0.667700 -0.734100 0.123300
vn 0.667700 0.734100 -0.123300
vn -0.065900 0.854800 0.514700
vn 0.065900 -0.854800 -0.514700
vn 0.417500 -0.572200 0.705900
vn -0.417500 0.572200 -0.705900
vn 0.597300 -0.743400 0.301000
vn -0.597300 0.743400 -0.301000
vn 0.795800 -0.572200 -0.198200
vn -0.795800 0.572200 0.198200
vn -0.656900 -0.572200 -0.491000
vn 0.656900 0.572200 0.491000
vn -0.324500 -0.720600 0.612800
vn 0.324500 0.720600 -0.612800
vn 0.895100 -0.403500 0.189700
vn -0.895100 0.403500 -0.189700
vn 0.149200 -0.576400 -0.803400
vn -0.149200 0.576400 0.803400
vn -0.921200 -0.373800 0.107900
vn 0.921200 0.373800 -0.107900
vn -0.032700 0.984900 0.169900
vn 0.032700 -0.984900 -0.169900
vn -0.116500 0.906700 0.405400
vn 0.116500 -0.906700 -0.405400
vn -0.167900 0.903300 -0.394900
vn -0.070400 0.983700 -0.165500
vn 0.167900 -0.903300 0.394900
vn 0.070400 -0.983700 0.165500
vn 0.060500 0.997100 0.047300
vn -0.060500 -0.997100 -0.047300
vn -0.330600 0.914700 -0.232600
vn 0.330600 -0.914700 0.232600
vn -0.555200 0.785900 -0.272300
vn 0.555200 -0.785900 0.272300
vn -0.178700 0.983700 0.020100
vn 0.178700 -0.983700 -0.020100
vn 0.091500 0.992000 -0.087400
vn -0.091500 -0.992000 0.087400
vn -0.139400 0.968000 -0.208600
vn 0.139400 -0.968000 0.208600
vn -0.426400 0.903300 0.048000
vn 0.426400 -0.903300 -0.048000
vn 0.397400 0.917700 0.000000
vn -0.397400 -0.917700 0.000000
vn 0.622000 0.783000 0.000000
vn -0.622000 -0.783000 0.000000
vn 0.306900 0.903300 0.299900
vn 0.128600 0.983700 0.125700
vn -0.306900 -0.903300 -0.299900
vn -0.128600 -0.983700 -0.125700
vn 0.326600 0.941100 0.087800
vn -0.326600 -0.941100 -0.087800
vn 0.197200 0.964800 -0.173800
vn -0.197200 -0.964800 0.173800
vn -0.482400 -0.865100 0.137700
vn 0.482400 0.865100 -0.137700
vn -0.650700 0.517500 -0.555700
vn 0.650700 -0.517500 0.555700
vn -0.059400 0.652700 -0.755300
vn 0.153800 0.726900 -0.669300
vn 0.059400 -0.652700 0.755300
vn -0.153800 -0.726900 0.669300
vn 0.683900 0.475400 0.553400
vn 0.511200 0.643500 0.569800
vn -0.683900 -0.475400 -0.553400
vn -0.511200 -0.643500 -0.569800
vn 0.743800 0.667000 -0.042500
vn 0.642300 0.749400 0.160600
vn -0.743800 -0.667000 0.042500
vn -0.642300 -0.749400 -0.160600
vn -0.226700 0.566400 -0.792300
vn 0.226700 -0.566400 0.792300
vn -0.617300 0.617600 -0.487400
vn -0.414200 0.742300 -0.526700
vn 0.617300 -0.617600 0.487400
vn 0.414200 -0.742300 0.526700
vn 0.202200 0.492600 -0.846400
vn 0.290500 0.617600 -0.730900
vn -0.202200 -0.492600 0.846400
vn -0.290500 -0.617600 0.730900
vn -0.753300 0.492600 -0.435800
vn 0.753300 -0.492600 0.435800
vn 0.386300 0.742300 -0.547500
vn -0.386300 -0.742300 0.547500
vn -0.704800 0.511600 0.491600
vn -0.689300 0.636200 0.346600
vn 0.704800 -0.511600 -0.491600
vn 0.689300 -0.636200 -0.346600
vn -0.614800 0.255300 -0.746200
vn -0.491500 0.399600 -0.773800
vn 0.614800 -0.255300 0.746200
vn 0.491500 -0.399600 0.773800
vn 0.793700 0.573700 -0.202400
vn -0.793700 -0.573700 0.202400
vn 0.139000 0.492600 0.859100
vn 0.013000 0.617600 0.786400
vn -0.139000 -0.492600 -0.859100
vn -0.013000 -0.617600 -0.786400
vn -0.146000 0.742300 0.654000
vn 0.146000 -0.742300 -0.654000
vn -0.311000 0.560000 -0.768000
vn 0.311000 -0.560000 0.768000
vn -0.633800 0.759500 0.146400
vn 0.633800 -0.759500 -0.146400
vn 0.793000 0.321800 0.517400
vn -0.793000 -0.321800 -0.517400
vn -0.724700 0.491800 0.482600
vn 0.724700 -0.491800 -0.482600
vn -0.604100 0.232900 -0.762100
vn 0.604100 -0.232900 0.762100
vn -0.219900 0.543700 -0.809900
vn 0.219900 -0.543700 0.809900
vn 0.811300 0.551800 -0.193400
vn -0.811300 -0.551800 0.193400
vn 0.786300 0.302500 0.538700
vn -0.786300 -0.302500 -0.538700
vn 0.222600 0.472300 -0.852900
vn -0.222600 -0.472300 0.852900
vn -0.753600 0.472300 -0.457200
vn 0.753600 -0.472300 0.457200
vn 0.122600 0.472300 0.872900
vn -0.122600 -0.472300 -0.872900
vn 0.228700 0.766200 0.600600
vn -0.228700 -0.766200 -0.600600
vn 0.230600 0.752100 0.617400
vn -0.230600 -0.752100 -0.617400
vn 0.046200 0.674300 -0.737000
vn -0.073400 0.797800 -0.598500
vn -0.046200 -0.674300 0.737000
vn 0.073400 -0.797800 0.598500
vn 0.237500 0.659200 0.713500
vn 0.311700 0.772500 0.553200
vn -0.237500 -0.659200 -0.713500
vn -0.311700 -0.772500 -0.553200
vn 0.739200 0.665300 0.104900
vn 0.624400 0.780600 -0.027700
vn -0.739200 -0.665300 -0.104900
vn -0.624400 -0.780600 0.027700
vn -0.707100 0.512500 0.487200
vn -0.548900 0.665300 0.506100
vn 0.707100 -0.512500 -0.487200
vn 0.548900 -0.665300 -0.506100
vn -0.908000 0.401900 0.118200
vn -0.794200 0.586900 0.157600
vn 0.908000 -0.401900 -0.118200
vn 0.794200 -0.586900 -0.157600
vn -0.704800 0.709300 -0.014100
vn -0.552800 0.828100 0.093100
vn 0.704800 -0.709300 0.014100
vn 0.552800 -0.828100 -0.093100
vn 0.736700 0.512100 -0.441500
vn 0.592500 0.663900 -0.456200
vn -0.736700 -0.512100 0.441500
vn -0.592500 -0.663900 0.456200
vn 0.853300 0.328300 -0.405100
vn -0.853300 -0.328300 0.405100
vn -0.373600 0.780600 0.501200
vn 0.373600 -0.780600 -0.501200
vn -0.383200 0.903700 0.190900
vn 0.383200 -0.903700 -0.190900
vn 0.824600 0.512500 0.239400
vn -0.824600 -0.512500 -0.239400
vn 0.148200 0.508700 0.848100
vn -0.148200 -0.508700 -0.848100
vn -0.669100 0.512500 -0.538200
vn -0.641900 0.665300 -0.381200
vn 0.669100 -0.512500 0.538200
vn 0.641900 -0.665300 0.381200
vn -0.650000 0.736400 0.187900
vn 0.650000 -0.736400 -0.187900
vn -0.587100 0.780600 -0.214600
vn 0.587100 -0.780600 0.214600
vn -0.183800 0.879200 -0.439600
vn 0.183800 -0.879200 0.439600
vn 0.643500 0.752300 0.141000
vn -0.643500 -0.752300 -0.141000
vn 0.185200 0.513000 0.838100
vn -0.185200 -0.513000 -0.838100
vn -0.689800 0.517800 -0.506000
vn 0.689800 -0.517800 0.506000
vn 0.831400 0.517800 0.201700
vn -0.831400 -0.517800 -0.201700
vn 0.007800 0.677900 -0.735100
vn -0.007800 -0.677900 0.735100
vn -0.700200 0.713600 0.023900
vn 0.700200 -0.713600 -0.023900
vn -0.896400 0.416200 0.152200
vn 0.896400 -0.416200 -0.152200
vn 0.833600 0.338300 -0.436700
vn -0.833600 -0.338300 0.436700
vn -0.682200 0.517800 0.516300
vn 0.682200 -0.517800 -0.516300
vn 0.646000 0.755900 0.106000
vn -0.646000 -0.755900 -0.106000
vn -0.060900 0.963700 -0.259900
vn 0.144500 0.845100 -0.514800
vn 0.060900 -0.963700 0.259900
vn -0.144500 -0.845100 0.514800
vn -0.277500 0.920400 -0.275500
vn -0.586200 0.781000 0.215500
vn 0.277500 -0.920400 0.275500
vn 0.586200 -0.781000 -0.215500
usemtl NW_NATURE_PLANT_02
s off
f 94/1/1 125/2/1 96/3/1
f 125/2/2 94/1/2 96/3/2
f 97/1/3 131/2/3 95/3/3
f 131/2/4 97/1/4 95/3/4
f 91/1/5 123/2/5 105/3/5
f 123/2/6 91/1/6 105/3/6
f 90/1/7 126/2/7 93/3/7
f 126/2/8 90/1/8 93/3/8
f 104/1/9 118/2/9 98/3/9
f 118/2/10 104/1/10 98/3/10
f 103/1/11 130/2/11 99/3/11
f 130/2/12 103/1/12 99/3/12
f 102/1/13 119/2/13 101/3/13
f 119/2/14 102/1/14 101/3/14
f 92/1/15 132/2/15 100/3/15
f 132/2/16 92/1/16 100/3/16
f 116/4/17 88/3/17 142/5/17
f 88/3/18 116/4/18 142/5/18
f 129/6/3 95/3/3 131/2/3
f 95/3/4 129/6/4 131/2/4
f 128/6/9 98/3/9 118/2/9
f 98/3/10 128/6/10 118/2/10
f 122/6/7 93/3/7 126/2/7
f 93/3/8 122/6/8 126/2/8
f 121/6/11 99/3/11 130/2/11
f 99/3/12 121/6/12 130/2/12
f 127/6/13 101/3/13 119/2/13
f 101/3/14 127/6/14 119/2/14
f 124/6/5 105/3/5 123/2/5
f 105/3/6 124/6/6 123/2/6
f 117/6/15 100/3/15 132/2/15
f 100/3/16 117/6/16 132/2/16
f 120/6/1 96/3/1 125/2/1
f 96/3/2 120/6/2 125/2/2
f 132/2/19 92/1/19 85/7/19
f 92/1/20 132/2/20 85/7/20
f 125/2/21 94/1/21 76/7/21
f 94/1/22 125/2/22 76/7/22
f 126/2/23 90/1/23 75/7/23
f 90/1/24 126/2/24 75/7/24
f 131/2/25 97/1/25 65/7/25
f 97/1/26 131/2/26 65/7/26
f 119/2/27 102/1/27 82/7/27
f 102/1/28 119/2/28 82/7/28
f 130/2/29 103/1/29 70/7/29
f 103/1/30 130/2/30 70/7/30
f 118/2/31 104/1/31 63/7/31
f 104/1/32 118/2/32 63/7/32
f 123/2/33 91/1/33 79/7/33
f 91/1/34 123/2/34 79/7/34
f 144/1/35 44/8/35 114/9/35
f 44/8/36 144/1/36 114/9/36
f 129/6/37 135/5/37 95/3/37
f 135/5/38 129/6/38 95/3/38
f 108/4/39 93/3/39 138/5/39
f 93/3/40 108/4/40 138/5/40
f 122/6/39 138/5/39 93/3/39
f 138/5/40 122/6/40 93/3/40
f 120/6/41 141/5/41 96/3/41
f 141/5/42 120/6/42 96/3/42
f 111/4/37 95/3/37 135/5/37
f 95/3/38 111/4/38 135/5/38
f 113/4/43 101/3/43 136/5/43
f 101/3/44 113/4/44 136/5/44
f 127/6/43 136/5/43 101/3/43
f 136/5/44 127/6/44 101/3/44
f 117/6/45 137/5/45 100/3/45
f 137/5/46 117/6/46 100/3/46
f 107/4/47 99/3/47 139/5/47
f 99/3/48 107/4/48 139/5/48
f 106/4/49 98/3/49 134/5/49
f 98/3/50 106/4/50 134/5/50
f 128/6/49 134/5/49 98/3/49
f 134/5/50 128/6/50 98/3/50
f 121/6/47 139/5/47 99/3/47
f 139/5/48 121/6/48 99/3/48
f 112/4/41 96/3/41 141/5/41
f 96/3/42 112/4/42 141/5/42
f 109/4/45 100/3/45 137/5/45
f 100/3/46 109/4/46 137/5/46
f 110/4/51 105/3/51 140/5/51
f 105/3/52 110/4/52 140/5/52
f 124/6/51 140/5/51 105/3/51
f 140/5/52 124/6/52 105/3/52
f 62/10/53 61/11/53 13/12/53
f 61/11/54 62/10/54 13/12/54
f 63/7/55 13/12/55 104/1/55
f 13/12/53 63/7/53 62/10/53
f 13/12/56 63/7/56 104/1/56
f 63/7/54 13/12/54 62/10/54
f 65/7/57 4/12/57 97/1/57
f 4/12/58 65/7/58 80/10/58
f 4/12/59 65/7/59 97/1/59
f 65/7/60 4/12/60 80/10/60
f 67/10/61 66/11/61 22/12/61
f 66/11/62 67/10/62 22/12/62
f 69/10/63 68/11/63 16/12/63
f 68/11/64 69/10/64 16/12/64
f 70/7/65 16/12/65 103/1/65
f 16/12/63 70/7/63 69/10/63
f 16/12/66 70/7/66 103/1/66
f 70/7/64 16/12/64 69/10/64
f 72/10/67 71/11/67 1/12/67
f 71/11/68 72/10/68 1/12/68
f 74/10/69 73/11/69 10/12/69
f 73/11/70 74/10/70 10/12/70
f 75/7/71 10/12/71 90/1/71
f 10/12/69 75/7/69 74/10/69
f 10/12/72 75/7/72 90/1/72
f 75/7/70 10/12/70 74/10/70
f 76/7/73 1/12/73 94/1/73
f 1/12/67 76/7/67 72/10/67
f 1/12/74 76/7/74 94/1/74
f 76/7/68 1/12/68 72/10/68
f 78/10/75 77/11/75 7/12/75
f 77/11/76 78/10/76 7/12/76
f 79/7/77 7/12/77 91/1/77
f 7/12/75 79/7/75 78/10/75
f 7/12/78 79/7/78 91/1/78
f 79/7/76 7/12/76 78/10/76
f 80/10/58 64/11/58 4/12/58
f 64/11/60 80/10/60 4/12/60
f 82/7/79 19/12/79 102/1/79
f 19/12/80 82/7/80 83/10/80
f 19/12/81 82/7/81 102/1/81
f 82/7/82 19/12/82 83/10/82
f 83/10/80 81/11/80 19/12/80
f 81/11/82 83/10/82 19/12/82
f 88/3/83 133/6/83 143/2/83
f 133/6/84 88/3/84 143/2/84
f 85/7/85 22/12/85 92/1/85
f 22/12/61 85/7/61 67/10/61
f 22/12/86 85/7/86 92/1/86
f 85/7/62 22/12/62 67/10/62
f 143/2/87 27/13/87 133/6/87
f 27/13/88 143/2/88 133/6/88
f 84/10/89 25/11/89 87/12/89
f 25/11/90 84/10/90 87/12/90
f 143/2/83 144/1/83 88/3/83
f 114/9/35 88/3/35 144/1/35
f 144/1/84 143/2/84 88/3/84
f 88/3/36 114/9/36 144/1/36
f 87/12/89 89/7/89 84/10/89
f 89/7/90 87/12/90 84/10/90
f 90/1/91 38/8/91 46/9/91
f 38/8/92 90/1/92 10/12/92
f 38/8/93 90/1/93 46/9/93
f 90/1/94 38/8/94 10/12/94
f 91/1/95 43/8/95 59/9/95
f 43/8/96 91/1/96 7/12/96
f 43/8/97 91/1/97 59/9/97
f 91/1/98 43/8/98 7/12/98
f 92/1/99 36/8/99 58/9/99
f 36/8/100 92/1/100 22/12/100
f 36/8/101 92/1/101 58/9/101
f 92/1/102 36/8/102 22/12/102
f 108/4/103 93/3/103 46/9/103
f 46/9/91 93/3/91 90/1/91
f 93/3/104 108/4/104 46/9/104
f 93/3/93 46/9/93 90/1/93
f 94/1/105 37/8/105 57/9/105
f 37/8/106 94/1/106 1/12/106
f 37/8/107 94/1/107 57/9/107
f 94/1/108 37/8/108 1/12/108
f 111/4/109 95/3/109 49/9/109
f 49/9/110 95/3/110 97/1/110
f 95/3/111 111/4/111 49/9/111
f 95/3/112 49/9/112 97/1/112
f 112/4/113 96/3/113 57/9/113
f 57/9/105 96/3/105 94/1/105
f 96/3/114 112/4/114 57/9/114
f 96/3/107 57/9/107 94/1/107
f 97/1/110 39/8/110 49/9/110
f 39/8/115 97/1/115 4/12/115
f 39/8/112 97/1/112 49/9/112
f 97/1/116 39/8/116 4/12/116
f 106/4/117 98/3/117 54/9/117
f 54/9/118 98/3/118 104/1/118
f 98/3/119 106/4/119 54/9/119
f 98/3/120 54/9/120 104/1/120
f 107/4/121 99/3/121 53/9/121
f 53/9/122 99/3/122 103/1/122
f 99/3/123 107/4/123 53/9/123
f 99/3/124 53/9/124 103/1/124
f 109/4/125 100/3/125 58/9/125
f 58/9/99 100/3/99 92/1/99
f 100/3/126 109/4/126 58/9/126
f 100/3/101 58/9/101 92/1/101
f 113/4/127 101/3/127 50/9/127
f 50/9/128 101/3/128 102/1/128
f 101/3/129 113/4/129 50/9/129
f 101/3/130 50/9/130 102/1/130
f 102/1/128 40/8/128 50/9/128
f 40/8/131 102/1/131 19/12/131
f 40/8/130 102/1/130 50/9/130
f 102/1/132 40/8/132 19/12/132
f 103/1/122 41/8/122 53/9/122
f 41/8/133 103/1/133 16/12/133
f 41/8/124 103/1/124 53/9/124
f 103/1/134 41/8/134 16/12/134
f 104/1/118 42/8/118 54/9/118
f 42/8/135 104/1/135 13/12/135
f 42/8/120 104/1/120 54/9/120
f 104/1/136 42/8/136 13/12/136
f 110/4/137 105/3/137 59/9/137
f 59/9/95 105/3/95 91/1/95
f 105/3/138 110/4/138 59/9/138
f 105/3/97 59/9/97 91/1/97
f 54/9/139 14/14/139 106/4/139
f 14/14/140 54/9/140 106/4/140
f 53/9/141 17/14/141 107/4/141
f 17/14/142 53/9/142 107/4/142
f 46/9/143 11/14/143 108/4/143
f 11/14/144 46/9/144 108/4/144
f 58/9/145 23/14/145 109/4/145
f 23/14/146 58/9/146 109/4/146
f 59/9/147 8/14/147 110/4/147
f 8/14/148 59/9/148 110/4/148
f 49/9/149 5/14/149 111/4/149
f 5/14/150 49/9/150 111/4/150
f 57/9/151 2/14/151 112/4/151
f 2/14/152 57/9/152 112/4/152
f 50/9/153 20/14/153 113/4/153
f 20/14/154 50/9/154 113/4/154
f 116/4/155 88/3/155 114/9/155
f 88/3/156 116/4/156 114/9/156
f 133/6/17 142/5/17 88/3/17
f 142/5/18 133/6/18 88/3/18
f 114/9/157 26/14/157 116/4/157
f 26/14/158 114/9/158 116/4/158
f 52/15/159 34/16/159 117/6/159
f 117/6/160 34/16/160 24/13/160
f 34/16/161 52/15/161 117/6/161
f 34/16/162 117/6/162 24/13/162
f 15/13/163 118/2/163 128/6/163
f 15/13/164 63/7/164 118/2/164
f 118/2/165 15/13/165 128/6/165
f 63/7/166 15/13/166 118/2/166
f 21/13/167 119/2/167 127/6/167
f 21/13/168 82/7/168 119/2/168
f 119/2/169 21/13/169 127/6/169
f 82/7/170 21/13/170 119/2/170
f 48/15/171 35/16/171 120/6/171
f 120/6/172 35/16/172 3/13/172
f 35/16/173 48/15/173 120/6/173
f 35/16/174 120/6/174 3/13/174
f 56/15/175 31/16/175 121/6/175
f 121/6/176 31/16/176 18/13/176
f 31/16/177 56/15/177 121/6/177
f 31/16/178 121/6/178 18/13/178
f 47/15/179 30/16/179 122/6/179
f 122/6/180 30/16/180 12/13/180
f 30/16/181 47/15/181 122/6/181
f 30/16/182 122/6/182 12/13/182
f 9/13/183 123/2/183 124/6/183
f 9/13/184 79/7/184 123/2/184
f 123/2/185 9/13/185 124/6/185
f 79/7/186 9/13/186 123/2/186
f 60/15/187 33/16/187 124/6/187
f 124/6/183 33/16/183 9/13/183
f 33/16/188 60/15/188 124/6/188
f 33/16/185 124/6/185 9/13/185
f 3/13/172 125/2/172 120/6/172
f 3/13/189 76/7/189 125/2/189
f 125/2/174 3/13/174 120/6/174
f 76/7/190 3/13/190 125/2/190
f 12/13/180 126/2/180 122/6/180
f 12/13/191 75/7/191 126/2/191
f 126/2/182 12/13/182 122/6/182
f 75/7/192 12/13/192 126/2/192
f 51/15/193 32/16/193 127/6/193
f 127/6/167 32/16/167 21/13/167
f 32/16/194 51/15/194 127/6/194
f 32/16/169 127/6/169 21/13/169
f 55/15/195 29/16/195 128/6/195
f 128/6/163 29/16/163 15/13/163
f 29/16/196 55/15/196 128/6/196
f 29/16/165 128/6/165 15/13/165
f 45/15/197 28/16/197 129/6/197
f 129/6/198 28/16/198 6/13/198
f 28/16/199 45/15/199 129/6/199
f 28/16/200 129/6/200 6/13/200
f 18/13/176 130/2/176 121/6/176
f 18/13/201 70/7/201 130/2/201
f 130/2/178 18/13/178 121/6/178
f 70/7/202 18/13/202 130/2/202
f 6/13/198 131/2/198 129/6/198
f 6/13/203 65/7/203 131/2/203
f 131/2/200 6/13/200 129/6/200
f 65/7/204 6/13/204 131/2/204
f 24/13/160 132/2/160 117/6/160
f 24/13/205 85/7/205 132/2/205
f 132/2/162 24/13/162 117/6/162
f 85/7/206 24/13/206 132/2/206
f 115/15/207 86/16/207 133/6/207
f 133/6/88 86/16/88 27/13/88
f 86/16/208 115/15/208 133/6/208
f 86/16/87 133/6/87 27/13/87
f 128/6/209 134/5/209 55/15/209
f 134/5/210 128/6/210 55/15/210
f 129/6/211 135/5/211 45/15/211
f 135/5/212 129/6/212 45/15/212
f 127/6/213 136/5/213 51/15/213
f 136/5/214 127/6/214 51/15/214
f 117/6/215 137/5/215 52/15/215
f 137/5/216 117/6/216 52/15/216
f 122/6/217 138/5/217 47/15/217
f 138/5/218 122/6/218 47/15/218
f 121/6/219 139/5/219 56/15/219
f 139/5/220 121/6/220 56/15/220
f 124/6/221 140/5/221 60/15/221
f 140/5/222 124/6/222 60/15/222
f 120/6/223 141/5/223 48/15/223
f 141/5/224 120/6/224 48/15/224
f 133/6/225 142/5/225 115/15/225
f 142/5/226 133/6/226 115/15/226
f 144/1/227 143/2/227 89/7/227
f 27/13/228 89/7/228 143/2/228
f 143/2/229 144/1/229 89/7/229
f 89/7/230 27/13/230 143/2/230
f 89/7/231 87/12/231 144/1/231
f 44/8/232 144/1/232 87/12/232
f 87/12/233 89/7/233 144/1/233
f 144/1/234 44/8/234 87/12/234
