# Blender v2.75 (sub 0) OBJ File: 'Empty.blend'
# www.blender.org
mtllib NW_NATURE_LIANA_01_87P.mtl
o NW_NATURE_LIANA_01_87P
v 5.429588 2.299413 2.981328
v 5.059801 14.638583 2.964552
v 5.205881 14.638586 3.005294
v 5.531780 2.378742 2.981328
v 5.681730 14.638583 3.046036
v 5.827810 14.638586 3.005294
v 0.017626 -1.310934 0.356555
v -0.024245 14.607496 0.284034
v 0.101368 14.607498 0.356555
v -3.670011 2.682556 4.494331
v -3.707884 16.059389 4.428736
v -3.594267 16.059391 4.494331
v 3.869041 2.009096 -2.665616
v 3.836983 13.854448 -2.728359
v 3.836983 13.854448 -2.602873
v 2.434855 0.705713 -2.480434
v 2.401217 14.082546 -2.422173
v 2.502131 14.082546 -2.480435
v -0.024245 14.607496 0.429076
v -0.013508 -1.233904 0.410478
v -3.707884 16.059389 4.559926
v 2.401217 14.082546 -2.538696
v -4.276908 2.949992 -5.167372
v -4.297725 14.702464 -5.208114
v -4.289919 3.031553 -5.141908
v -4.297725 14.702464 -5.126629
v 3.933156 13.854449 -2.665616
v 3.856030 2.073828 -2.640152
v 2.421018 0.770444 -2.456468
v -3.683848 2.747287 4.518297
v -4.235275 14.702464 -5.167372
v 5.681730 14.638583 2.964552
v 5.059801 14.638583 3.046036
v 5.531780 2.378742 3.029260
v 5.597356 2.522688 3.005294
v 5.483503 2.266715 3.005294
v 5.361400 2.333778 3.029260
v 5.414700 2.260665 3.005294
v 5.429588 2.299413 3.029260
v 5.361400 2.333778 2.981328
v 5.396571 2.355826 3.005294
v 5.331164 2.466790 3.029260
v 5.555846 2.522688 3.029260
v 5.372674 2.466790 3.005294
v 5.473980 2.307118 2.981328
v 5.473980 2.307118 3.029260
v -0.013508 -1.233904 0.302631
v 0.079893 -1.233904 0.356555
v 5.560277 2.348558 3.005294
v 5.331164 2.466790 2.981328
v 5.555846 2.522688 2.981328
v 3.856030 2.073828 -2.691080
v 3.895062 2.073828 -2.665616
v 2.421018 0.770444 -2.504400
v 2.462529 0.770444 -2.480434
v -3.683848 2.747287 4.470365
v -3.642337 2.747287 4.494331
v -4.289919 3.031553 -5.192836
v -4.250888 3.031553 -5.167372
vt 0.190516 7.825005
vt 0.000500 7.825003
vt 0.230588 -8.611882
vt 0.999500 7.825003
vt 0.809484 7.825005
vt 0.657641 -8.611882
vt 0.835564 -8.554087
vt 0.052664 -8.554087
vt 0.999502 2.830003
vt 0.000546 2.830003
vt 0.000501 -3.830003
vt -2.830003 -0.000500
vt -2.830003 -0.999501
vt 3.830003 -0.999501
vt 0.999457 -3.830003
vt 3.830003 -0.000500
vt 0.206177 -8.554087
vt 0.206177 -8.611882
vt 0.770764 -8.702918
vt 0.847494 -8.734126
vt 0.947336 -8.554087
vt 0.793826 -8.702918
vt 0.206177 -8.702918
vt 0.206177 -8.776973
vt 0.793826 -8.554087
vt 0.164435 -8.554087
vt 0.152506 -8.734126
vt 0.359226 -8.818748
vt 0.384867 -8.776973
vt 0.229236 -8.702918
vt 0.615133 -8.776973
vt 0.342359 -8.611882
vt 0.793826 -8.776973
vt 0.769412 -8.611882
vt 0.544484 -8.825004
vt 0.495605 -8.784940
vt 0.455516 -8.825004
vt 0.640774 -8.818748
vt 0.793826 -8.611882
vt 0.312000 -8.749409
vt 0.406703 -8.726612
vt 0.793826 -8.749409
vt 0.206177 -8.749409
vt 0.500001 -8.825004
vt 0.504395 -8.784940
vt 0.688000 -8.749409
vt 0.206174 -8.784940
vt 0.793823 -8.784940
vt 0.499999 -8.726612
vt 0.593297 -8.726612
vt 0.615133 -0.793826
vt 0.615133 -0.206177
vt 0.495605 -0.206177
vt 0.495605 -0.793826
vt 0.333486 -0.500001
vt 0.000501 -0.000500
vt 0.000501 -0.999501
vt 0.999457 -0.500001
vn 0.268600 0.004700 0.963200
vn 0.268700 0.003700 -0.963200
vn 0.268600 -0.004100 0.963200
vn 0.268700 -0.005100 -0.963200
vn 0.500000 -0.000700 0.866000
vn 0.500000 -0.000700 -0.866000
vn 0.500000 -0.001800 0.866000
vn 0.500000 -0.001800 -0.866000
vn -1.000000 -0.001600 0.000000
vn 0.546400 -0.001800 -0.837500
vn 0.500000 -0.001500 0.866000
vn 0.500000 -0.001500 -0.866000
vn -1.000000 -0.000700 0.000000
vn -1.000000 -0.001800 0.000000
vn -1.000000 -0.001500 0.000000
vn 0.546400 -0.000700 0.837500
vn 0.546400 -0.000700 -0.837500
vn 0.546400 -0.001800 0.837500
vn -0.999900 0.010400 0.000000
vn -0.999800 -0.022300 0.000000
vn 0.561800 -0.119600 0.818600
vn -0.778200 0.628000 0.000000
vn 0.500000 -0.009500 0.866000
vn 0.500000 -0.006400 -0.866000
vn 0.497200 -0.105900 -0.861200
vn 0.459300 -0.370600 -0.807300
vn 0.391800 -0.316200 0.864000
vn 0.500000 0.006900 0.866000
vn 0.500000 0.010000 -0.866000
vn 0.044100 -0.501900 -0.863800
vn 0.047400 -0.538500 0.841300
vn -0.225900 -0.448200 0.864900
vn 0.251700 0.499500 0.828900
vn -0.808100 -0.589100 0.000000
vn -0.225900 -0.448200 -0.864900
vn 0.863100 0.505100 0.000000
vn 0.251700 0.499500 -0.828900
vn 0.496800 0.112900 0.860500
vn -0.975100 -0.221700 0.000000
vn 0.498300 -0.083300 0.863000
vn -0.986300 0.164900 0.000000
vn 0.511600 0.110200 0.852100
vn 0.497100 0.107100 -0.861000
vn -0.171000 0.985300 0.000000
vn 0.095400 -0.549900 -0.829800
vn 0.085600 -0.493300 0.865600
vn -0.927100 -0.374700 0.000000
vn 0.463600 -0.374700 0.802900
vn 0.463600 -0.374700 -0.802900
vn 0.415400 -0.389700 0.822000
vn 0.365200 -0.342500 -0.865600
vn 0.508800 0.115700 -0.853100
vn 0.578600 -0.096700 -0.809800
vn -0.980400 -0.197000 0.000000
vn 0.533700 -0.214500 0.818000
vn 0.533700 -0.214500 -0.818000
vn -0.977900 -0.209000 0.000000
vn 0.488900 -0.209000 0.846900
vn 0.488900 -0.209000 -0.846900
vn -0.977900 -0.209100 0.000000
vn 0.489000 -0.209000 0.846900
vn -0.987500 -0.157500 0.000000
vn 0.538300 -0.171700 0.825100
vn 0.538300 -0.171700 -0.825100
usemtl NW_NATURE_BARK_07
s off
f 3/1/1 33/2/1 42/3/1
f 2/4/2 3/5/2 44/6/2
f 6/4/3 5/5/3 43/7/3
f 32/1/4 6/2/4 35/8/4
f 9/9/5 19/10/5 20/11/5
f 8/9/6 9/10/6 48/11/6
f 12/9/7 21/10/7 30/11/7
f 11/9/8 12/10/8 57/11/8
f 15/12/9 14/13/9 52/14/9
f 14/9/10 27/10/10 53/11/10
f 18/9/11 17/10/11 29/11/11
f 22/9/12 18/10/12 55/11/12
f 19/12/13 8/13/13 47/14/13
f 9/9/5 20/11/5 48/15/5
f 19/12/13 47/14/13 20/16/13
f 21/12/14 11/13/14 56/14/14
f 17/12/15 22/13/15 54/14/15
f 31/9/16 25/11/16 59/15/16
f 26/12/13 58/14/13 25/16/13
f 26/12/13 24/13/13 58/14/13
f 24/9/17 31/10/17 59/11/17
f 27/9/18 15/10/18 28/11/18
f 27/9/18 28/11/18 53/15/18
f 15/12/9 52/14/9 28/16/9
f 18/9/11 29/11/11 55/15/11
f 17/12/15 54/14/15 29/16/15
f 12/9/7 30/11/7 57/15/7
f 21/12/14 56/14/14 30/16/14
f 31/9/16 26/10/16 25/11/16
f 5/4/19 32/2/19 51/17/19
f 33/4/20 2/2/20 50/18/20
f 34/19/21 49/20/21 35/21/21
f 34/22/22 4/23/22 45/24/22
f 5/4/19 51/17/19 43/25/19
f 6/4/23 43/7/23 35/21/23
f 32/1/24 35/8/24 51/26/24
f 51/26/25 35/8/25 49/27/25
f 36/28/26 45/29/26 4/30/26
f 49/20/27 34/19/27 46/31/27
f 3/1/28 42/3/28 44/32/28
f 45/24/22 46/33/22 34/22/22
f 2/4/29 44/6/29 50/34/29
f 45/29/30 36/28/30 38/35/30
f 39/36/31 38/37/31 36/38/31
f 33/4/20 50/18/20 42/39/20
f 38/37/32 39/36/32 37/40/32
f 41/41/33 37/40/33 39/36/33
f 37/42/34 40/43/34 38/44/34
f 1/45/35 38/35/35 40/46/35
f 39/47/36 1/48/36 41/49/36
f 40/46/37 41/50/37 1/45/37
f 44/32/38 42/3/38 37/40/38
f 40/43/39 37/42/39 42/39/39
f 35/21/40 43/7/40 34/19/40
f 4/23/41 34/22/41 43/25/41
f 37/40/42 41/41/42 44/32/42
f 50/34/43 44/6/43 41/50/43
f 46/51/44 45/52/44 1/53/44
f 38/35/45 1/45/45 45/29/45
f 36/38/46 46/31/46 39/36/46
f 1/53/44 39/54/44 46/51/44
f 8/9/6 48/11/6 47/15/6
f 7/55/47 20/56/47 47/57/47
f 7/55/48 48/58/48 20/56/48
f 7/55/49 47/57/49 48/58/49
f 46/31/50 36/38/50 49/20/50
f 4/30/51 49/27/51 36/28/51
f 42/39/39 50/18/39 40/43/39
f 41/50/52 40/46/52 50/34/52
f 43/25/41 51/17/41 4/23/41
f 49/27/53 4/30/53 51/26/53
f 14/9/10 53/11/10 52/15/10
f 13/55/54 28/56/54 52/57/54
f 13/55/55 53/58/55 28/56/55
f 13/55/56 52/57/56 53/58/56
f 22/9/12 55/11/12 54/15/12
f 16/55/57 29/56/57 54/57/57
f 16/55/58 55/58/58 29/56/58
f 16/55/59 54/57/59 55/58/59
f 11/9/8 57/11/8 56/15/8
f 10/55/60 30/56/60 56/57/60
f 10/55/61 57/58/61 30/56/61
f 10/55/59 56/57/59 57/58/59
f 24/9/17 59/11/17 58/15/17
f 23/55/62 25/56/62 58/57/62
f 23/55/63 59/58/63 25/56/63
f 23/55/64 58/57/64 59/58/64
