# Blender v2.75 (sub 0) OBJ File: 'Empty.blend'
# www.blender.org
mtllib NW_NATURE_DUCKWEED_72P.mtl
o NW_NATURE_DUCKWEED_72P
v 8.644901 -0.141973 -7.016246
v 3.320268 -0.141973 -5.999809
v 8.748419 -0.141973 -1.227228
v 4.195054 -0.141973 -1.086253
v 6.229556 0.141994 -3.754467
v 6.493699 -0.141973 -4.676770
v 10.034557 -0.141973 -8.781306
v 2.417128 -0.141973 -9.121747
v 6.296412 -0.141973 -12.088049
v 6.359885 0.141994 -8.733273
v 2.487730 -0.141973 3.557785
v 7.857593 -0.141973 2.816551
v 2.364878 -0.141973 -2.472231
v 7.236676 -0.141973 -2.135495
v 5.067638 0.141994 0.424549
v 0.475739 -0.141973 -8.255953
v -2.604456 -0.141973 -3.531734
v 4.712653 -0.141973 -4.908944
v 2.185621 -0.141973 -0.457581
v 1.380969 0.141994 -4.299482
v 4.525365 -0.141973 -6.560939
v 4.003946 -0.141973 -12.176454
v -0.874059 -0.141973 -6.551346
v -1.659418 -0.141973 -11.609380
v 1.357979 0.141994 -9.098805
v 0.700550 -0.141973 3.997790
v 4.019644 -0.141973 -0.561757
v -3.358613 -0.141973 0.437299
v -0.605986 -0.141973 -3.878204
v 0.000003 0.141994 0.000000
v 1.809933 -0.141973 -3.696740
v 6.504400 -0.141973 -5.280688
v -0.405786 -0.141973 -8.806405
v 4.865550 -0.141973 -10.811124
v 3.267553 0.141994 -7.080244
v 6.381074 -0.141973 -3.855709
v 1.718461 -0.141973 -5.531094
v 4.942791 -0.141973 1.524760
v -0.433271 -0.141973 -0.179307
v 3.136811 0.141994 -2.110003
v -1.357764 -0.141973 3.654191
v 3.212512 -0.141973 5.567162
v 0.355341 -0.141973 -1.645184
v 5.636644 -0.141973 0.333126
v 1.971989 0.141994 2.077655
v 9.525323 -0.141973 -4.323443
v 4.518167 -0.141973 -3.763595
v 4.217388 -0.141973 -5.485878
v 0.719218 -0.141973 5.393484
v 6.605803 -0.141973 -0.656817
v 8.713758 -0.141973 -6.439999
v 5.809832 -0.141973 -7.013861
v 5.319168 -0.141973 3.701218
v 1.134650 -0.141973 -12.434283
v -0.516277 -0.141973 -1.547080
v 2.036301 -0.141973 -2.651183
v 3.918792 -0.141973 -2.629256
v -1.668309 -0.141973 -8.830897
v -2.448557 -0.141973 -1.798540
v 4.140569 -0.141973 -10.926815
v 4.851201 -0.141973 -2.688351
v 3.433768 -0.141973 -3.386974
v 7.878624 -0.141973 0.201334
v 8.322327 -0.141973 -10.758185
v -1.659544 -0.141973 2.279775
v 1.618686 -0.141973 -6.291044
v 2.921072 -0.141973 -6.661594
v 5.903222 -0.141973 -8.082602
v 0.448780 -0.141973 -2.962038
v 4.612641 -0.141973 3.066810
v 2.256652 -0.141973 0.647761
v 4.397442 -0.141973 -6.708359
v 0.631882 -0.141973 -6.077879
v -0.668666 -0.141973 1.088501
v 5.824843 -0.141973 -1.257972
v 2.995991 -0.141973 -0.656031
v -1.064358 -0.141973 -5.893843
v 4.264656 -0.141973 -9.368696
v 2.254763 -0.141973 0.672728
v 2.229877 -0.141973 -9.808762
v 2.360098 -0.141973 1.718016
vt 0.999500 -0.999500
vt 0.999500 -0.500000
vt 0.500000 -0.500000
vt 0.500000 -0.000500
vt 0.999501 -0.000500
vt 0.500000 -0.999500
vt 0.000500 -0.999500
vt 0.000500 -0.000500
vt 0.000500 -0.500000
vn 0.089700 0.995700 0.022500
vn -0.000100 0.996200 -0.086800
vn -0.016600 0.995500 0.093300
vn -0.100500 0.994900 0.004400
vn -0.078000 0.994900 0.064000
vn 0.054000 0.996200 0.068000
vn -0.065600 0.995900 -0.062600
vn 0.076000 0.994900 -0.065800
vn -0.100800 0.994900 -0.003500
vn -0.004400 0.996200 0.086700
vn -0.007800 0.995900 -0.090300
vn 0.100600 0.994900 0.000800
vn -0.081100 0.995300 -0.052900
vn -0.032400 0.996200 0.080400
vn 0.073000 0.995600 0.058300
vn 0.054700 0.995000 -0.083900
vn 0.096400 0.995300 -0.009000
vn -0.024600 0.996200 -0.083200
vn -0.093400 0.995600 -0.000300
vn 0.009300 0.995000 0.099800
vn 0.078300 0.995300 0.057000
vn 0.036500 0.996200 -0.078700
vn -0.069900 0.995600 -0.062000
vn -0.059000 0.995000 0.081000
vn 0.093700 0.995000 -0.035600
vn -0.034400 0.995300 -0.090500
vn -0.093700 0.995000 0.035600
vn 0.002100 0.996400 0.084500
vn -0.095500 0.995000 -0.030300
vn -0.029300 0.995300 0.092300
vn 0.095500 0.995000 0.030300
vn 0.050900 0.996400 -0.067500
vn 0.093800 0.995000 0.035100
vn 0.034000 0.995300 -0.090700
vn -0.093800 0.995000 -0.035100
vn -0.054300 0.996400 0.064800
vn 0.081300 0.996300 -0.026600
vn 0.050600 0.996500 0.066200
vn 0.001500 0.996500 -0.083300
vn -0.005800 0.996500 0.083200
vn 0.023500 0.995800 0.088400
vn 0.077500 0.996000 0.043700
vn -0.033600 0.996000 -0.082500
vn 0.029300 0.996000 0.084100
vn 0.007700 0.996300 -0.085300
vn -0.059000 0.996300 0.062100
vn 0.062100 0.996300 -0.059000
vn 0.090600 0.995400 0.031600
vn -0.090600 0.995400 0.031600
vn -0.088900 0.995400 -0.036200
vn -0.044900 0.995500 -0.083400
vn 0.021400 0.995500 -0.092300
vn -0.096800 0.994800 0.032000
vn 0.098300 0.994800 -0.027000
vn 0.056000 0.994800 -0.085300
vn -0.075100 0.994800 0.069200
vn -0.010600 0.994800 0.101600
vn 0.071400 0.994800 -0.073000
vn 0.099100 0.994900 -0.021300
vn -0.090900 0.994900 -0.044900
vn 0.088400 0.994900 0.049500
vn -0.099900 0.995000 0.007900
vn -0.069700 0.995000 0.072000
vn -0.090200 0.994900 0.044600
vn -0.097200 0.994900 -0.026100
vn 0.098400 0.994900 0.021100
usemtl NW_MISC_DUCKWEED_01
s off
f 3/1/1 46/2/1 5/3/1
f 52/4/2 5/3/2 1/5/2
f 50/6/3 5/3/3 4/7/3
f 2/8/4 62/9/4 5/3/4
f 8/1/5 72/2/5 10/3/5
f 51/4/6 10/3/6 6/5/6
f 10/3/7 60/6/7 8/1/7
f 7/8/8 64/9/8 10/3/8
f 13/1/9 71/2/9 15/3/9
f 53/4/10 15/3/10 11/5/10
f 15/3/11 61/6/11 13/1/11
f 12/8/12 63/9/12 15/3/12
f 77/4/13 20/3/13 16/5/13
f 55/9/14 19/7/14 20/3/14
f 57/6/15 20/3/15 19/7/15
f 67/2/16 16/5/16 20/3/16
f 25/3/17 78/4/17 22/8/17
f 54/9/18 24/7/18 25/3/18
f 58/6/19 25/3/19 24/7/19
f 66/2/20 21/5/20 25/3/20
f 81/4/21 30/3/21 26/5/21
f 56/9/22 29/7/22 30/3/22
f 59/6/23 30/3/23 29/7/23
f 65/2/24 26/5/24 30/3/24
f 68/9/25 34/7/25 35/3/25
f 35/3/26 80/6/26 33/1/26
f 33/1/27 73/2/27 35/3/27
f 47/4/28 35/3/28 31/5/28
f 69/9/29 39/7/29 40/3/29
f 40/3/30 79/6/30 38/1/30
f 38/1/31 75/2/31 40/3/31
f 48/4/32 40/3/32 36/5/32
f 70/9/33 44/7/33 45/3/33
f 45/3/34 76/6/34 43/1/34
f 43/1/35 74/2/35 45/3/35
f 49/4/36 45/3/36 41/5/36
f 46/2/37 1/5/37 5/3/37
f 35/3/38 47/4/38 32/8/38
f 40/3/39 48/4/39 37/8/39
f 45/3/40 49/4/40 42/8/40
f 5/3/41 50/6/41 3/1/41
f 10/3/42 51/4/42 7/8/42
f 5/3/43 52/4/43 2/8/43
f 15/3/44 53/4/44 12/8/44
f 22/8/45 54/9/45 25/3/45
f 17/8/46 55/9/46 20/3/46
f 27/8/47 56/9/47 30/3/47
f 20/3/48 57/6/48 18/1/48
f 25/3/49 58/6/49 23/1/49
f 30/3/50 59/6/50 28/1/50
f 60/6/51 10/3/51 9/7/51
f 61/6/52 15/3/52 14/7/52
f 62/9/53 4/7/53 5/3/53
f 63/9/54 14/7/54 15/3/54
f 64/9/55 9/7/55 10/3/55
f 28/1/56 65/2/56 30/3/56
f 23/1/57 66/2/57 25/3/57
f 18/1/58 67/2/58 20/3/58
f 32/8/59 68/9/59 35/3/59
f 37/8/60 69/9/60 40/3/60
f 42/8/61 70/9/61 45/3/61
f 71/2/62 11/5/62 15/3/62
f 72/2/63 6/5/63 10/3/63
f 73/2/64 31/5/64 35/3/64
f 74/2/65 41/5/65 45/3/65
f 75/2/66 36/5/66 40/3/66
f 76/6/34 45/3/34 44/7/34
f 20/3/13 77/4/13 17/8/13
f 78/4/17 25/3/17 21/5/17
f 79/6/30 40/3/30 39/7/30
f 80/6/26 35/3/26 34/7/26
f 30/3/21 81/4/21 27/8/21
