# Blender v2.75 (sub 0) OBJ File: 'Empty.blend'
# www.blender.org
mtllib NW_NATURE_STONE_BIGFLAT_02.mtl
o NW_NATURE_STONE_BIGFLAT_02
v 5.527641 -0.307880 2.759459
v -5.056422 -0.307880 4.494880
v -2.320854 -0.323097 -5.453521
v 0.123496 2.005530 -2.163194
v 1.223143 1.828334 2.760973
v 1.163229 -0.317905 -5.313752
v 3.740664 -0.331703 4.832196
v 2.391949 1.835090 0.401708
v 4.216113 -0.273419 -1.699966
v 4.454392 0.595556 0.606474
v -4.334652 -0.227353 -1.937913
v -4.138362 0.597331 2.506582
v -3.217596 -0.331703 5.197922
v 2.061516 0.601260 4.497077
v -0.300620 0.345805 -4.927332
v -2.433264 0.682171 -3.240553
v 2.420829 0.569678 -2.875465
v -5.291812 -0.284793 2.101901
v -4.031804 0.655864 -0.172278
v -2.005758 1.460282 -0.116496
v 4.030083 0.453214 3.259019
v -3.492648 0.329556 4.206205
v 0.098335 -0.285771 5.089436
v -0.976552 0.509103 4.318479
v -1.670530 1.212791 2.404122
v 0.116454 1.680567 0.599509
vt 1.500000 0.500000
vt 1.182846 0.603050
vt 1.303988 0.230212
vt 0.811212 0.276199
vt 1.500000 0.833476
vt 1.500000 1.300134
vt 1.074306 1.085918
vt 1.925694 1.085918
vt 1.817154 0.603050
vt 2.188788 0.276199
vt 2.260972 0.747255
vt 0.739028 0.747255
vt 1.160699 1.544262
vt 1.839302 1.544262
vt 0.611697 -0.145389
vt 1.029693 -0.147322
vt 1.696012 0.230212
vt 1.160699 -0.544262
vt 2.388303 1.145390
vt 2.598002 0.500000
vt 0.611697 1.145390
vt 0.401998 0.500000
vt 1.500000 -0.224234
vt 1.839301 -0.544263
vt 1.970307 -0.147322
vt 2.388303 -0.145390
vn -0.141000 0.983300 0.115300
vn -0.395200 0.902600 -0.170700
vn 0.512600 0.802500 -0.305300
vn 0.401800 0.893200 0.201600
vn -0.059300 0.801500 0.595100
vn -0.239900 0.848100 -0.472400
vn 0.334100 0.838200 0.431100
vn -0.057200 0.991500 0.116500
vn 0.427900 0.844400 -0.322300
vn 0.501800 0.855700 0.126200
vn 0.572900 0.745700 -0.340100
vn 0.866900 0.430200 -0.251600
vn -0.566900 0.771600 -0.288700
vn -0.771200 0.612300 -0.174000
vn -0.237900 0.880600 0.409900
vn 0.355700 0.808500 0.468800
vn 0.068700 0.444400 0.893200
vn 0.329400 0.786300 -0.522700
vn 0.032500 0.555500 -0.830900
vn -0.187100 0.890800 -0.414100
vn -0.591100 0.722600 -0.358300
vn 0.268100 0.852500 -0.448600
vn 0.619200 0.579200 -0.530200
vn -0.621100 0.780700 0.068600
vn -0.358800 0.916100 -0.179100
vn -0.606000 0.795500 -0.006700
vn -0.235100 0.963800 0.125900
vn -0.369100 0.929400 0.005600
vn 0.482100 0.867400 0.123700
vn 0.519400 0.722600 0.456100
vn -0.321500 0.909000 0.265400
vn -0.212400 0.784800 0.582200
vn -0.064300 0.648700 0.758400
vn -0.083800 0.818200 0.568800
vn 0.013400 0.705400 0.708600
vn -0.226000 0.945400 0.234800
vn -0.082500 0.925300 0.370100
vn -0.212900 0.976200 0.042300
vn -0.070500 0.997000 -0.032100
usemtl NW_MISC_CAVEWALL_02
s off
f 26/1/1 4/2/1 20/3/1
f 16/4/2 20/3/2 4/2/2
f 8/5/3 10/6/3 17/7/3
f 21/8/4 8/5/4 5/9/4
f 5/9/5 24/10/5 14/11/5
f 4/2/6 15/12/6 16/4/6
f 5/9/7 14/11/7 21/8/7
f 26/1/8 8/5/8 4/2/8
f 17/7/9 4/2/9 8/5/9
f 8/5/10 21/8/10 10/6/10
f 9/13/11 17/7/11 10/6/11
f 10/6/12 1/14/12 9/13/12
f 11/15/13 19/16/13 16/4/13
f 26/1/1 20/3/1 25/17/1
f 19/16/14 11/15/14 18/18/14
f 24/10/15 5/9/15 25/17/15
f 7/19/16 21/8/16 14/11/16
f 14/11/17 23/20/17 7/19/17
f 4/2/18 17/7/18 15/12/18
f 15/12/19 6/21/19 3/22/19
f 3/22/20 16/4/20 15/12/20
f 16/4/21 3/22/21 11/15/21
f 6/21/22 15/12/22 17/7/22
f 17/7/23 9/13/23 6/21/23
f 12/23/24 18/18/24 2/24/24
f 20/3/25 16/4/25 19/16/25
f 18/18/26 12/23/26 19/16/26
f 12/23/27 25/17/27 20/3/27
f 20/3/28 19/16/28 12/23/28
f 1/14/29 10/6/29 21/8/29
f 21/8/30 7/19/30 1/14/30
f 2/24/31 22/25/31 12/23/31
f 22/25/32 2/24/32 13/26/32
f 23/20/33 14/11/33 24/10/33
f 13/26/34 24/10/34 22/25/34
f 24/10/35 13/26/35 23/20/35
f 25/17/36 12/23/36 22/25/36
f 25/17/37 22/25/37 24/10/37
f 26/1/38 25/17/38 5/9/38
f 26/1/39 5/9/39 8/5/39
