# Blender v2.75 (sub 0) OBJ File: 'Empty.blend'
# www.blender.org
mtllib NW_NATURE_STONE_CULT_TOP_02.mtl
o NW_NATURE_STONE_CULT_TOP_02
v -1.681796 -0.016621 0.541718
v 1.953884 0.732399 -0.610463
v 2.282271 0.023514 -0.251958
v -2.010507 -0.305266 0.027128
v -1.991396 -0.314243 -0.321040
v 1.803838 0.134854 -0.819800
v 2.097103 -0.267669 0.355118
v 1.863217 -0.419614 -0.219704
v -0.560123 -0.189563 0.971620
v -1.343166 0.050357 0.773796
v 1.223853 0.984624 -0.731454
v 1.549572 1.046695 -0.225689
v 0.740901 -0.309233 0.947232
v 1.683032 -0.046369 0.714014
v 0.943665 -0.006956 -0.971391
v -1.303167 -0.358543 -0.715945
v 2.279494 0.205926 -0.072442
v 1.513116 -0.464494 0.757032
v -1.888307 -0.103848 -0.396106
v 1.129743 -0.518042 -0.607471
v -0.309487 0.029083 0.969799
v -1.869269 -0.458278 -0.176717
v 0.158833 0.561683 -0.796154
v 1.199537 0.582438 -0.971640
v 1.526481 0.608499 0.326385
v -1.998537 -0.138946 -0.086513
v 2.206862 0.375410 -0.447275
v -1.018696 0.094630 -0.742928
v 2.262923 -0.147142 0.061288
v -1.897611 -0.129477 0.242195
v 0.721582 -0.493663 0.730913
v -1.429917 -0.088651 0.714212
v 0.759136 0.858576 0.156373
v 1.064365 1.046032 -0.306635
v 1.933723 0.463356 -0.768876
v -0.914765 -0.586650 -0.411206
v 2.084167 0.390967 0.102013
v 2.123072 0.096294 -0.562237
v 2.154485 -0.217952 -0.244517
v 1.640516 0.904837 -0.683254
v 1.792578 0.947384 -0.436314
v 1.613964 0.706001 -0.835535
v -1.754421 0.034729 0.237419
v 2.158063 0.027090 0.270494
v 0.037013 -0.477701 -0.693717
v 0.299851 -0.624370 -0.237190
v -0.355455 0.369674 0.583008
v 0.056771 0.100588 -0.896476
v 1.878849 -0.202335 -0.543720
v 2.022381 0.715653 -0.427216
v -1.764546 -0.194488 0.414182
v -0.407454 0.565045 0.044018
v 1.428781 1.056231 -0.484610
v 0.832085 0.240617 0.715333
v 0.880940 0.981584 -0.566505
v 1.196821 0.793996 0.238479
v 0.691374 0.600644 -0.918755
v 1.851949 0.760359 -0.065204
v 2.038902 -0.359461 0.081242
v -0.900937 0.359169 -0.392210
v -1.678532 0.073523 -0.105967
v 0.487378 0.893022 -0.373338
v 1.575038 0.878398 0.032869
v 1.499079 -0.499412 0.325538
v -0.242489 -0.368455 0.602466
v 1.224070 0.788813 -0.885850
v 1.172796 1.003997 -0.048646
v 0.280785 0.752276 -0.606689
v 0.736002 0.817658 -0.799124
v 0.642164 -0.499159 0.241719
v 1.844324 0.516944 0.220075
v -1.346209 0.219446 0.208947
v -1.379622 0.145893 0.521432
v 2.091924 0.598990 -0.259572
v 1.203380 -0.535146 -0.108641
v -1.642722 -0.353971 0.199005
v 0.672651 0.932144 -0.117799
v 2.076348 0.542594 -0.087242
v 1.873211 0.827359 -0.248387
v -0.581483 -0.481705 0.134245
v -1.349036 -0.217815 0.551737
vt 0.250000 -0.500000
vt 0.300000 -0.676208
vt 0.350000 -0.500000
vt 0.700000 -0.352416
vt 0.650000 -0.500000
vt 0.750000 -0.500000
vt 0.450000 -0.500000
vt 0.500000 -0.352416
vt 0.400000 -0.323792
vt 0.100000 -0.176208
vt 0.100000 -0.352416
vt 0.200000 -0.323792
vt 0.150000 -0.088104
vt 0.200000 -0.150604
vt 0.400000 -0.000000
vt 0.350000 -0.088104
vt 0.450000 -0.088104
vt 0.750000 -0.911896
vt 0.800000 -0.823792
vt 0.700000 -0.849396
vt 0.850000 -0.500000
vt 0.800000 -0.323792
vt -0.050000 -0.500000
vt 0.000000 -0.323792
vt -0.100000 -0.352416
vt 0.400000 -0.736065
vt 0.400000 -0.647584
vt 0.050000 -0.911896
vt 0.100000 -0.849396
vt 0.000000 -0.823792
vt -0.100000 -0.823792
vt -0.100000 -0.676208
vt -0.200000 -0.823792
vt 0.300000 -0.352416
vt 0.300000 -0.176208
vt 0.400000 -0.150604
vt 0.500000 -0.507156
vt 0.550000 -0.500000
vt 0.700000 -0.676208
vt 0.446875 -0.834665
vt 0.450000 -0.755129
vt 0.400000 -0.823792
vt 0.600000 -0.736065
vt 0.600000 -0.647584
vt 0.550000 -0.669520
vt 0.150000 -0.500000
vt 0.200000 -0.647584
vt 0.300000 -0.849396
vt 0.800000 -0.647584
vt 0.900000 -0.676208
vt 0.900000 -0.352416
vt 0.350000 -0.911896
vt 0.250000 -0.911896
vt 0.550000 -0.911896
vt 0.500000 -0.849396
vt 0.450000 -0.911896
vt 0.200000 -0.823792
vt 0.100000 -0.676208
vt 0.700000 -0.176208
vt 0.800000 -0.150604
vt 0.750000 -0.088104
vt 0.850000 -0.088104
vt 0.000000 -0.647584
vt 0.900000 -0.176208
vt 0.678125 -0.586315
vt 0.600000 -0.323792
vt 0.600000 -0.492844
vt 0.650000 -0.669520
vt 0.628125 -0.575581
vt 0.450000 -0.669520
vt 0.650000 -0.911896
vt 0.500000 -1.000000
vt 0.150000 -0.911896
vt 0.300000 -1.000000
vt 0.800000 -0.000000
vt 0.200000 -0.000000
vt 0.250000 -0.088104
vt 0.050000 -0.500000
vt 0.428125 -0.575581
vt 0.478125 -0.586315
vt 0.521875 -0.586315
vt 0.571875 -0.575581
vt 0.650000 -0.755129
vt 0.600000 -0.823792
vt -0.100000 -0.176208
vt 0.700000 -1.000000
vt -0.050000 -0.911896
vt -0.100000 -1.000000
vt -0.150000 -0.911896
vt 0.100000 -1.000000
vt 0.550000 -0.755129
vt 0.553125 -0.834665
vt 0.600000 -0.000000
vt 0.550000 -0.088104
vt 0.650000 -0.088104
vt 0.600000 -0.150604
vt 0.950000 -0.500000
vt 0.500000 -0.176208
vt 0.500000 -0.773815
vt -0.050000 -0.088104
vt 0.000000 -0.176208
vt 0.050000 -0.088104
vt 0.000000 -0.000000
vt 0.500000 -0.676208
vn 0.125500 0.367800 0.921400
vn -0.138500 0.239700 -0.960900
vn -0.260100 0.899500 0.351100
vn -0.142200 -0.933200 0.329900
vn -0.223200 -0.814100 0.536100
vn -0.719700 0.635700 0.279000
vn 0.614300 -0.122000 -0.779600
vn -0.013700 -0.330400 -0.943700
vn -0.062500 -0.972300 0.225200
vn 0.402600 0.535600 0.742300
vn 0.552800 -0.818000 -0.159200
vn 0.302600 -0.562600 -0.769400
vn -0.249400 -0.814700 0.523500
vn 0.008000 0.751000 0.660300
vn -0.299800 -0.211600 0.930200
vn -0.445300 0.859400 0.251300
vn -0.310000 0.947400 0.079700
vn 0.272200 0.041400 -0.961300
vn 0.639900 0.612400 0.464200
vn 0.217600 0.874100 -0.434200
vn 0.137500 0.365500 0.920600
vn -0.057400 -0.757200 0.650700
vn 0.239600 0.002500 0.970900
vn 0.576900 0.436700 0.690200
vn 0.185900 -0.081100 -0.979200
vn 0.230000 -0.507500 -0.830400
vn -0.065400 -0.837100 -0.543200
vn -0.141400 0.029900 -0.989500
vn 0.920400 0.100000 0.378000
vn 0.897500 0.440300 0.025200
vn 0.595800 -0.161200 0.786800
vn 0.266400 -0.963100 0.037000
vn -0.499800 -0.063300 -0.863800
vn -0.997900 0.033800 -0.055600
vn 0.162700 -0.985000 -0.057800
vn 0.371400 -0.779300 -0.504700
vn -0.177900 0.211900 0.961000
vn 0.017600 -0.011900 0.999800
vn -0.340400 -0.793700 -0.504100
vn -0.750400 -0.660500 -0.024200
vn -0.234600 0.256000 -0.937800
vn -0.352200 0.763500 -0.541300
vn 0.205000 0.606200 -0.768500
vn -0.228500 0.505600 -0.831900
vn 0.403200 0.639400 0.654700
vn -0.009900 0.670100 0.742200
vn -0.897600 0.339500 -0.281100
vn -0.358300 0.933000 -0.035000
vn 0.766300 0.034200 -0.641500
vn 0.982000 0.139900 -0.127000
vn -0.401900 0.199100 -0.893800
vn -0.340300 0.802100 -0.490700
vn 0.682600 -0.727100 -0.073700
vn 0.998500 -0.029600 0.045500
vn -0.926200 0.255900 0.277000
vn -0.799900 -0.056300 0.597500
vn 0.006700 -0.761200 0.648400
vn -0.038100 -0.959800 0.278200
vn -0.595300 -0.266500 0.758000
vn -0.565200 -0.000900 0.825000
vn -0.260100 0.908900 0.325900
vn 0.008500 0.807500 0.589900
vn -0.108700 0.980100 -0.166400
vn -0.176800 0.935200 0.306700
vn 0.280900 0.108200 -0.953600
vn 0.768000 0.281200 -0.575400
vn -0.216700 -0.893700 -0.392800
vn -0.073600 -0.970000 0.231600
vn 0.790100 0.382300 0.479100
vn 0.790900 0.493100 0.362400
vn 0.880600 -0.071400 -0.468500
vn 0.473300 -0.742000 -0.474800
vn 0.764000 -0.419400 -0.490400
vn 0.863600 -0.463200 -0.199000
vn 0.310800 0.886000 -0.344000
vn 0.478600 0.418600 -0.771800
vn 0.509200 0.739200 -0.440900
vn 0.839500 0.471100 -0.270700
vn 0.223500 0.573700 -0.788000
vn 0.449000 0.504700 -0.737300
vn -0.734400 0.646400 0.206900
vn -0.554500 0.825700 -0.103800
vn 0.674800 0.071300 0.734600
vn 0.877700 -0.044600 0.477100
vn 0.015500 -0.949300 -0.313900
vn 0.043800 -0.568800 -0.821300
vn -0.011600 -0.953900 -0.299800
vn 0.105100 -0.993200 -0.049600
vn -0.110700 0.739300 0.664200
vn -0.220600 0.954400 0.201100
vn -0.080000 0.034300 -0.996200
vn -0.118700 -0.324900 -0.938300
vn 0.607900 -0.533600 -0.587900
vn 0.519500 -0.469100 -0.714100
vn 0.699500 0.699400 0.146600
vn 0.699800 0.686100 -0.198900
vn -0.317600 -0.838900 0.442000
vn -0.809400 -0.168400 0.562600
vn -0.351800 0.935100 -0.043300
vn -0.268600 0.897000 0.351100
vn -0.008100 0.999100 0.040600
vn 0.297700 0.949000 -0.103900
vn 0.180900 0.532600 0.826800
vn -0.041000 0.667600 0.743400
vn -0.103400 0.974900 -0.197000
vn -0.341400 0.763500 -0.548200
vn 0.125900 0.598700 0.791000
vn 0.213300 0.701300 0.680200
vn -0.123000 0.498400 -0.858200
vn -0.100200 0.083000 -0.991500
vn 0.484600 0.659000 0.575200
vn 0.553500 0.789100 0.266500
vn 0.689200 -0.718400 0.094300
vn 0.341400 -0.910700 0.232700
vn -0.411400 0.879300 -0.240100
vn -0.371800 0.796900 -0.476200
vn -0.554100 0.832000 -0.028500
vn -0.360800 0.931300 -0.050800
vn -0.345500 0.906900 -0.241200
vn -0.248900 0.966400 -0.064000
vn 0.134300 0.805200 0.577600
vn 0.479900 0.756100 0.444900
vn 0.034100 -0.996300 0.079500
vn 0.357900 -0.931600 0.063700
vn -0.133000 -0.990600 0.032700
vn -0.163200 -0.935600 0.313000
vn -0.081400 0.390800 -0.916900
vn 0.193700 0.356900 -0.913900
vn 0.153600 0.835000 0.528400
vn -0.030200 0.984400 0.173100
vn -0.299800 0.857700 -0.417700
vn -0.330000 0.908600 -0.255800
vn -0.102400 0.615800 -0.781200
vn -0.229400 0.857200 -0.461100
vn -0.001400 -0.999900 0.011500
vn 0.066900 -0.976000 0.207400
vn 0.572200 0.441900 0.690900
vn 0.584000 0.609700 0.535900
vn -0.411500 0.911300 0.012000
vn -0.396400 0.902200 0.170000
vn -0.419700 0.827100 0.373800
vn -0.219400 0.901500 0.373000
vn 0.877900 0.477800 -0.031600
vn 0.715400 0.676600 0.174100
vn -0.008900 -0.996100 0.088000
vn 0.167000 -0.985400 -0.032700
vn -0.310600 -0.851000 0.423500
vn -0.094100 -0.943200 0.318600
vn -0.169200 0.959000 0.227400
vn -0.260600 0.964600 0.041200
vn 0.826200 0.509100 0.241300
vn 0.700400 0.657200 0.278400
vn 0.675600 0.663700 0.321200
vn 0.543300 0.766100 0.343300
vn -0.142200 -0.933700 0.328800
vn -0.036600 -0.964900 0.259900
vn -0.083300 -0.904400 0.418500
vn -0.213000 -0.838800 0.501100
usemtl NW_MISC_CAVEWALL_01
s off
f 13/1/1 14/2/1 54/3/1
f 28/4/2 23/5/2 48/6/2
f 33/7/3 52/8/3 47/9/3
f 81/10/4 65/11/4 9/12/4
f 51/13/5 81/10/5 32/14/5
f 30/15/6 1/16/6 43/17/6
f 38/18/7 6/19/7 35/20/7
f 45/21/8 16/22/8 48/6/8
f 46/23/9 80/24/9 36/25/9
f 71/26/10 25/27/10 14/2/10
f 39/28/11 59/29/11 8/30/11
f 49/31/12 20/32/12 6/33/12
f 81/10/13 9/12/13 32/14/13
f 54/3/14 47/9/14 21/34/14
f 32/14/15 9/12/15 10/35/15
f 1/16/16 73/36/16 43/17/16
f 52/8/17 77/37/17 62/38/17
f 6/19/18 24/39/18 35/20/18
f 78/40/19 58/41/19 37/42/19
f 40/43/20 11/44/20 53/45/20
f 21/34/21 13/1/21 54/3/21
f 13/1/22 9/12/22 31/46/22
f 13/1/23 18/47/23 14/2/23
f 37/42/24 14/2/24 44/48/24
f 6/19/25 15/49/25 24/39/25
f 6/19/26 20/50/26 15/49/26
f 45/21/27 36/51/27 16/22/27
f 48/6/28 16/22/28 28/4/28
f 17/52/29 44/48/29 29/53/29
f 27/54/30 74/55/30 17/56/30
f 7/57/31 14/2/31 18/47/31
f 59/29/32 64/58/32 8/30/32
f 19/59/33 16/22/33 5/60/33
f 26/61/34 5/60/34 4/62/34
f 8/30/35 75/63/35 20/32/35
f 8/30/36 20/32/36 49/31/36
f 10/35/37 9/12/37 21/34/37
f 13/1/38 21/34/38 9/12/38
f 5/60/39 16/22/39 22/64/39
f 4/62/40 5/60/40 22/64/40
f 23/5/41 57/65/41 48/6/41
f 23/5/42 60/66/42 68/67/42
f 40/43/43 66/68/43 11/44/43
f 23/5/44 69/69/44 57/65/44
f 71/26/45 63/70/45 25/27/45
f 33/7/46 47/9/46 54/3/46
f 26/61/47 19/59/47 5/60/47
f 62/38/48 60/66/48 52/8/48
f 38/18/49 35/20/49 27/71/49
f 3/72/50 27/54/50 17/56/50
f 19/59/51 28/4/51 16/22/51
f 23/5/52 28/4/52 60/66/52
f 29/73/53 59/29/53 39/28/53
f 3/74/54 17/52/54 29/53/54
f 30/75/55 26/61/55 4/62/55
f 30/76/56 51/13/56 1/77/56
f 18/47/57 13/1/57 31/46/57
f 70/78/58 80/24/58 46/23/58
f 51/13/59 32/14/59 1/77/59
f 1/77/60 32/14/60 10/35/60
f 52/8/61 33/7/61 77/37/61
f 33/7/62 56/79/62 67/80/62
f 34/81/63 53/45/63 55/82/63
f 33/7/64 67/80/64 77/37/64
f 35/20/65 24/39/65 42/83/65
f 27/71/66 35/20/66 2/84/66
f 22/64/67 16/22/67 36/51/67
f 22/85/68 36/25/68 80/24/68
f 17/52/69 37/42/69 44/48/69
f 17/56/70 78/40/70 37/42/70
f 3/86/71 38/18/71 27/71/71
f 39/87/72 8/30/72 49/31/72
f 3/88/73 39/87/73 38/89/73
f 3/90/74 29/73/74 39/28/74
f 40/43/75 53/45/75 41/91/75
f 35/20/76 42/83/76 2/84/76
f 2/84/77 40/43/77 41/91/77
f 27/54/78 2/84/78 50/92/78
f 42/83/79 66/68/79 40/43/79
f 2/84/80 42/83/80 40/43/80
f 30/93/81 43/94/81 26/95/81
f 26/95/82 61/96/82 19/59/82
f 44/48/83 14/2/83 7/57/83
f 29/53/84 44/48/84 7/57/84
f 36/51/85 45/21/85 46/97/85
f 45/21/86 15/49/86 20/50/86
f 45/21/87 20/50/87 46/97/87
f 46/23/88 20/32/88 75/63/88
f 10/35/89 21/34/89 47/9/89
f 73/36/90 47/9/90 72/98/90
f 48/6/91 24/39/91 15/49/91
f 15/49/92 45/21/92 48/6/92
f 39/87/93 49/31/93 38/89/93
f 38/89/94 49/31/94 6/33/94
f 41/91/95 79/99/95 50/92/95
f 2/84/96 41/91/96 50/92/96
f 4/100/97 76/101/97 51/102/97
f 30/103/98 4/100/98 51/102/98
f 72/98/99 52/8/99 60/66/99
f 72/98/100 47/9/100 52/8/100
f 34/81/101 12/104/101 53/45/101
f 41/91/102 53/45/102 12/104/102
f 54/3/103 14/2/103 25/27/103
f 56/79/104 33/7/104 54/3/104
f 55/82/105 53/45/105 11/44/105
f 69/69/106 23/5/106 68/67/106
f 25/27/107 56/79/107 54/3/107
f 56/79/108 25/27/108 63/70/108
f 69/69/109 66/68/109 57/65/109
f 57/65/110 24/39/110 48/6/110
f 58/41/111 63/70/111 71/26/111
f 41/91/112 12/104/112 79/99/112
f 29/73/113 7/57/113 59/29/113
f 7/57/114 64/58/114 59/29/114
f 61/96/115 60/66/115 19/59/115
f 19/59/116 60/66/116 28/4/116
f 43/94/117 61/96/117 26/95/117
f 72/98/118 60/66/118 61/96/118
f 68/67/119 60/66/119 62/38/119
f 62/38/120 34/81/120 55/82/120
f 56/79/121 63/70/121 67/80/121
f 58/41/122 12/104/122 63/70/122
f 31/46/123 64/58/123 18/47/123
f 7/57/124 18/47/124 64/58/124
f 65/11/125 70/78/125 31/46/125
f 31/46/126 9/12/126 65/11/126
f 57/65/127 66/68/127 24/39/127
f 42/83/128 24/39/128 66/68/128
f 67/80/129 63/70/129 12/104/129
f 67/80/130 12/104/130 34/81/130
f 69/69/131 68/67/131 55/82/131
f 55/82/132 68/67/132 62/38/132
f 69/69/133 11/44/133 66/68/133
f 11/44/134 69/69/134 55/82/134
f 70/78/135 64/58/135 31/46/135
f 75/63/136 70/78/136 46/23/136
f 37/42/137 71/26/137 14/2/137
f 37/42/138 58/41/138 71/26/138
f 43/94/139 72/98/139 61/96/139
f 43/17/140 73/36/140 72/98/140
f 1/16/141 10/35/141 73/36/141
f 10/35/142 47/9/142 73/36/142
f 27/54/143 50/92/143 74/55/143
f 50/92/144 79/99/144 74/55/144
f 70/78/145 75/63/145 64/58/145
f 8/30/146 64/58/146 75/63/146
f 4/100/147 22/85/147 76/101/147
f 22/85/148 80/24/148 76/101/148
f 67/80/149 34/81/149 77/37/149
f 77/37/150 34/81/150 62/38/150
f 17/56/151 74/55/151 78/40/151
f 74/55/152 79/99/152 78/40/152
f 79/99/153 58/41/153 78/40/153
f 79/99/154 12/104/154 58/41/154
f 81/10/155 80/24/155 65/11/155
f 70/78/156 65/11/156 80/24/156
f 76/101/157 80/24/157 81/10/157
f 51/102/158 76/101/158 81/10/158
