# Blender v2.75 (sub 0) OBJ File: 'Empty.blend'
# www.blender.org
mtllib OC_GATE_KITCHEN.mtl
o OC_GATE_KITCHEN
v 2.000000 -0.401649 -2.000000
v 2.000000 -0.001649 2.000000
v -2.000000 -0.401649 -2.000000
v -2.000000 -0.401649 2.000000
v 2.000000 -0.001649 -2.000000
v -2.000000 -0.001649 -2.000000
v -2.000000 -0.001649 2.000000
v 2.000000 -0.401649 2.000000
vt 1.483375 -1.550946
vt 1.487223 0.488546
vt -0.565112 0.488546
vt -0.565112 -1.552595
vt 1.000000 -0.000000
vn 0.000000 1.000000 0.000000
vn 0.000000 -1.000000 0.000000
vn 0.000000 0.000000 1.000000
vn -1.000000 0.000000 0.000000
vn 1.000000 0.000000 0.000000
vn 0.000000 0.000000 -1.000000
usemtl OC_GATE_KITCHEN
s off
f 2/1/1 5/2/1 6/3/1
f 6/4/2 5/1/2 2/2/2
f 6/3/1 7/4/1 2/1/1
f 2/2/2 7/3/2 6/4/2
f 3/5/3 1/5/3 5/5/3
f 2/5/4 5/5/4 1/5/4
f 4/5/5 3/5/5 6/5/5
f 5/5/3 6/5/3 3/5/3
f 8/5/6 4/5/6 7/5/6
f 6/5/5 7/5/5 4/5/5
f 7/5/6 2/5/6 8/5/6
f 1/5/4 8/5/4 2/5/4
