# Blender v2.75 (sub 0) OBJ File: 'Empty.blend'
# www.blender.org
mtllib OC_LOB_TABLE_HEAVY.mtl
o OC_LOB_TABLE_HEAVY
v 1.298000 0.900000 0.950000
v -1.302000 0.800000 0.950000
v -1.302000 0.900000 -0.950000
v 1.298000 0.900000 -0.950000
v 0.798000 0.800000 -0.500000
v 0.948000 0.800000 0.500000
v 0.798000 0.100000 -0.300000
v -0.952000 0.800000 -0.500000
v -0.802000 0.800000 0.500000
v -0.952000 0.100000 -0.300000
v 0.948000 0.100000 0.300000
v -0.802000 0.100000 0.300000
v 0.798000 0.100000 0.300000
v -0.952000 0.100000 0.300000
v 0.798000 0.800000 0.500000
v 0.948000 0.800000 -0.500000
v 0.948000 0.100000 -0.300000
v -0.952000 0.800000 0.500000
v -0.802000 0.800000 -0.500000
v -0.802000 0.100000 -0.300000
v -1.052000 0.000000 0.650000
v -1.052000 0.000000 -0.600000
v -0.702000 0.000000 0.650000
v -1.052000 0.100000 0.650000
v 0.698000 0.000000 0.650000
v 0.698000 0.000000 -0.600000
v 1.048000 0.000000 0.650000
v 0.698000 0.100000 0.650000
v 1.298000 0.800000 0.950000
v 1.298000 0.800000 -0.950000
v -0.702000 0.000000 -0.600000
v -1.052000 0.100000 -0.600000
v -0.702000 0.100000 0.650000
v -0.702000 0.100000 -0.600000
v -1.302000 0.900000 0.950000
v -1.302000 0.800000 -0.950000
v 1.048000 0.000000 -0.600000
v 0.698000 0.100000 -0.600000
v 1.048000 0.100000 0.650000
v 1.048000 0.100000 -0.600000
vt -1.229137 1.685102
vt 1.229137 1.685102
vt 1.229137 -1.678852
vt 1.244696 -1.706393
vt -1.244696 -1.706393
vt -1.244696 1.700142
vt -1.229137 -1.678852
vt 1.244696 1.700142
vt 1.289163 -0.508290
vt -1.309162 -0.645043
vt -1.309162 -0.508290
vt -0.215000 3.359375
vt -0.058750 -0.703125
vt -0.215000 -0.703125
vt 1.289163 -0.645043
vt -0.175000 0.703125
vt -0.018750 -3.359375
vt -0.175000 -3.359375
vt -1.229137 -1.263434
vt 1.229137 -1.263434
vt 1.229137 -1.392816
vt -0.058750 3.359375
vt -1.229137 -1.392816
vt -0.018750 0.703125
vt -0.700170 -0.128640
vt -0.280299 -0.128640
vt -0.280299 -0.246204
vt 0.350938 0.059062
vt 0.350938 0.020000
vt 0.214219 0.020000
vt -0.504375 -0.120000
vt -0.016094 -0.120000
vt -0.016094 -0.159063
vt -0.017261 -0.232834
vt -0.291072 -0.232834
vt -0.291072 -0.156167
vt 0.116333 -0.016667
vt 0.116333 -0.000000
vt 0.174667 -0.000000
vt 0.100000 -0.150000
vt -0.108333 -0.150000
vt -0.108333 -0.133333
vt -0.700170 -0.246204
vt 0.410937 -0.120000
vt 0.410937 -0.159063
vt 0.274219 -0.159063
vt -0.504375 -0.159063
vt -0.394375 -0.180000
vt 0.093906 -0.140938
vt 0.093906 -0.180000
vt 0.214219 0.059062
vt -0.394375 -0.140938
vt 0.274219 -0.120000
vt -0.017261 -0.156167
vt 0.116333 -0.020000
vt 0.116333 -0.003333
vt 0.174667 -0.003333
vt 0.100000 -0.133333
vt 0.100000 0.010000
vt -0.108333 -0.006667
vt -0.108333 0.010000
vt 0.174667 -0.016667
vt 0.100000 -0.006667
vt 0.174667 -0.020000
vt 0.204094 -0.256368
vt 0.012935 -0.423632
vt 0.251884 -0.423632
vt 0.181180 -0.074427
vt 0.227222 -0.235573
vt -0.002986 -0.235573
vt 0.054142 -0.011127
vt 0.243451 -0.200436
vt 0.006815 -0.200436
vt 0.171183 -0.024158
vt 0.201892 -0.195842
vt 0.048344 -0.195842
vt 0.043056 -0.074427
vt 0.060725 -0.256368
vt 0.079054 -0.024158
vt 0.196124 -0.011127
vt 0.107409 -0.427805
vt 0.107409 -0.252195
vt 0.143591 -0.252195
vt 0.450301 0.303984
vt 0.450301 0.476016
vt 0.414855 0.476016
vt 0.143591 -0.427805
vt 0.107877 -0.254470
vt 0.107877 -0.425530
vt 0.143123 -0.425530
vt 0.143123 -0.254470
vt 0.414855 0.303984
vt 0.172357 -0.505946
vt 0.172357 -0.697939
vt 0.132799 -0.697939
vt 0.132799 -0.505946
vn 0.000000 1.000000 0.000000
vn 0.000000 -1.000000 0.000000
vn 1.000000 0.000000 0.000000
vn 0.000000 0.000000 1.000000
vn 0.000000 0.000000 -1.000000
vn -1.000000 0.000000 0.000000
vn 0.000000 -0.274700 0.961500
vn 0.000000 -0.274700 -0.961500
usemtl OC_O_PLANKS_64
s off
f 3/1/1 35/2/1 1/3/1
f 2/4/2 36/5/2 30/6/2
f 3/1/1 1/3/1 4/7/1
f 2/4/2 30/6/2 29/8/2
f 30/9/3 1/10/3 29/11/3
f 35/12/4 29/13/4 1/14/4
f 30/9/3 4/15/3 1/10/3
f 36/16/5 4/17/5 30/18/5
f 36/19/6 2/20/6 35/21/6
f 35/12/4 2/22/4 29/13/4
f 36/19/6 35/21/6 3/23/6
f 36/16/5 3/24/5 4/17/5
usemtl OC_O_STONE_1
f 32/25/1 24/26/1 33/27/1
f 24/28/4 21/29/4 23/30/4
f 22/31/6 21/32/6 24/33/6
f 38/34/1 28/35/1 39/36/1
f 28/37/4 25/38/4 27/39/4
f 26/40/6 25/41/6 28/42/6
f 32/25/1 33/27/1 34/43/1
f 22/44/5 32/45/5 34/46/5
f 22/31/6 24/33/6 32/47/6
f 31/48/3 33/49/3 23/50/3
f 24/28/4 23/30/4 33/51/4
f 31/48/3 34/52/3 33/49/3
f 22/44/5 34/46/5 31/53/5
f 38/34/1 39/36/1 40/54/1
f 26/55/5 38/56/5 40/57/5
f 26/40/6 28/42/6 38/58/6
f 37/59/3 39/60/3 27/61/3
f 28/37/4 27/39/4 39/62/4
f 37/59/3 40/63/3 39/60/3
f 26/55/5 40/57/5 37/64/5
usemtl OC_O_WOOD_1
f 7/65/6 15/66/6 5/67/6
f 17/68/3 16/69/3 6/70/3
f 10/71/6 18/72/6 8/73/6
f 20/74/3 19/75/3 9/76/3
f 17/68/3 6/70/3 11/77/3
f 7/65/6 13/78/6 15/66/6
f 20/74/3 9/76/3 12/79/3
f 10/71/6 14/80/6 18/72/6
f 15/81/7 13/82/7 11/83/7
f 18/84/7 14/85/7 12/86/7
f 15/81/7 11/83/7 6/87/7
f 7/88/8 5/89/8 16/90/8
f 7/88/8 16/90/8 17/91/8
f 18/84/7 12/86/7 9/92/7
f 10/93/8 8/94/8 19/95/8
f 10/93/8 19/95/8 20/96/8
