# Blender v2.75 (sub 0) OBJ File: 'Empty.blend'
# www.blender.org
mtllib OC_LOB_PLANKBROKEN_SMALL.mtl
o OC_LOB_PLANKBROKEN_SMALL
v -0.289813 1.150000 0.278276
v -0.289813 -1.300000 0.278276
v 0.255139 -1.200000 -0.286922
v -0.147000 1.750000 0.300000
v 0.261351 1.300000 0.278942
v -0.047000 1.450000 0.300000
v 0.261351 -1.200000 0.278942
v 0.255139 1.300000 -0.286922
v -0.246025 1.300000 -0.187587
v -0.246025 -1.300000 -0.187587
vt -0.358110 0.584093
vt -0.311266 0.561139
vt -0.395042 0.538358
vt -0.373365 0.629642
vt -0.252951 -0.356920
vt -0.343438 -0.357896
vt -0.343339 -0.268321
vt -0.352496 -0.361609
vt -0.350124 -0.266793
vt -0.256189 -0.267832
vt -0.271257 -0.351651
vt -0.268831 -0.275198
vt -0.402556 0.188053
vt -0.496533 -0.227115
vt -0.496533 0.188053
vt 0.513633 0.239863
vt 0.605130 -0.207852
vt 0.513633 -0.225760
vt -0.489899 0.063492
vt -0.397344 -0.373579
vt -0.490021 -0.348360
vt -0.449166 -0.398894
vt 0.605130 0.239863
vt -0.465997 -0.449325
vt -0.397220 0.046678
vt -0.402556 -0.227115
vt 0.600651 -0.276608
vt 0.504418 0.227262
vt 0.600651 0.258112
vt 0.504418 -0.276608
vn -0.023600 0.091200 -0.995600
vn 0.063200 0.021100 -0.997800
vn 0.178500 -0.983900 -0.002000
vn -0.262600 0.964900 0.002900
vn 0.061700 0.948400 0.311200
vn 0.199200 -0.979800 0.018700
vn 0.999900 0.000000 -0.011000
vn -0.194400 0.000000 -0.980900
vn -0.001200 0.000000 1.000000
vn 0.023600 -0.091200 0.995600
vn -0.063200 -0.021100 0.997800
vn -0.995600 0.000000 -0.093600
usemtl MOWOWOODS01
s off
f 6/1/1 5/2/1 1/3/1
f 1/3/2 4/4/2 6/1/2
f 3/5/3 7/6/3 2/7/3
f 1/8/4 5/9/4 8/10/4
f 8/10/5 9/11/5 1/8/5
f 2/7/6 10/12/6 3/5/6
usemtl MOWOWOODS02
f 3/13/7 5/14/7 7/15/7
f 9/16/8 3/17/8 10/18/8
f 2/19/9 5/20/9 1/21/9
f 1/21/10 5/20/10 6/22/10
f 3/17/8 9/16/8 8/23/8
f 6/22/11 4/24/11 1/21/11
f 5/20/9 2/19/9 7/25/9
f 5/14/7 3/13/7 8/26/7
f 10/27/12 1/28/12 9/29/12
f 1/28/12 10/27/12 2/30/12
