# Blender v2.75 (sub 0) OBJ File: 'Empty.blend'
# www.blender.org
mtllib OC_PICTURE_V2.mtl
o OC_PICTURE_V2
v 1.511732 1.060000 -0.065000
v -1.498286 -1.060000 -0.065000
v -1.498286 1.060000 -0.065000
v -1.413404 0.980000 0.065000
v 1.511732 -1.060000 -0.065000
v -1.413404 -0.980000 0.065000
v 1.413699 -0.980000 0.065000
v 1.413699 0.980000 0.065000
v -1.328447 0.900000 -0.013003
v -1.328447 -0.900000 -0.013003
v 1.328447 0.900000 -0.013003
v 1.328447 -0.900000 -0.013003
vt 0.001332 -0.996377
vt 0.994721 -0.001208
vt 0.001332 -0.001208
vt 0.994721 -0.996377
vt -0.930324 -0.787538
vt -1.054074 -0.991004
vt 1.915926 -0.991004
vt 1.792176 -0.787538
vt 1.668426 -0.592453
vt -0.806575 -0.592453
vn 0.000000 0.000000 1.000000
vn -0.837300 0.000000 0.546700
vn -0.000000 0.851700 0.524100
vn 0.000000 -0.851700 0.524100
vn 0.798400 0.000000 0.602100
vn 0.000000 -0.698100 0.716000
vn 0.676300 0.000000 0.736600
vn 0.000000 0.698100 0.716000
vn -0.675000 0.000000 0.737800
usemtl OC_PICTURE_V2_2
s off
f 10/1/1 11/2/1 9/3/1
f 10/1/1 12/4/1 11/2/1
usemtl OC_PICTURE_V2_1
f 4/5/2 3/6/2 2/7/2
f 1/6/3 3/7/3 4/8/3
f 2/7/2 6/8/2 4/5/2
f 6/5/4 2/6/4 5/7/4
f 5/7/4 7/8/4 6/5/4
f 7/5/5 5/6/5 1/7/5
f 1/7/5 8/8/5 7/5/5
f 4/8/3 8/5/3 1/6/3
f 4/8/6 9/9/6 11/10/6
f 9/10/7 4/5/7 6/8/7
f 10/10/8 6/5/8 7/8/8
f 6/8/7 10/9/7 9/10/7
f 7/5/9 8/8/9 11/9/9
f 11/10/6 8/5/6 4/8/6
f 7/8/8 12/9/8 10/10/8
f 11/9/9 12/10/9 7/5/9
