# Blender v2.75 (sub 0) OBJ File: 'Empty.blend'
# www.blender.org
mtllib OC_WEAPON_ARMORSHOES.mtl
o OC_WEAPON_ARMORSHOES
v -0.455146 0.001747 0.122922
v -0.122856 0.414193 0.280276
v -0.194123 -0.403054 0.402457
v -0.315737 0.170652 0.236458
v -0.142453 0.092037 0.356573
v -0.433375 -0.130479 0.135603
v -0.066505 0.010504 0.189993
v -0.226433 -0.175439 -0.011664
v -0.474572 -0.291440 -0.036996
v -0.378404 -0.191243 -0.019614
v -0.429123 -0.495510 -0.058146
v -0.292742 -0.728767 0.136038
v -0.203683 -0.804114 0.117074
v -0.166230 -0.237460 0.143014
v -0.153769 -0.345783 0.180308
v 0.226585 0.687162 0.109716
v -0.626810 1.143138 0.169170
v -0.655681 1.085695 0.078399
v -0.013994 1.028339 0.008694
v -0.802973 0.689573 0.100613
v -0.029132 1.085781 0.102735
v -0.356475 0.106632 0.103605
v -0.379298 0.392692 0.157842
v -0.395038 -0.022165 0.053405
v -0.223811 -0.260734 -0.040867
v -0.788516 0.687162 0.180026
v 0.229145 0.689573 0.029038
v -0.151681 0.342209 0.050092
v -0.193742 0.006569 0.103631
v -0.191428 -0.688541 -0.022064
v -0.351288 -0.275541 0.376248
v -0.142387 0.147724 0.265096
v -0.379421 0.082196 0.286424
v -0.361883 -0.208323 0.097488
v -0.219471 -0.333832 0.249340
v -0.217438 -0.493401 0.120308
v -0.142153 -0.758991 0.175627
v -0.307503 0.000612 0.220127
v -0.237737 0.108190 0.090319
v -0.624249 1.145550 0.088492
v -0.043589 1.088193 0.023322
v -0.349013 0.025047 0.152090
v -0.260692 -0.066102 0.155212
v -0.773378 0.629718 0.085985
v 0.197713 0.629718 0.018946
v -0.099972 -0.315318 0.111123
v -0.083593 0.053566 0.296041
v 0.195152 0.627307 0.099623
v -0.658242 1.083283 0.159077
v -0.758921 0.627307 0.165398
v 0.000463 1.025927 0.088107
v -0.371496 -0.316011 0.124885
v -0.115445 -0.017493 0.252508
v -0.070519 0.385407 0.222804
v -0.169732 -0.613964 0.063279
v -0.256326 -0.643547 0.167020
v -0.366857 0.342101 -0.001889
v -0.341533 -0.020801 0.271248
v -0.460564 -0.165871 0.221579
v -0.232999 -0.419005 0.018373
v -0.157278 -0.811588 0.151419
v -0.219169 -0.088299 0.286927
v -0.186931 -0.242150 0.258516
v -0.333368 -0.445115 0.124656
v -0.386993 -0.392789 -0.000567
v -0.170870 -0.347974 0.399899
v -0.266090 0.410979 0.242860
v -0.417451 -0.276955 -0.056432
v -0.240479 0.331983 -0.003540
v -0.381784 0.022799 0.150428
v -0.137149 0.046239 0.065186
v -0.085790 1.004670 0.069349
v -0.402452 2.337118 0.008933
v -0.351898 2.354597 -0.029096
v -0.136344 0.987191 0.107378
v -0.242968 -0.128263 0.036641
v -0.295181 0.935172 0.054984
v -0.256077 0.948926 0.057655
v -0.282072 -0.142018 0.033971
v -0.249072 0.074011 0.123675
v -0.335070 0.928589 0.126489
v -0.247757 0.059128 0.145587
v -0.447754 1.007306 0.125534
v -0.200395 2.368863 -0.053457
v -0.265876 2.366297 -0.049836
v -0.303074 0.943472 0.104576
v -0.513234 1.004740 0.129154
v -0.408195 0.059705 0.031871
v -0.248770 0.073402 -0.019540
vt 0.243165 -0.652589
vt 0.025636 -0.505645
vt 0.493459 -0.503920
vt 0.363320 -0.807427
vt 0.486451 -0.602733
vt 0.185838 -0.644447
vt 0.958775 -0.479068
vt 0.987912 -0.486947
vt 0.952228 -0.044245
vt 0.278723 -0.486262
vt 0.272932 -0.042181
vt 0.165439 -0.480604
vt 0.456146 -0.325193
vt 0.703425 -0.448544
vt 0.499599 -0.134083
vt 0.759330 -0.944829
vt 0.325490 -0.960817
vt 0.024820 -0.733807
vt 0.243368 -0.824633
vt 0.440766 -0.987542
vt 0.086236 -0.729199
vt 0.452068 -0.715923
vt 0.665400 -0.538102
vt 0.391087 -0.487607
vt 0.789264 -0.321394
vt 0.485140 -0.487169
vt 0.461409 -0.778404
vt 0.783919 -0.486715
vt 0.476269 -0.472923
vt 0.755551 -0.075449
vt 0.523682 -0.034681
vt 0.745975 -0.384427
vt 0.517316 -0.417085
vt 0.678985 -0.494139
vt 0.443764 -0.025288
vt 0.476522 -0.811996
vt 0.120890 -0.759875
vt 0.221579 -1.003493
vt 0.290292 -0.328270
vt 0.443722 -0.965068
vt 0.245806 -0.678153
vt 0.048414 -0.859621
vt 0.991927 -0.738826
vt 0.926069 -0.990184
vt 0.863916 -0.639035
vt 0.559244 -0.486947
vt 0.557753 -0.039255
vt 0.473139 -0.487040
vt 0.403504 -0.487921
vt 0.294923 -0.041264
vt 0.289132 -0.490875
vt 0.667212 -0.443137
vt 0.251482 -0.425261
vt 0.590695 -0.707170
vt 0.692834 -0.206550
vt 0.802025 -0.063870
vt 0.324531 -0.475227
vt 0.672282 -0.425925
vt 0.024380 -0.042524
vt 0.092673 -0.464842
vt 0.089741 -0.041693
vt 0.774420 -0.373221
vt 0.881108 -0.458067
vt 0.899950 -0.049365
vt 0.824317 -0.535767
vt 0.318188 -0.218614
vt 0.172296 -0.041809
vt 0.814495 -0.045517
vt 0.763236 -0.486715
vt 0.358421 -0.475726
vt 0.526571 -0.467411
vt 0.413157 -0.042528
vt 0.993480 -0.539505
vt 0.466176 -0.943407
vt 0.870027 -0.951991
vt 0.784797 -0.741283
vt 0.654891 -0.003174
vt 0.310334 -0.071154
vt 0.736774 -0.424537
vt 0.397073 0.051455
vt 0.274420 -0.039118
vt 0.024356 -0.489169
vt 0.666047 -0.458067
vt 0.279864 0.005860
vt 0.964234 -0.518087
vt 0.779864 -0.070207
vt 0.356980 -0.534681
vt 0.255551 -0.144539
vt 0.704199 -0.889310
vt 0.679486 -0.957960
vt 0.558418 -1.025791
vt 0.456764 -0.844486
vt 0.400818 -0.046990
vt 0.354876 -0.503174
vt 0.692536 -0.038528
vt 0.751482 -0.718614
vt 0.810334 -0.158045
vt 0.732660 -0.045517
vt 0.352543 -0.495451
vt 0.324317 -0.821394
vt 0.475435 -0.046261
vt 0.572491 -0.957045
vt 0.817523 -0.793205
vt 0.636971 -0.925757
vt 0.686722 -0.458932
vt 0.401397 -0.479607
vt 0.675345 -0.480137
vt 0.409446 -0.026030
vt 0.498357 -0.408672
vt 0.792722 -0.786728
vt 0.827805 -0.987416
vt 0.827226 -0.834571
vt 0.302025 0.024772
vt 0.719830 -0.015357
vt 0.547668 -0.900995
vt 0.595335 -0.547154
vt 0.862593 -0.725398
vt 0.279515 -0.938451
vt 0.086588 -0.910938
vt 0.076661 -0.704458
vt 0.989402 -0.039255
vt 0.757719 -0.043827
vt 0.789437 -0.043827
vt 0.647066 -0.049401
vt 0.594927 -0.044245
vt 0.745047 0.175401
vt 0.552741 0.175152
vt 0.733629 -0.520526
vt 0.541321 -0.520775
vt 0.675007 -0.397425
vt 0.535087 -0.369772
vt 0.533787 -0.584777
vt 0.673707 -0.612431
vt 0.405076 1.581252
vt 0.026541 1.549606
vt 0.405077 -2.549606
vt 0.026541 -2.581252
vn -0.660600 0.307600 0.684800
vn 0.936100 0.243100 -0.254100
vn -0.923200 0.147400 0.355000
vn 0.871900 -0.181800 -0.454700
vn 0.791300 -0.607800 -0.067400
vn 0.089600 0.376600 0.922000
vn 0.215400 -0.294200 -0.931100
vn -0.866100 0.445900 0.225900
vn 0.940200 0.327000 0.095200
vn -0.007400 -0.391800 0.920000
vn 0.205000 -0.258500 -0.944000
vn 0.062000 -0.096500 -0.993400
vn 0.088700 0.124100 0.988300
vn 0.293300 0.185900 -0.937800
vn -0.927200 -0.069400 0.368100
vn -0.868700 -0.105000 0.484000
vn -0.499000 -0.707900 -0.499900
vn 0.775100 -0.000600 -0.631800
vn -0.269300 -0.227100 0.935900
vn 0.173000 -0.302800 -0.937200
vn -0.664600 -0.686500 0.295000
vn 0.733800 -0.672100 0.098900
vn 0.912800 -0.242600 -0.328600
vn -0.250500 0.237500 0.938500
vn 0.598800 -0.440100 0.669100
vn -0.762500 -0.039000 -0.645800
vn -0.048700 -0.324900 0.944500
vn -0.940500 -0.135600 0.311700
vn 0.909700 -0.123400 -0.396600
vn 0.269000 -0.266200 -0.925600
vn -0.188900 -0.307000 0.932800
vn -0.608200 -0.583400 -0.538200
vn 0.894600 0.198100 -0.400500
vn -0.545900 -0.815400 -0.192500
vn 0.043000 0.405300 0.913200
vn -0.795500 -0.329600 0.508500
vn 0.069900 -0.528300 -0.846200
vn 0.186100 -0.839300 -0.510800
vn -0.285200 0.221900 0.932400
vn 0.979400 -0.127300 -0.156700
vn -0.987500 0.056000 0.147500
vn -0.584000 -0.771600 -0.252200
vn 0.979400 0.198400 0.037200
vn -0.232100 -0.039800 0.971900
vn 0.901300 -0.144100 -0.408600
vn 0.947700 -0.140700 -0.286400
vn -0.065800 -0.316000 0.946500
vn -0.180700 -0.191100 0.964800
vn -0.802700 -0.278400 0.527500
vn 0.107200 0.174600 0.978800
vn -0.088700 -0.514900 -0.852700
vn -0.962600 0.067900 0.262400
vn 0.092300 0.055300 -0.994200
vn 0.814600 -0.213700 0.539300
vn -0.681000 -0.307200 -0.664800
vn 0.747700 0.114900 0.654000
vn -0.737900 -0.576200 -0.351300
vn -0.846200 -0.065600 0.528800
vn 0.664300 -0.549700 -0.506400
vn 0.813400 -0.214400 0.540700
vn 0.761000 0.105300 0.640200
vn 0.767600 0.000600 0.640900
vn 0.970000 -0.003900 -0.243200
vn 0.538000 0.577800 0.613800
vn -0.462200 -0.398000 0.792400
vn -0.969800 0.200600 -0.139100
vn -0.980600 0.154100 0.120800
vn -0.025500 0.182100 0.983000
vn -0.775400 0.631200 0.014600
vn -0.471600 -0.752900 -0.459100
vn 0.100200 -0.124400 -0.987200
vn 0.981300 -0.049400 -0.185800
vn 0.316600 -0.743200 -0.589400
vn -0.603700 -0.183500 0.775800
vn 0.860900 -0.316900 -0.398000
vn -0.143700 0.137400 0.980000
vn 0.655400 -0.158700 -0.738400
vn 0.912100 -0.295200 -0.284500
vn 0.144000 0.259800 0.954900
vn -0.576900 -0.049900 0.815300
vn 0.181200 0.423300 -0.887700
vn -0.892600 0.123000 0.433700
vn -0.095300 0.086300 0.991700
vn 0.846900 -0.375000 -0.376900
vn -0.602900 0.305500 0.737100
vn 0.390100 -0.507700 0.768200
vn 0.523400 -0.197800 -0.828800
vn -0.694200 -0.075000 0.715900
vn 0.873300 0.028000 -0.486300
vn -0.958200 0.131200 0.254300
vn 0.616500 0.095900 -0.781500
vn -0.473100 -0.880000 -0.041300
vn 0.473100 0.880000 0.041300
vn -0.453200 0.884700 0.109400
vn 0.453200 -0.884700 -0.109400
vn -0.884300 0.466800 -0.014100
vn 0.872500 0.466800 -0.144700
vn -0.872500 -0.466800 0.144700
vn 0.884300 -0.466700 0.014100
vn -0.015700 -0.158200 0.987300
vn 0.177700 -0.149900 0.972600
vn -0.872500 -0.466700 0.144700
vn 0.872500 0.466700 -0.144700
vn 0.554600 0.168700 0.814800
vn -0.061000 -0.020200 0.997900
vn 0.994900 0.100100 0.008300
vn 0.050100 0.121200 0.991400
vn 0.547600 0.052400 0.835100
usemtl HUM_GRDL2_ARMOR_V0
s off
f 58/1/1 59/2/1 31/3/1
f 62/4/2 63/5/2 43/6/2
f 1/7/3 33/8/3 23/9/3
f 29/10/4 28/11/4 47/12/4
f 33/13/5 1/14/5 4/15/5
f 31/16/6 62/4/6 58/17/6
f 6/18/7 43/19/7 35/20/7
f 58/1/8 42/21/8 6/18/8
f 36/22/9 55/23/9 60/24/9
f 8/25/10 10/26/10 68/27/10
f 34/28/11 15/29/11 52/28/11
f 10/30/12 8/31/12 65/32/12
f 64/33/13 36/34/13 34/35/13
f 30/36/14 11/37/14 60/38/14
f 34/35/15 65/39/15 64/33/15
f 12/40/16 64/41/16 11/42/16
f 12/43/17 11/44/17 30/45/17
f 25/46/18 71/47/18 46/48/18
f 15/49/19 38/50/19 52/51/19
f 15/29/20 34/28/20 14/29/20
f 14/52/21 25/53/21 46/54/21
f 1/14/22 22/55/22 4/15/22
f 39/56/23 62/57/23 43/58/23
f 67/59/24 5/60/24 2/61/24
f 22/55/25 1/14/25 24/62/25
f 24/63/26 1/7/26 57/64/26
f 8/25/27 68/27/27 25/65/27
f 25/53/28 14/52/28 8/66/28
f 47/12/29 28/11/29 54/67/29
f 69/68/30 29/69/30 24/63/30
f 24/70/31 29/71/31 22/72/31
f 13/73/32 12/43/32 30/45/32
f 60/38/33 55/74/33 30/36/33
f 31/45/34 59/75/34 35/43/34
f 66/76/35 62/4/35 31/16/35
f 32/77/36 39/78/36 47/79/36
f 4/15/37 32/80/37 33/13/37
f 5/81/38 33/13/38 32/80/38
f 5/60/39 67/59/39 33/82/39
f 52/28/40 10/83/40 34/28/40
f 65/39/41 34/35/41 10/84/41
f 3/85/42 31/45/42 35/43/42
f 66/76/43 63/5/43 62/4/43
f 14/86/44 34/35/44 36/34/44
f 36/87/45 8/31/45 14/88/45
f 61/89/46 30/36/46 37/90/46
f 13/91/47 56/92/47 12/40/47
f 53/93/48 38/50/48 15/49/48
f 29/94/49 47/79/49 39/78/49
f 39/69/50 22/63/50 29/69/50
f 22/63/51 39/69/51 42/63/51
f 42/71/52 4/95/52 22/72/52
f 43/19/53 6/18/53 42/21/53
f 53/93/54 15/49/54 46/48/54
f 14/52/55 46/54/55 15/96/55
f 5/60/56 47/12/56 54/67/56
f 47/79/57 5/97/57 32/77/57
f 9/83/58 52/28/58 70/98/58
f 10/26/59 52/99/59 9/100/59
f 7/101/60 53/93/60 46/48/60
f 5/60/61 54/67/61 2/61/61
f 55/23/62 36/22/62 56/102/62
f 30/36/63 55/74/63 37/90/63
f 55/23/64 56/102/64 37/103/64
f 56/92/65 13/91/65 37/104/65
f 23/9/66 57/64/66 1/7/66
f 4/95/67 42/71/67 58/105/67
f 58/106/68 62/107/68 4/108/68
f 6/18/69 59/2/69 58/1/69
f 35/43/70 59/75/70 6/44/70
f 60/109/71 65/32/71 8/31/71
f 8/31/72 36/87/72 60/109/72
f 30/45/73 61/85/73 13/73/73
f 37/110/74 13/111/74 61/112/74
f 62/57/75 39/56/75 32/113/75
f 32/114/76 4/108/76 62/107/76
f 43/19/77 63/115/77 35/20/77
f 35/116/78 63/5/78 3/117/78
f 64/118/79 56/102/79 36/22/79
f 12/40/80 56/92/80 64/41/80
f 11/37/81 65/119/81 60/38/81
f 65/120/82 11/42/82 64/41/82
f 66/76/83 31/16/83 3/117/83
f 66/76/84 3/117/84 63/5/84
f 23/9/85 33/8/85 67/121/85
f 9/100/86 68/27/86 10/26/86
f 28/122/87 29/69/87 69/68/87
f 70/98/88 52/28/88 38/123/88
f 7/101/89 46/48/89 71/47/89
f 9/83/90 70/98/90 88/124/90
f 71/47/91 25/46/91 89/125/91
usemtl MOWOSHIP01
f 49/126/92 18/127/92 48/128/92
f 40/126/93 17/127/93 27/128/93
f 21/127/94 41/126/94 20/128/94
f 19/127/95 51/126/95 50/128/95
f 20/128/94 26/129/94 21/127/94
f 50/128/95 44/129/95 19/127/95
f 16/129/93 27/128/93 17/127/93
f 45/129/92 48/128/92 18/127/92
f 40/130/96 18/131/96 49/132/96
f 19/131/97 41/130/97 51/132/97
f 20/130/98 44/131/98 50/132/98
f 45/131/99 27/130/99 48/132/99
f 48/129/100 16/128/100 49/127/100
f 16/133/99 48/132/99 27/130/99
f 17/126/100 49/127/100 16/128/100
f 49/132/96 17/133/96 40/130/96
f 26/128/101 50/129/101 51/127/101
f 50/132/102 26/133/102 20/130/102
f 51/127/101 21/126/101 26/128/101
f 21/133/103 51/132/103 41/130/103
f 74/134/104 73/135/104 72/136/104
f 75/137/104 72/136/104 73/135/104
f 78/134/105 77/135/105 76/136/105
f 79/137/105 76/136/105 77/135/105
f 82/137/106 80/136/106 81/135/106
f 84/134/107 85/135/107 83/136/107
f 86/134/108 81/135/108 80/136/108
f 87/137/107 83/136/107 85/135/107
