# Blender v2.75 (sub 0) OBJ File: 'Empty.blend'
# www.blender.org
mtllib OM_OREBOX_01.mtl
o OM_OREBOX_01
v -0.736990 0.265784 0.484187
v 0.799029 0.258040 -0.569849
v -0.836215 -0.579532 -0.557410
v -0.749759 0.273756 -0.470694
v 0.738903 -0.548841 0.468485
v -0.775701 -0.540869 -0.511345
v 0.709867 -0.556219 -0.532663
v -0.742207 -0.548841 0.483999
v -0.608312 0.050470 0.496279
v -0.450104 0.409881 0.202790
v -0.285408 0.534756 -0.235275
v 0.746041 0.229554 0.453037
v -0.823682 -0.579532 0.551645
v 0.808582 -0.579532 0.551645
v 0.832963 -0.579532 -0.558842
v -0.737819 0.003365 0.487520
v -0.770436 -0.028076 -0.512319
v 0.724142 0.152264 -0.545290
v -0.410272 0.557679 -0.272837
v 0.165636 0.216833 0.463111
v -0.028612 0.480237 -0.279616
v 0.038321 0.498477 -0.074052
v 0.061643 0.440728 -0.073759
v -0.600850 0.370031 0.191722
v -0.072777 0.471563 0.002219
v 0.745246 0.097320 0.454453
v 0.504230 0.496120 -0.022461
v 0.836215 0.221810 0.564349
v 0.715084 0.258406 -0.492285
v -0.823677 0.258040 -0.555588
v -0.801122 0.258040 0.557624
v 0.367500 0.202991 0.466551
v 0.424007 0.487744 -0.024219
v 0.392793 0.212025 -0.450135
v 0.381510 0.525492 -0.011502
v -0.610210 0.370086 0.141274
v -0.791147 -0.190887 0.248811
v -0.618189 0.401488 0.178755
v 0.246192 0.324962 -0.317751
v 0.144574 -0.040889 -0.551162
v 0.233836 0.371669 -0.350284
v 0.173613 0.503345 -0.023476
v 0.719050 0.204408 -0.506739
v -0.191082 0.303101 0.299758
v 0.138903 0.543635 -0.028366
v 0.247850 0.236349 -0.395393
v -0.612893 0.372104 0.176746
v -0.201915 0.579532 -0.243929
v 0.235503 0.338914 -0.331304
v 0.050489 0.469162 -0.092993
v -0.078614 0.167403 -0.528359
v -0.004261 0.491086 -0.298522
v 0.499760 -0.028382 -0.545035
v 0.409050 0.250453 -0.483764
v 0.177624 0.207375 0.446070
v 0.082805 0.534329 -0.073668
v -0.099301 0.541310 -0.057378
v -0.169971 0.278907 0.339778
v -0.644593 -0.013173 0.540945
v -0.200706 0.299929 0.348254
v -0.321624 0.535355 -0.253439
v -0.206766 0.232171 -0.496627
v -0.304209 0.562598 -0.248681
v 0.229117 -0.007866 -0.545087
v -0.539866 0.372903 -0.447884
v 0.442551 0.230273 -0.455795
v -0.101762 0.433518 -0.011872
v 0.003632 0.480881 -0.081506
v 0.371102 0.476732 -0.011743
v 0.131714 0.494874 -0.035896
v -0.438295 0.359873 0.204062
v 0.200979 0.314212 -0.344444
v 0.006524 0.460315 -0.282861
v 0.044743 0.490460 -0.095568
v -0.809225 -0.188380 0.204146
v -0.306402 0.537438 -0.258426
v 0.167145 0.506902 -0.023233
v -0.067862 0.420659 0.030096
v -0.471886 0.370619 0.174783
v -0.183884 0.224746 -0.493684
v 0.413641 0.476264 -0.017255
v 0.031749 0.452596 -0.117704
v 0.224048 0.269036 -0.434119
v 0.151297 0.188772 0.454445
v 0.048186 0.474834 -0.080669
v -0.814934 -0.072280 -0.526196
v -0.077154 0.457197 -0.017114
v -0.633983 -0.033458 0.481635
v -0.064011 0.141476 -0.472177
v -0.613727 0.022409 0.480424
v 0.347234 0.176912 0.429622
v -0.807144 -0.441730 0.549715
v 0.797254 0.011089 -0.563447
v 0.165500 -0.064193 -0.502053
v 0.821526 0.089112 0.569849
v 0.722961 0.184228 -0.463274
v 0.189699 0.245308 -0.395838
v 0.683777 0.165980 -0.494457
v -0.208810 0.198820 -0.441261
v 0.394989 0.186738 0.445608
v 0.115800 -0.041052 -0.510442
v 0.495572 -0.040135 -0.481580
v -0.098034 0.174827 -0.515904
v -0.797576 -0.192042 0.253981
v -0.576640 0.033418 0.492478
v 0.187455 0.199781 0.439840
v -0.622376 -0.022273 0.544262
v 0.535979 0.009543 -0.490616
vt 0.659545 -0.896477
vt 0.911547 -0.389317
vt 0.557613 -0.549239
vt 0.163669 -0.835661
vt 0.080412 -1.008201
vt 0.050202 -0.348061
vt 0.247951 -0.337109
vt 0.558668 -0.213071
vt 0.058550 -0.003519
vt 0.554708 -0.150338
vt 0.914142 -0.005744
vt 0.554388 -0.380286
vt 0.940603 -0.999201
vt 0.328505 -0.700455
vt 0.344750 -0.627550
vt 0.523077 -0.560715
vt 0.484961 -0.460803
vt -1.017768 -0.802868
vt 0.597404 -0.698390
vt -0.015518 -0.576008
vt 0.507045 -0.436371
vt 0.315591 -0.770517
vt 1.062872 -0.965447
vt 1.062872 -0.166246
vt 0.065019 -0.177484
vt 0.003977 -0.990620
vt 0.990991 -0.990620
vt 0.987515 -0.010095
vt 0.067735 -0.999501
vt 1.066736 -0.999501
vt 1.055101 -0.394483
vt 1.040500 -0.000500
vt 0.072346 -0.394483
vt 0.060711 -0.999501
vt 0.055407 -0.965447
vt 0.000500 -0.981025
vt 0.976673 -0.999500
vt 0.980150 -0.018975
vt 0.003977 -0.000499
vt 0.978103 -0.000499
vt 0.000500 -0.010095
vt 0.000685 -0.990620
vt 0.984259 -0.010095
vt 0.000685 -0.018975
vt 0.000500 -0.999500
vt 0.978289 -0.981025
vt 0.984074 -0.990620
vt 1.056029 -0.808002
vt 1.078462 -0.142782
vt 0.049427 -0.018413
vt 0.039028 -0.826454
vt 0.036562 -1.018080
vt 1.101917 -0.975544
vt 1.068346 0.022487
vt 0.053863 -0.142782
vt 0.036989 -0.975544
vt 1.088568 -0.975544
vt 1.074308 -0.271774
vt 1.047524 -0.000500
vt 0.081282 -0.295046
vt 0.999500 -0.989448
vt 0.958803 -0.920685
vt 0.014286 -0.999500
vt 0.991973 -1.014427
vt 0.062434 -0.912442
vt -0.007028 -1.036108
vt 0.000500 -0.013135
vt 0.941055 -0.033616
vt 0.992365 -0.000500
vt 0.958520 -0.858510
vt 0.045682 -0.052746
vt -0.081964 -0.125516
vt 0.811016 -0.113172
vt 0.851135 -0.041708
vt -0.147866 -0.063514
vt 0.053487 -0.934431
vt 0.079922 -0.000500
vt 1.059712 -0.999501
vt 0.086946 -0.000500
vt 0.057211 0.022487
vt 1.073807 0.022487
vt 0.006518 -0.060878
vt 0.498175 -0.155018
vt 0.497868 0.865751
vt 0.012461 -0.200029
vt 0.488831 -0.130515
vt 0.488603 0.598383
vt 0.497385 2.474656
vt 0.007439 2.479952
vt 0.006832 0.805610
vt 0.488162 2.006856
vt 0.011770 2.007488
vt 0.012217 0.579366
vt 0.012776 -1.208170
vt 0.489121 -1.057275
vt 0.498272 -0.480576
vt 0.006416 -0.341803
vt 0.006118 -1.162576
vt 0.498506 -1.259015
vt 0.013050 -2.081444
vt 0.488905 -0.366832
vt 0.012549 -0.480376
vt 0.005685 -2.357138
vt 0.489436 -2.062153
vt 0.498831 -2.339918
vt 0.005279 -3.477072
vt 0.489731 -3.004252
vt 0.499174 -3.482367
vt 0.013338 -3.003173
vn 0.026800 0.885900 0.463100
vn -0.855600 0.508000 -0.099400
vn -0.035800 0.178600 -0.983300
vn 0.133900 0.877800 -0.459900
vn 0.849900 0.526800 0.011000
vn 0.091500 0.840300 0.534300
vn -0.114100 0.662600 0.740300
vn -0.941600 0.336000 0.020200
vn -0.047200 0.428100 -0.902500
vn -0.219400 0.953300 0.207700
vn 0.120700 0.882500 -0.454500
vn 0.116800 0.519600 -0.846400
vn 0.459000 0.879700 -0.124400
vn -0.390300 0.835900 0.385900
vn 0.150800 0.819700 0.552500
vn 0.013000 0.142600 0.989700
vn -0.873000 0.325000 0.363700
vn -0.549400 0.476100 -0.686700
vn 0.233600 0.469200 0.851600
vn 0.424200 0.904300 -0.048000
vn -0.168400 0.519500 -0.837700
vn -0.773500 0.627400 -0.089600
vn 0.201200 0.603300 -0.771800
vn 0.222100 0.583900 -0.780800
vn 0.116400 0.898500 0.423300
vn -0.048200 0.841500 0.538100
vn 0.468700 0.815100 -0.340500
vn -0.204400 0.776200 -0.596500
vn -0.121500 0.730400 0.672100
vn 0.154300 0.902600 0.401900
vn 0.414800 0.479400 0.773400
vn 0.000000 -1.000000 0.000000
vn -0.010500 0.000300 -0.999900
vn -0.000900 0.061500 -0.998100
vn -0.999100 0.041900 -0.000000
vn 0.013800 -0.049600 0.998700
vn 0.014200 -0.050300 0.998600
vn 0.999900 -0.006400 -0.013400
vn -0.999400 0.004800 0.032900
vn 0.999000 -0.030100 -0.033900
vn -0.999500 0.009700 0.028900
vn -0.021500 -0.019600 -0.999600
vn -0.999600 0.008300 0.025200
vn -0.008700 -0.011200 0.999900
vn 0.000000 -0.027200 0.999600
vn 0.999600 -0.018700 -0.022500
vn 0.997900 0.060500 0.021900
vn -0.006100 -0.008200 -0.999900
vn 0.021900 0.998400 0.051700
vn 0.048300 0.998400 0.030300
vn -0.000000 1.000000 -0.004800
vn 0.031600 0.999100 0.029500
vn 0.007500 0.982100 -0.188400
vn -0.220100 0.975400 0.011100
vn -0.117200 0.993100 0.002400
vn 0.026900 0.991400 0.128100
vn -0.999500 -0.024700 0.020300
vn -0.047300 -0.089800 -0.994800
vn -0.992800 0.119300 0.011200
vn -0.017600 0.016100 0.999700
vn -0.008800 -0.025800 -0.999600
vn 0.999900 -0.007600 -0.014200
vn 0.993100 -0.111400 -0.036100
vn -0.003200 0.041800 0.999100
vn 0.890600 0.220400 0.397700
vn -0.841500 0.532400 -0.091900
vn 0.921300 0.388500 -0.014700
vn -0.472800 0.712400 0.518600
vn 0.212300 0.485100 0.848300
vn -0.521200 0.556900 -0.646700
vn -0.974200 0.207500 0.088300
vn 0.530500 0.737800 -0.417400
vn 0.668200 0.607600 0.429400
vn -0.300000 0.698800 -0.649300
vn -0.873500 0.265300 -0.408200
vn 0.214700 0.471100 0.855600
vn -0.322300 0.203400 0.924500
vn 0.802800 0.446200 0.395500
vn -0.662000 0.309200 -0.682800
vn 0.799000 0.471400 0.373300
vn 0.837500 -0.036000 -0.545200
vn 0.674800 0.628400 0.387000
vn -0.548000 0.206000 -0.810700
vn 0.465300 0.490300 0.736900
vn 0.976500 0.152000 -0.152600
vn 0.952800 0.237900 -0.188600
vn -0.654300 0.532000 -0.537500
vn -0.461600 0.885200 0.058400
vn -0.962500 0.206300 -0.176300
vn 0.677200 0.652300 -0.340400
vn -0.817100 -0.143100 -0.558500
vn -0.635500 0.768400 -0.075800
vn -0.622100 0.779500 -0.072500
vn 0.331600 0.106800 0.937400
vn 0.503800 0.435900 0.745800
vn 0.642900 0.638100 0.423600
vn 0.854300 0.468100 -0.225900
vn -0.833200 0.546900 -0.082000
vn -0.472300 0.435700 -0.766200
vn 0.716300 0.363900 -0.595400
vn -0.304800 0.526200 -0.793900
vn -0.369000 0.927700 0.057000
vn -0.952800 0.236700 -0.190100
vn -0.761600 0.207100 -0.614100
vn 0.745900 0.192400 0.637700
vn -0.792900 0.382500 -0.474400
vn 0.885200 0.076700 -0.458900
vn -0.555800 0.626000 -0.547000
vn 0.512000 0.484900 0.709000
vn -0.878200 0.300400 0.372300
vn 0.515500 0.449400 0.729600
vn -0.895400 0.437500 0.083000
vn 0.296200 0.627600 -0.720000
vn -0.564900 0.552300 -0.613100
vn -0.806200 0.418500 -0.418200
vn 0.902700 0.217300 -0.371400
vn -0.866800 0.326600 0.376700
vn 0.879500 0.426200 -0.211800
vn -0.636600 0.687700 -0.349100
vn 0.963500 -0.032800 -0.265600
vn -0.945500 0.278100 -0.169200
vn -0.898300 0.376100 0.227400
vn 0.904500 -0.073300 -0.420200
vn 0.643700 0.714600 0.273900
vn -0.785500 0.447500 -0.427500
vn -0.535800 0.232400 -0.811700
vn 0.910600 -0.044400 0.411000
vn 0.678400 0.598900 0.425600
vn -0.747900 0.403800 -0.526800
vn -0.923900 -0.360600 -0.127800
vn -0.235900 0.627600 -0.741900
vn -0.635700 0.138400 -0.759500
vn 0.372500 0.520800 0.768100
vn 0.712600 0.680900 0.169200
vn 0.069400 0.486800 0.870700
vn 0.630300 0.374100 -0.680200
usemtl OM_OREBOX__02
s off
f 47/1/1 55/2/1 87/3/1
f 47/1/2 65/4/2 17/5/2
f 17/5/3 65/4/3 64/6/3
f 49/7/4 81/8/4 18/9/4
f 27/10/5 26/11/5 18/9/5
f 77/12/6 55/2/6 81/8/6
f 55/2/7 47/1/7 16/13/7
f 17/5/8 16/13/8 47/1/8
f 76/14/9 48/15/9 64/6/9
f 76/14/10 47/1/10 57/16/10
f 77/12/11 81/8/11 49/7/11
f 48/15/12 49/7/12 64/6/12
f 49/7/13 48/15/13 50/17/13
f 48/15/14 76/14/14 57/16/14
f 81/8/15 55/2/15 26/11/15
f 16/18/16 26/19/16 55/20/16
f 55/2/17 56/21/17 50/17/17
f 49/7/18 50/17/18 56/21/18
f 87/3/19 57/16/19 47/1/19
f 57/16/20 50/17/20 48/15/20
f 18/9/21 64/6/21 49/7/21
f 19/22/22 65/4/22 47/1/22
f 76/14/23 64/6/23 65/4/23
f 76/14/24 65/4/24 19/22/24
f 76/14/25 19/22/25 47/1/25
f 55/2/26 77/12/26 56/21/26
f 49/7/27 56/21/27 77/12/27
f 81/8/28 27/10/28 18/9/28
f 81/8/29 26/11/29 27/10/29
f 55/2/30 50/17/30 87/3/30
f 87/3/31 50/17/31 57/16/31
usemtl OM_OREBOX_01
f 13/23/32 3/24/32 15/25/32
f 5/26/33 8/27/33 1/28/33
f 15/29/34 3/30/34 86/31/34
f 31/32/35 86/33/35 3/34/35
f 15/25/32 14/35/32 13/23/32
f 6/36/36 7/37/36 29/38/36
f 29/38/37 4/39/37 6/36/37
f 4/40/38 1/41/38 8/42/38
f 12/43/39 29/44/39 7/45/39
f 8/42/40 6/46/40 4/40/40
f 7/45/41 5/47/41 12/43/41
f 1/28/42 12/41/42 5/26/42
f 3/34/43 92/48/43 31/32/43
f 95/49/44 31/50/44 92/51/44
f 13/52/45 14/53/45 95/49/45
f 2/54/46 95/55/46 14/56/46
f 14/56/47 15/57/47 93/58/47
f 30/59/48 93/60/48 15/29/48
f 28/61/49 12/62/49 31/63/49
f 2/64/50 12/65/50 28/66/50
f 30/67/51 29/68/51 2/69/51
f 2/64/52 29/70/52 12/65/52
f 29/68/53 30/67/53 4/71/53
f 1/72/54 4/73/54 30/74/54
f 31/75/55 1/72/55 30/74/55
f 12/62/56 1/76/56 31/63/56
f 31/32/57 30/77/57 86/33/57
f 15/29/58 86/31/58 30/59/58
f 3/34/59 13/78/59 92/48/59
f 95/49/60 92/51/60 13/52/60
f 30/59/61 2/79/61 93/60/61
f 14/56/62 93/58/62 2/54/62
f 2/54/63 28/80/63 95/55/63
f 31/50/64 95/49/64 28/81/64
usemtl OM_OREBOX_03
f 10/82/65 71/83/65 11/84/65
f 79/85/66 10/86/66 63/87/66
f 85/88/67 22/89/67 20/90/67
f 22/91/68 68/92/68 84/93/68
f 78/94/69 25/95/69 38/86/69
f 82/96/70 74/97/70 41/98/70
f 35/98/71 69/99/71 91/83/71
f 35/95/72 33/94/72 66/100/72
f 33/94/73 35/95/73 32/86/73
f 36/83/74 38/82/74 25/98/74
f 38/98/75 36/99/75 75/83/75
f 38/86/76 24/85/76 78/94/76
f 24/94/77 38/95/77 37/86/77
f 74/101/78 23/102/78 39/94/78
f 41/98/79 72/99/79 82/96/79
f 39/94/80 41/95/80 74/101/80
f 83/101/81 46/102/81 94/94/81
f 45/95/82 42/94/82 96/100/82
f 70/99/83 45/98/83 43/103/83
f 42/94/84 45/95/84 60/86/84
f 41/86/85 39/85/85 46/102/85
f 73/84/86 52/90/86 22/82/86
f 21/93/87 52/87/87 51/91/87
f 68/85/88 22/86/88 52/87/88
f 69/99/89 35/98/89 54/103/89
f 66/100/90 54/104/90 35/95/90
f 34/105/91 54/103/91 53/106/91
f 44/83/92 60/82/92 45/98/92
f 60/82/93 44/83/93 88/88/93
f 58/85/94 60/86/94 59/91/94
f 60/86/95 58/85/95 42/94/95
f 11/84/96 63/90/96 10/82/96
f 11/84/97 80/89/97 63/90/97
f 63/87/98 61/93/98 79/85/98
f 63/87/99 62/92/99 61/93/99
f 66/100/100 53/107/100 54/104/100
f 25/98/101 67/99/101 36/83/101
f 52/87/102 21/93/102 68/85/102
f 54/103/103 34/105/103 69/99/103
f 45/98/104 70/99/104 44/83/104
f 71/88/105 10/89/105 9/90/105
f 97/96/106 83/97/106 40/98/106
f 52/90/107 73/84/107 89/88/107
f 67/83/108 25/82/108 74/97/108
f 23/102/109 74/101/109 25/86/109
f 75/83/110 37/82/110 38/98/110
f 25/86/111 78/85/111 23/102/111
f 10/91/112 79/92/112 90/93/112
f 62/92/113 63/87/113 80/91/113
f 74/97/114 82/96/114 67/83/114
f 72/83/115 41/82/115 83/97/115
f 46/102/116 83/101/116 41/86/116
f 84/93/117 20/87/117 22/91/117
f 22/82/118 85/83/118 73/84/118
f 88/88/119 59/89/119 60/82/119
f 89/88/120 51/89/120 52/90/120
f 90/93/121 9/87/121 10/91/121
f 91/83/122 32/82/122 35/98/122
f 94/94/123 40/95/123 83/101/123
f 96/100/124 43/104/124 45/95/124
f 83/97/125 97/96/125 72/83/125
f 43/103/126 98/105/126 70/99/126
f 80/89/127 11/84/127 99/88/127
f 32/86/128 100/85/128 33/94/128
f 40/98/129 101/99/129 97/96/129
f 53/106/130 102/108/130 34/105/130
f 51/91/131 103/92/131 21/93/131
f 37/86/132 104/85/132 24/94/132
f 9/90/133 105/84/133 71/88/133
f 20/90/134 106/84/134 85/88/134
f 59/91/135 107/92/135 58/85/135
f 53/107/136 66/100/136 108/109/136
