# Blender v2.75 (sub 0) OBJ File: 'Empty.blend'
# www.blender.org
mtllib ONION.mtl
o ONION
v 0.080141 0.002722 -0.090692
v -0.011438 0.334250 0.002135
v -0.070607 0.002722 0.108930
v 0.024317 0.112102 0.156197
v -0.155230 0.112102 0.045026
v -0.089105 0.002722 -0.090692
v 0.116333 0.002722 0.036509
v 0.101107 0.112102 -0.113691
v 0.146266 0.112102 0.045026
v -0.110071 0.112102 -0.113691
v -0.129556 0.002722 -0.009455
v 0.061643 0.002722 0.108930
v -0.086990 0.112102 0.135390
v -0.004482 0.112102 -0.154596
v 0.135644 0.162573 -0.010866
v 0.069601 0.159282 0.121931
v -0.004482 -0.026026 -0.080727
v -0.042674 0.201968 -0.096746
v -0.106170 0.206892 0.031154
v -0.099122 0.206346 -0.045132
v 0.146266 0.054503 -0.011834
v 0.078026 -0.026026 -0.005511
v -0.004482 0.002722 -0.123475
v -0.160544 0.112102 -0.012327
v -0.140004 0.054503 -0.065347
v 0.075216 0.054503 0.130852
v 0.131040 0.054503 -0.065347
v -0.125297 0.002722 0.036509
v -0.125297 0.054503 0.093370
v 0.050208 0.054503 -0.139036
v -0.032301 0.054503 0.150950
v -0.059172 0.054503 -0.139036
v -0.034300 0.241058 0.050478
v -0.058962 0.238890 0.017695
v -0.078657 -0.026026 -0.034800
v -0.070607 -0.026026 0.052070
v 0.010744 -0.026026 0.083585
v 0.107820 0.161187 0.087046
v 0.120592 0.002722 -0.009455
v -0.060139 0.203323 0.092293
v -0.033281 0.112102 0.156197
v 0.090324 0.160315 -0.101992
v 0.015979 0.245479 -0.050886
v 0.052136 0.112102 -0.144013
v -0.004482 0.155590 -0.138766
v 0.018599 0.002722 0.125606
v 0.051341 -0.026026 -0.059101
v -0.055186 0.239222 -0.023210
v -0.024943 0.241881 -0.050886
v 0.005926 0.244595 0.058027
v -0.030340 0.154301 0.140636
v -0.004482 -0.039349 0.002135
v 0.151580 0.112102 -0.012327
v -0.150096 0.054503 0.043565
v 0.078026 0.112102 0.135390
v 0.061643 -0.026026 0.052070
v 0.097511 0.054503 -0.109747
v -0.061100 0.112102 -0.144013
v -0.144782 0.112102 -0.067726
v 0.135818 0.112102 -0.067726
v -0.129556 0.112102 0.096586
v 0.141132 0.054503 0.043565
v 0.120592 0.112102 0.096586
v 0.023336 0.054503 0.150950
v -0.106475 0.054503 -0.109747
v 0.116333 0.054503 0.093370
v -0.084181 0.054503 0.130852
v -0.004482 0.054503 -0.149259
v -0.155230 0.054503 -0.011834
v 0.046222 0.248138 -0.023210
v 0.130872 0.162336 0.040694
v 0.121491 0.161868 -0.060670
v 0.021376 0.156879 0.140636
v 0.046354 0.158123 -0.129252
v 0.040893 0.002722 -0.114993
v -0.049858 0.002722 -0.114993
v 0.107959 0.002722 -0.053855
v -0.104721 0.002722 0.077831
v -0.116923 0.002722 -0.053855
v 0.095757 0.002722 0.077831
v -0.027563 0.002722 0.125606
v 0.040719 0.247655 0.036401
v 0.097206 0.191121 0.031154
v -0.109755 0.207170 -0.007650
v -0.088852 0.205549 0.066039
v -0.075708 0.204530 -0.076231
v -0.023909 0.200513 0.106370
v -0.055318 0.153056 -0.129252
v 0.100791 0.190843 -0.007650
v -0.086990 -0.026026 -0.005511
v -0.048103 -0.026026 0.072585
v -0.034415 -0.026026 -0.075132
v -0.099289 0.150865 -0.101992
v 0.033677 0.247035 -0.039886
v -0.078565 0.151898 0.121931
v 0.025336 0.246302 0.050478
v -0.004482 0.243680 -0.054726
v -0.014890 0.242765 0.058027
v -0.042641 0.240325 -0.039886
v -0.049683 0.239706 0.036401
v -0.060882 0.238721 -0.003112
v -0.004482 0.199007 -0.103907
v 0.090158 0.191668 -0.045132
v 0.051918 0.248639 -0.003112
v 0.069693 -0.026026 -0.034800
v 0.039139 -0.026026 0.072585
v 0.025451 -0.026026 -0.075132
v -0.019708 -0.026026 0.083585
v 0.075216 -0.026026 0.024811
v -0.060306 -0.026026 -0.059101
v -0.084181 -0.026026 0.024811
v -0.130455 0.149311 -0.060670
v -0.116784 0.149993 0.087046
v 0.014945 0.197500 0.106370
v -0.144608 0.148606 -0.010866
v 0.079887 0.192464 0.066039
v -0.139836 0.148844 0.040694
v 0.051174 0.194691 0.092293
v 0.033710 0.196045 -0.096746
v 0.066744 0.193483 -0.076231
v 0.049997 0.248470 0.017695
vt 0.117410 -0.556353
vt 0.117549 -0.653520
vt 0.176392 -0.656332
vt 0.250000 -0.321482
vt 0.646764 -0.478272
vt 0.705721 -0.476795
vt 0.411978 -0.558539
vt 0.411853 -0.651650
vt 0.470624 -0.647298
vt 0.470588 -0.723704
vt 0.470588 -0.827992
vt 0.529412 -0.827992
vt 0.411765 -0.723704
vt 0.411765 -0.827992
vt 0.500000 -0.997921
vt 0.294118 -0.973798
vt 0.235294 -0.973798
vt 0.941383 -0.482211
vt 0.941337 -0.571716
vt 1.000000 -0.566354
vt 0.882353 -0.921747
vt 0.941176 -0.973798
vt 0.941176 -0.921747
vt 0.764750 -0.581135
vt 0.764724 -0.632320
vt 0.823608 -0.633597
vt 0.823529 -0.723704
vt 0.823529 -0.827992
vt 0.882353 -0.827992
vt 0.941176 -0.723704
vt 1.000000 -0.827992
vt 1.000000 -0.723704
vt 0.588235 -0.723704
vt 0.647059 -0.827992
vt 0.647059 -0.723704
vt 0.764706 -0.827992
vt 0.764706 -0.921747
vt 0.823529 -0.921747
vt 0.235294 -0.723704
vt 0.235294 -0.827992
vt 0.294118 -0.827992
vt -0.000000 -0.723704
vt -0.000000 -0.827992
vt 0.058824 -0.827992
vt 0.176471 -0.827992
vt 0.176471 -0.921747
vt 0.235294 -0.921747
vt 0.176471 -0.973798
vt 0.117647 -0.973798
vt 0.529412 -0.973798
vt 0.470588 -0.973798
vt 0.705882 -0.921747
vt 0.705882 -0.827992
vt 0.352941 -0.723704
vt 0.353171 -0.554508
vt 0.353036 -0.655099
vt 0.058824 -0.723704
vt 0.058663 -0.560991
vt 0.646964 -0.634831
vt 0.705882 -0.723704
vt 0.705830 -0.632751
vt 0.764706 -0.723704
vt 0.529412 -0.723704
vt 0.588235 -0.827992
vt 0.412039 -0.490215
vt 0.470674 -0.563626
vt 0.470699 -0.487125
vt 0.117647 -0.921747
vt 0.117647 -0.827992
vt -0.000000 -0.566354
vt 0.058757 -0.649552
vt 1.000000 -0.485468
vt 0.294243 -0.552076
vt 0.117342 -0.491543
vt 0.176226 -0.493540
vt 0.176280 -0.553066
vt 0.235250 -0.551573
vt 0.294170 -0.657179
vt 0.647059 -0.921747
vt 0.705882 -0.973798
vt 0.823529 -0.973798
vt 0.058824 -0.921747
vt 1.000000 -0.973798
vt 0.294118 -0.723704
vt 0.235276 -0.657609
vt 0.117647 -0.723704
vt 0.176471 -0.723704
vt 0.529412 -0.921747
vt 0.294118 -0.921747
vt 0.352941 -0.827992
vt 0.352941 -0.921747
vt 0.470588 -0.921747
vt 0.353236 -0.492664
vt 0.294279 -0.494141
vt 0.235238 -0.494447
vt 0.352941 -0.973798
vt 0.588235 -0.921747
vt 0.588235 -0.973798
vt 0.647059 -0.973798
vt 0.588147 -0.638280
vt 0.587961 -0.480721
vt 0.764706 -0.973798
vt 0.529376 -0.642631
vt 0.941243 -0.640377
vt -0.058617 -0.482211
vt -0.000000 -0.485468
vt -0.235238 -0.476489
vt 0.882451 -0.636410
vt 0.882353 -0.723704
vt 0.941176 -0.827992
vt -0.000000 -0.644965
vt 1.000000 -0.644965
vt 0.058617 -0.488725
vt 0.529326 -0.569081
vt 0.588022 -0.574168
vt 0.646829 -0.578200
vt 0.411765 -0.921747
vt 1.000000 -0.921747
vt 0.882658 -0.479393
vt -0.117342 -0.479393
vt 0.705757 -0.580632
vt 0.823774 -0.477396
vt 0.823720 -0.579642
vt 0.882590 -0.576354
vt 0.529301 -0.483811
vt -0.000000 -0.921747
vt 0.058824 -0.973798
vt 0.882353 -0.973798
vt 0.411765 -0.973798
vt 0.764762 -0.476489
vt -0.176226 -0.477396
vt -0.000000 -0.973798
vn -0.682800 0.537500 -0.494800
vn 0.717400 0.583000 0.381300
vn -0.324300 0.556900 0.764600
vn 0.000000 -0.090700 0.995900
vn -0.359800 -0.090700 0.928600
vn -0.160700 -0.986900 0.014900
vn 0.183300 0.703100 -0.687000
vn 0.297200 -0.825300 -0.480100
vn 0.608900 0.771600 -0.184000
vn 0.794700 -0.090700 -0.600200
vn 0.183000 -0.090700 -0.978900
vn 0.670900 -0.090700 0.736000
vn 0.863900 -0.439600 -0.245800
vn -0.991600 -0.090700 0.091900
vn -0.183000 -0.090700 -0.978900
vn -0.863900 -0.439600 -0.245800
vn -0.128800 -0.986900 -0.097300
vn 0.000000 -0.986900 0.161400
vn 0.804000 -0.439600 0.400400
vn -0.670900 -0.090700 0.736000
vn -0.587000 0.527400 0.614300
vn -0.415200 0.535500 -0.735400
vn 0.851700 0.298200 0.431000
vn 0.957900 -0.090700 -0.272500
vn 0.359800 -0.090700 0.928600
vn -0.297400 0.745700 0.596200
vn -0.450600 -0.825300 -0.340300
vn -0.716800 -0.439600 -0.541300
vn -0.108600 0.569500 -0.814800
vn 0.061000 0.738800 -0.671100
vn -0.752700 0.527400 0.394000
vn -0.720700 0.468200 -0.511200
vn -0.471200 0.829600 -0.299600
vn -0.856100 0.510100 0.082700
vn 0.991600 -0.090700 0.091900
vn 0.894300 -0.439600 0.082900
vn 0.505500 -0.825300 0.251700
vn 0.543100 -0.825300 -0.154500
vn -0.297200 -0.825300 -0.480100
vn 0.103800 -0.825300 -0.555000
vn -0.858600 0.506800 0.077100
vn -0.794700 -0.090700 -0.600200
vn 0.000000 -0.439600 0.898200
vn -0.894300 -0.439600 0.082900
vn -0.562200 -0.825300 0.052100
vn -0.891500 -0.090700 0.443900
vn -0.804000 -0.439600 0.400400
vn 0.472800 -0.439600 -0.763600
vn 0.716800 -0.439600 -0.541300
vn -0.324500 -0.439600 0.837500
vn -0.165000 -0.439600 -0.882900
vn -0.472800 -0.439600 -0.763600
vn -0.616000 0.476500 0.627300
vn -0.352000 0.497600 0.792700
vn -0.485200 0.830700 0.272900
vn -0.545200 0.836400 0.056400
vn -0.543100 -0.825300 -0.154500
vn -0.505500 -0.825300 0.251700
vn 0.000000 -0.825300 0.564600
vn 0.380400 -0.825300 0.417300
vn 0.634100 0.303200 0.711300
vn 0.528000 0.567900 0.631500
vn 0.562200 -0.825300 0.052100
vn -0.456600 0.782200 0.423800
vn -0.172200 0.781900 0.599200
vn -0.016300 0.327300 0.944800
vn 0.174100 0.320500 -0.931100
vn 0.916100 0.301200 -0.264600
vn 0.110200 0.534500 -0.837900
vn 0.803600 0.589900 0.079000
vn 0.500800 0.308300 -0.808800
vn 0.524300 -0.090700 -0.846700
vn -0.173000 0.336900 -0.925500
vn 0.156900 0.337800 -0.928000
vn 0.324500 -0.439600 0.837500
vn 0.204000 -0.825300 0.526500
vn 0.108800 -0.986900 0.119300
vn -0.858600 0.457100 -0.232000
vn -0.529300 0.838500 -0.129100
vn -0.289200 0.774700 -0.562400
vn -0.068500 0.738500 -0.670800
vn 0.057900 0.746300 0.663100
vn 0.523300 0.679100 0.514800
vn -0.354300 0.345200 0.869100
vn 0.000000 0.346000 0.938200
vn 0.155300 -0.986900 -0.044200
vn 0.029700 -0.986900 -0.158700
vn 0.950200 0.298800 0.088100
vn 0.918300 0.297500 -0.261300
vn 0.341200 0.328500 0.880700
vn 0.639500 0.314300 0.701500
vn 0.160700 -0.986900 0.014900
vn -0.524300 -0.090700 -0.846700
vn -0.452700 0.571700 -0.684200
vn -0.957900 -0.090700 -0.272500
vn -0.826000 0.515700 -0.227400
vn 0.761100 0.300600 -0.574800
vn -0.774800 0.510600 0.372700
vn 0.891500 -0.090700 0.443900
vn 0.852700 0.304400 0.424600
vn 0.605100 -0.439600 0.663800
vn -0.605100 -0.439600 0.663800
vn 0.165000 -0.439600 -0.882900
vn 0.329900 0.702900 -0.630200
vn 0.402200 0.557800 -0.726000
vn 0.950500 0.297500 0.089300
vn 0.632000 0.773200 0.052800
vn 0.753600 0.309300 -0.580000
vn 0.623300 0.652300 -0.431200
vn 0.329900 0.313000 0.890600
vn 0.302100 0.710400 0.635700
vn 0.487300 0.321600 -0.811900
vn 0.427000 0.673300 -0.603600
vn -0.103800 -0.825300 -0.555000
vn 0.450600 -0.825300 -0.340300
vn -0.380400 -0.825300 0.417300
vn -0.204000 -0.825300 0.526500
vn 0.478500 0.654200 0.585700
vn 0.685800 0.656000 0.315200
vn 0.583800 0.769000 0.260200
vn 0.638300 0.767300 0.062600
vn -0.534700 0.827800 -0.169900
vn -0.827000 0.505700 -0.245700
vn -0.358700 0.811600 0.461200
vn -0.536300 0.557400 0.633800
vn -0.449200 0.806100 -0.385300
vn -0.670500 0.514100 -0.534900
vn -0.249200 0.599000 0.761000
vn -0.029800 0.598000 0.800900
vn -0.189000 0.356500 -0.915000
vn -0.492000 0.355800 -0.794600
vn 0.725900 0.651000 -0.222000
vn 0.774600 0.587600 -0.234200
vn -0.155300 -0.986900 -0.044200
vn -0.108800 -0.986900 0.119300
vn -0.029700 -0.986900 -0.158700
vn -0.501900 0.374900 -0.779500
vn -0.740000 0.374500 -0.558800
vn 0.634300 0.576400 -0.515300
vn 0.569400 0.672500 -0.472800
vn -0.637600 0.364500 0.678700
vn -0.336300 0.364800 0.868200
vn 0.261300 0.546600 0.795600
vn 0.214100 0.677400 0.703800
vn -0.201800 0.509600 -0.836400
vn -0.181700 0.775500 -0.604700
vn -0.045900 0.522100 0.851700
vn -0.062300 0.709100 0.702400
vn -0.491700 0.486500 -0.722200
vn -0.361100 0.807400 -0.466700
vn -0.802500 0.461600 0.377900
vn -0.535000 0.813000 0.229900
vn -0.887100 0.454900 0.078200
vn -0.551900 0.832800 0.044200
vn -0.174400 0.616500 -0.767800
vn 0.191200 0.614500 -0.765400
vn 0.636000 0.754100 -0.163800
vn 0.511200 0.753300 -0.413900
vn 0.764300 0.640400 0.075800
vn 0.741100 0.642100 -0.196100
vn 0.128800 -0.986900 -0.097300
vn 0.058300 -0.986900 0.150500
vn 0.085000 -0.986900 -0.137300
vn -0.058300 -0.986900 0.150500
vn 0.144500 -0.986900 0.072000
vn -0.085000 -0.986900 -0.137300
vn -0.144500 -0.986900 0.072000
vn -0.742400 0.389200 -0.545300
vn -0.886100 0.389000 -0.252100
vn -0.831300 0.381900 0.403900
vn -0.622600 0.381800 0.683000
vn 0.050300 0.648600 0.759500
vn 0.247400 0.647300 0.721000
vn -0.884700 0.396100 -0.245800
vn -0.914400 0.395800 0.084700
vn 0.482300 0.742700 0.464500
vn 0.593800 0.741000 0.313700
vn -0.915600 0.393400 0.082900
vn -0.823100 0.393200 0.409800
vn 0.305300 0.699600 0.646000
vn 0.463400 0.698100 0.545800
vn 0.430200 0.665900 -0.609500
vn 0.104800 0.667100 -0.737500
vn 0.577400 0.715700 -0.392900
vn 0.341800 0.715900 -0.608900
vn 0.675700 0.641500 0.363200
vn 0.762700 0.643300 0.065900
usemtl SK_SKULL_S0_D0
s off
f 86/1/1 93/2/1 112/3/1
f 2/4/2 82/5/2 121/6/2
f 40/7/3 95/8/3 51/9/3
f 41/10/4 31/11/4 64/12/4
f 13/13/5 31/11/5 41/10/5
f 13/13/5 67/14/5 31/11/5
f 52/15/6 111/16/6 90/17/6
f 43/18/7 119/19/7 102/20/7
f 1/21/8 107/22/8 75/23/8
f 89/24/9 15/25/9 72/26/9
f 60/27/10 27/28/10 57/29/10
f 44/30/11 68/31/11 14/32/11
f 55/33/12 66/34/12 63/35/12
f 21/36/13 39/37/13 77/38/13
f 24/39/14 69/40/14 54/41/14
f 14/42/15 68/43/15 32/44/15
f 25/45/16 79/46/16 11/47/16
f 52/15/17 35/48/17 110/49/17
f 52/15/18 37/50/18 108/51/18
f 66/34/19 7/52/19 62/53/19
f 61/54/20 67/14/20 13/13/20
f 85/55/21 113/56/21 95/8/21
f 14/42/15 32/44/15 58/57/15
f 18/58/22 93/2/22 86/1/22
f 38/59/23 9/60/23 71/61/23
f 53/62/24 27/28/24 60/27/24
f 4/63/25 26/64/25 55/33/25
f 33/65/26 87/66/26 98/67/26
f 6/68/27 110/49/27 35/48/27
f 65/69/28 79/46/28 25/45/28
f 102/70/29 88/71/29 18/58/29
f 43/18/30 102/20/30 97/72/30
f 19/73/31 113/56/31 85/55/31
f 2/4/32 99/74/32 48/75/32
f 99/74/33 20/76/33 48/75/33
f 84/77/34 117/78/34 19/73/34
f 9/60/35 21/36/35 53/62/35
f 62/53/36 39/37/36 21/36/36
f 80/79/37 109/80/37 7/52/37
f 39/37/38 105/81/38 77/38/38
f 76/82/39 110/49/39 6/68/39
f 75/23/40 107/22/40 17/83/40
f 24/39/14 54/41/14 5/84/14
f 84/77/41 115/85/41 117/78/41
f 10/86/42 65/69/42 25/45/42
f 10/86/42 25/45/42 59/87/42
f 66/34/19 80/79/19 7/52/19
f 31/11/43 46/88/43 64/12/43
f 53/62/24 21/36/24 27/28/24
f 21/36/13 77/38/13 27/28/13
f 69/40/44 11/47/44 28/89/44
f 11/47/45 111/16/45 28/89/45
f 5/84/46 54/41/46 29/90/46
f 54/41/47 78/91/47 29/90/47
f 57/29/48 1/21/48 75/23/48
f 27/28/49 1/21/49 57/29/49
f 67/14/50 81/92/50 31/11/50
f 31/11/43 81/92/43 46/88/43
f 68/43/51 76/82/51 32/44/51
f 32/44/52 76/82/52 6/68/52
f 2/4/53 100/93/53 33/65/53
f 2/4/54 33/65/54 98/67/54
f 34/94/55 19/73/55 85/55/55
f 101/95/56 84/77/56 19/73/56
f 11/47/45 90/17/45 111/16/45
f 79/46/57 90/17/57 11/47/57
f 28/89/58 36/96/58 78/91/58
f 81/92/59 108/51/59 37/50/59
f 81/92/59 37/50/59 46/88/59
f 12/97/60 106/98/60 56/99/60
f 16/100/61 63/35/61 38/59/61
f 2/4/62 96/101/62 82/5/62
f 62/53/36 7/52/36 39/37/36
f 7/52/63 22/102/63 39/37/63
f 100/93/64 40/7/64 33/65/64
f 33/65/65 40/7/65 87/66/65
f 41/10/4 64/12/4 4/63/4
f 51/9/66 4/63/66 73/103/66
f 74/104/67 44/30/67 14/32/67
f 15/25/68 60/27/68 72/26/68
f 2/4/69 43/105/69 97/106/69
f 2/4/70 121/6/70 104/107/70
f 42/108/71 8/109/71 44/30/71
f 8/109/72 30/110/72 44/30/72
f 45/111/73 14/42/73 58/57/73
f 74/104/74 14/32/74 45/112/74
f 64/12/75 46/88/75 12/97/75
f 46/88/76 106/98/76 12/97/76
f 39/37/38 22/102/38 105/81/38
f 52/15/77 56/99/77 106/98/77
f 2/4/78 48/75/78 101/95/78
f 48/75/79 84/77/79 101/95/79
f 49/113/80 18/58/80 86/1/80
f 97/106/81 102/70/81 18/58/81
f 98/67/82 87/66/82 114/114/82
f 96/101/83 118/115/83 116/116/83
f 95/8/84 41/10/84 51/9/84
f 51/9/85 41/10/85 4/63/85
f 52/15/86 105/81/86 22/102/86
f 52/15/87 17/83/87 107/22/87
f 71/61/88 9/60/88 53/62/88
f 15/25/89 53/62/89 60/27/89
f 69/40/44 28/89/44 54/41/44
f 54/41/47 28/89/47 78/91/47
f 73/103/90 4/63/90 55/33/90
f 16/100/91 55/33/91 63/35/91
f 52/15/92 22/102/92 109/80/92
f 7/52/63 109/80/63 22/102/63
f 8/109/72 57/29/72 30/110/72
f 57/29/48 75/23/48 30/110/48
f 58/57/93 65/69/93 10/86/93
f 18/58/94 88/71/94 93/2/94
f 59/87/95 69/40/95 24/39/95
f 20/76/96 112/3/96 115/85/96
f 72/26/97 60/27/97 8/109/97
f 60/27/10 57/29/10 8/109/10
f 5/84/46 29/90/46 61/54/46
f 19/73/98 117/78/98 113/56/98
f 63/35/99 66/34/99 62/53/99
f 9/60/35 62/53/35 21/36/35
f 38/59/100 63/35/100 9/60/100
f 63/35/99 62/53/99 9/60/99
f 4/63/25 64/12/25 26/64/25
f 64/12/75 12/97/75 26/64/75
f 58/57/93 32/44/93 65/69/93
f 32/44/52 6/68/52 65/69/52
f 55/33/12 26/64/12 66/34/12
f 26/64/101 80/79/101 66/34/101
f 61/54/20 29/90/20 67/14/20
f 29/90/102 3/117/102 67/14/102
f 44/30/11 30/110/11 68/31/11
f 30/110/103 23/118/103 68/31/103
f 59/87/95 25/45/95 69/40/95
f 25/45/16 11/47/16 69/40/16
f 94/119/104 119/19/104 43/18/104
f 2/4/105 94/120/105 43/105/105
f 71/61/106 53/62/106 15/25/106
f 83/121/107 15/25/107 89/24/107
f 72/26/108 8/109/108 42/108/108
f 70/122/109 103/123/109 120/124/109
f 73/103/110 55/33/110 16/100/110
f 50/125/111 114/114/111 118/115/111
f 42/108/112 44/30/112 74/104/112
f 94/119/113 120/124/113 119/19/113
f 30/110/103 75/23/103 23/118/103
f 75/23/40 17/83/40 23/118/40
f 68/43/51 23/126/51 76/82/51
f 23/126/114 92/127/114 76/82/114
f 27/28/49 77/38/49 1/21/49
f 77/38/115 47/128/115 1/21/115
f 29/90/102 78/91/102 3/117/102
f 78/91/116 91/129/116 3/117/116
f 65/69/28 6/68/28 79/46/28
f 6/68/27 35/48/27 79/46/27
f 26/64/101 12/97/101 80/79/101
f 12/97/60 56/99/60 80/79/60
f 67/14/50 3/117/50 81/92/50
f 3/117/117 108/51/117 81/92/117
f 96/101/118 116/116/118 82/5/118
f 82/5/119 116/116/119 83/121/119
f 116/116/120 71/61/120 83/121/120
f 83/121/121 71/61/121 15/25/121
f 48/75/122 20/76/122 84/77/122
f 20/76/123 115/85/123 84/77/123
f 100/93/124 85/55/124 40/7/124
f 85/55/125 95/8/125 40/7/125
f 99/74/126 86/1/126 20/76/126
f 86/1/127 112/3/127 20/76/127
f 40/7/128 51/9/128 87/66/128
f 87/66/129 51/9/129 73/103/129
f 45/111/130 58/57/130 88/71/130
f 88/71/131 58/57/131 10/86/131
f 104/130/132 103/123/132 70/122/132
f 2/4/133 104/107/133 70/131/133
f 79/46/57 35/48/57 90/17/57
f 52/15/134 90/17/134 35/48/134
f 78/91/116 36/96/116 91/129/116
f 52/15/135 91/129/135 36/96/135
f 23/126/114 17/132/114 92/127/114
f 52/15/136 92/127/136 17/132/136
f 88/71/137 10/86/137 93/2/137
f 93/2/138 10/86/138 59/87/138
f 2/4/139 70/131/139 94/120/139
f 70/122/140 120/124/140 94/119/140
f 113/56/141 13/13/141 95/8/141
f 95/8/142 13/13/142 41/10/142
f 2/4/143 50/125/143 96/101/143
f 50/125/144 118/115/144 96/101/144
f 2/4/145 97/106/145 49/113/145
f 97/106/146 18/58/146 49/113/146
f 2/4/147 98/67/147 50/125/147
f 98/67/148 114/114/148 50/125/148
f 2/4/149 49/113/149 99/74/149
f 49/113/150 86/1/150 99/74/150
f 2/4/151 34/94/151 100/93/151
f 34/94/152 85/55/152 100/93/152
f 2/4/153 101/95/153 34/94/153
f 101/95/154 19/73/154 34/94/154
f 102/70/155 45/111/155 88/71/155
f 119/19/156 45/112/156 102/20/156
f 89/24/157 72/26/157 103/123/157
f 103/123/158 72/26/158 42/108/158
f 121/6/159 89/24/159 104/130/159
f 104/130/160 89/24/160 103/123/160
f 77/38/115 105/81/115 47/128/115
f 52/15/161 47/128/161 105/81/161
f 46/88/76 37/50/76 106/98/76
f 52/15/162 106/98/162 37/50/162
f 1/21/8 47/128/8 107/22/8
f 52/15/163 107/22/163 47/128/163
f 3/117/117 91/129/117 108/51/117
f 52/15/164 108/51/164 91/129/164
f 80/79/37 56/99/37 109/80/37
f 52/15/165 109/80/165 56/99/165
f 76/82/39 92/127/39 110/49/39
f 52/15/166 110/49/166 92/127/166
f 28/89/58 111/16/58 36/96/58
f 52/15/167 36/96/167 111/16/167
f 93/2/168 59/87/168 112/3/168
f 112/3/169 59/87/169 24/39/169
f 117/78/170 61/54/170 113/56/170
f 113/56/171 61/54/171 13/13/171
f 87/66/172 73/103/172 114/114/172
f 114/114/173 73/103/173 16/100/173
f 112/3/174 24/39/174 115/85/174
f 115/85/175 24/39/175 5/84/175
f 118/115/176 38/59/176 116/116/176
f 116/116/177 38/59/177 71/61/177
f 115/85/178 5/84/178 117/78/178
f 117/78/179 5/84/179 61/54/179
f 114/114/180 16/100/180 118/115/180
f 118/115/181 16/100/181 38/59/181
f 120/124/182 74/104/182 119/19/182
f 119/19/183 74/104/183 45/112/183
f 103/123/184 42/108/184 120/124/184
f 120/124/185 42/108/185 74/104/185
f 82/5/186 83/121/186 121/6/186
f 121/6/187 83/121/187 89/24/187
