# Blender v2.75 (sub 0) OBJ File: 'Empty.blend'
# www.blender.org
mtllib ORC_STANDING_LAMP.mtl
o ORC_STANDING_LAMP
v 0.813395 -1.415273 0.001131
v -1.011134 -1.415273 0.001131
v -0.098869 -0.208625 -0.659930
v -0.098869 -1.415273 -0.911133
v 0.210251 0.570957 0.488248
v 0.185414 -0.877634 -0.032247
v -0.290699 -0.891284 0.130683
v 0.358996 0.019325 -0.122552
v -0.418525 0.431766 0.057608
v -0.305428 0.099383 -0.295952
v -0.385001 -0.895382 -0.139427
v -0.642063 0.271598 0.145829
v -0.259564 -0.958725 0.291512
v 0.096690 -0.940048 -0.163700
v 0.129489 0.412306 -0.475161
v -0.325036 -0.793381 -0.216349
v -0.098869 -1.415273 0.913396
v -0.099508 -0.290207 0.534234
v 0.605460 -0.369106 -0.067156
v -0.699501 -0.392557 0.011905
v 0.004951 -0.880098 0.356533
v -0.340715 -0.721397 0.210693
v -0.545374 -0.985515 0.099053
v -0.127787 -0.906389 -0.410896
v -0.214833 0.446660 -0.282567
v -0.106747 -0.721397 -0.253912
v 0.546199 -1.415273 -0.643937
v -0.743938 -1.415273 -0.643937
v 0.546199 -1.415273 0.646200
v 0.072803 0.014636 0.352327
v -0.209496 0.421552 0.372824
v 0.160159 0.455400 0.342823
v 0.116734 0.463361 -0.304796
v -0.743938 -1.415273 0.646200
v 0.103062 0.292346 0.618210
v 0.162625 0.264823 -0.230414
v -0.260935 0.164927 0.338655
v 0.277461 -0.290207 0.378088
v -0.214094 -0.326277 0.718490
v 0.306867 0.461840 0.061739
v -0.436427 0.169106 0.004107
v -0.556503 0.626886 0.302040
v 0.368572 -0.291438 -0.466310
v -0.526972 -0.291438 -0.424268
v -0.391036 0.428665 0.164255
v -0.109866 0.143289 -0.467567
v -0.154336 -0.821902 -0.040158
v -0.184043 -0.902433 0.118428
v 0.084085 -0.721397 0.208813
v -0.455422 -1.020696 0.276218
v 0.186518 -0.917037 0.221207
v -0.566310 -0.350943 0.468572
v -0.049791 0.179992 -0.235300
v 0.452858 -0.351317 -0.046053
v -0.038439 0.326274 0.037496
v 0.279134 0.227259 -0.375289
v 0.277461 -0.290207 -0.375848
v -0.403822 -0.721397 -0.002493
v 0.307719 0.297323 0.558166
v -0.191053 -0.962540 0.295436
v 0.089207 -0.721397 -0.195578
v -0.579513 0.391101 0.095730
v 0.054061 0.408668 0.514646
v -0.188635 -0.771773 -0.124093
v -0.493638 -0.961394 -0.094796
v -0.476476 -0.290207 0.378089
v 0.166804 -0.721397 0.004369
v 0.304801 -0.326003 0.462796
v 0.139786 0.107755 -0.531368
v 0.030197 -0.902817 -0.335733
v -0.476476 -0.290207 -0.375848
v 0.307100 0.052683 0.115005
v -0.632622 -0.391326 0.001120
v -0.098173 -0.721397 0.273461
v -0.033370 -0.207394 -0.506156
v -0.404457 0.343834 0.348466
v 0.265237 0.246711 0.337635
v -0.293982 -0.851034 -0.310720
v -0.030262 -0.805250 -0.114166
v -0.269020 -0.900388 -0.069013
v 0.125866 0.344075 0.326956
v -0.150064 0.421484 0.292630
v 0.029569 -0.855473 -0.080892
v 0.205150 0.219775 -0.229787
v -0.259375 -0.721397 -0.154350
v 0.202710 0.430809 0.044351
v 0.118281 0.458984 0.254115
v -0.266482 0.432373 0.050931
v -0.569889 0.307131 0.347283
v -0.178098 0.438651 -0.208765
v -0.107809 -0.693514 0.003998
v 0.097150 0.434266 -0.206398
vt 0.013064 -0.989323
vt 0.226619 -0.982499
vt 0.122300 -0.013900
vt 0.018408 -0.986402
vt 0.217140 -0.977107
vt 0.123692 -0.017803
vt 0.007280 -0.990192
vt 0.213193 -0.994339
vt 0.111851 -0.007101
vt 0.006736 -0.997095
vt 0.222386 -0.992928
vt 0.123866 -0.007421
vt 0.005752 -0.994761
vt 0.248140 -0.987026
vt 0.344692 -0.925679
vt 0.412522 -0.920934
vt 0.364466 -0.027128
vt 0.348903 -0.968058
vt 0.414136 -0.983853
vt 0.430510 -0.053682
vt 0.773463 -0.994812
vt 0.837093 -0.985875
vt 0.842237 -0.018967
vt 0.629160 -0.989061
vt 0.531852 -0.013215
vt 0.541166 -0.988719
vt 0.342757 -0.886637
vt 0.406950 -0.982760
vt 0.357263 -0.038316
vt 0.753513 -0.056078
vt 0.632640 -0.006399
vt 0.629414 -0.013266
vt 0.532218 -0.021366
vt 0.539175 -0.981865
vt 0.323094 -0.046655
vt 0.319663 -0.043419
vt 0.407190 -0.979520
vt 0.422076 -0.052462
vt 0.607904 -0.987430
vt 0.340513 -0.979999
vt 0.500000 -0.751243
vt 0.819545 -0.248757
vt 0.500000 -0.248757
vt 0.940972 -0.751243
vt 0.059028 -0.751243
vt 0.276152 -0.496519
vt 0.829269 -0.744622
vt 0.760183 -0.002214
vt 0.056214 -0.744622
vt 0.479438 -0.600937
vt 0.554899 -0.059644
vt 0.180455 -0.248757
vt 0.853200 -0.313619
vt 0.500000 -0.313619
vt 0.500000 -0.686381
vt 0.146800 -0.313619
vt 0.146800 -0.686381
vt 0.000500 -0.002214
vt 0.439274 -0.058001
vt 0.986750 -0.496519
vt 0.983735 -0.089188
vt 0.853200 -0.686381
vt 0.775754 -0.058000
vt 0.662236 -0.919270
vt 0.999500 -0.999500
vt 0.829269 -0.045333
vt 0.099937 -0.328644
vt 0.337764 -0.999500
vt 0.999500 -0.080695
vt 0.239817 -0.000500
vt 0.023763 -0.554899
vt 0.221340 -0.545481
vt 0.228549 -0.916806
vt 0.295393 -0.080695
vt 0.831049 -0.536200
vt 0.693875 -0.250971
vt 0.517679 -0.526531
vt 0.245586 -0.089188
vt 0.336194 -0.179189
vt 0.771451 -0.979377
vt 0.784356 -0.784830
vt 0.499518 -0.902815
vt 0.500000 -0.999500
vt 0.000500 -0.500000
vt 0.146800 -0.853200
vt 0.214679 -0.784830
vt 0.364145 -0.999500
vt 0.042814 -0.058000
vt 0.295393 -0.999500
vt 0.775754 -0.957186
vt 0.721334 -0.832066
vt 0.951306 -0.916806
vt 0.999500 -0.486975
vt 0.214679 -0.215153
vt 0.499518 -0.097169
vt 0.500000 -0.000500
vt 0.500000 -0.500000
vt 0.500000 -0.951905
vt 0.819545 -0.819545
vt 0.784356 -0.215153
vt 0.902340 -0.499992
vt 0.999500 -0.500000
vt 0.372624 -0.886390
vt 0.853200 -0.146800
vt 0.048095 -0.500000
vt 0.180455 -0.819545
vt 0.180455 -0.180455
vt 0.951905 -0.500000
vt 0.853200 -0.853200
vt 0.146800 -0.146800
vt 0.096695 -0.499992
vt 0.672290 -0.909606
vt 0.000500 -0.650199
vt 0.276152 -0.000500
vt 0.500000 -0.048095
vt 0.966399 -0.560726
vt 0.754414 -0.016265
vt 0.819545 -0.180455
vn -0.743000 0.663600 0.087300
vn -0.327100 0.789200 0.519800
vn 0.637500 0.695000 0.332500
vn 0.259000 0.324700 0.909700
vn 0.145000 0.643500 -0.751600
vn -0.892000 0.343800 -0.293500
vn -0.400500 0.509400 0.761600
vn -0.221300 0.169800 -0.960300
vn 0.674500 0.156000 -0.721600
vn 0.824000 0.489400 0.285400
vn 0.932000 0.270300 -0.241600
vn 0.371500 0.442200 -0.816400
vn -0.676700 0.576900 -0.457400
vn -0.942700 0.085100 0.322700
vn -0.038500 0.141600 0.989200
vn -0.146600 0.329000 -0.932900
vn 0.997700 -0.066000 -0.014600
vn -0.061900 -0.050500 0.996800
vn 0.900500 0.154000 -0.406600
vn -0.038000 0.114700 0.992700
vn 0.905500 -0.173200 -0.387500
vn -0.216000 -0.195400 0.956600
vn -0.962200 -0.064200 -0.264800
vn -0.524900 -0.036900 -0.850400
vn -0.862600 0.081300 0.499400
vn 0.279100 -0.231400 0.932000
vn 0.768500 -0.069400 0.636000
vn -0.954000 0.210300 0.213500
vn -0.933200 -0.084800 0.349300
vn -0.665400 0.035700 -0.745600
vn 0.979200 0.147500 0.139300
vn 0.301400 0.191600 -0.934000
vn -0.253700 -0.047800 -0.966100
vn -0.795500 0.355800 -0.490500
vn 0.903400 0.082100 0.420900
vn -0.895100 -0.100400 0.434500
vn 0.538000 -0.274800 0.796900
vn -0.073200 0.126300 0.989300
vn 0.806100 -0.225200 -0.547300
vn 0.982800 -0.048700 -0.178200
vn -0.842500 0.059700 0.535400
vn -0.834500 0.337600 -0.435500
vn -0.570500 0.176900 0.802000
vn -0.439200 0.120900 -0.890200
vn 0.423400 -0.216200 -0.879700
vn 0.004600 -0.053000 0.998600
vn 0.272900 0.290000 -0.917300
vn -0.870200 0.237700 -0.431600
vn 0.445100 0.091900 0.890700
vn 0.512400 0.228800 -0.827700
vn 0.321900 0.275200 -0.905900
vn -0.928100 0.280200 0.245200
vn 0.904800 0.202200 -0.374800
vn -0.888400 0.274600 -0.368000
vn 0.127400 0.005000 -0.991800
vn -0.893500 0.147300 -0.424300
vn 0.904400 0.204200 0.374600
vn -0.902700 0.213000 0.373900
vn 0.847700 0.265200 0.459400
vn -0.754000 0.529900 -0.388200
vn 0.405300 0.204900 -0.890900
vn -0.920800 0.238200 -0.309000
vn 0.153100 0.511400 0.845600
vn 0.792600 0.420800 -0.441200
vn 0.739300 0.507600 0.442400
vn -0.837900 0.237500 -0.491400
vn 0.873800 0.177800 -0.452500
vn 0.588300 0.583700 0.559600
vn -0.738700 0.610000 0.286700
vn 0.375800 0.188900 -0.907300
vn -0.370900 0.246600 -0.895300
vn 0.372100 0.233700 0.898300
vn 0.716000 -0.127100 0.686500
vn -0.101100 -0.992400 -0.070700
vn -0.833000 -0.055400 0.550600
vn -0.002100 0.999100 0.042500
vn 0.093600 -0.149800 0.984300
vn -0.395600 0.900800 0.179000
vn -0.048100 -0.309800 -0.949600
vn 0.011000 0.912000 0.410000
vn -0.379700 0.123900 0.916800
vn -0.028700 0.027200 0.999200
vn -0.411700 -0.903100 0.122100
vn -0.337500 0.471300 -0.814900
vn 0.432700 0.203000 0.878400
vn 0.105000 0.961600 0.253600
vn -0.509100 0.857800 0.070300
vn 0.884300 0.060800 0.462900
vn -0.084500 0.993200 0.080000
vn -0.879100 0.114600 0.462600
vn -0.245200 -0.962400 0.116600
vn 0.863200 0.139900 -0.485100
vn -0.715900 0.511300 0.475500
vn -0.500700 0.176400 -0.847500
vn -0.165500 0.984200 0.062600
vn 0.036000 0.994200 0.101600
vn -0.290600 0.494500 -0.819200
vn -0.574100 0.227100 0.786700
vn -0.289300 0.902600 0.318700
vn 0.130500 0.985000 0.113100
vn 0.101400 0.989700 -0.100600
vn -0.183900 0.891800 -0.413300
vn 0.424000 0.890300 0.165800
vn 0.128100 0.985000 0.115600
vn 0.213000 0.972100 -0.098500
vn -0.094300 0.995100 0.027900
vn 0.797400 0.555300 -0.236100
vn -0.252600 0.465000 0.848500
vn -0.091500 0.992000 -0.087100
vn -0.063600 0.986100 0.153500
vn 0.333900 0.488600 -0.806100
vn 0.100900 0.994100 0.040800
vn -0.807800 0.490600 -0.326800
vn 0.166000 0.926400 0.337900
vn 0.482300 0.851900 0.204300
vn -0.129900 0.985400 0.110400
vn -0.194400 0.964600 0.178200
vn 0.977400 0.027800 0.209600
vn 0.356500 -0.911300 0.205900
vn 0.019700 0.972200 0.233200
vn -0.056100 0.969900 -0.237000
vn -0.026900 0.994200 0.103800
vn 0.228100 0.413900 -0.881300
vn 0.185100 0.967300 0.173300
vn -0.238400 0.455100 0.857900
vn 0.023700 0.999600 0.016700
vn -0.153600 0.981500 -0.114700
vn 0.783700 0.315200 -0.535200
vn 0.199100 -0.339100 -0.919500
vn -0.070100 0.991700 -0.107500
vn 0.518400 0.316000 0.794600
vn -0.304200 0.942100 0.141100
vn -0.265600 0.957000 -0.116700
vn -0.376400 0.886100 -0.270500
vn 0.195600 0.979300 -0.052800
vn 0.409000 0.899000 -0.156500
vn -0.002000 0.998900 0.046000
vn -0.041300 0.990900 0.128100
vn 0.100000 0.993300 0.058000
vn 0.031900 0.993700 -0.107300
vn 0.101000 0.994100 -0.039200
vn -0.369100 0.908700 0.195200
vn 0.012800 0.958200 0.285900
usemtl ORC_STANDING_LAMP_V2
s off
f 46/1/1 53/2/1 15/3/1
f 53/4/2 36/5/2 15/6/2
f 36/7/3 56/8/3 15/9/3
f 35/10/4 59/11/4 5/12/4
f 45/7/5 62/8/5 42/9/5
f 62/13/6 12/14/6 42/12/6
f 63/13/7 35/14/7 5/12/7
f 69/10/8 46/11/8 15/12/8
f 56/13/9 69/14/9 15/12/9
f 76/4/10 45/5/10 42/6/10
f 59/1/11 77/2/11 5/3/11
f 77/4/12 81/5/12 5/3/12
f 81/7/13 63/8/13 5/9/13
f 12/10/14 89/11/14 42/12/14
f 89/1/15 76/2/15 42/3/15
usemtl ORC_STANDING_LAMP_V3
f 83/15/16 47/16/16 81/17/16
f 51/18/17 6/19/17 77/20/17
f 50/18/18 13/19/18 76/20/18
f 48/15/19 80/16/19 45/17/19
f 64/15/20 79/16/20 36/17/20
f 14/21/21 70/22/21 69/23/21
f 21/24/22 35/25/22 60/26/22
f 23/24/23 12/25/23 65/26/23
f 24/27/24 78/28/24 46/29/24
f 35/23/25 63/30/25 7/21/25
f 35/25/26 21/24/26 59/31/26
f 56/32/27 36/33/27 79/34/27
f 53/20/28 46/35/28 78/18/28
f 12/25/29 23/24/29 89/31/29
f 12/23/30 62/30/30 11/21/30
f 76/36/31 48/37/31 45/38/31
f 62/32/32 45/33/32 80/34/32
f 69/25/33 24/24/33 46/31/33
f 47/34/34 7/39/34 63/32/34
f 48/37/35 76/36/35 13/40/35
f 23/27/36 50/28/36 89/29/36
f 21/27/37 51/28/37 59/29/37
f 53/36/38 64/37/38 36/38/38
f 69/23/39 56/30/39 14/21/39
f 77/20/40 59/35/40 51/18/40
f 7/21/41 60/22/41 35/23/41
f 63/32/42 81/33/42 47/34/42
f 64/37/43 53/36/43 16/40/43
f 11/21/44 65/22/44 12/23/44
f 24/24/45 69/25/45 70/26/45
f 76/20/46 89/35/46 50/18/46
f 77/36/47 83/37/47 81/38/47
f 78/18/48 16/19/48 53/20/48
f 79/34/49 14/39/49 56/32/49
f 80/34/50 11/39/50 62/32/50
f 83/37/51 77/36/51 6/40/51
usemtl ORC_STANDING_LAMP_V1
f 2/41/52 52/42/52 20/43/52
f 1/41/53 27/44/53 43/42/53
f 28/45/54 2/41/54 20/43/54
f 84/46/55 10/47/55 25/48/55
f 10/49/56 41/50/56 9/51/56
f 29/45/57 1/41/57 19/43/57
f 2/41/58 34/44/58 52/42/58
f 29/45/59 19/43/59 68/52/59
f 38/53/60 54/54/60 67/55/60
f 27/45/61 3/43/61 43/52/61
f 28/45/62 20/43/62 44/52/62
f 75/54/63 71/56/63 85/57/63
f 73/54/64 66/56/64 22/57/64
f 71/53/65 73/54/65 58/55/65
f 10/49/66 9/51/66 25/58/66
f 40/59/67 84/60/67 33/61/67
f 58/55/68 85/62/68 71/53/68
f 61/57/69 67/55/69 54/54/69
f 27/45/70 4/41/70 3/43/70
f 4/41/71 28/44/71 44/42/71
f 17/41/72 29/44/72 68/42/72
f 32/63/73 30/64/73 72/65/73
f 10/66/74 8/67/74 30/68/74
f 9/51/75 41/50/75 31/69/75
f 25/70/76 9/71/76 88/72/76
f 37/73/77 32/63/77 31/74/77
f 86/75/78 92/76/78 55/77/78
f 84/46/79 25/48/79 33/78/79
f 92/76/80 90/79/80 55/77/80
f 34/45/81 17/41/81 39/43/81
f 37/73/82 30/64/82 32/63/82
f 30/68/83 37/80/83 10/66/83
f 18/54/84 38/56/84 49/57/84
f 17/41/85 68/42/85 39/43/85
f 38/81/86 18/82/86 39/83/86
f 20/84/87 52/85/87 66/86/87
f 72/87/88 40/59/88 32/88/88
f 31/89/89 32/90/89 87/91/89
f 41/50/90 37/92/90 31/69/90
f 41/93/91 10/66/91 37/80/91
f 1/41/92 43/42/92 19/43/92
f 54/54/93 57/56/93 61/57/93
f 4/41/94 44/42/94 3/43/94
f 71/94/95 75/95/95 3/96/95
f 91/97/96 74/98/96 49/99/96
f 49/57/97 74/55/97 18/54/97
f 34/45/98 39/43/98 52/52/98
f 39/83/99 66/86/99 52/85/99
f 57/100/100 54/101/100 19/102/100
f 38/81/101 19/102/101 54/101/101
f 82/103/102 87/91/102 55/77/102
f 90/79/103 88/72/103 55/77/103
f 19/102/104 43/104/104 57/100/104
f 43/104/105 3/96/105 75/95/105
f 91/97/106 58/105/106 22/106/106
f 22/57/107 58/55/107 73/54/107
f 26/55/108 61/62/108 57/53/108
f 91/97/109 85/107/109 58/105/109
f 66/86/110 39/83/110 18/82/110
f 66/53/111 18/54/111 74/55/111
f 91/97/112 49/99/112 67/108/112
f 67/55/113 49/62/113 38/53/113
f 39/83/114 68/109/114 38/81/114
f 19/102/115 38/81/115 68/109/115
f 3/96/116 44/110/116 71/94/116
f 73/111/117 71/94/117 44/110/117
f 40/59/118 72/87/118 8/112/118
f 8/67/119 72/113/119 30/68/119
f 44/110/120 20/84/120 73/111/120
f 66/86/121 73/111/121 20/84/121
f 91/97/122 22/106/122 74/98/122
f 74/55/123 22/62/123 66/53/123
f 75/95/124 57/100/124 43/104/124
f 57/53/125 75/54/125 26/55/125
f 82/103/126 9/71/126 31/89/126
f 87/91/127 82/103/127 31/89/127
f 84/60/128 40/59/128 8/112/128
f 84/114/129 8/67/129 10/66/129
f 91/97/130 26/115/130 85/107/130
f 85/57/131 26/55/131 75/54/131
f 92/76/132 86/75/132 40/116/132
f 86/75/133 32/90/133 40/116/133
f 87/91/134 86/75/134 55/77/134
f 87/91/135 32/90/135 86/75/135
f 88/72/136 82/103/136 55/77/136
f 88/72/137 9/71/137 82/103/137
f 33/117/138 25/70/138 90/79/138
f 88/72/139 90/79/139 25/70/139
f 91/97/140 61/118/140 26/115/140
f 91/97/141 67/108/141 61/118/141
f 40/116/142 33/117/142 92/76/142
f 90/79/143 92/76/143 33/117/143
