# Blender v2.75 (sub 0) OBJ File: 'Empty.blend'
# www.blender.org
mtllib ORC_PLANKS_2X3M.mtl
o ORC_PLANKS_2X3M
v -0.769320 1.880661 0.849048
v 1.432305 1.918870 -1.162686
v 1.401280 1.911875 0.904590
v -0.744394 2.035361 -1.133728
v -0.743600 1.887011 -1.141888
v 1.431048 2.036062 -1.147119
v 0.225378 1.832706 0.782602
v -0.763895 1.985187 0.843798
v 1.392699 2.010995 0.887746
v 0.360721 1.976680 0.780910
vt 0.063711 -0.994287
vt 0.912948 -1.004925
vt 0.875500 -0.462141
vt 0.126651 -0.524424
vt 0.093876 -1.000771
vt 0.929883 -0.993896
vt 0.900992 0.007383
vt 0.913481 -0.005044
vt 0.095649 0.007115
vt -0.090400 -0.558025
vt 0.838308 -0.477790
vt -0.086584 -0.436785
vt 0.520985 0.007115
vt 0.455269 0.007383
vt 0.454959 -0.993896
vt 0.929883 -0.454959
vt 0.093876 -0.466063
vt 0.936289 -0.506872
vt 0.506872 -0.994287
vt 0.454959 -0.462141
vt 0.490029 -1.004925
vt 0.518736 -0.524424
vt 0.840763 -0.563215
vt 0.476202 -0.005044
vt 0.087052 -0.509971
vt 0.533937 -1.000771
vt 0.522505 -0.007478
vt 0.088734 -0.007478
vn 0.067400 -0.997700 -0.002400
vn -0.034400 0.999300 0.011700
vn -0.000100 0.999500 0.030700
vn 0.014600 -0.999900 -0.003000
vn -0.999900 -0.004800 -0.010000
vn -0.006200 0.054900 -0.998500
vn 0.999800 0.008200 0.018900
vn -0.011400 0.131500 -0.991200
vn -0.110200 0.115200 0.987200
vn -0.053100 -0.995600 -0.077100
vn -0.998600 0.051200 -0.012700
vn 0.064200 -0.048700 0.996700
vn 0.995900 0.088800 0.015200
vn -0.106900 0.157600 0.981700
vn 0.056100 0.047200 0.997300
vn 0.009000 0.999600 0.025500
usemtl ORC_PLANKS_2X3M_1
s off
f 2/1/1 3/2/1 7/3/1
f 10/4/2 9/5/2 6/6/2
f 6/6/3 4/7/3 10/4/3
f 1/8/4 5/9/4 2/1/4
f 5/10/5 8/11/5 4/12/5
f 5/13/6 4/14/6 6/15/6
f 6/16/7 9/17/7 2/18/7
f 6/15/8 2/19/8 5/13/8
f 7/20/9 3/21/9 10/22/9
f 2/1/10 7/3/10 1/8/10
f 8/11/11 5/10/11 1/23/11
f 1/24/12 7/20/12 10/22/12
f 3/25/13 2/18/13 9/17/13
f 9/26/14 10/22/14 3/21/14
f 10/22/15 8/27/15 1/24/15
f 8/28/16 10/4/16 4/7/16
