# Blender v2.75 (sub 0) OBJ File: 'Empty.blend'
# www.blender.org
mtllib ORC_WALL_FIRE_02.mtl
o ORC_WALL_FIRE_02
v 0.340053 -0.514387 -0.655626
v -0.418525 0.453438 0.562615
v -0.469068 0.471319 -0.678647
v 0.346862 0.435519 -0.656451
v 0.211654 0.517216 0.269128
v 0.405610 0.454236 0.566746
v -0.375652 -0.513671 -0.663819
v -0.209496 0.421552 0.877830
v -0.260935 0.015831 0.843661
v 0.072803 0.014636 0.857334
v -0.038439 0.326274 0.542502
v 0.160159 0.432564 0.847830
v 0.269370 -0.364112 0.031504
v 0.363406 0.019325 0.528375
v -0.410823 0.593939 0.031504
v -0.268127 -0.420635 0.031504
v -0.436427 0.169106 0.509114
v 0.338739 0.560015 0.031504
v 0.436199 -0.206774 -0.651402
v -0.240168 0.543416 0.271704
v -0.431110 -0.276600 -0.639211
v 0.301453 0.482138 0.549358
v 0.118281 0.437592 0.759122
v -0.321200 0.454045 0.547803
v -0.150064 0.421484 0.797637
v -0.399014 -0.092639 0.031504
vt 0.452080 -0.050183
vt 0.104583 -0.000500
vt 0.141569 -0.734343
vt 0.881789 -0.656480
vt 0.886524 -0.040421
vt 0.547920 -0.076272
vt 0.915510 -0.113476
vt 0.000500 -0.104583
vt 0.733982 -0.452080
vt 0.250024 -0.773466
vt 0.438445 -0.986243
vt 0.310995 -0.452080
vt 0.247983 -0.452080
vt 0.709807 -0.787038
vt 0.618195 -0.980096
vt 0.777340 -0.798285
vt 0.358632 -0.607446
vt 0.651583 -0.605780
vt 0.659496 -0.452080
vt 0.489428 -0.782604
vt 0.977399 -0.448602
vt 0.761007 -0.330728
vt 0.452080 -0.784261
vt 0.999500 -0.136588
vt 0.019904 -0.128119
vt 0.013757 -0.449522
vt 0.226534 -0.445915
vt 0.345167 -0.448602
vt 0.561555 -0.449522
vt 0.618195 -0.128119
vt 0.654833 -0.977399
vt 0.306093 -0.786032
vt 0.417053 -0.947630
vt 0.591042 -0.922717
vt 0.378519 -0.136588
vt 0.547920 -0.740793
vt 0.831391 -0.000500
vt 0.158522 -0.008184
vt 0.201715 -0.111453
vt 0.452080 -0.532020
vt 0.795613 -0.112066
vt 0.991816 -0.999500
vt 0.963814 -0.141569
vt 0.378519 -0.999500
vt 0.242989 -0.795613
vn -0.994900 -0.045800 0.089500
vn 0.990400 0.137700 -0.013200
vn 0.048000 0.983000 -0.177300
vn 0.526400 -0.718400 0.454800
vn 0.044500 0.983800 -0.173500
vn 0.210000 0.943600 0.256100
vn 0.057800 0.976700 0.206800
vn 0.094200 -0.896200 0.433500
vn 0.049600 0.796900 0.602000
vn -0.860400 -0.445700 0.247100
vn -0.870000 0.069200 0.488100
vn 0.743000 -0.140400 0.654400
vn -0.040800 0.031200 0.998700
vn -0.022500 -0.880500 0.473400
vn 0.404000 0.900800 -0.159400
vn -0.408300 0.897700 -0.165900
vn 0.083300 -0.094100 0.992100
vn -0.110800 0.914300 -0.389700
vn 0.972600 -0.073000 0.220800
vn -0.003400 -0.977000 0.213300
vn 0.751800 -0.130000 0.646500
vn 0.988800 -0.074200 -0.129900
vn 0.044500 0.983500 0.175200
vn -0.998500 -0.017200 0.052500
vn 0.103900 -0.987800 0.116100
vn -0.919000 -0.366700 0.144600
vn -0.834700 -0.050600 0.548400
vn -0.998000 0.062500 0.002000
vn 0.026100 0.981300 0.190700
vn 0.986700 -0.083400 -0.139800
vn 0.941300 -0.296400 0.161700
vn 0.386100 0.838400 0.384700
vn -0.107800 0.954700 0.277400
vn -0.953500 -0.241700 0.179800
vn 0.252300 0.966800 0.040200
vn -0.408500 0.880300 0.241100
vn -0.024200 0.997400 0.068000
vn -0.114300 0.987400 0.109900
vn 0.012200 0.992600 0.121000
vn 0.032900 0.966100 0.256100
vn 0.072300 0.996000 0.052800
vn -0.067100 0.996500 -0.050500
vn -0.997500 -0.017200 -0.068700
vn -0.921000 -0.367500 0.129300
usemtl ORC_WALL_FIRE_01_V2
s off
f 15/1/1 3/2/1 21/3/1
f 19/4/2 4/5/2 18/6/2
f 4/7/3 3/8/3 18/9/3
f 14/10/4 10/11/4 13/12/4
f 18/9/5 3/8/5 15/13/5
f 22/14/6 12/15/6 6/16/6
f 20/17/7 5/18/7 18/9/7
f 16/19/8 13/12/8 10/11/8
f 5/18/9 20/17/9 11/20/9
f 9/21/10 17/22/10 16/23/10
f 17/22/11 9/21/11 8/24/11
f 12/25/12 10/26/12 14/27/12
f 9/28/13 10/29/13 12/30/13
f 10/11/14 9/31/14 16/19/14
f 24/32/15 25/33/15 11/20/15
f 23/34/16 22/14/16 11/20/16
f 9/28/17 12/30/17 8/35/17
f 25/33/18 23/34/18 11/20/18
f 19/4/19 18/6/19 13/36/19
f 7/37/20 1/38/20 13/12/20
f 14/27/21 6/39/21 12/25/21
f 13/36/22 18/6/22 14/27/22
f 18/9/23 15/13/23 20/17/23
f 26/40/24 15/1/24 21/3/24
f 13/12/25 16/19/25 7/37/25
f 21/3/26 16/23/26 26/40/26
f 2/41/27 17/22/27 8/24/27
f 15/1/28 17/22/28 2/41/28
f 6/16/29 18/9/29 5/18/29
f 18/6/30 6/39/30 14/27/30
f 13/36/31 1/42/31 19/4/31
f 20/17/32 24/32/32 11/20/32
f 24/32/33 20/17/33 15/13/33
f 16/19/34 21/43/34 7/37/34
f 5/18/35 22/14/35 6/16/35
f 22/14/36 5/18/36 11/20/36
f 8/44/37 12/15/37 23/34/37
f 23/34/38 12/15/38 22/14/38
f 24/32/39 2/45/39 25/33/39
f 15/13/40 2/45/40 24/32/40
f 25/33/41 2/45/41 8/44/41
f 23/34/42 25/33/42 8/44/42
f 17/22/43 15/1/43 26/40/43
f 26/40/44 16/23/44 17/22/44
