# Blender v2.75 (sub 0) OBJ File: 'Empty.blend'
# www.blender.org
mtllib ORC_SKULLSONFLOOR.mtl
o ORC_SKULLSONFLOOR
v -0.079564 0.092894 -0.238332
v 0.021409 -0.072300 -0.242002
v -0.178425 0.003558 -0.098698
v -0.365149 0.021842 0.106559
v -0.200154 -0.029699 0.272025
v -0.244560 -0.016885 0.055111
v 0.009397 0.057346 0.022851
v -0.079321 0.034955 0.181047
v -0.154443 0.041526 -0.053591
v -0.045154 0.158123 0.078041
v -0.138267 -0.074929 -0.292434
v -0.306196 -0.049517 0.157445
v -0.071508 -0.077345 -0.374252
v -0.181205 -0.094842 0.405393
v -0.155760 -0.158123 -0.405393
v 0.426892 -0.110331 -0.093158
v -0.181205 0.046705 0.171534
v 0.180240 0.046705 -0.093158
v -0.426892 -0.138330 0.171534
v 0.152523 -0.067909 -0.224495
v 0.075783 0.029648 -0.026539
v 0.274937 -0.059360 -0.157872
v 0.217485 0.032291 -0.186306
v -0.095331 0.049083 0.182744
v 0.211046 -0.045321 0.028593
v 0.176445 0.048981 0.001537
v 0.041659 0.034988 0.190044
v 0.153627 0.049146 0.017080
v 0.221555 -0.031029 0.226098
v 0.069067 0.096332 0.212383
v -0.261759 0.044920 0.050494
v -0.161107 0.102204 0.170662
v -0.278804 0.033328 0.233423
v 0.028775 -0.029581 -0.203057
v 0.154796 -0.094842 0.405393
v 0.314700 -0.033897 0.083498
v 0.162789 0.103410 0.090531
v -0.129954 0.040456 -0.294321
v 0.010516 0.006709 -0.273500
v -0.133521 0.040609 -0.097815
v 0.096831 0.049146 -0.099128
v -0.051055 0.069853 0.011499
v -0.113875 0.096332 -0.069182
v 0.001991 0.045860 0.124157
v 0.022834 0.104361 0.094396
v -0.155760 0.046705 -0.093158
v -0.214756 0.010158 0.028098
v -0.090317 0.134387 0.139273
v 0.180240 -0.158123 -0.405393
v 0.154796 0.046705 0.171534
v 0.076133 0.003975 -0.151389
v 0.124361 -0.033897 0.072913
v 0.038991 0.103410 -0.052937
v 0.110868 0.059091 -0.013213
v 0.234216 0.059091 0.050002
v -0.156980 0.064828 -0.208391
v -0.054038 0.130057 -0.004486
v -0.200659 0.081354 0.236642
v 0.141985 0.017993 -0.207463
v -0.229267 0.095728 0.111127
v -0.270259 0.052773 0.137335
v 0.170682 0.069853 0.200976
v -0.083909 -0.027810 -0.061582
v -0.008730 0.069158 -0.210556
v 0.105271 -0.035247 0.204353
v 0.034387 0.040609 0.214173
v 0.247494 0.036887 -0.103594
v -0.161610 0.122982 0.093648
v -0.332470 0.039142 0.052303
v -0.189973 0.024082 0.085937
v 0.138516 0.111311 0.142916
v 0.091572 0.023855 0.105904
v 0.144288 0.066385 0.123259
v -0.018358 0.111311 -0.046262
v -0.011328 0.023855 -0.105628
v 0.001418 0.066385 -0.051612
v -0.100615 -0.002329 -0.284679
v -0.123902 -0.006715 -0.327998
v -0.060156 0.010264 -0.288759
v -0.013116 -0.096724 -0.351322
v -0.028132 -0.111480 -0.249185
v -0.271847 0.020717 0.182661
v -0.011624 -0.075625 -0.336512
v -0.401448 -0.138330 -0.093158
v 0.401447 -0.110331 0.171534
v -0.034349 0.057753 -0.129884
v -0.117769 -0.092668 0.246551
v -0.143217 0.023731 0.262249
v -0.119914 0.086151 -0.163485
v 0.107492 0.056109 -0.139397
v 0.198621 0.073611 -0.113980
v 0.036679 0.001592 0.116209
v -0.208163 -0.077532 -0.156682
v -0.156712 0.076659 0.134578
v -0.107007 0.151380 0.019694
v 0.003919 0.011430 -0.145208
v -0.110108 0.048870 0.122522
v -0.319628 0.017928 0.194795
v -0.034500 0.071938 0.174155
v -0.048458 0.035065 0.142191
v -0.001469 0.075493 0.109840
v -0.238304 0.004706 0.059777
v -0.291320 0.058792 0.094375
v 0.059666 0.000120 0.091557
v -0.015765 0.000120 -0.140328
v 0.141406 0.010811 -0.037328
v 0.229610 0.010811 0.011363
v -0.245552 0.065709 0.136043
v -0.313312 0.048879 0.066617
v -0.090738 -0.012303 -0.067309
v -0.278982 0.069311 0.197904
v -0.081364 0.039132 -0.308236
v 0.115005 0.087369 0.086560
v 0.017410 0.087369 -0.095755
v 0.250856 -0.076877 -0.196963
v -0.261790 0.057113 0.163003
v 0.094168 0.042661 0.126375
v 0.108804 0.051543 0.105014
v -0.027426 0.042661 -0.092718
v -0.001565 0.051543 -0.091400
v -0.346263 0.031434 0.121325
v -0.334885 0.006206 0.171902
v -0.070501 -0.056084 -0.359633
v -0.119604 -0.034312 -0.338683
v -0.089338 0.091174 -0.075351
v -0.047415 0.108518 -0.039773
v 0.076627 0.091174 0.188238
v 0.128867 0.108518 0.171082
v -0.047222 -0.012812 -0.295806
v -0.019984 0.065864 0.134917
v -0.031141 0.000635 -0.277365
v -0.167972 -0.108401 -0.246164
v -0.045894 0.039447 0.068002
v -0.224910 0.045568 0.104730
v -0.065214 -0.028775 -0.337022
v 0.085266 0.079399 0.155501
v -0.056911 0.079399 -0.085091
v -0.317344 0.045015 0.137581
v -0.016744 -0.030164 -0.251744
v 0.105888 -0.066355 -0.205023
v 0.052932 0.043568 0.058422
v 0.005062 0.062900 0.069703
v -0.018713 -0.044207 -0.318761
v -0.072556 0.035024 -0.107893
v 0.155743 -0.066298 0.229496
v 0.057648 0.035024 0.156926
v -0.176890 -0.057109 0.049377
v -0.240211 -0.040982 0.239895
v 0.305802 -0.068885 0.180881
v 0.011060 -0.077676 -0.287373
v -0.109148 0.034988 -0.104223
v 0.111534 -0.018492 0.019477
v 0.072794 -0.018492 -0.133765
v -0.039796 0.010289 0.184013
v 0.051263 -0.016174 0.175088
v 0.094475 -0.013652 0.125831
v -0.014707 -0.043172 -0.005328
v 0.022297 -0.009700 0.035342
v 0.062141 0.030917 0.065338
v -0.026801 -0.013652 -0.092741
v -0.014415 -0.048064 -0.130774
v -0.067249 -0.027359 -0.117519
v -0.088111 -0.035247 -0.042508
v 0.016785 0.021022 0.157635
vt 0.821995 -0.303049
vt 0.878623 -0.332946
vt 0.913780 -0.288118
vt 0.853245 -0.300004
vt 0.829499 -0.284444
vt 0.915358 -0.278631
vt -0.104077 -0.283349
vt -0.050120 -0.362382
vt -0.072737 -0.346238
vt 0.916507 -0.278478
vt 0.836966 -0.278921
vt 0.915158 -0.316670
vt 0.831239 -0.281633
vt 0.887147 -0.345653
vt 0.890577 -0.301135
vt -0.208883 -0.352576
vt -0.174982 -0.278718
vt -0.165087 -0.338419
vt 0.795008 -0.350051
vt 0.904991 -0.324871
vt 0.797524 -0.296128
vt 0.790051 -0.403203
vt 0.845502 -0.426953
vt 0.876993 -0.387147
vt 0.825546 -0.278325
vt 0.904777 -0.357759
vt 0.924824 -0.277024
vt 0.832603 -0.438055
vt 0.832694 -0.401527
vt 0.795311 -0.421425
vt 0.191728 -0.512715
vt 0.485045 -0.512716
vt 0.485045 -0.225690
vt 0.462833 -0.756036
vt 0.169516 -0.756036
vt 0.169516 -0.971014
vt 0.191728 -0.225690
vt -0.022749 -0.512715
vt 0.700363 -0.512716
vt 0.462833 -0.971014
vt 0.678151 -0.756036
vt -0.044961 -0.756036
vt 0.896746 -0.318143
vt 0.968669 -0.366943
vt 0.968701 -0.303164
vt 0.849201 -0.279000
vt 0.913892 -0.351045
vt 0.848760 -0.350862
vt 0.847364 -0.277081
vt 0.913272 -0.319579
vt 0.872170 -0.280749
vt 0.822593 -0.284911
vt 0.826914 -0.320914
vt 0.963081 -0.401043
vt 0.906320 -0.425114
vt 0.835161 -0.334489
vt 0.911805 -0.292281
vt 0.842345 -0.292783
vt 0.925822 -0.440308
vt 0.958729 -0.423176
vt 0.926042 -0.401594
vt 0.918079 -0.388127
vt 0.876978 -0.387249
vt 0.846159 -0.317238
vt 0.779933 -0.307635
vt 0.781330 -0.369102
vt 0.908165 -0.279165
vt 0.828660 -0.318419
vt 0.829731 -0.386710
vt 0.797006 -0.341089
vt 0.858123 -0.271637
vt 0.964946 -0.329309
vt 0.957864 -0.289422
vt 0.885481 -0.284730
vt -0.108940 -0.366196
vt 0.852141 -0.358449
vt 0.962909 -0.402054
vt 0.876917 -0.377875
vt -0.137962 -0.364404
vt 0.904902 -0.275449
vt 0.846623 -0.276236
vt 0.847413 -0.425947
vt 0.783991 -0.425273
vt 0.844990 -0.454016
vt 0.783005 -0.425353
vt 0.842876 -0.446957
vt 0.798638 -0.460553
vt 0.844905 -0.473955
vt 0.910997 -0.453906
vt 0.790967 -0.403125
vt 0.880443 -0.377240
vt 0.948150 -0.346641
vt 0.875187 -0.378302
vt 0.858509 -0.289018
vt 0.909845 -0.316341
vt 0.913930 -0.290528
vt 0.791020 -0.403164
vt 0.847583 -0.426426
vt 0.890057 -0.362873
vt 0.866462 -0.359761
vt 0.909246 -0.471131
vt 0.908403 -0.446151
vt 0.960344 -0.459747
vt 0.899661 -0.284528
vt 0.790317 -0.298623
vt 0.807846 -0.338876
vt 0.969336 -0.425665
vt 0.962850 -0.402048
vt 0.904197 -0.333989
vn -0.776700 -0.154800 -0.610600
vn 0.606200 0.251200 0.754600
vn 0.531000 0.525100 -0.665100
vn -0.491500 -0.494800 0.716700
vn -0.614500 -0.355800 0.704100
vn 0.604800 0.608600 -0.513600
vn 0.573800 0.202300 -0.793600
vn 0.697000 0.709400 -0.104700
vn -0.451900 -0.734400 -0.506400
vn -0.520300 -0.526500 -0.672300
vn -0.247900 -0.953000 -0.174100
vn 0.000000 0.836100 -0.548500
vn 0.000000 0.855500 0.517800
vn -0.532900 0.707500 -0.464100
vn 0.469900 0.738100 -0.484200
vn 0.478300 0.751300 0.454700
vn -0.541600 0.719200 0.435300
vn -0.657500 0.260900 -0.706900
vn 0.280300 0.177800 -0.943300
vn 0.944200 0.090600 0.316700
vn -0.230900 0.959800 0.159900
vn -0.229200 0.960000 0.160700
vn -0.293900 0.162400 0.941900
vn 0.773600 0.420000 0.474500
vn 0.892900 0.397800 -0.210600
vn -0.463200 0.478900 -0.745700
vn -0.062800 0.211200 0.975400
vn -0.305700 -0.155200 -0.939400
vn 0.099200 0.810800 0.576900
vn 0.095000 0.715500 -0.692100
vn 0.835500 0.110100 0.538300
vn -0.219700 0.295300 0.929800
vn -0.722600 -0.322000 0.611600
vn 0.650700 0.447300 -0.613700
vn 0.662500 0.683700 0.306200
vn -0.690200 0.403400 -0.600800
vn 0.705800 0.400400 -0.584400
vn 0.455300 0.697700 -0.553000
vn -0.081000 0.650000 0.755600
vn 0.934600 0.350300 -0.061800
vn 0.170100 -0.857400 -0.485800
vn -0.634300 0.638200 0.436300
vn -0.793700 -0.032300 0.607400
vn 0.393800 0.478900 -0.784600
vn 0.416400 0.697700 0.582900
vn 0.789700 -0.490800 0.368100
vn 0.800800 -0.558400 0.216500
vn 0.000000 1.000000 0.000000
vn -0.600600 0.797500 -0.057700
vn -0.756100 0.556400 -0.344600
vn 0.415700 0.701700 0.578600
vn 0.536300 0.842400 0.051600
vn -0.840000 0.530900 -0.111500
vn -0.231600 0.847700 0.477300
vn 0.151600 0.403400 -0.902400
vn 0.867100 0.400400 0.296400
vn 0.588400 0.786600 -0.187200
vn 0.234300 0.831500 0.503700
vn 0.147900 0.786600 -0.599500
vn 0.627700 0.699800 0.341000
vn -0.439800 0.818100 -0.370400
vn -0.915900 0.203700 -0.345800
vn 0.773200 0.570400 -0.277200
vn -0.263800 0.949500 0.169900
vn 0.480400 0.711500 0.512800
vn -0.229400 0.959100 0.165600
vn 0.225300 0.216000 -0.950000
vn -0.725000 -0.162300 -0.669400
vn -0.875100 0.078400 -0.477500
vn -0.026500 0.947900 -0.317500
vn 0.771100 0.530900 0.351600
vn 0.040600 0.638200 0.768800
vn 0.103200 -0.032300 0.994100
vn 0.451300 0.701700 -0.551300
vn 0.232300 0.949500 0.210800
vn -0.733300 -0.677000 -0.063300
vn -0.799100 0.485900 -0.354000
vn 0.842600 0.426000 -0.329400
vn -0.023600 0.865400 -0.500600
vn -0.263100 0.949000 0.173800
vn -0.348900 0.329900 0.877200
vn -0.436100 0.899600 0.024200
vn 0.078800 0.725900 -0.683300
vn 0.759200 0.595900 0.261900
vn -0.537100 0.693200 0.480600
vn -0.639500 0.376500 -0.670300
vn -0.900800 0.071600 -0.428200
vn -0.229000 0.365400 -0.902200
vn 0.176600 0.813500 0.554200
vn -0.690400 0.693200 -0.206800
vn -0.088000 0.479700 -0.873000
vn -0.105600 0.071600 -0.991800
vn 0.649600 0.365400 -0.666700
vn 0.254700 0.859100 -0.443900
vn 0.151200 -0.490800 -0.858000
vn -0.930400 0.126300 -0.344100
vn 0.776900 0.428800 -0.461000
vn -0.024600 -0.235800 -0.971500
vn 0.153100 0.971600 -0.180700
vn 0.441100 0.755100 -0.485000
vn 0.476800 -0.841100 -0.255200
vn -0.120700 0.959400 -0.254900
vn -0.969100 0.172900 -0.175800
vn 0.454700 0.489900 -0.743800
vn 0.779300 0.536800 0.323400
vn 0.236000 0.949000 0.209100
vn 0.239500 -0.078200 0.967700
vn -0.119900 0.300900 0.946100
vn 0.481100 0.708800 0.515800
vn -0.379700 0.917000 -0.122100
vn -0.689600 0.681300 0.245700
vn -0.618100 0.509500 -0.598600
vn -0.027200 0.866200 -0.498900
vn 0.614600 0.743200 -0.264300
vn 0.540000 0.796000 0.273400
vn 0.535000 0.614600 0.579700
vn -0.940300 0.340300 0.006300
vn -0.514000 0.536800 0.669000
vn -0.907700 0.219900 0.357500
vn 0.216200 0.917000 -0.335100
vn -0.127900 0.588000 -0.798700
vn 0.922000 0.360900 0.140300
vn 0.637800 0.753600 -0.159200
vn -0.145500 0.896400 0.418600
vn -0.891400 -0.452400 -0.025100
vn -0.161900 0.367000 0.916000
vn 0.629000 -0.698700 0.340800
vn 0.678600 -0.500400 0.537600
vn 0.980200 0.166300 0.107300
vn 0.355200 -0.109200 0.928400
vn 0.454900 0.060200 -0.888500
vn 0.630600 0.748800 -0.204200
vn -0.157800 0.964300 0.212500
vn -0.616000 0.428600 0.661000
vn -0.885400 0.428600 -0.179900
vn 0.781500 0.592300 -0.196200
vn 0.241000 0.592300 -0.768800
vn -0.304800 0.748200 -0.589300
vn -0.897700 0.373900 0.233000
vn 0.342600 0.497600 -0.796900
vn -0.457700 0.889100 0.007800
vn 0.118900 0.375000 -0.919300
vn -0.418200 0.637100 0.647500
vn -0.888600 -0.324500 -0.324300
vn -0.150500 0.785500 -0.600300
vn -0.224900 -0.653100 -0.723100
vn -0.221000 0.797400 -0.561500
vn -0.230600 0.476800 0.848200
vn 0.363300 0.797400 -0.481800
vn -0.843700 0.476800 0.246600
vn 0.752400 0.287800 -0.592500
vn -0.867300 0.142400 -0.477000
vn -0.463700 0.886000 0.003200
vn -0.421900 0.902500 0.086300
vn -0.660700 0.430900 0.614600
vn -0.801400 0.487600 -0.346300
vn -0.294000 0.902500 -0.314600
vn -0.869300 0.431000 -0.242200
vn -0.123400 0.487600 -0.864300
vn -0.627000 0.036800 0.778100
vn -0.599800 -0.475700 0.643300
vn -0.789700 0.566100 0.236500
vn -0.693100 0.430400 -0.578200
vn -0.927500 0.000400 -0.373900
vn -0.008100 0.360000 -0.932900
vn -0.115700 0.485900 -0.866300
vn 0.235700 0.962800 0.132500
vn 0.058400 0.795100 0.603700
vn -0.193100 0.843400 -0.501500
vn 0.236100 0.962800 -0.131800
vn 0.545300 0.795100 0.265600
vn -0.528400 0.843400 -0.097400
vn -0.161100 0.204600 -0.965500
vn 0.714000 -0.219400 -0.664900
vn 0.793300 -0.446100 0.414400
vn 0.664800 0.386500 0.639300
vn 0.195000 -0.446100 -0.873500
vn 0.454300 0.483200 -0.748500
vn -0.896800 0.088800 -0.433400
vn 0.090500 0.852700 0.514500
vn 0.364200 0.873900 -0.322000
vn -0.374000 0.648100 -0.663400
vn -0.042000 0.642000 -0.765600
vn 0.455900 0.513600 -0.726900
vn -0.404700 0.821200 -0.402200
vn -0.790400 0.479700 -0.381100
vn 0.131400 0.821200 -0.555200
vn -0.576800 0.671800 0.464800
vn 0.743600 0.609900 -0.274100
vn 0.791600 -0.127100 -0.597600
vn -0.377900 0.135200 -0.915900
vn 0.416600 0.860600 0.292800
vn 0.357700 0.930700 -0.077200
vn 0.940000 0.337900 0.046900
vn 0.838900 0.398700 -0.370600
vn 0.237400 0.376500 -0.895500
vn -0.318300 0.227700 0.920200
vn -0.774500 -0.252600 0.579900
vn -0.569600 -0.227000 0.789900
vn 0.555900 0.698100 0.451300
vn 0.624000 -0.779800 -0.049900
vn 0.827600 0.503300 -0.248400
vn -0.685900 0.405400 -0.604300
vn 0.156900 0.405400 -0.900600
vn -0.001700 0.860200 0.510000
vn -0.899700 -0.041900 -0.434400
vn -0.991300 -0.006700 0.131800
vn 0.642900 0.059900 -0.763600
vn 0.806000 -0.226600 -0.546900
vn 0.601100 0.000600 -0.799200
vn 0.135800 0.756300 -0.640000
vn 0.106200 0.820500 0.561800
usemtl SKULL_ORC_THRONE_03
s off
f 78/1/1 11/2/1 132/3/1
f 96/4/2 86/5/2 63/6/2
f 32/7/3 70/8/3 60/9/3
f 98/10/4 12/11/4 33/12/4
f 147/13/5 8/14/5 94/15/5
f 7/16/6 10/17/6 45/18/6
f 7/19/7 110/20/7 57/21/7
f 2/22/8 143/23/8 129/24/8
f 12/25/9 69/26/9 6/27/9
f 123/28/10 11/29/10 124/30/10
f 11/25/11 80/26/11 81/27/11
f 46/31/12 18/32/12 49/33/12
f 50/34/13 17/35/13 14/36/13
f 46/31/14 15/37/14 84/38/14
f 18/32/15 16/39/15 49/33/15
f 50/34/16 35/40/16 85/41/16
f 19/42/17 14/36/17 17/35/17
f 59/43/18 140/44/18 51/45/18
f 23/7/19 115/9/19 20/18/19
f 25/13/20 22/14/20 67/15/20
f 32/7/21 60/9/21 111/18/21
f 91/46/22 21/47/22 26/48/22
f 26/6/23 21/49/23 25/50/23
f 67/51/24 26/52/24 25/53/24
f 71/1/25 62/2/25 29/3/25
f 71/54/26 117/24/26 136/55/26
f 62/56/27 145/57/27 29/58/27
f 109/59/28 31/60/28 6/61/28
f 98/54/29 82/62/29 61/63/29
f 32/64/30 97/65/30 70/66/30
f 87/47/31 24/46/31 88/67/31
f 58/43/32 33/44/32 5/45/32
f 33/12/33 12/11/33 148/68/33
f 139/69/34 34/70/34 2/22/34
f 14/36/13 35/40/13 50/34/13
f 55/21/35 149/20/35 36/71/35
f 152/7/36 104/9/36 113/18/36
f 55/72/37 36/73/37 107/74/37
f 64/7/38 39/9/38 112/18/38
f 3/47/39 86/46/39 89/67/39
f 64/7/40 34/8/40 39/9/40
f 131/75/41 39/9/41 34/8/41
f 125/28/42 42/29/42 126/30/42
f 42/25/43 43/76/43 40/26/43
f 74/77/44 119/78/44 137/55/44
f 48/7/45 99/9/45 45/18/45
f 45/18/46 99/9/46 130/75/46
f 101/79/47 7/16/47 45/18/47
f 46/31/48 17/35/48 50/34/48
f 17/35/49 46/31/49 84/38/49
f 68/46/50 9/47/50 47/48/50
f 10/17/51 48/7/51 45/18/51
f 9/47/50 68/46/50 95/67/50
f 49/33/12 15/37/12 46/31/12
f 18/32/52 50/34/52 85/41/52
f 50/34/48 18/32/48 46/31/48
f 51/72/53 21/73/53 90/74/53
f 74/1/54 42/2/54 133/3/54
f 153/7/55 105/9/55 114/18/55
f 54/72/56 52/73/56 106/74/56
f 41/43/57 53/44/57 54/45/57
f 53/19/58 92/20/58 54/21/58
f 28/43/59 37/44/59 55/45/59
f 37/19/60 149/20/60 55/21/60
f 1/43/61 38/44/61 56/45/61
f 38/19/62 93/20/62 56/21/62
f 10/43/63 7/44/63 57/45/63
f 95/80/64 68/81/64 10/43/64
f 24/46/65 32/64/65 58/43/65
f 58/17/66 32/7/66 111/18/66
f 59/17/67 23/7/67 20/18/67
f 21/47/22 91/46/22 90/67/22
f 108/75/68 60/9/68 70/8/68
f 111/18/69 60/9/69 108/75/69
f 103/82/70 31/83/70 109/84/70
f 103/23/71 102/22/71 31/85/71
f 127/28/72 62/29/72 128/30/72
f 62/25/73 30/76/73 66/26/73
f 86/46/39 3/47/39 63/48/39
f 1/17/74 64/7/74 112/18/74
f 89/67/75 86/46/75 1/43/75
f 62/25/73 66/26/73 65/27/73
f 27/86/76 65/87/76 66/88/76
f 27/84/77 66/88/77 127/89/77
f 23/64/78 67/65/78 22/66/78
f 91/46/79 23/64/79 59/43/79
f 68/81/80 48/64/80 10/43/80
f 48/64/81 94/65/81 8/66/81
f 12/25/9 4/76/9 69/26/9
f 138/55/82 103/82/82 109/84/82
f 134/69/83 70/70/83 102/90/83
f 71/10/84 29/11/84 37/12/84
f 118/91/85 73/62/85 37/92/85
f 117/78/86 146/82/86 136/55/86
f 73/62/87 71/54/87 37/92/87
f 71/54/88 73/62/88 117/63/88
f 74/10/89 133/11/89 53/12/89
f 120/91/90 76/62/90 53/92/90
f 137/55/91 144/82/91 151/84/91
f 76/62/92 74/77/92 53/92/92
f 74/77/93 76/62/93 119/63/93
f 78/77/94 129/24/94 135/55/94
f 112/18/95 39/9/95 131/75/95
f 78/10/96 132/11/96 38/12/96
f 77/62/97 78/77/97 38/92/97
f 79/91/98 77/62/98 38/92/98
f 78/77/99 77/62/99 129/63/99
f 11/25/11 13/76/11 80/26/11
f 129/78/100 143/23/100 135/55/100
f 83/59/101 150/60/101 81/61/101
f 82/62/102 98/54/102 33/92/102
f 116/91/103 82/62/103 33/92/103
f 83/84/104 80/88/104 123/89/104
f 84/38/49 19/42/49 17/35/49
f 85/41/52 16/39/52 18/32/52
f 86/46/105 96/65/105 64/64/105
f 86/46/106 64/64/106 1/43/106
f 5/72/107 87/73/107 88/74/107
f 88/80/108 58/43/108 5/45/108
f 88/80/109 24/46/109 58/43/109
f 89/67/110 1/43/110 56/45/110
f 56/72/111 3/73/111 89/74/111
f 90/67/112 59/43/112 51/45/112
f 90/67/113 91/46/113 59/43/113
f 91/46/114 67/65/114 23/64/114
f 67/4/115 91/5/115 26/6/115
f 54/21/116 92/20/116 52/71/116
f 56/21/117 93/20/117 3/71/117
f 68/81/118 94/65/118 48/64/118
f 94/4/119 68/5/119 47/6/119
f 95/80/120 10/43/120 57/45/120
f 57/72/121 9/73/121 95/74/121
f 64/64/122 96/65/122 34/66/122
f 24/46/123 97/65/123 32/64/123
f 98/54/124 61/24/124 138/55/124
f 121/28/125 12/29/125 122/30/125
f 48/7/126 8/8/126 99/9/126
f 130/75/127 99/9/127 8/8/127
f 130/93/128 8/70/128 100/69/128
f 142/62/129 101/91/129 44/63/129
f 100/69/130 44/63/130 130/93/130
f 6/94/131 31/95/131 102/96/131
f 102/97/132 103/98/132 61/24/132
f 61/24/133 103/82/133 138/55/133
f 113/18/134 104/9/134 72/75/134
f 114/18/135 105/9/135 75/75/135
f 106/80/136 41/43/136 54/45/136
f 107/80/137 28/43/137 55/45/137
f 102/90/138 61/63/138 134/69/138
f 82/62/139 116/91/139 61/63/139
f 109/86/140 6/87/140 69/88/140
f 109/84/141 69/88/141 121/89/141
f 57/21/142 110/20/142 9/71/142
f 33/16/143 58/17/143 111/18/143
f 116/79/144 33/16/144 111/18/144
f 38/16/145 1/17/145 112/18/145
f 79/79/146 38/16/146 112/18/146
f 37/16/147 28/17/147 113/18/147
f 118/79/148 37/16/148 113/18/148
f 53/16/149 41/17/149 114/18/149
f 120/79/150 53/16/150 114/18/150
f 23/7/151 22/8/151 115/9/151
f 108/75/152 116/79/152 111/18/152
f 61/78/153 116/99/153 108/100/153
f 73/62/154 118/91/154 117/63/154
f 72/75/155 118/79/155 113/18/155
f 117/78/156 118/99/156 72/100/156
f 76/62/157 120/91/157 119/63/157
f 75/75/158 120/79/158 114/18/158
f 119/78/159 120/99/159 75/100/159
f 69/88/141 4/101/141 121/89/141
f 121/102/160 4/101/160 12/103/160
f 12/104/161 98/105/161 122/106/161
f 138/55/162 122/107/162 98/54/162
f 80/88/104 13/101/104 123/89/104
f 123/102/163 13/101/163 11/103/163
f 11/104/164 78/105/164 124/106/164
f 135/55/165 124/107/165 78/54/165
f 40/88/166 43/101/166 125/89/166
f 125/102/167 43/101/167 42/103/167
f 42/104/168 74/105/168 126/106/168
f 137/55/169 126/107/169 74/54/169
f 66/88/77 30/101/77 127/89/77
f 127/102/170 30/101/170 62/103/170
f 62/104/171 71/105/171 128/106/171
f 136/55/172 128/107/172 71/54/172
f 77/62/173 79/91/173 129/63/173
f 131/93/174 34/70/174 139/69/174
f 130/75/175 101/79/175 45/18/175
f 44/78/176 101/99/176 130/100/176
f 131/75/177 79/79/177 112/18/177
f 129/78/178 79/99/178 131/100/178
f 38/12/179 132/11/179 93/68/179
f 53/12/180 133/11/180 92/68/180
f 108/93/181 70/70/181 134/69/181
f 134/69/182 61/63/182 108/93/182
f 135/55/183 123/89/183 124/107/183
f 135/55/184 83/84/184 123/89/184
f 136/55/185 127/89/185 128/107/185
f 136/55/186 27/84/186 127/89/186
f 137/55/187 125/89/187 126/107/187
f 137/55/91 151/84/91 125/89/91
f 138/55/188 121/89/188 122/107/188
f 138/55/82 109/84/82 121/89/82
f 2/22/189 129/24/189 139/69/189
f 139/69/190 129/63/190 131/93/190
f 140/16/191 59/17/191 20/18/191
f 141/108/192 142/62/192 44/63/192
f 142/62/193 141/108/193 7/92/193
f 101/91/194 142/62/194 7/92/194
f 143/23/195 150/85/195 83/84/195
f 135/55/184 143/23/184 83/84/184
f 119/78/196 144/82/196 137/55/196
f 62/56/197 65/109/197 145/57/197
f 136/55/186 146/82/186 27/84/186
f 94/51/198 47/52/198 147/53/198
f 33/19/199 148/20/199 5/21/199
f 37/12/200 29/11/200 149/68/200
f 81/94/201 150/95/201 2/96/201
f 143/23/202 2/22/202 150/85/202
f 151/84/166 40/88/166 125/89/166
f 28/17/203 152/7/203 113/18/203
f 41/17/204 153/7/204 114/18/204
f 154/97/205 44/24/205 100/69/205
f 146/82/206 155/83/206 27/84/206
f 156/69/207 117/63/207 72/93/207
f 141/10/208 157/11/208 7/12/208
f 141/1/209 158/2/209 157/3/209
f 158/104/210 141/105/210 159/106/210
f 160/69/211 161/70/211 162/90/211
f 42/25/43 40/26/43 163/27/43
f 154/97/212 164/98/212 44/24/212
