# Blender v2.75 (sub 0) OBJ File: 'Empty.blend'
# www.blender.org
mtllib OW_ARENA_FENCE.mtl
o OW_ARENA_FENCE
v 0.340353 -0.219084 9.721597
v -0.111258 -0.479230 -9.721597
v -0.111259 0.430304 0.148315
v 0.148316 0.479230 0.441344
v -9.721599 -0.430304 0.441343
v 9.721599 -0.170158 -0.010268
v 4.684047 -0.257808 7.908606
v -8.854196 -0.257808 0.092300
v 0.171299 0.391580 0.092299
v -4.341448 -0.257808 7.908607
v -4.341449 -0.257808 -7.724008
v 4.684045 -0.257808 -7.724008
v 9.196793 -0.257808 0.092299
v -0.111260 -0.479229 9.721597
v 0.340355 -0.219084 -9.721597
v -9.721599 -0.170159 -0.010270
v 9.721599 -0.430304 0.441345
v 0.160219 0.219084 -0.010269
v 0.340354 0.170159 0.160218
v -0.111258 -0.219084 -9.721597
v 0.340355 -0.479230 -9.721597
v 9.721599 -0.430304 -0.010268
v 9.721599 -0.170158 0.441345
v 0.340353 -0.479229 9.721597
v -0.111260 -0.219084 9.721597
v -9.721599 -0.430304 -0.010270
v -9.721599 -0.170159 0.441343
v -0.111259 0.170159 0.145635
v 0.145636 0.219084 0.441344
v 0.340354 0.430304 0.161862
v 0.161863 0.479230 -0.010269
vt 0.500000 -0.500000
vt 3.460852 4.628345
vt 6.421702 -0.500001
vt -2.460852 -5.628345
vt -5.421703 -0.499999
vt 3.460850 -5.628345
vt -2.460850 4.628345
vt 3.281250 -0.009648
vt -0.050060 -0.170352
vt -0.054632 -0.009648
vt -3.281250 0.009648
vt 0.049155 0.170352
vt 0.050060 0.009648
vt -3.402651 -0.398265
vt 0.056078 -0.201735
vt 0.050974 -0.398265
vt -3.281250 -0.170352
vt 3.281250 -0.170352
vt -3.402651 -0.201735
vt -3.281250 -0.010017
vt 0.054632 -0.010017
vt 0.054078 -0.189983
vt 3.402651 -0.201735
vt -3.281250 0.170352
vt -3.281250 -0.189983
vt 3.281250 -0.189983
vt 3.281250 0.170352
vt 3.281250 0.009648
vt 3.402651 -0.398265
vt -3.281250 -0.009648
vt 3.281250 -0.010017
vn -0.071700 -0.996600 0.041400
vn 0.071700 -0.996600 -0.041400
vn 0.071700 0.996600 -0.041400
vn -0.071700 0.996600 0.041400
vn -0.000000 -0.996600 -0.082800
vn 0.000000 0.996600 0.082800
vn 0.071700 -0.996600 0.041400
vn -0.071700 0.996600 -0.041400
vn 0.000000 -0.996600 0.082800
vn 0.000000 0.996600 -0.082800
vn -0.071700 -0.996600 -0.041400
vn 0.071700 0.996600 0.041400
vn 0.002000 0.997800 -0.065600
vn -1.000000 0.000000 -0.000000
vn -0.065600 0.997800 -0.002000
vn -0.000000 0.000000 1.000000
vn -0.002100 -0.997800 0.065700
vn -0.002000 0.997700 0.067700
vn 0.000000 0.997800 -0.065700
vn 0.000000 -0.997800 0.065600
vn -0.065700 0.997800 0.000000
vn 0.065600 -0.997800 0.000000
vn 0.065700 -0.997800 0.002100
vn 0.067700 0.997700 0.002000
vn 0.000000 -0.000000 -1.000000
vn -0.067800 -0.997700 -0.002200
vn 1.000000 -0.000000 0.000000
vn 0.002200 -0.997700 -0.067800
vn 0.000000 -0.997700 -0.067700
vn -0.067700 -0.997700 0.000000
vn 0.000000 0.997700 0.067800
vn 0.067800 0.997700 0.000000
usemtl NC_OREHEAPFENCE1
s off
f 9/1/1 12/2/1 13/3/1
f 9/1/2 10/4/2 8/5/2
f 9/1/3 13/3/3 12/2/3
f 9/1/4 8/5/4 10/4/4
f 9/1/5 7/6/5 10/4/5
f 9/1/6 10/4/6 7/6/6
f 9/1/7 8/5/7 11/7/7
f 9/1/8 11/7/8 8/5/8
f 9/1/9 11/7/9 12/2/9
f 9/1/10 12/2/10 11/7/10
f 9/1/11 13/3/11 7/6/11
f 9/1/12 7/6/12 13/3/12
usemtl NC_REHEAPFENCE2
f 15/8/13 3/9/13 30/10/13
f 20/11/14 28/12/14 3/13/14
f 16/8/15 4/9/15 31/10/15
f 27/11/16 29/12/16 4/13/16
f 2/14/17 19/15/17 28/16/17
f 25/17/18 30/10/18 3/9/18
f 3/9/19 15/8/19 20/18/19
f 19/15/20 2/14/20 21/19/20
f 4/9/21 16/8/21 27/18/21
f 18/15/22 5/14/22 26/19/22
f 5/14/23 18/15/23 29/16/23
f 23/17/24 31/10/24 4/9/24
f 16/20/25 31/21/25 18/22/25
f 22/23/26 29/16/26 18/15/26
f 15/20/27 30/21/27 19/22/27
f 24/23/28 28/16/28 19/15/28
f 28/12/14 20/11/14 2/24/14
f 15/20/27 19/22/27 21/25/27
f 22/26/25 18/22/25 31/21/25
f 4/13/16 17/27/16 23/28/16
f 24/26/27 19/22/27 30/21/27
f 3/13/14 14/27/14 25/28/14
f 16/20/25 18/22/25 26/25/25
f 29/12/16 27/11/16 5/24/16
f 28/16/29 24/23/29 14/29/29
f 14/27/14 3/13/14 28/12/14
f 29/16/30 22/23/30 17/29/30
f 17/27/16 4/13/16 29/12/16
f 30/10/31 25/17/31 1/30/31
f 24/26/27 30/21/27 1/31/27
f 31/10/32 23/17/32 6/30/32
f 22/26/25 31/21/25 6/31/25
