# Blender v2.75 (sub 0) OBJ File: 'Empty.blend'
# www.blender.org
mtllib OW_LOB_TREE_V8.mtl
o OW_LOB_TREE_V8
v 2.913013 4.935609 -4.121127
v 2.273063 22.143579 -2.183551
v 3.131050 12.886710 5.171321
v -2.098403 13.768251 -4.210779
v -1.321943 21.569149 4.028014
v -1.960648 4.935609 -4.121128
v 5.349844 4.546236 0.089306
v 2.913013 4.156864 4.299739
v -1.960648 4.156864 4.299739
v -4.397478 4.546237 0.089306
v 0.476183 4.546238 0.089306
v -5.013926 13.320532 0.480271
v -2.298934 12.886710 5.171321
v 5.846042 13.320536 0.480271
v 3.131050 13.754349 -4.210779
v -3.119446 21.856361 0.922231
v 4.070565 21.856361 0.922231
v 2.273062 21.569147 4.028014
v -1.321944 22.143579 -2.183551
v 0.663294 7.986219 0.551173
v 0.712603 0.007690 0.085515
v -0.253102 0.007690 0.635912
v -0.253102 0.007690 -0.464883
v 1.272253 7.900636 0.211707
v 0.663294 7.986219 -0.127759
v 0.591631 2.491810 -0.598519
v -0.575004 0.007690 0.085515
v 0.390701 0.007690 -0.464883
v 0.460308 8.014748 0.211707
v 1.069267 7.929164 0.551173
v 1.069267 7.929164 -0.127759
v 0.390701 0.007690 0.635912
v 0.591631 2.366647 0.191729
v 0.118941 2.391115 0.195604
v -0.117404 2.465930 -0.197582
v 0.118941 2.516278 -0.594644
v 0.827976 2.416995 -0.205333
vt 0.608610 -0.580571
vt 0.640639 0.396295
vt 0.397344 -0.576317
vt 0.771246 -0.558813
vt 0.415178 0.381418
vt 0.598454 -0.571819
vt 0.577745 -0.576317
vt 0.734006 0.396295
vt 0.404952 -0.563312
vt 0.359360 0.396295
vt 0.177913 0.386377
vt 0.391390 -0.558813
vt 0.822087 0.386377
vt 0.584822 0.401254
vt 0.435638 0.396295
vt 0.768938 -0.990635
vt 0.481194 -0.990635
vt 0.602656 -0.554560
vt 0.230457 -0.554560
vt 0.712518 -0.990635
vt 0.423958 -0.580571
vt 0.265994 0.386377
vt 0.564362 0.386377
vt 0.231062 -0.990635
vt 0.518806 -0.990635
vt 0.470636 -0.990635
vt 0.228754 -0.990635
vt 0.529364 -0.990635
vt 0.771246 -0.990635
vt 0.287482 -0.990635
vt 0.553094 0.029517
vt 0.226657 -1.058722
vt 0.107060 -0.126147
vt 0.600459 0.065748
vt 0.091271 -0.164794
vt 0.600186 0.065491
vt 0.091264 -0.165099
vt 0.302923 -0.011266
vt 0.442551 -1.029621
vt 0.777267 0.028350
vt 0.607620 0.088622
vt 0.085954 -0.156372
vt 0.224710 -1.105706
vt 0.600405 0.065433
vt 0.091222 -0.165166
vt 0.301754 0.001582
vt 0.421994 -0.933201
vt 0.748468 -0.002903
vt 0.600424 0.065678
vt 0.572947 0.031812
vt 0.093230 -0.135918
vt 0.600577 0.065628
vt 0.091257 -0.164904
vt 0.627570 0.008660
vt 0.289144 -0.007090
vt 0.538607 -1.230767
vt 0.635459 -0.007273
vt 0.346209 -0.000514
vt 0.522162 -0.990599
vt 0.905285 0.914253
vt 1.091740 0.182642
vt 0.490011 -0.037280
vt 0.828012 0.921317
vt 0.452541 -0.051199
vt 1.057245 0.200716
vt 0.719697 1.015658
vt 1.062917 0.368649
vt 0.608427 -0.096013
vt 0.720740 0.977174
vt 0.568886 -0.047588
vt 1.076430 0.319981
vt 0.553435 1.055502
vt 1.047019 0.577147
vt 0.682723 -0.164207
vt 0.855053 0.908211
vt 0.434673 -0.052937
vt 1.090774 0.194921
vt -0.821010 1.009265
vt -0.501382 -0.056817
vt -1.077973 0.245732
vt -0.242749 -0.043611
vt 0.077715 -0.726620
vt -0.480331 -1.057951
vt 0.707646 0.983947
vt 1.099677 0.318135
vt 0.893723 0.905442
vt 0.488012 -0.048710
vt 1.103103 0.170847
vt 0.834670 0.913393
vt 1.042095 0.195235
vt -0.898885 0.910223
vt -0.599445 -0.072703
vt -1.043935 0.255257
vt 0.276711 -0.005828
vt 0.770384 -0.000440
vt 0.476472 -0.977686
vt 0.149495 -0.010837
vt 0.462006 -0.972190
vt 0.659363 0.004161
vt 0.708639 -0.010842
vt 0.256004 0.003379
vt 0.463581 -0.953286
vt 0.178519 0.008911
vt 0.767606 -0.009435
vt 0.466662 -0.983775
vt 0.148689 -0.013682
vt 0.532095 -1.124793
vt 0.630926 0.005202
vt 0.327476 -0.015933
vt 0.448909 -0.934102
vt 0.613843 0.003607
vt 0.212468 -0.000670
vt 0.498755 -1.343665
vt 0.609204 -0.011129
vt -0.738346 0.995968
vt -0.294157 0.973532
vt -0.574552 -0.169500
vn 0.004900 -0.063900 0.997900
vn 0.854200 -0.029700 -0.519100
vn -0.851800 0.049700 0.521500
vn 0.012000 0.085200 -0.996300
vn -0.009000 -0.063700 0.997900
vn -0.846700 0.126300 -0.516900
vn 0.000000 -0.053700 -0.998600
vn -0.003700 0.085400 -0.996300
vn -0.859300 0.127800 -0.495300
vn 0.844800 -0.096600 -0.526200
vn -0.855300 0.051000 0.515700
vn 0.849400 -0.106300 0.516900
vn 0.856700 -0.030700 -0.514900
vn 0.000000 0.185000 0.982700
vn 0.863000 0.021500 0.504700
vn 0.860200 -0.107600 0.498400
vn -0.841600 0.222300 0.492200
vn 0.017300 0.179000 0.983700
vn -0.858700 0.102000 -0.502200
vn -0.818800 0.213800 0.532800
vn -0.010800 -0.050100 -0.998700
vn -0.860500 0.101800 -0.499300
vn 0.858700 -0.101700 -0.502200
vn 0.857900 0.020900 0.513300
vn -0.871200 -0.021500 0.490400
vn 0.871200 0.021500 -0.490400
vn -0.008800 0.049900 -0.998700
vn 0.008800 -0.049900 0.998700
vn 0.757800 -0.442400 -0.479500
vn 0.856800 -0.028600 0.514800
vn -0.856800 0.028600 -0.514800
vn -0.769200 -0.499100 0.399000
vn -0.885000 -0.030400 0.464600
vn 0.885000 0.030400 -0.464600
vn 0.875500 -0.027100 0.482500
vn -0.875500 0.027100 -0.482500
vn 0.008500 0.049800 -0.998700
vn -0.008500 -0.049800 0.998700
vn 0.855800 -0.200600 0.476800
vn -0.849300 -0.152100 -0.505600
vn -0.865800 -0.008400 0.500300
vn 0.865800 0.008400 -0.500300
vn -0.866000 0.016300 -0.499700
vn 0.866000 -0.016300 0.499700
vn 0.000000 0.044500 -0.999000
vn -0.000000 -0.044500 0.999000
vn -0.866300 -0.028200 0.498800
vn 0.866300 0.028200 -0.498800
vn -0.742300 -0.442000 -0.503500
vn 0.000000 -0.520300 0.854000
vn 0.772900 -0.490900 0.401900
vn -0.001100 -0.422900 -0.906200
vn -0.855800 -0.200700 0.476800
vn 0.849300 -0.152000 -0.505600
vn -0.000000 -0.225400 0.974300
vn -0.000000 -0.128100 -0.991800
usemtl MOWOBARK04
s off
f 33/1/1 20/2/1 34/3/1
f 26/4/2 24/5/2 37/6/2
f 34/7/3 20/8/3 35/9/3
f 25/10/4 31/11/4 26/12/4
f 33/1/5 30/13/5 20/2/5
f 35/9/6 29/14/6 25/15/6
f 23/16/7 26/12/7 28/17/7
f 25/10/8 26/12/8 36/18/8
f 35/9/9 25/15/9 36/19/9
f 37/6/10 28/20/10 26/4/10
f 35/9/11 20/8/11 29/14/11
f 33/21/12 24/5/12 30/22/12
f 26/4/13 31/23/13 24/5/13
f 22/24/14 32/25/14 33/1/14
f 21/26/15 33/21/15 32/27/15
f 37/6/16 24/5/16 33/21/16
f 27/28/17 22/29/17 34/7/17
f 22/24/18 33/1/18 34/3/18
f 35/9/19 23/30/19 27/28/19
f 27/28/20 34/7/20 35/9/20
f 26/12/21 23/16/21 36/18/21
f 23/30/22 35/9/22 36/19/22
f 28/20/23 37/6/23 21/26/23
f 33/21/24 21/26/24 37/6/24
usemtl MOWOTREETOP02
f 18/31/25 11/32/25 3/33/25
f 18/34/26 3/35/26 11/32/26
f 17/36/27 14/37/27 11/32/27
f 17/36/28 11/32/28 14/37/28
f 14/38/29 11/39/29 15/40/29
f 5/41/30 13/42/30 11/43/30
f 5/44/31 11/32/31 13/45/31
f 12/46/32 11/47/32 13/48/32
f 19/49/33 4/35/33 11/32/33
f 19/49/34 11/32/34 4/35/34
f 2/49/35 11/32/35 15/35/35
f 2/49/36 15/35/36 11/32/36
f 16/50/37 11/32/37 12/51/37
f 16/52/38 12/53/38 11/32/38
f 17/54/39 18/55/39 11/56/39
f 16/57/40 19/58/40 11/59/40
f 4/60/41 6/61/41 11/62/41
f 4/63/42 11/64/42 6/65/42
f 15/66/43 1/67/43 11/68/43
f 15/69/44 11/70/44 1/71/44
f 14/72/45 7/73/45 11/74/45
f 14/75/46 11/76/46 7/77/46
f 3/78/47 11/79/47 8/80/47
f 3/81/48 8/82/48 11/83/48
f 13/84/44 9/85/44 11/70/44
f 13/86/43 11/87/43 9/88/43
f 12/89/46 10/90/46 11/76/46
f 12/91/45 11/92/45 10/93/45
f 12/94/49 4/95/49 11/96/49
f 13/97/50 11/98/50 3/99/50
f 14/100/51 3/101/51 11/102/51
f 4/103/52 15/104/52 11/105/52
f 16/106/53 11/107/53 5/108/53
f 17/109/54 11/110/54 2/111/54
f 5/112/55 11/113/55 18/114/55
f 19/115/56 2/116/56 11/117/56
