# Blender v2.75 (sub 0) OBJ File: 'Empty.blend'
# www.blender.org
mtllib OW_LOB_TREE_ROOT_V2.mtl
o OW_LOB_TREE_ROOT_V2
v -0.577426 -0.752534 -5.759791
v -1.239831 0.737082 -0.376680
v -0.093278 1.090333 -2.917581
v 5.317663 -0.237451 -1.548079
v 0.536557 -0.328391 3.906234
v -4.170041 -2.312845 1.429277
v 1.089481 1.592094 0.872984
v 1.607503 -2.399962 4.633992
v 0.174534 0.268980 -0.989429
v 0.072069 1.517295 1.170650
v -4.759417 -0.599168 -1.308413
v -3.177998 0.506919 -0.799039
v -3.851551 1.042899 -1.198289
v -5.429389 -0.182002 -1.791448
v -2.983735 -0.115559 -6.978493
v -1.011193 -0.160435 -5.897511
v 0.246064 3.626782 0.903628
v -0.144459 0.379944 0.751811
v -0.945701 2.957837 -0.360831
v 0.670485 3.523194 -0.762053
v 3.352858 0.855039 -2.042042
v -3.043395 -0.478800 -7.302361
v -1.140953 0.620276 -0.824248
v 2.048466 -1.961518 5.135530
v 0.666900 1.004045 -0.916034
v -0.315712 0.503475 -2.329848
v -0.423858 1.227400 -1.183941
v -1.128702 0.627807 0.896905
v -1.016346 1.464095 0.141469
v -3.132231 0.196297 1.035441
v -0.245499 3.138427 -1.049800
v 3.437397 1.122571 -1.635767
v 0.779912 1.045019 0.827340
v 1.232321 -0.251736 3.521191
v 0.538296 0.429510 0.581823
v 0.926267 3.467371 0.214660
v -0.689919 3.082014 0.615883
v 2.310616 -2.031271 4.722988
v -1.048043 1.438545 -0.510898
v 1.970260 0.639426 -0.108953
v 0.983509 1.427390 -0.104278
v -3.532186 0.949121 -1.354102
v 2.006504 1.168466 -0.574044
v -1.165977 -0.308779 -5.698132
v 1.613918 -2.189381 5.080527
v 2.038086 -2.302245 4.413021
v 3.249572 0.380265 -1.407895
v 3.373563 0.829144 -1.243843
v 1.001355 -0.649300 3.341255
v 0.571350 -0.696675 3.579225
v -2.855575 0.005188 1.421811
v -4.656818 -0.620618 -1.591976
v 0.945060 -0.053403 3.870368
v -0.324809 0.964819 1.102387
v -0.835290 0.233529 0.102075
v 0.127103 0.207142 -2.108866
v 0.821572 0.349237 -0.704347
v -2.154063 -0.391006 0.601691
v -2.251034 -0.357785 1.153739
v -0.647448 -0.434691 -5.935619
v 0.301599 0.971289 -3.059838
v 5.322863 -0.160501 -2.101957
v 5.488753 -0.086791 -1.807850
v 3.236776 0.396269 -1.901209
v 1.789072 0.054094 -0.458331
v -3.736347 -2.044884 1.541662
v 0.941436 -0.233254 1.631593
v 0.457819 0.612603 2.225843
v -3.115908 0.617868 -1.107352
v 5.046032 -0.404275 -1.681639
v 5.049247 -0.356717 -2.023953
v 0.623212 0.610857 -2.560024
v -0.897895 -0.674717 -5.613017
v -3.632651 0.769604 -0.855242
v -4.071014 -2.316324 1.075784
v -2.698673 -0.048564 0.528579
v -5.070882 -0.362794 -1.890508
v -5.236891 -0.328089 -1.431693
v 0.244986 -0.344443 1.641671
v -1.557282 0.857003 0.611284
v -0.727701 1.464120 1.138598
v -2.834320 -0.230472 -7.233478
v -2.797448 -0.005977 -7.033315
v 0.598800 1.606883 -0.771196
v -0.682486 0.242479 0.582197
v -3.135739 -0.407780 -7.144772
v 1.847717 0.910100 -1.210865
v -0.247409 0.238348 -0.884376
v -0.775164 1.495893 -0.812483
v 1.072975 0.358233 1.992631
v -0.744757 0.660604 -1.194973
v -0.053906 0.178325 2.008938
v -3.576116 -2.050514 0.969697
v -3.369281 -1.882754 1.257625
v 1.233774 0.367889 0.238238
v 1.416146 1.046255 0.302010
v 1.713336 0.221380 -1.139351
vt -0.419701 0.588227
vt -0.310048 1.023264
vt -0.060675 0.964087
vt -0.164118 0.514144
vt 0.017005 0.703750
vt -0.502673 0.866804
vt -2.177589 -0.962308
vt -2.450890 -0.835194
vt -1.972242 -0.741664
vt -2.414452 -0.535988
vt -2.118631 -0.478183
vt 0.633849 2.559871
vt 0.704018 2.870605
vt 0.795248 2.502957
vt 0.893653 -2.580792
vt 0.748721 -2.924281
vt 0.664076 -2.561204
vt 0.574503 -2.773492
vt 0.945967 -2.805187
vt -0.836063 3.017307
vt -0.648479 2.973125
vt -0.895701 2.749834
vt 0.965168 2.778518
vt 0.908785 3.005737
vt 3.251391 -1.924879
vt 3.114489 -1.720508
vt 3.324425 -1.695717
vt 3.159626 -1.578878
vt 3.381139 -1.909557
vt -0.592183 2.678344
vt -0.744975 2.540343
vt 1.181525 0.999361
vt 1.150407 -0.303505
vt 0.989305 -0.250119
vt 2.206363 -0.908341
vt 2.006646 -0.828876
vt 2.117931 0.539691
vt 0.591378 0.181883
vt 0.303920 0.163727
vt 0.593577 0.611612
vt -0.300217 -0.036026
vt -0.296545 -0.199874
vt -0.702580 -0.212193
vt 0.358417 -0.382856
vt 0.538848 -0.740978
vt 0.196646 -0.399925
vt -0.209326 0.132657
vt -0.074630 0.094549
vt -0.256993 -0.417674
vt -1.292293 0.042911
vt -1.006042 -0.015061
vt -0.920492 -0.600276
vt -1.135842 0.288950
vt -0.958836 -0.469611
vt -1.369665 0.149972
vt -1.096190 -0.602056
vt -0.808029 0.798123
vt -0.782423 0.145099
vt -0.957347 0.779237
vt -0.041739 -0.108067
vt -0.082056 0.052311
vt 0.324292 -0.022060
vt 0.585718 -0.010675
vt 0.377857 0.191965
vt 0.641522 0.091970
vt 1.289587 -0.960873
vt 0.161133 0.469058
vt 0.165886 1.140162
vt 0.468774 0.640921
vt -1.178692 0.727994
vt -0.963070 1.273854
vt -0.283176 0.605039
vt -0.118934 1.108588
vt 0.034328 0.598826
vt -1.420863 -0.271183
vt -1.604725 -0.177965
vt -1.403813 0.507054
vt -1.263608 -1.250209
vt -1.410020 0.512776
vt -1.471427 -0.273291
vt -1.633030 0.461049
vt -0.946351 1.116366
vt -1.595391 0.613704
vt -1.682399 -0.344334
vt 1.348892 0.969289
vt 2.448195 -1.252017
vt 2.609823 -0.268767
vt 2.566415 -1.148274
vt 1.961771 0.542909
vt 1.344008 1.269670
vt -0.016005 -0.968366
vt -0.047465 -0.475836
vt 0.196647 -0.509129
vt -0.080823 -1.327443
vt -0.370622 -0.714226
vt 0.210787 -0.663883
vt 0.068369 0.214988
vt 0.299376 0.077053
vt -0.185503 0.549583
vt -0.229814 0.818287
vt -0.056646 0.526973
vt -0.216746 -0.860762
vt 0.446481 1.307693
vt 0.262825 -1.314073
vt 1.365608 -0.055402
vt 1.092334 -0.059441
vt 1.135244 0.568433
vt 0.423071 -0.743913
vt 1.338490 1.151832
vt 2.675096 -0.326431
vt 0.290571 0.285079
vt 0.187298 0.307788
vt -0.108452 0.182848
vt -0.498710 -0.442326
vt -0.389496 0.381459
vt 0.357324 0.748404
vt 0.007544 0.560595
vt -0.119230 1.073220
vt -0.972648 -0.641521
vt -1.111399 -0.652472
vt -0.758853 -0.111118
vt 1.413122 -0.439706
vt 1.158759 -0.530139
vt 2.317831 -0.868700
vt 0.947514 0.056977
vt 0.895878 -0.469672
vt 0.646513 0.173556
vt 0.834606 1.412011
vt 1.133948 -0.380010
vt 0.933952 -0.653157
vt -0.345971 0.434498
vt -0.207666 0.262409
vt -0.399178 0.123627
vt -0.230039 -0.465551
vt -0.049627 0.437230
vt 0.244511 1.285105
vt 0.145662 0.523713
vt -0.105599 -0.427000
vt 0.003449 -0.369891
vt -1.173926 0.011752
vt -1.484975 -0.998688
vt -1.409287 0.037237
vt -0.932330 0.720164
vt 0.758736 1.194770
vt 0.371555 0.575876
vt 0.623734 1.154959
vt 0.567403 1.967052
vt 0.188375 -0.942581
vt 0.429625 -0.748226
vt 0.548800 -0.929679
vt 0.184879 0.579328
vt -1.052052 0.192219
vt -1.156679 -0.187689
vt -1.284080 -1.044672
vt -1.453276 -0.956665
vt -1.256811 0.449425
vt -0.987064 0.418625
vt 0.701162 -0.683436
vt 0.166235 -0.970093
vt 0.191056 1.064504
vt -0.923497 0.169821
vt -1.240871 -0.585184
vt 0.362433 -0.293964
vt 0.535893 -0.387756
vt 0.288472 -1.155456
vt 0.323395 0.613891
vt 0.677398 -0.165795
vt 1.066840 0.390895
vt 0.919245 -0.291203
vt 0.938965 -0.602661
vt 0.818872 -0.893438
vt 0.682766 -0.524928
vt 0.203658 0.116595
vt -0.356575 0.218565
vt -0.032154 0.243707
vt -0.176550 0.437015
vt 0.365096 -1.226498
vt 0.443561 -1.175081
vt 0.354133 -1.768429
vt 0.937540 1.362322
vt 2.653851 -1.153857
vt -1.454365 -0.483515
vt -1.264617 -0.503600
vt -1.275930 -1.423095
vt -0.975830 -0.448501
vt -1.028789 -0.347081
vt 0.476963 1.129832
vt 0.370435 1.922077
vt 1.243460 0.313507
vt 1.223896 1.077544
vt -0.966829 -0.205967
vt -1.092116 -1.366031
vt -0.316909 -1.088218
vt 0.388660 1.139045
vt 0.454778 1.115066
vt 0.283642 0.763433
vt -0.179316 -0.644219
vt -0.052148 -0.468713
vt 0.091351 -0.662411
vt -0.948371 -0.067612
vt -1.323512 -0.845900
vt 0.696645 -0.128746
vt 0.258422 -0.174187
vt 0.558076 -0.641866
vt 0.754552 -0.873954
vt 0.483121 -0.831936
vt -0.044020 0.179103
vt -0.264197 0.817599
vt -0.026013 0.337876
vt -0.659854 -0.614897
vt 1.272700 1.142517
vt 1.156990 -0.152707
vt 1.128230 1.140865
vt -1.523840 1.124466
vt -1.983339 0.155420
vt -1.665897 1.100013
vt 0.920186 -0.280060
vt 0.856732 -1.072923
vt 0.455001 1.986335
vt 0.476361 -1.162077
vt 0.943302 0.585846
vt 1.290702 1.307807
vt 0.557180 -1.163029
vt 0.037766 -0.270966
vt -0.258651 -1.245196
vt -0.164542 0.867511
vt -1.222090 0.958106
vt 0.366407 1.274228
vt 1.345409 1.094876
vt 1.192685 1.398682
vt 0.316738 -0.140637
vt 2.246926 0.566808
vt 1.393443 1.324401
vt 0.209599 -1.748458
vt -0.157822 -1.213803
vt -0.254857 1.040044
vt 0.198615 0.166537
vt 0.289481 -1.828035
vt -0.255612 0.051083
vt -0.166333 -0.207057
vt -0.587396 -0.148340
vt -0.797303 0.119588
vt -1.054065 0.209372
vt -0.736391 0.588628
vt 0.054008 0.368868
vt -0.346077 -0.353456
vt -0.278150 0.407872
vt -1.908465 0.050045
vt 2.729754 -0.285882
vt 0.296482 0.299513
vt 0.504737 0.019332
vt -0.296354 0.497947
vt 0.653888 -0.351132
vt -1.223114 1.198087
vt -0.946738 0.955225
vt 0.024938 0.337721
vt -0.995766 0.681168
vt 0.139291 -0.175209
vt -1.034898 0.875415
vt 0.559080 -0.802498
vt 0.107288 0.311710
vn -0.204800 0.972700 0.109200
vn -0.353500 0.928200 -0.115900
vn -0.316200 0.806900 -0.498900
vn -0.337000 0.941000 -0.031400
vn 0.388900 -0.835400 0.388400
vn -0.470600 -0.876200 -0.104000
vn 0.558600 -0.822300 -0.109000
vn 0.492200 -0.858100 0.146300
vn -0.531900 0.610600 -0.586800
vn -0.531800 0.610600 -0.586800
vn 0.098700 0.880800 -0.463200
vn -0.636100 -0.683500 0.358100
vn -0.041200 0.892400 -0.449300
vn 0.149700 -0.959500 -0.238700
vn -0.007400 -0.971300 -0.237800
vn -0.058800 0.733700 0.676900
vn 0.332500 -0.135500 0.933300
vn -0.852000 -0.521300 0.048700
vn -0.935200 -0.280300 0.216200
vn -0.686900 0.619900 0.379300
vn 0.092000 -0.992500 0.080100
vn -0.525900 -0.846600 -0.081600
vn 0.281200 0.959400 -0.022200
vn 0.364100 0.031400 -0.930800
vn 0.482700 0.744200 0.461600
vn -0.954600 0.111600 0.276300
vn -0.206300 -0.150300 0.966900
vn -0.275800 -0.280600 0.919400
vn 0.408500 -0.156400 -0.899200
vn 0.124500 -0.487400 -0.864300
vn -0.290000 -0.077100 0.953900
vn 0.479700 -0.214700 -0.850800
vn 0.502700 0.730900 -0.461600
vn 0.429600 0.656000 -0.620600
vn -0.568100 -0.232600 0.789400
vn -0.797500 -0.508900 0.324000
vn 0.272700 0.098600 0.957000
vn 0.958100 -0.017000 -0.286100
vn 0.137000 -0.987600 0.076800
vn 0.799600 -0.574400 0.175000
vn -0.367600 0.146600 0.918300
vn 0.302300 -0.006800 -0.953200
vn 0.966300 -0.034900 -0.255100
vn -0.446700 -0.005700 -0.894600
vn 0.194900 -0.980100 -0.036900
vn -0.579900 -0.153600 0.800100
vn 0.485500 0.536000 -0.690600
vn -0.379500 -0.912200 0.154200
vn 0.246800 0.322000 -0.914000
vn -0.034000 -0.968800 0.245300
vn -0.662100 0.149600 -0.734300
vn -0.307000 0.374400 0.875000
vn 0.008600 -0.983600 -0.180300
vn -0.253000 -0.351200 -0.901500
vn 0.635700 -0.771900 0.008300
vn -0.965800 0.168300 -0.197500
vn -0.896100 0.433800 0.094000
vn -0.805800 0.463400 -0.368800
vn -0.555500 0.329400 -0.763500
vn 0.046700 -0.598900 0.799500
vn -0.058500 0.308100 0.949500
vn -0.114200 -0.553100 0.825300
vn -0.434100 0.607800 -0.664900
vn -0.676600 0.241600 -0.695500
vn 0.314300 -0.166800 0.934600
vn -0.711600 0.115100 -0.693100
vn -0.324200 0.819700 -0.472300
vn 0.364800 0.741000 -0.563800
vn 0.288800 -0.240700 0.926600
vn 0.509700 0.548100 0.663200
vn 0.457200 0.841400 0.288100
vn 0.738900 0.026900 -0.673200
vn 0.982200 -0.171900 -0.076200
vn 0.586500 -0.391000 0.709300
vn 0.714100 0.286400 0.638800
vn -0.963600 0.125100 0.236400
vn 0.740400 0.621500 0.256000
vn -0.247200 0.968600 -0.025900
vn -0.968500 -0.037000 -0.246100
vn 0.538400 -0.548500 0.639700
vn 0.618900 -0.236800 0.749000
vn 0.669800 0.716900 -0.193500
vn 0.743000 0.642100 -0.188800
vn 0.003700 0.860100 -0.510100
vn -0.215800 0.575600 -0.788700
vn 0.055200 0.920400 -0.387200
vn 0.457700 0.569100 0.683100
vn -0.691600 0.722200 0.000400
vn -0.221800 0.856900 0.465400
vn -0.896500 -0.338600 0.285900
vn -0.237300 -0.628900 -0.740400
vn 0.460000 0.673200 0.579000
vn 0.383600 0.708200 0.592700
vn 0.605300 -0.415400 0.679000
vn -0.006100 -0.341800 0.939800
vn 0.882000 -0.398800 -0.251100
vn 0.687100 -0.071900 -0.723000
vn -0.320800 -0.632000 -0.705500
vn -0.887500 -0.411700 0.206900
vn -0.682000 0.331100 0.652100
vn -0.195900 0.816000 0.543900
vn 0.501700 -0.829800 0.244300
vn 0.699900 0.629100 0.338400
vn -0.223700 0.445400 0.866900
vn -0.033300 -0.099000 0.994500
vn -0.643600 0.448700 0.620000
vn -0.554100 -0.762600 -0.333900
vn -0.003300 -0.213800 -0.976900
vn 0.639500 -0.768700 0.015400
vn 0.087400 -0.992900 0.081200
vn 0.415500 -0.189500 -0.889700
vn 0.391900 -0.913700 -0.107700
vn 0.038200 -0.672200 -0.739400
vn 0.412200 -0.240400 0.878800
vn 0.393700 -0.910800 0.124000
vn 0.945100 0.028100 -0.325600
vn 0.452900 -0.353100 -0.818700
vn 0.883800 0.206700 -0.419700
vn 0.212400 0.975900 -0.051100
vn 0.428500 0.789400 -0.439500
vn -0.402600 -0.915200 -0.019200
vn 0.426700 0.631600 0.647300
vn -0.168500 -0.250100 -0.953500
vn -0.387900 -0.912400 -0.130400
vn -0.325100 -0.931900 0.160600
vn 0.513300 -0.551400 0.657600
vn -0.411000 0.304800 0.859200
vn 0.735700 -0.662100 -0.142700
vn 0.935200 0.008100 -0.354000
vn 0.122300 -0.817300 -0.563000
vn 0.652100 0.750000 0.110500
vn -0.472000 0.759600 0.447500
vn 0.177000 -0.936900 -0.301500
vn 0.646600 -0.749900 -0.139600
vn -0.129300 -0.482800 0.866100
vn -0.132900 -0.200500 -0.970600
vn 0.820400 -0.560700 0.112300
vn 0.831800 0.534400 -0.149900
vn -0.037200 -0.914200 0.403500
vn -0.182600 -0.976000 0.118700
vn -0.265100 0.664600 0.698600
vn -0.555100 0.440800 0.705400
vn -0.906600 0.334600 -0.257300
vn -0.222900 -0.529300 -0.818600
vn -0.584100 0.761800 -0.280200
vn -0.017300 0.453800 -0.890900
vn -0.629800 0.541600 0.556900
vn -0.092900 -0.791700 -0.603800
vn -0.872700 -0.488100 -0.015400
vn -0.816800 0.479600 -0.320700
vn -0.124500 0.674300 0.727900
vn -0.162600 -0.201200 0.966000
vn -0.897900 0.355400 0.259900
vn 0.505100 -0.191800 -0.841500
vn -0.300400 0.783100 0.544600
vn 0.279400 0.254000 -0.925900
vn 0.870600 0.205700 -0.446900
vn 0.266800 -0.961400 -0.067000
vn -0.125200 -0.538200 0.833500
vn -0.282600 -0.925700 0.251600
vn -0.153000 0.928400 -0.338500
vn -0.482400 -0.143200 -0.864100
vn -0.580300 -0.799100 -0.157100
vn 0.085000 -0.995100 0.051400
vn -0.732900 0.314300 -0.603400
vn -0.233800 0.971900 -0.026700
vn 0.622400 0.732700 0.275300
vn 0.909500 -0.215200 -0.355600
vn -0.669600 0.288900 -0.684200
vn -0.371400 -0.792900 -0.483200
vn -0.952000 -0.305300 0.019600
vn -0.694700 0.427500 0.578500
vn -0.123000 -0.161900 -0.979100
vn 0.658300 -0.241100 0.713100
vn -0.064600 -0.996800 0.048000
vn 0.359000 -0.464000 0.809900
vn 0.479000 -0.208900 0.852600
vn 0.622800 0.779500 0.068100
vn -0.439300 -0.007600 -0.898300
vn -0.237000 -0.949200 -0.206800
usemtl OCODWA4RINGS
s off
f 37/1/1 36/2/1 20/3/1
f 19/4/2 20/3/2 31/5/2
f 37/1/3 17/6/3 36/2/3
f 37/1/4 20/3/4 19/4/4
f 38/7/5 24/8/5 46/9/5
f 45/10/5 8/11/5 24/8/5
f 46/9/5 24/8/5 8/11/5
f 11/12/6 78/13/6 52/14/6
f 71/15/7 63/16/7 70/17/7
f 4/18/7 70/17/7 63/16/7
f 62/19/7 63/16/7 71/15/7
f 6/20/8 75/21/8 66/22/8
f 77/23/6 52/14/6 78/13/6
f 14/24/6 77/23/6 78/13/6
f 86/25/9 15/26/9 82/27/9
f 83/28/10 82/27/10 15/26/10
f 22/29/9 86/25/9 82/27/9
f 75/21/8 93/30/8 66/22/8
f 94/31/8 66/22/8 93/30/8
usemtl MOWOBARK03
f 60/32/11 3/33/11 61/34/11
f 56/35/12 26/36/12 73/37/12
f 25/38/13 41/39/13 87/40/13
f 79/41/14 67/42/14 49/43/14
f 97/44/15 64/45/15 65/46/15
f 28/47/16 80/48/16 51/49/16
f 51/50/17 59/51/17 28/52/17
f 79/53/18 50/54/18 92/55/18
f 5/56/19 92/55/19 50/54/19
f 92/57/20 5/58/20 68/59/20
f 35/60/21 18/61/21 9/62/21
f 56/63/22 91/64/22 26/65/22
f 3/33/23 27/66/23 61/34/23
f 27/67/24 31/68/24 84/69/24
f 68/59/25 90/70/25 10/71/25
f 81/72/26 37/73/26 29/74/26
f 12/75/27 74/76/27 11/77/27
f 74/76/28 12/75/28 29/78/28
f 69/79/29 52/80/29 42/81/29
f 42/81/30 23/82/30 69/79/30
f 78/83/31 11/77/31 74/76/31
f 42/81/32 52/80/32 77/84/32
f 16/85/33 3/33/33 60/32/33
f 60/86/34 82/87/34 16/88/34
f 44/89/35 86/90/35 73/37/35
f 44/89/36 73/37/36 26/36/36
f 17/91/37 10/92/37 7/93/37
f 36/94/38 7/95/38 84/96/38
f 55/97/39 88/98/39 18/61/39
f 59/99/40 94/100/40 58/101/40
f 10/92/41 17/91/41 37/102/41
f 31/68/42 20/103/42 84/69/42
f 84/96/43 20/104/43 36/94/43
f 97/105/44 87/106/44 64/107/44
f 47/108/45 65/46/45 64/45/45
f 15/109/46 86/90/46 44/89/46
f 83/110/47 16/88/47 82/87/47
f 23/111/48 88/98/48 2/112/48
f 23/113/49 42/114/49 39/115/49
f 2/112/50 69/116/50 23/111/50
f 89/117/51 19/118/51 27/67/51
f 45/119/52 24/120/52 5/58/52
f 50/121/53 79/41/53 49/43/53
f 87/106/54 57/122/54 25/123/54
f 73/37/55 72/124/55 56/35/55
f 26/125/56 27/126/56 3/127/56
f 16/128/57 26/125/57 3/127/57
f 27/126/58 26/125/58 91/129/58
f 89/130/59 27/126/59 91/129/59
f 28/131/60 85/132/60 54/133/60
f 37/102/61 81/134/61 10/92/61
f 29/135/62 12/136/62 2/137/62
f 30/138/63 80/48/63 76/139/63
f 76/140/64 75/141/64 30/142/64
f 59/51/65 51/50/65 94/143/65
f 19/118/66 31/68/66 27/67/66
f 21/144/67 43/145/67 32/146/67
f 21/144/68 32/146/68 62/147/68
f 10/148/69 33/149/69 7/150/69
f 43/145/70 40/151/70 32/146/70
f 90/70/71 68/59/71 34/152/71
f 49/153/72 38/154/72 46/155/72
f 67/156/73 90/157/73 49/153/73
f 33/149/74 96/158/74 7/150/74
f 7/93/75 36/159/75 17/91/75
f 37/73/76 19/160/76 29/74/76
f 34/152/77 53/161/77 38/162/77
f 29/163/78 39/164/78 74/165/78
f 89/166/79 29/74/79 19/160/79
f 65/167/80 47/168/80 40/169/80
f 96/170/81 33/171/81 95/172/81
f 84/173/82 7/174/82 41/175/82
f 41/175/83 7/174/83 96/176/83
f 13/177/84 39/164/84 42/178/84
f 42/178/85 77/179/85 13/177/85
f 43/145/86 87/40/86 41/39/86
f 43/145/87 41/39/87 40/151/87
f 44/180/88 26/125/88 16/128/88
f 16/88/89 83/110/89 44/181/89
f 5/182/90 50/183/90 45/184/90
f 46/185/91 8/186/91 49/43/91
f 48/187/92 4/188/92 32/146/92
f 32/146/93 40/151/93 48/187/93
f 48/189/94 40/169/94 47/168/94
f 47/168/95 70/190/95 48/189/95
f 49/153/96 90/157/96 34/191/96
f 34/191/97 38/154/97 49/153/97
f 50/121/98 49/43/98 8/186/98
f 8/192/99 45/184/99 50/183/99
f 51/49/100 30/138/100 66/193/100
f 30/138/101 51/49/101 80/48/101
f 11/194/102 52/195/102 12/196/102
f 24/120/103 38/162/103 53/161/103
f 53/161/104 5/58/104 24/120/104
f 81/197/105 54/198/105 10/199/105
f 68/59/106 10/71/106 92/57/106
f 55/97/107 2/112/107 88/98/107
f 58/200/108 93/201/108 76/140/108
f 72/202/109 9/62/109 56/63/109
f 9/62/21 18/61/21 88/98/21
f 57/203/110 35/60/110 9/62/110
f 9/204/111 25/205/111 57/206/111
f 55/97/112 85/207/112 58/101/112
f 58/208/113 2/137/113 55/209/113
f 85/210/114 28/52/114 59/51/114
f 59/99/115 58/101/115 85/207/115
f 60/211/116 61/212/116 1/213/116
f 1/214/117 82/215/117 60/216/117
f 1/213/118 61/212/118 72/217/118
f 25/218/119 61/34/119 27/66/119
f 63/219/120 62/147/120 32/146/120
f 47/108/121 64/45/121 70/220/121
f 32/146/122 4/188/122 63/219/122
f 64/107/123 21/221/123 71/222/123
f 71/223/124 70/220/124 64/45/124
f 95/224/125 57/203/125 65/46/125
f 65/167/126 40/169/126 95/172/126
f 66/193/127 30/138/127 6/225/127
f 93/226/128 58/101/128 94/100/128
f 67/156/129 35/227/129 90/157/129
f 67/42/130 79/41/130 35/60/130
f 53/161/131 34/152/131 68/59/131
f 53/161/132 68/59/132 5/58/132
f 12/136/133 69/228/133 2/137/133
f 69/116/134 12/196/134 52/195/134
f 48/189/135 70/190/135 4/229/135
f 62/230/136 71/222/136 21/221/136
f 9/62/137 72/202/137 25/231/137
f 61/212/138 25/205/138 72/217/138
f 1/232/139 72/124/139 73/37/139
f 73/37/140 22/233/140 1/232/140
f 13/177/141 74/165/141 39/164/141
f 74/165/142 13/177/142 78/234/142
f 6/225/143 30/138/143 75/235/143
f 76/236/144 2/137/144 58/208/144
f 76/139/145 80/48/145 2/237/145
f 13/177/146 77/179/146 14/238/146
f 14/238/147 78/234/147 13/177/147
f 18/239/148 35/240/148 79/241/148
f 79/242/149 92/243/149 18/244/149
f 80/48/150 29/245/150 2/237/150
f 80/48/151 28/47/151 29/245/151
f 81/197/152 28/246/152 54/198/152
f 81/247/153 29/245/153 28/47/153
f 22/248/154 82/215/154 1/214/154
f 15/249/155 44/181/155 83/110/155
f 84/173/156 25/250/156 27/251/156
f 84/173/157 41/175/157 25/250/157
f 85/207/158 55/97/158 18/61/158
f 54/133/159 85/132/159 18/239/159
f 86/90/160 22/233/160 73/37/160
f 87/40/161 43/145/161 21/144/161
f 64/107/162 87/106/162 21/221/162
f 91/64/163 56/63/163 88/98/163
f 88/98/164 56/63/164 9/62/164
f 23/113/165 39/115/165 89/252/165
f 29/163/166 89/253/166 39/164/166
f 33/254/167 10/71/167 90/70/167
f 90/157/168 35/227/168 33/255/168
f 23/113/169 89/252/169 91/256/169
f 23/111/170 91/64/170 88/98/170
f 54/257/171 18/244/171 92/243/171
f 92/258/172 10/199/172 54/198/172
f 75/141/173 76/140/173 93/201/173
f 94/143/174 51/50/174 66/259/174
f 95/224/175 35/60/175 57/203/175
f 35/260/176 95/172/176 33/171/176
f 96/170/177 95/172/177 40/169/177
f 40/151/178 41/39/178 96/261/178
f 97/105/179 57/122/179 87/106/179
f 97/44/180 65/46/180 57/203/180
