# Blender v2.75 (sub 0) OBJ File: 'Empty.blend'
# www.blender.org
mtllib OW_LOB_WOODPLANKS_V4.mtl
o OW_LOB_WOODPLANKS_V4
v -2.983646 -0.240914 -1.216940
v -3.010544 -0.139511 1.480219
v -1.440158 -0.048467 -1.205201
v -1.465197 -0.217846 -1.391375
v -1.510197 -0.121130 1.306980
v 0.008573 0.197751 1.243053
v -1.476283 0.049400 1.442808
v 0.001745 -0.050000 -1.499985
v 0.000253 -0.050000 1.350438
v 1.498279 0.149919 1.476602
v 0.003550 0.101909 -1.405271
v 1.447161 0.149919 -1.324717
v -4.076319 -0.260874 -1.419985
v -4.077811 -0.260926 1.430439
v -2.978761 -0.010633 -1.324717
v -3.007674 -0.008849 1.576602
v 1.706100 -0.091897 1.274179
v -4.219535 -0.212367 0.685754
v -4.177790 -0.213096 0.388673
v 1.558343 -0.091777 -0.900000
v -3.938379 -0.266778 -0.700000
v 1.558343 -0.091777 -1.200000
v -3.938379 -0.266778 -1.000000
v 1.747846 -0.092626 0.977099
v -2.962642 -0.042218 -1.223734
v -2.989540 0.059185 1.473425
v -0.006906 -0.097614 -1.398294
v -0.001883 -0.001772 1.250030
v -1.454741 -0.018323 -1.398352
v -1.499741 0.078394 1.300003
v 0.000253 0.099919 1.350438
v 0.001745 0.099919 -1.499985
v 1.498279 -0.000000 1.476602
v 1.447161 -0.000000 -1.324717
v -4.081552 -0.111046 -1.419985
v -2.973529 -0.160460 -1.324717
v -3.002442 -0.158676 1.576602
v -4.083043 -0.111099 1.430439
v -1.497288 -0.099296 1.449602
v -1.461163 -0.197163 -1.198408
v -3.929670 -0.366317 -1.000000
v 1.740961 0.007048 0.975887
v 1.699215 0.007777 1.272967
v -4.212650 -0.312041 0.686966
v -4.170904 -0.312770 0.389885
v 1.549634 0.007762 -1.200000
v 1.549634 0.007762 -0.900000
v -3.929670 -0.366317 -0.700000
vt 0.478524 -1.157182
vt -0.563815 -0.576765
vt 0.471267 -0.562457
vt 0.496445 1.130138
vt 0.447704 0.537128
vt -0.554664 1.213064
vt -0.970325 -0.641407
vt -0.948042 -0.050381
vt 0.084444 -0.626958
vt -0.734024 -0.058761
vt 0.370480 0.432872
vt -0.660314 0.528073
vt -0.575796 -1.167892
vt -0.583963 0.622344
vt -0.527503 0.001426
vt -0.576786 0.586918
vt 0.585943 0.002008
vt -0.527521 0.000565
vt 0.517462 -0.564971
vt -0.576804 -0.584927
vt 0.087127 -0.055381
vt 0.317991 -0.136296
vt 0.517480 0.566962
vt 0.585926 -0.000017
vt 0.484452 -1.753202
vt -0.686111 -1.331915
vt 0.447216 -1.320704
vt 0.484645 -0.264222
vt 0.447432 0.168337
vt -0.628801 -0.264804
vt -0.628989 -1.753785
vt -0.685897 0.157156
vt 0.000500 -0.762284
vt 0.992504 -0.999500
vt 0.007496 -0.642273
vt 0.836983 0.472791
vt -1.486036 0.377954
vt 0.836959 0.589979
vt -0.692698 0.294760
vt 1.434885 0.639324
vt 1.443060 0.522422
vt 0.047622 -0.081293
vt 0.967434 -0.121690
vt 0.967434 -0.000500
vt 0.047622 -0.202483
vt -0.700872 0.411662
vt -1.486060 0.495141
vt 0.999501 -0.879489
vt 0.459403 -0.862272
vt -0.594276 -0.709098
vt 0.462057 -0.550079
vt -1.163296 0.013431
vt -0.568533 0.002474
vt -1.171508 -0.297206
vt -0.591622 -0.396905
vt -1.187233 0.304424
vt -0.596008 0.239841
vt -1.179035 -0.006219
vt -0.571321 0.250035
vt 0.002409 -0.250035
vt -0.001675 0.061910
vt 0.548934 -0.159305
vt -0.488293 0.002919
vt 0.546209 0.152878
vt -0.603323 -0.055171
vt -0.017862 0.067434
vt -0.013774 -0.244511
vt -0.485568 -0.309264
vt 0.532918 -0.458268
vt -0.521308 -0.310985
vt 0.535644 -0.146085
vt -0.567237 -0.061910
vt -0.518582 0.001198
vt -0.607410 0.256775
vt 0.585932 0.156123
vt -0.527515 -0.078125
vt -0.527515 0.156123
vt 0.044369 0.078125
vt 0.631607 -0.000000
vt 0.044369 -0.156123
vt 0.585932 -0.078125
vt -0.069855 0.156123
vt 0.498896 0.234248
vt -0.069855 -0.078125
vt 0.631607 -0.234248
vt -0.587380 -0.234248
vt -0.587380 -0.000000
vt 0.507068 -0.234248
vt 0.498896 -0.000000
vt 0.507068 -0.000000
vt 0.553846 -0.185078
vt -0.559600 -0.185078
vt 0.553846 0.049171
vt -1.636055 -0.180181
vt -1.203684 -0.022838
vt -1.634004 -0.414286
vt -1.201632 -0.256942
vt 0.337256 -0.097217
vt -0.418333 0.056041
vt 0.337256 0.058949
vt -1.505466 0.163016
vt -1.079501 0.236275
vt -1.081563 0.002172
vt -0.418333 -0.100125
vt -0.559600 0.049171
vt -1.503403 0.397119
vt -0.587795 0.007269
vt -0.571815 0.043466
vt -0.574542 0.277202
vt 0.462688 0.193224
vt -0.576734 -0.230104
vt 0.000000 -0.000000
vt 0.390625 -0.035029
vt 0.273438 -0.035029
vt 0.390625 0.121095
vt -1.523242 -0.411879
vt 0.621924 0.018080
vt -1.519837 -0.567408
vt -1.606267 -0.491921
vt 0.714437 0.002942
vt 0.717140 -0.152806
vt -0.283446 0.181080
vt -0.401103 0.331450
vt -0.283924 0.337191
vt -1.613718 0.337490
vt 0.712392 0.154124
vt 0.709690 -0.001625
vt -0.400625 0.175338
vt -0.376868 0.128778
vt -0.494525 -0.021592
vt -0.494047 0.134520
vt -1.611015 0.493239
vt -0.377346 -0.027333
vt -1.608970 -0.336172
vt 0.625328 -0.137448
vt 0.468750 0.198944
vt 0.351562 0.355067
vt 0.468750 0.355067
vt -1.527491 0.413367
vt 0.621079 0.138936
vt 0.617675 -0.016593
vt 0.351562 0.198944
vt 0.273438 0.121095
vt -1.524087 0.568895
vn 0.004600 0.999300 -0.036900
vn 0.028200 -0.998900 0.037800
vn -0.080200 0.996100 -0.037000
vn 0.080200 -0.996100 0.035900
vn 0.005700 0.999300 -0.037500
vn 0.027300 -0.998900 0.037300
vn -0.033400 0.999400 -0.000000
vn 0.033400 -0.999400 -0.000600
vn -0.082300 0.996000 -0.035900
vn 0.082300 -0.995900 0.037100
vn -0.034600 0.999400 0.000600
vn 0.034600 -0.999400 0.000000
vn -0.090500 0.995900 -0.001500
vn 0.090700 -0.995900 0.000000
vn -0.094700 0.995500 -0.000000
vn 0.094400 -0.995500 0.001600
vn -0.036400 0.999300 -0.007600
vn 0.036400 -0.999300 0.007600
vn 0.050000 -0.998800 0.000000
vn -0.050000 0.998800 0.000000
vn -0.994400 0.104600 -0.013900
vn 0.012000 -0.035400 -0.999300
vn 0.019400 0.032100 0.999300
vn -0.001900 -0.034800 -0.999400
vn 0.998600 -0.052300 0.000000
vn 0.035100 0.033100 0.998800
vn -0.998500 0.051700 -0.018500
vn -1.000000 0.000000 -0.000500
vn -0.083900 0.000000 0.996500
vn 0.120400 0.000000 -0.992700
vn 0.999800 0.000000 -0.018200
vn -0.999400 -0.034900 -0.000500
vn 0.085800 0.003000 -0.996300
vn 0.999300 0.034900 0.009900
vn -0.134200 -0.004700 0.990900
vn 0.020500 0.042700 0.998900
vn 0.990100 -0.139000 0.018600
vn 0.013500 -0.047500 -0.998800
vn -0.996200 -0.087200 0.000000
vn -0.036300 -0.003200 -0.999300
vn 0.098900 -0.005300 -0.995100
vn 0.987900 0.069900 0.138600
vn -0.098900 0.005300 0.995100
vn -0.987900 -0.069900 -0.138600
vn 0.996200 0.087200 0.000000
vn 0.036300 0.003200 0.999300
usemtl OW_LOB_WOODPLANKS_V4_1
s off
f 25/1/1 7/2/1 3/3/1
f 1/4/2 40/5/2 2/6/2
f 30/7/3 6/8/3 29/9/3
f 5/10/4 27/11/4 28/12/4
f 26/13/5 7/2/5 25/1/5
f 2/6/6 40/5/6 39/14/6
f 31/15/7 10/16/7 32/17/7
f 9/18/8 34/19/8 33/20/8
f 29/9/9 6/8/9 11/21/9
f 4/22/10 27/11/10 5/10/10
f 32/17/11 10/16/11 12/23/11
f 8/24/12 34/19/12 9/18/12
f 35/25/13 16/26/13 15/27/13
f 13/28/14 36/29/14 14/30/14
f 38/31/15 16/26/15 35/25/15
f 14/30/16 36/29/16 37/32/16
f 18/33/17 43/34/17 19/35/17
f 45/36/18 24/37/18 44/38/18
f 48/39/19 22/40/19 20/41/19
f 23/42/20 47/43/20 46/44/20
f 21/45/20 47/43/20 23/42/20
f 41/46/19 22/40/19 48/39/19
f 44/38/18 24/37/18 17/47/18
f 19/35/17 43/34/17 42/48/17
f 1/49/21 2/50/21 25/51/21
f 25/52/22 3/53/22 1/54/22
f 25/51/21 2/50/21 26/55/21
f 2/56/23 39/57/23 26/58/23
f 4/59/24 11/60/24 27/61/24
f 11/62/25 28/63/25 27/64/25
f 30/65/26 28/66/26 6/67/26
f 6/68/25 28/63/25 11/62/25
f 4/69/27 5/70/27 29/71/27
f 29/72/24 11/60/24 4/59/24
f 29/71/27 5/70/27 30/73/27
f 5/74/26 28/66/26 30/65/26
f 32/75/28 9/76/28 31/77/28
f 9/78/29 33/79/29 31/80/29
f 8/81/28 9/76/28 32/75/28
f 32/82/30 12/83/30 8/84/30
f 31/80/29 33/79/29 10/85/29
f 10/86/31 33/87/31 12/88/31
f 8/84/30 12/83/30 34/89/30
f 12/88/31 33/87/31 34/90/31
f 13/91/32 14/92/32 35/93/32
f 35/94/33 15/95/33 13/96/33
f 13/96/33 15/95/33 36/97/33
f 15/98/34 37/99/34 36/100/34
f 38/101/35 37/102/35 16/103/35
f 16/104/34 37/99/34 15/98/34
f 35/93/32 14/92/32 38/105/32
f 14/106/35 37/102/35 38/101/35
f 26/58/36 39/57/36 7/107/36
f 7/108/37 39/109/37 3/110/37
f 1/54/38 3/53/38 40/111/38
f 3/112/37 39/112/37 40/112/37
f 41/113/39 48/114/39 23/115/39
f 23/116/40 46/117/40 41/118/40
f 45/119/41 42/120/41 24/121/41
f 42/122/42 17/123/42 24/124/42
f 18/125/43 17/126/43 43/127/43
f 43/128/42 17/123/42 42/122/42
f 19/129/44 44/130/44 18/131/44
f 44/132/43 17/126/43 18/125/43
f 45/133/44 44/130/44 19/129/44
f 19/134/41 42/120/41 45/119/41
f 41/118/40 46/117/40 22/135/40
f 46/136/45 20/137/45 22/138/45
f 21/139/46 20/140/46 47/141/46
f 47/142/45 20/137/45 46/136/45
f 23/115/39 48/114/39 21/143/39
f 48/144/46 20/140/46 21/139/46
