# Blender v2.75 (sub 0) OBJ File: 'Empty.blend'
# www.blender.org
mtllib OW_LOB_WOODPLANKS_V3.mtl
o OW_LOB_WOODPLANKS_V3
v 0.155000 -0.122558 2.169272
v 0.155000 0.262442 -2.310728
v -0.020000 -0.122558 -2.380728
v 0.155000 0.262442 2.134272
v -0.020000 -0.122558 2.169272
v -0.020000 0.262442 -2.310728
v 0.155000 -0.122558 -2.345728
v -0.020000 0.262442 2.064272
vt 0.334681 0.106016
vt 0.215993 0.362816
vt 0.330672 0.362816
vt 0.283460 -0.321180
vt 0.166239 -0.063706
vt 0.282355 -0.063706
vt 0.165099 -0.324317
vt 0.211557 0.097873
vt 0.902628 0.410065
vt 0.929972 -0.191497
vt -0.847372 -0.191497
vt 0.902628 -0.410065
vt -0.847372 0.191497
vt 0.916300 0.191497
vt -0.833700 -0.410066
vt -0.806356 0.410066
vt -0.847372 -0.462187
vt -0.847372 -0.188750
vt 0.929972 -0.188750
vt -0.806356 -0.031250
vt 0.902628 0.242188
vt 0.902628 -0.031250
vt 0.916300 -0.462187
vt -0.833700 0.242188
vn 0.000000 0.090500 0.995900
vn 0.000000 0.090500 -0.995900
vn 0.193100 0.175500 -0.965400
vn -0.360000 0.245500 0.900100
vn -1.000000 0.000000 0.000000
vn 1.000000 0.000000 0.000000
vn 0.000000 -1.000000 0.000000
vn 0.000000 1.000000 -0.000000
usemtl WA4RINGS
s off
f 4/1/1 5/2/1 1/3/1
f 7/4/2 6/5/2 2/6/2
f 6/5/3 7/4/3 3/7/3
f 5/2/4 4/1/4 8/8/4
usemtl OW_OLDWOOD
f 6/9/5 3/10/5 5/11/5
f 2/12/6 1/13/6 7/14/6
f 2/12/6 4/15/6 1/13/6
f 6/9/5 5/11/5 8/16/5
f 1/17/7 5/18/7 3/19/7
f 8/20/8 2/21/8 6/22/8
f 1/17/7 3/19/7 7/23/7
f 8/20/8 4/24/8 2/21/8
