# Blender v2.75 (sub 0) OBJ File: 'Empty.blend'
# www.blender.org
mtllib OW_MISC_BURNED_PLANK_01.mtl
o OW_MISC_BURNED_PLANK_01
v -0.107460 1.712647 -0.049458
v -0.156191 -1.791556 -0.049458
v 0.156209 -1.803269 0.049438
v 0.156209 1.803289 0.049438
v 0.156209 -1.683775 -0.049458
v -0.156191 -1.683775 0.049438
v 0.156209 1.710275 -0.049458
v -0.107460 1.634785 0.049438
vt 0.933383 -0.999501
vt 0.999967 -0.999501
vt 0.999967 -0.000500
vt 0.000033 -0.999501
vt 0.066617 -0.999501
vt 0.066617 -0.000500
vt 0.933383 -0.000500
vt 0.000033 -0.000500
vt 0.000033 -0.832545
vt 0.000033 -0.887214
vt 0.066617 -0.887214
vt 0.112786 -0.999501
vt 0.167455 -0.999501
vt 0.167455 -0.000500
vt 0.066617 -0.832545
vt 0.832545 -0.999501
vt 0.887214 -0.999501
vt 0.887214 -0.000500
vt 0.933383 -0.887214
vt 0.999967 -0.887214
vt 0.999967 -0.832545
vt 0.112786 -0.000500
vt 0.933383 -0.832545
vt 0.832545 -0.000500
vn -0.000000 0.000000 1.000000
vn 0.000000 0.000000 -1.000000
vn -0.236900 -0.619400 -0.748400
vn 1.000000 0.000000 0.000000
vn 0.227200 -0.658400 0.717600
vn -0.999800 0.014700 -0.016000
vn -0.422000 0.660400 -0.621100
vn 0.007100 0.785700 0.618600
vn -0.999800 0.013900 0.010900
usemtl OW_MISC_BURNED_WOOD_01
s off
f 6/1/1 3/2/1 4/3/1
f 5/4/2 2/5/2 1/6/2
f 4/3/1 8/7/1 6/1/1
f 1/6/2 7/8/2 5/4/2
f 5/9/3 3/10/3 6/11/3
f 3/12/4 5/13/4 7/14/4
f 6/11/5 2/15/5 5/9/5
f 2/16/6 6/17/6 8/18/6
f 8/19/7 4/20/7 7/21/7
f 7/14/4 4/22/4 3/12/4
f 7/21/8 1/23/8 8/19/8
f 8/18/9 1/24/9 2/16/9
