# Blender v2.75 (sub 0) OBJ File: 'Empty.blend'
# www.blender.org
mtllib OW_MISC_BURNED_POLE_01.mtl
o OW_MISC_BURNED_POLE_01
v -0.113832 -2.224251 0.074182
v 0.145826 2.101875 0.092657
v -0.128299 2.208080 -0.128495
v 0.153515 -2.192681 -0.168854
v -0.114736 -2.205879 -0.168854
v 0.154318 -2.209003 0.047071
v -0.116923 1.976844 0.098411
v 0.159901 2.005010 -0.093557
vt 0.000033 -0.999500
vt 0.000033 -0.000499
vt 0.065925 -0.066062
vt 0.936280 -0.031947
vt 0.999967 -0.066062
vt 0.999967 -0.999500
vt 0.936280 -0.999500
vt 0.162579 -0.000499
vt 0.162579 -0.999500
vt 0.085009 -0.999500
vt 0.063720 -0.999500
vt 0.910476 -0.031947
vt 0.906339 -0.999500
vt 0.837421 -0.999500
vt 0.934075 -0.853721
vt 0.999967 -0.837421
vt 0.999967 -0.914991
vt 0.085009 -0.066062
vt 0.936280 -0.910476
vt 0.853721 -0.066062
vn 0.126900 0.009500 -0.991900
vn 0.024600 -0.005700 0.999700
vn 0.101200 -0.010300 0.994800
vn -1.000000 -0.003100 0.003500
vn -0.000900 0.017900 -0.999800
vn 1.000000 0.002000 -0.003600
vn 0.383700 0.656300 0.649600
vn -0.998800 -0.001000 0.049000
vn -0.392200 0.803600 -0.447700
vn 0.997000 -0.002900 0.076900
usemtl OW_MISC_BURNED_WOOD_01
s off
f 5/1/1 3/2/1 8/3/1
f 2/4/2 7/5/2 1/6/2
f 1/6/3 6/7/3 2/4/3
f 3/8/4 5/9/4 1/10/4
f 8/3/5 4/11/5 5/1/5
f 2/12/6 6/13/6 4/14/6
f 8/15/7 3/16/7 7/17/7
f 1/10/8 7/18/8 3/8/8
f 7/17/9 2/19/9 8/15/9
f 4/14/10 8/20/10 2/12/10
