# Blender v2.75 (sub 0) OBJ File: 'Empty.blend'
# www.blender.org
mtllib OW_MISC_BURNED_WALL_03.mtl
o OW_MISC_BURNED_WALL_03
v -0.910143 3.485127 -0.342998
v 2.686745 1.305446 -0.297818
v -2.568957 3.948035 -0.264123
v -2.568957 3.232321 -0.264123
v -3.131511 3.009736 -0.294630
v -3.031586 3.725450 -0.342998
v -3.505150 -0.121498 0.042607
v -3.033216 4.175750 -0.264097
v -3.301791 4.278266 -0.493640
v 2.677598 -0.121498 0.010122
v 2.705780 4.175750 -0.296581
v 2.437205 4.278265 -0.526125
v 2.946173 -0.121498 -0.233609
v -3.236575 -0.121498 -0.201125
v -0.169881 -1.336571 0.587586
v -2.094993 5.482579 -0.647735
v -0.521964 -1.313091 0.618988
v -1.900280 5.710726 -0.569607
v 1.389824 1.980500 -0.264124
v -0.910143 3.280966 -0.342998
v -3.505150 -0.121498 -0.201125
v 2.677598 -0.121498 -0.233609
v -3.236575 -0.121498 0.015418
v 2.946173 -0.121498 -0.017066
v -0.477274 -1.431801 0.513115
v 1.389824 1.898145 -0.264124
v -3.301791 4.064535 -0.249910
v -3.023918 4.064535 -0.442426
v 2.437205 4.064534 -0.282394
v 2.715077 4.064534 -0.474911
v -0.281999 -1.104374 0.478344
v -1.865778 5.614818 -0.675699
v -2.011598 5.314662 -0.539111
v -0.910143 3.280966 -0.264123
v -3.131511 3.009736 -0.373505
v 2.686745 1.305446 -0.218943
v -2.568957 3.232321 -0.342998
v -3.234945 -0.080513 -0.002114
v -3.234945 -0.080513 -0.080989
v 1.389824 1.898145 -0.342998
v -3.131511 3.009736 -0.342998
v 2.927139 -0.080513 -0.050114
v 2.927139 -0.080513 -0.128989
v 1.447660 1.613969 -0.342998
v 2.719326 1.305446 -0.219312
vt -0.230367 -0.999501
vt 0.691271 -0.411461
vt 0.232927 -0.000499
vt 1.230367 -0.999501
vt 0.767073 -0.000499
vt 0.308729 -0.411461
vt -0.097647 -0.014956
vt -0.097647 -0.036551
vt 0.232927 -0.010239
vt -0.097647 -0.010239
vt 0.000033 -0.999500
vt 0.000033 -0.000499
vt 0.065925 -0.066062
vt 0.936280 -0.031947
vt 0.999967 -0.066062
vt 0.999967 -0.999500
vt 0.936280 -0.999500
vt 0.162579 -0.000499
vt 0.162579 -0.999500
vt 0.085009 -0.999500
vt 0.933383 -0.999501
vt 0.999967 -0.000500
vt 0.066617 -0.999501
vt 0.066617 -0.000500
vt 0.933383 -0.000500
vt 0.997632 -0.999501
vt 0.691271 -0.036551
vt 0.691271 -0.010239
vt 0.063720 -0.999500
vt 0.910476 -0.031947
vt 0.906339 -0.999500
vt 0.837421 -0.999500
vt 0.832545 -0.999501
vt 0.887214 -0.999501
vt 0.887214 -0.000500
vt 0.934075 -0.853721
vt 0.999967 -0.837421
vt 0.999967 -0.914991
vt 0.085009 -0.066062
vt 0.936280 -0.910476
vt 0.853721 -0.066062
vt 0.112786 -0.999501
vt 0.167455 -0.999501
vt 0.167455 -0.000500
vt 0.933383 -0.887214
vt 0.999967 -0.887214
vt 0.999967 -0.832545
vt 0.112786 -0.000500
vt 0.933383 -0.832545
vt 0.832545 -0.000500
vt 0.232927 -0.036551
vt -0.209754 -0.000062
vt -0.209754 -0.026374
vt 0.949725 -0.025311
vt 0.949725 -0.051624
vt 1.097647 -0.014956
vt -0.209754 -0.081107
vt 1.209754 -0.081107
vt 0.050275 -0.587606
vt 0.949725 -0.587606
vt 0.002368 -0.999501
vt 0.814758 -0.572289
vt 1.347124 -0.319208
vt 1.347124 -0.000811
vt 1.594548 -0.319333
vt 1.594548 -0.000827
vt 0.814758 -0.000844
vt -0.131821 -0.564797
vt -0.131821 -0.000887
vt -0.783074 -0.565676
vt -0.783074 -0.001003
vn 0.033000 0.054900 0.997900
vn -0.033000 -0.054900 -0.997900
vn -0.002300 0.079300 0.996800
vn -0.029300 0.999600 0.000000
vn 0.127200 -0.071700 -0.989300
vn 0.024300 0.068500 0.997400
vn 0.137500 -0.058200 -0.988800
vn 0.023300 0.071000 0.997200
vn 0.100500 0.070200 0.992500
vn -0.998500 -0.054600 0.000000
vn 0.100500 0.059800 0.993100
vn -0.998900 0.046200 0.000000
vn 0.099500 0.185000 0.977700
vn 0.073300 -0.148400 -0.986200
vn -0.188200 0.127900 0.973800
vn -0.019900 -0.173800 -0.984600
vn 0.007700 0.113500 0.993500
vn 0.515300 0.857000 0.000000
vn 0.000000 -0.057500 -0.998300
vn 0.998900 -0.047300 0.000000
vn 0.998400 0.055900 0.000000
vn -0.961100 -0.239900 -0.136700
vn 0.415500 0.683900 0.599700
vn -0.997600 0.051600 0.045300
vn -0.352200 0.785800 -0.508400
vn 0.995700 -0.045900 0.080600
vn -0.996700 -0.061000 -0.053500
vn 0.998300 0.056100 0.017100
vn 0.768500 0.071900 -0.635800
vn -0.860500 0.206000 -0.466000
vn 0.964100 0.251000 0.086700
vn -0.168600 0.475000 0.863700
vn -0.870100 -0.123500 0.477200
vn -0.367900 0.929900 0.000000
vn 0.415700 0.909500 0.000000
vn 0.002300 -0.079300 -0.996800
vn -0.092100 0.096900 0.991000
vn 0.092100 -0.096900 -0.991000
vn -0.012300 -0.102800 -0.994600
vn 0.022400 0.124700 0.991900
vn -0.007700 -0.122200 -0.992500
vn -0.047500 0.000000 -0.998900
vn 0.047500 0.000000 0.998900
vn 0.190900 0.000000 -0.981600
vn 0.158700 0.019900 -0.987100
vn -0.179700 0.025100 0.983400
vn 0.034300 0.000000 -0.999400
vn -0.034300 0.000000 0.999400
vn -0.026000 0.000000 -0.999700
vn -0.138900 0.000000 0.990300
vn -0.091000 -0.223200 0.970500
vn -0.033700 0.000000 0.999400
usemtl OW_MISC_BURNED_WOOD_01
s off
f 38/1/1 26/2/1 34/3/1
f 39/4/2 20/5/2 40/6/2
f 38/1/3 34/3/3 4/7/3
f 4/8/4 20/9/4 37/10/4
f 21/11/5 9/12/5 28/13/5
f 8/14/6 27/15/6 7/16/6
f 22/11/7 12/12/7 30/13/7
f 11/14/8 29/15/8 10/16/8
f 10/16/9 24/17/9 11/14/9
f 12/18/10 22/19/10 10/20/10
f 7/16/11 23/17/11 8/14/11
f 9/18/12 21/19/12 7/20/12
f 17/21/13 15/16/13 18/22/13
f 31/11/14 25/23/14 16/24/14
f 18/22/15 33/25/15 17/21/15
f 16/24/16 32/12/16 31/11/16
f 26/2/17 38/1/17 42/26/17
f 26/27/18 40/28/18 20/9/18
f 28/13/19 14/29/19 21/11/19
f 30/13/19 13/29/19 22/11/19
f 8/30/20 23/31/20 14/32/20
f 11/30/21 24/31/21 13/32/21
f 25/33/22 17/34/22 33/35/22
f 28/36/23 9/37/23 27/38/23
f 7/20/24 27/39/24 9/18/24
f 27/38/25 8/40/25 28/36/25
f 14/32/26 28/41/26 8/30/26
f 30/36/23 12/37/23 29/38/23
f 10/20/27 29/39/27 12/18/27
f 29/38/25 11/40/25 30/36/25
f 13/32/28 30/41/28 11/30/28
f 15/42/29 31/43/29 32/44/29
f 33/45/30 18/46/30 32/47/30
f 32/44/31 18/48/31 15/42/31
f 32/47/32 16/49/32 33/45/32
f 33/35/33 16/50/33 25/33/33
f 20/9/4 4/8/4 34/51/4
f 20/9/18 34/51/18 26/27/18
f 35/52/34 5/53/34 4/8/34
f 2/54/35 26/27/35 36/55/35
f 4/8/34 37/10/34 35/52/34
f 39/4/36 37/56/36 20/5/36
f 4/7/37 5/57/37 38/1/37
f 35/58/38 37/56/38 39/4/38
f 39/4/39 40/6/39 2/59/39
f 26/27/35 2/54/35 40/28/35
f 42/26/40 36/60/40 26/2/40
f 2/59/41 43/61/41 39/4/41
usemtl OW_MISC_BURNED_WOOD_04
f 20/62/42 4/63/42 3/64/42
f 4/63/43 20/62/43 3/64/43
f 4/63/44 35/65/44 3/64/44
f 6/66/45 3/64/45 35/65/45
f 3/64/46 6/66/46 41/65/46
f 3/64/42 1/67/42 20/62/42
f 26/68/47 20/62/47 1/67/47
f 1/67/43 3/64/43 20/62/43
f 20/62/48 26/68/48 1/67/48
f 1/67/47 19/69/47 26/68/47
f 2/70/49 26/68/49 19/69/49
f 19/69/48 1/67/48 26/68/48
f 41/65/50 4/63/50 3/64/50
f 19/69/51 44/71/51 2/70/51
f 26/68/52 45/70/52 19/69/52
