# Blender v2.75 (sub 0) OBJ File: 'Empty.blend'
# www.blender.org
mtllib OW_MISC_WALL_TORCH_01.mtl
o OW_MISC_WALL_TORCH_01
v -0.000982 0.372003 -0.201695
v 0.017167 -0.346011 0.158530
v 0.031974 0.338330 -0.123739
v -0.033939 0.291168 -0.227706
v 0.062407 0.116622 -0.087701
v -0.040548 0.119898 -0.011470
v -0.081106 0.090721 -0.075069
v -0.040548 0.061544 -0.138668
v -0.018342 -0.307421 0.141873
v 0.018362 -0.335290 0.084734
v -0.017141 -0.387255 0.111992
v -0.037280 -0.358997 0.129902
v 0.008975 0.126756 0.223365
v 0.008975 0.140310 -0.039133
v -0.008369 0.088146 -0.016943
v -0.008955 -0.323802 0.224811
v 0.008975 -0.307780 0.141735
v -0.008369 -0.358483 0.164322
v 0.017167 -0.371983 0.101275
v -0.008369 0.103258 0.223365
v 0.008389 -0.346601 0.227686
v 0.040568 0.119898 -0.011470
v 0.058325 0.064821 -0.062436
v -0.018342 -0.335290 0.084734
v 0.018362 -0.307421 0.141873
v 0.017161 -0.359058 0.165145
v 0.017161 -0.387255 0.111992
v -0.017141 -0.359058 0.165145
v -0.033939 0.338330 -0.123739
v 0.031974 0.291168 -0.227706
v 0.064930 0.314749 -0.175723
v -0.066895 0.314749 -0.175723
v 0.008975 -0.323802 0.224811
v -0.031188 0.140310 -0.039133
v -0.062387 0.116622 -0.087701
v 0.031208 0.092933 -0.136270
v 0.081126 0.090721 -0.075069
v 0.029167 0.088146 -0.016943
v 0.029167 0.041496 -0.107930
v -0.029147 0.041496 -0.107930
v 0.031208 0.140310 -0.039133
v -0.058305 0.064821 -0.062436
v 0.040568 0.061544 -0.138668
v -0.008955 0.126756 0.223365
v -0.036694 -0.321356 0.113303
v 0.036714 -0.321356 0.113303
v -0.008955 -0.307780 0.141735
v -0.008955 0.140310 -0.039133
v -0.019131 -0.371983 0.101275
v 0.035316 -0.358997 0.129902
v -0.019131 -0.346011 0.158530
v 0.034313 -0.373156 0.138568
v -0.034293 -0.373156 0.138568
v 0.008389 0.088146 -0.016943
v 0.008389 -0.358483 0.164322
v 0.008389 0.103258 0.223365
v -0.008369 -0.346601 0.227686
v -0.031188 0.092933 -0.136270
v -0.029147 0.088146 -0.016943
v 0.047725 -0.347256 0.125936
v -0.047705 -0.347256 0.125936
v 0.023868 -0.330706 0.163646
v 0.023868 -0.363806 0.088226
v -0.023848 -0.330706 0.163646
v -0.023848 -0.363806 0.088226
v 0.019399 0.334928 -0.223640
v 0.039780 0.349511 -0.191492
v -0.021363 0.334928 -0.223640
v -0.041744 0.349511 -0.191492
v 0.019399 0.364094 -0.159344
v -0.021363 0.364094 -0.159344
v -0.011645 -0.332723 0.225936
v 0.011665 -0.332723 0.225936
v 0.011665 0.117561 0.223365
v -0.011645 0.117561 0.223365
v 0.011665 -0.330492 0.163208
v -0.011645 -0.330492 0.163208
v 0.011665 0.119898 -0.011470
v -0.011645 0.119898 -0.011470
v -0.030943 0.113316 -0.027366
v -0.030943 0.070441 -0.121882
v 0.058938 0.091879 -0.074624
v 0.028978 0.113316 -0.027366
v -0.060903 0.091879 -0.074624
v 0.028978 0.070441 -0.121882
vt 0.846105 -0.701957
vt 0.846061 -0.240342
vt 0.846083 -0.164215
vt 0.904185 -0.164215
vt 0.904185 -0.241066
vt 0.904185 -0.701233
vt 0.875848 -0.700978
vt 0.875833 -0.573461
vt 0.904185 -0.573461
vt 0.875819 -0.445943
vt 0.846083 -0.573461
vt 0.875848 -0.036697
vt 0.875833 -0.164215
vt 0.177927 -0.462450
vt 0.163430 -0.672728
vt 0.800007 -0.477926
vt 0.836570 -0.672728
vt 0.822073 -0.462450
vt 0.199993 -0.477926
vt 0.443040 -0.482523
vt 0.445989 -0.667893
vt 0.609207 -0.497297
vt 0.554011 -0.667893
vt 0.556960 -0.482523
vt 0.390793 -0.497297
vt 0.800007 -0.572646
vt 0.199993 -0.572646
vt 0.386157 -0.589205
vt 0.613843 -0.589205
vt 0.904185 -0.291987
vt 0.875848 -0.855189
vt 0.846061 -0.854210
vt 0.875819 -0.291733
vt 0.846105 -0.292711
vt 0.846105 -0.444965
vt 0.904185 -0.036443
vt 0.904185 -0.445689
vt 0.846061 -0.743347
vt 0.422118 -0.909594
vt 0.422118 -0.090406
vt 0.655763 -0.500000
vt 0.577882 -0.909594
vt 0.480210 -0.386157
vt 0.480210 -0.606226
vt 0.519790 -0.606226
vt 0.846105 -0.497334
vt 0.846061 -0.035719
vt 0.904185 -0.819856
vt 0.476252 -0.104647
vt 0.476251 -0.800007
vt 0.523748 -0.800007
vt 0.519790 -0.386157
vt 0.523749 -0.104647
vt 0.577882 -0.090406
vt 0.344237 -0.500000
vt 0.522195 -0.800007
vt 0.522195 -0.163430
vt 0.477805 -0.163430
vt 0.518496 -0.613843
vt 0.518496 -0.445989
vt 0.481504 -0.445989
vt 0.477805 -0.800007
vt 0.481504 -0.613843
vt 0.606226 -0.438214
vt 0.393774 -0.438214
vt 0.199993 -0.417035
vt 0.800007 -0.417035
vt 0.613843 -0.332107
vt 0.386157 -0.332107
vt 0.895353 -0.327272
vt 0.104647 -0.327272
vt 0.859082 -0.383324
vt 0.817702 -0.383324
vt 0.817702 -0.999501
vt 0.768187 -0.383324
vt 0.768187 -0.999501
vt 0.859035 -0.383324
vt 0.859035 -0.999501
vt 0.900462 -0.383324
vt 0.900462 -0.999501
vt -0.250299 -0.658814
vt -0.250299 -0.341186
vt -0.012077 -0.182371
vt 0.859082 -0.999501
vt 0.827950 -0.015668
vt 0.793445 -0.050172
vt 0.840580 -0.062802
vt 0.853209 -0.109936
vt 0.887714 -0.075432
vt 0.806075 -0.097307
vt 0.875084 -0.028297
vt 0.226144 -0.658814
vt 0.226144 -0.341186
vt -0.012077 -0.817629
vt 0.900462 -0.078745
vt 0.900462 -0.031238
vt 0.859082 -0.031238
vt 0.900882 -0.078745
vt 0.859035 -0.078745
vt 0.859082 -0.078745
vt 0.817702 -0.031238
vt 0.859035 -0.031238
vt 0.817655 -0.078745
vt 0.768187 -0.078745
vt 0.768187 -0.031238
vn -0.000000 -0.889900 0.456200
vn -0.000000 0.898800 -0.438400
vn -0.758000 0.255000 -0.600400
vn -0.717800 -0.333900 0.610900
vn -0.807100 -0.518000 -0.283300
vn 0.796900 -0.542400 -0.266100
vn -0.994700 -0.102500 -0.001000
vn 0.994700 -0.102500 -0.001000
vn -0.993200 -0.116400 -0.004100
vn 0.993200 -0.116400 -0.004100
vn -0.974700 -0.223200 0.014000
vn 0.974700 -0.223200 0.014000
vn 0.973600 -0.224500 0.042100
vn -0.973600 -0.224500 0.042100
vn 0.000000 -0.837600 -0.546300
vn 0.703900 -0.358400 0.613300
vn 0.000000 -0.169900 0.985500
vn -0.000000 -0.711800 -0.702300
vn -0.808100 -0.139300 0.572400
vn 0.800600 -0.129200 0.585200
vn 0.000000 0.683000 0.730400
vn -0.000000 -0.883400 0.468600
vn 0.000000 0.981900 0.189400
vn -0.759200 0.619300 0.200100
vn 0.000000 0.804700 0.593700
vn -0.754800 0.631700 0.176700
vn 0.709900 -0.691100 -0.135700
vn 0.754800 0.249600 -0.606600
vn 0.750300 0.633800 0.187700
vn 0.712500 -0.323600 0.622600
vn 0.746900 -0.648700 -0.146100
vn -0.730700 -0.663300 -0.161600
vn 0.766100 0.613000 0.193100
vn -0.719100 -0.686300 -0.109000
vn 0.750900 0.270000 -0.602700
vn 0.000000 0.076200 -0.997100
vn 0.000000 0.998700 0.051600
vn -0.820500 0.481700 0.307700
vn 0.827200 0.475500 0.299400
vn 0.822900 -0.503100 -0.264200
vn -0.810000 -0.535800 -0.238500
vn 0.000000 -0.998000 0.062800
vn 0.000000 -0.982900 0.184300
vn -0.745400 0.268900 -0.610000
vn -0.692700 -0.356700 0.626800
vn 0.822200 0.074300 -0.564400
vn 0.816400 0.493400 0.300000
vn -0.826300 0.079300 -0.557600
vn -0.822200 0.490500 0.288900
vn 0.000000 0.052800 0.998600
vn 0.801300 -0.159000 0.576700
vn 0.823200 0.090300 -0.560500
vn 0.000000 -0.121500 -0.992600
vn -0.790300 -0.155600 0.592600
vn -0.817900 0.088300 -0.568500
vn -0.957000 0.289800 0.010300
vn 0.957000 0.289800 0.010300
vn 0.959800 0.280700 0.002800
vn -0.959800 0.280700 0.002800
vn 0.989300 0.143300 0.027600
vn -0.989300 0.143300 0.027600
vn 0.990100 0.140300 0.007200
vn -0.990100 0.140300 0.007200
vn 0.865300 0.168800 0.472000
vn 0.000000 0.375200 0.927000
vn -0.865300 -0.244000 -0.437900
vn 0.000000 -0.450400 -0.892900
vn 0.000000 -0.910700 0.413100
vn 0.865300 -0.244000 -0.437900
vn -0.865300 0.168800 0.472000
vn 0.000000 0.983000 0.183600
vn 0.000000 0.509400 -0.860500
vn 0.496500 0.864600 -0.077500
vn 0.496500 0.627800 -0.599500
vn -0.496500 0.864600 -0.077500
vn -0.496500 0.627800 -0.599500
vn 0.752200 0.271900 -0.600200
vn 0.000000 0.092500 -0.995700
vn 0.752200 0.630700 0.190800
vn -0.752200 0.271900 -0.600200
vn -0.752200 0.630700 0.190800
vn 0.000000 0.810100 0.586200
vn -0.865800 0.187200 0.464000
vn 0.000000 0.393700 0.919200
vn 0.000000 -0.432300 -0.901700
vn -0.865800 -0.225800 -0.446500
vn 0.865800 -0.225800 -0.446500
vn 0.865800 0.187200 0.464000
usemtl OBJ_CITY_STREETLAMP_01
s off
f 59/1/1 40/2/1 23/3/1
f 5/4/2 58/5/2 34/6/2
f 8/7/3 7/8/3 35/9/3
f 6/10/4 7/8/4 42/11/4
f 61/8/5 65/7/5 11/1/5
f 63/12/6 60/13/6 52/3/6
f 79/14/7 15/15/7 75/16/7
f 54/17/8 78/18/8 74/19/8
f 77/20/9 18/21/9 72/22/9
f 55/23/10 76/24/10 73/25/10
f 20/26/11 75/16/11 15/15/11
f 74/19/12 56/27/12 54/17/12
f 73/25/13 21/28/13 55/23/13
f 57/29/14 72/22/14 18/21/14
f 41/30/2 5/4/2 34/6/2
f 8/7/15 43/31/15 39/32/15
f 37/13/16 22/33/16 38/34/16
f 59/35/17 38/34/17 22/33/17
f 46/4/2 10/36/2 24/5/2
f 65/7/18 63/31/18 27/32/18
f 46/4/2 24/5/2 9/6/2
f 64/10/19 61/8/19 53/11/19
f 26/34/20 52/3/20 60/13/20
f 25/30/21 9/37/21 64/10/21
f 27/32/18 11/38/18 65/7/18
f 28/39/22 11/40/22 52/41/22
f 26/42/22 28/39/22 52/41/22
f 64/10/21 62/33/21 25/30/21
f 47/43/23 16/44/23 33/45/23
f 7/8/24 6/10/24 34/37/24
f 41/30/25 34/37/25 6/10/25
f 34/37/26 35/9/26 7/8/26
f 58/5/2 35/9/2 34/6/2
f 5/4/2 36/36/2 58/5/2
f 43/12/27 37/13/27 23/3/27
f 36/36/28 5/4/28 37/13/28
f 22/33/29 37/13/29 5/4/29
f 38/46/1 59/1/1 23/3/1
f 38/34/30 23/3/30 37/13/30
f 40/2/1 39/47/1 23/3/1
f 23/3/31 39/47/31 43/12/31
f 39/32/15 40/38/15 8/7/15
f 7/8/32 8/7/32 40/1/32
f 6/10/25 22/33/25 41/30/25
f 5/4/33 41/30/33 22/33/33
f 59/1/1 42/11/1 40/2/1
f 40/1/34 42/11/34 7/8/34
f 37/13/35 43/12/35 36/36/35
f 58/6/36 36/48/36 43/31/36
f 48/49/37 44/50/37 13/51/37
f 24/5/2 45/9/2 9/6/2
f 61/8/38 64/10/38 9/37/38
f 46/4/39 25/30/39 62/33/39
f 25/30/2 46/4/2 9/6/2
f 47/43/23 33/45/23 17/52/23
f 48/49/37 13/51/37 14/53/37
f 11/40/22 27/54/22 52/41/22
f 52/3/40 27/47/40 63/12/40
f 28/39/22 53/55/22 11/40/22
f 11/1/41 53/11/41 61/8/41
f 20/56/42 15/57/42 54/58/42
f 57/59/43 18/60/43 55/61/43
f 20/56/42 54/58/42 56/62/42
f 57/59/43 55/61/43 21/63/43
f 43/31/36 8/7/36 58/6/36
f 35/9/44 58/6/44 8/7/44
f 42/11/45 59/35/45 6/10/45
f 22/33/17 6/10/17 59/35/17
f 10/36/46 46/4/46 60/13/46
f 62/33/47 60/13/47 46/4/47
f 65/7/48 61/8/48 45/9/48
f 9/37/49 45/9/49 61/8/49
f 28/35/50 26/34/50 62/33/50
f 60/13/51 62/33/51 26/34/51
f 60/13/52 63/12/52 10/36/52
f 24/6/53 10/48/53 63/31/53
f 53/11/54 28/35/54 64/10/54
f 62/33/50 64/10/50 28/35/50
f 63/31/53 65/7/53 24/6/53
f 45/9/55 24/6/55 65/7/55
f 72/22/56 16/64/56 77/20/56
f 33/65/57 73/25/57 76/24/57
f 13/66/58 74/19/58 78/18/58
f 75/16/59 44/67/59 79/14/59
f 76/24/60 17/68/60 33/65/60
f 47/69/61 77/20/61 16/64/61
f 78/18/62 14/70/62 13/66/62
f 48/71/63 79/14/63 44/67/63
usemtl MOMEBRAZIER
f 82/72/64 83/73/64 2/74/64
f 83/73/65 80/75/65 51/76/65
f 84/73/66 81/77/66 49/78/66
f 81/77/67 85/79/67 19/80/67
f 51/76/65 2/74/65 83/73/65
f 19/80/67 49/78/67 81/77/67
f 49/81/68 19/82/68 50/83/68
f 50/84/69 19/80/69 85/79/69
f 80/75/70 84/73/70 12/74/70
f 71/85/71 70/86/71 1/87/71
f 85/79/69 82/72/69 50/84/69
f 1/87/72 66/88/72 68/89/72
f 67/90/73 1/87/73 70/86/73
f 1/87/74 67/90/74 66/88/74
f 1/87/75 69/91/75 71/85/75
f 68/89/76 69/91/76 1/87/76
f 51/92/68 49/81/68 50/83/68
f 49/78/66 12/74/66 84/73/66
f 2/93/68 51/92/68 50/83/68
f 2/74/64 50/84/64 82/72/64
f 51/92/68 12/94/68 49/81/68
f 12/74/70 51/76/70 80/75/70
f 30/95/77 66/96/77 67/97/77
f 66/96/78 30/98/78 4/99/78
f 67/97/77 31/100/77 30/95/77
f 31/100/79 67/97/79 70/101/79
f 4/99/78 68/102/78 66/96/78
f 68/102/80 4/99/80 32/103/80
f 32/103/80 69/101/80 68/102/80
f 69/101/81 32/103/81 29/104/81
f 3/103/82 70/101/82 71/105/82
f 70/101/79 3/103/79 31/100/79
f 29/104/81 71/105/81 69/101/81
f 71/105/82 29/104/82 3/103/82
f 84/73/83 80/75/83 29/104/83
f 3/103/84 29/104/84 80/75/84
f 85/79/85 81/77/85 4/99/85
f 32/103/86 4/99/86 81/77/86
f 30/95/87 31/100/87 82/72/87
f 83/73/88 82/72/88 31/100/88
f 80/75/84 83/73/84 3/103/84
f 31/100/88 3/103/88 83/73/88
f 81/77/86 84/73/86 32/103/86
f 29/104/83 32/103/83 84/73/83
f 82/72/87 85/79/87 30/95/87
f 4/99/85 30/98/85 85/79/85
