# Blender v2.75 (sub 0) OBJ File: 'Empty.blend'
# www.blender.org
mtllib OW_MAGICSTAFF_01.mtl
o OW_MAGICSTAFF_01
v 0.028532 -0.118750 -0.009271
v 0.000000 -1.660000 0.000000
v 0.028532 -0.865000 -0.009271
v -0.011109 -0.772462 0.015290
v 0.010000 -0.125000 -0.005000
v 0.125000 -0.080000 -0.005000
v 0.142500 0.025000 -0.005000
v 0.005000 -0.125000 -0.010000
v 0.005000 -0.080000 -0.125000
v 0.005000 0.025000 -0.142500
v 0.005000 -0.125000 0.010000
v 0.005000 -0.080000 0.125000
v 0.005000 0.025000 0.142500
v -0.010000 -0.125000 -0.005000
v -0.125000 -0.080000 -0.005000
v -0.142500 0.025000 -0.005000
v 0.000000 -0.065000 0.000000
v -0.017634 -0.118750 0.024271
v 0.040000 0.130000 0.005000
v 0.095000 -0.005000 0.005000
v -0.005000 0.130000 -0.040000
v -0.005000 -0.005000 -0.095000
v -0.005000 0.130000 0.040000
v -0.005000 -0.005000 0.095000
v -0.040000 0.130000 0.005000
v -0.095000 -0.005000 0.005000
v 0.017634 -1.498750 0.024271
v 0.010000 -0.170000 0.005000
v 0.050000 -0.110000 0.005000
v -0.005000 -0.170000 -0.010000
v -0.005000 -0.110000 -0.050000
v -0.005000 -0.170000 0.010000
v -0.005000 -0.110000 0.050000
v -0.010000 -0.170000 0.005000
v -0.050000 -0.110000 0.005000
v 0.075000 -0.145000 0.005000
v -0.005000 -0.145000 -0.075000
v -0.005000 -0.145000 0.075000
v -0.075000 -0.145000 0.005000
v -0.017975 -0.472675 -0.005840
v -0.012696 -1.341600 0.017475
v 0.017975 -0.472675 -0.005840
v 0.000000 -0.772462 -0.018900
v 0.000000 -1.498750 -0.030000
v 0.085000 -0.055000 -0.005000
v 0.005000 -0.055000 -0.085000
v 0.005000 -0.055000 0.085000
v -0.085000 -0.055000 -0.005000
v 0.011109 -0.472675 0.015290
v -0.028532 -1.498750 -0.009271
v 0.012696 -1.020300 0.017475
v 0.020543 -1.341600 -0.006675
v -0.028532 -0.118750 -0.009271
v 0.010000 -0.170000 -0.005000
v 0.150524 -0.009455 0.005000
v 0.075000 -0.145000 -0.005000
v 0.010000 -0.125000 0.005000
v 0.005000 -0.170000 -0.010000
v -0.005000 -0.009455 -0.150524
v 0.005000 -0.145000 -0.075000
v -0.005000 -0.125000 -0.010000
v 0.005000 -0.170000 0.010000
v -0.005000 -0.009455 0.150524
v 0.005000 -0.145000 0.075000
v -0.005000 -0.125000 0.010000
v -0.010000 -0.170000 -0.005000
v -0.150524 -0.009455 0.005000
v -0.075000 -0.145000 -0.005000
v -0.010000 -0.125000 0.005000
v 0.040000 0.130000 -0.005000
v 0.085000 0.045000 -0.005000
v 0.005000 0.130000 -0.040000
v 0.005000 0.045000 -0.085000
v 0.005000 0.130000 0.040000
v 0.005000 0.045000 0.085000
v -0.040000 0.130000 -0.005000
v -0.085000 0.045000 -0.005000
v 0.050000 -0.110000 -0.005000
v 0.005000 -0.110000 -0.050000
v 0.005000 -0.110000 0.050000
v -0.050000 -0.110000 -0.005000
v 0.000000 -0.118750 -0.030000
v 0.017634 -0.118750 0.024271
v -0.012696 -1.020300 0.017475
v 0.150524 -0.009455 -0.005000
v 0.005000 -0.009455 -0.150524
v 0.005000 -0.009455 0.150524
v -0.150524 -0.009455 -0.005000
v 0.142500 0.025000 0.005000
v -0.005000 0.025000 -0.142500
v -0.005000 0.025000 0.142500
v -0.142500 0.025000 0.005000
v 0.095000 -0.005000 -0.005000
v 0.005000 -0.005000 -0.095000
v 0.005000 -0.005000 0.095000
v -0.095000 -0.005000 -0.005000
v -0.000000 -1.020300 -0.021600
v 0.020543 -1.020300 -0.006675
v 0.125000 -0.080000 0.005000
v -0.005000 -0.080000 -0.125000
v -0.005000 -0.080000 0.125000
v -0.125000 -0.080000 0.005000
v 0.085000 -0.055000 0.005000
v -0.005000 -0.055000 -0.085000
v -0.005000 -0.055000 0.085000
v -0.085000 -0.055000 0.005000
v 0.017634 -0.865000 0.024271
v 0.017975 -0.772462 -0.005840
v 0.028532 -1.498750 -0.009271
v -0.017634 -1.498750 0.024271
v -0.028532 -0.865000 -0.009271
v -0.020543 -1.341600 -0.006675
v 0.085000 0.045000 0.005000
v -0.005000 0.045000 -0.085000
v -0.005000 0.045000 0.085000
v -0.085000 0.045000 0.005000
v 0.000000 -0.865000 -0.030000
v -0.017634 -0.865000 0.024271
v -0.017975 -0.772462 -0.005840
v 0.011109 -0.772462 0.015290
v -0.020543 -1.020300 -0.006675
v 0.012696 -1.341600 0.017475
v -0.000000 -1.341600 -0.021600
v -0.011109 -0.472675 0.015290
v 0.000000 -0.472675 -0.018900
vt 0.174372 -0.508448
vt 0.174372 -0.804476
vt 0.120783 -0.804476
vt 0.406368 -0.127427
vt 0.491665 -0.497746
vt 0.491665 -0.127427
vt 0.120777 -0.508448
vt 0.406368 -0.497775
vt 0.406368 -0.127477
vt 0.996419 0.353590
vt 0.996409 -0.143471
vt 0.597996 -0.027817
vt 0.996391 -0.624130
vt 0.110892 -0.002088
vt 0.184272 -0.002088
vt 0.110849 -0.002088
vt 0.996416 0.656845
vt 0.741689 2.886797
vt 0.597996 1.313108
vt 0.597924 -0.623078
vt 0.598017 0.351468
vt 0.406368 -0.497746
vt 0.996366 -0.990389
vt 0.597841 -0.991763
vt 0.431618 -0.208842
vt 0.437900 -0.434138
vt 0.444183 -0.208842
vt 0.457433 -0.208842
vt 0.403650 -0.208842
vt 0.418367 -0.208842
vt 0.182580 -0.525765
vt 0.122327 -0.527353
vt 0.108315 -0.527353
vt 0.087160 -0.559431
vt 0.473387 -0.003611
vt 0.424646 -0.003808
vt 0.424646 -0.003611
vt 0.473387 -0.003415
vt 0.079295 -1.119054
vt 0.215877 -1.119054
vt 0.436324 -0.999558
vt 0.461710 -0.999517
vt 0.461709 -0.999558
vt 0.079216 -1.119054
vn 0.951100 0.000000 0.309000
vn -0.587800 0.000000 -0.809000
vn 0.000000 0.000000 1.000000
vn -0.951100 0.000000 0.309000
vn 0.000000 0.000000 -1.000000
vn 0.792600 -0.609700 0.000000
vn 1.000000 0.000000 0.000000
vn 0.000000 -0.609700 -0.792600
vn 0.000000 -0.609700 0.792600
vn -0.792600 -0.609700 0.000000
vn 0.587600 -0.025400 -0.808800
vn -0.950800 -0.025400 0.308900
vn 0.000000 -0.025400 0.999700
vn -1.000000 -0.000000 0.000000
vn 0.587800 0.000000 -0.809000
vn -0.587600 -0.025400 -0.808800
vn 0.000000 -0.148800 0.988900
vn 0.950800 -0.025400 0.308900
vn 0.581200 -0.148800 -0.800000
vn -0.843700 0.536900 0.000000
vn 0.000000 0.536900 0.843700
vn 0.000000 0.536900 -0.843700
vn 0.843700 0.536900 0.000000
vn -0.581200 -0.148800 -0.800000
vn -0.940500 -0.148800 0.305600
vn 0.940500 -0.148800 0.305600
vn -0.866800 0.411500 0.281600
vn 0.359000 -0.933300 0.000000
vn 0.940300 -0.340200 0.000000
vn 0.715600 0.698500 0.000000
vn -0.351100 0.936300 0.000000
vn 0.000000 -0.933300 -0.359000
vn 0.000000 -0.340200 -0.940300
vn 0.000000 0.698500 -0.715600
vn 0.000000 0.936300 0.351100
vn 0.000000 -0.933300 0.359000
vn 0.000000 -0.340200 0.940300
vn 0.000000 0.698500 0.715600
vn 0.000000 0.936300 -0.351100
vn -0.359000 -0.933300 0.000000
vn -0.940300 -0.340200 0.000000
vn -0.715600 0.698500 0.000000
vn 0.351100 0.936300 0.000000
vn -0.883800 -0.467900 0.000000
vn -0.980600 -0.196100 0.000000
vn 0.000000 -0.467900 0.883800
vn 0.000000 -0.196100 0.980600
vn 0.000000 -0.467900 -0.883800
vn 0.000000 -0.196100 -0.980600
vn 0.883800 -0.467900 0.000000
vn 0.980600 -0.196100 0.000000
vn -0.535700 0.411500 -0.737300
vn 0.535700 0.411500 -0.737300
vn 0.000000 0.411500 0.911400
vn 0.866800 0.411500 0.281600
vn -0.950100 -0.043700 0.308700
vn 0.000000 -0.043700 0.999000
vn 0.973900 0.226800 0.000000
vn 0.000000 0.226800 -0.973900
vn 0.000000 0.226800 0.973900
vn -0.973900 0.226800 0.000000
vn -0.980600 0.196100 0.000000
vn 0.000000 0.196100 0.980600
vn 0.000000 0.196100 -0.980600
vn 0.980600 0.196100 0.000000
vn -0.587200 -0.043700 -0.808200
vn 0.587200 -0.043700 -0.808200
vn 0.950100 -0.043700 0.308700
vn 0.585000 0.096600 -0.805200
vn 0.946600 0.096600 0.307600
vn 0.587200 0.043200 -0.808300
vn 0.950200 0.043200 0.308700
vn -0.950200 0.043200 0.308700
vn 0.000000 0.043200 0.999100
vn -0.587200 0.043200 -0.808300
vn -0.585000 0.096600 -0.805200
vn -0.946600 0.096600 0.307600
vn 0.000000 0.096600 0.995300
usemtl DEFAULT
s off
f 49/1/1 120/2/1 108/3/1
f 97/4/2 112/5/2 121/6/2
f 124/7/3 120/2/3 49/1/3
f 121/6/4 41/8/4 84/9/4
f 85/10/5 6/11/5 45/12/5
f 99/11/6 56/13/6 6/11/6
f 86/10/7 46/12/7 9/11/7
f 100/11/8 9/11/8 60/13/8
f 87/10/7 12/11/7 47/12/7
f 101/11/9 64/13/9 12/11/9
f 88/10/5 48/12/5 15/11/5
f 102/11/10 15/11/10 68/13/10
f 1/14/11 125/1/11 82/15/11
f 1/14/11 42/7/11 125/1/11
f 53/15/12 124/7/12 18/16/12
f 18/16/13 124/7/13 49/1/13
f 89/17/3 19/18/3 113/19/3
f 103/12/3 29/20/3 99/11/3
f 7/17/5 93/21/5 71/19/5
f 71/19/5 70/18/5 7/17/5
f 90/17/14 114/19/14 21/18/14
f 104/12/14 100/11/14 31/20/14
f 10/17/7 73/19/7 94/21/7
f 73/19/7 10/17/7 72/18/7
f 91/17/14 23/18/14 115/19/14
f 105/12/14 33/20/14 101/11/14
f 13/17/7 95/21/7 75/19/7
f 75/19/7 74/18/7 13/17/7
f 92/17/3 116/19/3 25/18/3
f 106/12/3 102/11/3 35/20/3
f 16/17/5 77/19/5 96/21/5
f 77/19/5 16/17/5 76/18/5
f 84/9/3 41/8/3 122/5/3
f 98/4/15 52/22/15 123/5/15
f 6/11/5 78/20/5 45/12/5
f 56/13/5 54/23/5 5/24/5
f 6/11/5 56/13/5 78/20/5
f 57/24/3 28/23/3 36/13/3
f 9/11/7 46/12/7 79/20/7
f 60/13/7 8/24/7 58/23/7
f 9/11/7 79/20/7 60/13/7
f 61/24/14 37/13/14 30/23/14
f 12/11/7 80/20/7 47/12/7
f 64/13/7 62/23/7 11/24/7
f 12/11/7 64/13/7 80/20/7
f 65/24/14 32/23/14 38/13/14
f 15/11/5 48/12/5 81/20/5
f 68/13/5 14/24/5 66/23/5
f 15/11/5 81/20/5 68/13/5
f 69/24/3 39/13/3 34/23/3
f 29/20/3 57/24/3 36/13/3
f 29/20/3 36/13/3 99/11/3
f 31/20/14 37/13/14 61/24/14
f 31/20/14 100/11/14 37/13/14
f 33/20/14 65/24/14 38/13/14
f 33/20/14 38/13/14 101/11/14
f 35/20/3 39/13/3 69/24/3
f 35/20/3 102/11/3 39/13/3
f 82/14/16 125/7/16 40/1/16
f 53/15/12 40/1/12 124/7/12
f 121/6/4 112/5/4 41/8/4
f 110/25/17 2/26/17 27/27/17
f 83/15/18 42/7/18 1/14/18
f 18/16/13 49/1/13 83/15/13
f 42/7/15 108/3/15 43/2/15
f 98/4/15 123/5/15 97/6/15
f 109/28/19 2/26/19 44/29/19
f 97/4/2 123/22/2 112/5/2
f 29/20/20 103/12/20 45/12/20
f 29/20/20 45/12/20 78/20/20
f 31/20/21 46/12/21 104/12/21
f 31/20/21 79/20/21 46/12/21
f 33/20/22 105/12/22 47/12/22
f 33/20/22 47/12/22 80/20/22
f 35/20/23 48/12/23 106/12/23
f 35/20/23 81/20/23 48/12/23
f 49/1/1 108/3/1 42/7/1
f 83/15/18 49/1/18 42/7/18
f 44/29/24 2/26/24 50/30/24
f 50/30/25 2/26/25 110/25/25
f 84/9/3 122/5/3 51/6/3
f 51/6/1 52/22/1 98/4/1
f 51/6/1 122/5/1 52/22/1
f 27/27/26 2/26/26 109/28/26
f 82/14/16 40/1/16 53/15/16
f 17/31/27 53/32/27 18/33/27
f 36/13/28 28/23/28 54/23/28
f 55/10/29 6/11/29 85/10/29
f 19/18/30 89/17/30 7/17/30
f 99/11/6 36/13/6 56/13/6
f 36/13/28 54/23/28 56/13/28
f 57/24/31 29/20/31 78/20/31
f 37/13/32 58/23/32 30/23/32
f 59/10/33 86/10/33 9/11/33
f 21/18/34 10/17/34 90/17/34
f 100/11/8 60/13/8 37/13/8
f 37/13/32 60/13/32 58/23/32
f 61/24/35 79/20/35 31/20/35
f 38/13/36 32/23/36 62/23/36
f 63/10/37 12/11/37 87/10/37
f 23/18/38 91/17/38 13/17/38
f 101/11/9 38/13/9 64/13/9
f 38/13/36 62/23/36 64/13/36
f 65/24/39 33/20/39 80/20/39
f 39/13/40 66/23/40 34/23/40
f 67/10/41 88/10/41 15/11/41
f 25/18/42 16/17/42 92/17/42
f 102/11/10 68/13/10 39/13/10
f 39/13/40 68/13/40 66/23/40
f 69/24/43 81/20/43 35/20/43
f 113/19/44 19/18/44 70/18/44
f 19/18/30 7/17/30 70/18/30
f 113/19/44 70/18/44 71/19/44
f 20/21/45 71/19/45 93/21/45
f 114/19/46 72/18/46 21/18/46
f 21/18/34 72/18/34 10/17/34
f 114/19/46 73/19/46 72/18/46
f 22/21/47 94/21/47 73/19/47
f 115/19/48 23/18/48 74/18/48
f 23/18/38 13/17/38 74/18/38
f 115/19/48 74/18/48 75/19/48
f 24/21/49 75/19/49 95/21/49
f 116/19/50 76/18/50 25/18/50
f 25/18/42 76/18/42 16/17/42
f 116/19/50 77/19/50 76/18/50
f 26/21/51 96/21/51 77/19/51
f 57/24/31 78/20/31 5/24/31
f 56/13/5 5/24/5 78/20/5
f 61/24/35 8/24/35 79/20/35
f 60/13/7 79/20/7 8/24/7
f 65/24/39 80/20/39 11/24/39
f 64/13/7 11/24/7 80/20/7
f 69/24/43 14/24/43 81/20/43
f 68/13/5 81/20/5 14/24/5
f 17/31/52 82/34/52 53/32/52
f 17/31/53 1/33/53 82/34/53
f 17/31/54 18/33/54 83/32/54
f 17/31/55 83/32/55 1/33/55
f 111/35/56 84/9/56 118/36/56
f 118/36/57 84/9/57 51/6/57
f 89/17/58 85/10/58 7/17/58
f 7/17/5 85/10/5 93/21/5
f 90/17/59 10/17/59 86/10/59
f 10/17/7 94/21/7 86/10/7
f 91/17/60 87/10/60 13/17/60
f 13/17/7 87/10/7 95/21/7
f 92/17/61 16/17/61 88/10/61
f 16/17/5 96/21/5 88/10/5
f 20/21/3 55/10/3 89/17/3
f 89/17/58 55/10/58 85/10/58
f 22/21/14 90/17/14 59/10/14
f 90/17/59 86/10/59 59/10/59
f 24/21/14 63/10/14 91/17/14
f 91/17/60 63/10/60 87/10/60
f 26/21/3 92/17/3 67/10/3
f 92/17/61 88/10/61 67/10/61
f 103/12/62 93/21/62 45/12/62
f 85/10/5 45/12/5 93/21/5
f 104/12/63 46/12/63 94/21/63
f 86/10/7 94/21/7 46/12/7
f 105/12/64 95/21/64 47/12/64
f 87/10/7 47/12/7 95/21/7
f 106/12/65 48/12/65 96/21/65
f 88/10/5 96/21/5 48/12/5
f 117/37/66 97/4/66 121/6/66
f 3/37/67 97/6/67 117/38/67
f 3/37/67 98/4/67 97/6/67
f 107/38/68 98/4/68 3/37/68
f 103/12/3 99/11/3 55/10/3
f 55/10/29 99/11/29 6/11/29
f 104/12/14 59/10/14 100/11/14
f 59/10/33 9/11/33 100/11/33
f 105/12/14 101/11/14 63/10/14
f 63/10/37 101/11/37 12/11/37
f 106/12/3 67/10/3 102/11/3
f 67/10/41 15/11/41 102/11/41
f 20/21/3 103/12/3 55/10/3
f 103/12/62 20/21/62 93/21/62
f 22/21/14 59/10/14 104/12/14
f 104/12/63 94/21/63 22/21/63
f 24/21/14 105/12/14 63/10/14
f 105/12/64 24/21/64 95/21/64
f 26/21/3 67/10/3 106/12/3
f 106/12/65 96/21/65 26/21/65
f 118/36/57 51/6/57 107/38/57
f 107/38/68 51/6/68 98/4/68
f 108/3/69 3/39/69 117/40/69
f 120/2/70 3/39/70 108/3/70
f 52/22/71 109/41/71 44/42/71
f 122/5/72 109/41/72 52/22/72
f 112/5/73 110/41/73 41/8/73
f 41/8/74 110/41/74 27/42/74
f 40/1/4 119/2/4 4/3/4
f 125/7/2 119/2/2 40/1/2
f 123/22/75 50/43/75 112/5/75
f 112/5/73 50/43/73 110/41/73
f 113/19/3 20/21/3 89/17/3
f 20/21/45 113/19/45 71/19/45
f 114/19/14 90/17/14 22/21/14
f 22/21/47 73/19/47 114/19/47
f 115/19/14 24/21/14 91/17/14
f 24/21/49 115/19/49 75/19/49
f 116/19/3 92/17/3 26/21/3
f 26/21/51 77/19/51 116/19/51
f 43/3/76 117/39/76 111/40/76
f 108/3/69 117/40/69 43/2/69
f 119/2/77 118/44/77 4/3/77
f 4/3/78 118/44/78 107/40/78
f 43/3/76 111/40/76 119/2/76
f 119/2/77 111/40/77 118/44/77
f 4/3/78 107/40/78 120/2/78
f 120/2/70 107/40/70 3/39/70
f 117/37/66 121/6/66 111/35/66
f 111/35/56 121/6/56 84/9/56
f 41/8/74 27/42/74 122/5/74
f 122/5/72 27/42/72 109/41/72
f 123/22/75 44/41/75 50/43/75
f 52/22/71 44/42/71 123/5/71
f 40/1/4 4/3/4 124/7/4
f 124/7/3 4/3/3 120/2/3
f 125/7/2 43/3/2 119/2/2
f 42/7/15 43/2/15 125/1/15
