# Blender v2.75 (sub 0) OBJ File: 'Empty.blend'
# www.blender.org
mtllib OW_NATURE_SMALLTREE_01.mtl
o OW_NATURE_SMALLTREE_01
v 0.155963 3.013070 -0.169435
v -0.206927 -0.028118 -0.225248
v -0.074788 1.571362 -0.054477
v 0.169615 1.945490 -0.515177
v 0.354528 3.374984 -0.463616
v 0.385144 3.281727 0.754263
v 0.165881 0.775004 0.786366
v 0.956592 1.895296 1.233611
v 0.081868 2.628721 0.797941
v -0.082714 2.147167 1.827068
v -0.547603 1.334194 0.730137
v 0.931201 2.361078 1.179703
v 0.419872 3.411676 -0.605833
v -0.484498 4.738204 -0.411325
v -0.133168 3.234563 0.331181
v -0.576922 1.751490 0.042010
v -0.080138 3.068684 -0.271854
v 0.451717 1.355742 0.019618
v -0.056511 1.933561 0.563684
v 0.700999 3.086031 0.459545
v 1.027473 4.206323 0.577414
v 0.074440 3.765310 -0.141471
v -0.460678 1.454283 0.185350
v 0.466312 1.334194 0.297480
v 0.566619 2.547392 -0.753406
v 0.616986 5.062860 0.471121
v 0.507206 2.566533 2.147329
v 0.339746 1.989005 1.414665
v -0.010767 1.615729 0.681687
v -0.496486 4.611838 0.472760
v -0.272458 3.557382 -0.388177
v -0.722186 4.519346 -0.218156
v 0.072313 4.857906 0.002420
v 0.906255 4.721759 0.495360
v 0.237420 2.550217 -0.004799
v 0.359301 3.390812 0.118681
v 0.316548 3.883128 0.023654
v -0.484022 4.119919 0.204403
v -0.564934 5.304185 -0.366248
v -0.106436 4.344968 -0.450901
v 0.754492 3.972882 0.427636
v -0.462859 5.237689 -0.139611
v -0.362427 4.425670 -0.112617
v 0.010025 3.783779 -0.164234
v 0.256215 2.328232 0.047645
v -0.412181 3.442882 -0.340823
v -0.136123 1.540223 -0.252391
v -0.184246 0.876141 -0.089968
v -0.058987 1.820271 1.697061
v -0.174333 1.175799 0.340259
v -0.147483 1.339024 1.261955
v -0.725739 4.640514 0.068053
v -0.145963 1.118531 0.442634
v 1.059922 3.583702 -0.010068
v 0.762865 3.085565 0.031725
v 0.573767 2.578040 -0.055206
v 0.604025 3.191282 -0.221583
v 0.157773 2.128117 0.054508
v 0.345311 2.887262 -0.176751
v 0.284478 2.383809 -0.059313
v -0.329097 2.915625 -0.220442
v -0.426207 3.254528 -0.284789
v -0.206420 0.762965 -0.223292
v -0.068369 -0.016205 -0.148272
v -0.227463 0.189838 -0.099935
v -0.153377 0.277104 -0.193436
v -0.206927 -0.004814 -0.071352
v -0.019679 0.757141 0.103868
v -0.082189 0.181073 -0.109649
v -0.312609 2.212423 -0.229774
v -0.162355 0.855624 -0.185424
v 0.155963 3.029522 -0.063097
v 0.148474 2.343623 0.114148
v 0.165683 2.597958 -0.015808
v -0.191702 1.140473 0.508140
v -0.089114 0.870706 -0.119107
v -0.224373 1.118222 0.445994
v -0.126250 1.111286 0.404017
v 0.051462 1.589913 0.019755
v -0.206420 0.795853 -0.068445
v 0.004785 2.312155 1.788343
v -0.086665 1.792362 1.734874
v 0.051011 1.580496 0.686259
v 0.010025 3.791557 -0.086113
v -0.324171 4.446922 -0.138848
v 0.288208 2.418537 -0.096242
v 0.422532 3.355431 0.110779
v 0.189023 2.521227 0.040850
v 0.780204 3.967308 0.376990
v 0.107006 2.172943 0.090327
v 0.099640 2.164556 0.014649
v 0.277588 2.375781 -0.106285
v 0.285110 2.362806 -0.042409
v -0.184604 1.175879 0.455977
v -0.075064 1.333643 1.246730
v -0.035834 1.788482 1.729645
v 0.897213 3.287949 -0.242282
v 0.581661 3.208352 -0.239696
v 0.557218 2.586208 -0.015571
v 0.302785 1.976053 1.428525
v -0.362427 4.424470 -0.164678
v -0.080430 0.839329 0.032109
v 0.325577 2.323139 -0.069898
v 0.385900 3.364565 0.180824
v 0.314657 2.390807 -0.089430
v 0.349326 2.887059 -0.131409
v 0.583939 3.211455 -0.208493
v -0.001645 1.547404 0.730137
v 0.750837 3.088210 0.009411
v -0.143653 0.763452 0.115614
v -0.198627 1.528183 -0.311094
v -0.363893 2.944038 -0.247490
v 0.148474 2.315163 -0.018196
v 0.241237 3.020840 -0.116504
v 0.529162 2.603344 -0.048731
v -0.069383 0.780290 -0.145856
v -0.108050 1.388826 1.208360
v 0.735822 3.992107 0.382614
v -0.376520 2.914493 -0.205191
v 0.383191 2.863805 -0.151956
v 0.064529 3.817926 -0.125830
v -0.217308 1.544414 -0.226742
v -0.074788 1.607757 0.093853
v -0.297823 2.211881 -0.297729
v 0.296383 2.013368 1.408595
v -0.417217 3.247955 -0.320056
v 0.774510 3.078101 0.004272
v -0.248353 2.213076 -0.250289
v -0.392706 3.248952 -0.293837
vt -0.250000 -2.051244
vt 0.104870 -1.430746
vt -0.250000 -1.430746
vt 0.102698 -2.051244
vt 0.395130 -1.430746
vt 0.355303 1.051244
vt 0.749999 1.051244
vt 0.250000 1.671741
vt 0.144697 1.051244
vt -0.250000 -0.189751
vt 0.128911 0.430746
vt -0.250000 0.430746
vt 0.117176 -0.189751
vt 0.371089 0.430746
vt -0.250001 1.051244
vt 0.109454 -0.810249
vt 0.390546 -0.810249
vt 0.382824 -0.189751
vt 0.750000 -0.189751
vt 0.750000 0.430746
vt 0.397302 -2.051244
vt -0.250000 -2.671741
vt 0.102416 -2.671741
vt 0.750000 -2.051244
vt 0.750000 -1.430746
vt 0.750000 -0.810249
vt -0.250000 -0.810249
vt 0.397584 -2.671741
vt 0.750000 -2.671741
vt 0.000500 -0.000499
vt 0.003154 -0.999500
vt 0.999500 -0.999500
vt 0.996846 -0.000500
vn 0.492800 0.103200 -0.864000
vn -0.984700 0.169000 -0.041500
vn -0.958900 -0.013100 0.283500
vn 0.450200 0.648400 -0.614000
vn -0.886900 0.142000 0.439600
vn 0.837100 -0.274000 0.473500
vn -0.891500 0.141800 0.430200
vn -0.035200 0.160600 -0.986400
vn 0.527000 0.107000 -0.843100
vn -0.982300 -0.186100 0.018500
vn -0.992400 -0.122700 0.002800
vn 0.520300 0.090400 -0.849200
vn 0.517700 0.103800 -0.849200
vn 0.515900 -0.113400 -0.849100
vn -0.955100 0.289700 -0.062300
vn -0.981900 -0.187200 0.029000
vn 0.686400 0.111300 -0.718600
vn -0.974000 -0.081300 -0.211300
vn -0.820100 0.567000 -0.076500
vn 0.892900 0.419100 -0.164800
vn 0.625600 -0.759500 0.178000
vn -0.934500 0.114300 0.337200
vn -0.181100 0.074400 -0.980600
vn 0.783500 -0.429500 0.449100
vn 0.457800 -0.180900 -0.870500
vn 0.553500 0.073000 0.829600
vn -0.687000 0.217200 0.693500
vn -0.060500 0.146100 -0.987400
vn 0.306300 -0.005500 0.951900
vn -0.943500 -0.062800 -0.325500
vn -0.955000 -0.216100 -0.203200
vn 0.290200 0.258300 0.921500
vn 0.479300 0.103900 -0.871500
vn -0.985300 0.166800 -0.035400
vn 0.485500 0.001900 -0.874200
vn 0.456000 -0.243200 0.856100
vn -0.862600 0.283500 -0.418900
vn 0.041400 -0.351200 0.935400
vn -1.000000 0.000600 -0.000100
vn 0.069800 -0.359800 0.930400
vn 0.820500 0.118200 -0.559200
vn 0.819600 0.118500 -0.560500
vn 0.304200 -0.005500 0.952600
vn 0.304500 0.205400 0.930100
vn -0.974800 -0.090000 -0.204200
vn 0.691100 -0.094100 -0.716600
vn -0.999900 0.010300 -0.002200
vn 0.535800 0.128500 0.834500
vn 0.534400 0.206000 0.819800
vn 0.464700 -0.245400 0.850800
vn -0.853900 0.115100 0.507600
vn 0.222000 0.110100 -0.968800
vn 0.579800 -0.559500 0.592300
vn 0.236000 0.368200 -0.899300
vn 0.297300 0.206500 0.932200
vn -0.818300 0.569700 -0.077000
vn -0.870300 0.276500 -0.407700
vn 0.865800 0.466700 -0.180600
vn 0.872100 0.441400 -0.211100
vn 0.040300 -0.639000 0.768200
vn 0.039800 -0.966700 0.252700
vn 0.528100 -0.114700 -0.841400
vn 0.481600 -0.166100 0.860500
vn 0.491500 -0.003500 0.870800
vn -0.875100 0.400700 -0.271500
vn 0.015900 -0.722800 0.690900
vn -0.855100 0.199700 -0.478500
vn 0.092700 -0.118000 0.988700
vn 0.269600 0.356700 -0.894400
vn 0.462600 0.682300 -0.566000
vn 0.542500 0.129000 0.830100
vn -0.862100 -0.504300 0.050200
vn 0.428000 0.287200 0.856900
vn 0.527300 0.093300 0.844600
vn -0.556000 0.632800 0.538900
vn 0.520900 -0.783000 0.340000
vn -0.039100 0.150800 -0.987800
vn 0.081600 0.357100 -0.930500
vn 0.740300 -0.259200 0.620300
vn 0.682800 -0.587900 0.433800
vn 0.860800 -0.216100 0.460800
vn -0.730900 0.682500 -0.004500
vn 0.168400 -0.592800 -0.787500
vn 0.460700 -0.180700 -0.869000
vn 0.598900 0.057400 0.798800
vn 0.579200 0.026300 0.814800
vn -0.679300 0.699400 0.222100
vn -0.978900 0.144500 0.144600
vn -0.906400 0.157000 0.392100
vn -0.016500 -0.964800 0.262600
vn 0.088600 -0.728700 0.679100
vn 0.890800 0.292400 -0.347700
vn 0.815900 0.001500 -0.578200
vn 0.315100 -0.400600 -0.860400
vn -0.805400 0.592800 -0.000100
vn 0.150100 -0.620300 -0.769900
vn -0.244400 0.966500 -0.078300
vn 0.513400 -0.772600 0.373600
vn 0.811600 -0.376500 0.446700
vn 0.420800 -0.843300 0.334200
vn 0.446100 -0.749600 0.489000
vn 0.443700 0.257300 -0.858500
vn -0.864500 -0.502500 0.011600
vn -0.918800 0.094600 -0.383300
vn 0.866800 0.446100 -0.222900
vn 0.025100 -0.552900 -0.832900
vn 0.584800 0.014200 0.811100
vn -0.822800 0.303600 0.480400
vn 0.692800 -0.588700 0.416500
vn -0.022700 0.210100 -0.977400
vn -0.985900 0.142600 0.087900
vn -0.799700 0.595800 0.073500
vn 0.455100 -0.119400 0.882400
vn 0.192700 -0.391800 0.899600
vn 0.708400 -0.563000 0.425600
vn -0.923100 0.364700 0.121900
vn -0.818700 0.316900 0.478800
vn -0.745500 0.483100 0.459100
vn -0.864000 0.223500 -0.451100
vn 0.270200 -0.622500 0.734500
vn -0.975900 -0.089800 -0.198900
vn 0.679000 -0.099300 -0.727400
vn 0.663500 0.107700 -0.740400
vn 0.559400 -0.098400 -0.823000
vn 0.528700 -0.185200 -0.828400
vn -0.999900 0.010400 -0.001600
vn 0.530400 -0.184600 -0.827400
vn 0.535100 0.205800 0.819300
vn -0.518500 0.497200 0.695700
vn 0.217200 -0.032400 -0.975600
vn 0.491600 0.003300 -0.870800
vn 0.485200 -0.002000 0.874400
vn -0.848700 0.435800 -0.299600
vn 0.891400 0.291600 -0.346900
vn -0.824800 0.308500 0.473800
vn 0.083100 0.356400 -0.930600
vn -0.878400 -0.226800 -0.420700
vn 0.291700 0.258200 0.921000
vn 0.357100 -0.418400 -0.835100
vn 0.454300 -0.118600 0.882900
vn 0.435900 0.251500 -0.864200
vn 0.461400 0.302400 0.834000
vn -0.972100 -0.139500 -0.188400
vn 0.303400 0.047600 0.951700
vn -0.953900 0.291400 -0.071500
vn 0.499000 -0.174800 0.848800
vn -0.968200 -0.136400 -0.209600
vn 0.668900 0.111400 -0.735000
vn 0.439400 0.696900 -0.566900
vn -0.927900 0.038800 0.370800
vn 0.730700 -0.010900 -0.682600
vn -0.969100 -0.001300 -0.246800
vn 0.822900 -0.380500 0.422000
vn -0.138400 0.171600 -0.975400
vn 0.303100 0.047600 0.951800
vn 0.685900 0.116700 -0.718200
vn 0.291300 0.252800 0.922600
vn 0.729200 -0.091100 -0.678200
vn -0.951200 0.304900 0.047300
vn 0.951200 -0.304900 -0.047300
vn 0.550700 0.171600 -0.816800
vn -0.550700 -0.171600 0.816800
vn 0.489200 -0.685100 0.539700
vn -0.489200 0.685100 -0.539700
vn -0.740200 -0.428700 -0.517900
vn 0.740200 0.428700 0.517900
vn 0.096700 0.196100 0.975800
vn -0.096700 -0.196100 -0.975800
vn -0.970400 0.132800 -0.201900
vn 0.970400 -0.132800 0.201900
vn 0.628700 -0.102100 -0.770900
vn -0.628700 0.102100 0.770900
vn 0.614600 -0.122600 -0.779300
vn -0.614600 0.122600 0.779300
vn 0.221200 -0.826000 0.518400
vn -0.221200 0.826000 -0.518400
vn 0.719800 0.327600 0.612000
vn -0.719800 -0.327600 -0.612000
vn 0.546300 0.159800 -0.822200
vn -0.546300 -0.159800 0.822200
vn -0.967000 -0.250100 -0.048900
vn 0.967000 0.250100 0.048900
vn -0.250700 -0.041800 0.967200
vn 0.250700 0.041800 -0.967200
vn -0.405600 -0.339600 0.848600
vn 0.405600 0.339600 -0.848600
vn 0.690900 0.271100 0.670100
vn -0.690900 -0.271100 -0.670100
vn 0.688400 0.465300 0.556400
vn -0.688400 -0.465300 -0.556400
usemtl NW_NATURE_BARK_04
s off
f 116/1/1 3/2/1 79/3/1
f 63/4/2 123/5/2 3/2/2
f 125/6/3 100/7/3 27/8/3
f 28/9/4 125/6/4 27/8/4
f 74/10/5 104/11/5 36/12/5
f 88/13/6 87/14/6 104/11/6
f 118/15/7 41/9/7 34/8/7
f 89/6/8 118/7/8 34/8/8
f 114/10/9 44/11/9 121/12/9
f 1/13/10 84/14/10 44/11/10
f 101/9/11 43/6/11 42/8/11
f 85/15/12 101/9/12 42/8/12
f 114/10/13 1/13/13 44/11/13
f 79/3/14 3/2/14 113/16/14
f 3/2/15 73/17/15 113/16/15
f 1/13/16 72/18/16 84/14/16
f 128/18/17 124/19/17 112/20/17
f 124/10/18 70/13/18 119/11/18
f 50/10/19 51/11/19 117/12/19
f 78/18/20 117/20/20 95/14/20
f 108/12/21 83/11/21 28/9/21
f 29/14/22 108/20/22 100/7/22
f 127/6/23 109/7/23 54/8/23
f 55/9/24 127/6/24 54/8/24
f 103/10/25 59/11/25 120/12/25
f 93/18/26 120/20/26 106/14/26
f 115/12/27 99/11/27 55/9/27
f 56/14/28 115/20/28 109/7/28
f 70/13/29 61/14/29 119/11/29
f 124/10/30 119/11/30 112/12/30
f 112/12/31 62/9/31 126/15/31
f 119/11/32 61/14/32 129/6/32
f 116/1/33 63/4/33 3/2/33
f 63/4/34 80/21/34 123/5/34
f 64/22/35 2/23/35 63/4/35
f 80/21/36 116/24/36 79/25/36
f 66/3/37 65/2/37 110/16/37
f 65/2/38 69/5/38 68/17/38
f 2/23/39 80/21/39 63/4/39
f 65/2/40 68/17/40 110/16/40
f 69/5/41 102/26/41 68/17/41
f 69/5/42 66/25/42 102/26/42
f 70/13/43 128/18/43 61/14/43
f 48/2/44 47/17/44 122/16/44
f 71/3/45 48/2/45 122/16/45
f 76/5/46 111/26/46 47/17/46
f 113/16/47 73/17/47 72/18/47
f 72/18/48 114/19/48 121/20/48
f 73/17/49 114/19/49 72/18/49
f 80/21/50 79/25/50 123/5/50
f 74/10/51 88/13/51 104/11/51
f 35/18/52 74/19/52 36/20/52
f 75/10/53 53/13/53 83/11/53
f 53/13/54 94/18/54 29/14/54
f 48/2/55 76/5/55 47/17/55
f 50/10/56 77/13/56 51/11/56
f 66/3/57 110/16/57 102/27/57
f 78/18/58 50/19/58 117/20/58
f 68/17/59 50/19/59 78/18/59
f 110/16/60 68/17/60 78/18/60
f 77/13/61 78/18/61 95/14/61
f 79/3/62 113/16/62 45/27/62
f 123/5/63 79/25/63 45/26/63
f 2/23/39 67/28/39 80/21/39
f 67/28/64 116/24/64 80/21/64
f 117/12/65 51/11/65 82/9/65
f 51/11/66 96/6/66 82/9/66
f 49/15/67 82/9/67 81/8/67
f 82/9/68 96/6/68 81/8/68
f 53/13/69 29/14/69 83/11/69
f 83/11/70 125/6/70 28/9/70
f 72/18/71 121/20/71 84/14/71
f 44/11/72 84/14/72 43/6/72
f 84/14/73 85/7/73 43/6/73
f 43/6/74 85/7/74 42/8/74
f 86/10/75 60/13/75 99/11/75
f 60/13/76 105/18/76 56/14/76
f 35/18/77 36/20/77 87/14/77
f 87/14/78 118/7/78 89/6/78
f 88/13/79 35/18/79 87/14/79
f 104/11/80 87/14/80 89/6/80
f 41/9/81 89/6/81 34/8/81
f 91/16/82 90/17/82 93/18/82
f 58/27/83 91/16/83 92/13/83
f 103/10/84 92/13/84 59/11/84
f 93/18/85 103/19/85 120/20/85
f 90/17/86 103/19/86 93/18/86
f 91/16/87 93/18/87 92/13/87
f 92/13/88 93/18/88 106/14/88
f 94/18/89 108/20/89 29/14/89
f 77/13/90 95/14/90 51/11/90
f 51/11/91 95/14/91 96/6/91
f 95/14/92 49/7/92 96/6/92
f 96/6/93 49/7/93 81/8/93
f 120/12/94 59/11/94 98/9/94
f 59/11/95 107/6/95 98/9/95
f 57/15/96 98/9/96 97/8/96
f 98/9/97 107/6/97 97/8/97
f 60/13/98 56/14/98 99/11/98
f 99/11/99 127/6/99 55/9/99
f 108/12/100 28/9/100 100/15/100
f 100/15/101 28/9/101 27/8/101
f 121/12/102 44/11/102 101/9/102
f 44/11/103 43/6/103 101/9/103
f 102/27/104 77/13/104 50/10/104
f 68/17/105 102/26/105 50/19/105
f 58/27/106 92/13/106 103/10/106
f 90/17/107 58/26/107 103/19/107
f 36/12/108 104/11/108 41/9/108
f 104/11/109 89/6/109 41/9/109
f 105/18/110 115/20/110 56/14/110
f 92/13/111 106/14/111 59/11/111
f 59/11/112 106/14/112 107/6/112
f 106/14/113 57/7/113 107/6/113
f 107/6/114 57/7/114 97/8/114
f 75/10/115 83/11/115 108/12/115
f 94/18/116 75/19/116 108/20/116
f 115/12/117 55/9/117 109/15/117
f 109/15/118 55/9/118 54/8/118
f 102/27/119 110/16/119 77/13/119
f 110/16/120 78/18/120 77/13/120
f 71/3/121 122/16/121 111/27/121
f 76/5/122 71/25/122 111/26/122
f 128/18/123 112/20/123 61/14/123
f 61/14/124 112/20/124 126/7/124
f 45/27/125 113/16/125 1/13/125
f 113/16/126 72/18/126 1/13/126
f 45/27/127 1/13/127 114/10/127
f 73/17/128 45/26/128 114/19/128
f 86/10/129 99/11/129 115/12/129
f 105/18/130 86/19/130 115/20/130
f 64/22/131 63/4/131 116/1/131
f 67/28/132 64/29/132 116/24/132
f 117/12/133 82/9/133 49/15/133
f 95/14/134 117/20/134 49/7/134
f 36/12/135 41/9/135 118/15/135
f 87/14/136 36/20/136 118/7/136
f 112/12/137 119/11/137 62/9/137
f 119/11/138 129/6/138 62/9/138
f 120/12/139 98/9/139 57/15/139
f 106/14/140 120/20/140 57/7/140
f 121/12/141 101/9/141 85/15/141
f 84/14/142 121/20/142 85/7/142
f 111/27/143 122/16/143 70/13/143
f 122/16/144 128/18/144 70/13/144
f 3/2/145 123/5/145 73/17/145
f 123/5/146 45/26/146 73/17/146
f 111/27/147 70/13/147 124/10/147
f 47/17/148 111/26/148 124/19/148
f 83/11/149 29/14/149 125/6/149
f 29/14/150 100/7/150 125/6/150
f 61/14/151 126/7/151 129/6/151
f 126/15/152 62/9/152 46/8/152
f 99/11/153 56/14/153 127/6/153
f 56/14/154 109/7/154 127/6/154
f 122/16/155 47/17/155 128/18/155
f 47/17/156 124/19/156 128/18/156
f 62/9/157 129/6/157 46/8/157
f 129/6/158 126/7/158 46/8/158
usemtl NW_NATURE_ROOTS_01
f 19/30/159 6/31/159 5/32/159
f 6/31/160 19/30/160 5/32/160
f 23/30/161 9/31/161 8/32/161
f 9/31/162 23/30/162 8/32/162
f 24/30/163 12/31/163 10/32/163
f 12/31/164 24/30/164 10/32/164
f 14/32/165 13/33/165 15/30/165
f 13/33/166 14/32/166 15/30/166
f 17/32/167 16/33/167 18/30/167
f 16/33/168 17/32/168 18/30/168
f 5/32/169 4/33/169 19/30/169
f 4/33/170 5/32/170 19/30/170
f 21/32/171 20/33/171 22/30/171
f 20/33/172 21/32/172 22/30/172
f 8/32/173 7/33/173 23/30/173
f 7/33/174 8/32/174 23/30/174
f 10/32/175 11/33/175 24/30/175
f 11/33/176 10/32/176 24/30/176
f 18/30/177 25/31/177 17/32/177
f 25/31/178 18/30/178 17/32/178
f 22/30/179 26/31/179 21/32/179
f 26/31/180 22/30/180 21/32/180
f 15/30/181 30/31/181 14/32/181
f 30/31/182 15/30/182 14/32/182
f 37/30/183 33/31/183 32/32/183
f 33/31/184 37/30/184 32/32/184
f 32/32/185 31/33/185 37/30/185
f 31/33/186 32/32/186 37/30/186
f 40/30/187 39/31/187 52/32/187
f 39/31/188 40/30/188 52/32/188
f 52/32/189 38/33/189 40/30/189
f 38/33/190 52/32/190 40/30/190
