# Blender v2.75 (sub 0) OBJ File: 'Empty.blend'
# www.blender.org
mtllib OW_O_LAKEHUT.mtl
o OW_O_LAKEHUT
v 1.479329 0.550528 5.758526
v -6.338152 0.451529 -6.167795
v 6.952785 0.584987 -5.364172
v -6.374754 0.082256 5.721280
v -5.679993 3.411613 -5.821885
v -5.878243 3.571061 2.600674
v 0.617696 3.222657 -4.596303
v 0.946149 3.296073 1.110427
v 4.984791 2.262026 -5.171672
v 5.033522 2.733984 1.228702
v -0.441202 2.718256 -5.202769
v 6.841241 0.252083 6.068222
v -0.186141 2.902771 1.246092
v -2.364304 0.441148 6.005816
v 2.473311 4.122105 -5.235055
v 2.688375 4.684576 1.203011
v -1.680790 0.388949 -0.528342
v -5.770916 0.322078 -5.454078
v -5.505575 3.333941 -5.378348
v -5.527220 0.388949 -1.034892
v -5.285652 3.307611 -5.220562
v -5.554985 0.331742 -5.204865
v -2.041932 0.068666 3.088360
v -5.477811 3.347148 -1.022975
v 1.361874 0.538834 2.814459
v -1.622346 3.238588 -0.596737
v 0.445976 0.388949 0.574108
v -0.288584 0.322078 -4.655463
v 0.504021 3.043540 0.571682
v 4.455627 0.322078 -4.562052
v 4.125938 3.104819 0.460349
v 4.060310 0.379285 0.420503
v 4.690390 2.347658 -4.833755
v -0.014664 2.851827 -4.622173
v 0.227234 3.004002 -4.500734
v -0.036328 0.331742 -4.443099
v -5.418892 3.406758 -1.385965
v -3.131000 0.361972 -0.940185
v -3.183538 2.726968 -0.990176
v 4.521257 2.508962 -4.495771
v 1.387560 0.392098 0.338676
v 1.537119 2.610356 0.386595
v 2.656424 4.415100 0.464891
v 3.281569 0.361972 0.356120
v 2.605577 4.401727 0.183637
v 4.635120 0.331742 -4.711706
v 3.219768 2.544078 0.420335
v -1.924485 0.322078 -3.938212
v -1.708555 0.331742 -4.154150
v -1.650110 3.307611 -4.169846
v -4.864503 2.580117 -1.076171
v -1.870032 3.172520 -3.862482
v 6.142121 0.389432 5.667355
v 6.415702 -19.156397 5.634111
v 6.343687 0.398297 5.270406
v -2.333317 0.297518 3.112298
v -2.064709 -19.248308 3.050640
v -2.174347 0.306383 2.696454
v 2.036635 0.417234 5.568600
v 2.126686 -19.128593 5.308134
v 1.768220 0.426099 5.213422
v -6.120151 0.297518 5.509281
v -5.854674 -19.248308 5.583263
v -5.782022 0.306383 5.219684
v -5.683735 3.401115 2.249477
v -5.418258 -16.144712 2.323459
v -5.345607 3.409980 1.959880
v 2.014334 0.410182 2.584481
v 1.764709 -19.135645 2.467697
v 1.633046 0.419047 2.814300
v -2.563061 0.326773 5.440469
v -2.787224 -19.219053 5.280149
v -2.979846 0.335638 5.596954
v -2.091345 3.310001 1.011331
v -2.074866 -16.235826 1.286431
v -1.707442 3.318866 1.236754
v 1.858271 -19.128592 4.952956
v -5.080129 -16.144712 2.033862
v -1.905740 -19.248308 2.634796
v -1.690962 -16.235826 1.511854
v -5.516545 -19.248308 5.293666
v -3.204009 -19.219053 5.436635
v 1.383420 -19.135645 2.697515
v 6.617268 -19.156393 5.237163
v 2.516221 4.715739 -5.217957
v 6.987621 0.167257 -5.340202
v -6.385008 0.498852 5.635750
v -2.052188 0.403357 3.094693
v -6.303315 0.092679 -6.154131
v 1.372129 0.212038 2.794362
v 2.682523 4.350427 1.181802
v 4.843658 2.473347 1.209523
v 4.701381 2.065482 -5.207335
v 4.331454 2.872280 0.438527
v -5.771365 0.307444 5.486841
v -5.334949 3.411041 2.227037
v -2.037504 0.307444 2.926151
v -1.956573 3.319927 1.333809
v -2.898488 0.336699 5.342264
v 1.666627 0.420107 2.549048
v 6.455770 0.399357 5.513147
v 2.035529 0.427160 5.219093
v 6.729352 -19.156397 5.479905
v 2.125581 -19.128592 4.958628
v -1.940094 -16.235826 1.608910
v -5.069471 -16.144712 2.301019
v -5.505888 -19.248308 5.560823
v -3.122652 -19.219053 5.181944
v -1.768897 -19.248308 2.864492
v 1.417002 -19.135645 2.432264
v 0.679092 3.142492 1.134397
v -5.867988 3.320902 2.580577
v -1.842269 3.347148 -0.608012
v 6.830987 0.503430 6.044252
v 1.774689 0.413806 5.524203
v -2.434476 0.294089 2.866629
v 6.067195 0.386003 5.412457
v -2.680026 0.323344 5.679018
v 1.942800 0.406753 2.840351
v -1.832349 3.306572 0.952106
v -5.655413 3.397686 1.985310
v -6.091828 0.294089 5.245114
v -1.815870 -16.235825 1.227206
v -5.389935 -16.144712 2.059292
v -5.826351 -19.248308 5.319097
v -2.165868 -19.248308 2.804971
v -2.904189 -19.219053 5.518698
v 1.693174 -19.135645 2.723567
v 1.864741 -19.128592 5.263737
v 6.340776 -19.156393 5.379215
v 3.222955 2.551183 0.313414
v 1.540309 2.610683 0.279852
v 0.230101 0.379285 0.591455
v -5.743151 0.379285 -1.041608
v -1.896721 0.379285 -0.544979
v -2.354048 0.224697 5.999483
v 0.709535 3.131759 0.516473
v 1.489584 0.334077 5.738430
v 4.276186 0.388949 0.403156
v 0.162042 2.744950 1.261527
v -5.023623 0.391770 -1.037788
v -5.447884 3.451668 -1.119305
v -3.148114 0.354866 -0.773099
v -5.257889 3.364818 -1.097764
v -3.200653 2.719863 -0.823090
v 0.743867 3.368240 -4.522521
v -5.688243 3.271949 -5.788832
v 0.032856 2.666199 -5.221425
v -4.847407 2.580444 -1.181585
v 1.384371 0.391770 0.445419
v -5.006527 0.392098 -1.143202
v 3.278383 0.354867 0.463041
v 2.607235 4.249705 -1.823306
v -1.736834 3.314144 -0.893669
v 0.673275 3.096942 0.515926
v 2.511440 4.397604 -4.724843
v 4.190122 2.970232 0.134269
v -1.765917 3.328738 -0.602395
v 4.199309 3.034863 0.426846
v 0.347726 0.337550 0.552172
v 0.667213 3.094341 0.247764
v 2.602173 4.488287 -4.498257
v 4.119112 0.409173 0.197811
v -5.600137 0.337550 -1.055973
v -1.815531 0.276148 -0.839938
v -1.832581 0.290743 -0.547294
v -5.583177 0.292640 -1.276480
v 0.329557 0.292640 0.377755
v 4.140406 0.400319 0.394130
vt 0.102614 -0.993214
vt 0.637180 -0.999500
vt 0.598714 -0.040454
vt 0.011845 -0.034691
vt 0.000499 -1.013281
vt 0.988155 -1.033692
vt 0.986708 -1.044786
vt 0.994555 -0.155274
vt 0.018498 -0.349739
vt 0.397182 -0.959546
vt 0.895447 -0.964200
vt 0.906926 -0.023547
vt 0.091135 -0.034168
vt 0.908865 0.110228
vt 0.401286 0.043084
vt 0.906926 -1.096680
vt 0.999501 -0.080272
vt 0.578846 -0.000499
vt 0.058271 -0.356411
vt 0.000500 -0.997183
vt 0.005445 -1.063457
vt 0.999501 -0.475115
vt 0.985115 -0.999501
vt 0.310343 -0.437845
vt 0.085083 -0.371505
vt 0.000192 -0.988617
vt 1.004546 -0.394300
vt 0.749117 -0.453907
vt 0.764401 -0.984421
vt 0.916497 -0.320561
vt 0.688825 -0.437766
vt 0.728657 -0.975399
vt 0.250052 -0.452185
vt -0.002150 -0.397836
vt 0.016366 -0.971261
vt 0.502444 -0.000500
vt 0.091135 -0.576119
vt 0.502444 -1.110228
vt 0.602217 -0.000499
vt 0.411042 -0.003740
vt 0.407906 -0.270590
vt 0.325925 -0.208169
vt 0.337264 -0.963732
vt 0.688825 -0.480327
vt 0.250052 -0.490747
vt 0.250883 -0.523941
vt 0.523941 -0.453907
vt 0.490747 -0.452185
vt 0.504005 -0.982699
vt 0.689657 -0.513466
vt 0.519673 -0.437766
vt 0.486534 -0.437845
vt 0.468272 -0.975478
vt 0.305758 -0.841407
vt 0.381347 -0.144169
vt 0.399063 -0.848892
vt 0.292841 -0.134823
vt 0.419976 -0.958967
vt 0.501411 -0.975399
vt 0.537199 -0.984421
vt 0.270511 -0.975478
vt 0.234768 -0.982699
vt 1.004546 -0.999501
vt 0.989186 -0.973407
vt -1.430451 -2.212399
vt 2.426961 -2.471343
vt 1.183052 0.513213
vt 2.440561 1.331991
vt 0.192193 0.422916
vt -1.395101 1.463619
vt 1.273637 1.451233
vt 0.158104 1.371552
vt 0.416975 1.471343
vt 0.322749 -2.204675
vt 0.786766 -2.212399
vt 2.643289 -0.403638
vt -1.647170 -0.367065
vt -1.658415 -0.481541
vt -0.360488 -0.406483
vt -1.658415 -0.390670
vt -1.655105 -0.504835
vt 0.760092 -2.466940
vt 0.771670 1.359550
vt 0.308912 1.331991
vt 0.842363 -0.379713
vt -0.259734 -0.416840
vt -0.256423 -0.508559
vt 0.213234 0.511172
vt 0.585011 0.513213
vt 0.626990 1.451233
vt 2.632043 -0.501978
vt 0.361479 -2.471343
vt 0.845673 -0.469269
vt 0.264500 0.422916
vt 0.627507 0.416440
vt 0.491945 1.365077
vt 0.883589 -0.435825
vt 2.611161 -0.458295
vt 2.607852 -0.389415
vt 0.696173 1.463619
vt -0.357178 -0.465800
vt 0.386555 1.449193
vt 0.880278 -0.376509
vt 0.251511 1.371552
vt 1.359204 -0.972603
vt 1.344757 -0.008102
vt 0.222352 -0.005850
vt 1.343382 0.006157
vt 0.250215 0.003742
vt 0.250310 -0.992354
vt 0.231162 -0.970356
vt 1.349217 -0.990219
vt 0.225817 -0.011306
vt 0.662285 -0.242064
vt 1.146828 -0.323995
vt 0.940619 -0.195034
vt 1.332958 -0.002296
vt 0.462920 -0.236029
vt 0.251321 -0.005914
vt 0.250820 -0.998792
vt 1.449785 -0.983175
vt 1.365818 -0.039048
vt 1.148051 -0.909509
vt 1.456545 -0.016732
vt 0.255122 0.003328
vt 0.273719 -0.951325
vt 0.918571 -0.961910
vt 0.976066 -0.997968
vt 0.948185 -0.208117
vt 0.986901 -0.456466
vt 0.380316 -0.456342
vt 0.380455 -0.499694
vt 0.873621 -0.208507
vt 0.986914 -0.498327
vt 0.156127 -0.083443
vt 0.101250 -0.087725
vt 0.125258 -0.955585
vt 0.184082 -0.960966
vt 0.226937 -0.977748
vt 0.889702 -1.007009
vt 0.447470 -0.942710
vt 0.649307 -0.965234
vt 1.354418 -0.987519
vt 1.371525 -1.002645
vt 0.477891 -0.995546
vt -0.282136 0.467124
vt 2.088333 0.338315
vt -0.294878 -1.412218
vt 0.999501 -0.159130
vt 0.028133 -0.000500
vt 0.000500 -0.999500
vt 0.399159 -0.825585
vt 0.998562 -0.997117
vt 0.982105 -0.004420
vt 0.951720 -0.822742
vt 0.404780 -0.145866
vt 0.498275 -0.073933
vt 0.777368 -0.474772
vt 0.769035 -0.072132
vt 0.215740 -0.831208
vt 0.458324 -0.071720
vt 0.234893 -0.070104
vt 2.062225 -1.467124
vt 1.086797 -0.949019
vt 0.521627 -0.838833
vt 0.446496 -0.840664
vt 0.030908 -0.073392
vt 0.995039 -0.077622
vt 0.999500 -0.836771
vt 0.017882 -0.834496
vt 0.422224 -1.456245
vt 1.107745 -1.414933
vt 0.230965 -0.239843
vt 0.234893 -0.311486
vt 0.458324 -0.642220
vt 0.004961 -0.721570
vt 0.784796 -0.245962
vt 0.784260 -0.311563
vt 0.982118 -0.680082
vt 0.521627 -0.595775
vt 0.999500 -0.628912
vt 0.000500 -0.836771
vt 0.030908 -0.760157
vt 0.004961 -0.077622
vt 0.001929 -0.507904
vt 0.914496 -0.547212
vt 0.951720 -0.513375
vt 0.000500 -0.452788
vt 0.997117 -0.513686
vt 0.999500 -0.464573
vt 0.000500 -0.495877
vt 0.501725 -0.073933
vt 0.478373 -0.838833
vt 0.553504 -0.626760
vt 0.998219 -0.446918
vt 0.000500 -0.471287
vt 0.020096 -0.553082
vt 0.004420 -0.523296
vt 0.999500 -0.525388
vt 0.501725 -0.632000
vt 0.784796 -0.833724
vt 1.000000 -1.000000
vt 1.000000 -0.000000
vt 0.000000 -1.000000
vt 0.018098 -0.004861
vt 0.995170 -0.980608
vt 0.999501 -0.000500
vt 0.000000 -0.000000
vt 0.005075 -0.029790
vt 0.000500 -0.980296
vt 0.994925 -0.999501
vt 0.874213 3.121751
vt 0.769121 3.124045
vt 0.769045 -4.123056
vt 0.874104 2.416109
vt 0.769045 2.428885
vt 0.769275 -3.422514
vt 0.876110 -4.123055
vt 0.872360 -3.408239
vt 0.840784 3.060654
vt 0.768745 3.043292
vt 0.769045 -4.051105
vt 0.841083 -4.033545
vt 0.874306 -0.012731
vt 0.767049 -0.010861
vt 0.767325 -0.973508
vt 0.844978 2.494652
vt 0.769045 2.524396
vt 0.768836 -3.486664
vt 0.846666 -3.530056
vt 0.765991 -0.006548
vt 0.766512 -0.989140
vt 0.873669 -0.989896
vt 0.874477 -0.975338
vt 0.873775 -0.006049
vn -0.990200 0.102500 0.095100
vn 0.990800 -0.097200 -0.094100
vn -0.996300 0.025200 -0.082500
vn 0.997300 -0.023200 0.070200
vn -0.989700 0.105900 0.096700
vn -0.011400 0.014400 -0.999800
vn 0.990700 -0.099700 -0.092700
vn -0.015500 0.023100 0.999600
vn -0.996300 0.032300 -0.079400
vn 0.026400 -0.031100 0.999200
vn 0.145800 -0.004200 0.989300
vn -0.016200 0.019100 0.999700
vn 0.021200 -0.028000 -0.999400
vn -0.173900 -0.019600 -0.984600
vn 0.997300 -0.023100 0.070200
vn -0.103500 -0.057300 -0.993000
vn -0.021200 -0.030200 0.999300
vn 0.017600 -0.064100 -0.997800
vn 0.086900 -0.016700 0.996100
vn -0.033900 -0.997200 -0.067300
vn -0.999100 -0.027400 -0.031600
vn -0.039300 -0.999200 -0.004200
vn 0.997300 -0.067900 0.029600
vn 0.080100 -0.000800 0.996800
vn 0.261400 -0.004800 0.965200
vn 0.080800 -0.016000 0.996600
vn 0.092000 -0.100000 0.990700
vn -0.029300 -0.018500 -0.999400
vn -0.133200 -0.113500 -0.984600
vn 0.004600 -0.022400 0.999700
vn 0.101400 0.019400 0.994700
vn 0.005300 -0.056800 -0.998400
vn 0.007500 0.008500 0.999900
vn -0.184400 -0.024100 -0.982600
vn -0.032900 -0.042400 -0.998600
vn 0.080400 -0.014200 0.996700
vn -0.010700 0.999900 0.010100
vn 0.019700 0.999800 -0.003900
vn 0.002200 1.000000 0.007200
vn -0.041500 0.998900 -0.022700
vn 0.015400 0.999800 -0.011300
vn 0.009000 0.999900 -0.004300
vn 0.996400 0.083800 0.012200
vn 0.060800 -0.052100 -0.996800
vn -0.087000 0.198300 0.976300
vn -0.999600 -0.025800 -0.006000
vn 0.082400 -0.016300 0.996500
vn 0.993900 0.028400 0.106200
vn 0.061300 -0.032000 -0.997600
vn -0.995300 -0.096800 -0.003600
vn 0.088100 -0.058400 0.994400
vn -0.998600 -0.033900 0.041200
vn -0.059800 0.092300 0.993900
vn 0.999100 0.041800 0.011000
vn -0.067800 -0.032400 0.997200
vn 0.993600 0.044000 0.104200
vn -0.053900 -0.094800 0.994000
vn -0.997900 -0.051000 0.040000
vn 0.995900 -0.090200 -0.005500
vn -0.367900 0.038200 0.929100
vn 0.995900 -0.090200 -0.005400
vn -0.329400 -0.018800 0.944000
vn 0.126000 -0.149100 -0.980800
vn -0.150000 -0.005000 0.988700
vn -0.999800 0.018900 0.007900
vn 0.127100 -0.154400 -0.979800
vn 0.287700 -0.037700 -0.957000
vn -0.999800 0.018500 0.007500
vn -0.140400 -0.045000 0.989100
vn -0.040500 0.022300 0.998900
vn -0.994400 -0.024300 -0.102900
vn 0.091400 -0.995300 -0.033000
vn 0.082100 -0.996600 0.010200
vn 0.984800 -0.068800 0.159500
vn 0.074500 -0.019600 -0.997000
vn -0.159200 0.017300 0.987100
vn -0.033400 0.020000 0.999200
vn 0.074700 -0.019400 -0.997000
vn -0.168100 0.021600 0.985500
vn 0.232500 -0.046400 -0.971500
vn 0.005900 -1.000000 -0.005300
vn -0.003700 -1.000000 -0.000900
vn 0.010500 0.999800 -0.018700
vn -0.026100 -0.999600 0.005300
vn 0.042700 0.999000 0.011300
vn -0.005200 -0.999900 -0.013900
vn -0.554700 0.822200 0.127700
vn 0.512300 -0.858700 0.013800
vn 0.002800 -1.000000 0.007500
vn -0.441600 0.897200 -0.008200
vn 0.537200 -0.843400 -0.000500
vn 0.045100 -0.998300 0.036600
vn -0.677800 -0.733700 0.048200
vn 0.702100 0.707800 0.078300
vn 0.585400 0.808200 -0.064100
vn -0.654900 -0.753100 0.062400
vn 0.031400 -0.997900 0.056900
vn -0.017900 -0.999000 0.042100
vn -0.023800 0.030500 -0.999300
vn 0.044100 0.025600 -0.998700
vn -0.066700 -0.062000 0.995800
vn 0.054700 -0.064200 0.996400
vn -0.044800 -0.040800 0.998200
vn 0.807400 -0.589600 0.019600
vn 0.076800 0.069800 -0.994600
vn 0.564200 -0.823700 0.056400
vn 0.205600 -0.208200 0.956200
vn 0.210100 -0.069700 0.975200
vn -0.999000 -0.039100 -0.022800
vn -0.414000 -0.909300 0.042400
vn -0.012700 0.069500 0.997500
vn 0.190700 0.307300 -0.932300
vn -0.998300 0.053800 -0.021800
vn 0.178800 -0.236600 -0.955000
vn -0.108600 -0.994000 0.014200
vn -0.034500 0.043500 -0.998500
vn 0.635100 0.762000 -0.126500
vn -0.525000 0.844300 -0.107300
vn 0.304800 -0.002900 -0.952400
vn -0.996100 0.087600 0.005100
vn -0.996000 0.089000 0.006100
vn 0.299000 -0.010900 -0.954200
vn 0.999800 -0.020700 -0.007300
vn 0.999800 -0.019700 -0.008100
vn -0.456800 -0.004900 -0.889600
vn 0.441100 0.004600 0.897500
vn -0.547300 -0.004900 -0.836900
vn 0.532500 0.004600 0.846400
vn -0.999800 -0.004900 0.020600
vn 1.000000 0.004600 -0.003000
vn -0.081600 -0.004900 -0.996700
vn 0.064100 0.004600 0.997900
vn -0.084000 -0.004900 0.996500
vn 0.101500 0.004600 -0.994800
vn -0.264200 -0.004900 0.964500
vn 0.281100 0.004600 -0.959700
vn 0.915800 -0.004900 -0.401600
vn -0.922700 0.004600 0.385500
vn -0.999800 -0.004900 0.020800
vn 1.000000 0.004600 -0.003200
vn -0.081800 -0.004900 -0.996600
vn 0.064200 0.004600 0.997900
vn -0.547400 -0.004900 -0.836800
vn 0.532600 0.004600 0.846400
vn 0.915700 -0.004900 -0.401800
vn -0.922700 0.004600 0.385600
vn -0.264000 -0.004900 0.964500
vn 0.281000 0.004600 -0.959700
vn -0.083800 -0.004900 0.996500
vn 0.101400 0.004600 -0.994800
vn -0.457000 -0.004900 -0.889500
vn 0.441200 0.004600 0.897400
vn 0.999100 0.013400 -0.039900
vn 0.859000 0.013400 -0.511800
vn 0.363000 0.013400 0.931700
vn -0.952500 0.013400 -0.304200
vn -0.992000 0.013400 -0.125500
vn 0.907800 0.013400 -0.419200
vn 0.021200 0.013400 -0.999700
vn -0.952500 0.013400 -0.304300
vn -0.992000 0.013400 -0.125600
vn -0.040400 0.022000 0.998900
vn -0.166900 -0.013900 0.985900
vn -0.924500 -0.013900 0.380900
vn -0.959300 -0.013900 0.282200
vn 0.897900 -0.013900 0.440000
vn 0.963000 -0.013900 0.269100
vn -0.223100 -0.013900 -0.974700
vn -0.994200 -0.013900 -0.106400
vn -0.222900 -0.013900 -0.974700
vn -0.994200 -0.013900 -0.106600
vn -0.924600 -0.013900 0.380700
vn 0.897800 -0.013900 0.440200
vn 0.963000 -0.013900 0.269200
vn -0.167100 -0.013900 0.985800
vn -0.959300 -0.013900 0.282000
vn -0.030900 -0.003500 0.999500
vn -0.077900 0.025500 0.996600
vn 0.322600 -0.009200 0.946500
usemtl OW_O_LAKEHUT_V1_5
s off
f 133/1/1 29/2/1 34/3/1
f 137/4/2 27/5/2 36/6/2
f 32/7/3 31/8/3 40/9/3
f 94/10/4 139/11/4 46/12/4
f 34/3/5 28/13/5 133/1/5
f 28/14/6 34/15/6 46/16/6
f 36/6/7 35/17/7 137/4/7
f 162/18/8 35/19/8 36/20/8
f 40/9/9 30/21/9 32/7/9
f 40/22/10 36/20/10 30/23/10
f 42/24/11 155/25/11 160/26/11
f 159/27/12 47/28/12 152/29/12
f 161/30/13 132/31/13 41/32/13
f 131/33/14 157/34/14 163/35/14
f 46/12/15 33/36/15 94/10/15
f 156/37/16 33/38/16 46/16/16
f 47/28/17 43/39/17 42/24/17
f 45/40/18 131/33/18 132/31/18
f 94/41/19 31/42/19 32/43/19
f 132/44/20 131/45/20 47/46/20
f 47/47/21 131/48/21 44/49/21
f 47/46/22 42/50/22 132/44/22
f 132/51/23 42/52/23 150/53/23
f 27/54/24 29/55/24 133/56/24
f 137/57/25 29/55/25 27/54/25
f 94/41/26 32/43/26 139/58/26
f 132/51/23 150/53/23 41/59/23
f 44/49/21 152/60/21 47/47/21
f 43/39/27 155/25/27 42/24/27
f 34/15/28 156/37/28 46/16/28
f 131/33/29 45/40/29 157/34/29
f 43/39/30 47/28/30 159/27/30
f 160/26/31 150/61/31 42/24/31
f 132/31/32 161/30/32 45/40/32
f 40/22/33 162/18/33 36/20/33
f 163/35/34 44/62/34 131/33/34
f 41/32/35 168/63/35 161/30/35
f 152/29/36 169/64/36 159/27/36
usemtl OW_O_LAKEHUT_V1_2
f 3/65/37 2/66/37 88/67/37
f 87/68/38 88/67/38 2/66/38
f 25/69/39 114/70/39 3/65/39
f 88/67/40 25/69/40 3/65/40
f 87/68/41 14/71/41 88/67/41
f 114/70/42 25/69/42 1/72/42
f 12/73/43 86/74/43 3/75/43
f 2/76/44 3/77/44 86/78/44
f 14/79/45 87/80/45 4/81/45
f 89/82/46 4/83/46 87/84/46
f 25/85/47 88/86/47 23/87/47
f 23/88/48 88/89/48 14/90/48
f 86/78/49 89/91/49 2/76/49
f 87/84/50 2/92/50 89/82/50
f 23/87/51 90/93/51 25/85/51
f 25/94/52 90/95/52 138/96/52
f 138/97/53 12/98/53 114/99/53
f 3/75/54 114/100/54 12/73/54
f 4/81/55 136/101/55 14/79/55
f 14/90/56 136/102/56 23/88/56
f 114/99/57 1/103/57 138/97/57
f 138/96/58 1/104/58 25/94/58
usemtl OW_O_LAKEHUT_V1_4
f 22/105/59 21/106/59 144/107/59
f 52/108/60 21/109/60 22/110/60
f 144/107/61 20/111/61 22/105/61
f 52/108/62 22/110/62 48/112/62
f 154/113/63 39/114/63 149/115/63
f 145/116/64 158/117/64 51/118/64
f 52/119/65 48/120/65 135/121/65
f 149/115/66 37/122/66 154/113/66
f 37/122/67 149/115/67 151/123/67
f 135/121/68 113/124/68 52/119/68
f 158/117/69 142/125/69 51/118/69
f 51/118/70 142/125/70 164/126/70
f 38/127/71 143/128/71 145/129/71
f 149/130/72 39/131/72 145/132/72
f 145/129/71 39/133/71 38/127/71
f 145/132/73 51/134/73 149/130/73
f 149/135/74 51/136/74 141/137/74
f 149/135/74 141/137/74 151/138/74
f 39/114/75 154/113/75 165/139/75
f 158/117/76 145/116/76 143/140/76
f 164/126/77 141/141/77 51/118/77
f 165/139/78 38/142/78 39/114/78
f 143/140/79 166/143/79 158/117/79
f 151/123/80 167/144/80 37/122/80
usemtl OW_O_LAKEHUT_V1_1
f 23/145/81 89/146/81 86/147/81
f 89/146/82 23/145/82 4/148/82
f 146/149/83 5/150/83 6/151/83
f 111/152/84 112/153/84 147/154/84
f 6/151/85 8/155/85 146/149/85
f 147/154/86 7/156/86 111/152/86
f 11/157/87 153/158/87 85/159/87
f 91/160/88 148/161/88 15/162/88
f 86/147/89 12/163/89 90/164/89
f 11/157/90 13/165/90 153/158/90
f 91/160/91 140/166/91 148/161/91
f 86/147/92 90/164/92 23/145/92
f 91/160/93 15/162/93 93/167/93
f 153/158/94 9/168/94 85/159/94
f 9/168/95 153/158/95 10/169/95
f 93/167/96 92/170/96 91/160/96
f 4/148/97 23/145/97 136/171/97
f 12/163/98 138/172/98 90/164/98
f 85/173/99 15/174/99 148/175/99
f 85/173/100 9/176/100 15/174/100
f 16/177/101 91/178/101 92/179/101
f 16/177/102 13/180/102 91/178/102
f 16/177/103 92/179/103 10/181/103
f 93/167/104 10/182/104 92/170/104
f 15/174/105 9/176/105 93/183/105
f 93/167/106 9/184/106 10/182/106
f 112/185/107 111/186/107 8/187/107
f 8/187/108 6/188/108 112/185/108
f 112/189/109 6/190/109 5/191/109
f 11/192/110 140/166/110 13/193/110
f 13/180/111 140/194/111 91/178/111
f 5/195/112 146/196/112 7/197/112
f 5/191/113 147/198/113 112/189/113
f 5/195/114 7/197/114 147/199/114
f 11/192/115 148/161/115 140/166/115
f 148/175/116 11/200/116 85/173/116
f 153/158/117 16/201/117 10/169/117
f 13/165/118 16/201/118 153/158/118
usemtl OW_O_LAKEHUT_V1_3
f 18/202/119 19/203/119 49/204/119
f 19/205/120 18/151/120 134/206/120
f 134/206/121 24/207/121 19/205/121
f 19/203/122 50/208/122 49/204/122
f 26/209/123 17/210/123 49/211/123
f 49/211/124 50/207/124 26/209/124
f 117/212/125 55/213/125 84/214/125
f 101/215/126 53/216/126 54/217/126
f 116/212/127 58/213/127 79/214/127
f 97/215/128 56/216/128 57/217/128
f 115/212/129 61/213/129 77/214/129
f 102/215/130 59/216/130 60/217/130
f 122/212/131 64/213/131 81/214/131
f 95/215/132 62/216/132 63/217/132
f 121/212/131 67/213/131 78/214/131
f 96/215/132 65/216/132 66/217/132
f 119/212/133 70/213/133 83/214/133
f 100/215/134 68/216/134 69/217/134
f 118/212/135 73/213/135 82/214/135
f 99/215/136 71/216/136 72/217/136
f 120/212/137 76/213/137 80/214/137
f 98/215/138 74/216/138 75/217/138
f 77/214/139 129/218/139 115/212/139
f 60/217/140 104/219/140 102/215/140
f 78/214/141 124/218/141 121/212/141
f 66/217/142 106/219/142 96/215/142
f 79/214/143 126/218/143 116/212/143
f 57/217/144 109/219/144 97/215/144
f 80/214/145 123/218/145 120/212/145
f 75/217/146 105/219/146 98/215/146
f 81/214/141 125/218/141 122/212/141
f 63/217/142 107/219/142 95/215/142
f 82/214/147 127/218/147 118/212/147
f 72/217/148 108/219/148 99/215/148
f 83/214/149 128/218/149 119/212/149
f 69/217/150 110/219/150 100/215/150
f 84/214/151 130/218/151 117/212/151
f 54/217/152 103/219/152 101/215/152
f 64/220/153 95/221/153 107/222/153
f 67/220/153 96/221/153 106/222/153
f 58/220/154 97/221/154 109/222/154
f 76/220/155 98/221/155 105/222/155
f 73/220/156 99/221/156 108/222/156
f 70/220/157 100/221/157 110/222/157
f 55/220/158 101/221/158 103/222/158
f 61/220/159 102/221/159 104/222/159
f 103/222/158 84/223/158 55/220/158
f 104/222/159 77/223/159 61/220/159
f 105/222/155 80/223/155 76/220/155
f 106/222/153 78/223/153 67/220/153
f 107/222/153 81/223/153 64/220/153
f 108/222/160 82/223/160 73/220/160
f 109/222/154 79/223/154 58/220/154
f 110/222/161 83/223/161 70/220/161
f 26/224/162 113/225/162 135/226/162
f 59/227/163 115/228/163 129/229/163
f 56/227/164 116/228/164 126/229/164
f 53/227/165 117/228/165 130/229/165
f 71/227/166 118/228/166 127/229/166
f 68/227/167 119/228/167 128/229/167
f 74/227/168 120/228/168 123/229/168
f 65/227/169 121/228/169 124/229/169
f 62/227/169 122/228/169 125/229/169
f 123/229/170 75/230/170 74/227/170
f 124/229/171 66/230/171 65/227/171
f 125/229/171 63/230/171 62/227/171
f 126/229/172 57/230/172 56/227/172
f 127/229/173 72/230/173 71/227/173
f 128/229/174 69/230/174 68/227/174
f 129/229/175 60/230/175 59/227/175
f 130/229/176 54/230/176 53/227/176
f 24/231/177 134/232/177 20/233/177
f 26/224/178 135/226/178 17/234/178
f 24/231/179 20/233/179 144/235/179
