# Blender v2.75 (sub 0) OBJ File: 'Empty.blend'
# www.blender.org
mtllib PC_CRYSTALLIGHT_02.mtl
o PC_CRYSTALLIGHT_02
v 0.068842 -2.590608 -0.003175
v 0.103993 -0.789096 -0.003932
v -0.103540 -0.789096 -0.003932
v 0.136090 -0.219963 0.035705
v 0.000227 -0.823769 -0.140812
v 0.038350 -0.219963 -0.139795
v -0.136654 -0.823769 -0.003932
v -0.069902 -2.590608 -0.003175
v -0.137150 -0.219963 -0.042055
v -0.039410 -0.219963 0.133445
v 0.000227 -0.823769 0.132948
v 0.137107 -0.823769 -0.003932
v 0.000227 -0.789096 0.099834
v 0.000227 -0.789096 -0.107698
v -0.000530 -2.590608 0.066197
v -0.000530 -2.590608 -0.072548
v -0.216361 -0.399943 0.055145
v 0.000621 -0.162782 -0.003175
v -0.058850 -0.399943 0.212656
v 0.215301 -0.399943 0.055145
v -0.000530 -0.585125 0.204492
v 0.057790 -0.399943 0.212656
v 0.057790 -0.399943 -0.219006
v 0.207137 -0.585125 -0.003175
v 0.215301 -0.399943 -0.061495
v -0.208197 -0.585125 -0.003175
v -0.216361 -0.399943 -0.061495
v -0.000530 -0.585125 -0.210842
v -0.058850 -0.399943 -0.219006
v -0.073147 -0.789096 0.069442
v 0.073601 -0.789096 0.069442
v -0.073147 -0.789096 -0.077306
v 0.073601 -0.789096 -0.077306
v -0.049130 -0.532080 0.115133
v 0.048070 -0.532080 0.115133
v 0.117778 -0.532080 -0.051775
v -0.049130 -0.532080 -0.121483
v -0.137150 -0.219963 0.035705
v 0.038350 -0.219963 0.133445
v -0.039410 -0.219963 -0.139795
v 0.136090 -0.219963 -0.042055
v -0.049583 -2.590608 0.045878
v -0.049583 -2.590608 -0.052229
v 0.048524 -2.590608 0.045878
v 0.048524 -2.590608 -0.052229
v -0.118838 -0.532080 -0.051775
v -0.118838 -0.532080 0.045425
v 0.117778 -0.532080 0.045425
v 0.048070 -0.532080 -0.121483
v -0.208197 -0.682325 -0.003175
v -0.000530 -0.682325 0.204492
v 0.207137 -0.682325 -0.003175
v -0.000530 -0.682325 -0.210842
vt 0.745964 -0.992845
vt 0.700509 -0.993394
vt 0.745964 0.013578
vt 0.789276 -0.992842
vt 0.789160 0.013859
vt 0.204113 -0.523453
vt 0.275149 -0.226174
vt 0.012502 -0.226174
vt 0.086345 -0.523453
vt 0.700509 0.014051
vt 1.000000 -0.000000
vt 0.142126 -0.284705
vt 0.077485 -0.284818
vt 0.142126 -0.026903
vt 0.060508 -0.027056
vt 0.223745 -0.027056
vt 0.206768 -0.284818
vt 0.061213 -0.027125
vt 0.013905 -0.068488
vt 0.276552 -0.068488
vt 0.101147 -0.018550
vt 0.189310 -0.018550
vt 0.500167 0.045280
vt 0.245750 -0.254371
vt 0.754583 -0.254371
vt 0.090167 -0.699137
vt 0.910167 -0.699137
vt 0.754583 -0.253707
vt 0.245750 -0.253707
vt 0.090167 -0.698854
vt 0.910167 -0.698854
vt 0.681616 -0.970372
vt 0.318717 -0.970365
vt 0.410019 -0.241368
vt 0.365029 -0.999499
vt 0.634971 -0.999499
vt 0.589980 -0.241367
vt 0.183819 -0.410019
vt 0.183819 -0.589980
vt 0.502662 -0.500000
vt 0.410019 -0.816181
vt 0.589980 -0.816181
vt 0.589981 -0.183819
vt 0.410020 -0.183819
vt 0.816181 -0.589981
vt 0.816181 -0.410020
vn -0.923700 -0.017400 -0.382600
vn -0.923700 -0.017100 0.382600
vn 0.668200 -0.327200 -0.668200
vn -0.665000 -0.339900 0.665000
vn -0.666600 -0.333600 -0.666600
vn 0.382600 -0.018200 -0.923700
vn 0.923700 -0.017900 0.382600
vn 0.666600 -0.333600 0.666600
vn 0.000000 -1.000000 0.000000
vn 0.923700 -0.018200 -0.382600
vn -0.382600 -0.017100 0.923700
vn 0.000000 -0.044000 0.999000
vn 0.313600 -0.297800 0.901600
vn 0.999000 -0.044000 -0.000000
vn -0.313600 -0.297800 0.901600
vn -0.313600 -0.297800 -0.901600
vn -0.999000 -0.044000 0.000000
vn 0.901600 -0.297800 -0.313600
vn -0.000000 -0.044000 -0.999000
vn 0.382600 -0.017400 0.923700
vn -0.382600 -0.017900 -0.923700
vn -0.901600 -0.297800 0.313600
vn -0.621300 0.477400 0.621300
vn 0.901600 -0.297800 0.313600
vn 0.621300 0.477400 0.621300
vn 0.313600 -0.297800 -0.901600
vn 0.621300 0.477400 -0.621300
vn -0.901600 -0.297800 -0.313600
vn -0.621300 0.477400 -0.621300
vn -0.707100 0.000000 -0.707100
vn -0.707100 0.000000 0.707100
vn 0.707100 0.000000 0.707100
vn 0.707100 0.000000 -0.707100
vn -0.294300 0.909300 -0.294300
vn -0.294300 0.909300 0.294300
vn -0.659300 0.361400 0.659300
vn -0.659300 0.361400 -0.659300
vn 0.297500 0.907200 0.297500
vn 0.297500 0.907200 -0.297500
vn 0.659300 0.361400 0.659300
vn 0.659300 0.361400 -0.659300
vn 0.613300 -0.497700 0.613300
vn -0.613300 -0.497700 0.613300
vn 0.000000 0.402800 0.915300
vn 0.613300 -0.497700 -0.613300
vn 0.915300 0.402800 0.000000
vn -0.915300 0.402800 0.000000
vn -0.613300 -0.497700 -0.613300
vn 0.000000 0.402800 -0.915300
vn -0.383300 0.923600 0.000000
vn 0.000000 0.922500 0.386100
vn -0.000000 0.922500 -0.386100
vn 0.388900 0.921300 -0.000000
usemtl PC_CRYSTALLIGHT_01
s off
f 3/1/1 32/2/1 8/3/1
f 30/4/2 3/1/2 42/5/2
f 5/6/3 53/7/3 52/8/3
f 11/6/4 51/7/4 50/8/4
f 5/9/5 7/6/5 53/8/5
f 12/9/3 5/6/3 52/8/3
f 33/2/6 45/10/6 16/3/6
f 31/2/7 44/10/7 1/3/7
f 7/6/5 50/7/5 53/8/5
f 12/6/8 52/7/8 51/8/8
f 11/11/9 7/11/9 5/11/9
f 7/9/4 11/6/4 50/8/4
f 5/11/9 12/11/9 11/11/9
f 11/9/8 12/6/8 51/8/8
f 2/1/7 31/2/7 1/3/7
f 33/4/10 2/1/10 45/5/10
f 30/2/11 42/10/11 15/3/11
f 32/2/1 43/10/1 8/3/1
f 22/12/12 19/13/12 21/14/12
f 20/13/13 48/15/13 24/14/13
f 25/12/14 20/13/14 24/14/14
f 47/16/15 17/17/15 26/14/15
f 27/13/16 46/18/16 26/14/16
f 17/12/17 27/13/17 26/14/17
f 23/13/18 49/15/18 28/14/18
f 29/12/19 23/13/19 28/14/19
f 13/1/11 30/2/11 15/3/11
f 31/4/20 13/1/20 44/5/20
f 32/4/21 14/1/21 43/5/21
f 14/1/6 33/2/6 16/3/6
f 19/13/22 34/15/22 21/14/22
f 26/19/23 21/20/23 47/21/23
f 35/16/24 22/17/24 21/14/24
f 21/19/25 24/20/25 48/22/25
f 36/16/26 25/17/26 24/14/26
f 24/19/27 28/20/27 36/21/27
f 37/16/28 29/17/28 28/14/28
f 28/19/29 26/20/29 46/22/29
f 3/1/2 8/3/2 42/5/2
f 14/1/21 16/3/21 43/5/21
f 13/1/20 15/3/20 44/5/20
f 2/1/10 1/3/10 45/5/10
f 46/22/29 37/21/29 28/19/29
f 21/20/23 34/22/23 47/21/23
f 48/22/25 35/21/25 21/19/25
f 28/20/27 49/22/27 36/21/27
f 53/8/30 50/7/30 26/20/30
f 26/19/31 50/8/31 21/20/31
f 50/8/31 51/7/31 21/20/31
f 21/19/32 51/8/32 24/20/32
f 51/8/32 52/7/32 24/20/32
f 24/19/33 52/8/33 28/20/33
f 28/19/30 53/8/30 26/20/30
f 52/8/33 53/7/33 28/20/33
usemtl PC_CRYSTALLIGHT_02
f 18/23/34 40/24/34 9/25/34
f 10/25/35 18/23/35 38/24/35
f 38/24/36 17/26/36 19/27/36
f 27/27/37 9/25/37 29/26/37
f 4/28/38 18/23/38 39/29/38
f 18/23/39 41/29/39 6/28/39
f 19/27/36 10/25/36 38/24/36
f 4/28/40 39/29/40 22/30/40
f 22/30/40 20/31/40 4/28/40
f 41/29/41 25/30/41 6/28/41
f 48/32/42 20/31/42 22/30/42
f 17/26/43 47/33/43 19/27/43
f 10/34/44 19/35/44 22/36/44
f 25/30/41 23/31/41 6/28/41
f 40/24/37 29/26/37 9/25/37
f 25/30/45 49/32/45 23/31/45
f 4/34/46 20/35/46 25/36/46
f 27/35/47 17/36/47 9/34/47
f 46/32/48 27/27/48 29/26/48
f 23/35/49 29/36/49 6/34/49
f 17/36/47 38/37/47 9/34/47
f 9/38/50 38/39/50 18/40/50
f 18/40/51 10/41/51 39/42/51
f 39/37/44 10/34/44 22/36/44
f 29/36/49 40/37/49 6/34/49
f 18/40/52 6/43/52 40/44/52
f 41/37/46 4/34/46 25/36/46
f 4/45/53 41/46/53 18/40/53
f 37/33/48 46/32/48 29/26/48
f 47/33/43 34/32/43 19/27/43
f 22/30/42 35/33/42 48/32/42
f 25/30/45 36/33/45 49/32/45
