# Blender v2.75 (sub 0) OBJ File: 'Empty.blend'
# www.blender.org
mtllib PC_LOB_BRIDGE2.mtl
o PC_LOB_BRIDGE2
v -1.735725 0.882701 -1.882686
v 2.020272 0.763270 -1.863494
v -1.824698 0.694522 0.808410
v 1.965475 1.000779 0.806398
v 2.020272 0.590267 -1.785470
v -1.735725 1.015456 -1.873403
v 0.063402 0.902614 0.766179
v 1.915475 1.124397 0.736196
v -1.774698 0.777398 0.814205
v 0.129602 0.827641 -1.768627
v 0.128950 0.674774 -1.728724
v 0.064058 1.005912 0.730468
vt 0.425145 0.317283
vt 0.413055 -0.313516
vt -0.020686 -0.280944
vt 0.531407 -0.400780
vt 0.011285 -0.364601
vt 0.053157 0.319826
vt 0.571376 0.313633
vt -0.457764 -0.268104
vt -0.459835 0.349276
vt -0.014963 0.310352
vt 0.060929 0.144190
vt 0.062430 -0.293564
vt 0.031085 0.135249
vt 0.565019 0.190439
vt 0.565049 0.143796
vt 0.090153 0.161456
vt 0.089346 0.281777
vt 0.107864 -0.167658
vt 0.067990 0.280975
vt -0.455839 0.380920
vt -0.505732 -0.349062
vt -0.009195 0.342639
vt 0.469957 0.279417
vt -0.009039 0.314209
vt 0.039203 -0.302112
vt -0.504876 0.336055
vt -0.491770 0.371993
vt 0.092298 -0.168082
vt 0.483048 0.259009
vt 0.090312 0.201101
vt -0.378186 0.220765
vt -0.378158 0.252821
vn -0.119000 0.989200 0.085900
vn 0.049400 -0.994500 0.092100
vn -0.039400 -0.987000 0.155500
vn 0.026900 0.990300 -0.136500
vn 0.999100 0.017100 0.037900
vn -0.045700 -0.410700 -0.910600
vn -0.999500 0.002300 -0.032900
vn 0.103700 0.992300 -0.068100
vn 0.107900 -0.992000 -0.065800
vn 0.002400 0.326700 0.945100
vn 0.933500 0.356700 -0.036800
vn -0.043300 0.480100 0.876200
vn -0.856800 0.514600 0.033200
vn 0.032100 -0.089000 0.995500
vn -0.057100 -0.251900 -0.966100
vn 0.062900 0.069600 -0.995600
vn 0.051600 -0.252400 -0.966200
vn -0.117500 -0.989200 0.087300
vn -0.063500 0.995300 -0.072700
vn -0.023800 0.326800 0.944800
usemtl PSI_F_STEG_V2
s off
f 6/1/1 9/2/1 12/3/1
f 4/4/2 7/5/2 11/6/2
f 11/6/3 5/7/3 4/4/3
f 8/8/4 2/9/4 10/10/4
f 2/11/5 8/12/5 5/13/5
f 2/14/6 5/15/6 11/16/6
f 1/17/7 3/18/7 6/19/7
f 10/10/8 6/1/8 12/3/8
f 1/20/9 7/5/9 3/21/9
f 12/22/10 9/23/10 7/24/10
f 4/25/11 5/13/11 8/12/11
f 7/24/12 4/26/12 8/27/12
f 9/28/13 6/19/13 3/18/13
f 9/23/14 3/29/14 7/24/14
f 11/16/15 10/30/15 2/14/15
f 1/31/16 6/32/16 10/30/16
f 11/16/17 1/31/17 10/30/17
f 1/20/18 11/6/18 7/5/18
f 10/10/19 12/3/19 8/8/19
f 8/27/20 12/22/20 7/24/20
