# Blender v2.75 (sub 0) OBJ File: 'Empty.blend'
# www.blender.org
mtllib PC_LOB_LOG2.mtl
o PC_LOB_LOG2
v 1.204074 -0.011602 0.613102
v -1.253967 0.192752 -0.168113
v 1.422502 0.571668 0.276931
v -1.179004 -0.097462 0.149835
v 0.153464 0.263134 -0.263382
v 1.274479 -0.149294 0.237268
v -1.267899 0.213522 0.214469
v 0.223786 0.286033 0.230575
v 1.295557 0.433977 0.637614
v 1.409475 0.211187 0.029503
v -1.146124 -0.082873 -0.175361
v 0.083142 -0.077079 0.098413
v 0.039681 -0.007977 -0.202230
v 0.267247 0.415950 -0.031987
v -1.289961 0.300311 0.049220
vt 0.428020 -0.532113
vt 0.500000 -0.994703
vt 0.999500 -0.944983
vt 0.100565 -0.506214
vt 0.603710 -0.558013
vt 0.503236 -0.008625
vt 0.068304 -0.490207
vt 0.401648 -0.506214
vt 0.458663 -0.041365
vt 0.072320 -0.041365
vt 0.803685 -0.490207
vt 0.451814 -0.558013
vt 0.742936 -0.574020
vt 0.652896 -0.000500
vt 0.555607 -0.944983
vt 0.893868 -0.013756
vt 0.999500 -0.532113
vt 0.191292 -0.919053
vt 0.808708 -0.952747
vt 0.000500 -0.952747
vt 0.400416 -0.999501
vt 0.216271 -0.574020
vt 0.000500 -0.999501
vt 0.525544 -0.013756
vt 0.972321 -0.919053
vt 0.907464 -0.053475
vt 0.098095 -0.053475
vt 0.674757 -0.994703
vt 0.469673 -0.008625
vt 0.028240 -0.964041
vt 0.440843 -0.974986
vt 0.486795 -0.658469
vt 0.263879 -0.496725
vt 0.035218 -0.585033
vn 0.170100 -0.539100 -0.824900
vn 0.006600 -0.344300 0.938800
vn 0.006600 -0.974400 -0.224900
vn 0.043000 -0.191500 0.980600
vn 0.284300 -0.322900 -0.902700
vn -0.043900 0.898300 0.437200
vn -0.033600 -0.975100 -0.219300
vn -0.075100 0.888700 -0.452300
vn -0.357600 0.022100 0.933600
vn -0.269900 0.880000 0.390800
vn -0.202700 0.936500 0.286100
vn 0.143800 0.556500 -0.818300
vn -0.056400 -0.197100 -0.978800
vn -0.095100 -0.940300 0.326700
vn -0.402800 -0.171200 0.899100
vn -0.023700 0.017000 -0.999600
vn 0.062100 -0.997300 -0.038500
vn 0.172300 0.780900 -0.600400
vn -0.090200 0.850900 -0.517600
vn -0.047900 0.881700 0.469400
vn 0.944800 -0.207900 0.253200
vn -0.961400 -0.274100 -0.023600
vn -0.926600 -0.359700 -0.109800
vn -0.962200 -0.272000 -0.014400
usemtl PC_LOB_LOG2_1
s off
f 5/1/1 10/2/1 6/3/1
f 12/4/2 8/5/2 7/6/2
f 13/7/3 12/8/3 4/9/3
f 7/6/4 4/10/4 12/4/4
f 13/11/5 5/1/5 6/3/5
f 8/12/6 14/13/6 15/14/6
f 12/8/7 13/7/7 6/15/7
f 2/16/8 15/14/8 5/17/8
f 1/18/9 9/19/9 8/5/9
f 14/13/10 8/12/10 9/20/10
f 9/20/11 3/21/11 14/13/11
f 14/22/12 3/23/12 10/2/12
f 2/24/13 5/1/13 13/11/13
f 6/15/14 1/25/14 12/8/14
f 8/5/15 12/4/15 1/18/15
f 11/26/16 2/24/16 13/11/16
f 4/9/17 11/27/17 13/7/17
f 5/17/18 14/13/18 10/28/18
f 15/14/19 14/13/19 5/17/19
f 15/14/20 7/29/20 8/12/20
usemtl PC_LOB_LOG2_2
f 1/30/21 6/31/21 10/32/21
f 15/33/22 2/34/22 4/31/22
f 9/34/21 1/30/21 10/32/21
f 3/33/21 9/34/21 10/32/21
f 2/34/23 11/30/23 4/31/23
f 4/31/24 7/32/24 15/33/24
