# Blender v2.75 (sub 0) OBJ File: 'Empty.blend'
# www.blender.org
mtllib SKE_HEAD.mtl
o SKE_HEAD
v 0.059476 0.042490 -0.070741
v 0.170249 0.039337 0.060839
v 0.214640 0.026507 -0.046961
v 0.059009 -0.044094 -0.071235
v 0.169805 -0.043051 0.060369
v 0.087489 0.058616 0.048037
v 0.086844 -0.060881 0.047356
v 0.214351 -0.030121 -0.047517
v 0.119430 -0.054809 -0.090192
v 0.076341 -0.073511 -0.043985
v 0.129704 -0.001150 -0.108623
v 0.120009 0.052569 -0.089580
v 0.077125 0.071628 -0.043158
v 0.062820 -0.001276 0.063070
v 0.193332 0.060439 0.015327
v 0.192698 -0.063345 0.014111
v 0.118306 0.011108 -0.087844
v 0.110970 0.056807 -0.072031
v 0.086801 0.014651 -0.099958
v 0.079570 0.057020 -0.081129
v 0.118176 -0.013024 -0.087982
v 0.110344 -0.059196 -0.072692
v 0.086633 -0.016485 -0.100135
v 0.078945 -0.058836 -0.081790
v 0.057492 -0.052056 -0.023654
v 0.058058 0.050186 -0.023284
v 0.106952 -0.001288 0.076589
v 0.214890 -0.001761 -0.003253
v 0.165239 0.053746 -0.076643
v 0.171839 0.070299 -0.035233
v 0.164672 -0.056970 -0.077730
v 0.171104 -0.073307 -0.036643
v 0.204760 -0.001469 0.030242
v 0.187721 -0.001796 -0.089725
v -0.007740 0.017359 -0.108507
v -0.002956 0.039530 -0.041208
v -0.021391 0.000172 -0.097410
v -0.014482 0.018826 -0.096628
v 0.115309 0.067799 -0.034080
v 0.114522 -0.070145 -0.034237
v 0.039091 0.015936 -0.111309
v 0.053904 0.021963 -0.100273
v 0.129704 -0.001150 -0.108623
v 0.187721 -0.001796 -0.089725
v 0.053659 -0.023420 -0.100532
v -0.007950 -0.017617 -0.108390
v 0.058058 0.050186 -0.023284
v 0.024585 -0.054318 -0.030593
v 0.025144 0.048756 -0.030038
v -0.003441 -0.041135 -0.040938
v 0.024585 -0.054318 -0.030593
v 0.129704 -0.001150 -0.108623
v 0.187721 -0.001796 -0.089725
v 0.038908 -0.017056 -0.111429
v -0.007950 -0.017617 -0.108390
v 0.025202 -0.000365 -0.115748
v 0.214351 -0.030121 -0.047517
v -0.003441 -0.041135 -0.040938
v 0.129704 -0.001150 -0.108623
v 0.025202 -0.000365 -0.115748
v -0.014711 -0.019246 -0.096501
v 0.080805 -0.000864 -0.113774
v 0.067793 -0.000800 -0.106003
v 0.053904 0.021963 -0.100273
v 0.025144 0.048756 -0.030038
v 0.058058 0.050186 -0.023284
v 0.057492 -0.052056 -0.023654
v 0.067793 -0.000800 -0.106003
v 0.053659 -0.023420 -0.100532
v 0.109205 -0.000992 -0.100683
v 0.080805 -0.000864 -0.113774
v 0.109205 -0.000992 -0.100683
v -0.003441 -0.041135 -0.040938
v -0.014711 -0.019246 -0.096501
v 0.025144 0.048756 -0.030038
v 0.024585 -0.054318 -0.030593
v -0.007950 -0.017617 -0.108390
v -0.003441 -0.041135 -0.040938
v 0.038908 -0.017056 -0.111429
v 0.038908 -0.017056 -0.111429
v 0.109205 -0.000992 -0.100683
v 0.109205 -0.000992 -0.100683
v 0.080805 -0.000864 -0.113774
v 0.214351 -0.030121 -0.047517
v -0.003441 -0.041135 -0.040938
v -0.002956 0.039530 -0.041208
v -0.003441 -0.041135 -0.040938
v 0.129704 -0.001150 -0.108623
v 0.067793 -0.000800 -0.106003
v 0.080805 -0.000864 -0.113774
v -0.007950 -0.017617 -0.108390
v 0.084989 0.000286 -0.027920
vt 0.323529 0.818134
vt 0.121198 0.894144
vt 0.213630 0.736913
vt 0.878802 0.894144
vt 0.676471 0.818134
vt 0.786370 0.736913
vt 0.500000 0.342977
vt 0.219588 0.273304
vt 0.780412 0.273304
vt 0.586825 0.735898
vt 0.500000 0.861880
vt 0.413971 0.735898
vt 0.372374 0.431550
vt 0.500000 0.505364
vt 0.627625 0.431549
vt 0.501332 0.897539
vt 0.780362 0.513262
vt 0.819788 0.365244
vt 0.855715 0.308614
vt 0.861552 0.372424
vt -0.000000 0.794107
vt -0.000000 0.585789
vt 0.130808 0.711657
vt 0.221277 0.529654
vt 0.149088 0.308614
vt 0.143309 0.364458
vt 0.023393 0.410808
vt 0.177010 0.362042
vt 0.140031 0.544798
vt 0.023083 0.509573
vt 0.151815 0.512353
vt 0.970050 0.394415
vt 0.868165 0.533323
vt 0.856110 0.500878
vt 0.971857 0.505995
vt 0.869192 0.711657
vt 0.048799 0.302598
vt 0.066236 0.077337
vt 0.202346 0.057945
vt 0.053045 0.037463
vt 0.000925 0.013467
vt 0.051705 0.247718
vt 1.000000 0.585789
vt 1.000000 0.794107
vt 0.951201 0.302598
vt -0.066236 0.077336
vt 0.178498 0.393128
vt 0.183368 0.275245
vt 0.319542 0.277597
vt 0.778555 0.199716
vt 0.795395 0.060203
vt 0.948012 0.247717
vt 0.933764 0.077336
vt 1.000000 0.178299
vt -0.121198 0.894144
vt -0.191055 0.096337
vt -0.000000 0.178299
vt -0.053045 0.037463
vt -0.000000 0.382820
vt -0.000000 0.335460
vt 0.216928 0.199716
vt 0.321449 0.395559
vt 1.000000 0.335460
vt 1.000000 0.467761
vt 1.000000 0.382820
vt 0.001639 0.477596
vt 0.946955 0.037463
vt -0.051988 0.247717
vt 0.189423 0.186563
vt 0.314587 0.188786
vn 0.686000 0.711400 -0.152900
vn 0.679900 -0.718200 -0.148300
vn -0.998300 0.005300 0.058200
vn 0.658200 -0.007800 0.752800
vn -0.852600 0.426800 0.301400
vn 0.037400 0.983700 0.175900
vn -0.042900 0.418500 0.907200
vn 0.033300 -0.983300 0.178800
vn 0.245600 -0.006900 0.969300
vn 0.941000 -0.290000 0.174300
vn -0.051500 -0.994100 0.095400
vn -0.650200 -0.738900 0.176900
vn -0.665800 -0.678900 -0.309400
vn 0.295600 0.330800 -0.896200
vn -0.042000 0.994400 0.097000
vn -0.579600 0.246300 -0.776800
vn -0.656800 0.688600 -0.307200
vn -0.646800 0.741300 0.179300
vn -0.854500 -0.423700 0.300600
vn -0.050100 -0.426200 0.903300
vn 0.799500 0.276100 0.533500
vn 0.130500 0.872600 0.470700
vn 0.799800 -0.292600 0.524200
vn 0.120100 -0.885900 0.448100
vn -0.872800 0.015400 -0.487900
vn -0.073400 0.960100 -0.269700
vn -0.887200 0.017100 -0.461100
vn 0.365800 0.429400 -0.825700
vn 0.262600 0.352900 -0.898000
vn 0.089500 0.953900 -0.286500
vn -0.583300 -0.231400 -0.778600
vn -0.887300 -0.002200 -0.461200
vn -0.052200 -0.961900 -0.268200
vn 0.365700 -0.425000 -0.828000
vn 0.257800 -0.342900 -0.903300
vn 0.070200 -0.957400 -0.280200
vn -0.800600 -0.586300 -0.123600
vn -0.794600 0.595100 -0.120300
vn -0.275500 0.339200 0.899500
vn -0.274800 -0.347100 0.896700
vn 0.945400 0.276000 0.173100
vn 0.247500 0.363100 -0.898300
vn -0.048000 0.962200 -0.268100
vn 0.085200 0.920400 -0.381500
vn 0.610300 0.697200 -0.376000
vn -0.065100 -0.960900 -0.269100
vn 0.606600 -0.701600 -0.373900
vn 0.059700 -0.924300 -0.376900
vn 0.930000 0.238900 0.279200
vn 0.925200 -0.253900 0.282000
vn 0.625100 0.409500 -0.664500
vn 0.181400 0.791100 -0.584100
vn -0.184300 0.937300 -0.295700
vn -0.936600 0.344100 0.066200
vn -0.294600 0.913700 -0.280100
vn -0.806600 0.319600 -0.497300
vn 0.174200 0.922800 -0.343800
vn 0.067400 0.988800 0.133400
vn 0.053900 -0.990000 0.130700
vn 0.169800 -0.922600 -0.346400
vn -0.007100 0.838300 -0.545100
vn 0.104200 0.807300 -0.580800
vn 0.232400 -0.355500 -0.905300
vn 0.625000 -0.406000 -0.666800
vn 0.173100 -0.789500 -0.588800
vn -0.631700 0.001200 -0.775200
vn -0.200800 -0.004200 0.979600
vn -0.249600 -0.867800 -0.429700
vn 0.290500 -0.317600 -0.902600
vn 0.083800 -0.806900 -0.584700
vn -0.025600 -0.835400 -0.549100
vn -0.058300 -0.294700 -0.953800
vn 0.999900 -0.005000 -0.009000
vn -0.951600 0.006700 0.307400
vn -0.873000 -0.000400 -0.487800
vn -0.047900 0.300200 -0.952700
vn -0.944600 -0.321900 0.064800
vn 0.146400 0.625700 -0.766200
vn -0.510700 -0.096500 -0.854300
vn 0.408900 0.449400 -0.794300
vn -0.010000 0.987000 -0.160400
vn -0.206200 -0.002400 0.978500
vn 0.400500 -0.444100 -0.801500
vn 0.353300 -0.541700 -0.762700
vn 0.350800 -0.538200 -0.766300
vn 0.353800 0.542000 -0.762200
vn -0.301900 -0.906300 -0.295800
vn -0.187000 0.934900 -0.301700
vn 0.101400 -0.981700 -0.161000
vn -0.215700 -0.002000 -0.976500
vn -0.195100 -0.930100 -0.311200
vn 0.302500 0.001800 -0.953100
vn 0.183200 0.002600 -0.983100
vn 0.354000 0.542300 -0.762000
vn -0.219500 0.782800 -0.582200
vn 0.139900 -0.621100 -0.771200
vn 0.846000 0.000900 -0.533200
vn -0.370900 0.005300 0.928700
vn -0.347600 -0.003200 0.937600
vn -0.230100 -0.782400 -0.578600
vn -0.509100 0.111700 -0.853400
vn -0.810200 -0.302300 -0.502100
usemtl SK_SKULL_S0_D0
s off
f 15/1/1 3/2/1 30/3/1
f 8/4/2 16/5/2 32/6/2
f 14/7/3 26/8/3 25/9/3
f 5/10/4 33/11/4 2/12/4
f 26/8/5 14/7/5 6/13/5
f 6/13/6 15/1/6 30/3/6
f 6/13/7 27/14/7 2/12/7
f 16/5/8 7/15/8 32/6/8
f 2/12/9 27/14/9 5/10/9
f 28/16/10 16/5/10 8/4/10
f 7/15/11 40/17/11 32/6/11
f 7/15/12 25/9/12 10/18/12
f 10/18/13 4/19/13 24/20/13
f 34/21/14 11/22/14 29/23/14
f 6/13/15 30/3/15 39/24/15
f 1/25/16 20/26/16 19/27/16
f 1/25/17 13/28/17 20/26/17
f 13/28/18 26/8/18 6/13/18
f 14/7/19 25/9/19 7/15/19
f 27/14/20 7/15/20 5/10/20
f 33/11/21 15/1/21 2/12/21
f 6/13/22 2/12/22 15/1/22
f 16/5/23 33/11/23 5/10/23
f 5/10/24 7/15/24 16/5/24
f 12/29/25 11/22/25 17/30/25
f 18/31/26 39/24/26 12/29/26
f 18/31/27 12/29/27 17/30/27
f 19/27/28 20/26/28 17/30/28
f 20/26/29 18/31/29 17/30/29
f 18/31/30 20/26/30 39/24/30
f 24/20/31 4/19/31 23/32/31
f 9/33/32 22/34/32 21/35/32
f 40/17/33 22/34/33 9/33/33
f 24/20/34 23/32/34 21/35/34
f 22/34/35 24/20/35 21/35/35
f 40/17/36 24/20/36 22/34/36
f 10/18/37 25/9/37 4/19/37
f 1/25/38 26/8/38 13/28/38
f 6/13/39 14/7/39 27/14/39
f 14/7/40 7/15/40 27/14/40
f 15/1/41 28/16/41 3/2/41
f 11/22/42 12/29/42 29/23/42
f 30/3/43 12/29/43 39/24/43
f 29/23/44 12/29/44 30/3/44
f 3/2/45 29/23/45 30/3/45
f 9/33/46 32/6/46 40/17/46
f 32/6/47 31/36/47 8/4/47
f 9/33/48 31/36/48 32/6/48
f 28/16/49 15/1/49 33/11/49
f 16/5/50 28/16/50 33/11/50
f 34/21/51 29/23/51 3/2/51
f 19/27/52 42/37/52 1/25/52
f 35/38/53 36/39/53 1/25/53
f 36/39/54 38/40/54 37/41/54
f 38/40/55 36/39/55 35/38/55
f 37/41/56 38/40/56 35/38/56
f 20/26/57 13/28/57 39/24/57
f 39/24/58 13/28/58 6/13/58
f 7/15/59 10/18/59 40/17/59
f 10/18/60 24/20/60 40/17/60
f 35/38/61 1/25/61 41/42/61
f 1/25/62 42/37/62 41/42/62
f 9/33/63 43/43/63 31/36/63
f 31/36/64 44/44/64 8/4/64
f 4/19/65 45/45/65 23/32/65
f 46/46/66 37/41/66 35/38/66
f 47/47/67 49/48/67 48/49/67
f 51/50/68 50/51/68 4/19/68
f 52/43/69 53/44/69 31/36/69
f 54/52/70 45/45/70 4/19/70
f 55/53/71 54/52/71 4/19/71
f 54/52/72 55/53/72 56/54/72
f 57/55/73 3/2/73 28/16/73
f 37/41/74 58/56/74 36/39/74
f 59/43/75 9/33/75 21/35/75
f 35/38/76 41/42/76 60/57/76
f 61/58/77 58/56/77 37/41/77
f 42/37/78 19/27/78 62/59/78
f 42/37/79 62/59/79 63/60/79
f 41/42/80 64/37/80 63/60/80
f 26/8/81 1/25/81 65/61/81
f 66/47/82 48/49/82 67/62/82
f 69/45/83 54/52/83 68/63/83
f 23/32/84 70/64/84 21/35/84
f 71/65/85 70/64/85 23/32/85
f 72/66/86 62/59/86 19/27/86
f 73/51/87 74/67/87 55/53/87
f 1/25/88 36/39/88 75/61/88
f 25/9/89 76/50/89 4/19/89
f 60/57/90 77/46/90 35/38/90
f 78/51/91 55/53/91 4/19/91
f 60/57/92 41/42/92 79/68/92
f 63/60/93 80/68/93 41/42/93
f 81/66/94 19/27/94 17/30/94
f 17/30/95 11/22/95 82/66/95
f 23/32/96 45/45/96 83/65/96
f 84/55/97 34/21/97 3/2/97
f 49/48/98 86/69/98 85/70/98
f 49/48/99 87/70/99 48/49/99
f 70/64/100 88/43/100 21/35/100
f 90/65/101 45/45/101 89/63/101
f 91/46/102 61/58/102 37/41/102
