# Blender v2.75 (sub 0) OBJ File: 'Empty.blend'
# www.blender.org
mtllib SPOT.mtl
o SPOT
v 0.000010 0.050010 0.199990
v 0.141431 -0.049990 -0.141431
v -0.199990 -0.049990 -0.000010
v 0.150010 0.000010 0.259798
v -0.149990 0.000010 0.259798
v 0.000010 0.050010 0.399990
v 0.259818 0.000010 -0.150010
v 0.259818 0.000010 0.149990
v 0.400010 0.050010 -0.000010
v -0.095920 0.000010 -0.374127
v 0.000010 0.000010 -0.596834
v 0.095940 0.000010 -0.374127
v -0.149990 0.000010 -0.259818
v 0.200010 0.050010 -0.346420
v -0.199990 0.050010 0.346400
v -0.259798 0.000010 0.149990
v -0.259798 0.000010 -0.150010
v -0.346400 0.050010 0.199990
v -0.199990 0.050010 -0.346420
v 0.346420 0.050010 0.199990
v 0.200010 -0.049990 0.346400
v -0.346400 0.050010 -0.200010
v 0.346420 -0.049990 -0.200010
v -0.199990 -0.049990 -0.346420
v 0.000010 -0.049990 0.199990
v 0.200010 -0.049990 -0.346420
v -0.199990 0.050010 -0.000010
v -0.141411 0.050010 -0.141431
v -0.141411 -0.049990 -0.141431
v 0.200010 0.050010 0.346400
v 0.346420 0.050010 -0.200010
v 0.150010 0.000010 -0.259818
v 0.200010 0.050010 -0.000010
v 0.000010 0.050010 -0.200010
v -0.346400 -0.049990 -0.200010
v -0.199990 -0.049990 0.346400
v -0.399990 0.050010 -0.000010
v -0.346400 -0.049990 0.199990
v 0.346420 -0.049990 0.199990
v 0.141431 0.050010 -0.141431
v 0.141431 -0.049990 0.141411
v 0.000010 0.050010 -0.400010
v 0.000010 -0.049990 -0.400010
v 0.000010 -0.049990 -0.200010
v 0.141431 0.050010 0.141411
v -0.141411 0.050010 0.141411
v -0.141411 -0.049990 0.141411
v 0.200010 -0.049990 -0.000010
v 0.000010 -0.049990 0.399990
v -0.399990 -0.049990 -0.000010
v 0.400010 -0.049990 -0.000010
v 0.000010 0.073033 -0.000010
v 0.000010 -0.073013 -0.000010
v -0.299990 0.000010 -0.000010
v 0.000010 0.000010 -0.300010
v 0.000010 0.000010 0.299990
v 0.300010 0.000010 -0.000010
vt 0.000000 -0.000000
vn -0.258800 0.000000 0.965900
vn 0.119000 0.888100 -0.444000
vn 0.965900 0.000000 0.258800
vn -0.444000 0.888100 -0.119000
vn 0.258800 -0.003500 -0.965900
vn 0.258800 0.003500 -0.965900
vn 0.119000 -0.888100 -0.444000
vn 0.444000 -0.888100 0.119000
vn 0.444000 0.888100 0.119000
vn -0.444000 -0.888100 -0.119000
vn -0.119000 0.888100 -0.444000
vn -0.444000 0.888100 0.119000
vn -0.866000 0.000000 0.500000
vn -0.257300 0.000000 -0.966300
vn 0.382700 0.000000 0.923900
vn -0.923900 0.000000 0.382700
vn 0.257300 0.000000 -0.966300
vn -0.382700 0.000000 -0.923900
vn -0.923900 0.000000 -0.382700
vn 0.258800 0.000000 0.965900
vn 0.866000 0.000000 -0.500000
vn 0.965900 0.000000 -0.258800
vn -0.500000 0.000000 -0.866000
vn 0.866000 0.000000 0.500000
vn 0.382700 0.000000 -0.923900
vn -0.965900 0.000000 -0.258800
vn 0.500000 0.000000 -0.866000
vn -0.866000 0.000000 -0.500000
vn 0.444000 0.888100 -0.119000
vn -0.965900 0.000000 0.258800
vn 0.500000 0.000000 0.866000
vn -0.500000 0.000000 0.866000
vn 0.923900 0.000000 -0.382700
vn -0.258800 -0.003500 -0.965900
vn -0.258800 0.003500 -0.965900
vn 0.923900 0.000000 0.382700
vn -0.382700 0.000000 0.923900
vn -0.119000 -0.888100 -0.444000
vn 0.444000 -0.888100 -0.119000
vn -0.444000 -0.888100 0.119000
vn -0.114200 -0.992300 0.047300
vn 0.047300 0.992300 0.114200
vn 0.496200 0.841500 -0.213800
vn 0.496200 -0.841500 -0.213800
vn -0.119000 -0.888100 0.444000
vn -0.119000 0.888100 0.444000
vn 0.119000 0.888100 0.444000
vn 0.119000 -0.888100 0.444000
vn -0.114200 0.992300 0.047300
vn -0.114200 -0.992300 -0.047300
vn 0.047300 -0.992300 0.114200
vn 0.047300 0.992300 -0.114200
vn 0.114200 0.992300 -0.047300
vn -0.496200 0.841500 -0.213800
vn -0.496200 -0.841500 -0.213800
vn -0.047300 -0.992300 -0.114200
vn 0.114200 0.992300 0.047300
vn -0.047300 0.992300 0.114200
vn -0.047300 -0.992300 0.114200
vn 0.114200 -0.992300 0.047300
vn -0.047300 0.992300 -0.114200
vn -0.114200 0.992300 -0.047300
vn 0.114200 -0.992300 -0.047300
vn 0.047300 -0.992300 -0.114200
usemtl RED
s off
f 49/1/1 6/1/1 15/1/1
f 6/1/2 56/1/2 5/1/2
f 51/1/3 9/1/3 20/1/3
f 9/1/4 57/1/4 8/1/4
f 42/1/5 14/1/5 12/1/5
f 43/1/6 12/1/6 26/1/6
f 5/1/2 15/1/2 6/1/2
f 36/1/7 5/1/7 56/1/7
f 54/1/8 50/1/8 35/1/8
f 37/1/9 54/1/9 17/1/9
f 8/1/4 20/1/4 9/1/4
f 39/1/10 8/1/10 57/1/10
f 56/1/7 49/1/7 36/1/7
f 56/1/11 6/1/11 30/1/11
f 17/1/9 22/1/9 37/1/9
f 35/1/8 17/1/8 54/1/8
f 57/1/10 51/1/10 39/1/10
f 57/1/12 9/1/12 31/1/12
f 19/1/13 24/1/13 13/1/13
f 24/1/14 19/1/14 10/1/14
f 25/1/15 45/1/15 1/1/15
f 3/1/16 47/1/16 46/1/16
f 14/1/17 26/1/17 12/1/17
f 3/1/16 46/1/16 27/1/16
f 44/1/18 29/1/18 28/1/18
f 29/1/19 27/1/19 28/1/19
f 29/1/19 3/1/19 27/1/19
f 21/1/20 30/1/20 6/1/20
f 30/1/21 21/1/21 4/1/21
f 23/1/22 31/1/22 9/1/22
f 31/1/23 23/1/23 7/1/23
f 32/1/24 26/1/24 14/1/24
f 2/1/25 34/1/25 40/1/25
f 44/1/18 28/1/18 34/1/18
f 22/1/26 35/1/26 50/1/26
f 17/1/27 35/1/27 22/1/27
f 15/1/1 36/1/1 49/1/1
f 5/1/28 36/1/28 15/1/28
f 50/1/26 37/1/26 22/1/26
f 54/1/29 37/1/29 18/1/29
f 38/1/30 18/1/30 37/1/30
f 18/1/31 38/1/31 16/1/31
f 20/1/3 39/1/3 51/1/3
f 8/1/32 39/1/32 20/1/32
f 48/1/33 2/1/33 40/1/33
f 25/1/15 41/1/15 45/1/15
f 48/1/33 40/1/33 33/1/33
f 42/1/34 10/1/34 19/1/34
f 43/1/35 24/1/35 10/1/35
f 2/1/25 44/1/25 34/1/25
f 41/1/36 33/1/36 45/1/36
f 47/1/37 1/1/37 46/1/37
f 47/1/37 25/1/37 1/1/37
f 41/1/36 48/1/36 33/1/36
f 6/1/20 49/1/20 21/1/20
f 4/1/38 21/1/38 49/1/38
f 37/1/30 50/1/30 38/1/30
f 16/1/39 38/1/39 50/1/39
f 9/1/22 51/1/22 23/1/22
f 7/1/40 23/1/40 51/1/40
f 18/1/29 16/1/29 54/1/29
f 50/1/39 54/1/39 16/1/39
f 30/1/11 4/1/11 56/1/11
f 49/1/38 56/1/38 4/1/38
f 31/1/12 7/1/12 57/1/12
f 51/1/40 57/1/40 7/1/40
usemtl ORANGE
f 53/1/41 47/1/41 3/1/41
f 52/1/42 1/1/42 45/1/42
f 12/1/43 11/1/43 42/1/43
f 12/1/44 43/1/44 11/1/44
f 55/1/45 43/1/45 26/1/45
f 42/1/46 55/1/46 32/1/46
f 55/1/47 42/1/47 19/1/47
f 13/1/48 24/1/48 43/1/48
f 26/1/45 32/1/45 55/1/45
f 52/1/49 27/1/49 46/1/49
f 53/1/50 3/1/50 29/1/50
f 32/1/46 14/1/46 42/1/46
f 53/1/51 41/1/51 25/1/51
f 52/1/52 40/1/52 34/1/52
f 52/1/53 33/1/53 40/1/53
f 10/1/54 42/1/54 11/1/54
f 10/1/55 11/1/55 43/1/55
f 53/1/56 29/1/56 44/1/56
f 52/1/57 45/1/57 33/1/57
f 52/1/58 46/1/58 1/1/58
f 53/1/59 25/1/59 47/1/59
f 53/1/60 48/1/60 41/1/60
f 52/1/61 34/1/61 28/1/61
f 52/1/62 28/1/62 27/1/62
f 53/1/63 2/1/63 48/1/63
f 53/1/64 44/1/64 2/1/64
f 19/1/47 13/1/47 55/1/47
f 43/1/48 55/1/48 13/1/48
