# Blender v2.75 (sub 0) OBJ File: 'Empty.blend'
# www.blender.org
mtllib STALAG_V03.mtl
o STALAG_V03
v 0.558702 -4.570076 0.558682
v -2.011281 1.429894 -2.011302
v 2.011302 1.429894 2.011281
v -0.297142 -2.690069 0.297142
v -2.011281 1.429894 2.011281
v 2.011302 1.429894 -2.011302
v -0.558682 -4.894971 0.558682
v 0.009046 -1.704307 0.009026
v 0.558702 -3.229214 -0.558702
v 0.863425 -1.753202 -0.010737
v -0.819123 -1.758077 0.044424
v 0.709549 -3.984365 0.407835
v 0.000010 -1.186308 -1.234858
v -0.010717 -1.808984 0.863405
v 0.000010 0.335425 -1.631391
v 1.073791 -1.186308 -0.000010
v 0.806254 -2.433444 0.230099
v 1.223546 0.335425 1.223526
v -1.223526 0.335425 1.223526
v 1.223546 0.335425 -1.223546
v 0.000010 0.335425 1.631371
v -1.631371 0.335425 -0.000010
v -0.679103 -1.150702 -0.769447
v 1.631391 0.335425 -0.000010
v 0.044444 -1.670919 -0.819143
v 0.000010 -1.186308 1.077196
v -1.223526 0.335425 -1.223546
v 0.664854 -4.423648 0.558682
v 0.678117 -3.009456 -0.548573
v 0.548573 -3.009456 -0.678117
v 0.368384 -1.619698 -0.949334
v -0.949314 -1.706856 0.368364
v -0.487779 -1.769320 -0.063556
v -0.022338 -2.010258 0.497908
v 0.407855 -3.984365 0.407835
v 0.134096 -2.429071 0.518166
v 0.452551 -4.423648 0.558682
v -0.739191 -2.697357 0.297142
v 0.820153 -1.117939 0.865092
v 0.767247 -3.304144 0.767227
v -0.518166 -2.698815 0.812866
v -0.807779 -1.697955 0.807779
v 0.558702 -4.423648 0.664834
v -0.477650 -1.465319 -0.477670
v 0.497928 -1.923100 -0.022358
v 0.230119 -2.426156 0.230099
v -0.980211 -0.583342 -0.980231
v 0.971682 -1.640877 0.368364
v -1.073771 -1.186308 -0.000010
v -0.865511 -1.398482 -0.358255
v 0.558702 -4.423648 0.452531
v -0.063536 -1.682162 -0.487799
v 0.297162 -2.341436 -0.297162
v 0.419029 -3.007999 -0.548573
v 0.518186 -2.344352 -0.223487
v 0.663759 -2.838534 -0.663759
v 0.980231 -0.583342 -0.980231
v -0.223467 -2.692985 0.518166
v -0.518166 -2.692985 0.223467
v 0.650576 -4.309760 0.650556
v -0.297142 -2.697357 0.739191
v 0.223487 -2.344352 -0.518186
v 0.417631 -2.837886 -0.663759
v -0.980211 -0.583342 0.980211
v 0.368384 -1.640877 0.971662
v 0.000010 -0.592243 -1.302035
v 0.230119 -2.433444 0.806234
v 0.518186 -2.429071 0.134076
v 0.759831 -3.984365 0.558682
v 0.558702 -3.984365 0.759811
v 0.807799 -1.610796 -0.807799
v 0.357573 -3.984365 0.558682
v 0.407855 -3.984365 0.709529
v -0.820133 -1.150702 0.943154
v -0.368364 -1.706856 0.949314
v 0.949334 -1.619698 -0.368384
v 0.548573 -3.007999 -0.419029
v 0.812886 -2.350182 -0.518186
v 0.739211 -2.348724 -0.297162
v 0.824560 -1.631976 0.824540
v -0.812866 -2.698815 0.518166
v 0.980231 -0.583342 0.980211
v 0.000010 -0.592243 1.302015
vt 1.250000 0.632487
vt 0.750000 0.632487
vt 1.000000 0.413593
vt 0.250000 0.632487
vt -0.250000 0.632487
vt -0.000000 0.413593
vt 1.384653 0.018332
vt 1.250000 0.020113
vt 1.250000 -0.314321
vt 1.115347 0.018332
vt 0.500000 0.413593
vt 1.750000 0.632487
vt 1.500000 0.413593
vt 0.750000 -0.191506
vt 0.870392 -0.192089
vt 0.750000 -0.632487
vt 0.629607 -0.192089
vt 1.629607 -0.122363
vt 1.750000 -0.121780
vt 1.792365 -0.255092
vt 1.250000 -0.450365
vt 1.250000 -0.138723
vt 1.419400 -0.139307
vt 1.750000 0.413593
vt 2.000000 0.413593
vt 1.783491 -0.255384
vt 1.882177 0.022568
vt 1.750000 0.024348
vt 0.621665 -0.192964
vt 0.750000 0.006917
vt 0.680644 -0.193255
vt 0.250000 0.413593
vt 0.250000 0.229839
vt 1.333942 -0.450365
vt 1.283292 -0.538222
vt 1.298184 -0.450365
vt 0.250000 0.053444
vt 0.041235 0.010075
vt -0.750000 0.005646
vt 1.870392 -0.122363
vt 1.166058 -0.450365
vt 1.088495 -0.140181
vt 1.080600 -0.139307
vt 0.878335 -0.192964
vt 1.750000 0.229839
vt 2.000000 0.228059
vt -0.000000 0.228059
vt 1.680644 -0.123529
vt 1.617823 0.022568
vt 1.503954 -0.004133
vt 1.411505 -0.140181
vt 1.250000 0.413593
vt 0.750000 0.413593
vt 0.819356 -0.193255
vt 1.000000 0.228059
vt 1.250000 0.229839
vt 0.750000 0.229839
vt 0.500000 0.109246
vt 0.458765 -0.007356
vt 0.517250 -0.005108
vt 1.500000 0.109246
vt -0.000000 0.109246
vt -0.017250 0.012324
vt 0.230177 0.116367
vt 1.982750 0.012324
vt 0.882177 0.005137
vt 1.277547 -0.538222
vt 1.201816 -0.450365
vt 1.707635 -0.255092
vt 1.716509 -0.255384
vt 1.750000 -0.221199
vt 1.821236 -0.221069
vt 2.000000 0.109246
vt 0.375083 0.066811
vt 1.250000 0.005646
vt 1.181218 -0.450365
vt 0.985723 -0.055544
vt 0.996046 -0.015289
vt 1.216708 -0.538222
vt 1.250000 -0.515444
vt 0.772172 0.116367
vt 1.000000 0.109246
vt 1.222453 -0.538222
vt 1.250000 -0.567507
vt 1.621665 -0.123237
vt 0.617823 0.005137
vt 1.750000 -0.299335
vt 1.514277 -0.038112
vt -0.129608 -0.122363
vt 1.241510 0.122920
vn 0.000000 -0.327900 0.944700
vn 0.000000 -0.327900 -0.944700
vn 0.950600 -0.043100 0.307400
vn 0.307400 -0.043100 0.950600
vn -0.944700 -0.327900 0.000000
vn 0.944700 -0.327900 0.000000
vn 0.937600 -0.148500 -0.314500
vn 0.314500 -0.148500 -0.937600
vn -0.296500 -0.384000 0.874400
vn -0.314300 -0.142900 -0.938500
vn 0.233800 -0.673200 -0.701500
vn 0.306000 -0.144000 -0.941100
vn -0.310800 -0.137500 -0.940500
vn -0.926100 -0.100500 0.363500
vn -0.899600 -0.317600 -0.299900
vn -0.299900 -0.317600 -0.899600
vn 0.155400 -0.152700 -0.976000
vn 0.942800 -0.110800 -0.314300
vn -0.463200 -0.885800 0.028200
vn -0.909100 -0.281900 0.306700
vn -0.941500 -0.127300 0.311900
vn 0.940500 -0.137500 0.310800
vn 0.298200 -0.319400 -0.899500
vn -0.298200 -0.319400 -0.899500
vn 0.965300 -0.211700 0.152900
vn 0.311900 -0.127300 -0.941500
vn 0.887000 -0.106800 -0.449200
vn 0.960600 -0.161000 -0.226600
vn 0.701500 -0.673200 0.233800
vn 0.233800 -0.673200 0.701500
vn -0.233800 -0.673200 0.701500
vn -0.363500 -0.100500 0.926100
vn 0.701500 -0.673200 -0.233800
vn 0.945000 -0.113600 -0.306700
vn 0.298200 -0.319400 0.899500
vn -0.298200 -0.319400 0.899500
vn -0.899000 -0.329400 0.288500
vn -0.701500 -0.673200 0.233800
vn -0.899000 -0.329400 -0.288500
vn -0.216000 -0.784500 -0.581200
vn 0.899000 -0.329400 -0.288500
vn 0.899000 -0.329400 0.288500
vn -0.474200 -0.597900 -0.646300
vn -0.333200 -0.222000 -0.916400
vn -0.307000 -0.084000 0.948000
vn -0.449200 -0.106800 0.887000
vn -0.233800 -0.673200 -0.701500
vn -0.701500 -0.673200 -0.233800
vn 0.674500 -0.300200 -0.674500
vn 0.200300 -0.072100 0.977100
vn 0.695400 -0.173600 0.697300
vn 0.900200 -0.153400 -0.407500
vn 0.336400 -0.148600 -0.929900
vn -0.425200 -0.251700 -0.869400
vn 0.294700 -0.338300 -0.893700
vn -0.193100 -0.649000 -0.735900
vn -0.942200 -0.114900 -0.314800
vn -0.873000 -0.409400 -0.265000
vn 0.188400 -0.793900 -0.578200
vn 0.300100 -0.352300 -0.886500
vn 0.883000 -0.361700 -0.299100
vn -0.938500 -0.142900 -0.314300
vn -0.938900 -0.143100 -0.313000
vn -0.174200 -0.158700 -0.971800
vn -0.896100 -0.348000 -0.275300
vn -0.918700 -0.332900 0.212500
vn -0.674500 -0.300200 -0.674500
vn -0.941000 -0.127000 0.313700
vn -0.935500 -0.163800 -0.312900
vn -0.299500 -0.271600 -0.914600
vn 0.299900 -0.317600 0.899600
vn 0.899600 -0.317600 0.299900
vn 0.977100 -0.072100 0.200300
vn 0.477100 -0.155700 0.864900
vn 0.314800 -0.114900 0.942200
vn 0.186700 -0.161500 0.969100
vn -0.165000 -0.110600 0.980100
vn -0.925000 -0.277900 0.259200
vn -0.629300 -0.456200 0.629200
vn 0.649200 -0.446500 0.615900
vn -0.551900 -0.729000 -0.405000
vn -0.313600 -0.725900 -0.612100
vn 0.292600 -0.340900 -0.893400
vn 0.288100 -0.363700 0.885800
vn -0.298100 -0.361800 -0.883300
vn -0.883300 -0.361800 -0.298100
vn -0.737700 -0.541400 -0.403400
vn -0.500600 -0.522200 -0.690500
vn 0.951400 0.034400 0.306200
vn 0.925900 -0.340500 -0.163500
vn -0.867500 -0.408400 -0.284100
vn -0.951700 -0.010500 0.306800
vn -0.884000 -0.094700 -0.457800
vn -0.310100 -0.745600 -0.589900
vn -0.629300 -0.456200 -0.629200
vn 0.629300 -0.456200 -0.629200
vn -0.459800 -0.869700 -0.179400
vn -0.933700 -0.320000 -0.160500
vn -0.277200 -0.515100 0.811100
vn -0.817500 -0.503800 0.279100
vn -0.687500 -0.234000 0.687500
vn -0.602700 -0.402300 -0.689200
vn -0.136200 -0.432200 0.891400
vn 0.166100 -0.418400 0.893000
vn 0.614200 -0.354700 -0.704900
vn 0.704900 -0.354700 -0.614200
vn 0.299900 -0.317600 -0.899600
vn 0.899600 -0.317600 -0.299900
vn 0.951800 -0.283800 -0.116500
vn 0.953000 -0.277100 0.122300
vn 0.176000 -0.297400 -0.938400
vn -0.306400 -0.273300 -0.911800
vn 0.864900 -0.155700 0.477100
vn 0.615900 -0.446500 0.649100
vn 0.309200 -0.228800 0.923100
vn 0.897400 -0.330200 0.292600
vn -0.909500 -0.399500 0.115100
vn -0.880400 -0.367900 -0.299400
vn -0.691100 -0.409100 -0.595800
vn -0.900400 -0.249000 -0.356800
vn -0.899600 -0.317600 0.299900
vn -0.299900 -0.317600 0.899600
vn -0.126100 -0.320200 0.938900
vn 0.306300 0.027300 0.951500
vn 0.311000 -0.106800 -0.944400
vn -0.311000 -0.106800 -0.944400
vn -0.884000 -0.367400 0.289100
vn -0.201900 -0.166200 0.965200
vn 0.162700 -0.285500 -0.944500
vn -0.192900 -0.296900 -0.935200
vn 0.929300 -0.200900 -0.309800
vn 0.903100 -0.195300 0.382400
vn -0.314300 -0.110800 0.942800
vn 0.382400 -0.195300 0.903100
vn 0.957300 -0.196300 -0.212100
vn 0.366600 -0.213500 -0.905600
vn -0.929300 -0.200900 -0.309800
vn -0.699000 -0.151100 0.699000
vn -0.893200 -0.337000 0.297700
vn -0.309800 -0.200900 0.929300
vn -0.961300 -0.086500 0.261800
vn -0.166700 -0.240300 0.956300
vn 0.132500 -0.323900 0.936800
vn -0.306900 -0.016600 0.951600
vn 0.932800 -0.347900 0.094200
vn 0.951700 -0.012500 -0.306800
vn -0.637800 -0.431900 0.637800
vn 0.650800 -0.383800 0.655100
vn 0.928300 -0.204100 0.310800
vn 0.914800 -0.170100 -0.366400
vn 0.272100 -0.462600 0.843800
vn 0.894500 -0.331000 0.300400
vn 0.959200 -0.014100 0.282300
vn 0.255500 -0.073900 0.964000
vn -0.922400 -0.178600 -0.342500
vn -0.948000 -0.084000 0.307000
vn 0.898000 -0.331200 0.289500
vn 0.262200 -0.277500 0.924300
vn -0.296300 -0.338000 0.893300
vn 0.296300 -0.338000 0.893300
usemtl NW_NATURE_STEIN_03
s off
f 3/1/1 5/2/1 21/3/1
f 2/4/2 6/5/2 15/6/2
f 48/7/3 80/8/3 40/9/3
f 40/9/4 80/8/4 65/10/4
f 5/2/5 2/4/5 22/11/5
f 6/12/6 3/1/6 24/13/6
f 4/14/7 58/15/7 7/16/7
f 7/16/8 59/17/8 4/14/8
f 55/18/9 53/19/9 54/20/9
f 35/21/10 46/22/10 68/23/10
f 6/12/11 20/24/11 15/25/11
f 30/26/12 31/27/12 71/28/12
f 38/29/13 59/17/13 7/16/13
f 7/16/14 42/30/14 81/31/14
f 22/11/15 27/32/15 47/33/15
f 47/33/16 27/32/16 15/6/16
f 12/34/17 51/35/17 68/23/17
f 48/7/18 69/36/18 12/34/18
f 44/37/19 52/38/19 8/39/19
f 54/20/20 53/19/20 62/40/20
f 73/41/21 67/42/21 36/43/21
f 7/16/22 58/15/22 61/44/22
f 57/45/23 66/46/23 15/25/23
f 15/6/24 66/47/24 47/33/24
f 78/48/25 76/49/25 10/50/25
f 68/23/26 17/51/26 12/34/26
f 12/34/27 17/51/27 48/7/27
f 48/7/28 17/51/28 10/50/28
f 3/1/29 18/52/29 24/13/29
f 18/52/30 3/1/30 21/3/30
f 5/2/31 19/53/31 21/3/31
f 41/54/32 42/30/32 7/16/32
f 20/24/33 6/12/33 24/13/33
f 71/28/34 76/49/34 78/48/34
f 21/3/35 83/55/35 82/56/35
f 64/57/36 83/55/36 21/3/36
f 22/11/37 49/58/37 64/57/37
f 19/53/38 5/2/38 22/11/38
f 47/33/39 49/58/39 22/11/39
f 44/37/40 33/59/40 11/60/40
f 24/13/41 16/61/41 57/45/41
f 82/56/42 16/61/42 24/13/42
f 13/62/43 25/63/43 23/64/43
f 25/65/44 31/27/44 30/26/44
f 41/54/45 75/66/45 42/30/45
f 65/10/46 67/42/46 73/41/46
f 27/32/47 2/4/47 15/6/47
f 2/4/48 27/32/48 22/11/48
f 51/35/49 12/34/49 28/67/49
f 65/10/50 70/68/50 40/9/50
f 55/18/51 77/69/51 29/70/51
f 78/48/52 56/71/52 71/28/52
f 71/28/53 56/71/53 30/26/53
f 30/26/54 63/72/54 25/65/54
f 71/28/55 31/27/55 13/73/55
f 13/73/56 31/27/56 25/65/56
f 7/16/57 81/31/57 38/29/57
f 49/58/58 50/74/58 11/60/58
f 8/75/59 33/59/59 44/37/59
f 8/75/60 4/14/60 59/17/60
f 58/15/61 4/14/61 8/75/61
f 36/43/62 46/22/62 35/21/62
f 35/21/63 72/76/63 36/43/63
f 68/23/64 51/35/64 35/21/64
f 36/43/65 34/77/65 8/75/65
f 14/78/66 34/77/66 36/43/66
f 37/79/67 35/21/67 51/35/67
f 36/43/68 72/76/68 73/41/68
f 11/60/69 38/29/69 81/31/69
f 59/17/70 38/29/70 11/60/70
f 82/56/71 18/52/71 21/3/71
f 24/13/72 18/52/72 82/56/72
f 40/9/73 69/36/73 48/7/73
f 70/68/74 60/80/74 40/9/74
f 61/44/75 41/54/75 7/16/75
f 14/78/76 75/66/76 41/54/76
f 64/57/77 74/81/77 26/82/77
f 49/58/78 74/81/78 64/57/78
f 43/83/79 37/79/79 1/84/79
f 60/80/80 43/83/80 1/84/80
f 23/64/81 25/63/81 44/37/81
f 11/60/82 50/74/82 44/37/82
f 10/50/83 17/51/83 68/23/83
f 29/70/84 79/85/84 55/18/84
f 68/23/85 46/22/85 8/75/85
f 8/75/86 46/22/86 36/43/86
f 47/33/87 23/64/87 49/58/87
f 13/62/88 23/64/88 47/33/88
f 80/8/89 48/7/89 16/61/89
f 16/61/90 48/7/90 10/50/90
f 11/60/91 32/86/91 49/58/91
f 49/58/92 32/86/92 42/30/92
f 23/64/93 50/74/93 49/58/93
f 44/37/94 50/74/94 23/64/94
f 37/79/95 51/35/95 1/84/95
f 1/84/96 51/35/96 28/67/96
f 25/63/97 52/38/97 44/37/97
f 25/65/98 63/72/98 62/40/98
f 8/75/99 53/19/99 55/18/99
f 62/40/100 53/19/100 8/75/100
f 54/20/101 77/69/101 55/18/101
f 63/72/102 30/26/102 9/87/102
f 55/18/103 45/88/103 8/75/103
f 10/50/104 45/88/104 55/18/104
f 9/87/105 30/26/105 56/71/105
f 56/71/106 29/70/106 9/87/106
f 15/25/107 20/24/107 57/45/107
f 57/45/108 20/24/108 24/13/108
f 8/75/109 34/77/109 58/15/109
f 58/15/110 34/77/110 14/78/110
f 59/17/111 33/59/111 8/75/111
f 11/60/112 33/59/112 59/17/112
f 40/9/113 60/80/113 69/36/113
f 1/84/114 28/67/114 60/80/114
f 41/54/115 61/44/115 14/78/115
f 14/78/116 61/44/116 58/15/116
f 8/39/117 52/38/117 62/89/117
f 62/89/118 52/38/118 25/63/118
f 9/87/119 54/20/119 63/72/119
f 63/72/120 54/20/120 62/40/120
f 64/57/121 19/53/121 22/11/121
f 21/3/122 19/53/122 64/57/122
f 14/78/123 65/10/123 26/82/123
f 26/82/124 65/10/124 80/8/124
f 13/73/125 66/46/125 57/45/125
f 47/33/126 66/47/126 13/62/126
f 36/43/127 67/42/127 14/78/127
f 14/78/128 67/42/128 65/10/128
f 68/23/129 45/88/129 10/50/129
f 8/75/130 45/88/130 68/23/130
f 28/67/131 12/34/131 69/36/131
f 60/80/132 28/67/132 69/36/132
f 73/41/133 70/68/133 65/10/133
f 70/68/134 43/83/134 60/80/134
f 16/61/135 71/28/135 57/45/135
f 57/45/136 71/28/136 13/73/136
f 72/76/137 35/21/137 37/79/137
f 72/76/138 37/79/138 43/83/138
f 43/83/139 73/41/139 72/76/139
f 70/68/140 73/41/140 43/83/140
f 42/30/141 74/81/141 49/58/141
f 26/82/142 74/81/142 42/30/142
f 26/82/143 75/66/143 14/78/143
f 42/30/144 75/66/144 26/82/144
f 10/50/145 76/49/145 16/61/145
f 16/61/146 76/49/146 71/28/146
f 9/87/147 77/69/147 54/20/147
f 29/70/148 77/69/148 9/87/148
f 78/48/149 79/85/149 29/70/149
f 78/48/150 29/70/150 56/71/150
f 55/18/151 79/85/151 10/50/151
f 10/50/152 79/85/152 78/48/152
f 16/61/153 39/90/153 80/8/153
f 80/8/154 39/90/154 26/82/154
f 81/31/155 32/86/155 11/60/155
f 42/30/156 32/86/156 81/31/156
f 82/56/157 39/90/157 16/61/157
f 26/82/158 39/90/158 82/56/158
f 26/82/159 83/55/159 64/57/159
f 82/56/160 83/55/160 26/82/160
