# Blender v2.75 (sub 0) OBJ File: 'Empty.blend'
# www.blender.org
mtllib STALAG_V02.mtl
o STALAG_V02
v 0.069456 -4.122396 -0.277107
v 0.000010 0.965109 -1.187095
v 1.526262 1.813027 1.526242
v 0.316810 -1.578643 -0.207833
v -1.526242 1.813027 -1.526262
v 1.526262 1.813027 -1.526262
v -1.526242 1.813027 1.526242
v -0.066361 -2.850520 0.277087
v 0.124605 -2.256978 0.339434
v 0.218371 -1.917810 0.277087
v -0.316790 -1.578643 -0.207833
v -0.225367 -1.714310 -0.000010
v -0.069436 -4.122396 -0.277107
v 0.244797 -1.546847 -0.474366
v 0.225387 -1.714310 -0.000010
v -0.890303 0.965109 0.890303
v 0.000010 0.965109 1.187075
v 0.890323 0.965109 0.890303
v 1.187095 0.965109 -0.000010
v 0.890323 0.965109 -0.890323
v -0.125046 -2.935312 -0.339454
v 0.000010 -1.833019 -0.000010
v -0.163761 -1.917810 0.152393
v -1.187075 0.965109 -0.000010
v -0.890303 0.965109 -0.890323
v -0.244777 -1.462055 0.474346
v 0.066381 -2.850520 0.277087
v -0.244777 -1.546847 -0.474366
v -0.163761 -2.256978 -0.152414
v 0.163781 -2.256978 -0.152413
v -0.218351 -1.917810 0.277087
v 0.125066 -2.935312 -0.339454
v 0.405962 -0.773122 0.525782
v 0.000010 -2.935312 -0.360236
v 0.405962 -0.773122 -0.525802
v -0.405942 -0.773122 -0.525802
v 0.163781 -1.917810 0.152394
v 0.000010 -1.917810 0.110829
v -0.218351 -2.256978 -0.277107
v 0.218371 -2.256978 -0.277107
v 0.000010 -4.291980 -0.277107
v 0.000010 0.117192 -0.896004
v -0.124585 -2.256978 0.339434
v 0.000010 -2.935312 0.277087
v 0.000010 -2.850520 0.318652
v 0.000010 0.117192 0.895984
v -0.405942 -0.773122 0.525782
v 0.244797 -1.462055 0.474346
v 0.000010 -2.256978 0.360216
v 0.502948 -0.900310 -0.000010
v -0.502928 -0.900310 -0.000010
v 0.000010 -2.256978 -0.110849
v -0.125046 -2.935312 -0.214760
v 0.125066 -2.935312 -0.214760
v 0.000010 -2.256978 0.193958
v 0.000010 -2.935312 -0.193978
v 0.000010 -4.122396 -0.235543
v -0.057758 -3.990498 -0.246319
v 0.000010 -4.122396 -0.318672
v 0.057778 -3.990498 -0.307896
v 0.000010 -2.850520 0.235523
v 0.124605 -2.256978 0.214740
v 0.055865 -2.784571 0.246299
v -0.642025 0.106593 -0.672005
v 0.642045 0.106593 -0.672005
v 0.000010 -0.730726 -0.701066
v -0.124585 -2.256978 0.214740
v 0.642045 0.106593 0.671985
v -0.642025 0.106593 0.671985
v 0.000010 -0.730726 0.701046
v -0.316790 -1.493852 0.207813
v 0.316810 -1.493852 0.207813
v 0.000010 -1.451456 0.563190
v 0.000010 -1.536248 -0.563210
vt 1.757256 0.269214
vt 1.500000 0.440917
vt 1.500000 0.067833
vt 0.500000 0.067833
vt 0.500000 0.440917
vt 0.242744 0.269214
vt 2.000000 -0.339167
vt 2.000000 -0.059354
vt 1.848358 -0.061474
vt 0.151642 -0.061474
vt -0.000000 -0.059354
vt -0.000000 -0.339167
vt -0.000000 0.101750
vt 0.209283 0.093271
vt 1.790717 0.093271
vt 2.000000 0.101750
vt 0.250000 0.610501
vt -0.250000 0.610501
vt -0.000000 0.440917
vt 1.000000 0.101750
vt 1.209283 0.093271
vt 1.242744 0.269214
vt 0.790717 0.093271
vt 0.757256 0.269214
vt 1.000000 -0.203500
vt 1.000000 -0.042396
vt 0.848358 -0.044516
vt 1.167343 -0.203500
vt 1.212440 -0.135667
vt 1.074833 -0.322209
vt 1.111978 -0.203500
vt 1.151642 -0.044516
vt 1.315194 -0.050875
vt 1.000000 -0.135667
vt 0.167854 -0.339167
vt 0.073330 -0.550204
vt 0.212440 -0.203500
vt 0.078165 -0.576584
vt 0.684806 -0.050875
vt 2.000000 -0.576584
vt 1.921835 -0.576584
vt 1.887641 -0.339167
vt 1.787560 -0.203500
vt 1.500000 -0.094967
vt 1.832146 -0.339167
vt 0.750000 0.610501
vt 1.250000 0.610501
vt 1.000000 0.440917
vt 0.750000 0.440917
vt 1.250000 0.440917
vt 1.750000 0.610501
vt 1.750000 0.440917
vt 2.000000 0.440917
vt 0.112359 -0.339167
vt 1.940962 -0.550204
vt 1.000000 -0.118708
vt 0.500000 -0.094967
vt 0.250000 0.440917
vt 0.787560 -0.135667
vt 0.888022 -0.203500
vt 1.000000 -0.322209
vt 1.070982 -0.309019
vt 0.261439 -0.203500
vt -0.000000 -0.203500
vt 2.000000 -0.203500
vt 1.738561 -0.203500
vt 0.832657 -0.203500
vt 0.925167 -0.322209
vt 0.738561 -0.135667
vt 1.261439 -0.135667
vt 0.315194 -0.067833
vt 1.684806 -0.067833
vt -0.000000 -0.576584
vt 2.000000 0.271334
vt -0.000000 0.271334
vt 1.000000 -0.339167
vt 1.000000 0.271334
vt 2.000000 -0.610501
vt -0.000000 -0.610501
vn 0.893800 -0.327800 -0.306200
vn -0.893800 -0.327800 -0.306200
vn 0.332800 -0.135400 -0.933200
vn -0.332800 -0.135400 -0.933200
vn -0.362300 -0.246600 -0.898800
vn 0.362300 -0.246600 -0.898800
vn 0.000000 -0.371400 -0.928500
vn 0.362300 -0.246600 0.898800
vn -0.926700 -0.288700 0.240800
vn 0.926700 -0.288700 0.240800
vn -0.323100 -0.231200 0.917700
vn 0.842800 -0.137300 -0.520400
vn 0.842800 -0.137300 0.520400
vn 0.940100 -0.197600 0.277600
vn 0.159900 -0.235000 -0.958800
vn -0.163800 -0.039900 0.985700
vn -0.844900 -0.067500 0.530600
vn -0.940100 -0.197600 0.277600
vn 0.513300 -0.030000 0.857700
vn 0.163000 -0.109300 -0.980600
vn 0.959400 -0.108000 -0.260400
vn 0.926700 -0.288700 -0.240800
vn 0.943900 -0.321900 -0.073800
vn 0.844900 -0.067500 0.530600
vn -0.362300 -0.246600 0.898800
vn -0.928500 -0.371400 0.000000
vn 0.000000 -0.371400 0.928500
vn -0.229400 -0.688200 0.688200
vn 0.229400 -0.688200 0.688200
vn 0.928500 -0.371400 0.000000
vn 0.893800 -0.327800 0.306200
vn 0.688200 -0.688200 0.229400
vn 0.688200 -0.688200 -0.229400
vn 0.229400 -0.688200 -0.688200
vn -0.844900 -0.067400 -0.530600
vn 0.257300 -0.033800 -0.965700
vn 0.385900 -0.732700 -0.560500
vn 0.163600 -0.059400 0.984700
vn -0.385900 -0.732700 -0.560500
vn -0.943900 -0.321900 -0.073800
vn -0.893800 -0.327800 0.306200
vn -0.688200 -0.688200 0.229400
vn -0.229400 -0.688200 -0.688200
vn -0.688200 -0.688200 -0.229400
vn -0.924400 -0.195400 0.327500
vn -0.161600 -0.188800 0.968600
vn 0.529800 -0.059200 0.846000
vn 0.164000 -0.080200 -0.983200
vn -0.959400 -0.108000 -0.260400
vn -0.926700 -0.288700 -0.240800
vn -0.895300 -0.211700 0.392000
vn -0.235600 -0.287500 0.928400
vn 0.235600 -0.287500 0.928400
vn 0.895300 -0.211700 0.392000
vn -0.842800 -0.137300 -0.520400
vn -0.793200 -0.500200 -0.347300
vn 0.844900 -0.067400 -0.530600
vn 0.163800 -0.039900 -0.985700
vn 0.924400 -0.195400 0.327500
vn 0.323100 -0.231200 0.917700
vn -0.163000 -0.109300 -0.980600
vn -0.163600 -0.059400 -0.984700
vn 0.380100 -0.140000 -0.914300
vn 0.950300 -0.213000 -0.226800
vn -0.950300 -0.213000 -0.226800
vn -0.380100 -0.140000 -0.914300
vn 0.192100 -0.624900 -0.756700
vn 0.793200 -0.500200 -0.347300
vn -0.159900 -0.235000 -0.958800
vn -0.192100 -0.624900 -0.756700
vn -0.956000 -0.111000 -0.271500
vn -0.938000 -0.167100 0.303600
vn 0.938000 -0.167100 0.303600
vn 0.956000 -0.111000 -0.271500
vn -0.513300 -0.030000 -0.857700
vn -0.257300 -0.033800 0.965700
vn 0.308800 -0.308800 -0.899600
vn -0.308800 -0.308800 -0.899600
vn -0.842800 -0.137300 0.520400
vn -0.164100 -0.068900 0.984000
vn -0.163400 -0.118900 -0.979400
vn -0.525600 -0.139700 0.839200
vn 0.490100 -0.383700 0.782700
vn -0.490100 -0.383700 0.782700
vn -0.308800 -0.308800 0.899600
vn 0.308800 -0.308800 0.899600
vn -0.943300 -0.238000 0.231600
vn -0.377700 -0.156500 0.912600
vn 0.943300 -0.238000 0.231600
vn 0.377700 -0.156500 0.912600
vn 0.163400 -0.118900 0.979400
vn 0.161600 -0.188800 0.968600
vn 0.945100 -0.174700 -0.276200
vn 0.927100 -0.316100 0.201500
vn -0.927100 -0.316100 0.201500
vn -0.945100 -0.174700 -0.276200
vn -0.132100 -0.250700 0.959000
vn 0.132100 -0.250700 0.959000
vn -0.912400 -0.088800 0.399500
vn -0.244700 -0.102600 0.964200
vn 0.244700 -0.102600 0.964200
vn 0.912400 -0.088800 0.399500
vn -0.529800 -0.059200 -0.846000
vn 0.265100 -0.067400 -0.961900
vn 0.162800 -0.120000 0.979300
vn -0.162800 -0.120000 0.979300
vn 0.502600 -0.205800 0.839700
vn -0.586800 -0.192800 0.786400
vn -0.798700 -0.068800 0.597700
vn -0.418100 -0.171200 0.892100
vn -0.502600 -0.205800 -0.839700
vn 0.586800 -0.192800 -0.786400
vn 0.798700 -0.068800 -0.597700
vn 0.418100 -0.171200 -0.892100
vn -0.490100 -0.383700 -0.782700
vn 0.569600 -0.361800 -0.738000
vn 0.901600 -0.176700 -0.394700
vn 0.240900 -0.202300 -0.949200
vn 0.806700 -0.139500 -0.574300
vn 0.419400 -0.328300 -0.846400
vn -0.300100 -0.315700 -0.900200
vn -0.894100 -0.334400 -0.298000
vn 0.300100 -0.315700 -0.900200
vn 0.894100 -0.334400 -0.298000
vn 0.318800 -0.212400 -0.923700
vn -0.318800 -0.212400 -0.923700
vn -0.240900 -0.202300 -0.949200
vn -0.901600 -0.176700 -0.394700
vn 0.894100 -0.334400 0.298000
vn 0.300100 -0.315700 0.900200
vn -0.894100 -0.334400 0.298000
vn -0.300100 -0.315700 0.900200
vn 0.318800 -0.212400 0.923700
vn -0.318800 -0.212400 0.923700
vn -0.955900 -0.247700 -0.157700
vn -0.945200 -0.174300 0.276200
vn 0.945200 -0.174300 0.276200
vn 0.955900 -0.247700 -0.157700
vn 0.329000 -0.177400 0.927500
vn -0.329000 -0.177400 0.927500
vn 0.330700 -0.159200 -0.930200
vn -0.330700 -0.159200 -0.930200
usemtl NW_NATURE_STEIN_03
s off
f 65/1/1 19/2/1 50/3/1
f 51/4/2 24/5/2 64/6/2
f 34/7/3 74/8/3 14/9/3
f 28/10/4 74/11/4 34/12/4
f 66/13/5 36/14/5 64/6/5
f 65/1/6 35/15/6 66/16/6
f 5/17/7 6/18/7 2/19/7
f 70/20/8 33/21/8 68/22/8
f 51/4/9 47/23/9 69/24/9
f 68/22/10 33/21/10 50/3/10
f 49/25/11 73/26/11 26/27/11
f 62/28/12 10/29/12 27/30/12
f 27/30/13 10/29/13 9/31/13
f 48/32/14 72/33/14 50/3/14
f 62/28/15 55/25/15 38/34/15
f 53/35/16 58/36/16 56/12/16
f 39/37/17 13/38/17 53/35/17
f 51/4/18 71/39/18 26/27/18
f 56/7/19 57/40/19 1/41/19
f 14/9/20 32/42/20 34/7/20
f 40/43/21 32/42/21 14/9/21
f 50/3/22 35/15/22 65/1/22
f 50/3/23 72/33/23 15/44/23
f 54/45/24 1/41/24 40/43/24
f 69/24/25 47/23/25 70/20/25
f 7/46/26 5/17/26 24/5/26
f 3/47/27 7/46/27 17/48/27
f 7/46/28 16/49/28 17/48/28
f 18/50/29 3/47/29 17/48/29
f 6/51/30 3/47/30 19/2/30
f 50/3/31 19/2/31 68/22/31
f 3/47/32 18/50/32 19/2/32
f 20/52/33 6/51/33 19/2/33
f 6/51/34 20/52/34 2/53/34
f 21/54/35 13/38/35 39/37/35
f 60/55/36 59/40/36 34/7/36
f 38/34/37 22/56/37 15/44/37
f 56/7/38 1/41/38 54/45/38
f 12/57/39 22/56/39 38/34/39
f 12/57/40 71/39/40 51/4/40
f 69/24/41 24/5/41 51/4/41
f 16/49/42 7/46/42 24/5/42
f 25/58/43 5/17/43 2/19/43
f 5/17/44 25/58/44 24/5/44
f 31/59/45 43/60/45 26/27/45
f 26/27/46 43/60/46 49/25/46
f 49/25/47 45/61/47 27/30/47
f 62/28/48 63/62/48 55/25/48
f 28/10/49 21/54/49 39/37/49
f 64/6/50 36/14/50 51/4/50
f 39/37/51 29/63/51 12/57/51
f 12/57/52 29/63/52 52/64/52
f 52/65/53 30/66/53 15/44/53
f 15/44/54 30/66/54 40/43/54
f 67/67/55 8/68/55 31/59/55
f 12/57/56 23/69/56 31/59/56
f 40/43/57 1/41/57 32/42/57
f 32/42/58 60/55/58 34/7/58
f 48/32/59 9/31/59 10/29/59
f 48/32/60 73/26/60 49/25/60
f 34/12/61 21/54/61 28/10/61
f 34/12/62 13/38/62 21/54/62
f 66/16/63 35/15/63 14/9/63
f 14/9/64 35/15/64 50/3/64
f 51/4/65 36/14/65 28/10/65
f 28/10/66 36/14/66 66/13/66
f 15/44/67 37/70/67 38/34/67
f 10/29/68 37/70/68 15/44/68
f 38/34/69 55/25/69 67/67/69
f 38/34/70 23/69/70 12/57/70
f 39/37/71 11/71/71 28/10/71
f 12/57/72 11/71/72 39/37/72
f 40/43/73 4/72/73 15/44/73
f 14/9/74 4/72/74 40/43/74
f 34/12/75 59/73/75 13/38/75
f 58/36/76 57/73/76 56/12/76
f 65/1/77 42/74/77 2/53/77
f 2/19/78 42/75/78 64/6/78
f 31/59/79 8/68/79 43/60/79
f 43/60/80 45/61/80 49/25/80
f 55/25/81 8/68/81 67/67/81
f 8/68/82 45/61/82 43/60/82
f 27/30/83 45/61/83 44/76/83
f 45/61/84 8/68/84 44/76/84
f 69/24/85 46/77/85 17/48/85
f 17/48/86 46/77/86 68/22/86
f 26/27/87 47/23/87 51/4/87
f 70/20/88 47/23/88 26/27/88
f 50/3/89 33/21/89 48/32/89
f 48/32/90 33/21/90 70/20/90
f 49/25/91 27/30/91 9/31/91
f 49/25/92 9/31/92 48/32/92
f 50/3/93 4/72/93 14/9/93
f 15/44/94 4/72/94 50/3/94
f 51/4/95 11/71/95 12/57/95
f 28/10/96 11/71/96 51/4/96
f 52/64/97 22/56/97 12/57/97
f 15/44/98 22/56/98 52/65/98
f 53/35/99 29/63/99 39/37/99
f 52/64/100 29/63/100 53/35/100
f 54/45/101 30/66/101 52/65/101
f 40/43/102 30/66/102 54/45/102
f 55/25/103 61/61/103 8/68/103
f 63/62/104 61/61/104 55/25/104
f 52/65/105 56/7/105 54/45/105
f 53/35/106 56/12/106 52/64/106
f 1/41/107 57/40/107 41/78/107
f 41/79/108 57/73/108 58/36/108
f 13/38/109 58/36/109 53/35/109
f 58/36/110 13/38/110 41/79/110
f 13/38/111 59/73/111 41/79/111
f 41/78/112 59/40/112 60/55/112
f 1/41/113 60/55/113 32/42/113
f 60/55/114 1/41/114 41/78/114
f 8/68/115 61/61/115 44/76/115
f 44/76/116 61/61/116 63/62/116
f 62/28/117 37/70/117 10/29/117
f 38/34/118 37/70/118 62/28/118
f 27/30/119 63/62/119 62/28/119
f 63/62/120 27/30/120 44/76/120
f 64/6/121 25/58/121 2/19/121
f 24/5/122 25/58/122 64/6/122
f 2/53/123 20/52/123 65/1/123
f 65/1/124 20/52/124 19/2/124
f 66/16/125 42/74/125 65/1/125
f 64/6/126 42/75/126 66/13/126
f 67/67/127 23/69/127 38/34/127
f 31/59/128 23/69/128 67/67/128
f 19/2/129 18/50/129 68/22/129
f 68/22/130 18/50/130 17/48/130
f 69/24/131 16/49/131 24/5/131
f 17/48/132 16/49/132 69/24/132
f 68/22/133 46/77/133 70/20/133
f 70/20/134 46/77/134 69/24/134
f 31/59/135 71/39/135 12/57/135
f 26/27/136 71/39/136 31/59/136
f 10/29/137 72/33/137 48/32/137
f 15/44/138 72/33/138 10/29/138
f 70/20/139 73/26/139 48/32/139
f 26/27/140 73/26/140 70/20/140
f 14/9/141 74/8/141 66/16/141
f 66/13/142 74/11/142 28/10/142
