# Blender v2.75 (sub 0) OBJ File: 'Empty.blend'
# www.blender.org
mtllib TOUCHPLATE_SEQ_STONE_SUN_01.mtl
o TOUCHPLATE_SEQ_STONE_SUN_01
v 0.200000 1.050000 0.050000
v -0.200000 1.050000 0.050000
v 0.200000 1.450000 0.050000
v 0.200000 1.050000 -0.040000
v -0.200000 1.450000 0.050000
v -0.200000 1.050000 -0.040000
v 0.200000 1.450000 -0.040000
v -0.200000 1.450000 -0.040000
v 0.000000 -0.000000 0.050000
vt 0.665241 0.506055
vt 0.995144 0.506055
vt 0.995144 0.999500
vt 0.321308 1.001760
vt 0.321308 0.494476
vt 0.343240 0.494476
vt 0.343240 1.001760
vt 0.665241 0.999501
vt 0.999500 0.999500
vt 0.000500 0.999500
vt 0.500000 0.000500
vn 0.000000 0.000000 -1.000000
vn 1.000000 0.000000 0.000000
vn 0.000000 -1.000000 0.000000
vn -1.000000 0.000000 0.000000
vn 0.000000 1.000000 0.000000
usemtl NW_SEQ_MAYA_TOUCHSTONE_01
s off
f 4/1/1 6/2/1 8/3/1
f 3/4/2 1/5/2 4/6/2
f 6/6/3 4/7/3 1/4/3
f 8/3/1 7/8/1 4/1/1
f 1/4/3 2/5/3 6/6/3
f 8/6/4 6/7/4 2/4/4
f 5/4/5 3/5/5 7/6/5
f 4/6/2 7/7/2 3/4/2
f 7/6/5 8/7/5 5/4/5
f 2/4/4 5/5/4 8/6/4
f 2/9/1 1/10/1 9/11/1
