# Blender v2.75 (sub 0) OBJ File: 'Empty.blend'
# www.blender.org
mtllib TPL_BRIDGE_V2.mtl
o TPL_BRIDGE_V2
v 0.613506 0.958000 -0.416616
v 0.613514 2.137214 4.631993
v 0.613514 2.137214 -4.528068
v 0.597820 -2.407964 0.511720
v -0.498108 -2.407964 -3.286157
v -0.485652 1.658157 -2.624637
v -0.498108 -2.407964 3.455618
v 0.613498 1.658157 2.731614
v -0.485640 0.958000 0.523565
v -0.485652 1.658157 2.731594
v -0.485632 1.658157 -1.133113
v 0.597820 -2.407964 3.455618
v -0.439242 2.164496 -4.528057
v -0.439242 2.164496 4.631982
v -0.498112 -2.407964 -0.478454
v -0.498108 -2.407964 0.511720
v 0.597836 -2.407964 -0.478458
v 0.597820 -2.407964 -3.286157
v 0.613498 1.658157 -1.133105
v 0.613490 0.958000 -3.274312
v 0.613506 1.658157 1.240058
v -0.485652 0.958000 -0.416620
v 0.613498 1.658157 -2.624633
v 0.613490 0.958000 0.523565
v -0.485640 0.958000 3.443774
v 0.613490 0.958000 3.443774
v -0.485640 1.658157 1.240078
v -0.485640 0.958000 -3.274312
v 0.613514 2.137214 -0.064452
v -0.190857 1.916112 -0.064440
v -0.470900 1.400205 -0.064448
v 0.050300 2.137214 -4.555563
v -0.485652 0.958000 4.646102
v -0.485652 0.958000 -4.542177
v 0.613506 0.958000 -4.542173
v 0.613506 0.958000 4.646098
v 0.597836 -2.407964 -4.604015
v 0.597836 -2.407964 4.707940
v -0.498112 -2.407964 -4.604011
v -0.498112 -2.407964 4.707936
v 0.613514 1.400205 -0.064452
vt 0.010742 -0.997996
vt -0.771999 -0.997996
vt -0.206676 -0.918389
vt -0.774307 0.002248
vt 0.010968 0.001120
vt -0.206417 0.066735
vt 0.188851 -0.918389
vt 0.437439 -0.918389
vt 0.754678 -0.997996
vt 0.011039 0.094590
vt -0.206355 0.052915
vt -0.455269 -0.918389
vt -0.454851 0.075411
vt 0.010742 -0.875524
vt -0.443112 0.167172
vt -0.218324 0.167170
vt -0.443115 0.001518
vt 0.437665 0.079068
vt 0.189419 0.066057
vt 0.758898 0.011520
vt 0.424328 0.004409
vt 0.193834 0.004409
vt 0.193836 0.174280
vt 0.084653 0.004407
vt 0.084654 0.174283
vt 0.424329 0.174283
vt -0.218321 0.001516
vt 0.069705 0.167341
vt -0.086992 0.167341
vt 0.526268 0.004410
vt 0.526268 0.174281
vt 0.545719 -0.802040
vt -0.110431 0.001519
vt -0.110431 0.167171
vt -0.087261 -0.802040
vt -0.569537 0.193911
vt -0.550539 0.167171
vt -0.550539 0.001519
vt -0.573962 -0.802040
vt 0.539751 0.199000
vt 0.189176 0.052915
vt -0.769803 0.200904
vt 0.750772 0.210059
vt 0.757029 -0.802040
vt -0.774350 -0.802040
vt 0.069436 -0.802040
vt 0.010509 -0.002748
vt -0.772260 -0.040226
vt 0.010493 0.134100
vt -0.772248 0.134100
vt 0.754429 0.134100
vt 0.759005 0.040617
vt 0.754412 -0.040226
vt 0.277801 0.005441
vt 0.273767 0.664559
vt -0.005166 0.005441
vt -0.305522 0.006219
vt -0.006614 0.006219
vt -0.301756 0.673781
vt 0.706512 0.001271
vt 0.994511 0.001271
vt 0.709203 0.668729
vt 0.709639 0.005520
vt 0.712261 0.670803
vt 0.990263 0.006773
vt -0.998298 0.668043
vt -0.995506 0.011202
vt -1.278900 0.010029
vt -0.279913 0.006323
vt 0.003570 0.006323
vt 0.000777 0.673677
vt -0.014435 0.009997
vt -0.010942 0.666964
vt 0.262829 0.010915
vt -0.291908 0.007052
vt -0.005411 0.007052
vt -0.009496 0.672947
vt -0.295158 0.672947
vt -0.008374 0.664559
vt -0.286587 0.670186
vt -0.007979 0.670186
vt -0.283418 0.010866
vt 0.013044 0.673781
vt 0.281066 0.667930
vt -0.288350 0.671430
vt -0.006259 0.671430
vt -0.285141 0.004077
vt -0.002226 0.004077
vt -0.003995 0.010866
vt 1.003951 0.672105
vt -1.293476 0.666821
vt 1.008557 0.668729
vt -0.294492 0.673677
vn 1.000000 -0.000000 0.000000
vn -0.820600 0.566700 -0.073400
vn -0.874100 0.474500 -0.103700
vn 1.000000 -0.000100 0.000000
vn -0.995800 0.091300 -0.000000
vn 0.000000 -1.000000 0.000000
vn 0.000000 -0.715200 -0.698900
vn -0.999400 0.033300 0.000000
vn 0.000000 -0.680200 0.733000
vn 0.000000 -0.715200 0.698900
vn -0.999600 0.019500 0.019200
vn 0.000000 -0.713100 -0.701100
vn -0.999800 0.014500 -0.014200
vn -0.999600 0.018100 -0.019600
vn -0.800900 0.593700 0.077600
vn -0.999700 0.018800 0.018300
vn -0.871800 0.473200 0.126200
vn -0.999300 0.038400 -0.000000
vn -0.264500 0.962200 -0.064900
vn 0.025900 0.999700 0.000000
vn 0.000000 1.000000 0.000000
vn -0.264400 0.962000 0.068200
vn 0.055300 0.998400 -0.006900
vn 0.000000 0.018400 -0.999800
vn -1.000000 0.003700 0.000000
vn 1.000000 -0.004700 0.000000
vn 0.000000 -0.003500 -1.000000
vn 0.000000 -0.003500 1.000000
usemtl OTODWASMALLSONEMI
s off
f 29/1/1 2/2/1 21/3/1
f 14/4/2 30/5/2 27/6/2
f 19/7/1 23/8/1 3/9/1
f 30/5/3 31/10/3 27/11/3
f 8/12/4 21/3/4 2/2/4
f 27/6/5 10/13/5 14/4/5
f 41/14/1 29/1/1 21/3/1
f 10/15/6 27/16/6 8/17/6
f 6/18/5 11/19/5 13/20/5
f 23/21/6 19/22/6 11/23/6
f 19/22/7 1/24/7 22/25/7
f 29/1/1 41/14/1 19/7/1
f 11/23/6 6/26/6 23/21/6
f 21/27/6 8/17/6 27/16/6
f 31/10/8 22/28/8 9/29/8
f 22/25/7 11/23/7 19/22/7
f 20/30/9 23/21/9 28/31/9
f 20/32/1 3/9/1 23/8/1
f 24/33/10 21/27/10 9/34/10
f 24/35/1 41/14/1 21/3/1
f 25/36/11 14/4/11 10/13/11
f 25/37/12 10/15/12 8/17/12
f 8/17/12 26/38/12 25/37/12
f 2/2/1 26/39/1 8/12/1
f 31/10/13 9/29/13 27/11/13
f 27/16/10 9/34/10 21/27/10
f 13/20/14 28/40/14 6/18/14
f 6/26/9 28/31/9 23/21/9
f 3/9/1 29/1/1 19/7/1
f 30/5/15 13/20/15 11/19/15
f 22/28/16 31/10/16 11/41/16
f 31/10/17 30/5/17 11/41/17
f 33/42/18 14/4/18 25/36/18
f 13/20/18 34/43/18 28/40/18
f 35/44/1 3/9/1 20/32/1
f 2/2/1 36/45/1 26/39/1
f 1/46/1 41/14/1 24/35/1
f 41/14/1 1/46/1 19/7/1
usemtl OTFLTILE02
f 30/47/19 14/48/19 29/49/19
f 2/50/20 29/49/20 14/48/20
f 29/49/21 3/51/21 32/52/21
f 13/53/22 30/47/22 29/49/22
f 29/49/23 32/52/23 13/53/23
usemtl OTWABIGSMALLSTONE
f 1/54/24 17/55/24 22/56/24
f 9/57/25 22/58/25 16/59/25
f 28/60/25 34/61/25 5/62/25
f 20/63/26 18/64/26 35/65/26
f 12/66/26 26/67/26 36/68/26
f 33/69/25 25/70/25 7/71/25
f 24/72/26 4/73/26 1/74/26
f 25/75/27 26/76/27 12/77/27
f 12/77/27 7/78/27 25/75/27
f 17/55/24 15/79/24 22/56/24
f 16/80/28 4/81/28 9/82/28
f 15/83/25 16/59/25 22/58/25
f 4/73/26 17/84/26 1/74/26
f 5/85/28 18/86/28 28/87/28
f 20/88/28 28/87/28 18/86/28
f 24/89/28 9/82/28 4/81/28
f 18/64/26 37/90/26 35/65/26
f 38/91/26 12/66/26 36/68/26
f 39/92/25 5/62/25 34/61/25
f 7/71/25 40/93/25 33/69/25
