# Blender v2.75 (sub 0) OBJ File: 'Empty.blend'
# www.blender.org
mtllib TREASURE_ADDON_01.mtl
o TREASURE_ADDON_01
v -0.268729 0.000000 -0.261265
v 0.268729 0.000000 -0.261265
v -0.268729 0.000000 0.261265
v 0.268729 0.000000 0.261265
v -0.126622 0.000000 -0.123105
v 0.126622 0.000000 -0.123105
v -0.126622 0.000000 0.123105
v 0.126622 0.000000 0.123105
v 0.126622 0.175864 -0.123105
v -0.126622 0.175864 -0.123105
v 0.126622 0.175864 0.123105
v -0.126622 0.175864 0.123105
v 0.126622 -0.175864 -0.123105
v -0.126622 -0.175864 -0.123105
v 0.126622 -0.175864 0.123105
v -0.126622 -0.175864 0.123105
vt 0.000000 1.000000
vn 0.000000 1.000000 0.000000
vn 0.000000 -1.000000 0.000000
vn 1.000000 0.000000 0.000000
vn 0.000000 0.000000 -1.000000
vn -1.000000 0.000000 0.000000
vn 0.000000 0.000000 1.000000
usemtl (null)
s off
f 9/1/1 10/1/1 12/1/1
f 16/1/2 14/1/2 13/1/2
f 12/1/1 11/1/1 9/1/1
f 13/1/2 15/1/2 16/1/2
f 6/1/2 5/1/2 1/1/2
f 3/1/2 1/1/2 5/1/2
f 2/1/1 1/1/1 5/1/1
f 7/1/1 5/1/1 1/1/1
f 8/1/2 6/1/2 2/1/2
f 1/1/2 2/1/2 6/1/2
f 4/1/1 2/1/1 6/1/1
f 5/1/1 6/1/1 2/1/1
f 4/1/2 3/1/2 7/1/2
f 5/1/2 7/1/2 3/1/2
f 8/1/1 7/1/1 3/1/1
f 1/1/1 3/1/1 7/1/1
f 7/1/2 8/1/2 4/1/2
f 2/1/2 4/1/2 8/1/2
f 3/1/1 4/1/1 8/1/1
f 6/1/1 8/1/1 4/1/1
f 8/1/3 6/1/3 9/1/3
f 10/1/4 9/1/4 6/1/4
f 6/1/4 5/1/4 10/1/4
f 12/1/5 10/1/5 5/1/5
f 7/1/6 8/1/6 11/1/6
f 9/1/3 11/1/3 8/1/3
f 11/1/6 12/1/6 7/1/6
f 5/1/5 7/1/5 12/1/5
f 13/1/3 6/1/3 8/1/3
f 6/1/4 13/1/4 14/1/4
f 14/1/4 5/1/4 6/1/4
f 5/1/5 14/1/5 16/1/5
f 15/1/6 8/1/6 7/1/6
f 8/1/3 15/1/3 13/1/3
f 7/1/6 16/1/6 15/1/6
f 16/1/5 7/1/5 5/1/5
