# Blender v2.75 (sub 0) OBJ File: 'Empty.blend'
# www.blender.org
mtllib TURNSWITCH_BLOCK.mtl
o TURNSWITCH_BLOCK
v 0.249437 1.000000 -0.248508
v -0.250000 0.324744 -0.250000
v 0.250000 0.324744 0.250000
v 0.250000 0.324744 -0.250000
v -0.250000 0.324744 0.250000
v -0.240337 1.000000 0.229813
v -0.250000 0.971843 -0.250000
v 0.250000 0.940877 0.250000
v 0.031723 0.810270 -0.314970
v -0.197669 0.876454 0.286027
v 0.037506 1.018730 -0.171724
v 0.147560 1.000000 0.204689
v -0.278346 0.512172 0.098035
v 0.140342 1.034900 -0.009846
v 0.284349 0.816027 0.260922
v 0.284160 0.433909 0.040047
v -0.226878 0.681850 -0.250000
v -0.120990 0.398373 -0.276636
v -0.213045 0.562768 0.247076
v -0.250000 0.792918 -0.117572
v 0.269186 0.709605 -0.254945
v -0.034182 0.466686 0.250000
v 0.000000 -0.001998 -0.431335
v -0.000000 -0.001998 0.431340
v -0.431335 -0.001998 0.000000
v -0.395103 0.325928 0.036232
v 0.431335 -0.001998 0.000000
v -0.089718 0.325928 -0.341617
v -0.000000 0.251004 0.431340
v 0.328255 0.325928 -0.103080
v 0.321560 0.325928 0.109775
v 0.089718 0.325928 -0.341617
v 0.000000 0.221928 -0.414451
v 0.398675 0.245110 0.000000
v -0.395103 0.295053 -0.036232
v 0.053485 0.313004 0.377850
v 0.319247 0.223076 0.165815
v -0.411751 0.249913 0.000000
v -0.053486 0.277567 0.377850
vt 0.434491 0.718806
vt 0.741738 0.109430
vt 0.953302 0.528817
vt 0.000500 0.000499
vt 0.999500 0.000500
vt 0.000500 0.999500
vt 0.999500 0.999500
vt 0.385100 0.162003
vt 0.999500 0.569879
vt 0.059460 0.727323
vt 0.431704 0.210495
vt 1.058460 0.727323
vt 0.695873 0.277788
vt 0.265092 0.693135
vt 0.576217 0.797005
vt 0.168892 0.816722
vt 0.780403 0.519671
vt 1.575220 0.797005
vt 0.000500 0.569879
vt 0.168891 -0.182279
vt 0.794825 0.091032
vt -0.303127 0.277788
vt 1.433490 0.718806
vt 0.794825 1.090030
vt 0.026737 0.247580
vt -0.567297 0.210495
vt 1.025740 0.247580
vt -0.045698 0.528817
vt 1.264090 0.693135
vt 1.430700 0.210495
vt 0.146800 0.706269
vt 0.206137 0.146800
vt 0.853200 0.673421
vt 0.853200 0.258695
vt 0.162836 0.629434
vt 0.146800 0.258695
vt 0.293731 0.741305
vt 0.793862 0.695866
vt 0.853200 0.234393
vt 0.160625 0.588248
vt 0.315614 0.741305
vt 0.706269 0.741305
vt 0.673421 0.741305
vt 0.146800 0.631040
vt 0.206137 0.741305
vt 0.765606 0.670131
vt 0.625638 0.589937
vt 0.684386 0.853200
vt 0.826456 0.622365
vt 0.293731 0.853200
vt 0.839374 0.588248
vt 0.853200 0.741305
vt 0.826456 0.826456
vt 0.173544 0.622365
vt 0.146800 0.206138
vt 0.837164 0.629434
vt 0.765606 0.146800
vt 0.234393 0.722285
vt 0.853200 0.146800
vt 0.853200 0.631040
vn -0.243700 0.000100 -0.969800
vn 0.049300 -0.110700 -0.992600
vn 0.000000 -1.000000 0.000000
vn 0.993900 -0.050800 -0.097900
vn 0.999300 0.018700 -0.033200
vn -0.010700 -0.021500 0.999700
vn -0.995100 0.027000 -0.095600
vn -0.146100 0.987700 -0.055000
vn -0.996300 0.083600 -0.022100
vn 0.087600 -0.052500 0.994800
vn -0.109700 0.993500 -0.029600
vn 0.131700 0.558900 -0.818700
vn 0.235300 -0.024200 -0.971600
vn 0.058400 0.430100 0.900900
vn -0.861600 -0.068700 0.502900
vn -0.239800 0.554300 -0.797000
vn 0.042000 0.991200 -0.125700
vn -0.019300 0.586900 0.809400
vn 0.497800 0.861300 0.101600
vn -0.988800 -0.149500 0.000000
vn -0.915300 -0.005100 0.402800
vn 0.452500 0.882500 0.128300
vn 0.010400 0.987000 0.160200
vn 0.963000 0.267600 0.030700
vn -0.099400 0.059600 0.993300
vn 0.954400 -0.298600 0.000000
vn 0.989700 -0.071900 0.123600
vn -0.234900 -0.018700 -0.971800
vn -0.999700 0.014300 0.019300
vn 0.000000 -0.340200 -0.940400
vn -0.209600 0.013600 -0.977700
vn -0.923300 0.147700 0.354400
vn 0.000000 0.000000 1.000000
vn -0.991100 -0.079000 -0.106800
vn -0.972900 0.063000 -0.222700
vn 0.260400 0.039100 -0.964700
vn 0.996700 0.068700 -0.043500
vn -0.009000 0.013700 0.999900
vn -0.080100 -0.119000 0.989700
vn 0.000000 1.000000 0.000000
vn -0.706000 0.054900 0.706000
vn -0.707100 -0.000000 -0.707100
vn -0.004500 0.999000 0.043700
vn -0.706100 0.053200 -0.706100
vn 0.707100 0.000000 -0.707100
vn 0.707100 0.000000 0.707100
vn -0.707100 0.000000 0.707100
vn 0.697200 -0.166400 0.697200
vn 0.889400 0.117600 0.441700
vn 0.585600 0.060900 -0.808300
vn 0.000000 0.573600 -0.819100
vn -0.673500 -0.065400 -0.736300
vn 0.738900 0.673400 0.023200
vn 0.859600 0.113600 -0.498200
vn -0.436400 0.827800 -0.352700
vn -0.937600 0.072900 -0.340000
vn -0.286900 0.866000 0.409500
vn 0.707100 0.000100 0.707100
vn 0.372300 0.437600 0.818500
vn 0.867300 0.223000 0.445100
vn -0.958200 0.263300 -0.112200
vn -0.755700 -0.139500 0.639900
vn -0.247300 0.746400 0.617900
usemtl STEINEN_DREHRAD_MOBSI
s off
f 9/1/1 18/2/1 17/3/1
f 18/2/2 9/1/2 4/4/2
f 3/5/3 2/6/3 4/7/3
f 16/8/4 4/5/4 21/9/4
f 5/4/3 2/6/3 3/5/3
f 15/10/5 16/8/5 21/9/5
f 22/11/6 3/5/6 15/12/6
f 13/13/7 20/14/7 2/4/7
f 11/15/8 7/6/8 6/4/8
f 20/14/9 13/13/9 6/7/9
f 10/16/10 22/11/10 8/7/10
f 14/17/11 11/15/11 6/4/11
f 7/7/12 11/18/12 9/1/12
f 9/1/13 21/19/13 4/4/13
f 6/4/14 10/20/14 12/21/14
f 10/16/15 6/6/15 13/22/15
f 1/7/16 9/23/16 11/15/16
f 11/15/17 14/17/17 1/7/17
f 8/7/18 12/24/18 10/16/18
f 14/17/19 8/5/19 1/7/19
f 2/4/20 5/5/20 13/13/20
f 19/25/21 10/16/21 13/22/21
f 12/21/22 8/5/22 14/17/22
f 6/4/23 12/21/23 14/17/23
f 1/7/24 8/6/24 15/10/24
f 15/10/25 8/6/25 22/26/25
f 3/4/26 4/5/26 16/8/26
f 16/8/27 15/10/27 3/4/27
f 9/1/28 17/3/28 7/7/28
f 6/7/29 7/6/29 20/14/29
f 4/4/30 2/5/30 18/2/30
f 18/2/31 2/5/31 17/3/31
f 13/13/32 5/5/32 19/27/32
f 5/4/33 3/5/33 22/11/33
f 20/14/34 7/6/34 17/28/34
f 17/3/35 2/5/35 20/29/35
f 9/1/36 1/6/36 21/19/36
f 15/10/37 21/9/37 1/7/37
f 19/27/38 5/5/38 22/30/38
f 22/11/39 10/16/39 19/25/39
f 28/31/40 26/32/40 31/33/40
f 24/34/41 38/35/41 25/36/41
f 28/37/42 25/34/42 35/38/42
f 36/39/43 31/33/43 26/32/43
f 25/34/44 33/40/44 23/36/44
f 30/41/45 23/34/45 32/42/45
f 31/43/46 29/44/46 24/36/46
f 26/45/47 24/34/47 39/46/47
f 23/34/45 30/41/45 27/36/45
f 24/36/48 27/34/48 37/47/48
f 31/33/40 30/48/40 28/31/40
f 37/47/49 27/34/49 34/49/49
f 30/48/40 32/50/40 28/31/40
f 32/42/50 23/34/50 33/51/50
f 32/42/51 33/51/51 28/52/51
f 25/34/52 28/37/52 33/40/52
f 30/48/53 31/33/53 34/53/53
f 34/54/54 27/36/54 30/41/54
f 26/32/55 28/31/55 35/55/55
f 35/38/56 25/34/56 38/56/56
f 39/57/57 36/39/57 26/32/57
f 31/43/58 36/58/58 29/44/58
f 37/47/59 31/43/59 24/36/59
f 34/49/60 31/43/60 37/47/60
f 35/38/61 38/56/61 26/52/61
f 24/34/62 26/45/62 38/35/62
f 36/39/63 39/57/63 29/59/63
f 39/46/47 24/34/47 29/60/47
