# Blender v2.75 (sub 0) OBJ File: 'Empty.blend'
# www.blender.org
mtllib WATERPLANT_1.mtl
o WATERPLANT_1
v 0.029860 0.997045 -0.160029
v 0.047432 0.601885 -0.091021
v -0.203188 0.978754 -0.125160
v 0.020796 0.220606 0.365050
v 0.035879 -0.175677 0.288790
v 0.020917 -0.571961 0.233568
v -0.180479 -0.155817 0.228226
v 0.307059 -0.167890 0.146350
v 0.255686 -0.562741 0.129167
v 0.151762 -0.957593 0.148780
v 0.037181 -0.531400 0.155783
v 0.077421 -0.188434 0.050602
v 0.151803 -0.583594 0.079830
v 0.190231 -0.978754 0.134233
v -0.067812 -0.601885 0.105292
v -0.146463 0.990187 -0.081266
v -0.102776 0.595028 -0.030545
v -0.100202 0.199868 0.048963
v -0.310233 0.565498 -0.097698
v -0.018813 -0.968245 0.195689
v -0.186182 -0.552100 0.166521
v -0.346173 0.960658 -0.153843
v -0.002736 0.616890 0.447226
v -0.144983 0.240467 0.269070
v -0.165835 -0.948384 0.086576
v -0.029712 -0.926252 0.149467
v -0.038610 -0.590451 0.168458
v 0.022552 -0.985611 0.206943
v -0.120344 -1.015140 0.094584
v 0.006980 -0.997045 0.134233
v -0.092017 -0.195291 0.124543
v -0.233587 0.170338 -0.070055
v -0.163383 -0.224821 -0.037902
v 0.347478 0.226962 0.171203
v 0.131737 -0.136549 0.142729
v -0.005833 1.013170 0.515092
v -0.079512 1.033030 0.354623
v -0.138605 -0.619981 0.026059
v -0.101749 0.636751 0.304496
v 0.046033 0.206725 -0.008731
v -0.123413 0.583594 -0.099708
v -0.075090 -0.206725 0.029077
v 0.456983 1.016660 0.200837
v 0.393076 0.621813 0.192430
v 0.313223 1.048010 0.175116
v 0.211767 0.258303 0.139847
v 0.270410 0.653155 0.151939
v -0.078331 0.188434 -0.049964
v -0.146463 0.990187 -0.081266
v -0.346173 0.960658 -0.153843
v -0.102776 0.595028 -0.030545
v -0.310233 0.565498 -0.097698
v -0.100202 0.199868 0.048963
v -0.233587 0.170338 -0.070055
v -0.092017 -0.195291 0.124543
v -0.163383 -0.224821 -0.037902
v -0.038610 -0.590451 0.168458
v -0.138605 -0.619981 0.026059
v 0.022552 -0.985611 0.206943
v -0.120344 -1.015140 0.094584
v -0.005833 1.013170 0.515092
v -0.079512 1.033030 0.354623
v -0.002736 0.616890 0.447226
v -0.101749 0.636751 0.304496
v 0.020796 0.220606 0.365050
v -0.144983 0.240467 0.269070
v 0.035879 -0.175677 0.288790
v -0.180479 -0.155817 0.228226
v 0.020917 -0.571961 0.233568
v -0.186182 -0.552100 0.166521
v -0.018813 -0.968245 0.195689
v -0.165835 -0.948384 0.086576
v 0.456983 1.016660 0.200837
v 0.313223 1.048010 0.175116
v 0.393076 0.621813 0.192430
v 0.270410 0.653155 0.151939
v 0.347478 0.226962 0.171203
v 0.211767 0.258303 0.139847
v 0.307059 -0.167890 0.146350
v 0.131737 -0.136549 0.142729
v 0.255686 -0.562741 0.129167
v 0.037181 -0.531400 0.155783
v 0.151762 -0.957593 0.148780
v -0.029712 -0.926252 0.149467
v 0.029860 0.997045 -0.160029
v -0.203188 0.978754 -0.125160
v 0.047432 0.601885 -0.091021
v -0.123413 0.583594 -0.099708
v 0.046033 0.206725 -0.008731
v -0.078331 0.188434 -0.049964
v 0.077421 -0.188434 0.050602
v -0.075090 -0.206725 0.029077
v 0.151803 -0.583594 0.079830
v -0.067812 -0.601885 0.105292
v 0.190231 -0.978754 0.134233
v 0.006980 -0.997045 0.134233
vt 0.723200 2.345670
vt 0.330090 2.345670
vt 0.330090 1.621900
vt 0.723200 0.174340
vt 0.330080 0.174340
vt 0.330080 -0.549430
vt 0.723200 0.898120
vt 0.723200 -0.549430
vt 0.330080 -1.273210
vt 0.723200 1.621900
vt 0.330080 0.898120
vt 0.723200 -1.273210
vn 0.140300 0.091800 0.985800
vn -0.140300 -0.091800 -0.985800
vn -0.279000 -0.143800 0.949500
vn -0.280800 -0.191700 0.940400
vn 0.280800 0.191700 -0.940400
vn 0.279000 0.143800 -0.949500
vn 0.115800 -0.035500 0.992600
vn 0.112500 -0.057800 0.992000
vn -0.112500 0.057800 -0.992000
vn -0.115800 0.035500 -0.992600
vn 0.107000 0.092800 0.989900
vn 0.107000 0.093400 0.989900
vn -0.107000 -0.093400 -0.989900
vn -0.107000 -0.092800 -0.989900
vn -0.308800 0.006600 0.951100
vn -0.317900 0.086100 0.944200
vn 0.317900 -0.086100 -0.944200
vn 0.308800 -0.006600 -0.951100
vn -0.319200 -0.203100 0.925700
vn -0.316100 -0.119200 0.941200
vn 0.316100 0.119200 -0.941200
vn 0.319200 0.203100 -0.925700
vn -0.352900 0.100100 0.930300
vn 0.352900 -0.100100 -0.930300
vn -0.504500 -0.043700 0.862300
vn -0.508700 -0.203700 0.836500
vn 0.508700 0.203700 -0.836500
vn 0.504500 0.043700 -0.862300
vn -0.597300 -0.016800 0.801800
vn 0.597300 0.016800 -0.801800
vn 0.011800 0.046500 0.998800
vn -0.011800 -0.046500 -0.998800
vn -0.615600 -0.018600 0.787800
vn 0.615600 0.018600 -0.787800
vn -0.013500 0.135100 0.990700
vn 0.013500 -0.135100 -0.990700
vn -0.657800 -0.055800 0.751100
vn -0.676300 0.141100 0.723000
vn 0.676300 -0.141100 -0.723000
vn 0.657800 0.055800 -0.751100
vn -0.916000 0.007500 0.401100
vn -0.917800 0.056200 0.393000
vn 0.917800 -0.056200 -0.393000
vn 0.916000 -0.007500 -0.401100
vn -0.014100 0.036400 0.999200
vn -0.031300 -0.059600 0.997700
vn 0.031300 0.059600 -0.997700
vn 0.014100 -0.036400 -0.999200
vn -0.908900 -0.001800 0.417100
vn 0.908900 0.001800 -0.417100
vn -0.822700 0.060000 0.565300
vn -0.813100 -0.045400 0.580400
vn 0.813100 0.045400 -0.580400
vn 0.822700 -0.060000 -0.565300
vn -0.818600 0.038100 0.573100
vn -0.824000 -0.101900 0.557400
vn 0.824000 0.101900 -0.557400
vn 0.818600 -0.038100 -0.573100
vn -0.063000 0.117600 0.991100
vn -0.068100 0.168700 0.983300
vn 0.068100 -0.168700 -0.983300
vn 0.063000 -0.117600 -0.991100
vn -0.159000 0.184100 0.970000
vn -0.154300 0.134700 0.978800
vn 0.154300 -0.134700 -0.978800
vn 0.159000 -0.184100 -0.970000
vn -0.184000 -0.037700 0.982200
vn 0.184000 0.037700 -0.982200
vn -0.213800 0.050400 0.975600
vn -0.230700 -0.025700 0.972700
vn 0.230700 0.025700 -0.972700
vn 0.213800 -0.050400 -0.975600
vn -0.309500 0.016900 0.950700
vn -0.306500 0.029400 0.951400
vn 0.306500 -0.029400 -0.951400
vn 0.309500 -0.016900 -0.950700
vn -0.333500 0.182300 0.925000
vn -0.334300 0.193300 0.922400
vn 0.334300 -0.193300 -0.922400
vn 0.333500 -0.182300 -0.925000
vn 0.000000 0.000000 1.000000
usemtl MATERIAL_#2
s off
f 1/1/1 3/2/1 41/3/1
f 88/3/2 86/2/2 85/1/2
f 5/4/3 7/5/3 21/6/3
f 7/5/4 5/4/4 4/7/4
f 65/7/5 67/4/5 68/5/5
f 70/6/6 68/5/6 67/4/6
f 9/8/7 11/6/7 26/9/7
f 11/6/8 9/8/8 8/4/8
f 79/4/9 81/8/9 82/6/9
f 84/9/10 82/6/10 81/8/10
f 13/8/11 15/6/11 30/9/11
f 15/6/12 13/8/12 12/4/12
f 91/4/13 93/8/13 94/6/13
f 96/9/14 94/6/14 93/8/14
f 17/10/15 19/3/15 32/11/15
f 19/3/16 17/10/16 16/1/16
f 49/1/17 51/10/17 52/3/17
f 54/11/18 52/3/18 51/10/18
f 6/8/19 21/6/19 25/9/19
f 21/6/20 6/8/20 5/4/20
f 67/4/21 69/8/21 70/6/21
f 72/9/22 70/6/22 69/8/22
f 16/1/23 22/2/23 19/3/23
f 52/3/24 50/2/24 49/1/24
f 4/7/25 24/11/25 7/5/25
f 24/11/26 4/7/26 23/10/26
f 63/10/27 65/7/27 66/11/27
f 68/5/28 66/11/28 65/7/28
f 25/9/29 20/12/29 6/8/29
f 69/8/30 71/12/30 72/9/30
f 26/9/31 10/12/31 9/8/31
f 81/8/32 83/12/32 84/9/32
f 29/9/33 28/12/33 27/8/33
f 57/8/34 59/12/34 60/9/34
f 30/9/35 14/12/35 13/8/35
f 93/8/36 95/12/36 96/9/36
f 18/7/37 32/11/37 33/5/37
f 32/11/38 18/7/38 17/10/38
f 51/10/39 53/7/39 54/11/39
f 56/5/40 54/11/40 53/7/40
f 31/4/41 33/5/41 38/6/41
f 33/5/42 31/4/42 18/7/42
f 53/7/43 55/4/43 56/5/43
f 58/6/44 56/5/44 55/4/44
f 8/4/45 35/5/45 11/6/45
f 35/5/46 8/4/46 34/7/46
f 77/7/47 79/4/47 80/5/47
f 82/6/48 80/5/48 79/4/48
f 36/1/49 37/2/49 39/3/49
f 64/3/50 62/2/50 61/1/50
f 27/8/51 38/6/51 29/9/51
f 38/6/52 27/8/52 31/4/52
f 55/4/53 57/8/53 58/6/53
f 60/9/54 58/6/54 57/8/54
f 23/10/55 39/3/55 24/11/55
f 39/3/56 23/10/56 36/1/56
f 61/1/57 63/10/57 64/3/57
f 66/11/58 64/3/58 63/10/58
f 2/10/59 41/3/59 48/11/59
f 41/3/60 2/10/60 1/1/60
f 85/1/61 87/10/61 88/3/61
f 90/11/62 88/3/62 87/10/62
f 12/4/63 42/5/63 15/6/63
f 42/5/64 12/4/64 40/7/64
f 89/7/65 91/4/65 92/5/65
f 94/6/66 92/5/66 91/4/66
f 43/1/67 45/2/67 47/3/67
f 76/3/68 74/2/68 73/1/68
f 34/7/69 46/11/69 35/5/69
f 46/11/70 34/7/70 44/10/70
f 75/10/71 77/7/71 78/11/71
f 80/5/72 78/11/72 77/7/72
f 44/10/73 47/3/73 46/11/73
f 47/3/74 44/10/74 43/1/74
f 73/1/75 75/10/75 76/3/75
f 78/11/76 76/3/76 75/10/76
f 40/7/77 48/11/77 42/5/77
f 48/11/78 40/7/78 2/10/78
f 87/10/79 89/7/79 90/11/79
f 92/5/80 90/11/80 89/7/80
f 51/10/81 49/1/81 16/1/81
f 22/2/81 16/1/81 49/1/81
f 49/1/81 50/2/81 22/2/81
f 19/3/81 22/2/81 50/2/81
f 53/7/81 51/10/81 17/10/81
f 16/1/81 17/10/81 51/10/81
f 50/2/81 52/3/81 19/3/81
f 32/11/81 19/3/81 52/3/81
f 55/4/81 53/7/81 18/7/81
f 17/10/81 18/7/81 53/7/81
f 52/3/81 54/11/81 32/11/81
f 33/5/81 32/11/81 54/11/81
f 57/8/81 55/4/81 31/4/81
f 18/7/81 31/4/81 55/4/81
f 54/11/81 56/5/81 33/5/81
f 38/6/81 33/5/81 56/5/81
f 59/12/81 57/8/81 27/8/81
f 31/4/81 27/8/81 57/8/81
f 56/5/81 58/6/81 38/6/81
f 29/9/81 38/6/81 58/6/81
f 60/9/81 59/12/81 28/12/81
f 27/8/81 28/12/81 59/12/81
f 28/12/81 29/9/81 60/9/81
f 58/6/81 60/9/81 29/9/81
f 63/10/81 61/1/81 36/1/81
f 37/2/81 36/1/81 61/1/81
f 61/1/81 62/2/81 37/2/81
f 39/3/81 37/2/81 62/2/81
f 65/7/81 63/10/81 23/10/81
f 36/1/81 23/10/81 63/10/81
f 62/2/81 64/3/81 39/3/81
f 24/11/81 39/3/81 64/3/81
f 67/4/81 65/7/81 4/7/81
f 23/10/81 4/7/81 65/7/81
f 64/3/81 66/11/81 24/11/81
f 7/5/81 24/11/81 66/11/81
f 69/8/81 67/4/81 5/4/81
f 4/7/81 5/4/81 67/4/81
f 66/11/81 68/5/81 7/5/81
f 21/6/81 7/5/81 68/5/81
f 71/12/81 69/8/81 6/8/81
f 5/4/81 6/8/81 69/8/81
f 68/5/81 70/6/81 21/6/81
f 25/9/81 21/6/81 70/6/81
f 72/9/81 71/12/81 20/12/81
f 6/8/81 20/12/81 71/12/81
f 20/12/81 25/9/81 72/9/81
f 70/6/81 72/9/81 25/9/81
f 75/10/81 73/1/81 43/1/81
f 45/2/81 43/1/81 73/1/81
f 73/1/81 74/2/81 45/2/81
f 47/3/81 45/2/81 74/2/81
f 77/7/81 75/10/81 44/10/81
f 43/1/81 44/10/81 75/10/81
f 74/2/81 76/3/81 47/3/81
f 46/11/81 47/3/81 76/3/81
f 79/4/81 77/7/81 34/7/81
f 44/10/81 34/7/81 77/7/81
f 76/3/81 78/11/81 46/11/81
f 35/5/81 46/11/81 78/11/81
f 81/8/81 79/4/81 8/4/81
f 34/7/81 8/4/81 79/4/81
f 78/11/81 80/5/81 35/5/81
f 11/6/81 35/5/81 80/5/81
f 83/12/81 81/8/81 9/8/81
f 8/4/81 9/8/81 81/8/81
f 80/5/81 82/6/81 11/6/81
f 26/9/81 11/6/81 82/6/81
f 84/9/81 83/12/81 10/12/81
f 9/8/81 10/12/81 83/12/81
f 10/12/81 26/9/81 84/9/81
f 82/6/81 84/9/81 26/9/81
f 87/10/81 85/1/81 1/1/81
f 3/2/81 1/1/81 85/1/81
f 85/1/81 86/2/81 3/2/81
f 41/3/81 3/2/81 86/2/81
f 89/7/81 87/10/81 2/10/81
f 1/1/81 2/10/81 87/10/81
f 86/2/81 88/3/81 41/3/81
f 48/11/81 41/3/81 88/3/81
f 91/4/81 89/7/81 40/7/81
f 2/10/81 40/7/81 89/7/81
f 88/3/81 90/11/81 48/11/81
f 42/5/81 48/11/81 90/11/81
f 93/8/81 91/4/81 12/4/81
f 40/7/81 12/4/81 91/4/81
f 90/11/81 92/5/81 42/5/81
f 15/6/81 42/5/81 92/5/81
f 95/12/81 93/8/81 13/8/81
f 12/4/81 13/8/81 93/8/81
f 92/5/81 94/6/81 15/6/81
f 30/9/81 15/6/81 94/6/81
f 96/9/81 95/12/81 14/12/81
f 13/8/81 14/12/81 95/12/81
f 14/12/81 30/9/81 96/9/81
f 94/6/81 96/9/81 30/9/81
