# Blender v2.75 (sub 0) OBJ File: 'Empty.blend'
# www.blender.org
mtllib BARRELMOUNTED_OC.mtl
o BARRELMOUNTED_OC
v 0.199720 0.359637 0.724468
v -0.199784 0.354935 -0.653560
v 0.199720 -0.372715 0.724468
v -0.199784 -0.368011 -0.653560
v 0.523430 -0.655876 0.339053
v -0.504411 -0.655876 0.510430
v 0.266372 -0.006283 0.339053
v 0.523430 -0.655876 -0.424385
v -0.504411 -0.655876 -0.253164
v 0.266372 -0.006283 -0.424385
v -0.268921 -0.006283 0.339053
v -0.268921 -0.006283 -0.424385
v -0.197698 0.359637 0.724468
v -0.197698 -0.372715 0.724468
v 0.192663 0.354935 -0.653560
v 0.192663 -0.368011 -0.653560
v -0.396468 -0.006283 0.724468
v 0.266372 -0.006283 0.510430
v 0.266372 -0.006283 -0.253164
v 0.398500 -0.006283 0.724468
v -0.396080 -0.006283 -0.653560
v 0.388959 -0.006283 -0.653560
v 0.523430 -0.655876 0.510430
v -0.268921 -0.006283 0.510430
v -0.504411 -0.655876 0.339053
v 0.523430 -0.655876 -0.253164
v -0.268921 -0.006283 -0.253164
v -0.504411 -0.655876 -0.424385
v 0.250429 0.456865 -0.294385
v -0.252845 -0.469940 -0.294385
v -0.504411 -0.006283 0.380430
v -0.252845 0.456865 -0.294385
v 0.250429 -0.469940 -0.294385
v 0.501994 -0.006283 -0.294385
v -0.252845 -0.469940 0.380430
v 0.250429 -0.469940 0.380430
v -0.252845 0.456865 0.380430
v 0.250429 0.456865 0.380430
v -0.504411 -0.006283 -0.294385
v 0.501994 -0.006283 0.380430
vt 0.034004 0.639829
vt 0.215565 0.641183
vt 0.211511 0.873484
vt 0.050743 0.642579
vt 0.227877 0.644790
vt 0.223922 0.874204
vt 0.046788 0.871993
vt 0.029950 0.872130
vt 0.500139 0.002770
vt 0.002403 0.002770
vt 0.391410 0.246824
vt 0.102008 0.246824
vt 0.045474 0.639387
vt 0.218722 0.638080
vt 0.214667 0.870516
vt 0.759711 0.630184
vt 0.940425 0.742465
vt 0.998121 0.625808
vt 0.821240 0.744653
vt 0.213628 0.646038
vt 0.046847 0.643524
vt 0.054656 0.867542
vt 0.041419 0.871823
vt 0.997054 0.622809
vt 0.935208 0.509526
vt 0.764672 0.631560
vt 0.819038 0.513901
vt 0.221437 0.870057
vt 0.936591 0.511501
vt 0.817407 0.513689
vt 0.209597 0.644726
vt 0.030346 0.640684
vt 0.034352 0.870346
vt 0.238231 0.249442
vt 0.275607 0.249442
vt 0.275607 0.000922
vt 0.071729 0.000922
vt 0.071729 0.249442
vt 0.109072 0.249442
vt 0.217095 0.638605
vt 0.826512 0.744679
vt 0.942681 0.740305
vt 0.213603 0.874387
vt 0.217095 0.871046
vt 0.238231 0.000922
vt 0.109072 0.000922
vt 0.192622 0.994395
vt 0.076397 0.987055
vt 0.206451 0.989016
vt 0.066272 0.994264
vt 0.072627 0.525761
vt 0.212609 0.527508
vt 0.190030 0.527138
vt 0.048406 0.523946
vt 0.058330 0.992972
vt 0.187996 0.997097
vt 0.046343 0.996041
vt 0.061141 0.529600
vt 0.196540 0.522711
vt 0.066526 0.520754
vt 0.203333 0.519721
vt 0.204470 0.995990
vt 0.053057 0.521641
vn 0.879000 -0.476900 0.000000
vn -0.879000 -0.476900 0.000000
vn 0.000000 0.000000 -1.000000
vn 0.000000 0.000000 1.000000
vn 0.000000 1.000000 0.000000
vn 0.000000 -1.000000 0.000000
vn -0.878700 0.477300 0.000000
vn 0.929800 0.368000 0.000000
vn 0.878700 0.477300 0.000000
vn -0.940100 0.340800 0.000000
vn 0.000000 0.962000 -0.273000
vn 0.846900 0.460000 -0.266800
vn 0.000000 -0.962000 -0.273000
vn -0.849600 -0.461000 -0.256300
vn -0.847400 -0.459700 0.265900
vn -0.847100 0.460200 0.265800
vn -0.849400 0.461300 -0.256400
vn 0.847100 -0.459600 -0.266700
vn 0.847100 -0.459700 -0.266600
vn 0.846900 0.460200 -0.266500
vn 0.000000 -0.962300 0.271900
vn -0.847400 -0.459700 0.265700
vn 0.849800 -0.461100 0.255500
vn -0.847100 0.460100 0.265800
vn 0.000000 0.962300 0.272000
vn 0.849500 0.461400 0.255600
vn -0.849600 -0.461000 -0.256200
vn -0.849300 0.461500 -0.256200
vn 0.849800 -0.461000 0.255600
vn 0.849500 0.461500 0.255600
usemtl OC_O_WOODS_01
s off
f 40/1/1 36/2/1 33/3/1
f 35/4/2 31/5/2 39/6/2
f 39/6/2 30/7/2 35/4/2
f 33/3/1 34/8/1 40/1/1
f 5/9/3 25/10/3 7/11/3
f 6/10/4 23/9/4 18/11/4
f 10/11/3 8/9/3 28/10/3
f 9/10/4 26/9/4 19/11/4
f 25/10/3 11/12/3 7/11/3
f 18/11/4 24/12/4 6/10/4
f 28/10/3 12/12/3 10/11/3
f 27/12/4 9/10/4 19/11/4
f 37/13/5 38/14/5 29/15/5
f 17/16/4 3/17/4 20/18/4
f 17/16/4 14/19/4 3/17/4
f 36/20/6 35/21/6 30/22/6
f 29/15/5 32/23/5 37/13/5
f 22/24/3 16/25/3 21/26/3
f 16/25/3 4/27/3 21/26/3
f 30/22/6 33/28/6 36/20/6
f 1/29/4 13/30/4 17/16/4
f 31/31/7 37/32/7 32/33/7
f 7/34/8 18/35/8 23/36/8
f 8/37/8 10/38/8 19/39/8
f 17/16/4 20/18/4 1/29/4
f 38/40/9 40/1/9 34/8/9
f 21/26/3 2/41/3 15/42/3
f 32/33/7 39/43/7 31/31/7
f 15/42/3 22/24/3 21/26/3
f 34/8/9 29/44/9 38/40/9
f 23/36/8 5/45/8 7/34/8
f 6/36/10 24/35/10 11/34/10
f 11/34/10 25/45/10 6/36/10
f 19/39/8 26/46/8 8/37/8
f 27/39/10 12/38/10 28/37/10
f 28/37/10 9/46/10 27/39/10
f 32/23/11 29/15/11 15/47/11
f 15/47/12 29/44/12 34/8/12
f 4/48/13 16/49/13 30/22/13
f 4/50/14 30/7/14 39/6/14
f 14/51/15 17/52/15 31/5/15
f 31/31/16 17/53/16 13/54/16
f 39/43/17 32/33/17 2/55/17
f 15/47/11 2/55/11 32/23/11
f 34/8/18 33/3/18 16/56/18
f 16/49/13 33/28/13 30/22/13
f 16/56/19 22/57/19 34/8/19
f 22/57/20 15/47/20 34/8/20
f 35/21/21 36/20/21 14/58/21
f 31/5/22 35/4/22 14/51/22
f 36/2/23 40/1/23 3/59/23
f 36/20/21 3/59/21 14/58/21
f 37/32/24 31/31/24 13/54/24
f 38/14/25 37/13/25 13/60/25
f 13/60/25 1/61/25 38/14/25
f 40/1/26 38/40/26 1/61/26
f 21/62/27 4/50/27 39/6/27
f 2/55/28 21/62/28 39/43/28
f 40/1/29 20/63/29 3/59/29
f 1/61/30 20/63/30 40/1/30
