# Blender v2.75 (sub 0) OBJ File: 'Empty.blend'
# www.blender.org
mtllib BATHTUB_WOODEN.mtl
o BATHTUB_WOODEN
v -0.356214 0.311256 0.348196
v -0.570277 0.311256 0.133062
v -0.570277 0.311256 -0.132859
v -0.356214 0.311256 -0.347994
v -0.009854 0.311256 -0.430168
v 0.550569 0.311256 -0.132860
v 0.550569 0.311256 0.133062
v 0.336507 0.311256 0.348196
v -0.009854 0.311256 0.430370
v 0.336507 0.311256 -0.347994
v -0.389887 0.398751 -0.372359
v 0.676289 0.544949 -0.143136
v -0.502496 0.000000 0.127739
v 0.502496 0.000000 0.127739
v 0.310560 0.000000 -0.334425
v -0.383829 0.412906 0.376752
v 0.364404 0.476479 -0.365844
v 0.454815 0.049107 -0.115618
v -0.310560 0.000000 -0.334425
v 0.345502 0.517209 0.354182
v 0.281091 0.049107 0.302691
v -0.003760 0.439095 -0.453486
v -0.281091 0.049107 -0.302691
v -0.567172 0.359134 0.125969
v -0.454815 0.049107 0.115618
v 0.310560 -0.000000 0.334425
v 0.658982 0.514821 0.142999
v -0.600594 0.391032 -0.170789
v -0.310560 -0.000000 0.334425
v -0.281091 0.049107 0.302691
v 0.281091 0.049107 -0.302691
v 0.502496 0.000000 -0.127739
v -0.502496 0.000000 -0.127739
v -0.024986 0.409317 0.472467
v 0.454815 0.049107 0.115618
v -0.454815 0.049107 -0.115618
v -0.613728 0.347745 0.115346
v 0.598474 0.531247 0.130491
v 0.000000 -0.000000 0.413372
v -0.000000 0.000000 -0.413372
v 0.000000 0.049107 0.374147
v -0.000000 0.049107 -0.374147
v -0.036225 0.410564 0.425395
v -0.335772 0.390170 0.342639
v 0.356669 0.498478 0.383267
v -0.542638 0.403093 -0.137463
v -0.348518 0.380755 -0.347036
v 0.350444 0.467557 -0.335493
v 0.650630 0.520320 -0.132941
v 0.005205 0.424515 -0.427090
vt 0.052564 1.215150
vt -0.520853 0.277226
vt -0.237078 -0.004914
vt -0.560871 0.673012
vt 0.182063 -0.065640
vt 0.576472 0.118243
vt 0.755481 0.872284
vt 0.471705 1.154420
vt 0.795498 0.476498
vt -0.341845 1.031270
vt 0.194969 0.007874
vt 0.000000 0.527559
vt 0.194969 0.574803
vt 0.291024 0.804271
vt 0.291024 0.203820
vt 0.482274 0.018270
vt 0.000000 0.007874
vt 0.157233 0.779528
vt 0.000000 0.574803
vt 0.194969 0.937008
vt 0.000000 0.503937
vt 0.194969 0.503937
vt 0.000000 0.629921
vt 0.000000 0.055118
vt 0.194969 0.055118
vt 0.194969 0.566929
vt 0.194969 1.000000
vt 0.000000 0.566929
vt 0.000000 0.992126
vt 0.194969 0.779528
vt 0.982973 0.504045
vt 0.909922 0.804271
vt 0.194969 0.496063
vt 0.194969 0.527559
vt 0.000000 0.496063
vt 0.201258 0.566929
vt 0.201258 0.629921
vt 0.718672 0.018270
vt 0.909922 0.203820
vt 0.718672 0.989820
vt 0.482274 0.989820
vt 0.217973 0.504045
vn 0.000000 1.000000 0.000000
vn -0.195700 -0.090900 -0.976500
vn 0.253000 -0.123100 0.959600
vn 0.245500 -0.086100 -0.965600
vn 0.952700 -0.303800 0.000000
vn -0.243500 -0.153100 0.957700
vn -0.964500 -0.251000 -0.082200
vn 0.598300 -0.212600 -0.772500
vn 0.244200 0.132100 0.960700
vn -0.570900 0.265800 0.776800
vn -0.244800 0.112000 -0.963100
vn -0.709400 -0.250500 -0.658800
vn -0.653400 0.217000 -0.725300
vn 0.615300 -0.209600 0.759900
vn -0.721700 0.173000 -0.670200
vn 0.239300 -0.090800 -0.966700
vn -0.270000 0.138100 0.952900
vn 0.197600 0.169300 0.965600
vn 0.712500 0.233300 0.661700
vn 0.727200 0.220500 0.650100
vn -0.709600 -0.202900 0.674700
vn 0.252700 0.160600 -0.954100
vn 0.657200 0.190800 -0.729200
vn 0.726200 -0.133300 0.674400
vn 0.956200 -0.291500 0.027100
vn 0.190700 0.933600 0.303500
vn -0.673200 -0.201600 -0.711400
vn -0.141400 0.983800 -0.110100
vn -0.718600 -0.195900 0.667300
vn 0.704100 0.277000 -0.653900
vn -0.721800 0.172200 0.670300
vn 0.726900 -0.126600 -0.675000
vn -0.952500 -0.304700 0.000000
vn -0.256400 -0.143500 0.955900
vn 0.003100 0.999700 0.025700
vn -0.958400 0.285600 0.000000
vn 0.970600 0.240800 0.000000
vn -0.263900 0.955400 0.132400
vn -0.266800 0.952200 0.148600
vn 0.259800 0.965600 0.011400
vn -0.908200 0.370200 -0.195200
vn 0.244700 -0.116900 0.962500
vn -0.244000 -0.139800 -0.959700
vn 0.243500 0.151300 -0.958000
vn -0.244700 0.116000 0.962600
vn -0.253200 0.963600 0.086000
vn -0.218400 0.136300 -0.966300
vn 0.166400 0.912500 -0.373800
vn 0.073000 0.874300 -0.479800
vn -0.063100 0.827900 0.557400
vn 0.325000 0.847000 0.420700
vn -0.274800 0.952200 0.133300
vn 0.932100 0.333000 0.142400
vn 0.027900 0.835800 0.548400
vn 0.299300 0.937500 0.177300
vn -0.304700 0.942600 0.136900
vn -0.174000 0.963500 0.203200
vn -0.684700 0.727900 0.035200
vn -0.475300 0.710200 0.519400
vn -0.209000 0.824200 0.526300
vn 0.001100 0.875500 0.483200
usemtl WATERMAP
s off
f 10/1/1 3/2/1 2/3/1
f 10/1/1 4/4/1 3/2/1
f 10/1/1 2/3/1 1/5/1
f 10/1/1 1/5/1 9/6/1
f 10/1/1 7/7/1 6/8/1
f 10/1/1 8/9/1 7/7/1
f 10/1/1 9/6/1 8/9/1
f 10/1/1 5/10/1 4/4/1
usemtl WOODENBARREL
f 40/11/2 11/12/2 22/13/2
f 31/14/1 23/15/1 36/16/1
f 39/17/3 45/18/3 34/19/3
f 15/17/4 40/11/4 22/13/4
f 14/17/5 32/11/5 12/20/5
f 29/11/6 39/17/6 34/19/6
f 33/11/7 37/21/7 28/22/7
f 12/20/8 32/11/8 17/23/8
f 23/24/9 42/25/9 50/26/9
f 18/25/10 49/27/10 48/23/10
f 21/25/11 41/24/11 43/28/11
f 19/17/12 33/11/12 28/22/12
f 38/29/13 35/24/13 20/30/13
f 14/17/14 27/29/14 45/18/14
f 31/14/1 41/31/1 21/32/1
f 35/24/15 21/25/15 20/30/15
f 15/17/16 22/13/16 17/23/16
f 48/23/17 50/26/17 42/25/17
f 50/26/18 47/12/18 23/24/18
f 36/25/19 23/24/19 47/12/19
f 47/12/20 46/33/20 36/25/20
f 13/17/21 16/34/21 37/21/21
f 44/34/22 43/28/22 41/24/22
f 24/35/23 44/34/23 30/25/23
f 26/11/24 14/17/24 45/18/24
f 14/17/25 12/20/25 27/29/25
f 45/28/26 27/36/26 38/37/26
f 19/17/27 28/22/27 11/12/27
f 11/28/28 28/36/28 46/37/28
f 13/17/29 29/11/29 16/34/29
f 31/14/1 25/38/1 30/39/1
f 30/25/30 25/24/30 24/35/30
f 31/14/1 21/32/1 35/40/1
f 18/25/31 48/23/31 31/24/31
f 32/11/32 15/17/32 17/23/32
f 33/11/33 13/17/33 37/21/33
f 29/11/34 34/19/34 16/34/34
f 16/28/35 34/36/35 43/37/35
f 31/14/1 35/40/1 18/41/1
f 18/25/36 35/24/36 38/29/36
f 31/14/1 36/16/1 25/38/1
f 25/24/37 36/25/37 46/33/37
f 28/28/38 37/36/38 24/37/38
f 44/37/39 24/23/39 37/28/39
f 49/37/40 38/23/40 27/28/40
f 38/29/41 49/27/41 18/25/41
f 39/17/42 26/11/42 45/18/42
f 40/11/43 19/17/43 11/12/43
f 31/14/1 30/39/1 41/31/1
f 41/24/44 30/25/44 44/34/44
f 31/14/1 42/42/1 23/15/1
f 42/25/45 31/24/45 48/23/45
f 20/37/46 43/23/46 34/28/46
f 43/28/47 20/30/47 21/25/47
f 37/28/48 16/36/48 44/37/48
f 43/37/49 44/23/49 16/28/49
f 34/28/50 45/36/50 20/37/50
f 38/37/51 20/23/51 45/28/51
f 24/37/52 46/23/52 28/28/52
f 46/33/53 24/35/53 25/24/53
f 22/28/54 11/36/54 47/37/54
f 46/37/55 47/23/55 11/28/55
f 12/28/56 17/36/56 48/37/56
f 50/37/57 48/23/57 17/28/57
f 27/28/58 12/36/58 49/37/58
f 48/37/59 49/23/59 12/28/59
f 17/28/60 22/36/60 50/37/60
f 47/37/61 50/23/61 22/28/61
