# Blender v2.75 (sub 0) OBJ File: 'Empty.blend'
# www.blender.org
mtllib BEAM_MS.mtl
o BEAM_MS
v 0.200000 -3.400000 -0.200000
v 0.200000 3.400000 0.200000
v -0.200000 3.400000 -0.200000
v 0.200000 -3.400000 0.200000
v 0.200000 3.400000 -0.200000
v -0.200000 -3.400000 -0.200000
v -0.200000 3.400000 0.200000
v -0.200000 -3.400000 0.200000
vt 0.420416 -0.916667
vt 0.402654 -0.525362
vt 0.066459 -0.943237
vt 0.042777 -0.044686
vt 0.436205 -0.428744
vt 0.396734 -0.027778
vt 0.056592 -0.566425
vt 0.086195 -0.428744
vt -1.410687 -0.558230
vt 1.003619 -0.558230
vt -1.410687 -0.750947
vt 1.003619 -0.750947
vn 0.000000 1.000000 0.000000
vn 0.000000 -1.000000 0.000000
vn 0.000000 0.000000 1.000000
vn 1.000000 0.000000 0.000000
vn 0.000000 0.000000 -1.000000
vn -1.000000 0.000000 0.000000
usemtl BEAM_MS_2
s off
f 2/1/1 5/2/1 7/3/1
f 8/4/2 1/5/2 4/6/2
f 3/7/1 7/3/1 5/2/1
f 1/5/2 8/4/2 6/8/2
usemtl BEAM_MS_1
f 7/9/3 8/10/3 2/11/3
f 5/11/4 2/9/4 1/12/4
f 4/12/3 2/11/3 8/10/3
f 4/10/4 1/12/4 2/9/4
f 5/9/5 1/10/5 3/11/5
f 6/12/5 3/11/5 1/10/5
f 3/9/6 6/10/6 7/11/6
f 8/12/6 7/11/6 6/10/6
