# Blender v2.75 (sub 0) OBJ File: 'Empty.blend'
# www.blender.org
mtllib BED_2_OC.mtl
o BED_2_OC
v -1.152920 0.542920 -0.357805
v 1.152920 0.457192 0.655969
v -0.000003 0.457192 0.655969
v -0.000003 0.542920 -0.357805
v -1.152920 0.457192 0.655969
v 1.152920 0.542920 -0.357805
v -1.152920 0.542920 0.357800
v 1.152920 0.539798 0.357773
v -1.152920 0.546042 0.000025
v -0.000003 0.541359 0.357787
v 1.152920 0.542920 -0.000002
v -0.000003 0.542920 -0.000002
v -1.127930 0.783161 -0.475080
v -1.138010 0.000000 -0.477072
v -1.364500 0.755559 -0.481977
v -1.376550 0.000000 -0.477072
v -1.371040 0.702300 -0.714398
v -1.364500 0.755559 -0.481977
v -1.134470 0.729902 -0.707502
v -1.127930 0.783161 -0.475080
v 1.326850 0.695727 -0.477072
v 1.326850 0.695727 0.477068
v 1.147950 0.655972 -0.477072
v 1.147950 0.655972 0.477068
v -1.364500 0.755559 -0.481977
v -1.376550 0.000000 -0.477072
v -1.371040 0.702300 -0.714398
v -1.316920 0.655972 -0.477072
v -1.316920 0.655972 0.477068
v -1.138010 0.636094 -0.477072
v -1.138010 0.636094 0.477068
v -1.369460 0.797044 0.715603
v -1.138010 0.854751 0.715603
v -1.369460 0.797044 0.477068
v -1.138010 0.854751 0.477068
v 1.386480 0.000000 0.715603
v 1.386480 0.864790 0.710390
v 1.147950 0.000000 0.715603
v 1.147950 0.864790 0.710390
v 1.386480 0.864790 0.710390
v 1.386480 0.914384 0.477068
v 1.147950 0.864790 0.710390
v 1.147950 0.914384 0.477068
v -1.376550 0.000000 -0.715607
v -1.371040 0.702300 -0.714398
v -1.138010 0.000000 -0.715607
v -1.369460 0.797044 0.715603
v -1.376550 0.000000 0.715603
v -1.369460 0.797044 0.477068
v -1.376550 0.000000 0.477068
v 1.378350 0.773135 -0.715607
v 1.378350 0.773135 -0.477072
v 1.147950 0.834873 -0.715607
v 1.147950 0.834873 -0.477072
v 1.152920 0.457192 -0.655973
v -1.152920 0.457192 -0.655973
v -0.000003 0.457192 -0.655973
v -1.152920 0.099390 -0.655973
v -1.138010 0.000000 -0.715607
v -1.138010 0.000000 -0.477072
v -1.134470 0.729902 -0.707502
v -1.127930 0.783161 -0.475080
v -1.134470 0.729902 -0.707502
v -1.376550 0.000000 -0.715607
v -1.138010 0.854751 0.715603
v -1.138010 0.854751 0.477068
v -1.138010 0.000000 0.715603
v -1.138010 0.000000 0.477068
v -1.376550 0.000000 0.715603
v -1.369460 0.797044 0.715603
v -1.138010 0.000000 0.715603
v -1.138010 0.854751 0.715603
v -1.376550 0.000000 0.477068
v -1.138010 0.000000 0.477068
v -1.369460 0.797044 0.477068
v -1.138010 0.854751 0.477068
v -1.138010 0.636094 -0.477072
v -1.138010 0.000000 -0.477072
v -1.138010 0.636094 0.477068
v -1.138010 0.000000 0.477068
v -1.316920 0.655972 -0.477072
v -1.316920 0.655972 0.477068
v -1.316920 0.000000 -0.477072
v -1.316920 0.000000 0.477068
v 1.147950 0.834873 -0.715607
v 1.147950 0.834873 -0.477072
v 1.147950 0.000000 -0.715607
v 1.147950 0.000000 -0.477072
v 1.386480 0.000000 -0.715607
v 1.378350 0.773135 -0.715607
v 1.147950 0.000000 -0.715607
v 1.147950 0.834873 -0.715607
v 1.386480 0.000000 -0.477072
v 1.147950 0.000000 -0.477072
v 1.378350 0.773135 -0.477072
v 1.147950 0.834873 -0.477072
v 1.378350 0.773135 -0.715607
v 1.386480 0.000000 -0.715607
v 1.378350 0.773135 -0.477072
v 1.386480 0.000000 -0.477072
v 1.147950 0.000000 0.715603
v 1.147950 0.000000 0.477068
v 1.147950 0.864790 0.710390
v 1.147950 0.914384 0.477068
v 1.386480 0.914384 0.477068
v 1.147950 0.914384 0.477068
v 1.386480 0.000000 0.477068
v 1.147950 0.000000 0.477068
v 1.386480 0.914384 0.477068
v 1.386480 0.000000 0.477068
v 1.386480 0.864790 0.710390
v 1.386480 0.000000 0.715603
v 1.147950 0.655972 -0.477072
v 1.147950 0.655972 0.477068
v 1.147950 0.000000 -0.477072
v 1.147950 0.000000 0.477068
v 1.326850 0.695727 -0.477072
v 1.326850 0.000000 -0.477072
v 1.326850 0.695727 0.477068
v 1.326850 0.000000 0.477068
v 1.152920 0.099390 -0.655973
v -1.152920 0.099390 0.655969
v 1.152920 0.099390 0.655969
v -0.000003 0.099390 -0.655973
v -0.000003 0.099390 0.655969
vt 0.894460 0.865100
vt 0.395350 0.732170
vt 0.395330 0.865080
vt 0.395350 0.504410
vt 0.894420 0.732180
vt 0.395310 0.999220
vt 0.395350 0.865090
vt 0.894440 0.999660
vt 0.894420 0.865070
vt 0.395330 0.732170
vt 0.894500 0.732180
vt 0.504040 0.045740
vt 0.755800 0.046130
vt 0.758490 0.002030
vt 0.504540 0.002140
vt 0.994720 0.934400
vt 0.624980 0.606670
vt 0.946370 0.580920
vt 0.596360 0.972220
vt 0.695920 0.053660
vt 0.631560 0.450110
vt 0.631560 0.053660
vt 0.695920 0.450110
vt 0.500080 0.048680
vt 0.751950 0.048640
vt 0.751890 0.003980
vt 0.631520 0.053660
vt 0.696400 0.450110
vt 0.631520 0.450110
vt 0.696400 0.053660
vt 0.436200 0.957730
vt 0.066460 0.559180
vt 0.428310 0.578500
vt 0.092120 0.972220
vt 0.757190 0.005310
vt 0.503880 0.045690
vt 0.504140 0.001900
vt 0.756810 0.048400
vt 0.440150 0.440820
vt 0.066460 0.042270
vt 0.394760 0.047100
vt 0.074350 0.464980
vt 0.748940 0.488310
vt 0.505350 0.448210
vt 0.505360 0.488070
vt 0.751950 0.048480
vt 0.500310 0.001870
vt 0.751890 0.001910
vt 0.500070 0.048140
vt 0.943410 0.452900
vt 0.593400 0.078500
vt 0.878280 0.032610
vt 0.632870 0.489130
vt 0.894520 0.504430
vt 0.395340 0.504430
vt 0.501970 0.449100
vt 0.501970 0.488850
vt 0.752520 0.489320
vt 0.752550 0.456210
vt 0.749660 0.453490
vt 0.500310 0.003700
vt 0.501970 0.488900
vt 0.752580 0.456140
vt 0.752580 0.488900
vt 0.756720 0.003700
vt 0.756510 0.045500
vt 0.505460 0.448290
vt 0.505450 0.488140
vt 0.749560 0.488330
vt 0.750530 0.453490
vt 0.499540 0.045500
vt 0.757190 0.457120
vt 0.499540 0.445090
vt 0.757190 0.045500
vt 0.250000 0.445700
vt 0.504190 0.051160
vt 0.504190 0.445700
vt 0.250000 0.051160
vt 0.500960 0.001200
vt 0.751900 0.001840
vt 0.501190 0.047990
vt 0.505350 0.448280
vt 0.749390 0.488280
vt 0.750380 0.453490
vt 0.758120 0.003040
vt 0.754740 0.048360
vt 0.752540 0.456480
vt 0.501970 0.489310
vt 0.501970 0.449460
vt 0.501190 0.047450
vt 0.500960 0.001470
vt 0.751970 0.048370
vt 0.750940 0.453500
vt 0.750310 0.488310
vt 0.505460 0.448360
vt 0.752610 0.456510
vt 0.752590 0.489050
vt 0.251970 0.451420
vt 0.496280 0.046520
vt 0.496280 0.451420
vt 0.251970 0.046520
vt 0.894420 0.504410
vn 0.001300 0.962400 0.271700
vn 0.000000 0.000000 1.000000
vn 0.002700 1.000000 -0.000000
vn 0.000000 0.961100 -0.276300
vn 0.000000 1.000000 -0.008700
vn 0.000000 1.000000 0.000000
vn 0.000000 0.961100 0.276300
vn 0.000000 0.963700 0.267000
vn 0.001400 1.000000 0.008700
vn 0.000000 1.000000 0.004400
vn 0.002700 1.000000 0.004400
vn -0.028900 -0.002200 0.999600
vn 0.000000 0.006500 1.000000
vn -0.106800 0.969800 -0.219200
vn -0.216900 0.976200 0.000000
vn -0.999600 0.016100 0.024400
vn 0.110400 0.993900 0.000000
vn -0.241900 0.970300 0.000000
vn 0.000000 0.006000 1.000000
vn 0.000000 0.978100 0.207900
vn 0.000000 0.001700 -1.000000
vn -1.000000 0.008900 0.000000
vn 0.258800 0.965900 0.000000
vn 0.000000 0.000000 -1.000000
vn 1.000000 -0.004800 0.000000
vn 0.999600 -0.012800 -0.025200
vn 0.027900 0.011000 -0.999600
vn -1.000000 0.007800 0.000000
vn 1.000000 0.000000 0.000000
vn -1.000000 0.000000 0.000000
vn 0.999900 0.010500 0.000000
usemtl OC_BED_V2_1
s off
f 7/1/1 3/2/1 10/3/1
f 125/4/2 2/5/2 3/2/2
f 12/6/3 4/7/3 9/8/3
f 6/9/4 57/10/4 4/7/4
f 1/1/5 9/8/5 4/7/5
f 4/7/6 11/8/6 6/9/6
f 3/2/7 7/1/7 5/11/7
f 3/2/8 2/5/8 8/1/8
f 10/3/9 9/8/9 7/1/9
f 10/3/1 3/2/1 8/1/1
f 4/7/6 12/6/6 11/8/6
f 8/1/9 11/8/9 10/3/9
f 12/6/10 10/3/10 11/8/10
f 10/3/11 12/6/11 9/8/11
f 14/12/12 13/13/12 15/14/12
f 14/12/13 15/14/13 16/15/13
f 18/16/14 19/17/14 17/18/14
f 19/17/14 18/16/14 20/19/14
f 23/20/15 22/21/15 21/22/15
f 22/21/15 23/20/15 24/23/15
f 26/24/16 25/25/16 27/26/16
f 29/27/17 30/28/17 28/29/17
f 30/28/17 29/27/17 31/30/17
f 33/31/18 34/32/18 32/33/18
f 34/32/18 33/31/18 35/34/18
f 37/35/19 38/36/19 36/37/19
f 38/36/19 37/35/19 39/38/19
f 41/39/20 42/40/20 40/41/20
f 42/40/20 41/39/20 43/42/20
f 45/43/21 46/44/21 44/45/21
f 49/46/22 48/47/22 47/48/22
f 48/47/22 49/46/22 50/49/22
f 53/50/23 52/51/23 51/52/23
f 52/51/23 53/50/23 54/53/23
f 57/10/4 6/9/4 55/11/4
f 4/7/4 57/10/4 1/1/4
f 57/10/4 56/11/4 1/1/4
f 121/54/24 57/10/24 55/11/24
f 124/55/24 56/11/24 57/10/24
f 60/56/25 59/57/25 61/58/25
f 60/56/26 61/58/26 62/59/26
f 46/44/27 45/43/27 63/60/27
f 26/24/28 27/26/28 64/61/28
f 67/62/29 66/63/29 65/64/29
f 66/63/29 67/62/29 68/56/29
f 71/36/2 70/65/2 69/37/2
f 70/65/2 71/36/2 72/66/2
f 74/67/24 73/68/24 75/69/24
f 74/67/24 75/69/24 76/70/24
f 79/71/29 78/72/29 77/73/29
f 78/72/29 79/71/29 80/74/29
f 83/75/30 82/76/30 81/77/30
f 82/76/30 83/75/30 84/78/30
f 87/79/30 86/46/30 85/80/30
f 86/46/30 87/79/30 88/81/30
f 91/82/24 90/83/24 89/45/24
f 90/83/24 91/82/24 92/84/24
f 94/12/2 93/15/2 95/85/2
f 94/12/2 95/85/2 96/86/2
f 99/87/31 98/88/31 97/58/31
f 98/88/31 99/87/31 100/89/31
f 102/90/30 101/91/30 103/48/30
f 102/90/30 103/48/30 104/92/30
f 107/68/24 106/93/24 105/94/24
f 106/93/24 107/68/24 108/95/24
f 110/89/29 109/96/29 111/97/29
f 110/89/29 111/97/29 112/88/29
f 115/98/30 114/99/30 113/100/30
f 114/99/30 115/98/30 116/101/30
f 119/71/29 118/72/29 117/73/29
f 118/72/29 119/71/29 120/74/29
f 56/11/24 124/55/24 58/54/24
f 122/54/2 3/2/2 5/11/2
f 122/54/2 125/4/2 3/2/2
f 121/54/24 124/55/24 57/10/24
f 2/5/2 125/4/2 123/102/2
