# Blender v2.75 (sub 0) OBJ File: 'Empty.blend'
# www.blender.org
mtllib BEDHIGH_1_OC.mtl
o BEDHIGH_1_OC
v 1.205000 0.000000 0.540000
v 1.205000 0.000000 -0.600000
v -1.115000 0.000000 0.540000
v 1.205000 0.500000 0.540000
v -1.115000 0.000000 -0.600000
v 1.205000 0.500000 -0.600000
v -1.115000 0.500000 0.540000
v -1.115000 0.500000 -0.600000
vt 0.014090 0.505120
vt 0.014090 0.990030
vt 0.249350 0.990030
vt 0.019360 0.282140
vt 0.495800 0.282140
vt 0.495800 0.497860
vt 0.011830 0.485210
vt 0.011830 0.274790
vt 0.491600 0.274790
vt 0.249350 0.505120
vt 0.012260 0.496530
vt 0.482900 0.496530
vt 0.482900 0.298780
vt 0.491600 0.485210
vt 0.004040 1.284320
vt 0.485960 1.284320
vt 0.485960 1.495680
vt 0.019360 0.497860
vt 0.004040 1.495680
vt 0.012260 0.298780
vn 0.000000 1.000000 0.000000
vn 0.000000 0.000000 1.000000
vn 1.000000 0.000000 0.000000
vn 0.000000 0.000000 -1.000000
vn -1.000000 0.000000 0.000000
usemtl OC_O_WOOD_01
s off
f 7/1/1 4/2/1 6/3/1
f 3/4/2 1/5/2 4/6/2
f 4/7/3 1/8/3 2/9/3
f 6/3/1 8/10/1 7/1/1
f 8/11/4 6/12/4 2/13/4
f 2/9/3 6/14/3 4/7/3
f 5/15/5 3/16/5 7/17/5
f 4/6/2 7/18/2 3/4/2
f 7/17/5 8/19/5 5/15/5
f 2/13/4 5/20/4 8/11/4
