# Blender v2.75 (sub 0) OBJ File: 'Empty.blend'
# www.blender.org
mtllib BEDLOW_PSI.mtl
o BEDLOW_PSI
v 1.288000 0.001622 0.451399
v -1.286000 0.001622 0.621202
v -1.286000 0.001622 0.471599
v -1.286000 0.095587 0.425368
v 1.288000 0.001622 0.601002
v -1.286000 0.095587 0.667431
v 1.288000 0.095587 0.405168
v 1.288000 0.095587 0.647231
v 1.270800 0.002767 -0.565715
v -1.247200 0.002767 -0.545515
v -1.247200 0.002767 -0.664485
v -1.247200 0.089420 -0.508751
v 1.270800 0.002767 -0.684685
v -1.247200 0.089420 -0.701249
v 1.222210 0.002767 0.755576
v 1.173570 0.002767 -0.754002
v 1.055940 0.002767 -0.747775
v 1.209920 0.089420 -0.755926
v -1.055940 0.002767 -0.747775
v -1.173570 0.002767 -0.754002
v -1.222210 0.002767 0.755576
v -1.209920 0.089420 -0.755926
v 1.270800 0.089420 -0.528951
v 1.270800 0.089420 -0.721449
v 1.104580 0.002767 0.761803
v 1.068230 0.089420 0.763727
v 1.019590 0.089420 -0.745851
v -1.104580 0.002767 0.761803
v -1.068230 0.089420 0.763727
v -1.019590 0.089420 -0.745851
v 1.258560 0.089420 0.753652
v -1.258560 0.089420 0.753652
v 1.288000 0.162931 0.526200
v -1.286000 0.162931 0.546400
v 1.163400 0.142975 0.758689
v -1.163400 0.142975 0.758689
v 1.114750 0.142975 -0.750889
v -1.114750 0.142975 -0.750889
v 1.270800 0.142975 -0.625200
v -1.247200 0.142975 -0.605000
v 1.160000 0.142820 0.546400
v -1.120000 0.127350 -0.605000
v 1.120000 0.127350 -0.625200
v 0.840000 0.050000 -0.079800
v -1.160000 0.142820 0.526200
v -0.460000 0.034530 0.203000
v -0.520000 0.050000 -0.342400
vt 0.133740 0.797050
vt 0.031170 1.328280
vt 0.244210 1.437900
vt -0.213450 1.453580
vt -0.079300 0.820430
vt -0.205560 0.547360
vt 0.236320 0.562940
vt 0.238690 0.996910
vt 0.239420 0.954700
vt -0.658410 0.946080
vt -0.503500 0.919240
vt -0.503500 0.960150
vt 0.502000 0.963630
vt -0.659150 0.988290
vt -0.533860 0.921400
vt -0.533860 0.962310
vt 0.471630 0.965790
vt 0.502000 0.922730
vt 0.471630 0.924890
vt 0.461410 0.986840
vt 0.462060 0.949250
vt -0.521520 0.939970
vt -0.485720 0.935460
vt -0.485720 0.972230
vt 0.497900 0.975310
vt -0.522170 0.977560
vt -0.485410 0.952370
vt -0.485410 0.989140
vt 0.498210 0.992220
vt 0.253440 0.940600
vt 0.252120 0.903400
vt -0.336480 0.949300
vt 0.281870 -0.028590
vt 0.282620 -0.065290
vt -0.307320 -0.072650
vt 0.293390 -0.013670
vt 0.293410 -0.050890
vt -0.296460 -0.039010
vt -0.307320 0.992650
vt 0.282620 0.985290
vt 0.281870 0.948590
vt 0.497900 0.938540
vt 0.498210 0.955450
vt -0.335170 0.986510
vt 0.279920 -0.012090
vt -0.309270 -0.056150
vt -0.310020 -0.019450
vt 0.280670 -0.048790
vt -0.296440 -0.076230
vt 0.279920 0.942090
vt -0.310020 0.949450
vt -0.309270 0.986150
vt 0.280670 0.978790
vt -0.308070 -0.035950
vt -0.308070 0.955950
vt -0.657670 0.903870
vt 0.240160 0.912490
vt -0.337800 0.912100
vt -0.296480 -0.001780
vt 0.254760 0.977800
vt 0.293430 -0.088120
vt -0.520860 0.902380
vt 0.462720 0.911660
vt -0.213440 1.063640
vt -0.166160 1.037340
vt -0.184220 1.000630
vt -0.242660 1.000630
vt -0.176330 0.999370
vt -0.158270 0.962660
vt -0.205550 0.936360
vt -0.234770 0.999370
vt 0.259560 1.001080
vt 0.213090 1.001080
vt 0.236330 1.055850
vt 0.273930 1.034930
vt 0.473350 1.001080
vt 0.427340 1.001080
vt 0.450350 1.055850
vt -0.427340 1.001080
vt -0.473350 1.001080
vt -0.450350 1.055850
vt 0.220980 0.998920
vt 0.267460 0.998920
vt 0.244220 0.944150
vt 0.281820 0.965070
vt 0.415140 0.998920
vt 0.461160 0.998920
vt 0.438150 0.944150
vt 0.413120 1.034930
vt -0.461160 0.998920
vt -0.415140 0.998920
vt -0.438150 0.944150
vt -0.413120 1.034930
vt 0.475380 0.965070
vt -0.475380 0.965070
vt -0.252820 0.962660
vt -0.260720 1.037340
vt 0.400930 0.965070
vt -0.400930 0.965070
vt 0.487570 1.034930
vt -0.487570 1.034930
vt 0.206620 0.965070
vt 0.198730 1.034930
vn -0.024700 0.991500 0.127900
vn -0.272400 0.962200 -0.003400
vn -0.039400 0.991100 -0.126800
vn -0.005600 0.999600 0.029000
vn 0.002700 0.949900 -0.312400
vn 0.149200 0.988800 -0.008200
vn 0.002500 0.960800 0.277300
vn 0.121500 0.992500 0.014800
vn -0.003800 0.873800 -0.486200
vn -0.007000 -0.441500 -0.897300
vn 0.007000 -0.441400 0.897300
vn -0.003900 0.873800 -0.486200
vn 0.007400 -0.390600 0.920500
vn -0.007400 -0.390600 -0.920500
vn -0.489800 0.871700 0.015800
vn 0.921500 -0.387200 -0.029700
vn 0.489800 0.871700 0.015800
vn -0.921500 -0.387200 -0.029700
vn 0.489800 0.871700 -0.015800
vn -0.921500 -0.387200 0.029700
vn -0.489800 0.871700 -0.015800
vn 0.921500 -0.387200 0.029700
vn 0.003800 0.873800 0.486200
vn -0.489700 0.871700 0.015800
vn 0.489700 0.871700 0.015800
vn 0.489700 0.871700 -0.015800
vn -0.489700 0.871700 -0.015800
vn 0.003900 0.873800 0.486200
vn -1.000000 0.000000 0.000000
vn 1.000000 0.000000 0.000000
vn -0.052900 -0.000000 -0.998600
vn 0.052900 -0.000000 -0.998600
vn 0.052900 0.000000 0.998600
vn -0.052900 0.000000 0.998600
usemtl MATERIAL_#324
s off
f 47/1/1 44/2/1 43/3/1
f 41/4/2 43/3/2 44/2/2
f 41/4/3 44/2/3 46/5/3
f 47/1/4 46/5/4 44/2/4
f 45/6/5 41/4/5 46/5/5
f 42/7/6 45/6/6 46/5/6
f 47/1/7 43/3/7 42/7/7
f 46/5/8 47/1/8 42/7/8
usemtl PSI_C_INHOUSE01
f 4/8/9 34/9/9 33/10/9
f 3/11/10 4/12/10 7/13/10
f 33/10/9 7/14/9 4/8/9
f 6/15/11 2/16/11 5/17/11
f 7/13/10 1/18/10 3/11/10
f 5/17/11 8/19/11 6/15/11
f 14/20/12 40/21/12 39/22/12
f 12/23/13 10/24/13 9/25/13
f 39/22/12 24/26/12 14/20/12
f 11/27/14 14/28/14 24/29/14
f 37/30/15 27/31/15 35/32/15
f 16/33/16 18/34/16 31/35/16
f 30/36/17 38/37/17 36/38/17
f 32/39/18 22/40/18 20/41/18
f 9/25/13 23/42/13 12/23/13
f 24/29/14 13/43/14 11/27/14
f 37/30/19 35/32/19 31/44/19
f 27/45/20 25/46/20 26/47/20
f 27/45/20 17/48/20 25/46/20
f 36/38/21 38/37/21 32/49/21
f 30/50/22 29/51/22 28/52/22
f 28/52/22 19/53/22 30/50/22
f 31/35/16 15/54/16 16/33/16
f 32/39/18 20/41/18 21/55/18
f 34/9/23 8/56/23 33/10/23
f 34/9/23 6/57/23 8/56/23
f 27/31/24 26/58/24 35/32/24
f 29/59/25 30/36/25 36/38/25
f 18/60/26 37/30/26 31/44/26
f 38/37/27 22/61/27 32/49/27
f 23/62/28 39/22/28 40/21/28
f 40/21/28 12/63/28 23/62/28
usemtl PSI_W_IWOOD_V01
f 34/64/29 4/65/29 3/66/29
f 3/66/29 2/67/29 34/64/29
f 1/68/30 7/69/30 33/70/30
f 5/71/30 1/68/30 33/70/30
f 11/72/29 10/73/29 40/74/29
f 40/74/29 14/75/29 11/72/29
f 16/76/31 17/77/31 37/78/31
f 19/79/32 20/80/32 38/81/32
f 9/82/30 13/83/30 39/84/30
f 13/83/30 24/85/30 39/84/30
f 25/86/33 15/87/33 35/88/33
f 17/77/31 27/89/31 37/78/31
f 21/90/34 28/91/34 36/92/34
f 38/81/32 30/93/32 19/79/32
f 15/87/33 31/94/33 35/88/33
f 36/92/34 32/95/34 21/90/34
f 8/96/30 5/71/30 33/70/30
f 2/67/29 6/97/29 34/64/29
f 26/98/33 25/86/33 35/88/33
f 28/91/34 29/99/34 36/92/34
f 18/100/31 16/76/31 37/78/31
f 20/80/32 22/101/32 38/81/32
f 23/102/30 9/82/30 39/84/30
f 10/73/29 12/103/29 40/74/29
