# Blender v2.75 (sub 0) OBJ File: 'Empty.blend'
# www.blender.org
mtllib BEDLOW_OC.mtl
o BEDLOW_OC
v 1.404000 0.010000 0.750000
v -1.196000 0.150000 0.550000
v 1.204000 0.150000 -0.550000
v -1.396000 0.010000 -0.750000
v -1.396000 0.010000 0.750000
v 1.404000 0.010000 -0.750000
v -1.196000 0.010000 -0.550000
v 1.204000 0.010000 0.550000
v 1.204000 0.010000 -0.550000
v -1.196000 0.010000 0.550000
v 1.204000 0.150000 0.550000
v -1.196000 0.150000 -0.550000
vt -0.001800 2.002220
vt -0.134650 1.061190
vt -0.134650 1.928350
vt -0.865350 1.928350
vt -0.890890 0.796670
vt -0.143880 0.816670
vt -0.143880 0.796670
vt 0.102090 0.943330
vt 0.102090 0.963330
vt 0.883240 0.963330
vt -0.865350 1.061190
vt -0.998200 0.990540
vt 0.849230 1.099680
vt 0.004090 1.020320
vt 0.134110 1.099680
vt -0.998200 2.002220
vt 0.308300 0.936670
vt 0.826840 0.916670
vt 0.308300 0.916670
vt 0.883240 0.943330
vt 0.826840 0.936670
vt -0.890890 0.816670
vt -0.001800 0.990540
vt 0.979250 1.020320
vn 0.000000 0.819200 -0.573500
vn 0.000000 1.000000 0.000000
vn 0.000000 0.000000 1.000000
vn 0.000000 0.000000 -1.000000
vn 0.000000 0.819200 0.573500
vn -0.573500 0.819200 0.000000
vn 0.573500 0.819200 0.000000
vn -1.000000 0.000000 0.000000
vn 1.000000 0.000000 0.000000
usemtl OC_O_STRAWBED_01
s off
f 6/1/1 12/2/1 3/3/1
f 12/2/2 11/4/2 3/3/2
f 2/5/3 8/6/3 11/7/3
f 7/8/4 12/9/4 3/10/4
f 12/2/2 2/11/2 11/4/2
f 5/12/5 11/4/5 2/11/5
f 12/13/6 5/14/6 2/15/6
f 1/16/7 6/1/7 3/3/7
f 12/12/8 7/12/8 10/12/8
f 8/17/9 3/18/9 11/19/9
f 7/8/4 3/10/4 9/20/4
f 8/17/9 9/21/9 3/18/9
f 12/12/8 10/12/8 2/12/8
f 2/5/3 10/22/3 8/6/3
f 5/12/5 1/16/5 11/4/5
f 1/16/7 3/3/7 11/4/7
f 6/1/1 4/23/1 12/2/1
f 12/13/6 4/24/6 5/14/6
