# Blender v2.75 (sub 0) OBJ File: 'Empty.blend'
# www.blender.org
mtllib BOOK_BLUE.mtl
o BOOK_BLUE
v 0.400000 1.306830 0.804719
v -0.400000 1.112330 0.343423
v 0.400000 1.112330 0.343423
v -0.400000 1.283340 0.813269
v -0.114539 1.461640 0.687793
v -0.100000 1.173910 0.450000
v -0.200000 1.281640 0.744734
v 0.185461 1.461640 0.687793
v 0.200000 1.173910 0.450000
v 0.100000 1.281640 0.744734
v 0.034098 1.178620 0.530314
v 0.055153 0.000000 0.249237
v 0.232892 0.000000 0.748145
v 0.057284 0.152717 0.516927
v -0.057284 0.152717 0.516927
v -0.288045 0.000000 0.652618
v -0.000000 0.152717 0.616146
v -0.232892 0.000000 0.748145
v -0.055153 0.000000 0.249237
v 0.288045 0.000000 0.652618
v -0.000000 1.207490 0.609628
v 0.200000 1.281640 0.744734
v -0.100000 1.281640 0.744734
v -0.034098 1.178620 0.530314
v -0.000000 0.250000 0.616146
v 0.057284 0.250000 0.516927
v 0.100000 1.173910 0.450000
v 0.114539 1.461640 0.687793
v -0.200000 1.173910 0.450000
v -0.185461 1.461640 0.687793
v -0.057284 0.250000 0.516927
v 0.400000 1.283340 0.813269
v -0.400000 1.306830 0.804719
v -0.400000 1.135820 0.334872
v 0.400000 1.135820 0.334872
v -0.367847 1.566200 0.655800
v 0.374768 1.511450 0.718527
v 0.374768 1.145360 0.411342
v -0.363313 1.212370 0.358737
v -0.057635 1.568990 0.652472
v -0.054594 1.212920 0.358084
v -0.375117 1.153770 0.401315
v -0.364811 1.562550 0.654827
v 0.000000 1.531040 0.713377
v 0.000000 1.151070 0.394538
v -0.375117 1.519860 0.708500
v 0.368148 1.547000 0.673362
v -0.364811 1.202680 0.358780
v 0.368148 1.187130 0.377316
v 0.062777 1.562950 0.654359
v -0.061814 1.565390 0.651450
v 0.062777 1.203070 0.358313
v -0.061814 1.205520 0.355403
v -0.069225 1.145420 0.401274
v 0.068876 1.514880 0.714437
v 0.374943 1.513450 0.707159
v 0.068876 1.148790 0.407252
v 0.374943 1.149540 0.401797
v -0.374943 1.160200 0.393656
v -0.374943 1.526290 0.700841
v -0.069225 1.516430 0.712590
vt 0.754745 0.657065
vt 0.758630 0.999500
vt 0.008270 0.999501
vt 0.487539 0.008632
vt 0.487539 0.500181
vt 0.037147 0.500181
vt 0.000000 0.000000
vt 0.999500 0.013758
vt 2.000000 0.000000
vt 0.037146 0.008632
vt 0.037998 0.497780
vt 0.037998 0.012709
vt 0.490010 0.012709
vt 0.983406 0.494450
vt 0.550819 0.494450
vt 0.550819 0.008270
vt 0.490010 0.497780
vt 0.983406 0.008270
vt 0.743469 0.683819
vt 0.743469 0.985701
vt 0.010440 0.985702
vt 0.534124 0.499637
vt 0.532131 0.006476
vt 0.989482 0.006476
vt 0.985498 0.495653
vt 0.000500 0.999500
vt 0.688769 0.999500
vt 0.002511 0.495720
vt 0.002510 0.012048
vt 0.492557 0.497937
vt 0.490565 0.008667
vt 0.976190 0.528695
vt 0.980929 0.979968
vt 0.761962 0.987291
vt 0.983960 0.530780
vt 0.976190 0.988333
vt 0.765846 0.991730
vt 0.762006 0.511655
vt 0.762049 0.999501
vt 0.988546 1.000970
vt 0.769187 0.513320
vt 0.769187 0.991730
vt 0.976189 0.976805
vt 0.765846 0.513320
vt 0.983960 0.524918
vt 0.980138 0.523772
vt -0.002819 0.683819
vt 0.688769 0.000500
vt 0.004385 0.657066
vt 0.999500 0.999500
vt 0.010440 0.519342
vt 0.743469 0.519342
vt 0.000499 0.013759
vt 0.000500 0.000500
vt 0.999501 0.000500
vt -0.034631 0.000500
vt 0.700949 0.126847
vt 0.299051 0.126847
vt 0.700949 0.207333
vt 0.299051 0.207333
vt 0.369009 0.975617
vt 0.500000 0.207333
vt 0.619537 0.000500
vt 0.500000 0.999501
vt 0.500000 0.126847
vt 0.328109 0.000500
vt 0.380463 0.000500
vt 0.034631 0.000500
vt 0.671890 0.000500
vt 0.630991 0.975617
vt 0.965369 0.000500
vn -0.017400 -0.642700 0.765900
vn 0.081000 0.633200 -0.769700
vn -0.009400 -0.991900 -0.126800
vn 0.014000 -0.637100 0.770700
vn -0.014000 0.637100 -0.770700
vn 0.002800 -0.643000 0.765900
vn -0.002800 0.643000 -0.765900
vn -0.014600 0.635200 -0.772200
vn -0.013300 0.009000 0.999900
vn -0.776600 -0.405000 0.482600
vn 0.776600 0.405000 -0.482600
vn -0.778400 -0.403900 0.480500
vn 0.778400 0.403900 -0.480500
vn -0.000500 0.785500 0.618900
vn -0.985400 0.109600 -0.130600
vn 0.045100 0.713500 0.699200
vn 0.989900 0.090100 -0.109600
vn -0.982800 0.117300 -0.142600
vn -0.013600 -0.632500 -0.774400
vn 0.987700 0.100500 -0.119800
vn 0.023900 -0.542500 -0.839700
vn -0.723100 0.444000 -0.529100
vn 0.015200 0.872700 0.488000
vn -0.027800 0.862100 0.506000
vn 0.747900 0.421700 -0.512600
vn -0.696900 0.455600 -0.553800
vn 0.013400 -0.582400 -0.812800
vn 0.724500 0.443000 -0.528000
vn -0.003500 -0.586300 -0.810100
vn -0.015000 -0.685000 -0.728400
vn 0.024200 0.167900 0.985500
vn 0.999800 -0.011300 0.013400
vn 0.008700 0.984800 0.173400
vn -0.017500 -0.642700 0.765900
vn 0.038900 -0.925500 -0.376600
vn 0.004000 -0.916000 -0.401100
vn 0.999800 -0.011200 0.013400
vn -0.021000 -0.765500 -0.643100
vn -0.999800 0.011200 -0.013300
vn -0.031200 0.765900 0.642300
vn 0.000000 -0.939700 0.342000
vn -0.000000 0.939700 -0.342000
vn -0.997000 0.072200 -0.026400
vn 0.997000 0.072200 -0.026400
vn -0.000000 -0.868600 0.495500
vn 0.000000 0.014400 -0.999900
vn 0.000000 0.730800 -0.682500
vn 0.591100 0.730800 0.341300
vn 0.866000 0.003400 0.500000
vn -0.429100 -0.868600 -0.247800
vn 0.429100 -0.868600 -0.247800
vn -0.866000 0.003400 0.500000
vn -0.591100 0.730800 0.341300
vn 0.920800 0.017400 0.389600
vn -0.920800 0.017400 0.389600
vn -0.000000 0.301600 0.953400
vn 0.493100 0.000000 0.870000
vn -0.493100 -0.000000 0.870000
vn 0.506900 0.000000 -0.862000
vn 1.000000 0.000000 -0.008000
vn 0.000000 0.637000 -0.770800
vn -0.506900 -0.000000 -0.862000
vn -1.000000 -0.000000 -0.008000
vn -0.000000 0.342000 0.939700
vn 1.000000 0.000000 0.000000
vn -1.000000 -0.000000 -0.000000
vn 0.000000 -0.342100 -0.939700
usemtl BLUE_BOOK
s off
f 57/1/1 38/2/1 37/3/1
f 47/4/2 49/5/2 52/6/2
f 38/7/3 57/8/3 45/9/3
f 52/6/2 50/10/2 47/4/2
f 41/11/4 40/12/4 36/13/4
f 36/14/5 40/15/5 41/16/5
f 36/13/6 39/17/6 41/11/6
f 36/14/7 41/16/7 39/18/7
f 61/19/1 46/20/1 42/21/1
f 51/22/8 53/23/8 48/24/8
f 48/24/8 43/25/8 51/22/8
f 46/26/9 61/27/9 44/7/9
f 45/28/10 44/29/10 40/12/10
f 40/15/11 44/30/11 45/31/11
f 40/12/12 41/11/12 45/28/12
f 40/15/13 45/31/13 41/16/13
f 51/32/14 43/33/14 60/34/14
f 59/35/15 60/36/15 43/37/15
f 44/38/16 56/39/16 47/40/16
f 49/41/17 47/42/17 56/43/17
f 43/37/18 48/44/18 59/35/18
f 45/38/19 59/34/19 48/33/19
f 56/43/20 58/45/20 49/41/20
f 52/46/21 49/40/21 58/39/21
f 45/28/22 44/29/22 50/10/22
f 47/40/23 50/46/23 44/38/23
f 60/34/24 44/38/24 51/32/24
f 53/23/25 51/22/25 44/30/25
f 50/10/26 52/6/26 45/28/26
f 58/39/27 45/38/27 52/46/27
f 44/30/28 45/31/28 53/23/28
f 48/33/29 53/32/29 45/38/29
f 42/21/1 54/47/1 61/19/1
f 59/7/30 45/9/30 54/48/30
f 37/3/1 55/49/1 57/1/1
f 56/9/31 44/7/31 55/50/31
f 58/7/32 56/9/32 37/7/32
f 55/50/33 37/7/33 56/9/33
f 54/47/34 57/51/34 55/52/34
f 57/8/35 54/48/35 45/9/35
f 45/9/36 58/7/36 38/7/36
f 37/7/37 38/7/37 58/7/37
f 54/48/38 42/53/38 59/7/38
f 60/9/39 59/7/39 42/53/39
f 44/7/40 60/9/40 46/26/40
f 42/53/39 46/26/39 60/9/39
f 55/52/34 61/19/34 54/47/34
f 61/27/9 55/50/9 44/7/9
usemtl PULT_WOOD
f 3/26/41 32/54/41 4/55/41
f 33/54/42 1/55/42 35/50/42
f 4/55/41 2/50/41 3/26/41
f 35/50/42 34/26/42 33/54/42
f 7/55/43 30/50/43 29/26/43
f 6/50/44 5/26/44 23/54/44
f 10/55/43 28/50/43 27/26/43
f 9/50/44 8/26/44 22/54/44
f 12/56/45 14/57/45 15/58/45
f 26/59/46 31/60/46 24/61/46
f 31/60/47 26/59/47 12/56/47
f 26/59/48 25/62/48 13/63/48
f 25/62/49 26/59/49 21/64/49
f 13/63/50 17/65/50 14/57/50
f 16/66/51 15/58/51 17/65/51
f 25/62/52 21/64/52 31/60/52
f 25/62/53 31/60/53 16/66/53
f 17/65/51 18/67/51 16/66/51
f 16/66/53 18/67/53 25/62/53
f 15/58/45 19/68/45 12/56/45
f 12/56/47 19/68/47 31/60/47
f 14/57/50 20/69/50 13/63/50
f 13/63/48 20/69/48 26/59/48
f 11/70/54 21/64/54 26/59/54
f 24/61/55 31/60/55 21/64/55
f 28/54/56 10/55/56 22/50/56
f 30/54/56 7/55/56 23/50/56
f 24/61/46 11/70/46 26/59/46
f 18/67/57 17/65/57 25/62/57
f 13/63/58 25/62/58 17/65/58
f 20/69/59 14/57/59 26/59/59
f 12/71/60 26/59/60 14/57/60
f 8/50/61 9/26/61 27/54/61
f 27/54/61 28/55/61 8/50/61
f 22/50/56 8/26/56 28/54/56
f 5/50/61 6/26/61 29/54/61
f 29/54/61 30/55/61 5/50/61
f 23/50/56 5/26/56 30/54/56
f 16/66/62 31/60/62 15/58/62
f 19/68/63 15/58/63 31/60/63
f 4/54/64 32/55/64 1/50/64
f 35/50/65 1/26/65 32/54/65
f 1/50/64 33/26/64 4/54/64
f 2/54/66 4/55/66 33/50/66
f 3/54/67 2/55/67 34/50/67
f 33/50/66 34/26/66 2/54/66
f 32/54/65 3/55/65 35/50/65
f 34/50/67 35/26/67 3/54/67
