# Blender v2.75 (sub 0) OBJ File: 'Empty.blend'
# www.blender.org
mtllib CAULDRON_OC.mtl
o CAULDRON_OC
v -0.388500 0.872051 -0.000675
v -0.000000 0.242130 -0.350675
v 0.388500 0.872051 -0.000675
v -0.000000 0.872051 -0.389175
v 0.036650 0.050955 0.155807
v 0.417453 0.306397 -0.304708
v -0.033134 0.141611 -0.043416
v 0.128221 0.053125 -0.159521
v -0.277103 0.266116 0.338215
v 0.188630 0.153525 0.035179
v 0.213624 0.053125 -0.014089
v -0.284842 0.277382 -0.374489
v 0.024931 0.153525 0.063060
v 0.000000 0.872051 0.387825
v -0.247487 0.242130 0.246812
v 0.010951 0.010952 0.003686
v 0.521277 0.364599 0.106731
v 0.125064 0.089809 -0.130028
v -0.217215 0.292948 0.489995
v 0.247487 0.242130 0.246812
v -0.401789 0.276505 -0.294776
v 0.360879 0.309089 -0.433721
v 0.533295 0.251143 0.118492
v 0.427560 0.490181 -0.156294
v -0.000000 0.618342 -0.000675
v 0.095224 -0.004643 0.607205
v -0.539069 -0.004643 0.064849
v -0.431374 -0.004643 -0.370880
v -0.482877 0.153721 -0.016351
v -0.350000 0.242130 -0.000675
v 0.634355 -0.004643 -0.035414
v -0.130416 0.206508 0.420605
v 0.243599 0.206508 0.404325
v 0.231334 0.034775 -0.049511
v 0.113019 0.034775 0.098220
v -0.049231 0.017168 0.037229
v 0.350000 0.242130 -0.000675
v -0.019085 -0.004643 -0.635050
v 0.486557 0.166917 0.130719
v 0.171676 0.114130 0.334284
v 0.304907 0.206508 0.229922
v 0.274711 0.872051 -0.275386
v -0.192291 0.490181 0.411695
v -0.274711 0.872051 0.274036
v -0.313102 -0.004643 0.484465
v 0.146123 0.145471 -0.040550
v 0.095977 0.145471 -0.094583
v 0.274711 0.872051 0.274036
v -0.274711 0.872051 -0.275386
v 0.048151 0.147551 0.093927
v 0.155619 0.490181 0.426885
v 0.192291 0.490181 -0.413045
v 0.102733 0.001301 -0.117572
v -0.412370 0.490181 -0.192966
v -0.333661 0.153721 -0.385162
v 0.411052 -0.004643 -0.458263
v 0.149601 0.153721 -0.490175
v 0.412802 0.206508 0.001323
v 0.328584 0.219705 -0.371438
v 0.420859 0.333539 0.204018
v 0.413378 0.227406 0.220394
v -0.397724 0.163156 -0.275548
v -0.427560 0.490181 0.154944
v -0.155619 0.490181 -0.428235
v 0.412370 0.490181 0.191616
v -0.259158 0.163758 -0.355994
v -0.071455 0.114130 0.363876
v -0.247487 0.242130 -0.248162
v 0.247487 0.242130 -0.248162
v 0.000000 0.242130 0.349325
v -0.113824 0.153721 -0.445029
v -0.336204 0.140524 0.387015
v 0.000000 0.774948 0.326640
v 0.231447 0.774948 0.230771
v -0.000000 0.774948 -0.327990
v -0.327315 0.774948 -0.000675
v -0.231447 0.774948 -0.232121
v 0.327315 0.774948 -0.000675
v 0.231447 0.774948 -0.232121
v -0.231446 0.774948 0.230772
v -0.349051 0.153721 0.159586
v 0.013053 0.153721 0.552435
v -0.371066 0.153721 -0.167291
v 0.361431 0.220353 -0.400851
v -0.185526 0.183270 0.426715
v 0.415121 0.230342 -0.250420
v 0.143321 0.114130 -0.363439
v 0.354446 0.114130 -0.133475
v 0.446019 0.206508 -0.133457
v 0.264502 0.206508 -0.265228
v 0.576754 0.140524 0.044794
v -0.253589 0.183872 0.281663
v -0.406868 -0.004643 0.220980
v 0.050773 0.153721 0.387075
v 0.360599 -0.004643 0.434345
v 0.385347 0.114130 0.122670
v 0.024017 0.114130 -0.566160
v -0.109550 -0.004643 0.504935
v 0.027331 0.048408 -0.006671
v -0.207024 -0.004643 -0.475800
v -0.455394 -0.004643 -0.167713
v -0.248810 0.114130 0.196602
v 0.562181 -0.004643 0.153807
v -0.292859 0.114130 -0.097557
v -0.139159 0.153721 -0.095709
v -0.318190 0.153721 0.024249
v 0.369725 0.166917 0.333868
v 0.504899 -0.004643 -0.193826
v -0.100290 0.114130 -0.338106
v -0.202233 0.206508 0.301820
v -0.024856 0.153721 0.209098
v -0.251039 0.153721 -0.237025
v 0.191049 0.153721 0.132896
v 0.021516 0.153721 -0.414171
v 0.102147 0.153721 -0.146510
v 0.171365 -0.004643 -0.566191
v -0.214618 0.804879 -0.208853
v 0.211321 0.804878 0.221788
v 0.213916 0.804878 -0.215318
v -0.216972 0.804878 0.213278
v 0.000000 0.804878 0.317781
v -0.318456 0.804878 -0.000675
v -0.000000 0.804878 -0.319131
v 0.318456 0.804878 -0.000675
v -0.000000 0.242130 -0.000675
vt 0.764071 0.264571
vt 0.737463 0.762037
vt 0.278369 0.777869
vt 0.248394 0.252105
vt 0.500000 0.000500
vt 0.000500 0.500000
vt 0.500000 0.999501
vt 0.999501 0.500000
vt 0.644214 0.371192
vt 0.856125 0.639017
vt 0.584119 0.639320
vt 0.644208 0.370917
vt 0.856124 0.638743
vt 0.584108 0.639046
vt 0.758957 0.190953
vt 0.949751 0.642644
vt 0.611582 0.642644
vt 0.995735 0.008987
vt 0.786655 0.508763
vt 0.785826 0.008762
vt 0.786970 0.508431
vt 0.995776 0.008763
vt 0.785518 0.009127
vt 0.787299 0.009165
vt 0.626126 0.509619
vt 0.626054 0.007686
vt 0.756140 0.190953
vt 0.946934 0.642644
vt 0.608765 0.642644
vt 0.913749 0.369176
vt 0.925210 0.190045
vt 0.996368 0.508165
vt 0.995983 0.509362
vt 0.913747 0.368901
vt 2.000000 0.001998
vt 1.000000 0.001998
vt 0.500000 0.001998
vt 0.787926 0.509378
vt 0.173328 0.975391
vt 0.281979 0.839302
vt 0.458872 0.969665
vt 0.738143 0.932701
vt 0.675555 0.953801
vt 0.621002 0.933295
vt 0.703467 0.930226
vt 0.678680 0.835339
vt 0.756660 0.838432
vt 1.500000 0.001998
vt 0.780412 0.835491
vt 0.918294 0.732018
vt 0.831041 0.911006
vt 0.755456 0.826044
vt 0.869480 0.707911
vt 0.922903 0.957795
vt 0.680574 0.878031
vt 0.779112 0.801558
vt 0.804907 0.922440
vt 0.965656 0.821180
vt 0.844100 0.795911
vt 0.925210 0.189770
vt 0.957991 0.783176
vt 0.799409 0.989223
vt 0.934703 0.907466
vt 0.653373 0.876474
vt 0.785331 0.968374
vt 0.861807 0.763089
vt 0.714871 0.729390
vt 0.519397 0.831362
vt 0.783383 0.750986
vt 0.816160 0.720837
vt 0.769092 0.887006
vt 0.660937 0.190095
vt 0.652790 0.909026
vt 0.776347 0.687820
vt 0.945937 0.964934
vt 0.625915 0.509010
vt 0.788094 0.008578
vt 0.626079 0.007910
vt 0.758827 0.901457
vt 0.835650 0.812626
vt 0.860011 0.870758
vt 0.773832 0.849925
vt 0.802954 0.788487
vt 0.925927 0.861116
vt 0.817554 0.943774
vt 0.873376 0.824491
vt 0.973552 0.802906
vt 0.964912 0.864808
vt 0.999602 0.999164
vt 0.999846 0.805915
vt 0.788837 0.814243
vt 0.981667 0.841776
vt 0.905398 0.753209
vt 0.774976 0.649378
vt 0.617284 0.609519
vt 0.747048 0.520340
vt 0.742793 0.618787
vt 0.605742 0.506447
vt 0.787954 0.509169
vt 0.660941 0.190369
vt 0.845172 0.672911
vt 0.680199 0.728867
vt 0.841099 0.737819
vt -0.000000 0.001998
vt 3.000000 0.001998
vt 2.500000 0.001998
vt 0.792435 0.934209
vt 0.552043 0.452262
vt 0.943533 0.454678
vt 0.939499 0.638253
vt 0.551668 0.452262
vt 0.939423 0.638252
vt 0.547853 0.640668
vt 0.548161 0.640668
vt 0.682960 0.794245
vt 0.761016 0.859609
vt 0.748542 0.633499
vt 0.711094 0.657076
vt 0.697735 0.797811
vt 0.761382 0.764733
vt 0.788973 0.883835
vt 0.621675 0.817753
vt 0.909927 0.704008
vt 0.625080 0.770592
vt 0.801597 0.632636
vt 0.102948 0.814242
vt 0.873624 0.869252
vt 0.836141 0.882748
vt 0.675018 0.702676
vt 0.818786 0.713210
vt 0.727951 0.801583
vt 0.328535 0.745716
vt 0.856178 0.789538
vt 0.685701 0.699871
vt 0.695754 0.902820
vt 0.581618 0.972385
vt 0.727385 0.871447
vt 0.682025 0.836690
vt 0.011282 0.956832
vt 3.500000 0.001998
vt 4.000000 0.001998
vn 0.000000 1.000000 0.000000
vn -0.814800 0.471300 0.337500
vn -0.814800 0.471300 -0.337500
vn 0.337500 0.471300 -0.814800
vn 0.533300 0.816600 0.220900
vn -0.280700 0.951600 0.125000
vn 0.410500 -0.911100 -0.037700
vn 0.693500 -0.236000 0.680700
vn 0.148400 0.974800 -0.166400
vn -0.611700 -0.229600 0.757000
vn 0.174200 0.976400 0.127800
vn 0.337500 0.471300 0.814800
vn 0.533300 0.816600 -0.220900
vn -0.642000 0.311500 -0.700600
vn 0.709000 -0.274100 -0.649700
vn -0.514800 0.848400 -0.123100
vn 0.335400 -0.884500 0.324300
vn 0.079200 0.975800 -0.203800
vn -0.218600 -0.970800 0.098500
vn -0.041400 0.311500 0.949300
vn 0.000000 -1.000000 -0.000000
vn 0.134900 0.968700 0.208600
vn -0.099600 -0.978800 -0.178900
vn -0.264200 0.954900 0.135800
vn 0.365900 -0.928100 -0.069000
vn 0.528900 -0.031900 -0.848100
vn 0.366900 -0.903600 0.221200
vn 0.949300 0.311500 0.041400
vn 0.700600 0.311500 -0.642000
vn -0.220900 0.816600 0.533300
vn -0.220900 0.816600 -0.533300
vn -0.877800 0.467700 -0.103800
vn -0.927300 0.367100 0.073700
vn -0.700600 0.311500 0.642000
vn -0.401500 0.912800 0.075600
vn 0.778100 0.286100 0.559100
vn -0.258700 0.964200 -0.059000
vn 0.298300 0.938900 0.171600
vn -0.254500 -0.963900 0.077800
vn -0.077300 -0.970600 -0.227800
vn -0.573400 -0.392000 -0.719400
vn 0.960800 -0.274100 0.041900
vn -0.571500 0.467400 -0.674500
vn 0.790700 0.409800 0.454800
vn 0.847500 0.350300 -0.398800
vn -0.112200 0.654400 -0.747800
vn 0.070200 0.977500 0.198900
vn -0.671800 0.702100 -0.236200
vn -0.688400 0.207600 -0.695000
vn -0.533300 0.816600 0.220900
vn 0.814800 0.471300 -0.337500
vn -0.709000 -0.274100 0.649700
vn -0.338300 -0.467600 0.816700
vn 0.220900 0.816600 -0.533300
vn -0.337500 0.471300 0.814800
vn -0.093300 0.361300 0.927800
vn 0.605000 0.223200 -0.764300
vn -0.701200 0.229800 -0.674900
vn -0.533300 0.816600 -0.220900
vn 0.814800 0.471300 0.337500
vn 0.220900 0.816600 0.533300
vn -0.337500 0.471300 -0.814800
vn 0.582600 0.388100 0.714100
vn -0.041900 -0.274100 0.960800
vn 0.642000 0.311500 0.700600
vn 0.338300 -0.467600 -0.816700
vn 0.041400 0.311500 -0.949300
vn 0.574300 -0.254400 -0.778100
vn -0.816700 -0.467600 -0.338300
vn -0.949300 0.311500 -0.041400
vn -0.847800 0.510000 -0.145600
vn 0.410200 0.871000 0.270600
vn -0.149300 0.956300 -0.251500
vn 0.368100 0.443000 -0.817500
vn 0.851000 0.429700 -0.302000
vn -0.715100 0.240100 0.656500
vn 0.771400 0.513600 -0.375600
vn 0.372100 0.450800 -0.811400
vn -0.305900 0.949700 -0.066600
vn 0.664600 0.146400 0.732700
vn -0.485900 0.842500 -0.232600
vn 0.637300 0.073400 0.767100
vn -0.555700 0.164900 0.814800
vn -0.620000 0.109600 0.777000
vn -0.555300 -0.158400 -0.816400
vn -0.960800 -0.274100 -0.041900
vn -0.816700 -0.467600 0.338300
vn 0.041900 -0.274100 -0.960800
vn -0.649700 -0.274100 -0.709000
vn 0.649700 -0.274100 0.709000
vn 0.816700 -0.467600 0.338300
vn -0.485800 -0.246300 -0.838600
vn 0.614500 0.010500 -0.788900
vn 0.617900 0.434700 -0.655200
vn -0.087400 0.690500 -0.718000
vn -0.338300 -0.467600 -0.816700
vn 0.816700 -0.467600 -0.338300
vn 0.338300 -0.467600 0.816700
vn -0.248600 0.323700 -0.912900
vn -0.293400 0.500200 0.814700
vn -0.939500 0.074900 0.334300
vn -0.330700 -0.503100 0.798400
vn 0.330700 -0.503100 0.798400
vn 0.798400 -0.503100 0.330700
vn 0.330700 -0.503100 -0.798400
vn -0.330700 -0.503100 -0.798400
vn -0.798400 -0.503100 -0.330700
vn -0.798400 -0.503100 0.330700
vn 0.798400 -0.503100 -0.330700
vn -0.684600 0.510000 0.520800
vn -0.177300 0.981900 0.066500
vn 0.395300 0.476700 0.785200
vn -0.606500 0.242500 0.757200
vn -0.738300 0.394600 -0.546900
vn -0.614000 -0.277500 -0.738900
vn 0.905400 -0.142500 -0.400000
vn 0.702100 -0.192700 0.685500
vn -0.796300 -0.458100 0.395200
vn 0.917100 -0.249900 -0.310700
vn 0.541600 0.477300 0.692000
vn -0.686400 0.703100 0.185600
vn 0.178900 0.936600 0.301400
vn -0.904500 0.412200 0.109100
vn 0.157400 0.986300 -0.050100
vn -0.699500 0.693500 -0.172400
vn 0.352100 0.931900 0.086800
vn -0.062400 0.994300 0.085900
vn -0.507700 0.503100 0.699400
vn 0.352800 0.931900 0.084100
vn 0.692800 0.387300 0.608300
vn -0.794000 -0.481800 0.370600
vn -0.693200 0.263100 -0.670900
vn -0.674600 0.467700 0.571200
vn -0.006400 0.520300 -0.854000
vn 0.290400 0.954600 0.066200
vn 0.502900 0.388500 0.772100
vn -0.266200 0.622600 -0.735900
vn -0.435200 0.761100 0.480900
vn 0.357400 0.443600 -0.821900
vn -0.447300 0.564600 -0.693600
vn -0.445500 0.077300 0.892000
vn -0.598300 0.445800 0.665800
vn -0.416900 0.176900 -0.891600
vn -0.929100 0.158300 -0.334300
vn 0.341200 0.936700 0.077800
vn 0.471600 0.548600 -0.690400
vn 0.920500 0.171300 0.351100
vn 0.669100 0.736400 -0.100200
vn 0.458700 0.809100 0.367200
vn -0.249700 0.967600 0.037400
vn -0.242500 0.950500 -0.194100
vn 0.551000 0.820500 -0.152100
vn 0.539500 0.404000 0.738800
vn 0.360900 0.923900 0.126900
vn 0.719700 0.368900 -0.588200
vn 0.055000 0.846900 0.528900
vn -0.035100 0.985400 -0.166600
vn 0.647600 0.653700 -0.391500
vn -0.328500 0.923400 0.198600
vn -0.181200 0.964500 0.192100
vn 0.031200 0.966000 0.256500
vn 0.185600 0.929300 0.319400
vn 0.205800 0.956300 0.207800
vn 0.198400 0.979800 -0.023900
vn -0.081000 0.931300 0.355100
vn 0.057200 0.966400 -0.250800
vn 0.160800 0.975900 -0.147600
vn -0.019000 0.982900 -0.183000
vn 0.313300 0.388900 -0.866400
usemtl OC_COULDRON_V01_4
s off
f 118/1/1 119/2/1 117/3/1
f 118/1/1 117/3/1 120/4/1
f 118/1/1 120/4/1 121/5/1
f 117/3/1 122/6/1 120/4/1
f 117/3/1 119/2/1 123/7/1
f 124/8/1 119/2/1 118/1/1
usemtl OC_COULDRON_V01_3
f 63/9/2 80/10/2 76/11/2
f 54/12/3 76/13/3 77/14/3
f 52/12/4 75/13/4 79/14/4
f 25/15/5 49/16/5 1/17/5
f 50/18/6 22/19/6 7/20/6
f 84/21/7 5/22/7 36/23/7
f 10/24/8 85/25/8 34/26/8
f 47/18/9 19/19/9 10/20/9
f 13/24/10 62/25/10 35/26/10
f 46/18/11 21/19/11 13/20/11
f 51/9/12 74/10/12 73/11/12
f 25/27/13 1/28/13 44/29/13
f 64/9/14 54/30/14 77/10/14
f 69/31/15 52/30/15 24/9/15
f 99/18/16 17/19/16 18/20/16
f 23/21/17 16/22/17 53/23/17
f 47/18/18 9/32/18 19/19/18
f 8/22/19 85/21/19 92/33/19
f 43/12/20 51/34/20 73/13/20
f 125/35/21 30/36/21 68/37/21
f 46/18/22 12/32/22 21/19/22
f 11/22/23 62/21/23 66/33/23
f 50/18/24 6/32/24 22/19/24
f 5/22/25 84/21/25 86/33/25
f 23/25/26 18/24/26 17/38/26
f 16/22/27 23/21/27 61/33/27
f 65/12/28 24/34/28 78/13/28
f 24/9/29 52/30/29 79/10/29
f 25/15/30 42/16/30 4/17/30
f 25/27/31 14/28/31 48/29/31
f 115/39/1 105/40/1 111/41/1
f 83/42/32 28/43/32 101/44/32
f 81/45/33 93/46/33 72/47/33
f 125/35/21 15/48/21 30/36/21
f 63/9/34 43/30/34 80/10/34
f 111/41/1 113/40/1 115/39/1
f 110/49/35 81/50/35 72/51/35
f 107/52/36 95/53/36 103/54/36
f 33/55/37 94/56/37 82/57/37
f 39/58/38 41/59/38 107/52/38
f 85/21/39 8/22/39 34/23/39
f 62/21/40 11/22/40 35/23/40
f 7/24/41 84/25/41 36/26/41
f 37/60/42 24/34/42 65/12/42
f 125/35/21 70/35/21 15/48/21
f 71/61/43 38/62/43 100/63/43
f 103/54/44 39/58/44 107/52/44
f 89/64/45 108/65/45 59/66/45
f 40/67/46 94/56/46 33/55/46
f 111/41/47 40/68/47 113/40/47
f 40/69/48 33/70/48 41/59/48
f 40/69/49 41/59/49 96/71/49
f 25/27/50 3/28/50 42/29/50
f 24/9/51 79/10/51 78/11/51
f 15/31/52 43/30/52 63/9/52
f 15/72/53 70/60/53 43/12/53
f 25/15/54 44/16/54 14/17/54
f 43/12/55 73/13/55 80/14/55
f 32/73/56 45/74/56 98/75/56
f 66/76/57 46/77/57 11/78/57
f 92/76/58 47/77/58 8/78/58
f 25/15/59 48/16/59 3/17/59
f 65/12/60 78/13/60 74/14/60
f 25/27/61 4/28/61 49/29/61
f 64/9/62 77/10/62 75/11/62
f 86/76/63 50/77/63 5/78/63
f 70/60/64 51/34/64 43/12/64
f 51/9/65 65/30/65 74/10/65
f 69/72/66 2/60/66 52/12/66
f 52/12/67 64/34/67 75/13/67
f 18/24/68 23/25/68 53/26/68
f 68/72/69 30/60/69 54/12/69
f 54/12/70 63/34/70 76/13/70
f 28/43/71 83/42/71 55/79/71
f 109/80/72 71/81/72 112/82/72
f 114/83/73 57/84/73 97/85/73
f 57/86/74 56/87/74 116/88/74
f 59/66/75 108/65/75 56/87/75
f 87/89/76 88/90/76 90/91/76
f 31/92/77 89/64/77 91/93/77
f 56/87/78 57/86/78 59/66/78
f 57/86/79 90/94/79 59/66/79
f 60/95/80 23/96/80 17/97/80
f 99/18/81 60/32/81 17/19/81
f 60/95/82 61/98/82 23/96/82
f 99/77/83 61/76/83 60/99/83
f 62/25/84 13/24/84 21/38/84
f 12/95/85 62/96/85 21/97/85
f 30/60/86 63/34/86 54/12/86
f 30/100/87 15/31/87 63/9/87
f 2/60/88 64/34/88 52/12/88
f 68/31/89 54/30/89 64/9/89
f 20/31/90 65/30/90 51/9/90
f 20/72/91 37/60/91 65/12/91
f 12/95/92 66/98/92 62/96/92
f 46/77/93 66/76/93 12/99/93
f 102/101/94 110/49/94 67/102/94
f 67/103/95 94/56/95 40/67/95
f 125/35/21 68/37/21 2/104/21
f 2/100/96 68/31/96 64/9/96
f 37/100/97 69/31/97 24/9/97
f 125/35/21 37/105/21 20/106/21
f 125/35/21 20/106/21 70/35/21
f 70/100/98 20/31/98 51/9/98
f 112/82/1 71/81/1 55/107/1
f 71/61/99 100/63/99 55/79/99
f 45/74/100 32/73/100 72/47/100
f 72/47/101 93/46/101 45/74/101
f 80/108/102 73/109/102 14/110/102
f 73/111/103 48/112/103 14/113/103
f 73/111/103 74/109/103 48/112/103
f 74/108/104 3/110/104 48/114/104
f 79/108/105 75/109/105 4/110/105
f 75/111/106 49/112/106 4/113/106
f 77/108/107 76/109/107 1/110/107
f 76/111/108 44/112/108 1/113/108
f 75/111/106 77/109/106 49/112/106
f 77/108/107 1/110/107 49/114/107
f 78/111/109 42/112/109 3/113/109
f 74/108/104 78/109/104 3/110/104
f 78/111/109 79/109/109 42/112/109
f 79/108/105 4/110/105 42/114/105
f 76/111/108 80/109/108 44/112/108
f 80/108/102 14/110/102 44/114/102
f 27/115/110 81/45/110 29/116/110
f 102/68/111 111/41/111 105/40/111
f 26/117/112 33/70/112 82/118/112
f 32/73/113 98/75/113 82/118/113
f 83/42/114 101/44/114 29/116/114
f 81/119/1 106/120/1 29/121/1
f 84/25/115 7/24/115 22/38/115
f 6/95/116 84/96/116 22/97/116
f 85/25/117 10/24/117 19/38/117
f 9/95/118 85/96/118 19/97/118
f 6/95/119 86/98/119 84/96/119
f 50/77/120 86/76/120 6/99/120
f 87/122/121 90/94/121 57/86/121
f 87/123/122 57/84/122 114/83/122
f 96/71/123 58/124/123 88/125/123
f 113/40/124 88/126/124 115/39/124
f 88/125/125 58/124/125 89/64/125
f 89/64/126 58/124/126 91/93/126
f 90/94/127 89/64/127 59/66/127
f 88/125/128 89/64/128 90/94/128
f 58/124/129 39/58/129 91/93/129
f 39/58/130 103/54/130 91/93/130
f 9/95/131 92/98/131 85/96/131
f 47/77/132 92/76/132 9/99/132
f 81/45/133 27/115/133 93/46/133
f 67/103/134 32/127/134 94/56/134
f 94/56/135 32/127/135 82/57/135
f 33/70/136 26/117/136 95/53/136
f 96/71/137 41/59/137 39/58/137
f 96/71/138 39/58/138 58/124/138
f 57/86/139 116/88/139 97/128/139
f 38/62/140 71/61/140 97/128/140
f 82/118/141 98/75/141 26/117/141
f 61/76/142 99/77/142 16/78/142
f 55/79/143 100/63/143 28/43/143
f 29/116/144 101/44/144 27/115/144
f 102/129/145 106/120/145 81/119/145
f 102/101/146 81/50/146 110/49/146
f 91/93/147 103/54/147 31/92/147
f 104/130/148 106/120/148 102/129/148
f 104/131/149 109/80/149 112/82/149
f 102/68/150 105/40/150 104/132/150
f 105/40/151 109/126/151 104/132/151
f 106/120/1 83/133/1 29/121/1
f 104/130/152 83/133/152 106/120/152
f 33/70/153 95/53/153 107/52/153
f 41/59/154 33/70/154 107/52/154
f 89/64/155 31/92/155 108/65/155
f 87/123/156 114/83/156 109/134/156
f 105/40/157 115/39/157 109/126/157
f 67/102/158 110/49/158 32/135/158
f 32/135/159 110/49/159 72/51/159
f 111/41/160 102/68/160 67/136/160
f 40/68/161 111/41/161 67/136/161
f 104/131/162 112/82/162 83/137/162
f 83/137/1 112/82/1 55/107/1
f 113/40/163 40/68/163 96/132/163
f 88/126/164 113/40/164 96/132/164
f 109/134/165 114/83/165 71/138/165
f 71/138/166 114/83/166 97/85/166
f 115/39/167 88/126/167 87/139/167
f 109/126/168 115/39/168 87/139/168
f 97/128/169 116/88/169 38/62/169
f 125/35/21 69/140/21 37/105/21
f 125/35/21 2/141/21 69/140/21
