# Blender v2.75 (sub 0) OBJ File: 'Empty.blend'
# www.blender.org
mtllib DT_BED_V1.mtl
o DT_BED_V1
v -0.977744 -0.199565 -1.280366
v 0.987745 -0.199565 -1.208314
v -0.977744 0.092779 -1.208314
v -0.977744 -0.199565 1.201569
v 0.987745 -0.199565 1.273620
v -0.977744 0.092779 1.273621
v 1.030607 -0.199565 -1.249291
v 1.030607 -0.199565 1.246880
v 0.958555 0.092779 -1.249291
v -1.042374 0.092779 -1.249291
v -0.970322 0.092779 1.246880
v -0.970322 -0.199565 -1.249291
v -1.042374 -0.199565 1.246880
v 0.987745 0.092779 -1.208314
v 0.987745 0.092779 1.273620
v 1.030607 0.092779 1.246880
v -0.910000 0.264025 1.160000
v -0.910000 -0.359034 1.160000
v -1.090000 -0.359034 1.340000
v 1.090000 0.469538 -1.340000
v 1.090000 -0.359034 -1.340000
v 0.910000 -0.359034 -1.160000
v -0.910000 0.469538 -1.340000
v -0.910000 -0.359034 -1.340000
v -1.090000 -0.359034 -1.160000
v 1.090000 0.264025 1.160000
v 1.090000 -0.359034 1.160000
v 0.910000 -0.359034 1.340000
v 1.000000 0.556575 -1.250000
v -1.000000 0.351063 1.250000
v 1.000000 0.351063 1.250000
v -1.000000 0.556575 -1.250000
v -0.910000 -0.359034 1.340000
v 1.090000 -0.359034 -1.160000
v -0.910000 -0.359034 -1.160000
v 1.090000 -0.359034 1.340000
v 0.910000 -0.359034 -1.340000
v -1.090000 -0.359034 -1.340000
v -1.090000 -0.359034 1.160000
v 0.910000 -0.359034 1.160000
v -0.905919 0.030822 -1.149070
v 0.913567 0.030822 -0.698461
v -0.905919 0.030822 -0.698461
v -0.814774 0.143208 -0.812068
v 0.958555 -0.199565 1.246880
v 0.913567 0.030822 -1.149070
v 0.822422 0.143208 -0.812067
v -0.977744 0.092779 -1.280366
v -0.977744 -0.199565 1.273621
v -0.977744 0.092779 1.201569
v -0.977744 -0.199565 -1.208314
v 0.987745 -0.199565 -1.280366
v 0.987745 0.092779 -1.280366
v 1.030607 0.092779 -1.249291
v 0.958555 0.092779 1.246880
v -0.970322 0.092779 -1.249291
v -1.042374 0.092779 1.246880
v -0.970322 -0.199565 1.246880
v 0.987745 -0.199565 1.201569
v 0.987745 0.092779 1.201569
v 0.958555 -0.199565 -1.249291
v -1.042374 -0.199565 -1.249291
v 0.913567 0.030822 1.133418
v -0.905919 0.030822 1.133418
v 0.822422 0.143208 1.019743
v -0.814774 0.143208 1.019743
v -0.814774 0.143208 -1.035395
v -0.814774 0.143208 -0.584785
v 0.822422 0.143208 -1.035395
v 0.822422 0.143208 -0.584785
v 1.090000 0.469538 -1.160000
v 1.090000 0.264025 1.340000
v -0.910000 0.469538 -1.160000
v -0.910000 0.264025 1.340000
v -1.090000 0.469538 -1.340000
v -1.090000 0.264025 1.160000
v 0.910000 0.469538 -1.340000
v 0.910000 0.264025 1.160000
v -1.090000 0.469538 -1.160000
v -1.090000 0.264025 1.340000
v 0.910000 0.469538 -1.160000
v 0.910000 0.264025 1.340000
v 1.037549 -0.092700 -1.381672
v 1.037549 0.031140 -1.336712
v 0.965498 0.031140 -1.336712
v 1.037549 0.012816 -1.381672
v 0.962550 -0.092700 1.382253
v 0.962550 0.031140 1.337294
v 1.034601 0.031140 1.337294
v 0.962550 0.012816 1.382253
v -0.970322 -0.092700 1.382253
v -1.042374 0.031140 1.337294
v -0.970322 0.031140 1.337294
v -0.970322 0.012816 1.382253
v -1.039425 -0.092700 -1.381671
v -0.967374 0.031140 -1.336712
v -1.039425 0.031140 -1.336712
v -1.039425 0.012816 -1.381671
v 0.965498 -0.092700 -1.381672
v 0.965498 0.012816 -1.381672
v -1.042374 -0.092700 1.382253
v -1.042374 0.012816 1.382253
v -0.967374 -0.092700 -1.381671
v -0.967374 0.012816 -1.381671
v 1.034601 -0.092700 1.382253
v 1.034601 0.012816 1.382253
v 1.050279 0.197015 1.199721
v -0.949721 0.197015 1.199721
v -1.050279 0.197014 1.300279
v 0.949720 0.197014 1.300279
v 1.050279 0.402527 -1.300279
v -0.949721 0.402527 -1.300279
v -1.050279 0.402527 -1.199721
v 0.949720 0.402527 -1.199721
v -1.050279 0.402527 -1.300279
v -1.090000 0.344698 -1.340000
v -1.050279 0.197015 1.199721
v -1.090000 0.139185 1.160000
v 0.949720 0.402527 -1.300279
v 0.910000 0.344698 -1.340000
v 0.949720 0.197015 1.199721
v 0.910000 0.139185 1.160000
v 1.050279 0.197014 1.300279
v -0.949721 0.197014 1.300279
v 1.050279 0.402527 -1.199721
v -0.949721 0.402527 -1.199721
v 1.090000 0.344698 -1.340000
v 1.090000 0.139185 1.160000
v 1.090000 0.139185 1.340000
v 1.090000 0.344698 -1.160000
v -0.910000 0.344698 -1.340000
v -0.910000 0.139185 1.160000
v -0.910000 0.139185 1.340000
v -0.910000 0.344698 -1.160000
v -1.090000 0.139185 1.340000
v -1.090000 0.344698 -1.160000
v 0.910000 0.344698 -1.160000
v 0.910000 0.139185 1.340000
v -0.967374 -0.107746 -1.336712
v -1.039425 -0.107746 -1.336712
v 1.037549 -0.107746 -1.336712
v 0.965498 -0.107746 -1.336712
v 0.962550 -0.107746 1.337294
v 1.034601 -0.107746 1.337294
v -1.042374 -0.107746 1.337294
v -0.970322 -0.107746 1.337294
v -0.970185 0.036006 1.202063
v -0.970185 0.036006 -1.204471
v 0.964832 0.036006 -1.204474
v 0.964832 0.036006 1.202060
vt 0.949457 -0.050253
vt 0.050544 -0.050253
vt 0.050544 -0.147999
vt 0.949456 -0.147999
vt 0.000500 -0.197752
vt 0.000500 -0.000499
vt 0.000500 -0.197722
vt 0.999500 -0.197753
vt 0.999500 -0.197723
vt 0.050543 -0.949747
vt 0.949456 -0.949747
vt 0.949456 -0.247476
vt 0.050544 -0.247476
vt 0.000500 -0.999500
vt 0.999500 -0.999501
vt 0.999500 -0.000500
vt 0.010079 -0.007746
vt 0.010079 -0.999500
vt 0.989921 -0.999500
vt 0.989921 -0.007746
vt 0.999500 -0.363151
vt 0.000499 -0.363151
vt 0.000499 -0.636849
vt 0.999500 -0.636849
vt 0.947566 -0.239799
vt 0.947566 -0.034299
vt 0.334030 -0.034299
vt 0.947566 -0.242447
vt 0.947566 -0.036947
vt 0.334030 -0.036947
vt 0.334030 -0.239799
vt 0.334030 -0.038174
vt 0.334030 -0.243674
vt 0.947566 -0.243674
vt 0.334030 -0.242447
vt 0.334030 -0.040233
vt 0.334030 -0.245733
vt 0.947566 -0.245733
vt 0.947566 -0.040233
vt 0.947566 -0.038174
vt 0.010079 -0.894219
vt 0.989921 -0.894220
vt 0.162999 -0.243674
vt 0.162999 -0.038174
vt 0.043758 -0.140924
vt 0.162999 -0.245734
vt 0.162999 -0.040234
vt 0.043758 -0.142984
vt 0.162999 -0.242447
vt 0.162999 -0.036948
vt 0.043758 -0.139697
vt 0.162999 -0.239799
vt 0.162999 -0.034299
vt 0.043758 -0.137049
vt 0.710760 -0.442258
vt 0.289240 -0.442258
vt 0.289240 -0.557742
vt 0.254804 -0.200386
vt 0.254804 -0.085582
vt 0.254804 -0.194450
vt 0.254804 -0.197099
vt 0.254804 -0.198326
vt 0.254804 -0.083521
vt 0.254804 -0.082295
vt 0.254804 -0.079647
vt 0.710760 -0.557742
vn 0.000000 1.000000 0.000000
vn -0.000000 0.710900 0.703300
vn -0.776700 0.629900 0.000000
vn 0.776700 0.629900 0.000000
vn 0.000000 0.711100 0.703100
vn 0.000000 0.711100 -0.703100
vn 0.000000 0.000000 1.000000
vn 0.000000 0.000000 -1.000000
vn -1.000000 0.000000 0.000000
vn 1.000000 0.000000 0.000000
vn 0.695200 0.718800 0.000000
vn 0.000000 0.718800 -0.695200
vn 0.000000 0.718800 0.695200
vn -0.695200 0.718800 0.000000
vn 0.000000 0.926000 -0.377400
vn -0.000000 0.926000 0.377400
vn 0.860200 -0.509900 -0.000000
vn 0.000000 -0.509900 -0.860200
vn 0.000000 -0.509900 0.860200
vn -0.860200 -0.509900 -0.000000
vn 0.000000 0.566200 -0.824300
vn -0.824300 0.566200 0.000000
vn 0.824300 0.566200 0.000000
vn 0.000000 0.566200 0.824300
usemtl DT_BED_V1_2
s off
f 69/1/1 67/2/1 44/3/1
f 47/4/2 44/3/2 43/5/2
f 41/6/3 43/7/3 44/3/3
f 44/3/1 47/4/1 69/1/1
f 43/5/2 42/8/2 47/4/2
f 69/1/4 47/4/4 42/9/4
f 66/10/1 65/11/1 70/12/1
f 70/12/1 68/13/1 66/10/1
f 64/14/5 63/15/5 65/11/5
f 70/12/4 65/11/4 63/15/4
f 65/11/5 66/10/5 64/14/5
f 43/7/3 64/14/3 66/10/3
f 46/16/6 41/6/6 67/2/6
f 44/3/3 67/2/3 41/6/3
f 42/9/6 43/7/6 68/13/6
f 66/10/3 68/13/3 43/7/3
f 42/9/4 46/16/4 69/1/4
f 67/2/6 69/1/6 46/16/6
f 63/15/4 42/9/4 70/12/4
f 68/13/6 70/12/6 42/9/6
f 148/17/1 147/18/1 150/19/1
f 150/19/1 149/20/1 148/17/1
usemtl DT_BED_V1_1
f 14/21/7 3/22/7 51/23/7
f 52/23/8 1/24/8 48/21/8
f 15/21/7 6/22/7 49/23/7
f 59/23/8 4/24/8 50/21/8
f 55/21/9 9/22/9 61/23/9
f 8/23/10 7/24/10 54/21/10
f 58/23/10 12/24/10 56/21/10
f 57/21/9 10/22/9 62/23/9
f 62/23/9 13/24/9 57/21/9
f 56/21/10 11/22/10 58/23/10
f 51/23/7 2/24/7 14/21/7
f 48/21/8 53/22/8 52/23/8
f 49/23/7 5/24/7 15/21/7
f 50/21/8 60/22/8 59/23/8
f 54/21/10 16/22/10 8/23/10
f 61/23/9 45/24/9 55/21/9
f 19/25/7 33/26/7 133/27/7
f 18/28/8 39/29/8 118/30/8
f 22/28/7 34/29/7 130/30/7
f 21/25/8 37/26/8 120/27/8
f 25/25/7 35/26/7 134/27/7
f 24/28/8 38/29/8 116/30/8
f 28/28/7 36/29/7 129/30/7
f 27/25/8 40/26/8 122/27/8
f 120/27/8 127/31/8 21/25/8
f 127/32/10 130/33/10 34/34/10
f 118/30/8 132/35/8 18/28/8
f 132/36/10 133/37/10 33/38/10
f 122/27/8 128/31/8 27/25/8
f 128/36/10 129/37/10 36/38/10
f 116/30/8 131/35/8 24/28/8
f 131/32/10 134/33/10 35/34/10
f 33/38/10 18/39/10 132/36/10
f 34/34/10 21/40/10 127/32/10
f 35/34/10 24/40/10 131/32/10
f 36/38/10 27/39/10 128/36/10
f 37/38/9 22/39/9 137/36/9
f 38/38/9 25/39/9 136/36/9
f 39/34/9 19/40/9 135/32/9
f 40/34/9 28/40/9 138/32/9
f 45/23/7 8/24/7 16/21/7
f 48/41/1 3/18/1 14/19/1
f 3/21/9 48/22/9 1/23/9
f 4/23/9 49/24/9 6/21/9
f 50/41/1 6/18/1 15/19/1
f 6/21/9 50/22/9 4/23/9
f 1/23/9 51/24/9 3/21/9
f 2/23/10 52/24/10 53/21/10
f 14/19/1 53/42/1 48/41/1
f 53/21/10 14/22/10 2/23/10
f 54/41/1 9/18/1 55/19/1
f 9/21/8 54/22/8 7/23/8
f 55/19/1 16/42/1 54/41/1
f 16/21/7 55/22/7 45/23/7
f 56/41/1 10/18/1 57/19/1
f 10/21/8 56/22/8 12/23/8
f 57/19/1 11/42/1 56/41/1
f 11/21/7 57/22/7 13/23/7
f 13/23/7 58/24/7 11/21/7
f 5/23/10 59/24/10 60/21/10
f 15/19/1 60/42/1 50/41/1
f 60/21/10 15/22/10 5/23/10
f 7/23/8 61/24/8 9/21/8
f 12/23/8 62/24/8 10/21/8
f 71/43/11 20/44/11 29/45/11
f 130/30/7 137/35/7 22/28/7
f 72/46/11 26/47/11 31/48/11
f 129/30/7 138/35/7 28/28/7
f 73/43/11 23/44/11 32/45/11
f 134/27/7 136/31/7 25/25/7
f 74/46/11 17/47/11 30/48/11
f 133/27/7 135/31/7 19/25/7
f 23/49/12 75/50/12 32/51/12
f 136/36/9 116/37/9 38/38/9
f 17/49/12 76/50/12 30/51/12
f 135/32/9 118/33/9 39/34/9
f 20/52/12 77/53/12 29/54/12
f 137/36/9 120/37/9 37/38/9
f 26/52/12 78/53/12 31/54/12
f 138/32/9 122/33/9 40/34/9
f 79/52/13 73/53/13 32/54/13
f 75/46/14 79/47/14 32/48/14
f 80/52/13 74/53/13 30/54/13
f 76/43/14 80/44/14 30/45/14
f 81/49/13 71/50/13 29/51/13
f 77/46/14 81/47/14 29/48/14
f 82/49/13 72/50/13 31/51/13
f 78/43/14 82/44/14 31/45/14
f 100/21/8 86/22/8 83/23/8
f 85/41/15 84/18/15 86/19/15
f 86/55/10 84/56/10 141/57/10
f 106/21/7 90/22/7 87/23/7
f 89/41/16 88/18/16 90/19/16
f 90/55/9 88/56/9 143/57/9
f 94/21/7 102/22/7 101/23/7
f 102/19/16 94/42/16 93/41/16
f 93/55/10 94/56/10 91/57/10
f 98/21/8 104/22/8 103/23/8
f 104/19/15 98/42/15 97/41/15
f 97/55/9 98/56/9 95/57/9
f 83/23/8 99/24/8 100/21/8
f 86/19/15 100/42/15 85/41/15
f 85/55/9 100/56/9 99/57/9
f 101/23/7 91/24/7 94/21/7
f 93/41/16 92/18/16 102/19/16
f 102/55/9 92/56/9 145/57/9
f 103/23/8 95/24/8 98/21/8
f 97/41/15 96/18/15 104/19/15
f 104/55/10 96/56/10 139/57/10
f 87/23/7 105/24/7 106/21/7
f 90/19/16 106/42/16 89/41/16
f 89/55/10 106/56/10 105/57/10
f 123/58/17 107/59/17 26/47/17
f 78/53/18 26/52/18 107/60/18
f 124/58/17 108/59/17 17/47/17
f 76/50/18 17/49/18 108/61/18
f 74/53/19 80/52/19 109/60/19
f 117/62/20 109/63/20 80/44/20
f 72/50/19 82/49/19 110/61/19
f 121/62/20 110/63/20 82/44/20
f 125/62/17 111/63/17 20/44/17
f 77/53/18 20/52/18 111/60/18
f 126/62/17 112/63/17 23/44/17
f 75/50/18 23/49/18 112/61/18
f 73/53/19 79/52/19 113/60/19
f 115/58/20 113/59/20 79/47/20
f 71/50/19 81/49/19 114/61/19
f 119/58/20 114/59/20 81/47/20
f 112/61/18 115/64/18 75/50/18
f 79/47/20 75/46/20 115/58/20
f 131/35/21 116/30/21 115/64/21
f 113/59/22 115/58/22 116/37/22
f 108/61/18 117/64/18 76/50/18
f 80/44/20 76/43/20 117/62/20
f 132/35/21 118/30/21 117/64/21
f 109/63/22 117/62/22 118/33/22
f 111/60/18 119/65/18 77/53/18
f 81/47/20 77/46/20 119/58/20
f 127/31/21 120/27/21 119/65/21
f 114/59/22 119/58/22 120/37/22
f 107/60/18 121/65/18 78/53/18
f 82/44/20 78/43/20 121/62/20
f 128/31/21 122/27/21 121/65/21
f 110/63/22 121/62/22 122/33/22
f 110/61/19 123/64/19 72/50/19
f 26/47/17 72/46/17 123/58/17
f 109/60/19 124/65/19 74/53/19
f 17/47/17 74/46/17 124/58/17
f 114/61/19 125/64/19 71/50/19
f 20/44/17 71/43/17 125/62/17
f 113/60/19 126/65/19 73/53/19
f 23/44/17 73/43/17 126/62/17
f 130/33/23 127/32/23 111/63/23
f 119/65/21 111/60/21 127/31/21
f 129/37/23 128/36/23 107/59/23
f 121/65/21 107/60/21 128/31/21
f 138/35/24 129/30/24 123/64/24
f 107/59/23 123/58/23 129/37/23
f 137/35/24 130/30/24 125/64/24
f 111/63/23 125/62/23 130/33/23
f 134/33/23 131/32/23 112/63/23
f 115/64/21 112/61/21 131/35/21
f 133/37/23 132/36/23 108/59/23
f 117/64/21 108/61/21 132/35/21
f 135/31/24 133/27/24 124/65/24
f 108/59/23 124/58/23 133/37/23
f 136/31/24 134/27/24 126/65/24
f 112/63/23 126/62/23 134/33/23
f 124/65/24 109/60/24 135/31/24
f 118/33/22 135/32/22 109/63/22
f 126/65/24 113/60/24 136/31/24
f 116/37/22 136/36/22 113/59/22
f 125/64/24 114/61/24 137/35/24
f 120/37/22 137/36/22 114/59/22
f 123/64/24 110/61/24 138/35/24
f 122/33/22 138/32/22 110/63/22
f 139/57/10 103/66/10 104/55/10
f 95/57/9 140/66/9 97/55/9
f 141/57/10 83/66/10 86/55/10
f 99/57/9 142/66/9 85/55/9
f 143/57/9 87/66/9 90/55/9
f 105/57/10 144/66/10 89/55/10
f 145/57/9 101/66/9 102/55/9
f 91/57/10 146/66/10 93/55/10
