# Blender v2.75 (sub 0) OBJ File: 'Empty.blend'
# www.blender.org
mtllib DT_TABLE_01.mtl
o DT_TABLE_01
v -0.742462 0.405556 -0.742462
v 0.742462 0.305557 0.742462
v 0.742462 0.405556 -0.742462
v -0.742462 0.305557 0.742462
v 0.000000 0.305556 1.050000
v -1.050000 0.305557 0.000000
v 1.050000 0.305557 0.000000
v -0.077845 -0.242455 -0.000000
v 0.490000 -0.387631 -0.000000
v -0.490000 -0.387631 0.000000
v -0.074654 0.310097 0.129305
v 0.074654 0.310097 -0.129305
v 0.077845 -0.242455 -0.000000
v -0.149308 0.310097 0.000000
v 0.149308 0.310097 -0.000000
v -0.742462 0.405557 0.742462
v 0.000000 0.405556 1.050000
v 0.742462 0.405557 0.742462
v -1.050000 0.405557 0.000000
v 1.050000 0.405557 0.000000
v -0.000000 0.305557 -1.050000
v 0.742462 0.305557 -0.742462
v -0.000000 0.405556 -1.050000
v -0.742462 0.305557 -0.742462
v -0.245000 -0.387631 -0.424352
v 0.245000 -0.387631 0.424352
v -0.038922 -0.242455 -0.067415
v 0.038922 -0.242455 0.067415
v -0.074654 0.310097 -0.129305
v 0.074654 0.310097 0.129305
v 0.245000 -0.387631 -0.424352
v 0.239336 -0.316277 -0.414542
v 0.478672 -0.316277 -0.000000
v -0.245000 -0.387631 0.424352
v -0.239336 -0.316277 0.414542
v -0.478672 -0.316277 0.000000
v -0.239336 -0.316277 -0.414542
v 0.239336 -0.316277 0.414542
v 0.038922 -0.242455 -0.067415
v -0.038922 -0.242455 0.067415
v 0.000000 0.405556 0.000000
v 0.000000 0.305556 0.000000
vt 0.500000 -0.500000
vt -0.256824 -0.186513
vt -0.256824 -0.813487
vt 0.813487 0.256824
vt 1.256824 -0.186513
vt 0.813487 -1.256824
vt 0.186513 -1.256824
vt 1.256824 -0.813487
vt 0.242342 -0.054211
vt 0.009621 -0.053988
vt 0.106585 -0.959663
vt 0.241211 -0.052674
vt 0.009621 -0.052674
vt 0.106585 -0.958349
vt 0.222531 -0.903122
vt 0.018100 0.622795
vt 0.222519 0.622795
vt 0.017962 0.622795
vt 0.222878 -2.264240
vt 0.017950 -0.903122
vt 0.222659 -0.903122
vt 0.145044 -0.958126
vt 0.018120 -0.903122
vt 0.222703 0.622795
vt 0.186513 0.256824
vt 0.241210 -0.053988
vt 0.011354 -0.054211
vt 0.107698 -0.953171
vt 0.018010 -2.264240
vt 0.144247 -0.958349
vt 0.144247 -0.959663
vt 0.222473 -2.264240
vt 0.975777 -0.004124
vt 0.975777 -2.210825
vt 0.058928 -2.210825
vt 0.058927 -0.006356
vt 0.975777 -0.006356
vt 0.058928 -2.210567
vt 0.975777 -2.210567
vt 0.058928 -0.005934
vt 0.058928 -0.004124
vt 0.975777 -0.005934
vt 0.968484 -0.005190
vt 0.968484 -2.209526
vt 0.069878 -2.210670
vt 0.069878 -0.003988
vt 0.069878 -0.007478
vt 0.968484 -2.212380
vt 0.968484 -0.005132
vt 0.069878 -2.210092
vn 0.000000 1.000000 -0.000000
vn 0.000000 -1.000000 0.000000
vn -0.180100 0.978100 0.104000
vn 0.000000 0.978100 -0.208000
vn -0.860600 -0.111300 -0.496900
vn 0.000000 -0.111300 0.993800
vn 0.180100 0.978100 -0.104000
vn 0.860600 -0.111300 -0.496900
vn -0.860600 -0.111300 0.496900
vn -0.180100 0.978100 -0.104000
vn 0.180100 0.978100 0.104000
vn 0.860600 -0.111300 0.496900
vn -0.000000 -0.111300 -0.993800
vn 0.000000 0.978100 0.208000
vn -0.923900 0.000000 0.382700
vn -0.382700 0.000000 0.923900
vn 0.382700 0.000000 0.923900
vn 0.923900 0.000000 0.382700
vn -0.923900 0.000000 -0.382700
vn 0.923900 0.000000 -0.382700
vn 0.382700 0.000000 -0.923900
vn -0.382700 0.000000 -0.923900
vn 0.858000 0.136200 -0.495300
vn 0.000000 0.136200 -0.990700
vn 0.858000 0.136200 0.495300
vn -0.858000 0.136200 0.495300
vn 0.000000 0.136200 0.990700
vn -0.858000 0.136200 -0.495300
usemtl DT_TABLE_01_2
s off
f 41/1/1 1/2/1 19/3/1
f 42/1/2 22/4/2 7/5/2
f 42/1/2 5/6/2 4/7/2
f 41/1/1 16/7/1 17/6/1
f 42/1/2 2/8/2 5/6/2
f 41/1/1 17/6/1 18/8/1
f 42/1/2 4/7/2 6/3/2
f 41/1/1 19/3/1 16/7/1
f 42/1/2 7/5/2 2/8/2
f 41/1/1 18/8/1 20/5/1
f 36/9/3 35/10/3 40/11/3
f 32/12/4 37/13/4 27/14/4
f 27/15/5 14/16/5 29/17/5
f 40/15/6 30/18/6 11/17/6
f 33/19/7 39/20/7 13/21/7
f 13/21/8 39/20/8 12/18/8
f 36/9/3 40/11/3 8/22/3
f 8/23/9 40/15/9 11/17/9
f 8/23/9 11/17/9 14/16/9
f 13/21/8 12/18/8 15/24/8
f 42/1/2 6/3/2 24/2/2
f 41/1/1 23/25/1 1/2/1
f 37/13/10 36/9/10 8/22/10
f 38/26/11 33/27/11 13/28/11
f 37/13/10 8/22/10 27/14/10
f 27/15/5 8/23/5 14/16/5
f 38/29/11 13/21/11 28/20/11
f 28/20/12 13/21/12 15/24/12
f 39/20/13 29/17/13 12/18/13
f 28/20/12 15/24/12 30/18/12
f 33/27/7 32/12/7 39/30/7
f 35/10/14 38/26/14 28/31/14
f 32/12/4 27/14/4 39/30/4
f 39/20/13 27/15/13 29/17/13
f 35/32/14 28/20/14 40/15/14
f 40/15/6 28/20/6 30/18/6
f 41/1/1 20/5/1 3/4/1
f 41/1/1 3/4/1 23/25/1
f 42/1/2 21/25/2 22/4/2
f 42/1/2 24/2/2 21/25/2
usemtl DT_TABLE_01_1
f 6/33/15 4/34/15 16/35/15
f 4/34/16 17/36/16 16/35/16
f 4/34/16 5/37/16 17/36/16
f 5/37/17 18/38/17 17/36/17
f 5/37/17 2/39/17 18/38/17
f 2/39/18 20/40/18 18/38/18
f 24/34/19 6/33/19 19/41/19
f 6/33/15 16/35/15 19/41/15
f 7/42/20 3/38/20 20/40/20
f 2/39/18 7/42/18 20/40/18
f 7/42/20 22/39/20 3/38/20
f 22/39/21 23/36/21 3/38/21
f 22/39/21 21/37/21 23/36/21
f 21/37/22 1/35/22 23/36/22
f 21/37/22 24/34/22 1/35/22
f 24/34/19 19/41/19 1/35/19
f 9/43/23 31/44/23 32/45/23
f 31/44/24 37/46/24 32/45/24
f 9/43/23 32/45/23 33/47/23
f 26/44/25 9/43/25 33/47/25
f 10/48/26 34/49/26 35/46/26
f 34/49/27 38/45/27 35/46/27
f 25/49/28 10/48/28 36/50/28
f 10/48/26 35/46/26 36/50/26
f 31/44/24 25/49/24 37/46/24
f 25/49/28 36/50/28 37/46/28
f 34/49/27 26/44/27 38/45/27
f 26/44/25 33/47/25 38/45/25
