# Blender v2.75 (sub 0) OBJ File: 'Empty.blend'
# www.blender.org
mtllib EBRM.mtl
o EBRM
v 0.039270 0.097430 -0.529817
v 0.253896 0.058199 -0.030921
v -0.424612 0.075703 -0.309139
v -0.209985 0.036472 0.189758
v 0.325386 0.093935 0.064317
v -0.006021 0.093935 0.529817
v -0.101314 0.046020 -0.134480
v -0.327022 0.046020 0.259309
v 0.424612 0.102104 -0.069485
v 0.412737 0.102104 0.273913
v 0.095651 0.102104 -0.108828
v 0.005447 0.067130 0.184004
v 0.239280 0.200826 -0.135079
v 0.198622 0.464016 -0.146719
v 0.247478 0.207743 -0.374746
v 0.298732 0.209220 -0.138551
v 0.306407 0.527680 -0.140628
v 0.298082 0.221707 -0.378132
v 0.162175 0.505331 -0.358676
v 0.337822 0.543754 -0.356767
v 0.260243 0.090442 -0.063590
v 0.304737 0.113738 -0.369998
v 0.333915 0.235124 -0.196406
v 0.287317 0.088606 -0.055656
v 0.251986 0.099898 -0.363930
v 0.203721 0.221477 -0.194788
v -0.037897 0.180555 -0.386064
v -0.163578 0.115072 -0.327458
v -0.209734 0.202192 -0.441025
v -0.286465 0.165990 -0.270154
v -0.338905 0.195024 -0.346153
v -0.069460 0.209589 -0.468334
v 0.128436 0.187186 -0.265495
v 0.414814 0.210914 -0.265055
v 0.174448 0.057110 -0.100122
v 0.377289 0.072278 -0.104564
v 0.027422 0.200105 -0.487227
v -0.397488 0.169014 -0.286778
v 0.199768 0.192195 -0.118143
v 0.326271 0.239385 -0.340118
v 0.390717 0.224134 -0.291575
v 0.216188 0.223190 -0.338215
v 0.151964 0.202282 -0.291520
v 0.086656 0.467544 -0.304991
v 0.387331 0.523625 -0.136481
v 0.121720 0.438174 -0.145991
v 0.418769 0.536191 -0.298429
v 0.219640 0.511120 -0.304152
v 0.300245 0.222666 -0.258317
v 0.279054 0.542470 -0.303351
v 0.240055 0.227811 -0.263422
v 0.270538 0.222803 -0.284933
v 0.270475 0.231810 -0.288909
v 0.170200 0.423252 -0.257277
v -0.327022 0.093935 0.259309
v -0.101314 0.093935 -0.134480
v 0.325386 0.046020 0.064317
v -0.006021 0.046020 0.529817
v 0.340675 0.484071 -0.251470
v -0.221943 0.133349 0.082474
v 0.019815 0.182836 0.042187
v 0.237206 0.118859 -0.051932
v 0.306682 0.125715 -0.057311
v 0.095651 0.067130 -0.108828
v 0.005447 0.102104 0.184004
v 0.424612 0.067130 -0.069485
v 0.412737 0.067130 0.273913
v 0.362924 0.081987 -0.336964
v 0.196302 0.062896 -0.332069
v 0.194622 0.201029 -0.376997
v 0.351399 0.220687 -0.378579
v -0.386352 0.058972 -0.094895
v 0.190810 0.189981 -0.138471
v 0.348171 0.203659 -0.140397
v 0.065659 0.048452 0.133350
v -0.102364 0.137439 -0.203824
v -0.330377 0.189145 -0.112531
v 0.112857 0.220919 -0.304265
vt 0.115297 -0.139039
vt 0.448335 -0.212985
vt 0.114504 -0.032917
vt 0.451200 -0.360978
vt 0.079626 -0.349384
vt 0.254522 -0.455041
vt 0.305284 -0.030759
vt 0.444825 -0.461687
vt 0.444812 -0.566775
vt 0.384062 -0.658446
vt 0.384062 -0.997144
vt 0.655014 -0.997144
vt 0.027904 -0.976705
vt 0.320694 -0.975133
vt 0.320694 -0.658446
vt 0.655014 -0.658446
vt 0.027904 -0.660018
vt 0.540008 -0.384918
vt 0.749143 -0.383346
vt 0.749143 -0.066659
vt 0.794406 -0.066659
vt 0.794406 -0.405356
vt 0.987943 -0.405356
vt 0.987943 -0.066659
vt 0.540008 -0.068231
vt 0.632486 -0.518615
vt 0.526705 -0.519338
vt 0.632940 -0.626690
vt 0.632714 -0.518601
vt 0.633211 -0.626823
vt 0.734519 -0.518507
vt 0.734741 -0.518462
vt 0.733910 -0.596704
vt 0.734368 -0.597390
vt 0.526772 -0.596166
vt 0.452385 -0.153838
vt 0.114807 -0.151708
vt 0.460909 -0.273255
vt 0.499201 -0.397416
vt 0.452185 -0.361756
vt 0.492014 -0.698032
vt 0.101137 -0.275019
vt -0.001370 -0.460843
vt 0.070703 -0.558300
vt 0.070833 -0.462943
vt 0.446594 -0.564687
vt 0.446160 -0.463095
vt 0.253982 -0.561692
vt 0.004641 -0.710834
vt 0.253212 -0.737017
vt 0.432291 -0.758508
vt 0.434776 -0.987061
vt 0.532185 -0.986453
vt 0.021177 -0.994218
vt 0.023941 -0.659414
vt 0.006916 -0.657841
vt 0.302554 -0.999893
vt 0.299791 -0.665088
vt 0.338653 -0.665088
vt 0.529700 -0.757901
vt 0.014090 -0.998444
vt 0.320694 -0.996872
vt 0.323457 -0.973185
vt 0.341417 -0.999893
vt 0.016853 -0.974757
vt 0.004153 -0.992646
vt 0.070633 -0.556213
vt 0.254069 -0.561612
vt 0.445510 -0.566296
vt 0.828855 -0.166721
vt 0.830630 -0.395273
vt 0.900208 -0.394666
vt 0.535203 -0.402431
vt 0.537176 -0.067626
vt 0.525016 -0.066054
vt 0.751117 -0.381397
vt 0.532113 -0.382970
vt 0.530140 -0.406657
vt 0.523042 -0.400859
vt 0.736186 -0.408105
vt 0.734212 -0.073300
vt 0.761971 -0.073300
vt 0.898433 -0.166114
vt 0.749143 -0.405085
vt 0.763945 -0.408105
vt 0.010136 -0.398168
vt 0.115886 -0.217954
vt 0.492558 -0.701564
vt 0.446953 -0.027948
vt 0.069486 -0.457752
vt 0.077349 -0.348590
vt 0.916695 -0.562720
vt 0.638563 -0.765676
vt 0.942597 -0.766580
vt 0.637873 -0.562809
vt 0.731360 -0.766598
vt 0.638581 -0.766908
vt 0.911385 -0.561630
vt 0.944847 -0.766580
vt 0.643179 -0.765676
vt 0.634732 -0.561720
vt 0.643197 -0.766908
vt 0.735253 -0.766598
vt 0.634656 -0.562934
vt 0.780775 -0.562805
vt 0.631541 -0.561845
vt 0.776522 -0.561716
vt 0.360222 -0.887786
vt 0.806591 -0.779677
vt 0.233405 -0.846957
vt 0.805861 -0.998549
vt 0.233604 -0.924850
vt 0.362768 -0.885370
vt 0.234956 -0.844542
vt 0.812637 -0.777261
vt 0.811901 -0.996134
vt 0.235156 -0.922434
vt 0.760112 -0.766257
vt 0.723501 -0.766780
vt 0.575033 -0.763409
vt 0.763782 -0.766257
vt 0.727455 -0.766780
vt 0.580143 -0.763409
vt 0.836149 -0.980095
vt 0.965719 -0.793343
vt 0.853048 -0.803657
vt 0.777280 -0.905273
vt 0.829920 -0.982511
vt 0.846687 -0.806072
vt 0.958482 -0.795759
vt 0.771509 -0.907688
vt 0.006167 -0.883728
vt 0.006966 -0.780428
vt 0.079746 -0.881642
vt 0.005936 -0.881313
vt 0.006741 -0.778013
vt 0.080092 -0.879226
vt 0.832227 -0.562720
vt 0.310656 -0.561620
vt 0.251106 -0.600824
vt 0.190809 -0.561850
vt 0.569918 -0.766704
vt 0.561453 -0.561809
vt 0.250375 -0.600664
vt 0.191104 -0.562068
vt 0.310452 -0.561608
vt 0.564019 -0.562898
vt 0.564728 -0.766704
vt 0.190857 -0.561904
vt 0.310592 -0.561669
vt 0.250942 -0.600824
vt 0.190932 -0.561807
vt 0.827574 -0.561630
vt 0.836757 -0.766154
vt 0.942527 -0.766588
vt 0.839831 -0.766154
vt 0.310996 -0.562042
vt 0.190837 -0.561885
vt 0.310667 -0.561742
vt 0.250981 -0.600824
vt 0.191024 -0.561863
vt 0.884793 -0.999802
vt 0.891453 -0.997387
vn 0.005900 -0.996600 -0.082400
vn 0.038600 0.971800 0.232600
vn 0.028000 -0.996800 -0.074700
vn -0.242600 0.935300 0.257600
vn 0.000000 -1.000000 -0.000000
vn -0.000000 1.000000 0.000000
vn -0.072100 -0.805300 -0.588500
vn 0.072100 0.805300 0.588500
vn -0.317000 -0.810300 -0.492800
vn 0.317000 0.810300 0.492800
vn 0.408100 0.910500 0.066200
vn -0.408100 -0.910500 -0.066200
vn -0.264000 0.873300 0.409500
vn 0.264000 -0.873300 -0.409500
vn -0.420700 0.305800 -0.854100
vn 0.895400 0.254800 -0.365200
vn -0.422800 0.325600 -0.845700
vn -0.750500 0.394500 0.530200
vn 0.907300 0.100900 -0.408100
vn 0.137600 0.587800 0.797200
vn -0.867600 0.000000 -0.497300
vn -0.644400 -0.000000 0.764700
vn 0.422300 0.000000 -0.906500
vn 0.814600 -0.000000 0.580000
vn -0.739800 0.456300 0.494500
vn -0.039400 0.739400 0.672100
vn -0.147500 0.983100 -0.108200
vn 0.517600 0.594200 0.615600
vn 0.118800 -0.000000 -0.992900
vn -0.955700 -0.000000 -0.294400
vn -0.215600 0.000000 0.976500
vn 0.999400 -0.000000 0.034600
vn -0.892000 0.409500 0.191300
vn 0.008900 -0.996800 -0.079400
vn 0.505600 0.604800 0.615300
vn -0.012200 -0.997200 -0.073200
vn 0.266800 0.955600 0.125100
vn -0.211900 0.974400 -0.074600
vn -0.923600 0.188400 0.333900
vn 0.152200 0.973400 -0.171100
vn 0.901600 0.062300 -0.428100
vn -0.340000 0.939000 0.051900
vn 0.830700 0.306000 0.465100
vn -0.871700 -0.229500 0.433100
vn -0.882900 0.165200 0.439500
vn 0.878900 -0.113200 0.463300
vn 0.971500 0.157900 0.176900
vn -0.974100 -0.118000 0.193000
vn -0.985500 0.024800 0.167900
vn 0.981500 0.007700 0.191100
vn 0.789800 0.447100 0.419800
vn -0.616200 0.679400 0.398300
vn -0.847700 0.369900 0.380200
vn 0.525700 0.750400 0.400700
vn -0.832100 -0.197000 -0.518400
vn 0.133400 -0.990100 -0.043700
vn 0.869200 -0.060900 -0.490800
vn -0.025400 -0.997100 -0.071600
vn 0.268300 -0.963300 0.001200
vn -0.774500 0.413600 0.478700
vn -0.163900 -0.986000 -0.031100
vn 0.709000 0.480100 0.516500
vn -0.972200 -0.176000 -0.154600
vn 0.983000 -0.170500 -0.067900
vn 0.612000 0.082200 -0.786600
vn 0.990400 -0.074800 -0.116300
vn -0.956300 -0.276000 -0.097000
vn -0.587700 -0.001900 -0.809100
vn -0.575300 -0.012100 -0.817800
vn 0.055300 0.778200 0.625600
vn -0.051500 -0.005900 0.998700
vn 0.064700 0.935300 -0.348000
vn -0.000600 0.030100 0.999500
vn -0.862700 0.504500 0.035800
vn -0.574300 0.817200 -0.048100
vn 0.587700 0.079100 -0.805200
vn 0.658100 0.227400 -0.717800
vn -0.575600 0.612700 0.541500
vn 0.887000 0.180300 -0.425100
vn 0.244500 -0.968800 -0.041000
vn -0.668400 0.131100 -0.732200
vn 0.711200 0.700800 -0.055900
vn -0.889900 0.052800 -0.453000
vn -0.138200 -0.987800 -0.072500
vn 0.661500 0.332300 -0.672300
vn -0.669700 0.278500 -0.688500
vn 0.436000 0.897300 0.069600
vn -0.310000 0.915100 -0.257700
vn 0.388200 0.806200 0.446500
vn -0.268300 0.834900 0.480500
vn -0.212300 -0.457900 0.863300
vn 0.489800 0.758400 0.430000
vn 0.230200 -0.456100 0.859700
vn -0.582400 0.690400 0.429000
vn -0.417600 -0.899400 -0.129000
vn 0.550200 0.154500 -0.820600
vn 0.514900 -0.852500 -0.090200
vn -0.532700 0.075800 -0.842900
vn 0.034400 0.063700 -0.997400
vn 0.122700 -0.989900 0.071300
vn -0.007100 0.067100 -0.997700
vn -0.018800 -0.998900 0.043700
vn -0.076900 0.032200 0.996500
vn 0.222100 -0.973000 -0.062600
vn 0.037900 0.005600 0.999300
vn -0.114700 -0.989000 -0.093300
usemtl MATERIAL_#356
s off
f 72/1/1 1/2/1 4/3/1
f 37/4/2 38/5/2 76/6/2
f 75/7/3 4/3/3 1/2/3
f 78/8/4 76/6/4 39/9/4
f 7/10/5 57/11/5 58/12/5
f 6/13/6 5/14/6 56/15/6
f 58/12/5 8/16/5 7/10/5
f 56/15/6 55/17/6 6/13/6
f 65/18/6 10/19/6 9/20/6
f 66/21/5 67/22/5 12/23/5
f 12/23/5 64/24/5 66/21/5
f 9/20/6 11/25/6 65/18/6
f 29/26/7 32/27/7 28/28/7
f 29/29/8 28/30/8 32/27/8
f 29/26/9 28/28/9 31/31/9
f 29/29/10 31/32/10 28/30/10
f 31/32/11 30/33/11 28/30/11
f 28/28/12 30/34/12 31/31/12
f 32/27/13 28/30/13 27/35/13
f 32/27/14 27/35/14 28/28/14
f 1/36/15 3/37/15 37/38/15
f 1/39/16 37/40/16 2/41/16
f 38/42/17 37/38/17 3/37/17
f 72/43/18 60/44/18 77/45/18
f 39/46/19 2/41/19 78/47/19
f 61/48/20 4/49/20 75/50/20
f 7/51/21 8/52/21 55/53/21
f 6/54/22 55/55/22 8/56/22
f 57/57/23 7/58/23 56/59/23
f 55/53/21 56/60/21 7/51/21
f 58/61/24 57/62/24 5/63/24
f 56/59/23 5/64/23 57/57/23
f 5/63/24 6/65/24 58/61/24
f 8/56/22 58/66/22 6/54/22
f 4/49/25 60/44/25 72/43/25
f 60/67/26 4/49/26 61/48/26
f 61/68/27 39/9/27 76/6/27
f 75/50/28 39/69/28 61/48/28
f 66/70/29 64/71/29 11/72/29
f 65/73/30 11/74/30 64/75/30
f 10/76/31 65/77/31 12/78/31
f 64/75/30 12/79/30 65/73/30
f 67/80/32 66/81/32 9/82/32
f 11/72/29 9/83/29 66/70/29
f 12/78/31 67/84/31 10/76/31
f 9/82/32 10/85/32 67/80/32
f 77/45/33 3/86/33 72/43/33
f 3/87/34 1/2/34 72/1/34
f 2/88/35 39/69/35 75/50/35
f 2/89/36 75/7/36 1/2/36
f 77/90/37 60/67/37 76/6/37
f 60/67/38 61/68/38 76/6/38
f 38/91/39 3/86/39 77/45/39
f 77/90/40 76/6/40 38/5/40
f 78/47/41 2/41/41 37/40/41
f 37/4/42 76/6/42 78/8/42
usemtl ERZZB1_TL
f 48/92/43 13/93/43 49/94/43
f 46/95/44 33/96/44 73/97/44
f 50/98/45 51/99/45 16/100/45
f 45/101/46 74/102/46 34/103/46
f 48/92/47 14/104/47 13/93/47
f 33/96/48 46/95/48 44/105/48
f 50/98/49 16/100/49 17/106/49
f 34/103/50 47/107/50 45/101/50
f 23/108/51 36/109/51 41/110/51
f 21/111/52 23/108/52 53/112/52
f 26/113/53 43/114/53 35/115/53
f 24/116/54 52/117/54 26/113/54
f 33/96/55 44/105/55 70/118/55
f 33/119/56 70/118/56 73/120/56
f 34/103/57 71/121/57 47/107/57
f 34/122/58 74/123/58 71/121/58
f 69/124/59 24/125/59 35/126/59
f 26/113/60 35/115/60 62/127/60
f 68/128/61 36/129/61 21/130/61
f 23/108/62 63/131/62 36/109/62
f 53/112/63 22/132/63 21/111/63
f 68/133/64 41/110/64 36/109/64
f 40/134/65 41/110/65 22/132/65
f 52/117/66 24/116/66 25/135/66
f 69/136/67 35/115/67 43/114/67
f 42/137/68 25/135/68 43/114/68
f 19/138/69 70/118/69 44/105/69
f 44/139/70 54/140/70 19/141/70
f 17/106/71 74/142/71 45/143/71
f 59/144/72 17/145/72 45/146/72
f 14/104/73 46/147/73 73/148/73
f 14/149/74 48/150/74 54/151/74
f 47/152/75 59/144/75 45/146/75
f 20/153/76 47/107/76 71/121/76
f 48/92/77 15/154/77 19/138/77
f 19/141/78 54/140/78 48/150/78
f 49/94/79 15/154/79 48/92/79
f 73/120/80 70/118/80 49/155/80
f 50/98/81 20/153/81 18/156/81
f 17/145/82 59/144/82 50/157/82
f 51/99/83 50/98/83 18/156/83
f 74/123/84 51/99/84 71/121/84
f 25/135/85 42/137/85 52/117/85
f 22/132/86 53/112/86 40/134/86
f 44/158/87 46/159/87 54/140/87
f 54/160/88 46/159/88 14/149/88
f 20/161/89 50/157/89 59/144/89
f 47/152/90 20/161/90 59/144/90
f 35/115/91 24/116/91 62/127/91
f 24/116/92 26/113/92 62/127/92
f 36/109/93 63/131/93 21/111/93
f 21/111/94 63/131/94 23/108/94
f 68/128/95 21/130/95 22/162/95
f 68/133/96 22/132/96 41/110/96
f 69/124/97 25/163/97 24/125/97
f 69/136/98 43/114/98 25/135/98
f 70/118/99 19/138/99 15/154/99
f 15/154/100 49/155/100 70/118/100
f 71/121/101 18/156/101 20/153/101
f 18/156/102 71/121/102 51/99/102
f 13/93/103 14/104/103 73/148/103
f 13/93/104 73/120/104 49/155/104
f 16/100/105 74/142/105 17/106/105
f 16/100/106 51/99/106 74/123/106
