# Blender v2.75 (sub 0) OBJ File: 'Empty.blend'
# www.blender.org
mtllib EVT_OC_MAINGATE02_02.mtl
o EVT_OC_MAINGATE02_02
v 1.882707 -2.067798 0.122070
v -1.397220 -2.067798 0.116346
v -1.397084 -2.648132 0.039019
v 1.882841 -2.648132 0.044744
v 1.503431 0.580969 0.044082
v -1.208723 -1.558888 0.116675
v 1.884029 0.142986 0.122073
v 1.959542 -1.651809 0.026263
v -1.267039 -0.825332 0.108922
v -1.027434 -0.296853 0.031037
v 1.846381 -1.082855 0.057778
v -1.409689 -1.476806 -0.024322
v 1.916203 -1.658897 -0.020107
v 1.873198 -0.272632 -0.019548
v -1.308039 0.526365 0.053004
v -1.449290 -0.036439 -0.024881
v 1.719937 -2.180287 0.104148
v -0.870465 -2.652335 0.084789
v -0.870330 1.330267 0.007462
v -1.450662 1.330267 0.006449
v 1.570669 -2.018048 0.193368
v -0.317688 0.725972 0.121374
v 0.210393 0.966632 0.120815
v -1.450797 -2.652335 0.083776
v 1.731820 -0.835481 -0.020107
v 1.042589 -2.258709 0.193927
v -1.339970 -2.052935 -0.024881
v 1.918219 0.784109 0.044806
v -1.329787 1.240587 0.039136
v -1.410554 0.665902 0.038996
v 1.837453 0.209424 0.044665
v 1.420234 1.330268 0.088787
v 2.000566 -2.652335 0.089800
v 2.000566 1.330268 0.089800
v 1.420234 -2.652335 0.088787
v -1.442892 -1.120904 0.038684
v 1.503296 0.580969 0.121408
v -1.329921 1.240587 0.116463
v -0.870465 1.330267 0.084789
v 1.959675 -1.651787 0.103589
v -1.409792 -1.476893 0.053004
v -1.340073 -2.053023 0.052445
v -1.449417 -0.036484 0.052445
v 1.882707 -2.648132 0.122070
v 1.570555 -2.017977 0.116042
v 1.846484 -1.082767 -0.019548
v 2.000701 1.330267 0.012473
v 1.837318 0.209424 0.121991
v -1.410689 0.665902 0.116322
v -1.450797 1.330267 0.083776
v 1.918084 0.784109 0.122132
v 1.420369 1.330267 0.011460
v -1.267172 -0.825353 0.031596
v -0.317573 0.725900 0.198701
v 1.719804 -2.180308 0.026822
v -1.307912 0.526410 -0.024322
v -1.027301 -0.296832 0.108363
v 1.873070 -0.272677 0.057778
v 1.731693 -0.835526 0.057219
v 0.210507 0.966560 0.198142
v 1.882842 -2.067798 0.044744
v 1.042474 -2.258637 0.116601
v 1.916100 -1.658985 0.057219
v -1.397084 -2.067798 0.039019
v -0.870330 -2.652335 0.007462
v -1.450662 -2.652335 0.006450
v 2.000701 -2.652335 0.012473
v 1.420369 -2.652335 0.011461
v -1.397220 -2.648132 0.116346
v -1.443027 -1.120904 0.116010
v 1.884164 0.142986 0.044746
v -1.208588 -1.558888 0.039348
vt 0.618276 -1.008589
vt 0.608965 0.051579
vt 0.494949 0.053227
vt 0.936164 -1.149669
vt 0.830520 -1.146462
vt 0.836440 -0.092803
vt 0.496361 -1.013318
vt 0.942085 -0.096011
vt 0.617652 -0.011080
vt 0.502969 -0.003574
vt 0.493187 -1.430719
vt 0.618403 -1.002363
vt 0.615915 -0.006931
vt 0.494823 -0.004014
vt 0.495872 0.001130
vt 0.502233 -0.992549
vt 0.617353 -0.994754
vt 0.491747 -1.135866
vt 0.615303 -1.133418
vt 0.614900 0.000601
vt 0.610992 -0.001074
vt 0.497760 0.003060
vt 0.946771 -1.147005
vt 0.946133 -0.087295
vt 0.827142 -0.087295
vt 0.610500 0.003623
vt 0.494721 0.001208
vt 0.490774 -1.001208
vt 0.606553 -0.998792
vt 0.827780 -1.147005
vt 0.001622 -0.747585
vt 0.528962 -0.748465
vt 0.516830 -0.564010
vt 0.607243 -0.004628
vt 0.501576 -0.001146
vt 0.495457 -1.190948
vt -0.002615 -0.560713
vt 0.610747 -1.194429
vt 0.611778 0.003623
vt 0.939507 -1.150966
vt 0.941502 -0.090580
vt 0.824506 -0.090580
vt 0.607831 -0.998792
vt 0.822511 -1.150966
vt 0.497311 -0.999446
vt 0.611913 -1.429925
vt 0.534882 -0.993961
vt 0.536853 0.001208
vt 0.502615 0.001208
vt 0.538332 -0.983788
vt 0.538332 -0.003574
vt -0.013963 -0.241800
vt -0.014131 -0.145077
vt -0.001244 -0.145055
vt 0.549371 -0.991474
vt 0.549371 -0.006110
vt 0.509836 -0.006110
vt 0.509836 -0.991474
vt 39.935593 -15.186646
vt 39.935593 469.731934
vt 0.503725 -0.002670
vt 0.503724 -0.983589
vt 0.543428 -0.983589
vt -0.014798 0.236706
vt -0.014967 0.333428
vt -0.002079 0.333450
vt 0.502969 -0.983788
vt -0.001075 -0.241777
vt -0.001910 0.236728
vt 0.543427 -0.002670
vt -0.216436 -0.121710
vt -0.113066 0.415083
vt -0.100411 0.412646
vt -0.203781 -0.124146
vt 0.500644 -0.993961
vn 0.001700 -0.000000 -1.000000
vn -0.001700 0.000000 1.000000
vn -0.001800 -0.000100 1.000000
vn 0.001800 0.000100 -1.000000
vn -0.001700 -0.000300 -1.000000
vn 0.001700 0.000300 1.000000
vn 0.001300 0.001100 -1.000000
vn -0.001300 -0.001100 1.000000
vn 0.001600 0.000600 -1.000000
vn -0.001600 -0.000600 1.000000
vn -0.001500 0.000900 -1.000000
vn 0.001500 -0.000900 1.000000
vn 0.002000 -0.000500 -1.000000
vn -0.002000 0.000500 1.000000
vn 0.754700 0.656100 0.001300
vn -0.500200 0.865900 -0.000900
vn -0.990300 0.139200 -0.001700
vn 0.139200 0.990300 0.000200
vn 1.000000 0.000000 0.001700
vn 0.000000 1.000000 -0.000000
vn 0.910700 -0.413100 -0.001500
vn 0.413100 0.910700 -0.001000
vn -0.992800 -0.120100 -0.001500
vn -0.120100 0.992800 0.001000
vn 0.120100 -0.992800 -0.001000
vn -0.969900 0.243600 -0.001500
vn -0.243600 -0.969900 -0.001000
vn -0.000000 -1.000000 0.000000
vn 0.414700 -0.910000 -0.001500
vn 0.910000 0.414700 -0.001000
vn 0.992800 0.120100 0.001500
vn -0.139200 -0.990300 -0.000200
vn 0.990300 -0.139200 0.001700
vn -1.000000 0.000000 -0.001700
vn -0.910700 0.413100 0.001500
vn -0.413100 -0.910700 0.001000
vn -0.414700 0.910000 0.001500
vn -0.910000 -0.414700 0.001000
vn 0.243600 0.969900 0.001000
vn 0.969900 -0.243600 0.001500
vn -0.881800 -0.471700 -0.001500
vn 0.482100 -0.876100 0.000800
usemtl EVT_OC_MAINGATE02_01_2
s off
f 4/1/1 3/2/1 64/3/1
f 2/4/2 69/5/2 44/6/2
f 64/3/1 61/7/1 4/1/1
f 44/6/2 1/8/2 2/4/2
f 7/9/3 37/10/3 70/11/3
f 36/12/4 5/13/4 71/14/4
f 55/15/5 53/16/5 10/17/5
f 57/18/6 9/19/6 17/20/6
f 12/15/7 46/16/7 13/17/7
f 63/18/8 11/19/8 41/20/8
f 25/17/9 16/21/9 56/15/9
f 15/20/10 43/22/10 59/18/10
f 17/20/6 40/22/6 57/18/6
f 10/17/5 8/21/5 55/15/5
f 66/23/1 20/24/1 19/25/1
f 39/26/2 50/27/2 24/28/2
f 62/15/11 22/16/11 23/17/11
f 60/18/12 54/19/12 26/20/12
f 24/28/2 18/29/2 39/26/2
f 19/25/1 65/30/1 66/23/1
f 56/15/9 14/16/9 25/17/9
f 59/18/10 58/19/10 15/20/10
f 26/20/12 21/22/12 60/18/12
f 23/17/11 45/21/11 62/15/11
f 13/17/7 27/21/7 12/15/7
f 41/20/8 42/22/8 63/18/8
f 31/31/1 30/32/1 29/33/1
f 38/34/2 49/35/2 48/36/2
f 29/33/1 28/37/1 31/31/1
f 48/36/2 51/38/2 38/34/2
f 34/39/2 32/10/2 35/28/2
f 68/40/1 52/41/1 47/42/1
f 35/28/2 33/43/2 34/39/2
f 47/42/1 67/44/1 68/40/1
f 71/14/13 72/45/13 36/12/13
f 70/11/14 6/46/14 7/9/14
f 71/47/15 5/48/15 37/49/15
f 70/47/16 37/48/16 5/49/16
f 49/50/17 38/51/17 29/10/17
f 28/50/18 29/51/18 38/10/18
f 65/50/19 19/51/19 39/10/19
f 50/52/20 39/53/20 19/54/20
f 55/55/21 8/56/21 40/57/21
f 57/57/22 40/58/22 8/55/22
f 42/55/23 41/56/23 12/57/23
f 46/55/24 12/56/24 41/57/24
f 12/57/23 27/58/23 42/55/23
f 63/55/25 42/56/25 27/57/25
f 56/57/26 16/58/26 43/55/26
f 59/55/27 43/56/27 16/57/27
f 3/59/28 4/60/28 44/60/28
f 1/61/19 44/62/19 4/63/19
f 62/55/29 45/56/29 21/57/29
f 60/57/30 21/58/30 45/55/30
f 13/55/31 46/56/31 11/57/31
f 41/57/24 11/58/24 46/55/24
f 67/50/19 47/51/19 34/10/19
f 32/64/20 34/65/20 47/66/20
f 30/10/32 31/67/32 48/50/32
f 51/10/33 48/67/33 31/50/33
f 29/10/17 30/67/17 49/50/17
f 48/50/32 49/51/32 30/10/32
f 19/54/20 20/68/20 50/52/20
f 24/50/34 50/51/34 20/10/34
f 31/50/33 28/51/33 51/10/33
f 38/10/18 51/67/18 28/50/18
f 47/66/20 52/69/20 32/64/20
f 35/50/34 32/51/34 52/10/34
f 10/57/35 53/58/35 9/55/35
f 17/55/36 9/56/36 53/57/36
f 23/57/37 22/58/37 54/55/37
f 26/55/38 54/56/38 22/57/38
f 40/57/21 17/58/21 55/55/21
f 53/57/36 55/58/36 17/55/36
f 43/55/26 15/56/26 56/57/26
f 14/55/39 56/56/39 15/57/39
f 8/55/22 10/56/22 57/57/22
f 9/55/35 57/56/35 10/57/35
f 25/55/40 14/56/40 58/57/40
f 15/57/39 58/58/39 14/55/39
f 16/57/27 25/58/27 59/55/27
f 58/57/40 59/58/40 25/55/40
f 45/55/30 23/56/30 60/57/30
f 54/55/37 60/56/37 23/57/37
f 4/63/19 61/70/19 1/61/19
f 2/71/20 1/72/20 61/73/20
f 21/57/29 26/58/29 62/55/29
f 22/57/38 62/58/38 26/55/38
f 27/57/25 13/58/25 63/55/25
f 11/57/31 63/58/31 13/55/31
f 69/63/34 2/70/34 64/61/34
f 61/73/20 64/74/20 2/71/20
f 66/51/28 65/10/28 18/67/28
f 39/10/19 18/67/19 65/50/19
f 18/67/28 24/50/28 66/51/28
f 20/10/34 66/67/34 24/50/34
f 68/51/28 67/10/28 33/67/28
f 34/10/19 33/67/19 67/50/19
f 33/67/28 35/50/28 68/51/28
f 52/10/34 68/67/34 35/50/34
f 64/61/34 3/62/34 69/63/34
f 44/60/28 69/59/28 3/59/28
f 6/47/41 70/48/41 36/49/41
f 5/49/16 36/75/16 70/47/16
f 72/47/42 71/48/42 7/49/42
f 37/49/15 7/75/15 71/47/15
f 36/49/41 72/75/41 6/47/41
f 7/49/42 6/75/42 72/47/42
