# Blender v2.75 (sub 0) OBJ File: 'Empty.blend'
# www.blender.org
mtllib EVT_CASTEL_FLOOR_4.mtl
o EVT_CASTEL_FLOOR_4
v 0.789406 -0.497041 2.138318
v 2.682033 0.207192 -0.859202
v -0.008145 -0.558584 0.344166
v 2.039747 -0.443482 2.833032
v -0.008145 0.382041 0.344166
v 2.039747 0.266938 2.833032
v 2.682033 -0.383735 -0.859202
v 0.789406 0.320498 2.138318
v 1.993745 0.238257 0.945496
v 1.094968 0.297827 -0.613464
v 1.094968 -0.474370 -0.613464
v 1.993745 -0.414800 0.945496
vt -0.316824 -0.659795
vt 0.202694 -0.359720
vt 0.284740 -0.889439
vt -0.316513 0.661592
vt -0.116439 -0.006924
vt -0.714275 0.259459
vt -0.116669 0.008697
vt -0.714561 -0.257676
vt 0.000000 -0.000000
vt -0.945770 0.676602
vt 0.202957 0.361507
vt 0.285035 0.891239
vt -0.946073 -0.674814
vn 0.057800 -0.998300 0.004800
vn 0.070800 0.997500 0.002700
vn 0.070800 -0.997500 0.002700
vn -0.913800 0.000000 0.406200
vn -0.655600 0.000000 -0.755100
vn 0.999700 0.000000 -0.024400
vn -0.485700 0.000000 0.874100
vn -0.153000 0.000000 -0.988200
vn 0.934400 0.000000 0.356300
vn 0.051900 0.998500 -0.016400
vn 0.072800 0.997300 -0.003900
vn 0.057800 0.998300 0.004800
vn 0.072800 -0.997300 -0.003900
vn 0.051900 -0.998500 -0.016400
usemtl EVT_CASTEL_FLOOR_4_1
s off
f 12/1/1 11/2/1 7/3/1
f 9/4/2 5/5/2 8/6/2
f 3/7/3 12/1/3 1/8/3
f 3/9/4 1/9/4 8/9/4
f 5/9/5 10/9/5 11/9/5
f 8/9/4 5/9/4 3/9/4
f 4/9/6 9/9/6 6/9/6
f 8/9/7 1/9/7 4/9/7
f 7/9/8 11/9/8 10/9/8
f 7/9/9 9/9/9 12/9/9
f 9/4/10 8/6/10 6/10/10
f 4/9/7 6/9/7 8/9/7
f 9/4/11 10/11/11 5/5/11
f 9/9/9 7/9/9 2/9/9
f 10/11/12 9/4/12 2/12/12
f 10/9/8 2/9/8 7/9/8
f 12/1/13 3/7/13 11/2/13
f 11/9/5 3/9/5 5/9/5
f 1/8/14 12/1/14 4/13/14
f 9/9/6 4/9/6 12/9/6
