# Blender v2.75 (sub 0) OBJ File: 'Empty.blend'
# www.blender.org
mtllib EVT_TPL_GITTERKAEFIG_4X5M.mtl
o EVT_TPL_GITTERKAEFIG_4X5M
v 2.000000 5.485039 -2.000000
v 2.000000 0.000000 -2.000000
v -2.000000 5.485039 -2.000000
v 2.000000 5.485039 2.000000
v -2.000000 5.485039 2.000000
v -2.000000 0.000000 -2.000000
v 2.000000 0.000000 2.000000
v -2.000000 0.000000 2.000000
vt 2.500000 1.492519
vt -1.500000 1.492519
vt -1.500000 -2.492519
vt 2.500000 -2.492519
vn 0.000000 0.000000 -1.000000
vn 0.000000 0.000000 1.000000
vn 1.000000 0.000000 0.000000
vn -1.000000 0.000000 0.000000
usemtl EVT_TPL_GITTERKAEFIG_01
s off
f 3/1/1 1/2/1 2/3/1
f 1/1/2 3/2/2 2/4/2
f 8/3/3 6/4/3 5/2/3
f 6/3/4 8/4/4 5/1/4
f 1/1/3 4/2/3 7/3/3
f 4/1/4 1/2/4 7/4/4
f 4/1/2 5/2/2 8/3/2
f 5/1/1 4/2/1 8/4/1
f 2/3/1 6/4/1 3/1/1
f 5/1/4 3/2/4 6/3/4
f 6/3/2 2/4/2 3/2/2
f 3/1/3 5/2/3 6/4/3
f 7/3/3 2/4/3 1/1/3
f 2/3/4 7/4/4 1/2/4
f 8/3/2 7/4/2 4/1/2
f 7/3/1 8/4/1 4/2/1
