# Blender v2.75 (sub 0) OBJ File: 'Empty.blend'
# www.blender.org
mtllib EXCALIBUR_1.mtl
o EXCALIBUR_1
v -0.000877 -0.000000 0.043538
v 0.352941 -0.150000 -0.350383
v -0.352942 -0.150000 0.350384
v -0.020648 -0.086325 -0.003066
v -0.000877 -0.000000 -0.049829
v -0.352942 -0.150000 -0.350383
v 0.352941 -0.150000 0.350384
v 0.227002 -0.000000 -0.297960
v 0.300135 -0.000000 0.224828
v -0.227003 -0.000000 0.297961
v -0.227003 -0.000000 -0.297960
v -0.068156 -0.000000 -0.003023
v 0.066401 -0.000000 -0.003023
v -0.352942 -0.086000 -0.350383
v 0.352941 -0.086000 -0.350383
v 0.352941 -0.086000 0.350384
v -0.352942 -0.086000 0.350384
v 0.227002 -0.000000 0.297961
v -0.300136 -0.000000 0.224828
v 0.300135 -0.000000 -0.224827
v -0.300136 -0.000000 -0.224827
v 0.018893 -0.086325 -0.003066
v -0.000877 -0.086325 -0.016820
v -0.000877 -0.086325 0.010616
vt 0.821265 0.075233
vt 0.498759 0.437933
vt 0.178734 0.075233
vt 0.821266 0.924767
vt 0.178735 0.924767
vt 0.498759 0.571036
vt 0.593975 0.504310
vt 0.075233 0.820510
vt 0.403543 0.504310
vt 0.578888 0.836856
vt 0.444922 0.836856
vt 0.515102 0.702891
vt 0.552978 0.836856
vt 0.419012 0.836856
vt 0.522164 0.702891
vt 0.075233 0.179490
vt 0.924767 0.179490
vt 0.924767 0.820510
vt 0.821265 0.633914
vt 0.178734 0.633914
vt 0.000500 0.480359
vt 0.999500 0.480359
vt 0.820510 0.633914
vt 0.179490 0.633914
vt 0.514944 0.702908
vt 0.548232 0.702908
vt 0.999500 0.366086
vt 0.000500 0.366086
vt 0.999500 0.000500
vt 0.000500 0.000500
vt 0.999500 0.999500
vt 0.000500 0.999500
vt 0.475735 0.702891
vt 0.475577 0.702908
vt 0.482798 0.702891
vt 0.905779 0.302208
vt 0.914446 0.293517
vt 0.923114 0.302208
vt 0.508865 0.702908
vt 0.914446 0.310852
vn 0.000000 1.000000 0.000000
vn -0.544900 0.299500 0.783200
vn 0.544900 0.299500 0.783200
vn 0.000000 0.520500 -0.853900
vn 0.852200 0.523300 0.000000
vn 0.000000 0.520500 0.853900
vn -0.852200 0.523300 0.000000
vn 0.543000 0.299200 -0.784600
vn -0.543000 0.299200 -0.784600
vn 0.000000 0.000000 -1.000000
vn -1.000000 0.000000 0.000000
vn 1.000000 0.000000 0.000000
vn 0.000000 0.000000 1.000000
vn 0.398400 0.826200 0.398400
vn -0.398400 0.826200 0.398400
vn 0.398400 0.826200 -0.398400
vn -0.398400 0.826200 -0.398400
usemtl INSERT_SWORD_MOBSI
s off
f 18/1/1 1/2/1 10/3/1
f 8/4/1 11/5/1 5/6/1
f 5/6/1 13/7/1 8/4/1
f 5/6/1 21/8/1 12/9/1
f 13/10/2 5/11/2 22/12/2
f 5/13/3 12/14/3 23/15/3
f 21/8/1 19/16/1 12/9/1
f 9/17/1 20/18/1 13/7/1
f 11/19/4 8/20/4 15/21/4
f 15/22/5 20/23/5 16/21/5
f 20/23/5 9/24/5 16/21/5
f 16/22/6 18/19/6 17/21/6
f 18/19/6 10/20/6 17/21/6
f 17/22/7 19/23/7 14/21/7
f 14/22/4 11/19/4 15/21/4
f 19/23/7 21/24/7 14/21/7
f 12/9/1 19/16/1 1/2/1
f 12/10/8 1/11/8 4/25/8
f 1/2/1 9/17/1 13/7/1
f 1/10/9 13/11/9 24/26/9
f 15/21/10 6/27/10 14/22/10
f 6/28/11 3/27/11 14/21/11
f 16/21/12 2/27/12 15/22/12
f 2/28/10 6/27/10 15/21/10
f 17/21/13 7/27/13 16/22/13
f 7/28/12 2/27/12 16/21/12
f 3/28/13 7/27/13 17/21/13
f 14/21/11 3/27/11 17/22/11
f 9/17/14 18/1/14 16/29/14
f 18/1/1 9/17/1 1/2/1
f 19/16/15 17/30/15 10/3/15
f 19/16/1 10/3/1 1/2/1
f 13/7/1 20/18/1 8/4/1
f 20/18/16 15/31/16 8/4/16
f 21/8/17 11/5/17 14/32/17
f 11/5/1 21/8/1 5/6/1
f 23/33/2 22/12/2 5/11/2
f 4/25/8 1/11/8 24/34/8
f 4/35/3 23/15/3 12/14/3
f 22/36/1 23/37/1 4/38/1
f 22/39/9 24/26/9 13/11/9
f 4/38/1 24/40/1 22/36/1
