# Blender v2.75 (sub 0) OBJ File: 'Empty.blend'
# www.blender.org
mtllib FIREPLACE_MIDDLE.mtl
o FIREPLACE_MIDDLE
v -0.050861 0.601455 0.130891
v -0.023914 0.200854 -0.074706
v -0.001000 0.660796 0.121951
v -0.101000 0.201286 -0.130891
v -0.001000 0.000066 -0.130759
v 0.099000 0.201286 -0.130891
v -0.101000 0.201286 -0.010759
v -0.055223 0.488991 0.007032
v 0.052718 0.453368 0.055830
v -0.055058 0.453368 0.055338
v 0.052731 0.488991 0.007524
v -0.001533 0.445158 0.075381
v -0.010944 0.488726 -0.025072
v 0.099000 0.201286 -0.010759
v -0.000972 0.217821 -0.111091
v -0.010944 0.542781 -0.117619
v 0.005271 0.532414 -0.127357
v 0.017380 0.200854 -0.074706
v 0.005355 0.500855 -0.019832
v -0.101000 0.651286 -0.130891
v -0.101000 0.201286 -0.110759
v 0.099000 0.651286 -0.130891
v -0.101000 0.651286 -0.110759
v 0.099000 0.651286 -0.110759
v 0.099000 0.201286 -0.110759
v -0.010944 0.501013 -0.019856
v 0.048861 0.601455 0.130891
v 0.005271 0.544701 -0.122142
v -0.010944 0.530494 -0.122835
v 0.005355 0.488818 -0.024941
v -0.001533 0.457195 0.080491
v 0.052718 0.465405 0.060940
v -0.055223 0.476954 0.001923
v -0.055058 0.465405 0.060448
v 0.052731 0.476954 0.002415
v -0.000398 0.637551 0.053485
vt -0.371090 0.983130
vt -0.128130 0.983130
vt -0.249610 1.243750
vt -0.153040 1.253260
vt -0.007260 0.980300
vt -0.128740 0.980300
vt -0.024340 0.869240
vt -0.025020 0.830180
vt -0.103130 0.831540
vt -0.267370 1.235750
vt -0.247330 0.987130
vt -0.147100 0.987130
vt -0.102450 0.870600
vt 0.739450 0.250850
vt 0.661330 0.250850
vt 0.739450 0.482180
vt -0.153200 0.980300
vt -1.320780 0.245190
vt -1.293610 0.245190
vt -1.293610 0.494810
vt 0.661330 0.482180
vt -0.105080 0.419730
vt -0.104080 0.391010
vt -0.389310 0.381050
vt -1.320780 0.494810
vt -1.385120 1.262690
vt -1.385120 1.470340
vt -1.369270 1.470340
vt -0.390320 0.409770
vt -0.267510 0.987130
vt -1.369270 1.262690
vt 2.206040 0.988820
vt 1.241710 -1.480790
vt -2.773900 0.673820
vt 0.755300 2.796650
vt 1.451970 1.008140
vt -2.153230 1.239180
vt -1.416040 -1.482160
vt -1.168870 2.799260
vt 0.736430 -0.754920
vt -2.156560 0.702060
vt -2.778020 1.415700
vt 1.219740 3.424820
vt -1.187730 -0.758180
vt -1.438010 3.431560
vt -0.951140 -0.575250
vt -0.951140 -0.227700
vt 0.433460 -0.560680
vt -1.720870 3.745530
vt 0.075460 2.180630
vt -1.988550 3.193450
vt 0.008070 2.299540
vt 0.008070 2.488480
vt 0.783280 2.295590
vt -0.773960 2.487310
vt 2.215960 1.098990
vt 0.343140 2.732710
vt 2.483640 1.651070
vt -0.773960 2.298370
vt 1.317450 -0.231790
vt -0.910330 -1.215480
vt -1.123430 -0.713460
vt 0.433460 -0.220200
vt 1.104350 0.270230
vt 0.783280 2.484530
vt -0.571380 0.636780
vt -0.562140 0.515790
vt -0.614800 0.516430
vt -0.643830 0.726880
vt -0.552790 0.726880
vt -0.577390 0.502090
vt -0.595920 0.637100
vt -0.549410 0.564360
vt -0.565940 0.563600
vt -0.581440 0.729720
vt -0.059920 1.006320
vt -0.059920 0.991170
vt -0.074650 0.999580
vt -0.615090 0.502090
vt -0.598310 0.754830
vt -0.544460 0.730950
vt -0.565010 0.750250
vt -0.591390 0.501680
vt -0.228030 0.357110
vt -0.428990 0.288840
vt -0.272340 1.688110
vt -0.680130 1.503100
vt -0.463230 0.498530
vt -0.614190 0.533290
vt -0.476440 1.682370
vt -0.027770 0.873530
vt -0.195190 -0.485260
vt -0.198370 0.873530
vt -0.531490 1.513980
vt -0.440270 1.072000
vt -0.464400 2.539680
vt -0.288390 2.542760
vt -0.024580 -0.485260
vt -0.267850 1.075010
vn 0.000000 -0.512200 0.858900
vn -0.895500 -0.445000 0.000000
vn 0.000000 1.000000 0.000000
vn 0.895500 -0.445000 0.000000
vn 0.000000 0.000000 1.000000
vn -1.000000 0.000000 0.000000
vn 1.000000 0.000000 0.000000
vn 0.005200 0.916800 0.399300
vn -0.005200 -0.916800 -0.399300
vn -0.004200 0.914800 0.403900
vn 0.004200 -0.914800 -0.403900
vn 0.008600 -0.917100 -0.398600
vn -0.009600 0.916100 0.400900
vn -0.003000 -0.914800 -0.403900
vn -0.003100 0.914800 0.403900
vn 0.008400 -0.917100 -0.398500
vn -0.553800 0.325400 -0.766500
vn 0.008300 0.916700 0.399500
vn 0.532700 0.330700 -0.779000
vn -0.375100 -0.362200 0.853300
vn 0.364000 -0.363900 0.857300
vn 1.000000 -0.000100 0.000200
vn -1.000000 -0.001100 0.002600
vn -0.553800 0.325300 -0.766500
vn -0.860500 0.185600 -0.474400
vn 0.000000 -0.456600 0.889700
vn -0.867800 0.182400 -0.462100
vn 0.909100 0.151000 -0.388200
vn 0.000000 -0.906300 -0.422600
vn 0.000000 0.149000 0.988800
vn 0.865500 0.173200 -0.470000
vn 0.764700 0.612200 -0.201100
vn -0.763600 0.609400 -0.213600
vn -0.000700 -0.919600 -0.392900
vn 0.000700 0.919600 0.392900
vn 0.008300 -0.920100 -0.391700
vn 0.008300 0.919100 0.393900
vn 1.000000 0.000300 -0.000700
usemtl MATERIAL_#388
s off
f 14/1/1 7/2/1 5/3/1
f 5/4/2 7/5/2 21/6/2
f 21/7/3 7/8/3 14/9/3
f 5/10/4 25/11/4 14/12/4
f 21/7/3 14/9/3 25/13/3
f 21/14/5 25/15/5 23/16/5
f 5/4/2 21/6/2 4/17/2
f 4/18/6 21/19/6 23/20/6
f 25/15/5 24/21/5 23/16/5
f 20/22/3 23/23/3 24/24/3
f 4/18/6 23/20/6 20/25/6
f 6/26/7 22/27/7 24/28/7
f 20/22/3 24/24/3 22/29/3
f 5/10/4 6/30/4 25/11/4
f 6/26/7 24/28/7 25/31/7
usemtl OC_O_SIMPLEMETAL_01
f 31/32/8 32/33/8 19/34/8
f 9/35/9 12/36/9 30/37/9
f 32/33/10 11/38/10 19/34/10
f 9/35/11 30/37/11 35/39/11
f 12/36/12 10/40/12 13/41/12
f 31/32/13 26/42/13 34/43/13
f 13/41/14 10/40/14 33/44/14
f 34/43/15 26/42/15 8/45/15
f 12/36/16 13/41/16 30/37/16
f 26/46/17 13/47/17 8/48/17
f 31/32/18 19/34/18 26/42/18
f 19/49/19 35/50/19 30/51/19
f 12/52/20 31/53/20 10/54/20
f 12/52/21 32/55/21 31/53/21
f 9/56/22 11/57/22 32/58/22
f 32/55/21 12/52/21 9/59/21
f 34/60/23 8/61/23 33/62/23
f 33/63/24 8/48/24 13/47/24
f 10/64/23 34/60/23 33/62/23
f 31/53/20 34/65/20 10/54/20
f 11/57/22 9/56/22 35/50/22
f 35/50/19 19/49/19 11/57/19
usemtl OC_O_WOOD_01
f 2/66/25 1/67/25 36/68/25
f 27/69/26 1/70/26 2/71/26
f 15/72/27 2/66/27 36/68/27
f 18/73/28 15/74/28 36/75/28
f 18/76/29 2/77/29 15/78/29
f 18/79/26 27/69/26 2/71/26
f 27/69/30 3/80/30 1/70/30
f 18/73/31 36/75/31 27/81/31
f 27/81/32 36/75/32 3/82/32
f 1/67/33 3/83/33 36/68/33
usemtl OC_O_PLANKS_01
f 29/84/34 17/85/34 13/86/34
f 26/87/35 28/88/35 16/89/35
f 17/85/36 30/90/36 13/86/36
f 26/91/6 29/92/6 13/93/6
f 19/94/37 28/88/37 26/87/37
f 30/95/38 17/96/38 28/97/38
f 26/91/6 16/98/6 29/92/6
f 19/99/38 30/95/38 28/97/38
