# Blender v2.75 (sub 0) OBJ File: 'Empty.blend'
# www.blender.org
mtllib FIREPLACE_GROUND.mtl
o FIREPLACE_GROUND
v -0.244300 -0.004166 -0.477385
v 0.110702 0.109412 -0.334015
v 0.409774 -0.001644 -0.188438
v 0.295052 0.110721 -0.184103
v -0.195840 0.108558 -0.431921
v 0.406459 0.084852 0.069535
v 0.467401 0.000750 0.086002
v -0.537217 -0.000680 -0.077927
v -0.386084 0.086456 0.253264
v -0.476561 0.083706 -0.061868
v -0.194951 0.004177 0.478624
v -0.441896 0.002470 0.283083
v 0.227245 0.003819 0.437666
v 0.052270 0.005622 0.644160
v -0.083002 0.088865 0.529289
v 0.111403 -0.003381 -0.387398
v 0.079076 -0.002540 -0.291104
v 0.338974 -0.001797 -0.205871
v 0.321691 0.128327 0.224448
v -0.119112 -0.005075 -0.581521
v 0.388664 0.001818 0.208358
v 0.081575 0.155418 0.110937
v 0.144219 0.002804 0.321338
v 0.373784 0.003233 0.370509
v 0.296471 0.129847 0.398578
v -0.375643 -0.000497 -0.057014
v -0.484394 0.001723 0.197479
v -0.438798 0.085533 0.147482
v -0.473901 -0.003056 -0.350136
v -0.396230 0.109158 -0.363164
v -0.326209 -0.003619 -0.414725
v -0.185638 -0.003194 -0.365958
v -0.319238 0.110269 -0.235817
v 0.031998 -0.004585 -0.525391
v -0.054871 0.107639 -0.537213
v 0.325701 0.000588 0.067385
v 0.365053 0.083031 -0.139123
v -0.324137 0.001764 0.202107
v -0.155547 0.003133 0.359022
v -0.195201 0.087830 0.410768
v 0.008443 -0.003355 -0.384431
v 0.155814 0.110305 -0.231687
v -0.491611 -0.001643 -0.188268
v -0.372002 -0.001299 -0.148866
v -0.424485 0.110674 -0.189502
v 0.258460 0.001670 0.191354
v 0.049396 0.153568 -0.101073
v 0.518222 -0.000585 -0.066967
v 0.300458 -0.001099 -0.125921
v -0.590702 0.000647 0.074133
v 0.014147 0.108260 -0.466021
v 0.197327 0.129833 0.397037
v -0.356827 0.004022 0.460917
v -0.353788 0.001193 0.136703
v 0.126356 0.088535 0.491529
v 0.175623 0.004694 0.537855
v 0.115019 0.003730 0.427469
v -0.495613 0.112908 0.066548
v -0.214995 -0.002682 -0.307339
v -0.291788 0.115733 0.390259
v -0.297126 0.109187 -0.359894
v -0.099799 0.005155 0.590677
v -0.078706 0.003921 0.449327
v -0.012751 0.089475 0.599265
v 0.475199 0.084229 -0.001921
v 0.247905 -0.001574 -0.180326
v -0.546542 0.084319 0.008377
v 0.227643 0.128833 0.282433
v -0.088333 0.108781 -0.406419
v -0.140640 0.127532 0.133340
v -0.368873 0.087584 0.382510
v 0.018421 0.088329 0.467907
v 0.343317 0.083977 -0.030794
v 0.229740 -0.003020 -0.346096
v 0.423266 0.111806 -0.059684
v -0.114169 0.136154 -0.487561
v 0.045665 0.117111 0.548097
v 0.303122 0.157253 0.321122
v -0.404220 0.137910 -0.286327
v -0.415177 0.084591 0.039549
v 0.178087 0.137862 -0.291827
v 0.238099 0.109849 -0.283998
v -0.251539 0.087001 0.315722
v -0.173348 0.083033 -0.138952
v 0.395604 0.002622 0.300498
v -0.184052 -0.004777 -0.547443
v -0.496938 -0.002448 -0.280516
v -0.555498 0.001208 0.138463
v 0.481898 -0.001140 -0.130671
v 0.116603 0.005314 0.608955
v -0.287198 0.004223 0.483953
v 0.175748 -0.003192 -0.365754
vt -0.008950 1.168000
vt 0.029310 1.146310
vt -0.004870 1.142000
vt -0.093840 0.673370
vt -0.154990 0.662270
vt -0.144480 0.740630
vt -0.120830 1.074130
vt -0.074810 1.095400
vt -0.096510 1.058720
vt -0.224190 0.668810
vt -0.163690 0.714780
vt -0.148230 0.971920
vt -0.125130 1.009330
vt -0.120380 0.973960
vt 0.172660 1.025010
vt 0.150240 0.987200
vt 0.138530 1.022360
vt -0.205250 0.896960
vt -0.232270 0.862960
vt -0.226260 0.910710
vt -0.275990 0.887230
vt -0.249170 0.926460
vt -0.097580 0.536500
vt -0.171850 0.517020
vt -0.180130 0.546150
vt -0.163340 0.603870
vt -0.211870 0.581630
vt -0.230670 0.615570
vt -0.102170 0.598300
vt -0.258390 0.466140
vt -0.274560 0.498240
vt -0.231760 0.450440
vt -0.246660 0.423760
vt -0.261880 0.407050
vt -0.316320 0.431470
vt -0.283270 0.422870
vt 0.130900 0.950450
vt 0.103040 1.084230
vt 0.134910 1.022280
vt 0.074310 1.114280
vt 0.113290 1.154330
vt 0.093750 1.130020
vt -0.075180 0.766810
vt -0.052490 0.749770
vt -0.091050 0.736010
vt 0.141500 1.067460
vt 0.130760 1.102190
vt 0.176300 1.105280
vt -0.201300 0.749350
vt -0.194480 0.710630
vt -0.213690 0.684780
vt -0.050800 1.096550
vt -0.045500 1.076550
vt 0.132620 1.056220
vt -0.039260 0.676740
vt -0.006450 0.687870
vt -0.038040 0.651480
vt -0.293400 0.487320
vt -0.322570 0.491520
vt -0.254410 0.685750
vt -0.234980 0.690710
vt -0.285120 0.451900
vt -0.262040 0.822340
vt -0.296270 0.824010
vt -0.296600 0.851970
vt 0.159200 0.947250
vt 0.179250 0.928340
vt -0.040960 0.774210
vt -0.063110 0.800340
vt -0.044350 0.819420
vt 0.178960 0.977620
vt -0.082830 0.719960
vt -0.260910 0.860830
vt 0.129470 1.131550
vt 0.039230 0.781680
vt 0.033440 0.806120
vt 0.030880 0.833930
vt 0.007650 0.779990
vt -0.013990 0.799330
vt -0.004410 0.828510
vt -0.088060 1.065090
vt 0.198660 0.999190
vt 0.205360 0.950450
vt 0.069040 1.156080
vt 0.067150 1.135800
vt -0.173870 0.998200
vt -0.154120 1.019460
vt 0.016310 1.194530
vt 0.038120 1.175340
vt -0.324700 0.457350
vt -0.028080 1.114070
vt -0.059960 1.133060
vt 0.041520 1.215220
vt 0.065740 1.202840
vt 0.167250 1.130930
vt 0.218210 0.974420
vt -0.016970 0.761390
vt -0.236280 0.831070
vt -0.079750 1.125700
vt -0.133470 1.049440
vt -0.178730 1.046900
vt 0.198120 1.030640
vt -0.025670 1.106090
vt 0.127940 1.047690
vt 0.149250 1.006590
vt 0.111620 1.004690
vt 0.088390 1.177150
vt 0.175350 1.071170
vt -0.014240 1.194000
vt -0.172780 0.966590
vt -0.152190 1.068560
vt -0.111560 1.045730
vt -0.311240 0.868020
vt -0.192000 1.023160
vt -0.041050 0.841400
vt -0.036390 1.141170
vt -0.043580 0.598140
vt -0.051580 0.580070
vt -0.118500 0.511470
vt -0.209860 0.683900
vt -0.222810 0.711200
vt -0.247650 0.576640
vt -0.269600 0.610110
vt -0.007510 0.581730
vt -0.018990 0.558080
vt -0.086460 0.503690
vt 0.006360 0.657620
vt -0.202690 0.513950
vt -0.221850 0.557020
vt -0.238250 0.526510
vt -0.252690 0.553950
vt -0.176460 0.533690
vt -0.202360 0.502640
vt -0.208500 0.541470
vn 0.432100 0.517700 0.738400
vn -0.198300 0.869300 -0.452800
vn 0.795200 0.398800 -0.456800
vn 0.400700 0.737700 -0.543400
vn -0.663100 0.625000 0.411900
vn 0.605100 0.703700 -0.372400
vn -0.811200 0.575600 0.103000
vn 0.317900 0.649700 -0.690500
vn 0.000000 1.000000 -0.008700
vn 0.548900 0.783600 0.290900
vn 0.061900 0.872400 0.484900
vn -0.719800 0.280400 -0.635000
vn -0.842900 0.487800 -0.227200
vn 0.416200 0.052900 0.907700
vn 0.853700 0.511000 -0.100800
vn 0.772500 0.401200 0.492200
vn 0.683900 0.168700 -0.709800
vn -0.834600 0.550500 -0.019800
vn -0.564300 0.083400 -0.821400
vn -0.130100 0.918700 0.372800
vn -0.914900 0.401700 -0.039800
vn 0.126900 0.191000 -0.973400
vn 0.522500 0.848200 -0.086700
vn -0.310100 0.946400 -0.090300
vn 0.045100 0.629400 0.775800
vn 0.403900 0.296500 0.865400
vn 0.602100 0.627000 0.494300
vn 0.274400 0.945700 -0.174300
vn 0.023500 0.643700 0.764900
vn 0.132400 0.946800 -0.293500
vn 0.029600 0.430800 -0.902000
vn -0.985000 0.089300 -0.147800
vn -0.591500 0.550600 0.589000
vn -0.166100 0.944700 -0.282700
vn 0.269000 -0.080700 0.959800
vn -0.241900 0.937800 -0.249100
vn -0.722800 0.603900 0.336000
vn -0.470700 0.435500 -0.767300
vn -0.202900 0.483900 0.851200
vn -0.346100 0.937400 0.037900
vn 0.246100 0.941900 0.228500
vn 0.245100 0.937800 -0.245800
vn -0.005300 0.942900 0.333200
vn 0.846800 0.474400 0.240600
vn 0.011300 0.936900 -0.349400
vn -0.488000 0.847800 0.207700
vn 0.340400 0.432000 -0.835100
vn 0.436100 0.862700 -0.256200
vn 0.309700 0.931300 -0.191700
vn 0.848600 0.460400 0.260500
vn -0.394400 0.522100 -0.756200
vn -0.805900 0.526300 -0.271300
vn -0.674900 0.642000 0.363700
vn 0.369300 0.644700 0.669300
vn -0.241600 0.645200 0.724800
vn 0.305700 0.441500 -0.843600
vn -0.319400 0.165500 0.933100
vn -0.589900 0.545500 -0.595400
vn 0.091500 0.267100 0.959300
vn 0.498100 0.631800 -0.593900
vn -0.593800 0.540300 -0.596300
vn 0.579600 0.641400 0.502700
vn -0.322700 0.239900 0.915600
vn 0.758400 0.270200 -0.593100
vn -0.547100 -0.067300 0.834400
vn -0.937800 0.143800 -0.316100
vn 0.877900 0.473700 -0.070300
vn -0.651100 0.507500 -0.564400
vn 0.858800 0.512100 0.011700
vn -0.813900 -0.005900 0.581000
vn 0.127700 0.096100 -0.987200
vn -0.307400 0.194000 0.931600
vn -0.499800 0.627900 0.596700
vn -0.857300 0.512900 0.045000
vn -0.394400 0.168100 -0.903400
vn -0.869500 0.189800 0.456100
vn 0.768600 0.626100 0.131500
vn 0.342800 0.168000 -0.924300
vn 0.984000 0.069500 0.163800
vn -0.129700 0.099200 0.986600
vn 0.489200 0.617200 -0.616200
vn -0.933800 0.337400 0.119000
vn 0.631200 0.370600 -0.681400
vn 0.921000 0.247100 0.301300
vn -0.871200 0.263300 0.414400
vn -0.847200 0.381200 0.370100
vn 0.133100 0.946500 0.294100
vn 0.358600 0.462400 0.810900
vn 0.923100 0.234600 0.304600
vn -0.481400 0.237200 -0.843800
vn -0.917600 0.229100 -0.324800
vn 0.645200 0.433200 -0.629300
vn 0.161300 0.949500 0.269000
vn -0.014800 0.303600 0.952700
vn -0.105600 0.328100 -0.938700
vn 0.850000 0.240500 -0.468700
vn -0.508300 0.642000 0.574000
vn 0.286000 0.957300 0.042600
vn -0.405700 0.615500 -0.675700
vn 0.604000 0.550500 0.576300
vn -0.271500 0.948600 0.162600
vn -0.189000 0.930200 -0.314600
vn -0.083100 0.935900 0.342200
vn -0.295900 0.607300 0.737300
vn 0.077000 0.929800 -0.359900
vn 0.173300 0.578800 -0.796900
vn -0.794700 0.584300 -0.164500
vn -0.353000 0.932300 -0.079000
vn 0.289600 0.410900 -0.864500
vn 0.716800 0.597800 -0.359100
vn -0.389600 0.517000 -0.762200
vn -0.241000 0.942000 0.233700
vn 0.341300 0.607200 0.717600
vn -0.806500 0.521200 -0.278900
vn 0.351800 0.933600 0.068800
vn 0.705900 0.692600 0.148400
vn 0.313800 0.436700 -0.843100
vn 0.697300 0.582100 -0.418400
vn 0.668300 0.635500 -0.386600
vn -0.413600 0.905200 -0.098200
vn -0.508700 0.859500 0.049900
vn -0.399500 0.813700 0.422200
vn 0.517600 0.852300 -0.075000
vn 0.481300 0.771400 0.416300
vn -0.495200 0.841200 0.217200
vn 0.592400 0.665500 -0.454100
vn -0.280700 0.952000 -0.121900
vn -0.123500 0.992300 0.010100
vn -0.040800 0.803000 0.594600
vn -0.466800 0.829500 -0.306800
vn -0.142500 0.895900 -0.420800
usemtl MATERIAL_#356
s off
f 51/1/1 69/2/1 41/3/1
f 84/4/2 47/5/2 41/6/2
f 18/7/3 82/8/3 4/9/3
f 49/10/4 17/11/4 47/5/4
f 6/12/5 73/13/5 36/14/5
f 10/15/6 80/16/6 26/17/6
f 12/18/7 71/19/7 9/20/7
f 9/20/8 83/21/8 38/22/8
f 39/23/9 57/24/9 23/25/9
f 22/26/10 46/27/10 36/28/10
f 23/25/11 70/29/11 39/23/11
f 68/30/12 46/31/12 23/32/12
f 52/33/13 68/30/13 23/32/13
f 13/34/14 24/35/14 25/36/14
f 80/16/15 54/37/15 26/17/15
f 33/38/16 26/39/16 59/40/16
f 31/41/17 61/42/17 59/40/17
f 1/43/9 31/44/9 32/45/9
f 45/46/18 79/47/18 87/48/18
f 12/18/19 9/20/19 38/22/19
f 34/49/9 41/50/9 17/51/9
f 4/9/20 81/52/20 42/53/20
f 33/38/21 44/54/21 26/39/21
f 44/55/9 43/56/9 26/57/9
f 19/58/22 21/59/22 46/31/22
f 36/28/23 47/5/23 22/26/23
f 49/10/9 3/60/9 18/61/9
f 52/33/24 78/62/24 68/30/24
f 91/63/25 11/64/25 40/65/25
f 28/66/26 27/67/26 54/37/26
f 90/68/27 56/69/27 55/70/27
f 10/15/28 58/71/28 80/16/28
f 31/44/9 59/72/9 32/45/9
f 32/45/9 59/72/9 41/6/9
f 40/65/29 60/73/29 91/63/29
f 9/20/30 60/73/30 83/21/30
f 31/41/31 30/74/31 61/42/31
f 62/75/32 15/76/32 63/77/32
f 62/75/33 64/78/33 15/76/33
f 15/76/34 77/79/34 72/80/34
f 18/7/35 4/9/35 66/81/35
f 10/15/36 67/82/36 58/71/36
f 67/82/37 88/83/37 58/71/37
f 68/30/38 19/58/38 46/31/38
f 69/2/39 5/84/39 32/85/39
f 9/20/40 71/19/40 60/73/40
f 6/12/41 65/86/41 75/87/41
f 51/1/42 35/88/42 76/89/42
f 52/33/43 25/36/43 78/62/43
f 25/36/44 85/90/44 78/62/44
f 61/42/45 30/74/45 79/47/45
f 42/53/46 81/52/46 2/91/46
f 2/91/47 81/52/47 92/92/47
f 4/9/48 82/8/48 81/52/48
f 83/21/49 60/73/49 40/65/49
f 24/35/50 85/90/50 25/36/50
f 20/93/51 86/94/51 35/88/51
f 29/95/52 87/48/52 30/74/52
f 50/96/53 88/83/53 67/82/53
f 14/97/54 90/68/54 64/78/54
f 53/98/55 91/63/55 71/19/55
f 74/99/56 92/92/56 82/8/56
usemtl NC_HOEHLE01
f 4/9/57 42/53/57 66/81/57
f 5/84/58 76/89/58 86/94/58
f 69/2/59 32/85/59 41/3/59
f 37/100/60 75/87/60 89/101/60
f 8/102/61 67/82/61 10/15/61
f 55/70/62 77/79/62 90/68/62
f 62/75/63 14/97/63 64/78/63
f 18/7/64 74/99/64 82/8/64
f 42/53/65 17/103/65 66/81/65
f 2/104/66 16/105/66 17/106/66
f 85/90/67 21/59/67 19/58/67
f 86/94/68 1/107/68 5/84/68
f 19/58/69 78/62/69 85/90/69
f 13/34/70 52/33/70 23/32/70
f 8/102/71 10/15/71 26/17/71
f 45/46/72 43/108/72 44/54/72
f 88/83/73 27/67/73 28/66/73
f 87/48/74 43/108/74 45/46/74
f 31/41/75 29/95/75 30/74/75
f 5/84/76 1/107/76 32/85/76
f 61/42/77 33/38/77 59/40/77
f 34/109/78 20/93/78 35/88/78
f 34/109/79 51/1/79 41/3/79
f 7/110/80 6/12/80 36/14/80
f 89/101/81 3/111/81 37/100/81
f 73/13/82 49/112/82 36/14/82
f 38/22/83 83/21/83 39/113/83
f 40/65/84 11/64/84 39/113/84
f 12/18/85 53/98/85 71/19/85
f 42/53/86 2/91/86 17/103/86
f 33/38/87 79/47/87 45/46/87
f 33/38/88 45/46/88 44/54/88
f 7/110/89 48/114/89 65/86/89
f 37/100/90 3/111/90 49/112/90
f 8/102/91 50/96/91 67/82/91
f 34/109/92 35/88/92 51/1/92
f 51/1/93 76/89/93 69/2/93
f 13/34/94 25/36/94 52/33/94
f 72/80/95 57/115/95 63/77/95
f 55/70/96 56/69/96 57/115/96
f 28/66/97 58/71/97 88/83/97
f 61/42/98 79/47/98 33/38/98
f 15/76/99 72/80/99 63/77/99
f 7/110/100 65/86/100 6/12/100
f 6/12/101 75/87/101 73/13/101
f 68/30/102 78/62/102 19/58/102
f 69/2/103 76/89/103 5/84/103
f 71/19/104 91/63/104 60/73/104
f 72/80/105 77/79/105 55/70/105
f 72/80/106 55/70/106 57/115/106
f 73/13/107 37/100/107 49/112/107
f 73/13/108 75/87/108 37/100/108
f 92/92/109 16/116/109 2/91/109
f 65/86/110 89/101/110 75/87/110
f 35/88/111 86/94/111 76/89/111
f 15/76/112 64/78/112 77/79/112
f 64/78/113 90/68/113 77/79/113
f 30/74/114 87/48/114 79/47/114
f 80/16/115 58/71/115 28/66/115
f 80/16/116 28/66/116 54/37/116
f 82/8/117 92/92/117 81/52/117
f 83/21/118 40/65/118 39/113/118
f 48/114/119 89/101/119 65/86/119
usemtl OC_O_STONE_01
f 70/29/120 84/4/120 26/57/120
f 26/57/121 54/117/121 70/29/121
f 39/23/122 70/29/122 38/118/122
f 39/23/9 63/119/9 57/24/9
f 49/10/9 66/120/9 17/11/9
f 36/28/123 49/10/123 47/5/123
f 23/25/124 46/27/124 22/26/124
f 70/29/125 54/117/125 38/118/125
f 17/51/9 16/121/9 34/49/9
f 21/122/9 7/123/9 36/28/9
f 27/124/9 12/125/9 38/118/9
f 39/23/9 11/126/9 63/119/9
f 41/6/126 47/5/126 17/11/126
f 43/56/9 8/127/9 26/57/9
f 46/27/9 21/122/9 36/28/9
f 47/5/127 84/4/127 70/29/127
f 54/117/9 27/124/9 38/118/9
f 13/128/9 23/25/9 57/24/9
f 57/129/9 56/130/9 13/131/9
f 11/132/9 62/133/9 63/134/9
f 18/61/9 66/120/9 49/10/9
f 70/29/128 22/26/128 47/5/128
f 22/26/129 70/29/129 23/25/129
f 26/57/130 84/4/130 59/72/130
f 59/72/131 84/4/131 41/6/131
