# Blender v2.75 (sub 0) OBJ File: 'Empty.blend'
# www.blender.org
mtllib FIREPLACE_HIGH2.mtl
o FIREPLACE_HIGH2
v 0.176545 1.945100 0.077679
v 0.027000 1.865100 -0.135000
v -0.038000 1.805820 0.069282
v 0.081792 1.902780 -0.119330
v 0.066717 1.887700 0.107939
v -0.118196 1.892730 0.011264
v -0.057814 1.889380 0.123014
v 0.053962 0.000347 -0.030000
v 0.046589 1.815820 0.040148
v -0.057671 0.000347 -0.006272
v -0.010475 1.815820 -0.058689
v 0.131413 1.865100 0.045849
v 0.022000 1.945100 -0.190000
v 0.082000 1.805820 -0.000000
v -0.152545 1.945100 0.112320
v -0.102413 1.865100 0.089151
v 0.042000 1.805820 -0.069282
v -0.023000 1.859100 -0.141000
v -0.078000 1.805820 -0.000000
v -0.132610 1.859100 0.048849
v -0.057671 1.815820 -0.006272
v 0.046589 0.000347 0.040148
v 0.022000 2.175100 -0.190000
v -0.018000 1.945100 -0.200000
v -0.152545 2.175100 0.112320
v -0.181205 1.945100 0.082679
v -0.018000 2.175100 -0.190000
v 0.176545 2.175100 0.077679
v 0.156545 2.175100 0.112320
v 0.106413 1.865100 0.089151
v 0.042000 1.805820 0.069282
v 0.156545 1.945100 0.112320
v -0.172545 2.175100 0.077679
v 0.224302 1.974350 0.001010
v 0.113151 1.974350 -0.193849
v -0.106854 1.946900 -0.187501
v 0.110854 1.946900 -0.187501
v -0.215708 1.946900 0.001039
v -0.109151 1.974350 -0.193849
v 0.110854 2.129360 -0.187501
v -0.106854 2.129360 -0.187501
v -0.215708 2.129360 0.001039
v -0.109151 2.101920 -0.193849
v 0.219708 2.129360 0.001039
v 0.113151 2.101920 -0.193849
v 0.113151 1.974350 0.195869
v -0.106854 1.946900 0.189580
v 0.110854 1.946900 0.189580
v -0.109151 1.974350 0.195868
v 0.110854 2.129360 0.189580
v -0.106854 2.129360 0.189580
v 0.113151 2.101920 0.195868
v -0.109151 2.101920 0.195869
v 0.219708 1.946900 0.001039
v -0.220302 1.974350 0.001010
v 0.224302 2.101920 0.001010
v -0.220302 2.101920 0.001010
v -0.022404 1.815820 0.054813
v 0.053962 1.815820 -0.030000
v -0.010475 0.000347 -0.058689
v -0.022404 0.000347 0.054813
v 0.070565 1.853190 0.011264
v -0.038000 1.845820 -0.069282
v 0.117559 1.911630 0.011264
v 0.058179 1.938430 0.080329
v -0.030432 1.933410 0.080329
v -0.057814 1.889380 -0.100486
v -0.082275 1.928380 0.003726
v 0.115449 2.129330 -0.200197
v -0.111449 2.129330 -0.200197
v 0.115449 1.946930 -0.200197
v -0.111449 1.946930 -0.200197
v 0.115449 2.129330 0.202157
v -0.111449 2.129330 0.202157
v 0.115449 1.946930 0.202157
v -0.111449 1.946930 0.202157
v -0.078000 1.845820 -0.000000
v -0.038000 1.805820 -0.069282
v -0.088045 1.858220 0.011264
v -0.046508 1.858220 -0.055260
v 0.185205 1.945100 0.082679
v 0.047872 1.856540 0.066481
v -0.224897 2.129330 0.000980
v 0.228897 1.946930 0.000980
v 0.228897 2.129330 0.000980
v -0.224897 1.946930 0.000980
v -0.161205 1.945100 0.117320
v -0.172545 1.945100 0.077679
v 0.165205 1.945100 0.117320
v -0.018000 1.945100 -0.190000
v 0.022000 1.945100 -0.200000
v -0.046508 1.863240 0.089094
v -0.127413 1.865100 0.045849
v -0.023000 1.865100 -0.135000
v 0.042000 1.845820 -0.069282
v 0.042000 1.845820 0.069282
v 0.111610 1.859100 0.092151
v 0.027000 1.859100 -0.141000
v 0.082000 1.845820 -0.000000
v 0.136610 1.859100 0.048849
v -0.038000 1.845820 0.069282
v -0.107610 1.859100 0.092151
v 0.025259 1.856540 -0.043953
vt -0.503253 1.234380
vt -0.503253 2.187500
vt -0.475701 1.234380
vt -0.185460 0.765625
vt -0.185460 -0.187500
vt -0.213012 0.765625
vt -0.433694 -0.187500
vt -0.433694 0.765625
vt -0.406142 -0.187500
vt -0.213012 -0.187500
vt -0.475701 2.187500
vt -0.406142 0.765625
vt 0.533385 2.187500
vt 0.533385 1.234380
vt 0.505833 2.187500
vt -0.405510 2.187500
vt -0.405510 1.234380
vt -0.433062 2.187500
vt -0.433062 1.234380
vt 0.505833 1.234380
vt -0.215495 -0.422394
vt -0.024725 -0.313082
vt -0.144774 -0.469264
vt -0.500812 0.575948
vt -0.578779 0.622500
vt -0.519637 0.681605
vt -0.668382 0.675561
vt -0.615456 0.707093
vt -0.222886 -0.341609
vt -1.666740 -0.463392
vt -1.666740 -0.383117
vt -1.590070 -0.445688
vt -0.575576 -0.423379
vt -0.621927 -0.383949
vt -0.570688 -0.381319
vt -0.526039 -0.449715
vt -0.544240 -0.375213
vt -0.575226 -0.482511
vt -0.616598 -0.469800
vt -0.143709 -0.281765
vt -1.602180 1.634880
vt -1.559260 1.585830
vt -1.624780 1.579820
vt -0.638549 -0.417147
vt -0.024271 -0.439320
vt -0.568894 0.676024
vt -1.556770 1.630020
vt -1.498990 1.579820
vt -1.524780 1.539970
vt -1.560400 1.541170
vt -1.606060 1.546340
vt -0.657298 0.605586
vt -0.620328 0.588922
vt 2.049900 2.170880
vt 4.285420 1.731500
vt 2.049900 -0.172475
vt 0.838913 -5.841140
vt 0.760640 -7.078000
vt -0.806135 -5.841140
vt 2.179920 -6.021190
vt 2.286830 -5.883190
vt 3.245630 -7.297190
vt 2.776450 -6.269710
vt 3.818230 -7.561770
vt 0.700765 -8.122250
vt 0.766389 -8.054110
vt 1.261250 -9.036560
vt 6.238220 1.585040
vt 4.285420 0.266903
vt -0.952496 -7.838300
vt -0.933604 -7.384100
vt -0.045937 -7.885570
vt -1.665660 -7.998850
vt -2.241360 -8.853920
vt -1.717800 -7.924580
vt -2.114210 -6.021190
vt -3.110210 -7.297190
vt -2.220990 -5.883190
vt -0.817017 -5.099730
vt -2.759530 -6.269710
vt -3.716300 -7.561770
vt -1.991670 -0.172475
vt 0.029113 -1.344150
vt -0.027044 -7.431370
vt -0.347893 8.653810
vt -0.564626 8.721220
vt 0.374548 8.653810
vt 1.690970 9.250840
vt 2.645830 10.830800
vt 1.411520 9.018240
vt -1.486070 7.574380
vt -2.631270 7.760450
vt -2.825500 8.388080
vt -0.884408 -7.078000
vt -1.794330 -0.074167
vt -2.470940 -0.566195
vt -2.400760 0.283824
vt -1.667800 -6.459570
vt -0.275649 9.413020
vt -0.275649 12.580700
vt 0.302304 9.413020
vt 6.238220 0.413363
vt 2.422270 10.644700
vt 2.347420 15.439900
vt -3.285470 -7.252550
vt -3.047640 -11.560300
vt -2.956080 -0.279803
vt -2.265340 -5.708700
vt -2.546260 -15.104000
vt -3.813390 -5.540390
vt 2.123860 15.253800
vt 0.302304 12.580700
vt -2.077190 16.158899
vt -1.778780 11.549700
vt -2.873350 16.065800
vt 3.308200 -11.560300
vt 3.426540 -7.252550
vt 3.699890 -11.869500
vt -2.656610 0.116713
vt -4.295180 -0.093627
vt -4.335410 -2.771480
vt -1.496000 -7.885570
vt -1.991670 2.170880
vt 0.828031 -5.099730
vt -2.574940 11.456700
vt -5.646270 -2.939760
vt -4.094320 -14.935700
vt -3.478470 -11.869500
vt 3.090730 11.280200
vt 3.055110 11.830400
vt 1.873950 10.267400
vt 2.144680 -10.515800
vt 2.137210 -10.006800
vt 4.489550 -8.832790
vt 1.652530 9.808240
vt 1.652530 9.436850
vt -1.625870 9.808240
vt 0.943009 -8.946900
vt 0.930068 -9.258020
vt -1.677150 -8.812830
vt 1.819000 -9.209260
vt 1.806030 -9.521040
vt 0.339928 -9.337900
vt 1.838330 10.817600
vt -1.625870 9.436850
vt 2.063510 10.795700
vt 2.099060 10.246600
vt -2.545090 10.267900
vt 8.096240 -11.561100
vt 8.062710 -12.682700
vt 0.961642 -12.477000
vt 6.771720 -10.850900
vt -1.625870 11.537900
vt -1.625870 11.909300
vt 1.652530 11.537900
vt 1.862410 13.901900
vt 1.897960 13.352800
vt -2.746190 13.374100
vt 6.805250 -9.729320
vt 0.915721 3.847210
vt 0.987298 3.794270
vt -1.724740 5.405950
vt 0.869802 -10.706900
vt 0.856861 -11.018100
vt -1.750360 -10.572900
vt 1.652530 11.909300
vt -4.359000 11.280200
vt -4.394630 11.830400
vt -0.025744 11.786600
vt -5.611410 10.817600
vt 2.459260 -7.037040
vt 2.451810 -6.529190
vt 4.678470 -8.832810
vt -2.213900 -6.529190
vt -5.575790 10.267400
vt -7.308170 -6.351080
vt -7.274630 -5.229490
vt 1.117420 -7.266990
vt -2.206440 -7.037040
vt -4.660390 -8.324960
vt -4.370040 3.794270
vt -4.441610 3.847210
vt -1.653160 5.353020
vt -4.518030 0.729712
vt 2.493970 -9.402150
vt 2.501430 -9.910010
vt -2.171730 -9.402150
vt 4.720640 -11.705800
vt -4.446450 0.676776
vt -7.497490 -12.682700
vt -7.463950 -11.561100
vt 0.928105 -13.598600
vt -2.164280 -9.910010
vt -4.618230 -11.197900
vt -0.061369 12.336800
vt 4.482090 -8.323860
vt 4.671020 -8.324960
vt -1.690090 -9.123950
vt 1.150960 -6.145370
vt 0.326960 -9.649680
vt -2.509540 9.718860
vt -4.652940 -8.832810
vt -1.763300 -10.884000
vt 4.713190 -11.197900
vt -2.710640 12.825000
vt -4.610770 -11.705800
vt 0.106251 7.760450
vt 0.054353 8.562050
vt 1.537840 8.897990
vt -1.537970 8.375970
vt 0.839311 0.729712
vt 1.097780 3.912950
vt -1.720600 5.537490
vt -1.879870 -0.960675
vt 1.018150 0.663866
vt 5.878510 4.187740
vt 6.248900 -2.323930
vt 5.878510 -2.189340
vt 0.381059 -5.647050
vt 0.381059 7.645450
vt 6.248900 4.322330
vt -4.618620 3.912950
vt -4.698260 0.663866
vt -5.486780 -2.323930
vt -5.120010 -2.189340
vt -5.486780 4.322330
vt -5.120010 4.187740
vt -2.652740 -6.407700
vt 0.029113 3.342560
vt -2.349990 -11.465600
vt -2.332990 -8.843690
vt -1.877560 -0.829035
vt 0.379247 -5.377880
vt 0.379247 7.376280
vt -3.877050 9.885440
vt -4.028280 14.534900
vt -3.729860 9.925740
vt 2.619830 10.644700
vt 1.365890 -9.036560
vt 1.152610 -11.648200
vt -2.744980 8.532500
vt 0.591281 8.721220
vt 2.669540 -6.407700
vt -2.959760 -4.764380
vt -2.686250 -3.766940
vt -2.441860 -5.004410
vt 1.622300 -6.459570
vt -1.857600 -4.150980
vt -3.541250 8.504390
vn -0.743100 -0.000000 -0.669100
vn 0.207900 0.000000 0.978100
vn 0.994500 0.000000 0.104500
vn -0.866000 0.000000 0.500000
vn 0.406700 -0.000000 -0.913500
vn 0.070200 0.991200 -0.112600
vn 0.012600 -0.856500 -0.516000
vn 0.013200 -0.998300 0.057400
vn -0.055600 0.981700 -0.181900
vn 0.768100 -0.617700 -0.168500
vn 0.080100 -0.814000 0.575400
vn 0.755200 -0.607300 0.246800
vn -0.026900 0.474400 0.879900
vn 0.269300 0.953100 -0.138300
vn 0.765600 0.402200 0.502200
vn -0.605900 0.715000 0.348800
vn 0.099000 0.660200 0.744500
vn -0.138600 0.916400 -0.375500
vn -0.021300 -0.999700 -0.013300
vn -0.688500 0.611200 -0.390300
vn -0.614200 0.697100 0.369900
vn -0.681500 -0.595400 -0.425500
vn -0.688200 -0.601300 0.406100
vn 0.072000 -0.812800 -0.578000
vn -0.636800 -0.700000 -0.323100
vn -0.062500 -0.997400 0.034800
vn 0.596900 -0.747800 0.290700
vn -0.639100 -0.697400 0.324400
vn 0.064800 -0.779800 0.622600
vn -0.081400 -0.996700 0.006300
vn 0.315300 -0.895900 -0.313100
vn 0.000000 -0.802700 -0.596400
vn 0.000000 1.000000 0.000000
vn -0.467300 0.037000 0.883400
vn 0.714100 -0.565700 0.412300
vn 0.998600 0.037000 -0.037000
vn 0.000000 -0.565700 -0.824600
vn 0.866000 0.000000 -0.500000
vn 0.531300 0.037000 -0.846400
vn 0.467300 0.037000 0.883400
vn 0.000000 0.000000 1.000000
vn -0.714100 -0.565700 0.412300
vn 0.000000 -1.000000 0.000000
vn 0.000000 0.959600 0.281500
vn 0.000000 0.566500 0.824000
vn -0.516500 -0.802700 0.298200
vn 0.713600 0.566500 -0.412000
vn 0.000000 0.043400 -0.999100
vn -0.865200 0.043400 0.499500
vn -0.866000 0.000000 -0.500000
vn 0.865200 0.043400 0.499500
vn -0.713600 0.566500 -0.412000
vn 0.000000 0.225300 0.974300
vn -0.853800 0.184100 0.487000
vn 0.000000 0.225500 -0.974200
vn 0.856200 0.183500 -0.482900
vn 0.851100 0.184900 0.491400
vn -0.853700 0.184300 -0.487000
vn 0.853800 -0.184100 0.487000
vn 0.000000 -0.225400 0.974300
vn 0.000000 -0.225600 -0.974200
vn -0.856200 -0.183600 -0.482800
vn -0.851100 -0.184900 0.491400
vn 0.853700 -0.184400 -0.487000
vn -0.851300 0.183800 -0.491500
vn 0.000000 0.223300 -0.974700
vn 0.853900 0.183300 0.487100
vn 0.000000 0.223500 0.974700
vn 0.000000 0.223300 -0.974800
vn 0.853900 0.183000 -0.487100
vn -0.856400 0.182500 0.483000
vn -0.000000 0.223600 0.974700
vn -0.853900 -0.183100 -0.487100
vn 0.000000 -0.223400 -0.974700
vn 0.000000 -0.223600 0.974700
vn 0.856400 -0.182600 0.482900
vn 0.851300 -0.183900 -0.491500
vn -0.853900 -0.183300 0.487100
vn -0.859700 0.143300 -0.490400
vn -0.857000 0.144000 0.494800
vn 0.862000 0.143900 0.486100
vn 0.859500 0.144600 -0.490300
vn 0.857100 0.142900 -0.494900
vn 0.859500 0.144400 0.490300
vn -0.861800 0.145000 -0.486000
vn -0.859600 0.143500 0.490300
vn -0.857100 -0.143000 -0.494900
vn -0.859500 -0.144400 0.490300
vn 0.861800 -0.145000 -0.486000
vn 0.859600 -0.143600 0.490300
vn 0.859600 -0.143400 -0.490400
vn 0.857000 -0.144000 0.494800
vn -0.859500 -0.144600 -0.490300
vn -0.862000 -0.144000 0.486100
vn -0.978800 0.000000 -0.204700
vn 0.000000 1.000000 -0.002400
vn 0.002600 1.000000 -0.001400
vn -0.002600 1.000000 -0.001400
vn 0.000000 -1.000000 -0.002400
vn 0.002500 -1.000000 -0.001400
vn -0.002500 -1.000000 -0.001400
vn 0.000000 1.000000 0.002400
vn 0.002600 1.000000 0.001400
vn -0.002600 1.000000 0.001400
vn 0.002600 -1.000000 0.001400
vn 0.000000 -1.000000 0.002400
vn -0.002600 -1.000000 0.001400
vn -0.666700 0.000000 -0.745300
vn 0.243800 0.959600 -0.140800
vn 0.500000 0.000000 -0.866000
vn 0.499200 0.058000 -0.864600
vn -0.003300 1.000000 -0.001900
vn -0.003300 1.000000 0.001900
vn 0.003200 -1.000000 -0.001900
vn 0.003300 -1.000000 0.001900
vn 0.003300 1.000000 -0.001900
vn 0.003300 1.000000 0.001900
vn -0.003200 -1.000000 -0.001900
vn -0.003300 -1.000000 0.001900
vn 0.500000 0.000000 0.866000
vn 0.499200 0.058100 0.864600
vn -0.500000 0.000000 -0.866000
vn -0.499200 0.058000 -0.864600
vn -0.500000 0.000000 0.866000
vn -0.499200 0.058100 0.864600
vn -1.000000 0.000000 0.000000
vn -0.998300 0.058000 0.000000
vn 1.000000 0.000000 0.000000
vn 0.998300 0.058000 0.000000
vn -0.531300 0.037000 -0.846400
vn -0.633400 0.171300 -0.754600
vn -0.998600 0.037000 -0.037000
vn -0.970200 0.171200 -0.171200
vn 0.970200 0.171200 -0.171200
vn -0.336800 0.171200 0.925900
vn -0.243800 0.959600 -0.140800
vn -0.312100 0.000000 0.950000
vn 0.516500 -0.802700 0.298200
vn 0.978800 0.000000 -0.204700
vn 0.000000 -0.802700 -0.596300
vn 0.633400 0.171300 -0.754600
vn 0.666700 0.000000 -0.745300
vn 0.336800 0.171200 0.925900
vn 0.312100 0.000000 0.950000
usemtl MATERIAL_#370
s off
f 10/1/1 21/2/1 60/3/1
f 22/4/2 9/5/2 61/6/2
f 9/7/3 22/8/3 59/9/3
f 58/10/2 61/6/2 9/5/2
f 11/11/1 60/3/1 21/2/1
f 8/12/3 59/9/3 22/8/3
f 21/13/4 10/14/4 58/15/4
f 59/16/5 8/17/5 11/18/5
f 60/19/5 11/18/5 8/17/5
f 61/20/4 58/15/4 10/14/4
usemtl OC_O_WOOD_01
f 66/21/6 4/22/6 68/23/6
f 4/24/7 103/25/7 67/26/7
f 92/27/8 79/28/8 103/25/8
f 65/29/9 4/22/9 66/21/9
f 64/30/10 62/31/10 4/32/10
f 5/33/11 92/34/11 82/35/11
f 64/36/12 5/33/12 62/37/12
f 65/38/13 66/39/13 5/33/13
f 64/40/14 4/22/14 65/29/14
f 5/33/15 64/36/15 65/38/15
f 66/41/16 6/42/16 7/43/16
f 7/44/17 5/33/17 66/39/17
f 68/23/18 4/22/18 67/45/18
f 79/28/19 80/46/19 103/25/19
f 68/47/20 67/48/20 6/42/20
f 68/47/21 6/42/21 66/41/21
f 6/42/22 80/49/22 79/50/22
f 79/50/23 92/51/23 6/42/23
f 67/26/24 103/25/24 80/46/24
f 67/48/25 80/49/25 6/42/25
f 82/52/26 92/27/26 62/53/26
f 82/35/27 62/37/27 5/33/27
f 7/43/28 6/42/28 92/51/28
f 7/44/29 92/34/29 5/33/29
f 62/53/30 92/27/30 103/25/30
f 4/24/31 62/53/31 103/25/31
usemtl OC_O_SIMPLEMETAL_01
f 78/54/32 18/55/32 17/56/32
f 96/57/33 95/58/33 101/59/33
f 30/60/34 97/61/34 32/62/34
f 100/63/35 81/64/35 97/61/35
f 2/65/36 98/66/36 13/67/36
f 18/55/37 24/68/37 98/69/37
f 99/70/38 14/71/38 95/72/38
f 12/73/39 1/74/39 100/75/39
f 16/76/40 15/77/40 102/78/40
f 101/59/41 3/79/41 96/57/41
f 20/80/42 102/78/42 26/81/42
f 17/56/43 31/82/43 78/54/43
f 14/83/43 31/82/43 17/56/43
f 17/84/38 95/72/38 14/71/38
f 94/85/44 63/86/44 2/87/44
f 2/88/45 13/89/45 94/90/45
f 19/91/46 3/92/46 20/93/46
f 63/94/33 101/59/33 95/58/33
f 93/95/47 88/96/47 16/97/47
f 77/98/33 101/59/33 63/94/33
f 24/99/48 27/100/48 91/101/48
f 91/102/37 98/69/37 24/68/37
f 90/103/45 94/90/45 13/89/45
f 13/89/41 23/104/41 90/103/41
f 87/105/49 25/106/49 26/81/49
f 26/81/42 102/78/42 87/105/42
f 15/107/47 16/97/47 88/96/47
f 88/108/38 33/109/38 15/110/38
f 27/111/41 90/103/41 23/104/41
f 23/112/48 91/101/48 27/100/48
f 28/113/50 1/114/50 29/115/50
f 29/116/51 89/117/51 28/118/51
f 12/119/52 30/120/52 1/121/52
f 99/70/33 95/72/33 96/122/33
f 3/123/43 78/54/43 31/82/43
f 31/124/41 96/57/41 3/79/41
f 32/125/50 29/115/50 1/114/50
f 1/121/52 30/120/52 32/126/52
f 89/117/35 97/61/35 81/64/35
f 81/64/51 28/118/51 89/117/51
f 25/127/38 15/110/38 33/109/38
f 33/128/49 26/81/49 25/106/49
f 37/129/53 35/130/53 36/131/53
f 35/132/54 37/133/54 34/134/54
f 35/135/55 71/136/55 39/137/55
f 71/138/56 35/139/56 84/140/56
f 36/141/57 39/142/57 38/143/57
f 39/144/53 36/131/53 35/130/53
f 72/145/55 39/137/55 71/136/55
f 39/146/58 72/147/58 55/148/58
f 43/149/59 41/150/59 57/151/59
f 41/150/60 43/149/60 40/152/60
f 43/153/61 70/154/61 45/155/61
f 70/156/62 43/157/62 83/158/62
f 45/159/60 40/152/60 43/149/60
f 40/160/63 45/161/63 44/162/63
f 45/163/64 69/164/64 56/165/64
f 69/166/61 45/155/61 70/154/61
f 48/167/65 46/168/65 54/169/65
f 46/168/66 48/167/66 49/170/66
f 46/171/67 75/172/67 34/173/67
f 75/172/68 46/171/68 76/174/68
f 47/175/69 49/170/69 48/167/69
f 49/176/70 47/177/70 55/178/70
f 76/174/71 49/179/71 86/180/71
f 49/179/72 76/174/72 46/171/72
f 52/181/73 50/182/73 56/183/73
f 50/182/74 52/181/74 51/184/74
f 52/185/75 73/186/75 53/187/75
f 73/186/76 52/185/76 85/188/76
f 53/189/74 51/184/74 52/181/74
f 51/190/77 53/191/77 42/192/77
f 53/187/78 74/193/78 57/194/78
f 74/193/75 53/187/75 73/186/75
f 34/195/79 54/169/79 46/168/79
f 54/196/80 34/134/80 37/133/80
f 84/197/81 34/173/81 75/172/81
f 34/198/82 84/140/82 35/139/82
f 38/199/83 55/178/83 47/177/83
f 55/200/84 38/143/84 39/142/84
f 86/201/85 55/148/85 72/147/85
f 55/202/86 86/180/86 49/179/86
f 44/162/87 56/183/87 50/182/87
f 56/183/88 44/162/88 45/161/88
f 85/203/89 56/165/89 69/164/89
f 56/204/90 85/188/90 52/185/90
f 57/151/91 42/192/91 53/191/91
f 42/192/92 57/151/92 41/150/92
f 57/205/93 83/158/93 43/157/93
f 83/206/94 57/194/94 74/193/94
f 78/207/95 63/208/95 18/209/95
f 63/208/50 78/207/50 77/210/50
f 41/211/96 40/160/96 69/212/96
f 69/212/97 40/160/97 85/213/97
f 83/214/98 41/211/98 70/215/98
f 70/215/96 41/211/96 69/212/96
f 36/216/99 71/217/99 37/218/99
f 71/217/100 84/219/100 37/218/100
f 86/220/101 72/221/101 36/216/101
f 72/221/99 71/217/99 36/216/99
f 51/184/102 73/222/102 50/182/102
f 73/222/103 85/213/103 50/182/103
f 83/214/104 74/223/104 51/184/104
f 74/223/102 73/222/102 51/184/102
f 84/219/105 75/224/105 48/225/105
f 75/224/106 76/226/106 48/225/106
f 48/225/106 76/226/106 47/227/106
f 76/226/107 86/220/107 47/227/107
f 19/91/108 20/93/108 77/210/108
f 77/98/109 93/228/109 101/59/109
f 19/229/43 78/54/43 3/123/43
f 19/91/50 77/210/50 78/207/50
f 1/74/110 28/230/110 81/231/110
f 81/231/111 100/75/111 1/74/111
f 42/232/112 41/211/112 83/214/112
f 42/232/113 83/214/113 51/184/113
f 37/218/114 84/219/114 54/233/114
f 54/233/115 84/219/115 48/225/115
f 40/160/116 44/162/116 85/213/116
f 44/162/117 50/182/117 85/213/117
f 38/234/118 86/220/118 36/216/118
f 38/234/119 47/227/119 86/220/119
f 15/77/120 25/106/120 87/105/120
f 87/105/121 102/78/121 15/77/121
f 26/235/122 33/236/122 88/237/122
f 88/237/123 20/93/123 26/235/123
f 89/117/124 29/116/124 32/62/124
f 32/62/125 97/61/125 89/117/125
f 90/103/126 27/111/126 24/238/126
f 24/238/127 18/209/127 90/103/127
f 91/239/128 23/240/128 13/67/128
f 13/67/129 98/66/129 91/239/129
f 93/241/130 20/93/130 88/237/130
f 93/241/131 77/210/131 20/93/131
f 94/90/132 90/103/132 18/209/132
f 18/209/133 63/208/133 94/90/133
f 2/65/134 95/72/134 98/66/134
f 95/242/44 2/87/44 63/86/44
f 30/60/135 96/57/135 97/61/135
f 12/243/136 96/57/136 30/60/136
f 31/124/137 97/61/137 96/57/137
f 97/244/138 31/245/138 100/246/138
f 17/84/139 98/66/139 95/72/139
f 98/69/140 17/56/140 18/55/140
f 99/247/136 96/57/136 12/243/136
f 100/75/141 99/70/141 12/73/141
f 14/71/142 99/70/142 100/75/142
f 14/248/138 100/246/138 31/245/138
f 16/76/109 101/59/109 93/228/109
f 102/78/143 101/59/143 16/76/143
f 3/79/144 101/59/144 102/78/144
f 20/93/46 3/92/46 102/249/46
