# Blender v2.75 (sub 0) OBJ File: 'Empty.blend'
# www.blender.org
mtllib HUM_HEAD_PYMONTE.mtl
o HUM_HEAD_PYMONTE
v 0.062278 0.011484 -0.120193
v 0.031445 0.000003 0.058627
v 0.192985 -0.000000 0.062785
v 0.193444 -0.034469 -0.094135
v 0.019002 -0.014803 -0.133951
v 0.111551 -0.096602 0.026550
v 0.005178 0.061209 -0.044690
v 0.075841 0.000000 -0.147633
v 0.054040 -0.000044 -0.077214
v 0.054528 -0.025756 -0.123593
v 0.005178 -0.061201 -0.044690
v 0.111551 0.096601 0.026551
v 0.193634 0.035345 -0.094187
v 0.056840 0.011484 -0.120291
v 0.059866 0.028842 -0.094616
v 0.040333 0.011484 -0.120170
v 0.056840 -0.012132 -0.120292
v 0.059866 -0.029490 -0.094617
v 0.040333 -0.012132 -0.120170
v 0.013562 0.048821 -0.109333
v 0.045273 -0.029490 -0.091659
v 0.045273 0.028842 -0.091659
v 0.062278 -0.012132 -0.120193
v 0.061151 0.028842 -0.096831
v 0.048616 0.011484 -0.124240
v 0.061151 -0.029490 -0.096831
v 0.048615 -0.012132 -0.124240
v 0.047091 -0.029490 -0.097861
v 0.047091 0.028842 -0.097861
v 0.054533 0.025648 -0.123569
v 0.212078 0.042139 -0.024803
v 0.039823 -0.000115 -0.117532
v 0.158933 0.066258 0.055361
v 0.219931 -0.000000 -0.059564
v 0.158932 -0.066780 0.055361
v 0.212078 -0.042139 -0.024803
v 0.096530 0.000003 0.084243
v 0.048401 -0.074147 0.011335
v 0.122896 -0.082070 0.022532
v 0.048401 0.074147 0.011335
v 0.122896 0.082070 0.022533
v 0.013556 -0.048998 -0.109335
v 0.058941 -0.029863 -0.095294
v 0.054670 -0.008230 -0.130976
v 0.072273 0.021198 -0.125374
v 0.127685 0.000006 -0.111158
v 0.072264 -0.021200 -0.125376
v 0.003890 0.020097 -0.124283
v -0.010607 0.000004 -0.046768
v 0.140135 -0.046748 -0.102493
v 0.124090 -0.055780 -0.086675
v 0.220448 -0.000000 -0.003386
v 0.095472 -0.006263 -0.147438
v 0.095426 0.006209 -0.147441
v 0.058943 0.029765 -0.095282
v 0.039447 -0.000080 -0.087972
v 0.046025 0.027135 -0.101926
v 0.046022 -0.027225 -0.101935
v 0.054672 0.008141 -0.130964
v 0.105941 -0.040509 0.071430
v 0.105941 0.040510 0.071430
v 0.019135 0.013361 -0.133899
v 0.007452 0.044871 -0.003677
v 0.048527 0.073723 -0.031247
v 0.055804 0.084051 -0.000055
v 0.003878 -0.019903 -0.124286
v 0.123456 0.055947 -0.090078
v 0.140135 0.046755 -0.102493
v 0.055804 -0.084051 -0.000055
v 0.048551 -0.073723 -0.031432
v 0.007452 -0.044835 -0.003677
v 0.123896 0.082386 -0.013167
v 0.123896 -0.082412 -0.013167
v 0.191857 0.057578 0.027561
v 0.033520 0.039250 0.042863
v 0.033521 -0.039245 0.042863
v 0.054781 0.010687 -0.130466
v 0.192773 -0.057532 0.020601
v 0.146774 -0.000000 0.083026
v 0.175065 0.066233 -0.026302
v 0.121581 0.095079 0.010102
v 0.121581 -0.095080 0.010102
v 0.175016 -0.066234 -0.025929
v 0.106003 -0.047831 -0.101573
v 0.138791 0.000003 -0.114543
v 0.126306 -0.010920 -0.102272
v 0.106004 0.048016 -0.101572
v 0.126306 0.010931 -0.102272
v 0.059732 0.005869 -0.133257
v 0.059727 -0.005969 -0.133261
v 0.111726 -0.019301 -0.101691
v 0.169730 -0.054332 -0.077617
v 0.054926 -0.010675 -0.130483
v 0.111262 0.019407 -0.101752
v 0.169731 0.054537 -0.077617
v 0.049795 0.018979 -0.123123
v 0.041951 0.009593 -0.128995
v 0.110667 0.043070 -0.096651
v 0.041952 -0.010677 -0.128995
v 0.061136 0.027195 -0.099009
v 0.061134 -0.027293 -0.099021
v 0.070447 -0.000001 -0.129959
v 0.111127 -0.042991 -0.096590
v 0.131067 -0.041199 -0.095166
v 0.131067 0.041293 -0.095166
v 0.050105 -0.011744 -0.131547
v 0.050032 0.011208 -0.131539
v 0.049791 -0.019060 -0.123129
v 0.131231 -0.021856 -0.100591
v 0.131232 0.021878 -0.100591
v 0.058370 0.052728 -0.097783
v 0.058369 -0.053285 -0.097783
vt 0.152602 0.896055
vt 0.005012 0.999500
vt 0.005012 0.920381
vt 0.869373 0.100636
vt 0.847622 0.281751
vt 0.769103 0.258631
vt 0.241320 0.258630
vt 0.383359 0.233227
vt 0.396023 0.393456
vt 0.614301 0.393459
vt 0.782986 0.586683
vt 0.450888 0.190603
vt 0.559058 0.190638
vt 0.625864 0.233227
vt 0.076070 0.236480
vt 0.140588 0.100635
vt 0.162402 0.281751
vt 0.005012 0.736645
vt 0.113763 0.772579
vt 0.257939 0.068258
vt -0.130627 0.100636
vt 0.505551 0.000500
vt 0.454173 0.423927
vt 0.468145 0.307474
vt 0.397443 0.067698
vt 0.463551 0.018559
vt 1.005010 0.999500
vt 0.869077 0.896056
vt 1.005010 0.920381
vt 0.896871 0.772580
vt 1.005010 0.736645
vt 0.429348 0.818596
vt 0.505012 0.583027
vt 0.582240 0.819369
vt 0.369327 0.727714
vt 0.256619 0.795285
vt 0.227046 0.586683
vt 0.529490 0.077592
vt 0.612302 0.067725
vt 0.525096 0.134538
vt 0.546860 0.018613
vt 0.477951 0.077006
vt 0.482819 0.134540
vt 0.505010 0.306923
vt 0.516526 0.207192
vt 0.541876 0.307514
vt 0.640995 0.727715
vt 0.752500 0.795286
vt 0.505012 0.966113
vt 0.944220 0.557916
vt 0.842320 0.602294
vt 0.738490 0.952289
vt 0.167704 0.602294
vt 0.065801 0.557916
vt 0.271534 0.952289
vt 0.933944 0.236480
vt 0.171867 0.556658
vt 0.820246 0.306664
vt 0.815531 0.589841
vt 0.838157 0.556659
vt 0.493424 0.207171
vt 0.557881 0.421934
vt 0.514554 0.373620
vt 0.524732 0.488125
vt 0.495377 0.373818
vt 0.479998 0.488125
vt 0.505012 0.310200
vt 0.752085 0.068259
vt 0.413680 0.585165
vt 0.380550 0.518073
vt 0.402416 0.539831
vt 0.460943 0.549587
vt 0.504969 0.489008
vt 0.005011 0.525326
vt 0.005007 0.236480
vt 1.005010 0.525326
vt 1.005010 0.236480
vt 0.636433 0.513506
vt 0.596344 0.585165
vt 0.602754 0.539831
vt 0.550967 0.549588
vt 0.189777 0.306663
vt 0.194493 0.589840
vt 0.397870 0.433894
vt 0.607269 0.431919
vt 0.521434 0.187119
vt 0.488538 0.187101
vt 0.483573 0.188458
vt 0.546210 0.170896
vt 0.463775 0.170874
vt 0.526605 0.187853
vt 0.527535 0.167220
vt 0.481555 0.167523
vt 0.578509 0.208069
vt 0.524125 0.182026
vt 0.524761 0.114978
vt 0.473985 0.114978
vt 0.474653 0.182026
vt 0.420133 0.208068
vt 0.414577 0.150323
vt 0.584007 0.150323
vt 0.475440 0.146474
vt 0.523374 0.146474
vt 0.523959 0.204186
vt 0.576057 0.212109
vt 0.474827 0.204186
vt 0.422614 0.212108
vt 0.421775 0.154396
vt 0.576885 0.154397
vt 0.499930 0.193698
vt 0.570259 0.210884
vt 0.515381 0.167501
vt 0.429654 0.210867
vt 0.499819 0.128611
vt 0.499804 0.114317
vt 0.569285 0.147887
vt 0.538518 0.151869
vt 0.461432 0.151847
vt 0.430644 0.147868
vt 0.484558 0.167484
vt 0.449249 0.170858
vt 0.550666 0.170891
vt 0.419881 0.203945
vt 0.580034 0.203962
vn 0.888400 -0.273600 0.368700
vn -0.579200 0.815100 -0.009800
vn 0.087000 -0.955600 -0.281500
vn -0.021300 0.933300 -0.358500
vn 0.020000 -0.682300 -0.730800
vn 0.010500 0.688800 -0.724900
vn -0.624500 -0.653100 0.428300
vn 0.383600 -0.293000 0.875800
vn 0.071300 0.954200 -0.290500
vn -0.817500 -0.192400 0.542900
vn 0.515400 -0.106900 -0.850200
vn 0.076900 -0.608500 -0.789800
vn -0.212200 -0.954900 -0.207800
vn -0.960900 -0.251700 -0.114900
vn 0.895500 0.244900 0.371700
vn 0.383300 0.295100 0.875200
vn 0.348900 -0.001600 -0.937200
vn 0.237600 -0.941000 -0.241000
vn 0.261600 0.577100 -0.773700
vn -0.983000 0.000300 -0.183800
vn 0.211100 0.000000 -0.977500
vn 0.371800 0.165500 -0.913400
vn 0.235900 0.941900 -0.239200
vn 0.795100 -0.002600 -0.606500
vn -0.198800 0.779700 0.593800
vn 0.347900 0.935000 0.068400
vn 0.880400 0.388500 -0.272100
vn 0.913200 0.313600 0.260200
vn 0.342000 -0.937700 0.061400
vn -0.207400 -0.779700 0.590800
vn 0.906000 -0.320500 0.276600
vn 0.876000 -0.393400 -0.279000
vn -0.270300 0.706300 0.654200
vn -0.270400 -0.706300 0.654200
vn -0.173400 -0.779300 0.602200
vn -0.579600 -0.814900 -0.010100
vn 0.305700 -0.952000 0.017700
vn -0.104300 0.339900 0.934700
vn -0.173400 0.779300 0.602200
vn -0.114900 0.950700 -0.288000
vn 0.305000 0.952200 0.017000
vn -0.104300 -0.339900 0.934700
vn 0.270400 -0.590500 -0.760400
vn -0.538500 0.000200 -0.842600
vn 0.024000 -0.444000 -0.895700
vn 0.072500 0.609500 -0.789500
vn 0.020200 0.444100 -0.895800
vn 0.518900 0.100700 -0.848900
vn 0.300300 0.905500 -0.300000
vn 0.299800 -0.906200 -0.298100
vn -0.946500 0.144000 -0.288800
vn -0.895100 0.401900 -0.193100
vn -0.282200 0.516000 -0.808800
vn -0.958600 0.242200 0.149600
vn -0.961000 0.251700 -0.114500
vn 0.203900 -0.238800 -0.949400
vn 0.096900 -0.935800 -0.338800
vn 0.109500 -0.906900 -0.406800
vn -0.685000 -0.191300 -0.702900
vn 0.981700 -0.190400 -0.009000
vn 0.981700 0.190400 -0.009000
vn 0.747600 0.002600 -0.664200
vn -0.213300 -0.690100 -0.691600
vn 0.009900 -0.000200 -1.000000
vn -0.212100 0.690500 -0.691600
vn 0.294300 0.000200 -0.955700
vn 0.099600 -0.365300 0.925600
vn -0.342400 -0.354700 0.870000
vn 0.101900 0.367300 0.924500
vn -0.342400 0.354700 0.870000
vn -0.532200 0.004100 -0.846600
vn 0.210300 0.000800 -0.977600
vn -0.624200 0.653300 0.428500
vn -0.933200 0.000000 0.359400
vn -0.360500 0.859500 0.362400
vn -0.210400 0.954700 -0.210200
vn -0.805500 0.592600 -0.008300
vn -0.393300 0.804900 0.444300
vn -0.330900 -0.516000 -0.790100
vn -0.897700 -0.396900 -0.191300
vn 0.115700 0.939100 -0.323500
vn 0.198600 0.239300 -0.950400
vn 0.148500 0.879700 -0.451800
vn -0.683900 0.190900 -0.704100
vn -0.393300 -0.804900 0.444300
vn -0.020100 -0.932500 -0.360700
vn -0.115200 -0.951100 -0.286400
vn -0.805700 -0.592300 -0.008700
vn -0.359200 -0.859800 0.363000
vn -0.998500 0.000000 0.055400
vn 0.991400 0.127800 0.028900
vn 0.013700 0.878400 -0.477800
vn 0.991400 -0.127900 0.029000
vn 0.014300 -0.878800 -0.477000
vn 0.649700 0.405900 0.642700
vn 0.300900 0.951800 0.059100
vn -0.347100 0.365300 0.863800
vn -0.833400 0.243400 0.496200
vn -0.347100 -0.365300 0.863800
vn -0.833500 -0.243300 0.496100
vn -0.099300 0.387500 -0.916500
vn 0.703100 -0.422200 0.572200
vn 0.316600 -0.946900 0.056300
vn 0.023100 0.296600 0.954700
vn 0.023100 -0.296600 0.954700
vn 0.536400 0.809100 -0.240200
vn 0.546200 0.836900 -0.035800
vn 0.767200 0.481900 0.423200
vn -0.136700 0.975300 -0.173600
vn 0.767200 -0.481900 0.423200
vn -0.136700 -0.975300 -0.173600
vn 0.534100 -0.810300 -0.241200
vn 0.545400 -0.836600 -0.051700
vn -0.131200 -0.932000 -0.338000
vn 0.088600 -0.211800 -0.973300
vn -0.698600 -0.197300 -0.687700
vn -0.698500 0.197400 -0.687900
vn -0.234300 -0.595400 -0.768500
vn 0.685200 -0.509700 -0.520300
vn -0.211700 0.924600 -0.316600
vn 0.089300 0.212000 -0.973200
vn -0.234100 0.595500 -0.768500
vn 0.684200 0.510200 -0.521100
vn -0.412600 0.000500 -0.910900
vn -0.236900 0.376400 -0.895600
vn -0.412000 0.000700 -0.911200
vn -0.236900 -0.375500 -0.896000
vn 0.386100 -0.712300 -0.586200
vn 0.018900 -0.270100 -0.962600
vn 0.524700 -0.819100 -0.231700
vn 0.268300 -0.784900 -0.558500
vn 0.820000 -0.000200 0.572400
vn -0.089600 -0.401300 -0.911600
vn 0.384500 0.718000 -0.580200
vn 0.022700 0.269200 -0.962800
vn 0.514700 0.829200 -0.218000
vn 0.255000 0.794000 -0.551800
vn 0.830100 0.005200 0.557700
vn 0.552300 -0.341500 0.760500
vn -0.349200 0.533900 -0.770100
vn -0.300300 -0.000000 -0.953800
vn 0.601200 -0.202400 -0.773100
vn 0.788100 0.148600 -0.597400
vn -0.298800 -0.000600 -0.954300
vn -0.314800 -0.541800 -0.779300
vn -0.946500 -0.143600 -0.288900
vn 0.373300 -0.165400 -0.912900
vn 0.760100 -0.155100 -0.631000
vn 0.654600 0.080800 -0.751600
vn 0.108100 -0.538400 -0.835700
vn -0.665000 -0.111800 -0.738400
vn -0.611900 -0.043600 -0.789700
vn 0.099600 0.372100 -0.922800
vn 0.281800 -0.404900 -0.869900
vn 0.215000 0.002200 -0.976600
vn 0.220500 0.001000 -0.975400
vn 0.243600 0.409400 -0.879300
vn 0.548900 0.335300 0.765700
vn -0.488300 -0.343200 -0.802300
vn 0.038200 -0.135000 -0.990100
vn -0.488400 0.343000 -0.802400
vn 0.041000 0.133600 -0.990200
vn -0.005400 0.953400 -0.301600
vn 0.128700 0.674200 -0.727200
vn 0.124800 -0.669300 -0.732400
vn -0.014900 -0.955000 -0.296400
vn -0.004100 0.828700 -0.559700
vn 0.004100 -0.828700 0.559700
vn -0.007300 0.000000 -1.000000
vn -0.007400 0.000000 -1.000000
vn -0.004100 -0.828700 -0.559700
vn 0.004100 0.828700 0.559700
vn -0.102200 -0.857400 -0.504300
vn 0.102200 0.857400 0.504300
vn -0.102200 0.857500 -0.504300
vn 0.102200 -0.857500 0.504300
vn 0.284000 -0.000000 -0.958800
vn 0.172400 0.794600 -0.582100
vn -0.172400 -0.794600 0.582100
vn 0.172400 -0.794600 -0.582100
vn -0.172400 0.794600 0.582100
vn 0.040100 -0.835800 -0.547600
vn -0.040100 0.835800 0.547600
vn 0.040100 0.835800 -0.547600
vn -0.040100 -0.835800 0.547600
vn -0.979300 0.133600 -0.151900
vn -0.982100 0.000000 -0.188300
vn -0.816900 0.000000 0.576800
vn -0.979400 -0.135200 -0.149700
vn 0.973400 -0.228800 0.012600
vn -0.419700 -0.739700 0.526000
vn 0.489300 -0.000200 0.872100
vn 0.973200 0.229500 0.012100
vn -0.358100 0.768200 0.530700
vn 0.877900 0.373300 0.299900
vn -0.956900 0.119300 0.264700
vn -0.956900 -0.119500 0.264800
vn 0.878900 -0.371400 0.299200
vn 0.511200 0.505500 -0.695100
vn 0.512900 -0.505100 -0.694100
vn 0.475600 -0.489700 -0.730800
vn 0.137600 -0.983000 0.121600
vn 0.475500 0.490700 -0.730100
vn 0.138500 0.982900 0.121100
vn -0.817100 -0.000300 0.576400
vn 0.776800 -0.529000 0.341700
vn -0.889700 -0.120600 -0.440400
vn -0.577600 -0.790200 0.205100
vn -0.577900 0.790000 0.204800
vn -0.889700 0.120700 -0.440300
vn 0.778300 0.527000 0.341400
usemtl FACE
s off
f 78/1/1 52/2/1 3/3/1
f 63/4/2 40/5/2 64/6/2
f 70/7/3 112/8/3 84/9/3
f 87/10/4 64/6/4 72/11/4
f 112/8/5 10/12/5 84/9/5
f 30/13/6 111/14/6 87/10/6
f 76/15/7 71/16/7 38/17/7
f 79/18/8 35/19/8 3/3/8
f 64/6/9 87/10/9 111/14/9
f 11/20/10 63/21/10 49/22/10
f 91/23/11 84/9/11 47/24/11
f 47/24/12 84/9/12 10/12/12
f 42/25/13 70/7/13 11/20/13
f 66/26/14 11/20/14 49/22/14
f 52/27/15 74/28/15 3/29/15
f 33/30/16 79/31/16 3/29/16
f 4/32/17 85/33/17 13/34/17
f 92/35/18 83/36/18 73/37/18
f 62/38/19 20/39/19 97/40/19
f 49/22/20 48/41/20 66/26/20
f 5/42/21 97/40/21 99/43/21
f 102/44/22 89/45/22 45/46/22
f 95/47/23 72/11/23 80/48/23
f 4/32/24 13/34/24 34/49/24
f 61/50/25 33/30/25 41/51/25
f 41/51/26 33/30/26 80/48/26
f 34/49/27 13/34/27 31/52/27
f 74/28/28 52/27/28 31/52/28
f 35/19/29 39/53/29 83/36/29
f 60/54/30 39/53/30 35/19/30
f 52/2/31 78/1/31 36/55/31
f 34/49/32 36/55/32 4/32/32
f 75/56/33 61/50/33 40/5/33
f 60/54/34 76/15/34 38/17/34
f 39/53/35 60/54/35 38/17/35
f 38/17/36 71/16/36 70/7/36
f 83/36/37 39/53/37 73/37/37
f 39/53/38 38/17/38 6/57/38
f 61/50/39 41/51/39 40/5/39
f 65/58/40 81/59/40 64/6/40
f 41/51/41 80/48/41 72/11/41
f 40/5/42 41/51/42 12/60/42
f 42/25/43 5/42/43 99/43/43
f 48/41/44 5/42/44 66/26/44
f 47/24/45 10/12/45 90/61/45
f 87/10/46 45/46/46 30/13/46
f 30/13/47 45/46/47 89/45/47
f 94/62/48 45/46/48 87/10/48
f 54/63/49 45/46/49 88/64/49
f 53/65/50 86/66/50 47/24/50
f 8/67/51 102/44/51 45/46/51
f 7/68/52 20/39/52 48/41/52
f 48/41/53 20/39/53 62/38/53
f 49/22/54 63/4/54 7/68/54
f 7/68/55 48/41/55 49/22/55
f 50/69/56 85/33/56 4/32/56
f 92/35/57 73/37/57 51/70/57
f 51/70/58 50/69/58 92/35/58
f 50/69/59 104/71/59 109/72/59
f 36/55/60 34/49/60 52/2/60
f 52/2/61 34/49/61 31/52/61
f 54/63/62 46/73/62 53/65/62
f 8/67/63 53/65/63 47/24/63
f 8/67/64 54/63/64 53/65/64
f 45/46/65 54/63/65 8/67/65
f 102/44/66 90/61/66 89/45/66
f 79/18/67 60/54/67 35/19/67
f 37/74/68 2/75/68 60/54/68
f 61/50/69 79/31/69 33/30/69
f 37/76/70 61/50/70 2/77/70
f 62/38/71 5/42/71 48/41/71
f 97/40/72 5/42/72 62/38/72
f 63/4/73 75/56/73 40/5/73
f 2/75/74 63/21/74 71/16/74
f 7/68/75 63/4/75 64/6/75
f 64/6/76 20/39/76 7/68/76
f 65/58/77 64/6/77 40/5/77
f 40/5/78 12/60/78 65/58/78
f 42/25/79 66/26/79 5/42/79
f 42/25/80 11/20/80 66/26/80
f 95/47/81 67/78/81 72/11/81
f 85/33/82 68/79/82 13/34/82
f 68/79/83 67/78/83 95/47/83
f 105/80/84 68/79/84 110/81/84
f 6/57/85 38/17/85 69/82/85
f 70/7/86 84/9/86 73/37/86
f 69/82/87 70/7/87 82/83/87
f 70/7/88 69/82/88 38/17/88
f 71/16/89 11/20/89 70/7/89
f 71/16/90 63/21/90 11/20/90
f 72/11/91 81/59/91 41/51/91
f 64/6/92 81/59/92 72/11/92
f 82/83/93 73/37/93 39/53/93
f 82/83/94 70/7/94 73/37/94
f 3/29/95 74/28/95 33/30/95
f 33/30/96 74/28/96 80/48/96
f 2/77/97 61/50/97 75/56/97
f 63/4/98 2/77/98 75/56/98
f 60/54/99 2/75/99 76/15/99
f 2/75/100 71/16/100 76/15/100
f 97/40/101 20/39/101 30/13/101
f 78/1/102 3/3/102 35/19/102
f 35/19/103 83/36/103 78/1/103
f 61/50/104 37/76/104 79/31/104
f 37/74/105 60/54/105 79/18/105
f 95/47/106 80/48/106 31/52/106
f 74/28/107 31/52/107 80/48/107
f 81/59/108 12/60/108 41/51/108
f 65/58/109 12/60/109 81/59/109
f 6/57/110 82/83/110 39/53/110
f 6/57/111 69/82/111 82/83/111
f 83/36/112 92/35/112 36/55/112
f 36/55/113 78/1/113 83/36/113
f 84/9/114 51/70/114 73/37/114
f 91/23/115 104/71/115 103/84/115
f 109/72/116 85/33/116 50/69/116
f 85/33/117 110/81/117 68/79/117
f 46/73/118 85/33/118 86/66/118
f 46/73/119 86/66/119 53/65/119
f 72/11/120 67/78/120 87/10/120
f 105/80/121 94/62/121 98/85/121
f 85/33/122 46/73/122 88/64/122
f 54/63/123 88/64/123 46/73/123
f 89/45/124 90/61/124 59/86/124
f 89/45/125 59/86/125 30/13/125
f 90/61/126 44/87/126 59/86/126
f 44/87/127 90/61/127 10/12/127
f 86/66/128 91/23/128 47/24/128
f 109/72/129 104/71/129 91/23/129
f 92/35/130 4/32/130 36/55/130
f 4/32/131 92/35/131 50/69/131
f 93/88/132 96/89/132 108/90/132
f 99/43/133 10/12/133 42/25/133
f 94/62/134 88/64/134 45/46/134
f 110/81/135 94/62/135 105/80/135
f 13/34/136 95/47/136 31/52/136
f 95/47/137 13/34/137 68/79/137
f 93/88/138 77/91/138 96/89/138
f 96/89/139 77/91/139 30/13/139
f 107/92/140 97/40/140 30/13/140
f 99/43/141 97/40/141 107/92/141
f 98/85/142 87/10/142 67/78/142
f 98/85/143 94/62/143 87/10/143
f 99/43/144 107/92/144 106/93/144
f 10/12/145 99/43/145 106/93/145
f 8/67/146 47/24/146 102/44/146
f 47/24/147 90/61/147 102/44/147
f 91/23/148 103/84/148 84/9/148
f 84/9/149 103/84/149 51/70/149
f 104/71/150 51/70/150 103/84/150
f 50/69/151 51/70/151 104/71/151
f 67/78/152 68/79/152 105/80/152
f 67/78/153 105/80/153 98/85/153
f 10/12/154 106/93/154 93/88/154
f 77/91/155 93/88/155 106/93/155
f 77/91/156 106/93/156 107/92/156
f 77/91/157 107/92/157 30/13/157
f 93/88/158 108/90/158 10/12/158
f 109/72/159 86/66/159 85/33/159
f 86/66/160 109/72/160 91/23/160
f 88/64/161 110/81/161 85/33/161
f 110/81/162 88/64/162 94/62/162
f 20/39/163 64/6/163 111/14/163
f 20/39/164 111/14/164 30/13/164
f 42/25/165 10/12/165 112/8/165
f 112/8/166 70/7/166 42/25/166
usemtl TEETH_V0
f 15/94/167 14/95/167 16/96/167
f 14/95/168 15/94/168 16/96/168
f 19/97/169 16/96/169 14/95/169
f 14/95/170 17/98/170 19/97/170
f 19/97/171 17/98/171 18/99/171
f 17/98/172 19/97/172 18/99/172
f 18/99/173 21/100/173 19/97/173
f 21/100/174 18/99/174 19/97/174
f 16/96/175 22/101/175 15/94/175
f 22/101/176 16/96/176 15/94/176
f 27/102/177 25/103/177 1/104/177
f 24/105/178 1/104/178 25/103/178
f 1/104/179 24/105/179 25/103/179
f 1/104/177 23/106/177 27/102/177
f 27/102/180 23/106/180 26/107/180
f 23/106/181 27/102/181 26/107/181
f 26/107/182 28/108/182 27/102/182
f 28/108/183 26/107/183 27/102/183
f 25/103/184 29/109/184 24/105/184
f 29/109/185 25/103/185 24/105/185
usemtl MOUTH
f 1/104/186 9/110/186 100/111/186
f 1/104/187 23/106/187 9/110/187
f 59/112/188 23/106/188 1/104/188
f 9/110/189 23/106/189 101/113/189
f 56/114/190 32/115/190 57/116/190
f 59/112/191 1/104/191 100/111/191
f 96/117/192 32/115/192 108/118/192
f 32/115/193 56/114/193 58/119/193
f 23/106/194 44/120/194 101/113/194
f 32/115/195 58/119/195 108/118/195
f 101/113/196 44/120/196 10/121/196
f 59/112/197 100/111/197 30/122/197
f 57/116/198 32/115/198 96/117/198
f 9/110/199 43/123/199 56/114/199
f 55/124/200 9/110/200 56/114/200
f 56/114/201 57/116/201 55/124/201
f 30/122/202 55/124/202 57/116/202
f 43/123/203 58/119/203 56/114/203
f 10/121/204 58/119/204 43/123/204
f 59/112/205 44/120/205 23/106/205
f 30/122/206 57/116/206 96/117/206
f 100/111/207 9/110/207 55/124/207
f 30/122/208 100/111/208 55/124/208
f 10/121/209 43/123/209 101/113/209
f 101/113/210 43/123/210 9/110/210
f 58/119/211 10/121/211 108/118/211
