# Blender v2.75 (sub 0) OBJ File: 'Empty.blend'
# www.blender.org
mtllib ITAT_CRAWLERQUEEN.mtl
o ITAT_CRAWLERQUEEN
v 0.243972 0.251539 -0.265935
v -0.097153 0.124009 0.303720
v 0.212849 0.039957 0.036429
v -0.112958 0.156619 -0.238535
v -0.052230 -0.018261 0.106262
v 0.198777 0.481460 0.020864
v -0.046796 0.466357 -0.185515
v -0.257623 0.387539 0.166551
v 0.323935 0.207426 -0.108009
v 0.135058 0.351141 0.260634
v 0.204863 0.083347 -0.207091
v -0.262287 0.326704 -0.073294
v -0.069624 0.527467 0.087023
v -0.176677 0.026300 0.001235
v -0.032723 0.024854 -0.169951
v -0.221872 0.256221 0.288035
v -0.056263 0.315437 0.336488
v 0.078362 0.192323 -0.314388
v 0.074329 0.526021 -0.084163
v -0.190750 0.467803 -0.014329
v 0.194112 0.420626 -0.218981
v -0.248926 0.114674 0.176170
v 0.068895 0.041403 0.207615
v -0.256912 0.158065 -0.067349
v 0.140433 0.182502 0.266580
v -0.301835 0.300334 0.130108
v 0.075040 0.296547 -0.318062
v -0.105851 0.396873 0.294100
v 0.320613 0.311650 -0.111683
v 0.279011 0.349695 0.089448
v 0.284387 0.181056 0.095394
v 0.091724 -0.019707 -0.064924
v 0.054823 0.482906 0.192050
v -0.118333 0.325258 -0.244480
v -0.052941 0.211213 0.340162
v -0.298513 0.196110 0.133783
v 0.119253 0.383751 -0.281620
v 0.279722 0.120222 -0.144451
v -0.182763 0.424413 0.229190
v 0.271025 0.393086 -0.154071
v -0.172013 0.087134 0.241080
v 0.127950 0.110887 -0.272001
vt -0.000000 0.200000
vt -0.000000 -0.200000
vt 0.200000 -0.200000
vt 0.200000 0.200000
vt 0.400000 -0.200000
vt 1.600000 -0.200000
vt 1.800000 -0.600000
vt 1.800000 -0.200000
vt 1.200000 0.200000
vt 1.200000 -0.200000
vt 1.400000 -0.200000
vt 1.400000 0.200000
vt 1.600000 0.200000
vt 0.400000 0.200000
vt 0.600000 -0.200000
vt 0.600000 0.200000
vt 1.200000 -0.600000
vt 1.400000 -0.600000
vt 1.000000 0.200000
vt 1.000000 -0.200000
vt 0.900000 1.000000
vt 0.800000 0.600000
vt 1.000000 0.600000
vt 1.400000 0.600000
vt 1.600000 0.600000
vt 0.200000 -0.600000
vt 0.400000 -0.600000
vt 0.800000 -0.200000
vt 0.800000 -0.600000
vt 1.000000 -0.600000
vt 0.800000 0.200000
vt 1.700000 -1.000000
vt 1.600000 -0.600000
vt 0.300000 -1.000000
vt 1.800000 0.600000
vt 1.800000 0.200000
vt 2.000000 0.200000
vt 2.000000 -0.200000
vt 0.500000 1.000000
vt 0.400000 0.600000
vt 0.600000 0.600000
vt -0.000000 0.600000
vt 1.200000 0.600000
vt 0.900000 -1.000000
vt 1.300000 -1.000000
vt 0.100000 1.000000
vt 0.200000 0.600000
vt 1.500000 1.000000
vt 1.300000 1.000000
vt 1.500000 -1.000000
vt 0.700000 1.000000
vt 0.500000 -1.000000
vt 0.600000 -0.600000
vt 2.000000 -0.600000
vt 0.300000 1.000000
vt 1.700000 1.000000
vt 1.100000 -1.000000
vt -0.000000 -0.600000
vt 0.100000 -1.000000
vt 1.100000 1.000000
vt 0.700000 -1.000000
vt 1.900000 1.000000
vt 2.000000 0.600000
vt 1.900000 -1.000000
vn 0.266600 -0.935500 0.232100
vn 0.637400 -0.549100 0.540600
vn -0.216600 -0.551300 -0.805700
vn -0.637400 0.549100 -0.540600
vn -0.764700 -0.047000 -0.642700
vn 0.764700 0.047000 0.642700
vn -0.249400 0.478300 -0.842000
vn -0.266600 0.935500 -0.232100
vn 0.075700 0.817100 -0.571500
vn -0.509700 0.387300 0.768300
vn -0.980000 -0.038100 -0.195500
vn 0.868300 -0.484500 0.106000
vn 0.490100 0.842600 -0.223200
vn 0.599900 0.625200 0.499200
vn 0.206000 0.964500 0.165100
vn 0.353900 -0.253100 -0.900400
vn 0.843200 -0.223000 -0.489200
vn -0.128800 0.848800 0.512800
vn -0.543200 0.823300 0.164500
vn -0.490100 -0.842600 0.223200
vn -0.206000 -0.964500 -0.165100
vn -0.599900 -0.625200 -0.499200
vn -0.288800 0.024500 0.957100
vn -0.075700 -0.817100 0.571500
vn 0.361000 0.044300 0.931500
vn -0.868300 0.484500 -0.106000
vn 0.672600 0.375400 -0.637700
vn 0.339100 0.211200 -0.916700
vn -0.485700 -0.363900 0.794700
vn -0.893500 -0.012700 0.448900
vn -0.835500 -0.545000 -0.069700
vn 0.249400 -0.478300 0.842000
vn -0.843200 0.223000 0.489200
vn 0.288800 -0.024500 -0.957100
vn -0.361000 -0.044300 -0.931500
vn -0.353900 0.253100 0.900400
vn 0.216600 0.551300 0.805700
vn 0.893500 0.012700 -0.448900
vn 0.980000 0.038100 0.195500
vn 0.835500 0.545000 0.069700
vn 0.543200 -0.823300 -0.164500
vn 0.128800 -0.848800 -0.512800
vn -0.339100 -0.211200 0.916700
vn -0.828400 -0.241200 0.505600
vn 0.485700 0.363900 -0.794700
vn 0.696600 -0.375800 -0.611200
vn -0.696600 0.375800 0.611200
vn 0.828400 0.241200 -0.505600
vn -0.672600 -0.375400 0.637700
vn 0.509700 -0.387300 -0.768300
usemtl ITMICRAWLEREGG
s off
f 5/1/1 32/2/1 3/3/1
f 23/4/2 3/3/2 31/5/2
f 4/6/3 42/7/3 15/8/3
f 20/9/4 7/10/4 34/11/4
f 5/1/1 3/3/1 23/4/1
f 12/12/5 4/6/5 24/13/5
f 25/14/6 30/15/6 10/16/6
f 7/10/7 37/17/7 27/18/7
f 13/19/8 19/20/8 7/10/8
f 19/20/9 37/17/9 7/10/9
f 16/21/10 28/22/10 39/23/10
f 26/24/11 24/13/11 36/25/11
f 3/3/12 38/26/12 9/27/12
f 6/28/13 40/29/13 21/30/13
f 10/16/14 30/15/14 6/28/14
f 33/31/15 19/20/15 13/19/15
f 1/32/16 42/7/16 18/33/16
f 1/34/17 9/27/17 38/26/17
f 26/24/11 12/12/11 24/13/11
f 13/19/8 7/10/8 20/9/8
f 28/22/18 13/19/18 39/23/18
f 39/23/19 13/19/19 20/9/19
f 22/35/20 14/36/20 5/37/20
f 14/36/21 32/38/21 5/37/21
f 24/13/22 4/6/22 15/8/22
f 14/36/21 15/8/21 32/38/21
f 16/39/23 35/40/23 17/41/23
f 41/42/24 5/1/24 23/4/24
f 35/40/25 10/16/25 17/41/25
f 10/16/14 6/28/14 33/31/14
f 4/6/3 18/33/3 42/7/3
f 12/12/5 34/11/5 4/6/5
f 33/31/15 6/28/15 19/20/15
f 6/28/13 21/30/13 19/20/13
f 8/43/26 20/9/26 12/12/26
f 20/9/4 34/11/4 12/12/4
f 1/44/27 21/30/27 40/29/27
f 1/45/28 27/18/28 37/17/28
f 16/46/29 41/42/29 2/47/29
f 16/48/30 26/24/30 36/25/30
f 41/42/24 23/4/24 2/47/24
f 35/40/25 25/14/25 10/16/25
f 36/25/31 24/13/31 14/36/31
f 24/13/22 15/8/22 14/36/22
f 2/47/32 23/4/32 25/14/32
f 23/4/2 31/5/2 25/14/2
f 16/49/33 8/43/33 26/24/33
f 8/43/26 12/12/26 26/24/26
f 1/50/34 18/33/34 27/18/34
f 34/11/35 18/33/35 4/6/35
f 16/51/36 17/41/36 28/22/36
f 17/41/37 10/16/37 33/31/37
f 1/52/38 29/53/38 9/27/38
f 25/14/6 31/5/6 30/15/6
f 31/5/39 29/53/39 30/15/39
f 30/15/40 40/29/40 6/28/40
f 3/3/12 9/27/12 31/5/12
f 31/5/39 9/27/39 29/53/39
f 32/2/41 38/26/41 3/3/41
f 15/8/42 11/54/42 32/38/42
f 17/41/37 33/31/37 28/22/37
f 28/22/18 33/31/18 13/19/18
f 7/10/7 27/18/7 34/11/7
f 34/11/35 27/18/35 18/33/35
f 16/55/43 2/47/43 35/40/43
f 2/47/32 25/14/32 35/40/32
f 16/56/44 36/25/44 22/35/44
f 36/25/31 14/36/31 22/35/31
f 19/20/9 21/30/9 37/17/9
f 1/57/45 37/17/45 21/30/45
f 32/2/41 11/58/41 38/26/41
f 1/59/46 38/26/46 11/58/46
f 16/60/47 39/23/47 8/43/47
f 39/23/19 20/9/19 8/43/19
f 30/15/40 29/53/40 40/29/40
f 1/61/48 40/29/48 29/53/48
f 16/62/49 22/35/49 41/63/49
f 22/35/20 5/37/20 41/63/20
f 15/8/42 42/7/42 11/54/42
f 1/64/50 11/54/50 42/7/50
