# Blender v2.75 (sub 0) OBJ File: 'Empty.blend'
# www.blender.org
mtllib ITAT_CRAWLER_01.mtl
o ITAT_CRAWLER_01
v 0.313325 0.093941 -0.204399
v 0.208219 -0.019415 0.186166
v -0.014403 0.168837 -0.187528
v -0.131830 -0.000830 -0.110283
v 0.205360 0.119728 0.109278
v 0.121170 -0.040737 -0.328683
v -0.148662 0.026991 -0.118453
v 0.171098 0.084402 0.144782
v 0.039665 -0.120002 -0.043348
v 0.323737 0.083682 -0.200479
v 0.215719 -0.083420 0.167277
v 0.150896 -0.084559 -0.133131
v 0.364768 0.147937 0.085637
v 0.080408 -0.009186 0.287780
v 0.347260 0.049832 0.131085
v 0.207988 0.019606 0.184596
v 0.056213 -0.109016 0.246766
v 0.179127 -0.159439 0.172445
v 0.234524 0.058590 0.209095
v 0.186052 0.198851 0.083405
v -0.088152 -0.080895 0.013383
v 0.293916 -0.089428 -0.157760
v 0.237460 -0.012047 -0.109979
v 0.172070 0.095988 -0.080219
v 0.001787 -0.045047 -0.032209
v 0.053064 0.030799 -0.124139
v 0.299754 -0.019415 0.214787
v 0.151495 0.166315 0.173514
v 0.242471 0.163778 -0.176085
v -0.070937 0.044569 -0.180498
v 0.121616 -0.153968 -0.274757
v -0.021755 0.050402 -0.228133
v 0.247342 0.132758 -0.293148
v -0.021720 0.058327 -0.245495
v 0.229102 0.167667 -0.219253
v -0.147709 -0.023954 -0.237768
v 0.098831 -0.155297 -0.284370
v -0.090522 0.036936 -0.231955
v 0.144417 0.081828 0.186836
v 0.255291 -0.113436 0.171762
v 0.344140 -0.020490 -0.027669
v -0.029919 0.032766 0.073464
v 0.233095 -0.017347 -0.104609
v -0.012248 -0.023237 -0.037940
v -0.098242 -0.004277 0.008821
v 0.330367 -0.031881 -0.120983
v 0.291388 0.067394 -0.055018
v -0.019821 0.063359 -0.027612
v 0.157279 0.168208 0.087754
v 0.249476 0.038076 0.175310
v 0.233129 0.033489 0.239095
v 0.209435 0.198302 0.114790
vt 0.235680 -0.632940
vt 0.351121 -0.708706
vt 0.373067 -0.656718
vt 0.248987 -0.655744
vt 0.368743 -0.654122
vt 0.264763 -0.650824
vt 0.379772 -0.663472
vt 0.352062 -0.714113
vt 0.376392 -0.660484
vt 0.268361 -0.643589
vt 0.342142 -0.703967
vt 0.247307 -0.648030
vt 0.342249 -0.637663
vt 0.245397 -0.639465
vt 0.334473 -0.670077
vt 0.347304 -0.716176
vt 0.348559 -0.644930
vt 0.206014 -0.645025
vt 0.209356 -0.623751
vt 0.339251 -0.683728
vt 0.263103 -0.600161
vt 0.375923 -0.629354
vt 0.258019 -0.599553
vt 0.361883 -0.619992
vt 0.124808 -0.613551
vt 0.246747 -0.611682
vt 0.103826 -0.611650
vt 0.205343 -0.601519
vt 0.225905 -0.647075
vt 0.105964 -0.612583
vt 0.263989 -0.651937
vt 0.141213 -0.614202
vt 0.414369 -0.737562
vt 0.382976 -0.651141
vt 0.334694 -0.622658
vt 0.419334 -0.738617
vt 0.397307 -0.661063
vt 0.339516 -0.626970
vt 0.411653 -0.717243
vt 0.415147 -0.647481
vt 0.408267 -0.737836
vt 0.403569 -0.713741
vt 0.418280 -0.662207
vt 0.397235 -0.731297
vt 0.215406 -0.634325
vt 0.245448 -0.634854
vt 0.403047 -0.686036
vt 0.413542 -0.699732
vt 0.379071 -0.677167
vt 0.366723 -0.624622
vt 0.367741 -0.664595
vt 0.357424 -0.620696
vn -0.863100 -0.495500 -0.097500
vn 0.198200 0.967200 0.159200
vn 0.693400 -0.695800 -0.187300
vn -0.215700 0.864300 -0.454400
vn -0.021700 -0.845300 0.533800
vn 0.555800 0.340600 -0.758300
vn -0.072800 -0.970200 -0.231000
vn -0.655300 0.742600 0.138600
vn -0.502200 0.864600 -0.014800
vn 0.167000 -0.726300 0.666800
vn 0.659000 0.721700 0.211800
vn -0.001300 -1.000000 0.004200
vn 0.294400 0.267700 0.917400
vn -0.176500 -0.586300 -0.790600
vn 0.783000 0.065800 -0.618500
vn -0.356000 -0.394200 0.847200
vn 0.299300 -0.483200 0.822800
vn -0.460900 0.162500 -0.872500
vn -0.879900 0.436300 0.188200
vn 0.517000 -0.856000 -0.001800
vn -0.550300 0.400900 -0.732500
vn -0.727000 0.588500 0.353600
vn -0.081600 -0.327700 -0.941300
vn 0.684000 0.410800 -0.602800
vn -0.480800 -0.872800 -0.083900
vn -0.584600 -0.028700 0.810800
vn -0.006900 -0.521400 -0.853300
vn 0.826800 -0.559600 0.056100
vn -0.055600 -0.998000 -0.030300
vn 0.141300 -0.713000 -0.686800
vn 0.139100 0.914800 0.379300
vn -0.456900 -0.482400 0.747400
vn 0.187900 -0.763100 0.618300
vn -0.410000 -0.890500 0.197300
vn -0.027700 0.940700 -0.338200
vn 0.887600 -0.044400 0.458500
vn -0.022500 -0.997100 0.072000
vn 0.313800 -0.040700 0.948600
vn 0.224200 -0.689900 0.688300
vn 0.337900 0.645500 0.685000
vn 0.048600 0.417300 -0.907500
vn 0.826700 0.542600 0.148900
vn -0.656400 -0.230500 -0.718300
vn -0.641600 0.749600 0.162800
vn -0.646100 -0.330200 -0.688100
vn 0.953400 0.132800 0.271000
vn 0.025100 0.322800 -0.946100
vn -0.552800 -0.239300 0.798200
vn -0.311600 0.827100 -0.467700
vn 0.659900 -0.285200 -0.695100
vn -0.142600 -0.712500 -0.687000
vn -0.259800 0.383200 0.886400
vn 0.672700 0.719200 -0.173700
vn -0.583700 0.418600 0.695800
vn -0.090200 0.178300 -0.979800
vn -0.927000 -0.347600 0.141000
vn -0.260300 -0.962500 0.077100
vn 0.720600 0.689100 0.076000
vn -0.683300 0.669500 -0.291300
vn 0.858700 0.471900 -0.200100
vn 0.203200 0.961000 0.187700
vn -0.261700 0.959200 -0.107300
vn 0.309900 0.526800 0.791500
vn 0.540100 0.764600 0.351500
vn 0.364900 -0.751200 -0.550000
vn 0.805900 0.551100 0.216300
vn -0.494800 -0.764000 0.414100
vn -0.586000 0.790000 0.180600
vn 0.183300 0.952500 0.243200
vn 0.290500 0.508500 0.810600
vn -0.057100 0.884200 -0.463600
vn 0.231300 0.951700 0.201900
vn 0.277500 0.952700 0.124100
vn -0.933200 -0.102400 0.344500
vn 0.218300 0.561600 0.798100
vn 0.857000 -0.257700 -0.446100
vn -0.012500 0.779800 0.625900
vn 0.728000 0.648600 0.222200
vn 0.261900 0.943400 -0.203500
vn -0.537700 0.839600 0.076600
vn 0.148600 -0.274400 -0.950100
vn -0.494200 0.869200 -0.014100
vn -0.717100 0.407900 -0.565100
vn 0.654600 0.723400 0.219800
vn -0.009900 0.767100 0.641400
vn 0.931900 0.255600 0.257200
vn 0.271400 0.944400 -0.185700
vn -0.610900 0.639800 0.466300
usemtl CRW_BODY
s off
f 2/1/1 24/2/1 23/3/1
f 24/2/2 50/4/2 47/5/2
f 5/6/3 25/7/3 26/8/3
f 26/8/4 48/9/4 49/10/4
f 9/11/5 16/12/5 21/13/5
f 8/14/6 9/11/6 44/15/6
f 12/16/7 22/17/7 18/18/7
f 11/19/8 43/20/8 12/16/8
f 28/21/9 49/10/9 48/9/9
f 5/6/10 28/21/10 42/22/10
f 27/23/11 47/5/11 50/4/11
f 2/1/12 41/24/12 27/23/12
f 15/25/13 39/26/13 16/12/13
f 16/12/14 8/14/14 15/25/14
f 8/14/15 16/12/15 9/11/15
f 39/26/16 21/13/16 16/12/16
f 17/27/17 18/18/17 40/28/17
f 18/18/18 17/27/18 11/19/18
f 11/19/19 12/16/19 18/18/19
f 40/28/20 18/18/20 22/17/20
f 19/29/21 2/1/21 14/30/21
f 2/1/22 50/4/22 24/2/22
f 20/31/23 13/32/23 5/6/23
f 5/6/24 26/8/24 49/10/24
f 37/33/25 21/13/25 36/34/25
f 39/26/26 45/35/26 21/13/26
f 34/36/27 33/37/27 22/17/27
f 40/28/28 22/17/28 46/38/28
f 2/1/29 23/3/29 41/24/29
f 32/39/30 1/40/30 23/3/30
f 3/41/31 24/2/31 47/5/31
f 23/3/32 24/2/32 32/39/32
f 5/6/33 42/22/33 25/7/33
f 31/42/34 25/7/34 4/43/34
f 6/44/35 48/9/35 26/8/35
f 25/7/36 31/42/36 26/8/36
f 14/30/37 2/1/37 27/23/37
f 14/30/38 27/23/38 51/45/38
f 13/32/39 28/21/39 5/6/39
f 13/32/40 52/46/40 28/21/40
f 3/41/41 29/47/41 1/40/41
f 41/24/42 47/5/42 27/23/42
f 6/44/43 4/43/43 30/48/43
f 42/22/44 28/21/44 48/9/44
f 31/42/45 4/43/45 6/44/45
f 31/42/46 6/44/46 26/8/46
f 32/39/47 3/41/47 1/40/47
f 32/39/48 24/2/48 3/41/48
f 35/49/49 33/37/49 34/36/49
f 10/50/50 22/17/50 33/37/50
f 34/36/51 22/17/51 12/16/51
f 35/49/52 34/36/52 12/16/52
f 35/49/53 10/50/53 33/37/53
f 43/20/54 35/49/54 12/16/54
f 38/51/55 37/33/55 36/34/55
f 7/52/56 36/34/56 21/13/56
f 37/33/57 9/11/57 21/13/57
f 38/51/58 9/11/58 37/33/58
f 38/51/59 36/34/59 7/52/59
f 44/15/60 9/11/60 38/51/60
f 15/25/61 8/14/61 39/26/61
f 8/14/62 45/35/62 39/26/62
f 17/27/63 40/28/63 11/19/63
f 11/19/64 40/28/64 46/38/64
f 23/3/65 1/40/65 41/24/65
f 41/24/66 1/40/66 47/5/66
f 25/7/67 42/22/67 4/43/67
f 42/22/68 48/9/68 4/43/68
f 11/19/69 46/38/69 43/20/69
f 43/20/70 10/50/70 35/49/70
f 8/14/71 44/15/71 45/35/71
f 44/15/72 38/51/72 7/52/72
f 44/15/73 7/52/73 45/35/73
f 45/35/74 7/52/74 21/13/74
f 43/20/75 46/38/75 10/50/75
f 46/38/76 22/17/76 10/50/76
f 3/41/77 47/5/77 29/47/77
f 1/40/78 29/47/78 47/5/78
f 6/44/79 30/48/79 48/9/79
f 4/43/80 48/9/80 30/48/80
f 5/6/81 49/10/81 20/31/81
f 49/10/82 28/21/82 52/46/82
f 2/1/83 19/29/83 50/4/83
f 50/4/84 51/45/84 27/23/84
f 19/29/85 14/30/85 51/45/85
f 19/29/86 51/45/86 50/4/86
f 20/31/87 52/46/87 13/32/87
f 20/31/88 49/10/88 52/46/88
