# Blender v2.75 (sub 0) OBJ File: 'Empty.blend'
# www.blender.org
mtllib ITAT_TEETH_01.mtl
o ITAT_TEETH_01
v 0.086129 0.025304 0.033471
v 0.140212 -0.022651 -0.033161
v 0.154356 0.016113 0.044742
v 0.114299 0.006507 0.043758
v 0.017277 -0.001913 0.030337
v 0.072828 -0.004648 0.098733
v -0.010630 0.006507 -0.035359
v 0.007428 -0.001913 0.060908
v 0.054663 -0.004648 -0.013475
v 0.133236 -0.022220 0.049840
v 0.042727 0.036676 -0.003921
v 0.067555 0.036676 0.084382
v 0.062887 0.004521 -0.040967
v 0.076304 -0.000957 -0.027050
v -0.065723 -0.000957 0.023141
vt 0.911884 -0.403929
vt 0.934632 -0.385902
vt 0.925957 -0.431440
vt 0.942584 -0.406821
vn 0.334700 0.818000 -0.467800
vn -0.329400 -0.943900 -0.022800
vn -0.012700 -0.999500 -0.029700
vn -0.330500 0.886000 -0.325200
vn -0.024100 -0.999500 0.021400
vn -0.203500 0.886000 0.416600
vn -0.133000 0.202300 0.970200
vn 0.877600 -0.473400 0.076200
vn 0.349100 0.305600 -0.885800
vn 0.840000 0.120300 0.529000
vn 0.729300 0.305600 0.612200
vn -0.768200 0.120300 0.628800
vn 0.177700 0.932100 -0.315700
vn -0.718200 -0.579000 0.385900
vn 0.232200 -0.972400 -0.022100
vn 0.339500 0.898900 -0.276900
vn -0.094700 -0.972400 -0.213200
vn -0.370300 0.898900 -0.234100
usemtl SHADOWBEAST
s off
f 2/1/1 13/2/1 3/3/1
f 10/3/2 13/2/2 2/1/2
f 5/1/3 14/2/3 6/3/3
f 12/3/4 14/2/4 5/1/4
f 8/1/5 15/2/5 9/3/5
f 11/3/6 15/2/6 8/1/6
f 1/4/7 10/3/7 3/3/7
f 2/1/8 3/3/8 10/3/8
f 7/4/9 11/3/9 9/3/9
f 8/1/10 9/3/10 11/3/10
f 4/4/11 12/3/11 6/3/11
f 5/1/12 6/3/12 12/3/12
f 1/4/13 3/3/13 13/2/13
f 13/2/14 10/3/14 1/4/14
f 4/4/15 6/3/15 14/2/15
f 14/2/16 12/3/16 4/4/16
f 7/4/17 9/3/17 15/2/17
f 15/2/18 11/3/18 7/4/18
