# Blender v2.75 (sub 0) OBJ File: 'Empty.blend'
# www.blender.org
mtllib ITAT_BLOODFLY_01.mtl
o ITAT_BLOODFLY_01
v 0.004096 0.181313 0.167283
v -0.449850 0.070062 -0.041463
v -0.267423 0.078246 0.242564
v -0.177675 0.182686 -0.073579
v -0.302373 0.127619 -0.070565
v -0.214451 0.108019 0.158196
v -0.479341 0.102087 -0.238778
v -0.053271 0.202611 -0.014142
v -0.079981 0.099579 0.300010
v -0.184890 0.184166 -0.148903
v -0.135744 0.143202 0.179499
v -0.127898 0.090335 0.415722
v -0.364357 0.149094 -0.249753
v -0.301242 0.150973 -0.183562
v -0.103913 0.106710 0.346719
vt 0.933139 -0.134997
vt 0.775191 -0.289630
vt 0.767931 -0.113194
vt 0.895177 -0.430690
vt 0.774361 -0.304196
vt 0.894103 -0.445674
vt 0.791209 -0.776590
vt 0.981995 -0.237724
vt 0.698773 -0.622636
vt 0.689440 -0.312505
vt 0.873901 -0.724604
vt 0.701631 -0.234416
vt 0.701030 -0.163925
vt 0.970612 -0.345164
vt 0.928949 -0.584259
vt 0.695072 -0.250026
vn 0.354200 -0.913300 -0.201200
vn -0.354200 0.913300 0.201200
vn 0.324300 -0.923800 -0.203800
vn -0.324300 0.923800 0.203800
vn 0.318700 -0.924400 -0.209300
vn -0.318700 0.924400 0.209300
vn 0.311100 -0.884500 -0.347600
vn -0.311100 0.884500 0.347600
vn 0.321800 -0.928100 -0.187300
vn -0.321800 0.928100 0.187300
vn 0.324100 -0.909600 -0.260200
vn -0.324100 0.909600 0.260200
vn 0.254800 -0.957000 -0.138500
vn -0.254800 0.957000 0.138500
vn 0.321000 -0.928100 -0.188600
vn -0.321000 0.928100 0.188600
vn -0.143300 -0.986700 0.077200
vn 0.143300 0.986700 -0.077200
usemtl WINGS
s off
f 2/1/1 11/2/1 3/3/1
f 11/2/2 2/1/2 3/3/2
f 4/4/1 11/2/1 2/1/1
f 11/2/2 4/4/2 2/1/2
f 6/5/3 5/6/3 8/7/3
f 5/6/4 6/5/4 8/7/4
f 7/8/1 4/4/1 2/1/1
f 4/4/2 7/8/2 2/1/2
f 1/9/5 6/5/5 8/7/5
f 6/5/6 1/9/6 8/7/6
f 1/9/7 9/10/7 6/5/7
f 9/10/8 1/9/8 6/5/8
f 8/7/9 5/6/9 10/11/9
f 5/6/10 8/7/10 10/11/10
f 11/2/11 15/12/11 3/3/11
f 15/12/12 11/2/12 3/3/12
f 3/3/13 15/12/13 12/13/13
f 15/12/14 3/3/14 12/13/14
f 13/14/1 4/4/1 7/8/1
f 4/4/2 13/14/2 7/8/2
f 5/6/15 14/15/15 10/11/15
f 14/15/16 5/6/16 10/11/16
f 15/16/17 6/5/17 9/10/17
f 6/5/18 15/16/18 9/10/18
