# Blender v2.75 (sub 0) OBJ File: 'Empty.blend'
# www.blender.org
mtllib ITFO_POTION_HEALTH_03.mtl
o ITFO_POTION_HEALTH_03
v 0.012862 0.110483 0.022279
v -0.026250 -0.100000 0.045466
v -0.037500 0.066667 -0.064952
v 0.036750 0.200500 0.000000
v -0.037500 0.066667 0.064952
v 0.052500 -0.100000 0.000000
v -0.018375 0.200500 0.031826
v 0.075000 0.066667 0.000000
v 0.026250 -0.100000 -0.045466
v -0.052500 -0.100000 -0.000000
v 0.037500 0.066667 -0.064952
v -0.025725 0.110483 -0.000000
v 0.026250 -0.100000 0.045466
v -0.026250 -0.100000 -0.045466
v 0.037500 0.066667 0.064952
v -0.075000 0.066667 -0.000000
v 0.018375 0.200500 -0.031826
v -0.036750 0.200500 -0.000000
v 0.025725 0.110483 0.000000
v -0.012862 0.110483 -0.022279
v -0.018375 0.200500 -0.031826
v 0.018375 0.200500 0.031826
v -0.012862 0.110483 0.022279
v 0.012862 0.110483 -0.022279
vt 0.002143 -0.222675
vt 0.042887 -0.540341
vt 0.042887 -0.222675
vt 0.083630 -0.540341
vt 0.083630 -0.222675
vt 0.002143 0.040745
vt 0.002143 -0.151847
vt 0.042887 -0.151847
vt 0.042887 0.040745
vt 0.083630 -0.151847
vt 0.124374 -0.540341
vt 0.124374 -0.222675
vt 0.165117 -0.540341
vt 0.165117 -0.222675
vt 0.205861 -0.540341
vt 0.124374 0.040745
vt 0.165117 -0.151847
vt 0.165117 0.040745
vt 0.205861 -0.222675
vt 0.246604 -0.540341
vt 0.500000 -0.457684
vt 0.500000 -0.542316
vt 0.463353 -0.521158
vt 0.536647 -0.478842
vt 0.246604 -0.222675
vt 0.205861 -0.151847
vt 0.124374 -0.151847
vt 0.536647 -0.521158
vt 0.463353 -0.478842
vt 0.002143 -0.540341
vt 0.474347 -0.514811
vt 0.500000 -0.470379
vt 0.474347 -0.485189
vt 0.205861 0.040745
vt 0.246604 -0.151847
vt 0.246604 0.040745
vt 0.525653 -0.485189
vt 0.500000 -0.529621
vt 0.525653 -0.514811
vt 0.083630 0.040745
vn 0.000000 -0.116100 -0.993200
vn -0.860200 -0.116100 -0.496600
vn 0.000000 -0.105500 -0.994400
vn -0.861200 -0.105500 -0.497200
vn -0.860200 -0.116100 0.496600
vn 0.000000 -0.116100 0.993200
vn 0.860200 -0.116100 0.496600
vn 0.000000 -0.105500 0.994400
vn 0.000000 0.697700 -0.716400
vn 0.860200 -0.116100 -0.496600
vn 0.000000 -1.000000 0.000000
vn 0.620400 0.697700 -0.358200
vn 0.000000 0.697700 0.716400
vn 0.620400 0.697700 0.358200
vn -0.620400 0.697700 -0.358200
vn -0.620400 0.697700 0.358200
vn 0.000000 1.000000 0.000000
vn 0.861200 -0.105500 -0.497200
vn -0.861200 -0.105500 0.497200
vn 0.861200 -0.105500 0.497200
usemtl IT_POTIONS
s off
f 11/1/1 14/2/1 3/3/1
f 3/3/2 10/4/2 16/5/2
f 17/6/3 24/7/3 20/8/3
f 21/9/4 20/8/4 12/10/4
f 16/5/5 2/11/5 5/12/5
f 5/12/6 13/13/6 15/14/6
f 15/14/7 13/13/7 6/15/7
f 3/3/2 14/2/2 10/4/2
f 7/16/8 1/17/8 22/18/8
f 17/6/3 20/8/3 21/9/3
f 15/14/7 6/15/7 8/19/7
f 24/7/9 11/1/9 3/3/9
f 8/19/10 6/15/10 9/20/10
f 6/21/11 10/22/11 14/23/11
f 10/22/11 6/21/11 13/24/11
f 16/5/5 10/4/5 2/11/5
f 8/19/10 9/20/10 11/25/10
f 19/26/12 8/19/12 11/25/12
f 7/16/8 23/27/8 1/17/8
f 23/27/13 5/12/13 15/14/13
f 10/22/11 13/24/11 2/28/11
f 5/12/6 2/11/6 13/13/6
f 6/21/11 14/23/11 9/29/11
f 11/1/1 9/30/1 14/2/1
f 23/27/13 15/14/13 1/17/13
f 1/17/14 15/14/14 8/19/14
f 20/8/15 16/5/15 12/10/15
f 12/10/16 16/5/16 5/12/16
f 21/31/17 4/32/17 17/33/17
f 4/34/18 24/35/18 17/36/18
f 22/37/17 18/38/17 7/39/17
f 18/40/19 23/27/19 7/16/19
f 1/17/14 8/19/14 19/26/14
f 22/18/20 1/17/20 19/26/20
f 24/7/9 3/3/9 20/8/9
f 20/8/15 3/3/15 16/5/15
f 4/32/17 21/31/17 18/38/17
f 21/9/4 12/10/4 18/40/4
f 4/32/17 18/38/17 22/37/17
f 22/18/20 19/26/20 4/34/20
f 12/10/16 5/12/16 23/27/16
f 18/40/19 12/10/19 23/27/19
f 19/26/12 11/25/12 24/35/12
f 4/34/18 19/26/18 24/35/18
