# Blender v2.75 (sub 0) OBJ File: 'Empty.blend'
# www.blender.org
mtllib ITFO_POTION_MASTER_01.mtl
o ITFO_POTION_MASTER_01
v 0.072303 0.087785 -0.022691
v -0.068583 0.102773 -0.000110
v 0.000000 0.110483 0.025725
v -0.031826 0.200500 0.018375
v 0.000000 0.200500 -0.036750
v 0.000000 0.000000 0.052500
v 0.000000 0.066667 -0.075000
v 0.031826 0.200500 0.018375
v 0.000000 0.000000 -0.052500
v 0.045466 0.000000 -0.026250
v -0.045466 0.000000 0.026250
v 0.000000 0.066667 0.075000
v 0.000000 0.110483 -0.025725
v -0.022279 0.110483 0.012862
v 0.022279 0.110483 -0.012862
v -0.045466 0.000000 -0.026250
v 0.045466 0.000000 0.026250
v -0.057452 0.066667 0.037500
v -0.057452 0.066667 -0.037500
v 0.000000 0.200500 0.036750
v 0.031826 0.200500 -0.018375
v -0.031826 0.200500 -0.018375
v 0.072303 0.087785 0.022691
v -0.022279 0.110483 -0.012862
v 0.022279 0.110483 0.012862
v 0.057452 0.066667 -0.037500
v 0.057452 0.066667 0.037500
v 0.066083 0.102773 0.000110
v -0.072303 0.087785 0.022691
v -0.072303 0.087785 -0.022691
vt 0.792411 -0.189812
vt 0.754600 -0.133458
vt 0.754600 -0.189812
vt 0.912095 -0.189812
vt 0.874284 -0.189812
vt 0.914178 -0.275556
vt 0.834389 -0.003417
vt 0.794495 -0.003417
vt 0.834389 -0.133458
vt 0.874284 -0.003417
vt 0.874284 -0.133458
vt 0.836472 -0.189812
vt 0.874284 -0.275556
vt 0.834389 -0.275556
vt 0.794495 -0.275556
vt 0.993967 -0.189812
vt 0.954073 -0.133458
vt 0.956156 -0.189812
vt 0.954073 -0.275556
vt 0.954073 -0.003417
vt 0.914178 -0.003417
vt 0.516763 -0.526986
vt 0.533525 -0.497952
vt 0.466475 -0.497952
vt 0.993967 -0.275556
vt 0.476053 -0.456476
vt 0.547893 -0.497952
vt 0.452107 -0.497952
vt 0.523946 -0.539429
vt 0.794495 -0.133458
vt 0.103828 -0.228716
vt 0.124158 -0.267653
vt 0.144838 -0.228716
vt 0.914178 -0.133458
vt 0.144688 -0.231404
vt 0.124508 -0.267635
vt 0.103828 -0.228238
vt 0.993967 -0.133458
vt 0.476053 -0.539429
vt 0.754600 -0.275556
vt 0.523947 -0.456476
vt 0.104793 -0.230642
vt 0.087902 -0.251798
vt 0.109002 -0.271479
vt 0.024206 -0.230642
vt 0.019998 -0.271479
vt 0.041098 -0.251798
vt 0.516763 -0.468919
vt 0.483237 -0.468919
vt 0.993967 -0.003417
vt 0.754600 -0.003417
vt 0.483237 -0.526986
vt 0.223679 -0.231404
vt 0.184058 -0.238150
vt 0.207122 -0.251264
vt 0.227804 -0.269741
vt 0.161245 -0.251264
vt 0.140563 -0.269741
vt 0.064377 -0.237828
vn -0.397900 0.685600 -0.609600
vn 0.531500 -0.233000 0.814400
vn -0.994400 -0.105500 0.000000
vn -0.497200 -0.105500 0.861200
vn -0.526000 -0.272000 0.805800
vn -0.984200 -0.176900 0.000000
vn 0.404300 0.672900 -0.619500
vn 0.984200 -0.176900 0.000000
vn 0.994400 -0.105500 0.000000
vn 0.000000 1.000000 -0.000000
vn 0.526000 -0.272000 -0.805800
vn -0.531500 -0.233000 -0.814400
vn 0.000000 -1.000000 0.000000
vn 0.486600 -0.229700 -0.842900
vn -0.486600 -0.229700 0.842900
vn 0.397900 0.685600 0.609600
vn -0.404300 0.672900 0.619500
vn -0.164200 0.986400 0.000000
vn 0.173300 0.984900 0.000000
vn -0.358200 0.697700 0.620400
vn 0.497200 -0.105500 -0.861200
vn 0.358200 0.697700 -0.620400
vn -0.479900 -0.280500 -0.831200
vn 0.479900 -0.280500 0.831200
vn -0.077600 0.535300 0.841100
vn -0.077600 0.535300 -0.841100
vn -0.818000 -0.575200 0.000000
vn 0.497200 -0.105500 0.861200
vn -0.497200 -0.105500 -0.861200
vn 0.286300 0.834600 -0.470600
vn -0.373800 0.664100 -0.647500
vn 0.373800 0.664100 0.647500
vn 0.077600 0.535300 -0.841100
vn 0.818000 -0.575200 0.000000
vn 0.077600 0.535300 0.841100
vn 0.284700 0.832900 0.474500
vn 0.923600 0.383300 0.000000
vn -0.276100 0.823200 0.496100
vn -0.274500 0.821400 -0.500000
vn -0.970600 0.240800 0.000000
usemtl IT_POTIONS
s off
f 19/1/1 13/2/1 7/3/1
f 27/4/2 12/5/2 17/6/2
f 4/7/3 22/8/3 14/9/3
f 20/10/4 4/7/4 3/11/4
f 12/5/5 18/12/5 6/13/5
f 11/14/6 19/1/6 16/15/6
f 7/16/7 15/17/7 26/18/7
f 10/19/8 27/4/8 17/6/8
f 21/20/9 8/21/9 15/17/9
f 4/22/10 20/23/10 5/24/10
f 7/16/11 26/18/11 9/25/11
f 19/1/12 7/3/12 16/15/12
f 10/26/13 6/27/13 9/28/13
f 9/25/14 26/18/14 10/19/14
f 11/29/13 9/28/13 6/27/13
f 6/13/15 18/12/15 11/14/15
f 27/4/16 3/11/16 12/5/16
f 12/5/17 14/9/17 18/12/17
f 14/9/3 22/8/3 24/30/3
f 24/31/18 2/32/18 14/33/18
f 15/17/9 8/21/9 25/34/9
f 25/35/19 28/36/19 15/37/19
f 3/11/4 4/7/4 14/9/4
f 3/11/20 14/9/20 12/5/20
f 13/38/21 21/20/21 15/17/21
f 13/38/22 15/17/22 7/16/22
f 16/39/13 9/28/13 11/29/13
f 16/15/23 7/3/23 9/40/23
f 17/41/13 6/27/13 10/26/13
f 17/6/24 12/5/24 6/13/24
f 14/42/25 29/43/25 18/44/25
f 18/12/6 19/1/6 11/14/6
f 24/45/26 19/46/26 30/47/26
f 18/44/27 30/47/27 19/46/27
f 8/21/28 20/10/28 25/34/28
f 8/48/10 21/49/10 20/23/10
f 5/50/21 21/20/21 13/38/21
f 5/24/10 20/23/10 21/49/10
f 22/8/29 5/51/29 24/30/29
f 22/52/10 4/22/10 5/24/10
f 15/53/30 28/54/30 1/55/30
f 26/18/8 27/4/8 10/19/8
f 24/30/29 5/51/29 13/2/29
f 24/30/31 13/2/31 19/1/31
f 27/4/32 25/34/32 3/11/32
f 25/34/28 20/10/28 3/11/28
f 15/53/33 1/55/33 26/56/33
f 26/56/34 1/55/34 23/57/34
f 25/35/35 27/58/35 23/57/35
f 26/56/34 23/57/34 27/58/34
f 25/35/36 23/57/36 28/54/36
f 1/55/37 28/54/37 23/57/37
f 14/42/38 2/59/38 29/43/38
f 18/44/27 29/43/27 30/47/27
f 24/45/39 30/47/39 2/59/39
f 29/43/40 2/59/40 30/47/40
