# Blender v2.75 (sub 0) OBJ File: 'Empty.blend'
# www.blender.org
mtllib ITFO_PLANTS_TROLLBERRYS_01.mtl
o ITFO_PLANTS_TROLLBERRYS_01
v -0.134775 0.070894 -0.031239
v 0.103407 0.070894 0.111875
v 0.141397 0.070894 -0.054388
v 0.025329 -0.063574 0.073874
v -0.067277 0.070894 0.126183
v -0.005808 0.070894 -0.142838
v -0.010552 -0.063574 -0.070037
v 0.079344 -0.063574 -0.016022
v -0.064567 -0.063574 0.019859
v 0.007389 0.134681 0.001919
v -0.037827 0.087270 -0.050096
v 0.013396 0.087270 0.070577
v -0.056053 0.087270 0.028848
v 0.074543 0.087270 0.017422
v 0.042885 0.087270 -0.057158
v 0.088145 0.001973 -0.064467
v 0.032586 0.001973 -0.097850
v 0.099532 0.001973 0.057284
v 0.113716 0.001973 -0.005211
v -0.031739 0.001973 -0.092609
v 0.121638 0.060601 0.028295
v -0.069537 0.060601 -0.086574
v -0.100545 0.060601 0.047734
v 0.017608 0.060601 0.118727
v 0.067779 0.060601 -0.098588
v -0.080260 0.001973 -0.050746
v -0.094444 0.001973 0.011749
v -0.013314 0.001973 0.104388
v 0.051011 0.001973 0.099147
v -0.068872 0.001973 0.071005
vt 0.809083 -0.034674
vt 0.825437 -0.073343
vt 0.856230 -0.028859
vt 0.778430 -0.053982
vt 0.806174 -0.027518
vt 0.764014 -0.008162
vt 0.816385 -0.039200
vt 0.796321 -0.074656
vt 0.831639 -0.078288
vt 0.841453 -0.057131
vt 0.817360 -0.032114
vt 0.825392 -0.086321
vt 0.827251 -0.027227
vt 0.837745 -0.072576
vt 0.862073 -0.025203
vt 0.859345 -0.037961
vt 0.838919 -0.047514
vt 0.874280 -0.076136
vt 0.779576 -0.045923
vt 0.768268 -0.086945
vt 0.796657 -0.081047
vt 0.756435 -0.048964
vt 0.748039 -0.089845
vt 0.810279 -0.076144
vt 0.791127 -0.021197
vt 0.778080 -0.077601
vt 0.758297 -0.120999
vt 0.817070 -0.117973
vt 0.854226 -0.084527
vt 0.774474 -0.117306
vt 0.823682 -0.116767
vt 0.809793 -0.061137
vt 0.794029 -0.090335
vt 0.846576 -0.104011
vt 0.831414 -0.086338
vt 0.782974 -0.110811
vt 0.818547 -0.124432
vt 0.803635 -0.003940
vt 0.843254 0.000311
vt 0.789847 -0.073340
vt 0.761936 -0.028852
vt 0.761052 -0.084520
vt 0.780286 -0.124026
vt 0.837870 -0.124031
vt 0.769327 -0.028310
vt 0.763411 -0.081801
vt 0.863348 -0.037911
vt 0.751725 -0.050163
vt 0.758776 -0.043870
vt 0.753447 -0.089935
vt 0.820661 -0.122064
vt 0.768562 -0.124421
vn 0.463400 -0.288700 -0.837800
vn -0.015700 0.983700 -0.179100
vn 0.944200 -0.250100 0.214300
vn -0.887800 -0.304300 0.345200
vn 0.107700 -0.259200 0.959800
vn 0.492700 0.870200 0.000300
vn -0.617900 -0.324600 -0.716100
vn -0.231600 0.870200 -0.434900
vn -0.427000 -0.559100 0.710700
vn 0.656300 -0.643200 0.394400
vn -0.066700 -0.571200 -0.818100
vn -0.682400 -0.605100 -0.410100
vn 0.596300 0.761800 -0.253100
vn -0.174000 0.983900 -0.040200
vn -0.631200 0.761800 -0.145700
vn -0.056500 0.761800 -0.645300
vn -0.065500 0.870500 0.487900
vn -0.333600 0.761800 0.555300
vn -0.400000 0.870500 0.286800
vn -0.093000 0.983600 0.154800
vn 0.425000 0.761800 0.488900
vn 0.117200 0.983900 0.134800
vn 0.337100 0.870800 -0.358000
vn 0.165500 0.983700 -0.070300
vn 0.769300 -0.545900 -0.332000
vn 0.421400 -0.574900 -0.701300
vn 0.490500 -0.304700 -0.816400
vn 0.942100 -0.239100 0.234900
vn 0.551100 -0.536900 0.638700
vn 0.855300 -0.480500 0.194100
vn 0.847700 -0.384200 -0.365800
vn -0.590800 -0.426800 -0.684700
vn -0.076200 -0.346600 -0.934900
vn 0.443400 0.870300 0.214300
vn 0.950300 -0.241000 0.197100
vn -0.397400 0.870300 -0.290900
vn -0.600200 -0.311100 -0.736800
vn -0.483400 0.870700 0.090800
vn -0.861900 -0.304700 0.405500
vn 0.146800 0.870700 0.469400
vn 0.052700 -0.263400 0.963300
vn 0.157800 0.870800 -0.465700
vn 0.522300 -0.286100 -0.803300
vn -0.642900 -0.310300 -0.700200
vn -0.795600 -0.578200 -0.180600
vn -0.869600 -0.320800 0.375300
vn -0.881900 -0.426800 -0.200200
vn 0.078100 -0.275500 0.958100
vn -0.421400 -0.574900 0.701300
vn 0.572900 -0.480500 0.664000
vn 0.075000 -0.384200 0.920200
vn -0.861200 -0.346600 0.371700
usemtl TROLLBERRIES
s off
f 25/1/1 17/2/1 6/3/1
f 11/4/2 15/5/2 6/6/2
f 21/7/3 18/8/3 19/9/3
f 23/10/4 1/11/4 27/12/4
f 24/13/5 29/14/5 2/15/5
f 21/16/6 14/17/6 2/18/6
f 22/19/7 20/20/7 26/21/7
f 22/22/8 1/23/8 11/4/8
f 28/24/9 5/25/9 30/26/9
f 18/8/10 4/27/10 8/28/10
f 20/29/11 6/3/11 17/2/11
f 7/30/12 9/31/12 26/21/12
f 10/32/13 14/17/13 15/5/13
f 13/33/14 11/4/14 1/23/14
f 10/32/15 11/4/15 13/33/15
f 10/32/16 15/5/16 11/4/16
f 24/34/17 2/18/17 12/35/17
f 10/32/18 13/33/18 12/35/18
f 23/36/19 13/33/19 1/23/19
f 12/35/20 13/33/20 5/37/20
f 10/32/21 12/35/21 14/17/21
f 14/17/22 12/35/22 2/18/22
f 25/38/23 6/6/23 15/5/23
f 15/5/24 14/17/24 3/39/24
f 16/40/25 3/41/25 19/42/25
f 8/43/26 7/44/26 17/2/26
f 25/1/27 16/40/27 17/2/27
f 8/43/26 17/2/26 16/40/26
f 21/7/28 2/45/28 18/8/28
f 18/8/29 2/45/29 29/46/29
f 8/28/30 19/9/30 18/8/30
f 16/40/31 19/42/31 8/43/31
f 26/21/32 20/20/32 7/30/32
f 7/44/33 20/29/33 17/2/33
f 21/16/34 3/39/34 14/17/34
f 21/7/35 19/9/35 3/47/35
f 22/22/36 11/4/36 6/6/36
f 22/19/37 6/48/37 20/20/37
f 23/36/38 5/37/38 13/33/38
f 23/49/39 30/26/39 5/25/39
f 24/34/40 12/35/40 5/37/40
f 24/13/41 5/25/41 28/24/41
f 25/38/42 15/5/42 3/39/42
f 25/1/43 3/41/43 16/40/43
f 22/19/44 26/21/44 1/11/44
f 27/12/45 1/11/45 26/21/45
f 23/49/46 27/50/46 30/26/46
f 9/31/47 27/12/47 26/21/47
f 24/13/48 28/24/48 29/14/48
f 28/24/49 30/26/49 4/51/49
f 18/8/50 29/46/50 4/27/50
f 4/51/51 29/14/51 28/24/51
f 30/26/49 9/52/49 4/51/49
f 30/26/52 27/50/52 9/52/52
