# Blender v2.75 (sub 0) OBJ File: 'Empty.blend'
# www.blender.org
mtllib ITFO_POTION_ELIXIER_EGG.mtl
o ITFO_POTION_ELIXIER_EGG
v 0.000000 0.066667 -0.075000
v 0.000000 -0.100000 0.052500
v 0.000000 0.110483 0.025725
v -0.031826 0.200500 0.018375
v 0.000000 0.200500 -0.036750
v -0.068583 0.102773 -0.000110
v 0.045466 -0.100000 -0.026250
v 0.072303 0.087785 -0.022691
v 0.031826 0.200500 0.018375
v -0.045466 -0.100000 0.026250
v 0.000000 -0.100000 -0.052500
v 0.000000 0.066667 0.075000
v -0.045466 -0.100000 -0.026250
v 0.045466 -0.100000 0.026250
v 0.000000 0.110483 -0.025725
v -0.022279 0.110483 0.012862
v 0.022279 0.110483 -0.012862
v 0.000000 0.200500 0.036750
v 0.031826 0.200500 -0.018375
v -0.031826 0.200500 -0.018375
v 0.072303 0.087785 0.022691
v -0.072303 0.087785 0.022691
v -0.022279 0.110483 -0.012862
v 0.022279 0.110483 0.012862
v -0.072303 0.087785 -0.022691
v 0.066083 0.102773 0.000110
v -0.057452 0.066667 0.037500
v 0.057452 0.066667 -0.037500
v -0.057452 0.066667 -0.037500
v 0.057452 0.066667 0.037500
vt 0.747815 -0.721930
vt 0.709121 -0.721930
vt 0.747815 -1.039752
vt 0.541554 -0.721930
vt 0.502861 -0.721930
vt 0.543686 -1.039752
vt 0.584512 -0.456360
vt 0.543686 -0.456360
vt 0.584512 -0.631119
vt 0.625338 -0.456360
vt 0.625338 -0.631119
vt 0.502861 -0.631119
vt 0.625338 -0.721930
vt 0.586644 -0.721930
vt 0.625338 -1.039752
vt 0.706989 -1.039752
vt 0.664031 -0.721930
vt 0.666163 -1.039752
vt 0.584512 -1.039752
vt 0.706989 -0.631119
vt 0.706989 -0.456360
vt 0.666163 -0.456360
vt 0.516994 -0.526669
vt 0.533988 -0.497234
vt 0.466012 -0.497234
vt 0.524277 -0.539284
vt 0.451445 -0.497234
vt 0.548555 -0.497234
vt 0.475723 -0.455185
vt 0.475723 -0.539284
vt 0.502861 -1.039752
vt 0.524277 -0.455185
vt 0.543686 -0.631119
vt 0.103071 -0.466989
vt 0.123876 -0.533262
vt 0.145039 -0.466989
vt 0.666163 -0.631119
vt 0.145039 -0.467340
vt 0.124234 -0.536282
vt 0.103071 -0.467340
vt 0.747815 -0.631119
vt 0.516994 -0.467799
vt 0.483006 -0.467799
vt 0.747815 -0.456360
vt 0.502861 -0.456360
vt 0.483006 -0.526669
vt 0.429235 -0.463768
vt 0.352704 -0.474811
vt 0.397254 -0.496279
vt -0.028498 -0.463768
vt -0.105020 -0.474811
vt -0.060479 -0.496279
vt -0.181076 -0.463768
vt -0.149095 -0.496279
vt 0.276657 -0.463768
vt 0.308639 -0.496279
vt -0.020530 -0.530766
vt 0.437203 -0.530766
vt -0.189044 -0.530766
vt 0.268689 -0.530766
vn 0.543100 -0.112300 -0.832100
vn -0.544100 -0.095400 -0.833600
vn -0.994400 -0.105500 0.000000
vn -0.497200 -0.105500 0.861200
vn -0.397900 0.685600 -0.609600
vn -0.543100 -0.112300 0.832100
vn 0.997400 -0.071700 0.000000
vn -0.997400 -0.071700 0.000000
vn 0.404300 0.672900 -0.619500
vn 0.544100 -0.095400 0.833600
vn 0.994400 -0.105500 0.000000
vn 0.000000 1.000000 -0.000000
vn 0.000000 -1.000000 0.000000
vn -0.497800 -0.094000 0.862200
vn 0.497800 -0.094000 -0.862200
vn 0.397900 0.685600 0.609600
vn -0.404300 0.672900 0.619500
vn -0.496600 -0.116100 -0.860200
vn 0.496600 -0.116100 0.860200
vn -0.164200 0.986400 0.000000
vn 0.173300 0.984900 0.000000
vn -0.358200 0.697700 0.620400
vn 0.497200 -0.105500 -0.861200
vn 0.358200 0.697700 -0.620400
vn 0.497200 -0.105500 0.861200
vn -0.497200 -0.105500 -0.861200
vn 0.286300 0.834600 -0.470600
vn -0.276100 0.823200 0.496100
vn -0.373800 0.664100 -0.647500
vn 0.373800 0.664100 0.647500
vn -0.274500 0.821400 -0.500000
vn -0.970600 0.240800 0.000000
vn 0.284700 0.832900 0.474500
vn 0.923600 0.383300 0.000000
vn -0.077600 0.535300 0.841100
vn -0.818000 -0.575200 0.000000
vn 0.077600 0.535300 -0.841100
vn 0.818000 -0.575200 0.000000
vn -0.077600 0.535300 -0.841100
vn 0.077600 0.535300 0.841100
usemtl IT_POTIONS
s off
f 1/1/1 28/2/1 11/3/1
f 29/4/2 1/5/2 13/6/2
f 4/7/3 20/8/3 16/9/3
f 18/10/4 4/7/4 3/11/4
f 29/4/5 15/12/5 1/5/5
f 12/13/6 27/14/6 2/15/6
f 7/16/7 30/17/7 14/18/7
f 10/19/8 29/4/8 13/6/8
f 1/1/9 17/20/9 28/2/9
f 30/17/10 12/13/10 14/18/10
f 19/21/11 9/22/11 17/20/11
f 4/23/12 18/24/12 5/25/12
f 10/26/13 11/27/13 2/28/13
f 2/15/14 27/14/14 10/19/14
f 7/29/13 2/28/13 11/27/13
f 11/3/15 28/2/15 7/16/15
f 30/17/16 3/11/16 12/13/16
f 12/13/17 16/9/17 27/14/17
f 13/30/13 11/27/13 10/26/13
f 13/6/18 1/5/18 11/31/18
f 14/32/13 2/28/13 7/29/13
f 14/18/19 12/13/19 2/15/19
f 16/9/3 20/8/3 23/33/3
f 23/34/20 6/35/20 16/36/20
f 17/20/11 9/22/11 24/37/11
f 24/38/21 26/39/21 17/40/21
f 3/11/4 4/7/4 16/9/4
f 3/11/22 16/9/22 12/13/22
f 15/41/23 19/21/23 17/20/23
f 15/41/24 17/20/24 1/1/24
f 9/22/25 18/10/25 24/37/25
f 9/42/12 19/43/12 18/24/12
f 5/44/23 19/21/23 15/41/23
f 5/25/12 18/24/12 19/43/12
f 20/8/26 5/45/26 23/33/26
f 20/46/12 4/23/12 5/25/12
f 28/2/7 30/17/7 7/16/7
f 17/47/27 26/48/27 8/49/27
f 16/50/28 6/51/28 22/52/28
f 27/14/8 29/4/8 10/19/8
f 23/33/26 5/45/26 15/12/26
f 23/33/29 15/12/29 29/4/29
f 30/17/30 24/37/30 3/11/30
f 24/37/25 18/10/25 3/11/25
f 23/53/31 25/54/31 6/51/31
f 22/52/32 6/51/32 25/54/32
f 24/55/33 21/56/33 26/48/33
f 8/49/34 26/48/34 21/56/34
f 16/50/35 22/52/35 27/57/35
f 27/57/36 22/52/36 25/54/36
f 17/47/37 8/49/37 28/58/37
f 28/58/38 8/49/38 21/56/38
f 23/53/39 29/59/39 25/54/39
f 27/57/36 25/54/36 29/59/36
f 24/55/40 30/60/40 21/56/40
f 28/58/38 21/56/38 30/60/38
