# Blender v2.75 (sub 0) OBJ File: 'Empty.blend'
# www.blender.org
mtllib ITFO_MUTTON_01.mtl
o ITFO_MUTTON_01
v 0.118300 -0.000317 -0.288376
v 0.004909 0.019025 0.452366
v 0.052348 -0.085985 -0.042546
v -0.076050 -0.000317 -0.288376
v 0.000000 0.092950 -0.160550
v -0.006079 -0.011012 0.456583
v 0.160550 -0.030937 -0.095711
v 0.023423 0.007639 0.272660
v 0.160550 0.033800 -0.084500
v 0.002914 0.061965 -0.017419
v 0.118300 0.050700 -0.278850
v -0.101400 0.033800 -0.126750
v -0.076050 0.050700 -0.278850
v 0.085454 0.030802 -0.027698
v 0.169000 -0.002317 -0.210497
v 0.000000 -0.071688 -0.186402
v 0.169000 0.033800 -0.202800
v -0.034249 -0.085985 -0.028840
v -0.018313 0.007639 0.285313
v 0.008172 -0.010126 0.452366
v -0.008533 -0.013819 0.272660
v -0.011031 0.002802 0.452366
v 0.014016 0.002802 0.452366
v 0.015934 -0.013819 0.287421
v 0.033800 0.001727 -0.296575
v 0.033800 0.050700 -0.287300
v -0.077957 0.020214 -0.020845
v 0.002555 0.027215 0.260008
vt 0.062769 -0.163083
vt 0.074064 -0.214747
vt 0.101324 -0.165228
vt 0.040062 -0.165408
vt 0.069266 -0.212436
vt 0.085097 -0.140558
vt 0.010839 -0.154759
vt 0.065164 -0.167131
vt 0.068887 -0.212641
vt 0.081390 -0.163642
vt 0.064845 -0.144439
vt 0.070906 -0.124103
vt 0.048700 -0.128360
vt 0.048197 -0.169189
vt 0.060462 -0.215739
vt 0.064935 -0.211008
vt 0.005121 -0.136787
vt 0.098109 -0.133923
vt 0.096549 -0.152699
vt 0.073787 -0.240573
vt 0.065535 -0.241196
vt 0.046913 -0.153906
vt 0.065451 -0.159404
vt 0.063890 -0.153077
vt 0.002681 -0.161584
vt 0.014824 -0.161111
vt 0.013517 -0.156322
vt 0.047914 -0.160301
vt 0.043520 -0.153065
vt 0.084957 -0.212435
vt 0.113538 -0.166480
vt 0.001342 -0.156596
vt 0.047946 -0.127401
vt 0.076082 -0.159043
vt 0.029341 -0.160444
vt 0.028002 -0.155455
vt 0.027556 -0.124593
vt 0.114084 -0.124591
vt 0.065037 -0.123308
vt 0.123046 -0.149898
vt 0.088005 -0.123173
vt 0.062075 -0.241791
vt 0.047403 -0.177734
vt 0.053228 -0.214613
vt 0.064431 -0.220117
vt 0.081800 -0.231430
vt 0.073749 -0.219519
vt 0.063750 -0.241660
vt 0.060293 -0.241467
vt 0.083677 -0.241233
vt 0.077271 -0.240573
vt 0.059658 -0.231350
vt 0.050577 -0.243580
vt 0.076634 -0.240880
vn 0.034400 -0.975500 0.217100
vn 0.941800 -0.288900 0.172200
vn 0.354600 -0.908900 -0.219400
vn 0.365300 0.919300 0.146300
vn -0.024800 0.946400 -0.322100
vn -0.459300 0.879400 0.125600
vn 0.961100 -0.228100 0.156000
vn -0.615700 0.781900 0.097100
vn 0.347000 -0.915700 -0.202800
vn 0.335600 0.941700 0.024000
vn 0.870500 0.488700 0.058700
vn 0.649700 0.754200 0.095300
vn 0.997400 -0.012200 0.070400
vn 0.527200 -0.252600 0.811400
vn 0.367400 0.910500 0.189600
vn -0.456300 0.867700 0.197100
vn -0.075400 0.185600 -0.979700
vn 0.997300 -0.015200 0.071200
vn -0.500700 0.865500 0.012700
vn -0.906800 -0.386000 0.169700
vn -0.076600 0.183000 -0.980100
vn -0.986500 0.030100 -0.161100
vn 0.601100 -0.136400 0.787500
vn 0.196500 0.930600 0.308900
vn 0.835000 0.101000 -0.541000
vn 0.338400 -0.908900 -0.243600
vn -0.026400 -0.828100 -0.559900
vn -0.709900 -0.703400 0.037100
vn 0.838100 0.113700 -0.533500
vn 0.328300 0.944500 -0.009000
vn -0.762500 -0.608100 -0.220900
vn -0.014800 -0.995500 -0.093500
vn -0.712400 0.699900 0.051300
vn -0.863900 -0.481300 0.148500
vn -0.146000 -0.959200 0.242000
vn 0.149200 0.083800 0.985300
vn -0.903500 -0.427700 0.027000
vn 0.066300 -0.997700 0.014300
vn -0.216900 0.213100 0.952700
vn -0.942900 -0.332600 0.017700
vn 0.288800 -0.130600 0.948400
vn 0.951900 -0.303600 0.041700
vn -0.013100 -0.999700 0.021800
vn 0.910000 -0.411400 0.052000
vn 0.099300 0.185200 -0.977700
vn 0.032900 -0.836300 -0.547200
vn 0.097800 0.182700 -0.978300
vn 0.030900 0.950700 -0.308700
vn -0.909900 -0.385900 0.151900
vn -0.439700 0.873400 0.209400
vn 0.676500 0.736100 0.023100
vn -0.657300 0.752500 0.040100
usemtl MUTTON
s off
f 3/1/1 24/2/1 18/3/1
f 14/4/2 8/5/2 3/1/2
f 16/6/3 7/7/3 3/1/3
f 10/8/4 8/9/4 14/10/4
f 5/11/5 26/12/5 13/13/5
f 27/14/6 19/15/6 10/8/6
f 3/1/7 8/5/7 24/2/7
f 10/8/8 19/15/8 28/16/8
f 15/17/9 7/7/9 16/6/9
f 17/18/10 5/11/10 9/19/10
f 23/20/11 8/9/11 2/21/11
f 10/8/12 28/16/12 8/9/12
f 15/22/13 9/23/13 7/24/13
f 7/7/14 14/4/14 3/1/14
f 5/11/15 10/8/15 14/10/15
f 5/11/16 27/14/16 10/8/16
f 13/25/17 26/26/17 25/27/17
f 15/22/18 17/28/18 9/23/18
f 13/13/19 12/29/19 5/11/19
f 18/3/20 21/30/20 27/31/20
f 13/25/21 25/27/21 4/32/21
f 12/29/22 13/13/22 4/33/22
f 7/24/23 9/23/23 14/34/23
f 5/11/24 14/10/24 9/19/24
f 11/35/25 15/22/25 1/36/25
f 16/6/26 1/37/26 15/17/26
f 16/6/27 4/38/27 25/39/27
f 4/38/28 16/6/28 12/40/28
f 11/35/29 17/28/29 15/22/29
f 5/11/30 17/18/30 11/41/30
f 18/3/31 12/40/31 16/6/31
f 16/6/32 3/1/32 18/3/32
f 22/42/33 2/21/33 19/15/33
f 27/43/34 21/44/34 19/45/34
f 18/3/35 24/2/35 21/30/35
f 23/46/36 2/47/36 6/48/36
f 19/45/37 21/44/37 22/49/37
f 6/50/38 21/30/38 20/51/38
f 2/47/39 22/52/39 6/48/39
f 22/49/40 21/44/40 6/53/40
f 20/54/41 23/46/41 6/48/41
f 24/2/42 8/5/42 23/20/42
f 21/30/43 24/2/43 20/51/43
f 24/2/44 23/20/44 20/51/44
f 26/26/45 1/36/45 25/27/45
f 25/39/46 1/37/46 16/6/46
f 26/26/47 11/35/47 1/36/47
f 26/12/48 5/11/48 11/41/48
f 18/3/49 27/31/49 12/40/49
f 27/14/50 5/11/50 12/29/50
f 8/9/51 28/16/51 2/21/51
f 28/16/52 19/15/52 2/21/52
