# Blender v2.75 (sub 0) OBJ File: 'Empty.blend'
# www.blender.org
mtllib ITFO_POTION_HEALTH_02.mtl
o ITFO_POTION_HEALTH_02
v 0.037500 0.066667 0.064952
v -0.037500 0.066667 -0.064952
v 0.036750 0.200500 0.000000
v -0.026250 -0.050000 -0.045466
v -0.018375 0.200500 0.031826
v -0.075000 0.066667 -0.000000
v 0.037500 0.066667 -0.064952
v 0.052500 -0.050000 0.000000
v -0.026250 -0.050000 0.045466
v 0.012862 0.110483 0.022279
v -0.037500 0.066667 0.064952
v 0.075000 0.066667 0.000000
v -0.025725 0.110483 -0.000000
v 0.026250 -0.050000 -0.045466
v 0.026250 -0.050000 0.045466
v -0.052500 -0.050000 -0.000000
v 0.018375 0.200500 -0.031826
v -0.036750 0.200500 -0.000000
v 0.025725 0.110483 0.000000
v -0.012862 0.110483 -0.022279
v -0.018375 0.200500 -0.031826
v 0.018375 0.200500 0.031826
v -0.012862 0.110483 0.022279
v 0.012862 0.110483 -0.022279
vt 0.000934 0.039472
vt 0.000934 -0.087465
vt 0.042007 -0.087465
vt 0.042007 0.039472
vt 0.083079 -0.087465
vt 0.124152 -0.129488
vt 0.165225 -0.269099
vt 0.165225 -0.129488
vt 0.206297 -0.269099
vt 0.206297 -0.129488
vt 0.124152 0.039472
vt 0.165225 -0.087465
vt 0.165225 0.039472
vt 0.042007 -0.129488
vt 0.083079 -0.269099
vt 0.083079 -0.129488
vt 0.000934 -0.129488
vt 0.042007 -0.269099
vt 0.000934 -0.269099
vt 0.500000 -0.459783
vt 0.500000 -0.540217
vt 0.465171 -0.520109
vt 0.124152 -0.087465
vt 0.124152 -0.269099
vt 0.247370 -0.269099
vt 0.247370 -0.129488
vt 0.206297 -0.087465
vt 0.465171 -0.479891
vt 0.534829 -0.479891
vt 0.534829 -0.520109
vt 0.475619 -0.514076
vt 0.500000 -0.471848
vt 0.475619 -0.485924
vt 0.206297 0.039472
vt 0.247370 -0.087465
vt 0.247370 0.039472
vt 0.524381 -0.485924
vt 0.500000 -0.528152
vt 0.524381 -0.514076
vt 0.083079 0.039472
vn 0.000000 -0.105500 -0.994400
vn -0.861200 -0.105500 -0.497200
vn 0.000000 -0.164700 0.986300
vn 0.854200 -0.164700 0.493200
vn 0.000000 -0.105500 0.994400
vn -0.854200 -0.164700 -0.493200
vn -0.620400 0.697700 -0.358200
vn 0.000000 -0.164700 -0.986300
vn 0.000000 0.697700 -0.716400
vn 0.000000 -1.000000 0.000000
vn 0.620400 0.697700 0.358200
vn 0.000000 0.697700 0.716400
vn -0.854200 -0.164700 0.493200
vn -0.620400 0.697700 0.358200
vn 0.854200 -0.164700 -0.493200
vn 0.620400 0.697700 -0.358200
vn 0.000000 1.000000 0.000000
vn 0.861200 -0.105500 -0.497200
vn -0.861200 -0.105500 0.497200
vn 0.861200 -0.105500 0.497200
usemtl IT_POTIONS
s off
f 17/1/1 24/2/1 20/3/1
f 21/4/2 20/3/2 13/5/2
f 11/6/3 15/7/3 1/8/3
f 1/8/4 8/9/4 12/10/4
f 5/11/5 10/12/5 22/13/5
f 17/1/1 20/3/1 21/4/1
f 2/14/6 16/15/6 6/16/6
f 20/3/7 6/16/7 13/5/7
f 7/17/8 4/18/8 2/14/8
f 24/2/9 7/17/9 2/14/9
f 1/8/4 15/7/4 8/9/4
f 7/17/8 14/19/8 4/18/8
f 2/14/6 4/18/6 16/15/6
f 8/20/10 16/21/10 4/22/10
f 10/12/11 1/8/11 12/10/11
f 23/23/12 11/6/12 1/8/12
f 6/16/13 9/24/13 11/6/13
f 13/5/14 6/16/14 11/6/14
f 12/10/15 14/25/15 7/26/15
f 19/27/16 12/10/16 7/26/16
f 5/11/5 23/23/5 10/12/5
f 23/23/12 1/8/12 10/12/12
f 8/20/10 4/22/10 14/28/10
f 12/10/15 8/9/15 14/25/15
f 16/21/10 8/20/10 15/29/10
f 11/6/3 9/24/3 15/7/3
f 16/21/10 15/29/10 9/30/10
f 6/16/13 16/15/13 9/24/13
f 21/31/17 3/32/17 17/33/17
f 3/34/18 24/35/18 17/36/18
f 22/37/17 18/38/17 5/39/17
f 18/40/19 23/23/19 5/11/19
f 10/12/11 12/10/11 19/27/11
f 22/13/20 10/12/20 19/27/20
f 24/2/9 2/14/9 20/3/9
f 20/3/7 2/14/7 6/16/7
f 3/32/17 21/31/17 18/38/17
f 21/4/2 13/5/2 18/40/2
f 3/32/17 18/38/17 22/37/17
f 22/13/20 19/27/20 3/34/20
f 13/5/14 11/6/14 23/23/14
f 18/40/19 13/5/19 23/23/19
f 19/27/16 7/26/16 24/35/16
f 3/34/18 19/27/18 24/35/18
