# Blender v2.75 (sub 0) OBJ File: 'Empty.blend'
# www.blender.org
mtllib ITFO_POTION_HEALTH_PERMA_02.mtl
o ITFO_POTION_HEALTH_PERMA_02
v 0.000000 0.066667 -0.075000
v 0.000000 -0.050000 0.052500
v 0.000000 0.110483 0.025725
v -0.031826 0.200500 0.018375
v 0.000000 0.200500 -0.036750
v -0.068583 0.102773 -0.000110
v 0.045466 -0.050000 -0.026250
v 0.072303 0.087785 -0.022691
v 0.031826 0.200500 0.018375
v 0.000000 -0.050000 -0.052500
v -0.045466 -0.050000 0.026250
v 0.000000 0.066667 0.075000
v -0.045466 -0.050000 -0.026250
v 0.000000 0.110483 -0.025725
v -0.022279 0.110483 0.012862
v 0.045466 -0.050000 0.026250
v 0.022279 0.110483 -0.012862
v 0.000000 0.200500 0.036750
v 0.031826 0.200500 -0.018375
v -0.031826 0.200500 -0.018375
v 0.072303 0.087785 0.022691
v -0.057452 0.066667 0.037500
v -0.057452 0.066667 -0.037500
v -0.022279 0.110483 -0.012862
v 0.022279 0.110483 0.012862
v 0.066083 0.102773 0.000110
v 0.057452 0.066667 -0.037500
v 0.057452 0.066667 0.037500
v -0.072303 0.087785 0.022691
v -0.072303 0.087785 -0.022691
vt 0.247321 -0.179367
vt 0.208679 -0.179367
vt 0.247321 -0.271122
vt 0.041337 -0.179367
vt 0.002695 -0.179367
vt 0.043466 -0.271122
vt 0.084237 0.040498
vt 0.043466 0.040498
vt 0.084237 -0.072534
vt 0.125008 0.040498
vt 0.125008 -0.072534
vt 0.002695 -0.072534
vt 0.125008 -0.179367
vt 0.086366 -0.179367
vt 0.125008 -0.271122
vt 0.206550 -0.271122
vt 0.163650 -0.179367
vt 0.165779 -0.271122
vt 0.084237 -0.271122
vt 0.206550 -0.072534
vt 0.206550 0.040498
vt 0.165779 0.040498
vt 0.516537 -0.526448
vt 0.533074 -0.497806
vt 0.466926 -0.497805
vt 0.476376 -0.456887
vt 0.547248 -0.497806
vt 0.452752 -0.497805
vt 0.523624 -0.538724
vt 0.476376 -0.538724
vt 0.002695 -0.271122
vt 0.043466 -0.072534
vt 0.104052 -0.221998
vt 0.124829 -0.260667
vt 0.145964 -0.221998
vt 0.165779 -0.072534
vt 0.145964 -0.222946
vt 0.125187 -0.260840
vt 0.104052 -0.222946
vt 0.523624 -0.456887
vt 0.247321 -0.072534
vt 0.516537 -0.469163
vt 0.483463 -0.469163
vt 0.247321 0.040498
vt 0.002695 0.040498
vt 0.483463 -0.526448
vt 0.329736 -0.228024
vt 0.278201 -0.230936
vt 0.308200 -0.247102
vt 0.021506 -0.228024
vt -0.000030 -0.247102
vt 0.026871 -0.269379
vt -0.081237 -0.228024
vt -0.086602 -0.269379
vt -0.059701 -0.247102
vt 0.226992 -0.228024
vt 0.248528 -0.247102
vt 0.335101 -0.269379
vt 0.221627 -0.269379
vt -0.030023 -0.230936
vn 0.539600 -0.159400 -0.826700
vn -0.541500 -0.135600 -0.829700
vn -0.994400 -0.105500 0.000000
vn -0.497200 -0.105500 0.861200
vn -0.397900 0.685600 -0.609600
vn -0.539600 -0.159400 0.826700
vn 0.994800 -0.102200 0.000000
vn -0.994800 -0.102200 0.000000
vn 0.404300 0.672900 -0.619500
vn 0.541500 -0.135600 0.829700
vn 0.994400 -0.105500 0.000000
vn 0.000000 1.000000 -0.000000
vn 0.000000 -1.000000 0.000000
vn 0.495500 -0.133700 -0.858300
vn -0.495500 -0.133700 0.858300
vn 0.397900 0.685600 0.609600
vn -0.404300 0.672900 0.619500
vn -0.493200 -0.164700 -0.854200
vn -0.164200 0.986400 0.000000
vn 0.173300 0.984900 0.000000
vn -0.358200 0.697700 0.620400
vn 0.493200 -0.164700 0.854200
vn 0.497200 -0.105500 -0.861200
vn 0.358200 0.697700 -0.620400
vn 0.497200 -0.105500 0.861200
vn -0.497200 -0.105500 -0.861200
vn 0.286300 0.834600 -0.470600
vn -0.077600 0.535300 0.841100
vn -0.077600 0.535300 -0.841100
vn -0.818000 -0.575200 0.000000
vn -0.373800 0.664100 -0.647500
vn 0.373800 0.664100 0.647500
vn 0.284700 0.832900 0.474500
vn 0.923600 0.383300 0.000000
vn 0.077600 0.535300 -0.841100
vn 0.818000 -0.575200 0.000000
vn 0.077600 0.535300 0.841100
vn -0.276100 0.823200 0.496100
vn -0.274500 0.821400 -0.500000
vn -0.970600 0.240800 0.000000
usemtl IT_POTIONS
s off
f 1/1/1 27/2/1 10/3/1
f 23/4/2 1/5/2 13/6/2
f 4/7/3 20/8/3 15/9/3
f 18/10/4 4/7/4 3/11/4
f 23/4/5 14/12/5 1/5/5
f 12/13/6 22/14/6 2/15/6
f 7/16/7 28/17/7 16/18/7
f 11/19/8 23/4/8 13/6/8
f 1/1/9 17/20/9 27/2/9
f 28/17/10 12/13/10 16/18/10
f 19/21/11 9/22/11 17/20/11
f 4/23/12 18/24/12 5/25/12
f 7/26/13 2/27/13 10/28/13
f 10/3/14 27/2/14 7/16/14
f 11/29/13 10/28/13 2/27/13
f 2/15/15 22/14/15 11/19/15
f 28/17/16 3/11/16 12/13/16
f 12/13/17 15/9/17 22/14/17
f 13/30/13 10/28/13 11/29/13
f 13/6/18 1/5/18 10/31/18
f 15/9/3 20/8/3 24/32/3
f 24/33/19 6/34/19 15/35/19
f 17/20/11 9/22/11 25/36/11
f 25/37/20 26/38/20 17/39/20
f 3/11/4 4/7/4 15/9/4
f 3/11/21 15/9/21 12/13/21
f 16/40/13 2/27/13 7/26/13
f 16/18/22 12/13/22 2/15/22
f 14/41/23 19/21/23 17/20/23
f 14/41/24 17/20/24 1/1/24
f 9/22/25 18/10/25 25/36/25
f 9/42/12 19/43/12 18/24/12
f 5/44/23 19/21/23 14/41/23
f 5/25/12 18/24/12 19/43/12
f 20/8/26 5/45/26 24/32/26
f 20/46/12 4/23/12 5/25/12
f 27/2/7 28/17/7 7/16/7
f 17/47/27 26/48/27 8/49/27
f 15/50/28 29/51/28 22/52/28
f 22/14/8 23/4/8 11/19/8
f 24/53/29 23/54/29 30/55/29
f 22/52/30 30/55/30 23/54/30
f 24/32/26 5/45/26 14/12/26
f 24/32/31 14/12/31 23/4/31
f 28/17/32 25/36/32 3/11/32
f 25/36/25 18/10/25 3/11/25
f 25/56/33 21/57/33 26/48/33
f 8/49/34 26/48/34 21/57/34
f 17/47/35 8/49/35 27/58/35
f 27/58/36 8/49/36 21/57/36
f 25/56/37 28/59/37 21/57/37
f 27/58/36 21/57/36 28/59/36
f 15/50/38 6/60/38 29/51/38
f 22/52/30 29/51/30 30/55/30
f 24/53/39 30/55/39 6/60/39
f 29/51/40 6/60/40 30/55/40
