# Blender v2.75 (sub 0) OBJ File: 'Empty.blend'
# www.blender.org
mtllib ITFO_PLANTS_STONEROOT_01.mtl
o ITFO_PLANTS_STONEROOT_01
v -0.149790 -0.585771 0.282426
v -0.012543 -0.042939 0.015030
v -0.149790 -0.585771 -0.254947
v 0.315590 -0.585771 0.013739
v -0.118787 0.224510 -0.044285
v -0.003524 -0.195542 0.035126
v 0.119464 0.213473 0.044714
v 0.012169 0.213473 -0.095280
v -0.018678 -0.195542 0.005284
v -0.013350 0.213473 0.113633
vt 0.999500 -0.000500
vt 0.000500 -0.020746
vt 0.495963 -0.999500
vt 0.999500 -0.020746
vt 0.000500 -0.000500
vt 0.504037 -0.999500
vt 0.981380 -0.004772
vt 0.026420 -0.004772
vt 0.538865 -0.959732
vt 1.021775 -0.000500
vt 0.022775 -0.000499
vt 0.485698 -0.999500
vt 0.920312 -0.223350
vt 0.574012 0.004585
vt 0.408598 -0.827354
vt 0.880784 -0.247037
vt 0.622236 0.083591
vt 0.397159 -0.847021
vt 0.611617 -0.004766
vt 0.928385 -0.195732
vt 0.398185 -0.849872
vn 0.345400 -0.082000 -0.934900
vn -0.345400 0.082000 0.934900
vn 0.991600 -0.045000 0.121100
vn -0.991600 0.045000 -0.121100
vn -0.969500 0.245100 0.000000
vn 0.478900 0.287500 0.829500
vn 0.478300 0.291100 -0.828500
usemtl ITMISWAMPHERB_2
s off
f 5/1/1 7/2/1 6/3/1
f 7/4/2 5/5/2 6/6/2
f 8/7/3 10/8/3 9/9/3
f 10/10/4 8/11/4 9/12/4
usemtl ITMISWAMPHERB_1
f 3/13/5 1/14/5 2/15/5
f 1/16/6 4/17/6 2/18/6
f 4/19/7 3/20/7 2/21/7
