# Blender v2.75 (sub 0) OBJ File: 'Empty.blend'
# www.blender.org
mtllib ITFO_RAWMUTTON_01.mtl
o ITFO_RAWMUTTON_01
v -0.003597 -0.006516 0.140168
v 0.000000 0.005387 -0.182140
v -0.020266 -0.050878 -0.147065
v 0.050565 0.003226 -0.146389
v 0.030975 -0.050878 -0.155175
v -0.046128 0.011961 -0.142334
v 0.001724 0.051666 -0.140307
v -0.005049 -0.008177 0.031337
v 0.001512 0.016104 0.023851
v 0.002905 0.011257 0.137672
v 0.013860 0.004520 0.031337
v 0.004836 -0.005992 0.137672
v -0.006527 0.001658 0.137672
v 0.008294 0.001658 0.137672
v 0.009428 -0.008177 0.040072
v -0.010836 0.004520 0.038824
vt 0.436360 -0.079867
vt 0.444683 -0.018572
vt 0.413408 -0.017466
vt 0.423318 -0.082737
vt 0.447927 -0.019804
vt 0.381821 -0.008816
vt 0.469277 -0.077639
vt 0.498240 -0.007182
vt 0.458875 -0.021270
vt 0.423446 -0.055314
vt 0.413308 -0.042167
vt 0.414140 -0.064660
vt 0.439169 -0.089424
vt 0.496497 -0.031424
vt 0.422093 -0.031431
vt 0.410268 -0.019945
vt 0.455293 -0.083222
vt 0.459916 -0.077757
vt 0.465526 -0.015811
vt 0.404304 -0.042386
vt 0.452388 -0.088483
vt 0.441988 -0.118033
vt 0.442713 -0.082475
vt 0.456532 -0.119323
vt 0.432495 -0.123912
vt 0.435956 -0.124986
vt 0.446007 -0.127130
vt 0.454518 -0.129595
vt 0.705882 -0.368627
vt 0.658824 -0.368627
vt 0.752941 -0.368627
vt 0.678431 -0.368627
vt 0.437933 -0.119034
vt 0.631373 -0.368627
vn -0.906800 -0.386000 0.169700
vn 0.912600 -0.361500 0.191100
vn 0.706000 0.694100 0.140700
vn 0.573500 -0.075200 -0.815700
vn 0.034400 -0.975500 0.217100
vn -0.136400 -0.488200 -0.862000
vn -0.655400 -0.215200 -0.724000
vn -0.551600 0.815400 0.175900
vn 0.488600 0.575000 -0.656300
vn -0.471300 0.601000 -0.645500
vn -0.146000 -0.959200 0.242000
vn -0.903500 -0.427700 0.027000
vn 0.618800 0.767600 0.167100
vn -0.657300 0.752500 0.040100
vn -0.712400 0.699900 0.051300
vn 0.961100 -0.228100 0.156000
vn 0.870500 0.488700 0.058700
vn 0.676500 0.736100 0.023100
vn 0.066300 -0.997700 0.014300
vn 0.149200 0.083800 0.985300
vn -0.216900 0.213100 0.952700
vn -0.942900 -0.332600 0.017700
vn 0.288800 -0.130600 0.948400
vn 0.951900 -0.303600 0.041700
vn -0.013100 -0.999700 0.021800
vn 0.910000 -0.411400 0.052000
vn -0.863900 -0.481300 0.148500
vn -0.634700 0.757100 0.154700
usemtl ITFOOD
s off
f 8/1/1 6/2/1 3/3/1
f 11/4/2 5/5/2 4/6/2
f 11/7/3 4/8/3 7/9/3
f 5/10/4 2/11/4 4/12/4
f 15/13/5 3/14/5 5/5/5
f 5/10/6 3/15/6 2/11/6
f 6/16/7 2/11/7 3/15/7
f 16/17/8 9/18/8 7/19/8
f 7/20/9 4/12/9 2/11/9
f 2/11/10 6/16/10 7/20/10
f 15/13/11 8/21/11 3/14/11
f 8/1/12 13/22/12 16/23/12
f 9/18/13 11/7/13 7/9/13
f 16/17/14 10/24/14 9/18/14
f 10/24/15 16/23/15 13/22/15
f 11/4/16 15/13/16 5/5/16
f 11/4/17 10/25/17 14/26/17
f 9/18/18 10/24/18 11/7/18
f 8/21/19 12/27/19 1/28/19
f 10/29/20 1/30/20 14/31/20
f 13/32/21 1/30/21 10/29/21
f 8/1/22 1/33/22 13/22/22
f 14/31/23 1/30/23 12/34/23
f 11/4/24 14/26/24 15/13/24
f 15/13/25 12/27/25 8/21/25
f 14/26/26 12/27/26 15/13/26
f 8/1/27 16/23/27 6/2/27
f 16/23/28 7/19/28 6/2/28
