# Blender v2.75 (sub 0) OBJ File: 'Empty.blend'
# www.blender.org
mtllib ITFO_PLANTS_BLOODWOOD_01.mtl
o ITFO_PLANTS_BLOODWOOD_01
v -0.050726 -0.009575 0.058732
v 0.134970 0.025782 0.050631
v 0.140580 0.021630 0.101036
v -0.102335 -0.009575 0.026193
v -0.055790 0.025782 -0.153758
v -0.005947 0.021630 -0.144386
v -0.050165 -0.014688 0.109357
v -0.176957 0.000000 -0.073068
v -0.025851 0.000000 -0.186935
v 0.006789 0.000000 -0.147895
v -0.027434 0.000000 -0.111516
v 0.158296 0.000000 -0.075414
v 0.151123 0.000000 -0.025035
v -0.053758 -0.014688 0.040458
v -0.148426 0.000000 -0.030932
v -0.039656 0.000000 -0.062119
v 0.100001 0.030349 0.077157
v -0.134983 -0.013500 -0.074864
v 0.001987 -0.013500 -0.081524
v 0.001987 0.013500 -0.081524
v -0.012863 -0.018485 0.079573
v -0.071335 -0.018485 -0.003922
v -0.134983 0.013500 -0.074864
v -0.039147 -0.013500 -0.147082
v -0.039147 0.013500 -0.147082
v 0.119782 0.013500 -0.058627
v 0.119782 -0.013500 -0.058627
v -0.040647 0.030349 -0.112561
v -0.070168 0.007925 0.001569
v -0.017773 0.007925 0.082294
v -0.041814 0.003939 -0.118052
v 0.104911 0.003939 0.074435
v -0.083667 -0.015091 0.048755
v -0.066844 -0.015091 0.083181
v 0.153982 0.026955 0.073548
v 0.002782 0.000000 -0.178677
v -0.028316 0.026955 -0.165239
v -0.049549 0.000000 -0.091542
v 0.171318 0.000000 -0.048610
v -0.176911 0.000000 -0.043268
v -0.064497 0.000000 -0.081024
v 0.053729 0.000000 -0.033265
v -0.019680 0.002514 -0.049521
v 0.045846 0.002514 0.115639
v -0.103432 -0.002204 -0.009025
v 0.008427 0.000000 -0.114654
v -0.155294 0.000000 -0.101818
v -0.017367 -0.002204 0.047386
v -0.059458 0.000000 -0.174036
v -0.087065 -0.015000 -0.110973
v -0.087065 0.015000 -0.110973
v -0.073911 0.020220 -0.123155
v -0.056640 -0.008740 -0.061292
v 0.126222 0.000000 -0.091757
v 0.060885 -0.015000 -0.070076
v 0.060885 0.015000 -0.070076
v 0.100407 0.020220 0.042249
v 0.046297 -0.008740 0.076853
v 0.040841 0.020604 0.079877
v -0.055343 0.020604 -0.055191
v -0.092303 0.009350 -0.066962
v 0.041292 0.009350 0.041090
v -0.109633 0.000000 -0.140921
v 0.068040 0.000000 -0.106887
v -0.114672 0.000000 -0.047910
v 0.104505 0.014068 0.109343
v -0.004453 0.000000 -0.048395
v -0.038071 -0.008357 0.006672
v -0.008551 0.014068 -0.107458
v -0.013269 -0.008357 0.114480
v 0.113342 0.000000 -0.025497
v -0.018835 0.000000 -0.120128
vt 0.476500 -0.322512
vt 0.438701 -0.308881
vt 0.456707 -0.288456
vt 0.436844 -0.258559
vt 0.438622 -0.313503
vt 0.456637 -0.292615
vt 0.479420 -0.293147
vt 0.443291 -0.305838
vt 0.466909 -0.278940
vt 0.432065 -0.347306
vt 0.457192 -0.321624
vt 0.442109 -0.309466
vt 0.440479 -0.363824
vt 0.460692 -0.346721
vt 0.477324 -0.304233
vt 0.465613 -0.286345
vt 0.437985 -0.310309
vt 0.482736 -0.295551
vt 0.464358 -0.280624
vt 0.439580 -0.308034
vt 0.418491 -0.336365
vt 0.422068 -0.352161
vt 0.450997 -0.330184
vt 0.433181 -0.350373
vt 0.460000 -0.324621
vt 0.483690 -0.303313
vt 0.472431 -0.272461
vt 0.410357 -0.334273
vt 0.402606 -0.363428
vt 0.386183 -0.355241
vt 0.424973 -0.290433
vt 0.453902 -0.268457
vt 0.414803 -0.335445
vt 0.414150 -0.364368
vt 0.393122 -0.359430
vt 0.419160 -0.291448
vt 0.445980 -0.265696
vt 0.420686 -0.329768
vt 0.425351 -0.370222
vt 0.404892 -0.349922
vt 0.416631 -0.275662
vt 0.419555 -0.333100
vt 0.414784 -0.361568
vt 0.398305 -0.358427
vt 0.405981 -0.322158
vt 0.428209 -0.293681
vt 0.489788 -0.265377
vt 0.492098 -0.285805
vt 0.494409 -0.275580
vt 0.486038 -0.256639
vt 0.465846 -0.282205
vt 0.491479 -0.273851
vt 0.487095 -0.256878
vt 0.420616 -0.333928
vt 0.453335 -0.267998
vt 0.396160 -0.341473
vt 0.396266 -0.321186
vt 0.453061 -0.256048
vt 0.473279 -0.259897
vt 0.470825 -0.256078
vt 0.387538 -0.340715
vt 0.465673 -0.254277
vt 0.386156 -0.335464
vt 0.396424 -0.320518
vt 0.398647 -0.316385
vt 0.400823 -0.299872
vn 0.214100 -0.937400 0.274500
vn -0.168600 0.946100 -0.276500
vn 0.325100 -0.937400 -0.124500
vn 0.393900 0.869800 0.297200
vn -0.169000 0.869800 0.463600
vn 0.168600 -0.946100 0.276500
vn 0.242000 0.928200 0.282600
vn 0.242000 -0.928200 0.282600
vn -0.048100 0.928200 0.368900
vn -0.048100 -0.928200 0.368900
vn 0.313700 -0.946100 -0.080400
vn 0.204900 0.928200 0.310500
vn 0.204900 -0.928200 0.310500
vn -0.093600 0.928200 0.360000
vn -0.093600 -0.928200 0.360000
vn -0.123500 0.878400 0.461600
vn 0.076100 0.971300 0.225300
vn -0.112700 -0.959000 0.260200
vn -0.204900 -0.928200 -0.310500
vn -0.268800 -0.959000 0.090400
vn 0.093600 -0.928200 -0.360000
vn -0.268800 0.959000 0.090400
vn 0.093600 0.928200 -0.360000
vn -0.059100 -0.996800 0.053000
vn 0.169000 -0.869800 -0.463600
vn 0.033400 -0.996800 0.072100
vn -0.405400 -0.878400 -0.253000
vn -0.112700 0.959000 0.260200
vn -0.204900 0.928200 -0.310500
vn 0.281200 -0.959000 -0.036600
vn 0.281200 0.959000 -0.036600
vn 0.215300 0.959000 0.184500
vn 0.215300 -0.959000 0.184500
vn 0.237700 0.971300 -0.007000
vn -0.325100 0.937400 0.124500
vn 0.116300 0.879200 0.462100
vn -0.407900 0.879200 0.246400
vn -0.393900 -0.869800 -0.297200
vn 0.154800 -0.904700 -0.397000
vn 0.424900 -0.904700 0.031900
vn -0.279400 -0.960200 -0.003500
vn -0.197100 0.902200 0.383700
vn -0.078300 -0.960200 -0.268200
vn -0.424500 0.902200 -0.076300
vn 0.402200 -0.868700 -0.289200
vn 0.056000 0.993700 -0.097300
vn 0.084800 -0.952000 -0.294200
vn 0.084800 0.952000 -0.294200
vn -0.159000 -0.868700 -0.469200
vn -0.076700 0.993700 -0.082000
vn -0.205200 -0.952000 -0.227200
vn -0.205200 0.952000 -0.227200
vn 0.275400 -0.952000 -0.133800
vn 0.275400 0.952000 -0.133800
vn -0.306200 -0.952000 0.000500
vn -0.306200 0.952000 0.000500
vn 0.405400 0.878400 0.253000
vn -0.423600 -0.889200 -0.172900
vn -0.343700 0.916900 0.202600
vn -0.033500 -0.923300 -0.382700
vn -0.033500 0.923300 -0.382700
vn -0.306800 -0.923300 -0.231200
vn -0.306800 0.923300 -0.231200
vn 0.041500 -0.889200 -0.455600
vn -0.294300 0.916900 -0.269500
vn -0.137700 -0.923300 -0.358700
vn -0.137700 0.923300 -0.358700
vn -0.242000 -0.928200 -0.282600
vn -0.242000 0.928200 -0.282600
vn -0.371500 -0.849600 -0.374400
vn -0.291600 0.956500 0.001200
vn 0.174400 -0.923300 -0.342300
vn 0.174400 0.923300 -0.342300
vn 0.048100 -0.928200 -0.368900
vn 0.048100 0.928200 -0.368900
vn 0.249400 -0.849600 -0.464700
vn -0.086400 0.956500 -0.278600
vn 0.123500 -0.878400 -0.461600
vn -0.214100 0.937400 -0.274500
vn -0.313700 0.946100 0.080400
vn 0.169200 -0.926400 0.336500
vn 0.169200 0.926400 0.336500
vn 0.257000 -0.927300 0.272100
vn -0.079900 0.884900 0.458800
vn -0.136800 -0.926400 0.350900
vn -0.136800 0.926400 0.350900
vn 0.302200 -0.952500 -0.038200
vn 0.382300 0.859800 0.338600
vn 0.335300 -0.927300 -0.166300
vn 0.415400 0.884900 0.210500
vn 0.124900 -0.952500 0.277800
vn -0.212000 0.859800 0.464600
vn -0.004600 -0.926400 0.376600
vn -0.004600 0.926400 0.376600
vn 0.276800 -0.926400 0.255400
vn 0.276800 0.926400 0.255400
usemtl BLOODWOOD
s off
f 66/1/1 58/2/1 32/3/1
f 57/4/2 59/5/2 17/6/2
f 69/7/3 53/8/3 31/9/3
f 68/10/4 43/11/4 60/12/4
f 70/13/5 44/14/5 59/5/5
f 70/13/6 58/2/6 44/14/6
f 72/15/7 25/16/7 51/17/7
f 72/15/8 50/17/8 24/16/8
f 71/18/9 26/19/9 56/20/9
f 71/18/10 55/20/10 27/19/10
f 68/10/4 60/12/4 29/21/4
f 68/10/11 53/8/11 43/11/11
f 65/22/12 41/23/12 51/17/12
f 65/22/13 50/17/13 41/23/13
f 67/24/14 42/25/14 56/20/14
f 67/24/15 55/20/15 42/25/15
f 66/1/16 17/6/16 59/5/16
f 17/6/17 3/26/17 35/27/17
f 18/28/18 15/29/18 40/30/18
f 50/17/19 63/31/19 49/32/19
f 19/33/20 16/34/20 38/35/20
f 55/20/21 64/36/21 54/37/21
f 20/33/22 38/35/22 16/34/22
f 54/37/23 64/36/23 56/20/23
f 21/38/24 7/39/24 34/40/24
f 58/2/25 62/41/25 57/4/25
f 22/42/26 14/43/26 33/44/26
f 53/8/27 45/45/27 61/46/27
f 23/28/28 40/30/28 15/29/28
f 49/32/29 63/31/29 51/17/29
f 49/32/19 24/16/19 50/17/19
f 24/16/30 36/47/30 10/48/30
f 49/32/29 51/17/29 25/16/29
f 25/16/31 10/48/31 36/47/31
f 54/37/23 56/20/23 26/19/23
f 26/19/32 13/49/32 39/50/32
f 54/37/21 27/19/21 55/20/21
f 27/19/33 39/50/33 13/49/33
f 28/51/34 6/52/34 37/53/34
f 45/45/35 60/12/35 61/46/35
f 45/45/35 29/21/35 60/12/35
f 29/21/36 33/44/36 14/43/36
f 30/54/37 34/40/37 7/39/37
f 57/4/2 62/41/2 59/5/2
f 52/55/38 31/9/38 53/8/38
f 31/9/39 37/53/39 6/52/39
f 57/4/25 32/3/25 58/2/25
f 32/3/40 35/27/40 3/26/40
f 4/56/41 22/42/41 33/44/41
f 29/21/42 4/56/42 33/44/42
f 1/57/43 21/38/43 34/40/43
f 30/54/44 1/57/44 34/40/44
f 2/58/45 35/27/45 32/3/45
f 17/6/46 35/27/46 2/58/46
f 9/59/47 36/47/47 24/16/47
f 25/16/48 36/47/48 9/59/48
f 5/60/49 37/53/49 31/9/49
f 28/51/50 37/53/50 5/60/50
f 11/61/51 19/33/51 38/35/51
f 20/33/52 11/61/52 38/35/52
f 12/62/53 39/50/53 27/19/53
f 26/19/54 39/50/54 12/62/54
f 8/63/55 18/28/55 40/30/55
f 23/28/56 8/63/56 40/30/56
f 72/15/8 41/23/8 50/17/8
f 72/15/7 51/17/7 41/23/7
f 71/18/10 42/25/10 55/20/10
f 71/18/9 56/20/9 42/25/9
f 69/7/3 43/11/3 53/8/3
f 69/7/57 60/12/57 43/11/57
f 66/1/1 44/14/1 58/2/1
f 66/1/16 59/5/16 44/14/16
f 22/42/58 4/56/58 45/45/58
f 4/56/59 29/21/59 45/45/59
f 19/33/60 11/61/60 46/64/60
f 11/61/61 20/33/61 46/64/61
f 18/28/62 8/63/62 47/65/62
f 8/63/63 23/28/63 47/65/63
f 21/38/64 1/57/64 48/66/64
f 1/57/65 30/54/65 48/66/65
f 24/16/66 49/32/66 9/59/66
f 9/59/67 49/32/67 25/16/67
f 47/65/68 50/17/68 18/28/68
f 65/22/13 18/28/13 50/17/13
f 65/22/12 51/17/12 23/28/12
f 47/65/69 23/28/69 51/17/69
f 31/9/70 52/55/70 5/60/70
f 5/60/71 52/55/71 28/51/71
f 45/45/27 53/8/27 22/42/27
f 68/10/11 22/42/11 53/8/11
f 27/19/72 54/37/72 12/62/72
f 12/62/73 54/37/73 26/19/73
f 46/64/74 55/20/74 19/33/74
f 67/24/15 19/33/15 55/20/15
f 67/24/14 56/20/14 20/33/14
f 46/64/75 20/33/75 56/20/75
f 32/3/76 57/4/76 2/58/76
f 2/58/77 57/4/77 17/6/77
f 48/66/78 58/2/78 21/38/78
f 70/13/6 21/38/6 58/2/6
f 70/13/5 59/5/5 30/54/5
f 48/66/79 30/54/79 59/5/79
f 69/7/57 28/51/57 60/12/57
f 52/55/80 60/12/80 28/51/80
f 53/8/38 61/46/38 52/55/38
f 52/55/80 61/46/80 60/12/80
f 58/2/78 48/66/78 62/41/78
f 48/66/79 59/5/79 62/41/79
f 50/17/68 47/65/68 63/31/68
f 47/65/69 51/17/69 63/31/69
f 55/20/74 46/64/74 64/36/74
f 46/64/75 56/20/75 64/36/75
f 18/28/81 65/22/81 15/29/81
f 23/28/82 15/29/82 65/22/82
f 32/3/83 3/26/83 66/1/83
f 17/6/84 66/1/84 3/26/84
f 19/33/85 67/24/85 16/34/85
f 20/33/86 16/34/86 67/24/86
f 22/42/87 68/10/87 14/43/87
f 29/21/88 14/43/88 68/10/88
f 31/9/89 6/52/89 69/7/89
f 28/51/90 69/7/90 6/52/90
f 21/38/91 70/13/91 7/39/91
f 30/54/92 7/39/92 70/13/92
f 27/19/93 13/49/93 71/18/93
f 26/19/94 71/18/94 13/49/94
f 24/16/95 10/48/95 72/15/95
f 25/16/96 72/15/96 10/48/96
