# Blender v2.75 (sub 0) OBJ File: 'Empty.blend'
# www.blender.org
mtllib ITMI_CELLOBOW_01.mtl
o ITMI_CELLOBOW_01
v -0.621552 0.011948 -0.027322
v 0.147369 0.010500 -0.026642
v -0.237379 -0.011948 0.071609
v -0.487479 0.007884 0.057672
v -0.494401 0.006933 0.079130
v -0.630859 -0.007034 -0.021661
v 0.144109 -0.008686 -0.016692
v 0.132068 0.008319 0.022565
v -0.241016 0.006291 0.083035
v -0.642411 0.011418 -0.014653
v -0.489818 -0.011308 0.067727
v -0.235987 0.007247 0.061531
vt 0.984127 -0.362205
vt 0.873016 -0.007874
vt 0.984127 -0.007874
vt 0.761905 -0.362205
vt 0.761905 -0.007874
vt 0.873016 -0.362205
vt 0.873016 -0.267717
vt 0.655506 -0.011859
vt 0.344494 -0.023218
vt 0.344494 -0.999500
vt 0.655506 -0.997092
vt 0.344494 -0.000500
vn -0.197200 -0.444500 -0.873800
vn 0.001800 0.999000 0.044900
vn 0.012400 -0.465500 -0.884900
vn -0.014400 -0.532600 0.846200
vn 0.466900 -0.455000 -0.758300
vn 0.072200 -0.907000 0.415000
vn -0.200800 -0.423900 -0.883200
vn 0.955000 -0.008400 0.296600
vn 0.200400 -0.491100 0.847700
vn -0.014400 -0.532900 0.846100
vn -0.458500 -0.551000 0.697200
vn -0.458400 -0.551600 0.696800
vn 0.467000 -0.454300 -0.758600
vn 0.012400 -0.465200 -0.885100
vn 0.000300 -0.285900 -0.958300
vn -0.000300 0.285900 0.958300
vn 0.004700 -0.461000 -0.887400
vn -0.004700 0.461000 0.887400
vn -0.519100 -0.000300 -0.854700
usemtl BOGEN1
s off
f 2/1/1 3/2/1 12/3/1
f 8/4/2 12/3/2 9/5/2
f 12/3/3 3/2/3 11/6/3
f 3/2/4 5/4/4 11/6/4
f 9/5/2 4/1/2 5/4/2
f 5/4/2 4/1/2 1/3/2
f 4/1/5 6/2/5 1/3/5
f 5/4/2 1/3/2 10/5/2
f 7/7/6 8/4/6 9/5/6
f 2/1/7 7/7/7 3/2/7
f 7/7/8 2/1/8 8/4/8
f 8/4/2 2/1/2 12/3/2
f 7/7/9 9/5/9 3/2/9
f 3/2/10 9/5/10 5/4/10
f 11/6/11 5/4/11 10/5/11
f 11/6/12 10/5/12 6/2/12
f 4/1/13 11/6/13 6/2/13
f 9/5/2 12/3/2 4/1/2
f 12/3/14 11/6/14 4/1/14
usemtl BOGEN2
f 6/8/15 1/9/15 2/10/15
f 1/9/16 6/8/16 2/10/16
f 2/10/17 7/11/17 6/8/17
f 7/11/18 2/10/18 6/8/18
f 10/12/19 1/9/19 6/8/19
