# Blender v2.75 (sub 0) OBJ File: 'Empty.blend'
# www.blender.org
mtllib ITMI_HARP_01.mtl
o ITMI_HARP_01
v 0.072061 0.000690 0.421622
v 0.161207 -0.000562 -0.393228
v -0.145276 -0.000670 -0.382357
v 0.026112 0.023496 -0.365341
v -0.124430 0.013665 -0.455428
v 0.176849 -0.015077 -0.443761
v 0.026100 -0.000537 -0.342807
v 0.056432 0.024806 0.455274
v 0.155184 -0.023345 0.421774
v 0.140393 -0.010136 -0.353889
v -0.108928 -0.010256 -0.365431
v -0.160952 -0.000534 -0.292449
v 0.077297 0.010249 0.376645
v 0.134429 0.000662 0.387975
v 0.026134 -0.024642 -0.365237
v 0.155161 0.024793 0.421671
v -0.181643 -0.024727 -0.365488
v 0.056455 -0.023332 0.455378
v -0.181666 0.023411 -0.365591
v -0.124416 -0.015218 -0.455366
v 0.176836 0.013806 -0.443823
v -0.140129 -0.010215 -0.331746
v 0.026081 -0.010129 -0.320305
v -0.108937 0.009000 -0.365472
v 0.118888 0.010212 0.342972
v 0.140384 0.009120 -0.353931
v 0.118897 -0.009043 0.343014
v 0.077307 -0.009007 0.376686
v -0.140138 0.009040 -0.331788
v 0.026072 0.009126 -0.320346
v -0.180280 -0.024606 -0.289180
v -0.094394 -0.024770 -0.414767
v -0.094417 0.023369 -0.414871
v 0.182420 -0.024569 -0.359428
v 0.146765 -0.024671 -0.414477
v 0.182397 0.023569 -0.359532
v 0.146742 0.023468 -0.414580
v -0.180303 0.023532 -0.289284
vt -1.981009 -0.160207
vt 6.855128 -0.062220
vt 17.163401 -0.926653
vt 13.141517 0.025583
vt -1.825784 -0.048128
vt 14.332340 -0.979757
vt 0.399000 -0.719242
vt 0.000000 0.310169
vt 0.399000 0.327298
vt 0.000000 -4.328521
vt 0.274390 0.249565
vt 0.274390 -4.328521
vt 0.000000 0.249565
vt 0.399000 1.073554
vt 0.000000 1.092319
vt 0.000000 -0.678319
vt 0.399000 -4.327537
vt 0.398704 0.249565
vt 0.000000 -1.000000
vt 0.262022 -0.000000
vt 0.000000 -0.000000
vt 0.000000 -4.327537
vt 0.754313 -0.172455
vt 0.737385 -0.101569
vt 0.571785 -0.074449
vt 0.851155 -0.156595
vt 0.858610 -0.425144
vt 0.952030 -0.104655
vt 0.915732 -0.533667
vt 0.779344 -0.435974
vt 0.833851 -0.978023
vt 0.439235 -0.641014
vt 0.984368 -0.898652
vt 0.588597 -0.196959
vt 0.780188 -0.552186
vt 0.454010 -0.143471
vt 0.530503 -0.052186
vt 0.587439 -0.172455
vt 0.452030 -0.101569
vt 0.633330 -0.143576
vt 0.657471 -0.156595
vt 0.902985 -0.074449
vt 0.879837 -0.174260
vt 0.673623 -0.965757
vt 0.200048 -0.099166
vt 0.570639 -0.148500
vt 0.114527 -0.136166
vt 0.262022 -1.000000
vt 0.713173 -0.913167
vt 0.446872 -0.997355
vt 0.865821 -0.631075
vt 0.399000 1.350495
vt 0.944267 -0.058359
vt 0.875297 -0.147186
vt 0.000000 1.280829
vn 0.000400 -1.000000 0.001600
vn -0.000400 1.000000 -0.001600
vn -0.101300 -0.946700 0.305700
vn -0.102000 0.947600 0.302600
vn -0.346600 -0.937900 -0.010600
vn -0.347400 0.937600 -0.013600
vn -0.325800 -0.945400 -0.008600
vn 0.098500 -0.965300 0.241900
vn 0.097700 0.966100 0.238800
vn -0.326600 0.945100 -0.011600
vn -0.102800 -0.962100 0.252700
vn -0.103600 0.962800 0.249600
vn 0.260700 0.962000 -0.081700
vn 0.261500 -0.962000 -0.078600
vn -0.067600 0.977700 -0.198900
vn 0.298600 0.949500 -0.096600
vn 0.299300 -0.949600 -0.093500
vn -0.066800 -0.978400 -0.195800
vn 0.380100 -0.001800 -0.924900
vn -0.377900 -0.002200 -0.925800
vn 0.999400 0.000500 0.034800
vn 0.322200 0.002200 0.946700
vn 0.184200 -0.926900 0.326900
vn -0.953000 0.000200 0.303000
vn 0.183400 0.928200 0.323900
vn -0.843500 -0.001600 -0.537200
vn 0.191900 -0.965000 0.178900
vn 0.191100 0.965700 0.175800
vn 0.089900 -0.947700 0.306200
vn 0.089100 0.948800 0.303100
vn -0.317000 0.001900 0.948400
vn 0.733600 0.001800 0.679500
vn -0.107000 0.985300 -0.133200
vn -0.106200 -0.985800 -0.130100
vn -0.999500 -0.000500 -0.030800
vn 0.281900 0.002200 0.959400
vn -0.629200 -0.002000 -0.777200
vn 0.956000 -0.000200 -0.293400
vn 0.333200 -0.942800 -0.004500
vn -0.999800 -0.000400 0.017900
vn -0.092400 -0.982300 -0.162800
vn 0.803900 -0.000900 -0.594700
vn -0.093200 0.981700 -0.165900
vn -0.295800 -0.935500 0.193300
vn 0.997800 0.000300 -0.065900
vn 0.191500 -0.973800 -0.122300
vn -0.697200 -0.001900 -0.716900
vn -0.296500 0.935900 0.190300
vn 0.190800 0.973600 -0.125400
vn 0.332400 0.943100 -0.007400
usemtl HARFE
s off
f 12/1/1 7/2/1 14/3/1
f 12/1/2 14/3/2 7/2/2
f 7/2/2 14/3/2 2/4/2
f 7/2/1 2/4/1 14/3/1
f 12/1/2 7/2/2 3/5/2
f 12/1/1 3/5/1 7/2/1
f 14/3/2 12/1/2 1/6/2
f 14/3/1 1/6/1 12/1/1
usemtl HARFE1
f 11/7/3 15/8/3 23/9/3
f 24/7/4 30/9/4 4/8/4
f 27/10/5 34/11/5 9/12/5
f 36/11/6 25/10/6 16/12/6
f 34/11/7 27/10/7 10/13/7
f 10/14/8 15/8/8 35/15/8
f 4/8/9 26/14/9 37/15/9
f 25/10/10 36/11/10 26/13/10
f 11/7/11 32/16/11 15/8/11
f 24/7/12 4/8/12 33/16/12
f 38/13/13 13/17/13 29/18/13
f 31/13/14 22/18/14 28/17/14
f 16/19/15 13/20/15 8/21/15
f 38/13/16 8/22/16 13/17/16
f 31/13/17 28/17/17 18/22/17
f 28/20/18 9/19/18 18/21/18
f 4/23/19 15/24/19 32/25/19
f 15/24/20 4/23/20 37/26/20
f 9/27/21 36/28/21 16/29/21
f 16/29/22 18/30/22 9/27/22
f 11/31/23 17/32/23 32/33/23
f 31/34/24 8/35/24 38/36/24
f 8/35/24 31/34/24 18/30/24
f 18/30/22 16/29/22 8/35/22
f 19/32/25 24/31/25 33/33/25
f 5/37/26 17/38/26 19/39/26
f 17/38/26 5/37/26 20/40/26
f 32/25/19 33/41/19 4/23/19
f 37/26/20 35/42/20 15/24/20
f 36/28/21 9/27/21 34/43/21
f 17/32/27 11/31/27 22/44/27
f 24/31/28 19/32/28 29/44/28
f 15/8/29 10/14/29 23/9/29
f 30/9/30 26/14/30 4/8/30
f 11/45/31 30/46/31 24/45/31
f 24/45/32 22/47/32 11/45/32
f 13/20/33 16/19/33 25/48/33
f 9/19/34 28/20/34 27/48/34
f 27/10/35 26/13/35 10/13/35
f 26/13/36 23/46/36 10/13/36
f 26/13/35 27/10/35 25/10/35
f 28/49/37 25/10/37 27/10/37
f 28/49/38 29/47/38 13/49/38
f 25/10/37 28/49/37 13/49/37
f 29/47/38 28/49/38 22/47/38
f 22/47/32 24/45/32 29/47/32
f 23/46/36 26/13/36 30/46/36
f 30/46/31 11/45/31 23/46/31
f 22/44/39 31/50/39 17/32/39
f 38/36/40 17/38/40 31/34/40
f 32/33/41 17/32/41 20/51/41
f 33/41/42 32/25/42 20/37/42
f 19/32/43 33/33/43 5/51/43
f 20/37/42 5/37/42 33/41/42
f 35/15/44 34/52/44 10/14/44
f 21/53/45 34/43/45 6/54/45
f 34/52/46 35/15/46 6/55/46
f 21/53/47 6/53/47 35/42/47
f 36/52/48 37/15/48 26/14/48
f 34/43/45 21/53/45 36/28/45
f 37/15/49 36/52/49 21/55/49
f 35/42/47 37/26/47 21/53/47
f 29/44/50 19/32/50 38/50/50
f 17/38/40 38/36/40 19/39/40
