# Blender v2.75 (sub 0) OBJ File: 'Empty.blend'
# www.blender.org
mtllib ITMI_ALCHEMY_MOLERATLUBRIC_01.mtl
o ITMI_ALCHEMY_MOLERATLUBRIC_01
v 0.005159 0.003450 -0.101613
v -0.076954 0.120527 0.040610
v 0.087271 0.003450 0.040610
v -0.076954 0.003450 0.040610
v 0.087271 0.120527 0.040610
v 0.005159 0.120527 0.088018
v -0.076954 0.120527 -0.054205
v 0.078139 0.120527 -0.047559
v -0.076954 0.003450 -0.054205
v 0.005159 0.003450 0.088018
v 0.087271 0.003450 -0.054205
v 0.005186 0.085836 0.078800
v 0.005186 0.120527 -0.089678
v 0.005186 0.100836 -0.089678
v -0.067767 0.090836 0.036680
v 0.078139 0.093336 0.036680
v 0.078139 0.100836 -0.047559
v -0.067767 0.100836 -0.047559
v 0.005159 0.120527 -0.101613
v -0.067767 0.120527 -0.047559
v 0.087271 0.120527 -0.054205
v -0.067767 0.120527 0.036680
v 0.078139 0.120527 0.036680
v 0.005186 0.120527 0.078800
v 0.004196 0.113336 -0.006011
vt 0.516013 -0.864283
vt 0.543193 -0.864283
vt 0.516013 -0.850693
vt 0.504918 -0.731894
vt 0.504918 -0.885179
vt 0.755112 -0.731894
vt 0.753542 -0.885624
vt 0.753542 -0.731449
vt 0.504503 -0.885624
vt 0.505692 -0.730208
vt 0.505692 -0.886865
vt 0.748383 -0.730208
vt 0.748383 -0.886865
vt 0.754483 -0.888468
vt 0.754483 -0.733106
vt 0.506573 -0.888468
vt 0.505179 -0.729933
vt 0.505179 -0.887140
vt 0.750881 -0.729933
vt 0.874268 -0.886599
vt 0.994882 -0.884704
vt 0.870605 -0.766023
vt 0.504503 -0.731449
vt 0.755627 -0.882289
vt 0.505445 -0.731970
vt 0.505445 -0.886387
vt 0.751117 -0.731970
vt 0.994882 -0.646616
vt 0.755112 -0.885179
vt 0.529603 -0.871078
vt 0.750881 -0.887140
vt 0.529603 -0.843898
vt 0.751117 -0.886387
vt 0.543193 -0.850693
vt 0.733676 -0.776938
vt 0.678896 -0.776996
vt 0.735405 -0.735791
vt 0.680626 -0.735791
vt 0.506573 -0.733106
vt 0.872295 -0.642307
vt 0.516286 -0.777111
vt 0.571066 -0.777111
vt 0.516286 -0.735791
vt 0.571066 -0.735791
vt 0.679760 -0.777025
vt 0.628752 -0.743439
vt 0.628767 -0.749160
vt 0.749628 -0.743169
vt 0.509860 -0.744299
vt 0.514945 -0.747485
vt 0.511845 -0.874776
vt 0.744574 -0.751548
vt 0.751613 -0.872415
vt 0.516930 -0.872893
vt 0.624782 -0.873206
vt 0.746559 -0.867461
vt 0.624797 -0.868787
vt 0.755627 -0.641785
vn 0.000000 -1.000000 0.000000
vn -0.500000 0.000000 -0.866000
vn -1.000000 0.000000 0.000000
vn 0.500000 0.000000 0.866000
vn 0.500000 0.000000 -0.866000
vn -0.500000 0.000000 0.866000
vn 0.079500 0.948500 0.306600
vn -0.112900 0.944800 0.307700
vn 1.000000 0.000000 0.000000
vn 0.213200 0.973200 0.086600
vn 0.084400 0.985600 -0.146300
vn 0.000000 1.000000 0.000000
vn -0.233900 0.965500 0.114600
vn -0.085600 0.985200 -0.148200
usemtl MOLERATL
s off
f 9/1/1 11/2/1 4/3/1
f 19/4/2 1/5/2 7/6/2
f 4/7/3 2/8/3 9/9/3
f 6/10/4 10/11/4 5/12/4
f 3/13/4 5/12/4 10/11/4
f 1/14/5 19/15/5 11/16/5
f 2/17/6 4/18/6 6/19/6
f 12/20/7 16/21/7 25/22/7
f 7/23/3 9/9/3 2/8/3
f 15/24/8 12/20/8 25/22/8
f 5/25/9 3/26/9 21/27/9
f 17/28/10 25/22/10 16/21/10
f 9/29/2 7/6/2 1/5/2
f 1/30/1 11/2/1 9/1/1
f 10/31/6 6/19/6 4/18/6
f 10/32/1 4/3/1 11/2/1
f 11/33/9 21/27/9 3/26/9
f 3/34/1 10/32/1 11/2/1
f 12/35/5 15/36/5 24/37/5
f 24/37/2 23/38/2 12/35/2
f 21/39/5 11/16/5 19/15/5
f 14/40/11 25/22/11 17/28/11
f 14/41/6 17/42/6 13/43/6
f 13/43/4 20/44/4 14/41/4
f 15/36/9 18/42/9 22/38/9
f 22/38/5 24/37/5 15/36/5
f 16/45/2 12/35/2 23/38/2
f 23/38/3 8/44/3 16/45/3
f 8/44/6 13/43/6 17/42/6
f 17/42/3 16/45/3 8/44/3
f 18/42/4 14/41/4 20/44/4
f 20/44/9 22/38/9 18/42/9
f 19/46/12 13/47/12 21/48/12
f 7/49/12 13/47/12 19/46/12
f 20/50/12 13/47/12 7/49/12
f 2/51/12 20/50/12 7/49/12
f 21/48/12 8/52/12 5/53/12
f 13/47/12 8/52/12 21/48/12
f 22/54/12 20/50/12 2/51/12
f 6/55/12 22/54/12 2/51/12
f 23/56/12 5/53/12 8/52/12
f 6/55/12 5/53/12 23/56/12
f 24/57/12 6/55/12 23/56/12
f 24/57/12 22/54/12 6/55/12
f 15/24/13 25/22/13 18/58/13
f 14/40/14 18/58/14 25/22/14
