# Blender v2.75 (sub 0) OBJ File: 'Empty.blend'
# www.blender.org
mtllib ITMI_AMULET_ULUMULU_01.mtl
o ITMI_AMULET_ULUMULU_01
v -0.044398 -0.154494 -0.005245
v -0.030511 -0.000193 -0.005245
v -0.084817 -0.077586 -0.005245
v 0.044398 -0.154494 -0.005245
v 0.030511 -0.000193 -0.005245
v 0.084817 -0.077586 -0.005245
v -0.002917 -0.051288 -0.018271
v 0.042541 0.014894 0.000828
v -0.042541 0.014894 0.000828
v 0.011349 -0.118078 -0.018077
v -0.028854 -0.162273 0.021823
v -0.017365 -0.017904 0.002259
v -0.013218 -0.113948 -0.000110
v -0.114930 0.162273 -0.000777
v -0.115700 0.117065 -0.000777
v -0.089692 0.146231 -0.005181
v 0.114930 0.162273 -0.000777
v 0.115700 0.117065 -0.000777
v 0.089692 0.146231 -0.005181
v -0.104964 0.074649 -0.000777
v -0.087169 0.108101 -0.005181
v 0.104964 0.074649 -0.000777
v 0.087169 0.108101 -0.005181
v -0.057147 0.052593 -0.005181
v -0.075070 0.075462 -0.005181
v -0.082353 0.036500 -0.000777
v 0.057147 0.052593 -0.005181
v 0.075070 0.075462 -0.005181
v 0.082353 0.036500 -0.000777
v 0.001276 -0.015672 0.002711
v 0.028239 -0.162049 0.022096
v -0.000272 -0.115041 -0.008396
v 0.002458 0.050176 -0.023858
v 0.041657 0.008023 -0.027879
v -0.041626 0.012958 -0.024792
v 0.002727 0.027724 0.028757
v -0.003066 -0.063704 0.016044
v -0.092566 0.103781 0.012616
v 0.092566 0.103781 0.012616
v -0.096023 0.143454 0.012616
v 0.096023 0.143454 0.012616
v -0.078766 0.069619 0.012616
v 0.078766 0.069619 0.012616
v -0.057306 0.045682 0.012616
v 0.057306 0.045682 0.012616
v -0.051445 -0.089077 0.018268
v 0.051445 -0.089077 0.018268
v -0.051445 -0.089077 -0.028757
v 0.051445 -0.089077 -0.028757
v -0.016983 -0.016509 0.007408
v -0.016983 -0.016509 -0.016540
v 0.016983 -0.016509 0.007408
v 0.016983 -0.016509 -0.016540
v 0.017045 -0.020118 -0.006463
v -0.002134 -0.015491 -0.011409
v 0.139068 0.091322 -0.004533
v -0.139068 0.091322 -0.004533
v 0.144165 0.143455 -0.004533
v -0.144165 0.143455 -0.004533
v -0.118678 0.042700 -0.004533
v 0.118678 0.042700 -0.004533
v 0.077653 0.002051 -0.004533
v -0.077653 0.002051 -0.004533
v -0.077664 -0.106849 -0.005245
v 0.077664 -0.106849 -0.005245
v -0.052793 -0.109670 -0.023327
v -0.052793 -0.109670 0.012838
v 0.052793 -0.109670 -0.023327
v 0.052793 -0.109670 0.012838
v -0.042311 -0.062550 0.012838
v 0.042311 -0.062550 0.012838
v 0.042311 -0.062550 -0.023327
v -0.042311 -0.062550 -0.023327
v -0.067982 -0.053711 -0.005245
v 0.067982 -0.053711 -0.005245
vt 0.644579 -0.402518
vt 0.665909 -0.322935
vt 0.684234 -0.415231
vt 0.620686 -0.322935
vt 0.603088 -0.405120
vt 0.846691 -0.072543
vt 0.846268 -0.158703
vt 0.683887 -0.062167
vt 0.880879 -0.074285
vt 0.702813 -0.062524
vt 0.843384 -0.156734
vt 0.888664 -0.079761
vt 0.884467 -0.067438
vt 0.736663 -0.065194
vt 0.740495 -0.045703
vt 0.954588 -0.050265
vt 0.401376 -0.766069
vt 0.358826 -0.793026
vt 0.401348 -0.829053
vt 0.440988 -0.793707
vt 0.736487 -0.061607
vt 0.957181 -0.083803
vt 0.883198 -0.053799
vt 0.742841 -0.081930
vt 0.821682 -0.002136
vt 0.832213 -0.000698
vt 0.628056 -0.581632
vt 0.603088 -0.503599
vt 0.637236 -0.499183
vt 0.673219 -0.512586
vt 0.644579 -0.297394
vt 0.195848 -0.686800
vt 0.522347 -0.698037
vt 0.462631 -0.346558
vt 0.798553 -0.469689
vt 0.592834 -0.457880
vt 0.641825 -0.445509
vt 0.689899 -0.465745
vn -0.448100 0.366700 -0.815300
vn -0.456900 0.347900 0.818700
vn 0.448100 0.366700 -0.815300
vn 0.456900 0.347900 0.818700
vn -0.505000 -0.087400 0.858700
vn 0.070500 -0.058600 -0.995800
vn -0.622100 0.096500 -0.777000
vn 0.644300 0.029600 0.764200
vn -0.651100 -0.088300 -0.753800
vn 0.651100 0.088300 0.753800
vn -0.004300 -0.145500 -0.989300
vn -0.327200 -0.222200 0.918500
vn 0.004300 -0.145500 -0.989300
vn 0.327200 -0.222200 0.918500
vn 0.035900 -0.149200 -0.988200
vn -0.253700 -0.312800 0.915300
vn -0.035900 -0.149200 -0.988200
vn 0.253700 -0.312800 0.915300
vn 0.080600 -0.126800 -0.988600
vn -0.156000 -0.355700 0.921500
vn -0.010000 -0.361700 0.932200
vn 0.181100 -0.086000 -0.979700
vn -0.080600 -0.126800 -0.988600
vn 0.156000 -0.355700 0.921500
vn 0.010000 -0.361700 0.932200
vn -0.181100 -0.086000 -0.979700
vn 0.000100 -0.198900 0.980000
vn -0.664400 -0.035000 -0.746600
vn 0.443100 0.661300 0.605200
vn -0.443100 -0.661300 -0.605200
vn 0.528700 -0.113600 0.841100
vn -0.530100 0.102300 -0.841700
vn -0.450000 0.820500 0.352400
vn -0.151200 -0.046400 -0.987400
vn 0.710900 0.678700 -0.184300
vn 0.803000 -0.584800 0.115200
vn -0.642000 0.762500 -0.080500
vn -0.856900 -0.515400 0.008300
vn 0.495400 0.799900 0.338800
vn 0.535100 -0.149500 0.831500
vn 0.834200 -0.519700 -0.184400
vn -0.866200 -0.468600 -0.173300
vn 0.328400 0.890200 0.315700
vn 0.880200 -0.447400 0.158300
vn -0.328400 0.890200 0.315700
vn -0.880200 -0.447400 0.158300
vn 0.547600 0.774900 0.315700
vn 0.748300 -0.642200 0.166000
vn -0.547600 0.774900 0.315700
vn -0.748300 -0.642200 0.166000
vn 0.020700 0.948600 0.315700
vn 0.975000 -0.165500 0.148200
vn -0.020700 0.948600 0.315700
vn -0.975000 -0.165500 0.148200
vn -0.470800 0.823800 0.315700
vn 0.912600 0.378300 0.155100
vn 0.470800 0.823800 0.315700
vn -0.912600 0.378300 0.155100
vn 0.876200 -0.482000 0.000000
vn -0.568700 -0.397100 0.720300
vn -0.876200 -0.482000 0.000000
vn 0.568700 -0.397100 0.720300
vn 0.982900 0.184100 0.000000
vn -0.568700 -0.397100 -0.720300
vn -0.982900 0.184100 0.000000
vn 0.568700 -0.397100 -0.720300
vn -0.431200 0.301900 0.850300
vn 0.769800 0.638300 0.000000
vn -0.396200 0.277400 -0.875300
vn 0.431200 0.301900 0.850300
vn -0.769800 0.638300 0.000000
vn 0.396200 0.277400 -0.875300
vn 0.480200 -0.095800 0.871900
vn -0.119800 0.991900 0.041700
vn 0.245700 0.968200 -0.046900
vn 0.244100 -0.024800 -0.969400
vn 0.082100 0.216500 -0.972800
vn 0.389300 0.223000 0.893700
vn -0.082100 0.216500 -0.972800
vn -0.389300 0.223000 0.893700
vn 0.023300 0.230400 -0.972800
vn 0.318300 0.316200 0.893700
vn -0.023300 0.230400 -0.972800
vn -0.318300 0.316200 0.893700
vn -0.148100 0.178000 -0.972800
vn -0.440700 0.084100 0.893700
vn 0.148100 0.178000 -0.972800
vn 0.440700 0.084100 0.893700
vn 0.218600 0.076200 -0.972800
vn 0.421100 -0.154900 0.893700
vn -0.218600 0.076200 -0.972800
vn -0.421100 -0.154900 0.893700
vn -0.603100 -0.147400 0.783900
vn -0.603100 -0.147400 -0.783900
vn 0.603100 -0.147400 0.783900
vn 0.603100 -0.147400 -0.783900
vn -0.592100 -0.169000 -0.788000
vn 0.997900 -0.065300 0.000000
vn -0.592100 -0.169000 0.788000
vn 0.592100 -0.169000 -0.788000
vn -0.997900 -0.065300 0.000000
vn 0.592100 -0.169000 0.788000
vn -0.465700 0.328500 0.821700
vn 0.945500 -0.325600 0.000000
vn 0.465700 0.328500 0.821700
vn -0.945500 -0.325600 0.000000
vn 0.465700 0.328500 -0.821700
vn -0.465700 0.328500 -0.821700
vn -0.465800 0.328500 -0.821700
vn -0.465800 0.328500 0.821700
vn 0.465800 0.328500 -0.821700
vn 0.465800 0.328500 0.821700
usemtl LUR_BODY_V0
s off
f 74/1/1 51/2/1 73/3/1
f 50/4/2 74/1/2 70/5/2
f 75/1/3 72/3/3 53/2/3
f 52/4/4 71/5/4 75/1/4
f 36/6/5 9/7/5 37/8/5
f 33/9/6 7/10/6 35/11/6
f 10/12/7 32/13/7 30/14/7
f 32/13/8 10/12/8 12/15/8
f 11/16/9 32/13/9 10/12/9
f 11/16/10 10/12/10 32/13/10
f 16/17/11 15/18/11 59/19/11
f 15/18/12 40/17/12 59/19/12
f 19/17/13 58/19/13 18/18/13
f 18/18/14 58/19/14 41/17/14
f 21/17/15 20/20/15 57/19/15
f 20/20/16 38/17/16 57/19/16
f 23/17/17 56/19/17 22/20/17
f 22/20/18 56/19/18 39/17/18
f 25/17/19 26/18/19 60/19/19
f 26/18/20 42/17/20 60/19/20
f 9/20/21 44/17/21 63/19/21
f 24/17/22 9/20/22 63/19/22
f 28/17/23 61/19/23 29/18/23
f 29/18/24 61/19/24 43/17/24
f 8/20/25 62/19/25 45/17/25
f 27/17/26 62/19/26 8/20/26
f 10/12/27 30/14/27 12/15/27
f 32/13/28 12/15/28 55/21/28
f 31/22/29 32/13/29 13/23/29
f 31/22/30 13/23/30 32/13/30
f 32/13/31 54/24/31 13/23/31
f 13/23/32 30/14/32 32/13/32
f 33/9/33 9/7/33 36/6/33
f 33/9/34 34/25/34 7/10/34
f 33/9/35 8/26/35 34/25/35
f 8/26/36 7/10/36 34/25/36
f 9/7/37 33/9/37 35/11/37
f 9/7/38 35/11/38 7/10/38
f 8/26/39 33/9/39 36/6/39
f 36/6/40 37/8/40 8/26/40
f 8/26/41 37/8/41 7/10/41
f 9/7/42 7/10/42 37/8/42
f 21/17/43 15/18/43 38/17/43
f 38/17/44 20/20/44 21/17/44
f 23/17/45 39/17/45 18/18/45
f 39/17/46 23/17/46 22/20/46
f 16/17/47 14/20/47 40/17/47
f 40/17/48 15/18/48 16/17/48
f 19/17/49 41/17/49 17/20/49
f 41/17/50 19/17/50 18/18/50
f 25/17/51 20/20/51 42/17/51
f 42/17/52 26/18/52 25/17/52
f 28/17/53 43/17/53 22/20/53
f 43/17/54 28/17/54 29/18/54
f 24/17/55 26/18/55 44/17/55
f 44/17/56 9/20/56 24/17/56
f 27/17/57 45/17/57 29/18/57
f 45/17/58 27/17/58 8/20/58
f 73/3/59 50/4/59 70/5/59
f 1/27/60 67/28/60 64/29/60
f 72/3/61 71/5/61 52/4/61
f 4/27/62 65/29/62 69/28/62
f 1/27/63 66/30/63 67/28/63
f 1/27/64 64/29/64 66/30/64
f 4/27/65 69/28/65 68/30/65
f 4/27/66 68/30/66 65/29/66
f 74/1/67 50/4/67 2/31/67
f 73/3/59 51/2/59 50/4/59
f 2/31/68 50/4/68 51/2/68
f 74/1/69 2/31/69 51/2/69
f 75/1/70 5/31/70 52/4/70
f 72/3/61 52/4/61 53/2/61
f 5/31/71 53/2/71 52/4/71
f 75/1/72 53/2/72 5/31/72
f 13/23/73 54/24/73 30/14/73
f 12/32/74 30/33/74 55/34/74
f 55/34/75 30/33/75 54/35/75
f 32/13/76 55/21/76 54/24/76
f 56/19/77 23/17/77 18/18/77
f 18/18/78 39/17/78 56/19/78
f 57/19/79 15/18/79 21/17/79
f 15/18/80 57/19/80 38/17/80
f 58/19/81 19/17/81 17/20/81
f 17/20/82 41/17/82 58/19/82
f 59/19/83 14/20/83 16/17/83
f 14/20/84 59/19/84 40/17/84
f 60/19/85 20/20/85 25/17/85
f 20/20/86 60/19/86 42/17/86
f 61/19/87 28/17/87 22/20/87
f 22/20/88 43/17/88 61/19/88
f 62/19/89 27/17/89 29/18/89
f 29/18/90 45/17/90 62/19/90
f 63/19/91 26/18/91 24/17/91
f 26/18/92 63/19/92 44/17/92
f 64/29/93 46/36/93 3/37/93
f 64/29/94 3/37/94 48/38/94
f 65/29/95 6/37/95 47/36/95
f 65/29/96 49/38/96 6/37/96
f 64/29/97 48/38/97 66/30/97
f 66/30/98 48/38/98 46/36/98
f 46/36/99 64/29/99 67/28/99
f 66/30/98 46/36/98 67/28/98
f 65/29/100 68/30/100 49/38/100
f 68/30/101 47/36/101 49/38/101
f 47/36/102 69/28/102 65/29/102
f 68/30/101 69/28/101 47/36/101
f 46/36/103 70/5/103 74/1/103
f 48/38/104 70/5/104 46/36/104
f 47/36/105 75/1/105 71/5/105
f 49/38/106 47/36/106 71/5/106
f 49/38/107 72/3/107 75/1/107
f 49/38/106 71/5/106 72/3/106
f 48/38/108 74/1/108 73/3/108
f 48/38/104 73/3/104 70/5/104
f 74/1/109 48/38/109 3/37/109
f 46/36/110 74/1/110 3/37/110
f 75/1/111 6/37/111 49/38/111
f 47/36/112 6/37/112 75/1/112
