# Blender v2.75 (sub 0) OBJ File: 'Empty.blend'
# www.blender.org
mtllib ITMI_AMULET_02.mtl
o ITMI_AMULET_02
v 0.046516 -0.000025 0.030110
v 0.007677 0.000000 0.157191
v -0.026000 0.000000 0.057000
v -0.007677 0.000000 0.157191
v 0.020420 -0.006000 0.103102
v -0.020420 0.006000 0.103102
v 0.026000 0.000000 0.057000
v -0.052142 -0.000020 0.033350
v 0.000000 -0.000052 0.060000
v 0.022385 0.003200 0.136042
v -0.022385 -0.003200 0.136042
v -0.000000 0.003200 0.146000
v 0.000371 -0.008000 0.084091
v 0.000371 0.008000 0.084091
v 0.020420 0.006000 0.103102
v -0.020420 -0.006000 0.103102
v -0.070457 -0.000028 -0.002755
v -0.046516 -0.000025 0.030110
v 0.065240 -0.000040 -0.002600
v 0.052142 -0.000020 0.033350
v -0.056366 -0.000047 -0.043952
v -0.028326 -0.000052 -0.062946
v -0.060704 -0.000041 -0.047291
v 0.028326 -0.000052 -0.062946
v 0.056366 -0.000047 -0.043952
v 0.060704 -0.000041 -0.047291
v -0.065240 -0.000040 -0.002600
v 0.070457 -0.000028 -0.002755
v -0.029953 -0.000052 -0.067673
v 0.029953 -0.000052 -0.067673
v 0.021336 0.006000 0.132145
v -0.021336 0.006000 0.132145
v -0.000000 -0.003200 0.146000
v -0.022385 0.003200 0.136042
v 0.022385 -0.003200 0.136042
v 0.021336 -0.006000 0.132145
v -0.021336 -0.006000 0.132145
v 0.031283 0.000000 0.142524
v -0.031283 0.000000 0.142524
v 0.041184 0.000000 0.112719
v -0.040704 0.000000 0.112719
v -0.022385 0.001700 0.081958
v 0.022385 0.001700 0.081958
v -0.022385 -0.001700 0.081958
v 0.022385 -0.001700 0.081958
vt 0.090235 -0.568500
vt 0.089221 -0.609782
vt 0.147636 -0.564571
vt 0.002686 -0.646164
vt 0.034808 -0.562156
vt 0.039376 -0.635489
vt 0.139120 -0.635489
vt 0.182973 -0.655826
vt 0.064075 -0.268749
vt 0.012375 -0.280956
vt 0.118921 -0.284431
vt 0.502631 -0.873966
vt 0.355089 -0.958507
vt 0.644911 -0.958507
vt 0.554483 -1.199048
vt 0.651412 -1.087665
vt 0.348588 -1.087665
vt 0.445517 -1.199048
vt 0.145437 -0.721057
vt 0.037006 -0.713811
vt 0.500000 -1.149281
vt 0.341146 -1.104995
vt 0.171172 -0.743004
vt 0.137728 -0.754697
vt 0.038795 -0.754697
vt 0.009298 -0.726096
vt 0.003719 -0.400185
vt 0.122106 -0.401244
vt 0.308006 -0.550980
vt 0.258639 -0.570079
vt 0.193509 -0.579654
vt 0.132211 -0.570513
vt 0.081817 -0.551757
vt 0.068200 -0.554085
vt 0.035669 -0.528889
vt 0.352905 -0.527799
vt 0.321746 -0.553214
vt 0.045844 -0.497393
vt 0.120219 -0.482790
vt 0.056453 -0.499708
vt 0.022981 -0.528824
vt 0.341023 -0.496379
vt 0.330541 -0.498766
vt 0.265870 -0.482290
vt 0.365587 -0.527647
vt 0.262003 -0.485631
vt 0.124267 -0.486104
vn -0.038400 0.947900 -0.316200
vn -0.034200 -0.949300 -0.312600
vn -0.319200 -0.944000 -0.084200
vn -0.319200 0.944000 -0.084200
vn 0.312800 -0.946000 -0.085300
vn 0.312800 0.946000 -0.085300
vn -0.189200 0.976400 -0.104200
vn -0.189200 -0.976400 -0.104200
vn 0.034300 -0.948900 -0.313600
vn 0.038500 0.947500 -0.317300
vn 0.000000 1.000000 0.000000
vn 0.000000 -1.000000 0.000000
vn 0.674800 0.000000 0.738000
vn 0.195200 -0.975300 -0.103300
vn -0.688100 0.000000 0.725700
vn 0.195200 0.975300 -0.103300
vn -0.877900 0.000000 -0.478800
vn 0.877900 0.000000 -0.478800
vn 0.281400 0.959600 -0.008900
vn -0.999500 0.000000 0.031500
vn -0.287600 0.957700 -0.009100
vn 0.999500 0.000000 0.031500
vn -0.406500 0.000000 0.913700
vn 0.406500 0.000000 0.913700
vn 0.281400 -0.959600 -0.008900
vn -0.287600 -0.957700 -0.009100
vn 0.207100 -0.919800 0.333300
vn 0.207100 0.919800 0.333300
vn -0.207100 -0.919800 0.333300
vn -0.207100 0.919800 0.333300
vn 0.405100 -0.904300 0.134600
vn 0.405100 0.904300 0.134600
vn -0.409600 -0.903000 0.129500
vn -0.409600 0.903000 0.129500
vn 0.000000 0.999600 -0.027700
vn 0.000000 -0.999600 -0.027700
vn 0.002300 -1.000000 0.002700
vn -0.002300 1.000000 -0.002700
vn -0.002300 -1.000000 0.002700
vn 0.002300 1.000000 -0.002700
vn -0.000400 -1.000000 0.000700
vn -0.000100 -1.000000 0.001000
vn 0.000400 1.000000 -0.000700
vn 0.000100 1.000000 -0.001000
vn 0.000400 -1.000000 0.000700
vn 0.000100 -1.000000 0.001000
vn -0.000400 1.000000 -0.000700
vn -0.000100 1.000000 -0.001000
vn -0.000900 -1.000000 -0.000800
vn -0.001400 -1.000000 -0.000000
vn 0.000900 1.000000 0.000800
vn 0.001400 1.000000 0.000000
vn 0.000900 -1.000000 -0.000800
vn 0.001400 -1.000000 -0.000000
vn -0.000900 1.000000 0.000800
vn -0.001400 1.000000 0.000000
vn -0.002300 -1.000000 0.001400
vn -0.002200 -1.000000 -0.000300
vn 0.002300 1.000000 -0.001400
vn 0.002200 1.000000 0.000300
vn 0.002300 -1.000000 0.001400
vn 0.002200 -1.000000 -0.000300
vn -0.002300 1.000000 -0.001400
vn -0.002200 1.000000 0.000300
vn -0.000100 -1.000000 0.000000
vn 0.000100 1.000000 -0.000000
vn 0.000100 -1.000000 0.000000
vn -0.000100 1.000000 -0.000000
usemtl AMULETT2_2
s off
f 9/1/1 14/2/1 7/3/1
f 13/2/2 9/1/2 7/3/2
f 41/4/3 3/5/3 16/6/3
f 6/6/4 3/5/4 41/4/4
f 5/7/5 7/3/5 40/8/5
f 40/8/6 7/3/6 15/7/6
f 3/5/7 6/6/7 14/2/7
f 13/2/8 16/6/8 3/5/8
f 9/1/9 13/2/9 3/5/9
f 3/5/10 14/2/10 9/1/10
f 12/9/11 10/10/11 34/11/11
f 33/9/12 11/11/12 35/10/12
f 13/12/13 14/12/13 6/13/13
f 7/3/14 5/7/14 13/2/14
f 14/12/15 13/12/15 15/14/15
f 14/2/16 15/7/16 7/3/16
f 5/14/15 15/14/15 13/12/15
f 2/15/17 31/16/17 36/16/17
f 16/13/13 13/12/13 6/13/13
f 37/17/18 32/17/18 4/18/18
f 15/7/19 31/19/19 40/8/19
f 15/14/20 5/14/20 31/16/20
f 41/4/21 32/20/21 6/6/21
f 6/13/22 32/17/22 16/13/22
f 33/21/23 12/21/23 11/22/23
f 12/9/24 33/9/24 10/10/24
f 34/22/23 11/22/23 12/21/23
f 35/10/24 10/10/24 33/9/24
f 40/8/25 36/19/25 5/7/25
f 36/16/20 31/16/20 5/14/20
f 16/6/26 37/20/26 41/4/26
f 37/17/22 16/13/22 32/17/22
f 38/23/27 2/24/27 36/19/27
f 31/19/28 2/24/28 38/23/28
f 37/20/29 4/25/29 39/26/29
f 39/26/30 4/25/30 32/20/30
f 38/23/31 36/19/31 40/8/31
f 40/8/32 31/19/32 38/23/32
f 41/4/33 37/20/33 39/26/33
f 39/26/34 32/20/34 41/4/34
f 34/11/35 43/27/35 42/28/35
f 10/10/35 43/27/35 34/11/35
f 44/28/36 35/10/36 11/11/36
f 45/27/36 35/10/36 44/28/36
usemtl AMULETT2_1
f 1/29/37 7/30/37 9/31/37
f 9/31/38 7/30/38 1/29/38
f 9/31/39 3/32/39 18/33/39
f 18/33/40 3/32/40 9/31/40
f 18/33/41 8/34/41 27/35/41
f 18/33/42 3/32/42 8/34/42
f 27/35/43 8/34/43 18/33/43
f 8/34/44 3/32/44 18/33/44
f 19/36/45 20/37/45 1/29/45
f 20/37/46 7/30/46 1/29/46
f 1/29/47 20/37/47 19/36/47
f 1/29/48 7/30/48 20/37/48
f 23/38/49 29/39/49 21/40/49
f 21/40/50 17/41/50 23/38/50
f 23/38/51 21/40/51 29/39/51
f 23/38/52 17/41/52 21/40/52
f 26/42/53 25/43/53 30/44/53
f 26/42/54 28/45/54 25/43/54
f 26/42/55 30/44/55 25/43/55
f 25/43/56 28/45/56 26/42/56
f 27/35/57 8/34/57 17/41/57
f 27/35/58 17/41/58 21/40/58
f 17/41/59 8/34/59 27/35/59
f 21/40/60 17/41/60 27/35/60
f 28/45/61 20/37/61 19/36/61
f 25/43/62 28/45/62 19/36/62
f 19/36/63 20/37/63 28/45/63
f 19/36/64 28/45/64 25/43/64
f 29/39/12 24/46/12 22/47/12
f 22/47/11 24/46/11 29/39/11
f 22/47/65 21/40/65 29/39/65
f 22/47/66 29/39/66 21/40/66
f 24/46/67 30/44/67 25/43/67
f 30/44/12 24/46/12 29/39/12
f 24/46/68 25/43/68 30/44/68
f 29/39/11 24/46/11 30/44/11
