# Blender v2.75 (sub 0) OBJ File: 'Empty.blend'
# www.blender.org
mtllib ITMI_RING_02.mtl
o ITMI_RING_02
v -0.038750 0.048034 -0.003624
v -0.038750 -0.022100 0.019950
v -0.038750 -0.022100 -0.016450
v -0.028136 0.010125 0.012203
v 0.040550 0.006525 0.000000
v 0.019346 -0.006035 0.021989
v -0.038750 0.048034 0.007124
v -0.042950 0.010171 0.016044
v -0.042950 0.010171 -0.012544
v -0.028136 0.010125 -0.012203
v -0.036603 -0.009947 0.016271
v 0.025275 0.007326 -0.029319
v -0.036603 -0.009947 -0.016271
v -0.036510 0.033229 0.017419
v -0.040990 0.040200 0.001750
v -0.040990 0.033229 -0.013919
v 0.019346 -0.006035 -0.021989
v 0.031083 -0.005214 0.000000
v -0.009047 0.009125 0.036560
v -0.009047 0.009125 -0.036560
v -0.009109 -0.008025 0.036560
v -0.009109 -0.008025 -0.036560
v 0.019438 0.007632 0.021989
v -0.044350 -0.003136 0.002009
v -0.033150 -0.003136 0.002009
v -0.034550 0.010171 0.016044
v -0.034550 0.010171 -0.012544
v -0.036571 0.010567 -0.016271
v -0.036571 0.010567 0.016271
v 0.019438 0.007632 -0.021989
v 0.031188 0.007016 0.000000
v -0.028177 -0.009358 0.012203
v -0.028177 -0.009358 -0.012203
v 0.025275 0.007326 0.029319
v 0.025177 -0.005627 0.029319
v 0.025177 -0.005627 -0.029319
v 0.040435 -0.004560 0.000000
v -0.007027 -0.007879 0.027420
v -0.007027 -0.007879 -0.027420
v -0.006963 0.009015 -0.027420
v -0.006963 0.009015 0.027420
v -0.034550 0.030501 0.016685
v -0.034550 0.030501 -0.013185
v -0.036510 0.033229 -0.013919
v -0.036510 0.040200 0.001750
v -0.040990 0.033229 0.017419
v -0.042950 0.030501 -0.013185
v -0.042950 0.030501 0.016685
v -0.038750 0.037766 0.023648
v -0.038750 0.037766 -0.020148
v -0.038750 0.016904 0.030579
v -0.038750 0.016904 -0.026743
v -0.038786 -0.020000 0.001750
v -0.037560 -0.004629 -0.013919
v -0.037560 -0.004629 0.017419
v -0.039940 -0.004629 0.017419
v -0.039940 -0.004629 -0.013919
vt 0.038701 -0.641169
vt 0.004099 -0.624033
vt 0.037702 -0.566067
vt 0.179649 -0.655904
vt 0.140912 -0.641737
vt 0.147737 -0.563127
vt 0.089078 -0.567780
vt 0.094888 -0.606865
vt 0.042270 -0.500683
vt 0.042270 -0.483572
vt 0.049885 -0.483572
vt 0.049885 -0.500683
vt 0.013668 -0.280034
vt 0.063844 -0.260212
vt 0.110074 -0.280034
vt 0.220340 -0.838199
vt 0.218220 -0.833789
vt 0.205502 -0.833789
vt 0.218220 -0.827051
vt 0.211861 -0.821241
vt 0.205502 -0.827051
vt 0.148784 -0.724488
vt 0.371188 -0.374992
vt 0.376782 -0.519930
vt 0.032468 -0.723478
vt 0.169721 -0.739915
vt 0.142850 -0.749867
vt 0.004358 -0.729140
vt 0.049924 -0.760859
vt 0.110074 -0.392851
vt 0.013668 -0.392851
vt 0.039220 -0.497317
vt 0.039220 -0.486513
vt 0.037524 -0.484881
vt 0.040935 -0.486236
vt 0.039663 -0.484980
vt 0.040935 -0.497635
vt 0.037524 -0.499185
vt 0.039663 -0.499072
vt 0.048934 -0.500224
vt 0.043222 -0.483974
vt 0.043222 -0.500224
vt 0.054634 -0.484881
vt 0.051226 -0.497635
vt 0.052496 -0.484980
vt 0.052496 -0.499072
vt 0.048934 -0.483974
vt 0.046081 -0.496995
vt 0.051226 -0.486236
vt 0.054634 -0.499185
vt 0.052942 -0.486513
vt 0.052942 -0.497317
vt 0.046081 -0.487239
vt 0.046081 -0.486794
vt 0.046081 -0.496486
vt 0.203382 -0.838199
vn -0.944000 -0.084200 -0.319200
vn 0.944000 -0.084200 -0.319200
vn -0.946000 -0.085300 0.312800
vn 0.946000 -0.085300 0.312800
vn 0.947900 -0.316200 -0.038400
vn -0.949300 -0.312600 -0.034200
vn -0.976400 -0.104200 -0.189200
vn 0.976400 -0.104200 -0.189200
vn -1.000000 0.001600 0.000000
vn -1.000000 0.000000 0.000000
vn 1.000000 0.000000 0.000000
vn -0.975300 -0.103300 0.195200
vn 0.975300 -0.103300 0.195200
vn 0.000000 0.725700 -0.688100
vn 0.000000 -0.478800 -0.877900
vn 0.000000 0.738000 0.674800
vn 0.000000 -0.478800 0.877900
vn 0.959600 -0.008900 0.281400
vn 0.000000 0.031500 -0.999500
vn 0.957700 -0.009100 -0.287600
vn 0.000000 0.031500 0.999500
vn 0.000000 0.913700 -0.406500
vn 0.000000 0.913700 0.406500
vn -0.957700 -0.009100 -0.287600
vn -0.959600 -0.008900 0.281400
vn -0.919800 0.333300 0.207100
vn 0.919800 0.333300 0.207100
vn -0.919800 0.333300 -0.207100
vn 0.919800 0.333300 -0.207100
vn -0.904300 0.134600 0.405100
vn 0.904300 0.134600 0.405100
vn -0.903000 0.129500 -0.409600
vn 0.903000 0.129500 -0.409600
vn -0.948900 -0.313600 0.034300
vn 0.947500 -0.317300 0.038500
vn 0.999600 -0.027700 0.000000
vn -0.999600 -0.027700 0.000000
vn 0.206400 -0.001600 0.978500
vn 0.052300 0.998600 0.000000
vn 0.069800 -0.997600 0.000000
vn -0.201400 0.000800 -0.979500
vn 1.000000 -0.002100 0.000000
vn -0.593300 0.000900 -0.805000
vn -0.201700 0.000800 0.979400
vn -0.882300 0.006000 0.470700
vn -0.201400 0.001400 0.979500
vn 0.206700 -0.001600 -0.978400
vn 0.886800 -0.006700 -0.462200
vn -0.882300 0.007600 -0.470700
vn -0.881900 0.007600 0.471400
vn 0.887100 -0.006700 0.461500
vn 0.887200 -0.009200 -0.461400
vn -0.593800 0.000900 0.804600
vn 0.206400 -0.000700 -0.978500
vn 0.206700 -0.000700 0.978400
vn -0.593300 0.002100 0.805000
vn -0.593900 0.002100 -0.804600
vn -0.201800 0.001400 -0.979400
vn -0.881900 0.005900 -0.471400
vn 0.886700 -0.009200 0.462200
vn 0.584100 -0.002200 -0.811700
vn 0.584100 -0.001200 0.811700
vn 0.583500 -0.002200 0.812100
vn 0.583600 -0.001200 -0.812100
usemtl RING2_1
s off
f 9/1/1 52/2/1 3/3/1
f 52/2/2 27/1/2 3/3/2
f 51/4/3 8/5/3 2/6/3
f 26/5/4 51/4/4 2/6/4
f 2/6/5 53/7/5 25/8/5
f 2/6/6 24/8/6 53/7/6
f 3/3/7 24/8/7 9/1/7
f 25/8/8 3/3/8 27/1/8
f 11/9/9 29/10/9 28/11/9
f 11/9/9 28/11/9 13/12/9
f 46/13/10 15/14/10 16/15/10
f 44/15/11 45/14/11 14/13/11
f 24/8/12 2/6/12 8/5/12
f 2/6/13 25/8/13 26/5/13
f 24/16/14 8/17/14 26/18/14
f 48/19/15 7/20/15 42/21/15
f 27/18/16 9/17/16 24/16/16
f 1/20/17 47/19/17 43/21/17
f 51/4/18 26/5/18 42/22/18
f 42/23/19 26/24/19 8/24/19
f 27/1/20 52/2/20 43/25/20
f 9/17/21 27/18/21 43/21/21
f 45/14/22 44/15/22 16/15/22
f 16/15/22 15/14/22 45/14/22
f 14/13/23 45/14/23 15/14/23
f 15/14/23 46/13/23 14/13/23
f 52/2/24 9/1/24 47/25/24
f 43/21/21 47/19/21 9/17/21
f 8/5/25 51/4/25 48/22/25
f 8/17/19 48/19/19 42/21/19
f 48/22/26 49/26/26 7/27/26
f 49/26/27 42/22/27 7/27/27
f 50/28/28 47/25/28 1/29/28
f 43/25/29 50/28/29 1/29/29
f 51/4/30 49/26/30 48/22/30
f 49/26/31 51/4/31 42/22/31
f 50/28/32 52/2/32 47/25/32
f 52/2/33 50/28/33 43/25/33
f 3/3/34 53/7/34 24/8/34
f 53/7/35 3/3/35 25/8/35
f 54/30/36 44/15/36 55/31/36
f 44/15/36 14/13/36 55/31/36
f 16/15/37 57/30/37 46/13/37
f 57/30/37 56/31/37 46/13/37
usemtl RIND2_2
f 35/32/38 34/33/38 19/34/38
f 34/33/39 23/35/39 41/36/39
f 6/37/40 21/38/40 38/39/40
f 38/39/41 41/36/41 23/35/41
f 33/40/42 4/41/42 32/42/42
f 13/12/43 28/11/43 20/43/43
f 17/44/44 40/45/44 39/46/44
f 33/40/42 10/47/42 4/41/42
f 18/48/45 30/49/45 17/44/45
f 17/44/46 30/49/46 40/45/46
f 22/50/47 12/51/47 36/52/47
f 36/52/48 12/51/48 5/53/48
f 6/37/49 31/54/49 18/48/49
f 18/48/50 31/54/50 30/49/50
f 37/55/51 34/33/51 35/32/51
f 36/52/52 5/53/52 37/55/52
f 41/36/39 19/34/39 34/33/39
f 21/38/53 29/10/53 11/9/53
f 22/50/54 20/43/54 12/51/54
f 12/51/39 20/43/39 40/45/39
f 35/32/55 19/34/55 21/38/55
f 21/38/56 19/34/56 29/10/56
f 39/46/40 22/50/40 36/52/40
f 13/12/57 20/43/57 22/50/57
f 38/39/58 23/35/58 6/37/58
f 6/37/59 23/35/59 31/54/59
f 27/18/16 24/16/16 25/56/16
f 26/18/14 25/56/14 24/16/14
f 10/47/39 20/43/39 28/11/39
f 10/47/39 28/11/39 29/10/39
f 4/41/39 10/47/39 29/10/39
f 4/41/39 29/10/39 19/34/39
f 12/51/39 40/45/39 30/49/39
f 12/51/39 30/49/39 31/54/39
f 5/53/39 12/51/39 31/54/39
f 5/53/39 31/54/39 23/35/39
f 11/9/40 33/40/40 32/42/40
f 11/9/40 38/39/40 21/38/40
f 33/40/40 13/12/40 22/50/40
f 11/9/40 13/12/40 33/40/40
f 37/55/60 5/53/60 34/33/60
f 34/33/39 5/53/39 23/35/39
f 6/37/40 35/32/40 21/38/40
f 18/48/40 35/32/40 6/37/40
f 17/44/40 36/52/40 37/55/40
f 39/46/40 36/52/40 17/44/40
f 18/48/40 37/55/40 35/32/40
f 17/44/40 37/55/40 18/48/40
f 11/9/40 32/42/40 38/39/40
f 32/42/61 41/36/61 38/39/61
f 33/40/40 22/50/40 39/46/40
f 39/46/62 10/47/62 33/40/62
f 39/46/63 40/45/63 10/47/63
f 10/47/39 40/45/39 20/43/39
f 32/42/64 4/41/64 41/36/64
f 41/36/39 4/41/39 19/34/39
