# Blender v2.75 (sub 0) OBJ File: 'Empty.blend'
# www.blender.org
mtllib ITMI_ALCHEMY_STONEOIL_03.mtl
o ITMI_ALCHEMY_STONEOIL_03
v 0.012862 0.110483 0.022279
v -0.026250 -0.100000 -0.045466
v -0.037500 0.066667 -0.064952
v 0.052500 -0.100000 0.000000
v 0.018375 0.200500 0.031826
v -0.037500 0.066667 0.064952
v 0.018375 0.200500 -0.031826
v -0.036750 0.200500 -0.000000
v 0.026250 -0.100000 0.045466
v -0.052500 -0.100000 -0.000000
v 0.075000 0.066667 0.000000
v 0.037500 0.066667 -0.064952
v -0.025725 0.110483 -0.000000
v -0.026250 -0.100000 0.045466
v 0.026250 -0.100000 -0.045466
v 0.037500 0.066667 0.064952
v -0.075000 0.066667 -0.000000
v 0.025725 0.110483 0.000000
v -0.012862 0.110483 -0.022279
v 0.036750 0.200500 0.000000
v -0.018375 0.200500 -0.031826
v -0.018375 0.200500 0.031826
v -0.012862 0.110483 0.022279
v 0.012862 0.110483 -0.022279
vt 0.697376 -0.764987
vt 0.604439 -0.764987
vt 0.676653 -0.887054
vt 0.701340 -0.767486
vt 0.597821 -0.767486
vt 0.682421 -0.886932
vt 0.611597 -0.887054
vt 0.668794 -0.887446
vt 0.578364 -0.767359
vt 0.595718 -0.887446
vt 0.665927 -0.740771
vt 0.611912 -0.643858
vt 0.624237 -0.740771
vt 0.583125 -0.741544
vt 0.670767 -0.643671
vt 0.653701 -0.741544
vt 0.703966 -0.770066
vt 0.590330 -0.770066
vt 0.681834 -0.886551
vt 0.682757 -0.767359
vt 0.607502 -0.643671
vt 0.665224 -0.738337
vt 0.568002 -0.643889
vt 0.574804 -0.645114
vt 0.662934 -0.645114
vt 0.585868 -0.739723
vt 0.682013 -0.774486
vt 0.663888 -0.774486
vt 0.691076 -0.792611
vt 0.652233 -0.840512
vt 0.617736 -0.817514
vt 0.663732 -0.817514
vt 0.694406 -0.887847
vt 0.595233 -0.768757
vt 0.618319 -0.887847
vt 0.629235 -0.794516
vt 0.609958 -0.886932
vt 0.703928 -0.768757
vt 0.634969 -0.740161
vt 0.705125 -0.768684
vt 0.595954 -0.768684
vt 0.687053 -0.888121
vt 0.631817 -0.739521
vt 0.647558 -0.739723
vt 0.612657 -0.739472
vt 0.629235 -0.840512
vt 0.602289 -0.886551
vt 0.652233 -0.794516
vt 0.610634 -0.888121
vt 0.648464 -0.739472
vt 0.630939 -0.739722
vt 0.667334 -0.739833
vt 0.631827 -0.739833
vt 0.627660 -0.739710
vt 0.668222 -0.739722
vt 0.601740 -0.740379
vt 0.695708 -0.644141
vt 0.676348 -0.739835
vt 0.666846 -0.740161
vt 0.682013 -0.810737
vt 0.654825 -0.792611
vt 0.588980 -0.643961
vt 0.671470 -0.643858
vt 0.663888 -0.810737
vt 0.647518 -0.645224
vt 0.733724 -0.644791
vt 0.655474 -0.740209
vt 0.666637 -0.739710
vt 0.723816 -0.739363
vt 0.669262 -0.739521
vt 0.620939 -0.738337
vn 0.000000 -0.116100 -0.993200
vn -0.860200 -0.116100 -0.496600
vn 0.000000 -0.116100 0.993200
vn -0.861200 -0.105500 -0.497200
vn 0.000000 -0.105500 -0.994400
vn -0.860200 -0.116100 0.496600
vn 0.861200 -0.105500 -0.497200
vn 0.000000 -0.105500 0.994400
vn 0.000000 1.000000 0.000000
vn 0.000000 -1.000000 0.000000
vn 0.860200 -0.116100 0.496600
vn 0.000000 0.697700 -0.716400
vn 0.860200 -0.116100 -0.496600
vn 0.620400 0.697700 -0.358200
vn 0.000000 0.697700 0.716400
vn 0.620400 0.697700 0.358200
vn -0.620400 0.697700 -0.358200
vn -0.620400 0.697700 0.358200
vn 0.861200 -0.105500 0.497200
vn -0.861200 -0.105500 0.497200
usemtl STONEOIL3
s off
f 3/1/1 12/2/1 2/3/1
f 17/4/2 3/5/2 10/6/2
f 2/3/1 12/2/1 15/7/1
f 9/8/3 6/9/3 14/10/3
f 13/11/4 21/12/4 19/13/4
f 19/14/5 7/15/5 24/16/5
f 6/17/6 17/18/6 14/19/6
f 16/20/3 6/9/3 9/8/3
f 7/15/7 20/21/7 24/22/7
f 21/23/5 7/15/5 19/14/5
f 5/24/8 22/25/8 1/26/8
f 7/27/9 21/28/9 20/29/9
f 9/30/10 10/31/10 4/32/10
f 4/33/11 16/34/11 9/35/11
f 2/36/10 4/32/10 10/31/10
f 10/6/2 3/5/2 2/37/2
f 11/38/11 16/34/11 4/33/11
f 3/1/12 24/39/12 12/2/12
f 12/40/13 11/41/13 15/42/13
f 12/40/14 18/43/14 11/41/14
f 1/26/8 22/25/8 23/44/8
f 16/20/15 23/45/15 6/9/15
f 14/46/10 10/31/10 9/30/10
f 14/19/6 17/18/6 10/47/6
f 15/48/10 4/32/10 2/36/10
f 15/42/13 11/41/13 4/49/13
f 1/50/15 23/45/15 16/20/15
f 11/38/16 1/51/16 16/34/16
f 13/52/17 19/53/17 17/4/17
f 6/17/18 13/54/18 17/18/18
f 18/55/16 1/51/16 11/38/16
f 18/56/19 5/57/19 1/58/19
f 19/59/12 24/39/12 3/1/12
f 17/4/17 19/53/17 3/5/17
f 5/60/9 20/29/9 8/61/9
f 20/62/19 5/57/19 18/56/19
f 8/61/9 20/29/9 21/28/9
f 8/63/4 21/12/4 13/11/4
f 22/64/9 5/60/9 8/61/9
f 22/65/20 8/66/20 23/67/20
f 23/68/18 13/54/18 6/17/18
f 23/67/20 8/66/20 13/69/20
f 24/70/14 18/43/14 12/40/14
f 24/22/7 20/21/7 18/71/7
