# Blender v2.75 (sub 0) OBJ File: 'Empty.blend'
# www.blender.org
mtllib ITMI_AMULET_03.mtl
o ITMI_AMULET_03
v -0.026000 0.000000 0.057000
v 0.011109 0.000000 0.151422
v 0.026000 0.000000 0.057000
v -0.011109 0.000000 0.151422
v -0.047560 0.000000 0.123479
v 0.047560 0.000000 0.123479
v -0.000005 0.006000 0.082930
v -0.029530 -0.006000 0.099260
v 0.029530 -0.006000 0.099260
v -0.027198 0.000000 0.074174
v 0.027198 0.000000 0.074174
v -0.052142 -0.000020 0.033350
v -0.011000 0.000000 0.050000
v 0.046516 -0.000025 0.030110
v 0.011000 0.000000 0.050000
v -0.070457 -0.000028 -0.002755
v -0.046516 -0.000025 0.030110
v 0.065240 -0.000040 -0.002600
v 0.052142 -0.000020 0.033350
v -0.000005 -0.006000 0.082930
v -0.056366 -0.000047 -0.043952
v -0.028326 -0.000052 -0.062946
v -0.060704 -0.000041 -0.047291
v 0.028326 -0.000052 -0.062946
v 0.056366 -0.000047 -0.043952
v 0.060704 -0.000041 -0.047291
v -0.065240 -0.000040 -0.002600
v 0.070457 -0.000028 -0.002755
v 0.029395 0.000000 0.130494
v 0.029530 0.006000 0.099260
v -0.029395 0.000000 0.130494
v -0.029530 0.006000 0.099260
v -0.016849 0.006000 0.123477
v 0.016849 0.006000 0.123477
v -0.029953 -0.000052 -0.067673
v 0.029953 -0.000052 -0.067673
v 0.016849 -0.006000 0.123477
v -0.016849 -0.006000 0.123477
v -0.040601 0.000000 0.092415
v 0.040601 0.000000 0.092415
vt 0.166752 -0.572365
vt 0.129791 -0.577667
vt 0.079239 -0.557299
vt 0.308475 -0.557299
vt 0.257923 -0.577667
vt 0.220962 -0.572365
vt 0.065376 -0.559753
vt 0.033102 -0.532523
vt 0.354613 -0.532523
vt 0.322338 -0.559753
vt 0.044279 -0.498671
vt 0.120050 -0.483233
vt 0.054966 -0.501201
vt 0.020246 -0.532405
vt 0.343435 -0.498671
vt 0.332748 -0.501201
vt 0.267664 -0.483233
vt 0.367468 -0.532405
vt 0.263653 -0.486814
vt 0.124061 -0.486814
vt 0.231265 -0.290792
vt 0.246290 -0.363055
vt 0.276839 -0.293678
vt 0.279654 -0.423801
vt 0.327407 -0.422658
vt 0.313675 -0.402507
vt 0.310157 -0.325305
vt 0.326000 -0.289653
vt 0.151592 -0.326314
vt 0.150889 -0.382553
vt 0.232672 -0.425825
vt 0.322123 -0.462283
vt 0.259221 -0.450347
vt 0.262036 -0.267131
vt 0.317901 -0.257779
vt 0.163883 -0.424186
vt 0.167402 -0.294154
vt 0.369066 -0.339003
vt 0.367658 -0.382781
vn 0.000300 -1.000000 0.000700
vn -0.000300 1.000000 -0.000700
vn -0.000300 -1.000000 0.000700
vn 0.000300 1.000000 -0.000700
vn -0.000400 -1.000000 0.000700
vn -0.000100 -1.000000 0.001000
vn 0.000400 1.000000 -0.000700
vn 0.000100 1.000000 -0.001000
vn 0.000400 -1.000000 0.000700
vn 0.000100 -1.000000 0.001000
vn -0.000400 1.000000 -0.000700
vn -0.000100 1.000000 -0.001000
vn -0.000900 -1.000000 -0.000800
vn -0.001400 -1.000000 -0.000000
vn 0.000900 1.000000 0.000800
vn 0.001400 1.000000 0.000000
vn 0.000900 -1.000000 -0.000800
vn 0.001400 -1.000000 -0.000000
vn -0.000900 1.000000 0.000800
vn -0.001400 1.000000 0.000000
vn -0.002300 -1.000000 0.001400
vn -0.002200 -1.000000 -0.000300
vn 0.002300 1.000000 -0.001400
vn 0.002200 1.000000 0.000300
vn 0.002300 -1.000000 0.001400
vn 0.002200 -1.000000 -0.000300
vn -0.002300 1.000000 -0.001400
vn -0.002200 1.000000 0.000300
vn 0.000000 -1.000000 0.000000
vn 0.000000 1.000000 0.000000
vn -0.000100 -1.000000 0.000000
vn 0.000100 1.000000 -0.000000
vn 0.000100 -1.000000 0.000000
vn -0.000100 1.000000 -0.000000
vn 0.134000 0.960900 -0.242300
vn 0.134000 -0.960900 -0.242300
vn -0.341300 0.922800 0.178700
vn 0.341300 0.922800 0.178700
vn 0.000000 0.983800 -0.179300
vn -0.134000 0.960900 -0.242300
vn -0.134000 -0.960900 -0.242300
vn 0.000000 -0.983800 -0.179300
vn -0.427800 -0.898800 -0.095800
vn -0.427800 0.898800 -0.095800
vn 0.427800 -0.898800 -0.095800
vn 0.427800 0.898800 -0.095800
vn -0.177300 -0.977000 -0.118800
vn -0.177300 0.977000 -0.118800
vn 0.177200 -0.977000 -0.118800
vn 0.177200 0.977000 -0.118800
vn -0.923400 0.000000 0.383800
vn 0.923500 0.000000 0.383600
vn 0.341300 -0.922800 0.178700
vn 0.295500 0.919800 0.258200
vn 1.000000 0.000000 0.004300
vn -0.802100 0.000000 0.597100
vn -0.341300 -0.922800 0.178700
vn -0.295500 0.919800 0.258200
vn -1.000000 0.000000 0.004300
vn 0.802100 0.000000 0.597100
vn 0.295500 -0.919800 0.258200
vn -0.979600 0.000000 -0.201200
vn -0.295500 -0.919800 0.258200
vn 0.979600 0.000000 -0.201200
vn -0.338200 -0.907700 -0.248500
vn -0.338200 0.907700 -0.248500
vn 0.338200 -0.907700 -0.248500
vn 0.338200 0.907700 -0.248500
usemtl AMULETT3_1
s off
f 13/1/1 1/2/1 17/3/1
f 17/3/2 1/2/2 13/1/2
f 14/4/3 3/5/3 15/6/3
f 15/6/4 3/5/4 14/4/4
f 17/3/5 12/7/5 27/8/5
f 17/3/6 1/2/6 12/7/6
f 27/8/7 12/7/7 17/3/7
f 12/7/8 1/2/8 17/3/8
f 18/9/9 19/10/9 14/4/9
f 19/10/10 3/5/10 14/4/10
f 14/4/11 19/10/11 18/9/11
f 14/4/12 3/5/12 19/10/12
f 23/11/13 35/12/13 21/13/13
f 21/13/14 16/14/14 23/11/14
f 23/11/15 21/13/15 35/12/15
f 23/11/16 16/14/16 21/13/16
f 26/15/17 25/16/17 36/17/17
f 26/15/18 28/18/18 25/16/18
f 26/15/19 36/17/19 25/16/19
f 25/16/20 28/18/20 26/15/20
f 27/8/21 12/7/21 16/14/21
f 27/8/22 16/14/22 21/13/22
f 16/14/23 12/7/23 27/8/23
f 21/13/24 16/14/24 27/8/24
f 28/18/25 19/10/25 18/9/25
f 25/16/26 28/18/26 18/9/26
f 18/9/27 19/10/27 28/18/27
f 18/9/28 28/18/28 25/16/28
f 35/12/29 24/19/29 22/20/29
f 22/20/30 24/19/30 35/12/30
f 22/20/31 21/13/31 35/12/31
f 22/20/32 35/12/32 21/13/32
f 24/19/33 36/17/33 25/16/33
f 36/17/29 24/19/29 35/12/29
f 24/19/34 25/16/34 36/17/34
f 35/12/30 24/19/30 36/17/30
usemtl AMULETT3_2
f 11/21/35 7/22/35 30/23/35
f 20/22/36 11/21/36 9/23/36
f 32/24/37 31/25/37 33/26/37
f 8/24/29 20/22/29 38/26/29
f 30/23/38 34/27/38 29/28/38
f 9/23/29 37/27/29 20/22/29
f 7/22/39 15/29/39 13/30/39
f 10/31/40 32/24/40 7/22/40
f 20/22/41 8/24/41 10/31/41
f 15/29/42 20/22/42 13/30/42
f 8/24/43 5/32/43 39/33/43
f 39/33/44 5/32/44 32/24/44
f 9/23/45 40/34/45 6/35/45
f 40/34/46 30/23/46 6/35/46
f 10/31/47 13/30/47 20/22/47
f 10/31/48 7/22/48 13/30/48
f 11/21/49 20/22/49 15/29/49
f 11/21/50 15/29/50 7/22/50
f 10/31/29 1/36/29 13/30/29
f 10/31/30 13/30/30 1/36/30
f 11/21/29 15/29/29 3/37/29
f 11/21/30 3/37/30 15/29/30
f 37/27/51 34/27/51 20/22/51
f 38/26/52 20/22/52 33/26/52
f 9/23/53 29/28/53 37/27/53
f 29/28/54 34/27/54 2/38/54
f 30/23/55 29/28/55 9/23/55
f 9/23/56 6/35/56 30/23/56
f 8/24/57 38/26/57 31/25/57
f 31/25/58 4/39/58 33/26/58
f 32/24/59 8/24/59 31/25/59
f 8/24/60 32/24/60 5/32/60
f 32/24/30 33/26/30 7/22/30
f 7/22/52 33/26/52 20/22/52
f 30/23/30 7/22/30 34/27/30
f 7/22/51 20/22/51 34/27/51
f 37/27/61 29/28/61 2/38/61
f 37/27/62 2/38/62 34/27/62
f 38/26/63 4/39/63 31/25/63
f 38/26/64 33/26/64 4/39/64
f 10/31/65 8/24/65 39/33/65
f 39/33/66 32/24/66 10/31/66
f 11/21/67 40/34/67 9/23/67
f 40/34/68 11/21/68 30/23/68
