# Blender v2.75 (sub 0) OBJ File: 'Empty.blend'
# www.blender.org
mtllib ITMI_SLEEPERSWORD_01.mtl
o ITMI_SLEEPERSWORD_01
v -0.101777 0.000000 -0.086366
v -0.299253 0.012700 -0.141307
v -0.457200 0.000000 -0.063500
v -0.101777 0.000000 0.086366
v -0.299253 0.012700 0.141307
v -0.457200 0.000000 0.063500
v -0.109220 -0.030480 -0.083820
v -0.114300 -0.007620 -0.240284
v 0.005080 -0.030480 0.005080
v -0.114300 -0.007620 0.240284
v -0.109220 -0.030480 0.083820
v -0.599440 0.000000 -0.101600
v -0.840740 0.000000 0.000000
v -0.662940 0.000000 0.000000
v -0.599440 0.000000 0.101600
v 0.005080 0.030480 -0.074676
v -0.894080 0.000000 -0.086360
v -1.120140 0.000000 0.000000
v -0.942340 0.000000 0.000000
v -0.894080 0.000000 0.086360
v 0.005080 0.030480 0.074676
v -1.188720 0.000000 -0.071120
v -1.399540 0.000000 0.000000
v -1.221740 0.000000 0.000000
v -1.188720 0.000000 0.071120
v -1.532230 0.000000 -0.034117
v -1.767840 0.000000 0.034723
v -1.767840 0.000000 -0.034723
v -1.481430 0.000000 -0.062057
v 0.000203 -0.021946 0.000000
v -1.532230 0.000000 0.034117
v -1.481430 0.000000 0.062057
v -1.577950 -0.011786 0.000000
v -0.095694 0.025400 -0.134502
v -0.095694 0.025400 0.134502
v 0.000203 0.021946 0.000000
v 0.462788 0.000000 -0.000000
v -0.170180 0.000000 -0.266700
v -0.081280 0.008890 -0.264160
v -0.139700 0.000000 0.281940
v -0.081280 0.008890 0.264160
v 0.005080 -0.030480 -0.005080
v 0.005080 -0.030480 0.074676
v 0.005080 -0.030480 -0.074676
v -0.139700 0.000000 -0.281940
v -0.170180 0.000000 0.266700
v 0.005080 0.030480 0.005080
v -0.109220 0.030480 -0.083820
v 0.005080 0.030480 -0.005080
v -0.109220 0.030480 0.083820
v -1.577950 0.011786 0.000000
v -0.095694 -0.025400 -0.134502
v -0.095694 -0.025400 0.134502
v -0.299253 -0.012700 -0.141307
v -0.299253 -0.012700 0.141307
v -0.087691 -0.030480 -0.162805
v -0.087691 -0.030480 0.162805
v -0.081280 -0.008890 -0.264160
v -0.081280 -0.008890 0.264160
v -0.114300 0.007620 -0.240284
v -0.114300 0.007620 0.240284
v -0.087691 0.030480 -0.162805
v -0.087691 0.030480 0.162805
v -0.063513 -0.030480 -0.027064
v -0.063513 0.030480 -0.027064
v -0.063513 -0.030480 0.027064
v -0.063513 0.030480 0.027064
v -0.107950 -0.030480 -0.135890
v -0.107950 0.030480 -0.135890
v -0.107950 -0.030480 0.135890
v -0.107950 0.030480 0.135890
v -1.532230 -0.011786 -0.035560
v -1.532230 0.011786 -0.035560
v -1.532230 -0.011786 0.035560
v -1.532230 0.011786 0.035560
v -1.875637 0.000000 0.000000
v -0.281940 -0.000000 -0.099060
v -0.281940 -0.000000 0.099060
v -0.033020 -0.030480 -0.170180
v -0.033020 0.030480 -0.170180
v -0.033020 -0.030480 0.170180
v -0.033020 0.030480 0.170180
v 0.057858 -0.000000 -0.037485
v 0.000203 0.000000 -0.071222
v 0.057858 0.000000 0.037485
v 0.000203 0.000000 0.071222
v 0.057858 -0.011550 0.000000
v 0.057858 0.011550 0.000000
vt 0.764706 -0.878431
vt 0.811765 -0.996078
vt 0.811765 -0.878431
vt 0.768627 -0.870588
vt 0.780392 -0.811765
vt 0.807843 -0.811765
vt 0.811765 -0.874510
vt 0.847059 -0.733333
vt 0.847059 -0.811765
vt 0.874510 -0.823529
vt 0.819608 -0.823529
vt 0.872464 -0.978162
vt 0.827451 -0.662745
vt 0.827451 -0.560784
vt 0.843137 -0.513726
vt 0.858824 -0.662745
vt 0.858824 -0.560784
vt 0.874510 -0.682353
vt 0.870588 -0.521569
vt 0.847059 -0.996078
vt 0.815686 -0.682353
vt 0.823529 -0.521569
vt 0.756863 -0.996078
vt 0.878431 -0.996078
vt 0.815686 -0.996078
vt 0.792157 -0.780392
vt 0.772549 -0.984314
vt 0.750000 -0.748705
vt 0.811765 -0.945098
vt 0.750000 -0.750000
vt 0.776471 -0.764706
vt 0.784314 -0.776471
vt 0.752941 -0.933333
vt 0.756863 -0.890196
vt 0.824419 -0.957694
vt 0.869470 -0.957694
vt 0.824419 -0.800662
vt 0.824419 -0.980053
vt 0.868341 -0.980053
vt 0.869443 -0.957694
vn -0.069600 0.947100 0.313200
vn 0.033400 0.000000 -0.999400
vn -0.069600 0.947100 -0.313200
vn 0.033400 0.000000 0.999400
vn -0.945800 0.000000 0.324800
vn -0.028300 -0.977300 -0.210000
vn -0.945800 0.000000 -0.324800
vn -0.028300 -0.977300 0.210000
vn 0.000000 1.000000 0.000000
vn 0.000000 -1.000000 0.000000
vn 0.889600 0.000000 -0.456800
vn -0.028300 0.977300 -0.210000
vn 1.000000 0.000000 0.000000
vn 0.889600 0.000000 0.456800
vn -0.028300 0.977300 0.210000
vn -0.049900 -0.986700 0.154900
vn -0.049900 0.986700 0.154900
vn -0.045600 -0.877400 -0.477600
vn -0.045600 0.877400 -0.477600
vn -0.006100 0.942600 -0.333800
vn -0.006100 -0.942600 -0.333800
vn -0.045600 -0.877400 0.477600
vn -0.045600 0.877400 0.477600
vn -0.006100 -0.942600 0.333800
vn -0.006100 0.942600 0.333800
vn -0.032600 0.885700 0.463200
vn -0.032600 -0.885700 0.463200
vn -0.032600 0.885600 -0.463200
vn -0.032600 -0.885700 -0.463200
vn -0.007100 -0.955600 -0.294500
vn -0.007100 -0.955600 0.294500
vn -0.007100 0.955600 0.294500
vn -0.007100 0.955600 -0.294500
vn -0.117000 0.987100 -0.109300
vn -0.193100 0.957100 -0.216100
vn -0.117000 -0.987100 -0.109300
vn -0.193100 -0.957100 -0.216100
vn -0.117000 0.987100 0.109300
vn -0.193100 0.957100 0.216100
vn -0.117000 -0.987100 0.109300
vn -0.193100 -0.957100 0.216100
vn -0.069200 0.987900 -0.138500
vn -0.069200 -0.987900 -0.138500
vn -0.069200 0.987900 0.138500
vn -0.069200 -0.987900 0.138500
vn -0.424300 0.000000 0.905500
vn -0.424300 0.000000 -0.905500
vn 0.462500 0.000000 -0.886600
vn 0.462500 0.000000 0.886600
vn 0.992100 0.000000 0.125400
vn 0.992100 0.000000 -0.125400
vn -0.441900 0.000000 -0.897100
vn -0.069600 -0.947100 0.313200
vn -0.441900 0.000000 0.897100
vn -0.069600 -0.947100 -0.313200
vn -0.999700 0.000000 -0.024400
vn -0.999700 0.000000 0.024400
vn 0.291200 0.000000 -0.956700
vn 0.291200 0.000000 0.956700
vn -0.427400 0.000000 0.904100
vn -0.427400 0.000000 -0.904100
vn -0.778800 0.000000 0.627200
vn -0.778800 0.000000 -0.627200
vn -0.799000 0.000000 -0.601400
vn -0.799000 0.000000 0.601400
vn -0.039500 -0.997900 -0.050800
vn 0.613900 0.000000 0.789400
vn -0.039500 0.997900 -0.050800
vn -0.039500 -0.997900 0.050800
vn 0.613900 0.000000 -0.789400
vn -0.039500 0.997900 0.050800
vn -0.049900 0.986700 -0.154900
vn -0.049900 -0.986700 -0.154900
vn 0.054200 -0.962200 0.267000
vn 0.054200 0.962200 0.267000
vn 0.054200 -0.962200 -0.267000
vn 0.054200 0.962200 -0.267000
vn 0.928800 0.000000 -0.370500
vn 0.928800 0.000000 0.370500
vn 0.027200 -0.955300 -0.294400
vn 0.027200 0.955300 -0.294400
vn 0.169800 -0.941800 -0.290200
vn 0.169800 0.941800 -0.290200
vn 0.027200 0.955300 0.294400
vn 0.027200 -0.955300 0.294400
vn 0.169800 0.941800 0.290200
vn 0.169800 -0.941800 0.290200
usemtl WEAPONS
s off
f 77/1/1 34/2/1 2/3/1
f 2/3/2 52/2/2 54/3/2
f 35/2/3 78/1/3 5/3/3
f 53/2/4 5/3/4 55/3/4
f 62/4/5 8/5/5 56/4/5
f 56/4/6 58/6/6 79/7/6
f 63/4/7 57/4/7 10/5/7
f 57/4/8 81/7/8 59/6/8
f 13/8/9 14/9/9 12/10/9
f 13/8/10 12/10/10 14/9/10
f 13/8/9 15/11/9 14/9/9
f 13/8/10 14/9/10 15/11/10
f 58/6/11 80/7/11 79/7/11
f 39/6/12 62/4/12 80/7/12
f 18/8/9 19/9/9 17/10/9
f 18/8/10 17/10/10 19/9/10
f 18/8/9 20/11/9 19/9/9
f 18/8/10 19/9/10 20/11/10
f 21/12/13 44/12/13 16/12/13
f 59/6/14 81/7/14 82/7/14
f 41/6/15 82/7/15 63/4/15
f 23/8/9 24/9/9 22/10/9
f 23/8/10 22/10/10 24/9/10
f 23/8/9 25/11/9 24/9/9
f 23/8/10 24/9/10 25/11/10
f 74/13/16 27/14/16 76/15/16
f 75/13/17 76/15/17 27/14/17
f 72/16/18 28/17/18 29/18/18
f 73/16/19 29/18/19 28/17/19
f 26/19/20 51/16/20 36/20/20
f 33/16/21 26/19/21 30/20/21
f 32/21/22 27/14/22 74/13/22
f 75/13/23 27/14/23 32/21/23
f 31/22/24 33/16/24 30/20/24
f 36/20/25 51/16/25 31/22/25
f 34/2/26 77/1/26 1/23/26
f 52/2/27 1/23/27 77/1/27
f 78/1/28 35/2/28 4/23/28
f 53/2/29 78/1/29 4/23/29
f 26/19/30 84/24/30 30/20/30
f 86/25/31 31/22/31 30/20/31
f 36/20/32 31/22/32 86/25/32
f 84/24/33 26/19/33 36/20/33
f 60/5/34 39/6/34 45/26/34
f 39/6/35 60/5/35 62/4/35
f 8/5/36 45/26/36 58/6/36
f 8/5/37 58/6/37 56/4/37
f 61/5/38 40/26/38 41/6/38
f 41/6/39 63/4/39 61/5/39
f 10/5/40 59/6/40 40/26/40
f 10/5/41 57/4/41 59/6/41
f 66/27/10 42/28/10 43/29/10
f 44/12/13 21/12/13 43/12/13
f 64/27/10 44/29/10 9/30/10
f 60/5/42 45/26/42 38/31/42
f 45/26/43 8/5/43 38/31/43
f 61/5/44 46/31/44 40/26/44
f 40/26/45 46/31/45 10/5/45
f 47/30/46 64/27/46 9/30/46
f 64/27/46 47/30/46 65/27/46
f 16/29/9 65/27/9 47/30/9
f 49/28/47 42/28/47 66/27/47
f 66/27/47 67/27/47 49/28/47
f 21/29/9 49/28/9 67/27/9
f 74/13/48 75/13/48 32/21/48
f 72/16/49 29/18/49 73/16/49
f 52/2/2 2/3/2 34/2/2
f 1/23/50 52/2/50 34/2/50
f 5/3/4 53/2/4 35/2/4
f 53/2/51 4/23/51 35/2/51
f 54/3/52 3/32/52 2/3/52
f 52/2/53 77/1/53 54/3/53
f 55/3/54 5/3/54 6/32/54
f 53/2/55 55/3/55 78/1/55
f 48/33/56 68/34/56 7/33/56
f 68/34/10 44/29/10 7/33/10
f 50/33/57 11/33/57 70/34/57
f 70/34/10 11/33/10 43/29/10
f 58/6/58 45/26/58 39/6/58
f 80/7/11 58/6/11 39/6/11
f 59/6/59 41/6/59 40/26/59
f 82/7/14 41/6/14 59/6/14
f 60/5/60 38/31/60 8/5/60
f 8/5/5 62/4/5 60/5/5
f 61/5/61 10/5/61 46/31/61
f 10/5/7 61/5/7 63/4/7
f 68/34/56 48/33/56 69/34/56
f 16/29/9 69/34/9 48/33/9
f 70/34/57 71/34/57 50/33/57
f 21/29/9 50/33/9 71/34/9
f 7/33/10 44/29/10 64/27/10
f 65/27/62 7/33/62 64/27/62
f 16/29/9 48/33/9 65/27/9
f 7/33/62 65/27/62 48/33/62
f 11/33/10 66/27/10 43/29/10
f 67/27/63 66/27/63 11/33/63
f 21/29/9 67/27/9 50/33/9
f 11/33/63 50/33/63 67/27/63
f 56/4/10 44/29/10 68/34/10
f 69/34/64 56/4/64 68/34/64
f 62/4/9 69/34/9 16/29/9
f 56/4/64 69/34/64 62/4/64
f 57/4/10 70/34/10 43/29/10
f 71/34/65 70/34/65 57/4/65
f 63/4/9 21/29/9 71/34/9
f 57/4/65 63/4/65 71/34/65
f 33/16/66 76/15/66 72/16/66
f 72/16/67 51/16/67 33/16/67
f 76/15/68 51/16/68 73/16/68
f 51/16/67 72/16/67 73/16/67
f 76/15/69 33/16/69 74/13/69
f 51/16/70 74/13/70 33/16/70
f 51/16/71 76/15/71 75/13/71
f 74/13/70 51/16/70 75/13/70
f 73/16/72 28/17/72 76/15/72
f 28/17/73 72/16/73 76/15/73
f 77/1/74 3/32/74 54/3/74
f 2/3/75 3/32/75 77/1/75
f 78/1/76 55/3/76 6/32/76
f 5/3/77 78/1/77 6/32/77
f 44/29/10 56/4/10 79/7/10
f 79/7/78 16/29/78 44/29/78
f 62/4/9 16/29/9 80/7/9
f 16/29/78 79/7/78 80/7/78
f 43/29/10 81/7/10 57/4/10
f 81/7/79 43/29/79 21/29/79
f 63/4/9 82/7/9 21/29/9
f 21/29/79 82/7/79 81/7/79
f 87/35/80 83/36/80 37/37/80
f 83/36/81 88/35/81 37/37/81
f 30/38/82 84/39/82 83/36/82
f 88/35/83 83/36/83 84/39/83
f 88/35/84 85/40/84 37/37/84
f 85/40/85 87/35/85 37/37/85
f 36/38/86 86/39/86 85/40/86
f 87/35/87 85/40/87 86/39/87
f 86/39/87 30/38/87 87/35/87
f 83/36/82 87/35/82 30/38/82
f 85/40/86 88/35/86 36/38/86
f 84/39/83 36/38/83 88/35/83
