# Blender v2.75 (sub 0) OBJ File: 'Empty.blend'
# www.blender.org
mtllib ITMI_STUFF_OLDCOIN_01.mtl
o ITMI_STUFF_OLDCOIN_01
v -0.035355 -0.010081 0.035355
v -0.035031 0.002561 -0.035355
v 0.000190 0.005642 0.050000
v 0.035411 0.008724 0.035355
v 0.050000 -0.010081 0.000000
v -0.000000 -0.010081 0.050000
v 0.000000 -0.010081 -0.050000
v 0.035355 -0.010081 -0.035355
v 0.035411 0.003724 -0.035355
v -0.050000 -0.010081 -0.000000
v -0.035355 -0.010081 -0.035355
v 0.035355 -0.010081 0.035355
v 0.050000 0.010000 0.000000
v -0.035031 0.002561 0.035355
v -0.049619 0.001284 -0.000000
v 0.000190 0.000642 -0.050000
vt 0.144596 -0.822588
vt 0.021428 -0.769577
vt 0.123464 -0.769577
vt 0.000845 -0.822588
vt 0.021897 -0.769577
vt 0.123544 -0.875599
vt 0.021897 -0.875599
vt 0.021428 -0.875599
vt 0.072446 -0.897557
vt 0.002771 -0.889704
vt 0.002771 -0.912769
vt 0.071066 -0.912722
vt 0.003031 -0.894709
vt 0.071119 -0.891131
vt 0.071400 -0.894736
vt 0.071065 -0.913125
vt 0.139094 -0.912570
vt 0.002858 -0.912703
vt 0.002771 -0.893204
vt 0.070729 -0.890218
vt 0.072446 -0.747619
vt 0.072721 -0.747619
vt 0.071014 -0.896858
vt 0.139353 -0.912769
vt 0.000296 -0.822588
vt 0.003289 -0.896181
vt 0.139353 -0.889802
vt 0.072721 -0.897557
vt 0.138835 -0.892030
vt 0.139094 -0.900452
vn 0.000000 -1.000000 -0.000000
vn -0.087200 0.996200 0.000000
vn 0.923900 0.000000 -0.382700
vn 0.384000 -0.001100 0.923300
vn -0.382700 0.009800 0.923800
vn 0.382700 -0.004600 0.923900
vn -0.383500 0.009900 -0.923500
vn -0.016300 0.985600 -0.168300
vn 0.924600 -0.003700 -0.380900
vn 0.382700 -0.001500 -0.923900
vn -0.924400 0.023800 0.380600
vn -0.923600 0.023700 -0.382600
vn 0.923900 -0.002700 0.382700
vn 0.924400 0.000000 0.381400
vn -0.384300 0.004700 0.923200
vn -0.924300 0.030900 -0.380300
vn -0.923400 0.030900 0.382500
vn 0.384400 -0.006800 -0.923100
vn -0.382700 0.006800 -0.923900
usemtl ITMIOLDCOIN_1
s off
f 5/1/1 11/2/1 8/3/1
f 15/4/2 13/1/2 2/5/2
f 4/6/2 15/4/2 14/7/2
f 1/8/1 12/6/1 6/9/1
f 13/10/3 5/11/3 8/12/3
f 3/13/4 12/12/4 4/14/4
f 14/15/5 1/16/5 6/17/5
f 3/13/6 6/18/6 12/12/6
f 16/19/7 11/16/7 2/20/7
f 2/5/8 13/1/8 9/3/8
f 8/3/1 11/2/1 7/21/1
f 2/5/8 9/3/8 16/22/8
f 13/10/9 8/12/9 9/23/9
f 9/23/10 8/12/10 7/24/10
f 12/6/1 1/8/1 10/25/1
f 15/26/11 1/16/11 14/15/11
f 11/2/1 12/6/1 10/25/1
f 2/20/12 11/16/12 10/24/12
f 12/6/1 11/2/1 5/1/1
f 4/14/13 12/12/13 5/24/13
f 4/6/2 13/1/2 15/4/2
f 4/14/14 5/24/14 13/27/14
f 4/6/2 14/7/2 3/28/2
f 14/15/15 6/17/15 3/27/15
f 2/20/16 10/24/16 15/29/16
f 15/26/17 10/18/17 1/16/17
f 9/23/18 7/24/18 16/30/18
f 16/19/19 7/18/19 11/16/19
