# Blender v2.75 (sub 0) OBJ File: 'Empty.blend'
# www.blender.org
mtllib ITMI_ALCHEMY_STONEOIL_02.mtl
o ITMI_ALCHEMY_STONEOIL_02
v 0.012862 0.110483 0.022279
v 0.026250 -0.050000 0.045466
v -0.037500 0.066667 -0.064952
v 0.018375 0.200500 0.031826
v 0.026250 -0.050000 -0.045466
v -0.052500 -0.050000 -0.000000
v -0.037500 0.066667 0.064952
v 0.075000 0.066667 0.000000
v 0.018375 0.200500 -0.031826
v -0.036750 0.200500 -0.000000
v 0.037500 0.066667 -0.064952
v 0.037500 0.066667 0.064952
v -0.025725 0.110483 -0.000000
v -0.075000 0.066667 -0.000000
v -0.026250 -0.050000 -0.045466
v 0.052500 -0.050000 0.000000
v -0.026250 -0.050000 0.045466
v 0.025725 0.110483 0.000000
v -0.012862 0.110483 -0.022279
v 0.036750 0.200500 0.000000
v -0.018375 0.200500 -0.031826
v -0.018375 0.200500 0.031826
v -0.012862 0.110483 0.022279
v 0.012862 0.110483 -0.022279
vt 0.710581 -0.775792
vt 0.607062 -0.775792
vt 0.687306 -0.886698
vt 0.672396 -0.782095
vt 0.548940 -0.782095
vt 0.661336 -0.887813
vt 0.693210 -0.741669
vt 0.599182 -0.646304
vt 0.620588 -0.741669
vt 0.602978 -0.741543
vt 0.716587 -0.646304
vt 0.685161 -0.741543
vt 0.643886 -0.885173
vt 0.575730 -0.768315
vt 0.587758 -0.885173
vt 0.574916 -0.887813
vt 0.646727 -0.819538
vt 0.683010 -0.843727
vt 0.634632 -0.843727
vt 0.695903 -0.887740
vt 0.591736 -0.780885
vt 0.610119 -0.887740
vt 0.690899 -0.784791
vt 0.557210 -0.784791
vt 0.674720 -0.887137
vt 0.714285 -0.780885
vt 0.680417 -0.773173
vt 0.556655 -0.773173
vt 0.663790 -0.885569
vt 0.641068 -0.740508
vt 0.592868 -0.645024
vt 0.691303 -0.645285
vt 0.607402 -0.740892
vt 0.595230 -0.645038
vt 0.671460 -0.643930
vt 0.601852 -0.741433
vt 0.678659 -0.752836
vt 0.666778 -0.752836
vt 0.684600 -0.764717
vt 0.655914 -0.768315
vt 0.602071 -0.740985
vt 0.631994 -0.739115
vt 0.599248 -0.740472
vt 0.663232 -0.740786
vt 0.674028 -0.739115
vt 0.631841 -0.740016
vt 0.589495 -0.740016
vt 0.601127 -0.739224
vt 0.670916 -0.819538
vt 0.614842 -0.886698
vt 0.670916 -0.867916
vt 0.577156 -0.885569
vt 0.646727 -0.867916
vt 0.581137 -0.887137
vt 0.641698 -0.740472
vt 0.633613 -0.741000
vt 0.702438 -0.645923
vt 0.692599 -0.741377
vt 0.676575 -0.740508
vt 0.678659 -0.776598
vt 0.660838 -0.764717
vt 0.628820 -0.645778
vt 0.708771 -0.645170
vt 0.666778 -0.776598
vt 0.604389 -0.645122
vt 0.683351 -0.644992
vt 0.618549 -0.741430
vt 0.646982 -0.739224
vt 0.661044 -0.740911
vt 0.629573 -0.740985
vt 0.670672 -0.741356
vn 0.000000 -0.164700 -0.986300
vn -0.854200 -0.164700 -0.493200
vn -0.861200 -0.105500 -0.497200
vn 0.000000 -0.105500 -0.994400
vn 0.854200 -0.164700 -0.493200
vn 0.000000 -1.000000 0.000000
vn 0.000000 -0.164700 0.986300
vn -0.854200 -0.164700 0.493200
vn 0.854200 -0.164700 0.493200
vn 0.000000 0.697700 -0.716400
vn 0.861200 -0.105500 -0.497200
vn 0.000000 -0.105500 0.994400
vn 0.000000 1.000000 0.000000
vn 0.620400 0.697700 -0.358200
vn 0.000000 0.697700 0.716400
vn 0.620400 0.697700 0.358200
vn -0.620400 0.697700 -0.358200
vn -0.620400 0.697700 0.358200
vn 0.861200 -0.105500 0.497200
vn -0.861200 -0.105500 0.497200
usemtl STONEOIL2
s off
f 3/1/1 11/2/1 15/3/1
f 14/4/2 3/5/2 6/6/2
f 13/7/3 21/8/3 19/9/3
f 19/10/4 9/11/4 24/12/4
f 5/13/5 8/14/5 16/15/5
f 6/6/2 3/5/2 15/16/2
f 15/17/6 16/18/6 6/19/6
f 2/20/7 7/21/7 17/22/7
f 7/23/8 14/24/8 17/25/8
f 12/26/7 7/21/7 2/20/7
f 8/27/9 12/28/9 16/29/9
f 3/1/10 24/30/10 11/2/10
f 9/31/11 20/32/11 24/33/11
f 21/8/4 9/11/4 19/10/4
f 4/34/12 22/35/12 1/36/12
f 9/37/13 21/38/13 20/39/13
f 11/40/5 8/14/5 5/13/5
f 11/40/14 18/41/14 8/14/14
f 12/26/15 23/42/15 7/21/15
f 8/27/16 1/43/16 12/28/16
f 1/36/12 22/35/12 23/44/12
f 1/45/15 23/42/15 12/26/15
f 13/46/17 19/47/17 14/4/17
f 7/23/18 13/48/18 14/24/18
f 5/49/6 16/18/6 15/17/6
f 15/3/1 11/2/1 5/50/1
f 2/51/6 6/19/6 16/18/6
f 16/29/9 12/28/9 2/52/9
f 17/53/6 6/19/6 2/51/6
f 17/25/8 14/24/8 6/54/8
f 18/55/16 1/43/16 8/27/16
f 18/56/19 4/57/19 1/58/19
f 19/59/10 24/30/10 3/1/10
f 14/4/17 19/47/17 3/5/17
f 4/60/13 20/39/13 10/61/13
f 20/62/19 4/57/19 18/56/19
f 10/61/13 20/39/13 21/38/13
f 10/63/3 21/8/3 13/7/3
f 22/64/13 4/60/13 10/61/13
f 22/65/20 10/66/20 23/67/20
f 23/68/18 13/48/18 7/23/18
f 23/67/20 10/66/20 13/69/20
f 24/70/14 18/41/14 11/40/14
f 24/33/11 20/32/11 18/71/11
