# Blender v2.75 (sub 0) OBJ File: 'Empty.blend'
# www.blender.org
mtllib ITMI_STUFF_AMPHORE_01.mtl
o ITMI_STUFF_AMPHORE_01
v 0.010723 -0.000003 -0.056207
v -0.032227 0.181187 0.020139
v 0.010723 -0.000003 0.052694
v 0.015884 0.101631 0.075649
v 0.031108 0.181187 0.000667
v -0.045166 -0.000003 -0.035409
v 0.015884 0.101631 -0.079106
v -0.045166 -0.000003 0.031896
v 0.042217 -0.000003 -0.001756
v 0.004701 0.181187 0.032173
v -0.032227 0.181187 -0.018805
v 0.004701 0.181187 -0.030840
v -0.063537 0.101631 -0.049550
v -0.063537 0.101631 0.046093
v -0.024967 0.164860 0.013417
v 0.063760 0.101631 -0.001728
v 0.001417 0.164860 0.022015
v 0.001417 0.164860 -0.023005
v 0.020283 0.164860 -0.000495
v -0.024967 0.164860 -0.014407
v 0.005820 0.143440 0.033590
v 0.005820 0.143440 -0.032337
v -0.032816 0.143440 -0.019746
v 0.033448 0.143440 0.000627
v -0.032816 0.143440 0.020999
vt 0.294493 -0.247812
vt 0.261116 -0.190522
vt 0.261017 -0.247472
vt 0.303920 -0.190173
vt 0.282617 -0.190270
vt 0.303940 -0.244451
vt 0.335595 -0.190479
vt 0.294449 -0.190399
vt 0.336014 -0.247919
vt 0.282371 -0.244796
vt 0.324049 -0.151642
vt 0.302021 -0.151617
vt 0.325774 -0.190265
vt 0.280556 -0.151644
vt 0.313372 -0.218379
vt 0.327805 -0.222951
vt 0.313372 -0.227523
vt 0.340902 -0.191769
vt 0.271670 -0.191287
vt 0.352796 -0.245644
vt 0.326070 -0.244792
vt 0.283215 -0.246501
vt 0.322603 -0.230349
vt 0.322603 -0.215553
vt 0.314075 -0.126777
vt 0.314075 -0.128218
vt 0.329745 -0.127497
vt 0.335686 -0.152698
vt 0.294389 -0.152355
vt 0.292160 -0.127942
vt 0.292160 -0.127052
vt 0.279287 -0.152112
vt 0.349000 -0.152175
vt 0.261050 -0.152809
vt 0.330017 -0.138304
vt 0.288119 -0.114840
vt 0.288498 -0.138566
vt 0.255071 -0.114715
vt 0.301922 -0.136042
vt 0.281687 -0.136251
vt 0.281902 -0.116149
vt 0.329719 -0.114609
vt 0.325529 -0.116147
vt 0.323887 -0.136250
vt 0.279574 -0.136863
vt 0.352516 -0.119834
vt 0.283015 -0.119773
vt 0.302563 -0.116708
vt 0.255225 -0.138380
vt 0.348993 -0.136906
vn -0.984100 -0.177900 0.000000
vn 0.836900 -0.177500 0.517800
vn -0.342400 -0.190400 0.920100
vn 0.855200 -0.155100 0.494600
vn 0.568800 0.670200 -0.476700
vn 0.685500 0.591700 0.424200
vn 0.000000 -1.000000 0.000000
vn -0.342400 -0.189900 -0.920100
vn 0.839500 -0.159700 -0.519400
vn 0.851400 -0.180300 -0.492500
vn 0.000000 1.000000 0.000000
vn -0.232400 0.661400 0.713100
vn -0.251000 0.694200 -0.674600
vn -0.229700 0.671200 -0.704800
vn -0.805900 0.592100 0.000000
vn -0.269900 0.633500 0.725100
vn -0.273900 -0.467800 0.840300
vn -0.913700 -0.406300 0.000000
vn 0.684200 0.450600 0.573500
vn 0.702200 0.400700 -0.588500
vn 0.670400 -0.484500 0.561900
vn 0.695600 -0.419700 -0.583000
vn -0.288300 -0.366500 -0.884600
vn -0.282500 0.410500 0.867000
vn -0.292400 0.330800 -0.897300
vn -0.938900 0.344100 0.000000
vn 0.714200 0.542700 -0.441900
vn 0.680100 0.461000 0.570000
usemtl AMPH
s off
f 8/1/1 13/2/1 6/3/1
f 16/4/2 4/5/2 9/6/2
f 4/7/3 14/8/3 3/9/3
f 9/6/4 4/5/4 3/10/4
f 22/11/5 24/12/5 7/13/5
f 16/4/6 21/14/6 4/5/6
f 6/15/7 9/16/7 8/17/7
f 13/18/8 7/19/8 6/20/8
f 7/13/9 16/4/9 1/21/9
f 6/20/8 7/19/8 1/22/8
f 8/17/7 9/16/7 3/23/7
f 3/9/3 14/8/3 8/1/3
f 9/16/7 6/15/7 1/24/7
f 1/21/10 16/4/10 9/6/10
f 12/25/11 10/26/11 5/27/11
f 21/28/12 25/29/12 4/7/12
f 14/8/1 13/2/1 8/1/1
f 12/25/11 2/30/11 10/26/11
f 2/30/11 12/25/11 11/31/11
f 13/18/13 22/32/13 7/19/13
f 23/33/14 22/32/14 13/18/14
f 14/8/15 23/34/15 13/2/15
f 25/29/15 23/34/15 14/8/15
f 4/7/16 25/29/16 14/8/16
f 17/35/17 2/36/17 15/37/17
f 15/37/18 2/36/18 11/38/18
f 19/39/19 17/40/19 24/12/19
f 22/11/20 19/39/20 24/12/20
f 19/39/21 10/41/21 17/40/21
f 17/35/17 10/42/17 2/36/17
f 12/43/22 19/39/22 18/44/22
f 18/45/23 11/46/23 12/47/23
f 19/39/22 12/43/22 5/48/22
f 19/39/21 5/48/21 10/41/21
f 15/37/18 11/38/18 20/49/18
f 11/46/23 18/45/23 20/50/23
f 17/35/24 15/37/24 21/28/24
f 24/12/19 17/40/19 21/14/19
f 18/44/20 19/39/20 22/11/20
f 23/33/25 18/45/25 22/32/25
f 20/50/25 18/45/25 23/33/25
f 25/29/26 20/49/26 23/34/26
f 7/13/27 24/12/27 16/4/27
f 24/12/28 21/14/28 16/4/28
f 15/37/26 20/49/26 25/29/26
f 21/28/24 15/37/24 25/29/24
