# Blender v2.75 (sub 0) OBJ File: 'Empty.blend'
# www.blender.org
mtllib ITMI_STUFF_GEARWHEEL_01.mtl
o ITMI_STUFF_GEARWHEEL_01
v 0.133007 0.018102 0.133059
v -0.130622 -0.018102 -0.133059
v -0.131866 0.018102 0.131814
v 0.188486 -0.018102 0.000880
v 0.002073 -0.018102 -0.187294
v 0.134252 -0.018102 -0.131814
v 0.000313 0.018102 0.187294
v -0.186101 0.018102 -0.000880
v 0.049084 0.024738 0.119241
v 0.049398 -0.026087 0.118823
v 0.049192 0.026696 -0.118773
v 0.049506 -0.024129 -0.119191
v 0.118829 0.025743 0.049563
v 0.119144 -0.025083 0.049145
v -0.118874 -0.026553 0.049026
v -0.119188 0.024272 0.049443
v 0.119188 -0.024272 -0.049443
v 0.118874 0.026553 -0.049026
v -0.049084 -0.024739 -0.119241
v -0.049398 0.026087 -0.118823
v -0.049506 0.024129 0.119191
v -0.049192 -0.026696 0.118773
v -0.119144 0.025083 -0.049145
v -0.118829 -0.025743 -0.049563
v 0.133007 -0.018102 0.133059
v 0.134252 0.018102 -0.131814
v 0.188486 0.018102 0.000880
v -0.131866 -0.018102 0.131814
v -0.130622 0.018102 -0.133059
v 0.000313 -0.018102 0.187294
v -0.186101 -0.018102 -0.000880
v 0.002073 0.018102 -0.187294
vt 0.145592 -0.470056
vt 0.453178 -0.152607
vt 0.349294 -0.028535
vt 0.453062 -0.151600
vt 0.043566 -0.337731
vt 0.349178 -0.027528
vt 0.440138 -0.327716
vt 0.440138 -0.182333
vt 0.494059 -0.246853
vt 0.158002 -0.022527
vt 0.048754 -0.146773
vt 0.043681 -0.338738
vt 0.158117 -0.023534
vt 0.048869 -0.147779
vt 0.374626 -0.786557
vt 0.483910 -0.786557
vt 0.483910 -0.655472
vt 0.336653 -0.474051
vt 0.145476 -0.469050
vt 0.336769 -0.475057
vt 0.447990 -0.343565
vt 0.447874 -0.342559
vt 0.374626 -0.655472
vt 0.266519 -0.655472
vt 0.266519 -0.786557
vn -0.006200 0.999900 0.008200
vn 0.006200 -0.999900 -0.008200
vn 0.094500 -0.995500 -0.008100
vn 0.114700 0.993400 0.008200
vn 0.587000 0.010300 -0.809500
vn -0.006100 0.992700 -0.120300
vn -0.006200 0.995700 0.092700
vn 0.006100 -0.992700 0.120100
vn 0.812700 0.000200 0.582600
vn -0.163200 -0.009100 0.986600
vn -0.147800 0.007200 -0.989000
vn 0.006200 -0.995700 -0.092400
vn 0.823400 0.009800 -0.567400
vn 0.572600 -0.003200 0.819800
vn 0.065500 0.994600 0.079900
vn 0.083200 -0.994100 0.069000
vn 0.986500 0.007400 -0.163600
vn -0.596900 -0.010300 0.802300
vn -0.988300 -0.004900 -0.152500
vn -0.807500 -0.009800 0.589800
vn 0.061400 -0.996100 -0.063400
vn 0.087200 0.992500 -0.085100
vn 0.983300 0.004600 0.182200
vn -0.799300 -0.000000 -0.600900
vn -0.067100 -0.994400 -0.081500
vn -0.085300 0.993800 -0.071000
vn 0.171800 0.009200 -0.985100
vn -0.062900 0.995900 0.064900
vn -0.089400 -0.992200 0.087300
vn 0.155100 -0.007200 0.987900
vn -0.990200 -0.007300 0.139200
vn -0.097900 0.995200 0.008100
vn -0.118700 -0.992900 -0.008200
vn -0.585000 0.003100 -0.811100
vn -0.167900 0.000000 0.985800
vn 0.985900 0.000000 -0.167400
vn 0.983700 0.000000 0.179900
vn -0.151500 0.000000 -0.988500
vn 0.571300 0.000000 0.820800
vn 0.582700 0.000000 -0.812700
vn -0.987900 0.000000 -0.155000
vn 0.151500 0.000000 0.988500
vn 0.167100 0.000000 -0.985900
vn -0.990800 0.000000 0.135500
vn -0.810600 0.000000 0.585600
vn 0.812800 0.000000 0.582500
vn -0.586300 0.000000 -0.810100
vn -0.601100 0.000000 0.799200
vn 0.820600 0.000000 -0.571500
usemtl ITMIGEARWHEEL_1
s off
f 16/1/1 13/2/1 18/3/1
f 14/4/2 24/5/2 17/6/2
f 14/7/3 17/8/3 4/9/3
f 27/9/4 18/8/4 13/7/4
f 12/10/2 24/5/2 19/11/2
f 23/12/1 11/13/1 20/14/1
f 4/15/5 17/16/5 18/17/5
f 32/9/6 20/8/6 11/7/6
f 7/9/7 9/8/7 21/7/7
f 22/7/8 10/8/8 30/9/8
f 16/1/1 18/3/1 23/12/1
f 22/18/2 15/19/2 14/4/2
f 21/20/1 9/21/1 13/2/1
f 30/15/9 10/16/9 9/17/9
f 22/18/2 14/4/2 10/22/2
f 1/23/10 9/24/10 10/25/10
f 23/12/1 18/3/1 11/13/1
f 6/15/11 12/16/11 11/17/11
f 12/7/12 19/8/12 5/9/12
f 32/23/13 11/24/13 12/25/13
f 27/23/14 13/24/14 14/25/14
f 1/9/15 13/8/15 9/7/15
f 10/7/16 14/8/16 25/9/16
f 25/15/17 14/16/17 13/17/17
f 14/4/2 15/19/2 24/5/2
f 31/15/18 15/16/18 16/17/18
f 3/23/19 16/24/19 15/25/19
f 7/23/20 21/24/20 22/25/20
f 17/6/2 24/5/2 12/10/2
f 17/7/21 12/8/21 6/9/21
f 26/9/22 11/8/22 18/7/22
f 26/23/23 18/24/23 17/25/23
f 5/15/24 19/16/24 20/17/24
f 19/7/25 24/8/25 2/9/25
f 29/9/26 23/8/26 20/7/26
f 29/23/27 20/24/27 19/25/27
f 21/20/1 13/2/1 16/1/1
f 3/9/28 21/8/28 16/7/28
f 15/7/29 22/8/29 28/9/29
f 28/15/30 22/16/30 21/17/30
f 2/15/31 24/16/31 23/17/31
f 8/9/32 16/8/32 23/7/32
f 24/7/33 15/8/33 31/9/33
f 8/23/34 23/24/34 24/25/34
f 10/25/35 25/15/35 1/23/35
f 13/17/36 1/23/36 25/15/36
f 17/25/37 6/15/37 26/23/37
f 11/17/38 26/23/38 6/15/38
f 14/25/39 4/15/39 27/23/39
f 18/17/40 27/23/40 4/15/40
f 15/25/41 28/15/41 3/23/41
f 21/17/42 3/23/42 28/15/42
f 19/25/43 2/15/43 29/23/43
f 23/17/44 29/23/44 2/15/44
f 22/25/45 30/15/45 7/23/45
f 9/17/46 7/23/46 30/15/46
f 24/25/47 31/15/47 8/23/47
f 16/17/48 8/23/48 31/15/48
f 12/25/49 5/15/49 32/23/49
f 20/17/24 32/23/24 5/15/24
