# Blender v2.75 (sub 0) OBJ File: 'Empty.blend'
# www.blender.org
mtllib ITMI_TELEPORTSTONE_01.mtl
o ITMI_TELEPORTSTONE_01
v 0.010894 0.204257 0.007307
v -0.031391 0.027387 -0.041483
v 0.031143 0.028188 0.024976
v 0.053309 0.126244 -0.044336
v 0.000544 0.023488 -0.070131
v 0.059092 0.025643 -0.000680
v 0.042964 0.136552 0.058785
v 0.004816 0.021307 0.059103
v 0.032282 0.151195 0.032205
v -0.040461 0.104591 0.030380
v -0.010796 0.084111 0.047955
v -0.012992 0.102130 -0.010247
v -0.060263 0.028211 -0.006020
v 0.006290 0.018482 -0.007863
v 0.053346 0.026764 -0.053482
v -0.021659 0.026715 0.011319
v -0.013519 0.093202 -0.059254
v -0.056951 0.081562 -0.067118
v -0.047986 0.021736 0.046782
v 0.021411 0.016127 -0.027826
v 0.037954 -0.001554 0.032788
v -0.032300 -0.001554 -0.039855
v 0.028392 -0.001554 -0.027903
v 0.027176 0.095412 -0.011590
v 0.063771 0.098757 0.067597
v 0.065042 0.106592 0.029041
v -0.010952 0.154806 0.035128
v 0.066619 0.090543 -0.013251
v 0.023356 0.115312 0.019974
v -0.052258 0.030559 -0.058821
v -0.041793 0.108371 -0.041091
v -0.017640 0.091416 0.009724
v -0.022738 -0.001554 0.020836
v -0.051888 0.066137 0.048974
v -0.054340 0.079699 0.006875
v 0.015530 0.100745 0.064252
v -0.054332 0.081438 -0.022043
v -0.016703 0.164267 -0.013506
v 0.063141 0.068511 -0.055787
v 0.026463 0.158016 -0.014226
v 0.019112 0.078035 -0.059952
v 0.051778 0.026713 0.047370
vt 0.760784 -0.231373
vt 0.866667 -0.231373
vt 0.866667 -0.019608
vt 0.811765 -0.058824
vt 0.760784 -0.019608
vn -0.248600 -0.054500 0.967100
vn 0.279600 0.163400 -0.946100
vn 0.138000 0.215200 -0.966800
vn -0.957900 0.265400 0.109700
vn -0.990400 0.135400 -0.027500
vn 0.238400 -0.758200 -0.606900
vn 0.980100 -0.127900 0.152000
vn 0.975300 0.208200 -0.073300
vn 0.050700 -0.186600 0.981100
vn 0.992200 -0.001900 -0.124600
vn 0.950700 0.310000 0.007900
vn -0.662800 -0.741400 0.104400
vn 0.044600 -0.045300 0.998000
vn 0.967200 0.217100 -0.131700
vn 0.032900 0.036100 0.998800
vn -0.987000 0.065800 -0.146700
vn 0.008500 0.242000 -0.970200
vn -0.972100 -0.096000 0.214200
vn 0.046500 0.035700 0.998300
vn 0.095500 0.259400 -0.961000
vn 0.727000 -0.680200 -0.093600
vn 0.962700 0.200100 -0.182400
vn -0.982200 0.048300 0.181600
vn 0.973500 0.223000 -0.051100
vn -0.399300 0.304800 0.864700
vn 0.128900 0.178200 -0.975500
vn 0.379000 0.909700 -0.169800
vn -0.224800 0.115900 0.967500
vn 0.000000 -1.000000 -0.000000
vn 0.984000 -0.018000 -0.177200
vn -0.111800 -0.815600 0.567700
vn 0.263600 -0.301200 0.916400
vn 0.110200 -0.821300 -0.559800
vn -0.228700 -0.176800 -0.957300
vn 0.694700 -0.711000 -0.109400
vn 0.114100 0.676200 0.727800
vn -0.800600 0.593800 -0.079900
vn -0.071300 -0.054900 0.995900
vn 0.986500 -0.164000 -0.000800
vn 0.264200 0.315200 -0.911500
vn 0.855500 0.501300 0.130100
vn -0.988100 0.079000 0.132200
vn 0.097800 0.454800 0.885200
vn -0.159200 0.205500 0.965600
vn 0.992700 -0.118900 -0.019600
vn -0.973700 0.202000 -0.105600
vn 0.285000 0.772900 -0.567000
vn -0.243500 -0.601000 -0.761300
vn -0.798800 -0.583300 -0.147100
vn -0.065000 0.713800 -0.697300
vn -0.995000 -0.082200 0.057600
vn 0.000600 0.234600 -0.972100
vn 0.541300 0.838400 0.063300
vn -0.142100 -0.801400 0.581100
vn -0.645000 -0.762100 0.056500
vn -0.991900 0.092200 0.087500
vn -0.185000 0.471800 0.862100
vn -0.180500 0.726600 -0.662900
vn -0.919900 0.354500 0.167800
vn -0.059800 0.195300 0.978900
vn -0.787600 0.613000 0.062400
vn -0.489900 0.643800 0.587700
vn -0.890400 0.452000 0.053000
vn -0.002800 0.095500 -0.995400
vn -0.851800 0.486200 0.195300
vn 0.966300 -0.232800 -0.110100
vn 0.078200 -0.073300 -0.994200
vn 0.935900 0.346000 -0.066400
vn 0.048000 0.434900 -0.899200
vn 0.295500 0.077100 -0.952200
vn -0.948200 0.314400 0.045100
vn 0.262000 -0.540500 0.799500
vn 0.858500 -0.492900 0.141600
usemtl WEAPONS
s off
f 16/1/1 3/2/1 9/3/1
f 20/1/2 2/2/2 38/3/2
f 39/1/3 41/2/3 4/4/3
f 5/1/4 14/2/4 24/3/4
f 14/1/5 8/2/5 36/3/5
f 5/3/6 15/5/6 23/1/6
f 42/1/7 6/2/7 26/3/7
f 14/1/8 5/2/8 17/3/8
f 9/3/9 27/5/9 16/1/9
f 40/3/10 9/5/10 3/1/10
f 8/1/11 14/2/11 32/3/11
f 22/1/12 33/2/12 13/3/12
f 11/3/13 34/5/13 19/1/13
f 32/3/14 11/5/14 8/1/14
f 13/1/15 14/2/15 12/3/15
f 30/1/16 13/2/16 37/3/16
f 14/1/17 13/2/17 35/3/17
f 13/1/18 19/2/18 34/3/18
f 28/3/19 24/5/19 14/1/19
f 6/1/20 14/2/20 29/3/20
f 15/3/21 6/5/21 21/1/21
f 28/1/22 39/2/22 4/4/22
f 2/1/23 16/2/23 27/3/23
f 17/3/24 12/5/24 14/1/24
f 12/3/25 37/5/25 13/1/25
f 18/3/26 17/5/26 5/1/26
f 12/1/27 17/2/27 31/4/27
f 19/1/28 8/2/28 11/3/28
f 33/1/29 22/2/29 23/3/29
f 3/1/30 20/2/30 40/3/30
f 21/2/31 8/5/31 33/1/31
f 8/1/32 42/2/32 25/3/32
f 22/2/33 5/5/33 23/1/33
f 5/1/34 30/2/34 18/3/34
f 23/3/29 21/5/29 33/1/29
f 21/1/35 23/2/35 15/3/35
f 24/1/36 28/2/36 4/4/36
f 41/1/37 24/2/37 4/4/37
f 25/3/38 36/5/38 8/1/38
f 26/3/39 25/5/39 42/1/39
f 29/3/40 26/5/40 6/1/40
f 25/1/41 26/2/41 7/4/41
f 27/3/42 38/5/42 2/1/42
f 27/1/43 9/2/43 1/4/43
f 14/1/44 6/2/44 28/3/44
f 39/3/45 28/5/45 6/1/45
f 36/3/46 29/5/46 14/1/46
f 26/1/47 29/2/47 7/4/47
f 5/5/48 22/2/48 30/3/48
f 13/3/49 30/5/49 22/1/49
f 17/1/50 18/2/50 31/4/50
f 37/3/51 18/5/51 30/1/51
f 35/3/52 32/5/52 14/1/52
f 11/1/53 32/2/53 10/4/53
f 8/3/54 19/5/54 33/1/54
f 19/3/55 13/5/55 33/1/55
f 34/3/56 35/5/56 13/1/56
f 34/1/57 11/2/57 10/4/57
f 32/1/58 35/2/58 10/4/58
f 35/1/59 34/2/59 10/4/59
f 36/1/60 25/2/60 7/4/60
f 29/1/61 36/2/61 7/4/61
f 37/1/62 12/2/62 31/4/62
f 18/1/63 37/2/63 31/4/63
f 38/3/64 40/5/64 20/1/64
f 38/1/65 27/2/65 1/4/65
f 6/1/66 15/2/66 39/3/66
f 41/3/67 39/5/67 15/1/67
f 9/1/68 40/2/68 1/4/68
f 40/1/69 38/2/69 1/4/69
f 15/1/70 5/2/70 41/3/70
f 24/3/71 41/5/71 5/1/71
f 8/5/72 21/2/72 42/3/72
f 6/3/73 42/5/73 21/1/73
