# Blender v2.75 (sub 0) OBJ File: 'Empty.blend'
# www.blender.org
mtllib ITMI_BAGPIPE_YELLOW_01.mtl
o ITMI_BAGPIPE_YELLOW_01
v 0.355112 0.074601 -0.094526
v -0.362274 0.127857 -0.017274
v 0.217774 0.160416 0.135952
v 0.208374 0.599142 -0.519803
v 0.292325 0.477975 -0.395396
v 0.362274 0.599142 -0.519803
v 0.236177 0.101586 0.071294
v 0.285741 0.255347 0.035536
v 0.344981 0.300847 0.040281
v 0.058750 0.227973 0.567093
v 0.123333 0.096732 0.224672
v 0.109790 0.271617 0.554375
v 0.223334 -0.260396 0.117481
v 0.212004 0.029788 0.096958
v 0.164142 -0.260396 0.083307
v 0.276573 0.149090 -0.135980
v 0.268021 0.400682 -0.302775
v 0.268021 0.360574 -0.347320
v 0.276573 0.386384 -0.308848
v 0.251195 0.475294 -0.410257
v 0.302388 0.455517 -0.432222
v 0.104034 0.052313 0.178259
v -0.203556 0.004737 -0.037576
v 0.183873 -0.260396 0.117481
v 0.323799 0.643733 -0.470279
v 0.223334 -0.260396 0.049132
v 0.046076 0.286950 0.534958
v 0.294075 0.169375 -0.113452
v 0.246849 0.554550 -0.569326
v 0.195202 0.029788 0.067856
v -0.267640 0.127857 -0.249444
v 0.146406 0.193526 -0.122425
v 0.041148 0.209016 -0.047016
v 0.233657 0.101979 -0.121328
v 0.297654 0.136218 -0.154049
v 0.217774 0.010296 0.135952
v 0.127511 0.123304 0.246532
v 0.272843 0.569402 -0.465508
v 0.319931 0.380628 -0.325047
v 0.225722 0.112041 0.096903
v 0.302388 0.495071 -0.388293
v 0.133233 0.072480 0.234573
v -0.213910 0.209016 -0.108054
v -0.031748 -0.001765 0.048207
v 0.227409 0.031190 -0.108005
v 0.139815 0.133254 0.106694
v 0.325225 0.161610 -0.125848
v 0.149530 0.085356 0.263125
v 0.127511 0.047408 0.246532
v 0.310287 0.554936 -0.481574
v 0.323799 0.554550 -0.569326
v -0.176342 0.076425 0.138821
v 0.246849 0.643733 -0.470279
v 0.139815 0.008906 0.106694
v 0.224071 0.063007 -0.114481
v 0.013408 0.069923 0.139800
v 0.104034 0.089847 0.178259
v 0.097001 0.237410 0.569326
v 0.183873 -0.260396 0.049132
v 0.243065 -0.260396 0.083307
v 0.340293 0.305535 0.051764
v 0.299319 0.241769 0.046622
v 0.236177 0.101586 0.096903
v 0.276573 0.169375 -0.113452
v 0.294075 0.149090 -0.135980
v 0.294075 0.366100 -0.331376
v 0.294075 0.386384 -0.308848
v 0.302627 0.400682 -0.302775
v 0.250717 0.380628 -0.325047
v 0.302627 0.360574 -0.347319
v 0.276573 0.366100 -0.331376
v 0.268260 0.495071 -0.388293
v 0.319453 0.475294 -0.410257
v 0.268260 0.455517 -0.432222
v 0.212004 0.029788 0.067856
v 0.195202 0.029788 0.096958
v 0.099775 0.085132 0.227577
v 0.267594 0.085356 0.158134
v 0.073063 0.229521 0.522671
v 0.033287 0.252743 0.549909
v 0.297654 0.187003 -0.097647
v 0.217873 0.117199 -0.050665
v 0.312310 0.170240 -0.057464
v -0.047068 0.143354 -0.231872
v 0.093759 0.247218 0.517514
v 0.084327 0.296387 0.537191
v 0.278323 0.461747 -0.413418
v 0.278323 0.477975 -0.395396
v 0.225722 0.112041 0.071294
v 0.292325 0.461747 -0.413418
v 0.297805 0.569402 -0.465508
v 0.297805 0.540470 -0.497640
v 0.260361 0.554936 -0.481574
v 0.272843 0.540470 -0.497640
v 0.184401 -0.230444 0.082407
v 0.281215 0.259873 0.046622
v 0.123333 0.072480 0.224672
v 0.133233 0.096732 0.234573
v 0.222806 -0.230444 0.082407
v 0.194002 -0.230444 0.065777
v 0.194002 -0.230444 0.099037
v 0.062737 0.239565 0.515703
v 0.083434 0.257263 0.510546
v 0.340293 0.305535 0.040281
v 0.294793 0.246295 0.057708
v 0.344981 0.300847 0.051764
v 0.088574 0.233347 0.523577
v 0.213205 -0.230444 0.099037
v 0.196298 0.085356 0.245483
v 0.067923 0.253436 0.509640
v 0.213205 -0.230444 0.065777
v 0.294793 0.246295 0.035536
v 0.285741 0.255347 0.057708
vt 0.336749 -0.737183
vt 0.398358 -0.482012
vt 0.275565 -0.438456
vt 0.485452 -0.616652
vt 0.485502 -0.806138
vt 0.335979 -0.741369
vt 0.846721 -0.099222
vt 0.846794 -0.293280
vt 0.870742 -0.099222
vt 0.921482 -0.000500
vt 0.896382 -0.000500
vt 0.920897 -0.099222
vt 0.806252 -0.996115
vt 0.801441 -0.392982
vt 0.763098 -0.394025
vt 0.874981 -0.996115
vt 0.879234 -0.392982
vt 0.840059 -0.392460
vt 0.754271 -0.993341
vt 0.991156 -0.099311
vt 0.957205 -0.098976
vt 0.918318 -0.098808
vt 0.877741 -0.098976
vt 0.892897 -0.993048
vt 0.689893 -0.003002
vt 0.689965 -0.545996
vt 0.711595 -0.545996
vt 0.711667 -0.003002
vt 0.732704 -0.545996
vt 0.870787 -0.999500
vt 0.895356 -0.495039
vt 0.870787 -0.495039
vt 0.947116 -0.495039
vt 0.920949 -0.495039
vt 0.920949 -0.999500
vt 0.870787 -0.506126
vt 0.895356 -0.279845
vt 0.870787 -0.279845
vt 0.920949 -0.506126
vt 0.920949 -0.279845
vt 0.160506 -0.926929
vt 0.383069 -0.897911
vt 0.591195 -0.865431
vt 0.550824 -0.842783
vt 0.601148 -0.616652
vt 0.690447 -0.629705
vt 0.628448 -0.629705
vt 0.711113 -0.629705
vt 0.821081 -0.000500
vt 0.846181 -0.000500
vt 0.795980 -0.000500
vt 0.947168 -0.099222
vt 0.648610 -0.003002
vt 0.648670 -0.545996
vt 0.668857 -0.545996
vt 0.669781 -0.629705
vt 0.649114 -0.629705
vt 0.876042 -0.000855
vt 0.957051 -0.000855
vt 0.754613 -0.001682
vt 0.835368 -0.099311
vt 0.796513 -0.999500
vt 0.846676 -0.999500
vt 0.822107 -0.495039
vt 0.770880 -0.000500
vt 0.871282 -0.000500
vt 0.895260 -0.099222
vt 0.752951 -0.003002
vt -0.000660 -0.694866
vt 0.076026 -0.457812
vt 0.127956 -0.674136
vt 0.130063 -0.674861
vt 0.556956 -0.616652
vt 0.498243 -0.560244
vt 0.547185 -0.576360
vt 0.609684 -0.339732
vt 0.517109 -0.426622
vt 0.104078 -0.426622
vt 0.011503 -0.339732
vt 0.920810 -0.293280
vt 0.870668 -0.293280
vt 0.846676 -0.495039
vt 0.957866 -0.394547
vt 0.913134 -0.997320
vt 1.001485 -0.997320
vt 0.846676 -0.506126
vt 0.846676 -0.279845
vt 0.822107 -0.279845
vt 0.792932 -0.099479
vt 0.852181 -0.993341
vt 0.960134 -0.993048
vt 0.569527 -0.576360
vt 0.310593 -0.110974
vt 0.311424 -0.431970
vt 0.310593 -0.331721
vt 0.971683 -0.000500
vt 0.946583 -0.000500
vt 0.794784 -0.002096
vt 0.835539 -0.001682
vt 0.628892 -0.545996
vt 0.731780 -0.629705
vt 0.793417 0.001796
vt 0.884559 0.001796
vt 0.918691 -0.394025
vt 0.759457 0.001256
vt 0.926804 0.001256
vt 0.947116 -0.506126
vt 0.947116 -0.279845
vt 0.796513 -0.279845
vt 0.995156 -0.001682
vt 0.916546 -0.000441
vt 0.972805 -0.099222
vt 0.947255 -0.293280
vt 0.994434 0.001256
vn -0.076000 0.950500 -0.301300
vn 0.125500 -0.973700 -0.190400
vn 0.000000 -0.730600 -0.682900
vn -0.682700 -0.193500 0.704600
vn -0.170700 -0.170700 -0.970400
vn -0.749200 0.447400 0.488500
vn 0.179900 -0.847400 0.499500
vn -0.929200 0.216400 -0.299700
vn -0.000000 0.008000 1.000000
vn 0.866000 0.008000 0.500000
vn -0.864900 -0.371900 -0.337100
vn 0.000000 0.633400 0.773800
vn -0.860800 -0.413900 -0.296100
vn -0.861300 0.255200 0.439300
vn 0.024300 0.800100 0.599300
vn 0.756800 -0.587200 0.287100
vn -0.029900 -0.779900 0.625200
vn 0.447000 -0.784000 -0.430700
vn -0.000000 0.524400 0.851500
vn 0.000000 -1.000000 0.000000
vn -0.000000 0.743100 -0.669100
vn 0.000000 0.064100 0.997900
vn -0.866000 0.008000 -0.500000
vn -0.161300 0.445200 0.880800
vn -0.179700 0.846800 -0.500600
vn 0.996300 -0.064100 0.057700
vn -0.996300 -0.064100 0.057700
vn -0.689300 -0.716200 0.109300
vn -0.999100 0.041500 0.000000
vn 0.999100 0.041500 0.000000
vn -0.613200 -0.749300 -0.250000
vn 0.088700 0.924500 -0.370700
vn -0.449900 -0.318500 -0.834300
vn 0.871800 0.220700 0.437300
vn -0.252700 0.793700 0.553400
vn 0.458900 0.877700 0.138100
vn -0.134000 -0.139400 -0.981100
vn 0.423700 0.798600 0.427400
vn -0.432500 -0.051700 -0.900100
vn -0.481200 0.815400 -0.321900
vn -0.331000 -0.942500 0.046100
vn -0.179500 -0.729800 0.659700
vn -0.568600 0.798900 -0.196000
vn 0.773600 0.585300 0.243000
vn 0.000000 0.608500 0.793500
vn -0.863000 -0.395900 -0.313900
vn 0.864900 -0.371900 -0.337100
vn -0.936200 0.351400 0.000000
vn 0.911800 -0.410700 0.000000
vn 0.860800 -0.413900 -0.296100
vn 0.990400 0.000000 0.138200
vn -0.979000 0.000000 -0.203800
vn -0.115700 0.867600 0.483600
vn -0.572700 0.785800 -0.233400
vn 0.196700 -0.866100 -0.459500
vn -0.231700 -0.888200 0.396700
vn 0.265300 -0.530400 -0.805200
vn 0.327500 -0.942400 -0.067800
vn -0.414700 0.855000 0.311300
vn -0.295200 0.950600 -0.096000
vn 0.717100 -0.004600 -0.697000
vn -0.594700 0.597500 -0.537900
vn 0.403600 0.715900 0.569700
vn -0.835800 -0.487700 0.252400
vn 0.403600 -0.715900 0.569700
vn -0.581200 -0.018500 0.813600
vn 0.689300 -0.716200 0.109300
vn 0.682700 -0.193500 0.704600
vn 0.000000 -0.981300 -0.192700
vn -0.171200 0.856900 0.486300
vn -0.533500 -0.751700 0.387800
vn -0.155000 -0.877100 0.454600
vn 0.049000 -0.995300 -0.083300
vn -0.283400 -0.219700 -0.933500
vn -0.905400 -0.173800 -0.387400
vn -0.324900 -0.871900 0.366400
vn -0.342300 0.869400 0.356200
vn -0.390700 -0.000000 0.920500
vn -0.996300 -0.000000 -0.086000
vn 0.934200 -0.230200 0.272500
vn 0.000000 0.008000 -1.000000
vn 0.866000 0.008000 -0.500000
vn -0.611500 0.791200 0.000000
vn 0.864800 -0.229300 0.446700
vn 0.791200 -0.611500 0.000000
vn 0.761700 -0.428600 -0.485900
vn 0.186000 0.186000 0.964800
vn 0.000000 -0.706900 -0.707300
vn 0.982500 -0.138400 0.124600
vn -0.982500 -0.138400 0.124600
vn 0.000000 0.590100 0.807300
vn 0.865000 0.298300 0.403500
vn -0.865000 0.298300 0.403500
vn 0.000000 -0.748200 -0.663400
vn 0.861300 0.255200 0.439300
vn -0.805800 0.592000 -0.013000
vn -0.581300 0.018400 0.813500
vn 0.634300 -0.574000 0.517800
vn 0.634300 0.574000 0.517800
vn 0.237000 -0.970600 0.042500
vn -0.758100 -0.001600 -0.652100
vn -0.599800 -0.769300 -0.220100
vn 0.808300 0.424500 0.408000
vn -0.721700 0.625700 -0.296000
vn 0.723700 0.689900 0.013100
vn -0.405000 0.781900 0.473900
vn 0.883700 0.448000 -0.135400
vn -0.022000 0.870700 -0.491400
vn 0.101100 -0.846600 -0.522600
vn 0.908200 -0.397200 -0.132000
vn 0.738800 0.367700 -0.564700
vn -0.090700 0.562000 -0.822200
vn -0.988000 -0.114800 0.103400
vn 0.988000 -0.114800 0.103400
vn 0.863200 0.273600 0.424300
vn 0.863000 -0.395900 -0.313900
vn -0.863200 0.273600 0.424300
vn -0.752100 0.495700 -0.434200
vn -0.742300 0.515000 0.428600
vn -0.857800 0.246700 -0.450900
vn -0.562900 0.659000 -0.498800
vn -0.380200 -0.843200 0.380200
vn 0.404300 0.820400 -0.404300
vn 0.752100 0.495700 -0.434200
vn 0.742300 0.515000 0.428600
vn -0.000000 0.485800 -0.874100
vn -0.866000 0.008000 0.500000
vn -0.750000 -0.628900 0.204900
vn 0.753000 0.618700 -0.224000
vn 0.045200 0.045200 -0.998000
vn 0.707100 0.707100 0.000000
vn 0.664300 -0.556900 0.498600
vn 0.056600 0.056600 0.996800
vn 0.742400 0.515000 0.428600
vn 0.300800 0.523200 0.797400
vn 0.300800 -0.523200 0.797400
vn -0.090600 0.562000 -0.822200
vn 0.659000 -0.562900 -0.498800
vn -0.556900 0.664300 0.498600
usemtl YELLOWPIPE
s off
f 33/1/1 32/2/1 84/3/1
f 55/4/2 54/5/2 44/6/2
f 92/7/3 90/8/3 94/9/3
f 53/10/4 4/11/4 38/12/4
f 89/13/5 8/14/5 112/15/5
f 40/16/6 113/17/6 96/18/6
f 42/19/7 107/20/7 79/21/7
f 102/22/8 110/23/8 11/24/8
f 76/25/9 101/26/9 108/27/9
f 14/28/10 108/27/10 99/29/10
f 16/30/11 69/31/11 18/32/11
f 68/33/12 17/34/12 64/35/12
f 71/36/13 20/37/13 74/38/13
f 19/39/14 72/40/14 20/37/14
f 52/41/15 56/42/15 33/1/15
f 78/43/16 36/44/16 1/45/16
f 44/6/17 56/42/17 52/41/17
f 84/3/18 32/2/18 44/6/18
f 108/27/19 101/26/19 24/46/19
f 26/47/20 13/48/20 24/46/20
f 6/49/21 51/50/21 25/51/21
f 38/12/22 91/52/22 53/10/22
f 30/53/23 100/54/23 95/55/23
f 24/46/20 15/56/20 59/57/20
f 27/58/24 10/59/24 58/60/24
f 11/24/25 110/23/25 103/61/25
f 28/62/26 65/63/26 39/64/26
f 16/30/27 64/35/27 69/31/27
f 4/11/21 53/65/21 29/66/21
f 93/67/28 4/11/28 94/9/28
f 95/55/29 76/25/29 30/53/29
f 99/29/30 75/68/30 14/28/30
f 2/69/31 31/70/31 23/71/31
f 84/3/32 43/72/32 33/1/32
f 44/6/33 32/2/33 55/4/33
f 1/45/34 83/73/34 3/44/34
f 33/1/35 56/42/35 46/5/35
f 33/1/36 46/5/36 82/4/36
f 34/74/37 55/4/37 32/2/37
f 32/2/38 33/1/38 82/4/38
f 35/75/39 55/4/39 34/74/39
f 83/73/40 82/4/40 46/5/40
f 49/76/41 22/77/41 36/44/41
f 56/42/42 44/6/42 54/5/42
f 57/78/43 37/79/43 3/44/43
f 3/44/44 78/43/44 1/45/44
f 38/12/45 88/80/45 91/52/45
f 94/9/46 87/81/46 93/67/46
f 70/82/21 69/31/21 39/64/21
f 65/63/47 70/82/47 39/64/47
f 96/18/48 89/13/48 40/16/48
f 62/83/49 63/84/49 7/85/49
f 66/86/50 21/87/50 73/88/50
f 72/40/21 74/38/21 20/37/21
f 85/89/51 42/19/51 98/90/51
f 102/22/52 11/24/52 97/91/52
f 33/1/53 43/72/53 52/41/53
f 31/70/54 2/69/54 43/72/54
f 44/6/55 23/71/55 84/3/55
f 52/41/56 23/71/56 44/6/56
f 1/45/57 45/73/57 35/75/57
f 36/44/58 45/73/58 1/45/58
f 46/5/59 57/78/59 3/44/59
f 46/5/60 3/44/60 83/73/60
f 35/75/61 47/92/61 1/45/61
f 35/75/62 34/74/62 81/75/62
f 37/79/63 109/93/63 3/44/63
f 77/94/64 22/77/64 49/76/64
f 109/93/65 49/76/65 36/44/65
f 77/94/66 49/76/66 48/95/66
f 92/7/67 51/50/67 6/96/67
f 91/52/68 6/96/68 25/97/68
f 92/7/69 94/9/69 51/50/69
f 29/66/21 53/65/21 51/50/21
f 2/69/70 52/41/70 43/72/70
f 23/71/71 52/41/71 2/69/71
f 25/97/22 53/10/22 91/52/22
f 25/51/21 51/50/21 53/65/21
f 22/77/72 54/5/72 36/44/72
f 36/44/73 54/5/73 45/73/73
f 45/73/74 55/4/74 35/75/74
f 54/5/75 55/4/75 45/73/75
f 54/5/76 22/77/76 56/42/76
f 46/5/77 56/42/77 57/78/77
f 56/42/78 22/77/78 57/78/78
f 77/94/79 57/78/79 22/77/79
f 58/60/24 12/98/24 86/99/24
f 85/89/80 107/20/80 42/19/80
f 24/46/20 59/57/20 26/47/20
f 75/68/81 111/100/81 100/54/81
f 26/47/20 60/101/20 13/48/20
f 99/29/82 111/100/82 75/68/82
f 104/102/83 96/18/83 61/103/83
f 62/83/84 105/104/84 63/84/84
f 9/105/85 106/106/85 62/83/85
f 7/85/86 112/15/86 62/83/86
f 113/17/87 40/16/87 63/84/87
f 64/35/12 28/62/12 68/33/12
f 65/63/88 16/30/88 18/32/88
f 67/107/89 66/86/89 73/88/89
f 71/36/90 19/39/90 20/37/90
f 19/39/91 67/107/91 41/108/91
f 39/64/21 69/31/21 68/33/21
f 39/64/92 68/33/92 28/62/92
f 17/34/21 68/33/21 69/31/21
f 64/35/93 17/34/93 69/31/93
f 18/32/21 69/31/21 70/82/21
f 18/32/88 70/82/88 65/63/88
f 66/86/94 71/36/94 74/38/94
f 41/109/21 74/38/21 72/40/21
f 41/108/91 72/40/91 19/39/91
f 73/88/21 21/87/21 41/109/21
f 67/107/95 73/88/95 41/108/95
f 21/87/21 74/38/21 41/109/21
f 74/38/94 21/87/94 66/86/94
f 100/54/81 30/53/81 75/68/81
f 108/27/9 14/28/9 76/25/9
f 37/79/96 57/78/96 77/94/96
f 37/79/97 77/94/97 48/95/97
f 36/44/98 78/43/98 109/93/98
f 109/93/99 78/43/99 3/44/99
f 58/110/100 10/59/100 79/21/100
f 110/23/101 102/22/101 80/111/101
f 80/111/102 79/21/102 10/59/102
f 27/58/24 80/111/24 10/59/24
f 47/92/103 81/75/103 1/45/103
f 81/75/21 47/92/21 35/75/21
f 34/74/104 82/4/104 81/75/104
f 32/2/105 82/4/105 34/74/105
f 81/75/106 82/4/106 83/73/106
f 81/75/107 83/73/107 1/45/107
f 43/72/108 84/3/108 31/70/108
f 31/70/109 84/3/109 23/71/109
f 107/20/110 85/89/110 12/98/110
f 12/98/111 103/61/111 86/99/111
f 27/58/112 86/99/112 103/61/112
f 58/60/24 86/99/24 27/58/24
f 88/80/113 93/67/113 87/81/113
f 90/8/114 50/112/114 5/113/114
f 5/113/45 91/52/45 88/80/45
f 112/15/5 7/85/5 89/13/5
f 87/81/3 94/9/3 90/8/3
f 91/52/115 5/113/115 50/112/115
f 50/112/68 6/96/68 91/52/68
f 92/7/116 50/112/116 90/8/116
f 50/112/67 92/7/67 6/96/67
f 38/12/117 93/67/117 88/80/117
f 93/67/4 38/12/4 4/11/4
f 29/66/69 51/50/69 94/9/69
f 94/9/28 4/11/28 29/66/28
f 15/56/118 95/55/118 100/54/118
f 15/56/119 24/46/119 101/26/119
f 96/18/120 8/14/120 89/13/120
f 8/14/121 96/18/121 104/102/121
f 79/21/122 97/91/122 42/19/122
f 103/61/123 98/90/123 11/24/123
f 111/100/124 99/29/124 60/101/124
f 60/101/125 99/29/125 108/27/125
f 26/47/126 59/57/126 100/54/126
f 15/56/118 100/54/118 59/57/118
f 95/55/127 101/26/127 76/25/127
f 101/26/119 95/55/119 15/56/119
f 97/91/128 79/21/128 102/22/128
f 80/111/102 102/22/102 79/21/102
f 98/90/129 103/61/129 85/89/129
f 12/98/111 85/89/111 103/61/111
f 112/15/130 8/14/130 104/102/130
f 106/114/131 9/105/131 104/102/131
f 63/84/87 105/104/87 113/17/87
f 105/104/132 62/83/132 106/106/132
f 113/17/133 105/104/133 106/106/133
f 104/102/131 61/103/131 106/114/131
f 58/110/110 107/20/110 12/98/110
f 79/21/100 107/20/100 58/110/100
f 24/46/19 13/48/19 108/27/19
f 60/101/134 108/27/134 13/48/134
f 48/95/135 109/93/135 37/79/135
f 49/76/136 109/93/136 48/95/136
f 80/111/101 27/58/101 110/23/101
f 103/61/137 110/23/137 27/58/137
f 26/47/124 111/100/124 60/101/124
f 100/54/126 111/100/126 26/47/126
f 112/15/138 9/105/138 62/83/138
f 104/102/130 9/105/130 112/15/130
f 113/17/139 61/103/139 96/18/139
f 106/106/133 61/103/133 113/17/133
