# Blender v2.75 (sub 0) OBJ File: 'Empty.blend'
# www.blender.org
mtllib ITMI_SLEEPERKEY_01.mtl
o ITMI_SLEEPERKEY_01
v -0.765422 0.000000 0.052684
v 0.462788 0.000000 -0.000000
v -1.532230 0.000000 -0.034117
v -0.095694 -0.025400 0.134502
v -0.457200 0.087034 0.157685
v -0.281940 -0.000000 0.099060
v -0.101777 0.000000 -0.086366
v -0.299253 0.012700 -0.141307
v -0.457200 0.000000 -0.063500
v -0.109220 -0.030480 0.083820
v -0.114300 -0.007620 0.240284
v 0.005080 -0.030480 -0.005080
v -0.599440 0.000000 -0.101600
v -0.840740 0.000000 0.000000
v -0.662940 0.000000 0.000000
v -0.599440 0.000000 0.101600
v 0.005080 0.030480 0.074676
v -0.894080 0.000000 -0.086360
v -1.120140 0.000000 0.000000
v -0.942340 0.000000 0.000000
v -0.081280 -0.040533 -0.264160
v 0.005080 0.030480 -0.074676
v -1.188720 0.000000 -0.071120
v -1.399540 0.000000 0.000000
v -1.221740 0.000000 0.000000
v -1.188720 0.000000 0.071120
v -1.767840 0.000000 0.034723
v -1.767840 0.000000 -0.034723
v -1.481430 0.000000 -0.062057
v 0.000203 -0.021946 0.000000
v -1.532230 0.000000 0.034117
v -1.481430 0.000000 0.062057
v -1.577950 -0.011786 0.000000
v -0.095694 0.025400 -0.134502
v -0.101777 0.000000 0.086366
v 0.000203 0.021946 0.000000
v -0.170180 -0.081466 -0.266700
v -0.114300 -0.024023 -0.240284
v -0.139700 0.000000 0.281940
v -0.081280 0.008890 0.264160
v 0.005080 -0.030480 0.005080
v 0.005080 -0.030480 0.074676
v 0.005080 -0.030480 -0.074676
v -0.139700 -0.081466 -0.281940
v -0.170180 0.000000 0.266700
v -1.055126 -0.015151 0.000000
v -0.960072 0.015763 0.000000
v -0.299253 0.012700 0.141307
v -0.095694 0.025400 0.134502
v -0.109220 -0.030480 -0.083820
v 0.005080 0.030480 0.005080
v -0.109220 0.030480 -0.083820
v 0.005080 0.030480 -0.005080
v -0.109220 0.030480 0.083820
v -1.577950 0.011786 0.000000
v -0.095694 -0.025400 -0.134502
v -0.299253 -0.012700 0.141307
v -0.299253 -0.012700 -0.141307
v -0.033020 0.030480 -0.170180
v -0.087691 -0.030480 0.162805
v -0.081280 -0.008890 0.264160
v -0.087691 0.030480 -0.162805
v -0.114300 0.007620 0.240284
v -0.087691 -0.030480 -0.162805
v -0.087691 0.030480 0.162805
v -0.114300 -0.039263 -0.240284
v -1.111590 0.000000 0.044302
v -0.081280 -0.022753 -0.264160
v -0.063513 -0.030480 -0.027064
v -0.063513 0.030480 -0.027064
v -0.063513 -0.030480 0.027064
v -0.063513 0.030480 0.027064
v -0.107950 -0.030480 -0.135890
v -0.107950 0.030480 -0.135890
v -0.107950 -0.030480 0.135890
v -0.107950 0.030480 0.135890
v -1.532230 -0.011786 -0.035560
v -1.532230 0.011786 -0.035560
v -1.532230 -0.011786 0.035560
v -1.532230 0.011786 0.035560
v -1.875637 0.000000 0.000000
v -0.281940 -0.000000 -0.099060
v -0.033020 -0.030480 0.170180
v -0.033020 0.030480 0.170180
v 0.057858 0.000000 0.037485
v 0.000203 0.000000 0.071222
v 0.057858 -0.000000 -0.037485
v 0.000203 0.000000 -0.071222
v 0.057858 -0.011550 0.000000
v 0.057858 0.011550 0.000000
v -0.033020 -0.030480 -0.170180
vt 0.145392 -0.089894
vt 0.131847 -0.236700
vt 0.131847 -0.483090
vt 0.110929 -0.286644
vt 0.131847 -0.212311
vt 0.131847 -0.267319
vt 0.131847 -0.312939
vt 0.172185 -0.329232
vt 0.091508 -0.329232
vt 0.131847 -0.195629
vt 0.131847 -0.241250
vt 0.166134 -0.253633
vt 0.131847 -0.123940
vt 0.131847 -0.169561
vt 0.160084 -0.178033
vt 0.103609 -0.178033
vt 0.117728 -0.089894
vt 0.118060 -0.029441
vt 0.131847 -0.001782
vt 0.145965 -0.089894
vt 0.145633 -0.029441
vt 0.156485 -0.102929
vt 0.160124 -0.483090
vt 0.103569 -0.483090
vt 0.131847 -0.078163
vt 0.107208 -0.102929
vt 0.118301 -0.089894
vt 0.114257 -0.197823
vt 0.130404 -0.472650
vt 0.115521 -0.472650
vt 0.130404 -0.368752
vt 0.145287 -0.472650
vt 0.824419 -0.980053
vt 0.868341 -0.980053
vt 0.869470 -0.957694
vt 0.260985 -0.817294
vt 0.153262 -0.834100
vt 0.143248 -0.814068
vt 0.078604 -0.836730
vt 0.040222 -0.836049
vt 0.087922 -0.813359
vt 0.037740 -0.819045
vt 0.136435 -0.812038
vt 0.257467 -0.840119
vt 0.017070 -0.840203
vt 0.140761 -0.847065
vt 0.169778 -0.823914
vt 0.016522 -0.854887
vt 0.051892 -0.850962
vt 0.106700 -0.857247
vt 0.085248 -0.848986
vt 0.869443 -0.957694
vn -0.006100 0.942600 -0.333800
vn -0.006100 -0.951600 0.307400
vn 0.000000 1.000000 0.000000
vn 0.000000 -1.000000 0.000000
vn -0.049900 -0.986700 0.154900
vn -0.049900 0.986700 0.154900
vn -0.045600 -0.877400 -0.477600
vn -0.045600 0.877400 -0.477600
vn -0.007100 -0.955600 -0.294500
vn -0.007100 -0.955600 0.294500
vn -0.006100 -0.942600 -0.333800
vn -0.045600 -0.877400 0.477600
vn -0.045600 0.877400 0.477600
vn -0.006100 0.942600 0.333800
vn -0.007600 -0.949100 0.314900
vn -0.007100 0.955600 -0.294500
vn -0.007100 0.955600 0.294500
vn -0.006100 -0.942600 0.333800
vn -0.006100 0.951600 0.307400
vn 0.462500 0.000000 -0.886600
vn 0.462500 0.000000 0.886600
vn -0.007600 0.950000 0.312200
vn -0.039500 -0.997900 -0.050800
vn 0.613900 0.000000 0.789400
vn -0.039500 0.997900 -0.050800
vn -0.039500 -0.997900 0.050800
vn 0.613900 0.000000 -0.789400
vn -0.039500 0.997900 0.050800
vn -0.049900 0.986700 -0.154900
vn -0.049900 -0.986700 -0.154900
vn 0.027200 0.955300 0.294400
vn 0.027200 -0.955300 0.294400
vn 0.169800 -0.941800 0.290200
vn 0.027200 -0.955300 -0.294400
vn 0.027200 0.955300 -0.294400
vn 0.169800 -0.941800 -0.290200
vn 0.169800 0.941800 -0.290200
vn 0.169800 0.941800 0.290200
vn -0.069600 0.947100 -0.313200
vn -0.069600 -0.947100 -0.313200
vn -0.069600 0.947100 0.313200
vn 0.033400 0.000000 -0.999400
vn -0.945800 0.000000 -0.324800
vn -0.028300 -0.977300 0.210000
vn 0.889600 0.000000 0.456800
vn -0.028300 0.977300 0.210000
vn 1.000000 0.000000 0.000000
vn 0.889600 0.000000 -0.456800
vn -0.945800 0.000000 0.324800
vn -0.032600 0.885700 0.463200
vn -0.032600 -0.885700 0.463200
vn -0.032600 0.885600 -0.463200
vn -0.032600 -0.885700 -0.463200
vn -0.463800 0.645300 -0.607100
vn -0.358100 0.817100 -0.451800
vn 0.364200 -0.756000 0.543900
vn 0.034700 -0.994300 0.100800
vn -0.117000 0.987100 0.109300
vn -0.193100 0.957100 0.216100
vn -0.117000 -0.987100 0.109300
vn -0.193100 -0.957100 0.216100
vn 0.013400 -0.994900 0.099500
vn -0.341400 0.646000 -0.682700
vn 0.293200 -0.755200 0.586300
vn -0.069200 0.987900 0.138500
vn -0.069200 -0.987900 0.138500
vn -0.177500 0.545700 0.819000
vn 0.415000 0.904100 -0.101700
vn 0.033400 0.000000 0.999400
vn 0.992100 0.000000 -0.125400
vn -0.424300 0.000000 0.905500
vn -0.063000 0.881900 -0.467200
vn -0.424300 0.000000 -0.905500
vn 0.992100 0.000000 0.125400
vn -0.512900 -0.741200 -0.433000
vn 0.103100 0.000000 0.994700
vn -0.441900 0.000000 -0.897100
vn -0.069600 -0.947100 0.313200
vn 0.928800 0.000000 -0.370500
vn -0.999700 0.000000 0.024400
vn 0.291200 0.000000 0.956700
vn -0.999700 0.000000 -0.024400
vn -0.427400 0.000000 -0.904100
vn -0.427400 0.000000 0.904100
vn 0.251100 -0.772000 0.584000
vn 0.291200 0.000000 -0.956700
vn -0.778800 0.000000 0.627200
vn -0.778800 0.000000 -0.627200
vn -0.799000 0.000000 -0.601400
vn -0.799000 0.000000 0.601400
vn 0.054200 -0.962200 0.267000
vn 0.054200 0.962200 0.267000
vn 0.928800 0.000000 0.370500
usemtl ITMELEEBLADES
s off
f 3/1/1 47/2/1 36/3/1
f 1/4/2 46/5/2 30/3/2
f 14/6/3 15/7/3 13/8/3
f 14/6/4 13/8/4 15/7/4
f 14/6/3 16/9/3 15/7/3
f 14/6/4 15/7/4 16/9/4
f 19/10/3 20/11/3 18/12/3
f 19/10/4 18/12/4 20/11/4
f 24/13/3 25/14/3 23/15/3
f 24/13/4 23/15/4 25/14/4
f 24/13/3 26/16/3 25/14/3
f 24/13/4 25/14/4 26/16/4
f 79/17/5 27/18/5 81/19/5
f 80/17/6 81/19/6 27/18/6
f 77/20/7 28/21/7 29/22/7
f 78/20/8 29/22/8 28/21/8
f 3/1/9 88/23/9 30/3/9
f 86/24/10 1/4/10 30/3/10
f 46/5/11 3/1/11 30/3/11
f 3/1/1 55/25/1 47/2/1
f 32/26/12 27/18/12 79/17/12
f 80/17/13 27/18/13 32/26/13
f 47/2/14 55/25/14 31/27/14
f 67/28/15 31/27/15 46/5/15
f 88/23/16 3/1/16 36/3/16
f 36/3/17 1/4/17 86/24/17
f 31/27/18 33/25/18 46/5/18
f 33/25/11 3/1/11 46/5/11
f 36/3/19 47/2/19 1/4/19
f 79/17/20 80/17/20 32/26/20
f 77/20/21 29/22/21 78/20/21
f 67/28/22 47/2/22 31/27/22
f 33/25/23 81/19/23 77/20/23
f 77/20/24 55/25/24 33/25/24
f 81/19/25 55/25/25 78/20/25
f 55/25/24 77/20/24 78/20/24
f 81/19/26 33/25/26 79/17/26
f 55/25/27 79/17/27 33/25/27
f 55/25/28 81/19/28 80/17/28
f 79/17/27 55/25/27 80/17/27
f 78/20/29 28/21/29 81/19/29
f 28/21/30 77/20/30 81/19/30
f 90/29/31 85/30/31 2/31/31
f 85/30/32 89/29/32 2/31/32
f 89/29/33 85/30/33 86/24/33
f 89/29/34 87/32/34 2/31/34
f 87/32/35 90/29/35 2/31/35
f 30/33/36 88/34/36 87/35/36
f 90/29/37 87/32/37 88/23/37
f 86/24/33 30/3/33 89/29/33
f 87/32/36 89/29/36 30/3/36
f 85/30/38 90/29/38 36/3/38
f 88/23/37 36/3/37 90/29/37
usemtl ITMELEEREST
f 49/36/39 6/37/39 48/38/39
f 4/36/40 57/38/40 6/37/40
f 82/37/41 34/36/41 8/38/41
f 8/38/42 56/36/42 58/38/42
f 65/39/43 60/39/43 11/40/43
f 60/39/44 83/41/44 61/42/44
f 61/42/45 83/41/45 84/41/45
f 40/42/46 84/41/46 65/39/46
f 17/43/47 43/43/47 22/43/47
f 21/42/48 59/41/48 91/41/48
f 62/39/49 66/40/49 64/39/49
f 34/36/50 82/37/50 7/44/50
f 56/36/51 7/44/51 82/37/51
f 6/37/52 49/36/52 35/44/52
f 4/36/53 6/37/53 35/44/53
f 38/40/54 68/42/54 44/45/54
f 68/42/55 38/40/55 62/39/55
f 66/40/56 44/45/56 21/42/56
f 66/40/57 21/42/57 64/39/57
f 63/40/58 39/45/58 40/42/58
f 40/42/59 65/39/59 63/40/59
f 11/40/60 61/42/60 39/45/60
f 11/40/61 60/39/61 61/42/61
f 71/46/4 12/47/4 42/43/4
f 43/43/47 17/43/47 42/43/47
f 64/39/62 21/42/62 91/41/62
f 38/40/63 44/45/63 37/48/63
f 44/45/64 66/40/64 37/48/64
f 63/40/65 45/48/65 39/45/65
f 39/45/66 45/48/66 11/40/66
f 47/2/67 46/5/67 1/4/67
f 48/38/68 6/37/68 5/49/68
f 4/36/69 48/38/69 57/38/69
f 48/38/69 4/36/69 49/36/69
f 4/36/70 35/44/70 49/36/70
f 51/47/71 69/46/71 41/47/71
f 69/46/4 43/43/4 41/47/4
f 68/42/72 62/39/72 59/41/72
f 69/46/71 51/47/71 70/46/71
f 22/43/3 70/46/3 51/47/3
f 53/47/73 12/47/73 71/46/73
f 71/46/73 72/46/73 53/47/73
f 17/43/3 53/47/3 72/46/3
f 56/36/42 8/38/42 34/36/42
f 7/44/74 56/36/74 34/36/74
f 6/37/75 57/38/75 5/49/75
f 57/38/76 48/38/76 5/49/76
f 58/38/77 9/49/77 8/38/77
f 56/36/78 82/37/78 58/38/78
f 62/39/3 22/43/3 59/41/3
f 22/43/79 91/41/79 59/41/79
f 54/50/80 10/50/80 75/51/80
f 75/51/4 10/50/4 42/43/4
f 61/42/81 40/42/81 39/45/81
f 84/41/45 40/42/45 61/42/45
f 73/51/82 52/50/82 74/51/82
f 22/43/3 74/51/3 52/50/3
f 63/40/83 11/40/83 45/48/83
f 11/40/43 63/40/43 65/39/43
f 52/50/82 73/51/82 50/50/82
f 73/51/4 43/43/4 50/50/4
f 75/51/80 76/51/80 54/50/80
f 17/43/3 54/50/3 76/51/3
f 38/40/84 37/48/84 66/40/84
f 66/40/49 62/39/49 38/40/49
f 47/2/85 67/28/85 46/5/85
f 21/42/86 44/45/86 68/42/86
f 59/41/48 21/42/48 68/42/48
f 50/50/4 43/43/4 69/46/4
f 70/46/87 50/50/87 69/46/87
f 22/43/3 52/50/3 70/46/3
f 50/50/87 70/46/87 52/50/87
f 10/50/4 71/46/4 42/43/4
f 72/46/88 71/46/88 10/50/88
f 17/43/3 72/46/3 54/50/3
f 10/50/88 54/50/88 72/46/88
f 64/39/4 43/43/4 73/51/4
f 74/51/89 64/39/89 73/51/89
f 62/39/3 74/51/3 22/43/3
f 64/39/89 74/51/89 62/39/89
f 60/39/4 75/51/4 42/43/4
f 76/51/90 75/51/90 60/39/90
f 65/39/3 17/43/3 76/51/3
f 60/39/90 65/39/90 76/51/90
f 82/37/91 9/49/91 58/38/91
f 8/38/92 9/49/92 82/37/92
f 42/43/4 83/41/4 60/39/4
f 83/41/93 42/43/93 17/43/93
f 65/39/3 84/41/3 17/43/3
f 17/43/93 84/41/93 83/41/93
f 36/33/38 86/34/38 85/52/38
f 43/43/4 64/39/4 91/41/4
f 91/41/79 22/43/79 43/43/79
