# Blender v2.75 (sub 0) OBJ File: 'Empty.blend'
# www.blender.org
mtllib ITMI_STUFF_CUP_01.mtl
o ITMI_STUFF_CUP_01
v 0.078139 0.240527 -0.047559
v -0.076954 0.003450 -0.054205
v 0.087271 0.003450 -0.054205
v 0.005159 0.003450 0.088018
v -0.067767 0.240527 -0.047559
v 0.005186 0.240527 -0.089678
v 0.005186 0.033336 -0.089678
v 0.005186 0.240527 0.078800
v -0.067767 0.240527 0.036680
v -0.067767 0.033336 0.036680
v 0.078139 0.240527 0.036680
v 0.078139 0.033336 0.036680
v 0.087271 0.003450 0.040610
v -0.076954 0.003450 0.040610
v 0.005159 0.003450 -0.101613
v -0.067767 0.033336 -0.047559
v 0.005186 0.033336 0.078800
v 0.078139 0.033336 -0.047559
v 0.005159 0.240527 -0.101613
v -0.076954 0.240527 -0.054205
v 0.087271 0.240527 -0.054205
v -0.076954 0.240527 0.040610
v 0.087271 0.240527 0.040610
v 0.005159 0.240527 0.088018
vt 0.878751 -0.091341
vt 0.992906 -0.119880
vt 0.992906 -0.091341
vt 0.880889 -0.038734
vt 0.986821 -0.091700
vt 0.986821 -0.038734
vt 0.969176 -0.077884
vt 0.899188 -0.042889
vt 0.899188 -0.077884
vt 0.878751 -0.005724
vt 0.992906 -0.034263
vt 0.992906 -0.005724
vt 0.878751 -0.034263
vt 0.986821 -0.118184
vt 0.880889 -0.091700
vt 0.880889 -0.118184
vt 0.352415 -0.406156
vt 0.258018 -0.370118
vt 0.352873 -0.372254
vt 0.878751 -0.119880
vt 0.257649 -0.397397
vt 0.352504 -0.399533
vt 0.351218 -0.494617
vt 0.256732 -0.465202
vt 0.351587 -0.467337
vt 0.880889 -0.012251
vt 0.256821 -0.458578
vt 0.351677 -0.460714
vt 0.257560 -0.404020
vt 0.256363 -0.492481
vt -0.011422 -0.009477
vt -0.011422 -0.066471
vt -0.044328 -0.009477
vt 0.986821 -0.012251
vt 0.934182 -0.025392
vt 0.969176 -0.042889
vt 0.934182 -0.095381
vt -0.060781 -0.037974
vt -0.044328 -0.066471
vt 0.005031 -0.037974
vt 0.956416 -0.021949
vt 0.984979 -0.032639
vt 0.956406 -0.018353
vt 0.927834 -0.032639
vt 0.931031 -0.034642
vt 0.927834 -0.061211
vt 0.981801 -0.034642
vt 0.984979 -0.061211
vt 0.931031 -0.060027
vt 0.956406 -0.075497
vt 0.981801 -0.060027
vt 0.956416 -0.072719
vn 0.500000 0.000000 -0.866000
vn 0.500000 0.000000 0.866000
vn 0.000000 -1.000000 0.000000
vn -1.000000 0.000000 0.000000
vn -0.500000 0.000000 -0.866000
vn -0.500000 0.000000 0.866000
vn 1.000000 0.000000 0.000000
vn 0.000000 1.000000 0.000000
usemtl CUP1
s off
f 19/1/1 3/2/1 15/3/1
f 23/4/2 4/5/2 13/6/2
f 3/7/3 14/8/3 2/9/3
f 22/10/4 2/11/4 14/12/4
f 15/3/5 20/13/5 19/1/5
f 14/14/6 24/15/6 22/16/6
f 5/17/2 7/18/2 6/19/2
f 3/2/1 19/1/1 21/20/1
f 6/19/6 18/21/6 1/22/6
f 8/23/1 10/24/1 9/25/1
f 13/6/7 21/26/7 23/4/7
f 1/22/4 12/27/4 11/28/4
f 9/25/7 16/29/7 5/17/7
f 2/11/4 22/10/4 20/13/4
f 10/24/1 8/23/1 17/30/1
f 7/18/2 5/17/2 16/29/2
f 11/28/5 17/30/5 8/23/5
f 4/5/2 23/4/2 24/15/2
f 12/27/4 1/22/4 18/21/4
f 18/31/8 16/32/8 12/33/8
f 21/26/7 13/6/7 3/34/7
f 4/35/3 3/7/3 13/36/3
f 24/15/6 14/14/6 4/5/6
f 14/8/3 3/7/3 4/35/3
f 20/13/5 15/3/5 2/11/5
f 3/7/3 2/9/3 15/37/3
f 16/29/7 9/25/7 10/24/7
f 17/38/8 16/32/8 10/39/8
f 17/30/5 11/28/5 12/27/5
f 12/33/8 16/32/8 17/38/8
f 18/21/6 6/19/6 7/18/6
f 18/31/8 7/40/8 16/32/8
f 6/41/8 21/42/8 19/43/8
f 6/41/8 19/43/8 20/44/8
f 6/41/8 20/44/8 5/45/8
f 5/45/8 20/44/8 22/46/8
f 1/47/8 23/48/8 21/42/8
f 1/47/8 21/42/8 6/41/8
f 5/45/8 22/46/8 9/49/8
f 9/49/8 22/46/8 24/50/8
f 23/48/8 1/47/8 11/51/8
f 23/48/8 11/51/8 24/50/8
f 24/50/8 11/51/8 8/52/8
f 9/49/8 24/50/8 8/52/8
