# Blender v2.75 (sub 0) OBJ File: 'Empty.blend'
# www.blender.org
mtllib ITMI_AMULET_01.mtl
o ITMI_AMULET_01
v -0.011000 0.000000 0.050000
v -0.015186 -0.000052 0.126534
v 0.011000 0.000000 0.050000
v -0.052142 -0.000020 0.033350
v -0.026000 0.000000 0.057000
v 0.046516 -0.000025 0.030110
v 0.026000 0.000000 0.057000
v -0.027364 -0.000052 0.073178
v 0.027364 -0.000052 0.073178
v 0.000000 -0.000052 0.060000
v -0.070457 -0.000028 -0.002755
v -0.046516 -0.000025 0.030110
v 0.065240 -0.000040 -0.002600
v 0.052142 -0.000020 0.033350
v -0.056366 -0.000047 -0.043952
v -0.028326 -0.000052 -0.062946
v -0.060704 -0.000041 -0.047291
v 0.028326 -0.000052 -0.062946
v 0.056366 -0.000047 -0.043952
v 0.060704 -0.000041 -0.047291
v -0.065240 -0.000040 -0.002600
v 0.070457 -0.000028 -0.002755
v -0.029953 -0.000052 -0.067673
v 0.029953 -0.000052 -0.067673
v -0.000034 -0.008589 0.095499
v -0.000034 0.008484 0.095499
v 0.015186 -0.000052 0.126534
v -0.034122 -0.000052 0.102788
v 0.034122 -0.000052 0.102788
vt 0.915414 -0.323064
vt 0.848008 -0.320413
vt 0.930930 -0.550821
vt 0.320072 -0.475109
vt 0.327335 -0.492121
vt 0.301467 -0.483128
vt 0.144720 -0.478076
vt 0.086421 -0.494077
vt 0.096826 -0.487779
vt 0.848546 -0.554073
vt 0.914069 -0.557292
vt 0.900988 -0.322806
vt 0.851738 -0.557161
vt 0.845369 -0.315943
vt 0.304587 -0.489279
vt 0.281961 -0.481213
vt 0.165120 -0.478619
vt 0.140547 -0.479794
vt 0.252365 -0.491987
vt 0.233593 -0.488353
vt 0.253716 -0.485063
vt 0.282821 -0.488099
vt 0.187919 -0.489901
vt 0.188572 -0.482463
vt 0.210243 -0.487252
vt 0.162639 -0.483522
vt 0.213585 -0.487615
vt 0.236337 -0.484455
vt 0.059767 -0.493230
vt 0.009913 -0.432013
vt 0.059837 -0.411674
vt 0.107788 -0.429597
vt 0.125528 -0.508489
vt -0.001907 -0.508489
vt 0.088855 -0.550950
vt 0.026872 -0.550950
vn 0.001600 1.000000 0.003400
vn -0.001600 -1.000000 -0.003400
vn 0.000300 -1.000000 0.000700
vn -0.000300 1.000000 -0.000700
vn -0.000300 -1.000000 0.000700
vn 0.000300 1.000000 -0.000700
vn -0.001600 1.000000 0.003400
vn 0.001600 -1.000000 -0.003400
vn -0.000400 -1.000000 0.000700
vn -0.000100 -1.000000 0.001000
vn 0.000400 1.000000 -0.000700
vn 0.000100 1.000000 -0.001000
vn 0.000400 -1.000000 0.000700
vn 0.000100 -1.000000 0.001000
vn -0.000400 1.000000 -0.000700
vn -0.000100 1.000000 -0.001000
vn -0.000900 -1.000000 -0.000800
vn -0.001400 -1.000000 -0.000000
vn 0.000900 1.000000 0.000800
vn 0.001400 1.000000 0.000000
vn 0.000900 -1.000000 -0.000800
vn 0.001400 -1.000000 -0.000000
vn -0.000900 1.000000 0.000800
vn -0.001400 1.000000 0.000000
vn -0.002300 -1.000000 0.001400
vn -0.002200 -1.000000 -0.000300
vn 0.002300 1.000000 -0.001400
vn 0.002200 1.000000 0.000300
vn 0.002300 -1.000000 0.001400
vn 0.002200 -1.000000 -0.000300
vn -0.002300 1.000000 -0.001400
vn -0.002200 1.000000 0.000300
vn 0.000000 -1.000000 0.000000
vn 0.000000 1.000000 0.000000
vn -0.000100 -1.000000 0.000000
vn 0.000100 1.000000 -0.000000
vn 0.000100 -1.000000 0.000000
vn -0.000100 1.000000 -0.000000
vn -0.111900 -0.966100 -0.232400
vn -0.111900 0.966100 -0.232400
vn 0.111800 -0.966200 -0.232200
vn 0.111800 0.966200 -0.232200
vn 0.253700 -0.965600 -0.057900
vn -0.254200 -0.965400 -0.058000
vn 0.253700 0.965600 -0.057900
vn -0.254200 0.965400 -0.058000
vn 0.000000 0.964200 0.265200
vn 0.000000 -0.964200 0.265200
vn -0.206400 0.964500 0.164600
vn -0.206400 -0.964500 0.164600
vn 0.206000 0.964700 0.164300
vn 0.206000 -0.964700 0.164300
usemtl AMULETT1_2
s off
f 1/1/1 5/2/1 10/3/1
f 1/1/2 10/3/2 5/2/2
f 1/4/3 5/5/3 12/6/3
f 12/6/4 5/5/4 1/4/4
f 6/7/5 7/8/5 3/9/5
f 3/9/6 7/8/6 6/7/6
f 8/10/1 10/3/1 5/2/1
f 8/10/2 5/2/2 10/3/2
f 9/11/7 7/12/7 10/13/7
f 9/11/8 10/13/8 7/12/8
f 3/14/7 10/13/7 7/12/7
f 3/14/8 7/12/8 10/13/8
f 12/6/9 4/15/9 21/16/9
f 12/6/10 5/5/10 4/15/10
f 21/16/11 4/15/11 12/6/11
f 4/15/12 5/5/12 12/6/12
f 13/17/13 14/18/13 6/7/13
f 14/18/14 7/8/14 6/7/14
f 6/7/15 14/18/15 13/17/15
f 6/7/16 7/8/16 14/18/16
f 17/19/17 23/20/17 15/21/17
f 15/21/18 11/22/18 17/19/18
f 17/19/19 15/21/19 23/20/19
f 17/19/20 11/22/20 15/21/20
f 20/23/21 19/24/21 24/25/21
f 20/23/22 22/26/22 19/24/22
f 20/23/23 24/25/23 19/24/23
f 19/24/24 22/26/24 20/23/24
f 21/16/25 4/15/25 11/22/25
f 21/16/26 11/22/26 15/21/26
f 11/22/27 4/15/27 21/16/27
f 15/21/28 11/22/28 21/16/28
f 22/26/29 14/18/29 13/17/29
f 19/24/30 22/26/30 13/17/30
f 13/17/31 14/18/31 22/26/31
f 13/17/32 22/26/32 19/24/32
f 23/20/33 18/27/33 16/28/33
f 16/28/34 18/27/34 23/20/34
f 16/28/35 15/21/35 23/20/35
f 16/28/36 23/20/36 15/21/36
f 18/27/37 24/25/37 19/24/37
f 24/25/33 18/27/33 23/20/33
f 18/27/38 19/24/38 24/25/38
f 23/20/34 18/27/34 24/25/34
usemtl AMILETT1_1
f 25/29/39 8/30/39 10/31/39
f 10/31/40 8/30/40 26/29/40
f 10/31/41 9/32/41 25/29/41
f 26/29/42 9/32/42 10/31/42
f 29/33/43 25/29/43 9/32/43
f 8/30/44 25/29/44 28/34/44
f 9/32/45 26/29/45 29/33/45
f 28/34/46 26/29/46 8/30/46
f 27/35/47 26/29/47 2/36/47
f 2/36/48 25/29/48 27/35/48
f 2/36/49 26/29/49 28/34/49
f 28/34/50 25/29/50 2/36/50
f 29/33/51 26/29/51 27/35/51
f 27/35/52 25/29/52 29/33/52
