# Blender v2.75 (sub 0) OBJ File: 'Empty.blend'
# www.blender.org
mtllib ITMW_2H_AXE_LIGHT_02.mtl
o ITMW_2H_AXE_LIGHT_02
v -0.296327 0.000000 0.156700
v -0.791327 0.000000 0.156700
v -0.560927 0.005000 0.000000
v -0.628533 -0.005000 0.095167
v -0.731927 -0.005000 0.091800
v -0.355727 -0.005000 0.091800
v -0.509969 -0.005000 0.070000
v -0.523827 -0.005000 -0.010000
v -0.503827 0.000000 -0.100000
v -0.578827 0.000000 -0.100000
v -0.577685 -0.005000 0.070000
v -0.563827 0.005000 -0.010000
v -0.593667 -0.008500 -0.027000
v -0.389979 -0.013500 0.000000
v -0.607563 0.016200 0.000000
v -0.576847 -0.000000 -0.018358
v 0.339300 -0.000000 -0.018374
v -0.576847 -0.000000 0.018497
v 0.339300 -0.000000 0.018292
v -0.771527 -0.005000 0.127200
v -0.526727 -0.005000 0.000000
v -0.809427 0.000000 -0.009131
v -0.568427 0.000000 -0.017664
v -0.568427 0.000000 0.017664
v -0.528827 -0.005000 -0.085000
v -0.809741 0.000000 0.009022
v -0.502732 -0.008500 -0.027000
v -0.593667 -0.011000 0.027000
v -0.628533 0.005000 0.095167
v -0.692327 0.005000 0.085900
v -0.771527 0.005000 0.127200
v -0.389979 0.013500 0.000000
v -0.593667 0.008500 0.027000
v -0.607563 -0.016200 0.000000
v 0.339300 -0.011687 0.000089
v -0.577685 0.005000 0.070000
v -0.576847 -0.011340 0.000069
v -0.576847 0.011340 0.000069
v -0.502732 -0.011000 0.027000
v 0.339300 0.011179 0.000089
v -0.593667 0.007500 -0.027000
v -0.528827 0.005000 -0.085000
v -0.509969 0.005000 0.070000
v -0.526727 0.005000 0.000000
v -0.560927 -0.005000 0.000000
v -0.523827 0.005000 -0.010000
v -0.558827 -0.005000 -0.085000
v -0.563827 -0.005000 -0.010000
v -0.558827 0.005000 -0.085000
v -0.459122 0.005000 0.095167
v -0.395327 0.005000 0.085900
v -0.355727 0.005000 0.091800
v -0.762104 0.007200 0.000000
v -0.762104 -0.007200 0.000000
v -0.459122 -0.005000 0.095167
v -0.731927 0.005000 0.091800
v -0.566027 0.007102 0.000002
v -0.566027 -0.007102 0.000002
v -0.543780 0.000000 -0.150000
v -0.502732 0.008500 0.027000
v -0.502732 0.007500 -0.027000
v -0.692327 -0.005000 0.085900
v -0.395327 -0.005000 0.085900
v -0.825182 0.000000 0.000000
v -0.316127 0.005000 0.127200
v -0.316127 -0.005000 0.127200
v -0.137303 -0.011687 0.000089
v -0.213628 -0.000000 -0.018358
v -0.510507 -0.016200 0.000000
v -0.510507 0.016200 0.000000
v -0.762104 0.000000 0.012288
v -0.762104 0.000000 -0.012288
v -0.137303 0.011179 0.000089
v -0.213628 -0.000000 0.018497
v -0.213628 -0.011340 0.000069
v -0.213628 0.011340 0.000069
v -0.137303 -0.000000 0.018292
v -0.543827 0.005000 0.127200
v -0.543827 -0.005000 0.127200
v -0.137303 -0.000000 -0.018374
vt 0.816738 -1.041390
vt 0.816719 -0.919704
vt 0.793676 -1.041390
vt 0.519273 -0.233099
vt 0.541398 -0.233099
vt 0.519273 -0.011937
vt 0.541398 -0.011937
vt 0.497459 -0.233099
vt 0.497459 -0.011937
vt 0.793701 -0.348402
vt 0.793701 -0.919704
vt 0.770683 -0.348402
vt 0.816719 -0.348402
vt 0.770683 -0.919704
vt 0.770939 -1.041389
vt 0.763978 -0.742913
vt 0.795015 -0.674312
vt 0.763978 -0.633674
vt 0.813510 -0.649918
vt 0.813510 -0.617431
vt 0.763978 -0.524435
vt 0.803993 -0.562432
vt 0.795015 -0.593037
vt 0.803993 -0.704917
vt 0.886043 -0.641878
vt 0.118193 -0.742306
vt 0.149220 -0.565899
vt 0.117632 -0.565899
vt 0.147688 -0.742306
vt 0.131328 -0.473223
vt 0.165676 -0.385199
vt 0.131328 -0.379129
vt 0.744817 -0.752412
vt 0.744817 -0.514936
vt 0.886043 -0.625471
vt 0.795721 -0.749355
vt 0.784416 -0.580975
vt 0.745886 -0.747295
vt 0.132495 -0.506571
vt 0.166805 -0.547729
vt 0.746080 -0.580975
vt 0.165676 -0.314207
vt 0.131328 -0.303359
vt 0.096980 -0.385199
vt 0.798277 -0.543433
vt 0.096980 -0.314207
vt 0.102399 -0.547729
vt 0.798277 -0.723915
vt 0.744629 -0.540201
vt 0.744502 -0.514232
vn -0.000100 0.855400 -0.517900
vn -0.000100 -0.844900 -0.534900
vn 0.000000 0.855400 -0.517900
vn 0.000000 -0.844900 -0.534900
vn 0.000000 -0.841500 0.540300
vn 1.000000 -0.000000 0.000000
vn 0.000000 0.852100 0.523300
vn 0.000000 -0.851700 -0.524100
vn 0.000000 -0.851700 0.524100
vn 0.000000 0.851700 -0.524100
vn 0.000000 0.851700 0.524100
vn -0.003700 -0.851700 -0.524100
vn -0.004000 -0.851700 0.524100
vn 0.001700 0.851700 0.524100
vn 0.001900 0.851700 -0.524100
vn 0.001400 0.852100 0.523300
vn 0.001400 -0.841500 0.540300
vn 0.000000 1.000000 -0.000000
vn 0.000000 -1.000000 -0.000000
vn 0.021400 0.953400 -0.301000
vn 0.021600 -0.963100 -0.268400
vn 0.000000 -0.985900 0.167100
vn 0.000000 0.985900 0.167100
vn 0.000500 -0.927800 -0.373100
vn 0.000500 0.927800 -0.373100
vn 0.133200 -0.985400 -0.106400
vn 0.133200 0.985400 -0.106400
vn -0.014000 -0.862700 -0.505500
vn -0.014000 0.862700 -0.505500
vn 0.000000 -0.961700 -0.274300
vn 0.232900 0.000000 -0.972500
vn -0.889200 0.000000 -0.457600
vn 0.021600 0.963100 0.268400
vn -0.443600 0.000000 -0.896200
vn 0.143700 0.000000 -0.989600
vn -0.666500 0.000000 -0.745500
vn -0.830300 0.000000 -0.557300
vn 0.232900 0.000000 0.972500
vn -0.889200 0.000000 0.457600
vn 0.022000 -0.982900 0.183000
vn -0.972500 0.000000 -0.232800
vn 0.000000 -0.982000 0.189100
vn 0.000000 0.000000 1.000000
vn 0.000000 0.000000 -1.000000
vn 0.514500 0.000000 0.857500
vn 0.997800 0.000000 -0.066500
vn 0.972500 0.000000 -0.232800
vn -0.143700 0.000000 -0.989600
vn 0.000000 -0.997100 -0.076700
vn 0.000000 0.997100 -0.076700
vn -0.997800 0.000000 -0.066500
vn -0.600000 0.000000 0.800000
vn 0.443600 0.000000 -0.896200
vn 0.666500 0.000000 -0.745500
vn 0.147400 0.000000 -0.989100
vn -0.014000 0.862700 0.505500
vn -0.111300 0.975100 -0.192000
vn -0.014000 -0.862700 0.505500
vn -0.111300 -0.975100 -0.192000
vn -0.147400 0.000000 -0.989100
vn 0.000500 0.927800 0.373100
vn 0.000500 -0.927800 0.373100
vn -0.160700 -0.980600 -0.112600
vn -0.160700 0.980600 -0.112600
vn 0.000000 0.961700 0.274300
vn 0.000000 0.951800 -0.306700
vn -0.111300 0.975300 0.190500
vn -0.111300 -0.975300 0.190500
vn 0.830300 0.000000 -0.557300
vn -0.034600 0.862300 0.505200
vn -0.034600 -0.862300 0.505200
vn -0.033700 0.862300 -0.505300
vn -0.033700 -0.862300 -0.505300
usemtl ITMELEEREST
s off
f 80/1/1 68/2/1 73/3/1
f 80/1/2 67/3/2 68/2/2
f 40/4/3 17/5/3 73/6/3
f 67/6/4 80/7/4 35/4/4
f 35/4/5 19/8/5 67/6/5
f 17/5/6 40/4/6 35/4/6
f 77/9/5 67/6/5 19/8/5
f 73/6/7 77/9/7 40/4/7
f 19/8/7 40/4/7 77/9/7
f 19/8/6 35/4/6 40/4/6
f 37/10/8 68/2/8 75/11/8
f 75/11/9 18/12/9 37/10/9
f 68/2/8 37/10/8 16/13/8
f 16/13/10 38/10/10 68/2/10
f 76/11/10 68/2/10 38/10/10
f 38/10/11 18/12/11 76/11/11
f 18/12/9 75/11/9 74/14/9
f 74/14/11 76/11/11 18/12/11
f 75/11/12 68/2/12 67/3/12
f 74/14/13 75/11/13 67/3/13
f 76/11/14 74/14/14 73/3/14
f 68/2/15 76/11/15 73/3/15
f 77/15/16 73/3/16 74/14/16
f 77/15/17 74/14/17 67/3/17
f 80/7/3 73/6/3 17/5/3
f 17/5/4 35/4/4 80/7/4
usemtl ITMELEEBLADES
f 65/16/18 50/17/18 78/18/18
f 66/16/19 79/18/19 55/17/19
f 78/18/18 43/19/18 36/20/18
f 79/18/19 11/20/19 7/19/19
f 20/21/19 62/22/19 4/23/19
f 31/21/18 29/23/18 30/22/18
f 66/16/19 55/17/19 63/24/19
f 65/16/18 51/24/18 50/17/18
f 11/20/19 21/25/19 7/19/19
f 36/20/18 43/19/18 44/25/18
f 12/26/18 42/27/18 49/28/18
f 48/26/19 47/28/19 25/27/19
f 79/18/19 4/23/19 11/20/19
f 78/18/18 36/20/18 29/23/18
f 42/27/18 12/26/18 46/29/18
f 25/27/19 8/29/19 48/26/19
f 32/30/20 61/31/20 70/32/20
f 14/30/21 69/32/21 27/31/21
f 79/18/22 1/33/22 2/34/22
f 78/18/23 2/34/23 1/33/23
f 11/20/19 45/35/19 21/25/19
f 36/20/18 44/25/18 3/35/18
f 58/36/24 54/37/24 23/38/24
f 57/36/25 23/38/25 53/37/25
f 59/39/26 9/40/26 25/27/26
f 59/39/27 42/27/27 9/40/27
f 72/41/28 23/38/28 54/37/28
f 72/41/29 53/37/29 23/38/29
f 27/31/30 69/32/30 13/42/30
f 61/31/31 32/30/31 27/31/31
f 34/43/32 15/43/32 13/42/32
f 32/30/33 70/32/33 60/44/33
f 4/23/34 29/23/34 36/20/34
f 62/22/35 29/23/35 4/23/35
f 62/22/35 30/22/35 29/23/35
f 20/21/36 56/45/36 5/45/36
f 20/21/36 31/21/36 56/45/36
f 2/34/37 31/21/37 20/21/37
f 14/30/31 27/31/31 32/30/31
f 14/30/38 32/30/38 39/44/38
f 15/43/39 34/43/39 33/46/39
f 60/44/38 39/44/38 32/30/38
f 28/46/39 33/46/39 34/43/39
f 14/30/40 39/44/40 69/32/40
f 11/20/41 36/20/41 3/35/41
f 4/23/34 36/20/34 11/20/34
f 28/46/42 69/32/42 39/44/42
f 28/46/43 39/44/43 33/46/43
f 41/42/32 13/42/32 15/43/32
f 13/42/44 61/31/44 27/31/44
f 25/27/45 9/40/45 42/27/45
f 46/29/46 25/27/46 42/27/46
f 7/19/47 44/25/47 43/19/47
f 63/24/48 55/17/48 50/17/48
f 7/19/47 21/25/47 44/25/47
f 11/20/41 3/35/41 45/35/41
f 25/27/46 46/29/46 8/29/46
f 59/39/49 25/27/49 47/28/49
f 59/39/50 49/28/50 42/27/50
f 49/28/51 48/26/51 12/26/51
f 49/28/52 10/47/52 47/28/52
f 48/26/51 49/28/51 47/28/51
f 78/18/18 50/17/18 43/19/18
f 55/17/53 43/19/53 50/17/53
f 63/24/48 50/17/48 51/24/48
f 66/16/54 6/48/54 52/48/54
f 65/16/18 52/48/18 51/24/18
f 6/48/55 51/24/55 52/48/55
f 71/41/56 24/38/56 53/37/56
f 22/49/57 64/50/57 53/37/57
f 71/41/58 54/37/58 24/38/58
f 54/37/59 64/50/59 22/49/59
f 79/18/19 7/19/19 55/17/19
f 55/17/53 7/19/53 43/19/53
f 31/21/18 30/22/18 56/45/18
f 5/45/60 56/45/60 30/22/60
f 57/36/61 53/37/61 24/38/61
f 58/36/62 24/38/62 54/37/62
f 47/28/63 10/47/63 59/39/63
f 49/28/64 59/39/64 10/47/64
f 60/44/65 70/32/65 33/46/65
f 33/46/43 39/44/43 60/44/43
f 41/42/66 70/32/66 61/31/66
f 41/42/44 61/31/44 13/42/44
f 20/21/19 5/45/19 62/22/19
f 5/45/60 30/22/60 62/22/60
f 66/16/19 63/24/19 6/48/19
f 6/48/55 63/24/55 51/24/55
f 53/37/67 64/50/67 26/49/67
f 26/49/68 64/50/68 54/37/68
f 66/16/54 52/48/54 65/16/54
f 1/33/23 65/16/23 78/18/23
f 1/33/69 66/16/69 65/16/69
f 1/33/22 79/18/22 66/16/22
f 34/43/42 69/32/42 28/46/42
f 34/43/30 13/42/30 69/32/30
f 15/43/66 70/32/66 41/42/66
f 15/43/65 33/46/65 70/32/65
f 26/49/70 71/41/70 53/37/70
f 54/37/71 71/41/71 26/49/71
f 72/41/72 22/49/72 53/37/72
f 22/49/73 72/41/73 54/37/73
f 29/23/18 31/21/18 78/18/18
f 2/34/23 78/18/23 31/21/23
f 4/23/19 79/18/19 20/21/19
f 2/34/22 20/21/22 79/18/22
