# Blender v2.75 (sub 0) OBJ File: 'Empty.blend'
# www.blender.org
mtllib ITMW_2H_SWORD_HEAVY_02.mtl
o ITMW_2H_SWORD_HEAVY_02
v -0.920000 0.000000 -0.024300
v -0.025000 -0.005000 -0.031200
v -0.920000 0.000000 0.024300
v -1.070000 0.000000 -0.048600
v -0.160000 0.007500 0.000000
v -0.160000 -0.007500 0.000000
v -0.036891 -0.000000 -0.135802
v -0.056600 -0.011000 0.000000
v -0.036891 -0.000000 0.135802
v -0.894332 0.000000 -0.020341
v -0.645055 0.000000 -0.021915
v -0.742500 0.000000 -0.062550
v -1.200000 0.000000 -0.032400
v -1.070000 0.000000 0.048600
v -0.652063 0.000000 0.023458
v -0.894010 0.000000 0.019295
v -0.742500 0.000000 0.059075
v -0.389044 0.000000 -0.027450
v -0.594049 0.000000 -0.022342
v -0.462500 0.000000 -0.053793
v -1.270000 0.000000 0.000000
v -1.200000 0.000000 0.032400
v -0.396526 0.000000 0.028459
v -0.592960 0.000000 0.021347
v -0.462500 0.000000 0.050804
v -0.025000 0.005000 0.031200
v -0.089950 0.000000 -0.027500
v -0.152200 0.000000 -0.095000
v -0.098250 0.005000 -0.080000
v -0.089950 0.000000 0.027500
v -0.152200 0.000000 0.095000
v -0.098250 -0.005000 0.080000
v -0.040150 0.005000 -0.030000
v -0.040150 -0.005000 0.030000
v -0.033200 -0.004950 -0.050319
v -0.025964 -0.002200 -0.089670
v -0.033200 -0.004950 0.050319
v -0.025964 -0.002200 0.089670
v -0.002600 0.011000 0.000000
v -0.005069 0.000000 -0.014538
v 0.260460 0.000000 -0.007990
v -0.005069 0.000000 0.014538
v -0.150197 0.000000 -0.032312
v -0.200000 0.000000 -0.075000
v -0.179263 0.000000 -0.032390
v -0.150444 0.000000 0.032524
v -0.200000 0.000000 0.075000
v -0.179191 0.000000 0.032242
v 0.271340 0.012349 0.000000
v 0.258990 0.000000 0.021390
v 0.271340 -0.012349 0.000000
v 0.283689 0.000000 -0.021390
v 0.260460 0.000000 0.007990
v -0.065050 -0.005000 -0.060000
v -0.065050 0.005000 0.060000
v -0.002600 -0.011000 0.000000
v 0.276902 -0.005448 0.000002
v 0.276902 0.005448 0.000002
v -0.017837 0.004950 -0.052504
v -0.017837 0.004950 0.052504
v -0.040150 -0.005000 -0.030000
v -0.040150 0.005000 0.030000
v -0.017741 -0.006881 0.000009
v -0.017741 0.006881 0.000009
v -0.160000 0.000000 -0.036450
v -0.025000 0.005000 -0.031200
v -0.160000 0.000000 0.036450
v -0.025000 -0.005000 0.031200
v -0.040008 0.002200 -0.092393
v -0.040008 0.002200 0.092393
v 0.283689 0.000000 0.021390
v 0.258990 0.000000 -0.021390
v -0.056600 0.011000 0.000000
v -0.033200 0.004950 -0.050319
v -0.033200 0.004950 0.050319
v 0.296038 0.000000 0.000000
v 0.246641 0.000000 -0.000000
v -1.069668 0.005500 0.000000
v -1.069668 -0.005500 0.000000
v -0.065050 0.005000 -0.060000
v -0.065050 -0.005000 0.060000
v -0.098250 -0.005000 -0.080000
v -0.098250 0.005000 0.080000
v -0.040008 -0.002200 -0.092393
v -0.040008 -0.002200 0.092393
v -0.600000 0.000000 -0.026325
v -0.600000 0.000000 0.026325
v -0.094100 0.000000 -0.050000
v -0.094100 0.000000 0.050000
v 0.130000 -0.006413 0.000005
v 0.130000 0.006413 0.000005
v -0.017837 -0.004950 -0.052504
v -0.017837 -0.004950 0.052504
v -0.119000 0.000000 -0.072500
v -0.119000 0.000000 0.072500
v 0.130000 0.000000 0.013750
v 0.130000 0.000000 -0.013750
v -0.025964 0.002200 -0.089670
v -0.025964 0.002200 0.089670
v -0.598948 0.006500 0.000000
v -0.598948 -0.006500 0.000000
vt 0.954492 -0.276899
vt 0.910062 -0.145384
vt 0.954492 -0.084074
vt 0.998923 -0.145384
vt 0.954492 -0.456709
vt 0.911897 -0.276468
vt 0.906798 -0.456709
vt 1.002187 -0.456709
vt 0.997088 -0.276468
vt 0.914676 -0.193751
vt 0.908952 -0.150090
vt 0.918711 -0.091782
vt 0.996607 -0.083938
vt 0.982569 -0.030685
vt 0.914265 -0.190611
vt 0.918691 -0.091906
vt 0.920870 -0.168559
vt 0.892218 -0.133388
vt 0.904951 -0.094327
vt 0.954492 -0.002011
vt 0.926416 -0.030685
vt 0.917951 -0.164976
vt 0.904846 -0.094650
vt 0.907198 -0.512011
vt 1.001787 -0.512011
vt 0.941078 -0.003476
vt 0.918101 -0.066897
vt 0.967788 -0.077253
vt 0.972497 -0.148786
vt 0.872132 -0.200408
vt 0.988919 -0.232712
vt 0.918677 -0.262092
vt 0.918728 -0.273998
vt 0.891385 -0.253597
vt 0.918592 -0.273897
vt 0.918772 -0.262121
vt 0.912378 -0.083938
vt 0.888568 -0.152603
vt 0.142771 -0.693464
vt 0.187264 -0.694185
vt 0.187264 -0.582454
vt 0.143289 -0.583161
vt 0.064074 -0.583537
vt 0.000697 -0.584044
vt 0.060332 -0.693674
vt 0.231758 -0.693464
vt 0.310455 -0.583537
vt 0.373831 -0.584044
vt 0.314196 -0.693674
vt 0.232119 -0.583161
vt 0.251295 -0.243944
vt 0.277598 -0.265182
vt 0.253804 -0.001560
vt 0.185084 -0.687447
vt 0.222876 -0.661567
vt 0.185084 -0.635687
vt 0.222876 -0.609807
vt 0.185084 -0.583928
vt 0.278676 -0.001560
vt 0.303529 -0.001560
vt 0.303869 -0.243944
vt 0.147292 -0.661567
vt 0.147292 -0.609807
vt 0.294003 -0.234295
vt 0.279560 -0.263360
vt 0.265111 -0.234295
vn -0.002100 -0.972500 0.232800
vn -0.002100 0.972500 0.232800
vn -0.002100 0.972500 -0.232800
vn -0.002100 -0.972500 -0.232800
vn -0.004600 0.979500 0.201500
vn -0.004600 0.979500 -0.201500
vn -0.004600 -0.979500 0.201500
vn -0.004600 -0.979500 -0.201500
vn 0.000000 1.000000 0.000000
vn 0.000000 -1.000000 0.000000
vn 0.018200 -0.993500 -0.112600
vn -0.014000 -0.993600 -0.112300
vn 0.018200 0.993500 -0.112600
vn -0.014000 0.993600 -0.112300
vn -0.027400 -0.997900 -0.059200
vn -0.027400 0.997900 -0.059200
vn -0.027400 -0.997900 0.059200
vn -0.027400 0.997900 0.059200
vn 0.018500 0.999800 0.000000
vn 0.018500 -0.999800 0.000000
vn -0.151300 0.962900 0.223300
vn -0.151300 -0.962900 0.223300
vn -0.151300 -0.962900 -0.223300
vn -0.151300 0.962900 -0.223300
vn -0.095600 0.992200 0.079400
vn -0.095600 -0.992200 0.079400
vn -0.095600 -0.992200 -0.079400
vn -0.095600 0.992200 -0.079400
vn 0.769500 0.000000 -0.638700
vn 0.267900 0.000000 -0.963500
vn 0.769500 0.000000 0.638700
vn 0.267900 0.000000 0.963500
vn -0.028400 -0.979100 -0.201500
vn -0.028400 0.979100 -0.201500
vn 0.038900 0.000000 -0.999200
vn -0.028400 -0.979100 0.201500
vn -0.028400 0.979100 0.201500
vn 0.038900 0.000000 0.999200
vn -0.014000 0.993600 0.112300
vn 0.018200 0.993500 0.112600
vn -0.014000 -0.993600 0.112300
vn 0.018200 -0.993500 0.112600
vn 0.516000 0.000000 -0.856600
vn -0.107100 0.978200 0.177900
vn 0.516000 0.000000 0.856600
vn -0.107100 -0.978200 -0.177900
vn -0.107100 -0.978200 0.177900
vn -0.107100 0.978200 -0.177900
vn -0.001500 -0.970900 -0.239700
vn -0.001500 0.970900 -0.239700
vn -0.001500 -0.970900 0.239700
vn -0.001500 0.970900 0.239700
vn -0.159700 -0.986700 0.029500
vn -0.159700 0.986700 0.029500
vn -0.159700 -0.986700 -0.029500
vn -0.159700 0.986700 -0.029500
vn -0.166700 -0.968600 0.184500
vn -0.166700 0.968600 0.184500
vn -0.166700 -0.968600 -0.184500
vn -0.166700 0.968600 -0.184500
vn -0.002200 0.970900 0.239600
vn -0.002200 0.970900 -0.239600
vn -0.002200 -0.970900 0.239600
vn -0.002200 -0.970900 -0.239600
vn -0.906800 0.000000 -0.421700
vn 0.000000 -0.993400 -0.114500
vn 0.973100 0.000000 -0.230500
vn 0.009700 -0.998700 -0.049900
vn -0.018200 -0.991700 -0.127700
vn -0.906800 0.000000 0.421700
vn 0.960400 0.000000 -0.278700
vn 0.009700 -0.998700 0.049900
vn -0.018200 -0.991700 0.127700
vn 0.973100 0.000000 0.230500
vn -0.018200 0.991700 -0.127700
vn 0.002500 0.904800 -0.425800
vn 0.002500 -0.904800 -0.425800
vn -0.433000 0.866000 0.250000
vn 0.433000 0.866000 0.250000
vn 0.433000 -0.866000 0.250000
vn -0.433000 -0.866000 0.250000
vn 0.002900 0.906400 -0.422500
vn 0.002900 -0.906400 -0.422500
vn 0.960400 0.000000 0.278700
vn 0.000000 -0.993400 0.114500
vn 0.002900 -0.906200 0.422800
vn 0.002900 0.906200 0.422800
vn 0.000000 0.993400 -0.114500
vn 0.000000 0.993400 0.114500
vn 0.002500 -0.904600 0.426300
vn 0.002500 0.904600 0.426300
vn 0.009700 0.998700 -0.049900
vn -0.997400 0.000000 -0.071600
vn 0.009700 0.998700 0.049900
vn -0.997400 0.000000 0.071600
vn 0.000000 -0.866000 0.500000
vn 0.000000 0.866000 0.500000
vn 0.000000 -0.866000 -0.500000
vn 0.000000 0.866000 -0.500000
vn -0.018200 0.991700 0.127700
vn -0.987200 0.000000 0.159700
vn -0.009100 0.997900 -0.063800
vn -0.987200 0.000000 -0.159700
vn -0.009100 0.997900 0.063800
vn 0.433000 -0.866000 -0.250000
vn 0.433000 0.866000 -0.250000
vn -0.433000 -0.866000 -0.250000
vn -0.433000 0.866000 -0.250000
vn -0.009100 -0.997900 -0.063800
vn -0.009100 -0.997900 0.063800
vn 0.005400 -0.820900 0.571000
vn 0.005400 -0.821100 -0.570800
vn 0.005400 0.820900 0.571000
vn 0.005400 0.821100 -0.570800
vn 0.014900 -0.996900 -0.077000
vn 0.976900 0.000000 -0.213600
vn 0.014900 -0.996900 0.077000
vn 0.976900 0.000000 0.213600
vn 0.018700 0.906100 0.422700
vn 0.018700 -0.906100 0.422700
vn 0.018700 0.906200 -0.422400
vn 0.018700 -0.906200 -0.422400
vn 0.014900 0.996900 -0.077000
vn 0.014900 0.996900 0.077000
usemtl ITMELEEBLADES
s off
f 101/1/1 3/2/1 79/3/1
f 100/1/2 78/3/2 3/2/2
f 100/1/3 1/4/3 78/3/3
f 101/1/4 79/3/4 1/4/4
f 5/5/5 87/6/5 67/7/5
f 5/5/6 65/8/6 86/9/6
f 6/5/7 67/7/7 87/6/7
f 6/5/8 86/9/8 65/8/8
f 11/10/9 12/11/9 10/12/9
f 12/11/10 11/10/10 10/12/10
f 79/3/11 4/13/11 1/4/11
f 79/3/12 13/14/12 4/13/12
f 78/3/13 1/4/13 4/13/13
f 78/3/14 4/13/14 13/14/14
f 17/11/9 15/15/9 16/16/9
f 15/15/10 17/11/10 16/16/10
f 18/17/9 20/18/9 19/19/9
f 20/18/10 18/17/10 19/19/10
f 79/3/15 21/20/15 13/14/15
f 78/3/16 13/14/16 21/20/16
f 79/3/17 22/21/17 21/20/17
f 78/3/18 21/20/18 22/21/18
f 25/18/9 23/22/9 24/23/9
f 23/22/10 25/18/10 24/23/10
f 5/5/19 26/24/19 66/25/19
f 6/5/20 2/25/20 68/24/20
f 28/26/21 94/27/21 29/28/21
f 28/26/22 82/28/22 94/27/22
f 31/26/23 95/27/23 32/28/23
f 31/26/24 83/28/24 95/27/24
f 80/29/25 27/30/25 33/31/25
f 27/30/26 54/29/26 61/31/26
f 30/30/27 34/31/27 81/29/27
f 55/29/28 62/31/28 30/30/28
f 45/32/9 43/33/9 44/34/9
f 45/32/10 44/34/10 43/33/10
f 47/34/9 46/35/9 48/36/9
f 46/35/10 47/34/10 48/36/10
f 33/31/29 54/29/29 80/29/29
f 28/26/30 29/28/30 82/28/30
f 62/31/31 55/29/31 81/29/31
f 31/26/32 32/28/32 83/28/32
f 54/29/29 33/31/29 61/31/29
f 81/29/31 34/31/31 62/31/31
f 65/8/33 2/25/33 6/5/33
f 65/8/34 5/5/34 66/25/34
f 65/8/35 66/25/35 2/25/35
f 67/7/36 6/5/36 68/24/36
f 67/7/37 26/24/37 5/5/37
f 67/7/38 68/24/38 26/24/38
f 78/3/39 22/21/39 14/37/39
f 78/3/40 14/37/40 3/2/40
f 79/3/41 14/37/41 22/21/41
f 79/3/42 3/2/42 14/37/42
f 80/29/43 82/28/43 29/28/43
f 29/28/44 88/38/44 80/29/44
f 32/28/45 81/29/45 55/29/45
f 89/38/46 81/29/46 32/28/46
f 82/28/43 80/29/43 54/29/43
f 88/38/47 82/28/47 54/29/47
f 55/29/45 83/28/45 32/28/45
f 83/28/48 55/29/48 89/38/48
f 101/1/49 1/4/49 86/9/49
f 100/1/50 86/9/50 1/4/50
f 101/1/51 87/6/51 3/2/51
f 100/1/52 3/2/52 87/6/52
f 54/29/53 27/30/53 88/38/53
f 27/30/54 80/29/54 88/38/54
f 81/29/55 89/38/55 30/30/55
f 30/30/56 89/38/56 55/29/56
f 82/28/57 88/38/57 94/27/57
f 88/38/58 29/28/58 94/27/58
f 32/28/59 95/27/59 89/38/59
f 89/38/60 95/27/60 83/28/60
f 5/5/61 100/1/61 87/6/61
f 5/5/62 86/9/62 100/1/62
f 6/5/63 87/6/63 101/1/63
f 6/5/64 101/1/64 86/9/64
usemtl ITMELEEREST
f 74/39/65 8/40/65 73/40/65
f 56/41/66 8/40/66 92/42/66
f 35/39/65 8/40/65 74/39/65
f 36/43/67 7/44/67 98/43/67
f 84/45/68 7/44/68 36/43/68
f 8/40/69 35/39/69 92/42/69
f 75/46/70 8/40/70 37/46/70
f 56/41/71 92/42/71 39/41/71
f 38/47/72 9/48/72 85/49/72
f 93/50/73 37/46/73 8/40/73
f 99/47/74 9/48/74 38/47/74
f 73/40/75 59/42/75 74/39/75
f 40/51/76 64/52/76 97/53/76
f 97/53/77 63/52/77 40/51/77
f 77/54/78 50/55/78 49/56/78
f 71/57/79 76/58/79 49/56/79
f 76/58/80 71/57/80 51/56/80
f 50/55/81 77/54/81 51/56/81
f 97/53/82 64/52/82 91/59/82
f 90/59/83 63/52/83 97/53/83
f 39/41/84 93/50/84 56/41/84
f 93/50/85 8/40/85 56/41/85
f 96/60/86 63/52/86 90/59/86
f 91/59/87 64/52/87 96/60/87
f 39/41/71 92/42/71 59/42/71
f 39/41/88 59/42/88 73/40/88
f 60/50/84 93/50/84 39/41/84
f 73/40/89 60/50/89 39/41/89
f 42/61/90 63/52/90 96/60/90
f 96/60/91 64/52/91 42/61/91
f 98/43/92 7/44/92 69/45/92
f 7/44/93 84/45/93 69/45/93
f 70/49/94 9/48/94 99/47/94
f 70/49/95 85/49/95 9/48/95
f 71/57/96 50/55/96 51/56/96
f 50/55/97 71/57/97 49/56/97
f 72/62/98 52/63/98 51/56/98
f 52/63/99 72/62/99 49/56/99
f 73/40/70 8/40/70 75/46/70
f 75/46/100 60/50/100 73/40/100
f 69/45/101 35/39/101 74/39/101
f 74/39/102 59/42/102 69/45/102
f 75/46/103 37/46/103 70/49/103
f 70/49/104 60/50/104 75/46/104
f 52/63/105 76/58/105 51/56/105
f 76/58/106 52/63/106 49/56/106
f 77/54/107 72/62/107 51/56/107
f 72/62/108 77/54/108 49/56/108
f 84/45/109 92/42/109 35/39/109
f 84/45/101 35/39/101 69/45/101
f 37/46/110 93/50/110 85/49/110
f 70/49/103 37/46/103 85/49/103
f 53/64/111 90/59/111 57/65/111
f 57/65/112 90/59/112 41/66/112
f 58/65/113 91/59/113 53/64/113
f 41/66/114 91/59/114 58/65/114
f 36/43/115 92/42/115 84/45/115
f 92/42/116 36/43/116 59/42/116
f 85/49/117 93/50/117 38/47/117
f 60/50/118 38/47/118 93/50/118
f 53/64/119 91/59/119 96/60/119
f 96/60/120 90/59/120 53/64/120
f 97/53/121 91/59/121 41/66/121
f 41/66/122 90/59/122 97/53/122
f 59/42/116 36/43/116 98/43/116
f 98/43/123 69/45/123 59/42/123
f 99/47/118 38/47/118 60/50/118
f 60/50/124 70/49/124 99/47/124
