# Blender v2.75 (sub 0) OBJ File: 'Empty.blend'
# www.blender.org
mtllib ITMW_2H_AXE_LIGHT_01.mtl
o ITMW_2H_AXE_LIGHT_01
v -0.714478 0.000000 0.211081
v -0.344084 0.000000 0.176785
v -0.615706 0.012155 0.001057
v -0.598865 0.000000 0.228489
v -0.449029 0.000000 0.219655
v -0.807076 0.000000 0.163072
v -0.516935 0.012155 0.001057
v -0.532550 0.000000 -0.016425
v -0.522200 0.000000 -0.182475
v -0.616925 0.000000 -0.016425
v -0.504588 -0.009441 0.069607
v -0.393470 0.004636 0.129588
v -0.292657 0.000022 0.133986
v -0.629840 -0.013500 -0.027000
v -0.426152 -0.013500 0.000000
v -0.629840 -0.013500 0.027000
v -0.613020 -0.000000 -0.018358
v 0.339300 -0.000000 -0.018403
v -0.613020 -0.000000 0.018497
v 0.339300 -0.000000 0.018314
v -0.426152 0.013500 0.000000
v -0.629840 0.013500 0.027000
v -0.629840 0.013500 -0.027000
v -0.615706 -0.012155 0.001057
v -0.516935 -0.012155 0.001057
v -0.504588 0.009441 0.069607
v -0.649399 -0.009102 0.060176
v -0.711131 0.008880 0.079038
v -0.649399 0.009102 0.060176
v -0.643736 -0.016200 0.000000
v -0.643736 0.016200 0.000000
v 0.339300 -0.011773 0.000089
v -0.613020 -0.011340 0.000069
v -0.613020 0.011340 0.000069
v 0.339300 0.011147 0.000089
v -0.538904 -0.013500 -0.027000
v -0.538904 -0.013500 0.027000
v -0.776210 -0.006388 0.146725
v -0.711131 -0.008880 0.079038
v -0.455202 -0.007745 0.112450
v -0.455202 0.007745 0.112450
v -0.677710 -0.008933 0.073429
v -0.567200 0.009180 -0.016425
v -0.567200 -0.009180 -0.016425
v -0.538904 0.013500 0.027000
v -0.538904 0.013500 -0.027000
v -0.776210 0.006388 0.146725
v -0.393470 -0.004636 0.129588
v -0.563714 0.005527 -0.082494
v -0.563714 -0.005527 -0.082494
v -0.677710 0.008933 0.073429
v -0.543284 0.000000 -0.078779
v -0.714478 0.005201 0.176716
v -0.714478 -0.005201 0.176716
v -0.467549 0.004692 0.189569
v -0.467549 -0.004692 0.189569
v -0.590601 0.000000 -0.087382
v -0.138750 -0.011773 0.000089
v -0.368777 -0.003280 0.163863
v -0.368777 0.003280 0.163863
v -0.598865 0.004512 0.194113
v -0.598865 -0.004512 0.194113
v -0.215075 -0.000000 -0.018358
v -0.546680 -0.016200 0.000000
v -0.546680 0.016200 0.000000
v -0.138750 0.011147 0.000089
v -0.215075 -0.000000 0.018497
v -0.215075 -0.011340 0.000069
v -0.215075 0.011340 0.000069
v -0.138750 -0.000000 0.018314
v -0.138750 -0.000000 -0.018403
vt 0.224511 -0.236127
vt 0.202113 -0.236127
vt 0.224511 -0.467227
vt 0.202113 -0.467227
vt 0.180037 -0.467227
vt 0.180037 -0.236127
vt 0.794411 -0.579409
vt 0.814252 -0.926542
vt 0.794411 -0.926542
vt 0.774570 -0.579409
vt 0.814252 -0.579409
vt 0.774570 -0.926542
vt 0.794390 -0.993122
vt 0.774767 -0.993122
vt 0.814300 -0.993122
vt 0.754321 -0.613174
vt 0.838286 -0.650970
vt 0.805778 -0.673454
vt 0.744403 -0.614028
vt 0.744408 -0.678796
vt 0.754326 -0.670016
vt 0.754354 -0.535077
vt 0.754332 -0.562598
vt 0.810936 -0.561621
vt 0.825295 -0.587927
vt 0.744961 -0.512086
vt 0.744894 -0.661174
vt 0.801700 -0.661279
vt 0.885388 -0.601071
vt 0.886884 -0.643911
vt 0.744443 -0.744489
vt 0.780694 -0.700655
vt 0.748819 -0.712216
vt 0.744426 -0.723247
vt 0.134468 -1.000144
vt 0.134468 -0.850207
vt 0.100142 -0.885149
vt 0.134468 -0.741224
vt 0.102234 -0.755906
vt 0.815435 -0.575978
vt 0.744427 -0.522096
vt 0.849937 -0.756567
vt 0.744858 -0.756567
vt 0.744409 -0.563452
vn 0.000000 0.856400 -0.516300
vn 0.000000 -0.843500 -0.537100
vn 0.000000 -0.840000 0.542600
vn 1.000000 -0.000000 0.000000
vn 0.000000 0.853100 0.521800
vn 0.000000 -0.851700 -0.524100
vn 0.000000 -0.851700 0.524100
vn 0.000000 0.851700 -0.524100
vn 0.000000 0.851700 0.524100
vn -0.004700 -0.851600 -0.524100
vn -0.005000 -0.851600 0.524100
vn 0.002000 0.851700 0.524100
vn 0.002300 0.851700 -0.524100
vn 0.001200 0.853100 0.521800
vn 0.001300 -0.840000 0.542600
vn -0.000300 0.856400 -0.516300
vn -0.000300 -0.843500 -0.537100
vn -0.000000 -0.999200 0.039600
vn -0.000000 0.999200 0.039600
vn 0.007700 -0.991500 0.130100
vn 0.007700 0.991500 0.130100
vn 0.000900 0.999300 0.037700
vn 0.000900 -0.999300 0.037700
vn -0.004700 0.999300 0.036000
vn -0.004700 -0.999300 0.036000
vn -0.177400 0.975800 -0.127600
vn -0.177400 -0.975800 -0.127600
vn 0.045400 0.998900 0.006800
vn 0.045900 -0.998900 0.006500
vn 0.081000 -0.992000 0.096900
vn 0.080700 0.992000 0.097500
vn 0.022300 -0.995400 -0.093100
vn 0.022300 0.995400 0.093100
vn 0.232900 0.000000 -0.972500
vn 0.232900 0.000000 0.972500
vn -0.889200 0.000000 0.457600
vn -0.889200 0.000000 -0.457600
vn -0.720900 0.000000 -0.693100
vn 0.984200 0.000000 -0.177300
vn 0.655300 0.000000 -0.755400
vn -0.868800 0.000000 -0.495200
vn -0.005500 -0.998800 0.048400
vn -0.005500 0.998800 0.048400
vn 0.004800 0.999300 0.037800
vn -0.165500 0.000000 -0.986200
vn 0.022300 -0.995400 0.093100
vn 0.022300 0.995400 -0.093100
vn 0.000000 -0.995000 -0.099500
vn 0.000000 0.000000 -1.000000
vn 0.000000 -0.995000 0.099500
vn 0.000000 0.000000 1.000000
vn -0.086500 -0.972400 0.216600
vn 0.004800 -0.999300 0.037800
vn 0.043600 0.000000 -0.999000
vn 0.267500 0.000000 -0.963600
vn 0.037600 0.998300 0.045500
vn -0.424000 0.000000 -0.905700
vn 0.008600 -0.999500 0.031000
vn 0.252100 0.966300 0.051300
vn 0.252100 -0.966300 0.051300
vn 0.000000 0.995000 0.099500
vn 0.000000 0.995000 -0.099500
vn -0.468000 0.000000 -0.883700
vn -0.086500 0.972400 0.216600
vn 0.037600 -0.998300 0.045500
vn -0.189700 0.979700 -0.064200
vn 0.267600 0.962700 -0.039100
vn -0.189700 -0.979700 -0.064200
vn 0.267600 -0.962700 -0.039100
vn 0.008600 0.999500 0.031000
vn 0.255900 -0.965700 -0.044000
vn 0.255900 0.965700 -0.044000
vn -0.077300 0.985800 0.149200
vn -0.019600 0.991300 0.130100
vn -0.077300 -0.985800 0.149200
vn -0.019600 -0.991300 0.130100
vn 0.003900 0.988400 0.151700
vn 0.057500 0.988400 0.140900
vn 0.003900 -0.988400 0.151700
vn 0.057500 -0.988400 0.140900
vn -0.181100 -0.981200 -0.067200
vn -0.181100 0.981200 -0.067200
vn 0.020700 -0.999500 0.024700
vn 0.046900 -0.991000 0.125700
vn 0.020700 0.999500 0.024700
vn 0.046900 0.991000 0.125700
vn 0.000500 0.999300 0.036300
vn -0.016600 0.988600 0.149600
vn 0.000500 -0.999300 0.036300
vn -0.016600 -0.988600 0.149600
usemtl ITMELEEREST
s off
f 71/1/1 66/2/1 18/3/1
f 58/2/2 71/1/2 32/4/2
f 35/4/1 18/3/1 66/2/1
f 18/3/2 32/4/2 71/1/2
f 32/4/3 20/5/3 58/2/3
f 18/3/4 35/4/4 32/4/4
f 70/6/3 58/2/3 20/5/3
f 66/2/5 70/6/5 35/4/5
f 20/5/5 35/4/5 70/6/5
f 20/5/4 32/4/4 35/4/4
f 33/7/6 63/8/6 68/9/6
f 68/9/7 19/10/7 33/7/7
f 63/8/6 33/7/6 17/11/6
f 17/11/8 34/7/8 63/8/8
f 69/9/8 63/8/8 34/7/8
f 34/7/9 19/10/9 69/9/9
f 19/10/7 68/9/7 67/12/7
f 67/12/9 69/9/9 19/10/9
f 68/9/10 63/8/10 58/13/10
f 67/12/11 68/9/11 58/13/11
f 69/9/12 67/12/12 66/13/12
f 63/8/13 69/9/13 66/13/13
f 70/14/14 66/13/14 67/12/14
f 70/14/15 67/12/15 58/13/15
f 71/15/16 63/8/16 66/13/16
f 71/15/17 58/13/17 63/8/17
usemtl ITMELEEBLADES
f 62/16/18 11/17/18 40/18/18
f 41/18/19 26/17/19 61/16/19
f 4/19/20 62/16/20 5/20/20
f 5/20/21 61/16/21 4/19/21
f 62/16/18 40/18/18 56/21/18
f 55/21/19 41/18/19 61/16/19
f 47/22/22 53/23/22 28/24/22
f 39/24/23 54/23/23 38/22/23
f 26/17/24 29/25/24 61/16/24
f 62/16/25 27/25/25 11/17/25
f 9/26/26 57/27/26 49/28/26
f 9/26/27 50/28/27 57/27/27
f 11/17/18 24/29/18 25/30/18
f 7/30/19 3/29/19 26/17/19
f 13/31/28 12/32/28 60/33/28
f 59/33/29 48/32/29 13/31/29
f 2/34/30 59/33/30 13/31/30
f 13/31/31 60/33/31 2/34/31
f 15/35/32 64/36/32 36/37/32
f 21/35/33 65/36/33 45/37/33
f 15/35/34 36/37/34 21/35/34
f 15/35/35 21/35/35 37/37/35
f 31/38/36 30/38/36 22/39/36
f 45/37/35 37/37/35 21/35/35
f 46/37/34 21/35/34 36/37/34
f 30/38/37 31/38/37 14/39/37
f 39/24/38 38/22/38 28/24/38
f 25/30/39 7/30/39 11/17/39
f 26/17/40 41/18/40 11/17/40
f 26/17/39 11/17/39 7/30/39
f 24/29/41 27/25/41 3/29/41
f 11/17/42 27/25/42 24/29/42
f 3/29/43 29/25/43 26/17/43
f 29/25/41 3/29/41 27/25/41
f 28/24/44 53/23/44 51/40/44
f 28/24/45 51/40/45 39/24/45
f 16/39/36 22/39/36 30/38/36
f 15/35/46 37/37/46 64/36/46
f 23/39/37 14/39/37 31/38/37
f 21/35/47 46/37/47 65/36/47
f 36/37/48 64/36/48 14/39/48
f 14/39/49 46/37/49 36/37/49
f 16/39/50 64/36/50 37/37/50
f 16/39/51 37/37/51 22/39/51
f 47/22/38 28/24/38 38/22/38
f 54/23/52 6/41/52 38/22/52
f 42/40/45 39/24/45 51/40/45
f 42/40/53 54/23/53 39/24/53
f 40/18/40 11/17/40 41/18/40
f 13/31/54 48/32/54 12/32/54
f 41/18/55 12/32/55 40/18/55
f 12/32/56 41/18/56 55/21/56
f 27/25/57 42/40/57 29/25/57
f 62/16/58 42/40/58 27/25/58
f 9/26/59 49/28/59 52/27/59
f 9/26/60 52/27/60 50/28/60
f 45/37/61 65/36/61 22/39/61
f 22/39/51 37/37/51 45/37/51
f 23/39/62 65/36/62 46/37/62
f 23/39/49 46/37/49 14/39/49
f 38/22/63 6/41/63 47/22/63
f 47/22/64 6/41/64 53/23/64
f 48/32/55 40/18/55 12/32/55
f 56/21/65 40/18/65 48/32/65
f 57/27/66 43/42/66 49/28/66
f 43/42/67 52/27/67 49/28/67
f 44/42/68 57/27/68 50/28/68
f 44/42/69 50/28/69 52/27/69
f 51/40/57 29/25/57 42/40/57
f 29/25/70 51/40/70 61/16/70
f 44/42/71 52/27/71 8/43/71
f 43/42/72 8/43/72 52/27/72
f 53/23/73 6/41/73 1/44/73
f 4/19/74 61/16/74 1/44/74
f 1/44/75 6/41/75 54/23/75
f 1/44/76 62/16/76 4/19/76
f 55/21/77 61/16/77 5/20/77
f 60/33/78 5/20/78 2/34/78
f 5/20/79 62/16/79 56/21/79
f 2/34/80 5/20/80 59/33/80
f 57/27/81 44/42/81 10/43/81
f 43/42/82 57/27/82 10/43/82
f 56/21/83 48/32/83 59/33/83
f 59/33/84 5/20/84 56/21/84
f 60/33/85 12/32/85 55/21/85
f 55/21/86 5/20/86 60/33/86
f 51/40/87 53/23/87 61/16/87
f 1/44/88 61/16/88 53/23/88
f 62/16/89 54/23/89 42/40/89
f 54/23/90 62/16/90 1/44/90
f 30/38/50 64/36/50 16/39/50
f 30/38/48 14/39/48 64/36/48
f 31/38/62 65/36/62 23/39/62
f 31/38/61 22/39/61 65/36/61
