# Blender v2.75 (sub 0) OBJ File: 'Empty.blend'
# www.blender.org
mtllib ITMW_1H_SWORD_BASTARD_01.mtl
o ITMW_1H_SWORD_BASTARD_01
v -0.035000 0.000000 -0.090000
v 0.000000 -0.012500 0.000000
v -0.035000 0.000000 0.090000
v -0.019200 0.000000 -0.037600
v -0.949207 0.007200 0.000000
v -0.019200 0.000000 0.037600
v 0.002106 0.000000 -0.014073
v -0.090477 0.000000 -0.072457
v -0.054256 0.000000 -0.013371
v -0.054256 0.000000 0.013371
v -0.090477 0.000000 0.072457
v 0.002106 0.000000 0.014073
v -0.004608 0.000000 -0.022307
v 0.182323 0.000000 -0.017367
v -0.004608 0.000000 0.022307
v 0.180300 0.000000 0.021824
v 0.218100 0.000000 0.000000
v 0.180300 0.000000 -0.021824
v 0.182323 0.000000 0.017367
v -0.017500 0.000000 -0.090000
v -0.017500 0.000000 0.090000
v -0.949207 -0.007200 0.000000
v 0.192900 0.012600 0.000000
v 0.192900 -0.012600 0.000000
v -1.007864 0.000000 0.000000
v 0.195911 -0.008635 0.000001
v 0.195911 0.008635 0.000001
v -0.016128 -0.008528 0.000008
v -0.016128 0.008528 0.000008
v 0.000000 0.012500 0.000000
v -0.020000 0.012500 0.000000
v -0.020000 -0.012500 0.000000
v 0.205500 0.000000 0.021824
v 0.205500 0.000000 -0.021824
v 0.167700 0.000000 -0.000000
v -0.014400 0.007102 0.000003
v -0.014400 -0.007102 0.000003
v -0.984481 0.000000 0.014097
v -0.983853 0.000000 -0.014267
v -0.949207 0.000000 0.024200
v -0.949207 0.000000 -0.024200
vt 0.577704 -0.584597
vt 0.577704 -0.694676
vt 0.381639 -0.584739
vt 0.439356 -0.484172
vt 0.439343 -0.236915
vt 0.398031 -0.474776
vt 0.626235 -0.894337
vt 0.576318 -0.869379
vt 0.576318 -0.919296
vt 0.407179 -0.247999
vt 0.381639 -0.694591
vt 0.761784 -0.584739
vt 0.526400 -0.894337
vt 0.526400 -0.844420
vt 0.626235 -0.844420
vt 0.471503 -0.247999
vt 0.480651 -0.474776
vt 0.761784 -0.694591
vt 0.576317 -0.819462
vt 0.585602 -0.488458
vt 0.589746 -0.037070
vt 0.626922 -0.486082
vt 0.633138 -0.429260
vt 0.586843 -0.442124
vt 0.587615 -0.470028
vt 0.545319 -0.338053
vt 0.576352 -0.391488
vt 0.577124 -0.363584
vt 0.563155 -0.037070
vt 0.544290 -0.486082
vt 0.616338 -0.037069
vt 0.589746 -0.008031
vt 0.574256 -0.019607
vt 0.605423 -0.019917
vn 0.000000 -0.990500 -0.137600
vn 0.981600 0.000000 -0.190900
vn -0.000500 0.934000 -0.357200
vn -0.000500 -0.934000 -0.357200
vn -0.433000 0.866000 0.250000
vn -0.433000 -0.866000 0.250000
vn 0.012000 0.891600 -0.452600
vn 0.012000 -0.891600 -0.452600
vn 0.000000 0.990500 -0.137600
vn 0.000000 -0.990500 0.137600
vn 0.000000 0.866000 -0.500000
vn 0.000000 0.866000 0.500000
vn 0.000000 -0.866000 -0.500000
vn 0.000000 -0.866000 0.500000
vn 0.012000 -0.891600 0.452700
vn 0.012000 0.891600 0.452700
vn -0.000500 -0.933900 0.357400
vn -0.000500 0.933900 0.357400
vn 0.981600 0.000000 0.190900
vn 0.000000 0.990500 0.137600
vn -0.986400 0.000000 0.164400
vn -0.986400 0.000000 -0.164400
vn 0.433000 -0.866000 0.250000
vn 0.433000 0.866000 0.250000
vn 0.433000 -0.866000 -0.250000
vn 0.433000 0.866000 -0.250000
vn -0.433000 -0.866000 -0.250000
vn -0.433000 0.866000 -0.250000
vn 0.000100 -0.982600 -0.185600
vn 0.000100 0.982600 -0.185600
vn 0.000000 1.000000 0.000000
vn 0.000000 -1.000000 0.000000
vn -0.004100 -0.958500 0.285200
vn -0.004100 -0.958500 -0.285200
vn -0.004100 0.958500 -0.285200
vn -0.004100 0.958500 0.285200
vn 0.000100 0.982600 0.185600
vn 0.000100 -0.982600 0.185600
vn -0.119400 0.972900 0.198100
vn -0.119400 -0.972900 0.198100
vn -0.119400 0.972300 -0.200900
vn -0.119400 -0.972300 -0.200900
vn -0.081400 0.955300 0.284200
vn -0.081400 -0.955300 0.284200
vn -0.081500 0.955300 -0.284200
vn -0.081500 -0.955300 -0.284200
usemtl ITMELEEREST
s off
f 2/1/1 32/2/1 20/3/1
f 30/1/2 2/1/2 20/3/2
f 29/4/3 27/5/3 13/6/3
f 26/5/4 28/4/4 13/6/4
f 16/7/5 23/8/5 35/9/5
f 35/9/6 24/8/6 16/7/6
f 14/10/7 13/6/7 27/5/7
f 13/6/8 14/10/8 26/5/8
f 20/3/1 32/2/1 1/11/1
f 1/11/9 30/1/9 20/3/9
f 2/1/10 21/12/10 32/2/10
f 31/2/9 30/1/9 1/11/9
f 18/13/11 23/8/11 34/14/11
f 33/15/12 23/8/12 16/7/12
f 34/14/13 24/8/13 18/13/13
f 16/7/14 24/8/14 33/15/14
f 26/5/15 19/16/15 15/17/15
f 19/16/16 27/5/16 15/17/16
f 15/17/17 28/4/17 26/5/17
f 29/4/18 15/17/18 27/5/18
f 30/1/19 21/12/19 2/1/19
f 3/18/20 21/12/20 30/1/20
f 31/2/20 3/18/20 30/1/20
f 32/2/21 31/2/21 1/11/21
f 21/12/10 3/18/10 32/2/10
f 32/2/22 3/18/22 31/2/22
f 33/15/23 24/8/23 17/19/23
f 17/19/24 23/8/24 33/15/24
f 17/19/25 24/8/25 34/14/25
f 34/14/26 23/8/26 17/19/26
f 18/13/27 24/8/27 35/9/27
f 35/9/28 23/8/28 18/13/28
usemtl ITMELEEBLADES
f 37/20/29 22/21/29 4/22/29
f 36/20/30 4/22/30 5/21/30
f 8/23/31 9/24/31 7/25/31
f 9/24/32 8/23/32 7/25/32
f 11/26/31 12/27/31 10/28/31
f 10/28/32 12/27/32 11/26/32
f 40/29/33 22/21/33 6/30/33
f 41/31/34 4/22/34 22/21/34
f 41/31/35 5/21/35 4/22/35
f 40/29/36 6/30/36 5/21/36
f 36/20/37 5/21/37 6/30/37
f 37/20/38 6/30/38 22/21/38
f 5/21/39 25/32/39 38/33/39
f 38/33/40 25/32/40 22/21/40
f 39/34/41 25/32/41 5/21/41
f 22/21/42 25/32/42 39/34/42
f 38/33/43 40/29/43 5/21/43
f 22/21/44 40/29/44 38/33/44
f 41/31/45 39/34/45 5/21/45
f 39/34/46 41/31/46 22/21/46
