# Blender v2.75 (sub 0) OBJ File: 'Empty.blend'
# www.blender.org
mtllib ITMW_2H_AXE_OLD_01.mtl
o ITMW_2H_AXE_OLD_01
v -0.448574 0.005786 0.219016
v -0.805710 0.032533 0.162119
v -0.615706 -0.012155 0.001057
v -0.292048 0.004618 0.133050
v -0.598748 0.003245 0.193821
v -0.713935 0.014390 0.210622
v -0.516935 -0.012155 0.001057
v -0.504098 0.007897 0.068904
v -0.532550 0.000000 -0.016425
v -0.616925 0.000000 -0.016425
v -0.543284 0.000000 -0.078779
v -0.629840 -0.013500 -0.027000
v -0.426152 -0.013500 0.000000
v -0.629840 -0.013500 0.027000
v -0.522200 0.030000 -0.162475
v -0.590601 0.000000 -0.087382
v -0.613020 -0.000000 -0.018358
v 0.339300 -0.000000 -0.018351
v -0.613020 -0.000000 0.018497
v 0.339300 -0.000000 0.018411
v -0.578486 0.007725 0.223022
v -0.426152 0.013500 0.000000
v -0.615706 0.012155 0.001057
v -0.629840 0.013500 0.027000
v -0.629840 0.013500 -0.027000
v -0.516935 0.012155 0.001057
v -0.649698 -0.003359 0.060126
v -0.505086 -0.010948 0.069563
v -0.710370 0.018475 0.078350
v -0.648746 0.014808 0.059491
v -0.455601 -0.010347 0.112321
v 0.339300 -0.011850 0.000089
v -0.643736 -0.016200 0.000000
v -0.643736 0.016200 0.000000
v -0.613020 -0.011340 0.000069
v -0.613020 0.011340 0.000069
v 0.339300 0.011086 0.000089
v -0.454791 0.005112 0.111781
v -0.598276 0.012251 0.193507
v -0.538904 -0.013500 -0.027000
v -0.538904 -0.013500 0.027000
v -0.368967 -0.008622 0.163547
v -0.711299 0.000750 0.078969
v -0.776035 0.009002 0.146528
v -0.677937 -0.001248 0.073365
v -0.567200 0.009180 -0.016425
v -0.567200 -0.009180 -0.016425
v -0.343590 0.003790 0.175998
v -0.393274 -0.000624 0.129016
v -0.538904 0.013500 0.027000
v -0.538904 0.013500 -0.027000
v -0.714270 0.008002 0.176459
v -0.563714 0.005527 -0.082494
v -0.563714 -0.005527 -0.082494
v -0.775367 0.021753 0.146082
v -0.393759 -0.009878 0.129340
v -0.368624 -0.002076 0.163318
v -0.677002 0.016584 0.072741
v -0.713726 0.018382 0.176096
v -0.467630 -0.003966 0.189286
v -0.138750 -0.011850 0.000089
v -0.215075 -0.000000 -0.018358
v -0.467139 0.005399 0.188959
v -0.546680 -0.016200 0.000000
v -0.546680 0.016200 0.000000
v -0.138750 0.011086 0.000089
v -0.215075 -0.000000 0.018497
v -0.215075 -0.011340 0.000069
v -0.215075 0.011340 0.000069
v -0.138750 -0.000000 0.018411
v -0.138750 -0.000000 -0.018351
vt 0.838720 -0.565969
vt 0.762816 -0.616030
vt 0.762819 -0.559505
vt 0.762816 -0.616220
vt 0.839100 -0.566346
vt 0.762820 -0.559725
vt 0.761983 -0.677858
vt 0.830390 -0.675662
vt 0.761983 -0.677659
vt 0.830061 -0.675335
vt 0.744889 -0.689783
vt 0.744885 -0.563224
vt 0.849994 -0.647441
vt 0.847227 -0.577964
vt 0.850396 -0.647840
vt 0.847614 -0.578349
vt 0.885546 -0.634689
vt 0.880251 -0.587907
vt 0.745265 -0.737197
vt 0.782118 -0.737197
vt 0.745266 -0.630800
vt 0.873118 -0.595083
vt 0.935050 -0.619592
vt 0.868847 -0.619592
vt 0.873118 -0.644101
vt 0.756120 -0.518202
vt 0.782319 -0.638130
vt 0.744886 -0.628670
vt 0.834349 -0.551126
vt 0.833972 -0.550751
vt 0.769585 -0.528164
vt 0.823169 -0.644101
vt 0.815536 -0.619592
vt 0.823169 -0.595083
vt 0.812769 -0.713825
vt 0.766854 -0.759091
vt 0.812572 -0.713629
vt 0.756942 -0.721707
vt 0.744902 -0.735024
vt 0.769585 -0.528434
vt 0.744894 -0.514701
vt 0.801286 -0.643700
vt 0.801594 -0.737197
vt 0.756942 -0.721845
vt 0.473116 -0.472626
vt 0.473116 -0.231523
vt 0.437460 -0.231523
vt 0.437460 -0.472626
vt 0.402031 -0.472626
vt 0.402031 -0.231523
vt 0.792950 -0.918928
vt 0.792950 -0.537093
vt 0.814386 -0.918928
vt 0.771514 -0.537093
vt 0.814386 -0.537093
vt 0.771514 -0.918928
vt 0.792927 -0.990376
vt 0.771613 -0.990376
vt 0.814378 -0.990376
vn -0.051700 -0.996100 0.071100
vn 0.052800 0.998600 0.001400
vn 0.052300 0.998600 0.004700
vn -0.052200 -0.995900 0.074400
vn -0.040200 -0.941500 0.334600
vn 0.050600 0.997700 -0.044100
vn -0.068000 -0.980600 0.184000
vn 0.035400 0.992700 0.115000
vn -0.056900 -0.995900 0.070900
vn 0.047700 0.998900 0.001100
vn 0.000000 0.998000 0.062600
vn 0.000000 -0.999800 0.017600
vn -0.181100 0.981200 -0.067200
vn -0.181100 -0.981200 -0.067200
vn 0.022300 -0.995400 -0.093100
vn 0.022300 0.995400 0.093100
vn -0.101400 -0.888600 -0.447300
vn -0.189700 -0.979700 -0.064200
vn -0.228600 0.957800 0.174400
vn -0.189700 0.979700 -0.064200
vn -0.009900 -0.987300 0.158300
vn 0.019100 0.990100 0.139000
vn 0.232900 0.000000 -0.972500
vn 0.232900 0.000000 0.972500
vn -0.721100 0.013600 -0.692700
vn -0.889200 0.000000 0.457600
vn -0.889200 0.000000 -0.457600
vn 0.985400 0.000000 -0.170400
vn -0.866700 0.000000 -0.498800
vn -0.059400 -0.991800 0.113500
vn 0.980200 -0.058000 -0.189100
vn 0.041700 -0.037100 -0.998400
vn 0.048900 0.998600 -0.017700
vn -0.869600 0.028300 -0.493000
vn 0.057100 0.998400 0.002900
vn -0.167100 -0.025700 -0.985600
vn 0.653000 -0.060600 -0.754900
vn 0.022300 -0.995400 0.093100
vn 0.022300 0.995400 -0.093100
vn -0.824400 0.062900 0.562400
vn 0.146800 0.026900 0.988800
vn 0.000000 -0.995000 -0.099500
vn 0.000000 0.000000 -1.000000
vn 0.000000 -0.995000 0.099500
vn 0.000000 0.000000 1.000000
vn 0.143200 -0.987400 -0.067500
vn 0.181700 -0.856400 0.483300
vn -0.047400 -0.996200 0.072700
vn -0.281000 -0.942800 0.179100
vn -0.425000 -0.009400 -0.905100
vn -0.043700 -0.996900 0.065900
vn 0.255900 0.965700 -0.044000
vn 0.255900 -0.965700 -0.044000
vn 0.283400 -0.903100 0.322700
vn -0.054800 0.995200 0.081500
vn 0.265400 -0.047600 -0.963000
vn 0.089900 0.995900 0.010700
vn 0.000000 0.995000 0.099500
vn 0.000000 0.995000 -0.099500
vn -0.051300 -0.996000 0.072500
vn -0.294600 -0.757500 0.582600
vn 0.178900 0.911000 0.371600
vn 0.267600 0.962700 -0.039100
vn 0.295500 -0.920500 -0.255500
vn 0.267600 -0.962700 -0.039100
vn -0.469000 -0.006300 -0.883200
vn 0.134000 0.984300 0.114600
vn -0.014600 -0.996700 0.080400
vn -0.090500 0.959900 -0.265400
vn -0.148200 0.976100 -0.159000
vn 0.060900 0.998100 -0.003900
vn 0.053300 0.998600 0.002800
vn 0.187300 0.941900 -0.278800
vn -0.031600 -0.997700 0.059500
vn 0.031400 -0.955500 0.293300
vn 0.073000 0.997300 -0.010200
vn 0.062300 0.996700 -0.051300
vn 0.000000 0.857000 -0.515200
vn 0.000000 -0.841300 -0.540600
vn 0.000000 -0.839700 0.543100
vn 1.000000 0.000000 0.000000
vn 0.000000 0.855600 0.517700
vn 0.000000 -0.851700 -0.524100
vn 0.000000 -0.851700 0.524100
vn 0.000000 0.851700 -0.524100
vn 0.000000 0.851700 0.524100
vn -0.005600 -0.851600 -0.524100
vn -0.005800 -0.851600 0.524100
vn 0.002700 0.851700 0.524100
vn 0.003000 0.851700 -0.524100
vn 0.000600 0.855600 0.517700
vn 0.000600 -0.839700 0.543100
vn 0.000100 -0.841300 -0.540600
usemtl ITMELEEBLADES
s off
f 45/1/1 5/2/1 52/3/1
f 39/4/2 58/5/2 59/6/2
f 39/4/3 63/7/3 38/8/3
f 60/9/4 5/2/4 31/10/4
f 60/9/5 1/11/5 5/2/5
f 1/11/6 63/7/6 39/4/6
f 6/12/7 52/3/7 5/2/7
f 59/6/8 6/12/8 39/4/8
f 28/13/9 5/2/9 27/14/9
f 39/4/10 8/15/10 30/16/10
f 8/15/11 26/17/11 23/18/11
f 7/17/12 28/13/12 3/18/12
f 10/19/13 46/20/13 16/21/13
f 10/19/14 16/21/14 47/20/14
f 40/22/15 13/23/15 64/24/15
f 50/25/16 22/23/16 65/24/16
f 16/21/17 15/26/17 54/27/17
f 54/27/18 47/20/18 16/21/18
f 53/27/19 15/26/19 16/21/19
f 53/27/20 16/21/20 46/20/20
f 1/11/21 21/28/21 5/2/21
f 21/28/22 1/11/22 39/4/22
f 22/23/23 13/23/23 40/22/23
f 41/25/24 13/23/24 22/23/24
f 29/29/25 43/30/25 44/31/25
f 24/32/26 34/33/26 33/33/26
f 22/23/24 50/25/24 41/25/24
f 40/22/23 51/22/23 22/23/23
f 12/34/27 33/33/27 34/33/27
f 28/13/28 7/17/28 26/17/28
f 23/18/29 3/18/29 27/14/29
f 3/18/30 28/13/30 27/14/30
f 26/17/31 8/15/31 28/13/31
f 49/35/32 4/36/32 56/37/32
f 8/15/33 23/18/33 30/16/33
f 27/14/34 30/16/34 23/18/34
f 58/5/35 29/29/35 59/6/35
f 43/30/36 29/29/36 58/5/36
f 38/8/37 31/10/37 28/13/37
f 31/10/4 5/2/4 28/13/4
f 33/33/26 14/32/26 24/32/26
f 64/24/38 13/23/38 41/25/38
f 34/33/27 25/34/27 12/34/27
f 65/24/39 22/23/39 51/22/39
f 28/13/37 8/15/37 38/8/37
f 39/4/3 38/8/3 8/15/3
f 21/28/40 39/4/40 5/2/40
f 6/12/41 5/2/41 39/4/41
f 12/34/42 40/22/42 64/24/42
f 40/22/43 12/34/43 51/22/43
f 41/25/44 14/32/44 64/24/44
f 24/32/45 14/32/45 41/25/45
f 4/36/46 42/38/46 56/37/46
f 42/38/47 48/39/47 1/11/47
f 58/5/36 45/1/36 43/30/36
f 43/30/48 45/1/48 52/3/48
f 44/31/25 55/40/25 29/29/25
f 52/3/49 6/12/49 2/41/49
f 30/16/50 27/14/50 45/1/50
f 27/14/51 5/2/51 45/1/51
f 11/42/52 46/20/52 9/43/52
f 9/43/53 47/20/53 11/42/53
f 4/36/54 48/39/54 42/38/54
f 57/44/55 4/36/55 49/35/55
f 31/10/56 38/8/56 49/35/56
f 63/7/57 49/35/57 38/8/57
f 24/32/58 50/25/58 65/24/58
f 50/25/45 24/32/45 41/25/45
f 51/22/59 25/34/59 65/24/59
f 12/34/43 25/34/43 51/22/43
f 44/31/60 43/30/60 52/3/60
f 44/31/61 52/3/61 2/41/61
f 11/42/62 15/26/62 53/27/62
f 53/27/63 46/20/63 11/42/63
f 54/27/64 15/26/64 11/42/64
f 11/42/65 47/20/65 54/27/65
f 55/40/66 44/31/66 2/41/66
f 6/12/67 59/6/67 2/41/67
f 49/35/56 56/37/56 31/10/56
f 56/37/68 60/9/68 31/10/68
f 48/39/69 57/44/69 1/11/69
f 48/39/70 4/36/70 57/44/70
f 45/1/50 58/5/50 30/16/50
f 39/4/71 30/16/71 58/5/71
f 29/29/72 55/40/72 59/6/72
f 59/6/73 55/40/73 2/41/73
f 42/38/74 60/9/74 56/37/74
f 60/9/75 42/38/75 1/11/75
f 63/7/76 57/44/76 49/35/76
f 57/44/77 63/7/77 1/11/77
f 14/32/44 33/33/44 64/24/44
f 64/24/42 33/33/42 12/34/42
f 25/34/59 34/33/59 65/24/59
f 65/24/58 34/33/58 24/32/58
usemtl ITMELEEREST
f 18/45/78 71/46/78 66/47/78
f 32/48/79 61/47/79 71/46/79
f 66/47/78 37/48/78 18/45/78
f 71/46/79 18/45/79 32/48/79
f 61/47/80 32/48/80 20/49/80
f 32/48/81 18/45/81 37/48/81
f 20/49/80 70/50/80 61/47/80
f 37/48/82 66/47/82 70/50/82
f 70/50/82 20/49/82 37/48/82
f 37/48/81 20/49/81 32/48/81
f 68/51/83 35/52/83 62/53/83
f 35/52/84 68/51/84 19/54/84
f 17/55/83 62/53/83 35/52/83
f 62/53/85 17/55/85 36/52/85
f 36/52/85 69/51/85 62/53/85
f 69/51/86 36/52/86 19/54/86
f 67/56/84 19/54/84 68/51/84
f 19/54/86 67/56/86 69/51/86
f 61/57/87 68/51/87 62/53/87
f 61/57/88 67/56/88 68/51/88
f 66/57/89 69/51/89 67/56/89
f 66/57/90 62/53/90 69/51/90
f 67/56/91 70/58/91 66/57/91
f 61/57/92 70/58/92 67/56/92
f 66/57/78 71/59/78 62/53/78
f 62/53/93 71/59/93 61/57/93
