# Blender v2.75 (sub 0) OBJ File: 'Empty.blend'
# www.blender.org
mtllib ITMW_1H_SWORD_02.mtl
o ITMW_1H_SWORD_02
v -0.669481 0.000000 0.014097
v -0.019200 0.000000 -0.027600
v -0.019200 0.000000 0.027600
v 0.142323 0.000000 -0.014867
v -0.004608 0.000000 -0.022307
v -0.004608 0.000000 0.022307
v 0.140300 0.000000 0.021824
v 0.140300 0.000000 -0.021824
v 0.178100 0.000000 0.000000
v -0.634207 0.007200 0.000000
v -0.634207 -0.007200 0.000000
v 0.142323 0.000000 0.014867
v -0.007500 0.000000 -0.080000
v -0.007500 0.000000 0.075000
v -0.025000 0.000000 -0.080000
v 0.152900 0.012600 0.000000
v 0.152900 -0.012600 0.000000
v 0.000000 0.012500 0.000000
v 0.155911 -0.008635 0.000001
v 0.155911 0.008635 0.000001
v -0.016128 -0.008528 0.000008
v -0.016128 0.008528 0.000008
v 0.000000 -0.012500 0.000000
v -0.025000 0.000000 0.075000
v -0.020000 0.012500 0.000000
v -0.020000 -0.012500 0.000000
v -0.014400 0.007102 0.000003
v -0.014400 -0.007102 0.000003
v -0.668853 0.000000 -0.014267
v 0.165500 0.000000 0.021824
v 0.165500 0.000000 -0.021824
v 0.127700 0.000000 -0.000000
v -0.680364 0.000000 0.000000
v -0.634207 0.000000 0.019200
v -0.634207 0.000000 -0.019200
vt 0.039599 -0.199181
vt -0.002733 -0.468135
vt 0.039611 -0.484817
vt 0.457070 -0.868847
vt 0.431004 -0.915163
vt 0.404937 -0.868847
vt 0.011385 -0.218858
vt 0.187903 -0.793835
vt 0.379791 -0.794027
vt 0.379791 -0.692852
vt 0.187903 -0.692622
vt 0.509203 -0.868847
vt 0.483137 -0.822532
vt 0.483137 -0.915163
vt 0.067807 -0.218858
vt 0.081925 -0.468135
vt 0.012144 -0.692852
vt 0.012144 -0.794027
vt 0.431004 -0.822532
vt 0.679911 -0.036602
vt 0.720103 -0.498344
vt 0.676238 -0.501948
vt 0.637274 -0.498344
vt 0.648550 -0.036602
vt 0.711273 -0.036602
vt 0.679911 -0.001948
vt 0.703215 -0.010590
vt 0.656885 -0.010119
vn -0.000600 0.934000 -0.357300
vn -0.000600 -0.934000 -0.357300
vn -0.433000 -0.866000 0.250000
vn -0.433000 0.866000 0.250000
vn 0.026300 0.853800 -0.519900
vn 0.026300 -0.853800 -0.519900
vn 0.000000 -0.988000 -0.154400
vn 0.000000 0.988000 -0.154400
vn 0.433000 0.866000 -0.250000
vn 0.433000 0.866000 0.250000
vn 0.433000 -0.866000 -0.250000
vn 0.433000 -0.866000 0.250000
vn 0.995600 0.000000 -0.093300
vn 0.026300 -0.853800 0.520000
vn 0.026300 0.853800 0.520000
vn -0.000600 -0.933900 0.357500
vn -0.000600 0.933900 0.357500
vn 0.995000 0.000000 0.099500
vn 0.000000 0.986400 0.164400
vn 0.000000 -0.986400 0.164400
vn -0.998100 0.000000 0.062400
vn -0.997800 0.000000 -0.066500
vn 0.000000 -0.866000 0.500000
vn 0.000000 0.866000 0.500000
vn 0.000000 -0.866000 -0.500000
vn 0.000000 0.866000 -0.500000
vn -0.433000 -0.866000 -0.250000
vn -0.433000 0.866000 -0.250000
vn 0.000200 -0.968500 -0.249200
vn 0.000200 0.968500 -0.249200
vn -0.004800 0.936300 0.351100
vn -0.004800 0.936300 -0.351100
vn -0.004800 -0.936300 0.351100
vn -0.004800 -0.936300 -0.351100
vn 0.000200 0.968400 0.249300
vn 0.000200 -0.968400 0.249300
vn -0.152900 0.980500 -0.123400
vn -0.152900 -0.980500 -0.123400
vn -0.153000 0.981100 0.118100
vn -0.153000 -0.981100 0.118100
vn -0.050700 0.935100 0.350700
vn -0.050700 -0.935100 0.350700
vn -0.049900 0.935200 -0.350700
vn -0.049900 -0.935200 -0.350700
usemtl ITMELEEREST
s off
f 20/1/1 5/2/1 22/3/1
f 21/3/2 5/2/2 19/1/2
f 17/4/3 7/5/3 32/6/3
f 16/4/4 32/6/4 7/5/4
f 5/2/5 20/1/5 4/7/5
f 4/7/6 19/1/6 5/2/6
f 26/8/7 15/9/7 13/10/7
f 18/11/8 13/10/8 15/9/8
f 16/4/9 9/12/9 31/13/9
f 16/4/10 30/14/10 9/12/10
f 17/4/11 31/13/11 9/12/11
f 17/4/12 9/12/12 30/14/12
f 23/11/13 13/10/13 18/11/13
f 18/11/8 15/9/8 25/8/8
f 12/15/14 6/16/14 19/1/14
f 20/1/15 6/16/15 12/15/15
f 21/3/16 19/1/16 6/16/16
f 6/16/17 20/1/17 22/3/17
f 23/11/18 18/11/18 14/17/18
f 26/8/7 13/10/7 23/11/7
f 18/11/19 24/18/19 14/17/19
f 26/8/20 23/11/20 14/17/20
f 18/11/19 25/8/19 24/18/19
f 25/8/21 15/9/21 26/8/21
f 26/8/20 14/17/20 24/18/20
f 25/8/22 26/8/22 24/18/22
f 17/4/23 30/14/23 7/5/23
f 16/4/24 7/5/24 30/14/24
f 17/4/25 8/19/25 31/13/25
f 16/4/26 31/13/26 8/19/26
f 17/4/27 32/6/27 8/19/27
f 16/4/28 8/19/28 32/6/28
usemtl ITMELEEBLADES
f 11/20/29 2/21/29 28/22/29
f 2/21/30 10/20/30 27/22/30
f 3/23/31 10/20/31 34/24/31
f 10/20/32 2/21/32 35/25/32
f 11/20/33 3/23/33 34/24/33
f 2/21/34 11/20/34 35/25/34
f 10/20/35 3/23/35 27/22/35
f 3/23/36 11/20/36 28/22/36
f 33/26/37 10/20/37 29/27/37
f 33/26/38 29/27/38 11/20/38
f 33/26/39 1/28/39 10/20/39
f 33/26/40 11/20/40 1/28/40
f 34/24/41 10/20/41 1/28/41
f 34/24/42 1/28/42 11/20/42
f 29/27/43 10/20/43 35/25/43
f 35/25/44 11/20/44 29/27/44
