# Blender v2.75 (sub 0) OBJ File: 'Empty.blend'
# www.blender.org
mtllib ITMW_2H_SWORD_HEAVY_01.mtl
o ITMW_2H_SWORD_HEAVY_01
v -0.180000 0.000000 0.025000
v -1.200000 0.000000 -0.040000
v -1.270000 0.000000 0.000000
v 0.005760 -0.005184 -0.057600
v 0.005760 -0.005184 0.057600
v -0.048384 0.010041 0.000000
v -0.265000 0.000000 0.040000
v -0.265000 0.000000 -0.040000
v -1.200000 0.000000 0.040000
v -0.011520 -0.006653 -0.024192
v -0.259631 -0.002851 -0.037602
v -0.259631 -0.002851 0.037602
v -0.070272 0.000000 -0.067968
v -0.020736 0.000000 -0.100224
v -0.070272 0.000000 0.067968
v -0.020736 0.000000 0.100224
v -0.011520 0.006653 0.024192
v -0.180000 0.000000 -0.025000
v -0.010000 -0.010000 -0.020000
v 0.290000 -0.005000 -0.015000
v -0.010000 0.010000 0.020000
v -0.238109 -0.010454 0.000000
v -0.094464 0.000000 -0.101376
v -0.094464 0.000000 0.101376
v 0.305000 -0.018000 -0.030000
v 0.305000 0.017000 0.030000
v 0.285000 0.017000 -0.030000
v -0.028800 0.005184 -0.064512
v -0.028800 0.005184 0.064512
v -0.235000 0.000000 0.020000
v -0.235000 0.000000 -0.020000
v -0.294983 0.000000 -0.082313
v -0.227193 0.000000 -0.003261
v -0.196790 0.000000 -0.020757
v -0.294983 0.000000 0.082313
v -0.196790 0.000000 0.020757
v -0.227193 0.000000 0.003261
v 0.305000 -0.018000 0.030000
v 0.290000 0.005000 0.015000
v -1.200000 -0.000000 -0.015000
v -1.200000 -0.000000 0.015000
v -0.050688 0.000000 -0.081792
v -0.050688 0.000000 0.081792
v 0.305000 0.017000 -0.030000
v 0.285000 0.017000 0.030000
v 0.285000 -0.018000 -0.030000
v 0.285000 -0.018000 0.030000
v -0.010000 0.010000 -0.020000
v -0.010000 -0.010000 0.020000
v -0.238109 0.010454 0.000000
v -0.132480 0.006898 0.018432
v -0.011520 -0.006653 0.024192
v -0.132480 0.006898 -0.018432
v -0.011520 0.006653 -0.024192
v -0.028800 -0.005184 -0.064512
v -0.048384 -0.010522 0.000000
v 0.005760 0.005184 -0.057600
v -0.028800 -0.005184 0.064512
v 0.290000 0.005000 -0.015000
v 0.290000 -0.005000 0.015000
v 0.005760 0.005184 0.057600
v -0.026496 -0.008018 -0.034560
v -0.026496 0.008018 -0.034560
v -0.026496 -0.008018 0.034560
v -0.026496 0.008018 0.034560
v -0.259631 0.002851 -0.037602
v -0.259631 0.002851 0.037602
v -0.052992 -0.005184 -0.101376
v -0.052992 -0.005184 0.101376
v -0.052992 0.005184 0.101376
v -0.052992 0.005184 -0.101376
v 0.002304 -0.014635 0.000000
v -0.069120 0.000000 -0.094464
v -0.069120 0.000000 0.094464
v 0.002304 0.014153 0.000000
v -0.180000 0.005808 0.000000
v -0.132480 -0.006898 -0.018432
v -0.132480 -0.006898 0.018432
v -0.180000 -0.005000 0.000000
v -0.063360 0.000000 -0.117504
v -0.063360 0.000000 0.117504
v -0.027648 -0.005184 -0.089856
v -0.027648 0.005184 -0.089856
v -0.027648 -0.005184 0.089856
v -0.027648 0.005184 0.089856
v -1.200000 0.003808 0.000000
v -1.200000 -0.003000 0.000000
v -0.005000 0.013000 -0.059000
v -0.005000 -0.013000 0.000418
v -0.005000 -0.013000 -0.059000
v -0.005000 0.013000 0.000418
vt 0.508657 0.057841
vt 0.281748 -0.954214
vt 0.466889 -0.954214
vt 0.652029 -0.954214
vt 0.994011 -0.954214
vt 0.261803 0.005731
vt 0.755511 0.005731
vt 0.014949 -0.022693
vt 0.006596 -0.954214
vt 0.200090 0.057841
vt 1.002365 -0.022693
vt 0.441828 -1.000192
vt 0.817224 0.057842
vt 0.615819 -0.337317
vt 0.638088 -0.338748
vt 0.638088 -0.324443
vt 0.572139 -0.389762
vt 0.571444 -0.309455
vt 0.624844 -0.356200
vt -0.006497 -0.809447
vt 0.030109 -0.838265
vt 0.177454 -0.813642
vt 0.665155 -0.305162
vt 0.733724 -0.350884
vt 0.704675 -0.364220
vt 0.630647 -0.331664
vt 0.571697 -0.357822
vt 0.571697 -0.321201
vt 0.674823 -0.357781
vt -0.006497 -0.867082
vt 0.176531 -0.864396
vt 0.246858 -0.469289
vt 0.311986 -0.236362
vt 0.312969 -0.468712
vt 0.246213 -0.236881
vt -0.791956 -0.300144
vt -0.763588 -0.299649
vt -0.785844 -0.494265
vt 0.700200 -0.401653
vt 0.519499 -0.749652
vt 0.404623 -0.721136
vt 0.519499 -0.720325
vt 0.423186 -0.791845
vt 0.509555 -0.707342
vt 0.506903 -0.775617
vt 0.653946 -0.305936
vt 0.570272 -0.312325
vt 0.625153 -0.355877
vt 0.570071 -0.385844
vt 0.559768 -0.531811
vt 0.709506 -0.540184
vt 0.721814 -0.574926
vt 0.469922 -0.566516
vt 0.477581 -0.529140
vt 0.590838 -0.530890
vt 0.559986 -0.530338
vt 0.721254 -0.576374
vt 0.709837 -0.525218
vt 0.576114 -0.532611
vt 0.416535 -0.482552
vt 0.566819 -0.482852
vt 0.417219 -0.707342
vt 0.404623 -0.750463
vt 0.732090 -0.401687
vt 0.680458 -0.429744
vt 0.442037 -0.760104
vt 0.490040 -0.713929
vt 0.491252 -0.759849
vt 0.440825 -0.714185
vt 0.167075 -0.813937
vt 0.238871 -0.833252
vt 0.166209 -0.863592
vt 0.247617 -0.833405
vt -0.763245 -0.499892
vt -0.761584 0.659523
vt -0.771282 0.506730
vt -0.790679 0.659522
vt -0.790679 -0.350174
vt -0.787446 -0.509825
vt -0.764817 -0.509825
vt 0.586434 -0.331596
vt 0.596932 -0.327304
vt 0.596932 -0.335887
vt 0.615819 -0.325874
vt 0.678573 -0.339512
vt 0.630647 -0.347359
vt -0.780981 0.506730
vt 0.247381 -0.846947
vt -0.776388 -0.494431
vt 0.238635 -0.846795
vt 0.723705 -0.427213
vt 0.759198 -0.421692
vt 0.736406 -0.466476
vt -0.761584 -0.350174
vt -0.785309 -0.500277
vt 0.570630 -0.316923
vt 0.643986 -0.351846
vt 0.643986 -0.313346
vt 0.570630 -0.355423
vn -0.001900 -0.980600 0.196100
vn -0.001900 -0.980600 -0.196100
vn -0.001900 0.969300 0.246100
vn -0.001900 0.969300 -0.246100
vn 0.000000 1.000000 0.000000
vn 0.000000 -1.000000 0.000000
vn -0.002200 0.974100 0.226300
vn -0.002200 0.974100 -0.226300
vn -0.052700 0.967900 0.245700
vn -0.052700 0.967900 -0.245700
vn -0.042000 -0.979700 -0.195900
vn -0.042000 -0.979700 0.195900
vn -0.844800 0.000000 0.535100
vn -0.080400 0.990800 -0.108900
vn -0.001400 0.980300 -0.197400
vn -0.001400 -0.980300 -0.197400
vn 0.270500 0.921000 -0.280200
vn 0.270500 -0.921000 -0.280200
vn 0.270500 -0.921000 0.280200
vn -0.080400 0.990800 0.108900
vn 0.998200 0.000000 0.059900
vn 0.002000 1.000000 0.000000
vn 0.033600 -0.999400 0.000000
vn 0.016700 0.999900 0.000000
vn 0.016700 -0.999900 0.000000
vn -0.001400 -0.980300 0.197400
vn 0.149100 0.000000 0.988800
vn -0.222900 0.974800 -0.010100
vn -0.222900 -0.974800 -0.010100
vn -0.222900 0.974800 0.010100
vn -0.222900 -0.974800 0.010100
vn -1.000000 0.000000 0.000000
vn 1.000000 0.000000 0.000000
vn -0.024100 0.987600 -0.155200
vn -0.030200 -0.986100 -0.163600
vn -0.080300 -0.989200 0.122500
vn 0.165300 -0.958000 0.234200
vn 0.165300 0.958000 0.234200
vn 0.165300 -0.958000 -0.234200
vn 0.165300 0.958000 -0.234200
vn 0.000000 0.000000 -1.000000
vn 0.000000 0.000000 1.000000
vn 0.016700 0.000000 -0.999900
vn 0.016700 0.000000 0.999900
vn -0.867900 0.000000 -0.496800
vn -0.867900 0.000000 0.496800
vn -0.001400 0.980300 0.197400
vn 0.033600 0.999400 0.000000
vn -0.047600 0.000000 0.998900
vn 0.149100 0.000000 -0.988800
vn -0.047600 0.000000 -0.998900
vn -0.619600 0.000000 0.784900
vn -0.844800 0.000000 -0.535100
vn -0.080300 -0.989200 -0.122500
vn 0.849300 0.000000 -0.527900
vn -0.619600 0.000000 -0.784900
vn 0.270500 0.921000 0.280200
vn 0.849300 0.000000 0.527900
vn 0.019100 -0.995200 -0.095600
vn -0.997100 0.000000 0.076700
vn 0.019100 0.995200 -0.095600
vn 0.019100 -0.995200 0.095600
vn -0.997100 0.000000 -0.076700
vn 0.019100 0.995200 0.095600
vn -0.311200 -0.950200 -0.013500
vn 0.159600 -0.905300 -0.393600
vn -0.311200 -0.950200 0.013500
vn 0.159600 -0.905300 0.393600
vn -0.311200 0.950200 0.013500
vn 0.159600 0.905300 0.393600
vn -0.311200 0.950200 -0.013500
vn 0.159600 0.905300 -0.393600
vn -0.030200 -0.986100 0.163600
vn 0.998200 0.000000 -0.059900
vn -0.112900 -0.903300 0.414000
vn -0.112900 0.903300 0.414000
vn -0.112900 -0.903300 -0.414000
vn -0.112900 0.903300 -0.414000
vn -0.024100 0.987600 0.155200
vn 0.002000 -1.000000 0.000000
vn -0.120600 -0.965100 -0.232600
vn -0.120600 0.965100 -0.232600
vn -0.120600 -0.965100 0.232600
vn -0.120600 0.965100 0.232600
vn 0.160700 -0.921500 -0.353600
vn -0.121500 -0.955900 0.267300
vn 0.160700 0.921500 -0.353600
vn -0.121500 0.955900 0.267300
vn 0.160700 -0.921500 0.353600
vn -0.121500 -0.955900 -0.267300
vn 0.160700 0.921500 0.353600
vn -0.121500 0.955900 -0.267300
usemtl ITFLAMEDBLADE
s off
f 79/1/1 41/2/1 87/3/1
f 40/4/2 79/1/2 87/3/2
f 41/2/3 76/1/3 86/3/3
f 76/1/4 40/4/4 86/3/4
f 2/5/5 30/6/5 31/7/5
f 2/5/6 31/7/6 30/6/6
f 2/5/6 7/8/6 9/9/6
f 2/5/5 9/9/5 7/8/5
f 79/1/1 1/10/1 41/2/1
f 76/1/7 41/2/7 1/10/7
f 2/5/6 30/6/6 7/8/6
f 2/5/5 7/8/5 30/6/5
f 2/5/6 8/11/6 31/7/6
f 2/5/5 31/7/5 8/11/5
f 2/5/6 40/4/6 3/12/6
f 2/5/5 3/12/5 40/4/5
f 3/12/5 9/9/5 41/2/5
f 3/12/6 41/2/6 9/9/6
f 76/1/8 18/13/8 40/4/8
f 79/1/2 40/4/2 18/13/2
f 3/12/9 41/2/9 86/3/9
f 3/12/10 86/3/10 40/4/10
f 3/12/11 40/4/11 87/3/11
f 3/12/12 87/3/12 41/2/12
usemtl ITMELEEREST
f 65/14/13 6/15/13 56/16/13
f 6/17/14 75/18/14 63/19/14
f 66/20/15 50/21/15 53/22/15
f 11/20/16 77/22/16 22/21/16
f 57/23/17 14/24/17 83/25/17
f 4/23/18 82/25/18 14/24/18
f 5/23/19 16/24/19 84/25/19
f 6/17/20 65/19/20 75/18/20
f 4/26/21 75/27/21 72/28/21
f 61/23/5 29/29/5 85/25/5
f 17/30/22 54/20/22 51/31/22
f 77/22/23 78/31/23 22/21/23
f 21/32/24 59/33/24 48/34/24
f 19/34/25 60/35/25 49/32/25
f 22/21/26 78/31/26 12/30/26
f 78/36/27 51/37/27 12/38/27
f 83/25/28 42/39/28 28/29/28
f 82/25/29 55/29/29 42/39/29
f 85/25/30 29/29/30 43/39/30
f 84/25/31 43/39/31 58/29/31
f 46/40/32 45/41/32 27/42/32
f 26/43/33 25/44/33 44/45/33
f 57/23/5 83/25/5 28/29/5
f 57/23/34 63/19/34 75/18/34
f 4/46/35 72/47/35 62/48/35
f 4/23/6 55/29/6 82/25/6
f 56/49/36 72/47/36 64/48/36
f 5/23/6 84/25/6 58/29/6
f 32/50/5 33/51/5 34/52/5
f 34/53/6 33/54/6 32/55/6
f 35/56/5 36/57/5 37/58/5
f 36/59/6 35/60/6 37/61/6
f 25/44/33 26/43/33 38/62/33
f 45/41/32 46/40/32 47/63/32
f 59/33/24 21/32/24 39/35/24
f 60/35/25 19/34/25 20/33/25
f 68/64/37 42/39/37 13/65/37
f 71/64/38 13/65/38 42/39/38
f 69/64/39 15/65/39 43/39/39
f 70/64/40 43/39/40 15/65/40
f 45/63/5 44/42/5 27/40/5
f 25/66/41 27/67/41 44/68/41
f 47/67/42 26/66/42 45/69/42
f 44/42/5 45/63/5 26/41/5
f 27/67/41 25/66/41 46/69/41
f 38/42/6 46/63/6 25/40/6
f 26/66/42 47/67/42 38/68/42
f 46/63/6 38/42/6 47/41/6
f 48/32/43 20/33/43 19/34/43
f 49/32/44 39/33/44 21/34/44
f 22/70/45 12/71/45 50/72/45
f 22/70/46 50/72/46 11/73/46
f 67/30/47 51/31/47 50/21/47
f 50/21/48 51/31/48 53/22/48
f 51/37/49 78/36/49 17/74/49
f 53/22/22 51/31/22 54/20/22
f 77/75/50 11/76/50 53/77/50
f 53/78/51 54/79/51 10/80/51
f 42/81/52 55/82/52 28/83/52
f 63/14/53 56/16/53 6/15/53
f 56/49/54 62/48/54 72/47/54
f 56/16/53 63/14/53 62/84/53
f 14/85/55 57/86/55 4/26/55
f 75/27/21 4/26/21 57/86/21
f 43/81/56 29/83/56 58/82/56
f 56/16/13 64/84/13 65/14/13
f 20/33/43 48/32/43 59/35/43
f 39/33/44 49/32/44 60/35/44
f 61/23/57 85/25/57 16/24/57
f 16/85/58 5/26/58 61/19/58
f 4/23/59 62/48/59 55/29/59
f 62/84/60 28/83/60 55/82/60
f 57/23/61 28/29/61 63/19/61
f 28/83/60 62/84/60 63/14/60
f 5/23/62 58/29/62 64/48/62
f 64/84/63 58/82/63 29/83/63
f 61/23/64 65/19/64 29/29/64
f 29/83/63 65/14/63 64/84/63
f 53/77/50 11/76/50 66/87/50
f 66/88/46 11/73/46 50/72/46
f 67/89/27 12/38/27 51/37/27
f 50/72/45 12/71/45 67/90/45
f 73/91/65 68/64/65 13/65/65
f 68/64/66 80/92/66 14/24/66
f 74/91/67 15/65/67 69/64/67
f 69/64/68 16/24/68 81/92/68
f 74/91/69 70/64/69 15/65/69
f 70/64/70 81/92/70 16/24/70
f 73/91/71 13/65/71 71/64/71
f 71/64/72 14/24/72 80/92/72
f 5/46/73 64/48/73 72/47/73
f 5/26/74 72/18/74 75/27/74
f 23/93/75 68/64/75 73/91/75
f 23/93/76 73/91/76 71/64/76
f 24/93/77 74/91/77 69/64/77
f 24/93/78 70/64/78 74/91/78
f 61/23/79 75/18/79 65/19/79
f 75/27/74 61/19/74 5/26/74
f 10/20/80 78/31/80 77/22/80
f 77/94/51 53/78/51 10/80/51
f 52/30/80 78/31/80 10/20/80
f 52/95/49 17/74/49 78/36/49
f 23/93/81 80/92/81 68/64/81
f 23/93/82 71/64/82 80/92/82
f 24/93/83 69/64/83 81/92/83
f 24/93/84 81/92/84 70/64/84
f 14/24/85 82/25/85 68/64/85
f 42/39/86 68/64/86 82/25/86
f 14/24/87 71/64/87 83/25/87
f 42/39/88 83/25/88 71/64/88
f 16/24/89 69/64/89 84/25/89
f 43/39/90 84/25/90 69/64/90
f 16/24/91 85/25/91 70/64/91
f 43/39/92 70/64/92 85/25/92
f 91/96/33 90/97/33 88/98/33
f 89/99/33 90/97/33 91/96/33
