# Blender v2.75 (sub 0) OBJ File: 'Empty.blend'
# www.blender.org
mtllib ITMW_1H_CLUB_01.mtl
o ITMW_1H_CLUB_01
v 0.200000 0.000000 0.030000
v -0.599541 -0.041135 -0.007713
v -0.600238 0.059248 -0.007253
v 0.200000 0.000000 -0.030000
v -0.255598 -0.001090 0.033080
v -0.488605 -0.078970 -0.056515
v 0.200000 -0.025000 0.000000
v 0.200000 0.025000 -0.000000
v -0.485746 -0.077432 0.038398
v -0.595802 0.016636 0.037507
v -0.265658 -0.051286 -0.009228
v -0.255627 -0.000656 -0.049996
v -0.596526 0.015880 -0.053403
v -0.487224 0.094906 -0.008089
v -0.479289 0.023187 -0.083235
v -0.473586 0.022946 0.063608
v -0.611903 0.015992 -0.007128
v -0.240106 0.034478 -0.007531
vt 0.795194 -0.715605
vt 0.811939 -0.985961
vt 0.825875 -0.704786
vt 0.768565 -0.987744
vt 0.765819 -0.707272
vt 0.790252 -0.986853
vt 0.760114 -0.573939
vt 0.771007 -0.565702
vt 0.796392 -0.699820
vt 0.810631 -0.494755
vt 0.812051 -0.561121
vt 0.790871 -0.494255
vt 0.771317 -0.497902
vt 0.790609 -0.486660
vt 0.791110 -0.563411
vt 0.823612 -0.566064
vt 0.790671 -0.493840
vn 0.027100 0.765300 -0.643100
vn 0.002700 0.751800 0.659400
vn 0.029200 -0.767900 -0.639900
vn 0.005600 0.768200 0.640200
vn 0.106600 -0.254300 0.961200
vn 0.021400 -0.646800 0.762300
vn -0.486400 -0.530600 -0.694200
vn 0.051000 -0.632500 -0.772900
vn 0.006200 -0.768200 0.640200
vn 1.000000 0.000000 0.000000
vn 0.027500 0.767900 -0.639900
vn -0.312900 -0.949500 0.024800
vn -0.458200 -0.529300 0.714100
vn -0.920200 -0.202600 0.334900
vn 0.173800 0.711400 0.681000
vn 0.120600 -0.992600 0.012500
vn 0.233400 -0.653600 0.719900
vn 0.114600 -0.261100 -0.958500
vn 0.234800 -0.637400 -0.733900
vn -0.930300 -0.198200 -0.308700
vn 0.176400 0.721300 -0.669800
vn -0.226100 0.700700 -0.676700
vn -0.214700 0.696700 0.684500
vn -0.226800 -0.227000 -0.947100
vn -0.217800 0.694500 -0.685800
vn -0.187200 0.675300 0.713400
vn -0.193200 -0.216900 0.956900
vn -0.912600 0.247100 0.325700
vn -0.919400 0.247100 -0.306100
vn 0.171500 0.707800 0.685300
vn 0.178800 0.725000 -0.665200
usemtl ITMELEEREST
s off
f 18/1/1 4/2/1 12/3/1
f 1/4/2 18/1/2 5/5/2
f 7/6/3 12/3/3 4/2/3
f 1/4/4 8/6/4 18/1/4
f 16/7/5 9/8/5 5/5/5
f 7/6/6 5/5/6 11/9/6
f 13/10/7 6/11/7 2/12/7
f 12/3/8 7/6/8 11/9/8
f 5/5/9 7/6/9 1/4/9
f 8/6/10 1/4/10 7/6/10
f 4/2/11 18/1/11 8/6/11
f 8/6/10 7/6/10 4/2/10
f 2/12/12 6/11/12 9/8/12
f 10/13/13 2/12/13 9/8/13
f 10/13/14 17/14/14 2/12/14
f 14/15/15 16/7/15 5/5/15
f 11/9/16 9/8/16 6/11/16
f 11/9/17 5/5/17 9/8/17
f 15/16/18 12/3/18 6/11/18
f 6/11/19 12/3/19 11/9/19
f 17/14/20 13/10/20 2/12/20
f 14/15/21 12/3/21 15/16/21
f 13/10/22 3/17/22 14/15/22
f 10/13/23 14/15/23 3/17/23
f 6/11/24 13/10/24 15/16/24
f 13/10/25 14/15/25 15/16/25
f 14/15/26 10/13/26 16/7/26
f 10/13/27 9/8/27 16/7/27
f 17/14/28 10/13/28 3/17/28
f 13/10/29 17/14/29 3/17/29
f 14/15/30 5/5/30 18/1/30
f 14/15/31 18/1/31 12/3/31
