# Blender v2.75 (sub 0) OBJ File: 'Empty.blend'
# www.blender.org
mtllib ITMW_2H_SWORD_OLD_01.mtl
o ITMW_2H_SWORD_OLD_01
v -1.044895 0.003791 0.000000
v -0.331623 0.002211 -0.016583
v -0.768961 0.000000 0.019782
v -0.508291 -0.005523 0.006650
v -0.241920 0.000000 -0.023040
v -0.040320 -0.000246 0.124394
v -0.011520 -0.015798 -0.061056
v -0.011520 -0.015798 0.061056
v -0.011520 0.015798 -0.061056
v -0.011520 0.015798 0.061056
v -0.040320 -0.000246 -0.124394
v -0.980240 0.000000 0.018432
v -0.247680 -0.009504 -0.024192
v -0.011520 -0.009504 -0.024192
v -0.247680 0.009504 0.024192
v -0.011520 -0.009504 0.024192
v -0.815050 0.000000 0.019487
v -0.241920 0.000000 0.023040
v 0.304912 0.000000 0.000000
v -0.011520 0.000018 -0.022307
v -0.011520 0.000013 0.022307
v -0.362479 0.000000 -0.022288
v 0.280248 0.019008 -0.000000
v 0.280248 -0.019008 -0.000000
v -0.308420 0.000000 -0.022625
v -0.521856 0.000000 0.021360
v -0.497829 0.000000 0.021508
v -0.011520 0.009504 -0.024192
v -1.038013 0.000000 -0.009188
v -0.247680 0.009504 -0.024192
v -0.011520 0.009504 0.024192
v -0.247680 -0.009504 0.024192
v -0.775285 -0.002398 0.013315
v -0.000988 0.000000 0.069120
v -0.508291 0.005523 0.006650
v -0.000988 0.000000 -0.069120
v 0.280248 0.000000 -0.031104
v 0.280248 0.000000 0.029952
v -0.241920 -0.008640 0.000000
v -0.241920 0.008640 0.000000
v -0.011520 -0.008405 0.000008
v -0.011520 0.008405 0.000008
v -1.041870 -0.002551 0.003129
v -0.775285 0.002398 0.013315
v -0.026414 0.000000 0.117767
v -0.026414 0.000000 -0.117767
v -0.792284 0.002200 0.013740
v 0.240400 0.008405 0.000002
v 0.240400 -0.008405 0.000002
v -0.318584 -0.001890 -0.017522
v -0.026660 0.000000 -0.054144
v -0.980240 0.000000 -0.018432
v -1.040485 -0.004122 0.000000
v -0.039826 0.000000 0.099928
v 0.251920 -0.000009 -0.017699
v -0.039826 0.000000 -0.099928
v 0.251920 0.000009 0.017699
v -0.026660 0.000000 0.054144
v -0.318584 0.001890 -0.017522
v -1.039085 0.002436 0.003821
v -0.331623 -0.002211 -0.016583
v -0.792284 -0.002200 0.013740
v -0.980240 0.008640 0.000000
v -0.980240 -0.008640 0.000000
vt 0.110604 -0.171001
vt 0.120962 -0.335608
vt 0.131296 -0.044643
vt 0.131296 -0.499831
vt 0.159939 -0.044643
vt 0.157066 -0.444528
vt 0.102653 -0.044643
vt 0.101013 -0.146486
vt 0.109945 -0.160521
vt 0.095492 -0.499831
vt 0.097873 -0.342059
vt 0.165930 -0.425504
vt 0.166455 -0.458833
vt 0.167100 -0.499831
vt 0.158524 -0.452566
vt 0.098103 -0.327245
vt 0.100556 -0.174900
vt 0.125359 -0.008364
vt 0.126433 -0.006647
vt 0.131296 -0.004782
vt 0.145574 -0.009025
vt 0.131296 -0.007501
vt 0.199604 -0.896973
vt 0.192819 -0.921205
vt 0.079728 -0.896973
vt 0.207521 -0.880115
vt 0.071812 -0.880115
vt 0.086514 -0.921205
vt 0.399899 -0.474985
vt 0.472181 -0.474985
vt 0.399899 -0.237292
vt 0.472181 -0.237292
vt 0.277574 -0.237160
vt 0.278059 -0.013600
vt 0.248000 -0.236409
vt 0.254622 -0.005480
vt 0.301536 -0.006672
vt 0.307127 -0.237911
vt 0.121533 -0.879508
vt 0.055330 -0.883554
vt 0.113775 -0.897385
vt 0.064962 -0.909123
vt 0.035330 -0.909123
vt 0.041100 -0.874052
vt 0.041100 -0.937436
vt 0.036984 -0.899723
vt 0.007066 -0.926295
vt -0.000283 -0.909125
vt 0.007066 -0.891068
vt 0.060180 -0.909125
vt 0.109883 -0.918330
vt 0.056880 -0.915088
vn -0.000000 0.905500 0.424400
vn -0.000000 -0.905500 0.424400
vn -0.002200 0.936300 -0.351100
vn -0.002200 -0.936300 -0.351100
vn -0.002700 -0.905500 0.424400
vn -0.002700 0.905500 0.424400
vn 0.004500 -0.927800 0.373000
vn 0.004500 0.927800 0.373000
vn -0.002100 -0.936300 0.351100
vn -0.002100 0.936300 0.351100
vn -0.002200 -0.936900 0.349700
vn -0.002200 0.936900 0.349700
vn -0.002200 -0.936800 0.349800
vn -0.002200 0.936800 0.349800
vn 0.000000 0.905500 -0.424400
vn 0.000000 -0.905500 -0.424400
vn 0.735100 0.000000 0.677900
vn -0.817600 0.000000 0.575700
vn -0.241000 0.000000 0.970500
vn -0.795500 -0.443400 -0.412900
vn -0.714900 0.000000 0.699200
vn 0.244800 0.000000 0.969600
vn 0.025000 0.000000 0.999700
vn -0.071800 0.000000 -0.997400
vn 0.181800 0.000000 -0.983300
vn -0.067800 -0.903400 -0.423500
vn -0.067800 0.903400 -0.423500
vn -0.067800 -0.903400 0.423500
vn -0.864800 -0.482000 -0.140800
vn -0.448700 0.000000 -0.893700
vn -0.067800 0.903400 0.423500
vn -0.513400 0.170100 0.841100
vn -0.722000 -0.691900 0.000000
vn 0.832000 -0.554700 0.000000
vn -0.722000 0.691900 0.000000
vn 0.832100 0.554700 0.000000
vn 0.000000 1.000000 0.000000
vn 0.000000 -1.000000 0.000000
vn -0.000000 0.936100 -0.351800
vn -0.000000 -0.935600 -0.353100
vn 0.007500 0.905000 -0.425300
vn 0.007400 0.905300 0.424700
vn 0.007400 -0.905000 0.425400
vn 0.007300 -0.905300 -0.424700
vn 0.000000 0.000000 -1.000000
vn -1.000000 0.000000 0.000000
vn 0.000000 0.000000 1.000000
vn 0.682900 -0.637400 0.356900
vn 0.682900 0.637400 0.356900
vn 0.682900 0.637400 -0.356900
vn 0.682900 -0.637400 -0.356900
vn 0.549400 -0.712900 -0.435700
vn 0.549400 0.712900 -0.435700
vn 0.545400 -0.707700 0.449100
vn 0.545400 0.707700 0.449100
vn 0.000000 -0.935600 0.353200
vn 0.000000 0.935900 0.352200
vn 0.161400 -0.938900 0.303900
vn 0.124600 0.946900 0.296500
vn 0.124600 0.946900 -0.296500
vn 0.161400 -0.938900 -0.303900
vn -0.218000 0.819200 0.530500
vn -0.217900 0.818800 -0.531000
vn -0.217900 -0.818800 0.531100
vn -0.218000 -0.819200 -0.530500
vn -0.665500 -0.721500 0.191400
vn -0.665500 0.721500 0.191400
vn -0.506900 -0.861800 -0.018900
vn -0.488500 0.872600 -0.001100
vn -0.239300 -0.828500 -0.506300
vn -0.239800 0.828400 -0.506200
vn -0.506900 -0.861800 0.018900
vn -0.488500 0.872600 0.001100
vn -0.226000 -0.822500 0.522000
vn -0.225500 0.822600 0.522000
vn -0.665500 -0.721500 -0.191400
vn -0.665500 0.721500 -0.191400
usemtl ITMELEEBLADES
s off
f 44/1/1 35/2/1 63/3/1
f 33/1/2 64/3/2 4/2/2
f 4/2/2 64/3/2 39/4/2
f 35/2/1 40/4/1 63/3/1
f 52/5/3 40/4/3 2/6/3
f 52/5/4 61/6/4 39/4/4
f 12/7/5 64/3/5 17/8/5
f 12/7/6 17/8/6 63/3/6
f 17/8/7 64/3/7 62/9/7
f 17/8/8 47/9/8 63/3/8
f 18/10/9 27/11/9 39/4/9
f 18/10/10 40/4/10 27/11/10
f 52/5/4 22/12/4 61/6/4
f 52/5/3 2/6/3 22/12/3
f 25/13/4 5/14/4 50/15/4
f 2/6/3 40/4/3 59/15/3
f 26/16/11 3/17/11 4/2/11
f 26/16/12 35/2/12 3/17/12
f 27/11/13 4/2/13 39/4/13
f 27/11/14 40/4/14 35/2/14
f 63/3/15 40/4/15 52/5/15
f 64/3/16 52/5/16 39/4/16
f 3/17/11 33/1/11 4/2/11
f 3/17/12 35/2/12 44/1/12
f 35/2/17 26/16/17 4/2/17
f 27/11/18 35/2/18 4/2/18
f 50/15/4 5/14/4 39/4/4
f 59/15/3 40/4/3 5/14/3
f 60/18/19 43/19/19 12/7/19
f 1/20/20 29/21/20 53/22/20
f 3/17/21 44/1/21 33/1/21
f 47/9/22 17/8/22 62/9/22
f 47/9/1 44/1/1 63/3/1
f 44/1/23 47/9/23 62/9/23
f 2/6/24 59/15/24 50/15/24
f 22/12/25 2/6/25 61/6/25
f 52/5/26 53/22/26 29/21/26
f 52/5/27 29/21/27 1/20/27
f 53/22/28 12/7/28 43/19/28
f 43/19/29 1/20/29 53/22/29
f 25/13/3 59/15/3 5/14/3
f 59/15/30 25/13/30 50/15/30
f 1/20/31 60/18/31 12/7/31
f 60/18/32 1/20/32 43/19/32
f 61/6/4 50/15/4 39/4/4
f 2/6/24 50/15/24 61/6/24
f 62/9/2 64/3/2 33/1/2
f 44/1/23 62/9/23 33/1/23
f 63/3/31 1/20/31 12/7/31
f 52/5/27 1/20/27 63/3/27
f 52/5/26 64/3/26 53/22/26
f 64/3/28 12/7/28 53/22/28
usemtl ITMELEEREST
f 8/23/33 58/24/33 7/25/33
f 34/26/34 8/23/34 36/27/34
f 51/28/35 58/24/35 9/25/35
f 9/25/36 10/23/36 36/27/36
f 10/23/35 9/25/35 58/24/35
f 34/26/36 36/27/36 10/23/36
f 51/28/33 7/25/33 58/24/33
f 7/25/34 36/27/34 8/23/34
f 30/29/37 15/30/37 28/31/37
f 13/29/38 14/31/38 32/30/38
f 16/32/38 32/30/38 14/31/38
f 15/30/37 31/32/37 28/31/37
f 42/33/39 48/34/39 20/35/39
f 41/33/40 20/35/40 49/34/40
f 20/35/41 48/34/41 55/36/41
f 57/37/42 48/34/42 21/38/42
f 21/38/43 49/34/43 57/37/43
f 55/36/44 49/34/44 20/35/44
f 28/31/45 14/31/45 30/29/45
f 13/29/45 30/29/45 14/31/45
f 30/29/46 13/29/46 15/30/46
f 16/32/47 31/32/47 32/30/47
f 15/30/47 32/30/47 31/32/47
f 32/30/46 15/30/46 13/29/46
f 34/39/48 45/40/48 8/41/48
f 34/39/49 10/41/49 45/40/49
f 36/39/50 46/40/50 9/41/50
f 36/39/51 7/41/51 46/40/51
f 19/42/52 24/43/52 37/44/52
f 37/44/53 23/43/53 19/42/53
f 38/45/54 24/43/54 19/42/54
f 19/42/55 23/43/55 38/45/55
f 41/33/56 49/34/56 21/38/56
f 42/33/57 21/38/57 48/34/57
f 6/46/58 8/41/58 45/40/58
f 6/46/59 45/40/59 10/41/59
f 11/46/60 9/41/60 46/40/60
f 11/46/61 46/40/61 7/41/61
f 57/47/62 23/43/62 48/48/62
f 48/48/63 23/43/63 55/49/63
f 49/50/64 24/43/64 57/47/64
f 55/49/65 24/43/65 49/50/65
f 51/51/66 56/52/66 7/41/66
f 9/41/67 56/52/67 51/51/67
f 6/46/68 54/52/68 8/41/68
f 10/41/69 54/52/69 6/46/69
f 37/44/70 24/43/70 55/49/70
f 55/49/71 23/43/71 37/44/71
f 7/41/72 56/52/72 11/46/72
f 11/46/73 56/52/73 9/41/73
f 57/47/74 24/43/74 38/45/74
f 38/45/75 23/43/75 57/47/75
f 8/41/76 54/52/76 58/51/76
f 58/51/77 54/52/77 10/41/77
