# Blender v2.75 (sub 0) OBJ File: 'Empty.blend'
# www.blender.org
mtllib ITMW_2H_AXE_OLD_02.mtl
o ITMW_2H_AXE_OLD_02
v -0.413361 0.002364 0.142751
v -0.670887 -0.002433 0.142344
v -0.560927 0.005000 0.000000
v -0.692327 0.005000 0.085900
v -0.791327 0.000000 0.156700
v -0.296327 0.000000 0.156700
v -0.355727 -0.005000 0.091800
v -0.509969 -0.005000 0.070000
v -0.523827 -0.005000 -0.010000
v -0.503827 0.000000 -0.100000
v -0.578827 0.000000 -0.100000
v -0.628533 0.005000 0.095167
v -0.577685 -0.005000 0.070000
v -0.563827 0.005000 -0.010000
v -0.593667 -0.008500 -0.027000
v -0.389979 -0.013500 0.000000
v -0.607563 0.016200 0.000000
v -0.576847 -0.000000 -0.018358
v 0.339300 -0.000000 -0.018374
v -0.576847 -0.000000 0.018497
v 0.339300 -0.000000 0.018292
v -0.771527 0.005000 0.127200
v -0.526727 -0.005000 0.000000
v -0.809427 0.000000 -0.009131
v -0.568427 0.000000 -0.017664
v -0.568427 0.000000 0.017664
v -0.528827 -0.005000 -0.085000
v -0.648203 0.000000 0.156700
v -0.809741 0.000000 0.009022
v -0.681237 0.002224 0.143578
v -0.502732 -0.008500 -0.027000
v -0.593667 -0.011000 0.027000
v -0.771527 -0.005000 0.127200
v -0.628533 -0.005000 0.095167
v -0.731927 -0.005000 0.091800
v -0.389979 0.013500 0.000000
v -0.593667 0.008500 0.027000
v -0.607563 -0.016200 0.000000
v 0.339300 -0.011687 0.000089
v -0.577685 0.005000 0.070000
v -0.576847 -0.011340 0.000069
v -0.576847 0.011340 0.000069
v -0.502732 -0.011000 0.027000
v 0.339300 0.011179 0.000089
v -0.593667 0.007500 -0.027000
v -0.528827 0.005000 -0.085000
v -0.509969 0.005000 0.070000
v -0.526727 0.005000 0.000000
v -0.560927 -0.005000 0.000000
v -0.523827 0.005000 -0.010000
v -0.558827 -0.005000 -0.085000
v -0.563827 -0.005000 -0.010000
v -0.558827 0.005000 -0.085000
v -0.459122 0.005000 0.095167
v -0.395327 0.005000 0.085900
v -0.355727 0.005000 0.091800
v -0.762104 0.007200 0.000000
v -0.762104 -0.007200 0.000000
v -0.459122 -0.005000 0.095167
v -0.731927 0.005000 0.091800
v -0.566027 0.007102 0.000002
v -0.566027 -0.007102 0.000002
v -0.423916 -0.002578 0.141492
v -0.436662 0.000000 0.156700
v -0.543780 0.000000 -0.150000
v -0.502732 0.008500 0.027000
v -0.502732 0.007500 -0.027000
v -0.692327 -0.005000 0.085900
v -0.395327 -0.005000 0.085900
v -0.825182 0.000000 0.000000
v -0.316127 0.005000 0.127200
v -0.316127 -0.005000 0.127200
v -0.137303 -0.011687 0.000089
v -0.213628 -0.000000 -0.018358
v -0.510507 -0.016200 0.000000
v -0.510507 0.016200 0.000000
v -0.762104 0.000000 0.012288
v -0.762104 0.000000 -0.012288
v -0.137303 0.011179 0.000089
v -0.213628 -0.000000 0.018497
v -0.213628 -0.011340 0.000069
v -0.213628 0.011340 0.000069
v -0.137303 -0.000000 0.018292
v -0.543827 0.005000 0.127200
v -0.543827 -0.005000 0.127200
v -0.137303 -0.000000 -0.018374
vt 0.816738 -1.041390
vt 0.816719 -0.919704
vt 0.793676 -1.041390
vt 0.278931 -0.236582
vt 0.298511 -0.236582
vt 0.278931 -0.004973
vt 0.298511 -0.004973
vt 0.259627 -0.236582
vt 0.259627 -0.004973
vt 0.793701 -0.348402
vt 0.793701 -0.919704
vt 0.770683 -0.348402
vt 0.816719 -0.348402
vt 0.770683 -0.919704
vt 0.770939 -1.041389
vt 0.763978 -0.742913
vt 0.795015 -0.674312
vt 0.763978 -0.633674
vt 0.813510 -0.617431
vt 0.813510 -0.649918
vt 0.744817 -0.685087
vt 0.744817 -0.583600
vt 0.753878 -0.696265
vt 0.754695 -0.691202
vt 0.803993 -0.704917
vt 0.886043 -0.641878
vt 0.118193 -0.742306
vt 0.149220 -0.565899
vt 0.117632 -0.565899
vt 0.763978 -0.524435
vt 0.795015 -0.593037
vt 0.803993 -0.562432
vt 0.147688 -0.742306
vt 0.131328 -0.473223
vt 0.165676 -0.385199
vt 0.131328 -0.379129
vt 0.744817 -0.514936
vt 0.753340 -0.567752
vt 0.754141 -0.572717
vt 0.886043 -0.625471
vt 0.795721 -0.749355
vt 0.784416 -0.580975
vt 0.745886 -0.747295
vt 0.132495 -0.506571
vt 0.166805 -0.547729
vt 0.746080 -0.580975
vt 0.165676 -0.314207
vt 0.131328 -0.303359
vt 0.096980 -0.385199
vt 0.798277 -0.543433
vt 0.096980 -0.314207
vt 0.102399 -0.547729
vt 0.798277 -0.723915
vt 0.744629 -0.540201
vt 0.744502 -0.514232
vt 0.744817 -0.752412
vn -0.000100 0.855400 -0.517900
vn -0.000100 -0.844900 -0.534900
vn 0.000000 0.855400 -0.517900
vn 0.000000 -0.844900 -0.534900
vn 0.000000 -0.841500 0.540300
vn 1.000000 -0.000000 0.000000
vn 0.000000 0.852100 0.523300
vn 0.000000 -0.851700 -0.524100
vn 0.000000 -0.851700 0.524100
vn 0.000000 0.851700 -0.524100
vn 0.000000 0.851700 0.524100
vn -0.003700 -0.851700 -0.524100
vn -0.004000 -0.851700 0.524100
vn 0.001700 0.851700 0.524100
vn 0.001900 0.851700 -0.524100
vn 0.001400 0.852100 0.523300
vn 0.001400 -0.841500 0.540300
vn 0.000000 1.000000 -0.000000
vn 0.000000 -1.000000 -0.000000
vn 0.000000 -0.985900 0.167100
vn 0.000000 0.985900 0.167100
vn 0.021400 0.953400 -0.301000
vn 0.021600 -0.963100 -0.268400
vn 0.000500 -0.927800 -0.373100
vn 0.000500 0.927800 -0.373100
vn 0.133200 -0.985400 -0.106400
vn 0.133200 0.985400 -0.106400
vn -0.014000 -0.862700 -0.505500
vn -0.014000 0.862700 -0.505500
vn 0.118400 0.000000 0.993000
vn -0.279000 -0.771500 0.571700
vn 0.000000 -0.961700 -0.274300
vn 0.232900 0.000000 -0.972500
vn -0.889200 0.000000 -0.457600
vn 0.021600 0.963100 0.268400
vn -0.666500 0.000000 -0.745500
vn -0.830300 0.000000 -0.557300
vn -0.443600 0.000000 -0.896200
vn 0.143700 0.000000 -0.989600
vn 0.232900 0.000000 0.972500
vn -0.889200 0.000000 0.457600
vn 0.022000 -0.982900 0.183000
vn -0.972500 0.000000 -0.232800
vn 0.000000 -0.982000 0.189100
vn 0.000000 0.000000 1.000000
vn 0.000000 0.000000 -1.000000
vn 0.514500 0.000000 0.857500
vn 0.997800 0.000000 -0.066500
vn 0.972500 0.000000 -0.232800
vn -0.143700 0.000000 -0.989600
vn 0.000000 -0.997100 -0.076700
vn 0.000000 0.997100 -0.076700
vn -0.997800 0.000000 -0.066500
vn -0.600000 0.000000 0.800000
vn 0.443600 0.000000 -0.896200
vn 0.666500 0.000000 -0.745500
vn 0.147400 0.000000 -0.989100
vn -0.014000 0.862700 0.505500
vn -0.111300 0.975100 -0.192000
vn -0.014000 -0.862700 0.505500
vn -0.111300 -0.975100 -0.192000
vn -0.147400 0.000000 -0.989100
vn 0.000500 0.927800 0.373100
vn 0.000500 -0.927800 0.373100
vn -0.118400 0.000000 0.993000
vn 0.341000 -0.837200 0.427700
vn -0.160700 -0.980600 -0.112600
vn -0.160700 0.980600 -0.112600
vn 0.000000 0.961700 0.274300
vn 0.000000 0.951800 -0.306700
vn -0.111300 0.975300 0.190500
vn -0.111300 -0.975300 0.190500
vn 0.830300 0.000000 -0.557300
vn -0.034600 0.862300 0.505200
vn -0.034600 -0.862300 0.505200
vn -0.033700 0.862300 -0.505300
vn -0.033700 -0.862300 -0.505300
usemtl ITMELEEREST
s off
f 86/1/1 74/2/1 79/3/1
f 86/1/2 73/3/2 74/2/2
f 44/4/3 19/5/3 79/6/3
f 73/6/4 86/7/4 39/4/4
f 39/4/5 21/8/5 73/6/5
f 19/5/6 44/4/6 39/4/6
f 83/9/5 73/6/5 21/8/5
f 79/6/7 83/9/7 44/4/7
f 21/8/7 44/4/7 83/9/7
f 21/8/6 39/4/6 44/4/6
f 41/10/8 74/2/8 81/11/8
f 81/11/9 20/12/9 41/10/9
f 74/2/8 41/10/8 18/13/8
f 18/13/10 42/10/10 74/2/10
f 82/11/10 74/2/10 42/10/10
f 42/10/11 20/12/11 82/11/11
f 20/12/9 81/11/9 80/14/9
f 80/14/11 82/11/11 20/12/11
f 81/11/12 74/2/12 73/3/12
f 80/14/13 81/11/13 73/3/13
f 82/11/14 80/14/14 79/3/14
f 74/2/15 82/11/15 79/3/15
f 83/15/16 79/3/16 80/14/16
f 83/15/17 80/14/17 73/3/17
f 86/7/3 79/6/3 19/5/3
f 19/5/4 39/4/4 86/7/4
usemtl ITMELEEBLADES
f 71/16/18 54/17/18 84/18/18
f 72/16/19 85/18/19 59/17/19
f 85/18/19 13/19/19 8/20/19
f 84/18/18 47/20/18 40/19/18
f 85/18/20 64/21/20 28/22/20
f 84/18/21 28/22/21 1/23/21
f 1/23/21 71/16/21 84/18/21
f 85/18/20 63/24/20 64/21/20
f 72/16/19 59/17/19 69/25/19
f 71/16/18 55/25/18 54/17/18
f 13/19/19 23/26/19 8/20/19
f 40/19/18 47/20/18 48/26/18
f 14/27/18 46/28/18 53/29/18
f 52/27/19 51/29/19 27/28/19
f 22/30/18 12/31/18 4/32/18
f 33/30/19 68/32/19 34/31/19
f 85/18/19 34/31/19 13/19/19
f 84/18/18 40/19/18 12/31/18
f 46/28/18 14/27/18 50/33/18
f 27/28/19 9/33/19 52/27/19
f 36/34/22 67/35/22 76/36/22
f 16/34/23 75/36/23 31/35/23
f 5/37/21 30/38/21 22/30/21
f 5/37/20 33/30/20 2/39/20
f 13/19/19 49/40/19 23/26/19
f 40/19/18 48/26/18 3/40/18
f 62/41/24 58/42/24 25/43/24
f 61/41/25 25/43/25 57/42/25
f 65/44/26 10/45/26 27/28/26
f 65/44/27 46/28/27 10/45/27
f 85/18/20 28/22/20 2/39/20
f 84/18/21 30/38/21 28/22/21
f 78/46/28 25/43/28 58/42/28
f 78/46/29 57/42/29 25/43/29
f 30/38/30 5/37/30 2/39/30
f 30/38/31 2/39/31 28/22/31
f 31/35/32 75/36/32 15/47/32
f 67/35/33 36/34/33 31/35/33
f 38/48/34 17/48/34 15/47/34
f 36/34/35 76/36/35 66/49/35
f 33/30/36 22/30/36 60/50/36
f 5/37/37 22/30/37 33/30/37
f 34/31/38 12/31/38 40/19/38
f 68/32/39 12/31/39 34/31/39
f 33/30/36 60/50/36 35/50/36
f 68/32/39 4/32/39 12/31/39
f 16/34/33 31/35/33 36/34/33
f 16/34/40 36/34/40 43/49/40
f 17/48/41 38/48/41 37/51/41
f 66/49/40 43/49/40 36/34/40
f 32/51/41 37/51/41 38/48/41
f 16/34/42 43/49/42 75/36/42
f 13/19/43 40/19/43 3/40/43
f 34/31/38 40/19/38 13/19/38
f 32/51/44 75/36/44 43/49/44
f 32/51/45 43/49/45 37/51/45
f 45/47/34 15/47/34 17/48/34
f 15/47/46 67/35/46 31/35/46
f 27/28/47 10/45/47 46/28/47
f 50/33/48 27/28/48 46/28/48
f 8/20/49 48/26/49 47/20/49
f 69/25/50 59/17/50 54/17/50
f 8/20/49 23/26/49 48/26/49
f 13/19/43 3/40/43 49/40/43
f 27/28/48 50/33/48 9/33/48
f 65/44/51 27/28/51 51/29/51
f 65/44/52 53/29/52 46/28/52
f 53/29/53 52/27/53 14/27/53
f 53/29/54 11/52/54 51/29/54
f 52/27/53 53/29/53 51/29/53
f 84/18/18 54/17/18 47/20/18
f 59/17/55 47/20/55 54/17/55
f 69/25/50 54/17/50 55/25/50
f 72/16/56 7/53/56 56/53/56
f 71/16/18 56/53/18 55/25/18
f 7/53/57 55/25/57 56/53/57
f 77/46/58 26/43/58 57/42/58
f 24/54/59 70/55/59 57/42/59
f 77/46/60 58/42/60 26/43/60
f 58/42/61 70/55/61 24/54/61
f 85/18/19 8/20/19 59/17/19
f 59/17/55 8/20/55 47/20/55
f 22/30/18 4/32/18 60/50/18
f 35/50/62 60/50/62 4/32/62
f 61/41/63 57/42/63 26/43/63
f 62/41/64 26/43/64 58/42/64
f 63/24/20 85/18/20 72/16/20
f 1/23/65 63/24/65 6/56/65
f 1/23/21 28/22/21 64/21/21
f 64/21/66 63/24/66 1/23/66
f 51/29/67 11/52/67 65/44/67
f 53/29/68 65/44/68 11/52/68
f 66/49/69 76/36/69 37/51/69
f 37/51/45 43/49/45 66/49/45
f 45/47/70 76/36/70 67/35/70
f 45/47/46 67/35/46 15/47/46
f 33/30/19 35/50/19 68/32/19
f 35/50/62 4/32/62 68/32/62
f 72/16/19 69/25/19 7/53/19
f 7/53/57 69/25/57 55/25/57
f 57/42/71 70/55/71 29/54/71
f 29/54/72 70/55/72 58/42/72
f 72/16/56 56/53/56 71/16/56
f 6/56/21 71/16/21 1/23/21
f 6/56/73 72/16/73 71/16/73
f 6/56/20 63/24/20 72/16/20
f 38/48/44 75/36/44 32/51/44
f 38/48/32 15/47/32 75/36/32
f 17/48/70 76/36/70 45/47/70
f 17/48/69 37/51/69 76/36/69
f 29/54/74 77/46/74 57/42/74
f 58/42/75 77/46/75 29/54/75
f 78/46/76 24/54/76 57/42/76
f 24/54/77 78/46/77 58/42/77
f 12/31/18 22/30/18 84/18/18
f 30/38/21 84/18/21 22/30/21
f 34/31/19 85/18/19 33/30/19
f 2/39/20 33/30/20 85/18/20
