# Blender v2.75 (sub 0) OBJ File: 'Empty.blend'
# www.blender.org
mtllib ITMW_2H_SWORD_LIGHT_04.mtl
o ITMW_2H_SWORD_LIGHT_04
v -1.007582 0.005934 0.000000
v -0.400000 0.008000 0.000000
v -0.020000 0.000000 -0.026500
v -0.400000 -0.008000 0.000000
v -1.080000 0.000000 0.000000
v -1.007582 -0.005934 0.000000
v -0.020000 0.000000 0.026500
v -0.007500 -0.005000 -0.035000
v -0.035000 0.010000 0.000000
v -0.027500 -0.005000 0.035000
v -0.005069 0.000000 -0.014538
v 0.260460 0.000000 -0.007990
v -0.005069 0.000000 0.014538
v 0.271340 0.012349 0.000000
v 0.258990 0.000000 0.021390
v 0.283689 0.000000 -0.021390
v 0.271340 -0.012349 0.000000
v -0.027500 0.005000 -0.035000
v -0.011000 0.000000 -0.150000
v -0.023500 0.004000 -0.030000
v -0.028000 -0.000000 -0.150000
v -0.011000 0.000000 0.150000
v -0.023500 0.004000 0.030000
v -0.028000 -0.000000 0.150000
v 0.260460 0.000000 0.007990
v -0.010500 -0.003000 -0.030000
v -0.010500 -0.003000 0.030000
v 0.276902 -0.005448 0.000002
v 0.276902 0.005448 0.000002
v -0.017741 -0.006881 0.000009
v -0.017741 0.006881 0.000009
v -0.027500 -0.005000 -0.035000
v -0.007500 -0.005000 0.035000
v -0.007500 0.005000 0.035000
v -0.007500 0.005000 -0.035000
v 0.283689 0.000000 0.021390
v 0.258990 0.000000 -0.021390
v -0.027500 0.005000 0.035000
v -0.010500 0.004000 -0.030000
v -0.010500 0.004000 0.030000
v -0.018500 -0.001000 -0.087000
v -0.023500 -0.003000 -0.030000
v -0.018500 -0.001000 0.087000
v -0.023500 -0.003000 0.030000
v 0.000000 -0.010000 0.000000
v 0.000000 0.010000 0.000000
v -0.035000 -0.010000 0.000000
v 0.296038 0.000000 0.000000
v 0.246641 0.000000 -0.000000
v -0.018500 0.001000 -0.087000
v -0.018500 0.001000 0.087000
v -0.020000 0.005000 -0.010500
v -0.020000 -0.005000 -0.010500
v -1.050110 0.000000 -0.011410
v -1.050110 0.000000 0.011410
v -0.020000 0.005000 0.010500
v -0.020000 -0.005000 0.010500
v -0.325854 0.000000 0.024123
v -0.325854 0.000000 -0.024123
v -0.385000 0.005000 0.010500
v -0.385000 0.005000 -0.010500
v -0.385000 -0.005000 0.010500
v -0.385000 -0.005000 -0.010500
v -0.010500 0.001000 -0.087000
v -0.010500 0.001000 0.087000
v -1.007582 0.000000 0.015000
v -1.007582 0.000000 -0.015000
v 0.130000 -0.006413 0.000005
v 0.130000 0.006413 0.000005
v 0.130000 0.000000 0.013750
v 0.130000 0.000000 -0.013750
v -0.010500 -0.001000 -0.087000
v -0.010500 -0.001000 0.087000
vt 0.189842 -0.802990
vt 0.146021 -0.802978
vt 0.189842 -0.689955
vt 0.039666 -0.241144
vt 0.015816 -0.078609
vt 0.013968 -0.231512
vt 0.186742 -0.691479
vt 0.186742 -0.740740
vt 0.281027 -0.716110
vt 0.281027 -0.765371
vt 0.186742 -0.790001
vt 0.146021 -0.690058
vt 0.002037 -0.802979
vt 0.002037 -0.690105
vt 0.080915 -0.690098
vt 0.080915 -0.802964
vt 0.377647 -0.802979
vt 0.298769 -0.690098
vt 0.377647 -0.690105
vt 0.298769 -0.802964
vt 0.040156 -0.079009
vt 0.064478 -0.079409
vt 0.065417 -0.232358
vt 0.233663 -0.802978
vt 0.233663 -0.690058
vt 0.092456 -0.716110
vt 0.092456 -0.765371
vt 0.152281 -0.690098
vt 0.152281 -0.802972
vt 0.227403 -0.802972
vt 0.227403 -0.690098
vt 0.040645 0.023922
vt 0.054724 0.004100
vt 0.026449 0.004565
vt 0.913591 -0.035085
vt 0.890292 -0.328756
vt 0.913474 -0.356655
vt 0.854558 -0.328756
vt 0.825396 -0.035085
vt 0.825514 -0.356655
vt 0.872425 -0.321681
vt 0.872425 -0.035085
vt 0.890292 -0.500926
vt 0.854558 -0.500926
vt 0.872425 -0.000926
vt 0.903739 -0.015025
vt 0.841111 -0.015025
vt 0.825568 -0.500926
vt 0.913419 -0.500926
vn -0.977800 0.000000 -0.209500
vn 0.000000 0.989900 -0.141400
vn 0.002500 0.904800 -0.425800
vn 0.002500 -0.904800 -0.425800
vn 0.433000 0.866000 0.250000
vn -0.433000 0.866000 0.250000
vn -0.433000 -0.866000 0.250000
vn 0.433000 -0.866000 0.250000
vn 0.000000 -0.989900 -0.141400
vn 0.000000 -0.999900 -0.015900
vn 0.000000 0.999900 -0.015900
vn 0.000000 -0.999900 0.015900
vn 0.000000 0.999900 0.015900
vn 0.002900 0.906400 -0.422500
vn 0.002900 -0.906400 -0.422500
vn -0.988800 0.000000 0.149100
vn -0.988800 0.000000 -0.149100
vn 0.002900 -0.906200 0.422800
vn 0.002900 0.906200 0.422800
vn 0.002500 -0.904600 0.426300
vn 0.002500 0.904600 0.426300
vn 0.000000 0.000000 -1.000000
vn 0.000000 0.989900 0.141400
vn 0.000000 0.000000 1.000000
vn 0.977800 0.000000 -0.209500
vn 0.000000 -0.866000 0.500000
vn 0.000000 0.866000 0.500000
vn 0.000000 -0.866000 -0.500000
vn 0.000000 0.866000 -0.500000
vn -0.977800 0.000000 0.209500
vn 1.000000 0.000000 -0.007900
vn 1.000000 0.000000 0.007900
vn 0.000000 -0.999400 -0.035100
vn -0.996200 0.000000 -0.087400
vn 0.000000 -0.999400 0.035100
vn -0.996200 0.000000 0.087400
vn 0.000000 -0.989900 0.141400
vn 0.977800 0.000000 0.209500
vn 0.433000 -0.866000 -0.250000
vn 0.433000 0.866000 -0.250000
vn -0.433000 -0.866000 -0.250000
vn -0.433000 0.866000 -0.250000
vn 0.000000 0.998600 -0.052600
vn 0.000000 0.998600 0.052600
vn 1.000000 0.000000 0.000000
vn 0.005400 -0.820900 0.571000
vn 0.005400 -0.821100 -0.570800
vn 0.005400 0.820900 0.571000
vn 0.005400 0.821100 -0.570800
vn 0.018700 0.906100 0.422700
vn 0.018700 -0.906100 0.422700
vn 0.018700 0.906200 -0.422400
vn 0.018700 -0.906200 -0.422400
vn -0.004900 0.931800 -0.363100
vn -0.004900 0.931800 0.363100
vn -0.004900 -0.931800 -0.363100
vn -0.004900 -0.931800 0.363100
vn -0.003200 0.929900 0.367900
vn -0.003200 0.929900 -0.367900
vn -0.003200 -0.929900 -0.367900
vn -0.003200 -0.929900 0.367900
vn 0.000000 -1.000000 0.000000
vn 0.000000 1.000000 0.000000
vn 0.000000 0.938800 -0.344500
vn 0.000000 -0.938800 -0.344500
vn -0.079900 -0.974600 -0.209200
vn -0.079900 0.974600 -0.209200
vn -0.079900 -0.974600 0.209200
vn -0.079900 0.974600 0.209200
vn 0.000000 0.938800 0.344500
vn 0.000000 -0.938800 0.344500
vn -0.002300 -0.954500 0.298300
vn -0.002300 0.954500 0.298300
vn -0.002300 -0.954500 -0.298300
vn -0.002300 0.954500 -0.298300
vn -0.005700 0.959300 0.282200
vn -0.005700 0.959300 -0.282200
vn 0.196100 0.980600 0.000000
vn -0.005700 -0.959300 0.282200
vn -0.005700 -0.959300 -0.282200
vn 0.196100 -0.980600 0.000000
vn -0.031000 -0.929400 0.367700
vn -0.031000 0.929400 0.367700
vn -0.031000 -0.929400 -0.367700
vn -0.031000 0.929400 -0.367700
usemtl ITMELEEREST
s off
f 47/1/1 9/1/1 18/2/1
f 46/3/2 18/2/2 9/1/2
f 31/4/3 71/5/3 11/6/3
f 30/4/4 11/6/4 71/5/4
f 48/7/5 14/8/5 36/9/5
f 15/10/6 14/8/6 49/11/6
f 49/11/7 17/8/7 15/10/7
f 36/9/8 17/8/8 48/7/8
f 46/3/2 35/12/2 18/2/2
f 8/12/9 47/1/9 32/2/9
f 21/13/10 19/14/10 72/15/10
f 19/14/11 21/13/11 50/16/11
f 24/17/12 73/18/12 22/19/12
f 22/19/13 51/20/13 24/17/13
f 31/4/14 69/21/14 71/5/14
f 30/4/15 71/5/15 68/21/15
f 21/13/16 41/16/16 50/16/16
f 19/14/11 50/16/11 64/15/11
f 24/17/17 51/20/17 43/20/17
f 22/19/13 65/18/13 51/20/13
f 30/4/18 68/21/18 70/22/18
f 31/4/19 70/22/19 69/21/19
f 30/4/20 70/22/20 13/23/20
f 31/4/21 13/23/21 70/22/21
f 35/12/22 32/2/22 18/2/22
f 47/1/1 18/2/1 32/2/1
f 8/12/9 45/3/9 47/1/9
f 46/3/23 9/1/23 38/24/23
f 34/25/24 10/24/24 33/25/24
f 45/3/25 35/12/25 46/3/25
f 35/12/22 8/12/22 32/2/22
f 45/3/25 8/12/25 35/12/25
f 15/10/26 17/8/26 36/9/26
f 36/9/27 14/8/27 15/10/27
f 16/26/28 17/8/28 37/27/28
f 37/27/29 14/8/29 16/26/29
f 47/1/30 38/24/30 9/1/30
f 34/25/24 38/24/24 10/24/24
f 19/14/31 64/15/31 72/15/31
f 22/19/32 73/18/32 65/18/32
f 41/16/33 26/28/33 42/29/33
f 21/13/10 72/15/10 41/16/10
f 50/16/34 41/16/34 42/29/34
f 43/20/35 44/30/35 27/31/35
f 24/17/12 43/20/12 73/18/12
f 51/20/36 44/30/36 43/20/36
f 33/25/37 47/1/37 45/3/37
f 45/3/38 34/25/38 33/25/38
f 46/3/23 38/24/23 34/25/23
f 45/3/38 46/3/38 34/25/38
f 47/1/30 10/24/30 38/24/30
f 33/25/37 10/24/37 47/1/37
f 48/7/39 17/8/39 16/26/39
f 16/26/40 14/8/40 48/7/40
f 37/27/41 17/8/41 49/11/41
f 49/11/42 14/8/42 37/27/42
f 64/15/43 50/16/43 20/29/43
f 50/16/34 42/29/34 20/29/34
f 65/18/44 23/30/44 51/20/44
f 51/20/36 23/30/36 44/30/36
f 72/15/45 64/15/45 39/28/45
f 64/15/43 20/29/43 39/28/43
f 73/18/45 40/31/45 65/18/45
f 65/18/44 40/31/44 23/30/44
f 68/21/46 28/32/46 25/33/46
f 68/21/47 12/34/47 28/32/47
f 69/21/48 25/33/48 29/32/48
f 69/21/49 29/32/49 12/34/49
f 69/21/50 70/22/50 25/33/50
f 68/21/51 25/33/51 70/22/51
f 69/21/52 12/34/52 71/5/52
f 68/21/53 71/5/53 12/34/53
f 41/16/33 72/15/33 26/28/33
f 72/15/45 39/28/45 26/28/45
f 43/20/35 27/31/35 73/18/35
f 73/18/45 27/31/45 40/31/45
usemtl ITMELEEBLADES
f 67/35/54 61/36/54 59/37/54
f 60/38/55 66/39/55 58/40/55
f 67/35/56 59/37/56 63/36/56
f 62/38/57 58/40/57 66/39/57
f 66/39/58 2/41/58 1/42/58
f 2/41/59 67/35/59 1/42/59
f 4/41/60 6/42/60 67/35/60
f 66/39/61 6/42/61 4/41/61
f 63/36/62 53/43/62 57/44/62
f 61/36/63 56/44/63 52/43/63
f 59/37/64 61/36/64 52/43/64
f 59/37/65 53/43/65 63/36/65
f 6/42/66 5/45/66 54/46/66
f 1/42/67 54/46/67 5/45/67
f 6/42/68 55/47/68 5/45/68
f 1/42/69 5/45/69 55/47/69
f 58/40/70 56/44/70 60/38/70
f 58/40/71 62/38/71 57/44/71
f 58/40/72 57/44/72 7/48/72
f 58/40/73 7/48/73 56/44/73
f 59/37/74 3/49/74 53/43/74
f 59/37/75 52/43/75 3/49/75
f 60/38/76 2/41/76 66/39/76
f 56/44/63 61/36/63 60/38/63
f 67/35/77 2/41/77 61/36/77
f 2/41/78 60/38/78 61/36/78
f 62/38/79 66/39/79 4/41/79
f 57/44/62 62/38/62 63/36/62
f 67/35/80 63/36/80 4/41/80
f 4/41/81 63/36/81 62/38/81
f 55/47/82 6/42/82 66/39/82
f 55/47/83 66/39/83 1/42/83
f 54/46/84 67/35/84 6/42/84
f 54/46/85 1/42/85 67/35/85
