# Blender v2.75 (sub 0) OBJ File: 'Empty.blend'
# www.blender.org
mtllib ITMW_1H_HATCHET_01.mtl
o ITMW_1H_HATCHET_01
v -0.370071 -0.000000 0.156076
v -0.290071 0.025000 -0.045680
v -0.240071 -0.000000 0.156076
v -0.370071 -0.010000 -0.005680
v 0.155850 -0.015000 -0.015680
v 0.155850 0.015000 0.014320
v -0.370071 0.010000 0.014320
v -0.290071 -0.025000 -0.045680
v 0.155850 -0.015000 0.014320
v 0.155850 0.015000 -0.015680
v -0.320071 0.025000 -0.045680
v -0.320071 -0.025000 -0.045680
v -0.370071 -0.010000 0.014320
v -0.370071 0.010000 -0.005680
vt 0.881903 -0.553416
vt 0.898555 -0.159383
vt 0.898555 -0.555568
vt 0.865589 -0.553416
vt 0.865589 -0.156513
vt 0.881988 -0.156513
vt 0.983514 -0.736265
vt 0.983514 -0.710676
vt 0.960659 -0.736265
vt 0.881903 -0.156513
vt 0.960659 -0.710676
vt 0.875291 -0.639790
vt 0.744896 -0.548871
vt 0.745655 -0.700353
vt 0.875115 -0.604833
vt 0.746399 -0.620506
vt 0.921497 -0.660640
vt 0.970548 -0.532596
vt 0.921497 -0.532596
vt 0.970548 -0.660640
vn -0.019000 0.000000 -0.999800
vn -0.009500 -1.000000 0.000000
vn 1.000000 0.000000 0.000000
vn -0.000000 0.000000 1.000000
vn -0.009500 1.000000 0.000000
vn -1.000000 0.000000 0.000000
vn 0.000000 -0.992400 0.123000
vn -0.000000 0.992400 0.123000
vn 0.970600 -0.000000 -0.240500
vn -0.970600 0.000000 -0.240500
vn 0.000000 0.000000 -1.000000
usemtl ITMELEEREST
s off
f 5/1/1 14/2/1 10/3/1
f 5/1/2 9/4/2 13/5/2
f 14/2/1 5/1/1 4/6/1
f 5/1/2 13/5/2 4/6/2
f 5/7/3 10/8/3 9/9/3
f 9/4/4 6/1/4 7/10/4
f 10/8/3 6/11/3 9/9/3
f 10/3/5 7/10/5 6/1/5
f 9/4/4 7/10/4 13/5/4
f 7/8/6 4/9/6 13/7/6
f 10/3/5 14/2/5 7/10/5
f 4/9/6 7/8/6 14/11/6
usemtl ITMELEEBLADES
f 12/12/7 3/13/7 1/14/7
f 11/15/8 1/13/8 3/14/8
f 3/16/9 8/12/9 2/15/9
f 1/16/10 11/15/10 12/12/10
f 8/17/11 11/18/11 2/19/11
f 11/15/8 3/14/8 2/12/8
f 3/13/7 12/12/7 8/15/7
f 11/18/11 8/17/11 12/20/11
