# Blender v2.75 (sub 0) OBJ File: 'Empty.blend'
# www.blender.org
mtllib ITMW_1H_SWORD_BASTARD_04.mtl
o ITMW_1H_SWORD_BASTARD_04
v -0.235000 0.000000 0.070000
v -0.955000 -0.007500 -0.010000
v -0.650000 -0.000500 -0.075000
v -0.035000 -0.007500 -0.065000
v -0.500000 -0.007500 -0.030000
v -0.035000 0.007500 0.065000
v -0.083839 -0.002080 -0.140938
v -0.039175 -0.011360 0.068048
v -0.015092 -0.011360 -0.075134
v 0.200000 0.000000 0.025981
v 0.200000 0.000000 -0.025981
v 0.245000 0.000000 0.000000
v -0.075625 0.010300 0.000000
v -0.083839 -0.002080 0.140938
v -0.040042 -0.004860 0.115622
v -0.014600 0.000000 -0.023589
v 0.204400 0.000000 -0.019749
v -0.014600 0.000000 0.023589
v 0.204400 0.000000 0.019749
v -0.715000 -0.007500 -0.035000
v -1.020000 0.000000 -0.025000
v -0.250000 0.007500 0.035000
v -0.075625 -0.010300 0.000000
v -0.250000 0.007500 -0.035000
v -0.590000 0.007500 -0.045000
v -0.715000 0.007500 -0.035000
v -0.039175 0.011360 0.068048
v 0.215000 0.015000 0.000000
v 0.215000 -0.015000 0.000000
v -0.039175 0.011360 -0.068048
v -0.039175 -0.011360 -0.068048
v -0.035000 0.007500 -0.065000
v -0.035000 -0.007500 0.065000
v -0.250000 -0.007500 0.035000
v -0.015092 0.011360 0.075134
v -0.040042 -0.004860 -0.115622
v -0.015092 0.011360 -0.075134
v -0.880000 0.000000 0.040000
v 0.209800 -0.009504 0.000001
v -0.015092 -0.011360 0.075134
v 0.209800 0.008504 0.000001
v -0.014400 -0.009102 0.000003
v -0.014400 0.008602 0.000003
v -0.040042 0.005860 -0.115622
v -0.040042 0.005860 0.115622
v -0.053666 -0.004860 0.102494
v -0.053666 -0.004860 -0.102494
v -0.800019 0.000000 -0.033981
v -0.955000 0.007500 -0.010000
v 0.230000 0.000000 0.025981
v 0.185000 0.000000 -0.000000
v 0.230000 0.000000 -0.025981
v -0.083809 0.002080 -0.140672
v -0.083809 0.002080 0.140672
v -0.590000 -0.007500 -0.045000
v -0.820000 0.007500 -0.020000
v -0.820000 -0.007500 -0.020000
v -0.009875 0.010300 0.000000
v -0.500000 0.007500 -0.030000
v -0.250000 -0.007500 -0.035000
v -0.053666 0.005860 0.102494
v -0.053666 0.005860 -0.102494
v -0.940000 0.000000 -0.030000
v -0.009875 -0.010300 0.000000
v -0.735000 0.000000 0.055000
v -0.860000 0.007500 0.020000
v -0.860000 -0.007500 0.020000
v -0.957085 0.000000 0.012206
v -0.750000 0.007500 0.030000
v -0.750000 -0.007500 0.030000
vt 0.088732 -0.700079
vt 0.189180 -0.699893
vt 0.098205 -0.765720
vt 0.189180 -0.808950
vt 0.574691 -0.865661
vt 0.553488 -0.908066
vt 0.532286 -0.865661
vt 0.377603 -0.781829
vt 0.326206 -0.784487
vt 0.343758 -0.700969
vt 0.280155 -0.765720
vt 0.289628 -0.700079
vt 0.377247 -0.781789
vt 0.010444 -0.455691
vt 0.045174 -0.455495
vt 0.045171 -0.235726
vt 0.016097 -0.241019
vt 0.595894 -0.823256
vt 0.553488 -0.823256
vt 0.595894 -0.908066
vt 0.617096 -0.865661
vt 0.052154 -0.784487
vt 0.034602 -0.700969
vt 0.001113 -0.781789
vt 0.000757 -0.781829
vt 0.074241 -0.241019
vt 0.079894 -0.455691
vt 0.106021 -0.654260
vt 0.101666 -0.894170
vt 0.158274 -0.774215
vt 0.162629 -0.894170
vt 0.153625 -0.731031
vt 0.148852 -0.671054
vt 0.170396 -0.997331
vt 0.093899 -0.997331
vt 0.183688 -0.702242
vt 0.132000 -0.555897
vt 0.149418 -0.563094
vt 0.138741 -0.620673
vt 0.097730 -0.750844
vt 0.092121 -0.637369
vt 0.113893 -0.630172
vt 0.067249 -0.758042
vt 0.150916 -0.630260
vt 0.071185 -0.901367
vt 0.093376 -0.577431
vt 0.103805 -0.542852
vt 0.137191 -0.524709
vt 0.114730 -0.601480
vt 0.134239 -0.492190
vn 0.997600 0.000000 -0.069300
vn 0.005400 0.999800 0.018500
vn -0.433000 -0.866000 0.250000
vn -0.433000 0.866000 0.250000
vn 0.000000 0.999900 0.014100
vn 0.000000 -0.999900 0.014100
vn -0.039600 -0.998400 0.041100
vn 0.005400 -0.999800 -0.018500
vn -0.054000 0.997000 0.056100
vn 0.005400 0.999800 -0.018500
vn 0.000400 0.939500 -0.342500
vn -0.001700 -0.933000 -0.359900
vn 0.007000 0.917800 -0.397100
vn 0.007600 -0.900300 -0.435300
vn -0.881500 0.000000 0.472200
vn -0.881500 0.000000 -0.472200
vn -0.784900 0.000000 -0.619700
vn 0.000000 0.866000 -0.500000
vn 0.433000 0.866000 0.250000
vn 0.000000 -0.866000 -0.500000
vn 0.433000 -0.866000 0.250000
vn -0.096100 -0.990400 -0.099800
vn 0.005400 -0.999800 0.018500
vn -0.784900 0.000000 0.619700
vn 0.500400 0.000000 0.865800
vn -0.039600 -0.998400 -0.041100
vn -0.054000 0.997000 -0.056100
vn 0.851300 0.000000 -0.524600
vn 0.500400 0.000000 -0.865800
vn 0.007600 -0.900200 0.435300
vn -0.096100 -0.990400 0.099800
vn 0.851300 0.000000 0.524600
vn 0.007000 0.917700 0.397100
vn -0.001700 -0.932900 0.360000
vn 0.000400 0.939500 0.342600
vn -0.081600 0.993100 -0.084600
vn -0.081600 0.993100 0.084600
vn -0.048700 -0.985000 0.165400
vn -0.921800 0.000000 -0.387800
vn -0.048700 -0.985000 -0.165400
vn -0.921800 0.000000 0.387800
vn 0.000000 -0.866000 0.500000
vn 0.000000 0.866000 0.500000
vn -0.433000 -0.866000 -0.250000
vn -0.433000 0.866000 -0.250000
vn 0.433000 -0.866000 -0.250000
vn 0.433000 0.866000 -0.250000
vn 0.492700 0.052000 -0.868700
vn -0.787400 -0.033700 0.615500
vn 0.492700 0.052000 0.868700
vn -0.787400 -0.033700 -0.615500
vn 0.997600 0.000000 0.069300
vn 0.000000 0.999900 -0.014100
vn -0.041400 0.989200 0.140600
vn -0.041400 0.989200 -0.140600
vn 0.000000 -0.999900 -0.014100
vn 0.000000 1.000000 0.000000
vn 0.000000 -1.000000 0.000000
vn -0.017900 0.974400 -0.224000
vn -0.027300 -0.929100 -0.368900
vn -0.002900 -0.957300 0.288900
vn -0.006400 0.977200 0.212100
vn -0.006400 -0.977200 0.212100
vn -0.020000 0.000000 -0.999800
vn 0.164400 0.000000 -0.986400
vn -0.524100 0.000000 -0.851700
vn -0.013900 -0.872700 -0.488000
vn -0.138200 0.000000 -0.990400
vn -0.138200 0.000000 0.990400
vn 0.919100 0.000000 -0.393900
vn -0.111300 -0.944700 0.308600
vn -0.002900 0.957300 0.288900
vn -0.012000 0.000000 -0.999900
vn -0.013900 0.872700 -0.488000
vn -0.027300 0.929100 -0.368900
vn -0.111300 0.944700 0.308600
vn 0.447200 0.000000 -0.894400
vn -0.015800 -0.980200 -0.197200
vn -0.079600 0.826600 -0.557200
vn -0.079600 -0.826600 -0.557200
vn -0.022900 -0.930300 -0.366000
vn -0.022900 0.930300 -0.366000
vn -0.033300 -0.946300 0.321600
vn -0.033300 0.946300 0.321600
vn -0.086200 0.958100 0.273100
vn -0.086200 -0.958100 0.273100
vn -0.177400 -0.937300 0.299900
vn -0.177400 0.937300 0.299900
vn -0.027500 0.952800 0.302300
vn -0.027500 -0.952800 0.302300
usemtl ITMELEEREST
s off
f 9/1/1 37/1/1 58/2/1
f 37/1/2 30/3/2 13/4/2
f 29/5/3 10/6/3 51/7/3
f 28/5/4 51/7/4 10/6/4
f 37/1/5 13/4/5 58/2/5
f 23/4/6 9/1/6 64/2/6
f 14/8/7 46/9/7 15/10/7
f 8/11/8 23/4/8 40/12/8
f 54/13/9 45/10/9 61/9/9
f 35/12/10 13/4/10 27/11/10
f 16/14/11 43/15/11 41/16/11
f 39/16/12 42/15/12 16/14/12
f 41/16/13 17/17/13 16/14/13
f 16/14/14 17/17/14 39/16/14
f 23/4/15 27/11/15 13/4/15
f 23/4/16 13/4/16 30/3/16
f 23/4/15 8/11/15 27/11/15
f 46/9/17 54/13/17 61/9/17
f 28/5/18 52/18/18 11/19/18
f 28/5/19 50/20/19 12/21/19
f 29/5/20 11/19/20 52/18/20
f 29/5/21 12/21/21 50/20/21
f 9/1/22 47/22/22 36/23/22
f 31/3/23 9/1/23 23/4/23
f 23/4/16 30/3/16 31/3/16
f 47/22/24 62/22/24 53/24/24
f 9/1/1 58/2/1 64/2/1
f 14/8/25 15/10/25 45/10/25
f 7/25/26 36/23/26 47/22/26
f 53/24/27 62/22/27 44/23/27
f 36/23/28 37/1/28 9/1/28
f 7/25/29 44/23/29 36/23/29
f 39/16/30 19/26/30 18/27/30
f 40/12/31 15/10/31 46/9/31
f 15/10/32 40/12/32 35/12/32
f 18/27/33 19/26/33 41/16/33
f 18/27/34 42/15/34 39/16/34
f 41/16/35 43/15/35 18/27/35
f 37/1/36 44/23/36 62/22/36
f 36/23/28 44/23/28 37/1/28
f 35/12/37 61/9/37 45/10/37
f 15/10/32 35/12/32 45/10/32
f 40/12/38 46/9/38 8/11/38
f 8/11/39 46/9/39 61/9/39
f 9/1/40 31/3/40 47/22/40
f 31/3/41 62/22/41 47/22/41
f 29/5/42 50/20/42 10/6/42
f 28/5/43 10/6/43 50/20/43
f 29/5/44 51/7/44 11/19/44
f 28/5/45 11/19/45 51/7/45
f 29/5/46 52/18/46 12/21/46
f 28/5/47 12/21/47 52/18/47
f 7/25/48 53/24/48 44/23/48
f 47/22/49 53/24/49 7/25/49
f 14/8/50 45/10/50 54/13/50
f 46/9/51 14/8/51 54/13/51
f 40/12/52 58/2/52 35/12/52
f 35/12/53 58/2/53 13/4/53
f 35/12/54 27/11/54 61/9/54
f 8/11/39 61/9/39 27/11/39
f 37/1/55 62/22/55 30/3/55
f 31/3/41 30/3/41 62/22/41
f 40/12/52 64/2/52 58/2/52
f 23/4/56 64/2/56 40/12/56
usemtl ITMELEEBLADES
f 69/28/57 22/29/57 59/30/57
f 70/28/58 5/30/58 34/29/58
f 34/29/58 5/30/58 60/31/58
f 22/29/57 24/31/57 59/30/57
f 70/28/58 55/32/58 5/30/58
f 70/28/58 20/33/58 55/32/58
f 32/34/57 22/29/57 6/35/57
f 4/34/58 33/35/58 34/29/58
f 69/28/57 25/32/57 26/33/57
f 26/33/59 25/32/59 3/36/59
f 2/37/60 63/38/60 57/39/60
f 34/40/61 65/41/61 70/42/61
f 22/40/62 65/41/62 1/43/62
f 34/40/63 1/43/63 65/41/63
f 5/30/64 24/31/64 60/31/64
f 24/31/57 22/29/57 32/34/57
f 55/32/65 59/30/65 5/30/65
f 24/31/64 5/30/64 59/30/64
f 26/33/66 3/36/66 20/33/66
f 57/39/67 63/38/67 48/44/67
f 32/34/68 60/31/68 24/31/68
f 6/35/69 34/29/69 33/35/69
f 34/29/69 6/35/69 22/29/69
f 22/29/70 1/45/70 34/29/70
f 2/37/71 38/46/71 68/47/71
f 22/40/72 69/42/72 65/41/72
f 48/44/73 26/33/73 20/33/73
f 56/39/74 48/44/74 63/38/74
f 49/37/75 56/39/75 63/38/75
f 49/37/76 68/47/76 38/46/76
f 3/36/77 25/32/77 55/32/77
f 20/33/78 3/36/78 55/32/78
f 69/28/57 26/33/57 56/39/57
f 48/44/79 56/39/79 26/33/79
f 70/28/58 57/39/58 20/33/58
f 48/44/80 20/33/80 57/39/80
f 59/30/65 55/32/65 25/32/65
f 69/28/57 59/30/57 25/32/57
f 60/31/68 32/34/68 4/34/68
f 60/31/58 4/34/58 34/29/58
f 21/48/81 63/38/81 2/37/81
f 21/48/82 49/37/82 63/38/82
f 65/41/83 38/46/83 67/49/83
f 65/41/84 66/49/84 38/46/84
f 66/49/57 56/39/57 49/37/57
f 49/37/85 38/46/85 66/49/85
f 67/49/58 2/37/58 57/39/58
f 2/37/86 67/49/86 38/46/86
f 68/47/87 21/50/87 2/37/87
f 68/47/88 49/37/88 21/50/88
f 69/28/57 56/39/57 66/49/57
f 66/49/89 65/41/89 69/42/89
f 70/28/58 67/49/58 57/39/58
f 67/49/90 70/42/90 65/41/90
