# Blender v2.75 (sub 0) OBJ File: 'Empty.blend'
# www.blender.org
mtllib ITMW_1H_AXE_OLD_01.mtl
o ITMW_1H_AXE_OLD_01
v -0.530932 0.006508 0.183415
v -0.443436 0.003226 0.082792
v -0.517320 0.003240 0.001620
v -0.624404 0.009474 0.158832
v -0.565920 -0.003240 0.001620
v -0.575202 0.009352 0.199695
v -0.430191 0.005405 0.124367
v -0.694504 -0.015054 0.113680
v -0.635185 0.005067 0.117921
v -0.380669 0.024018 0.117618
v -0.428492 0.007606 0.166366
v -0.599089 0.004146 0.100356
v -0.584550 -0.000000 -0.018358
v 0.199300 -0.000000 -0.018552
v -0.584550 -0.000000 0.018497
v 0.199300 -0.000000 0.017851
v -0.476248 0.003264 0.083520
v -0.577937 -0.000558 0.143848
v -0.512181 0.009326 0.199199
v -0.577937 0.013371 0.143118
v -0.646681 0.007606 0.166366
v -0.584550 0.011340 0.000069
v -0.584550 -0.011340 0.000069
v 0.199300 0.011196 0.000089
v 0.199300 -0.011038 0.000089
v -0.507857 0.007954 0.058790
v -0.507857 -0.003985 0.059416
v -0.517320 -0.003240 0.001620
v -0.565920 0.003240 0.001620
v -0.580925 -0.003995 0.059226
v -0.527597 0.010275 0.186051
v -0.433473 0.011381 0.143222
v -0.580925 0.007944 0.058600
v -0.433473 0.001432 0.143743
v -0.618059 0.004207 0.156991
v -0.637715 0.003422 0.143639
v -0.493020 -0.000000 -0.018358
v -0.493020 -0.000000 0.018497
v -0.540000 -0.016200 0.000099
v -0.540000 0.016200 0.000099
v -0.540000 -0.000000 0.026424
v -0.540000 -0.000000 -0.026226
v -0.637715 0.009391 0.143326
v -0.468343 -0.000393 0.108921
v -0.468343 0.009556 0.108399
v -0.508195 0.013371 0.143118
v -0.508195 -0.000558 0.143848
v -0.442645 0.004561 0.108261
v -0.493020 0.011340 0.000069
v -0.493020 -0.011340 0.000069
v -0.155075 -0.000000 0.018497
v -0.098750 -0.011038 0.000089
v -0.155075 -0.000000 -0.018358
v -0.098750 0.011196 0.000089
v -0.098750 -0.000000 0.017851
v -0.155075 -0.011340 0.000069
v -0.155075 0.011340 0.000069
v -0.098750 -0.000000 -0.018552
vt 0.841244 -0.599749
vt 0.878621 -0.651188
vt 0.841120 -0.658842
vt 0.792364 -0.658568
vt 0.808694 -0.690797
vt 0.796975 -0.602166
vt 0.751248 -0.656473
vt 0.752440 -0.724155
vt 0.878621 -0.611884
vt 0.766872 -0.565350
vt 0.751230 -0.605507
vt 0.764288 -0.640987
vt 0.768386 -0.718998
vt 0.754391 -0.509024
vt 0.791568 -0.555867
vt 0.772997 -0.553822
vt 0.770982 -0.570376
vt 0.754174 -0.762831
vt 0.798416 -0.721652
vt 0.814127 -0.585060
vt 0.808955 -0.711580
vt 0.825620 -0.710940
vt 0.761968 -0.643741
vt 0.825144 -0.684405
vt 0.752440 -0.547699
vt 0.795295 -0.918585
vt 0.795295 -0.516262
vt 0.818215 -0.516262
vt 0.818215 -0.918585
vt 0.465856 -0.232153
vt 0.465856 -0.473220
vt 0.436388 -0.473220
vt 0.436388 -0.232153
vt 0.047329 -0.396946
vt 0.026816 -0.396946
vt 0.772376 -0.516262
vt 0.066560 -0.396946
vt 0.772376 -0.918585
vt 0.406920 -0.232153
vt 0.406920 -0.473220
vt 0.557673 -0.692233
vt 0.587141 -0.692233
vt 0.528206 -0.692233
vt 0.026816 -0.316175
vt 0.026816 -0.358484
vt 0.047329 -0.358484
vt 0.066560 -0.316175
vt 0.066560 -0.358484
vt 0.047329 -0.316175
vt 0.067491 -0.938081
vt 0.060877 -0.997383
vt 0.090528 -0.997383
vt 0.090553 -0.938081
vt 0.113614 -0.938081
vt 0.120179 -0.997383
vn 0.000200 -0.999900 -0.012900
vn 0.039800 0.997200 -0.063900
vn 0.000000 0.997900 -0.064100
vn 0.050000 -0.982600 0.179100
vn 0.000000 -0.999900 -0.013100
vn 0.000000 0.996600 -0.082300
vn -0.058600 0.995600 0.073500
vn 0.001000 -0.984600 0.174700
vn 0.026600 0.996500 -0.078900
vn 0.026600 -0.999300 0.025700
vn 0.322900 -0.946000 -0.028800
vn -0.066000 0.982600 -0.173800
vn -0.303300 0.933900 -0.189200
vn -0.058600 -0.982400 0.177200
vn 0.026100 0.987500 0.155500
vn -0.141000 0.971800 0.188900
vn 0.332400 -0.933400 -0.135100
vn 0.211900 -0.963800 -0.161700
vn -0.062900 0.981500 -0.180600
vn 0.000000 -0.999200 0.040600
vn 0.190200 0.980100 -0.057300
vn 0.190200 -0.980700 0.045500
vn -0.066000 -0.995300 -0.070200
vn -0.062900 -0.995000 -0.077100
vn 0.000000 -0.984400 0.175800
vn 0.001000 0.997500 0.070800
vn 0.000000 0.997400 0.071900
vn 0.050000 0.995900 0.075400
vn -0.066200 0.996500 0.051500
vn -0.066200 -0.985600 0.155400
vn 0.986800 -0.008500 -0.161700
vn 0.000100 0.996600 -0.082200
vn 0.039800 -0.998400 0.040700
vn 0.611800 -0.041400 -0.789900
vn 0.986600 0.000000 -0.163300
vn -0.967700 0.000000 -0.252100
vn -0.967200 -0.013300 -0.253600
vn -0.312900 -0.948500 0.049600
vn 0.214100 -0.680200 0.701100
vn -0.647000 0.039900 0.761500
vn 0.211900 0.941600 -0.261600
vn -0.371100 0.864600 -0.338700
vn -0.916100 -0.021000 -0.400400
vn -0.312900 0.948500 -0.049800
vn 0.026100 -0.965800 0.257800
vn 0.447900 -0.882700 0.142300
vn 0.316200 0.049700 0.947400
vn -0.443900 -0.720800 0.532400
vn 0.179900 -0.952300 0.246300
vn -0.363600 0.929000 -0.069500
vn 0.393400 -0.884800 -0.249800
vn -0.004300 -0.990000 -0.141200
vn 0.393400 0.853800 -0.340900
vn -0.004300 0.969800 -0.243900
vn 0.186200 -0.978100 -0.092700
vn 0.186200 0.963100 -0.194400
vn 0.000000 -0.851700 -0.524100
vn 0.000000 0.851700 -0.524100
vn 0.000000 -0.860500 -0.509500
vn 0.000000 0.857300 -0.514900
vn -1.000000 0.000000 0.000000
vn 0.000000 0.851700 0.524100
vn 0.000000 -0.851700 0.524100
vn 0.000000 0.846000 0.533200
vn 1.000000 0.000000 0.000000
vn 0.000000 -0.849400 0.527800
vn 0.087400 0.848400 -0.522100
vn 0.087400 -0.848400 -0.522100
vn 0.088100 0.848300 0.522100
vn 0.088100 -0.848300 0.522100
vn -0.092200 -0.848000 -0.521900
vn -0.092900 -0.848000 0.521800
vn -0.092900 0.848000 0.521800
vn -0.092200 0.848000 -0.521900
vn 0.006100 0.845900 0.533200
vn 0.006000 -0.849300 0.527800
vn 0.004800 -0.851600 -0.524100
vn 0.004400 -0.851700 0.524100
vn 0.002000 0.851700 0.524100
vn 0.002400 0.851700 -0.524100
vn -0.001800 0.857300 -0.514900
vn -0.001800 -0.860500 -0.509500
usemtl ITMELEEBLADES
s off
f 30/1/1 28/2/1 27/3/1
f 26/3/2 46/4/2 45/5/2
f 20/6/3 26/3/3 33/1/3
f 19/7/4 47/4/4 11/8/4
f 30/1/5 5/9/5 28/2/5
f 33/1/6 3/2/6 29/9/6
f 4/10/7 6/11/7 20/6/7
f 6/11/8 18/6/8 1/12/8
f 46/4/9 32/13/9 45/5/9
f 47/4/10 44/5/10 34/13/10
f 8/14/11 9/15/11 36/16/11
f 9/15/12 43/16/12 20/6/12
f 8/14/13 43/16/13 9/15/13
f 35/17/14 18/6/14 6/11/14
f 11/8/15 32/13/15 46/4/15
f 32/13/16 11/8/16 10/18/16
f 34/13/17 7/19/17 10/18/17
f 44/5/18 7/19/18 34/13/18
f 20/6/19 12/20/19 9/15/19
f 18/6/20 30/1/20 27/3/20
f 45/5/21 48/21/21 2/22/21
f 44/5/22 2/22/22 48/21/22
f 18/6/23 36/16/23 9/15/23
f 9/15/24 12/20/24 18/6/24
f 1/12/25 47/4/25 19/7/25
f 20/6/26 6/11/26 31/23/26
f 31/23/27 19/7/27 46/4/27
f 46/4/28 19/7/28 11/8/28
f 4/10/29 20/6/29 43/16/29
f 35/17/30 36/16/30 18/6/30
f 26/3/31 27/3/31 28/2/31
f 33/1/32 26/3/32 3/2/32
f 27/3/33 44/5/33 47/4/33
f 17/24/34 27/3/34 26/3/34
f 28/2/35 3/2/35 26/3/35
f 29/9/36 5/9/36 30/1/36
f 30/1/37 33/1/37 29/9/37
f 12/20/38 30/1/38 18/6/38
f 6/11/39 1/12/39 31/23/39
f 31/23/40 1/12/40 19/7/40
f 45/5/41 32/13/41 7/19/41
f 32/13/42 10/18/42 7/19/42
f 30/1/43 12/20/43 33/1/43
f 12/20/44 20/6/44 33/1/44
f 47/4/45 34/13/45 11/8/45
f 34/13/46 10/18/46 11/8/46
f 4/10/47 21/25/47 35/17/47
f 4/10/48 35/17/48 6/11/48
f 21/25/49 8/14/49 36/16/49
f 21/25/30 36/16/30 35/17/30
f 21/25/50 43/16/50 8/14/50
f 21/25/29 4/10/29 43/16/29
f 27/3/51 17/24/51 44/5/51
f 44/5/52 17/24/52 2/22/52
f 26/3/53 45/5/53 17/24/53
f 45/5/54 2/22/54 17/24/54
f 20/6/3 46/4/3 26/3/3
f 20/6/27 31/23/27 46/4/27
f 18/6/20 27/3/20 47/4/20
f 18/6/25 47/4/25 1/12/25
f 44/5/55 48/21/55 7/19/55
f 45/5/56 7/19/56 48/21/56
usemtl ITMELEEREST
f 56/26/57 50/27/57 37/28/57
f 49/27/58 57/26/58 53/29/58
f 58/30/59 14/31/59 25/32/59
f 14/31/60 58/30/60 54/33/60
f 22/34/61 13/35/61 23/34/61
f 57/26/62 49/27/62 38/36/62
f 23/34/61 15/37/61 22/34/61
f 50/27/63 56/26/63 51/38/63
f 55/39/64 16/40/64 24/32/64
f 25/41/65 14/42/65 24/41/65
f 24/41/65 16/43/65 25/41/65
f 16/40/66 55/39/66 52/33/66
f 37/44/67 42/45/67 40/46/67
f 37/44/68 39/46/68 42/45/68
f 38/47/69 40/46/69 41/48/69
f 38/47/70 41/48/70 39/46/70
f 39/46/71 23/34/71 13/35/71
f 39/46/72 15/37/72 23/34/72
f 40/46/73 22/34/73 15/37/73
f 40/46/74 13/35/74 22/34/74
f 15/37/73 41/48/73 40/46/73
f 39/46/72 41/48/72 15/37/72
f 40/46/74 42/45/74 13/35/74
f 13/35/71 42/45/71 39/46/71
f 38/47/69 49/49/69 40/46/69
f 40/46/67 49/49/67 37/44/67
f 37/44/68 50/49/68 39/46/68
f 39/46/70 50/49/70 38/47/70
f 38/36/62 51/38/62 57/26/62
f 51/38/63 38/36/63 50/27/63
f 25/32/59 52/33/59 58/30/59
f 52/33/66 25/32/66 16/40/66
f 53/29/58 37/28/58 49/27/58
f 37/28/57 53/29/57 56/26/57
f 24/32/64 54/33/64 55/39/64
f 54/33/60 24/32/60 14/31/60
f 51/50/75 55/51/75 54/52/75
f 52/52/76 55/51/76 51/50/76
f 52/52/77 56/53/77 53/54/77
f 52/52/78 51/50/78 56/53/78
f 54/52/79 57/53/79 51/50/79
f 54/52/80 53/54/80 57/53/80
f 54/52/81 58/55/81 53/54/81
f 53/54/82 58/55/82 52/52/82
