# Blender v2.75 (sub 0) OBJ File: 'Empty.blend'
# www.blender.org
mtllib ITMW_2H_SWORD_SLEEPER_01.mtl
o ITMW_2H_SWORD_SLEEPER_01
v -0.019858 0.000000 -0.068438
v -1.128856 0.000000 -0.042272
v -0.019858 0.000000 0.068438
v -0.319838 0.000000 -0.088731
v -0.498748 0.000000 0.000000
v -0.374288 0.000000 0.000000
v -0.319838 0.000000 0.088731
v -0.615856 0.000000 -0.087897
v -0.784098 0.000000 0.000000
v -0.659638 0.000000 0.000000
v -0.615856 0.000000 0.087897
v -1.321624 0.000000 0.042801
v -1.397082 0.000000 0.000000
v -1.321624 0.000000 -0.042801
v -1.103296 0.000000 -0.066673
v -1.128856 0.000000 0.042272
v -0.910480 0.000000 -0.074588
v -1.058054 0.000000 0.000000
v -0.933594 0.000000 0.000000
v -0.910480 0.000000 0.074588
v 0.002489 0.014935 -0.000011
v -1.103296 0.000000 0.066673
v -1.170860 0.008250 0.000000
v -0.036890 -0.007446 -0.090906
v -0.116634 0.003723 -0.109240
v -0.049871 0.000000 -0.052319
v -0.036890 -0.007446 0.090906
v -0.116634 0.003723 0.109240
v -0.049871 0.000000 0.052319
v -0.005069 0.000000 -0.019538
v 0.262553 0.000000 -0.014587
v -0.005069 0.000000 0.019538
v -0.196181 0.018140 0.000000
v -0.076603 0.000000 -0.000000
v -0.196181 -0.018140 0.000000
v -0.071007 -0.003734 -0.135239
v -0.039827 0.004356 -0.149438
v -0.071007 -0.003734 0.135239
v -0.039827 0.004356 0.149438
v -0.123388 0.000000 -0.160683
v -0.078453 0.000000 -0.168151
v -0.123388 0.000000 0.160683
v -0.078453 0.000000 0.168151
v 0.275608 0.014819 0.000000
v 0.260789 0.000000 0.025667
v 0.290427 0.000000 -0.025667
v 0.275608 -0.014819 0.000000
v 0.002489 -0.014935 -0.000011
v 0.262553 0.000000 0.014587
v -0.105939 0.000000 -0.025920
v -1.170860 -0.008250 0.000000
v -0.053518 -0.014935 -0.051072
v -0.053518 -0.014935 0.051072
v -0.036890 0.007446 -0.090906
v -0.036890 0.007446 0.090906
v -0.053518 0.014935 0.051072
v -0.042969 -0.014935 0.089774
v -0.053518 0.014935 -0.051072
v -0.042969 -0.014935 -0.089774
v -0.031121 -0.014935 -0.013261
v -0.031121 -0.014935 0.013261
v -0.042969 0.014935 -0.089774
v -0.042969 0.014935 0.089774
v -0.184028 0.000000 -0.096115
v -0.184028 0.000000 0.096115
v 0.290427 0.000000 0.025667
v 0.260789 0.000000 -0.025667
v -0.017741 -0.009381 0.000009
v -0.017741 0.009381 0.000009
v -0.218017 0.000000 -0.000000
v -0.188681 0.000000 0.025920
v 0.282282 -0.006538 0.000002
v 0.282282 0.006538 0.000002
v -0.039827 -0.004356 -0.149438
v -0.039827 -0.004356 0.149438
v -0.071007 0.003734 -0.135239
v -0.071007 0.003734 0.135239
v -0.031121 0.014935 -0.013261
v -0.031121 0.014935 0.013261
v -0.098439 0.018140 0.000000
v -0.118107 0.020640 -0.013824
v -0.098439 -0.018140 0.000000
v -0.118107 -0.020640 -0.013824
v -0.188681 0.000000 -0.025920
v -0.105939 0.000000 0.025920
v -0.120651 -0.000000 -0.086039
v -0.116634 -0.003723 -0.109240
v -0.120651 -0.000000 0.086039
v -0.116634 -0.003723 0.109240
v -0.176513 0.020640 0.013824
v -0.176513 -0.020640 0.013824
v 0.002489 -0.014935 0.036591
v 0.002489 -0.014935 -0.036591
v -0.176513 0.020640 -0.013824
v -0.118107 0.020640 0.013824
v -0.176513 -0.020640 -0.013824
v -0.118107 -0.020640 0.013824
v 0.305246 0.000000 0.000000
v 0.245970 0.000000 -0.000000
v -0.052896 -0.014935 -0.076586
v -0.052896 0.014935 -0.076586
v -0.052896 -0.014935 0.076586
v -0.052896 0.014935 0.076586
v -0.147310 0.000000 0.034560
v -0.147310 0.000000 -0.034560
v 0.002489 0.014935 0.036591
v 0.002489 0.014935 -0.036591
v -0.016180 -0.014935 -0.093388
v -0.016180 0.014935 -0.093388
v -0.016180 -0.014935 0.093388
v -0.016180 0.014935 0.093388
v 0.130000 -0.008913 0.000005
v 0.130000 0.008913 0.000005
v -0.147310 0.020640 -0.017280
v -0.147310 -0.020640 -0.017280
v -0.147310 0.020640 0.017280
v -0.147310 -0.020640 0.017280
v 0.130000 0.000000 0.018750
v 0.130000 0.000000 -0.018750
vt 0.001539 0.049829
vt 0.219935 -0.045882
vt 0.218573 0.043819
vt 0.001539 -0.046206
vt 0.656430 -0.173286
vt 0.668542 -0.103324
vt 0.566561 -0.173286
vt 0.676166 -0.172922
vt 0.586296 -0.172922
vt 0.688277 -0.102960
vt 0.556205 -0.103324
vt 0.575940 -0.102960
vt 0.611496 -0.219845
vt 0.631231 -0.219481
vt 0.086641 -0.892963
vt 0.132821 -0.893187
vt 0.086825 -0.538872
vt 0.175270 -0.583079
vt 0.134154 -0.545905
vt 0.131133 -0.608445
vt 0.132812 -0.581268
vt 0.103953 -0.528954
vt 0.132812 -0.503326
vt 0.162151 -0.528954
vt 0.149283 -0.607859
vt 0.132812 -0.522341
vt 0.173151 -0.538872
vt 0.173335 -0.892963
vt 0.117828 -0.607859
vt 0.609328 -0.433122
vt 0.614090 -0.469361
vt 0.539436 -0.407224
vt 0.124518 -0.268717
vt 0.092548 -0.006752
vt 0.092339 -0.247912
vt 0.557562 -0.418227
vt 0.511280 -0.424403
vt 0.527555 -0.386334
vt 0.503748 -0.318669
vt 0.487782 -0.373776
vt 0.503059 -0.872921
vt 0.458168 -0.872921
vt 0.480613 -0.916495
vt 0.435723 -0.916495
vt 0.413277 -0.872921
vt 0.554997 -0.456182
vt 0.122025 -0.006752
vt 0.126396 -0.263875
vt 0.102008 -0.238583
vt 0.671225 -0.397987
vt 0.628276 -0.417068
vt 0.517330 -0.423141
vt 0.555222 -0.425666
vt 0.626030 -0.421458
vt 0.593682 -0.425524
vt 0.631369 -0.471859
vt 0.667284 -0.445542
vt 0.480613 -0.829346
vt 0.435723 -0.829346
vt 0.151486 -0.006752
vt 0.153752 -0.247912
vt 0.147860 -0.238583
vt 0.497948 -0.347786
vn -0.167900 0.570300 0.804100
vn -0.167900 0.570300 -0.804100
vn 0.090400 0.639300 -0.763600
vn 0.090400 -0.639300 -0.763600
vn -0.167900 -0.570300 -0.804100
vn -0.167900 -0.570300 0.804100
vn -0.517800 -0.623300 0.586000
vn -0.517800 0.623300 0.586000
vn 0.517800 0.623300 -0.586000
vn -0.090400 0.639300 0.763600
vn 0.495500 0.637700 -0.589700
vn 0.000000 1.000000 0.000000
vn 0.517800 -0.623300 -0.586000
vn -0.090400 -0.639300 0.763600
vn 0.495500 -0.637700 -0.589700
vn 0.000000 -1.000000 0.000000
vn -0.517800 -0.623300 -0.586000
vn -0.517800 0.623300 -0.586000
vn 0.517800 -0.623300 0.586000
vn 0.517800 0.623300 0.586000
vn -0.495500 0.637700 0.589700
vn -0.495500 -0.637700 0.589700
vn -0.495500 0.637700 -0.589700
vn -0.126100 0.992000 0.000000
vn 0.495500 0.637700 0.589700
vn 0.126100 0.992000 0.000000
vn -0.495500 -0.637700 -0.589700
vn -0.126100 -0.992000 0.000000
vn 0.495500 -0.637700 0.589700
vn 0.126100 -0.992000 0.000000
vn 0.167900 -0.570300 0.804100
vn 0.167900 0.570300 0.804100
vn 0.167900 -0.570300 -0.804100
vn 0.167900 0.570300 -0.804100
vn -0.090400 0.639300 -0.763600
vn -0.090400 -0.639300 -0.763600
vn 0.090400 0.639300 0.763600
vn 0.090400 -0.639300 0.763600
vn -0.005000 0.977300 0.211600
vn -0.005000 -0.977300 0.211600
vn -0.036400 -0.997300 0.064100
vn -0.036400 0.997300 0.064100
vn -0.036400 -0.997300 -0.064100
vn -0.036400 0.997300 -0.064100
vn -0.015100 -0.990300 -0.137800
vn -0.015100 0.990300 -0.137800
vn -0.005600 -0.980400 -0.196900
vn -0.005600 0.980400 -0.196900
vn -0.005000 0.977300 -0.211700
vn -0.005000 -0.977300 -0.211700
vn -0.015100 -0.990300 0.137800
vn -0.015100 0.990300 0.137800
vn -0.005600 0.980400 0.196900
vn -0.005600 -0.980400 0.196900
vn 0.702400 0.000000 -0.711800
vn 0.702400 0.000000 0.711800
vn -0.077900 0.983500 0.163600
vn -0.077900 -0.983500 0.163600
vn -0.077900 0.983500 -0.163600
vn -0.077900 -0.983500 -0.163600
vn 0.002500 0.902200 -0.431300
vn 0.002500 -0.902200 -0.431300
vn -0.101000 0.978700 -0.178800
vn -0.101000 -0.978700 -0.178800
vn -0.101000 0.978700 0.178800
vn -0.101000 -0.978700 0.178800
vn -0.018100 0.993900 -0.108700
vn -0.064500 0.993100 -0.098100
vn -0.018100 -0.993900 -0.108700
vn -0.064500 -0.993100 -0.098100
vn -0.018100 0.993900 0.108700
vn -0.064500 0.993100 0.098100
vn -0.018100 -0.993900 0.108700
vn -0.064500 -0.993100 0.098100
vn 0.433000 0.866000 0.250000
vn -0.433000 0.866000 0.250000
vn -0.433000 -0.866000 0.250000
vn 0.433000 -0.866000 0.250000
vn 0.921400 0.000000 -0.388700
vn 0.921400 0.000000 0.388700
vn -0.851200 0.000000 -0.524900
vn -0.851200 0.000000 0.524900
vn 0.014100 0.905200 -0.424700
vn 0.014100 -0.905200 -0.424700
vn -0.860400 0.000000 0.509600
vn -0.023700 -0.984100 -0.175700
vn -0.860400 0.000000 -0.509600
vn -0.023700 -0.984100 0.175700
vn 0.224100 0.000000 -0.974600
vn 0.947800 0.000000 0.318900
vn 0.224100 0.000000 0.974600
vn 0.947800 0.000000 -0.318900
vn -0.023700 0.984100 0.175700
vn -0.999700 0.000000 0.024400
vn -0.023700 0.984100 -0.175700
vn -0.999700 0.000000 -0.024400
vn -0.366800 0.000000 0.930300
vn -0.367300 0.000000 -0.930100
vn -0.079300 0.986300 0.144500
vn -0.079300 0.986300 -0.144500
vn 0.000000 -0.866000 0.500000
vn 0.000000 0.866000 0.500000
vn 0.000000 -0.866000 -0.500000
vn 0.000000 0.866000 -0.500000
vn 0.002500 -0.902000 0.431700
vn 0.002500 0.902000 0.431700
vn 0.014100 -0.905200 0.424800
vn 0.014100 0.905200 0.424800
vn 0.436000 0.000000 -0.900000
vn 0.436000 0.000000 0.900000
vn -0.436900 0.000000 0.899500
vn -0.436900 0.000000 -0.899500
vn -0.024500 0.987700 0.154300
vn -0.079300 -0.986300 0.144500
vn -0.024500 -0.987700 0.154300
vn -0.191200 0.000000 -0.981600
vn -0.024500 0.987700 -0.154300
vn -0.079300 -0.986300 -0.144500
vn -0.024500 -0.987700 -0.154300
vn -0.191200 0.000000 0.981600
vn 1.000000 0.000000 0.000000
vn 0.433000 -0.866000 -0.250000
vn 0.433000 0.866000 -0.250000
vn -0.433000 -0.866000 -0.250000
vn -0.433000 0.866000 -0.250000
vn -0.799000 0.000000 -0.601400
vn -0.799000 0.000000 0.601400
vn 0.950000 0.000000 -0.312300
vn 0.950000 0.000000 0.312300
vn 0.002900 -0.903100 0.429400
vn 0.002900 -0.903200 -0.429200
vn 0.002900 0.903100 0.429400
vn 0.002900 0.903200 -0.429200
vn 0.013500 0.903000 0.429400
vn 0.013500 -0.903000 0.429400
vn 0.013500 0.903100 -0.429200
vn 0.013500 -0.903100 -0.429200
usemtl IT_POTIONS
s off
f 104/1/1 90/2/1 71/3/1
f 94/2/2 105/1/2 84/3/2
f 105/1/3 114/4/3 81/2/3
f 105/1/4 83/2/4 115/4/4
f 96/2/5 84/3/5 105/1/5
f 104/1/6 71/3/6 91/2/6
f 71/3/7 70/1/7 35/4/7
f 71/3/8 33/4/8 70/1/8
f 80/4/9 34/1/9 50/3/9
f 90/2/10 104/1/10 116/4/10
f 50/3/11 81/2/11 80/4/11
f 81/5/12 114/6/12 95/7/12
f 82/4/13 50/3/13 34/1/13
f 91/2/14 117/4/14 104/1/14
f 50/3/15 82/4/15 83/2/15
f 83/8/16 97/9/16 115/10/16
f 35/4/17 70/1/17 84/3/17
f 33/4/18 84/3/18 70/1/18
f 85/3/19 82/4/19 34/1/19
f 85/3/20 34/1/20 80/4/20
f 33/4/21 71/3/21 90/2/21
f 114/6/12 90/7/12 116/11/12
f 35/4/22 91/2/22 71/3/22
f 115/10/16 117/12/16 91/9/16
f 84/3/23 33/4/23 94/2/23
f 90/7/24 94/5/24 33/13/24
f 80/4/25 95/2/25 85/3/25
f 95/7/26 80/13/26 81/5/26
f 84/3/27 96/2/27 35/4/27
f 91/9/28 35/14/28 96/8/28
f 82/4/29 85/3/29 97/2/29
f 97/9/30 83/8/30 82/14/30
f 104/1/31 97/2/31 85/3/31
f 104/1/32 85/3/32 95/2/32
f 83/2/33 105/1/33 50/3/33
f 81/2/34 50/3/34 105/1/34
f 105/1/35 94/2/35 114/4/35
f 94/5/12 90/7/12 114/6/12
f 105/1/36 115/4/36 96/2/36
f 96/8/16 115/10/16 91/9/16
f 95/2/37 116/4/37 104/1/37
f 114/6/12 116/11/12 95/7/12
f 97/2/38 104/1/38 117/4/38
f 115/10/16 97/9/16 117/12/16
usemtl ITMELEEBLADES
f 3/15/39 21/16/39 16/17/39
f 48/16/40 3/15/40 16/17/40
f 4/18/12 5/19/12 6/20/12
f 6/20/16 5/19/16 4/18/16
f 7/18/12 6/20/12 5/19/12
f 6/20/16 7/18/16 5/19/16
f 8/18/12 9/19/12 10/20/12
f 10/20/16 9/19/16 8/18/16
f 11/18/12 10/20/12 9/19/12
f 10/20/16 11/18/16 9/19/16
f 51/21/41 12/22/41 13/23/41
f 23/21/42 13/23/42 12/22/42
f 14/24/43 51/21/43 13/23/43
f 23/21/44 14/24/44 13/23/44
f 51/21/45 14/24/45 15/25/45
f 14/24/46 23/21/46 15/25/46
f 48/16/47 51/26/47 2/27/47
f 21/16/48 2/27/48 23/26/48
f 17/18/12 18/19/12 19/20/12
f 19/20/16 18/19/16 17/18/16
f 20/18/12 19/20/12 18/19/12
f 19/20/16 20/18/16 18/19/16
f 21/16/49 1/28/49 2/27/49
f 48/16/50 2/27/50 1/28/50
f 51/21/51 22/29/51 12/22/51
f 23/21/52 12/22/52 22/29/52
f 16/17/53 21/16/53 23/26/53
f 48/16/54 16/17/54 51/26/54
f 51/21/55 23/21/55 22/29/55
f 51/21/56 15/25/56 23/21/56
usemtl ITMELEEREST
f 26/30/57 54/31/57 86/32/57
f 86/32/58 24/31/58 26/30/58
f 29/30/59 88/32/59 55/31/59
f 88/32/60 29/30/60 27/31/60
f 69/33/61 119/34/61 30/35/61
f 68/33/62 30/35/62 119/34/62
f 62/36/63 37/37/63 76/38/63
f 59/36/64 36/38/64 74/37/64
f 63/36/65 77/38/65 39/37/65
f 57/36/66 75/37/66 38/38/66
f 40/39/67 76/38/67 41/40/67
f 41/40/68 76/38/68 37/37/68
f 40/39/69 41/40/69 36/38/69
f 74/37/70 36/38/70 41/40/70
f 42/39/71 43/40/71 77/38/71
f 43/40/72 39/37/72 77/38/72
f 42/39/73 38/38/73 43/40/73
f 75/37/74 43/40/74 38/38/74
f 98/41/75 44/42/75 66/43/75
f 45/44/76 44/42/76 99/45/76
f 99/45/77 47/42/77 45/44/77
f 66/43/78 47/42/78 98/41/78
f 108/46/79 74/37/79 109/46/79
f 110/46/80 111/46/80 75/37/80
f 57/36/81 38/38/81 63/36/81
f 59/36/82 62/36/82 36/38/82
f 113/47/83 73/48/83 31/49/83
f 112/47/84 31/49/84 72/48/84
f 60/50/85 78/50/85 52/51/85
f 108/46/86 59/36/86 74/37/86
f 61/50/87 53/51/87 79/50/87
f 110/46/88 75/37/88 57/36/88
f 54/31/89 24/31/89 25/52/89
f 54/53/90 26/54/90 24/53/90
f 55/31/91 28/52/91 27/31/91
f 55/53/92 27/53/92 29/54/92
f 56/51/87 79/50/87 53/51/87
f 111/46/93 63/36/93 39/37/93
f 53/51/94 102/55/94 56/51/94
f 53/51/16 92/56/16 102/55/16
f 58/51/85 52/51/85 78/50/85
f 109/46/95 37/37/95 62/36/95
f 52/51/96 58/51/96 100/55/96
f 52/51/16 100/55/16 93/56/16
f 60/50/16 52/51/16 93/56/16
f 48/57/97 21/57/97 60/50/97
f 61/50/16 92/56/16 53/51/16
f 48/57/98 61/50/98 21/57/98
f 101/55/96 100/55/96 58/51/96
f 58/51/12 107/56/12 101/55/12
f 103/55/94 56/51/94 102/55/94
f 56/51/12 103/55/12 106/56/12
f 87/52/89 25/52/89 24/31/89
f 25/52/99 86/32/99 54/31/99
f 89/52/91 27/31/91 28/52/91
f 28/52/100 55/31/100 88/32/100
f 45/44/101 47/42/101 66/43/101
f 66/43/102 44/42/102 45/44/102
f 46/58/103 47/42/103 67/59/103
f 67/59/104 44/42/104 46/58/104
f 68/33/105 118/60/105 32/61/105
f 69/33/106 32/61/106 118/60/106
f 112/47/107 72/48/107 49/62/107
f 113/47/108 49/62/108 73/48/108
f 37/37/109 74/37/109 41/40/109
f 37/37/79 109/46/79 74/37/79
f 39/37/110 43/40/110 75/37/110
f 39/37/80 75/37/80 111/46/80
f 36/38/111 76/38/111 40/39/111
f 76/38/82 36/38/82 62/36/82
f 38/38/112 42/39/112 77/38/112
f 77/38/81 63/36/81 38/38/81
f 78/50/12 107/56/12 58/51/12
f 78/50/97 60/50/97 21/57/97
f 79/50/12 56/51/12 106/56/12
f 79/50/98 21/57/98 61/50/98
f 86/32/113 25/52/113 64/63/113
f 87/52/114 24/31/114 86/32/114
f 87/52/115 86/32/115 64/63/115
f 25/52/116 87/52/116 64/63/116
f 88/32/117 65/63/117 28/52/117
f 89/52/118 88/32/118 27/31/118
f 89/52/119 65/63/119 88/32/119
f 28/52/120 65/63/120 89/52/120
f 48/57/121 106/56/121 92/56/121
f 48/57/16 92/56/16 61/50/16
f 107/56/121 48/57/121 93/56/121
f 48/57/16 60/50/16 93/56/16
f 98/41/122 47/42/122 46/58/122
f 46/58/123 44/42/123 98/41/123
f 67/59/124 47/42/124 99/45/124
f 99/45/125 44/42/125 67/59/125
f 100/55/16 59/36/16 93/56/16
f 100/55/126 101/55/126 59/36/126
f 107/56/12 62/36/12 101/55/12
f 62/36/126 59/36/126 101/55/126
f 102/55/16 92/56/16 57/36/16
f 102/55/127 57/36/127 103/55/127
f 106/56/12 103/55/12 63/36/12
f 63/36/127 103/55/127 57/36/127
f 106/56/121 48/57/121 21/57/121
f 21/57/12 79/50/12 106/56/12
f 48/57/121 107/56/121 21/57/121
f 21/57/12 107/56/12 78/50/12
f 108/46/16 93/56/16 59/36/16
f 93/56/128 108/46/128 107/56/128
f 109/46/12 62/36/12 107/56/12
f 109/46/128 107/56/128 108/46/128
f 110/46/16 57/36/16 92/56/16
f 92/56/129 106/56/129 110/46/129
f 111/46/12 106/56/12 63/36/12
f 111/46/129 110/46/129 106/56/129
f 68/33/130 112/47/130 118/60/130
f 68/33/131 119/34/131 112/47/131
f 69/33/132 118/60/132 113/47/132
f 69/33/133 113/47/133 119/34/133
f 113/47/134 118/60/134 49/62/134
f 112/47/135 49/62/135 118/60/135
f 113/47/136 31/49/136 119/34/136
f 112/47/137 119/34/137 31/49/137
