# Blender v2.75 (sub 0) OBJ File: 'Empty.blend'
# www.blender.org
mtllib ITMW_1H_SWORD_01.mtl
o ITMW_1H_SWORD_01
v -0.019200 0.000000 -0.024000
v -0.597200 0.000000 -0.019200
v -0.597200 0.000000 0.019200
v -0.693200 0.000000 0.000000
v -0.009600 -0.013165 0.050880
v -0.000824 0.000000 -0.057600
v -0.033600 0.000000 0.103662
v -0.009600 0.013165 0.050880
v -0.019200 0.000000 0.024000
v 0.178560 0.000000 0.000000
v -0.009600 0.000000 -0.018589
v 0.158006 0.000000 -0.025920
v 0.158006 0.000000 0.024960
v -0.009600 0.000000 0.018589
v -0.033600 0.000000 -0.103662
v -0.009600 -0.013165 -0.050880
v -0.009600 0.013165 -0.050880
v -0.000824 0.000000 0.057600
v -0.014400 0.007102 0.000003
v 0.158006 0.015840 -0.000000
v -0.014400 -0.007102 0.000003
v 0.158006 -0.015840 -0.000000
v -0.022012 0.000000 -0.098139
v -0.022012 0.000000 0.098139
v 0.124800 -0.007004 0.000001
v 0.124800 0.007004 0.000001
v -0.022216 0.000000 -0.045120
v 0.134400 0.000000 -0.014749
v -0.033188 0.000000 0.083273
v 0.134400 0.000000 0.014749
v -0.033188 0.000000 -0.083273
v -0.022216 0.000000 0.045120
v -0.597200 -0.007200 0.000000
v -0.597200 0.007200 0.000000
vt 0.587908 -0.049143
vt 0.632349 -0.049143
vt 0.587900 -0.500747
vt 0.545612 -0.049143
vt 0.632197 -0.499837
vt 0.543619 -0.499837
vt 0.587908 0.001878
vt 0.661305 -0.535191
vt 0.657493 -0.581133
vt 0.484422 -0.528945
vt 0.665626 -0.479782
vt 0.481629 -0.473536
vt 0.280701 -0.251324
vt 0.280710 -0.011055
vt 0.315102 -0.251270
vt 0.314938 0.002279
vt 0.244514 0.002279
vt 0.244350 -0.251270
vt 0.486707 -0.574888
vt 0.419350 -0.509824
vt 0.720598 -0.519476
vt 0.745085 -0.866258
vt 0.710082 -0.866258
vt 0.710083 -0.912678
vt 0.710083 -0.816723
vt 0.416427 -0.547666
vt 0.719271 -0.555502
vt 0.661650 -0.902046
vt 0.647950 -0.866261
vt 0.661650 -0.830470
vt 0.446781 -0.566182
vt 0.702368 -0.577141
vn 0.000200 -0.936300 -0.351100
vn 0.000200 0.936300 -0.351100
vn 0.000200 0.936300 0.351100
vn 0.000200 -0.936300 0.351100
vn -0.002400 0.959000 -0.283300
vn -0.002400 -0.959000 -0.283300
vn -0.002400 -0.959000 0.283400
vn -0.002400 0.959000 0.283400
vn -0.070100 -0.934000 0.350300
vn -0.070100 -0.934000 -0.350300
vn -0.070100 0.934000 0.350300
vn -0.070100 0.934000 -0.350300
vn -0.722000 -0.691900 0.000000
vn 0.832100 -0.554700 0.000000
vn -0.722000 0.691900 0.000000
vn 0.832100 0.554700 0.000000
vn 0.000700 0.934200 -0.356700
vn 0.000700 -0.934200 -0.356700
vn 0.011300 -0.906100 -0.422900
vn 0.011300 0.906100 -0.422900
vn 0.011300 -0.906100 0.423000
vn 0.011300 0.906100 0.423000
vn 0.682900 -0.637400 -0.356900
vn 0.682900 0.637400 -0.356900
vn 0.682900 0.637400 0.356900
vn 0.682900 -0.637400 0.356900
vn 0.000700 0.934200 0.356800
vn 0.545400 0.707700 0.449100
vn 0.549400 0.712900 -0.435700
vn 0.000700 -0.934200 0.356800
vn 0.545400 -0.707700 0.449100
vn 0.549400 -0.712900 -0.435700
vn 0.143100 0.943100 -0.300300
vn 0.143100 -0.943100 -0.300300
vn 0.143100 0.943100 0.300300
vn 0.143100 -0.943100 0.300300
vn -0.217900 -0.819000 0.530800
vn -0.218000 -0.819000 -0.530700
vn -0.217900 0.819000 0.530800
vn -0.218000 0.819000 -0.530700
vn -0.665500 0.721500 0.191400
vn -0.665500 -0.721500 0.191400
vn -0.239600 0.828400 -0.506300
vn -0.239600 -0.828400 -0.506300
vn -0.497800 0.867200 -0.010100
vn -0.497800 -0.867200 -0.010100
vn -0.225800 0.822500 0.522000
vn -0.225800 -0.822500 0.522000
vn -0.497800 0.867200 0.010100
vn -0.497800 -0.867200 0.010100
vn -0.665500 0.721500 -0.191400
vn -0.665500 -0.721500 -0.191400
usemtl ITMELEEBLADES
s off
f 33/1/1 2/2/1 21/3/1
f 34/1/2 19/3/2 2/2/2
f 34/1/3 3/4/3 19/3/3
f 33/1/4 21/3/4 3/4/4
f 1/5/5 2/2/5 19/3/5
f 1/5/6 21/3/6 2/2/6
f 9/6/7 3/4/7 21/3/7
f 9/6/8 19/3/8 3/4/8
f 33/1/9 3/4/9 4/7/9
f 2/2/10 33/1/10 4/7/10
f 34/1/11 4/7/11 3/4/11
f 2/2/12 4/7/12 34/1/12
usemtl ITMELEEREST
f 5/8/13 32/9/13 16/10/13
f 18/11/14 5/8/14 6/12/14
f 8/8/15 17/10/15 32/9/15
f 18/11/16 6/12/16 8/8/16
f 19/13/17 26/14/17 11/15/17
f 21/13/18 11/15/18 25/14/18
f 28/16/19 25/14/19 11/15/19
f 28/16/20 11/15/20 26/14/20
f 30/17/21 14/18/21 25/14/21
f 30/17/22 26/14/22 14/18/22
f 17/10/16 8/8/16 6/12/16
f 16/10/14 6/12/14 5/8/14
f 27/19/13 16/10/13 32/9/13
f 6/12/23 16/10/23 23/20/23
f 27/19/15 32/9/15 17/10/15
f 6/12/24 23/20/24 17/10/24
f 18/11/25 8/8/25 24/21/25
f 18/11/26 24/21/26 5/8/26
f 19/13/27 14/18/27 26/14/27
f 10/22/28 20/23/28 13/24/28
f 12/25/29 20/23/29 10/22/29
f 21/13/30 25/14/30 14/18/30
f 10/22/31 13/24/31 22/23/31
f 12/25/32 10/22/32 22/23/32
f 23/20/33 15/26/33 17/10/33
f 23/20/34 16/10/34 15/26/34
f 7/27/35 24/21/35 8/8/35
f 7/27/36 5/8/36 24/21/36
f 30/28/37 25/29/37 22/23/37
f 25/29/38 28/30/38 22/23/38
f 30/28/39 20/23/39 26/29/39
f 26/29/40 20/23/40 28/30/40
f 17/10/41 31/31/41 27/19/41
f 16/10/42 27/19/42 31/31/42
f 28/30/43 20/23/43 12/25/43
f 28/30/44 12/25/44 22/23/44
f 8/8/45 29/32/45 7/27/45
f 5/8/46 7/27/46 29/32/46
f 13/24/47 20/23/47 30/28/47
f 13/24/48 30/28/48 22/23/48
f 15/26/49 31/31/49 17/10/49
f 15/26/50 16/10/50 31/31/50
f 32/9/51 29/32/51 8/8/51
f 32/9/52 5/8/52 29/32/52
