# Blender v2.75 (sub 0) OBJ File: 'Empty.blend'
# www.blender.org
mtllib ITRW_CROSSBOW_04.mtl
o ITRW_CROSSBOW_04
v -0.597028 0.071754 0.150469
v -0.342596 0.075941 0.534763
v -0.597015 0.071754 -0.150319
v -0.425085 0.080593 -0.353553
v -0.423597 0.080593 0.334886
v -0.528457 0.073291 -0.037987
v 0.277043 -0.079289 0.026532
v 0.278238 0.034043 0.027116
v -0.507763 0.029109 -0.150441
v -0.507777 0.029109 0.150347
v -0.500905 -0.000286 -0.050727
v -0.590515 0.035302 -0.050727
v -0.528459 0.073061 0.038409
v -0.500907 -0.000516 0.049853
v -0.590517 0.035072 0.049853
v -0.048673 -0.021047 0.015000
v -0.219991 0.005420 0.035158
v -0.218552 0.009393 -0.035423
v -0.453934 0.054258 -0.365476
v -0.029805 0.000053 0.033261
v -0.048673 -0.021047 -0.015051
v -0.459038 0.071754 -0.143374
v -0.327398 0.085751 -0.520723
v 0.277045 -0.078828 -0.028188
v 0.278240 0.034505 -0.027603
v -0.327442 0.085751 0.520972
v -0.516066 0.071754 -0.150319
v -0.452448 0.054258 0.346539
v -0.516079 0.071754 0.150469
v -0.343552 0.085751 -0.533486
v -0.332445 0.077045 -0.516502
v -0.332445 0.077045 0.516572
v -0.339387 0.080888 0.510073
v -0.339387 0.080888 -0.510905
v -0.425408 0.060471 -0.353689
v -0.459050 0.071754 0.143522
v -0.423920 0.060471 0.334750
v -0.528459 0.073061 0.050501
v -0.453611 0.080593 -0.365341
v -0.528457 0.073291 -0.050080
v -0.332445 0.084732 -0.516502
v -0.332445 0.084732 0.516572
v -0.500907 -0.000516 0.037762
v -0.500905 -0.000286 -0.038634
v -0.029804 0.000283 -0.034677
v -0.059011 0.069134 -0.050098
v -0.030664 0.043560 0.043410
v -0.059013 0.068904 0.050483
v -0.327918 0.075941 -0.520926
v -0.030662 0.043790 -0.043711
v -0.327962 0.075941 0.520769
v 0.076262 0.039970 -0.027578
v -0.455046 0.039615 0.143400
v 0.075065 -0.043268 0.026557
v -0.452125 0.080593 0.346675
v -0.218552 0.009393 0.035158
v -0.219991 0.005420 -0.035423
v -0.489406 0.080593 -0.396149
v 0.076260 0.039509 0.027141
v -0.050111 -0.025020 0.015000
v -0.050111 -0.025020 -0.015051
v 0.075067 -0.042806 -0.028162
v -0.455034 0.039615 -0.143496
v -0.487919 0.080593 0.377483
v -0.332445 0.077045 -0.000181
v -0.332445 0.084732 -0.000181
v -0.339387 0.080888 -0.000181
vt 0.038289 -0.087744
vt 0.037604 -0.188814
vt 0.000358 -0.191229
vt 0.038923 -0.087744
vt 0.000158 -0.090232
vt 0.042569 -0.194444
vt 0.028962 -0.127671
vt 0.003986 -0.171606
vt 0.297606 -0.343120
vt 0.216777 -0.074885
vt 0.297519 -0.082516
vt 0.216869 -0.348108
vt 0.214842 -0.782503
vt 0.311873 -0.781558
vt 0.214497 -0.966381
vt 0.214847 -0.590613
vt 0.310545 -0.590366
vt 0.744173 -0.765271
vt 0.834882 -0.762770
vt 0.829946 -0.602596
vt 0.768902 -0.922479
vt 0.826047 -0.922975
vt 0.830218 -0.366399
vt 0.827850 -0.812952
vt 0.743249 -0.418318
vt 0.743317 -0.812953
vt 0.742594 -0.366760
vt 0.743308 -0.366839
vt 0.827927 -0.887038
vt 0.827945 -0.366840
vt 0.816350 -0.512639
vt 0.754877 -0.410102
vt 0.816354 -0.408984
vt 0.754873 -0.513757
vt 0.701778 -0.368706
vt 0.701778 -0.121127
vt 0.656333 -0.121127
vt 0.656333 -0.367428
vt 0.656333 -0.119849
vt 0.701778 -0.119849
vt 0.827969 -0.418318
vt 0.656333 -0.368706
vt 0.701778 -0.367428
vt 0.415326 -0.169752
vt 0.413999 -0.360944
vt 0.743275 -0.456041
vt 0.743271 -0.587555
vt 0.827963 -0.587252
vt 0.827978 -0.663844
vt 0.743293 -0.664130
vt 0.743293 -0.457010
vt 0.827972 -0.455738
vt 0.743300 -0.887037
vt 0.310930 -0.966438
vt 0.401060 -0.076378
vt 0.400972 -0.336982
vt 0.320323 -0.071390
vt 0.320230 -0.344613
vt 0.363994 -0.300324
vt 0.372599 -0.304844
vt 0.372402 0.049394
vt 0.363797 0.049394
vt 0.369958 -0.304240
vt 0.378563 -0.300348
vt 0.744177 -0.601477
vt 0.827978 -0.456723
vt 0.827962 -0.455922
vt 0.743290 -0.455922
vt 0.743290 -0.597888
vt 0.827963 -0.597889
vt 0.743328 -0.552041
vt 0.827874 -0.551713
vt 0.827874 -0.460873
vt 0.745821 -0.909709
vt 0.204529 -0.350070
vt 0.292376 -0.350070
vt 0.202905 -0.260465
vt 0.743328 -0.461201
vt 0.290888 -0.260465
vt 0.204665 -0.350071
vt 0.203042 -0.260465
vt 0.827994 -0.709376
vt 0.743276 -0.709375
vt 0.827963 -0.555894
vt 0.743305 -0.557997
vt 0.743363 -0.462477
vt 0.414383 0.015128
vt 0.827813 -0.460581
vn -0.421800 -0.882300 -0.208800
vn 0.000000 0.999200 0.041100
vn -0.000000 0.999000 -0.045000
vn -0.433300 -0.868100 0.242100
vn 0.004100 0.010300 -0.999900
vn -0.160200 -0.068600 0.984700
vn -0.004100 -0.010300 0.999900
vn -0.152400 -0.048400 -0.987100
vn -0.446600 -0.865500 -0.226600
vn 0.000000 -0.002900 1.000000
vn -0.419200 -0.878100 0.230800
vn 0.000000 0.002900 -1.000000
vn -0.522100 0.852900 0.000000
vn -0.022500 0.999400 0.026100
vn -0.369100 -0.929400 0.000000
vn -0.023700 0.999300 -0.027500
vn -0.321800 -0.869600 -0.374400
vn -0.016900 0.999700 0.019600
vn -0.371200 -0.872700 0.317200
vn 0.014200 0.999800 0.016500
vn 0.000000 1.000000 0.000000
vn 0.195400 -0.980700 0.000000
vn 0.209100 -0.977800 -0.009400
vn -0.005300 0.999000 -0.043300
vn -0.001100 -0.007000 1.000000
vn 0.033600 -0.202600 -0.978700
vn 0.001300 -1.000000 -0.003400
vn 0.013600 0.013900 -0.999800
vn 0.008900 1.000000 0.002300
vn -0.936500 -0.350700 -0.000800
vn 0.014000 -0.003500 0.999900
vn 0.176400 0.984300 0.000000
vn -0.176400 -0.984300 0.000000
vn 0.203000 -0.977100 -0.063400
vn -0.004800 0.999200 0.039700
vn 0.001100 -1.000000 -0.002300
vn 0.034600 -0.226400 0.973400
vn 0.992300 0.123600 0.000000
vn -0.016300 0.999100 0.039400
vn -0.970300 0.013100 -0.241400
vn 0.226100 -0.973500 -0.034000
vn 0.999900 -0.010500 -0.000100
vn -0.175600 -0.984400 -0.008300
vn -0.408700 0.893400 0.186400
vn 0.053100 -0.997000 0.055500
vn -0.942100 -0.182600 -0.281200
vn -0.981600 -0.191100 -0.000000
vn -0.950900 0.010100 0.309500
vn 0.203500 -0.976700 0.067800
vn -0.939700 -0.183800 0.288600
vn -0.338400 -0.898300 -0.280400
vn -0.016700 0.999600 0.021100
vn -0.484400 0.874800 0.000000
vn -0.484400 -0.874800 0.000000
vn 0.864500 -0.017300 0.502400
vn 0.987200 -0.016900 0.158800
vn -0.017700 0.998900 -0.042900
vn 0.888500 -0.011200 -0.458800
vn 0.974900 0.122200 -0.186300
vn -0.836800 0.013100 -0.547300
vn -0.010000 0.999700 0.024100
vn 1.000000 0.000000 0.000000
vn 0.000800 0.005100 -1.000000
vn 0.000100 0.007100 -1.000000
vn 0.027100 0.999600 0.008400
vn -0.000000 -0.005200 1.000000
vn 0.666800 0.745300 0.002000
vn -0.002400 -0.271200 0.962500
vn 0.619900 -0.016700 -0.784500
vn 0.862800 -0.056200 0.502400
vn 0.666300 0.745700 0.001700
vn -0.002200 -0.246700 -0.969100
vn 0.889400 -0.037700 -0.455600
vn 0.690200 -0.051500 0.721800
vn 0.035300 0.999400 0.002600
vn 0.139300 -0.198700 -0.970100
vn 0.987200 -0.014800 -0.159000
vn 0.238600 -0.968800 0.066800
vn 0.060500 -0.007900 0.998100
vn -0.382200 -0.924000 -0.007800
vn -0.864000 0.008000 0.503400
vn 0.008200 0.999800 0.019900
vn 0.110700 -0.040100 0.993100
vn 0.111800 -0.040500 -0.992900
vn 0.039100 0.999200 0.008400
vn 0.138400 -0.222400 0.965100
vn 0.940300 -0.340400 0.000000
vn -0.379900 -0.925000 -0.003100
vn 0.064500 0.006100 -0.997900
vn 0.981100 0.121700 0.150400
vn 0.237100 -0.969500 -0.062800
usemtl ITMELEEBLADES
s off
f 19/1/1 9/2/1 3/3/1
f 39/4/2 3/3/2 27/2/2
f 55/4/3 29/2/3 1/3/3
f 64/5/4 1/3/4 28/1/4
f 40/6/5 11/7/5 12/8/5
f 44/7/6 6/6/6 12/8/6
f 14/7/7 38/6/7 15/8/7
f 13/6/8 43/7/8 15/8/8
f 3/3/9 58/5/9 19/1/9
f 27/2/10 3/3/10 9/2/10
f 10/2/11 28/1/11 1/3/11
f 29/2/12 10/2/12 1/3/12
f 13/6/13 15/8/13 38/6/13
f 3/3/14 39/4/14 58/5/14
f 40/6/13 12/8/13 6/6/13
f 12/8/15 11/7/15 44/7/15
f 1/3/16 64/5/16 55/4/16
f 58/5/17 30/2/17 19/1/17
f 30/2/18 58/5/18 39/4/18
f 28/1/19 2/2/19 64/5/19
f 2/2/20 55/4/20 64/5/20
usemtl ITRANGEDWEAPONS
f 22/9/21 29/10/21 36/11/21
f 53/11/22 10/10/22 63/9/22
f 63/9/22 10/10/22 9/12/22
f 27/12/21 29/10/21 22/9/21
f 28/13/23 37/14/23 2/15/23
f 29/16/24 55/13/24 36/17/24
f 59/18/25 54/19/25 7/20/25
f 50/21/26 45/22/26 11/23/26
f 20/24/27 11/25/27 45/26/27
f 50/21/28 11/23/28 40/27/28
f 38/28/29 46/29/29 40/30/29
f 14/31/30 40/32/30 11/33/30
f 14/31/30 38/34/30 40/32/30
f 47/21/31 38/27/31 14/23/31
f 21/35/32 18/36/32 56/37/32
f 60/38/33 17/39/33 57/40/33
f 63/17/34 9/16/34 19/13/34
f 39/13/35 27/16/35 22/17/35
f 20/24/36 14/41/36 11/25/36
f 20/22/37 47/21/37 14/23/37
f 56/37/32 16/42/32 21/35/32
f 57/40/33 61/43/33 60/38/33
f 36/10/38 63/9/38 22/12/38
f 4/14/39 39/13/39 22/17/39
f 19/44/40 9/45/40 39/13/40
f 35/14/41 19/13/41 30/15/41
f 8/46/42 7/47/42 24/48/42
f 24/49/43 7/50/43 54/51/43
f 8/46/42 24/48/42 25/52/42
f 38/28/29 48/53/29 46/29/29
f 26/54/44 5/14/44 2/15/44
f 2/15/45 37/14/45 51/54/45
f 39/13/46 9/45/46 27/16/46
f 9/55/47 10/56/47 27/57/47
f 29/16/48 28/44/48 55/13/48
f 53/17/49 28/13/49 10/16/49
f 10/45/50 28/44/50 29/16/50
f 27/57/47 10/56/47 29/58/47
f 35/14/51 30/15/51 49/54/51
f 23/54/52 30/15/52 4/14/52
f 33/59/53 42/60/53 66/61/53
f 32/60/54 33/59/54 67/62/54
f 65/61/54 34/63/54 31/64/54
f 33/59/53 66/61/53 67/62/53
f 35/14/55 49/54/55 4/13/55
f 22/16/56 35/14/56 4/13/56
f 53/11/38 63/9/38 36/10/38
f 36/17/57 55/13/57 5/14/57
f 26/15/58 37/14/58 5/13/58
f 5/13/59 53/17/59 36/16/59
f 30/15/60 19/44/60 39/13/60
f 30/15/61 39/13/61 4/14/61
f 66/61/62 65/61/62 31/64/62
f 42/60/62 65/61/62 66/61/62
f 15/8/15 43/7/15 14/7/15
f 25/65/63 24/20/63 62/19/63
f 54/51/43 62/66/43 24/49/43
f 62/19/64 52/18/64 25/65/64
f 8/67/65 25/68/65 52/69/65
f 52/69/65 59/70/65 8/67/65
f 7/20/66 8/65/66 59/18/66
f 48/71/67 47/72/67 50/73/67
f 47/21/68 48/74/68 38/27/68
f 49/75/69 30/76/69 23/77/69
f 4/13/70 49/54/70 23/15/70
f 48/71/71 50/73/71 46/78/71
f 50/21/72 40/27/72 46/74/72
f 51/54/73 37/14/73 26/15/73
f 2/79/74 51/80/74 26/81/74
f 47/82/75 52/69/75 50/83/75
f 50/21/76 52/18/76 45/22/76
f 37/14/77 53/17/77 5/13/77
f 37/14/78 28/13/78 53/17/78
f 59/18/79 20/22/79 54/19/79
f 62/84/80 54/85/80 20/86/80
f 28/44/81 2/87/81 55/13/81
f 2/15/82 5/14/82 55/13/82
f 16/42/83 56/37/83 17/39/83
f 57/40/84 18/36/84 21/35/84
f 47/82/85 59/70/85 52/69/85
f 47/21/86 20/22/86 59/18/86
f 17/39/83 60/38/83 16/42/83
f 16/42/87 60/38/87 61/43/87
f 21/35/84 61/43/84 57/40/84
f 61/43/87 21/35/87 16/42/87
f 20/86/88 45/88/88 62/84/88
f 52/18/89 62/19/89 45/22/89
f 63/17/90 35/14/90 22/16/90
f 63/17/91 19/13/91 35/14/91
f 42/60/62 32/60/62 65/61/62
f 32/60/54 67/62/54 65/61/54
f 67/62/53 66/61/53 41/64/53
f 66/61/62 31/64/62 41/64/62
f 67/62/53 41/64/53 34/63/53
f 65/61/54 67/62/54 34/63/54
