# Blender v2.75 (sub 0) OBJ File: 'Empty.blend'
# www.blender.org
mtllib ITRWCROSSBOW2.mtl
o ITRWCROSSBOW2
v -0.008355 -0.021047 0.010000
v -0.157327 0.005420 0.010000
v -0.156076 0.009393 -0.010000
v -0.008355 -0.021047 -0.010000
v -0.156076 0.009393 0.010000
v -0.157327 0.005420 -0.010000
v -0.009606 -0.025020 0.010000
v -0.009606 -0.025020 -0.010000
v -0.477650 0.073291 -0.019771
v -0.453693 0.019936 0.019797
v -0.477651 0.073061 0.020228
v -0.414484 0.058717 -0.104660
v -0.389172 0.069748 -0.191256
v -0.389438 0.049750 -0.191377
v -0.329422 0.068760 -0.271389
v -0.414761 0.038719 -0.104749
v -0.414495 0.058717 0.104753
v -0.414495 0.058717 0.104753
v -0.408227 0.069748 0.201588
v -0.444492 0.058717 0.109824
v 0.102548 0.028829 -0.019938
v 0.101509 -0.012452 -0.020368
v 0.102547 0.028600 0.020062
v 0.102547 0.028600 0.020062
v 0.101507 -0.012682 0.019631
v -0.414772 0.038719 0.104664
v -0.389186 0.069748 0.191354
v -0.389471 0.049750 0.191289
v -0.329177 0.088758 0.271356
v -0.389438 0.049750 -0.191377
v -0.414761 0.038719 -0.104749
v -0.408479 0.049750 -0.201611
v -0.414761 0.038719 -0.104749
v -0.444758 0.038719 -0.109818
v -0.344679 0.088758 -0.268849
v -0.344938 0.068760 -0.268995
v -0.329163 0.088758 -0.271243
v -0.414495 0.058717 0.104753
v -0.408227 0.069748 0.201588
v -0.408214 0.069748 -0.201488
v -0.344679 0.088758 -0.268849
v -0.344938 0.068760 -0.268995
v -0.389438 0.049750 -0.191377
v -0.329422 0.068760 -0.271389
v -0.408214 0.069748 -0.201488
v -0.444481 0.058717 -0.109729
v -0.353065 0.076679 -0.244287
v -0.097602 0.076679 -0.000137
v -0.343071 0.081714 -0.253110
v -0.444481 0.058717 -0.109729
v -0.389172 0.069748 -0.191256
v -0.344679 0.088758 -0.268849
v -0.408214 0.069748 -0.201488
v -0.453692 0.020166 -0.020203
v -0.088881 0.081714 -0.000137
v -0.343071 0.081714 -0.253110
v -0.088881 0.071644 -0.000137
v -0.343076 0.071644 0.253114
v -0.097602 0.076679 -0.000137
v -0.444492 0.058717 0.109824
v -0.408227 0.069748 0.201588
v -0.408513 0.049750 0.201523
v -0.353065 0.076679 -0.244287
v -0.097602 0.076679 -0.000137
v 0.101509 -0.012452 -0.020368
v -0.453692 0.020166 -0.020203
v 0.101507 -0.012682 0.019631
v -0.353130 0.076679 0.243849
v -0.343076 0.081714 0.253114
v -0.343076 0.081714 0.253114
v -0.343076 0.071644 0.253114
v -0.444769 0.038719 0.109736
v -0.414772 0.038719 0.104664
v -0.444492 0.058717 0.109824
v -0.444769 0.038719 0.109736
v -0.453692 0.020166 -0.020203
v 0.101507 -0.012682 0.019631
v -0.453693 0.019936 0.019797
v 0.102548 0.028829 -0.019938
v -0.153028 0.043790 -0.019928
v -0.153029 0.043560 0.020072
v 0.102547 0.028600 0.020062
v -0.389172 0.069748 -0.191256
v -0.344679 0.088758 -0.268849
v -0.329163 0.088758 -0.271243
v -0.343071 0.071644 -0.253110
v -0.343071 0.071644 -0.253110
v -0.353065 0.076679 -0.244287
v -0.097602 0.076679 -0.000137
v -0.353130 0.076679 0.243849
v -0.343076 0.071644 0.253114
v -0.343076 0.081714 0.253114
v -0.177679 0.069134 -0.019783
v -0.477650 0.073291 -0.019771
v -0.153028 0.043790 -0.019928
v -0.453692 0.020166 -0.020203
v 0.101509 -0.012452 -0.020368
v -0.153028 0.043790 -0.019928
v 0.101509 -0.012452 -0.020368
v 0.102548 0.028829 -0.019938
v -0.153028 0.043790 -0.019928
v -0.477650 0.073291 -0.019771
v -0.453692 0.020166 -0.020203
v -0.153028 0.043790 -0.019928
v -0.477651 0.073061 0.020228
v -0.177680 0.068904 0.020216
v -0.153029 0.043560 0.020072
v -0.453693 0.019936 0.019797
v -0.477651 0.073061 0.020228
v -0.153029 0.043560 0.020072
v 0.102547 0.028600 0.020062
v 0.101507 -0.012682 0.019631
v -0.153029 0.043560 0.020072
v -0.453693 0.019936 0.019797
v -0.153029 0.043560 0.020072
v 0.101507 -0.012682 0.019631
v -0.177679 0.069134 -0.019783
v -0.477650 0.073291 -0.019771
v -0.477651 0.073061 0.020228
v -0.177680 0.068904 0.020216
v -0.477651 0.073061 0.020228
v -0.444492 0.058717 0.109824
v -0.444492 0.058717 0.109824
v -0.444481 0.058717 -0.109729
v -0.408214 0.069748 -0.201488
v -0.389172 0.069748 -0.191256
v -0.408227 0.069748 0.201588
v -0.344693 0.088758 0.268963
v -0.344693 0.088758 0.268963
v -0.414772 0.038719 0.104664
v -0.389471 0.049750 0.191289
v -0.414761 0.038719 -0.104749
v -0.444769 0.038719 0.109736
v -0.414772 0.038719 0.104664
v -0.444769 0.038719 0.109736
v -0.414761 0.038719 -0.104749
v -0.389438 0.049750 -0.191377
v -0.344982 0.068760 0.268897
v -0.389471 0.049750 0.191289
v -0.329467 0.068760 0.271292
v -0.389471 0.049750 0.191289
v -0.344982 0.068760 0.268897
v -0.444769 0.038719 0.109736
v -0.344693 0.088758 0.268963
v -0.344982 0.068760 0.268897
v -0.344982 0.068760 0.268897
v -0.329467 0.068760 0.271292
v -0.344982 0.068760 0.268897
v -0.329467 0.068760 0.271292
v -0.414495 0.058717 0.104753
v -0.414772 0.038719 0.104664
v -0.329163 0.088758 -0.271243
v -0.329422 0.068760 -0.271389
v -0.329177 0.088758 0.271356
v -0.344693 0.088758 0.268963
v -0.329467 0.068760 0.271292
v -0.414772 0.038719 0.104664
v -0.344938 0.068760 -0.268995
v -0.329422 0.068760 -0.271389
vt 0.769957 0.942403
vt 0.767735 0.687809
vt 0.801658 0.687513
vt 0.803861 0.939952
vt 0.801639 0.685357
vt 0.767716 0.685653
vt 0.803880 0.942107
vt 0.769938 0.940248
vt 0.395778 0.933759
vt 0.396833 0.996539
vt 0.311487 0.996811
vt 0.711026 0.431736
vt 0.646265 0.274055
vt 0.685861 0.275860
vt 0.646374 0.036486
vt 0.646544 0.432081
vt 0.711003 0.639482
vt 0.313836 0.695523
vt 0.399823 0.633466
vt 0.398908 0.695870
vt 0.314752 0.633119
vt 0.660849 0.033346
vt 0.650783 0.287395
vt 0.677019 0.238456
vt 0.676543 0.287395
vt 0.647134 0.432138
vt 0.793043 1.036120
vt 0.773151 0.656498
vt 0.793043 0.656498
vt 0.646964 0.036559
vt 0.686451 0.275924
vt 0.310433 0.934030
vt 0.773151 1.036120
vt 0.793042 0.650553
vt 0.294421 0.604030
vt 0.213584 0.964447
vt 0.213304 0.604152
vt 0.773151 0.650553
vt 0.646520 0.639023
vt 0.286263 0.964450
vt 0.311045 0.761401
vt 0.396282 0.624418
vt 0.396257 0.761401
vt 0.311069 0.624418
vt 0.282665 0.779463
vt 0.308706 0.994844
vt 0.309797 0.786028
vt 0.223429 0.624528
vt 0.224611 0.995161
vt 0.283012 0.624465
vt 0.287675 0.772271
vt 0.311044 0.772274
vt 0.309953 0.994663
vt 0.224473 0.994981
vt 0.224675 0.624347
vt 0.289383 0.624284
vt 0.310692 0.773697
vt 0.310663 0.993584
vt 0.394023 0.773696
vt 0.395875 0.993584
vt 0.647110 0.639080
vt 0.677059 0.238456
vt 0.651299 0.238456
vt 0.676583 0.287395
vn 0.201800 0.979400 0.000000
vn -0.201800 -0.979400 0.000000
vn -0.000000 0.000000 1.000000
vn -0.000000 0.000000 -1.000000
vn 0.953900 -0.300300 0.000000
vn -0.911600 -0.411100 -0.002400
vn 0.960200 -0.014500 0.278800
vn 0.801500 -0.014300 0.597800
vn 0.999900 -0.013900 0.000100
vn -0.018900 0.993500 -0.112000
vn 0.999700 -0.025200 -0.000100
vn 0.960300 -0.012800 -0.278800
vn 0.801000 -0.009500 -0.598600
vn 0.058700 -0.992300 -0.109200
vn 0.018900 -0.993500 -0.111900
vn -0.152500 0.009200 -0.988300
vn -0.058700 0.992300 -0.109200
vn -0.930500 0.014600 -0.366000
vn -0.729300 0.013900 -0.684000
vn -0.729500 0.014400 -0.683800
vn -0.040000 -0.965000 -0.259300
vn -0.018900 0.993500 0.112000
vn -0.244900 0.935100 0.256200
vn -0.930500 0.014500 -0.366000
vn -0.098400 0.978100 0.183200
vn -0.446800 0.773900 0.448900
vn 0.705400 0.000000 -0.708800
vn -0.446900 -0.774000 -0.448500
vn -0.930400 0.012100 0.366300
vn -0.443000 -0.767400 0.463600
vn -0.058700 -0.998300 -0.005700
vn -0.442900 0.767200 -0.463900
vn -0.244100 0.938300 -0.245000
vn 0.705800 0.000000 0.708400
vn -0.930500 0.011300 0.366200
vn 0.018900 -0.993500 0.111900
vn -0.999900 0.013900 -0.000000
vn 0.058400 0.998300 0.005700
vn 0.040000 0.965000 0.259400
vn -0.249700 -0.935300 0.250900
vn -0.239100 -0.938200 -0.250400
vn 0.000000 0.005700 -1.000000
vn 0.000200 0.008800 -1.000000
vn 0.000600 0.010400 -0.999900
vn 0.000300 0.008200 -1.000000
vn -0.000000 -0.005700 1.000000
vn -0.000300 -0.008200 1.000000
vn -0.000600 -0.010400 0.999900
vn -0.000200 -0.008800 1.000000
vn 0.716800 0.697200 0.004000
vn 0.013900 0.999900 0.005700
vn 0.000000 1.000000 0.000000
vn -0.058700 0.992300 0.109200
vn -0.098400 0.978100 -0.183200
vn 0.040000 0.965000 -0.259300
vn 0.058700 -0.992300 0.109200
vn 0.000000 -1.000000 0.000000
vn 0.098400 -0.978100 -0.183100
vn 0.098400 -0.978100 0.183200
vn -0.040000 -0.965000 0.259300
vn -0.999900 0.013800 -0.000000
vn -0.728700 0.008300 0.684800
vn -0.728700 0.008200 0.684800
vn -0.152600 -0.001100 0.988300
vn 0.960200 -0.012100 -0.279100
vn 0.801500 -0.014700 0.597800
vn -0.152400 -0.001000 0.988300
vn 0.801100 -0.009700 -0.598500
vn 0.999900 -0.013800 0.000100
usemtl ITRANGEDWEAPONS
s off
f 4/1/1 3/2/1 5/3/1
f 7/4/2 2/5/2 6/6/2
f 5/3/1 1/7/1 4/1/1
f 6/6/2 8/8/2 7/4/2
f 1/7/3 5/3/3 2/5/3
f 6/6/4 3/2/4 4/1/4
f 2/5/3 7/4/3 1/7/3
f 1/7/5 7/4/5 8/8/5
f 4/1/4 8/8/4 6/6/4
f 8/8/5 4/1/5 1/7/5
f 10/9/6 11/10/6 9/11/6
f 12/12/7 14/13/7 13/14/7
f 14/13/8 15/15/8 13/14/8
f 16/16/7 14/13/7 12/12/7
f 17/17/9 16/16/9 12/12/9
f 20/16/10 19/13/10 18/12/10
f 23/18/11 22/19/11 21/20/11
f 24/18/11 25/21/11 22/19/11
f 28/13/12 26/16/12 27/14/12
f 29/22/13 28/13/13 27/14/13
f 31/12/14 32/13/14 30/14/14
f 33/12/15 34/16/15 32/13/15
f 37/23/16 36/24/16 35/25/16
f 38/12/17 39/13/17 27/14/17
f 32/13/18 34/16/18 40/14/18
f 41/22/19 32/13/19 40/14/19
f 42/15/20 32/13/20 41/22/20
f 43/14/21 42/15/21 44/22/21
f 45/13/22 46/26/22 12/12/22
f 48/27/23 49/28/23 47/29/23
f 40/14/24 34/16/24 50/12/24
f 52/30/25 53/13/25 51/31/25
f 10/9/6 9/11/6 54/32/6
f 48/27/26 55/33/26 49/28/26
f 55/33/27 57/27/27 86/34/27
f 58/34/28 59/33/28 57/27/28
f 60/12/29 62/13/29 61/14/29
f 57/27/30 64/33/30 63/28/30
f 67/35/31 66/36/31 65/37/31
f 68/34/32 55/33/32 48/27/32
f 68/34/33 69/38/33 55/33/33
f 70/28/34 71/29/34 57/27/34
f 72/16/35 62/13/35 60/12/35
f 73/12/36 62/13/36 72/16/36
f 50/12/37 75/39/37 74/17/37
f 77/35/31 78/40/31 76/36/31
f 81/41/38 79/42/38 80/43/38
f 81/41/38 82/44/38 79/42/38
f 85/22/39 84/30/39 83/31/39
f 55/33/27 86/34/27 56/38/27
f 57/27/40 88/28/40 87/29/40
f 91/34/41 90/38/41 89/33/41
f 92/28/34 57/27/34 55/33/34
f 95/45/42 94/46/42 93/47/42
f 98/45/43 97/48/43 96/49/43
f 101/45/44 100/50/44 99/48/44
f 104/45/45 103/49/45 102/46/45
f 107/51/46 106/52/46 105/53/46
f 110/51/47 109/53/47 108/54/47
f 113/51/48 112/55/48 111/56/48
f 116/55/49 115/51/49 114/54/49
f 120/57/50 81/41/50 80/43/50
f 119/58/51 117/59/51 118/60/51
f 120/57/50 80/43/50 117/59/50
f 121/58/51 120/57/51 117/59/51
f 12/12/52 122/61/52 17/17/52
f 124/26/52 123/61/52 12/12/52
f 126/31/53 125/13/53 12/12/53
f 128/15/54 27/14/54 127/13/54
f 29/22/55 27/14/55 129/15/55
f 131/14/56 62/13/56 130/12/56
f 134/17/57 133/39/57 132/12/57
f 136/12/57 135/39/57 34/16/57
f 137/14/58 32/13/58 42/15/58
f 62/13/59 139/14/59 138/15/59
f 142/15/60 141/14/60 140/22/60
f 34/16/61 143/39/61 50/12/61
f 61/14/62 145/15/62 144/22/62
f 62/13/63 146/15/63 61/14/63
f 148/62/64 149/63/64 155/64/64
f 27/14/65 151/16/65 150/12/65
f 13/14/66 153/15/66 152/22/66
f 155/64/67 147/63/67 154/23/67
f 156/15/68 28/13/68 29/22/68
f 157/39/69 16/16/69 17/17/69
f 159/63/16 158/24/16 37/23/16
