# Blender v2.75 (sub 0) OBJ File: 'Empty.blend'
# www.blender.org
mtllib ITWR_SCROLL_01.mtl
o ITWR_SCROLL_01
v 0.227480 -0.023467 0.145333
v -0.232500 -0.023467 0.145333
v 0.227480 0.024016 -0.123957
v -0.232500 0.024016 -0.123957
v -0.232500 -0.028517 -0.269261
v 0.227480 -0.028517 -0.269261
v 0.227480 0.013969 0.283166
v -0.232500 0.013969 0.283166
vt 0.892930 -0.506112
vt 0.708383 -0.749456
vt 0.708383 -0.506112
vt 0.894442 -0.751939
vt 0.711526 -0.751939
vt 0.894442 -0.998178
vt 0.892930 -0.749456
vt 0.711526 -0.998178
vt 0.612015 -0.749456
vt 0.613971 -0.998178
vt 0.613971 -0.751939
vt 0.612015 -0.506112
vt 0.997507 -0.506112
vt 0.998095 -0.751939
vt 0.998095 -0.998178
vt 0.997507 -0.749456
vn 0.000000 -0.984800 -0.173600
vn -0.000000 0.984800 0.173600
vn 0.000000 -0.940400 0.340000
vn 0.000000 0.940400 -0.340000
vn 0.000000 -0.965000 0.262100
vn 0.000000 0.965000 -0.262100
usemtl ITWRITTEN
s off
f 1/1/1 4/2/1 3/3/1
f 1/4/2 3/5/2 2/6/2
f 2/7/1 4/2/1 1/1/1
f 4/8/2 2/6/2 3/5/2
f 4/2/3 5/9/3 3/3/3
f 5/10/4 4/8/4 6/11/4
f 3/3/3 5/9/3 6/12/3
f 3/5/4 6/11/4 4/8/4
f 2/7/5 1/1/5 7/13/5
f 7/14/6 1/4/6 8/15/6
f 8/16/5 2/7/5 7/13/5
f 2/6/6 8/15/6 1/4/6
