# Blender v2.75 (sub 0) OBJ File: 'Empty.blend'
# www.blender.org
mtllib KDFH.mtl
o KDFH
v 0.691459 0.027696 0.699501
v -0.254930 0.048898 0.292911
v 0.481255 0.003063 1.060687
v 0.432591 0.050178 0.311923
v -0.025557 0.111646 0.441359
v -0.090701 0.054187 0.651913
v 0.164182 0.072189 0.366345
v 0.276687 0.051713 0.174538
v -0.294764 0.034269 0.638685
v -0.097212 0.081884 0.001991
v 0.147844 0.066709 0.029546
v -0.005688 0.112784 0.143905
v 0.338900 0.063079 0.437632
v -0.017506 0.058696 -0.082271
v -0.084788 0.054246 0.105527
v -0.099465 0.111682 0.132738
v 0.002947 0.055277 0.115974
v -0.166429 0.011490 0.370295
v -0.099150 0.061177 0.412371
v -0.208595 0.053302 0.146223
v -0.234749 0.106237 0.316819
v -0.166741 0.098781 0.359652
v -0.001605 0.011370 0.105338
v 0.093566 0.116886 -0.006977
v 0.073604 0.078893 -0.084180
v -0.150028 0.066427 0.027762
v 0.682914 0.099640 0.728678
v 0.150337 0.133243 0.756514
v 0.085788 0.131712 0.441499
v 0.219005 0.103241 0.254069
v 0.292726 0.039347 0.151233
v -0.117608 0.045907 0.027164
v -0.009680 0.026728 -0.099913
v -0.069787 0.010569 0.097219
v 0.014592 0.073218 -0.028954
v -0.029079 0.078735 -0.096605
v 0.111870 0.035848 0.787564
v 0.187724 0.066882 0.300634
v 0.220386 0.016568 0.257713
v 0.497464 0.075885 1.032216
v -0.210416 0.086423 0.640556
v 0.054750 0.059517 -0.074029
v -0.281029 0.037428 0.268948
v 0.261761 0.167770 0.685767
v 0.386375 0.094844 0.397145
v 0.249099 0.108215 0.201479
v 0.069920 0.026850 -0.090280
v 0.390559 0.023604 0.396642
v 0.069952 0.019982 0.408956
v -0.054851 0.067591 0.460818
v -0.136443 0.009757 0.654561
v 0.624253 0.085903 0.896792
v -0.014261 0.004892 0.060931
v 0.012618 -0.026338 0.248650
v 0.186632 0.051172 0.103751
v 0.152745 0.116664 0.363751
v 0.175264 0.072442 0.408034
v 0.171550 0.040232 0.404864
v 0.625117 0.014191 0.884828
v -0.003301 0.100114 0.145613
v 0.066969 0.064251 0.091786
v 0.113541 0.030050 0.055335
v -0.103313 0.034850 0.071882
v -0.088546 0.065106 0.104183
v 0.071950 0.033581 0.061023
v -0.001435 0.033680 0.496649
v 0.091473 0.046558 0.051758
v 0.256766 0.011585 0.667815
v -0.037532 0.004506 0.028771
v 0.017411 0.005151 0.035313
v -0.005820 0.110364 0.492637
v -0.031018 0.066700 0.510180
v 0.122160 0.063826 0.778884
v 0.090734 0.017794 0.451847
vt 0.563791 -0.992624
vt 0.707305 -0.992624
vt 0.720952 -0.718365
vt 0.084651 -0.992626
vt 0.246323 -0.992591
vt 0.108440 -0.712242
vt 0.116739 -0.510401
vt 0.231049 -0.313010
vt 0.160150 -0.246828
vt 0.122399 -0.547155
vt 0.004918 -0.547040
vt 0.035822 -0.719864
vt 0.402544 -0.225272
vt 0.457339 -0.200479
vt 0.431474 -0.138745
vt 0.952857 -0.720881
vt 0.845083 -0.547089
vt 0.590584 -0.408476
vt 0.979512 -0.481540
vt 0.986559 -0.391282
vt 0.589946 -0.285894
vt 0.978639 -0.326557
vt 0.237228 -0.728939
vt 0.377448 -0.992562
vt 0.461096 -0.546939
vt 0.332257 -0.506909
vt 0.972239 -0.017557
vt 0.968182 -0.166417
vt 0.589691 -0.012775
vt 0.589323 -0.169309
vt 0.813745 -0.118804
vt 0.824518 -0.263277
vt 0.747151 -0.261488
vt 0.740231 -0.256481
vt 0.732789 -0.321288
vt 0.738586 -0.308001
vt 0.591205 -0.186039
vt 0.590308 -0.345746
vt 0.663645 -0.208935
vt 0.746537 -0.186085
vt 0.662072 -0.118342
vt 0.743900 -0.239593
vt 0.731878 -0.370844
vt 0.771068 -0.370362
vt 0.820441 -0.313461
vt 0.742575 -0.312512
vt 0.664064 -0.303063
vt 0.663059 -0.353771
vt 0.304751 -0.205314
vt 0.008054 -0.452698
vt 0.012683 -0.297960
vt 0.007770 -0.506365
vt 0.150150 -0.206572
vt 0.230820 -0.149376
vt 0.003945 -0.196351
vt 0.233101 -0.221717
vt 0.213747 -0.295406
vt 0.169475 -0.190698
vt 0.231544 -0.321719
vt 0.662169 -0.207338
vt 0.661619 -0.264821
vt 0.661619 -0.119095
vt 0.755315 -0.118817
vt 0.753678 -0.206967
vt 0.812920 -0.206904
vt 0.478450 -0.992596
vt 0.734107 -0.446346
vt 0.742364 -0.446329
vt 0.742309 -0.446337
vt 0.230963 -0.547336
vt 0.457252 -0.506493
vt 0.331296 -0.506553
vt 0.300410 -0.254068
vt 0.155315 -0.240678
vt 0.232708 -0.175282
vt 0.292574 -0.190836
vt 0.270404 -0.287414
vt 0.232496 -0.223973
vt 0.754355 -0.119089
vt 0.813689 -0.207101
vt 0.773185 -0.321163
vt 0.749447 -0.210792
vt 0.660948 -0.206955
vt 0.899303 -0.992625
vt 0.457549 -0.447032
vt 0.463113 -0.052108
vt 0.463055 -0.003704
vt 0.123015 -0.506934
vt 0.231257 -0.041624
vt 0.278393 -0.089629
vt 0.005021 -0.992622
vt 0.723716 -0.446342
vt 0.232823 -0.286417
vt 0.202767 -0.188851
vt 0.201847 -0.188422
vt 0.750128 -0.119384
vt 0.232762 -0.175014
vt 0.304537 -0.236310
vt 0.260669 -0.189115
vt 0.309766 -0.199616
vt 0.383975 -0.162878
vt 0.940454 -0.128305
vt 0.813591 -0.119022
vt 0.590372 -0.476758
vt 0.202869 -0.189287
vt 0.616117 -0.547451
vt 0.007642 -0.002109
vt 0.007517 -0.050508
vt 0.023996 -0.138573
vt 0.742534 -0.446350
vt 0.068718 -0.232123
vt 0.150161 -0.206570
vt 0.231715 -0.230666
vt 0.305609 -0.235400
vt 0.181300 -0.089353
vt 0.446506 -0.307256
vt 0.457560 -0.200973
vt 0.231070 -0.546623
vt 0.461003 -0.546843
vt 0.456942 -0.507241
vt 0.730786 -0.507816
vt 0.616123 -0.547449
vt 0.149899 -0.234327
vt 0.087477 -0.168348
vt 0.230722 -0.206286
vt 0.149108 -0.192542
vt 0.085169 -0.160146
vt 0.304731 -0.205399
vt 0.987342 -0.507385
vt 0.731297 -0.507577
vt 0.987066 -0.546962
vt 0.729421 -0.548154
vt 0.939779 -0.210299
vt 0.971369 -0.211726
vt 0.972050 -0.129070
vt 0.005017 -0.721165
vt 0.730655 -0.507944
vn 0.041200 -0.997500 -0.057900
vn 0.060400 0.989700 0.129800
vn -0.352800 0.933600 -0.063000
vn -0.708800 0.573900 0.410200
vn 0.204700 -0.976300 -0.069800
vn -0.120900 -0.991200 0.054500
vn 0.611400 -0.790100 -0.044600
vn 0.419700 0.901600 0.104900
vn 0.185000 0.910400 -0.370100
vn -0.046500 0.998000 -0.042400
vn 0.234400 -0.942200 -0.239400
vn -0.469400 -0.729300 0.497700
vn -0.147000 -0.987400 -0.058700
vn -0.525400 0.850500 -0.024500
vn -0.465500 -0.849700 -0.247500
vn 0.009800 0.993900 -0.109900
vn 0.178200 -0.960700 -0.212900
vn 0.288400 0.903500 -0.317100
vn -0.001800 -0.964600 0.263800
vn -0.015700 0.994100 0.107000
vn 0.003800 0.991600 -0.129400
vn 0.219600 -0.964700 0.145300
vn 0.830700 0.397100 -0.390200
vn -0.721200 -0.438400 0.536400
vn -0.540500 0.300500 -0.785900
vn 0.385700 -0.355600 0.851400
vn -0.565600 -0.779100 0.270200
vn 0.230400 -0.945700 -0.229100
vn -0.499700 0.252900 0.828400
vn -0.616700 0.622700 0.481500
vn -0.222000 -0.941700 -0.252800
vn 0.062500 0.987000 -0.147900
vn -0.522600 0.695000 -0.493800
vn -0.472000 0.880900 -0.034600
vn -0.538600 -0.155700 0.828100
vn 0.490000 -0.277700 -0.826300
vn 0.419600 -0.254600 0.871300
vn -0.702700 -0.286000 0.651500
vn 0.084600 0.996100 0.026600
vn 0.751200 0.494200 -0.437500
vn 0.261500 -0.963500 -0.057200
vn -0.401600 0.863500 -0.305100
vn -0.368600 0.905000 -0.212600
vn 0.479800 0.378100 -0.791700
vn 0.941600 -0.044300 0.333800
vn -0.206800 0.977700 0.037600
vn -0.783300 0.454600 0.424100
vn 0.394400 0.824500 -0.405800
vn 0.916900 0.253800 0.308000
vn 0.855900 0.125800 0.501700
vn 0.329400 0.883400 -0.333500
vn 0.826100 0.009800 0.563400
vn 0.847400 0.174700 0.501400
vn 0.896200 -0.428900 0.113200
vn 0.733200 0.058400 0.677500
vn -0.689800 -0.213300 -0.691900
vn 0.837600 0.004700 -0.546300
vn -0.741300 -0.362100 0.565200
vn 0.301600 -0.803700 0.513000
vn -0.386900 0.863100 -0.324700
vn 0.119300 0.107300 -0.987000
vn -0.012300 0.995900 0.089200
vn -0.124800 -0.990900 0.049800
vn -0.510900 0.444500 0.735800
vn 0.850700 -0.063700 0.521700
vn -0.328900 0.838700 0.434000
vn 0.896600 0.330800 0.294500
vn 0.189000 -0.959300 0.209600
vn -0.519500 0.409000 0.750200
vn 0.729900 -0.103900 0.675600
vn 0.258300 0.965900 0.019100
vn -0.083900 0.100100 0.991400
vn -0.022300 0.995100 0.095900
vn -0.020300 -0.961500 0.274100
vn -0.666800 -0.037800 0.744300
vn -0.653800 -0.083400 0.752000
vn -0.027800 0.914900 0.402700
vn -0.266500 0.962500 0.049900
vn 0.888500 0.049000 0.456200
vn -0.295500 0.888600 0.350700
vn 0.852500 0.182700 0.489700
vn 0.146500 0.712300 -0.686400
vn 0.021600 -0.986000 -0.165600
vn -0.311900 -0.849700 0.425100
vn 0.636100 0.031900 0.770900
vn 0.578800 -0.564500 0.588500
vn 0.045700 -0.991400 -0.122800
vn -0.688100 0.449300 0.569700
vn -0.066300 -0.809500 0.583400
vn -0.061100 0.122000 0.990600
vn 0.657900 -0.694700 -0.290700
vn 0.944500 -0.020800 0.327900
vn 0.145300 0.980700 0.130800
vn -0.272600 -0.950300 -0.150200
vn 0.041200 0.719700 -0.693000
vn -0.011600 -0.959500 0.281400
vn -0.212800 -0.977000 -0.009400
vn 0.076100 -0.914300 -0.397700
vn 0.108000 0.994100 0.006200
vn -0.167400 0.931000 -0.324300
vn 0.605400 0.695600 0.386800
vn 0.493400 0.028700 -0.869400
vn 0.940800 0.227300 -0.251500
vn 0.123800 -0.751900 -0.647500
vn 0.963000 -0.085900 -0.255500
vn 0.769300 0.076700 0.634200
vn 0.029900 -0.998800 -0.038700
vn 0.257200 0.670600 -0.695800
vn -0.151400 0.978400 -0.140800
vn -0.196200 0.678400 -0.708100
vn 0.270500 0.925900 -0.263800
vn 0.598100 0.004100 0.801400
vn 0.652300 -0.736500 -0.179200
vn -0.329000 -0.938000 -0.109000
vn 0.127000 0.651000 -0.748400
vn -0.279700 0.761200 -0.585100
vn -0.066400 0.993800 0.089300
vn 0.309600 -0.929800 -0.199000
vn -0.219600 0.662300 -0.716300
vn -0.422300 -0.882800 -0.205900
vn -0.662400 -0.701400 0.263200
vn -0.458500 0.418300 -0.784100
vn -0.269100 0.946900 0.176100
vn -0.134000 -0.988200 0.074600
vn 0.175100 -0.971000 -0.162500
vn -0.475900 -0.867000 -0.147500
vn 0.001100 -0.996100 0.088800
vn 0.030400 -0.987000 -0.157800
vn -0.764900 0.565400 0.308600
vn -0.176700 0.979900 0.092500
vn -0.646400 -0.701800 0.299400
vn -0.701500 0.620900 0.349900
vn -0.514800 0.421000 0.746800
vn -0.783200 0.428000 0.451000
vn 0.188100 -0.972000 -0.140700
vn -0.157500 -0.987200 0.026000
usemtl KDFM
s off
f 1/1/1 59/2/1 68/3/1
f 40/4/2 52/5/2 28/6/2
f 5/7/3 60/8/3 64/9/3
f 71/10/4 72/11/4 73/12/4
f 54/13/5 31/14/5 39/15/5
f 68/3/6 37/16/6 66/17/6
f 6/18/7 18/19/7 19/20/7
f 41/21/8 19/20/8 22/22/8
f 44/23/9 27/24/9 57/25/9
f 5/7/10 56/26/10 60/8/10
f 39/27/11 8/28/11 48/29/11
f 38/20/12 39/19/12 13/18/12
f 2/28/13 51/29/13 9/30/13
f 2/28/14 9/30/14 41/21/14
f 33/31/15 69/32/15 26/33/15
f 32/34/16 15/35/16 67/36/16
f 4/37/17 48/29/17 8/28/17
f 45/38/18 4/30/18 8/28/18
f 10/39/19 14/40/19 35/41/19
f 32/34/20 67/36/20 42/42/20
f 15/35/21 17/43/21 67/36/21
f 23/44/22 70/45/22 62/46/22
f 16/47/23 15/35/23 32/34/23
f 15/35/24 16/47/24 26/33/24
f 12/48/25 67/36/25 17/43/25
f 17/43/26 62/46/26 12/48/26
f 6/29/27 2/28/27 18/27/27
f 55/15/28 54/49/28 65/13/28
f 19/50/29 5/7/29 21/51/29
f 19/50/30 50/52/30 5/7/30
f 20/53/31 54/54/31 43/55/31
f 21/51/32 5/7/32 64/9/32
f 43/55/33 21/51/33 64/9/33
f 41/21/34 22/22/34 2/28/34
f 2/56/35 22/57/35 21/58/35
f 22/57/36 19/59/36 21/58/36
f 62/46/37 17/43/37 23/44/37
f 24/60/38 42/42/38 11/61/38
f 10/39/39 35/62/39 36/63/39
f 11/61/40 25/64/40 24/60/40
f 47/65/41 62/46/41 70/45/41
f 26/33/42 10/39/42 36/63/42
f 16/47/43 10/39/43 26/33/43
f 57/25/44 27/24/44 1/66/44
f 52/67/45 59/68/45 1/69/45
f 28/6/46 29/70/46 71/10/46
f 28/6/47 71/10/47 73/12/47
f 57/25/48 29/70/48 44/23/48
f 7/71/49 38/72/49 56/72/49
f 56/72/50 30/72/50 46/73/50
f 8/28/51 30/22/51 45/38/51
f 39/74/52 31/75/52 8/54/52
f 46/76/53 30/77/53 8/78/53
f 32/34/54 10/39/54 16/47/54
f 10/39/55 32/34/55 14/40/55
f 26/33/56 36/79/56 33/31/56
f 11/61/57 47/80/57 25/64/57
f 15/35/58 26/33/58 34/81/58
f 42/82/59 24/83/59 35/41/59
f 35/62/60 24/83/60 25/64/60
f 36/79/61 25/64/61 47/65/61
f 25/64/62 36/63/62 35/62/62
f 68/3/63 3/84/63 37/16/63
f 28/6/64 73/12/64 40/4/64
f 38/85/65 30/72/65 56/72/65
f 30/22/66 38/20/66 45/38/66
f 38/86/67 7/87/67 39/88/67
f 39/15/68 49/89/68 54/90/68
f 3/91/69 40/4/69 73/12/69
f 40/92/70 59/68/70 52/67/70
f 19/20/71 41/21/71 6/18/71
f 51/93/72 41/94/72 9/95/72
f 14/40/73 32/34/73 42/42/73
f 42/82/74 35/41/74 14/96/74
f 43/97/75 18/98/75 2/56/75
f 21/58/76 43/97/76 2/56/76
f 28/6/77 52/5/77 44/23/77
f 28/6/78 44/23/78 29/70/78
f 4/95/79 45/99/79 48/93/79
f 13/18/80 45/38/80 38/20/80
f 31/75/81 46/76/81 8/78/81
f 61/100/82 55/101/82 65/73/82
f 69/102/83 33/103/83 47/65/83
f 47/65/61 33/103/61 36/79/61
f 48/104/84 13/18/84 39/19/84
f 45/99/85 13/105/85 48/93/85
f 7/87/86 49/89/86 39/15/86
f 1/1/87 68/3/87 58/106/87
f 50/107/88 19/108/88 18/109/88
f 49/89/89 50/107/89 18/109/89
f 51/93/90 6/105/90 41/94/90
f 2/19/91 6/18/91 51/104/91
f 52/67/92 1/69/92 27/110/92
f 52/5/93 27/24/93 44/23/93
f 20/111/94 63/112/94 54/55/94
f 60/113/95 63/49/95 64/114/95
f 18/109/96 54/115/96 49/116/96
f 43/55/97 54/115/97 18/109/97
f 31/54/98 54/49/98 55/15/98
f 31/117/99 55/101/99 61/73/99
f 29/118/100 56/72/100 5/10/100
f 56/72/101 29/118/101 57/119/101
f 1/1/102 58/106/102 57/25/102
f 57/119/103 7/120/103 56/72/103
f 49/121/104 7/120/104 58/122/104
f 57/119/105 58/122/105 7/120/105
f 40/92/106 3/68/106 59/68/106
f 59/2/107 3/84/107 68/3/107
f 46/116/108 31/117/108 61/73/108
f 61/73/109 56/26/109 46/116/109
f 60/113/110 61/123/110 65/53/110
f 56/26/111 61/73/111 60/8/111
f 11/61/112 12/48/112 62/46/112
f 62/46/113 47/80/113 11/61/113
f 54/124/114 63/112/114 53/125/114
f 63/112/115 60/113/115 53/125/115
f 63/126/116 20/127/116 64/9/116
f 20/127/117 43/55/117 64/9/117
f 53/13/118 65/54/118 54/49/118
f 65/128/119 53/125/119 60/113/119
f 66/17/120 50/129/120 49/130/120
f 66/17/121 37/16/121 72/131/121
f 67/36/122 12/48/122 11/61/122
f 42/42/123 67/36/123 11/61/123
f 66/17/124 74/132/124 68/3/124
f 58/106/125 68/3/125 74/132/125
f 34/81/126 26/33/126 69/32/126
f 70/133/127 23/134/127 34/135/127
f 34/135/127 69/102/127 70/133/127
f 47/65/128 70/133/128 69/102/128
f 72/11/129 71/10/129 5/88/129
f 29/72/130 5/7/130 71/10/130
f 50/129/131 66/17/131 72/131/131
f 5/7/132 50/52/132 72/11/132
f 3/91/133 73/12/133 37/136/133
f 37/136/134 73/12/134 72/11/134
f 49/137/135 58/106/135 74/132/135
f 49/130/136 74/132/136 66/17/136
