# Blender v2.75 (sub 0) OBJ File: 'Empty.blend'
# www.blender.org
mtllib KDFL.mtl
o KDFL
v -0.469537 -0.006719 -0.188710
v 0.520385 0.055492 0.203194
v -0.008588 -0.004801 -0.550065
v 0.307689 -0.041084 0.462823
v -0.125742 0.010039 0.081831
v -0.242773 0.017030 -0.141509
v -0.319901 -0.009879 0.140065
v 0.195785 0.006031 -0.467663
v -0.035896 0.022734 -0.369509
v 0.154686 0.007920 -0.316363
v -0.459473 0.009154 -0.330861
v -0.028679 0.059094 -0.425139
v -0.025212 0.064068 -0.485631
v -0.406760 0.062090 -0.220308
v -0.326785 0.054634 -0.212320
v 0.525833 -0.016451 0.173283
v -0.163978 0.067499 -0.148404
v 0.320833 0.031737 0.432814
v -0.215799 -0.070485 -0.337900
v -0.240994 0.042276 0.110202
v 0.187728 -0.031555 -0.373435
v -0.039037 0.072516 -0.297416
v -0.025817 -0.027580 -0.422495
v 0.184020 0.039685 -0.371433
v -0.012543 0.007565 -0.522052
v -0.435489 0.004750 -0.178910
v -0.167161 -0.034391 0.095476
v -0.027644 0.028042 -0.300198
v -0.092961 -0.024166 -0.220018
v -0.323614 -0.039255 -0.493903
v 0.432771 0.017427 0.284878
v -0.124722 0.007024 -0.545219
v -0.321757 -0.032657 -0.202933
v -0.181511 0.023443 -0.117919
v -0.276021 0.055966 -0.423007
v -0.237152 0.020103 -0.502533
v -0.398424 -0.009298 -0.444367
v -0.003863 -0.003915 -0.269013
v -0.039445 -0.008300 0.094660
v -0.138157 0.022552 -0.084376
v -0.370796 0.020958 -0.422049
v -0.000978 0.064644 0.063609
v -0.064268 0.087564 -0.197960
v 0.110446 0.090312 -0.007137
v -0.246420 -0.010566 -0.532287
v -0.117719 -0.010468 -0.109686
v 0.105451 -0.043574 -0.025089
v 0.432380 -0.040818 0.272890
v 0.000875 0.054911 -0.267834
v -0.123434 0.066216 -0.111320
v -0.029155 0.019678 0.085980
v -0.055225 -0.026353 -0.190907
vt 0.237228 -0.728939
vt 0.377448 -0.992562
vt 0.461003 -0.546843
vt 0.720952 -0.718365
vt 0.899303 -0.992625
vt 0.952857 -0.720881
vt 0.707305 -0.992624
vt 0.084651 -0.992626
vt 0.246323 -0.992591
vt 0.108440 -0.712242
vt 0.589946 -0.285894
vt 0.986559 -0.391282
vt 0.978639 -0.326557
vt 0.023996 -0.138573
vt 0.181300 -0.089353
vt 0.446506 -0.307256
vt 0.589691 -0.012775
vt 0.968182 -0.166417
vt 0.972239 -0.017557
vt 0.116739 -0.510401
vt 0.231049 -0.313010
vt 0.160150 -0.246828
vt 0.589323 -0.169309
vt 0.402544 -0.225272
vt 0.457339 -0.200479
vt 0.431474 -0.138745
vt 0.309766 -0.199616
vt 0.383975 -0.162878
vt 0.300410 -0.254068
vt 0.590308 -0.345746
vt 0.591205 -0.186039
vt 0.304751 -0.205314
vt 0.331296 -0.506553
vt 0.292574 -0.190836
vt 0.270404 -0.287414
vt 0.232496 -0.223973
vt 0.012683 -0.297960
vt 0.003930 -0.196400
vt 0.233101 -0.221717
vt 0.213747 -0.295406
vt 0.169475 -0.190698
vt 0.231544 -0.321719
vt 0.461096 -0.546939
vt 0.478450 -0.992596
vt 0.723716 -0.446342
vt 0.742364 -0.446329
vt 0.734107 -0.446346
vt 0.008054 -0.452698
vt 0.035822 -0.719864
vt 0.005021 -0.992622
vt 0.150150 -0.206572
vt 0.230820 -0.149376
vt 0.590584 -0.408476
vt 0.232823 -0.286417
vt 0.202767 -0.188851
vt 0.201847 -0.188422
vt 0.590372 -0.476758
vt 0.979512 -0.481540
vt 0.260669 -0.189115
vt 0.457549 -0.447032
vt 0.563791 -0.992624
vt 0.616117 -0.547451
vt 0.463113 -0.052108
vt 0.463055 -0.003704
vt 0.123015 -0.506934
vt 0.202869 -0.189287
vt 0.155315 -0.240678
vt 0.232708 -0.175282
vt 0.232762 -0.175014
vt 0.304537 -0.236310
vt 0.457252 -0.506493
vt 0.231257 -0.041624
vt 0.278393 -0.089629
vt 0.068718 -0.232123
vt 0.150161 -0.206570
vt 0.231715 -0.230666
vt 0.305609 -0.235400
vt 0.742309 -0.446337
vt 0.742534 -0.446350
vt 0.457560 -0.200973
vt 0.007642 -0.002109
vt 0.007517 -0.050508
vt 0.007770 -0.506365
vt 0.149899 -0.234327
vt 0.332257 -0.506909
vt 0.087477 -0.168348
vt 0.230722 -0.206286
vt 0.730786 -0.507816
vt 0.456942 -0.507241
vt 0.845083 -0.547089
vt 0.122399 -0.547155
vt 0.004918 -0.547040
vt 0.987066 -0.546962
vt 0.149108 -0.192542
vt 0.085169 -0.160146
vt 0.231070 -0.546623
vt 0.304731 -0.205399
vt 0.987342 -0.507385
vt 0.731297 -0.507577
vt 0.729421 -0.548154
vt 0.005017 -0.721165
vt 0.730655 -0.507944
vn 0.189100 0.959300 -0.209700
vn -0.174900 -0.981500 0.077500
vn 0.006100 -1.000000 0.002600
vn 0.113400 0.993500 -0.010300
vn 0.470000 0.877900 -0.091400
vn 0.058500 -0.948400 0.311700
vn -0.239400 -0.922400 0.303100
vn -0.343800 0.933600 0.101100
vn -0.155300 -0.987800 0.011000
vn -0.481200 0.850200 0.213400
vn 0.152000 -0.976300 -0.153800
vn 0.057200 -0.943800 -0.325500
vn -0.175200 0.712300 -0.679700
vn 0.190300 0.879600 -0.436000
vn 0.090200 0.943500 -0.318900
vn 0.087800 -0.927800 -0.362600
vn 0.104000 -0.945700 -0.307900
vn -0.378400 0.915600 0.135800
vn -0.059900 0.839100 0.540700
vn -0.060600 0.998000 -0.017200
vn 0.989800 0.125800 0.067100
vn 0.982100 0.174700 0.070600
vn 0.035500 0.980400 -0.193600
vn -0.769800 0.584600 -0.256400
vn -0.025000 0.593400 0.804500
vn -0.041100 -0.901800 -0.430100
vn 0.632000 0.337800 -0.697500
vn 0.784600 -0.130100 0.606200
vn -0.254700 0.509900 0.821700
vn -0.561400 0.622900 0.544900
vn -0.656100 0.385700 0.648700
vn 0.833500 0.075100 0.547300
vn -0.311500 -0.941700 -0.127200
vn -0.156800 -0.976100 0.150400
vn 0.245500 0.964400 -0.098500
vn 0.293600 0.100100 0.950700
vn -0.133100 -0.849500 0.510500
vn 0.993300 0.048800 0.104400
vn 0.994100 -0.063700 0.087300
vn 0.171500 -0.957400 -0.232500
vn 0.933800 0.330800 -0.136500
vn -0.236400 -0.726700 0.645100
vn 0.874400 0.031900 0.484200
vn -0.063600 0.878800 0.473000
vn 0.990700 0.009800 0.135600
vn 0.981500 0.182700 0.057900
vn -0.028300 -0.599600 0.799800
vn -0.404500 0.659800 0.633200
vn 0.254300 0.059400 0.965300
vn 0.499300 -0.643600 -0.580100
vn 0.958000 0.253800 -0.133500
vn 0.640000 -0.036200 -0.767500
vn 0.780600 -0.564500 0.268400
vn 0.262600 -0.959300 0.103300
vn -0.311000 -0.950300 -0.012800
vn -0.272300 0.719700 -0.638600
vn 0.714700 -0.221700 0.663300
vn -0.093200 0.937000 0.336700
vn -0.109400 -0.914300 -0.389900
vn 0.099400 0.994100 -0.042700
vn 0.067700 -0.880400 0.469300
vn 0.685600 -0.621700 -0.378700
vn -0.238400 -0.582000 0.777400
vn -0.337100 0.622700 0.706100
vn -0.080300 0.670600 -0.737500
vn -0.198300 0.978400 -0.058500
vn -0.491500 0.678400 -0.546100
vn 0.124400 0.925900 -0.356700
vn -0.343000 -0.938000 0.049300
vn -0.220300 0.651000 -0.726400
vn -0.178100 -0.751900 -0.634700
vn 0.769300 -0.049200 -0.637000
vn -0.175000 -0.981500 0.077400
vn -0.712000 0.526700 0.464400
vn -0.471600 0.620900 0.626100
vn -0.707000 -0.650400 0.277700
vn -0.511400 0.761200 -0.398800
vn -0.019600 0.993800 0.109600
vn -0.040500 0.958000 0.283800
vn -0.637400 0.624200 0.451800
vn -0.294500 0.931000 -0.215600
vn -0.167800 0.977700 0.126300
vn 0.231900 0.946100 -0.225900
vn -0.148600 0.981300 0.122000
vn 0.188300 -0.929800 -0.316300
vn -0.516200 0.662300 -0.543100
vn -0.469800 -0.882800 0.004200
vn -0.444900 -0.701800 0.556400
vn -0.169400 -0.983600 0.062000
vn 0.109600 -0.972100 -0.207200
vn 0.739000 -0.140600 0.658900
vn 0.122800 -0.984500 -0.125600
vn 0.640300 0.210200 -0.738800
vn 0.422000 0.906100 -0.030000
vn -0.546900 0.565400 0.617500
vn -0.116900 0.979900 0.161700
vn -0.636600 0.432300 0.638700
vn -0.756800 0.430800 0.491500
vn 0.105500 -0.972000 -0.209800
vn -0.129400 -0.987200 0.093500
usemtl KDFL
s off
f 44/1/1 2/2/1 49/3/1
f 47/4/2 4/5/2 39/6/2
f 48/7/3 4/5/3 47/4/3
f 18/8/4 31/9/4 42/10/4
f 20/11/5 6/12/5 15/13/5
f 33/14/6 19/15/6 29/16/6
f 5/17/7 26/18/7 33/19/7
f 17/20/8 35/21/8 41/22/8
f 26/18/9 27/17/9 7/23/9
f 26/18/10 7/23/10 20/11/10
f 19/24/11 3/25/11 23/26/11
f 23/19/12 25/18/12 21/17/12
f 36/27/13 32/28/13 45/29/13
f 25/18/14 12/13/14 24/30/14
f 24/30/15 8/23/15 25/18/15
f 8/31/16 21/17/16 25/18/16
f 32/26/17 19/32/17 45/24/17
f 20/11/18 15/13/18 26/18/18
f 12/13/19 9/12/19 24/30/19
f 17/20/20 22/33/20 35/21/20
f 22/33/21 12/33/21 13/29/21
f 13/34/22 12/35/22 25/36/22
f 14/37/23 17/20/23 41/22/23
f 1/38/24 14/37/24 41/22/24
f 26/39/25 15/40/25 14/41/25
f 15/40/26 6/42/26 14/41/26
f 49/43/27 2/2/27 16/44/27
f 18/45/28 48/46/28 31/47/28
f 6/48/29 17/20/29 14/37/29
f 42/10/30 51/49/30 18/8/30
f 4/50/31 18/8/31 51/49/31
f 18/45/32 4/46/32 48/46/32
f 11/51/33 19/52/33 1/38/33
f 1/38/34 19/15/34 33/14/34
f 6/12/35 20/11/35 5/53/35
f 27/54/36 20/55/36 7/56/36
f 21/57/37 10/53/37 23/58/37
f 8/56/38 24/59/38 21/54/38
f 9/60/39 12/33/39 22/33/39
f 16/61/40 47/4/40 38/62/40
f 9/63/41 28/64/41 23/65/41
f 9/12/42 23/58/42 10/53/42
f 24/59/43 10/66/43 21/54/43
f 10/53/44 24/30/44 9/12/44
f 23/67/45 3/68/45 25/52/45
f 3/68/46 13/34/46 25/36/46
f 1/69/47 33/70/47 26/39/47
f 14/41/48 1/69/48 26/39/48
f 27/54/49 5/66/49 20/55/49
f 26/58/50 5/53/50 27/57/50
f 28/71/51 9/33/51 22/33/51
f 16/61/52 38/62/52 49/43/52
f 28/64/53 29/72/53 23/26/53
f 23/26/54 29/72/54 19/73/54
f 11/74/55 37/75/55 19/38/55
f 35/76/56 37/32/56 41/77/56
f 31/47/57 16/78/57 2/79/57
f 31/9/58 2/2/58 44/1/58
f 3/52/59 19/32/59 32/26/59
f 3/80/60 32/28/60 36/29/60
f 29/72/61 34/81/61 33/14/61
f 5/53/62 33/58/62 6/12/62
f 34/81/63 6/82/63 33/14/63
f 6/48/64 34/83/64 17/20/64
f 13/16/65 3/80/65 36/29/65
f 36/29/66 22/33/66 13/16/66
f 35/76/67 36/84/67 45/51/67
f 22/85/68 36/29/68 35/21/68
f 19/86/69 37/75/69 30/87/69
f 37/75/70 35/76/70 30/87/70
f 29/88/71 28/89/71 38/62/71
f 49/43/72 38/62/72 28/89/72
f 47/4/73 39/6/73 46/90/73
f 50/91/74 40/92/74 51/49/74
f 17/20/75 34/83/75 40/92/75
f 46/90/76 39/6/76 40/93/76
f 37/94/77 11/95/77 41/22/77
f 11/95/78 1/38/78 41/22/78
f 42/10/79 31/9/79 44/1/79
f 42/10/80 50/91/80 51/49/80
f 43/96/81 22/33/81 17/91/81
f 42/10/82 43/96/82 50/91/82
f 49/43/83 43/96/83 44/1/83
f 42/10/84 44/1/84 43/96/84
f 30/24/85 45/52/85 19/32/85
f 45/97/86 30/87/86 35/76/86
f 46/90/87 34/98/87 29/99/87
f 34/98/88 46/90/88 40/93/88
f 46/90/89 52/100/89 47/4/89
f 38/62/90 47/4/90 52/100/90
f 31/47/91 48/46/91 16/78/91
f 16/61/92 48/7/92 47/4/92
f 49/3/93 28/89/93 22/33/93
f 22/33/94 43/96/94 49/3/94
f 40/92/95 50/91/95 17/20/95
f 43/33/96 17/20/96 50/91/96
f 4/50/97 51/49/97 39/101/97
f 39/101/98 51/49/98 40/92/98
f 29/102/99 38/62/99 52/100/99
f 29/99/100 52/100/100 46/90/100
