# Blender v2.75 (sub 0) OBJ File: 'Empty.blend'
# www.blender.org
mtllib MIN_MOB_STONE_V3_20.mtl
o MIN_MOB_STONE_V3_20
v -0.310456 0.704466 0.435360
v -1.031122 0.093736 -0.762178
v -0.017376 0.544219 -1.070134
v -1.043923 0.790776 -0.730217
v 0.837321 0.583505 0.614262
v 0.231724 0.039497 0.723072
v 1.103170 0.583621 -0.222752
v 1.110906 0.017645 0.335105
v -1.081564 0.151808 -0.114489
v 0.644245 0.956757 0.184959
v 0.574827 0.483063 -0.893186
v 0.954809 0.096767 -0.481420
v -0.480078 1.061161 -0.511952
v -0.013471 1.022918 0.122349
v 0.822419 0.026130 0.656242
v -0.799321 0.543281 0.141258
v 0.662275 0.324431 0.754003
v -0.448874 -0.046774 -0.295649
v -0.536809 0.008434 -0.611346
v -0.437611 -0.020061 0.488688
v -1.108002 0.460687 -0.836719
v -1.085316 0.029667 -0.381462
v -0.658890 0.773161 -0.883404
v -0.029523 0.882531 -0.793093
v 1.115712 0.056306 -0.167575
v 0.724235 0.882726 -0.129683
v -0.983143 0.640239 -0.252672
v 1.036292 0.646398 0.170374
v 1.060141 0.303990 -0.398839
v 0.237605 1.032259 -0.240328
v 1.129291 0.276755 0.230023
v -0.637536 0.370971 -0.876851
vt 0.006563 -0.494792
vt 0.008709 -0.770088
vt 0.705185 -0.424651
vt 0.902594 -0.521758
vt 0.847777 -0.161566
vt 0.484456 -0.161390
vt 0.663926 -0.467460
vt 0.824993 -0.322124
vt 0.448188 -0.380036
vt 0.798962 -0.260183
vt 0.789427 -0.622829
vt 0.999501 -0.541934
vt 0.653571 -0.034982
vt 0.299844 -0.975414
vt 0.356621 -0.322124
vt 0.138333 -0.467460
vt 0.598717 -0.921712
vt 0.790967 -0.664794
vt 0.137525 -0.945961
vt 0.700156 -0.854199
vt 0.535426 -0.431087
vt 0.862475 -0.933765
vt 0.320128 -0.374483
vt 0.077030 -0.431192
vt 0.287461 -0.707781
vt 0.505208 -0.906556
vt 0.631861 -0.683225
vt 0.987695 -0.523865
vt 0.128331 -0.541934
vt 0.169153 -0.872806
vt 0.377655 -0.930575
vt 0.312141 -0.094638
vt 0.489232 -0.034982
vt 0.248080 -0.521758
vt 0.512512 -0.466615
vt 0.517936 -0.161566
vt 0.078410 -0.870073
vt 0.705185 -0.999500
vt 0.677087 -0.870073
vt 0.970888 -0.244300
vt 0.719118 -0.000500
vt 0.306191 -0.000500
vt 0.489232 -0.653571
vt 0.601343 -0.454948
vt 0.280882 -0.306191
vt 0.869129 -0.431192
vt 0.782917 -0.094638
vt 0.000500 -0.664794
vt 0.054039 -0.933765
vt 0.523865 -0.820444
vt 0.854199 -0.975414
vt 0.989371 -0.377655
vt 0.965172 -0.169153
vt 0.744450 -0.251758
vt 0.744450 -0.949721
vt 0.999500 -0.466615
vt 0.575349 -0.999500
vt 0.401283 -0.982560
vt 0.482064 -0.152223
vt 0.078410 -0.322913
vt 0.818634 -0.515544
vt 0.186657 -0.244300
vt 0.782917 -0.687859
vt 0.229912 -0.941415
vt 0.965172 -0.872806
vn 0.071700 -0.994500 -0.075800
vn 0.425500 0.764900 -0.483600
vn -0.502100 0.755800 0.420300
vn -0.088900 -0.020900 -0.995800
vn -0.462600 0.802300 0.377300
vn -0.546500 0.156500 0.822700
vn -0.220500 0.230300 0.947800
vn 0.032200 -0.998900 0.033600
vn 0.467900 0.742100 -0.480000
vn 0.102800 -0.259500 0.960300
vn 0.859000 0.284800 0.425400
vn 0.986800 0.125100 -0.103100
vn -0.289700 -0.956400 0.036700
vn -0.955700 -0.235900 -0.175800
vn 0.586100 0.723200 0.365200
vn 0.030100 0.686300 0.726700
vn 0.283600 0.613600 -0.736900
vn 0.001100 -0.795300 -0.606200
vn 0.698700 -0.071500 -0.711800
vn 0.157300 -0.643600 -0.749000
vn -0.180200 0.817500 -0.547000
vn -0.464500 0.795200 0.389700
vn 0.024200 0.998800 0.042400
vn 0.014100 0.757700 0.652400
vn 0.022400 -0.998700 0.046500
vn 0.741700 0.187100 0.644100
vn -0.834400 0.299100 0.463000
vn -0.681600 0.013500 0.731600
vn -0.179900 0.558400 0.809900
vn 0.733400 -0.136300 0.666000
vn -0.113500 -0.977000 -0.180600
vn -0.078900 -0.603200 -0.793700
vn 0.550800 -0.782500 -0.290300
vn -0.098700 -0.984500 -0.144700
vn 0.004500 -0.972200 0.234200
vn -0.337900 0.127900 0.932400
vn -0.332900 0.347500 -0.876600
vn -0.977200 0.127700 0.169600
vn -0.163200 -0.896300 0.412300
vn -0.981600 0.178600 -0.067900
vn -0.289500 -0.031000 -0.956700
vn 0.000900 0.633600 -0.773700
vn 0.162500 0.929800 -0.330400
vn -0.053800 0.801500 -0.595500
vn 0.849400 -0.245600 -0.467100
vn 0.078400 -0.982800 -0.166900
vn 0.351000 0.847100 -0.399100
vn 0.619800 0.784300 -0.026900
vn -0.507100 0.801400 0.317200
vn -0.976600 0.135700 0.167100
vn 0.616300 0.787300 -0.020900
vn 0.957800 0.260600 0.121300
vn 0.990300 -0.081600 -0.112400
vn 0.733900 0.277500 -0.620000
vn 0.319700 0.937200 -0.139300
vn 0.091300 0.991900 0.088800
vn 0.997600 -0.069100 0.004200
vn 0.729800 0.211800 0.650000
vn 0.153400 -0.555800 -0.817100
vn -0.124900 -0.222600 -0.966900
usemtl MIN_MOB_STONE_V3_20_1
s off
f 25/1/1 8/2/1 18/3/1
f 11/4/2 24/5/2 26/6/2
f 16/7/3 1/8/3 27/9/3
f 23/10/4 32/11/4 21/12/4
f 27/9/5 1/8/5 14/13/5
f 20/14/6 1/15/6 16/16/6
f 1/15/7 6/17/7 17/18/7
f 18/3/8 15/19/8 20/20/8
f 26/6/9 7/21/9 11/4/9
f 17/18/10 6/17/10 15/22/10
f 28/23/11 5/24/11 31/25/11
f 31/25/12 25/26/12 29/27/12
f 20/20/13 9/28/13 18/3/13
f 21/29/14 2/30/14 22/31/14
f 10/32/15 5/24/15 28/23/15
f 17/18/16 14/33/16 1/15/16
f 11/34/17 3/35/17 24/36/17
f 12/37/18 18/38/18 3/35/18
f 29/27/19 12/39/19 11/4/19
f 3/35/20 11/34/20 12/37/20
f 23/10/21 4/40/21 13/41/21
f 14/13/22 13/42/22 27/9/22
f 14/43/23 30/44/23 13/45/23
f 14/33/24 5/46/24 10/47/24
f 18/3/25 8/2/25 15/19/25
f 17/48/26 15/49/26 31/25/26
f 27/9/27 9/50/27 16/7/27
f 16/7/28 9/50/28 20/51/28
f 17/18/29 5/46/29 14/33/29
f 31/25/30 5/24/30 17/48/30
f 22/52/31 2/53/31 19/54/31
f 19/55/32 32/11/32 3/35/32
f 3/56/33 18/57/33 19/55/33
f 22/52/34 19/54/34 18/3/34
f 15/19/35 6/58/35 20/20/35
f 20/14/36 6/17/36 1/15/36
f 21/12/37 4/40/37 23/10/37
f 27/9/38 21/29/38 22/31/38
f 18/3/39 9/28/39 22/52/39
f 22/31/40 9/50/40 27/9/40
f 23/10/41 3/35/41 32/11/41
f 24/36/42 3/35/42 23/10/42
f 13/45/43 30/44/43 24/59/43
f 23/10/44 13/41/44 24/36/44
f 25/26/45 12/39/45 29/27/45
f 18/3/46 12/60/46 25/1/46
f 24/59/47 30/44/47 26/61/47
f 26/6/48 10/32/48 28/23/48
f 13/42/49 4/62/49 27/9/49
f 27/9/50 4/62/50 21/29/50
f 28/23/51 7/21/51 26/6/51
f 31/25/52 7/21/52 28/23/52
f 29/27/53 7/21/53 31/25/53
f 11/4/54 7/21/54 29/27/54
f 26/61/55 30/44/55 10/63/55
f 10/63/56 30/44/56 14/43/56
f 31/25/57 8/64/57 25/26/57
f 15/49/58 8/64/58 31/25/58
f 19/55/59 2/65/59 32/11/59
f 32/11/60 2/65/60 21/12/60
