# Blender v2.75 (sub 0) OBJ File: 'Empty.blend'
# www.blender.org
mtllib MIN_LOB_MELTER.mtl
o MIN_LOB_MELTER
v 1.449759 11.936000 1.053311
v 3.236068 0.000000 -2.351141
v -3.236068 0.000000 -2.351141
v 2.400000 2.600000 0.000000
v -1.941641 2.600000 -1.410685
v 0.536068 2.300000 3.804226
v -1.236068 0.000000 3.804226
v 0.741641 2.600000 -2.282536
v 1.024433 5.136000 0.744294
v -0.553758 11.936000 1.704293
v 3.236068 0.000000 2.351141
v 1.792000 11.936000 0.000000
v 1.449759 11.936000 -1.053311
v 0.553758 11.936000 1.704293
v -0.536068 2.300000 3.804226
v 1.236068 3.000000 3.804226
v -1.449759 11.936000 -1.053311
v -0.600000 0.500000 3.750000
v 0.600000 0.500000 4.430000
v 0.436068 0.800000 3.804226
v -0.500000 1.400000 3.750000
v 0.800000 1.400000 3.750000
v 1.236068 0.000000 -3.804226
v -0.553758 11.936000 -1.704293
v -1.449759 11.936000 1.053311
v -1.792000 11.936000 -0.000000
v -1.024433 5.136000 0.744294
v -1.941641 1.100000 -1.410685
v 0.553758 11.936000 -1.704293
v 1.024433 5.136000 -0.744294
v -1.024433 5.136000 -0.744294
v -0.436068 0.800000 3.804226
v -3.236068 0.000000 2.351141
v 1.941641 1.100000 1.410685
v 1.941641 1.100000 -1.410685
v 0.600000 0.500000 3.750000
v -2.400000 1.100000 -0.000000
v 0.741641 1.100000 2.282536
v -0.600000 0.500000 4.430000
v 0.741641 1.100000 -2.282536
v -1.941641 2.600000 1.410685
v -0.741641 2.600000 2.282536
v 0.400000 1.200000 4.190000
v 1.236068 0.000000 3.804226
v -1.236068 0.000000 -3.804226
v 4.000000 0.000000 0.000000
v -4.000000 0.000000 -0.000000
v 1.941641 2.600000 -1.410685
v -0.800000 1.400000 3.750000
v 0.391299 5.136000 -1.204293
v 0.391299 5.136000 1.204293
v 0.500000 1.400000 3.750000
v -0.741641 1.100000 2.282536
v -1.941641 1.100000 1.410685
v 0.741641 2.600000 2.282536
v 1.941641 2.600000 1.410685
v -0.741641 1.100000 -2.282536
v -0.741641 2.600000 -2.282536
v 2.400000 1.100000 0.000000
v -2.400000 2.600000 -0.000000
v 0.400000 0.600000 4.390000
v -0.400000 0.600000 4.390000
v -0.400000 1.200000 4.190000
v 4.000000 3.000000 0.000000
v 3.236068 3.000000 2.351141
v 2.265248 5.000000 1.645799
v -4.000000 3.000000 -0.000000
v -1.236068 3.000000 -3.804226
v -3.236068 3.000000 -2.351141
v -2.265248 5.000000 -1.645799
v 3.236068 3.000000 -2.351141
v 1.236068 3.000000 -3.804226
v 0.865248 5.000000 -2.662958
v 2.800000 5.000000 0.000000
v -3.236068 3.000000 2.351141
v -2.800000 5.000000 -0.000000
v -1.236068 3.000000 3.804226
v -0.865248 5.000000 2.662958
v 2.265248 5.000000 -1.645799
v -2.265248 5.000000 1.645799
v 0.865248 5.000000 2.662958
v -0.865248 5.000000 -2.662958
v 0.800000 1.200000 4.190000
v -0.800000 1.200000 4.190000
v -0.391299 5.136000 1.204293
v -0.391299 5.136000 -1.204293
v 1.266269 5.136000 0.000000
v -1.266269 5.136000 -0.000000
vt 0.498962 -0.813564
vt 0.996401 -0.813564
vt 0.996136 0.239323
vt 0.500673 -0.808931
vt 0.992716 -0.355010
vt 0.500673 -0.355010
vt 0.501392 -0.815352
vt 0.998143 -0.353826
vt 0.503000 -0.355043
vt 0.497253 0.239323
vt 0.625262 -0.457328
vt 0.994721 -0.351449
vt 0.502837 -0.815217
vt 0.996472 -0.815217
vt 0.868127 -0.457328
vt 0.992716 -0.808931
vt 0.647914 -0.689456
vt 0.845475 -0.689456
vt 0.100409 -0.613657
vt 0.337792 -0.743831
vt 0.339102 -0.613657
vt 0.343004 -0.609903
vt 0.098036 -0.747584
vt 0.341474 -0.747584
vt 0.099745 -0.743831
vt 0.499931 -0.609223
vt 0.217258 -0.744278
vt 0.500634 -0.746230
vt 0.997477 -0.814428
vt 0.499049 -0.815217
vt 0.996314 -0.815217
vt 0.499322 -0.611092
vt 0.186034 -0.745309
vt 0.126640 -0.609949
vt 0.156889 -0.746438
vt 0.109983 -0.606603
vt 0.499819 -0.606298
vt 0.097850 -0.744414
vt 0.341661 -0.746226
vt 0.498668 -0.351449
vt 0.502615 -0.351449
vt 0.501121 -0.748801
vt 0.500264 -0.742035
vt 0.186034 -0.745885
vt 0.500264 -0.742611
vt 0.126640 -0.610524
vt 0.993578 0.001777
vt 0.499810 0.001777
vt 0.131590 -0.609307
vt -13.401699 -57.500000
vt -10.901699 -20.000000
vt 10.901699 -20.000000
vt 13.401699 -57.500000
vt 0.856378 -0.576970
vt 0.727794 -0.576970
vt 0.960405 -0.656440
vt 0.845939 -0.997022
vt 0.997249 -0.794686
vt 0.601114 -0.919737
vt 0.710603 -0.997022
vt 0.960405 -0.913608
vt 0.584032 -0.785024
vt 0.727794 -0.993078
vt 0.845939 -0.592349
vt 0.601114 -0.669635
vt 0.762874 -0.363568
vt 0.991024 -0.539814
vt 0.992997 -0.363568
vt 0.760901 -0.539814
vt 0.992261 -0.794686
vt 0.623000 -0.678119
vt 0.851216 -0.983296
vt 0.623000 -0.911253
vt 0.955428 -0.669635
vt 0.623767 -0.913608
vt 0.851216 -0.606076
vt 0.953278 -0.911253
vt 0.559293 -0.794686
vt 1.000140 -0.785024
vt 0.710603 -0.592349
vt 0.856378 -0.993078
vt 0.955428 -0.919737
vt 0.623767 -0.656440
vt 0.725061 -0.983296
vt 0.725061 -0.606076
vt 0.953278 -0.678119
vt 0.584016 -0.794686
vn -0.582200 0.136900 -0.801400
vn -0.942100 0.136900 0.306100
vn 0.582200 0.136900 0.801400
vn 0.000000 0.136900 0.990600
vn 0.587800 0.000000 0.809000
vn 0.991000 0.000000 -0.133900
vn 0.582300 0.136900 -0.801400
vn -0.586200 0.073300 0.806800
vn 0.582300 0.136900 0.801400
vn -0.586200 0.073300 -0.806800
vn 0.942100 0.136900 0.306100
vn -0.948500 0.073300 -0.308200
vn -0.948500 0.073300 0.308200
vn 0.942100 0.136900 -0.306100
vn 0.000000 0.073300 -0.997300
vn 0.000000 0.000000 1.000000
vn 0.000000 -0.981100 -0.193400
vn 0.948500 0.073300 0.308200
vn -0.942100 0.136900 -0.306100
vn 0.000000 -1.000000 0.000000
vn 0.000000 0.371400 0.928500
vn 0.000000 0.946400 0.323100
vn 0.582200 0.136900 -0.801400
vn 0.586200 0.073300 0.806800
vn -0.582300 0.136900 -0.801400
vn 0.586200 0.073300 -0.806800
vn -0.582300 0.136900 0.801400
vn 0.948500 0.073300 -0.308200
vn 0.000000 0.073300 0.997300
vn 0.000000 0.136900 -0.990600
vn -0.582200 0.136900 0.801400
vn 0.961500 -0.274700 0.000000
vn -0.980700 0.065400 -0.184100
vn 0.000000 0.981100 0.193400
vn -0.961500 -0.274700 0.000000
vn -0.979300 0.087800 -0.182600
vn -0.023600 0.330300 0.943600
vn 0.023600 0.330300 0.943600
vn 0.000000 0.910400 0.413800
vn 0.980700 0.065400 -0.184100
vn -0.991000 0.000000 -0.133900
vn 0.000000 0.316200 0.948700
vn -0.997300 -0.023100 -0.069300
vn 0.997300 -0.023100 -0.069300
vn 0.979300 0.087800 -0.182600
vn 0.951100 0.000000 -0.309000
vn 0.951100 0.000000 0.309000
vn 0.510500 0.495600 0.702700
vn 0.826000 0.495600 0.268400
vn -0.951100 0.000000 -0.309000
vn -0.951100 0.000000 0.309000
vn 0.000000 0.000000 -1.000000
vn -0.587800 0.000000 -0.809000
vn -0.510500 0.495600 -0.702700
vn -0.826000 0.495600 -0.268400
vn 0.587800 0.000000 -0.809000
vn 0.510500 0.495600 -0.702700
vn 0.000000 0.495600 -0.868500
vn 0.826000 0.495600 -0.268400
vn -0.587800 0.000000 0.809000
vn -0.826000 0.495600 0.268400
vn -0.510500 0.495600 0.702700
vn 0.000000 0.495600 0.868500
vn 0.971500 -0.215900 -0.098100
vn -0.971500 -0.215900 -0.098100
vn 0.000000 1.000000 -0.000000
usemtl MIN_LOB_MELTER_1
s off
f 82/1/1 70/2/1 17/3/1
f 76/1/2 80/2/2 25/3/2
f 81/1/3 66/2/3 1/3/3
f 78/1/4 81/2/4 14/3/4
f 44/4/5 65/5/5 16/6/5
f 15/7/6 53/8/6 42/9/6
f 13/10/7 73/2/7 29/3/7
f 29/10/8 30/2/8 13/3/8
f 81/1/9 1/3/9 14/10/9
f 9/1/10 14/3/10 1/10/10
f 74/2/11 1/10/11 66/1/11
f 12/10/12 9/2/12 1/3/12
f 1/10/11 74/2/11 12/3/11
f 30/1/13 12/3/13 13/10/13
f 74/1/14 13/3/14 12/10/14
f 14/10/15 85/2/15 10/3/15
f 78/1/4 14/3/4 10/10/4
f 15/11/16 16/5/16 77/6/16
f 42/12/17 6/13/17 15/14/17
f 16/5/16 15/11/16 6/15/16
f 6/15/16 44/16/16 16/5/16
f 26/10/18 31/2/18 17/3/18
f 17/10/19 76/2/19 26/3/19
f 7/4/16 32/17/16 15/11/16
f 7/4/16 20/18/16 32/17/16
f 44/16/16 6/15/16 20/18/16
f 39/19/20 36/20/20 19/21/20
f 61/22/21 39/23/21 19/24/21
f 39/23/21 61/22/21 62/19/21
f 20/21/22 62/25/22 61/20/22
f 73/2/23 13/10/23 79/1/23
f 31/1/24 24/3/24 17/10/24
f 82/1/25 17/3/25 24/10/25
f 10/10/26 27/2/26 25/3/26
f 25/10/27 78/2/27 10/3/27
f 25/10/28 27/1/28 26/3/28
f 76/1/2 25/3/2 26/10/2
f 10/10/26 85/1/26 27/2/26
f 24/3/24 31/1/24 86/2/24
f 86/1/29 29/3/29 24/10/29
f 29/10/30 82/2/30 24/3/30
f 12/10/12 87/1/12 9/2/12
f 31/2/18 26/10/18 88/1/18
f 62/25/22 20/21/22 32/19/22
f 78/2/31 25/10/31 80/1/31
f 36/26/32 83/27/32 19/28/32
f 6/7/33 38/8/33 20/29/33
f 38/12/34 32/30/34 20/31/34
f 36/20/20 39/19/20 18/25/20
f 84/27/35 18/26/35 39/28/35
f 20/32/36 43/33/36 52/34/36
f 61/35/37 19/36/37 83/37/37
f 20/18/16 7/4/16 44/16/16
f 82/2/30 29/10/30 73/1/30
f 74/1/14 79/2/14 13/3/14
f 76/2/19 17/10/19 70/1/19
f 62/35/38 84/37/38 39/36/38
f 30/2/8 29/10/8 50/1/8
f 14/3/10 9/1/10 51/2/10
f 83/21/39 52/38/39 43/39/39
f 53/8/40 15/7/40 32/29/40
f 32/30/34 38/12/34 53/40/34
f 6/13/17 42/12/17 55/41/17
f 6/7/41 55/9/41 38/8/41
f 61/35/42 83/37/42 43/42/42
f 43/33/43 20/32/43 61/43/43
f 62/35/42 63/42/42 84/37/42
f 32/32/44 63/44/44 62/45/44
f 21/38/39 84/21/39 63/39/39
f 63/44/45 32/32/45 21/46/45
f 46/4/46 71/5/46 64/6/46
f 64/5/47 11/4/47 46/16/47
f 65/5/5 44/4/5 11/16/5
f 11/4/47 64/5/47 65/6/47
f 66/47/48 16/6/48 65/5/48
f 66/48/49 65/6/49 64/5/49
f 67/5/50 3/4/50 47/16/50
f 47/4/51 75/5/51 67/6/51
f 68/5/52 23/4/52 45/16/52
f 45/4/53 69/5/53 68/6/53
f 69/5/53 45/4/53 3/16/53
f 3/4/50 67/5/50 69/6/50
f 70/47/54 68/6/54 69/5/54
f 70/48/55 69/6/55 67/5/55
f 71/5/46 46/4/46 2/16/46
f 2/4/56 72/5/56 71/6/56
f 72/5/56 2/4/56 23/16/56
f 23/4/52 68/5/52 72/6/52
f 79/48/57 72/5/57 73/47/57
f 72/6/58 82/47/58 73/48/58
f 64/6/59 79/47/59 74/48/59
f 66/48/49 64/5/49 74/47/49
f 75/5/51 47/4/51 33/16/51
f 33/4/60 77/5/60 75/6/60
f 70/48/55 67/5/55 76/47/55
f 67/6/61 80/47/61 76/48/61
f 7/4/16 15/11/16 77/6/16
f 77/5/60 33/4/60 7/16/60
f 80/48/62 77/5/62 78/47/62
f 77/6/63 81/47/63 78/48/63
f 79/47/59 64/6/59 71/5/59
f 79/48/57 71/6/57 72/5/57
f 80/47/61 67/6/61 75/5/61
f 80/48/62 75/6/62 77/5/62
f 81/47/63 77/6/63 16/5/63
f 16/6/48 66/47/48 81/48/48
f 82/47/58 72/6/58 68/5/58
f 68/6/54 70/47/54 82/48/54
f 83/27/64 36/26/64 22/49/64
f 52/38/39 83/21/39 22/19/39
f 18/26/65 84/27/65 49/49/65
f 84/21/39 21/38/39 49/19/39
f 14/10/15 51/1/15 85/2/15
f 29/3/29 86/1/29 50/2/29
f 12/3/13 30/1/13 87/2/13
f 26/3/28 27/1/28 88/2/28
usemtl MODIALPHA01
f 15/50/16 32/51/16 20/52/16
f 15/50/16 20/52/16 6/53/16
usemtl MIN_LOB_MELTER_2
f 55/54/20 42/55/20 56/56/20
f 38/57/66 59/58/66 54/59/66
f 53/60/66 38/57/66 54/59/66
f 48/61/20 60/62/20 58/63/20
f 40/64/66 28/65/66 59/58/66
f 56/66/53 38/67/53 55/68/53
f 57/67/5 5/66/5 28/69/5
f 54/67/56 42/66/56 53/69/56
f 87/70/66 31/71/66 51/72/66
f 51/72/66 31/71/66 27/73/66
f 38/67/53 56/66/53 34/69/53
f 59/67/51 48/66/51 35/69/51
f 8/66/60 35/67/60 48/68/60
f 5/66/5 57/67/5 58/68/5
f 28/67/47 60/66/47 37/69/47
f 59/58/66 28/65/66 54/59/66
f 35/74/66 40/64/66 59/58/66
f 35/67/60 8/66/60 40/69/60
f 60/66/47 28/67/47 5/68/47
f 58/63/20 60/62/20 5/75/20
f 42/55/20 60/62/20 56/56/20
f 42/66/56 54/67/56 41/68/56
f 56/56/20 60/62/20 48/61/20
f 48/66/51 59/67/51 4/68/51
f 50/76/66 31/71/66 87/70/66
f 9/77/66 87/70/66 51/72/66
f 54/59/66 28/65/66 37/78/66
f 37/67/46 41/66/46 54/69/46
f 4/79/20 56/56/20 48/61/20
f 4/66/50 34/67/50 56/68/50
f 57/80/66 28/65/66 40/64/66
f 40/67/16 58/66/16 57/69/16
f 48/61/20 58/63/20 8/81/20
f 58/66/16 40/67/16 8/68/16
f 34/82/66 59/58/66 38/57/66
f 34/67/50 4/66/50 59/69/50
f 42/55/20 41/83/20 60/62/20
f 41/66/46 37/67/46 60/68/46
f 85/84/66 51/72/66 27/73/66
f 86/85/66 31/71/66 50/76/66
f 30/86/66 50/76/66 87/70/66
f 88/87/66 27/73/66 31/71/66
