# Blender v2.75 (sub 0) OBJ File: 'Empty.blend'
# www.blender.org
mtllib MIN_MOB_STONE_V1_20.mtl
o MIN_MOB_STONE_V1_20
v 0.536927 0.269626 0.730350
v -0.543164 0.458501 -0.853565
v -0.658056 0.173243 0.417289
v 0.747157 0.008676 0.000246
v 0.570236 0.964033 0.687815
v -0.159776 0.983869 -0.550608
v 0.091372 0.480535 -0.841282
v 0.165529 1.134612 0.461480
v -0.748440 0.058677 -0.492425
v 0.674282 0.612574 -0.027997
v -0.475825 0.799724 0.106919
v -0.147485 0.610508 0.781093
v 0.398722 0.776332 -0.363985
v -0.049788 1.174893 0.007385
v -0.386382 0.001233 0.211394
v 0.033775 0.013875 -0.297232
v 0.695312 0.148633 0.413926
v 0.588991 0.642251 0.792281
v -0.769920 0.126546 -0.017499
v -0.444617 0.076581 -0.324106
v 0.334452 0.224446 -0.568276
v -0.464679 0.336833 0.613407
v 0.186566 0.407088 0.776180
v -0.119739 0.874746 0.532286
v 0.191663 0.740218 0.741889
vt 0.583497 -0.319838
vt 0.219706 -0.950605
vt 0.507977 -0.892836
vt 0.785287 -0.321872
vt 0.470264 -0.338184
vt 0.746939 -0.646912
vt 0.034640 -0.769845
vt 0.474709 -0.523082
vt 0.770055 -0.297667
vt 0.402282 -0.184389
vt 0.498394 -0.479136
vt 0.000500 -0.453876
vt 0.230155 -0.874036
vt 0.630349 -0.654043
vt 0.895348 -0.453876
vt 0.633706 -0.370488
vt 0.184389 -0.163096
vt 0.000500 -0.610281
vt 0.597718 -0.163096
vt 0.229945 -0.339749
vt 0.432336 -0.591526
vt 0.850181 -0.610281
vt 0.785287 -0.935366
vt 0.470264 -0.988739
vt 0.882998 -0.179980
vt 0.616496 -0.034786
vt 0.882998 -0.936092
vt 0.951512 -0.501606
vt 0.985355 -0.950605
vt 0.481251 -0.993165
vt 0.826335 -0.809505
vt 0.523082 -0.000500
vt 0.428646 -0.841688
vt 0.194162 -0.583497
vt 0.410375 -0.480895
vt 0.201502 -0.713843
vt 0.890927 -0.713843
vt 0.841688 -0.255980
vt 0.992045 -0.591526
vt 0.702333 -0.339749
vt 0.798709 -0.034786
vt 0.616496 -0.798709
vt 0.999501 -0.507977
vt 0.138937 -0.961909
vt 0.925838 -0.771886
vt 0.272267 -0.173665
vt 0.000500 -0.518749
vt 0.038091 -0.771049
vt 0.063908 -0.179980
vt 0.771886 -0.853088
vt 0.985355 -0.219706
vt 0.432336 -0.007955
vt 0.272267 -0.809505
vt 0.074162 -0.853088
vt 0.861063 -0.771049
vt 0.992709 -0.480895
vt 0.428646 -0.255980
vn -0.904900 0.413800 -0.100100
vn -0.122000 -0.984600 -0.125300
vn 0.120800 -0.989800 0.075200
vn 0.429300 0.825200 -0.367100
vn 0.985700 0.137600 0.097500
vn -0.100000 0.103400 0.989600
vn -0.743700 0.644700 -0.176900
vn 0.445300 0.603900 -0.661000
vn -0.000600 0.499900 -0.866100
vn -0.062200 -0.754300 -0.653600
vn -0.214400 0.556500 0.802700
vn 0.578000 0.762600 -0.290400
vn -0.913700 0.398900 -0.077700
vn 0.037800 -0.680400 -0.731800
vn 0.820000 0.072400 -0.567800
vn 0.989000 0.123200 0.082300
vn -0.671700 0.731400 -0.118000
vn -0.572400 0.742400 0.348200
vn -0.193400 -0.339800 0.920400
vn -0.697400 0.521400 0.491800
vn 0.606000 0.787400 -0.113200
vn 0.796400 0.126700 -0.591400
vn -0.584800 0.735300 0.342500
vn 0.447500 0.884200 -0.133800
vn -0.249800 -0.962200 -0.108200
vn -0.083800 -0.816400 0.571400
vn 0.187400 -0.865500 -0.464500
vn -0.133100 -0.943800 0.302600
vn 0.843200 -0.200700 0.498800
vn 0.054600 -0.923200 0.380300
vn -0.045100 0.306100 0.950900
vn 0.990900 0.090100 0.099800
vn -0.911400 0.362000 0.195600
vn -0.410600 -0.889300 0.201200
vn 0.273200 -0.874800 -0.400100
vn -0.019500 -0.989900 0.140600
vn 0.796600 0.125700 -0.591300
vn -0.060800 -0.754400 -0.653600
vn -0.795400 0.438600 0.418400
vn -0.129200 -0.695100 0.707200
vn -0.132400 -0.600300 0.788700
vn 0.061100 -0.172000 0.983200
vn -0.704900 0.524100 0.478000
vn -0.296700 0.540200 0.787500
vn -0.180000 0.684300 0.706600
vn 0.076100 0.100900 0.992000
usemtl MIN_MOB_STONE_V1_20_1
s off
f 11/1/1 9/2/1 19/3/1
f 20/4/2 16/5/2 15/6/2
f 16/5/3 17/7/3 15/6/3
f 14/8/4 13/9/4 6/10/4
f 10/11/5 18/12/5 17/13/5
f 23/14/6 18/15/6 25/16/6
f 6/17/7 2/18/7 11/1/7
f 6/19/8 13/20/8 7/21/8
f 2/22/9 6/19/9 7/21/9
f 20/23/10 7/21/10 16/24/10
f 25/16/11 5/25/11 8/26/11
f 5/27/12 10/28/12 14/8/12
f 2/18/13 9/2/13 11/1/13
f 7/21/14 9/29/14 2/22/14
f 4/30/15 21/31/15 10/11/15
f 17/13/16 4/30/16 10/11/16
f 11/1/17 14/32/17 6/17/17
f 24/33/18 14/8/18 11/34/18
f 23/14/19 12/35/19 22/36/19
f 22/37/20 24/38/20 11/1/20
f 14/8/21 10/28/21 13/9/21
f 10/11/22 7/39/22 13/40/22
f 8/41/23 14/32/23 24/38/23
f 8/42/24 5/27/24 14/8/24
f 15/6/25 19/43/25 20/4/25
f 1/44/26 3/45/26 15/6/26
f 16/5/27 21/46/27 4/47/27
f 16/5/28 4/47/28 17/7/28
f 18/12/29 1/48/29 17/13/29
f 17/7/30 1/44/30 15/6/30
f 18/15/31 5/25/31 25/16/31
f 10/11/32 5/49/32 18/12/32
f 19/3/33 3/50/33 11/1/33
f 15/6/34 3/45/34 19/43/34
f 20/4/35 9/51/35 7/52/35
f 19/43/36 9/51/36 20/4/36
f 10/11/37 21/31/37 7/39/37
f 7/21/38 21/53/38 16/24/38
f 11/1/39 3/50/39 22/37/39
f 22/36/40 3/54/40 1/55/40
f 23/14/41 22/36/41 1/55/41
f 23/14/42 1/55/42 18/15/42
f 22/37/43 12/56/43 24/38/43
f 24/57/44 25/16/44 8/26/44
f 24/57/45 12/35/45 25/16/45
f 25/16/46 12/35/46 23/14/46
