# Blender v2.75 (sub 0) OBJ File: 'Empty.blend'
# www.blender.org
mtllib MOB_PAUKE.mtl
o MOB_PAUKE
v 0.242153 -0.031614 0.203191
v -0.297044 -0.031614 -0.108115
v 0.035131 -0.508937 -0.199235
v 0.242153 -0.031614 -0.203190
v -0.158054 -0.031614 0.273758
v 0.154978 -0.508937 0.130042
v -0.190108 -0.508937 0.069194
v -0.000000 -0.474165 0.031611
v -0.031610 -0.900911 0.000000
v -0.000000 -0.474165 -0.031610
v -0.016190 -0.884140 -0.001110
v -0.144587 -1.031453 0.118622
v -0.167455 -1.031658 0.172364
v 0.000007 -0.884140 0.016230
v 0.119739 -1.031453 0.144627
v 0.173481 -1.031658 0.167495
v 0.017347 -0.884140 0.000033
v 0.184781 -1.031657 -0.156102
v 0.129575 -1.031453 -0.137038
v -0.118582 -1.031453 -0.145704
v 0.002475 -0.832977 -0.015886
v -0.172324 -1.031658 -0.168572
v -0.016189 -0.884140 -0.001138
v -0.000243 -0.832977 -0.015981
v 0.016021 -0.832977 -0.001359
v 0.001399 -0.832977 0.014904
v -0.158054 -0.031614 -0.273757
v -0.000000 -0.900911 -0.031610
v -0.190108 -0.508937 -0.069193
v 0.154978 -0.508937 -0.130041
v 0.035131 -0.508937 0.199236
v -0.297044 -0.031614 0.108116
v 0.316108 -0.031614 0.000000
v 0.054892 -0.031614 0.311306
v 0.054892 -0.031614 -0.311305
v -0.031610 -0.474165 0.000000
v 0.031611 -0.900911 0.000000
v -0.000000 -0.900911 0.031611
v 0.031611 -0.474165 0.000000
v 0.168612 -1.031657 -0.173441
v -0.154985 -1.031658 -0.184741
v -0.101154 -0.508937 -0.175204
v -0.101154 -0.508937 0.175205
v 0.202309 -0.508937 0.000000
v -0.128418 -1.031453 0.135961
v 0.156142 -1.031658 0.183664
v 0.015926 -0.832977 0.001358
v -0.183624 -1.031658 0.155025
v 0.017346 -0.884140 0.000061
v 0.001178 -0.884140 -0.017306
v -0.014769 -0.832977 -0.002435
v -0.000021 -0.884140 0.016229
v 0.001150 -0.884140 -0.017307
v -0.014864 -0.832977 0.000282
v 0.145744 -1.031453 -0.119699
v -0.135921 -1.031453 -0.129535
v -0.001318 -0.832977 0.014809
v 0.137078 -1.031453 0.128458
v 0.252887 -0.395138 0.000000
v 0.043914 -0.395138 0.249045
v 0.193723 -0.395138 0.162553
v 0.193723 -0.395138 -0.162552
v -0.126443 -0.395138 -0.219006
v -0.126443 -0.395138 0.219006
v 0.043914 -0.395138 -0.249044
v -0.237635 -0.395138 -0.086492
v -0.237635 -0.395138 0.086493
v 0.242153 -0.079030 0.203191
v 0.242153 -0.079030 -0.203190
v -0.297044 -0.079030 0.108116
v -0.297044 -0.079030 -0.108115
v 0.054892 -0.079030 -0.311305
v 0.054892 -0.079030 0.311306
v -0.158054 -0.079030 -0.273757
v 0.316108 -0.079030 0.000000
v -0.158054 -0.079030 0.273758
v -0.297044 -0.031614 -0.108115
v -0.158054 -0.031614 -0.273757
v -0.297044 -0.031614 0.108116
v 0.054892 -0.031614 -0.311305
v 0.242153 -0.031614 -0.203190
v -0.158054 -0.031614 0.273758
v 0.242153 -0.031614 0.203191
v 0.054892 -0.031614 0.311306
v 0.316108 -0.031614 0.000000
vt -0.138169 0.510084
vt 0.530584 0.009241
vt 0.524561 0.510084
vt 2.469420 0.009241
vt 3.138170 0.510084
vt 2.475440 0.510084
vt 3.809510 0.009241
vt 4.500000 0.510084
vt 3.814390 0.510084
vt 1.178560 0.009241
vt 1.823760 0.510084
vt 1.176240 0.510084
vt 4.500000 0.009241
vt 5.190490 0.009241
vt 1.821440 0.009241
vt 0.476418 0.040028
vt 0.321819 0.334609
vt 0.476418 0.462387
vt 1.000770 0.549490
vt 0.001768 0.560224
vt 0.001768 0.549490
vt 1.000770 0.528021
vt 0.001768 0.538756
vt 0.001768 0.528021
vt 0.858998 0.516464
vt 0.238152 0.516464
vt 0.382902 0.516464
vt 0.858254 0.557318
vt 0.382158 0.557318
vt 0.237408 0.557318
vt 0.328429 0.558383
vt 0.989761 0.559798
vt 0.835571 0.559468
vt 0.328282 0.512701
vt 0.835424 0.513786
vt 0.989614 0.514116
vt 0.373951 0.557318
vt 0.994797 0.557318
vt 0.850046 0.557318
vt 0.374695 0.516464
vt 0.850790 0.516464
vt 0.995541 0.516464
vt 0.882146 0.512554
vt 0.220814 0.511139
vt 0.375004 0.511469
vt 0.882292 0.558237
vt 0.375150 0.557151
vt 0.220960 0.556821
vt 0.887756 0.512566
vt 0.887902 0.558249
vt 0.368684 0.557318
vt 0.369428 0.516464
vt 0.322819 0.558371
vt 0.322672 0.512689
vt 0.864264 0.516464
vt 0.863520 0.557318
vt 1.000770 0.517287
vt 1.000770 0.538756
vt 0.321819 0.167806
vt 1.003830 0.251208
vt 0.921569 0.407951
vt 5.861830 0.510084
vt 5.869000 0.009241
vt 0.713278 0.011063
vt 0.921569 0.094465
vt 3.131000 0.009241
vt 5.185610 0.510084
vt 0.001768 0.517287
vt 1.000770 0.560224
vt 0.713278 0.491352
vt -0.131004 0.009241
vt 3.791880 0.203603
vt 4.488540 0.203603
vt 5.185200 0.203603
vt 2.450490 0.203603
vt 3.110560 0.203603
vt 0.526584 0.203603
vt 5.866510 0.203603
vt -0.133489 0.203603
vt 1.169940 0.203603
vt 1.807140 0.203603
vt 3.814390 0.565500
vt 4.500000 0.565500
vt 5.185610 0.565500
vt 5.861830 0.565500
vt 1.823760 0.565500
vt 2.475440 0.565500
vt 1.176240 0.565500
vt 0.524561 0.565500
vt -0.138169 0.565500
vt 3.138170 0.565500
vt 0.000500 0.709953
vt 0.226955 0.975111
vt 0.000500 0.860095
vt 0.573904 1.001180
vt 0.226955 0.594937
vt 0.879006 0.926112
vt 0.999500 0.785024
vt 0.573904 0.568865
vt 0.879006 0.643936
vn -0.170700 -0.184700 -0.967900
vn -0.170700 -0.184700 0.967900
vn 0.923500 -0.184700 0.336100
vn -0.982800 -0.184700 0.000000
vn 0.923500 -0.184700 -0.336100
vn -0.752900 -0.184700 -0.631700
vn -0.752900 -0.184700 0.631700
vn 0.000000 -1.000000 0.000000
vn 0.707100 0.000000 -0.707100
vn -0.707100 0.000000 0.707100
vn 0.682000 -0.000000 0.731400
vn -0.682000 0.000000 -0.731400
vn 0.731400 -0.000000 -0.682000
vn -0.731300 0.000000 0.682000
vn 0.731300 0.000000 -0.682000
vn -0.731400 0.000000 0.682000
vn -0.707100 0.000000 -0.707100
vn 0.491400 -0.184700 -0.851100
vn 0.491400 -0.184700 0.851100
vn 0.707100 0.000000 0.707100
vn 0.477000 0.758000 -0.444800
vn -0.444900 0.758000 -0.477000
vn 0.470100 -0.766000 -0.438400
vn 0.444800 0.758000 0.477000
vn 0.477000 0.758000 -0.444900
vn -0.477000 0.758000 0.444900
vn -0.438400 -0.766000 -0.470100
vn -0.470100 -0.766000 0.438400
vn -0.477100 0.758000 0.444800
vn 0.438400 -0.766000 0.470100
vn -0.444800 0.758000 -0.477100
vn 0.444800 0.758000 0.477100
vn 0.867100 -0.385400 0.315600
vn 0.867100 -0.385400 -0.315600
vn -0.160200 -0.385400 0.908700
vn 0.461400 -0.385400 0.799100
vn 0.461400 -0.385400 -0.799100
vn -0.160200 -0.385400 -0.908700
vn -0.706900 -0.385400 -0.593100
vn -0.706900 -0.385400 0.593100
vn -0.922800 -0.385400 0.000000
vn 0.500000 0.000000 0.866000
vn 0.939700 0.000000 0.342000
vn 0.939700 0.000000 -0.342000
vn 0.500000 0.000000 -0.866000
vn -1.000000 0.000000 0.000000
vn -0.766000 0.000000 0.642800
vn -0.766000 0.000000 -0.642800
vn -0.173600 0.000000 -0.984800
vn -0.173600 0.000000 0.984800
vn 0.000000 1.000000 0.000000
usemtl MATERIAL_#2
s off
f 72/1/1 63/2/1 74/3/1
f 64/4/2 73/5/2 76/6/2
f 61/7/3 75/8/3 68/9/3
f 66/10/4 70/11/4 71/12/4
f 75/8/5 59/13/5 62/14/5
f 71/12/6 63/2/6 66/10/6
f 70/11/7 67/15/7 64/4/7
f 43/16/8 29/17/8 42/18/8
f 37/19/9 10/20/9 39/21/9
f 9/22/10 8/23/10 36/24/10
f 52/25/11 13/26/11 45/27/11
f 11/28/12 12/29/12 48/30/12
f 49/31/13 16/32/13 58/33/13
f 14/34/14 15/35/14 46/36/14
f 50/37/12 40/38/12 19/39/12
f 17/40/11 55/41/11 18/42/11
f 23/43/14 22/44/14 56/45/14
f 53/46/15 20/47/15 41/48/15
f 23/43/16 54/49/16 22/44/16
f 53/46/13 41/48/13 21/50/13
f 50/37/12 24/51/12 40/38/12
f 17/40/11 18/42/11 47/52/11
f 49/31/13 25/53/13 16/32/13
f 14/34/16 46/36/16 57/54/16
f 52/25/11 26/55/11 13/26/11
f 11/28/12 48/30/12 51/56/12
f 63/2/6 71/12/6 74/3/6
f 36/24/17 28/57/17 9/22/17
f 8/23/10 9/22/10 38/58/10
f 29/17/8 43/16/8 7/59/8
f 70/11/4 66/10/4 67/15/4
f 44/60/8 42/18/8 30/61/8
f 72/62/18 62/14/18 65/63/18
f 31/64/8 42/18/8 6/65/8
f 73/5/19 60/66/19 61/7/19
f 70/11/7 64/4/7 76/6/7
f 75/8/5 62/14/5 69/67/5
f 73/5/19 61/7/19 68/9/19
f 62/14/18 72/62/18 69/67/18
f 28/57/17 36/24/17 10/68/17
f 10/20/9 37/19/9 28/69/9
f 28/57/8 38/58/8 9/22/8
f 38/58/8 28/69/8 37/19/8
f 39/21/20 38/58/20 37/19/20
f 38/58/20 39/21/20 8/23/20
f 24/51/21 18/42/21 40/38/21
f 54/49/22 41/48/22 22/44/22
f 30/61/8 42/18/8 3/70/8
f 72/1/1 65/71/1 63/2/1
f 43/16/8 42/18/8 31/64/8
f 73/5/2 64/4/2 60/66/2
f 6/65/8 42/18/8 44/60/8
f 75/8/3 61/7/3 59/13/3
f 12/29/23 52/25/23 45/27/23
f 25/53/24 46/36/24 16/32/24
f 18/42/25 24/51/25 47/52/25
f 51/56/26 48/30/26 13/26/26
f 15/35/27 14/34/27 49/31/27
f 55/41/28 17/40/28 50/37/28
f 51/56/29 13/26/29 26/55/29
f 12/29/23 11/28/23 52/25/23
f 20/47/30 53/46/30 23/43/30
f 21/50/31 41/48/31 54/49/31
f 55/41/28 50/37/28 19/39/28
f 20/47/30 23/43/30 56/45/30
f 46/36/32 25/53/32 57/54/32
f 15/35/27 49/31/27 58/33/27
f 59/13/33 6/72/33 44/73/33
f 59/13/34 44/73/34 30/74/34
f 60/66/35 43/75/35 31/76/35
f 60/66/36 31/76/36 6/72/36
f 6/72/33 59/13/33 61/7/33
f 60/66/36 6/72/36 61/7/36
f 59/13/34 30/74/34 62/14/34
f 30/74/37 65/63/37 62/14/37
f 65/71/38 42/77/38 63/2/38
f 42/77/39 66/10/39 63/2/39
f 67/15/40 43/75/40 64/4/40
f 43/75/35 60/66/35 64/4/35
f 65/63/37 30/74/37 3/78/37
f 65/71/38 3/79/38 42/77/38
f 66/10/39 42/77/39 29/80/39
f 29/80/41 67/15/41 66/10/41
f 67/15/41 29/80/41 7/81/41
f 67/15/40 7/81/40 43/75/40
f 1/82/42 73/5/42 68/9/42
f 68/9/43 33/83/43 1/82/43
f 4/84/44 75/8/44 69/67/44
f 69/67/45 35/85/45 4/84/45
f 32/86/46 71/12/46 70/11/46
f 70/11/47 5/87/47 32/86/47
f 2/88/48 74/3/48 71/12/48
f 71/12/46 32/86/46 2/88/46
f 35/85/45 69/67/45 72/62/45
f 72/1/49 27/89/49 35/90/49
f 34/91/50 76/6/50 73/5/50
f 73/5/42 1/82/42 34/91/42
f 27/89/49 72/1/49 74/3/49
f 74/3/48 2/88/48 27/89/48
f 75/8/44 4/84/44 33/83/44
f 33/83/43 68/9/43 75/8/43
f 5/87/47 70/11/47 76/6/47
f 76/6/50 34/91/50 5/87/50
f 79/92/51 78/93/51 77/94/51
f 79/92/51 80/95/51 78/93/51
f 80/95/51 79/92/51 82/96/51
f 80/95/51 82/96/51 81/97/51
f 81/97/51 82/96/51 85/98/51
f 85/98/51 82/96/51 84/99/51
f 85/98/51 84/99/51 83/100/51
