# Blender v2.75 (sub 0) OBJ File: 'Empty.blend'
# www.blender.org
mtllib NC_LOB_TABLE2.mtl
o NC_LOB_TABLE2
v 0.325570 -0.040924 0.508874
v 0.244421 -0.017790 -0.663662
v -0.716391 -0.038809 0.173095
v 0.416678 0.829517 0.547180
v -0.783122 0.829517 0.162750
v 0.312275 0.829517 -0.701340
v -0.576109 0.829517 -0.592261
v -0.556904 -0.009998 -0.522367
v 0.626423 -0.042236 0.054781
v 0.690542 0.829517 0.109856
v -0.450036 0.829517 0.559879
v -0.486909 -0.038809 0.457799
v -0.194164 0.829517 -0.764075
v 0.585013 0.829517 -0.389597
v -0.071185 -0.038809 0.593939
v -0.160833 -0.014683 -0.700486
v 0.544373 -0.019869 -0.329941
v -0.727562 -0.012673 -0.221561
v -0.793081 0.829517 -0.192385
v -0.102948 0.829517 0.654087
vt 0.281602 -0.652202
vt 0.493852 -0.603693
vt 0.562612 -0.178633
vt 0.451207 -0.037180
vt 0.244343 -0.008714
vt 0.003772 -0.429259
vt 0.605717 -0.405258
vt 0.139827 -0.609455
vt 0.088330 -0.086675
vt -0.000296 -0.268117
vt 1.024173 -0.113375
vt 0.599351 -0.113375
vt 0.634979 -0.810279
vt 0.660199 0.075772
vt 0.819361 -0.983339
vt 0.888211 -0.010614
vt 0.651972 -0.884231
vt 1.003832 -0.884231
vt 0.990239 -0.115769
vt 0.712086 -1.106823
vt 0.967346 -1.109503
vt 0.971353 0.158880
vt 0.985156 0.058540
vt 0.615925 -0.990611
vt 0.603118 -0.006476
vt 0.991329 -0.452415
vt 0.664521 -0.439621
vt 0.668952 0.559606
vt 0.641517 -0.506524
vt 0.936787 -1.681820
vt 0.981938 -0.506524
vt 0.683839 0.112430
vt 0.976802 0.142498
vt 0.969122 -0.856502
vt 0.696834 -0.992955
vt 0.694818 -0.000537
vt 0.627406 -0.501699
vt 0.932287 -1.181292
vt 1.007486 -0.501699
vt 0.664101 -1.181292
vt 0.975820 0.542729
vt 0.959967 -0.811977
vt 0.994280 -0.991983
vt 0.616641 -0.992837
vt 0.677664 -1.678086
vt 0.705498 -0.856502
vt 0.700136 -0.115769
vn 0.000000 1.000000 -0.000000
vn 0.201200 -0.060400 0.977700
vn 0.976600 -0.061200 -0.206300
vn -0.310300 -0.077000 0.947500
vn -0.409500 -0.085000 -0.908300
vn 0.122600 -0.069700 -0.990000
vn 0.740500 -0.088900 -0.666100
vn -0.877800 -0.051800 -0.476300
vn -0.996800 -0.076300 0.023200
vn 0.829700 -0.095800 0.550000
vn 0.842300 -0.111400 0.527400
vn -0.765500 -0.043000 0.642000
vn -0.777500 -0.052300 0.626700
vn -0.408800 -0.084600 -0.908700
vn 0.750100 -0.082000 -0.656200
vn 0.208900 -0.064800 0.975800
vn 0.090000 -0.051400 -0.994600
vn 0.975600 -0.058400 -0.211500
vn -0.867900 -0.060900 -0.492900
vn -0.996500 -0.078500 0.027900
vn -0.260600 -0.101800 0.960100
usemtl NC_LOB_TABLE2_2
s off
f 20/1/1 4/2/1 14/3/1
f 6/4/1 13/5/1 5/6/1
f 4/2/1 10/7/1 14/3/1
f 5/6/1 11/8/1 6/4/1
f 13/5/1 7/9/1 19/10/1
f 20/1/1 14/3/1 6/4/1
f 13/5/1 19/10/1 5/6/1
f 11/8/1 20/1/1 6/4/1
usemtl NC_LOB_TABLE2_1
f 4/11/2 20/12/2 15/13/2
f 10/14/3 17/15/3 14/16/3
f 12/17/4 15/18/4 20/19/4
f 16/20/5 8/21/5 7/22/5
f 6/23/6 16/24/6 13/25/6
f 17/26/7 2/27/7 6/28/7
f 7/29/8 18/30/8 19/31/8
f 18/32/9 3/33/9 5/34/9
f 1/35/10 9/21/10 10/22/10
f 4/36/11 1/35/11 10/22/11
f 5/37/12 12/38/12 11/39/12
f 12/38/13 5/37/13 3/40/13
f 13/14/14 16/20/14 7/22/14
f 14/41/15 17/26/15 6/28/15
f 1/42/16 4/11/16 15/13/16
f 16/24/17 6/23/17 2/43/17
f 17/15/18 10/14/18 9/44/18
f 18/30/19 7/29/19 8/45/19
f 19/46/20 18/32/20 5/34/20
f 11/47/21 12/17/21 20/19/21
