# Blender v2.75 (sub 0) OBJ File: 'Empty.blend'
# www.blender.org
mtllib NC_LOB_NICE2.mtl
o NC_LOB_NICE2
v 0.997301 0.030000 -0.000000
v -0.880000 0.140000 0.000000
v -0.878310 0.020000 0.443448
v 0.987301 0.010000 0.361048
v -0.478414 0.120000 0.249863
v -0.179389 0.120000 0.134833
v -0.327166 0.370507 0.284476
v -0.251281 0.120000 0.364112
v 0.967301 0.140000 0.381048
v -0.370590 0.120000 0.063457
v -0.850000 -0.000000 0.000000
v 0.217526 0.134894 0.266853
v 0.553553 0.139793 0.255059
v 0.481073 0.136803 0.076987
v 0.607551 0.235069 0.200773
v -0.858310 0.140000 0.433448
v 0.493342 0.237604 0.361493
v 0.521572 0.223137 0.049758
v 0.103140 0.186505 0.170450
v -0.403064 0.309678 0.102614
v 0.947301 0.140000 -0.000000
v 0.193170 0.254166 0.365143
v 0.433170 0.267345 0.278652
v 0.157138 0.261781 0.116164
v -0.447362 0.249374 0.311720
v -0.242179 0.276584 0.355530
v -0.214640 0.247606 0.153889
v 0.179086 0.301607 0.212834
v 0.315787 0.341668 0.188349
v 0.929572 0.440352 -0.000000
v 0.897301 0.130000 0.367600
v 0.917301 0.140000 -0.000000
v 0.859572 0.450352 -0.000000
v 0.827301 0.130000 0.387600
v 0.837301 0.140000 -0.000000
v -0.800000 0.140000 0.000000
v -0.780000 0.130000 0.410000
v -0.829090 0.432695 -0.000000
v -0.759090 0.442695 -0.000000
v -0.710000 0.130000 0.430000
v -0.720000 0.140000 0.000000
vt 0.395121 -0.967671
vt 0.009307 -1.098309
vt 0.214901 -0.373970
vt 0.707514 -1.127252
vt 0.781858 -0.535138
vt 0.725204 0.008989
vt 0.609000 0.446452
vt 1.116240 0.134446
vt 0.910206 0.033057
vt 0.293797 0.300071
vt 0.219817 -0.238522
vt 0.020149 0.021619
vt 0.429800 0.189548
vt 0.960699 -0.413993
vt 0.645495 -0.560374
vt 0.064167 -0.461474
vt 0.865502 -0.919668
vt 0.546243 -0.389729
vt 0.163842 -1.005475
vt 0.786287 -0.220827
vt 0.084626 -0.306634
vt 0.604662 -0.008822
vt 0.503889 -0.983908
vt 0.503733 -0.008811
vt 0.503586 -0.984336
vt 0.604835 -0.008796
vt 0.604676 -0.984480
vt 0.604662 -0.983956
vt 0.503760 -0.008784
vt 0.529038 -0.008742
vt 0.582616 -0.009127
vt 0.582758 -0.983215
vt 0.530134 -0.510596
vt 0.580323 -0.292156
vt 0.580332 -0.510621
vt 0.580667 -0.510618
vt 0.530539 -0.754950
vt 0.530491 -0.510619
vt 0.580183 -0.755262
vt 0.529547 -0.984775
vt 0.531060 -0.292168
vt 0.506083 -0.946160
vt 0.605499 -0.946155
vt 0.605499 -0.824634
vt 0.528383 -0.771929
vt 0.528516 -0.270297
vt 0.572413 -0.270071
vt 0.572030 -0.772785
vt 0.506009 -0.946127
vt 0.605508 -0.824471
vt 0.605508 -0.946125
vt 0.571719 -0.771645
vt 0.528676 -0.268849
vt 0.572822 -0.269735
vt 0.528242 -0.772224
vt 0.506083 -0.946149
vn -0.242800 0.435900 0.866600
vn -0.702400 0.709600 0.055800
vn 0.739800 0.672800 0.004400
vn 0.386200 0.814200 -0.433500
vn 0.340800 0.901900 -0.265300
vn 0.749300 -0.592800 -0.295100
vn 0.034700 -0.726000 0.686800
vn 0.433000 0.248300 0.866500
vn 0.311700 0.891600 0.328500
vn -0.196800 -0.209800 -0.957800
vn 0.773800 -0.489700 -0.401800
vn -0.192100 -0.941700 -0.276200
vn -0.025900 -0.638900 0.768900
vn -0.964400 -0.116000 -0.237800
vn 0.328800 0.244600 -0.912200
vn 0.056200 0.954700 0.292200
vn -0.669400 -0.549100 0.500400
vn 0.049000 0.950800 0.305800
vn 0.681300 0.688800 -0.247600
vn -0.269600 -0.428500 -0.862400
vn -0.849200 0.476700 0.227000
vn -0.140500 -0.399400 0.905900
vn -0.790200 0.408200 -0.457100
vn 0.953500 -0.039000 0.299000
vn -0.448100 0.074900 0.890800
vn 0.963100 0.251800 0.095300
vn 0.340300 0.230200 -0.911700
vn -0.826400 0.561400 -0.043600
vn -0.049300 0.721700 -0.690400
vn -0.317300 0.900000 -0.298800
vn -0.084200 0.712900 0.696200
vn -0.003400 -0.999000 0.044800
vn 0.000000 1.000000 0.000000
vn 0.016200 -0.998400 -0.054900
vn 0.028400 -0.147700 0.988600
vn 0.985800 0.159600 -0.051700
vn -0.976600 -0.209300 0.048900
vn -0.984900 0.158300 -0.070000
vn 0.044400 0.075600 0.996100
vn 0.909300 0.413300 0.048100
vn 0.997800 -0.040800 0.053200
vn 0.107900 0.755000 0.646800
vn 0.181500 0.750500 0.635400
vn -0.997200 0.071600 -0.023900
vn -0.994000 -0.098800 0.046100
vn -0.113300 0.792800 0.598900
vn -0.169200 0.787800 0.592200
vn 0.991600 0.128100 -0.020100
usemtl NC_LOB_NICE2_2
s off
f 7/1/1 25/2/1 26/3/1
f 7/1/2 20/4/2 25/2/2
f 7/1/3 26/3/3 27/5/3
f 7/1/4 27/5/4 20/4/4
f 29/6/5 15/7/5 18/8/5
f 14/9/6 15/7/6 13/10/6
f 12/11/7 13/10/7 17/12/7
f 23/13/8 13/10/8 15/7/8
f 29/6/9 23/13/9 15/7/9
f 14/9/10 24/14/10 18/8/10
f 15/7/11 14/9/11 18/8/11
f 12/11/12 19/15/12 14/9/12
f 12/11/13 17/12/13 22/16/13
f 10/17/14 25/2/14 20/4/14
f 27/5/15 10/17/15 20/4/15
f 17/12/16 28/18/16 22/16/16
f 12/11/17 22/16/17 19/15/17
f 28/18/18 17/12/18 23/13/18
f 13/10/19 23/13/19 17/12/19
f 14/9/20 19/15/20 24/14/20
f 19/15/21 22/16/21 28/18/21
f 5/19/22 26/3/22 25/2/22
f 10/17/23 5/19/23 25/2/23
f 6/20/24 26/3/24 8/21/24
f 5/19/25 8/21/25 26/3/25
f 26/3/26 6/20/26 27/5/26
f 10/17/27 27/5/27 6/20/27
f 19/15/28 28/18/28 24/14/28
f 29/6/29 18/8/29 24/14/29
f 29/6/30 24/14/30 28/18/30
f 29/6/31 28/18/31 23/13/31
usemtl NC_LOB_NICE_1
f 11/22/32 4/23/32 3/24/32
f 16/25/33 21/26/33 2/27/33
f 4/23/34 11/22/34 1/28/34
f 21/26/33 16/25/33 9/29/33
f 4/30/35 9/31/35 16/32/35
f 4/33/36 21/34/36 9/35/36
f 11/36/37 16/37/37 2/38/37
f 16/37/38 11/36/38 3/39/38
f 4/30/39 16/32/39 3/40/39
f 4/33/40 1/41/40 21/34/40
f 31/42/41 32/43/41 30/44/41
f 31/45/42 30/46/42 33/47/42
f 33/47/43 34/48/43 31/45/43
f 34/49/44 33/50/44 35/51/44
f 37/49/45 38/50/45 36/51/45
f 37/52/46 39/53/46 38/54/46
f 39/53/47 37/52/47 40/55/47
f 40/56/48 41/51/48 39/44/48
