# Blender v2.75 (sub 0) OBJ File: 'Empty.blend'
# www.blender.org
mtllib NOVH.mtl
o NOVH
v -0.559008 0.101021 0.094067
v 0.550985 0.188499 0.148235
v 0.104311 0.095244 -0.492649
v 0.225523 0.039124 0.552661
v 0.050616 0.214831 -0.133668
v -0.003102 0.199953 -0.284495
v -0.221431 0.185203 -0.452776
v 0.012115 0.146040 -0.537203
v 0.002916 0.034810 -0.384941
v -0.182109 0.210295 -0.238474
v -0.174863 0.035149 -0.342007
v 0.173673 0.086647 -0.172372
v 0.387358 0.087686 -0.256827
v 0.212618 0.154219 -0.309465
v 0.472288 0.086647 -0.177806
v 0.397731 0.087686 0.039530
v 0.551241 0.154219 -0.059158
v -0.160126 -0.006351 -0.130699
v -0.224125 0.144884 -0.500064
v -0.214901 0.093881 -0.473501
v 0.547935 0.050778 -0.104313
v 0.180428 0.050778 -0.277625
v 0.017359 0.098125 -0.526098
v -0.167318 0.138929 0.145874
v 0.559008 0.077224 0.101900
v 0.377072 0.119274 -0.154348
v 0.205554 0.181000 -0.217767
v 0.326485 0.119274 -0.034846
v 0.486101 0.181000 -0.124082
v 0.245447 0.151757 0.506070
v -0.085253 0.113534 -0.515777
v 0.060496 0.201763 -0.394788
v 0.360771 0.044500 -0.023155
v 0.363695 0.044500 -0.188012
v 0.068199 0.146041 -0.138125
v 0.090959 0.202655 0.352401
v 0.416580 0.129624 0.275754
v -0.140612 0.207070 0.098487
v -0.444019 0.088289 -0.292903
v -0.328983 0.041953 -0.370527
v -0.031741 0.065292 -0.013233
v 0.366013 0.083635 -0.144458
v 0.326147 0.083635 -0.049678
v -0.522724 0.119559 -0.091954
v -0.508762 0.166250 0.076957
v 0.105401 0.096614 -0.090213
v -0.290448 0.067322 0.109567
v 0.016325 0.206099 -0.413704
v 0.010829 0.189447 -0.505373
v 0.376295 0.052035 -0.246934
v 0.397392 0.052035 0.024693
v -0.254416 0.189232 -0.261519
v 0.031883 0.089832 0.400944
v 0.008135 0.149128 -0.552661
v -0.220145 0.141796 -0.484606
v -0.218108 0.092810 -0.489045
v 0.262338 0.242355 0.241477
v 0.014153 0.097054 -0.541642
v 0.465945 0.145632 -0.161608
v 0.190109 0.145632 -0.178069
v 0.515622 0.050679 -0.141865
v 0.172859 0.050679 -0.228665
v 0.387786 0.122138 -0.209556
v 0.361507 0.122138 0.009156
v -0.210109 0.086326 -0.430936
v -0.218042 0.179014 -0.442704
v 0.415814 0.039536 0.257217
v -0.004330 0.209957 -0.281408
v 0.012935 0.238105 0.020495
v 0.021536 0.056064 -0.491418
v 0.077741 0.145432 -0.327183
v -0.175627 0.026692 -0.352836
v 0.002151 0.026353 -0.395770
v -0.180881 0.200292 -0.241562
v 0.254371 0.035272 0.213779
v -0.068544 0.086478 0.157747
v -0.099812 0.137551 0.197167
v 0.112746 0.187601 -0.088454
v 0.014218 0.183258 -0.495302
v 0.518502 0.178359 -0.087522
v 0.212311 0.178359 -0.266149
v -0.199876 0.052733 -0.440745
v -0.206380 0.212064 -0.360852
v 0.015032 0.215396 -0.411525
v -0.262388 0.129009 0.110215
v -0.205087 0.202768 -0.363031
v 0.557901 0.110182 -0.069016
v 0.200796 0.110182 -0.308126
v -0.199008 0.060353 -0.430173
v 0.022404 0.063684 -0.480846
v 0.047681 0.133106 0.387380
v -0.077404 0.205086 0.155296
v 0.027017 0.061908 0.031283
vt 0.845083 -0.561515
vt 0.952857 -0.720881
vt 0.987066 -0.561510
vt 0.108440 -0.712242
vt 0.231332 -0.558511
vt 0.115945 -0.561755
vt 0.720952 -0.718365
vt 0.237228 -0.728939
vt 0.377448 -0.992562
vt 0.441973 -0.561229
vt 0.004962 -0.170652
vt 0.002782 -0.332863
vt 0.218606 -0.232773
vt 0.360780 -0.137065
vt 0.362492 -0.216540
vt 0.619169 -0.239699
vt 0.994345 -0.038957
vt 0.988281 -0.084209
vt 0.758817 -0.039491
vt 0.947594 -0.144344
vt 0.758662 -0.084798
vt 0.758741 -0.084582
vt 0.947943 -0.144152
vt 0.988320 -0.084028
vt 0.758772 -0.084564
vt 0.947972 -0.144103
vt 0.758542 -0.144456
vt 0.758576 -0.144422
vt 0.758544 -0.144267
vt 0.758776 -0.144227
vt 0.771383 -0.151730
vt 0.985179 -0.151461
vt 0.985181 -0.174291
vt 0.985191 -0.293345
vt 0.771316 -0.287073
vt 0.985145 -0.271446
vt 0.629160 -0.423985
vt 0.690358 -0.364185
vt 0.616117 -0.561531
vt 0.729421 -0.561561
vt 0.758933 -0.002496
vt 0.758663 -0.039294
vt 0.994309 -0.038748
vt 0.993800 -0.002403
vt 0.985162 -0.322857
vt 0.985191 -0.293368
vt 0.575701 -0.055641
vt 0.683789 -0.130940
vt 0.181423 -0.023935
vt 0.448175 -0.561509
vt 0.478450 -0.992596
vt 0.816161 -0.387076
vt 0.896748 -0.469776
vt 0.893334 -0.388512
vt 0.771396 -0.224493
vt 0.771402 -0.181655
vt 0.985125 -0.197203
vt 0.771401 -0.341966
vt 0.771392 -0.316401
vt 0.985083 -0.219258
vt 0.985124 -0.197130
vt 0.811811 -0.466927
vt 0.035822 -0.719864
vt 0.353278 -0.335640
vt 0.192833 -0.457316
vt 0.363241 -0.489847
vt 0.356042 -0.412236
vt 0.899132 -0.399509
vt 0.865605 -0.463368
vt 0.950991 -0.440238
vt 0.771465 -0.255608
vt 0.798573 -0.384016
vt 0.563791 -0.992624
vt 0.084651 -0.992626
vt 0.246323 -0.992591
vt 0.956505 -0.470943
vt 0.959372 -0.386962
vt 0.078929 -0.026402
vt 0.011958 -0.562320
vt 0.352954 -0.339637
vt 0.628594 -0.425695
vt 0.354120 -0.477950
vt 0.352250 -0.335183
vt 0.364329 -0.272058
vt 0.744884 -0.242490
vt 0.348316 -0.086336
vt 0.357271 -0.146123
vt 0.919032 -0.491931
vt 0.765782 -0.496585
vt 0.915293 -0.357954
vt 0.340086 0.000259
vt 0.730786 -0.502998
vt 0.437260 -0.503535
vt 0.748379 -0.158311
vt 0.761770 -0.360275
vt 0.367034 -0.239392
vt 0.899303 -0.992625
vt 0.005021 -0.992622
vt 0.985139 -0.245502
vt 0.985177 -0.342177
vt 0.458145 -0.502960
vt 0.128479 -0.502969
vt 0.748363 -0.308294
vt 0.800381 -0.462464
vt 0.707305 -0.992624
vt 0.987342 -0.502567
vt 0.731297 -0.502759
vt 0.014851 -0.503233
vt 0.489943 -0.502127
vt 0.687122 -0.018126
vt 0.621790 -0.018845
vt 0.503309 -0.036859
vt 0.006483 -0.027054
vt 0.005017 -0.721165
vt 0.730655 -0.503127
vn -0.695600 -0.654500 0.296300
vn -0.149400 0.978900 0.139700
vn -0.170200 -0.981800 0.083800
vn 0.112600 0.970700 -0.212100
vn -0.072600 0.997000 -0.026500
vn -0.326100 -0.945100 0.019300
vn 0.078000 -0.960600 0.266900
vn -0.005700 0.999100 0.040900
vn 0.053800 0.953100 0.297900
vn -0.055800 -0.950200 -0.306500
vn 0.005100 0.999900 0.013400
vn -0.006500 -0.999800 -0.019100
vn 0.064100 0.964000 0.258000
vn -0.066200 -0.961500 -0.266600
vn 0.138100 -0.489400 -0.861000
vn -0.140300 0.133800 0.981000
vn 0.565100 -0.489400 0.664200
vn -0.654900 0.133800 -0.743800
vn 0.680200 -0.663900 0.310600
vn 0.071700 -0.970300 -0.230900
vn -0.157700 0.755800 -0.635500
vn 0.161000 -0.741900 0.650900
vn 0.210100 0.242500 0.947100
vn -0.211200 -0.225700 -0.951000
vn 0.733200 0.252300 -0.631500
vn -0.349300 -0.838600 -0.418100
vn -0.956400 0.252300 -0.147300
vn -0.091100 -0.838600 0.537100
vn -0.134000 -0.965500 0.223300
vn -0.109300 0.993900 -0.014700
vn 0.440500 0.372000 -0.817100
vn 0.789800 -0.130100 0.599400
vn 0.436500 0.725200 -0.532500
vn -0.004900 -0.991800 -0.127900
vn 0.400100 0.801800 -0.444000
vn 0.121400 0.725200 0.677800
vn 0.100400 -0.991800 0.079300
vn 0.077800 0.801800 0.592600
vn 0.838300 0.075100 0.540000
vn -0.590000 0.624500 0.511700
vn -0.029800 -0.956500 -0.290300
vn -0.061800 0.996700 -0.052200
vn 0.152600 0.701900 -0.695700
vn 0.938100 0.343100 0.046600
vn -0.397700 -0.729200 -0.556800
vn -0.750000 -0.248100 0.613100
vn -0.165100 -0.729200 0.664000
vn 0.953300 -0.248100 0.172100
vn 0.949000 0.314700 0.020200
vn 0.389500 -0.013600 -0.920900
vn -0.449700 0.608600 0.653700
vn 0.236600 0.968100 0.082800
vn 0.720500 -0.221700 0.657100
vn 0.338900 0.665800 0.664700
vn -0.086900 0.279200 0.956300
vn -0.657800 0.542300 0.522700
vn -0.045200 -0.930000 -0.364800
vn -0.355200 0.905400 -0.232400
vn -0.342600 -0.938000 0.052300
vn -0.264400 0.792000 -0.550200
vn 0.169300 -0.912800 0.371700
vn 0.514200 -0.856800 -0.039400
vn -0.080200 0.289600 0.953800
vn -0.673200 0.289600 -0.680400
vn -0.339000 -0.927300 -0.158500
vn -0.239600 0.940700 -0.240200
vn -0.021800 0.269300 0.962800
vn -0.800600 0.591200 -0.097200
vn -0.183700 -0.751900 -0.633100
vn 0.763700 -0.049200 -0.643700
vn 0.271800 -0.764000 0.585200
vn -0.126600 0.047200 0.990800
vn 0.004300 -0.998900 -0.046900
vn 0.983100 0.101000 0.152600
vn -0.157700 0.755900 -0.635500
vn 0.938300 0.325900 -0.115500
vn 0.214600 -0.322400 -0.921900
vn 0.561700 -0.322400 0.761900
vn -0.226700 0.651000 -0.724500
vn -0.420700 0.870000 -0.257000
vn -0.246000 -0.969200 -0.009900
vn -0.498200 0.405200 0.766500
vn 0.969600 0.050600 -0.239500
vn 0.960300 0.182900 -0.210700
vn -0.969600 -0.050600 0.239500
vn -0.960300 -0.182900 0.210700
vn -0.976100 -0.069200 0.206100
vn 0.309100 0.637500 0.705700
vn -0.138400 0.980800 0.137300
vn 0.976100 0.069200 -0.206100
vn 0.956900 -0.267200 0.114000
vn -0.521800 0.742700 -0.419700
vn 0.019800 0.742700 0.669400
vn -0.003500 -1.000000 0.005600
vn 0.006600 -1.000000 -0.001000
vn 0.301200 0.947500 0.107600
vn -0.277400 0.947500 0.159200
vn 0.185500 -0.929800 -0.317900
vn -0.520900 0.662300 -0.538500
vn -0.965600 -0.178500 0.188800
vn 0.744700 -0.140600 0.652400
vn 0.052500 -0.973600 -0.222200
vn 0.226100 -0.261800 0.938300
vn 0.985900 0.074800 0.149800
vn -0.296400 0.931000 -0.213000
vn 0.205600 0.946100 -0.250200
vn -0.125300 -0.777600 -0.616200
vn 0.992900 0.041900 -0.111700
vn 0.654500 -0.755200 0.035500
vn 0.968500 0.244400 0.048100
vn 0.144100 -0.784800 0.602800
vn 0.963000 -0.241100 0.120300
vn -0.965900 -0.176900 0.189000
vn 0.072200 -0.982500 -0.171800
vn 0.022800 -0.999700 0.013300
vn -0.167200 -0.983800 0.064800
vn -0.469800 -0.882800 0.008300
vn -0.440000 -0.701800 0.560200
vn -0.466200 0.620900 0.630200
vn 0.633800 0.210200 -0.744300
vn 0.421700 0.906100 -0.033700
vn -0.193000 0.951400 0.239800
vn 0.307700 0.951400 -0.009000
vn -0.126600 -0.786300 -0.604700
vn -0.075800 0.960400 -0.268200
vn -0.077000 0.961900 -0.262500
vn 0.983700 0.157300 -0.087600
vn -0.361100 0.154600 0.919600
vn -0.330900 0.622700 0.709000
vn 0.077000 -0.958800 0.273300
vn 0.567700 -0.097200 0.817500
vn 0.253000 -0.097200 -0.962600
vn 0.120500 0.806000 0.579500
vn 0.119700 0.796400 0.592800
vn 0.974800 -0.111300 -0.193400
vn -0.489700 0.418500 0.764900
vn -0.707300 0.433300 0.558600
vn -0.541500 0.565400 0.622200
vn -0.115400 0.979900 0.162700
vn 0.103700 -0.972000 -0.210800
vn -0.128600 -0.987200 0.094700
usemtl NOVS
s off
f 76/1/1 53/2/1 77/3/1
f 36/4/2 69/5/2 92/6/2
f 75/7/3 53/2/3 76/1/3
f 57/8/4 2/9/4 78/10/4
f 38/11/5 5/12/5 52/13/5
f 44/14/6 39/15/6 18/16/6
f 79/17/7 48/18/7 66/19/7
f 68/20/8 84/18/8 83/21/8
f 89/22/9 9/23/9 90/24/9
f 82/25/10 70/24/10 73/26/10
f 10/27/11 68/20/11 83/21/11
f 6/20/12 74/28/12 86/21/12
f 89/22/13 11/29/13 9/23/13
f 82/25/14 73/26/14 72/30/14
f 50/31/15 22/32/15 88/33/15
f 12/34/16 42/35/16 60/36/16
f 51/31/17 21/32/17 87/33/17
f 15/34/18 43/35/18 59/36/18
f 18/16/19 3/37/19 71/38/19
f 46/39/20 75/7/20 93/40/20
f 7/19/21 49/17/21 19/41/21
f 79/17/22 66/19/22 55/41/22
f 55/41/23 20/42/23 23/43/23
f 19/41/24 54/44/24 56/42/24
f 61/45/25 15/34/25 59/36/25
f 61/45/26 43/35/26 15/46/26
f 62/45/27 12/34/27 60/36/27
f 62/45/28 42/35/28 12/46/28
f 55/41/23 23/43/23 8/44/23
f 58/43/24 56/42/24 54/44/24
f 1/47/29 18/16/29 47/48/29
f 45/49/30 38/11/30 52/13/30
f 78/50/31 2/9/31 25/51/31
f 30/52/32 67/53/32 37/54/32
f 63/55/33 13/56/33 14/57/33
f 50/58/34 34/59/34 62/45/34
f 88/33/27 62/45/27 81/60/27
f 81/60/35 63/55/35 14/61/35
f 64/55/36 16/56/36 17/57/36
f 51/58/37 33/59/37 61/45/37
f 87/33/25 61/45/25 80/60/25
f 80/60/38 64/55/38 17/61/38
f 30/52/39 4/62/39 67/53/39
f 36/4/40 92/6/40 91/63/40
f 3/37/41 18/16/41 65/64/41
f 5/12/42 32/65/42 52/13/42
f 32/65/43 3/66/43 31/67/43
f 32/68/44 71/69/44 3/70/44
f 33/59/45 43/35/45 61/45/45
f 33/59/46 16/56/46 28/71/46
f 34/59/47 42/35/47 62/45/47
f 34/59/48 13/56/48 26/71/48
f 5/72/49 71/69/49 32/68/49
f 25/73/50 46/39/50 78/50/50
f 36/4/51 91/63/51 30/74/51
f 30/74/52 37/75/52 36/4/52
f 37/54/53 25/76/53 2/77/53
f 37/75/54 2/9/54 57/8/54
f 85/78/55 38/11/55 45/49/55
f 92/6/56 77/79/56 91/63/56
f 31/80/57 3/81/57 65/82/57
f 32/65/58 31/67/58 65/83/58
f 18/16/59 39/15/59 40/84/59
f 65/83/60 52/13/60 32/65/60
f 47/48/61 18/16/61 41/85/61
f 71/38/62 41/85/62 18/16/62
f 26/71/63 60/36/63 42/35/63
f 26/71/48 42/35/48 34/59/48
f 28/71/64 59/36/64 43/35/64
f 28/71/46 43/35/46 33/59/46
f 44/14/65 18/16/65 1/47/65
f 44/86/66 45/49/66 39/87/66
f 1/88/67 47/89/67 45/90/67
f 44/86/68 1/91/68 45/49/68
f 41/92/69 35/93/69 46/39/69
f 78/50/70 46/39/70 35/93/70
f 41/85/71 24/94/71 47/48/71
f 47/89/72 85/95/72 45/90/72
f 48/18/73 6/20/73 86/21/73
f 6/20/74 48/18/74 84/18/74
f 49/17/75 54/44/75 19/41/75
f 48/18/76 79/17/76 49/17/76
f 88/33/77 13/56/77 50/31/77
f 34/59/48 50/31/48 13/56/48
f 87/33/78 16/56/78 51/31/78
f 33/59/46 51/31/46 16/56/46
f 39/87/79 52/13/79 40/96/79
f 45/49/80 52/13/80 39/87/80
f 75/7/81 4/97/81 53/2/81
f 4/98/82 30/74/82 91/63/82
f 8/44/83 23/43/83 54/44/83
f 49/17/84 79/17/84 54/44/84
f 55/41/85 19/41/85 20/42/85
f 66/19/86 19/41/86 55/41/86
f 19/41/87 56/42/87 20/42/87
f 82/25/86 11/29/86 89/22/86
f 36/4/88 37/75/88 57/8/88
f 36/4/89 57/8/89 69/5/89
f 54/44/90 23/43/90 58/43/90
f 70/24/91 90/24/91 9/23/91
f 29/99/92 59/36/92 28/71/92
f 59/36/25 80/60/25 61/45/25
f 27/99/93 60/36/93 26/71/93
f 60/36/27 81/60/27 62/45/27
f 51/58/94 61/45/94 21/100/94
f 87/33/25 21/100/25 61/45/25
f 50/58/95 62/45/95 22/100/95
f 88/33/27 22/100/27 62/45/27
f 63/55/96 27/99/96 26/71/96
f 13/56/48 63/55/48 26/71/48
f 64/55/97 29/99/97 28/71/97
f 16/56/46 64/55/46 28/71/46
f 40/84/98 65/64/98 18/16/98
f 65/83/99 40/96/99 52/13/99
f 66/19/86 7/19/86 19/41/86
f 86/21/100 74/28/100 83/21/100
f 37/54/101 67/53/101 25/76/101
f 25/73/102 75/7/102 46/39/102
f 6/20/103 68/20/103 10/27/103
f 68/20/104 6/20/104 84/18/104
f 69/5/105 5/101/105 38/102/105
f 78/50/106 69/5/106 57/8/106
f 56/42/107 58/43/107 70/24/107
f 58/43/108 90/24/108 70/24/108
f 35/103/109 41/85/109 71/38/109
f 35/104/110 71/69/110 5/72/110
f 72/30/111 9/23/111 11/29/111
f 82/25/86 72/30/86 11/29/86
f 72/30/111 73/26/111 9/23/111
f 70/24/112 9/23/112 73/26/112
f 74/28/103 6/20/103 10/27/103
f 74/28/113 10/27/113 83/21/113
f 25/73/114 67/105/114 75/7/114
f 67/105/115 4/97/115 75/7/115
f 76/1/116 93/40/116 75/7/116
f 76/1/117 24/106/117 41/107/117
f 24/106/118 76/1/118 77/3/118
f 38/102/119 24/108/119 77/79/119
f 78/10/120 35/109/120 5/101/120
f 5/101/121 69/5/121 78/10/121
f 8/44/22 79/17/22 55/41/22
f 54/44/84 79/17/84 8/44/84
f 29/99/122 64/55/122 80/60/122
f 59/36/25 29/99/25 80/60/25
f 27/99/123 63/55/123 81/60/123
f 60/36/27 27/99/27 81/60/27
f 56/42/124 70/24/124 82/25/124
f 56/42/86 82/25/86 89/22/86
f 83/21/125 84/18/125 7/19/125
f 86/21/86 83/21/86 7/19/86
f 84/18/126 49/17/126 7/19/126
f 84/18/127 48/18/127 49/17/127
f 24/110/128 85/111/128 47/112/128
f 85/78/129 24/113/129 38/11/129
f 48/18/130 86/21/130 66/19/130
f 66/19/86 86/21/86 7/19/86
f 17/57/131 16/56/131 87/33/131
f 80/60/25 17/57/25 87/33/25
f 14/57/132 13/56/132 88/33/132
f 81/60/27 14/57/27 88/33/27
f 20/42/133 89/22/133 90/24/133
f 56/42/86 89/22/86 20/42/86
f 20/42/134 90/24/134 23/43/134
f 58/43/135 23/43/135 90/24/135
f 4/98/136 91/63/136 53/114/136
f 53/114/137 91/63/137 77/79/137
f 77/79/138 92/6/138 38/102/138
f 69/5/139 38/102/139 92/6/139
f 41/115/140 46/39/140 93/40/140
f 41/115/141 93/40/141 76/1/141
