# Blender v2.75 (sub 0) OBJ File: 'Empty.blend'
# www.blender.org
mtllib OC_BIGLIGHTER_01.mtl
o OC_BIGLIGHTER_01
v 0.725402 0.073689 -0.982549
v 0.688754 0.100000 0.416971
v 0.518812 0.083130 0.412521
v 1.337269 0.100000 -0.363805
v -0.062731 0.073689 -0.363805
v 1.337269 0.083130 -0.193805
v -0.062731 -0.005551 -0.233350
v 0.594991 -0.005551 -0.985964
v 0.622607 0.006229 0.387319
v 0.609250 0.192533 0.269589
v 0.615801 0.024810 0.269760
v 1.309359 0.006229 -0.296905
v 1.245697 0.190659 -0.226824
v 1.192018 0.024810 -0.287023
v 0.079678 0.082714 -0.293701
v 0.016016 0.275477 -0.251651
v -0.037663 0.082841 -0.283728
v 0.651594 0.082714 -0.842024
v 0.663135 0.269401 -0.851709
v 0.644696 0.082841 -0.959585
v 0.631120 0.077217 0.096678
v 0.644008 0.824958 -0.245739
v 0.630529 0.048482 0.033906
v 0.636342 0.077099 -0.655083
v 0.638195 0.796341 -0.243520
v 0.638195 0.825518 -0.306089
v 0.671788 2.247567 -0.275644
v 0.671788 0.811321 -0.275644
v 0.602750 2.247567 -0.275644
v 0.602750 0.062119 0.063811
v 0.671788 0.062119 0.063811
v 0.671788 0.062119 -0.622958
v 0.602750 0.062119 -0.622958
v 0.602750 0.811321 -0.275644
v 0.271614 0.078577 -0.278879
v 0.610700 0.823429 -0.272410
v 0.334420 0.050011 -0.276505
v 0.637570 2.247567 -0.241126
v 0.637570 0.811321 -0.241126
v 0.636968 2.247567 -0.310162
v 0.307550 0.062119 -0.307788
v 0.308152 0.062119 -0.238752
v 0.972477 0.062119 -0.312535
v 0.973079 0.062119 -0.243500
v 0.636968 0.811321 -0.310162
v 0.636342 0.047922 -0.592513
v 0.643417 0.796223 -0.308511
v 1.010772 0.079976 -0.283380
v 0.599275 0.793464 -0.270282
v 0.661735 0.822870 -0.270828
v 0.948312 0.050570 -0.282833
v 0.673506 0.794863 -0.270035
v 0.584223 0.093990 -0.986246
v -0.062731 0.093990 -0.222578
v 1.337269 0.000848 -0.347911
v 0.672865 0.000848 0.416555
v 0.560768 0.022937 0.322016
v 0.016016 0.088917 -0.230395
v 0.589976 0.088917 -0.907321
v 1.245697 0.022937 -0.233377
v 1.192018 0.192533 -0.280470
v 1.245697 0.194406 -0.334116
v 1.245697 0.026684 -0.340669
v 0.661472 0.194406 0.324653
v 0.668023 0.026684 0.324825
v 0.717855 0.263324 -0.903973
v 0.696606 0.076764 -0.904529
v 0.714634 -0.000458 -0.982831
v -0.062731 -0.000458 -0.353034
v 0.554217 0.159666 0.321844
v 1.337269 0.008218 -0.209699
v 0.534701 0.008218 0.412937
v 0.665945 0.236518 -0.959029
v 0.016016 0.076764 -0.337062
v 1.299375 0.166237 -0.280470
v 0.016016 0.223790 -0.358318
v 0.606440 0.147657 0.376909
v 0.069694 0.229867 -0.304984
v 0.611225 0.207726 -0.906765
v 1.233783 0.213551 -0.272812
v 0.663662 0.271497 -0.916058
v 0.005353 0.284253 -0.303827
v -0.037663 0.166225 -0.304984
v 0.600501 0.165391 0.311139
vt 0.751021 -0.741831
vt 0.990547 -0.743105
vt 0.999229 -0.503062
vt 0.749086 -0.751471
vt 0.993433 -0.750859
vt 0.989475 -0.505732
vt 0.759702 -0.501788
vt 0.745129 -0.506343
vt -0.127589 -1.002891
vt -0.472023 -1.546929
vt 0.207901 -1.550794
vt 0.867084 -7.067818
vt -0.131917 -7.067818
vt 0.867085 -0.110951
vt -0.131916 -0.110951
vt -0.119680 5.346333
vt 0.879318 5.346333
vt 0.879315 -7.436291
vt -0.119684 -7.436290
vt 0.940107 4.836740
vt -0.058892 4.836740
vt -0.058894 -7.898764
vt 0.940104 -7.898764
vt -0.275426 -0.763711
vt 1.446989 -0.763712
vt 1.446989 -0.236289
vt -0.446989 -0.236289
vt -0.446989 -0.763712
vt 1.275426 -0.763711
vt 1.275426 -0.236288
vt -0.275426 -0.236288
vt 1.446989 -0.404366
vt -0.275426 -0.375624
vt -0.275426 -0.640282
vt 0.236288 -0.624376
vt 0.763711 -0.640282
vt 0.763711 -0.375624
vt 0.236288 -0.600384
vt 0.763711 -0.624376
vt 0.763711 -0.359718
vt 1.275426 -0.429351
vt -0.446989 -0.359718
vt -0.446989 -0.624376
vt 1.275426 -0.624376
vt 0.236288 -0.429351
vt 1.446989 -0.600384
vt 0.236288 -0.404366
vn 0.803500 0.032000 0.594400
vn -0.729900 -0.033200 0.682700
vn 0.573200 0.032000 -0.818800
vn 0.702200 -0.029300 0.711400
vn 0.566500 -0.117900 -0.815600
vn 0.706400 0.101600 0.700400
vn 0.803700 -0.093300 0.587700
vn -0.721100 0.080300 0.688100
vn -0.687600 -0.033900 -0.725300
vn -0.707100 0.080000 0.702600
vn -0.678000 0.124700 -0.724400
vn -0.707100 -0.027600 0.706600
vn 0.731700 0.114700 -0.671900
vn -0.707100 0.027600 -0.706600
vn -0.371700 0.863100 -0.341800
vn 0.724800 0.027600 -0.688400
vn -0.728900 -0.034100 0.683800
vn 0.690400 -0.005100 0.723400
vn -0.714500 0.101300 -0.692300
vn 0.718800 -0.096900 -0.688400
vn -0.679700 -0.027300 -0.733000
vn -0.057800 0.962600 0.264800
vn 0.744900 -0.082900 -0.662000
vn 0.141800 0.989300 0.033400
vn -0.638600 -0.110100 -0.761600
vn 0.700200 -0.027900 0.713400
vn 0.568000 0.810600 -0.142700
vn 0.705200 -0.006500 -0.709000
vn -0.815100 0.301900 -0.494500
vn 0.623500 0.128100 0.771200
vn -0.461900 0.845000 0.269500
vn 0.734800 0.076800 0.673900
vn 0.515300 0.622100 -0.589500
vn -0.793600 0.139200 0.592300
vn -0.771300 0.636300 0.014400
vn -0.462100 0.740300 0.488200
vn 0.586600 0.775300 0.234000
vn -0.716600 0.521800 -0.462800
vn 0.248800 0.757600 -0.603500
vn -0.912400 0.330200 0.242000
vn 0.645500 0.763700 -0.003500
vn -0.703800 -0.175500 -0.688400
vn -0.826000 0.139200 0.546200
vn 0.024000 0.834600 0.550300
vn -0.464400 0.783100 0.413700
vn 0.999800 -0.017800 -0.001300
vn -0.999800 0.017800 0.001300
vn 1.000000 -0.002000 -0.000900
vn -1.000000 0.002000 0.000900
vn 0.000000 0.000000 -1.000000
vn 0.000000 0.000000 1.000000
vn 0.000000 0.412700 0.910900
vn 0.000000 -0.412700 -0.910900
vn 0.000000 0.420600 -0.907300
vn 0.000000 -0.420600 0.907300
vn -0.034600 0.007100 0.999400
vn 0.034600 -0.007100 -0.999400
vn 1.000000 0.000000 -0.008700
vn -1.000000 0.000000 0.008700
vn -0.915400 0.402500 0.008000
vn 0.915400 -0.402500 -0.008000
vn 0.912600 0.408700 -0.008000
vn -0.912600 -0.408700 0.008000
vn 0.013700 -0.010500 0.999900
vn -0.013700 0.010500 -0.999900
vn -0.098900 0.995100 0.003100
vn -0.053500 -0.998500 0.007500
vn 0.005700 0.995100 0.098700
vn 0.008900 -0.998500 0.053200
vn 0.001100 -0.999100 -0.042500
vn -0.018600 0.989700 -0.142300
vn 0.042500 -0.999100 0.002200
vn 0.142700 0.989700 -0.014900
vn -0.993100 -0.107600 -0.047300
vn 0.026200 -0.000000 -0.999700
vn -0.021300 -0.107600 0.994000
vn -1.000000 0.000000 0.000000
vn 1.000000 0.000000 0.000000
vn 0.003000 -0.158300 -0.987400
vn -0.026200 -0.000000 0.999700
vn 0.987000 -0.158300 0.028800
vn 0.989200 -0.143800 0.029700
vn 0.003800 -0.143800 -0.989600
vn -0.014500 -0.207500 0.978100
vn -0.977400 -0.207500 -0.040100
usemtl OC_KRONLEUCHTER_01
s off
f 9/1/1 65/2/1 64/3/1
f 57/4/2 9/5/2 77/6/2
f 12/1/3 63/2/3 62/3/3
f 60/4/4 12/5/4 75/6/4
f 15/1/5 74/2/5 76/3/5
f 58/4/6 15/5/6 78/6/6
f 18/1/7 67/2/7 66/3/7
f 59/4/8 18/5/8 19/6/8
f 11/1/9 57/2/9 70/3/9
f 17/1/10 58/2/10 16/3/10
f 20/1/11 59/2/11 79/3/11
f 14/1/12 60/2/12 13/3/12
f 14/1/12 13/3/12 61/7/12
f 12/1/13 62/3/13 75/7/13
f 63/4/14 61/6/14 62/8/14
f 80/9/15 62/10/15 61/11/15
f 63/4/14 14/5/14 61/6/14
f 65/4/16 10/6/16 64/8/16
f 57/4/17 77/6/17 70/8/17
f 65/4/16 11/5/16 10/6/16
f 18/1/18 66/3/18 19/7/18
f 20/1/19 79/3/19 73/7/19
f 67/4/20 20/5/20 73/6/20
f 11/1/21 70/3/21 10/7/21
f 84/9/22 70/10/22 77/11/22
f 67/4/23 73/6/23 66/8/23
f 81/9/24 19/10/24 66/11/24
f 74/4/25 83/6/25 76/8/25
f 60/4/26 75/6/26 13/8/26
f 80/9/27 75/10/27 62/11/27
f 15/1/28 76/3/28 78/7/28
f 82/9/29 76/10/29 83/11/29
f 9/1/30 64/3/30 77/7/30
f 84/9/31 77/10/31 64/11/31
f 58/4/32 78/6/32 16/8/32
f 82/9/33 78/10/33 76/11/33
f 59/4/34 19/6/34 79/8/34
f 81/9/35 79/10/35 19/11/35
f 80/9/36 61/10/36 13/11/36
f 80/9/37 13/10/37 75/11/37
f 81/9/38 73/10/38 79/11/38
f 81/9/39 66/10/39 73/11/39
f 82/9/40 83/10/40 16/11/40
f 82/9/41 16/10/41 78/11/41
f 74/4/42 17/5/42 83/6/42
f 17/1/43 16/3/43 83/7/43
f 84/9/44 10/10/44 70/11/44
f 84/9/45 64/10/45 10/11/45
usemtl OC_KRONLEUCHTER_03
f 21/12/46 23/13/46 22/14/46
f 23/13/47 21/12/47 22/14/47
f 26/14/48 25/15/48 46/13/48
f 25/15/49 26/14/49 46/13/49
f 29/16/50 27/17/50 28/18/50
f 27/17/51 29/16/51 28/18/51
f 30/12/52 31/13/52 34/14/52
f 31/13/53 30/12/53 34/14/53
f 32/13/54 33/12/54 34/14/54
f 33/12/55 32/13/55 34/14/55
f 34/14/54 28/15/54 32/13/54
f 28/15/55 34/14/55 32/13/55
f 28/15/52 34/14/52 31/13/52
f 34/14/53 28/15/53 31/13/53
f 28/18/50 34/19/50 29/16/50
f 34/19/51 28/18/51 29/16/51
f 35/12/56 37/13/56 36/14/56
f 37/13/57 35/12/57 36/14/57
f 40/20/58 38/21/58 39/22/58
f 38/21/59 40/20/59 39/22/59
f 41/12/60 42/13/60 45/14/60
f 42/13/61 41/12/61 45/14/61
f 44/13/62 43/12/62 45/14/62
f 43/12/63 44/13/63 45/14/63
f 45/14/62 39/15/62 44/13/62
f 39/15/63 45/14/63 44/13/63
f 39/15/60 45/14/60 42/13/60
f 45/14/61 39/15/61 42/13/61
f 39/22/58 45/23/58 40/20/58
f 45/23/59 39/22/59 40/20/59
f 46/13/48 24/12/48 26/14/48
f 24/12/49 46/13/49 26/14/49
f 47/15/46 22/14/46 23/13/46
f 22/14/47 47/15/47 23/13/47
f 50/14/64 49/15/64 51/13/64
f 49/15/65 50/14/65 51/13/65
f 51/13/64 48/12/64 50/14/64
f 48/12/65 51/13/65 50/14/65
f 52/15/56 36/14/56 37/13/56
f 36/14/57 52/15/57 37/13/57
usemtl OC_KRONLEUCHTER_02
f 53/24/66 3/25/66 2/26/66
f 56/27/67 72/28/67 8/29/67
f 54/24/68 6/25/68 4/26/68
f 55/27/69 71/28/69 7/29/69
f 7/29/70 69/30/70 55/27/70
f 4/26/71 5/31/71 54/24/71
f 8/29/72 68/30/72 56/27/72
f 2/26/73 1/31/73 53/24/73
f 3/32/74 53/33/74 8/34/74
f 68/35/75 8/36/75 53/37/75
f 6/32/76 54/33/76 7/34/76
f 69/35/77 7/36/77 54/37/77
f 71/38/78 55/39/78 4/40/78
f 5/41/79 4/42/79 55/43/79
f 72/38/80 56/39/80 2/40/80
f 1/41/81 2/42/81 56/43/81
f 56/43/82 68/44/82 1/41/82
f 53/37/75 1/45/75 68/35/75
f 55/43/83 69/44/83 5/41/83
f 54/37/77 5/45/77 69/35/77
f 7/34/84 71/46/84 6/32/84
f 4/40/78 6/47/78 71/38/78
f 8/34/85 72/46/85 3/32/85
f 2/40/80 3/47/80 72/38/80
