# Blender v2.75 (sub 0) OBJ File: 'Empty.blend'
# www.blender.org
mtllib OC_CHIMNEY_V2.mtl
o OC_CHIMNEY_V2
v 0.470000 0.371535 -0.496757
v 0.470000 0.483114 0.500104
v -0.480000 0.371535 -0.496757
v -0.480000 0.483114 0.500104
v 0.400000 0.000000 0.400000
v 0.320000 0.000000 -0.440000
v 0.400000 0.485864 0.397238
v -0.400000 0.000000 0.400000
v -0.320000 0.000000 -0.440000
v -0.400000 0.485864 0.397238
v 0.320000 0.340000 -0.440000
v -0.320000 0.340000 -0.440000
v 0.400000 0.340000 -0.440000
v 0.400000 0.000000 -0.440000
v 0.320000 0.485864 0.397238
v 0.320000 0.000000 0.400000
v -0.400000 0.340000 -0.440000
v -0.400000 0.000000 -0.440000
v -0.320000 0.485864 0.397238
v -0.320000 0.000000 0.400000
v 0.470000 0.541291 0.479266
v 0.470000 0.313358 -0.475919
v -0.480000 0.541291 0.479266
v -0.480000 0.313358 -0.475919
v -0.360000 0.000000 -0.360000
v 0.360000 0.353738 -0.361188
v -0.360000 0.353738 -0.361188
v 0.360000 0.000000 -0.360000
v -0.360000 0.239843 -0.240000
v 0.360000 0.239843 -0.240000
v -0.360000 0.239843 0.300000
v 0.360000 0.239843 0.300000
v 0.360000 0.000000 0.300000
v -0.360000 0.000000 0.300000
v 0.360000 0.000000 -0.240000
v -0.360000 0.000000 -0.240000
v -0.360000 0.374575 -0.243011
v 0.360000 0.374575 -0.243011
vt -0.497020 -0.361257
vt 0.248283 0.353445
vt 0.248283 -0.361257
vt -0.489602 -0.367188
vt 0.284363 0.375000
vt 0.284363 -0.367188
vt -0.489602 0.375000
vt -0.497020 0.353445
vt -0.212500 -0.000000
vt 0.443750 -0.265625
vt -0.210343 -0.379582
vt -0.241310 0.001005
vt -0.238698 0.380583
vt 0.346140 0.266628
vt -0.332500 -0.000000
vt -0.330343 0.379582
vt 0.323750 0.265625
vt -0.252500 -0.000000
vt 0.403750 -0.265625
vt -0.250343 -0.379582
vt 0.345663 0.001005
vt 0.443750 -0.000000
vt 0.403750 -0.000000
vt 0.323750 -0.000000
vt 0.362500 -0.000000
vt 0.300000 0.265625
vt 0.362500 0.265625
vt 0.300000 -0.000000
vt 0.260000 0.001776
vt 0.322500 -0.377812
vt 0.260000 -0.377812
vt 0.322500 0.001776
vt -0.310000 0.265625
vt -0.372500 -0.000000
vt -0.372500 0.265625
vt -0.310000 -0.000000
vt 0.321250 -0.287812
vt 0.258750 0.091776
vt 0.258750 -0.287812
vt 0.321250 0.091776
vt 0.040233 0.123374
vt -0.008045 -0.618814
vt -0.008045 0.123374
vt 0.381605 -0.310955
vt -0.384219 -0.356740
vt -0.392359 -0.309152
vt 0.367188 0.355849
vt -0.375000 0.404127
vt 0.367188 0.404127
vt 0.389744 -0.358542
vt -0.352877 0.180406
vt 0.350263 0.487288
vt -0.338526 0.134310
vt 0.040233 -0.618814
vt 0.335911 0.533384
vt -0.375000 0.355849
vt -0.027911 -0.177132
vt 0.267911 0.375381
vt 0.248280 -0.186777
vt -0.008280 0.385026
vt -0.243689 -0.374939
vt -0.056311 0.187561
vt -0.056311 -0.374939
vt -0.243689 0.187561
vt 0.000000 -0.000000
vt 3396.704346 -1.000000
vt 51.825546 -3413.770264
vt -0.026323 -0.429081
vt 0.266323 0.133419
vt 0.266323 -0.429081
vt -0.026323 0.133419
vt -0.475898 -0.505573
vt -0.287539 -0.254427
vt -0.287539 -0.505573
vt -0.475898 -0.254427
vn 0.000000 0.985200 -0.171400
vn 0.000000 -0.985200 0.171400
vn 1.000000 0.000000 0.000000
vn -1.000000 0.000000 0.000000
vn 0.000000 0.000000 -1.000000
vn 0.000000 0.005700 1.000000
vn 0.000000 0.337200 0.941400
vn 0.000000 -0.337200 -0.941400
vn 0.000000 -0.003400 -1.000000
vn 0.000000 0.000000 1.000000
vn 0.000000 0.008000 1.000000
vn 0.000000 1.000000 0.000000
usemtl OC_CHIMNEY_V2_1
s off
f 23/1/1 1/2/1 3/3/1
f 2/4/2 24/5/2 22/6/2
f 24/5/2 2/4/2 4/7/2
f 1/2/1 23/1/1 21/8/1
f 5/9/3 13/10/3 7/11/3
f 16/12/4 15/13/4 11/14/4
f 8/15/4 10/16/4 17/17/4
f 20/18/3 12/19/3 19/20/3
f 16/12/4 11/14/4 6/21/4
f 5/9/3 14/22/3 13/10/3
f 20/18/3 9/23/3 12/19/3
f 8/15/4 17/17/4 18/24/4
f 14/25/5 11/26/5 13/27/5
f 11/26/5 14/25/5 6/28/5
f 16/29/6 7/30/6 15/31/6
f 7/30/6 16/29/6 5/32/6
f 12/33/5 18/34/5 17/35/5
f 18/34/5 12/33/5 9/36/5
f 10/37/6 20/38/6 19/39/6
f 20/38/6 10/37/6 8/40/6
f 21/41/7 4/42/7 2/43/7
f 22/44/3 21/45/3 2/46/3
f 22/47/8 3/48/8 1/49/8
f 21/45/3 22/44/3 1/50/3
f 23/51/4 24/52/4 4/53/4
f 4/42/7 21/41/7 23/54/7
f 24/52/4 23/51/4 3/55/4
f 3/48/8 22/47/8 24/56/8
f 27/57/9 28/58/9 25/59/9
f 28/58/9 27/57/9 26/60/9
f 34/61/10 32/62/10 31/63/10
f 32/62/10 34/61/10 33/64/10
f 35/65/5 29/66/5 30/67/5
f 29/66/5 35/65/5 36/65/5
f 36/68/11 38/69/11 37/70/11
f 38/69/11 36/68/11 35/71/11
usemtl OC_CHIMNEY_V2_2
f 31/72/12 30/73/12 29/74/12
f 30/73/12 31/72/12 32/75/12
