# Blender v2.75 (sub 0) OBJ File: 'Empty.blend'
# www.blender.org
mtllib OC_DECOROOF_V2.mtl
o OC_DECOROOF_V2
v -0.002891 1.607092 -0.060000
v 1.480000 1.928349 -1.420000
v 1.500000 1.828349 0.300000
v -1.580000 1.928349 -1.420000
v -1.340000 1.828349 0.380000
v 0.001438 1.849306 -1.420000
v 0.720000 1.708349 0.324762
v -1.360000 1.768349 -0.820000
v 1.380000 1.768349 -0.820000
v 0.020000 1.728349 -0.820000
v -0.840000 1.708349 0.364127
v -1.300000 1.768349 -0.060000
v -0.840000 1.648349 -0.060000
v -0.022239 1.609784 0.343492
v 0.720000 1.648349 -0.060000
v 1.400000 1.768349 -0.060000
v 1.659268 -1.395474 0.200000
v 1.380707 1.996871 0.200000
v 1.499366 -1.401058 0.380000
v -1.283279 -1.392020 0.112304
v -1.223941 1.999181 0.349440
v -1.383916 1.989410 0.529196
v -1.443254 -1.401791 0.292060
v 1.380707 1.996870 0.380000
v 1.540610 2.002454 0.380000
v 1.540610 2.002454 0.200000
v -1.283279 -1.404576 0.291865
v 1.659268 -1.395474 0.380000
v 1.499366 -1.401058 0.200000
v -1.443254 -1.389235 0.112498
v -1.223941 1.986625 0.529001
v -1.383916 2.001966 0.349634
vt 0.564159 -0.006624
vt 0.777929 -0.207730
vt 0.567246 -0.364543
vt 0.778601 -0.003308
vt 0.776159 -0.384436
vt 0.398121 -0.403181
vt 0.399402 -0.004885
vt 0.915244 -0.215087
vt 0.874331 -0.472751
vt 0.893775 -0.006528
vt 1.103937 -1.570927
vt 0.996493 1.085012
vt 1.095930 1.085311
vt 0.844888 -1.115567
vt 0.952332 1.540371
vt 0.944325 -1.115867
vt -0.889510 1.460340
vt -1.005634 -1.195233
vt -0.988945 1.460965
vt -0.880531 -1.479831
vt -0.797786 1.176991
vt -0.781096 -1.479207
vt -0.906199 -1.195858
vt -0.897221 1.176366
vt 1.004501 -1.571226
vt 0.852896 1.540671
vt 1.184318 1.085578
vt 1.192325 -1.570660
vt -0.101916 1.217225
vt -0.242569 1.092267
vt -0.242455 1.217225
vt -0.102030 1.092267
vt 0.764507 1.540937
vt -0.968918 -1.480387
vt -0.985607 1.175811
vt 0.756500 -1.115301
vt -0.817812 -1.196413
vt -0.358564 -0.942606
vt -0.218063 -1.067478
vt -0.358602 -1.067564
vt -0.218025 -0.942521
vt -0.801123 1.459785
vn -0.029100 0.990900 0.131200
vn 0.029100 -0.990900 -0.131200
vn 0.028700 0.990200 0.136700
vn -0.028700 -0.990200 -0.136700
vn 0.056300 -0.986200 -0.155700
vn -0.048600 -0.986100 -0.158800
vn -0.056300 0.986200 0.155700
vn 0.048600 0.986100 0.158800
vn 0.173800 -0.984800 -0.004600
vn -0.173800 0.984800 0.004600
vn 0.028100 0.968400 0.247900
vn -0.028100 -0.968400 -0.247900
vn -0.028400 0.967000 0.253100
vn 0.028400 -0.967000 -0.253100
vn 0.049000 0.979400 0.195900
vn -0.052300 0.978600 0.198900
vn -0.049000 -0.979400 -0.195900
vn 0.052300 -0.978600 -0.198900
vn -0.252400 -0.967400 0.019900
vn 0.252400 0.967400 -0.019900
vn 0.228600 0.967200 -0.111100
vn -0.228600 -0.967200 0.111100
vn 0.115000 0.983600 -0.139100
vn 0.250100 0.958700 -0.135600
vn -0.115000 -0.983600 0.139100
vn -0.250100 -0.958700 0.135600
vn -0.057000 0.998300 -0.009400
vn 0.049200 0.998800 -0.004300
vn 0.057000 -0.998300 0.009400
vn -0.049200 -0.998800 0.004300
vn -0.171800 0.973400 -0.151800
vn -0.133900 0.979200 -0.152700
vn 0.171800 -0.973400 0.151800
vn 0.133900 -0.979200 0.152700
vn -0.154700 0.980600 -0.120500
vn 0.154700 -0.980600 0.120500
vn -0.999400 -0.034900 0.000000
vn 0.999400 0.034900 0.000000
vn -0.999800 0.017400 0.001200
vn 0.999800 -0.017400 -0.001200
vn -0.000000 0.000000 1.000000
vn -0.034900 0.999400 0.000000
vn 0.000000 0.000000 -1.000000
vn -0.000000 -0.069800 0.997600
vn -0.000000 0.069800 -0.997600
vn 0.017500 0.997400 0.069700
usemtl OC_DECOROOF_V2_2
s off
f 10/1/1 15/2/1 9/3/1
f 15/2/2 10/1/2 9/3/2
f 10/1/3 8/3/3 13/2/3
f 8/3/4 10/1/4 13/2/4
f 1/4/5 10/1/5 15/2/5
f 13/2/6 10/1/6 1/4/6
f 10/1/7 1/4/7 15/2/7
f 10/1/8 13/2/8 1/4/8
f 15/2/9 9/3/9 16/5/9
f 9/3/10 15/2/10 16/5/10
f 8/3/11 10/1/11 4/6/11
f 10/1/12 8/3/12 4/6/12
f 2/6/13 10/1/13 9/3/13
f 10/1/14 2/6/14 9/3/14
f 4/6/15 10/1/15 6/7/15
f 6/7/16 10/1/16 2/6/16
f 10/1/17 4/6/17 6/7/17
f 10/1/18 6/7/18 2/6/18
f 8/3/19 13/2/19 12/5/19
f 13/2/20 8/3/20 12/5/20
f 11/8/21 12/5/21 5/9/21
f 12/5/22 11/8/22 5/9/22
f 14/10/23 13/2/23 11/8/23
f 12/5/24 11/8/24 13/2/24
f 13/2/25 14/10/25 11/8/25
f 11/8/26 12/5/26 13/2/26
f 15/2/27 1/4/27 14/10/27
f 1/4/28 13/2/28 14/10/28
f 1/4/29 15/2/29 14/10/29
f 13/2/30 1/4/30 14/10/30
f 7/8/31 16/5/31 15/2/31
f 15/2/32 14/10/32 7/8/32
f 16/5/33 7/8/33 15/2/33
f 14/10/34 15/2/34 7/8/34
f 7/8/35 3/9/35 16/5/35
f 3/9/36 7/8/36 16/5/36
usemtl OC_DECOROOF_V2_1
f 24/11/37 29/12/37 19/13/37
f 17/14/38 25/15/38 28/16/38
f 32/17/39 23/18/39 22/19/39
f 31/20/40 20/21/40 21/22/40
f 23/18/39 32/17/39 30/23/39
f 20/21/40 31/20/40 27/24/40
f 29/12/37 24/11/37 18/25/37
f 25/15/38 17/14/38 26/26/38
f 28/27/41 25/28/41 24/11/41
f 26/29/42 24/30/42 25/31/42
f 24/30/42 26/29/42 18/32/42
f 17/14/43 18/33/43 26/26/43
f 27/24/44 22/34/44 23/35/44
f 28/27/41 24/11/41 19/13/41
f 18/33/43 17/14/43 29/36/43
f 32/17/45 20/37/45 30/23/45
f 27/24/44 31/20/44 22/34/44
f 31/38/46 32/39/46 22/40/46
f 31/38/46 21/41/46 32/39/46
f 20/37/45 32/17/45 21/42/45
