# Blender v2.75 (sub 0) OBJ File: 'Empty.blend'
# www.blender.org
mtllib OC_DECORATE_V2.mtl
o OC_DECORATE_V2
v 0.540000 1.400000 0.007500
v -0.180000 1.640000 0.007500
v -0.520000 0.200000 0.007500
v 0.000000 1.343952 0.096560
v 0.440000 0.000000 0.007500
v 0.320734 1.252664 0.065706
v 0.340000 1.060000 0.007500
v 0.391604 0.607446 0.007500
v 0.540000 1.160000 0.007500
v -0.540000 1.160000 0.007500
v -0.340000 1.060000 0.007500
v 0.156736 0.764303 0.069926
v -0.288324 0.194638 0.046344
v -0.320734 1.252664 0.054384
v -0.156736 0.764303 0.069926
v 0.180000 1.640000 0.007500
v -0.340000 0.360000 0.007500
v -0.440000 0.000000 0.007500
v 0.300000 1.460000 0.007500
v -0.540000 1.400000 0.007500
v -0.300000 1.460000 0.007500
v 0.288324 0.194638 0.020814
v 0.013968 0.999130 0.104533
v 0.000000 1.700000 0.007500
v 0.000000 0.294493 0.048596
v 0.000000 0.133406 0.007500
v 0.240000 0.082762 0.007500
v 0.520000 0.200000 0.007500
v 0.340000 0.360000 0.007500
v -0.240000 0.082762 0.007500
v -0.366533 0.607446 0.007500
vt 0.999501 -0.317829
vt 0.842145 -0.391087
vt 0.981000 -0.881971
vt 0.022001 -0.325076
vt 0.055860 -0.881971
vt 0.200858 -0.362101
vt 0.993357 -0.188871
vt 0.826647 -0.172936
vt 0.796679 -0.263375
vt 0.500000 -0.826442
vt 0.766700 -0.885122
vt 0.644981 -0.550360
vt 0.500000 -0.209730
vt 0.500000 -0.412364
vt 0.832930 -0.780701
vt 0.868377 -0.615966
vt 0.234786 -0.160859
vt 0.203321 -0.263375
vt 0.355019 -0.550360
vt 0.274928 -0.937347
vt 0.509215 -0.912544
vt 0.165411 -0.603889
vt 0.037360 -0.205779
vt 0.675715 -0.055082
vt 0.490785 -0.012577
vt 0.233300 -0.885122
vt 0.185500 -0.766208
vt 0.117573 -0.987423
vt 0.342715 -0.055082
vt 0.882427 -0.994670
vt 0.725072 -0.942178
vn -0.000000 0.000000 1.000000
vn 0.069000 0.276000 0.958700
vn 0.071900 -0.069200 0.995000
vn 0.171100 0.282100 0.944000
vn 0.107300 -0.080800 0.990900
vn 0.137000 -0.273900 0.952000
vn 0.226900 -0.047300 0.972800
vn 0.276300 0.031500 0.960500
vn 0.256600 0.000000 0.966500
vn -0.192100 0.234700 0.952900
vn -0.166200 -0.024400 0.985800
vn -0.095400 -0.076900 0.992500
vn 0.162900 -0.046200 0.985600
vn 0.570600 -0.184700 0.800200
vn 0.052100 -0.246900 0.967600
vn -0.056400 0.225600 0.972600
vn -0.112200 -0.224300 0.968000
vn -0.297100 0.017400 0.954700
vn -0.527800 -0.150600 0.835900
vn 0.080600 0.241900 0.967000
vn -0.452100 0.067600 0.889400
vn -0.158700 0.178500 0.971100
vn -0.166500 -0.066600 0.983800
vn 0.227000 0.151400 0.962000
vn -0.209100 0.000000 0.977900
vn -0.227000 0.151400 0.962000
vn -0.135200 0.017400 0.990700
vn 0.103400 0.027200 0.994300
vn -0.080600 0.241900 0.967000
vn 0.093100 -0.290400 0.952400
vn 0.007100 -0.043000 0.999100
vn -0.052100 -0.246900 0.967600
vn 0.047500 -0.138200 0.989300
vn -0.041500 -0.100400 0.994100
vn 0.057900 -0.023200 0.998100
vn 0.055800 0.062800 0.996500
vn 0.293200 -0.014700 0.955900
vn 0.116100 -0.280600 0.952800
vn -0.265500 -0.028500 0.963700
usemtl OC_DECORATE_V2
s off
f 9/1/1 7/2/1 28/3/1
f 10/4/1 3/5/1 11/6/1
f 1/7/2 19/8/2 6/9/2
f 25/10/3 22/11/3 12/12/3
f 4/13/4 6/9/4 19/8/4
f 12/12/5 23/14/5 25/10/5
f 9/1/6 6/9/6 7/2/6
f 12/12/7 29/15/7 8/16/7
f 12/12/8 8/16/8 7/2/8
f 8/16/1 28/3/1 7/2/1
f 1/7/9 6/9/9 9/1/9
f 4/13/10 21/17/10 14/18/10
f 15/19/11 23/14/11 14/18/11
f 15/19/12 25/10/12 23/14/12
f 6/9/13 23/14/13 12/12/13
f 12/12/14 7/2/14 6/9/14
f 25/10/15 30/20/15 26/21/15
f 11/6/1 3/5/1 31/22/1
f 20/23/16 14/18/16 21/17/16
f 10/4/17 11/6/17 14/18/17
f 15/19/18 11/6/18 31/22/18
f 11/6/19 15/19/19 14/18/19
f 16/24/20 24/25/20 4/13/20
f 13/26/21 15/19/21 17/27/21
f 3/5/22 13/26/22 17/27/22
f 18/28/23 13/26/23 3/5/23
f 4/13/24 19/8/24 16/24/24
f 16/24/1 19/8/1 1/7/1
f 20/23/25 10/4/25 14/18/25
f 4/13/26 2/29/26 21/17/26
f 21/17/1 2/29/1 20/23/1
f 29/15/1 28/3/1 8/16/1
f 30/20/1 5/30/1 26/21/1
f 4/13/27 14/18/27 23/14/27
f 4/13/28 23/14/28 6/9/28
f 2/29/29 4/13/29 24/25/29
f 25/10/30 13/26/30 30/20/30
f 13/26/31 25/10/31 15/19/31
f 25/10/32 26/21/32 27/31/32
f 26/21/1 5/30/1 27/31/1
f 25/10/33 27/31/33 22/11/33
f 22/11/34 27/31/34 5/30/34
f 5/30/35 28/3/35 22/11/35
f 28/3/36 29/15/36 22/11/36
f 22/11/37 29/15/37 12/12/37
f 13/26/38 18/28/38 30/20/38
f 18/28/1 5/30/1 30/20/1
f 17/27/39 15/19/39 31/22/39
f 17/27/1 31/22/1 3/5/1
