# Blender v2.75 (sub 0) OBJ File: 'Empty.blend'
# www.blender.org
mtllib OC_FIREPLACE_V5.mtl
o OC_FIREPLACE_V5
v 0.166558 -0.694907 0.502153
v 0.293018 -0.401426 -0.243564
v -0.452699 -0.694907 0.213388
v 0.264110 -0.929061 -0.214657
v 0.109139 1.075972 -0.216654
v -0.684910 -1.902087 1.287565
v -0.633696 -1.953728 1.133792
v 0.204066 1.100366 0.167568
v -0.567197 -1.868428 -1.107687
v -0.460694 -1.920069 -0.985514
v 1.397313 -1.830451 0.111839
v -0.148532 1.372899 0.096876
v 1.236472 -1.882092 0.131815
v -0.276390 1.324403 0.011769
v -0.022721 1.124468 -0.137891
v 0.203126 1.148863 0.013978
v -0.290394 -0.401426 -0.243564
v -0.163935 -0.721288 -0.405869
v -0.261486 -0.929061 -0.214656
v 0.293018 -0.401426 0.339848
v 0.001312 -0.621841 0.048142
v -0.411223 -0.388235 0.048142
v 0.002878 0.713041 0.063675
v 0.242812 -0.416261 0.345051
v 0.162312 -0.416261 0.379551
v 0.205499 -0.694907 -0.389740
v 0.001312 -0.414617 0.460676
v -0.017853 0.720988 0.029075
v -0.346447 -0.409187 -0.081316
v -0.312758 -0.402950 -0.151019
v -0.747511 -1.918357 1.147761
v 1.298079 -1.846721 0.228529
v -0.414965 -1.884698 -1.090670
v 0.090142 0.707290 -0.006232
v 0.257634 -0.412874 -0.244482
v 0.190659 -0.412874 -0.272252
v 0.062878 0.713041 0.033675
v -0.370341 -0.929061 0.048142
v -0.202876 -0.721288 0.507260
v -0.123297 1.371595 -0.020371
v 0.072240 1.123164 -0.064637
v 0.091812 1.147559 0.058620
v 0.033482 0.707290 -0.011269
v -0.003711 0.720988 -0.023351
v 0.372965 -0.929061 0.048142
v 0.001312 -0.929061 0.419794
v -0.415332 -0.694907 -0.156046
v 0.431607 -0.668525 -0.126377
v 0.001312 -0.495953 -0.299423
v 0.247077 -0.469571 -0.197623
v 0.417956 -0.668525 0.252329
v 0.247077 -0.469571 0.293907
v 0.001312 -0.495953 0.395706
v -0.346252 -0.482762 0.048142
v 0.001312 -0.414617 -0.364393
v 0.264110 -0.929061 0.310940
v 0.001312 -0.929061 -0.323511
v -0.609795 -1.921480 1.246879
v 1.328254 -1.849844 0.061557
v -0.570265 -1.887821 -1.022316
v -0.261486 -0.929061 0.310940
v 0.348876 -0.482762 0.048142
v 0.413846 -0.388235 0.048142
v -0.279776 -0.401426 0.329229
v -0.763047 -1.901845 1.224430
v -0.473140 -1.868186 -1.142969
v 1.373968 -1.830209 0.209545
v 0.133041 1.108220 -0.103566
v -0.184609 1.356651 -0.058490
v -0.223216 -0.495953 -0.197623
v 0.094496 1.132614 0.130766
v -0.223216 -0.495953 0.293907
v -0.214783 1.359774 0.108482
v -0.004676 1.111343 -0.202685
v 0.249796 1.135737 0.062412
v 0.019226 1.143591 -0.089597
v -0.123002 1.392022 0.038224
v 0.140225 1.167985 0.025610
v -0.418524 -1.904585 -1.035019
v 1.253932 -1.866609 0.194459
v -0.697754 -1.938244 1.122582
v 0.247597 1.116901 0.114936
v -0.257098 1.340938 0.077288
v 0.041697 1.092507 -0.227448
v 0.134071 1.117825 0.163022
v -0.528476 -1.903262 -0.989317
v 0.140747 1.093431 -0.154036
v -0.602571 -1.936921 1.194124
v -0.233480 1.341862 -0.043718
v 1.277527 -1.865285 0.077749
v -0.723609 -1.886109 1.260848
v 1.389860 -1.814473 0.158270
v -0.524536 -1.852450 -1.127472
v -0.358083 -0.457691 0.048142
v 0.360706 -0.457691 0.048142
v 0.001312 -0.457691 0.418155
v 0.001312 -0.457691 -0.321872
vt -0.027972 -10.836662
vt 0.820028 -10.836653
vt 0.820039 0.007553
vt -0.027965 0.007552
vt 0.672694 -0.097393
vt 0.100711 -0.659503
vt -0.477909 -0.097392
vt 0.097393 0.461399
vt 0.461478 -0.843795
vt 0.383232 -0.992941
vt 0.521362 -0.993115
vt 0.345642 -0.663741
vt 0.435290 -0.813284
vt 0.435290 -0.661566
vt 0.597387 -0.715653
vt 0.541578 -0.813622
vt 0.458978 -0.700973
vt 0.366245 -0.843303
vt 0.336727 -0.723201
vt 0.807303 -0.000845
vt 0.807980 -0.998653
vt 0.862778 -0.997816
vt 0.749646 -0.000949
vt 0.748526 -0.999028
vt 0.809567 -0.000930
vt 0.810290 -0.998102
vt 0.862350 -0.001178
vt 0.919007 -0.997335
vt 0.918557 -0.001088
vt 0.379550 -0.715716
vt 0.520335 -0.707675
vt 0.282831 -0.835908
vt 0.396273 -0.720058
vt 0.283199 -0.846047
vt 0.452989 -0.857535
vt 0.350662 -0.865736
vt 0.702214 -0.994444
vt 0.408858 -0.990133
vt 0.391605 -0.993971
vt 0.535704 -0.993972
vt 0.410817 -0.722008
vt 0.311801 -0.860197
vt 0.467867 -0.838575
vt 0.307642 -0.835850
vt 0.395546 -0.960912
vt 0.452240 -0.809484
vt 0.626500 -0.863393
vt 0.452274 -0.657983
vt 0.456322 -0.775593
vt 0.583281 -0.658548
vt 0.354336 -0.655413
vt 0.457192 -0.776039
vt 0.461174 -0.653748
vt 0.454020 -0.655498
vt 0.450715 -0.781371
vt 0.564782 -0.657098
vt 0.543074 -0.713792
vt 0.325549 -0.660938
vt 0.289671 -0.714593
vt 0.396599 -0.701296
vt 0.601722 -0.998906
vt 0.353392 -0.998906
vt 0.477557 -0.888853
vt 0.447041 -0.717682
vt 0.517176 -0.852260
vt 0.362785 -0.840634
vt 0.282164 -0.954799
vt 0.878951 -0.951571
vt 0.880368 -0.889617
vt 0.745892 -0.815413
vt 0.597385 -1.021924
vt 0.304987 -0.953891
vt 0.609511 -0.966146
vt 0.459187 -0.978855
vt 0.444019 -0.990154
vt 0.411124 -0.983572
vt 0.547950 -0.983878
vt 0.504635 -0.964370
vt 0.593932 -0.817411
vt 0.607188 -0.985976
vt 0.383682 -0.666464
vt 0.543633 -0.658100
vt 0.404348 -0.662591
vt 0.556225 -0.654931
vt 0.459541 -0.655438
vt 0.317061 -0.670801
vt 0.498618 -0.712013
vt 0.393758 -0.659826
vt 0.623822 -0.655321
vt 0.285212 -0.652191
vt 0.579345 -0.657357
vt 0.546991 -0.709754
vt 0.438891 -0.663335
vt 0.526452 -0.664112
vt 0.523942 -0.662522
vt 0.565664 -0.924386
vt 0.298256 -0.990408
vt 0.602938 -0.992211
vt 0.617343 -1.016465
vt 0.597178 -0.923181
vt 0.309301 -0.985469
vt 0.697263 -0.999090
vt 0.696978 -0.998963
vt 0.749309 -0.999010
vt 0.751267 -0.001062
vt 0.464476 -0.894927
vt 0.279603 -0.964975
vt 0.633560 -0.969807
vt 0.573573 -0.991713
vt 0.514847 -0.656182
vt 0.568012 -0.655413
vt 0.331801 -0.656714
vt 0.376083 -0.655367
vt 0.696133 -0.001008
vt 0.697548 -0.999216
vt 0.696732 -0.000972
vt 0.747742 -0.999045
vt 0.749585 -0.888836
vt 0.810376 -0.946690
vt 0.521092 -0.720332
vt 0.695535 -0.001045
vt 0.826592 -0.817566
vt 0.748025 -0.000836
vt 0.805267 -0.001090
vt 0.806170 -0.999375
vt 0.881983 -0.819043
vt 0.752288 -0.942556
vn 0.375600 0.301500 0.876400
vn -0.375600 -0.301500 -0.876400
vn -0.872800 0.285000 -0.396300
vn 0.872800 -0.285000 0.396300
vn 0.371200 0.245900 -0.895400
vn -0.371200 -0.245900 0.895400
vn 0.426800 0.299000 0.853500
vn -0.426800 -0.299000 -0.853500
vn 0.086000 0.237500 -0.967600
vn -0.086000 -0.237500 0.967600
vn -0.923200 0.292700 -0.249000
vn 0.923200 -0.292700 0.249000
vn 0.000000 1.000000 0.000000
vn -0.794000 -0.511300 0.328900
vn 0.220800 0.871600 0.437800
vn 0.751800 0.597300 -0.279400
vn 0.249900 0.601100 -0.759100
vn 0.864800 -0.365300 -0.344400
vn -0.699500 0.426900 0.573000
vn -0.133700 -0.327500 0.935400
vn -0.157500 0.382300 -0.910500
vn -0.690700 -0.349400 -0.633100
vn 0.830200 0.406000 0.381900
vn -0.685700 -0.347500 -0.639600
vn -0.852600 -0.388900 0.349200
vn 0.043600 -0.415400 -0.908600
vn 0.868600 -0.363200 -0.337200
vn 0.770000 -0.368100 0.521200
vn -0.141900 -0.325600 0.934800
vn -0.679000 0.631900 0.373800
vn -0.917000 0.387900 -0.092800
vn 0.009500 0.421400 -0.906800
vn 0.000000 -1.000000 0.000000
vn -0.317800 -0.556900 -0.767300
vn -0.606100 0.447900 -0.657200
vn 0.694400 -0.259000 0.671400
vn -0.638000 0.498300 0.587100
vn 0.244200 0.866500 -0.435300
vn -0.486200 0.858600 0.162600
vn 0.486200 0.858600 0.162600
vn -0.703000 0.598600 -0.384100
vn 0.064300 -0.323100 -0.944200
vn 0.673900 0.403400 -0.619000
vn -0.220800 0.871600 -0.437800
vn 0.247000 0.608600 0.754100
vn 0.057600 -0.418200 -0.906500
vn -0.856700 -0.391700 0.335600
vn 0.761000 -0.370700 0.532300
vn -0.958300 -0.268700 -0.096900
vn -0.020500 0.458400 0.888500
vn 0.328900 -0.511300 0.794000
vn 0.789900 0.392000 0.471600
vn -0.383400 0.916000 -0.118300
vn -0.762500 0.411300 0.499400
vn 0.271800 0.916000 -0.295100
vn -0.059400 0.369000 -0.927500
vn 0.116300 0.916000 0.384000
vn 0.743600 -0.270900 -0.611300
vn 0.038300 -0.355500 0.933900
vn -0.728900 -0.350200 0.588200
vn -0.690200 -0.287200 -0.664200
vn -0.822600 -0.455200 -0.340700
vn 0.979800 -0.196900 0.035300
vn 0.838000 -0.421100 -0.347100
vn -0.331900 -0.588700 -0.737000
vn -0.718700 -0.641300 -0.268700
vn 0.674700 -0.667400 -0.315300
vn 0.363900 -0.581300 -0.727800
vn 0.625600 0.397000 0.671500
vn 0.924300 0.380300 0.033300
vn 0.343500 -0.673100 0.654900
vn 0.785900 -0.540100 -0.301100
vn 0.331900 -0.588700 0.737000
vn -0.382700 -0.515500 0.766700
vn -0.744600 -0.573300 0.342000
vn -0.769800 -0.529100 -0.357000
vn -0.220800 0.871600 0.437800
vn 0.310800 -0.666400 -0.677700
vn 0.839500 -0.417500 0.347700
vn 0.328900 -0.511300 -0.794000
vn 0.509700 0.242900 0.825300
vn 0.532800 0.220800 -0.816900
vn -0.977600 0.210300 0.012600
vn -0.303900 -0.607600 0.733800
vn 0.756200 0.590700 0.281500
vn 0.772500 -0.530900 0.348500
vn -0.486200 0.858600 -0.162600
vn 0.708000 -0.655100 0.263700
vn 0.484100 0.854900 -0.186300
vn -0.775700 -0.533100 0.337700
vn -0.965100 0.135000 -0.224600
vn 0.682600 0.123200 -0.720400
vn 0.212700 0.135100 0.967700
vn 0.563600 0.215400 0.797500
vn 0.040500 0.957000 -0.287300
vn 0.483300 0.194300 -0.853600
vn -0.276700 0.957000 0.087100
vn -0.333000 0.591200 -0.734500
vn -0.332600 -0.592800 -0.733500
vn -0.979900 0.185200 0.074800
vn 0.227000 0.957000 0.180700
vn -0.318500 0.636400 0.702500
vn -0.333900 -0.588300 0.736500
vn 0.150800 0.107900 0.982700
vn -0.306600 0.936200 0.171800
vn -0.952200 0.105700 -0.286600
vn -0.023000 0.936200 -0.350700
vn 0.729800 0.097700 -0.676700
vn 0.313900 0.936200 0.158100
vn 0.424000 0.889000 -0.173100
vn -0.236300 0.443300 0.864700
vn -0.338700 0.889000 -0.308200
vn 0.896300 0.417300 -0.150000
vn -0.066100 0.889000 0.453200
vn -0.625500 0.394600 -0.673100
vn 0.977500 -0.210600 -0.012800
vn -0.531700 -0.220600 0.817700
vn -0.513300 -0.241600 -0.823500
vn 0.978600 -0.203200 -0.031900
vn -0.081900 0.939200 0.333400
vn -0.516700 -0.212700 0.829300
vn -0.230600 0.939200 -0.254300
vn -0.530100 -0.233400 -0.815200
vn 0.328800 0.939200 -0.098700
vn -0.656300 -0.138900 0.741600
vn 0.202900 0.960300 0.191400
vn -0.645500 -0.144200 0.750000
vn 0.969400 -0.152100 0.192600
vn 0.061900 0.960300 -0.271900
vn 0.971000 -0.158200 0.179300
vn -0.243800 -0.151200 -0.958000
vn -0.272100 0.960300 0.061200
vn -0.256700 -0.156800 -0.953700
vn -0.371200 0.454800 0.809600
vn 0.903400 0.428900 -0.002600
vn -0.505100 0.405100 -0.762100
usemtl OC_FIREPLACE_V5_1
s off
f 25/1/1 24/2/1 37/3/1
f 37/4/2 24/1/2 25/2/2
f 44/4/3 30/1/3 29/2/3
f 44/3/4 29/1/4 30/2/4
f 34/4/5 35/1/5 36/2/5
f 36/1/6 35/2/6 34/3/6
f 37/3/7 23/4/7 25/1/7
f 25/2/8 23/3/8 37/4/8
f 36/2/9 43/3/9 34/4/9
f 34/3/10 43/4/10 36/1/10
f 44/4/11 29/2/11 28/3/11
f 44/3/12 28/4/12 29/1/12
usemtl OC_FIREPLACE_V5_4
f 97/5/13 94/6/13 96/7/13
f 97/5/13 96/7/13 95/8/13
usemtl OC_FIREPLACE_V5_2
f 3/9/14 38/10/14 61/11/14
f 17/12/15 21/13/15 55/14/15
f 62/15/16 48/16/16 50/17/16
f 50/17/17 26/18/17 49/19/17
f 87/20/18 88/21/18 7/22/18
f 65/20/19 91/23/19 76/24/19
f 85/25/20 86/26/20 10/22/20
f 66/20/21 93/23/21 78/24/21
f 89/20/22 90/21/22 13/22/22
f 67/20/23 92/23/23 77/24/23
f 13/22/24 14/27/24 89/20/24
f 80/28/25 83/29/25 14/27/25
f 81/28/26 84/29/26 5/27/26
f 7/22/27 5/27/27 87/20/27
f 79/28/28 82/29/28 8/27/28
f 10/22/29 8/27/29 85/25/29
f 54/30/30 3/9/30 72/31/30
f 54/30/31 47/32/31 3/9/31
f 49/33/32 26/34/32 18/35/32
f 57/36/33 61/37/33 19/38/33
f 18/35/34 57/39/34 19/40/34
f 70/41/35 18/42/35 47/43/35
f 1/44/36 56/45/36 51/46/36
f 72/31/37 3/9/37 39/47/37
f 27/48/38 21/49/38 64/50/38
f 2/51/39 21/52/39 63/53/39
f 22/54/40 21/55/40 17/56/40
f 70/41/41 47/43/41 54/57/41
f 26/34/42 57/39/42 18/35/42
f 50/17/43 48/16/43 26/18/43
f 20/58/44 21/49/44 27/48/44
f 53/59/45 1/44/45 52/60/45
f 5/27/46 7/22/46 81/28/46
f 14/27/47 13/22/47 80/28/47
f 8/27/48 10/22/48 79/28/48
f 19/61/33 61/62/33 38/63/33
f 47/32/49 38/10/49 3/9/49
f 53/64/50 39/65/50 1/66/50
f 1/44/51 46/67/51 56/45/51
f 12/21/52 67/20/52 77/24/52
f 14/68/53 83/69/53 77/70/53
f 15/21/54 65/20/54 76/24/54
f 5/68/55 84/69/55 76/70/55
f 16/21/56 66/20/56 78/24/56
f 8/68/57 82/69/57 78/70/57
f 45/71/33 61/72/33 4/73/33
f 48/16/58 4/74/58 26/18/58
f 39/65/59 46/75/59 1/66/59
f 3/9/60 61/11/60 39/47/60
f 18/42/61 19/76/61 47/43/61
f 47/43/62 19/76/62 38/77/62
f 51/46/63 45/78/63 48/79/63
f 48/16/64 45/80/64 4/74/64
f 55/81/65 49/33/65 17/82/65
f 17/83/66 70/41/66 22/84/66
f 2/85/67 62/15/67 50/17/67
f 55/86/68 50/17/68 49/19/68
f 52/60/69 1/44/69 51/46/69
f 62/87/70 51/46/70 48/79/70
f 20/88/71 53/59/71 52/60/71
f 63/89/72 62/15/72 2/85/72
f 27/90/73 53/59/73 20/88/73
f 64/91/74 72/92/74 27/93/74
f 64/94/75 54/30/75 72/31/75
f 22/84/76 70/41/76 54/57/76
f 55/14/77 21/13/77 2/95/77
f 2/85/78 50/17/78 55/86/78
f 56/96/33 61/97/33 45/98/33
f 51/46/79 56/45/79 45/78/79
f 4/99/33 61/72/33 57/100/33
f 26/18/80 4/74/80 57/101/80
f 6/102/81 58/24/81 68/23/81
f 11/102/82 59/24/82 69/23/82
f 9/103/83 60/104/83 71/105/83
f 46/106/33 61/107/33 56/108/33
f 39/65/84 61/109/84 46/75/84
f 52/60/85 51/46/85 62/87/85
f 63/110/86 52/60/86 62/87/86
f 63/53/87 21/52/87 20/111/87
f 20/88/88 52/60/88 63/110/88
f 64/112/89 21/55/89 22/54/89
f 22/113/90 54/30/90 64/94/90
f 65/102/91 15/114/91 31/24/91
f 66/115/92 16/116/92 33/117/92
f 67/102/93 12/114/93 32/24/93
f 41/114/94 6/102/94 68/23/94
f 41/118/95 87/119/95 5/68/95
f 40/114/96 11/102/96 69/23/96
f 40/118/97 89/119/97 14/68/97
f 49/33/98 18/35/98 70/120/98
f 17/82/99 49/33/99 70/120/99
f 42/121/100 9/103/100 71/105/100
f 42/118/101 85/119/101 8/68/101
f 72/92/102 39/65/102 53/64/102
f 27/93/103 72/92/103 53/64/103
f 12/114/104 73/23/104 32/24/104
f 83/69/105 12/122/105 77/70/105
f 15/114/106 74/23/106 31/24/106
f 84/69/107 15/122/107 76/70/107
f 16/116/108 75/123/108 33/117/108
f 82/69/109 16/122/109 78/70/109
f 76/70/110 41/118/110 5/68/110
f 41/102/111 76/24/111 91/23/111
f 77/70/112 40/118/112 14/68/112
f 40/102/113 77/24/113 92/23/113
f 78/70/114 42/118/114 8/68/114
f 42/102/115 78/24/115 93/23/115
f 82/124/116 79/125/116 33/117/116
f 83/20/117 80/21/117 32/24/117
f 84/20/118 81/21/118 31/24/118
f 33/117/119 75/123/119 82/124/119
f 82/69/120 75/126/120 16/122/120
f 32/24/121 73/23/121 83/20/121
f 83/69/122 73/126/122 12/122/122
f 31/24/123 74/23/123 84/20/123
f 84/69/124 74/126/124 15/122/124
f 86/26/125 85/25/125 71/105/125
f 42/118/126 71/127/126 85/119/126
f 71/105/127 60/104/127 86/26/127
f 88/21/128 87/20/128 68/23/128
f 41/118/129 68/127/129 87/119/129
f 68/23/130 58/24/130 88/21/130
f 90/21/131 89/20/131 69/23/131
f 40/118/132 69/127/132 89/119/132
f 69/23/133 59/24/133 90/21/133
f 6/114/134 41/102/134 91/23/134
f 11/114/135 40/102/135 92/23/135
f 9/114/136 42/102/136 93/23/136
