# Blender v2.75 (sub 0) OBJ File: 'Empty.blend'
# www.blender.org
mtllib OC_LOB_CAGE.mtl
o OC_LOB_CAGE
v -0.500000 0.000000 -0.500000
v -0.500000 2.000000 0.500000
v 0.500000 0.000000 0.500000
v 0.500000 2.000000 0.500000
v -0.500000 0.000000 0.500000
v 0.500000 2.000000 -0.500000
v 0.500000 0.000000 -0.500000
v -0.500000 2.000000 -0.500000
v 0.150000 2.714183 -2.500183
v 0.150000 3.960000 -1.049226
v -0.150000 3.960000 -0.720972
v 0.200000 3.961721 -2.500000
v 0.200000 3.961721 0.300000
v -0.200000 4.150000 -2.500000
v -0.200000 3.961721 0.300000
v -0.150000 2.868412 -2.608175
v 0.000002 3.965000 0.096550
v 0.000002 1.990000 0.096550
v 0.000002 1.990000 -0.103450
v 0.000002 3.965000 -0.103450
v 0.150000 3.960000 -0.720972
v -0.150000 3.960000 -1.049226
v 0.103450 1.990000 -0.000002
v 0.103450 3.965000 -0.000002
v -0.096550 3.965000 -0.000002
v -0.096550 1.990000 -0.000002
v 0.000000 3.965000 0.000000
v 0.000000 1.990000 0.000000
v 0.150000 2.868412 -2.608175
v -0.150000 2.714183 -2.500183
v 0.200000 4.150000 -2.500000
v 0.200000 4.150000 0.300000
v -0.200000 3.961721 -2.500000
v -0.200000 4.150000 0.300000
vt -0.053583 13.671331
vt -0.053583 4.138020
vt -0.552936 4.138020
vt 0.467064 -4.838036
vt 0.966416 -4.838036
vt 0.966416 -14.371347
vt -0.552936 13.671331
vt 0.467064 -14.371347
vt -0.039797 14.101025
vt -0.039797 4.688349
vt -0.532830 4.688349
vt 0.467065 -4.338769
vt 0.966339 -4.338769
vt 0.966339 -13.870592
vt -0.532830 14.101025
vt 0.467065 -13.870592
vt 0.001018 -14.371347
vt 0.001018 -4.838036
vt -1.018982 4.138020
vt -1.018982 13.671331
vt -0.992979 4.688349
vt -0.992979 14.101025
vt 0.001092 -13.870592
vt 0.001092 -4.338769
vt 0.844785 2.145268
vt 0.844785 2.912465
vt 0.933023 2.910300
vt -0.169547 -1.307709
vt -0.070454 -2.149646
vt -0.169546 -2.156153
vt 0.595750 -0.553279
vt 0.503625 0.553279
vt 0.595750 0.553279
vt -0.499635 -0.546790
vt -0.400365 0.546790
vt -0.499635 0.546790
vt -0.400365 -0.546790
vt 0.503625 -0.553279
vt -0.072719 -0.162670
vt -0.146910 0.582670
vt -0.063481 0.580625
vt -0.084960 -0.365790
vt -0.159703 -1.154209
vt -0.170515 -0.367686
vt -0.074148 -1.152313
vt -0.156148 -0.160625
vt -0.070454 -1.406269
vt 0.933023 2.238060
vt 0.596634 -2.131110
vt 0.502741 -1.037531
vt 0.596634 -1.037531
vt -0.251560 -1.471094
vt -0.348440 -1.397547
vt -0.251560 -1.397547
vt 0.502741 -2.131110
vt 0.608508 2.131196
vt 0.510867 1.037446
vt 0.510867 2.131196
vt 0.608508 1.037446
vt -0.348440 -1.471094
vt 0.495457 -0.019766
vt -0.315457 -1.562734
vt -0.315457 -0.019766
vt 0.485457 -0.069756
vt -0.325457 -0.069756
vt -0.325457 1.492256
vt -0.320526 -0.820884
vt 0.500526 0.740884
vt -0.320526 0.740884
vt -0.315394 -0.010122
vt 0.495394 -1.572378
vt -0.315394 -1.572378
vt -0.315457 1.482734
vt 0.495457 1.482734
vt -0.315457 -0.060234
vt 0.495457 -1.562734
vt 0.500526 -0.820884
vt 0.495457 -0.060234
vt 0.495394 -0.010122
vt 0.245394 -0.575331
vt -0.565394 -0.575331
vt -0.565394 0.235331
vt -0.315394 -0.570452
vt -0.315394 0.230452
vt 0.495394 0.230452
vt 0.485457 1.492256
vt 0.235394 -0.310389
vt -0.575394 -0.310389
vt -0.575394 0.490389
vt -0.565331 -0.315331
vt -0.565331 0.495331
vt 0.245331 0.495331
vt -0.320526 1.482734
vt 0.500526 -0.060234
vt -0.320526 -0.060234
vt 0.245394 0.235331
vt 0.495394 -0.570452
vt 0.235394 0.490389
vt 0.245331 -0.315331
vt 0.500526 1.482734
vn -1.000000 0.000000 -0.000000
vn 1.000000 0.000000 0.000000
vn -0.000000 0.000000 -1.000000
vn 0.000000 0.000000 1.000000
vn 0.000000 1.000000 0.000000
vn 0.000000 -1.000000 0.000000
vn 0.000000 0.819200 -0.573600
vn 0.000000 -0.819200 0.573600
usemtl OC_LOB_CAGE_3
s off
f 20/1/1 19/2/1 28/3/1
f 28/4/2 19/5/2 20/6/2
f 28/3/1 27/7/1 20/1/1
f 20/6/2 27/8/2 28/4/2
f 24/9/3 23/10/3 28/11/3
f 28/12/4 23/13/4 24/14/4
f 28/11/3 27/15/3 24/9/3
f 24/14/4 27/16/4 28/12/4
f 27/8/2 17/17/2 18/18/2
f 18/19/1 17/20/1 27/7/1
f 18/18/2 28/4/2 27/8/2
f 27/7/1 28/3/1 18/19/1
f 26/21/3 25/22/3 27/15/3
f 27/16/4 25/23/4 26/24/4
f 27/15/3 28/11/3 26/21/3
f 26/24/4 28/12/4 27/16/4
usemtl OC_LOB_CAGE_1
f 30/25/1 11/26/1 22/27/1
f 9/28/2 10/29/2 21/30/2
f 34/31/5 31/32/5 14/33/5
f 13/34/6 33/35/6 12/36/6
f 33/35/6 13/34/6 15/37/6
f 31/32/5 34/31/5 32/38/5
f 22/39/7 29/40/7 16/41/7
f 9/42/8 11/43/8 30/44/8
f 11/43/8 9/42/8 21/45/8
f 29/40/7 22/39/7 10/46/7
f 9/28/2 29/47/2 10/29/2
f 30/25/1 22/27/1 16/48/1
f 32/49/2 12/50/2 31/51/2
f 32/52/4 15/53/4 13/54/4
f 12/50/2 32/49/2 13/55/2
f 33/56/1 34/57/1 14/58/1
f 34/57/1 33/56/1 15/59/1
f 15/53/4 32/52/4 34/60/4
usemtl OC_LOB_CAGE_4
f 7/61/2 4/62/2 3/63/2
f 7/64/1 3/65/1 4/66/1
f 2/67/1 1/68/1 5/69/1
f 1/61/2 2/62/2 5/63/2
f 5/70/4 4/71/4 2/72/4
f 2/73/3 4/74/3 5/75/3
f 2/62/2 1/61/2 8/76/2
f 1/68/1 2/67/1 8/77/1
f 5/75/3 4/74/3 3/78/3
f 4/71/4 5/70/4 3/79/4
f 7/80/6 3/81/6 5/82/6
f 5/83/5 3/84/5 7/85/5
f 7/64/1 4/66/1 6/86/1
f 6/87/6 4/88/6 2/89/6
f 4/62/2 7/61/2 6/76/2
f 2/90/5 4/91/5 6/92/5
f 7/61/4 8/62/4 1/63/4
f 8/93/3 7/94/3 1/95/3
f 5/82/6 1/96/6 7/80/6
f 7/85/5 1/97/5 5/83/5
f 8/62/4 7/61/4 6/76/4
f 2/89/6 8/98/6 6/87/6
f 6/92/5 8/99/5 2/90/5
f 7/94/3 8/93/3 6/100/3
