# Blender v2.75 (sub 0) OBJ File: 'Empty.blend'
# www.blender.org
mtllib OC_LOB_TABLE_HEAVY.mtl
o OC_LOB_TABLE_HEAVY
v 1.298000 0.900000 0.950000
v -1.302000 0.800000 0.950000
v -1.302000 0.900000 -0.950000
v 1.298000 0.900000 -0.950000
v 0.798000 0.800000 -0.500000
v 0.948000 0.800000 0.500000
v 0.798000 0.100000 -0.300000
v -0.952000 0.800000 -0.500000
v -0.802000 0.800000 0.500000
v -0.952000 0.100000 -0.300000
v 0.948000 0.100000 0.300000
v -0.802000 0.100000 0.300000
v 0.798000 0.100000 0.300000
v -0.952000 0.100000 0.300000
v 0.798000 0.800000 0.500000
v 0.948000 0.800000 -0.500000
v 0.948000 0.100000 -0.300000
v -0.952000 0.800000 0.500000
v -0.802000 0.800000 -0.500000
v -0.802000 0.100000 -0.300000
v -1.052000 0.000000 0.650000
v -1.052000 0.000000 -0.600000
v -0.702000 0.000000 0.650000
v -1.052000 0.100000 0.650000
v 0.698000 0.000000 0.650000
v 0.698000 0.000000 -0.600000
v 1.048000 0.000000 0.650000
v 0.698000 0.100000 0.650000
v 1.298000 0.800000 0.950000
v 1.298000 0.800000 -0.950000
v -0.702000 0.000000 -0.600000
v -1.052000 0.100000 -0.600000
v -0.702000 0.100000 0.650000
v -0.702000 0.100000 -0.600000
v -1.302000 0.900000 0.950000
v -1.302000 0.800000 -0.950000
v 1.048000 0.000000 -0.600000
v 0.698000 0.100000 -0.600000
v 1.048000 0.100000 0.650000
v 1.048000 0.100000 -0.600000
vt -0.700170 -0.128640
vt -0.280299 -0.128640
vt -0.280299 -0.246204
vt 0.350938 0.059062
vt 0.350938 0.020000
vt 0.214219 0.020000
vt -0.504375 -0.120000
vt -0.016094 -0.120000
vt -0.016094 -0.159063
vt -0.017261 -0.232834
vt -0.291072 -0.232834
vt -0.291072 -0.156167
vt 0.116333 -0.016667
vt 0.116333 -0.000000
vt 0.174667 -0.000000
vt 0.100000 -0.150000
vt -0.108333 -0.150000
vt -0.108333 -0.133333
vt -0.700170 -0.246204
vt 0.410937 -0.120000
vt 0.410937 -0.159063
vt 0.274219 -0.159063
vt -0.504375 -0.159063
vt -0.394375 -0.180000
vt 0.093906 -0.140938
vt 0.093906 -0.180000
vt 0.214219 0.059062
vt -0.394375 -0.140938
vt 0.274219 -0.120000
vt -0.017261 -0.156167
vt 0.116333 -0.020000
vt 0.116333 -0.003333
vt 0.174667 -0.003333
vt 0.100000 -0.133333
vt 0.100000 0.010000
vt -0.108333 -0.006667
vt -0.108333 0.010000
vt 0.174667 -0.016667
vt 0.100000 -0.006667
vt 0.174667 -0.020000
vt 0.204094 -0.256368
vt 0.012935 -0.423632
vt 0.251884 -0.423632
vt 0.181180 -0.074427
vt 0.227222 -0.235573
vt -0.002986 -0.235573
vt 0.054142 -0.011127
vt 0.243451 -0.200436
vt 0.006815 -0.200436
vt 0.171183 -0.024158
vt 0.201892 -0.195842
vt 0.048344 -0.195842
vt 0.043056 -0.074427
vt 0.060725 -0.256368
vt 0.079054 -0.024158
vt 0.196124 -0.011127
vt 0.107409 -0.427805
vt 0.107409 -0.252195
vt 0.143591 -0.252195
vt 0.450301 0.303984
vt 0.450301 0.476016
vt 0.414855 0.476016
vt 0.143591 -0.427805
vt 0.107877 -0.254470
vt 0.107877 -0.425530
vt 0.143123 -0.425530
vt 0.143123 -0.254470
vt 0.414855 0.303984
vt 0.172357 -0.505946
vt 0.172357 -0.697939
vt 0.132799 -0.697939
vt 0.132799 -0.505946
vt -1.229137 1.685102
vt 1.229137 1.685102
vt 1.229137 -1.678852
vt 1.244696 -1.706393
vt -1.244696 -1.706393
vt -1.244696 1.700142
vt -1.229137 -1.678852
vt 1.244696 1.700142
vt 1.289163 -0.508290
vt -1.309162 -0.645043
vt -1.309162 -0.508290
vt -0.215000 3.359375
vt -0.058750 -0.703125
vt -0.215000 -0.703125
vt 1.289163 -0.645043
vt -0.175000 0.703125
vt -0.018750 -3.359375
vt -0.175000 -3.359375
vt -1.229137 -1.263434
vt 1.229137 -1.263434
vt 1.229137 -1.392816
vt -0.058750 3.359375
vt -1.229137 -1.392816
vt -0.018750 0.703125
vn 0.000000 1.000000 0.000000
vn 0.000000 0.000000 1.000000
vn -1.000000 0.000000 0.000000
vn 0.000000 0.000000 -1.000000
vn 1.000000 0.000000 0.000000
vn 0.000000 -0.274700 0.961500
vn 0.000000 -0.274700 -0.961500
vn 0.000000 -1.000000 0.000000
usemtl OC_O_STONE_1
s off
f 32/1/1 24/2/1 33/3/1
f 24/4/2 21/5/2 23/6/2
f 22/7/3 21/8/3 24/9/3
f 38/10/1 28/11/1 39/12/1
f 28/13/2 25/14/2 27/15/2
f 26/16/3 25/17/3 28/18/3
f 32/1/1 33/3/1 34/19/1
f 22/20/4 32/21/4 34/22/4
f 22/7/3 24/9/3 32/23/3
f 31/24/5 33/25/5 23/26/5
f 24/4/2 23/6/2 33/27/2
f 31/24/5 34/28/5 33/25/5
f 22/20/4 34/22/4 31/29/4
f 38/10/1 39/12/1 40/30/1
f 26/31/4 38/32/4 40/33/4
f 26/16/3 28/18/3 38/34/3
f 37/35/5 39/36/5 27/37/5
f 28/13/2 27/15/2 39/38/2
f 37/35/5 40/39/5 39/36/5
f 26/31/4 40/33/4 37/40/4
usemtl OC_O_WOOD_1
f 7/41/3 15/42/3 5/43/3
f 17/44/5 16/45/5 6/46/5
f 10/47/3 18/48/3 8/49/3
f 20/50/5 19/51/5 9/52/5
f 17/44/5 6/46/5 11/53/5
f 7/41/3 13/54/3 15/42/3
f 20/50/5 9/52/5 12/55/5
f 10/47/3 14/56/3 18/48/3
f 15/57/6 13/58/6 11/59/6
f 18/60/6 14/61/6 12/62/6
f 15/57/6 11/59/6 6/63/6
f 7/64/7 5/65/7 16/66/7
f 7/64/7 16/66/7 17/67/7
f 18/60/6 12/62/6 9/68/6
f 10/69/7 8/70/7 19/71/7
f 10/69/7 19/71/7 20/72/7
usemtl OC_O_PLANKS_64
f 3/73/1 35/74/1 1/75/1
f 2/76/8 36/77/8 30/78/8
f 3/73/1 1/75/1 4/79/1
f 2/76/8 30/78/8 29/80/8
f 30/81/5 1/82/5 29/83/5
f 35/84/2 29/85/2 1/86/2
f 30/81/5 4/87/5 1/82/5
f 36/88/4 4/89/4 30/90/4
f 36/91/3 2/92/3 35/93/3
f 35/84/2 2/94/2 29/85/2
f 36/91/3 35/93/3 3/95/3
f 36/88/4 3/96/4 4/89/4
