# Blender v2.75 (sub 0) OBJ File: 'Empty.blend'
# www.blender.org
mtllib OC_LOB_GATE_SMALL2.mtl
o OC_LOB_GATE_SMALL2
v 1.700000 -0.000233 -0.001642
v -1.700000 2.022913 0.003637
v 1.700000 2.022913 0.003637
v -1.700000 -0.000233 -0.001642
vt -0.323484 -1.567411
vt 0.502634 -0.265714
vt 0.502634 -1.567411
vt -0.323484 1.737411
vt 0.502634 1.737411
vt 0.502634 0.435714
vt -0.323484 -0.265714
vt -0.323484 0.435714
vn 0.000000 -0.002600 1.000000
vn 0.000000 0.002600 -1.000000
usemtl OC_F_GATE
s off
f 3/1/1 4/2/1 1/3/1
f 3/4/2 1/5/2 4/6/2
f 3/1/1 2/7/1 4/2/1
f 3/4/2 4/6/2 2/8/2
