# Blender v2.75 (sub 0) OBJ File: 'Empty.blend'
# www.blender.org
mtllib OC_LOB_GALGEN.mtl
o OC_LOB_GALGEN
v -0.253990 0.003820 -0.457210
v -0.253990 8.064509 2.802747
v -0.253990 8.064509 -0.457210
v 0.254010 7.607177 -0.000010
v 0.254010 0.003820 -0.000010
v 0.127010 1.144604 -0.038197
v 0.127010 -0.027197 1.219870
v -0.126990 -0.028994 0.718849
v 0.127010 7.645496 1.284283
v 0.127010 5.498430 -0.014517
v -0.126990 7.892517 0.901486
v 0.254010 8.064509 2.802747
v -0.126990 0.888807 -0.285217
v -0.126990 5.745450 -0.270314
v 0.111770 4.991110 2.506970
v -0.228590 5.143509 2.298690
v 0.035570 5.245110 2.125970
v 0.103845 7.608483 2.266178
v -0.100371 7.608483 2.061962
v 0.228610 5.143509 2.298690
v -0.253990 7.607177 -0.000010
v 0.254010 8.064509 -0.457210
v -0.116830 4.991110 2.506970
v -0.253990 0.003820 -0.000010
v 0.254010 0.003820 -0.457210
v -0.253990 7.607309 2.802747
v 0.254010 7.607309 2.802747
v 0.127010 -0.028994 0.718849
v 0.127010 0.888807 -0.285217
v -0.126990 1.144604 -0.038197
v -0.126990 -0.027197 1.219870
v 0.127010 5.745450 -0.270314
v 0.127010 7.892517 0.901486
v -0.126990 7.645496 1.284283
v -0.126990 5.498430 -0.014517
v 0.103845 7.608483 2.061962
v -0.100371 7.608483 2.266178
v -0.040630 5.295909 2.202170
v -0.040630 5.245110 2.125970
v 0.035570 5.295909 2.202170
v -0.116830 5.041910 2.532370
v 0.111770 5.041910 2.532370
v -0.203190 5.219709 2.298690
v 0.203210 5.219709 2.298690
v 0.035570 7.474682 2.125970
v -0.040630 7.474682 2.202170
v 0.035570 7.474682 2.202170
v -0.040630 7.474682 2.125970
v -0.253990 8.064509 2.260590
v -0.253990 7.607281 2.260590
v 0.254010 8.064509 2.260590
v 0.254010 7.607281 2.260590
v -0.253990 8.064509 2.057390
v -0.253990 7.607271 2.057390
v 0.254010 7.607271 2.057390
v 0.254010 8.064509 2.057390
vt -0.249998 -1.291980
vt -0.172349 -0.000649
vt -0.172349 -1.369652
vt -0.249998 1.291980
vt -0.172349 1.369652
vt -0.172349 0.000649
vt -0.166860 0.645665
vt -0.253137 -0.645666
vt -0.166860 -0.645666
vt -0.253137 1.369652
vt -0.166860 0.000649
vt -0.253137 0.000649
vt -0.127798 0.214060
vt -0.081827 -0.018635
vt -0.143249 -0.077525
vt -0.137798 -0.084059
vt -0.153249 0.207525
vt -0.091827 0.148635
vt -0.152893 1.344002
vt -0.075691 1.349177
vt -0.078415 0.933761
vt -0.142893 -1.594002
vt -0.068415 -1.183761
vt -0.065691 -1.599176
vt -0.252318 0.276832
vt -0.166041 -0.276829
vt -0.252318 -0.276829
vt -0.067440 0.211952
vt -0.077440 -0.081952
vt -0.136752 0.918130
vt -0.126752 -1.168130
vt -0.253137 0.645665
vt -0.166041 0.276832
vt -0.166860 1.369652
vt -0.249998 0.000649
vt -0.249998 -0.000649
vt -1.351649 -2.273415
vt -1.268341 -2.348391
vt -1.351649 -2.348391
vt -1.268341 -2.273415
vt -0.035442 -0.193802
vt -0.000393 -0.426202
vt -0.043505 -0.424696
vt 0.007670 -0.195307
vt -0.092294 -0.076659
vt -0.125216 0.216662
vt -0.082103 0.215157
vt -0.135406 -0.075153
vt -0.152330 1.226627
vt -0.067663 0.818957
vt -0.152330 0.818957
vt -0.067663 1.226627
vt -0.151568 -1.167743
vt -0.108429 -1.593921
vt -0.151568 -1.593921
vt -0.108429 -1.167743
vt -0.071171 1.242760
vt -0.148820 1.150681
vt -0.071171 1.150682
vt -0.169265 -0.081593
vt -0.255542 -0.173672
vt -0.255542 -0.081593
vt -0.148825 1.242760
vt -0.177040 -1.418885
vt -0.177040 -1.510963
vt -0.254690 -1.510963
vt -0.254694 -1.418885
vt -0.169265 -0.173672
vt -0.148843 1.626693
vt -0.071170 1.277271
vt -0.071170 1.704343
vt -0.169265 0.302340
vt -0.255542 -0.047082
vt -0.255542 0.302340
vt -0.148826 1.277271
vt -0.254712 -1.034951
vt -0.177040 -1.384374
vt -0.254696 -1.384374
vt -0.169265 -0.047082
vt -0.177040 -0.957302
vt -6.369529 -25.568693
vt -7.144158 -23.825665
vt -6.369529 -23.825624
vt -7.039321 23.424021
vt -6.094357 25.550331
vt -6.094357 23.423973
vt -7.135372 0.878257
vt -6.360743 -1.058319
vt -7.135372 -1.058319
vt 3.316831 -0.363172
vt 4.618659 -0.124951
vt 4.234438 -0.632980
vt 3.118986 0.714344
vt 3.118986 -0.714406
vt 2.312929 -0.349281
vt 0.269533 -2.260069
vt 0.740467 2.947547
vt 0.269533 2.947547
vt 1.243451 2.947547
vt 1.786550 -2.260069
vt 1.786550 2.947547
vt 3.743804 -0.111156
vt 4.618641 0.113174
vt 3.316778 0.351203
vt 4.234344 0.637020
vt -6.360743 0.878257
vt 2.312929 0.365094
vt -7.039321 25.550331
vt -7.144158 -25.568693
vt -0.233450 -2.260069
vt -0.233450 2.947547
vt 0.740467 -2.141416
vt 0.391148 0.669878
vt 0.065322 0.666413
vt 0.057896 0.279648
vt 1.608851 0.669878
vt 1.949210 0.278828
vt 1.942656 0.667212
vt 1.243451 -2.141416
vt 0.467600 0.418777
vt -0.050790 0.278828
vt 0.845176 0.698737
vt 0.852679 0.491032
vt 1.149051 0.700556
vt 1.532400 0.418777
vt 1.141744 0.490955
vt 0.252500 3.260067
vt -0.252500 3.260067
vt 1.262500 3.260067
vt 1.767500 3.260067
vt 0.757500 3.260067
vn 1.000000 0.000000 0.000000
vn -1.000000 0.000000 0.000000
vn 0.000000 0.000000 1.000000
vn 0.000000 0.000000 -1.000000
vn 0.000000 1.000000 0.000000
vn 0.000000 -0.738100 -0.674700
vn 0.000000 0.731700 0.681600
vn 0.000000 0.479100 -0.877800
vn 0.000000 -0.517600 0.855600
vn 0.000000 -1.000000 0.000100
vn 0.000000 -1.000000 0.000000
vn -0.011100 0.793800 0.608100
vn 0.000000 -0.807000 -0.590500
vn 0.000000 -0.861900 -0.507000
vn 0.010700 0.793800 0.608100
vn 0.000000 0.792600 0.609700
vn -0.584000 0.675400 -0.450300
vn 0.572100 0.682400 -0.454900
vn -0.915600 -0.179800 0.359700
vn 0.000000 -0.447200 0.894400
vn 0.908800 -0.186600 0.373200
vn -0.724100 0.241400 -0.646000
vn -0.816600 0.272200 0.508900
vn 0.714200 0.238100 -0.658200
vn 0.809200 0.269700 0.521900
vn 0.000000 -0.431500 -0.902100
vn 0.890700 -0.454500 0.000000
vn 0.000000 -0.431500 0.902100
vn -0.913100 -0.407700 0.000000
usemtl OC_LOB_GALGEN_1
s off
f 4/1/1 25/2/1 22/3/1
f 21/4/2 3/5/2 1/6/2
f 4/7/3 24/8/3 5/9/3
f 3/10/4 25/11/4 1/12/4
f 30/13/2 8/14/2 31/15/2
f 6/16/1 7/17/1 28/18/1
f 34/19/2 11/20/2 14/21/2
f 9/22/1 32/23/1 33/24/1
f 22/25/5 2/26/5 12/27/5
f 30/13/2 13/28/2 8/14/2
f 6/16/1 28/18/1 29/29/1
f 34/19/2 14/21/2 35/30/2
f 9/22/1 10/31/1 32/23/1
f 24/8/3 4/7/3 21/32/3
f 2/26/5 22/25/5 3/33/5
f 25/11/4 3/10/4 22/34/4
f 21/4/2 1/6/2 24/35/2
f 4/1/1 5/36/1 25/2/1
f 26/37/3 12/38/3 2/39/3
f 12/38/3 26/37/3 27/40/3
f 13/41/6 28/42/6 8/43/6
f 28/42/6 13/41/6 29/44/6
f 31/45/7 6/46/7 30/47/7
f 6/46/7 31/45/7 7/48/7
f 11/49/8 32/50/8 14/51/8
f 32/50/8 11/49/8 33/52/8
f 35/53/9 9/54/9 34/55/9
f 9/54/9 35/53/9 10/56/9
f 49/57/2 26/58/2 2/59/2
f 52/60/10 26/61/10 50/62/10
f 26/58/2 49/57/2 50/63/2
f 51/64/1 12/65/1 27/66/1
f 51/64/1 27/66/1 52/67/1
f 26/61/10 52/60/10 27/68/10
f 21/69/2 53/70/2 3/71/2
f 4/72/11 54/73/11 21/74/11
f 53/70/2 21/69/2 54/75/2
f 4/76/1 56/77/1 55/78/1
f 54/73/11 4/72/11 55/79/11
f 56/77/1 4/76/1 22/80/1
usemtl OC_LOB_GALGEN_3
f 56/81/1 52/82/1 55/83/1
f 50/84/2 53/85/2 54/86/2
f 50/87/10 55/88/10 52/89/10
f 41/90/12 38/91/12 43/92/12
f 16/93/13 20/94/13 15/95/13
f 39/96/2 46/97/2 48/98/2
f 47/99/1 17/100/1 45/101/1
f 16/93/14 17/102/14 20/94/14
f 40/103/15 42/104/15 44/105/15
f 55/88/10 50/87/10 54/106/10
f 16/93/13 15/95/13 23/107/13
f 40/103/16 41/90/16 42/104/16
f 53/85/2 50/84/2 49/108/2
f 56/81/1 51/109/1 52/82/1
f 17/110/4 48/98/4 45/111/4
f 38/112/3 47/99/3 46/97/3
f 43/113/17 38/114/17 39/115/17
f 46/97/2 39/96/2 38/112/2
f 44/116/18 17/117/18 40/118/18
f 17/100/1 47/99/1 40/119/1
f 16/120/14 39/115/14 17/121/14
f 48/98/4 17/110/4 39/96/4
f 38/91/16 41/90/16 40/103/16
f 47/99/3 38/112/3 40/119/3
f 41/122/19 16/120/19 23/123/19
f 23/123/20 42/124/20 41/122/20
f 20/125/21 42/124/21 15/126/21
f 42/124/20 23/123/20 15/126/20
f 43/113/22 39/115/22 16/120/22
f 41/122/23 43/113/23 16/120/23
f 17/117/24 44/116/24 20/125/24
f 42/124/25 20/125/25 44/116/25
f 19/127/26 36/128/26 45/111/26
f 18/129/27 45/101/27 36/130/27
f 37/131/28 46/97/28 47/99/28
f 37/131/29 48/98/29 46/97/29
f 37/131/28 47/99/28 18/129/28
f 18/129/27 47/99/27 45/101/27
f 19/127/26 45/111/26 48/98/26
f 37/131/29 19/127/29 48/98/29
