# Blender v2.75 (sub 0) OBJ File: 'Empty.blend'
# www.blender.org
mtllib OC_LOB_CHAIN_ALONE.mtl
o OC_LOB_CHAIN_ALONE
v -0.200000 0.000000 -0.030000
v -0.092158 0.081857 -0.030000
v 0.200000 0.000000 0.030000
v 0.000000 0.160000 0.030000
v -0.200000 0.000000 0.030000
v 0.200000 0.000000 -0.030000
v 0.092158 0.081857 0.030000
v -0.113288 0.127173 -0.030000
v -0.113288 0.127173 0.030000
v 0.113288 0.127173 -0.030000
v -0.092158 0.081857 0.030000
v 0.092158 0.081857 -0.030000
v 0.113288 0.127173 0.030000
v -0.150000 0.000000 -0.030000
v -0.150000 0.000000 0.030000
v 0.150000 0.000000 0.030000
v 0.150000 0.000000 -0.030000
v 0.000000 0.160000 -0.030000
v 0.000000 0.110000 0.030000
v 0.000000 0.110000 -0.030000
vt 0.379840 0.001304
vt 0.252335 -0.003478
vt 0.255140 -0.487609
vt 0.246588 -0.487019
vt 0.252412 -0.000382
vt 0.378380 -0.000166
vt 0.380589 -0.489436
vt 0.495648 -0.331786
vt 0.496537 -0.000157
vt 0.382560 -0.000886
vt 0.496883 -0.157655
vt 0.495909 -0.002788
vt 0.383817 -0.003741
vt 0.381104 -0.333865
vt 0.385972 -0.160097
vt 0.384636 -0.497004
vt 1.000000 -0.000000
vn 0.000000 0.000000 1.000000
vn -0.000000 0.000000 -1.000000
vn -0.826200 0.563300 0.000000
vn 0.816700 -0.577100 0.000000
vn 0.826200 0.563300 0.000000
vn -0.816700 -0.577100 0.000000
vn 0.292100 -0.956400 0.000000
vn -0.278300 0.960500 0.000000
vn 0.278300 0.960500 0.000000
vn 0.000000 -1.000000 0.000000
vn -0.292100 -0.956400 0.000000
usemtl OC_LOB_CHAIN_ALONE_1
s off
f 13/1/1 7/2/1 16/3/1
f 9/1/1 11/2/1 19/3/1
f 20/4/2 2/5/2 8/6/2
f 2/4/2 14/5/2 8/7/2
f 8/8/3 1/9/3 5/10/3
f 14/11/4 2/12/4 11/13/4
f 13/14/5 3/10/5 6/9/5
f 16/15/6 7/13/6 12/12/6
f 2/12/7 20/11/7 19/15/7
f 19/15/7 11/13/7 2/12/7
f 5/10/3 9/14/3 8/8/3
f 8/6/2 18/7/2 20/4/2
f 4/16/1 9/1/1 19/3/1
f 18/9/8 8/8/8 9/14/8
f 6/9/5 10/8/5 13/14/5
f 9/14/8 4/10/8 18/9/8
f 15/2/1 11/3/1 9/16/1
f 11/13/4 15/15/4 14/11/4
f 12/12/6 17/11/6 16/15/6
f 17/4/2 12/5/2 10/6/2
f 4/10/9 13/14/9 10/8/9
f 13/16/1 4/1/1 19/2/1
f 5/17/10 1/17/10 14/17/10
f 14/5/2 1/6/2 8/7/2
f 14/17/10 15/17/10 5/17/10
f 9/16/1 5/1/1 15/2/1
f 3/17/10 16/17/10 17/17/10
f 3/16/1 13/1/1 16/3/1
f 17/17/10 6/17/10 3/17/10
f 10/6/2 6/7/2 17/4/2
f 20/5/2 18/6/2 10/7/2
f 10/8/9 18/9/9 4/10/9
f 7/13/11 19/15/11 20/11/11
f 19/2/1 7/3/1 13/16/1
f 20/11/11 12/12/11 7/13/11
f 12/4/2 20/5/2 10/7/2
