# Blender v2.75 (sub 0) OBJ File: 'Empty.blend'
# www.blender.org
mtllib OC_LOB_FLAG_SMALL.mtl
o OC_LOB_FLAG_SMALL
v -0.495000 3.800000 -0.014272
v 0.505000 3.800000 -0.014272
v -0.495000 0.000000 -0.014272
v -0.495000 3.800000 0.135728
v 0.505000 0.000000 -0.014272
v 0.505000 3.800000 0.135728
v 0.505000 0.000000 0.135728
v -0.495000 0.000000 0.135728
vt -0.017180 -0.997076
vt 0.987846 0.000852
vt -0.017180 0.000852
vt -0.058458 -0.262294
vt -0.058458 -0.012373
vt 0.016518 -0.012373
vt -1.028458 1.991518
vt -0.953481 1.991518
vt -0.953481 1.041816
vt 0.987846 -0.997076
vt 0.987332 -0.978745
vt 0.987332 -0.004848
vt 0.950727 -0.004848
vt 0.016518 -0.262294
vt 0.004712 -0.006371
vt -0.086652 -0.006371
vt -0.086652 0.021038
vt 0.950727 -0.978745
vt 0.004712 0.021038
vt -1.028458 1.041816
vn 0.000000 0.000000 1.000000
vn 0.000000 1.000000 0.000000
vn -1.000000 0.000000 0.000000
vn 1.000000 0.000000 0.000000
vn 0.000000 -1.000000 0.000000
usemtl OC_O_FLAG
s off
f 8/1/1 6/2/1 4/3/1
f 2/4/2 1/5/2 4/6/2
f 4/7/3 1/8/3 3/9/3
f 8/1/1 7/10/1 6/2/1
f 5/11/4 2/12/4 6/13/4
f 2/4/2 4/6/2 6/14/2
f 3/15/5 5/16/5 7/17/5
f 5/11/4 6/13/4 7/18/4
f 3/15/5 7/17/5 8/19/5
f 4/7/3 3/9/3 8/20/3
