# Blender v2.75 (sub 0) OBJ File: 'Empty.blend'
# www.blender.org
mtllib OC_SACK_V03.mtl
o OC_SACK_V03
v -0.258211 0.871728 -0.159999
v 0.288870 0.034827 0.026650
v 0.258211 0.871728 -0.011180
v -0.148531 0.059665 0.177882
v -0.108230 0.059665 -0.205553
v -0.129105 0.653796 0.164424
v -0.258211 0.021299 -0.000000
v 0.180622 0.059665 -0.178562
v 0.140321 0.059665 0.204873
v 0.258211 0.653796 -0.000000
v 0.129105 0.653796 0.164424
v 0.129105 0.796234 0.011181
v 0.129105 0.653796 -0.164424
v -0.233654 0.653796 -0.000000
v 0.157650 0.435864 -0.223617
v 0.236180 0.310391 -0.000000
v -0.129105 0.653796 -0.164424
v 0.157650 0.435864 0.223617
v -0.129105 0.435864 0.223617
v -0.129105 0.435864 -0.223617
v -0.237383 0.059665 -0.025292
v 0.290266 0.021299 -0.000000
v -0.258211 0.435864 0.000000
vt 0.212672 -0.931124
vt 0.804969 -0.500000
vt 0.250250 -0.500000
vt 0.849407 -0.931124
vt 0.771447 -0.931124
vt 0.290633 -0.931124
vt 0.040791 -0.931124
vt 0.000500 -0.500000
vt 1.061511 -0.975092
vt 0.000500 -0.975092
vt 0.250250 -0.250250
vt 0.749750 -0.087016
vt 0.000500 -0.000499
vt 1.058809 -0.959588
vt 0.956882 -0.643792
vt 0.999500 -0.250250
vt 0.749750 -0.250250
vt 0.999500 -0.000499
vt 0.048005 -0.250250
vn 0.000000 -0.120700 0.992700
vn -0.000000 -0.118900 -0.992900
vn -0.092900 -0.045300 0.994600
vn -0.812900 -0.005800 -0.582400
vn -0.000000 -0.983000 -0.183500
vn 0.093000 -0.042600 -0.994800
vn -0.099900 0.807100 0.581900
vn -0.863200 -0.081300 0.498300
vn -0.020800 -0.974600 0.223100
vn -0.916200 -0.001400 0.400700
vn 0.020800 -0.974800 -0.222200
vn 0.884400 -0.001900 -0.466700
vn 0.000000 -0.982900 0.184100
vn 0.930600 -0.060900 0.360900
vn 0.930900 -0.059700 0.360400
vn 0.394900 0.713500 -0.578800
vn 0.000000 0.732500 0.680800
vn 0.786100 0.031700 0.617300
vn -0.141600 -0.050700 -0.988600
vn -0.296400 0.699500 0.650200
vn 0.785500 -0.050400 -0.616800
vn 0.625800 0.605800 -0.491400
vn -0.808500 0.286300 0.514100
vn -0.863800 -0.071900 -0.498700
vn 0.954900 0.187600 -0.230100
vn -0.000000 0.262100 -0.965000
vn 0.956000 0.159000 -0.246500
vn 0.765700 0.205400 0.609600
vn 0.000000 0.020300 -0.999800
vn -0.758100 -0.439300 -0.482000
vn 0.000000 0.262100 0.965000
vn 0.759200 0.261300 0.596100
vn -0.858100 0.134600 0.495500
vn -0.835000 0.144200 -0.531000
vn -0.811600 0.057300 -0.581500
vn -0.728900 0.605800 0.318800
vn 0.702900 0.648400 -0.292300
vn 0.384200 -0.815000 0.433800
vn -0.861900 0.097100 -0.497600
vn -0.840100 0.094700 0.534200
usemtl OC_SACK_V03_1
s off
f 4/1/1 18/2/1 19/3/1
f 8/4/2 20/3/2 15/2/2
f 4/1/3 9/5/3 18/2/3
f 5/6/4 21/7/4 23/8/4
f 22/9/5 7/10/5 5/6/5
f 8/4/6 5/6/6 20/3/6
f 6/11/7 12/12/7 1/13/7
f 21/7/8 19/3/8 23/8/8
f 7/10/9 9/5/9 4/1/9
f 21/7/10 4/1/10 19/3/10
f 22/9/11 5/6/11 8/4/11
f 2/14/12 8/4/12 15/2/12
f 7/10/13 22/9/13 9/5/13
f 9/5/14 16/15/14 18/2/14
f 18/2/15 16/15/15 10/16/15
f 13/17/16 1/13/16 12/12/16
f 6/11/17 11/17/17 12/12/17
f 11/17/18 10/16/18 3/18/18
f 10/16/19 12/12/19 3/18/19
f 11/17/20 3/18/20 12/12/20
f 16/15/21 13/17/21 10/16/21
f 10/16/22 13/17/22 12/12/22
f 14/19/23 6/11/23 1/13/23
f 5/6/24 23/8/24 20/3/24
f 16/15/25 15/2/25 13/17/25
f 15/2/26 17/11/26 13/17/26
f 2/14/27 15/2/27 16/15/27
f 9/5/28 2/14/28 16/15/28
f 13/17/29 17/11/29 1/13/29
f 17/11/30 14/19/30 1/13/30
f 19/3/31 18/2/31 11/17/31
f 18/2/32 10/16/32 11/17/32
f 23/8/33 19/3/33 6/11/33
f 19/3/31 11/17/31 6/11/31
f 15/2/26 20/3/26 17/11/26
f 20/3/34 14/19/34 17/11/34
f 7/10/35 21/7/35 5/6/35
f 7/10/36 4/1/36 21/7/36
f 22/9/37 8/4/37 2/14/37
f 22/9/38 2/14/38 9/5/38
f 20/3/39 23/8/39 14/19/39
f 23/8/40 6/11/40 14/19/40
