# Blender v2.75 (sub 0) OBJ File: 'Empty.blend'
# www.blender.org
mtllib OC_SAECKE_01.mtl
o OC_SAECKE_01
v -0.801610 -0.026411 1.118032
v -0.878001 -0.197574 0.118329
v -0.383390 -0.075466 0.784079
v -0.642945 0.044415 0.630516
v -0.724513 0.153761 -0.377417
v -1.108294 0.062036 0.362227
v -1.721381 -0.079915 0.343662
v -0.933534 -0.207730 -0.286813
v -1.228352 -0.228371 0.497681
v -0.141891 0.441043 0.258768
v 0.008963 -0.428386 -0.247072
v -0.036578 0.408449 -0.267241
v -0.686661 0.021813 0.578016
v -0.177830 -0.183702 -0.278368
v -0.162208 -0.093310 0.554914
v -1.407033 0.193707 0.183137
v -0.659757 -0.333098 -0.262501
v -1.209084 0.298707 -0.305360
v -1.352846 -0.360326 -0.412110
v -1.323115 0.022175 -0.373957
v -1.157639 -0.424079 0.410400
v -1.209044 -0.042160 0.398473
v -0.601767 -0.360687 -0.217048
v -0.587653 0.023720 -0.243087
v -0.411696 0.405040 -0.145443
v -0.349845 0.024497 -0.142601
v -0.628808 -0.230529 0.188419
v -0.918111 -0.467435 0.094474
v 0.195752 -0.374054 0.173600
v -0.189676 -0.379363 0.165678
v -0.772823 -0.342797 0.856336
v -0.721645 0.342806 0.358152
v 0.173344 0.217441 0.117198
v -0.548742 -0.307221 0.372765
v -1.522784 -0.388345 0.157000
v -1.001817 0.227323 0.119246
v -1.448651 -0.180200 -0.471440
v -0.760071 -0.373658 0.274605
v -0.257324 0.262756 -0.112756
v -0.725315 -0.193082 -0.259335
v 0.028105 -0.406440 0.300050
v -1.301677 -0.274995 0.456995
v -0.596153 -0.020026 -0.289279
v -0.850783 -0.443604 -0.186708
v -0.186821 -0.397988 -0.123820
v -0.298126 0.015341 -0.259459
v -1.048592 -0.004750 -0.284089
v -0.987085 -0.014674 0.213694
v -1.078323 -0.387251 -0.322241
v -0.658004 0.360516 -0.292120
v -0.935681 -0.396592 0.225621
v -0.561480 -0.206698 -0.092762
v 0.198608 -0.392678 -0.115898
v -0.312241 -0.369066 -0.233420
v -1.159122 -0.224321 0.290774
v -1.277916 -0.388345 0.238932
v -1.326394 -0.245411 0.383817
v -1.285195 -0.060298 0.260685
v -1.066298 0.134811 -0.286134
v -0.960243 0.233657 -0.135518
v -1.166146 0.250234 -0.168706
v -1.213926 0.029630 -0.181987
v -0.022731 0.191063 -0.254161
v 0.151855 0.200623 -0.139567
v -0.002615 0.341683 -0.135878
v -0.175827 0.198321 -0.111991
v -0.517882 -0.110049 0.615748
v -0.579543 -0.294667 0.692022
v -0.522687 -0.129563 0.807263
v -0.649501 0.026439 0.703788
v -0.174137 -0.118683 0.338504
v -0.291566 -0.290685 0.356650
v -0.293674 -0.128777 0.489140
v -0.313885 0.036784 0.336475
v -1.002064 0.089158 0.173550
v -0.935829 0.279680 0.228486
v -0.968996 0.120867 0.360588
v -0.854114 -0.038238 0.248280
v -0.594066 0.209406 0.420550
v -0.664031 -0.150182 0.369203
v 0.018204 0.223100 0.234949
v -1.145491 0.122745 0.199163
v -0.886061 -0.201732 0.928749
v -1.625569 -0.224321 0.134703
v -1.120831 -0.177227 -0.200870
v -0.754074 -0.086129 0.049505
v -0.777597 0.065892 0.519810
v -1.190453 0.013953 0.067492
v -0.302161 0.083317 0.113966
v -0.234478 -0.021416 -0.121396
v -1.071316 -0.200367 -0.041082
v -0.750046 -0.151448 0.365152
v -0.812020 0.120250 -0.111632
v -0.016631 -0.150169 -0.210166
v -0.858440 -0.134918 -0.236592
v -0.216074 -0.142532 -0.002208
v -0.842782 -0.021691 0.868102
v -0.639930 0.024887 0.377946
v -0.571062 0.020248 0.352590
v -0.154338 0.215139 0.144774
v -1.530062 -0.060298 0.178754
v -1.255499 0.023296 0.072776
v -0.865208 0.346241 0.022585
v 0.211170 -0.018285 -0.158898
v -0.682454 -0.370812 0.503809
v -0.775823 0.100251 -0.137671
v -0.271806 -0.362042 0.141404
v -1.180554 -0.432192 0.037907
v -0.897101 -0.424262 0.686288
v -1.452491 -0.432192 -0.053082
v 0.235035 0.000392 0.126252
v -0.821992 0.093216 0.145256
v -0.557413 -0.380406 0.159301
v -0.627346 0.416345 0.166585
v -0.992244 0.012441 0.702289
v -0.587768 0.064953 0.131863
v -0.516212 -0.016024 0.193505
v -1.462390 0.013953 -0.023497
v -0.210613 -0.002739 0.163754
v -1.167000 -0.184261 0.082057
v -0.799847 -0.358764 0.247375
v -0.287507 0.230341 -0.088595
v 0.000694 -0.369689 0.278991
v -1.267371 -0.242250 0.474210
v -0.704053 -0.164056 -0.223967
v -1.441604 -0.157647 -0.426862
v -0.928517 -0.180200 -0.297406
v -0.891122 -0.172760 0.107969
v -0.712282 0.128668 -0.388185
v -0.179035 -0.157957 -0.293567
v -0.017541 -0.442163 -0.245356
v -0.671763 -0.360204 -0.266549
v 0.022955 0.007235 0.273385
v -1.041313 -0.229975 0.776445
v -0.464687 0.231723 0.244878
v -1.015283 -0.048690 0.241038
v -0.701178 -0.165994 0.153640
v -1.579874 -0.209119 -0.079255
vt 0.212672 -0.931124
vt 0.804969 -0.500000
vt 0.250250 -0.500000
vt 0.849407 -0.931124
vt 0.771447 -0.931124
vt 0.290633 -0.931124
vt 0.040791 -0.931124
vt 0.000500 -0.500000
vt 1.061511 -0.975092
vt 0.000500 -0.975092
vt 0.250250 -0.250250
vt 0.749750 -0.087016
vt 0.000500 -0.000499
vt 1.058809 -0.959588
vt 0.956882 -0.643792
vt 0.999500 -0.250250
vt 0.749750 -0.250250
vt 0.999500 -0.000499
vt 0.048005 -0.250250
vn 0.135400 -0.982400 -0.128500
vn -0.285900 0.956600 -0.056100
vn -0.186300 0.968700 -0.163900
vn 0.306200 -0.951000 -0.042800
vn 0.060200 -0.981900 -0.179800
vn 0.015700 0.998800 -0.046800
vn 0.990700 -0.113500 -0.075500
vn -0.987900 -0.125600 0.090900
vn 0.060400 -0.996400 -0.059300
vn -0.074300 0.981000 -0.179400
vn 0.840100 0.521300 0.150000
vn -0.692700 -0.709200 -0.130700
vn -0.051800 -0.989100 -0.138100
vn -0.781900 0.581400 -0.224900
vn 0.307100 0.251600 -0.917800
vn 0.079600 0.995300 0.055000
vn 0.113600 -0.993500 -0.011300
vn -0.736000 0.416500 0.533600
vn -0.656400 0.072400 -0.750900
vn -0.168800 0.984000 -0.056400
vn -0.027700 -0.999400 0.021700
vn -0.849500 0.527500 0.009200
vn -0.069700 0.118500 -0.990500
vn 0.022600 0.993800 -0.109300
vn -0.147400 0.987700 -0.052300
vn 0.821900 -0.363900 0.438200
vn 0.537300 -0.103800 -0.837000
vn 0.191400 -0.981200 -0.023600
vn 0.780200 0.579300 0.235900
vn -0.576600 -0.385900 0.720200
vn 0.463600 -0.884400 0.053700
vn -0.726200 -0.648300 -0.228800
vn 0.999400 -0.032200 0.011900
vn -0.512600 0.043000 0.857500
vn -0.170600 -0.982200 0.078600
vn -0.998400 -0.055500 -0.006300
vn 0.555900 -0.499200 0.664700
vn -0.591100 -0.656300 0.468800
vn -0.465500 0.526600 0.711400
vn 0.632800 0.698900 0.333300
vn 0.578100 0.815900 -0.001400
vn 0.569400 -0.021400 0.821800
vn -0.013000 -0.533100 0.845900
vn -0.830600 -0.556800 0.003500
vn -0.337300 -0.636800 0.693300
vn -0.781800 -0.491500 -0.383800
vn -0.064000 0.991300 0.115400
vn 0.295500 0.224300 0.928600
vn 0.293700 -0.154500 -0.943300
vn -0.859600 -0.399600 -0.318600
vn 0.768700 -0.626100 0.131000
vn 0.162400 0.225000 0.960700
vn 0.449300 0.293700 -0.843700
vn 0.661100 0.611500 0.434800
vn -0.062400 -0.287100 -0.955900
vn -0.885400 -0.457800 0.080400
vn 0.236100 -0.969600 0.064700
vn 0.475500 0.061100 0.877600
vn -0.580200 -0.327500 -0.745700
vn -0.601500 -0.562200 0.567600
vn 0.525600 -0.146900 -0.838000
vn -0.616700 -0.667300 -0.417700
vn 0.432000 -0.901500 0.027000
vn -0.216500 -0.269400 -0.938400
vn -0.211000 -0.975600 0.060700
vn -0.538700 -0.062800 -0.840200
vn -0.051200 0.158900 -0.986000
vn 0.849100 0.521300 -0.085700
vn 0.323300 0.289700 -0.900900
vn 0.829000 0.465700 0.309700
vn -0.643900 0.115000 -0.756400
vn 0.561500 0.620400 -0.547600
vn 0.315200 -0.115100 -0.942000
vn 0.909800 -0.355800 0.213800
vn 0.445900 0.251500 -0.859000
vn -0.831200 0.126000 -0.541500
vn -0.578200 -0.286500 -0.764000
vn 0.735200 -0.185600 -0.652000
vn 0.747100 -0.656300 0.105600
vn 0.465700 0.199100 -0.862200
vn 0.195600 -0.979500 0.047800
vn 0.283000 -0.118800 -0.951700
vn -0.044700 -0.247500 -0.967800
vn 0.947800 -0.303800 -0.096600
vn 0.909700 -0.355400 0.215000
vn 0.135800 0.527600 0.838600
vn -0.216800 -0.730200 0.647900
vn 0.749100 -0.618000 0.238600
vn -0.140100 0.989800 -0.027500
vn -0.488200 -0.697400 0.524700
vn 0.747200 0.618800 0.242400
vn 0.390800 0.447900 0.804100
vn 0.464700 0.199600 -0.862700
vn -0.822100 0.209900 -0.529200
vn 0.074300 0.996600 0.036900
vn 0.583200 0.427100 -0.691000
vn -0.754200 -0.656600 0.004100
vn 0.023200 0.944500 0.327700
vn -0.318300 -0.402900 -0.858100
vn -0.651200 0.185300 -0.735900
vn 0.282400 -0.117700 -0.952000
vn -0.618400 0.682200 -0.390000
vn 0.669300 0.735700 -0.104200
vn 0.549300 -0.015300 -0.835500
vn -0.972700 -0.048300 0.226900
vn 0.663900 0.721900 0.195300
vn -0.679300 -0.105800 -0.726200
vn -0.549200 0.560300 -0.620000
vn 0.736000 -0.184900 -0.651300
vn 0.620600 0.716200 0.319200
vn 0.604800 -0.585200 0.540000
vn 0.739600 -0.452800 -0.497900
vn -0.348100 0.933500 0.086400
vn 0.355800 -0.614200 0.704400
vn 0.425100 0.743200 -0.516600
vn 0.744300 0.662200 0.086100
vn 0.948100 -0.303200 -0.095500
vn 0.395500 0.648200 0.650600
vn 0.088900 -0.630100 0.771400
vn 0.826700 -0.562300 0.020300
vn -0.211100 0.972100 -0.102300
vn -0.210400 -0.620800 0.755200
vn 0.737600 0.661200 -0.137100
vn 0.625200 0.569000 0.534200
vn -0.831800 0.125300 -0.540700
vn -0.540600 -0.709500 0.452100
vn -0.535500 0.603400 0.590900
vn -0.821300 0.402200 -0.404600
vn 0.388500 -0.917400 0.086800
vn -0.265600 0.648700 0.713200
vn -0.473100 -0.784600 -0.400800
vn -0.700000 -0.673400 0.237900
vn 0.399700 0.673200 0.622100
vn 0.876400 -0.265600 0.401800
vn -0.753700 -0.545000 0.367200
vn -0.898400 0.436600 -0.048300
vn 0.576000 0.342000 0.742500
vn -0.424200 -0.019000 0.905400
vn 0.090100 0.523600 0.847200
vn -0.479500 -0.386900 0.787600
vn -0.316000 -0.621600 0.716800
vn -0.797800 0.318200 0.512100
vn -0.846000 -0.532800 -0.019700
vn -0.807400 0.502500 -0.309100
vn -0.139200 0.027700 -0.989900
vn -0.905800 -0.393300 -0.157600
vn -0.828700 -0.469900 -0.303900
vn 0.108700 -0.952600 0.284200
vn 0.783600 0.423000 -0.454900
vn -0.040700 0.970800 0.236500
vn 0.841100 0.216500 0.495700
vn -0.104300 0.944400 0.311800
vn 0.946400 0.302500 0.113100
vn -0.050200 0.978100 0.201900
vn -0.311100 0.123400 -0.942300
vn -0.964900 0.254800 0.064100
vn 0.850800 0.234900 0.470000
vn 0.674600 -0.622400 0.396900
vn 0.763000 0.436200 -0.477100
vn 0.831800 -0.430200 -0.350800
vn -0.811200 -0.484000 -0.328100
vn -0.889300 0.386800 -0.244000
vn -0.327200 0.094600 -0.940200
vn 0.541100 0.159300 -0.825700
vn -0.134100 -0.004900 -0.991000
vn 0.467100 0.558000 -0.685900
vn 0.944700 0.317100 0.083600
vn 0.815900 -0.544600 0.194200
vn -0.199900 0.978500 0.051400
vn -0.945900 0.281700 0.161100
vn 0.238300 -0.968100 0.077700
vn 0.968300 -0.247800 0.030700
vn -0.066700 0.996900 -0.041100
vn -0.813300 0.402700 -0.419900
vn -0.996500 0.013300 0.082500
vn -0.411800 -0.392400 0.822500
vn -0.028600 0.995900 0.085300
vn -0.590500 0.511500 -0.624200
vn -0.783800 -0.604400 -0.142900
vn -0.223500 -0.662000 0.715400
vn -0.370900 0.913300 0.168000
vn -0.908600 0.371100 -0.191700
vn 0.958400 0.268300 -0.097800
vn 0.527600 0.215500 -0.821700
vn 0.369900 -0.913800 0.167400
vn 0.859200 -0.412200 -0.303100
vn 0.583100 0.804200 0.115100
vn 0.421200 0.593300 -0.686000
vn 0.080800 -0.943900 0.320300
vn 0.811800 -0.527900 0.249500
vn -0.061600 -0.981000 0.184100
vn 0.650400 -0.612900 0.448700
vn -0.452400 -0.629100 0.632100
vn -0.845400 -0.503600 -0.177800
vn 0.563400 0.193600 0.803100
vn 0.161200 0.391800 0.905800
vn -0.813200 -0.539500 0.218000
vn 0.521400 0.678700 0.517200
vn -0.647400 0.378500 0.661500
vn -0.859300 0.484700 0.163200
vn 0.752500 -0.320000 0.575700
vn -0.849300 0.519600 -0.093400
vn -0.461400 0.194600 0.865600
vn -0.632800 -0.236900 0.737200
vn -0.614500 -0.335800 0.713900
vn -0.244400 0.654800 0.715200
vn 0.789000 -0.368000 0.491900
vn 0.222400 0.441000 0.869500
vn -0.512600 0.105900 0.852100
vn 0.370800 0.654300 0.659100
vn -0.695200 0.422700 0.581400
vn -0.097300 -0.381300 0.919300
vn -0.844400 0.530800 0.072000
vn -0.669100 -0.324500 0.668600
vn -0.800600 0.576000 -0.164900
vn -0.876000 -0.360300 0.320800
vn 0.454900 0.246400 0.855800
vn 0.631900 -0.375900 -0.677700
vn 0.871200 0.486900 0.062800
vn -0.131900 -0.440500 -0.888000
vn -0.834800 -0.503000 0.224000
vn -0.018900 0.386500 -0.922100
vn 0.718000 0.378500 0.584100
vn 0.364700 -0.460700 -0.809200
vn -0.357800 0.599200 -0.716200
vn 0.410400 -0.835200 -0.366000
vn -0.511500 0.344200 -0.787400
vn 0.898200 -0.360200 -0.251800
vn -0.425300 0.149600 0.892600
vn 0.601000 0.152900 0.784500
vn -0.690100 0.335800 0.641100
vn -0.455700 -0.667900 0.588400
vn 0.790000 -0.277600 0.546600
vn 0.516800 0.714700 0.471400
vn -0.582500 -0.253800 0.772200
vn 0.218500 0.385000 0.896700
vn -0.886600 0.446700 0.120000
vn -0.794900 -0.579500 0.179500
vn -0.859100 0.489600 -0.148700
vn -0.814800 -0.539500 -0.212300
usemtl OC_SACK_V03_1
s off
f 21/1/1 105/2/1 109/3/1
f 48/4/2 115/3/2 87/2/2
f 25/1/3 103/2/3 114/3/3
f 43/4/4 117/3/4 86/2/4
f 19/1/5 108/2/5 110/3/5
f 47/4/6 118/3/6 88/2/6
f 29/1/7 104/2/7 111/3/7
f 45/4/8 119/3/8 90/2/8
f 23/1/9 107/2/9 113/3/9
f 46/4/10 116/3/10 89/2/10
f 27/1/11 106/2/11 112/3/11
f 44/4/12 120/3/12 85/2/12
f 19/1/13 49/5/13 108/2/13
f 20/6/14 126/7/14 138/8/14
f 127/9/15 37/10/15 20/6/15
f 47/4/16 20/6/16 118/3/16
f 21/1/17 51/5/17 105/2/17
f 22/6/18 124/7/18 134/8/18
f 128/9/19 42/10/19 22/6/19
f 48/4/20 22/6/20 115/3/20
f 23/1/21 54/5/21 107/2/21
f 24/6/22 125/7/22 137/8/22
f 130/9/23 40/10/23 24/6/23
f 46/4/24 24/6/24 116/3/24
f 25/1/25 50/5/25 103/2/25
f 26/6/26 122/7/26 135/8/26
f 129/9/27 39/10/27 26/6/27
f 43/4/28 26/6/28 117/3/28
f 27/1/29 52/5/29 106/2/29
f 28/6/30 121/7/30 136/8/30
f 132/9/31 38/10/31 28/6/31
f 44/4/32 28/6/32 120/3/32
f 29/1/33 53/5/33 104/2/33
f 30/6/34 123/7/34 133/8/34
f 131/9/35 41/10/35 30/6/35
f 45/4/36 30/6/36 119/3/36
f 31/11/37 69/12/37 1/13/37
f 124/7/38 109/3/38 134/8/38
f 32/11/39 77/12/39 4/13/39
f 122/7/40 114/3/40 135/8/40
f 33/11/41 65/12/41 10/13/41
f 123/7/42 111/3/42 133/8/42
f 34/11/43 73/12/43 13/13/43
f 125/7/44 113/3/44 137/8/44
f 35/11/45 57/12/45 7/13/45
f 126/7/46 110/3/46 138/8/46
f 36/11/47 61/12/47 16/13/47
f 121/7/48 112/3/48 136/8/48
f 37/10/49 49/5/49 19/1/49
f 126/7/50 19/1/50 110/3/50
f 38/10/51 52/5/51 27/1/51
f 121/7/52 27/1/52 112/3/52
f 39/10/53 50/5/53 25/1/53
f 122/7/54 25/1/54 114/3/54
f 40/10/55 54/5/55 23/1/55
f 125/7/56 23/1/56 113/3/56
f 41/10/57 53/5/57 29/1/57
f 123/7/58 29/1/58 111/3/58
f 42/10/59 51/5/59 21/1/59
f 124/7/60 21/1/60 109/3/60
f 129/9/61 26/6/61 43/4/61
f 5/14/62 43/4/62 86/2/62
f 132/9/63 28/6/63 44/4/63
f 17/14/64 44/4/64 85/2/64
f 131/9/65 30/6/65 45/4/65
f 11/14/66 45/4/66 90/2/66
f 130/9/67 24/6/67 46/4/67
f 14/14/68 46/4/68 89/2/68
f 127/9/69 20/6/69 47/4/69
f 8/14/70 47/4/70 88/2/70
f 128/9/71 22/6/71 48/4/71
f 2/14/72 48/4/72 87/2/72
f 37/10/73 127/9/73 49/5/73
f 49/5/74 91/15/74 108/2/74
f 39/10/75 129/9/75 50/5/75
f 50/5/76 93/15/76 103/2/76
f 42/10/77 128/9/77 51/5/77
f 51/5/78 92/15/78 105/2/78
f 38/10/79 132/9/79 52/5/79
f 52/5/80 95/15/80 106/2/80
f 41/10/81 131/9/81 53/5/81
f 53/5/82 94/15/82 104/2/82
f 40/10/83 130/9/83 54/5/83
f 54/5/84 96/15/84 107/2/84
f 108/2/85 91/15/85 55/16/85
f 58/17/86 7/13/86 57/12/86
f 35/11/87 56/17/87 57/12/87
f 56/17/88 55/16/88 9/18/88
f 55/16/89 57/12/89 9/18/89
f 56/17/90 9/18/90 57/12/90
f 91/15/91 58/17/91 55/16/91
f 55/16/92 58/17/92 57/12/92
f 106/2/93 95/15/93 59/16/93
f 62/17/94 16/13/94 61/12/94
f 36/11/95 60/17/95 61/12/95
f 60/17/96 59/16/96 18/18/96
f 59/16/97 61/12/97 18/18/97
f 60/17/98 18/18/98 61/12/98
f 95/15/99 62/17/99 59/16/99
f 59/16/100 62/17/100 61/12/100
f 104/2/101 94/15/101 63/16/101
f 66/17/102 10/13/102 65/12/102
f 33/11/103 64/17/103 65/12/103
f 64/17/104 63/16/104 12/18/104
f 63/16/105 65/12/105 12/18/105
f 64/17/106 12/18/106 65/12/106
f 94/15/107 66/17/107 63/16/107
f 63/16/108 66/17/108 65/12/108
f 105/2/109 92/15/109 67/16/109
f 70/17/110 1/13/110 69/12/110
f 31/11/111 68/17/111 69/12/111
f 68/17/112 67/16/112 3/18/112
f 67/16/113 69/12/113 3/18/113
f 68/17/114 3/18/114 69/12/114
f 92/15/115 70/17/115 67/16/115
f 67/16/116 70/17/116 69/12/116
f 107/2/117 96/15/117 71/16/117
f 74/17/118 13/13/118 73/12/118
f 34/11/119 72/17/119 73/12/119
f 72/17/120 71/16/120 15/18/120
f 71/16/121 73/12/121 15/18/121
f 72/17/122 15/18/122 73/12/122
f 96/15/123 74/17/123 71/16/123
f 71/16/124 74/17/124 73/12/124
f 103/2/125 93/15/125 75/16/125
f 78/17/126 4/13/126 77/12/126
f 32/11/127 76/17/127 77/12/127
f 76/17/128 75/16/128 6/18/128
f 75/16/129 77/12/129 6/18/129
f 76/17/130 6/18/130 77/12/130
f 93/15/131 78/17/131 75/16/131
f 75/16/132 78/17/132 77/12/132
f 79/19/133 32/11/133 4/13/133
f 26/6/134 135/8/134 117/3/134
f 80/19/135 34/11/135 13/13/135
f 24/6/136 137/8/136 116/3/136
f 81/19/137 33/11/137 10/13/137
f 30/6/138 133/8/138 119/3/138
f 82/19/139 36/11/139 16/13/139
f 28/6/140 136/8/140 120/3/140
f 83/19/141 31/11/141 1/13/141
f 22/6/142 134/8/142 115/3/142
f 84/19/143 35/11/143 7/13/143
f 20/6/144 138/8/144 118/3/144
f 95/15/145 85/2/145 62/17/145
f 85/2/146 102/11/146 62/17/146
f 93/15/147 86/2/147 78/17/147
f 86/2/148 98/11/148 78/17/148
f 92/15/149 87/2/149 70/17/149
f 87/2/150 97/11/150 70/17/150
f 91/15/151 88/2/151 58/17/151
f 88/2/152 101/11/152 58/17/152
f 96/15/153 89/2/153 74/17/153
f 89/2/154 99/11/154 74/17/154
f 94/15/155 90/2/155 66/17/155
f 90/2/156 100/11/156 66/17/156
f 8/14/157 88/2/157 91/15/157
f 49/5/158 8/14/158 91/15/158
f 2/14/159 87/2/159 92/15/159
f 51/5/160 2/14/160 92/15/160
f 5/14/161 86/2/161 93/15/161
f 50/5/162 5/14/162 93/15/162
f 11/14/163 90/2/163 94/15/163
f 53/5/164 11/14/164 94/15/164
f 17/14/165 85/2/165 95/15/165
f 52/5/166 17/14/166 95/15/166
f 14/14/167 89/2/167 96/15/167
f 54/5/168 14/14/168 96/15/168
f 70/17/169 97/11/169 1/13/169
f 97/11/170 83/19/170 1/13/170
f 78/17/171 98/11/171 4/13/171
f 98/11/172 79/19/172 4/13/172
f 74/17/173 99/11/173 13/13/173
f 99/11/174 80/19/174 13/13/174
f 66/17/175 100/11/175 10/13/175
f 100/11/176 81/19/176 10/13/176
f 58/17/177 101/11/177 7/13/177
f 101/11/178 84/19/178 7/13/178
f 62/17/179 102/11/179 16/13/179
f 102/11/180 82/19/180 16/13/180
f 114/3/181 103/2/181 76/17/181
f 103/2/182 75/16/182 76/17/182
f 111/3/183 104/2/183 64/17/183
f 104/2/184 63/16/184 64/17/184
f 109/3/185 105/2/185 68/17/185
f 105/2/186 67/16/186 68/17/186
f 112/3/187 106/2/187 60/17/187
f 106/2/188 59/16/188 60/17/188
f 113/3/189 107/2/189 72/17/189
f 107/2/190 71/16/190 72/17/190
f 110/3/191 108/2/191 56/17/191
f 108/2/192 55/16/192 56/17/192
f 134/8/193 109/3/193 31/11/193
f 109/3/185 68/17/185 31/11/185
f 138/8/194 110/3/194 35/11/194
f 110/3/191 56/17/191 35/11/191
f 133/8/195 111/3/195 33/11/195
f 111/3/183 64/17/183 33/11/183
f 136/8/196 112/3/196 36/11/196
f 112/3/187 60/17/187 36/11/187
f 137/8/197 113/3/197 34/11/197
f 113/3/189 72/17/189 34/11/189
f 135/8/198 114/3/198 32/11/198
f 114/3/181 76/17/181 32/11/181
f 87/2/150 115/3/150 97/11/150
f 115/3/199 83/19/199 97/11/199
f 89/2/154 116/3/154 99/11/154
f 116/3/200 80/19/200 99/11/200
f 86/2/148 117/3/148 98/11/148
f 117/3/201 79/19/201 98/11/201
f 88/2/152 118/3/152 101/11/152
f 118/3/202 84/19/202 101/11/202
f 90/2/156 119/3/156 100/11/156
f 119/3/203 81/19/203 100/11/203
f 85/2/146 120/3/146 102/11/146
f 120/3/204 82/19/204 102/11/204
f 38/10/205 121/7/205 28/6/205
f 38/10/206 27/1/206 121/7/206
f 39/10/207 122/7/207 26/6/207
f 39/10/208 25/1/208 122/7/208
f 41/10/209 123/7/209 30/6/209
f 41/10/210 29/1/210 123/7/210
f 42/10/211 124/7/211 22/6/211
f 42/10/212 21/1/212 124/7/212
f 40/10/213 125/7/213 24/6/213
f 40/10/214 23/1/214 125/7/214
f 37/10/215 126/7/215 20/6/215
f 37/10/216 19/1/216 126/7/216
f 127/9/217 47/4/217 8/14/217
f 127/9/218 8/14/218 49/5/218
f 128/9/219 48/4/219 2/14/219
f 128/9/220 2/14/220 51/5/220
f 129/9/221 43/4/221 5/14/221
f 129/9/222 5/14/222 50/5/222
f 130/9/223 46/4/223 14/14/223
f 130/9/224 14/14/224 54/5/224
f 131/9/225 45/4/225 11/14/225
f 131/9/226 11/14/226 53/5/226
f 132/9/227 44/4/227 17/14/227
f 132/9/228 17/14/228 52/5/228
f 119/3/229 133/8/229 81/19/229
f 133/8/230 33/11/230 81/19/230
f 115/3/231 134/8/231 83/19/231
f 134/8/232 31/11/232 83/19/232
f 117/3/233 135/8/233 79/19/233
f 135/8/234 32/11/234 79/19/234
f 120/3/235 136/8/235 82/19/235
f 136/8/236 36/11/236 82/19/236
f 116/3/237 137/8/237 80/19/237
f 137/8/238 34/11/238 80/19/238
f 118/3/239 138/8/239 84/19/239
f 138/8/240 35/11/240 84/19/240
