# Blender v2.75 (sub 0) OBJ File: 'Empty.blend'
# www.blender.org
mtllib OC_WEAPON_SHELF_EMPTY_V1.mtl
o OC_WEAPON_SHELF_EMPTY_V1
v -0.362678 1.979105 -0.069106
v -0.428479 0.099912 -0.069106
v 0.434243 0.099912 -0.119106
v 0.368442 1.979105 -0.119106
v -0.353614 1.625107 -0.071996
v 0.359379 1.625106 -0.071996
v 0.304998 1.656050 0.084603
v -0.299234 1.656050 0.084603
v -0.234427 0.898203 -0.071996
v -0.233620 0.967075 0.041570
v -0.353614 0.948203 -0.071996
v 0.042600 0.898203 -0.071996
v 0.040891 0.967075 0.041570
v 0.161787 0.948203 -0.071996
v -0.161560 0.898203 -0.071996
v -0.163269 0.967075 0.041570
v -0.042373 0.948203 -0.071996
v 0.222322 0.898203 -0.071996
v 0.220613 0.967075 0.041570
v 0.341509 0.948203 -0.071996
v -0.501241 0.000000 0.203062
v 0.501248 -0.000000 -0.232731
v 0.501248 0.000000 0.203062
v 0.501248 0.098883 0.203062
v -0.501241 -0.000000 -0.232731
v -0.501241 0.098883 0.203062
v -0.362678 1.979105 -0.119106
v -0.428479 0.099912 -0.119106
v 0.434243 0.099912 -0.069106
v 0.368442 1.979105 -0.069106
v -0.234427 0.948203 -0.071996
v -0.161560 0.948203 -0.071996
v 0.042600 0.948203 -0.071996
v 0.222322 0.948203 -0.071996
v -0.353614 1.575107 -0.071996
v -0.048213 0.967075 0.041570
v -0.042373 0.898203 -0.071996
v 0.155947 0.967075 0.041570
v 0.161787 0.898203 -0.071996
v -0.233620 0.917075 0.041570
v -0.353614 0.898203 -0.071996
v 0.220613 0.917075 0.041570
v 0.341509 0.898203 -0.071996
v 0.359379 1.575107 -0.071996
v -0.048214 0.917075 0.041570
v -0.163269 0.917075 0.041570
v 0.155947 0.917075 0.041570
v 0.040891 0.917075 0.041570
v 0.304998 1.606050 0.084603
v -0.299234 1.606050 0.084603
v -0.299234 0.967075 0.041570
v 0.501248 0.098883 -0.121930
v -0.501241 0.098883 -0.121931
v -0.299234 0.917075 0.041570
v 0.286227 0.967075 0.041570
v 0.286227 0.917075 0.041570
vt 0.000951 -0.999049
vt 1.242363 -0.999050
vt 1.242363 -0.000951
vt 0.000951 -0.000951
vt -0.002337 -0.004239
vt -0.002338 -0.995761
vt 0.241191 -0.995761
vt 0.241191 -0.004239
vt 0.000000 -1.000000
vt 0.253996 -1.000000
vt 0.253996 -0.000000
vt 0.986185 -0.149758
vt 0.763766 -0.149758
vt 0.763766 -1.000000
vt 0.488951 -1.000000
vt 0.488951 -0.000000
vt 0.262381 -0.000000
vt 0.000000 -0.000000
vt 0.986185 -1.000000
vt 0.262381 -1.000000
vt 0.775039 -0.000500
vt 0.775035 -0.999500
vt 0.999496 -0.999500
vt 0.002928 -0.991459
vt 0.232239 -0.991460
vt 0.232239 -0.006125
vt 0.002928 -0.006125
vt 0.999501 -0.000500
vn -0.000000 0.000000 -1.000000
vn 0.000000 -0.000000 1.000000
vn 0.000000 0.981000 -0.193900
vn -0.000000 -0.981000 0.193900
vn 0.000000 0.981000 -0.193800
vn -0.000000 -0.981000 0.193800
vn 0.000000 0.986500 -0.163900
vn -0.000000 -0.986500 0.163900
vn 0.000000 1.000000 -0.000000
vn 1.000000 0.000000 0.000000
vn -1.000000 0.000000 -0.000000
vn -0.999400 0.035000 0.000000
vn 0.999400 0.035000 0.000000
vn 1.000000 -0.000000 -0.007100
vn -0.999900 0.000000 -0.015000
vn -0.944700 -0.000000 0.328000
vn 0.998700 -0.000000 0.051400
vn -0.901900 -0.000000 0.431900
vn 0.899100 -0.000000 0.437700
vn 0.944700 0.000000 0.328000
vn 0.000000 0.746100 -0.665800
usemtl OC_WEAPON_SHELF_NEW_V1_1
s off
f 3/1/1 28/2/1 27/3/1
f 2/3/2 29/4/2 30/1/2
f 27/3/1 4/4/1 3/1/1
f 30/1/2 1/2/2 2/3/2
f 8/5/3 7/6/3 6/7/3
f 35/5/4 44/6/4 49/7/4
f 6/7/5 5/8/5 8/5/5
f 49/7/6 50/8/6 35/5/6
f 31/7/7 11/8/7 51/5/7
f 41/5/8 9/6/8 40/7/8
f 14/7/7 33/8/7 13/5/7
f 12/5/8 39/6/8 47/7/8
f 17/7/7 32/8/7 16/5/7
f 15/5/8 37/6/8 45/7/8
f 20/7/7 34/8/7 19/5/7
f 18/5/8 43/6/8 56/7/8
f 24/9/9 52/10/9 53/11/9
f 52/12/10 24/13/10 23/14/10
f 21/15/2 23/16/2 24/17/2
f 53/11/9 26/18/9 24/9/9
f 25/14/11 21/19/11 26/12/11
f 24/17/2 26/20/2 21/15/2
f 4/21/9 27/22/9 1/23/9
f 1/24/12 27/25/12 28/26/12
f 28/26/12 2/27/12 1/24/12
f 29/24/13 3/25/13 4/26/13
f 1/23/9 30/28/9 4/21/9
f 4/26/13 30/27/13 29/24/13
f 9/24/14 31/25/14 10/26/14
f 32/26/15 15/27/15 46/24/15
f 33/26/15 12/27/15 48/24/15
f 34/26/15 18/27/15 42/24/15
f 5/26/16 35/27/16 50/24/16
f 16/5/7 36/6/7 17/7/7
f 45/7/8 46/8/8 15/5/8
f 37/24/17 17/25/17 36/26/17
f 13/5/7 38/6/7 14/7/7
f 47/7/8 48/8/8 12/5/8
f 39/24/17 14/25/17 38/26/17
f 10/26/14 40/27/14 9/24/14
f 54/24/18 51/25/18 11/26/18
f 11/26/18 41/27/18 54/24/18
f 42/24/15 19/25/15 34/26/15
f 55/26/19 56/27/19 43/24/19
f 43/24/19 20/25/19 55/26/19
f 44/24/20 6/25/20 7/26/20
f 46/23/2 45/28/2 36/21/2
f 36/26/17 45/27/17 37/24/17
f 36/21/2 16/22/2 46/23/2
f 46/24/15 16/25/15 32/26/15
f 48/23/2 47/28/2 38/21/2
f 38/26/17 47/27/17 39/24/17
f 38/21/2 13/22/2 48/23/2
f 48/24/15 13/25/15 33/26/15
f 50/23/2 49/28/2 7/21/2
f 7/26/20 49/27/20 44/24/20
f 7/21/2 8/22/2 50/23/2
f 50/24/16 8/25/16 5/26/16
f 10/21/2 51/22/2 54/23/2
f 51/5/7 10/6/7 31/7/7
f 23/14/10 22/19/10 52/12/10
f 53/11/21 52/10/21 22/15/21
f 22/15/21 25/16/21 53/11/21
f 26/12/11 53/13/11 25/14/11
f 54/23/2 40/28/2 10/21/2
f 40/7/8 54/8/8 41/5/8
f 55/21/2 19/22/2 42/23/2
f 19/5/7 55/6/7 20/7/7
f 42/23/2 56/28/2 55/21/2
f 56/7/8 42/8/8 18/5/8
