# Blender v2.75 (sub 0) OBJ File: 'Empty.blend'
# www.blender.org
mtllib OC_WEAPON_SHELF_EMPTY_V2.mtl
o OC_WEAPON_SHELF_EMPTY_V2
v -0.362678 1.201877 -0.074863
v -0.437806 0.099423 -0.074863
v 0.434243 -0.000560 -0.201970
v 0.349944 1.203753 -0.074863
v -0.353614 0.352453 -0.074975
v 0.359379 0.352453 -0.074975
v 0.304998 0.383397 0.062908
v -0.299234 0.383396 0.062908
v 0.042600 0.898203 -0.074975
v 0.161787 0.948203 -0.074975
v 0.040891 0.967075 0.013946
v 0.222322 0.898203 -0.074975
v 0.341509 0.948203 -0.074975
v 0.220613 0.967075 0.013946
v -0.161560 0.898203 -0.074975
v -0.042373 0.948203 -0.074975
v -0.163269 0.967075 0.013946
v -0.234427 0.898203 -0.074975
v -0.353614 0.948203 -0.074975
v -0.233620 0.967075 0.013946
v 0.434243 0.099423 -0.074863
v -0.362678 1.202924 -0.188161
v -0.396786 -0.000560 -0.201970
v 0.341390 1.202923 -0.188548
v -0.549677 -0.000000 -0.232731
v -0.501241 0.000000 0.221036
v 0.501248 0.000000 0.221324
v -0.501241 0.099372 0.171803
v 0.537603 -0.000000 -0.232731
v 0.506660 0.099372 0.171803
v -0.234427 0.948203 -0.074975
v -0.161560 0.948203 -0.074975
v 0.042600 0.948203 -0.074975
v 0.222322 0.948203 -0.074975
v -0.353614 0.302453 -0.074975
v 0.155947 0.967075 0.013946
v 0.161787 0.898203 -0.074975
v -0.048213 0.967075 0.013946
v -0.042373 0.898203 -0.074975
v -0.469226 0.099372 -0.121931
v -0.233620 0.917075 0.013946
v -0.353614 0.898203 -0.074975
v 0.220613 0.917075 0.013946
v 0.341509 0.898203 -0.074975
v 0.359379 0.302453 -0.074975
v -0.299234 0.333396 0.062908
v 0.481906 0.099372 -0.121930
v -0.163269 0.917075 0.013946
v -0.048214 0.917075 0.013946
v 0.155947 0.917075 0.013946
v 0.040891 0.917075 0.013946
v 0.304998 0.333397 0.062908
v -0.299234 0.967075 0.013946
v -0.299234 0.917075 0.013946
v 0.286227 0.967075 0.013946
v 0.286227 0.917075 0.013946
vt 0.000951 -0.999049
vt 1.242363 -0.999050
vt 1.242363 -0.000951
vt 0.000951 -0.000951
vt -0.002337 -0.004239
vt -0.002338 -0.995761
vt 0.241191 -0.995761
vt 0.241191 -0.004239
vt 0.002924 -0.991459
vt 0.232235 -0.991460
vt 0.232235 -0.006125
vt 0.775039 -0.000500
vt 0.775035 -0.999500
vt 0.999496 -0.999500
vt 0.002928 -0.006125
vt 0.999501 -0.000500
vt 0.253996 -0.000000
vt 0.000000 -0.000000
vt 0.000000 -1.000000
vt 0.763766 -1.000000
vt 0.986185 -1.000000
vt 0.986185 -0.149758
vt 0.262381 -0.000000
vt 0.262381 -1.000000
vt 0.488951 -1.000000
vt 0.253996 -1.000000
vt 0.763766 -0.149758
vt 0.488951 -0.000000
vn -0.000000 0.011500 -0.999900
vn 0.000000 -0.000000 1.000000
vn -0.000500 0.011100 -0.999900
vn -0.000000 0.975700 -0.219000
vn -0.000000 -0.975700 0.219000
vn 0.000000 0.978200 -0.207600
vn 0.000000 -0.978200 0.207600
vn 0.995100 0.077500 -0.060900
vn 0.000000 1.000000 0.009200
vn -0.999600 0.028300 0.000300
vn -0.934000 0.063700 -0.351500
vn -0.002600 1.000000 -0.007100
vn 0.994300 0.075900 -0.075400
vn -0.000000 1.000000 0.000000
vn -0.993000 0.052500 0.106000
vn -0.000000 0.443900 0.896100
vn 0.991900 -0.095700 -0.083600
vn -0.000300 0.446000 0.895000
vn 1.000000 -0.000000 -0.009100
vn -0.999800 0.000000 -0.019200
vn -0.930300 0.000000 0.366900
vn 0.997900 -0.000000 0.065500
vn 0.000000 0.744500 -0.667700
vn -0.729500 0.679300 -0.079500
vn -0.853100 -0.000000 0.521700
vn 0.849300 -0.000000 0.528000
vn 0.930300 0.000000 0.366900
vn 0.902200 0.425100 0.072200
vn 0.997800 -0.000000 0.065500
usemtl OC_WEAPON_SHELF_NEW_V2_1
s off
f 3/1/1 23/2/1 22/3/1
f 2/3/2 21/4/2 4/1/2
f 4/1/2 1/2/2 2/3/2
f 22/3/3 24/4/3 3/1/3
f 8/5/4 7/6/4 6/7/4
f 35/5/5 45/6/5 52/7/5
f 6/7/4 5/8/4 8/5/4
f 52/7/5 46/8/5 35/5/5
f 10/7/6 33/8/6 11/5/6
f 50/7/7 51/8/7 9/5/7
f 13/7/6 34/8/6 14/5/6
f 12/5/7 44/6/7 56/7/7
f 16/7/6 32/8/6 17/5/6
f 49/7/7 48/8/7 15/5/7
f 31/7/6 19/8/6 53/5/6
f 42/5/7 18/6/7 41/7/7
f 21/9/8 3/10/8 24/11/8
f 24/12/9 22/13/9 1/14/9
f 1/9/10 22/10/10 23/11/10
f 23/11/11 2/15/11 1/9/11
f 1/14/12 4/16/12 24/12/12
f 24/11/13 4/15/13 21/9/13
f 40/17/14 28/18/14 30/19/14
f 25/20/15 26/21/15 28/22/15
f 30/23/16 28/24/16 26/25/16
f 30/19/14 47/26/14 40/17/14
f 47/22/17 30/27/17 27/20/17
f 26/25/18 27/28/18 30/23/18
f 18/9/19 31/10/19 20/11/19
f 32/11/20 15/15/20 48/9/20
f 33/11/20 9/15/20 51/9/20
f 34/11/20 12/15/20 43/9/20
f 5/11/21 35/15/21 46/9/21
f 11/5/6 36/6/6 10/7/6
f 9/5/7 37/6/7 50/7/7
f 37/9/22 10/10/22 36/11/22
f 17/5/6 38/6/6 16/7/6
f 15/5/7 39/6/7 49/7/7
f 39/9/22 16/10/22 38/11/22
f 29/25/23 25/28/23 40/17/23
f 28/22/24 40/27/24 25/20/24
f 20/11/19 41/15/19 18/9/19
f 54/9/25 53/10/25 19/11/25
f 19/11/25 42/15/25 54/9/25
f 43/9/20 14/10/20 34/11/20
f 55/11/26 56/15/26 44/9/26
f 44/9/26 13/10/26 55/11/26
f 45/9/27 6/10/27 7/11/27
f 7/12/2 8/13/2 46/14/2
f 46/9/21 8/10/21 5/11/21
f 27/20/28 29/21/28 47/22/28
f 40/17/23 47/26/23 29/25/23
f 38/12/2 17/13/2 48/14/2
f 48/9/20 17/10/20 32/11/20
f 48/14/2 49/16/2 38/12/2
f 38/11/29 49/15/29 39/9/29
f 51/14/2 50/16/2 36/12/2
f 36/11/29 50/15/29 37/9/29
f 36/12/2 11/13/2 51/14/2
f 51/9/20 11/10/20 33/11/20
f 46/14/2 52/16/2 7/12/2
f 7/11/27 52/15/27 45/9/27
f 20/12/2 53/13/2 54/14/2
f 53/5/6 20/6/6 31/7/6
f 54/14/2 41/16/2 20/12/2
f 41/7/7 54/8/7 42/5/7
f 55/12/2 14/13/2 43/14/2
f 14/5/6 55/6/6 13/7/6
f 43/14/2 56/16/2 55/12/2
f 56/7/7 43/8/7 12/5/7
