# Blender v2.75 (sub 0) OBJ File: 'Empty.blend'
# www.blender.org
mtllib ORC_E_BRIDGE_3X4M.mtl
o ORC_E_BRIDGE_3X4M
v -1.124975 1.040105 0.849048
v 1.076651 1.078314 -1.162686
v 1.045626 1.071319 0.904590
v -1.100049 1.194805 -1.133728
v -0.969728 1.088073 -1.251393
v -0.905955 1.043403 1.192859
v -0.664101 0.839059 1.191115
v 0.664801 1.655034 0.888639
v 0.879079 -1.735931 0.710940
v 1.124975 -1.662701 0.525398
v 0.663215 1.088073 -1.259778
v 0.492423 1.043403 1.179333
v 0.733331 0.839059 1.200779
v -1.113089 1.655034 0.888639
v -0.898811 -1.735931 0.710940
v -0.922121 1.653677 1.141191
v -0.652914 -1.662701 0.525398
v 0.855769 1.653677 1.141191
v -0.900879 0.258982 0.808258
v 0.887184 0.706607 1.019340
v -0.982603 0.483096 0.936668
v 0.859283 0.909260 0.895209
v 0.885195 1.106397 -1.255745
v -0.748383 1.106397 -1.268654
v 0.906543 -1.698638 0.491893
v -0.871346 -1.698638 0.491893
v -0.734440 0.897110 -1.271572
v 0.899354 0.897110 -1.257313
v -0.939844 0.883731 -1.255522
v 0.693358 0.883731 -1.261024
v -0.686398 -1.696842 0.717753
v 1.091491 -1.696842 0.717753
v 0.901572 0.705084 0.874941
v -1.099254 1.046455 -1.141888
v -0.978545 0.490269 0.802923
v -0.866131 0.858502 1.167761
v 0.534470 0.858502 1.158168
v 0.665415 1.618442 1.075895
v -1.112475 1.618442 1.075895
v 0.853605 0.905131 1.014096
v 1.075393 1.195505 -1.147119
v -0.130277 0.992149 0.782602
v -1.119550 1.144630 0.843798
v 1.037044 1.170439 0.887746
v -0.915354 0.273323 0.906959
v 0.644367 0.957335 1.271572
v 0.711812 1.061049 1.220367
v -0.745870 0.957335 1.270111
v -0.683643 1.061049 1.212676
v -0.982444 1.735931 1.012695
v -0.894657 1.690971 0.922144
v 0.795446 1.735932 1.012695
v 0.883233 1.690971 0.922144
v 0.542445 0.952353 1.246913
v -0.849687 0.952353 1.255334
v -1.083286 1.713907 0.993544
v 0.694604 1.713907 0.993544
v 0.005067 1.136124 0.780910
v 0.704739 0.885619 0.604984
v -0.857188 0.909073 -1.083231
v 0.706752 1.108400 0.627148
v -0.946237 0.891844 -0.903716
v 0.586935 0.904860 0.775030
v 0.576113 1.091181 0.814673
v -0.944224 1.097486 -0.881551
v -0.848214 1.106610 -1.069606
vt 0.988227 1.353450
vt 0.830225 1.365475
vt 0.987489 -0.603489
vt 0.984835 1.695985
vt 0.827915 1.692006
vt 0.985162 -0.563433
vt 0.989952 1.674308
vt 0.825944 -2.663374
vt 0.988806 -2.678338
vt 0.828234 -2.687033
vt 0.985470 -2.693502
vt 0.824311 1.667285
vt 0.984853 1.213086
vt 0.828483 1.209541
vt 0.828252 -2.210670
vt 0.831876 -1.895145
vt 0.982158 -2.254907
vt 0.978997 0.787789
vt 0.843062 -1.651425
vt 0.973775 -1.636404
vt 0.974251 0.553105
vt 0.843612 0.552035
vt 0.842406 1.154929
vt 0.902964 -0.577242
vt 0.828361 -0.591775
vt 0.828080 -0.579831
vt 0.909342 -0.574503
vt 0.986595 -2.207126
vt 0.830321 -0.586168
vt 0.912417 -0.591010
vt 0.904872 -0.575882
vt 0.825151 -0.561851
vt 0.830409 -2.366624
vt 0.986827 -2.362247
vt 0.971492 -1.863306
vt 0.972361 0.830357
vt 0.845535 0.780811
vt 0.835330 -1.586381
vt 0.980552 -1.561689
vt 0.979005 0.548602
vt 0.978963 -0.507483
vt 0.983083 -0.339576
vt 0.895381 -0.474191
vt 0.828013 -0.521522
vt 0.836336 0.555176
vt 0.848040 -1.865553
vt 0.828055 -0.334332
vt 0.889239 -0.386290
vt 0.844569 -1.702853
vt 0.987019 -1.635837
vt 0.982233 0.668126
vt 0.838786 -2.269302
vt 0.981174 1.234135
vt 0.840287 1.301866
vt 0.983908 -2.291339
vt 0.851721 -2.174858
vt 0.960180 -2.145869
vt 0.852481 1.091413
vt 0.959690 1.111081
vt 0.856145 0.607064
vt 0.063711 -0.994287
vt 0.912948 -1.004925
vt 0.875500 -0.462141
vt 0.126651 -0.524424
vt 0.093876 -1.000771
vt 0.929883 -0.993896
vt 0.900992 0.007383
vt 0.913481 -0.005044
vt 0.095649 0.007115
vt 0.546735 -0.562897
vt 0.552860 -0.438076
vt 0.437965 -0.438665
vt 0.440280 -0.565630
vt -0.090400 -0.558025
vt 0.838308 -0.477790
vt -0.086584 -0.436785
vt 0.520985 0.007115
vt 0.455269 0.007383
vt 0.454959 -0.993896
vt 0.929883 -0.454959
vt 0.093876 -0.466063
vt 0.936289 -0.506872
vt 0.506872 -0.994287
vt 0.454959 -0.462141
vt 0.490029 -1.004925
vt 0.518736 -0.524424
vt 0.840763 -0.563215
vt 0.476202 -0.005044
vt 0.087052 -0.509971
vt 0.533937 -1.000771
vt 0.522505 -0.007478
vt 0.088734 -0.007478
vn 0.995600 0.090000 -0.024300
vn -0.976400 -0.214000 0.027500
vn -0.008600 -0.126000 0.992000
vn -0.989500 -0.055500 -0.133500
vn 0.993400 0.090000 0.071200
vn -0.974600 -0.214000 -0.066200
vn -0.301700 -0.122100 0.945500
vn 0.130200 0.125700 -0.983500
vn -0.026000 -0.148300 0.988600
vn 0.051500 -0.005800 -0.998700
vn 0.011800 0.101200 -0.994800
vn -0.046400 0.018500 0.998800
vn -0.082500 0.996500 0.012500
vn -0.986800 -0.145100 -0.071800
vn -0.080900 0.996500 0.020300
vn -0.989100 -0.145100 0.023200
vn 0.997400 0.066800 -0.026900
vn 0.995400 0.066800 0.068800
vn 0.064000 -0.997900 -0.012300
vn 0.064900 -0.997900 -0.006100
vn 0.982700 0.046500 0.179300
vn 0.238900 -0.970400 0.034000
vn -0.225600 0.973200 0.045300
vn -0.148600 -0.660600 0.735900
vn -0.093400 -0.995400 -0.020800
vn -0.218500 -0.660600 0.718200
vn -0.091000 -0.995400 -0.029700
vn -0.998000 -0.062600 -0.009000
vn -0.935200 0.347100 0.070900
vn -0.223300 0.974500 0.023200
vn 0.220100 -0.960200 0.171800
vn -0.907400 -0.245400 0.341100
vn -0.196700 0.533900 0.822300
vn 0.614400 -0.010100 0.788900
vn -0.870600 -0.245400 0.426500
vn -0.117000 0.533900 0.837400
vn 0.687200 -0.010100 0.726400
vn -0.348700 0.671000 0.654300
vn 0.989500 0.055500 0.133500
vn -0.066600 0.866400 -0.494800
vn 0.606500 0.767800 0.206800
vn -0.226900 0.497000 0.837600
vn -0.161700 -0.593500 0.788400
vn -0.145600 0.497000 0.855500
vn -0.085400 -0.593500 0.800300
vn -0.104000 0.879600 -0.464100
vn -0.277900 0.744500 0.607000
vn 0.733100 0.060800 -0.677400
vn 0.057500 -0.996100 -0.067100
vn -0.065300 -0.995600 0.067400
vn -0.725200 -0.183300 0.663700
vn -0.743200 -0.064500 0.665900
vn 0.737200 0.013100 -0.675600
vn 0.067400 -0.997700 -0.002400
vn -0.034400 0.999300 0.011700
vn -0.000100 0.999500 0.030700
vn 0.014600 -0.999900 -0.003000
vn -0.078500 0.008700 -0.996900
vn 0.017400 0.008700 -0.999800
vn -0.999900 -0.004800 -0.010000
vn -0.006200 0.054900 -0.998500
vn 0.999800 0.008200 0.018900
vn -0.011400 0.131500 -0.991200
vn -0.110200 0.115200 0.987200
vn -0.053100 -0.995600 -0.077100
vn -0.998600 0.051200 -0.012700
vn 0.064200 -0.048700 0.996700
vn 0.995900 0.088800 0.015200
vn -0.106900 0.157600 0.981700
vn 0.056100 0.047200 0.997300
vn 0.009000 0.999600 0.025500
usemtl ORC_E_BRIDGE_3X4M_2
s off
f 49/1/1 7/2/1 24/3/1
f 36/4/2 6/5/2 29/6/2
f 18/7/3 9/8/3 32/9/3
f 8/5/4 25/10/4 9/11/4
f 47/1/5 13/2/5 23/3/5
f 37/4/6 12/5/6 30/6/6
f 16/7/7 39/12/7 15/8/7
f 14/13/8 51/14/8 17/15/8
f 16/7/3 15/8/3 31/9/3
f 14/5/4 26/10/4 15/11/4
f 18/7/7 38/12/7 9/8/7
f 8/13/8 53/14/8 10/15/8
f 21/16/9 45/17/9 20/18/9
f 19/19/10 35/20/10 22/21/10
f 19/19/11 22/21/11 33/22/11
f 21/16/12 20/18/12 40/23/12
f 11/24/13 47/14/13 23/25/13
f 12/5/14 11/26/14 30/27/14
f 5/24/15 49/14/15 24/25/15
f 6/5/16 5/26/16 29/27/16
f 8/13/8 10/15/8 25/28/8
f 14/13/8 17/15/8 26/28/8
f 7/2/17 27/29/17 24/30/17
f 13/2/18 28/29/18 23/30/18
f 27/31/19 36/12/19 29/32/19
f 28/31/20 37/12/20 30/32/20
f 16/2/21 31/33/21 17/34/21
f 18/2/21 32/33/21 10/34/21
f 19/35/22 33/36/22 20/37/22
f 35/38/23 21/39/23 40/40/23
f 36/41/24 7/42/24 55/43/24
f 7/7/25 36/12/25 27/31/25
f 37/41/26 13/42/26 54/43/26
f 13/7/27 37/12/27 28/31/27
f 38/4/28 8/5/28 9/11/28
f 57/43/29 8/44/29 38/41/29
f 39/4/28 14/5/28 15/11/28
f 56/43/29 14/44/29 39/41/29
f 35/38/30 40/40/30 22/45/30
f 45/46/31 19/35/31 20/37/31
f 54/43/32 12/44/32 37/41/32
f 12/13/13 47/14/13 11/24/13
f 47/47/33 12/44/33 46/48/33
f 46/48/34 13/42/34 47/47/34
f 55/43/35 6/44/35 36/41/35
f 6/13/15 49/14/15 5/24/15
f 49/47/36 6/44/36 48/48/36
f 48/48/37 7/42/37 49/47/37
f 39/41/38 16/42/38 56/43/38
f 51/1/39 16/2/39 17/34/39
f 51/47/40 14/44/40 50/48/40
f 50/48/41 16/42/41 51/47/41
f 38/41/38 18/42/38 57/43/38
f 53/1/39 18/2/39 10/34/39
f 53/47/40 8/44/40 52/48/40
f 52/48/41 18/42/41 53/47/41
f 46/48/42 12/44/42 54/43/42
f 54/43/43 13/42/43 46/48/43
f 48/48/44 6/44/44 55/43/44
f 55/43/45 7/42/45 48/48/45
f 50/48/46 14/44/46 56/43/46
f 56/43/47 16/42/47 50/48/47
f 52/48/46 8/44/46 57/43/46
f 57/43/47 18/42/47 52/48/47
f 61/49/48 59/50/48 60/51/48
f 59/52/49 62/53/49 60/54/49
f 59/52/50 63/55/50 62/53/50
f 63/56/51 64/57/51 62/58/51
f 64/57/52 65/59/52 62/58/52
f 61/49/53 60/51/53 66/60/53
usemtl ORC_E_BRIDGE_3X4M_1
f 2/61/54 3/62/54 42/63/54
f 58/64/55 44/65/55 41/66/55
f 41/66/56 4/67/56 58/64/56
f 1/68/57 34/69/57 2/61/57
f 29/70/58 5/71/58 24/72/58
f 30/70/59 11/71/59 23/72/59
f 29/70/58 24/72/58 27/73/58
f 30/70/59 23/72/59 28/73/59
f 34/74/60 43/75/60 4/76/60
f 34/77/61 4/78/61 41/79/61
f 41/80/62 44/81/62 2/82/62
f 41/79/63 2/83/63 34/77/63
f 42/84/64 3/85/64 58/86/64
f 2/61/65 42/63/65 1/68/65
f 43/75/66 34/74/66 1/87/66
f 1/88/67 42/84/67 58/86/67
f 3/89/68 2/82/68 44/81/68
f 44/90/69 58/86/69 3/85/69
f 58/86/70 43/91/70 1/88/70
f 43/92/71 58/64/71 4/67/71
