# Blender v2.75 (sub 0) OBJ File: 'Empty.blend'
# www.blender.org
mtllib ORC_HEADSLAVE.mtl
o ORC_HEADSLAVE
v 0.084271 0.101231 -0.222665
v 0.272290 0.115262 0.035721
v 0.157285 -0.134917 0.127806
v -0.041813 -0.054376 -0.306573
v 0.084271 -0.101845 -0.222665
v 0.030118 -0.000307 -0.158241
v 0.099160 -0.000307 -0.297884
v 0.062503 0.131405 0.098482
v 0.165337 0.176589 -0.058029
v 0.215011 0.217166 0.027013
v 0.098062 0.200112 0.001774
v 0.165337 -0.177203 -0.058029
v 0.215011 -0.217780 0.027013
v 0.098063 -0.200726 0.001774
v 0.093728 -0.178101 -0.071290
v 0.093727 0.177487 -0.071290
v 0.084271 -0.101845 -0.222665
v 0.087617 -0.084603 -0.284042
v 0.143286 -0.158132 -0.180010
v 0.088372 -0.000307 -0.318006
v 0.223075 0.109259 -0.178256
v 0.087617 0.083989 -0.284042
v 0.044470 0.140047 -0.195231
v 0.238870 -0.000307 0.134642
v 0.157285 0.134302 0.127807
v 0.223075 -0.109873 -0.178257
v 0.196803 -0.173801 0.013200
v 0.062503 -0.132019 0.098482
v -0.041813 0.053762 -0.306573
v 0.272291 -0.115876 0.035721
v 0.196803 0.173187 0.013200
v 0.143286 0.157518 -0.180010
v -0.004765 -0.131473 -0.140366
v -0.004765 0.130859 -0.140366
v 0.135906 -0.000307 0.161304
v 0.184248 -0.131003 -0.154771
v 0.187560 -0.000307 -0.220045
v 0.184247 0.130389 -0.154771
v 0.084271 0.101231 -0.222665
v 0.044470 -0.140661 -0.195231
v 0.136674 -0.160824 -0.041048
v 0.136673 0.160210 -0.041047
v 0.303098 -0.000307 0.036656
v 0.093985 0.072289 -0.278717
v 0.093985 -0.072903 -0.278717
v -0.047451 -0.000307 -0.170328
v 0.007124 0.123191 -0.047977
v 0.215696 -0.000307 -0.204515
v 0.249662 0.121863 -0.085691
v 0.249663 -0.122477 -0.085691
v 0.272022 -0.000307 -0.130820
v 0.086888 0.149991 -0.137092
v 0.086888 -0.150605 -0.137092
v 0.143583 0.079190 -0.217294
v 0.143584 -0.079804 -0.217294
v -0.045972 -0.000307 -0.322029
v 0.007124 -0.123805 -0.047977
v 0.145557 0.174649 -0.071454
v 0.145557 -0.175263 -0.071454
v 0.087617 0.083989 -0.284042
v 0.087617 -0.084603 -0.284042
v 0.169220 -0.035375 -0.206852
v 0.169220 0.034761 -0.206852
v 0.093985 -0.072903 -0.278717
v 0.093985 0.072289 -0.278717
v 0.174963 -0.000307 -0.239092
v 0.115770 -0.085225 -0.273162
v 0.083205 -0.086375 -0.265340
v 0.085498 -0.083610 -0.281873
v 0.115770 0.084611 -0.273162
v 0.083204 0.085761 -0.265340
v 0.085497 0.082997 -0.281873
v 0.085582 -0.063773 -0.289356
v 0.089174 0.079204 -0.255483
v 0.077752 0.066704 -0.281269
v 0.098887 0.067439 -0.275045
v 0.092936 0.050224 -0.277933
v 0.085582 0.063159 -0.289356
v 0.092937 -0.050838 -0.277933
v 0.077752 -0.067317 -0.281269
v 0.098887 -0.068053 -0.275045
v 0.089174 -0.079818 -0.255483
vt 0.360788 0.291876
vt 0.620012 0.001780
vt 0.763877 0.844815
vt 0.484837 0.984565
vt 0.618000 0.774490
vt 0.523739 0.430543
vt 0.549889 0.215970
vt 0.839356 0.552439
vt 0.776896 0.503817
vt 0.663774 0.601333
vt 0.942670 0.983658
vt 0.853710 0.982481
vt 0.940804 0.840684
vt 0.990643 0.701822
vt 0.876110 0.705378
vt 0.658298 0.519851
vt 0.500914 0.566909
vt 0.087032 0.855488
vt 0.207645 0.670988
vt 0.226258 0.993652
vt 0.037509 0.365273
vt 0.204921 0.194785
vt 0.018558 0.090767
vt 0.273871 0.255721
vt 0.268118 0.047978
vt 0.351577 0.094308
vt 0.195147 0.028217
vt 0.416434 0.135145
vt 0.786403 0.091288
vt 0.626047 0.302532
vt 0.817591 0.284506
vt 0.960986 0.233848
vt 0.749922 0.390556
vt 0.958888 0.431512
vt 0.927663 0.547986
vt 0.839072 0.441936
vt 0.319777 0.875701
vt 0.386575 0.736516
vt 0.157090 0.525761
vt 0.891481 0.048602
vt 0.897573 0.578053
vt 0.724156 0.657533
vt 0.867826 0.665635
vt 0.400010 0.008894
vt 0.811939 0.864262
vt 0.923540 0.398440
vt 0.883878 0.334697
vt 0.921980 0.331528
vt 0.962852 0.333426
vt 0.485758 0.843549
vt 0.466729 0.874387
vt 0.485082 0.877268
vt 0.510270 0.873514
vn -0.913300 -0.000000 0.407400
vn 0.954500 -0.240100 -0.177100
vn -0.206800 0.972500 0.107300
vn 0.704800 0.250700 -0.663700
vn -0.895200 -0.053000 -0.442600
vn 0.931700 0.128500 0.339700
vn -0.895200 0.053000 -0.442600
vn 0.931700 -0.128500 0.339700
vn -0.239500 0.959800 -0.146400
vn 0.245800 -0.197100 0.949100
vn -0.044700 0.911500 -0.408800
vn -0.034500 -0.746500 0.664500
vn -0.044700 -0.911500 -0.408800
vn -0.034500 0.746500 0.664500
vn 0.067300 -0.952000 -0.298800
vn 0.533600 0.841000 0.089600
vn 0.067300 0.952000 -0.298800
vn 0.533600 -0.841000 0.089600
vn -0.470900 -0.835700 -0.282700
vn 0.073800 -0.373300 -0.924800
vn -0.239500 -0.959800 -0.146400
vn -0.436400 -0.787400 -0.435300
vn 0.594200 -0.244600 -0.766200
vn -0.436400 0.787400 -0.435300
vn 0.953500 0.252900 -0.164000
vn 0.620800 0.780500 -0.073300
vn 0.073800 0.373300 -0.924800
vn 0.620100 0.763500 -0.180700
vn -0.093600 0.820800 -0.563500
vn 0.815500 0.221700 0.534600
vn 0.611400 0.405100 0.679800
vn -0.650200 -0.000000 0.759700
vn -0.353500 0.934800 -0.035200
vn 0.404500 -0.872100 -0.275400
vn 0.704800 -0.250700 -0.663700
vn -0.353500 -0.934800 -0.035200
vn 0.611400 -0.405100 0.679800
vn -0.291900 -0.274400 0.916300
vn -0.311300 -0.927400 0.207300
vn 0.028800 -0.272700 -0.961700
vn -0.950100 0.276000 0.145200
vn 0.620800 -0.780500 -0.073300
vn 0.468100 -0.775100 0.424400
vn -0.311300 0.927400 0.207300
vn 0.468100 0.775100 0.424400
vn 0.604100 0.785100 -0.136500
vn 0.644100 0.330800 -0.689800
vn -0.935400 -0.000000 0.353700
vn -0.015000 -0.998600 -0.050400
vn -0.470900 0.835700 -0.282700
vn -0.953100 0.292700 0.076700
vn -0.291900 0.274400 0.916300
vn 0.245800 0.197100 0.949100
vn 0.604100 -0.785100 -0.136500
vn 0.644100 -0.330800 -0.689800
vn -0.290100 -0.421700 -0.859100
vn 0.475800 -0.174500 -0.862000
vn 0.404500 0.872100 -0.275400
vn -0.290100 0.421700 -0.859100
vn 0.594200 0.244600 -0.766200
vn 0.620100 -0.763500 -0.180700
vn -0.093600 -0.820800 -0.563500
vn -0.521600 0.805700 0.280500
vn 0.100700 0.795600 -0.597400
vn -0.521600 -0.805700 0.280500
vn 0.100700 -0.795600 -0.597400
vn 0.815500 -0.221700 0.534600
vn 0.953500 -0.252800 -0.164000
vn 0.732300 0.276300 -0.622400
vn 0.732300 -0.276300 -0.622400
vn -0.953100 -0.292700 0.076700
vn -0.996800 -0.079400 -0.009700
vn -0.014900 0.998600 -0.050400
vn 0.475800 0.174600 -0.862000
vn 0.954500 0.240100 -0.177100
vn 0.356700 0.906500 -0.225900
vn 0.961100 0.001500 -0.276200
vn 0.356700 -0.906500 -0.225900
vn 0.961100 -0.001500 -0.276300
vn 0.745200 -0.346800 -0.569600
vn 0.745200 0.346800 -0.569600
vn 0.441400 0.773800 -0.454400
vn -0.203700 0.978900 -0.018800
vn 0.441400 -0.773800 -0.454400
vn -0.203700 -0.978900 -0.018800
vn 0.235000 0.418500 -0.877300
vn 0.352200 0.855100 -0.380500
vn 0.235000 -0.418500 -0.877300
vn 0.352200 -0.855100 -0.380500
vn 0.028800 0.272700 -0.961700
vn -0.996800 0.079400 -0.009700
vn -0.206800 -0.972500 0.107300
vn -0.950100 -0.276000 0.145200
vn 0.413800 0.879500 -0.235300
vn -0.310500 0.928400 0.204000
vn 0.413700 -0.879500 -0.235300
vn -0.310500 -0.928400 0.204000
vn 0.909400 -0.384900 0.157700
vn 0.909400 0.384900 0.157700
vn 0.706900 -0.537900 -0.459200
vn 0.215800 -0.440700 -0.871400
vn 0.706900 0.537900 -0.459200
vn 0.215800 0.440700 -0.871400
vn -0.906900 -0.289200 -0.306500
vn -0.906900 0.289200 -0.306500
vn 0.701300 -0.541300 -0.463800
vn 0.701300 0.541300 -0.463800
vn -0.005000 -0.986200 -0.165600
vn -0.005000 0.986200 -0.165600
vn 0.242800 -0.343300 -0.907300
vn 0.108600 0.874800 -0.472200
vn 0.279900 0.064000 -0.957900
vn 0.242800 0.343300 -0.907300
vn 0.279900 -0.064000 -0.957900
vn 0.108600 -0.874800 -0.472200
usemtl HEADSLAVE
s off
f 47/1/1 46/2/1 57/1/1
f 51/3/2 43/4/2 50/5/2
f 52/6/3 34/7/3 47/1/3
f 63/8/4 54/9/4 38/10/4
f 7/11/5 64/12/5 6/13/5
f 20/14/6 6/13/6 61/15/6
f 65/12/7 7/11/7 6/13/7
f 6/13/8 20/14/8 60/15/8
f 32/16/9 52/6/9 58/17/9
f 35/18/10 3/19/10 24/20/10
f 10/21/11 9/22/11 11/23/11
f 10/24/12 11/25/12 42/26/12
f 12/22/13 13/21/13 14/23/13
f 14/25/14 13/24/14 41/26/14
f 14/23/15 15/27/15 12/22/15
f 13/24/16 12/28/16 41/26/16
f 16/27/17 11/23/17 9/22/17
f 9/28/18 10/24/18 42/26/18
f 4/29/19 40/30/19 33/7/19
f 18/31/20 4/29/20 20/32/20
f 53/6/21 19/16/21 59/17/21
f 19/16/22 53/6/22 17/33/22
f 7/34/23 66/35/23 45/36/23
f 52/6/24 32/16/24 39/33/24
f 2/37/25 43/4/25 49/5/25
f 31/38/26 2/37/26 49/5/26
f 29/29/27 22/31/27 20/32/27
f 22/31/28 23/30/28 39/33/28
f 22/31/29 29/29/29 23/30/29
f 43/4/30 2/37/30 24/20/30
f 25/19/31 24/20/31 2/37/31
f 8/39/32 28/39/32 35/18/32
f 47/1/33 58/17/33 52/6/33
f 50/5/34 59/17/34 36/10/34
f 55/9/35 62/8/35 36/10/35
f 59/17/36 57/1/36 53/6/36
f 24/20/37 3/19/37 30/37/37
f 3/19/38 35/18/38 28/39/38
f 3/19/39 57/1/39 27/38/39
f 56/40/40 20/32/40 4/29/40
f 47/1/41 34/7/41 46/2/41
f 30/37/42 27/38/42 50/5/42
f 27/38/43 30/37/43 3/19/43
f 47/1/44 25/19/44 31/38/44
f 2/37/45 31/38/45 25/19/45
f 58/17/46 38/10/46 32/16/46
f 38/10/47 54/9/47 32/16/47
f 47/1/48 57/1/48 28/39/48
f 57/1/49 3/19/49 28/39/49
f 23/30/50 29/29/50 34/7/50
f 46/2/51 34/7/51 29/29/51
f 35/18/52 25/19/52 8/39/52
f 25/19/53 35/18/53 24/20/53
f 36/10/54 59/17/54 19/16/54
f 55/9/55 36/10/55 19/16/55
f 37/41/56 26/42/56 36/10/56
f 26/42/57 37/41/57 48/43/57
f 58/17/58 49/5/58 38/10/58
f 21/42/59 37/41/59 38/10/59
f 66/35/60 7/34/60 44/36/60
f 40/30/61 18/31/61 17/33/61
f 4/29/62 18/31/62 40/30/62
f 15/44/63 14/25/63 41/26/63
f 12/28/64 15/44/64 41/26/64
f 11/25/65 16/44/65 42/26/65
f 16/44/66 9/28/66 42/26/66
f 30/37/67 43/4/67 24/20/67
f 43/4/68 30/37/68 50/5/68
f 54/9/69 63/8/69 44/36/69
f 62/8/70 55/9/70 45/36/70
f 33/7/71 46/2/71 4/29/71
f 4/29/72 46/2/72 56/40/72
f 25/19/73 47/1/73 8/39/73
f 8/39/48 47/1/48 28/39/48
f 37/41/74 21/42/74 48/43/74
f 43/4/75 51/3/75 49/5/75
f 38/10/76 49/5/76 21/42/76
f 48/43/77 21/42/77 49/5/77
f 50/5/78 36/10/78 26/42/78
f 26/42/79 48/43/79 50/5/79
f 51/3/80 50/5/80 48/43/80
f 49/5/81 51/3/81 48/43/81
f 39/33/82 23/30/82 52/6/82
f 52/6/83 23/30/83 34/7/83
f 40/30/84 17/33/84 53/6/84
f 40/30/85 53/6/85 33/7/85
f 32/16/86 54/9/86 39/33/86
f 54/9/87 44/36/87 39/33/87
f 55/9/88 19/16/88 17/33/88
f 45/36/89 55/9/89 17/33/89
f 20/32/90 56/40/90 29/29/90
f 46/2/91 29/29/91 56/40/91
f 33/7/92 53/6/92 57/1/92
f 33/7/93 57/1/93 46/2/93
f 58/17/94 31/38/94 49/5/94
f 47/1/95 31/38/95 58/17/95
f 27/38/96 59/17/96 50/5/96
f 27/38/97 57/1/97 59/17/97
f 1/45/98 6/13/98 60/15/98
f 6/13/99 5/45/99 61/15/99
f 62/8/100 45/36/100 66/35/100
f 62/8/101 37/41/101 36/10/101
f 44/36/102 63/8/102 66/35/102
f 37/41/103 63/8/103 38/10/103
f 64/12/104 5/45/104 6/13/104
f 1/45/105 65/12/105 6/13/105
f 66/35/106 37/41/106 62/8/106
f 37/41/107 66/35/107 63/8/107
f 67/46/108 68/47/108 69/48/108
f 71/47/109 70/46/109 72/48/109
f 73/49/110 67/46/110 69/48/110
f 75/50/111 74/51/111 76/52/111
f 77/53/112 75/50/112 76/52/112
f 70/46/113 78/49/113 72/48/113
f 80/50/114 79/53/114 81/52/114
f 82/51/115 80/50/115 81/52/115
