# Blender v2.75 (sub 0) OBJ File: 'Empty.blend'
# www.blender.org
mtllib ORC_E_WALL.mtl
o ORC_E_WALL
v -10.075998 -1.553838 -2.730608
v -1.570415 4.535979 -0.069298
v 1.895077 -1.613399 -1.666756
v -9.281780 -1.931730 0.472529
v -9.577160 3.877555 -1.800710
v -6.022231 0.692963 3.548643
v -6.138339 -1.634511 0.545989
v -6.717984 -1.634511 1.659531
v -5.331882 1.011003 3.852475
v -4.732340 -1.634511 0.758585
v -5.363794 -1.634511 1.804982
v -1.527492 0.902465 3.183155
v -0.861265 -2.200788 1.115573
v -1.646648 -2.144218 1.960918
v 1.482596 -1.613399 0.977543
v 0.128784 1.080795 3.811345
v 0.231291 -1.718577 0.816121
v 0.130276 0.593187 2.984757
v -0.028591 0.268654 3.375163
v -1.117244 2.809873 0.323568
v -1.687726 3.111894 -1.783018
v -1.693963 4.389442 -1.302765
v 0.932495 4.850078 -0.955799
v -0.181058 -1.810539 1.390630
v -2.481173 0.284502 3.687739
v -2.199927 -1.587297 0.523485
v -2.604441 -1.827333 1.059488
v -3.076215 -1.542322 0.813823
v -4.102940 0.351627 3.078511
v -3.660189 -1.634283 1.212652
v -2.544965 -0.300659 3.392973
v 0.406179 2.781707 1.246112
v -2.209281 0.079393 3.220289
v -4.990634 2.814859 0.113609
v -4.062516 4.510787 -1.082925
v -4.460667 2.427900 -2.333678
v -5.012281 3.944897 -2.017677
v -3.912854 0.769443 2.817124
v -1.622182 -2.186104 0.928551
v -9.715946 2.448578 0.119801
v -2.234322 2.249393 1.322472
v -5.006137 -0.087031 3.294042
v -1.136178 -1.613399 0.872931
v -6.881362 -1.634511 0.777804
v -0.249200 -1.689631 0.767942
v -2.681497 -1.570491 0.480612
v -3.511250 -1.513374 0.604212
v -5.224254 -1.634511 0.630757
v -1.156117 4.920820 -0.760344
v -0.934453 -2.105846 1.724354
v -8.794478 4.156705 -0.988831
v -6.176013 0.164465 2.700987
v -6.298187 -1.634511 1.666549
v -1.669366 3.829901 0.052848
v -1.443218 4.596276 -1.390291
v 0.926795 4.293711 0.227806
v 1.369348 3.347473 0.444781
v -4.546412 4.075108 -0.294787
v -3.202155 -1.571903 1.174320
v -4.390480 4.105634 -1.800222
v -1.546019 -1.613399 -1.998095
v -2.161085 1.627631 -2.457444
v -4.488904 -1.834100 0.515379
v -1.219144 0.290112 3.118885
v -1.392986 0.554805 2.784146
v -4.989354 3.625867 -0.644709
v -5.335681 4.132105 -1.410674
v -4.669072 1.661344 0.769814
v -5.093718 -1.634511 1.831251
v 0.073958 -1.810767 1.375644
v -5.544066 2.467818 0.518531
v -9.201274 3.551790 -0.219046
v -2.349776 -1.812258 1.046224
v -2.008171 4.458752 -0.791231
v -1.826598 -2.247337 1.393076
v -4.196966 1.257051 3.593353
v -5.432454 -0.061232 3.409378
v -5.979959 0.053040 3.131948
v -6.343660 -0.061232 3.279980
v -1.233919 -2.143170 1.991180
v 0.649428 4.864347 -0.503230
v -0.337732 -1.793751 1.052360
v -2.763551 -1.740919 0.733188
v -6.477666 0.102360 3.118406
v -10.098755 2.941281 -2.168393
v -3.691720 -1.617495 0.841198
v -1.202754 -2.173117 0.865141
v 1.590324 2.122435 -1.619403
v -1.605649 0.325520 3.214472
v -0.148033 0.406659 3.220583
v -4.255036 0.582915 2.943541
v 0.314074 0.519415 3.060053
v -4.510257 -1.613399 -2.442098
v -2.396717 0.159797 3.162874
v -5.519959 1.494947 -2.751155
v -3.415427 -1.634511 1.285791
v -5.363755 -1.634511 0.908246
v -1.174924 0.387263 2.904067
v -5.197005 0.339195 3.023399
v -5.534771 0.102360 3.226088
v -2.273207 -0.080561 3.397397
v -2.191542 -1.703178 0.888445
v -2.431353 -1.523170 0.418825
v -3.250881 -1.493138 0.624887
v 0.002538 -1.669394 0.698319
v 0.236243 -1.748159 1.197952
v -3.832411 0.538476 3.122996
v -6.382329 -1.634511 0.430320
v -4.787824 -1.634511 1.149432
v -1.702297 0.466034 3.012031
v -2.664767 -0.088477 3.348271
v -6.121667 -1.634511 0.940403
v -3.822014 0.768884 2.983922
v -4.951165 -1.634511 0.600389
v -5.012466 0.244604 3.134756
v -6.645310 -1.634511 0.509946
v 0.450607 2.149961 -1.834270
v 0.268875 0.473731 3.237682
v 1.378153 3.379471 -1.386443
v -8.435686 2.128803 0.353652
v -5.980752 0.244604 2.933421
vt 0.370279 -1.004837
vt 0.621640 -1.016188
vt 0.605003 -0.010874
vt 0.366677 -0.008420
vt 0.006827 -0.990460
vt 0.244079 -0.985482
vt 0.115107 -0.009784
vt 0.019241 -0.008593
vt 0.227155 -0.012546
vt 0.121584 -0.977192
vt 0.023139 -0.009088
vt 0.235602 -0.013938
vt 0.085010 -0.968045
vt 0.021068 -0.992055
vt 0.196604 -0.991814
vt 0.134251 -0.028046
vt 0.021068 -0.972175
vt 0.228982 -0.972131
vt 0.106910 -0.020484
vt 0.014334 -0.986603
vt 0.214196 -0.987268
vt 0.123570 -0.016254
vt 0.017120 -0.984540
vt 0.210940 -0.977717
vt 0.122410 -0.018780
vt 0.006736 -0.997095
vt 0.222386 -0.992928
vt 0.123866 -0.007421
vt 0.013064 -0.989323
vt 0.226619 -0.982499
vt 0.122300 -0.013900
vt 0.017876 -0.987572
vt 0.216846 -0.989499
vt 0.111557 -0.023804
vt 0.005251 -0.989830
vt 0.233060 -0.979817
vt 0.127771 -0.013985
vt 0.014305 -0.986303
vt 0.221087 -0.986322
vt 0.127639 -0.017704
vt 0.011503 -0.994709
vt 0.252512 -0.985764
vt 0.123540 -0.014033
vt 0.014319 -0.016034
vt 0.251724 -0.018338
vt 0.107767 -0.982106
vt 0.017120 -0.985619
vt 0.236592 -0.984610
vt 0.130304 -0.018426
vt 0.023260 -0.989398
vt 0.214116 -0.985380
vt 0.120668 -0.011137
vt 0.016175 -0.975140
vt 0.236004 -0.984919
vt 0.126768 -0.023449
vt 0.018408 -0.986402
vt 0.217140 -0.977107
vt 0.123692 -0.017803
vt 0.002594 -0.993079
vt 0.224478 -0.990820
vt 0.127619 -0.012559
vt 0.031006 -0.965385
vt 0.221287 -0.962464
vt 0.112612 -0.034928
vt 0.019368 -0.983276
vt 0.252358 -0.985184
vt 0.140446 -0.016585
vt 0.005279 -0.993064
vt 0.227045 -0.988762
vt 0.122410 -0.024994
vt 0.007280 -0.990192
vt 0.213193 -0.994339
vt 0.111851 -0.007101
vt 0.005752 -0.994761
vt 0.248140 -0.987026
vt 0.127062 -0.011669
vt 0.244700 -0.006785
vt 0.015838 -0.005834
vt 0.111851 -0.982630
vt 0.047831 -0.980953
vt 0.243200 -0.982044
vt 0.122122 -0.019601
vt 0.010129 -0.988316
vt 0.248331 -0.983852
vt 0.107518 -0.014886
vt 0.023069 -0.990192
vt 0.213193 -0.984677
vt 0.119745 -0.019178
vt 0.241718 -0.008574
vt 0.007932 -0.013486
vt 0.119734 -0.982004
vt 0.240863 -0.016900
vt 0.023455 -0.017695
vt 0.107627 -0.985499
vt 0.929612 -1.678265
vt -0.051626 -1.665592
vt 0.700144 -0.559988
vt -0.074007 -0.922692
vt 1.119468 -0.917288
vt 0.856598 0.038818
vt 0.137919 -0.016779
vt 0.482108 -0.537240
vt -1.025182 -1.530130
vt -1.023711 -0.013158
vt 1.277948 -0.657625
vt 1.049911 0.580259
vt -0.403753 -0.548845
vt -0.173071 -1.087099
vt 0.926929 -1.092304
vt 0.895123 -0.464007
vt 0.219943 -0.441009
vt 0.905975 -0.391288
vt 0.911116 -1.368324
vt -0.231459 -0.575594
vt 1.211002 -0.746133
vt 1.140216 -0.225751
vt 0.414602 -0.112157
vt 0.975130 -0.959899
vt 1.007478 0.116085
vt 0.872947 -0.881153
vt 0.725061 -0.160608
vt 0.127947 -0.754066
vt -0.111536 -0.700287
vt 0.938464 -0.418142
vt 0.701081 0.349713
vt -0.028097 -0.240548
vt 0.926612 0.464540
vt -0.205438 -0.280016
vt -0.259237 -1.371675
vt 1.110763 -0.001676
vt -0.006454 -0.066482
vt 1.252331 0.085782
vt 0.929251 -0.095113
vt 1.269036 -0.877131
vt 0.107048 0.362476
vt 1.060802 0.311848
vt 0.031969 0.380223
vt 0.931174 0.474067
vt 0.899347 -0.003956
vt 0.287736 -0.783698
vt 1.779643 -0.756183
vt 1.543912 -0.146022
vt 0.893121 -0.780395
vt 0.714716 -0.059770
vt -0.036878 -0.983147
vt 0.009522 -0.715478
vt 0.954522 -0.976396
vt 0.819925 -0.031396
vt -0.845225 0.315810
vt 0.661845 0.312759
vt 0.839318 -0.207996
vt -0.128621 0.731963
vt -0.047169 0.340846
vt 0.111353 -0.205798
vt 0.159573 -0.927524
vt 0.867784 -0.043819
vt 0.164174 -0.043701
vt 0.045161 -0.652190
vt 0.270400 -0.136153
vt 1.285261 0.058397
vt -0.263489 0.380867
vt -0.048638 -0.115934
vt 0.946001 0.929541
vt 0.030403 0.018294
vt 0.950208 0.318704
vt 0.018964 0.343844
vt 1.014999 -0.632201
vt 0.040558 -0.260852
vt 0.596501 0.007697
vt 0.111419 -0.088213
vt 0.475372 -0.147659
vt 0.153727 -0.053147
vt 1.665767 0.232428
vt 0.254643 0.275052
vt 0.007477 -0.962576
vt 1.006187 0.375473
vt 0.298099 -0.230602
vt -0.020964 0.071211
vt 0.998429 0.142585
vt 0.117613 1.024075
vt 0.251802 0.527424
vt 0.142013 0.177797
vt 0.791055 -0.249535
vt 0.821172 -1.548690
vt 0.090660 -0.115488
vt -0.178697 0.074016
vn -0.982200 0.046200 0.182000
vn 0.905800 -0.362000 0.220200
vn -0.999100 -0.043600 -0.000000
vn 0.835600 -0.401600 0.374900
vn -0.934600 -0.148500 0.323200
vn 0.651900 -0.322100 0.686500
vn -0.725000 0.538100 -0.430000
vn 0.497500 0.605000 -0.621700
vn -0.866000 -0.311100 0.391500
vn 0.627400 -0.523500 0.576600
vn -0.869500 -0.306100 0.387500
vn 0.999600 -0.022200 -0.014700
vn -0.851700 -0.428300 0.301900
vn 0.999500 0.028300 -0.014000
vn -0.958100 -0.278200 0.068800
vn -0.206700 -0.694000 0.689600
vn -0.856700 -0.420900 0.298300
vn 0.545500 -0.683200 0.485500
vn 0.965100 -0.204500 0.163700
vn 0.465400 0.753600 -0.464100
vn -0.869300 -0.439300 0.226800
vn 0.281100 -0.587600 0.758800
vn -0.140600 0.563100 -0.814400
vn 0.151800 -0.683500 0.714000
vn 0.996600 0.050300 0.065100
vn -0.181800 0.778700 -0.600400
vn -0.242800 0.696300 -0.675500
vn -0.278600 0.820300 -0.499600
vn 0.002900 0.696300 -0.717800
vn -0.070500 0.769900 -0.634300
vn 0.992700 0.042400 0.112700
vn -0.664000 0.641400 -0.384400
vn 0.403400 0.705900 -0.582200
vn -0.011700 -0.716100 0.697900
vn 0.944200 -0.004700 0.329500
vn 0.182600 -0.414300 0.891600
vn 0.979500 -0.000800 0.201300
vn -0.605400 0.480300 -0.634700
vn 0.674900 0.473100 -0.566300
vn -0.067800 -0.713800 0.697100
vn 0.041800 -0.691400 0.721200
vn 0.077800 -0.835200 0.544400
vn -0.896700 0.256400 -0.360800
vn 0.709800 0.590100 -0.384600
vn -0.534200 0.538100 -0.652000
vn -0.915100 -0.352200 0.196400
vn 0.218400 -0.390100 0.894500
vn 0.454200 -0.631400 0.628500
vn 0.998700 -0.034900 -0.037700
vn -0.862900 -0.323100 0.388600
vn 0.455100 -0.464600 0.759600
vn -0.064100 -0.450800 0.890300
vn -0.942500 0.272200 -0.193800
vn -0.955200 0.265100 -0.131400
vn -0.611800 0.716300 -0.335600
vn -0.731700 0.070300 0.678000
vn -0.819400 0.272200 -0.504400
vn 0.535000 0.510800 -0.673000
vn -0.929200 -0.157100 0.334600
vn 0.241700 0.019900 0.970100
vn -0.710100 0.605900 -0.358700
vn -0.836000 -0.125000 0.534400
vn -0.544500 0.605900 -0.579900
vn -0.853400 -0.321800 0.410100
vn 0.961600 -0.193100 0.195000
vn 0.484400 0.753900 -0.443800
vn -0.751500 0.587800 -0.299400
vn 0.426900 0.892800 -0.143400
vn 0.512200 -0.495100 0.701800
vn -0.795500 0.455300 -0.399900
vn 0.850300 0.391200 0.352000
vn 0.683000 0.649000 -0.335200
vn -0.678100 0.570700 -0.463100
vn 0.606800 0.656700 -0.447800
vn -0.676700 0.514300 -0.526800
vn -0.901700 -0.090200 0.422900
vn 0.352200 -0.451400 0.819900
vn 0.881600 0.145000 0.449200
vn 0.750100 -0.543900 0.376200
vn 0.428200 0.767900 -0.476400
vn 0.651000 0.617800 -0.441000
vn 0.460900 0.617800 -0.637100
vn 0.728100 -0.469300 0.499600
vn 0.971800 0.088200 0.218800
vn 0.183700 -0.471400 0.862600
vn 0.289400 0.737300 -0.610400
vn 0.989600 -0.030100 0.140500
vn -0.604000 0.488800 -0.629500
vn -0.851000 0.142700 0.505400
vn -0.747500 0.609100 -0.265000
vn -0.703100 -0.257300 0.662900
vn 0.998700 -0.030100 -0.042200
vn 0.897600 0.197400 0.394100
vn 0.544700 0.785400 -0.294000
vn 0.400500 0.729900 -0.553900
vn 0.952400 0.146600 0.267300
vn 0.605300 0.663700 -0.439300
vn -0.513500 0.729100 -0.452500
vn 0.614300 -0.462400 0.639400
vn 0.969600 -0.007600 0.244800
vn 0.998400 0.042100 0.036600
vn 0.327500 0.774000 -0.542000
vn 0.147200 -0.111400 -0.982800
vn -0.008900 -0.002900 1.000000
vn -0.061800 0.042100 0.997200
vn -0.086900 0.123200 -0.988600
vn -0.969800 -0.077500 0.231300
vn 0.985000 0.078400 0.153700
vn -0.513500 0.107900 0.851300
vn 0.039600 0.841700 0.538400
vn -0.003500 0.045400 -0.999000
vn -0.952900 -0.197900 0.229700
vn 0.964100 0.097600 -0.247100
vn -0.044200 0.027300 -0.998600
vn 0.085500 0.241600 -0.966600
vn 0.601500 0.098900 0.792800
vn -0.042700 0.568200 0.821800
vn -0.516300 0.058900 0.854400
vn 0.637600 0.092300 0.764800
vn -0.039200 0.634300 0.772100
vn 0.134300 0.349300 -0.927300
vn -0.004000 0.801100 0.598500
vn -0.936900 0.251600 -0.242700
vn 0.053300 0.300600 -0.952300
vn 0.938400 0.309100 0.154300
vn -0.049400 0.186400 -0.981200
vn -0.986800 -0.025000 0.159700
vn -0.092100 0.328700 0.939900
vn -0.293500 0.398200 0.869100
vn -0.201900 -0.081500 0.976000
vn -0.039800 -0.070700 0.996700
vn -0.039100 0.882800 0.468200
vn -0.979200 0.184000 -0.085900
vn -0.028300 0.953400 -0.300500
vn -0.848300 0.470400 0.243200
vn 0.840300 0.506300 0.193700
vn 0.458300 0.451300 0.765700
vn -0.012300 0.891200 -0.453500
vn -0.712200 0.701000 -0.036600
vn 0.003400 0.788900 0.614500
vn 0.995600 0.032100 0.087500
vn 0.864000 0.454000 0.217600
vn 0.441600 0.391600 0.807200
vn -0.043300 0.885400 0.462900
vn -0.992100 0.073700 -0.101300
vn -0.001000 0.870900 -0.491500
vn -0.720600 0.690700 -0.060600
vn 0.095800 -0.007500 -0.995400
vn 0.142400 0.371500 -0.917500
vn 0.759600 0.052300 -0.648200
vn -0.095700 -0.141900 0.985200
vn 0.060400 0.692800 0.718600
vn 0.999500 -0.022000 -0.021800
vn 0.693300 0.704400 0.152100
vn -0.031000 0.950400 -0.309600
vn -0.332200 0.394700 0.856600
vn -0.940100 -0.072700 0.332900
vn 0.531200 0.129700 0.837200
vn 0.105700 0.679100 0.726400
vn -0.576800 0.762100 0.294000
vn 0.083800 0.761500 0.642700
vn 0.627400 0.723700 0.287300
vn 0.040700 0.993100 -0.109600
vn 0.589800 0.729800 0.345900
vn 0.032800 0.999400 -0.011000
vn -0.880300 0.377700 0.287000
vn -0.002600 0.366800 -0.930300
vn 0.137800 0.316600 -0.938500
vn 0.957800 0.287400 0.009600
vn 0.050700 -0.082500 -0.995300
vn 0.015700 0.393500 -0.919200
vn 0.350700 0.020800 -0.936300
vn 0.114500 0.262600 -0.958100
vn 0.185800 0.027600 -0.982200
vn 0.186000 0.209300 -0.960000
vn 0.986300 0.165100 0.007600
vn -0.089200 0.330200 0.939700
vn -0.164100 0.063000 0.984400
usemtl ORC_E_WALL_2
s off
f 44/1/1 8/2/1 79/3/1
f 53/1/2 112/2/2 78/4/2
f 97/1/3 11/2/3 77/3/3
f 69/1/4 109/2/4 42/4/4
f 75/1/5 14/2/5 89/3/5
f 80/1/6 50/2/6 64/4/6
f 18/4/7 45/2/7 90/3/7
f 18/3/8 92/4/8 17/1/8
f 19/3/9 90/4/9 82/1/9
f 19/4/10 70/2/10 118/3/10
f 82/1/11 24/2/11 19/3/11
f 106/1/12 17/2/12 92/3/12
f 83/1/13 27/2/13 31/3/13
f 102/1/14 26/2/14 33/3/14
f 86/1/15 30/2/15 29/3/15
f 96/2/16 29/4/16 30/1/16
f 31/3/17 111/4/17 83/1/17
f 31/4/18 73/2/18 101/3/18
f 33/3/19 101/4/19 102/1/19
f 94/3/20 33/4/20 26/1/20
f 29/3/21 91/4/21 86/1/21
f 29/4/22 96/2/22 107/3/22
f 39/2/23 65/4/23 87/1/23
f 77/4/24 69/2/24 42/3/24
f 115/3/25 42/4/25 109/1/25
f 116/2/26 52/4/26 108/1/26
f 45/2/27 18/4/27 105/1/27
f 46/2/28 94/4/28 103/1/28
f 47/2/29 38/4/29 104/1/29
f 48/2/30 99/4/30 114/1/30
f 50/1/31 13/2/31 98/3/31
f 52/4/32 116/1/32 84/3/32
f 52/3/33 121/4/33 7/1/33
f 53/2/34 79/4/34 8/1/34
f 59/1/35 28/2/35 113/3/35
f 89/4/36 80/2/36 64/3/36
f 98/3/37 64/4/37 50/1/37
f 65/4/38 39/2/38 110/3/38
f 65/3/39 98/4/39 13/1/39
f 69/2/40 77/4/40 11/1/40
f 70/2/41 19/4/41 24/1/41
f 73/2/42 31/4/42 27/1/42
f 39/1/43 75/2/43 110/4/43
f 38/3/44 113/4/44 28/1/44
f 38/4/45 47/2/45 91/3/45
f 77/3/46 100/4/46 97/1/46
f 77/5/47 42/6/47 9/7/47
f 79/4/48 53/2/48 78/3/48
f 121/3/49 78/4/49 112/2/49
f 79/3/50 84/4/50 44/1/50
f 79/8/51 78/9/51 6/10/51
f 80/2/52 89/4/52 14/1/52
f 45/1/53 82/2/53 90/4/53
f 46/1/54 83/2/54 111/3/54
f 52/11/55 84/12/55 6/13/55
f 84/14/56 79/15/56 6/16/56
f 47/1/57 86/2/57 91/4/57
f 13/1/58 87/2/58 65/3/58
f 89/3/59 110/4/59 75/1/59
f 89/17/60 64/18/60 12/19/60
f 18/20/61 90/21/61 16/22/61
f 90/23/62 19/24/62 16/25/62
f 38/26/63 91/27/63 76/28/63
f 91/29/64 29/30/64 76/31/64
f 92/3/65 118/4/65 106/1/65
f 92/32/66 18/33/66 16/34/66
f 94/4/67 46/1/67 111/3/67
f 33/35/68 94/36/68 25/37/68
f 96/1/69 59/2/69 107/4/69
f 48/2/70 97/1/70 100/3/70
f 64/38/71 98/39/71 12/40/71
f 98/41/72 65/42/72 12/43/72
f 99/4/73 48/2/73 100/3/73
f 99/3/74 115/4/74 10/1/74
f 99/44/75 100/45/75 9/46/75
f 100/47/76 77/48/76 9/49/76
f 31/50/77 101/51/77 25/52/77
f 101/53/78 33/54/78 25/55/78
f 73/1/79 102/2/79 101/3/79
f 26/1/80 103/2/80 94/3/80
f 28/1/81 104/2/81 38/3/81
f 17/1/82 105/2/82 18/3/82
f 70/1/83 106/2/83 118/4/83
f 113/3/84 107/4/84 59/1/84
f 29/56/85 107/57/85 76/58/85
f 7/1/86 108/2/86 52/3/86
f 109/1/87 10/2/87 115/3/87
f 65/59/88 110/60/88 12/61/88
f 110/62/89 89/63/89 12/64/89
f 94/65/90 111/66/90 25/67/90
f 111/68/91 31/69/91 25/70/91
f 112/1/92 7/2/92 121/4/92
f 107/71/93 113/72/93 76/73/93
f 113/74/94 38/75/94 76/76/94
f 10/1/95 114/2/95 99/3/95
f 42/77/96 115/78/96 9/79/96
f 115/80/97 99/81/97 9/82/97
f 116/1/98 44/2/98 84/3/98
f 19/83/99 118/84/99 16/85/99
f 118/86/100 92/87/100 16/88/100
f 78/89/101 121/90/101 6/91/101
f 121/92/102 52/93/102 6/94/102
usemtl ORC_E_WALL_1
f 61/95/103 93/96/103 62/97/103
f 4/98/104 63/99/104 71/100/104
f 71/100/105 120/101/105 4/98/105
f 95/102/106 1/103/106 85/104/106
f 4/105/107 40/106/107 1/107/107
f 15/108/108 3/109/108 88/110/108
f 32/111/109 20/112/109 43/113/109
f 72/114/110 66/115/110 67/116/110
f 117/117/111 61/118/111 21/119/111
f 20/120/112 2/121/112 21/122/112
f 20/123/113 21/124/113 22/125/113
f 62/97/114 93/96/114 36/126/114
f 21/119/115 55/127/115 117/117/115
f 57/128/116 32/111/116 15/129/116
f 2/130/117 32/111/117 56/131/117
f 32/111/118 2/130/118 20/112/118
f 20/132/119 41/133/119 43/134/119
f 58/135/120 41/133/120 54/136/120
f 60/137/121 22/138/121 21/139/121
f 58/140/122 54/141/122 74/142/122
f 34/143/123 58/144/123 36/145/123
f 36/126/124 60/137/124 62/97/124
f 34/146/125 36/147/125 37/148/125
f 5/149/126 37/150/126 36/151/126
f 40/106/127 85/152/127 1/107/127
f 71/100/128 72/153/128 120/101/128
f 41/133/129 58/135/129 68/154/129
f 41/133/130 68/154/130 63/155/130
f 43/113/131 15/129/131 32/111/131
f 81/156/132 49/157/132 2/158/132
f 2/121/133 55/159/133 21/122/133
f 37/160/134 5/161/134 51/162/134
f 40/106/135 72/163/135 85/152/135
f 22/125/136 54/164/136 20/123/136
f 54/136/137 41/133/137 20/132/137
f 23/165/138 55/166/138 49/157/138
f 2/158/139 49/157/139 55/166/139
f 2/158/140 56/167/140 81/156/140
f 88/110/141 57/168/141 15/108/141
f 23/169/142 56/170/142 57/168/142
f 56/131/143 32/111/143 57/128/143
f 74/142/144 35/171/144 58/140/144
f 58/144/145 60/172/145 36/145/145
f 22/173/146 60/174/146 35/171/146
f 58/140/147 35/171/147 60/174/147
f 3/175/148 61/118/148 117/117/148
f 21/139/149 62/97/149 60/137/149
f 62/97/150 21/139/150 61/95/150
f 63/155/151 43/134/151 41/133/151
f 72/153/152 71/100/152 66/176/152
f 37/148/153 66/177/153 34/146/153
f 37/160/154 67/116/154 66/115/154
f 51/162/155 67/116/155 37/160/155
f 58/135/156 34/178/156 68/154/156
f 34/178/157 63/155/157 68/154/157
f 34/179/158 71/100/158 63/99/158
f 66/176/159 71/100/159 34/179/159
f 72/114/160 51/162/160 5/161/160
f 67/116/161 51/162/161 72/114/161
f 22/173/162 74/142/162 54/141/162
f 35/171/163 74/142/163 22/173/163
f 23/165/164 81/156/164 56/167/164
f 49/157/165 81/156/165 23/165/165
f 72/163/166 5/180/166 85/152/166
f 85/104/167 5/149/167 95/102/167
f 55/127/168 23/181/168 119/182/168
f 57/168/169 119/183/169 23/169/169
f 93/184/170 1/103/170 95/102/170
f 36/151/171 95/102/171 5/149/171
f 95/102/172 36/151/172 93/184/172
f 119/182/173 117/117/173 55/127/173
f 117/117/174 88/185/174 3/175/174
f 117/117/175 119/182/175 88/185/175
f 57/168/176 88/110/176 119/183/176
f 72/153/177 40/186/177 120/101/177
f 40/186/178 4/98/178 120/101/178
