# Blender v2.75 (sub 0) OBJ File: 'Empty.blend'
# www.blender.org
mtllib ORC_BROKEN_COLUMN.mtl
o ORC_BROKEN_COLUMN
v -87.010597 -13.406037 6.490049
v -87.124680 -10.089057 9.233117
v -87.118492 -15.663503 9.023270
v -85.166405 -9.765757 2.945997
v -86.875473 -13.347661 1.654223
v -84.635422 -13.993454 1.594318
v -90.335800 -12.703720 10.270961
v -88.358810 -6.457061 12.518546
v -89.177696 -7.631092 14.129016
v -86.533592 -12.150064 4.129806
v -79.933456 -12.433965 12.273374
v -78.351013 -13.170443 11.035410
v -88.351532 -1.130761 16.090797
v -90.328629 -6.827372 13.257069
v -89.996597 -1.135901 16.107611
v -86.548569 -10.505783 4.094650
v -88.434624 -14.374255 7.721258
v -85.767014 -13.461923 2.775951
v -88.358810 -0.657057 14.541377
v -88.355225 -7.205509 13.983861
v -89.996597 -0.657057 14.541383
v -88.358810 -6.398684 12.492810
v -84.425293 -12.057336 4.076015
v -89.996597 -6.416161 12.449337
v -88.019608 -12.505498 10.270984
v -85.678925 -13.689336 0.466646
v -85.902214 -9.642048 0.964966
v -84.033623 -10.992620 1.644840
v -89.218170 -10.714857 8.793036
v -87.793221 -11.061552 10.371592
v -78.396011 -11.982144 10.794138
v -88.358810 -12.851635 11.013132
v -86.372124 -13.388356 7.302051
v -89.996597 -11.986518 9.609263
v -84.220146 -10.424630 4.330981
v -79.598526 -13.243249 12.066701
v -89.996597 -6.402025 12.492816
v -87.783905 -10.016402 8.495407
v -90.328629 -7.024829 13.158796
v -88.355225 -7.395077 13.833480
v -89.196831 -11.163672 9.578916
v -89.177696 -7.204287 14.302222
v -85.084999 -9.683537 0.624218
v -88.358810 -9.846704 10.635844
v -84.893692 -13.761070 2.412784
v -84.302139 -10.181495 2.561962
v -89.177696 -1.235073 16.431988
v -79.747002 -11.952700 12.019021
v -86.767944 -11.336170 4.375713
v -89.177704 -6.260466 12.182368
v -89.177704 -0.557885 14.217003
v -85.361267 -12.435047 4.239509
v -86.512848 -13.376657 0.825278
v -86.501434 -13.199791 8.534470
v -89.177704 -11.039091 9.663335
v -88.572876 -11.215960 10.306745
v -88.170601 -12.382463 7.165375
v -88.446655 -13.858836 7.000271
v -86.181168 -11.035411 2.490310
v -86.245308 -9.703361 1.779916
v -90.321449 -0.905922 15.355374
v -88.029526 -6.787247 13.165421
v -88.029526 -6.860299 13.264205
v -89.996597 -7.115237 13.930579
v -88.039452 -0.910484 15.370306
v -84.198830 -11.224510 3.873097
v -84.961426 -13.824517 0.787311
v -78.995468 -13.523924 11.594924
v -90.037018 -11.801071 11.665721
v -87.193398 -10.570666 9.941095
v -89.177704 -6.276984 12.230361
v -89.996597 -7.337311 13.840829
v -89.177696 -12.995027 11.320531
v -88.592216 -10.145645 8.440686
v -86.511795 -13.623176 2.449084
v -84.550461 -12.334995 0.660438
v -85.522118 -10.671951 4.152179
v -78.149307 -12.340242 10.799343
v -87.403290 -12.461039 9.830247
vt 1.549655 1.842753
vt 1.424333 3.262048
vt 1.966295 2.316411
vt -13.236590 1.919021
vt -13.588386 1.650898
vt -13.516766 2.522392
vt -13.947679 2.829687
vt -13.671032 1.155369
vt -14.349589 2.683922
vt -14.092127 -1.138329
vt -14.305408 -2.598902
vt -14.616523 -2.484113
vt 6.950978 5.527784
vt 8.011597 4.033222
vt 6.721910 5.304294
vt -8.920795 8.021899
vt -9.820269 6.758912
vt -9.954905 6.925302
vt -2.898755 12.572871
vt -0.387368 14.731923
vt -2.694681 12.356599
vt -11.432086 -4.175718
vt -10.455308 -6.267520
vt -11.707230 -4.305032
vt -11.765642 4.553274
vt -10.630946 6.248685
vt -11.528080 4.439671
vt 9.469110 -2.536739
vt 6.670980 -2.749462
vt 9.493231 -2.312484
vt 6.707239 1.023470
vt 9.165545 1.117689
vt 9.112255 0.890914
vt -14.417142 -1.917096
vt -14.664174 -0.825158
vt -14.283414 -1.492129
vt -0.413339 -4.846453
vt -0.426702 -3.985904
vt -0.149875 -4.775859
vt 6.978014 -4.647178
vt 7.750935 -3.076463
vt 7.192942 -4.741353
vt 7.799878 3.378649
vt 6.783514 5.390083
vt 8.075212 3.501649
vt -11.167727 -4.042051
vt -10.197841 -6.118424
vt 7.943859 -3.226416
vt 7.396699 -4.837540
vt -0.338434 15.129953
vt 6.889686 -5.681458
vt 7.493440 -4.917563
vt 7.049608 -5.812768
vt 7.882621 -4.739572
vt 8.041314 3.500934
vt -0.335986 5.060163
vt -0.632032 4.629621
vt -0.616185 5.555386
vt -0.191471 -3.555288
vt -0.912953 4.407974
vt -0.866168 5.503907
vt -14.423650 -0.715281
vt 1.184767 3.189780
vt -13.496952 1.158563
vt 6.660264 1.235919
vt 9.129280 1.332593
vt -9.087275 8.131773
vt 2.169536 -2.974946
vt 2.417498 -3.032519
vt 1.864618 -3.951469
vt -8.990398 -8.332757
vt -9.143965 -8.563981
vt -10.226745 -7.055261
vt 9.470768 -2.751259
vt 6.647063 -2.961568
vt -10.705632 -6.461950
vt 1.636807 -3.869390
vt -10.055339 -6.853712
vt -10.109104 7.058366
vt 1.637979 3.386314
vt -10.869546 6.330499
vt -14.396821 -1.122437
vt 6.739851 -5.570568
vt 7.702053 -4.280795
vt -14.068442 0.954800
vt 7.045516 5.516494
vt 6.692841 -2.618794
vt 8.142518 -3.332908
vt -0.314784 14.417142
vt 0.076568 -3.517224
vt 0.122688 -4.766190
vt 1.852107 -3.034443
vt -8.938507 -7.982697
vt -13.877872 1.302232
vt -14.197486 -0.672855
vt -13.939783 -1.859518
vt 2.159840 2.457960
vt -14.549312 1.555381
vt 7.300867 5.630876
vt -10.421513 6.113366
vt -11.312786 4.342909
vt 8.306869 3.636355
vt -13.898736 -2.104773
vt -3.044602 12.778283
vt 7.185617 5.683414
vt 8.559727 3.775261
vt 1.467230 -3.756159
vt -9.880701 -6.718263
vt -9.248865 8.244013
vt -14.702864 2.764680
vt -0.374958 5.527127
vt -14.051215 -2.647457
vt 6.765774 0.934741
vt -13.704679 1.258644
vt -13.487755 -2.190706
vt -13.265585 -2.422529
vt -13.574699 -2.823391
vt -13.636601 -2.603630
vt -1.480081 -12.859299
vt -1.334240 -15.033053
vt -1.722927 -15.021740
vt -2.475113 -13.690496
vt -1.600026 -14.012918
vt -3.595920 -14.839648
vt -1.257593 -14.839650
vt -2.129640 14.397837
vt -2.611645 14.214293
vt -2.137326 15.286091
vt -14.424060 -2.360245
vt -13.798800 -1.411950
vt -13.735106 -2.539684
vt -2.272020 -14.324785
vt -2.321649 -15.442123
vt -2.703914 -14.488560
vt 5.432084 -3.741508
vt 6.000268 -3.287103
vt 5.921099 -4.439591
vt 5.061252 -4.111282
vt -0.305233 -14.776801
vt 1.113499 -13.946539
vt 0.241522 -15.179225
vt -11.687222 2.302162
vt -10.609386 2.542207
vt -10.509370 2.097754
vt -1.816058 14.519171
vt -2.197733 14.693046
vt -1.816046 15.619162
vt -15.395945 -3.082541
vt -15.167330 -2.340620
vt -13.586880 -2.944223
vt -1.676697 -13.065639
vt -13.039910 -1.248069
vt -11.021918 2.780357
vt -2.610786 15.461601
vt 0.549503 -13.525815
vt -1.872934 -15.275253
vt -2.682341 -15.284078
vt -2.882391 -14.889725
vt 1.206228 -14.517855
vt 0.879081 -15.079430
vt -3.045655 14.387238
vt -3.207467 14.833323
vt -3.006695 15.278435
vt 0.812961 -13.249054
vt 0.410149 -14.174096
vt -1.876756 -13.314841
vt -10.918725 -1.432980
vt -9.967654 -0.179378
vt -9.573699 -2.589434
vt -1.441390 -12.223092
vt -3.253476 -15.666371
vt -11.563866 2.031991
vt -14.608919 -1.831133
vt -14.410592 -1.307128
vt -1.948799 14.843460
vt -1.600034 -15.666371
vt -13.128524 -2.302400
vt -14.466043 -1.699210
vt -0.392386 -14.218210
vt 3.058944 -9.768581
vt 2.787492 -8.857697
vt 3.967587 -9.025441
vt -5.537014 -2.451292
vt -5.867990 -2.464286
vt -6.156504 -1.978892
vt -2.459356 -15.994338
vt -1.920646 -14.481327
vt -3.235726 -14.005565
vt -12.941694 -1.774504
vt -11.432667 2.688874
vt 1.749809 13.894437
vt 2.953276 13.885576
vt 2.312894 12.518908
vt -0.039233 -13.693917
vt -1.751530 -14.876765
vt -14.113406 -2.222319
vt -14.576701 -2.295452
vt -15.062867 -1.660674
vt -1.322433 -12.698404
vt -10.630376 1.916341
vn -0.812000 -0.424500 0.400500
vn 0.796100 -0.080400 0.599900
vn 0.353600 -0.097200 0.930300
vn -0.364600 0.090500 -0.926700
vn -0.427500 -0.392900 0.814200
vn 0.936500 -0.157100 0.313600
vn 0.220400 -0.919000 -0.326800
vn -0.934100 0.119900 -0.336200
vn 0.396200 -0.301100 0.867400
vn -0.668500 0.390800 0.632800
vn 0.732100 0.353000 -0.582600
vn -0.711500 0.208100 -0.671100
vn -0.889700 0.106600 0.444000
vn 0.938200 0.116900 -0.325700
vn -0.420900 -0.304800 0.854400
vn -0.383400 0.310400 -0.869900
vn 0.382300 0.310500 -0.870300
vn 0.936800 0.117600 -0.329500
vn -0.241500 -0.968200 0.065700
vn 0.382800 0.448600 -0.807600
vn 0.334100 0.447200 -0.829700
vn -0.277300 -0.445700 0.851200
vn 0.951400 -0.186700 -0.245000
vn -0.921700 0.147000 0.358900
vn 0.897400 -0.165400 0.409000
vn -0.651300 0.279500 -0.705500
vn -0.710000 -0.399500 0.579900
vn 0.780400 -0.122600 0.613100
vn 0.677800 -0.348700 -0.647300
vn 0.923800 -0.176300 0.340000
vn 0.684200 0.480600 -0.548500
vn -0.937800 0.158400 -0.309100
vn -0.706900 -0.435000 0.557800
vn -0.933300 0.121000 -0.338100
vn 0.676800 0.480700 -0.557500
vn -0.939200 0.155900 -0.305800
vn 0.411100 -0.418800 0.809700
vn -0.979200 -0.186300 -0.079800
vn 0.342100 -0.315800 0.885000
vn -0.378900 0.096400 -0.920400
vn 0.933800 0.162800 -0.318500
vn 0.919500 -0.190200 0.344100
vn 0.362800 -0.101600 0.926300
vn -0.382200 -0.316100 0.868300
vn -0.584800 0.544400 0.601300
vn -0.724400 -0.382000 0.573800
vn -0.382300 0.310300 -0.870300
vn 0.285400 -0.875800 -0.389200
vn -0.901900 0.162400 -0.400200
vn 0.980800 0.179600 0.075400
vn -0.422900 0.411600 -0.807300
vn 0.147900 -0.229300 0.962100
vn -0.065200 0.497000 -0.865300
vn -0.978000 -0.177100 -0.110300
vn -0.440800 0.030400 0.897100
vn -0.912700 0.170600 -0.371400
vn -0.924100 -0.130700 0.359100
vn 0.910700 0.200600 -0.361200
vn 0.925100 -0.125400 0.358500
vn -0.910500 -0.137200 0.390200
vn 0.923800 -0.126000 0.361600
vn 0.679500 -0.342800 -0.648700
vn 0.149700 0.016700 -0.988600
vn -0.318700 -0.936000 0.149500
vn -0.942000 -0.151200 0.299600
vn 0.969000 0.150100 0.196200
vn -0.301300 0.452500 -0.839300
vn -0.914400 -0.170600 0.367000
vn 0.382300 -0.428600 0.818600
vn -0.019800 0.492400 -0.870200
vn -0.408400 0.037700 0.912000
vn 0.870100 -0.274900 -0.409000
vn 0.372800 -0.180400 -0.910200
vn 0.706400 0.479100 -0.521100
vn 0.639900 -0.115600 0.759700
vn -0.005800 -0.362200 0.932100
vn -0.589500 -0.143700 -0.794900
vn 0.976500 -0.167400 -0.136000
vn 0.100800 0.991100 0.087400
vn 0.000000 0.956300 0.292400
vn 0.001700 -0.857800 -0.514000
vn 0.083000 -0.041700 -0.995700
vn -0.080000 0.756400 0.649200
vn 0.777800 0.148500 -0.610800
vn 0.835100 0.509800 -0.206400
vn -0.382800 0.838200 0.388400
vn 0.633500 0.065300 0.771000
vn 0.078500 -0.916700 -0.391700
vn 0.059200 -0.691900 -0.719600
vn -0.224500 0.881800 0.414800
vn 0.142700 -0.036000 -0.989100
vn -0.011000 -0.871700 -0.489900
vn -0.357500 0.842800 0.402400
vn -0.081900 0.775000 0.626600
vn 0.029100 0.740100 0.671900
vn -0.446800 0.771600 0.452800
vn -0.050400 -0.990700 -0.126400
vn 0.066300 0.997100 0.037600
vn 0.629100 0.183900 -0.755200
vn 0.450000 0.891800 0.047400
vn 0.623300 0.162700 0.764800
vn -0.757300 -0.020900 -0.652700
vn 0.001900 -0.911700 -0.410800
vn -0.239000 0.179100 -0.954400
vn 0.269700 -0.179100 -0.946200
vn -0.205400 0.800400 0.563100
vn -0.792000 0.515900 0.326400
vn 0.885100 0.251500 0.391600
vn 0.003100 0.891300 0.453400
vn -0.011500 -0.899500 -0.436700
vn -0.038700 -0.925600 -0.376500
vn -0.925600 0.169200 -0.338600
vn -0.269900 -0.781000 0.563200
vn -0.285700 0.805000 0.519900
vn -0.001400 0.846300 0.532700
vn 0.034000 0.914800 0.402600
vn -0.353800 0.015700 -0.935200
vn -0.165400 0.777100 0.607200
vn 0.157200 0.986500 0.045200
vn 0.052600 -0.020900 -0.998400
vn 0.611300 0.430800 0.663900
usemtl OMWATRFLOOR02
s off
f 3/1/1 41/2/1 17/3/1
f 54/4/2 79/5/2 3/6/2
f 45/7/3 46/8/3 18/9/3
f 43/10/4 26/11/4 53/12/4
f 72/13/5 69/14/5 9/15/5
f 25/16/6 62/17/6 40/18/6
f 68/19/7 52/20/7 12/21/7
f 21/22/8 37/23/8 61/24/8
f 47/25/9 20/26/9 13/27/9
f 49/28/10 11/29/10 16/30/10
f 78/31/11 66/32/11 35/33/11
f 58/34/12 29/35/12 57/36/12
f 75/37/13 59/38/13 5/39/13
f 65/40/14 63/41/14 19/42/14
f 42/43/15 47/44/15 64/45/15
f 51/46/16 50/47/16 37/23/16
f 19/42/17 22/48/17 51/49/17
f 22/48/18 19/42/18 63/41/18
f 52/20/19 68/19/19 10/50/19
f 8/51/20 44/52/20 71/53/20
f 44/52/21 55/54/21 71/53/21
f 73/55/22 9/15/22 69/14/22
f 76/56/23 28/57/23 6/58/23
f 60/59/24 5/39/24 59/38/24
f 46/60/25 45/61/25 28/57/25
f 74/62/26 57/36/26 29/35/26
f 3/1/27 56/63/27 41/2/27
f 79/5/28 54/4/28 70/64/28
f 12/65/29 23/66/29 78/31/29
f 25/16/30 40/18/30 32/67/30
f 33/68/31 1/69/31 38/70/31
f 34/71/32 7/72/32 39/73/32
f 11/29/33 10/74/33 36/75/33
f 37/23/34 14/76/34 61/24/34
f 2/77/35 33/68/35 38/70/35
f 24/78/36 34/71/36 39/73/36
f 9/79/37 32/67/37 40/18/37
f 29/80/38 17/3/38 41/2/38
f 47/25/39 42/81/39 20/26/39
f 43/10/40 53/12/40 27/82/40
f 44/52/41 62/83/41 25/84/41
f 6/58/42 28/57/42 45/61/42
f 46/8/43 4/85/43 18/9/43
f 15/86/44 64/45/44 47/44/44
f 48/87/45 16/30/45 11/29/45
f 11/29/46 49/28/46 10/74/46
f 22/48/17 50/88/17 51/49/17
f 51/46/47 37/23/47 21/22/47
f 23/89/48 12/21/48 52/20/48
f 5/39/49 27/90/49 53/91/49
f 33/68/50 2/77/50 54/92/50
f 34/71/51 24/78/51 55/93/51
f 79/5/52 56/94/52 3/6/52
f 57/36/53 38/95/53 1/96/53
f 58/97/54 17/3/54 29/80/54
f 59/98/55 18/9/55 4/85/55
f 60/59/56 27/90/56 5/39/56
f 64/45/57 15/86/57 61/99/57
f 44/52/58 8/51/58 62/83/58
f 63/100/59 65/101/59 20/26/59
f 14/102/60 64/45/60 61/99/60
f 13/27/61 20/26/61 65/101/61
f 23/66/62 66/32/62 78/31/62
f 76/103/63 26/11/63 43/10/63
f 36/104/64 10/50/64 68/19/64
f 69/14/65 39/105/65 7/106/65
f 70/107/66 54/92/66 2/77/66
f 71/108/67 55/93/67 24/78/67
f 69/14/68 72/13/68 39/105/68
f 73/109/69 32/67/69 9/79/69
f 57/36/70 74/62/70 38/95/70
f 59/98/71 75/110/71 18/9/71
f 67/111/72 76/56/72 6/58/72
f 76/103/73 67/112/73 26/11/73
f 78/31/74 35/33/74 31/113/74
f 30/114/75 79/5/75 70/64/75
f 79/5/76 30/114/76 56/94/76
usemtl OMWATRFLOORWALL03
f 57/115/77 1/116/77 17/117/77
f 17/117/78 58/118/78 57/115/78
usemtl OMWAGREY08
f 77/119/79 48/120/79 31/121/79
f 65/122/80 19/123/80 47/124/80
f 47/124/80 19/123/80 51/125/80
f 22/126/81 63/127/81 37/128/81
f 10/129/82 77/130/82 52/131/82
f 62/132/83 39/133/83 40/134/83
f 28/135/84 76/136/84 43/137/84
f 43/137/85 46/138/85 28/135/85
f 56/139/86 38/140/86 41/141/86
f 11/142/87 12/143/87 78/144/87
f 25/145/88 32/146/88 7/147/88
f 7/148/89 34/149/89 25/150/89
f 35/151/90 77/119/90 31/121/90
f 52/131/91 77/130/91 35/152/91
f 68/153/87 12/143/87 11/142/87
f 63/127/92 14/154/92 37/128/92
f 2/155/93 38/140/93 56/139/93
f 24/156/94 39/133/94 62/132/94
f 72/157/95 9/158/95 40/134/95
f 74/159/96 29/160/96 41/141/96
f 20/161/97 42/162/97 64/163/97
f 43/164/98 27/165/98 4/166/98
f 55/167/99 44/168/99 25/169/99
f 4/166/100 46/170/100 43/164/100
f 51/125/80 15/171/80 47/124/80
f 78/144/101 48/172/101 11/142/101
f 10/129/102 49/173/102 16/174/102
f 37/128/103 50/175/103 22/126/103
f 21/176/80 15/171/80 51/125/80
f 23/177/104 52/131/104 35/152/104
f 25/150/105 34/149/105 55/178/105
f 30/179/106 2/155/106 56/139/106
f 59/180/107 4/181/107 27/182/107
f 27/183/108 60/184/108 59/185/108
f 61/186/80 15/171/80 21/176/80
f 8/187/109 24/156/109 62/132/109
f 20/161/110 14/154/110 63/127/110
f 64/163/111 14/154/111 20/161/111
f 47/124/80 13/188/80 65/122/80
f 35/152/112 66/189/112 23/177/112
f 11/142/87 36/190/87 68/153/87
f 69/191/113 7/192/113 32/193/113
f 70/194/114 2/155/114 30/179/114
f 71/195/115 24/156/115 8/187/115
f 40/134/116 39/133/116 72/157/116
f 32/196/117 73/197/117 69/198/117
f 41/141/118 38/140/118 74/159/118
f 77/119/119 16/199/119 48/120/119
f 16/174/120 77/130/120 10/129/120
f 31/200/121 48/172/121 78/144/121
