# Blender v2.75 (sub 0) OBJ File: 'Empty.blend'
# www.blender.org
mtllib ORC_HEAD.mtl
o ORC_HEAD
v 0.084272 0.101230 -0.222665
v 0.157285 0.134304 0.127807
v 0.272291 -0.115876 0.035723
v -0.041811 0.053760 -0.306574
v 0.084272 -0.101846 -0.222664
v 0.030119 -0.000308 -0.158241
v 0.099162 -0.000309 -0.297884
v 0.062503 -0.132018 0.098483
v 0.165338 -0.177203 -0.058027
v 0.215011 -0.217780 0.027015
v 0.098063 -0.200726 0.001776
v 0.165337 0.176589 -0.058029
v 0.215011 0.217167 0.027013
v 0.098062 0.200112 0.001773
v 0.093729 -0.178101 -0.071289
v 0.093728 0.177487 -0.071290
v 0.084272 0.101230 -0.222665
v 0.087618 0.083988 -0.284042
v 0.143287 0.157517 -0.180010
v 0.088375 -0.000309 -0.318006
v 0.223077 -0.109874 -0.178254
v 0.087619 -0.084605 -0.284041
v 0.044472 -0.140662 -0.195230
v 0.238869 -0.000306 0.134643
v 0.157285 -0.134915 0.127808
v 0.196803 0.173187 0.013200
v 0.062503 0.131405 0.098482
v -0.041811 -0.054378 -0.306573
v 0.223076 0.109258 -0.178255
v 0.272290 0.115262 0.035722
v 0.196803 -0.173801 0.013202
v 0.143287 -0.158133 -0.180009
v -0.004764 0.130858 -0.140367
v -0.004763 -0.131474 -0.140365
v 0.135905 -0.000306 0.161305
v 0.184249 0.130389 -0.154771
v 0.187561 -0.000308 -0.220044
v 0.184249 -0.131004 -0.154769
v 0.084272 -0.101846 -0.222664
v 0.044471 0.140046 -0.195231
v 0.136674 0.160210 -0.041047
v 0.136674 -0.160824 -0.041045
v 0.303098 -0.000307 0.036658
v 0.093987 -0.072904 -0.278716
v 0.093986 0.072287 -0.278717
v -0.047449 -0.000308 -0.170328
v 0.007124 -0.123805 -0.047976
v 0.215698 -0.000308 -0.204514
v 0.249664 -0.122477 -0.085689
v 0.249664 0.121863 -0.085690
v 0.272023 -0.000308 -0.130819
v 0.086889 0.149990 -0.137092
v 0.086889 -0.150606 -0.137091
v 0.143585 -0.079805 -0.217293
v 0.143585 0.079189 -0.217294
v -0.045969 -0.000309 -0.322029
v 0.007124 0.123191 -0.047978
v 0.145557 0.174649 -0.071454
v 0.145559 -0.175262 -0.071452
v 0.087618 0.083988 -0.284042
v 0.087619 -0.084605 -0.284041
v 0.169221 0.034760 -0.206851
v 0.169221 -0.035376 -0.206851
v 0.093987 -0.072904 -0.278716
v 0.093986 0.072287 -0.278717
v 0.174964 -0.000308 -0.239091
v 0.115772 0.084611 -0.273162
v 0.083207 0.085760 -0.265340
v 0.085499 0.082995 -0.281873
v 0.115772 -0.085226 -0.273161
v 0.083207 -0.086376 -0.265339
v 0.085499 -0.083612 -0.281872
v 0.092939 0.050223 -0.277933
v 0.077755 0.066702 -0.281269
v 0.098889 0.067438 -0.275045
v 0.092939 -0.050839 -0.277932
v 0.077755 -0.067319 -0.281268
v 0.098889 -0.068054 -0.275044
v 0.089175 0.079203 -0.255483
v 0.085584 0.063157 -0.289356
v 0.089175 -0.079819 -0.255482
v 0.085584 -0.063774 -0.289355
vt 0.319800 0.875700
vt 0.484800 0.984600
vt 0.618000 0.774500
vt 0.360800 0.291900
vt 0.620000 0.001800
vt 0.549900 0.216000
vt 0.523700 0.430500
vt 0.776900 0.503800
vt 0.839400 0.552400
vt 0.663800 0.601300
vt 0.942700 0.983700
vt 0.853700 0.982500
vt 0.940800 0.840700
vt 0.990600 0.701800
vt 0.876100 0.705400
vt 0.658300 0.519900
vt 0.500900 0.566900
vt 0.207600 0.671000
vt 0.087000 0.855500
vt 0.226300 0.993700
vt 0.204900 0.194800
vt 0.037500 0.365300
vt 0.018600 0.090800
vt 0.268100 0.048000
vt 0.273900 0.255700
vt 0.351600 0.094300
vt 0.195100 0.028200
vt 0.416400 0.135100
vt 0.626000 0.302500
vt 0.786400 0.091300
vt 0.817600 0.284500
vt 0.961000 0.233800
vt 0.749900 0.390600
vt 0.927700 0.548000
vt 0.958900 0.431500
vt 0.839100 0.441900
vt 0.386600 0.736500
vt 0.763900 0.844800
vt 0.157100 0.525800
vt 0.891500 0.048600
vt 0.724200 0.657500
vt 0.897600 0.578100
vt 0.867800 0.665600
vt 0.400000 0.008900
vt 0.811900 0.864300
vt 0.883900 0.334700
vt 0.923500 0.398400
vt 0.922000 0.331500
vt 0.510300 0.873500
vt 0.485800 0.843500
vt 0.485100 0.877300
vt 0.466700 0.874400
vt 0.962900 0.333400
vn 0.953500 0.252900 -0.163900
vn -0.913300 0.000000 0.407400
vn -0.206800 -0.972500 0.107300
vn 0.704800 -0.250700 -0.663700
vn -0.895200 -0.053000 -0.442600
vn 0.931700 0.128500 0.339700
vn -0.895200 0.053000 -0.442600
vn 0.931700 -0.128500 0.339700
vn -0.239500 -0.959800 -0.146400
vn 0.245800 0.197100 0.949100
vn -0.044700 -0.911500 -0.408800
vn -0.034500 0.746500 0.664500
vn -0.044700 0.911500 -0.408800
vn -0.034500 -0.746500 0.664500
vn 0.067300 -0.952000 -0.298800
vn 0.533600 0.841000 0.089600
vn 0.067300 0.952000 -0.298800
vn 0.533600 -0.841000 0.089600
vn -0.470900 0.835700 -0.282700
vn 0.073800 0.373300 -0.924800
vn -0.239500 0.959800 -0.146500
vn -0.436400 0.787400 -0.435300
vn 0.594200 0.244600 -0.766200
vn -0.436400 -0.787400 -0.435300
vn 0.620800 -0.780500 -0.073300
vn 0.954500 -0.240100 -0.177100
vn 0.073800 -0.373300 -0.924800
vn 0.620100 -0.763500 -0.180600
vn -0.093600 -0.820800 -0.563500
vn 0.611400 -0.405100 0.679800
vn 0.815500 0.221700 0.534600
vn -0.650200 0.000000 0.759700
vn -0.353400 -0.934800 -0.035200
vn -0.353500 0.934800 -0.035300
vn 0.611400 0.405100 0.679800
vn -0.291900 0.274400 0.916300
vn -0.311300 0.927400 0.207300
vn 0.028800 -0.272700 -0.961700
vn -0.950100 -0.276000 0.145200
vn 0.404500 0.872100 -0.275400
vn 0.704800 0.250700 -0.663700
vn 0.620800 0.780500 -0.073300
vn 0.468100 0.775100 0.424400
vn -0.311300 -0.927400 0.207300
vn 0.468100 -0.775100 0.424400
vn 0.604100 -0.785100 -0.136500
vn 0.644100 -0.330800 -0.689700
vn -0.935400 0.000000 0.353700
vn -0.015000 0.998600 -0.050300
vn -0.470900 -0.835700 -0.282700
vn -0.953100 -0.292700 0.076700
vn -0.291900 -0.274400 0.916300
vn 0.245800 -0.197100 0.949100
vn 0.604100 0.785100 -0.136500
vn 0.644100 0.330800 -0.689800
vn 0.475800 -0.174600 -0.862100
vn -0.290100 0.421700 -0.859100
vn 0.404500 -0.872100 -0.275400
vn -0.290100 -0.421700 -0.859100
vn 0.594200 -0.244700 -0.766200
vn 0.620000 0.763500 -0.180700
vn -0.093600 0.820800 -0.563500
vn -0.521700 -0.805700 0.280500
vn 0.100700 -0.795600 -0.597400
vn -0.521700 0.805700 0.280500
vn 0.100700 0.795600 -0.597400
vn 0.815500 -0.221700 0.534600
vn 0.953500 -0.252900 -0.164000
vn 0.732300 -0.276300 -0.622400
vn 0.732300 0.276300 -0.622400
vn -0.996800 -0.079400 -0.009700
vn -0.953100 0.292700 0.076700
vn -0.014900 -0.998600 -0.050300
vn 0.475800 0.174600 -0.862100
vn 0.954500 0.240100 -0.177100
vn 0.356700 -0.906500 -0.225900
vn 0.961100 -0.001500 -0.276300
vn 0.356700 0.906500 -0.225900
vn 0.961100 0.001500 -0.276300
vn 0.745200 -0.346800 -0.569600
vn 0.745200 0.346800 -0.569600
vn 0.441400 0.773800 -0.454400
vn -0.203700 0.978900 -0.018800
vn 0.441400 -0.773700 -0.454400
vn -0.203700 -0.978900 -0.018800
vn 0.235000 -0.418500 -0.877300
vn 0.352200 -0.855100 -0.380500
vn 0.235000 0.418500 -0.877300
vn 0.352200 0.855100 -0.380500
vn 0.028800 0.272700 -0.961700
vn -0.996800 0.079400 -0.009700
vn -0.206800 0.972500 0.107300
vn -0.950100 0.276000 0.145200
vn 0.413700 0.879500 -0.235300
vn -0.310500 0.928400 0.204000
vn 0.413700 -0.879500 -0.235300
vn -0.310500 -0.928400 0.204000
vn 0.909400 -0.384900 0.157700
vn 0.909400 0.384900 0.157700
vn 0.707000 0.537900 -0.459200
vn 0.215700 0.440600 -0.871400
vn 0.707000 -0.537900 -0.459200
vn 0.215800 -0.440700 -0.871400
vn -0.906900 -0.289200 -0.306500
vn -0.906900 0.289200 -0.306500
vn 0.701300 -0.541300 -0.463800
vn 0.701300 0.541300 -0.463800
vn -0.005000 0.986200 -0.165600
vn -0.004900 -0.986200 -0.165600
vn 0.279900 0.064000 -0.957900
vn 0.279900 -0.064000 -0.957900
vn 0.108600 0.874800 -0.472200
vn 0.242800 0.343300 -0.907300
vn 0.108600 -0.874800 -0.472200
vn 0.242800 -0.343300 -0.907300
usemtl ORC_HEADWARRIOR-HEADWARRIOR
s off
f 30/1/1 43/2/1 50/3/1
f 57/4/2 46/5/2 47/4/2
f 34/6/3 53/7/3 47/4/3
f 54/8/4 63/9/4 38/10/4
f 7/11/5 64/12/5 6/13/5
f 20/14/6 6/13/6 61/15/6
f 65/12/7 7/11/7 6/13/7
f 6/13/8 20/14/8 60/15/8
f 53/7/9 32/16/9 59/17/9
f 2/18/10 35/19/10 24/20/10
f 9/21/11 10/22/11 11/23/11
f 11/24/12 10/25/12 42/26/12
f 13/22/13 12/21/13 14/23/13
f 13/25/14 14/24/14 41/26/14
f 11/23/15 15/27/15 9/21/15
f 10/25/16 9/28/16 42/26/16
f 16/27/17 14/23/17 12/21/17
f 12/28/18 13/25/18 41/26/18
f 40/29/19 4/30/19 33/6/19
f 4/30/20 18/31/20 20/32/20
f 19/16/21 52/7/21 58/17/21
f 52/7/22 19/16/22 17/33/22
f 66/34/23 7/35/23 45/36/23
f 32/16/24 53/7/24 39/33/24
f 3/1/25 31/37/25 49/3/25
f 51/38/26 43/2/26 49/3/26
f 22/31/27 28/30/27 20/32/27
f 23/29/28 22/31/28 39/33/28
f 28/30/29 22/31/29 23/29/29
f 24/20/30 25/18/30 3/1/30
f 43/2/31 30/1/31 24/20/31
f 27/39/32 8/39/32 35/19/32
f 59/17/33 47/4/33 53/7/33
f 57/4/34 58/17/34 52/7/34
f 2/18/35 24/20/35 30/1/35
f 35/19/36 2/18/36 27/39/36
f 57/4/37 2/18/37 26/37/37
f 56/40/38 20/32/38 28/30/38
f 34/6/39 47/4/39 46/5/39
f 58/17/40 50/3/40 36/10/40
f 62/9/41 55/8/41 36/10/41
f 26/37/42 30/1/42 50/3/42
f 30/1/43 26/37/43 2/18/43
f 25/18/44 47/4/44 31/37/44
f 31/37/45 3/1/45 25/18/45
f 38/10/46 59/17/46 32/16/46
f 54/8/47 38/10/47 32/16/47
f 27/39/48 57/4/48 8/39/48
f 2/18/49 57/4/49 27/39/49
f 28/30/50 23/29/50 34/6/50
f 34/6/51 46/5/51 28/30/51
f 25/18/52 35/19/52 8/39/52
f 35/19/53 25/18/53 24/20/53
f 58/17/54 36/10/54 19/16/54
f 36/10/55 55/8/55 19/16/55
f 21/41/56 37/42/56 48/43/56
f 29/41/57 37/42/57 36/10/57
f 49/3/58 59/17/58 38/10/58
f 37/42/59 21/41/59 38/10/59
f 7/35/60 66/34/60 44/36/60
f 18/31/61 40/29/61 17/33/61
f 18/31/62 4/30/62 40/29/62
f 14/24/63 16/44/63 41/26/63
f 16/44/64 12/28/64 41/26/64
f 15/44/65 11/24/65 42/26/65
f 9/28/66 15/44/66 42/26/66
f 3/1/67 43/2/67 24/20/67
f 43/2/68 3/1/68 49/3/68
f 63/9/69 54/8/69 44/36/69
f 55/8/70 62/9/70 45/36/70
f 28/30/71 46/5/71 56/40/71
f 46/5/72 33/6/72 4/30/72
f 47/4/73 25/18/73 8/39/73
f 57/4/48 47/4/48 8/39/48
f 37/42/74 29/41/74 48/43/74
f 43/2/75 51/38/75 50/3/75
f 49/3/76 38/10/76 21/41/76
f 21/41/77 48/43/77 49/3/77
f 36/10/78 50/3/78 29/41/78
f 48/43/79 29/41/79 50/3/79
f 51/38/80 49/3/80 48/43/80
f 50/3/81 51/38/81 48/43/81
f 17/33/82 40/29/82 52/7/82
f 52/7/83 40/29/83 33/6/83
f 23/29/84 39/33/84 53/7/84
f 23/29/85 53/7/85 34/6/85
f 54/8/86 32/16/86 39/33/86
f 44/36/87 54/8/87 39/33/87
f 19/16/88 55/8/88 17/33/88
f 55/8/89 45/36/89 17/33/89
f 20/32/90 56/40/90 4/30/90
f 46/5/91 4/30/91 56/40/91
f 52/7/92 33/6/92 57/4/92
f 57/4/93 33/6/93 46/5/93
f 58/17/94 26/37/94 50/3/94
f 57/4/95 26/37/95 58/17/95
f 31/37/96 59/17/96 49/3/96
f 31/37/97 47/4/97 59/17/97
f 1/45/98 6/13/98 60/15/98
f 6/13/99 5/45/99 61/15/99
f 45/36/100 62/9/100 66/34/100
f 37/42/101 62/9/101 36/10/101
f 63/9/102 44/36/102 66/34/102
f 63/9/103 37/42/103 38/10/103
f 64/12/104 5/45/104 6/13/104
f 1/45/105 65/12/105 6/13/105
f 66/34/106 37/42/106 63/9/106
f 37/42/107 66/34/107 62/9/107
f 68/46/108 67/47/108 69/48/108
f 70/47/109 71/46/109 72/48/109
f 73/49/110 74/50/110 75/51/110
f 77/50/111 76/49/111 78/51/111
f 74/50/112 79/52/112 75/51/112
f 67/47/113 80/53/113 69/48/113
f 81/52/114 77/50/114 78/51/114
f 82/53/115 70/47/115 72/48/115
