# Blender v2.75 (sub 0) OBJ File: 'Empty.blend'
# www.blender.org
mtllib ORC_FIREPLACE_V5.mtl
o ORC_FIREPLACE_V5
v -0.657328 -0.012374 0.491362
v -1.515478 -0.012374 -0.004091
v -0.657328 -0.012374 -0.499544
v 1.229428 -0.012374 0.491362
v 0.371278 -0.012374 -0.004091
v 1.229428 -0.012374 -0.499544
v 0.943378 -0.231999 -0.001182
v -0.943378 -0.231999 -0.001182
v 0.470200 -0.020037 -0.004829
v 0.045849 0.045264 -0.010528
v -0.480588 0.098640 -0.018440
v 0.018212 -0.055017 -0.014086
v 0.497838 0.080245 -0.001271
v -0.508225 -0.001641 -0.021999
v 0.486707 0.028649 0.048547
v 0.036752 -0.004940 -0.063816
v -0.493390 0.049195 -0.071773
v 0.034718 -0.006332 0.039290
v 0.488740 0.030041 -0.054559
v -0.495423 0.047804 0.031334
v -0.918567 0.128869 -1.222010
v -0.918567 0.107759 -0.851186
v -0.918567 0.231999 -1.222010
v 0.943378 0.128869 -1.222010
v 0.943378 0.107759 -0.851186
v 0.943378 0.231999 -1.222010
v -0.918567 0.054672 -0.397537
v -0.918567 0.004628 -0.851186
v 0.891821 0.181334 1.225291
v 0.994936 0.055294 0.854467
v 0.994936 0.179534 1.225291
v 0.994936 0.002207 0.397537
v 0.891821 0.057094 0.854467
v 0.891821 0.004007 0.397537
v 0.994936 0.181334 -1.225291
v 0.891821 0.055294 -0.854467
v 0.891821 0.179534 -1.225291
v 0.943378 0.054672 -0.397537
v 0.943378 0.004628 -0.851186
v 0.891821 0.002207 -0.397537
v 0.994936 0.057094 -0.854467
v 0.994936 0.004007 -0.397537
v -0.918567 0.128868 1.222010
v -0.918567 0.107759 0.851186
v -0.918567 0.231999 1.222010
v -0.918567 -0.048458 -0.397537
v 0.943378 0.128868 1.222010
v 0.943378 0.107759 0.851186
v 0.943378 0.231999 1.222010
v 0.943378 -0.048458 -0.397537
v -0.918567 0.054672 0.397537
v -0.918567 0.004628 0.851186
v -0.918567 -0.048458 0.397537
v 0.943378 0.054672 0.397537
v 0.943378 0.004628 0.851186
v 0.943378 -0.048458 0.397537
v -0.970124 0.181334 1.225291
v -0.867009 0.055294 0.854467
v -0.867009 0.179534 1.225291
v -0.867009 0.002207 0.397537
v -0.970124 0.057094 0.854467
v -0.970124 0.004007 0.397537
v -0.867009 0.181334 -1.225291
v -0.970124 0.055294 -0.854467
v -0.970124 0.179534 -1.225291
v -0.970124 0.002207 -0.397537
v -0.867009 0.057094 -0.854467
v -0.867009 0.004007 -0.397537
v -1.229428 -0.012374 0.491363
v -1.172218 0.104527 0.392679
v -0.371278 -0.012374 -0.004091
v -0.485698 0.104527 -0.003683
v -0.714538 0.104527 0.392679
v -0.756417 0.002835 0.322643
v 0.657328 -0.012374 0.491363
v 0.714538 0.104527 0.392679
v 1.515478 -0.012374 -0.004091
v 1.401058 0.104527 -0.003683
v 1.172218 0.104527 0.392679
v 1.130339 0.002835 0.322643
v -1.229428 -0.012374 -0.499544
v -1.401058 0.104527 -0.003683
v -1.130339 0.002835 0.322643
v 0.657328 -0.012374 -0.499544
v 0.485698 0.104527 -0.003683
v 0.756417 0.002835 0.322643
v -1.172218 0.104527 -0.400046
v -1.317300 0.002835 -0.001182
v 0.714538 0.104527 -0.400046
v 0.569457 0.002835 -0.001182
v -0.714538 0.104527 -0.400046
v 1.172218 0.104527 -0.400046
v -0.569456 0.002835 -0.001182
v 1.317300 0.002835 -0.001182
v -1.130339 0.002835 -0.325008
v -0.756417 0.002835 -0.325008
v 0.756417 0.002835 -0.325008
v 1.130339 0.002835 -0.325008
v 0.756417 -0.069520 -0.325008
v 1.130339 -0.069520 -0.325008
v -0.756417 -0.069520 -0.325008
v -1.130339 -0.069520 -0.325008
v 0.569457 -0.069520 -0.001182
v -1.317300 -0.069520 -0.001182
v -0.569456 -0.069520 -0.001182
v 1.317300 -0.069520 -0.001182
v -1.130339 -0.069520 0.322643
v 0.756417 -0.069520 0.322643
v -0.756417 -0.069520 0.322643
v 1.130339 -0.069520 0.322643
v -0.943378 0.002835 -0.001182
v 0.943378 0.002835 -0.001182
vt 0.656271 -0.346045
vt 0.758536 -0.169082
vt 0.560972 -0.168076
vt 0.742747 -0.601449
vt 0.667897 -0.751150
vt 0.817598 -0.751150
vt 0.593047 -0.601449
vt 0.663236 0.008887
vt 0.860800 0.007881
vt 0.956100 -0.170089
vt -0.000043 -0.999053
vt 0.500035 -0.999053
vt 0.499553 -0.747994
vt 0.000329 -0.999094
vt 0.499701 -0.748037
vt 0.001023 -0.755262
vt 0.853835 -0.347052
vt 0.667897 -0.451749
vt 0.000700 -0.999053
vt 0.500622 -0.999053
vt 0.499849 -0.747994
vt 0.499548 -0.747994
vt 0.500328 -0.999094
vt 0.001091 -0.755251
vt 0.991759 -0.354335
vt 0.499762 -0.356750
vt 0.505828 -0.506630
vt 0.505799 -0.507295
vt 0.997252 -0.504880
vt 0.991670 -0.355178
vt 0.817598 -0.451749
vt 0.499854 -0.747994
vt 0.991849 -0.355178
vt 0.499798 -0.357593
vt 0.505856 -0.507295
vt 0.997323 -0.504215
vt 0.499730 -0.357633
vt 0.997393 -0.504880
vt 0.997224 -0.504911
vt 0.999543 -0.355613
vt 0.498440 -0.355613
vt 0.994081 -0.621428
vt 0.494772 -0.621508
vt 0.994479 -0.621508
vt 0.498492 -0.355865
vt 0.999183 -0.355865
vt 0.498387 -0.355865
vt 0.993682 -0.621508
vt 0.494714 -0.621428
vt 0.999902 -0.355865
vt 0.494664 -0.621507
vt 0.994421 -0.621507
vt 0.892448 -0.601449
vt 0.948311 -0.627458
vt -0.197076 -0.701163
vt -0.247324 -3.289133
vt 0.979138 -3.194036
vt 0.913435 -0.624863
vt -0.214332 -0.347233
vt -0.146684 -0.762077
vt 0.940575 -0.762077
vt 0.957736 1.011763
vt -0.129523 1.011763
vt 0.898063 -3.215428
vt 1.025509 -0.390346
vt -0.080785 -0.419048
vt -0.076424 -2.389144
vt 0.960616 -2.548844
vt 0.964977 -0.386035
vt -0.141317 -0.396233
vt 1.015303 1.284558
vt 0.975183 1.452705
vt -0.090991 1.255856
vt -0.131111 1.442508
vt 1.029870 -2.360442
vt -0.145678 -2.559042
vn -0.388400 -0.893800 -0.224200
vn 0.000000 1.000000 0.000000
vn -0.388400 -0.893800 0.224200
vn 0.388400 -0.893800 0.224200
vn 0.000000 -0.893800 0.448500
vn -0.661200 0.645800 0.381700
vn 0.000000 0.645100 0.764100
vn 0.388400 -0.893800 -0.224200
vn 0.661200 0.645800 0.381700
vn 0.660100 0.647400 -0.381100
vn -0.000000 0.567200 -0.823600
vn -0.709100 0.574000 -0.409400
vn -0.000000 -0.893800 -0.448500
vn -0.660100 0.647400 -0.381100
vn 0.709100 0.574000 -0.409400
vn 0.000000 0.648100 -0.761500
vn 0.700900 0.587300 0.404700
vn -0.700900 0.587300 0.404700
vn 0.000000 0.593700 0.804700
vn 0.000000 -0.950400 -0.311200
vn -0.271500 -0.949600 -0.156800
vn 0.271500 -0.949600 -0.156800
vn -0.275700 -0.948000 0.159200
vn 0.275700 -0.948000 0.159200
vn 0.000000 -0.947100 0.320800
vn 0.018100 0.030500 -0.999400
vn -0.018100 -0.030500 0.999400
vn -0.101300 -0.994700 -0.015400
vn 0.101300 0.994700 0.015400
vn 0.077400 -0.996900 -0.011900
vn -0.077400 0.996900 0.011900
vn -1.000000 0.000000 0.000000
vn 1.000000 0.000000 0.000000
vn -0.016500 -0.948100 0.317600
vn 0.016500 0.948100 -0.317600
vn -0.017300 -0.993200 0.115400
vn 0.017300 0.993200 -0.115400
vn 0.016500 -0.948100 -0.317600
vn -0.016500 0.948100 0.317600
vn 0.017300 -0.993200 -0.115400
vn -0.017300 0.993200 0.115400
usemtl ORC_FIREPLACE_V5_1
s off
f 102/1/1 8/2/1 104/3/1
f 111/4/2 83/5/2 74/6/2
f 99/1/1 7/2/1 103/3/1
f 112/4/2 90/7/2 86/5/2
f 103/3/3 7/2/3 108/8/3
f 110/9/4 7/2/4 106/10/4
f 107/8/5 8/2/5 109/9/5
f 109/9/4 8/2/4 105/10/4
f 104/3/3 8/2/3 107/8/3
f 111/4/2 88/7/2 83/5/2
f 2/11/6 69/12/6 70/13/6
f 69/14/7 73/15/7 70/16/7
f 105/10/8 8/2/8 101/17/8
f 111/4/2 95/18/2 88/7/2
f 1/19/9 71/20/9 72/21/9
f 71/11/10 91/22/10 72/16/10
f 69/14/7 1/23/7 73/15/7
f 1/19/9 72/21/9 73/24/9
f 70/25/11 73/26/11 74/27/11
f 93/28/12 74/29/12 73/30/12
f 108/8/5 7/2/5 110/9/5
f 112/4/2 86/5/2 80/6/2
f 5/11/6 75/12/6 76/13/6
f 75/14/7 79/15/7 76/16/7
f 106/10/8 7/2/8 100/17/8
f 112/4/2 97/18/2 90/7/2
f 4/19/9 77/20/9 78/21/9
f 77/11/10 92/22/10 78/16/10
f 75/14/7 4/23/7 79/15/7
f 4/19/9 78/21/9 79/24/9
f 76/25/11 79/26/11 80/27/11
f 94/28/12 80/29/12 79/30/12
f 101/17/13 8/2/13 102/1/13
f 111/4/2 96/31/2 95/18/2
f 2/20/14 82/32/14 87/24/14
f 2/11/6 70/13/6 82/16/6
f 82/33/15 70/34/15 83/35/15
f 74/27/11 83/36/11 70/25/11
f 100/17/13 7/2/13 99/1/13
f 112/4/2 98/31/2 97/18/2
f 5/20/14 85/32/14 89/24/14
f 5/11/6 76/13/6 85/16/6
f 85/33/15 76/34/15 86/35/15
f 80/27/11 86/36/11 76/25/11
f 2/20/14 87/24/14 81/19/14
f 3/14/16 81/23/16 87/15/16
f 87/30/17 82/37/17 88/28/17
f 83/35/15 88/38/15 82/33/15
f 5/20/14 89/24/14 84/19/14
f 6/14/16 84/23/16 89/15/16
f 89/30/17 85/37/17 90/28/17
f 86/35/15 90/38/15 85/33/15
f 71/11/10 3/12/10 91/22/10
f 3/14/16 87/15/16 91/16/16
f 77/11/10 6/12/10 92/22/10
f 6/14/16 89/15/16 92/16/16
f 96/35/18 93/38/18 72/33/18
f 73/30/12 72/37/12 93/28/12
f 98/35/18 94/38/18 78/33/18
f 79/30/12 78/37/12 94/28/12
f 91/25/19 87/26/19 95/27/19
f 88/28/17 95/39/17 87/30/17
f 72/33/18 91/34/18 96/35/18
f 95/27/19 96/36/19 91/25/19
f 92/25/19 89/26/19 97/27/19
f 90/28/17 97/39/17 89/30/17
f 78/33/18 92/34/18 98/35/18
f 97/27/19 98/36/19 92/25/19
f 84/40/20 6/41/20 99/42/20
f 99/43/21 103/44/21 84/45/21
f 6/46/22 77/47/22 100/48/22
f 100/49/20 99/42/20 6/41/20
f 3/46/22 71/47/22 101/48/22
f 101/49/20 102/42/20 3/41/20
f 81/40/20 3/41/20 102/42/20
f 102/43/21 104/44/21 81/45/21
f 5/50/21 84/45/21 103/44/21
f 103/51/23 108/48/23 5/47/23
f 2/50/21 81/45/21 104/44/21
f 104/51/23 107/48/23 2/47/23
f 105/51/22 101/48/22 71/47/22
f 71/50/24 1/45/24 105/52/24
f 106/51/22 100/48/22 77/47/22
f 77/50/24 4/45/24 106/52/24
f 69/46/23 2/47/23 107/48/23
f 107/49/25 109/42/25 69/41/25
f 75/46/23 5/47/23 108/48/23
f 108/49/25 110/42/25 75/41/25
f 1/40/25 69/41/25 109/42/25
f 109/43/24 105/52/24 1/45/24
f 4/40/25 75/41/25 110/42/25
f 110/43/24 106/52/24 4/45/24
f 111/4/2 93/53/2 96/31/2
f 111/4/2 74/6/2 93/53/2
f 112/4/2 94/53/2 98/31/2
f 112/4/2 80/6/2 94/53/2
usemtl ORC_FIREPLACE_V5_2
f 10/54/26 12/55/26 14/56/26
f 14/57/27 12/58/27 10/59/27
f 12/60/26 10/61/26 13/62/26
f 10/61/27 12/60/27 9/63/27
f 13/62/26 9/63/26 12/60/26
f 9/63/27 13/62/27 10/61/27
f 14/56/26 11/64/26 10/54/26
f 10/54/27 11/64/27 14/56/27
f 16/65/28 18/66/28 20/67/28
f 20/68/29 18/69/29 16/70/29
f 18/66/30 16/65/30 19/71/30
f 16/70/31 18/69/31 15/72/31
f 19/71/30 15/73/30 18/66/30
f 15/72/31 19/74/31 16/70/31
f 20/67/28 17/75/28 16/65/28
f 16/70/29 17/76/29 20/68/29
f 23/62/32 21/63/32 28/60/32
f 21/63/33 23/62/33 22/61/33
f 26/62/32 24/63/32 39/60/32
f 24/63/33 26/62/33 25/61/33
f 22/54/32 28/55/32 46/56/32
f 46/57/33 28/58/33 22/59/33
f 28/60/32 22/61/32 23/62/32
f 22/61/33 28/60/33 21/63/33
f 31/71/34 29/73/34 33/66/34
f 29/72/35 31/74/35 30/70/35
f 30/65/36 33/66/36 34/67/36
f 34/68/37 33/69/37 30/70/37
f 33/66/34 30/65/34 31/71/34
f 30/70/35 33/69/35 29/72/35
f 34/67/36 32/75/36 30/65/36
f 30/70/37 32/76/37 34/68/37
f 37/71/38 35/73/38 41/66/38
f 35/72/39 37/74/39 36/70/39
f 25/54/32 39/55/32 50/56/32
f 50/57/33 39/58/33 25/59/33
f 39/60/32 25/61/32 26/62/32
f 25/61/33 39/60/33 24/63/33
f 36/65/40 41/66/40 42/67/40
f 42/68/41 41/69/41 36/70/41
f 41/66/38 36/65/38 37/71/38
f 36/70/39 41/69/39 35/72/39
f 42/67/40 40/75/40 36/65/40
f 36/70/41 40/76/41 42/68/41
f 45/62/33 43/63/33 52/60/33
f 43/63/32 45/62/32 44/61/32
f 46/56/32 27/64/32 22/54/32
f 22/54/33 27/64/33 46/56/33
f 49/62/33 47/63/33 55/60/33
f 47/63/32 49/62/32 48/61/32
f 50/56/32 38/64/32 25/54/32
f 25/54/33 38/64/33 50/56/33
f 44/54/33 52/55/33 53/56/33
f 53/57/32 52/58/32 44/59/32
f 52/60/33 44/61/33 45/62/33
f 44/61/32 52/60/32 43/63/32
f 53/56/33 51/64/33 44/54/33
f 44/54/32 51/64/32 53/56/32
f 48/54/33 55/55/33 56/56/33
f 56/57/32 55/58/32 48/59/32
f 55/60/33 48/61/33 49/62/33
f 48/61/32 55/60/32 47/63/32
f 56/56/33 54/64/33 48/54/33
f 48/54/32 54/64/32 56/56/32
f 59/71/34 57/73/34 61/66/34
f 57/72/35 59/74/35 58/70/35
f 58/65/36 61/66/36 62/67/36
f 62/68/37 61/69/37 58/70/37
f 61/66/34 58/65/34 59/71/34
f 58/70/35 61/69/35 57/72/35
f 62/67/36 60/75/36 58/65/36
f 58/70/37 60/76/37 62/68/37
f 65/71/38 63/73/38 67/66/38
f 63/72/39 65/74/39 64/70/39
f 64/65/40 67/66/40 68/67/40
f 68/68/41 67/69/41 64/70/41
f 67/66/38 64/65/38 65/71/38
f 64/70/39 67/69/39 63/72/39
f 68/67/40 66/75/40 64/65/40
f 64/70/41 66/76/41 68/68/41
