# Blender v2.75 (sub 0) OBJ File: 'Empty.blend'
# www.blender.org
mtllib OW_CAVEWEBS_V2.mtl
o OW_CAVEWEBS_V2
v -5.435656 1.647262 0.104368
v -3.551132 -4.880569 9.304199
v -8.558537 -4.880570 1.738833
v 4.287547 -4.880569 3.933700
v -2.662331 -4.880569 -1.897941
v -1.384673 -4.880570 -2.196655
v -10.804235 1.647263 3.351891
v -9.201738 -4.880570 2.407947
v 3.845538 -4.880569 3.799746
v -5.217725 1.647264 9.912992
v -3.675843 -4.880569 8.872980
v 5.387420 1.647263 2.759733
v 0.922166 -4.880569 0.272461
v -7.390798 1.647263 7.372402
v 2.336403 1.647263 -0.935412
v -5.976561 -4.880569 6.164527
v 0.217824 1.647262 -3.140598
v 0.618597 -4.880569 5.950893
v -5.907557 -4.880570 -0.351342
v 0.331518 1.647263 0.614196
v -3.855582 1.647264 8.844222
v 3.883180 1.647263 3.594396
v -9.585055 1.647262 0.187933
v -2.420223 1.647263 3.016338
v -5.842985 1.647263 5.841586
v -4.087057 1.647262 -3.093428
v -7.245419 1.647262 -1.643301
v -2.524614 1.647264 10.855096
v 5.712272 1.647264 5.129185
v -5.229146 -2.699911 2.475119
v -2.608607 -2.699911 5.863314
v 0.549879 1.647264 5.884531
v -2.438130 1.647262 -1.709814
v -2.430199 -2.699911 0.383184
v 1.956459 1.647264 7.242850
v -8.486630 1.647263 1.847471
v 0.438484 -2.699911 3.195917
v -0.734028 -3.460356 -1.146817
v -1.404531 1.647262 -1.176093
v -0.734029 1.647263 -1.146818
v -2.000256 1.647263 1.342281
v -2.000256 -3.520556 1.342283
v -2.000256 1.647263 2.013422
v -1.404530 -4.833757 -1.176092
v -0.734028 -4.833756 -1.146817
v -2.000255 -4.893956 2.013423
v -2.000255 -4.893956 1.342283
v 4.842128 -1.686604 3.994186
v 4.276094 1.647263 4.354788
v 4.842128 1.647263 3.994184
v -2.000256 -3.520556 2.013423
v -1.404530 -3.460356 -1.176092
v 4.276095 -3.060005 4.354789
v 4.842129 -3.060005 3.994186
v -2.189535 -5.351322 6.683586
v -1.744825 -3.977923 6.180931
v -1.744824 -5.351322 6.180932
v -2.189536 1.189896 6.683584
v -2.189536 -3.977922 6.683585
v 4.276094 -1.686604 4.354788
v -8.760001 -0.273644 1.206459
v -8.701481 1.647262 0.670852
v -8.760000 1.647262 1.206457
v -8.701479 -1.990395 0.670856
v -8.760000 -1.990395 1.206460
v -8.701478 -0.273645 0.670856
v -4.749949 -2.192426 6.676893
v -5.187662 1.647263 6.599710
v -4.749950 1.647263 6.676891
v -5.187661 -4.266262 6.599714
v -4.749949 -4.266262 6.676893
v -5.187661 -2.192426 6.599712
v -1.744825 1.189896 6.180930
vt 3.200238 -0.000071
vt 2.514045 -0.878111
vt -0.833241 -0.878111
vt -1.519434 -0.000070
vt 0.608694 -0.000071
vt -0.725258 -0.000070
vt 2.272005 -0.000071
vt 0.725380 -0.000071
vt 0.698787 -0.000071
vt 2.465978 -0.000071
vt 0.473412 -0.052543
vt 0.497511 -0.945820
vt 2.010638 -0.039529
vt 2.319289 -0.000071
vt 0.559249 -0.012260
vt -0.520473 -0.012260
vt 0.550501 -0.979866
vt -0.797995 -0.000070
vt 0.415427 -0.940407
vt 1.927185 -0.038561
vt 0.416895 -0.044575
vt 0.449899 0.003768
vt 0.421607 -0.893734
vt 1.711086 -0.310718
vt -0.629726 -0.000070
vt 0.418891 -0.037006
vt 0.404214 -1.029164
vt 1.886982 -0.021500
vt 0.589318 -0.137699
vt -0.918399 -0.137699
vt 0.486063 -0.892696
vt -0.980223 -0.039443
vt 2.071182 -0.012260
vt -0.869363 -0.018994
vt -0.692276 -0.216018
vt -0.979788 -0.055052
vt 1.620317 -0.014490
vt 0.500565 -0.039722
vt 0.492529 -0.895112
vt -0.721393 -0.029990
vt 2.114805 -0.137699
vt 0.411375 -0.000197
vt -0.136339 -0.216506
vt 0.451621 -1.005197
vt 1.043661 -0.233670
vt 0.574893 0.004202
vt 0.676307 0.004202
vt 0.676307 -0.610593
vt 0.587147 -0.610456
vt 0.574893 -0.834240
vt 0.676307 -0.834240
vn -0.833900 -0.000000 0.551900
vn 0.833900 0.000000 -0.551900
vn 0.642800 -0.000000 -0.766000
vn -0.642800 0.000000 0.766000
vn -0.507500 0.000000 -0.861600
vn 0.507500 -0.000000 0.861600
vn -0.559200 -0.000000 -0.829000
vn 0.559200 0.000000 0.829000
vn -0.649400 -0.000000 -0.760400
vn 0.649400 0.000000 0.760400
vn -0.694700 -0.000000 0.719300
vn 0.694700 0.000000 -0.719300
vn 0.567700 -0.452400 0.687800
vn 0.621000 -0.448100 -0.643100
vn -0.637200 -0.398200 0.659800
vn 0.588500 -0.402100 -0.701400
vn 0.516100 -0.378700 0.768200
vn 0.653700 -0.338100 -0.677000
vn -0.732200 -0.478700 0.484600
vn -0.574500 -0.430900 -0.695900
vn -0.709500 -0.525500 0.469600
vn 0.501500 -0.464300 0.730000
vn -0.478600 -0.381600 -0.790800
vn 0.603300 -0.345100 -0.719000
vn 0.597900 -0.416300 0.685000
vn -0.444200 -0.445100 -0.777500
vn -0.596600 -0.420600 -0.683500
vn -0.638800 -0.392800 0.661500
vn -0.043600 0.000000 0.999000
vn 0.043600 -0.000000 -0.999000
vn 1.000000 0.000000 0.000000
vn -1.000000 0.000000 0.000000
vn 0.537300 0.000000 0.843400
vn -0.537300 -0.000000 -0.843400
vn -0.749000 -0.000000 -0.662600
vn 0.749000 0.000000 0.662600
vn -0.994100 -0.000000 -0.108600
vn 0.994100 -0.000000 0.108600
vn -0.173600 0.000000 0.984800
vn 0.173700 -0.000000 -0.984800
vn 0.173600 -0.000000 -0.984800
vn -0.173700 0.000000 0.984800
usemtl OW_CAVEWEBS_V2_1
s off
f 23/1/1 3/2/1 2/3/1
f 2/3/2 3/2/2 23/1/2
f 29/1/3 4/2/3 5/3/3
f 5/3/4 4/2/4 29/1/4
f 8/3/5 7/4/5 17/1/5
f 17/1/6 7/4/6 8/3/6
f 11/3/7 10/4/7 12/1/7
f 12/1/8 10/4/8 11/3/8
f 12/1/7 9/2/7 11/3/7
f 11/3/8 9/2/8 12/1/8
f 15/1/9 13/2/9 16/3/9
f 16/3/10 13/2/10 15/1/10
f 16/3/9 14/4/9 15/1/9
f 15/1/10 14/4/10 16/3/10
f 17/1/5 6/2/5 8/3/5
f 8/3/6 6/2/6 17/1/6
f 27/1/11 19/2/11 18/3/11
f 18/3/12 19/2/12 27/1/12
f 20/5/4 33/6/4 5/3/4
f 5/3/3 33/6/3 20/5/3
f 1/7/12 24/8/12 18/3/12
f 18/3/11 24/8/11 1/7/11
f 2/3/1 25/9/1 36/10/1
f 36/10/2 25/9/2 2/3/2
f 25/11/13 30/12/13 24/13/13
f 22/14/4 20/5/4 5/3/4
f 5/3/3 20/5/3 22/14/3
f 24/15/14 32/16/14 31/17/14
f 18/3/11 32/18/11 24/8/11
f 24/8/12 32/18/12 18/3/12
f 23/1/2 36/10/2 2/3/2
f 2/3/1 36/10/1 23/1/1
f 34/19/15 24/20/15 1/21/15
f 22/22/16 37/23/16 20/24/16
f 25/9/2 21/25/2 2/3/2
f 2/3/1 21/25/1 25/9/1
f 21/26/17 31/27/17 32/28/17
f 5/3/3 26/4/3 33/6/3
f 33/6/4 26/4/4 5/3/4
f 27/1/12 1/7/12 18/3/12
f 18/3/11 1/7/11 27/1/11
f 2/3/1 28/4/1 21/25/1
f 21/25/2 28/4/2 2/3/2
f 29/1/4 22/14/4 5/3/4
f 5/3/3 22/14/3 29/1/3
f 1/29/18 24/30/18 30/31/18
f 25/11/19 36/32/19 30/12/19
f 24/15/20 31/17/20 25/33/20
f 21/26/21 25/34/21 31/27/21
f 22/22/22 32/35/22 37/23/22
f 33/36/23 34/19/23 1/21/23
f 33/37/24 20/38/24 34/39/24
f 34/39/25 20/38/25 24/40/25
f 18/3/11 35/4/11 32/18/11
f 32/18/12 35/4/12 18/3/12
f 1/29/26 30/31/26 36/41/26
f 24/42/27 20/43/27 37/44/27
f 24/42/28 37/44/28 32/45/28
f 40/46/29 39/47/29 52/48/29
f 39/47/30 40/46/30 38/49/30
f 41/46/31 43/47/31 51/48/31
f 43/47/32 41/46/32 42/49/32
f 45/50/30 44/51/30 52/48/30
f 44/51/29 45/50/29 52/48/29
f 47/50/32 46/51/32 51/48/32
f 46/51/31 47/50/31 51/48/31
f 50/46/33 49/47/33 60/48/33
f 49/47/34 50/46/34 48/49/34
f 41/46/31 51/48/31 42/49/31
f 43/47/32 42/49/32 51/48/32
f 51/48/32 42/49/32 47/50/32
f 42/49/31 51/48/31 47/50/31
f 40/46/29 52/48/29 38/49/29
f 39/47/30 38/49/30 52/48/30
f 52/48/30 38/49/30 45/50/30
f 38/49/29 52/48/29 45/50/29
f 54/50/34 53/51/34 60/48/34
f 53/51/33 54/50/33 60/48/33
f 57/50/35 55/51/35 59/48/35
f 55/51/36 57/50/36 59/48/36
f 73/46/36 59/48/36 56/49/36
f 58/47/35 56/49/35 59/48/35
f 59/48/35 56/49/35 57/50/35
f 56/49/36 59/48/36 57/50/36
f 50/46/33 60/48/33 48/49/33
f 49/47/34 48/49/34 60/48/34
f 60/48/34 48/49/34 54/50/34
f 48/49/33 60/48/33 54/50/33
f 63/46/37 62/47/37 66/48/37
f 62/47/38 63/46/38 61/49/38
f 65/50/38 64/51/38 66/48/38
f 64/51/37 65/50/37 66/48/37
f 63/46/37 66/48/37 61/49/37
f 62/47/38 61/49/38 66/48/38
f 66/48/38 61/49/38 65/50/38
f 61/49/37 66/48/37 65/50/37
f 69/46/39 68/47/39 72/48/39
f 68/47/40 69/46/40 67/49/40
f 71/50/41 70/51/41 72/48/41
f 70/51/39 71/50/39 72/48/39
f 69/46/42 72/48/42 67/49/42
f 68/47/41 67/49/41 72/48/41
f 72/48/41 67/49/41 71/50/41
f 67/49/39 72/48/39 71/50/39
f 73/46/36 58/47/36 59/48/36
