# Blender v2.75 (sub 0) OBJ File: 'Empty.blend'
# www.blender.org
mtllib OW_CAVEWEBS_V1.mtl
o OW_CAVEWEBS_V1
v -0.301049 2.071740 -0.000000
v 0.301048 -2.071740 0.000000
v 1.675915 0.713012 0.000000
v -1.675915 0.683835 -0.000000
vt 0.199076 -0.129701
vt 0.859473 -0.475874
vt 0.408739 -0.995190
vt -0.251658 -0.649018
vn 0.000000 -0.000000 -1.000000
vn -0.000000 0.000000 1.000000
usemtl CAVEPLANT___01
s off
f 1/1/1 3/2/1 2/3/1
f 2/3/2 3/2/2 1/1/2
f 2/3/1 4/4/1 1/1/1
f 1/1/2 4/4/2 2/3/2
