# Blender v2.75 (sub 0) OBJ File: 'Empty.blend'
# www.blender.org
mtllib OW_FOCUS_V01.mtl
o OW_FOCUS_V01
v 0.040690 0.387240 0.213653
v 0.061509 -0.713151 0.273964
v 0.061509 -0.713151 -0.273964
v -0.213002 0.387240 -0.135525
v -0.260555 -0.713151 0.169319
v -0.076535 0.325653 0.051928
v 0.005199 0.649541 0.042726
v 0.013865 0.326942 -0.061216
v 0.040690 0.387240 -0.217955
v 0.260555 -0.713151 0.000000
v -0.260555 -0.713151 -0.169319
v 0.005199 0.713151 -0.046412
v 0.197481 0.387240 -0.002151
v -0.089433 0.019492 -0.045009
v -0.213002 0.387240 0.131223
v -0.076535 0.325653 -0.059495
v 0.048986 0.019492 -0.000034
v 0.012604 0.325653 0.051928
v -0.030690 0.305478 -0.000430
v -0.089433 0.019492 0.044941
v 0.007263 0.276609 -0.117236
v 0.007263 0.276609 0.116375
v 0.072808 -0.289680 0.000782
v 0.023714 -0.529385 0.158180
v 0.023714 -0.529385 -0.159199
v -0.066112 0.551126 -0.046412
v -0.130050 0.276609 -0.072620
v 0.092127 0.276609 -0.000430
v -0.162836 -0.529385 0.097566
v -0.130050 0.276609 0.071759
v -0.066112 0.508322 0.042726
v -0.162836 -0.529385 -0.098585
v -0.107721 -0.289680 -0.057875
v -0.003885 0.019492 -0.072806
v -0.003885 0.019492 0.072738
v 0.139009 -0.529385 -0.000509
v -0.107721 -0.289680 0.059440
v 0.003852 -0.289680 -0.094127
v 0.003852 -0.289680 0.095692
v -0.027508 -0.713151 0.000000
vt 0.287834 -0.630726
vt 0.684025 -0.468976
vt 0.289474 -0.469001
vt 0.287870 -0.630781
vt 0.682493 -0.630887
vt 0.684036 -0.469098
vt 0.289556 -0.469037
vt 0.682475 -0.279618
vt 0.521694 -0.487818
vt 0.595523 -0.741097
vt 0.794509 -0.498431
vt 0.159374 -0.659811
vt 0.055238 -0.756281
vt 0.114468 -0.775771
vt 0.116476 -0.566394
vt 0.055508 -0.591048
vt 0.115315 -0.664127
vt 0.127179 -0.676200
vt 0.043875 -0.735198
vt 0.159508 -0.770469
vt 0.287941 -0.279617
vt 0.294509 -0.633740
vt 0.287911 -0.630725
vt 0.682504 -0.630645
vt 0.616475 -0.241097
vt 0.287832 -0.630757
vt 0.682483 -0.630785
vt 0.225237 -0.656803
vt 0.176924 -0.661687
vt 0.043366 -0.619566
vt 0.288020 -0.279590
vt 0.685596 -0.001666
vt 0.291083 -0.001666
vt 0.291049 -0.001748
vt 0.230463 -0.676636
vt 0.059068 -0.731258
vt 0.228541 -0.746750
vt 0.229067 -0.576751
vt 0.685596 -0.001563
vt 0.291016 -0.001562
vt 0.155046 -0.596957
vt 0.059087 -0.577188
vt 0.059087 -0.747187
vt 0.158684 -0.583373
vt 0.289517 -0.469064
vt 0.280995 -0.998525
vt 0.617462 -0.996579
vt 0.620963 -0.650454
vt 0.281008 -0.998442
vt 0.620959 -0.650177
vt 0.283659 -0.652137
vt 0.281133 -0.998441
vt 0.617573 -0.996495
vt 0.621074 -0.650175
vt 0.281126 -0.998522
vt 0.621078 -0.650442
vt 0.283806 -0.652346
vt 0.281247 -1.004286
vt 0.614057 -1.006212
vt 0.614011 -0.646305
vt 0.281246 -1.003896
vt 0.614034 -0.646048
vt 0.281809 -0.646099
vt 0.613996 -1.005908
vt 0.613074 -0.646052
vt 0.613062 -0.646306
vt 0.281650 -0.646291
vt 0.157659 -0.730432
vt 0.225507 -0.736393
vt 0.130027 -0.596083
vt 0.617473 -0.996496
vt 0.621018 -0.649961
vt 0.283732 -0.651967
vt 0.283663 -0.652355
vt 0.617568 -0.996576
vt 0.281241 -1.004599
vt 0.614027 -1.006459
vt 0.613517 -0.646511
vt 0.281805 -0.646290
vt 0.617532 -0.996431
vt 0.283801 -0.652135
vt 0.229086 -0.733237
vt 0.613997 -1.006214
vt 0.281724 -0.646442
vt 0.291086 -0.001561
vt 0.281651 -0.646102
vt 0.614057 -1.005904
vt 0.307458 -0.324723
vn 0.789000 0.221000 -0.573300
vn -0.974600 0.224100 0.000000
vn -0.308400 0.062800 0.949200
vn 0.807500 0.060700 -0.586700
vn 0.000000 -1.000000 0.000000
vn -0.301700 0.217000 0.928400
vn 0.999700 0.023200 0.011400
vn -0.998400 0.057000 -0.000000
vn -0.326100 0.915100 0.237000
vn -0.308500 0.057800 -0.949500
vn 0.790100 0.215100 0.574000
vn -0.301000 0.226500 -0.926300
vn 0.999600 0.021800 0.015600
vn -0.998800 0.044900 0.021600
vn -0.329100 0.913500 -0.239100
vn 0.807400 0.063800 0.586600
vn -0.305600 -0.149300 -0.940400
vn -0.305700 -0.146400 0.940800
vn -0.987800 -0.156000 0.000000
vn 0.125000 0.914500 0.384800
vn -0.019600 0.037900 -0.999100
vn 0.801600 -0.135400 -0.582400
vn 0.801800 -0.133600 0.582500
vn 0.000000 0.050300 0.998700
vn 0.409200 0.912400 0.000000
vn 0.126900 0.911800 -0.390500
vn 0.638000 -0.614800 -0.463600
vn -0.244600 -0.611300 -0.752600
vn -0.248100 -0.596300 0.763400
vn 0.643700 -0.605700 0.467700
vn -0.272400 0.472200 0.838400
vn 0.712800 0.472900 0.517900
vn 0.713800 0.470700 -0.518600
vn -0.273000 0.468600 -0.840200
vn -0.879600 0.387200 0.276300
vn -0.145400 0.064000 -0.987300
vn -0.244500 -0.611300 -0.752600
vn -0.800100 -0.599900 0.000000
vn -0.882900 0.469500 0.000000
vn -0.053700 0.027100 0.998200
vn -0.872400 0.440600 0.211600
vn -0.998300 0.059000 0.000000
usemtl OW_FOCUS_V01_1
s off
f 36/1/1 38/2/1 23/3/1
f 32/4/2 29/5/2 37/6/2
f 37/7/3 39/2/3 35/8/3
f 23/3/4 38/2/4 34/8/4
f 40/9/5 2/10/5 5/11/5
f 29/4/6 39/2/6 37/7/6
f 7/12/7 18/13/7 8/14/7
f 16/15/8 6/16/8 31/17/8
f 19/18/9 13/19/9 9/20/9
f 38/3/10 14/8/10 34/21/10
f 40/9/5 10/22/5 2/10/5
f 24/23/11 36/24/11 23/2/11
f 40/9/5 5/11/5 11/25/5
f 25/26/12 32/27/12 33/2/12
f 8/14/13 12/28/13 7/12/13
f 31/17/14 26/29/14 16/15/14
f 19/18/15 1/30/15 13/19/15
f 39/7/16 17/8/16 35/31/16
f 34/21/17 14/8/17 27/32/17
f 20/31/18 22/32/18 30/33/18
f 14/31/19 30/32/19 27/34/19
f 19/18/20 9/20/20 4/35/20
f 12/36/21 8/37/21 16/38/21
f 17/21/22 21/39/22 28/40/22
f 35/31/23 17/8/23 28/39/23
f 31/41/24 6/42/24 18/43/24
f 19/18/25 4/35/25 15/44/25
f 19/18/26 15/44/26 1/30/26
f 14/31/19 20/8/19 30/32/19
f 32/4/2 37/6/2 33/45/2
f 28/46/27 21/47/27 9/48/27
f 21/49/28 4/50/28 9/51/28
f 30/52/29 22/53/29 1/54/29
f 22/55/30 13/56/30 1/57/30
f 23/3/4 34/8/4 17/21/4
f 39/7/16 23/2/16 17/8/16
f 5/58/31 2/59/31 24/60/31
f 2/61/32 36/62/32 24/63/32
f 10/61/33 3/64/33 25/65/33
f 3/58/34 32/66/34 25/67/34
f 7/68/35 12/69/35 26/29/35
f 16/38/36 26/70/36 12/36/36
f 21/49/37 27/71/37 4/50/37
f 27/52/38 15/72/38 4/73/38
f 28/46/27 9/48/27 13/74/27
f 22/55/30 28/75/30 13/56/30
f 11/76/39 5/77/39 29/78/39
f 5/58/31 24/60/31 29/79/31
f 27/52/38 30/80/38 15/72/38
f 30/52/29 1/54/29 15/81/29
f 18/43/40 7/82/40 31/41/40
f 26/29/41 31/17/41 7/68/41
f 3/58/34 11/83/34 32/66/34
f 11/76/39 29/78/39 32/84/39
f 38/3/10 33/2/10 14/8/10
f 33/45/42 20/8/42 14/31/42
f 17/21/22 34/8/22 21/39/22
f 34/21/17 27/32/17 21/34/17
f 20/31/18 35/8/18 22/32/18
f 35/31/23 28/39/23 22/85/23
f 10/61/33 25/65/33 36/86/33
f 2/61/32 10/87/32 36/62/32
f 33/45/42 37/6/42 20/8/42
f 37/7/3 35/8/3 20/31/3
f 36/1/1 25/24/1 38/2/1
f 25/26/12 33/2/12 38/3/12
f 29/4/6 24/27/6 39/2/6
f 24/23/11 23/2/11 39/7/11
f 40/9/5 3/88/5 10/22/5
f 40/9/5 11/25/5 3/88/5
