# Blender v2.75 (sub 0) OBJ File: 'Empty.blend'
# www.blender.org
mtllib OW_FOREST_TREE_V3.mtl
o OW_FOREST_TREE_V3
v -2.978684 13.904075 -1.526363
v 0.088356 13.848791 -3.518410
v 0.471203 13.848791 3.786765
v 3.757645 17.473581 1.966350
v -0.955642 0.019510 0.231825
v -1.578800 14.785423 -1.436644
v -0.626133 11.641541 0.183535
v 3.538244 13.793510 1.794718
v -2.787260 13.904075 2.126224
v 3.346819 13.793510 -1.857869
v 3.547079 17.473581 -2.051495
v 0.279780 13.848790 0.134178
v -3.192395 17.473581 2.277702
v 1.525415 17.111904 1.713277
v 1.558781 13.927098 2.205391
v -3.402962 17.473579 -1.740144
v 0.383901 17.534391 4.157601
v -0.037231 17.534391 -3.878090
v -1.349622 17.052414 -2.387120
v 0.791711 0.019510 1.662999
v 0.995960 12.535576 0.651809
v 1.132605 0.019510 -0.569778
v 1.407359 17.110474 2.537464
v -0.260130 11.641549 1.134408
v 1.865146 17.044615 2.621360
v -0.145929 0.019510 -0.779636
v 0.980914 11.671556 -0.435038
v -0.853274 17.149265 -1.094088
v -0.688887 17.076628 -2.269862
v -0.486822 0.019510 1.453142
v 1.601425 0.019510 0.651539
v -1.514010 17.125051 -1.211346
v -0.279596 14.956060 -1.205560
v 0.435281 12.725947 0.336099
v 1.157004 12.486856 1.096522
v 1.983201 17.046043 1.797173
v -0.005611 11.656545 -0.601188
v -0.707899 15.037830 -0.691430
v 1.256584 14.159865 1.321422
v -0.286722 12.438421 0.256476
v -0.440713 17.125051 -1.623346
v -1.762184 17.076628 -1.857862
v 0.970879 14.204573 1.686467
v 1.237494 17.144117 2.083423
v 2.153067 17.012400 2.251214
v 0.726395 11.656561 1.300559
v 1.844380 13.882439 1.840264
v 0.844497 12.292667 -0.187828
v 1.122059 14.088120 2.128726
v -1.150141 14.703820 -1.950200
v 1.693365 13.998754 1.398561
v -0.500561 14.789161 -1.834557
v 1.346917 11.671565 0.515836
v 0.008275 12.619755 0.762709
v -1.357527 14.952532 -0.806880
vt 0.537700 -0.610001
vt 0.786333 -0.003721
vt 0.284359 -0.004724
vt 0.817889 -0.006402
vt 0.317889 0.001847
vt 0.545512 -0.804916
vt 0.619745 -0.993961
vt 0.001332 -0.414251
vt 0.005342 -0.991546
vt 0.996632 -0.993961
vt 0.996694 -0.464976
vt 0.398017 -1.001208
vt 0.996348 -0.996206
vt 0.998384 -0.472051
vt 0.352341 -1.003452
vt 0.627923 -0.991375
vt 0.003590 -0.387510
vt 0.003652 -0.991375
vt 0.615798 -1.001208
vt 0.001332 -0.402174
vt 0.001584 -0.995997
vt 0.996442 -0.998413
vt 0.992747 -0.479469
vt 0.346704 -0.996377
vt 0.600010 -0.996113
vt 0.001332 -0.409421
vt 0.002563 -0.993962
vt 0.997437 -0.993962
vt 0.996694 -0.474638
vt 0.370387 -0.996113
vt 0.534766 -0.724949
vt 0.810423 -0.000312
vt 0.310423 -0.000312
vt 0.619745 -0.993698
vt 0.005279 -0.394928
vt 0.004537 -0.991547
vt 0.991516 -0.998793
vt 0.994721 -0.305556
vt 0.354598 -0.996113
vt 0.994282 -1.000828
vt 0.998668 -0.486715
vt 0.354598 -0.998792
vt 0.637507 -0.993961
vt 0.001771 -0.998413
vt 0.795942 -0.000245
vt 0.295942 -0.000245
vt 0.540663 -0.811839
vt 0.799412 -0.000246
vt 0.299412 0.008004
vt 0.548968 -0.791513
vt 0.534742 -0.748087
vt 0.792192 0.000706
vt 0.292192 -0.007544
vt 0.514958 0.227894
vt 0.338219 0.231466
vt 0.298028 -2.539257
vt 0.654707 -2.539257
vt 0.624360 0.235040
vt 0.410199 0.235042
vt 0.815176 0.810413
vt 0.963721 0.772074
vt 1.067926 1.514340
vt 0.029668 0.772074
vt 0.111904 0.761441
vt 0.019348 1.506670
vt 0.529591 -0.091481
vt 0.366131 -0.092279
vt 0.600147 -0.881539
vt 0.692065 -0.759099
vt 0.709862 -0.126428
vt 0.379635 -2.539257
vt 0.800906 -2.539257
vt 0.729119 0.227895
vt 0.525834 -2.539257
vt 0.293865 -0.091481
vt 0.259637 -0.881539
vt 0.421423 -0.759099
vt 0.232832 0.235040
vt 0.181237 -2.539257
vt 0.616112 -2.539257
vt 0.942861 1.538031
vt 0.853457 0.838139
vt 1.045123 1.530021
vt 0.211387 0.789135
vt 0.121610 1.514680
vt 0.531386 0.417627
vt 0.702813 -2.539257
vt 0.680596 0.231470
vt 0.345044 0.227895
vt 0.953065 0.810413
vt 0.637148 -0.882072
vt 0.543791 0.046206
vt 0.400016 0.015884
vt 0.912217 1.530021
vt 0.485109 -0.823454
vt 0.622976 -0.929216
vt 0.617215 -0.127985
vt 0.568385 0.231466
vt 0.437163 -0.162888
vt 0.150053 0.976437
vt 0.291892 1.016225
vt 0.055184 1.521962
vt 0.314049 -0.929216
vt 0.575442 -0.854122
vt 0.421591 -0.127985
vt 0.267937 -2.539257
vt 0.151829 -2.539257
vt 0.637826 -0.758336
vt 0.546328 -0.162129
vt 0.367355 -0.126428
vt 0.891997 1.533492
vt 0.797901 1.017066
vt 1.037609 1.521962
vt 0.192741 1.036534
vt 0.143294 1.539257
vt -0.081446 1.533492
vt 0.568682 0.382924
vt 0.594396 0.015884
vt 0.444261 -0.034227
vt 0.388660 -0.781654
vt 0.379575 0.440759
vt 0.139067 0.827495
vt 0.047628 1.530361
vt -0.108081 1.514680
vt 0.366460 -0.854122
vt 0.600554 -0.092279
vt 0.682106 1.036534
vt 0.273542 -0.162129
vt 0.282233 -0.758336
vt -0.009498 0.789135
vt 0.521165 -0.053956
vt 0.377390 -0.023586
vt 0.524265 -0.743274
vt 0.245411 -0.743274
vt 0.772795 1.539257
vt -0.064018 1.516197
vt 0.859495 1.530361
vt 0.771239 0.827495
vt 0.632478 -0.034227
vt -0.064018 1.514340
vt 0.233460 0.231470
vt 0.359137 0.046206
vt 0.311795 -0.882072
vt 0.490378 -0.597276
vt 0.612598 -0.023586
vt 0.462651 0.026463
vt 0.672062 -0.597276
vt 0.655072 0.026463
vt 0.720767 -0.431318
vt 0.581578 -0.549320
vt 0.772285 -0.620425
vt 0.359269 -1.062049
vt 0.638978 -1.062049
vt 0.034387 0.957008
vt 0.736735 0.977327
vt 0.957681 0.957008
vt 1.025532 1.516197
vt 0.354719 -0.669363
vt 0.631677 -0.669363
vt 0.939567 0.977327
vt 0.800792 1.521962
vt 0.279414 0.429159
vt 0.436338 -0.645403
vt 0.335999 -0.531386
vt 0.645403 0.460802
vt -0.028221 1.016225
vt 0.200796 1.533492
vn -0.326300 -0.692800 0.643100
vn -0.375400 -0.697200 -0.610800
vn -0.998200 -0.028900 0.052300
vn 0.998200 0.028900 -0.052300
vn -0.454100 -0.000600 0.891000
vn 0.454100 0.000600 -0.891000
vn 0.454200 0.014500 -0.890800
vn -0.454200 -0.014500 0.890800
vn 0.730600 -0.681700 -0.038300
vn -0.544800 -0.014500 -0.838400
vn 0.544800 0.014500 0.838400
vn -0.544800 -0.026300 -0.838100
vn 0.544800 0.026300 0.838100
vn -0.710600 -0.702700 0.037200
vn 0.388400 -0.684500 0.617000
vn 0.321800 -0.684500 -0.654200
vn -0.784400 0.019000 -0.619900
vn 0.933100 0.016300 -0.359200
vn -0.210700 -0.108900 0.971500
vn 0.768400 -0.157200 0.620300
vn -0.709300 -0.480700 -0.515600
vn -0.899300 -0.224200 0.375500
vn 0.933500 0.016200 -0.358300
vn -0.933200 0.028000 0.358200
vn -0.627100 0.198200 0.753300
vn -0.932900 0.027900 0.359100
vn 0.162000 0.013500 -0.986700
vn -0.935000 0.037200 0.352600
vn 0.934700 -0.042700 -0.352900
vn -0.876800 0.342600 0.337500
vn -0.166400 0.029800 0.985600
vn -0.941700 0.043800 0.333500
vn -0.262900 -0.272400 0.925500
vn -0.194900 -0.113400 0.974300
vn -0.780500 0.019500 -0.624800
vn 0.910400 0.309300 -0.274700
vn 0.165900 0.013100 -0.986100
vn 0.896100 0.234200 -0.377000
vn -0.942200 -0.013900 0.334700
vn 0.161200 -0.339400 -0.926700
vn -0.161900 0.030200 0.986300
vn 0.780400 0.024300 0.624800
vn -0.205700 0.310700 0.928000
vn 0.933600 0.000300 -0.358400
vn -0.178200 0.172500 0.968800
vn 0.881400 0.328600 -0.339300
vn -0.872200 0.308600 0.379400
vn 0.875500 0.398600 -0.273200
vn 0.941100 -0.048900 -0.334600
vn 0.194700 0.111600 -0.974500
vn -0.676800 -0.495300 -0.544600
vn 0.207300 -0.329900 -0.921000
vn 0.770000 0.175400 0.613500
vn 0.682200 0.551000 0.480700
vn 0.211100 0.107000 -0.971600
vn 0.304400 0.414800 -0.857500
vn -0.221200 0.298500 0.928400
vn -0.616400 0.641000 -0.457400
vn 0.781100 0.168400 0.601200
vn -0.780600 -0.172900 -0.600600
vn -0.769100 0.152400 -0.620600
vn -0.547400 0.663800 -0.509700
vn -0.773500 0.153200 -0.615000
vn 0.772700 -0.158000 0.614800
vn 0.784000 0.023700 0.620400
vn 0.888100 -0.409100 0.209600
vn 0.896200 -0.243900 -0.370600
vn 0.602100 -0.585700 0.542600
vn 0.462000 0.826200 -0.322400
vn 0.842900 0.461500 0.276700
vn -0.154300 -0.296000 0.942700
vn -0.874200 0.362600 0.323000
vn -0.769100 -0.179400 -0.613400
vn 0.193700 -0.163500 -0.967300
vn 0.527200 0.173300 -0.831900
vn 0.901500 -0.249200 -0.353800
vn 0.942200 0.013900 -0.334700
vn 0.178200 -0.169800 -0.969200
vn 0.762100 -0.248300 0.597900
vn 0.875400 0.398600 -0.273300
vn -0.355200 0.926400 -0.124900
vn -0.853600 0.372500 0.364000
vn -0.193600 0.166100 0.966900
vn -0.933600 -0.000500 0.358400
usemtl OW_FOREST_TREE_V3_1
s off
f 12/1/1 17/2/1 13/3/1
f 16/4/2 18/5/2 12/6/2
f 12/7/3 18/8/3 2/9/3
f 2/10/4 18/11/4 12/12/4
f 3/13/3 17/14/3 12/15/3
f 12/16/4 17/17/4 3/18/4
f 12/19/5 16/20/5 1/21/5
f 1/22/6 16/23/6 12/24/6
f 12/25/7 4/26/7 8/27/7
f 8/28/8 4/29/8 12/30/8
f 12/31/9 11/32/9 4/33/9
f 12/34/10 11/35/10 10/36/10
f 10/37/11 11/38/11 12/39/11
f 9/40/12 13/41/12 12/42/12
f 12/43/13 13/20/13 9/44/13
f 13/45/14 16/46/14 12/47/14
f 4/48/15 17/49/15 12/50/15
f 12/51/16 18/52/16 11/53/16
usemtl OW_FOREST_TREE_V3_2
f 7/54/17 37/55/17 26/56/17
f 22/57/18 27/58/18 53/59/18
f 49/60/19 15/61/19 25/62/19
f 15/63/20 47/64/20 45/65/20
f 6/66/21 50/67/21 7/68/21
f 6/66/22 40/69/22 55/70/22
f 53/59/23 31/71/23 22/57/23
f 30/72/24 24/73/24 5/74/24
f 6/75/25 7/76/25 40/77/25
f 24/73/26 7/54/26 5/74/26
f 27/78/27 22/79/27 26/80/27
f 44/81/28 43/82/28 23/83/28
f 51/84/29 36/85/29 45/65/29
f 7/54/30 24/73/30 40/86/30
f 20/87/31 46/88/31 24/89/31
f 43/82/32 49/90/32 23/83/32
f 46/91/33 15/92/33 49/93/33
f 25/62/34 23/94/34 49/60/34
f 5/74/35 7/54/35 26/56/35
f 48/95/36 27/96/36 52/97/36
f 26/80/37 37/98/37 27/78/37
f 52/97/38 33/99/38 48/95/38
f 6/100/39 55/101/39 42/102/39
f 27/103/40 37/104/40 52/105/40
f 24/89/41 30/106/41 20/87/41
f 31/71/42 53/59/42 20/107/42
f 34/108/43 38/109/43 55/110/43
f 41/111/44 33/112/44 29/113/44
f 38/114/45 28/115/45 32/116/45
f 53/59/46 27/58/46 48/117/46
f 49/118/47 43/119/47 54/120/47
f 48/117/48 21/121/48 53/59/48
f 47/64/49 51/84/49 45/65/49
f 39/122/50 14/123/50 36/124/50
f 50/67/51 37/125/51 7/68/51
f 37/104/52 50/126/52 52/105/52
f 38/127/53 33/112/53 41/111/53
f 33/99/54 38/128/54 34/129/54
f 39/122/55 36/124/55 51/130/55
f 39/131/56 51/132/56 34/133/56
f 55/110/57 40/77/57 34/108/57
f 34/134/58 54/120/58 43/119/58
f 41/111/59 28/135/59 38/127/59
f 6/100/60 42/102/60 19/136/60
f 14/137/61 39/138/61 43/82/61
f 43/139/62 39/131/62 34/133/62
f 14/137/63 43/82/63 44/81/63
f 45/65/64 25/140/64 15/63/64
f 53/59/65 46/141/65 20/107/65
f 15/142/66 46/143/66 35/144/66
f 51/145/67 47/146/67 35/144/67
f 35/147/68 47/148/68 15/92/68
f 48/149/69 34/150/69 21/151/69
f 48/95/70 33/99/70 34/129/70
f 49/93/71 24/152/71 46/91/71
f 54/120/72 24/153/72 49/118/72
f 19/136/73 50/154/73 6/100/73
f 52/155/74 50/156/74 19/157/74
f 51/132/75 21/158/75 34/133/75
f 35/144/76 21/159/76 51/145/76
f 33/112/77 52/160/77 29/113/77
f 19/157/78 29/161/78 52/155/78
f 46/141/79 53/59/79 35/162/79
f 21/121/80 35/162/80 53/59/80
f 54/163/81 34/150/81 40/164/81
f 24/73/82 54/165/82 40/86/82
f 55/166/83 38/114/83 32/116/83
f 55/101/84 32/167/84 42/102/84
