# Blender v2.75 (sub 0) OBJ File: 'Empty.blend'
# www.blender.org
mtllib OW_LOB_BUSH_V8.mtl
o OW_LOB_BUSH_V8
v -0.725361 0.321272 0.373090
v -0.278939 0.321272 0.024307
v -1.195025 0.321272 0.056298
v -1.345369 0.271272 0.206272
v -1.520273 0.271272 -0.693532
v -0.849881 0.271272 -0.068381
v 0.991745 0.271272 0.611200
v 1.500927 0.271272 0.362855
v 1.422083 0.271272 -0.198149
v -0.456924 0.321272 0.151879
v 0.092766 0.321272 0.288932
v -0.496442 0.321272 -0.413259
v -1.038872 0.321272 -0.488274
v -0.472699 0.321272 -0.508045
v 0.218371 0.321272 -0.141038
v 0.762943 0.321272 -0.297192
v -0.098421 0.321272 -0.610703
v 0.787694 0.371272 0.126192
v 0.394157 0.371272 -0.281327
v 1.296876 0.371272 -0.122153
v 0.598208 0.271272 0.203681
v -0.463359 0.321272 -0.038151
v -0.976798 0.321272 -0.277571
v -0.076995 0.321272 -0.452475
v 0.431185 0.421272 -0.694883
v -0.038479 0.421272 -1.011676
v -0.484901 0.421272 -0.662893
v 0.782714 0.321272 -0.863364
v 0.028824 0.321272 -0.625480
v 0.392975 0.321272 -0.191502
v -0.351648 0.321272 -0.947963
v 0.275032 0.421272 -0.150312
v 1.218032 0.371272 -0.683157
v -1.759693 0.271272 -0.180092
v -0.957978 0.271272 -0.624491
v -0.291141 0.421272 -0.130540
v 0.250362 0.321272 -1.057125
v 0.660121 0.371272 -0.781532
v 0.864172 0.271272 -0.296524
v -0.907757 0.321272 -0.839866
v -0.022221 -0.000000 -0.546115
v 0.885559 -0.000000 -0.340854
v -0.539368 -0.000000 -0.509248
v 0.395852 -0.000000 -0.583994
v -0.081743 -0.000000 -0.142992
v -0.726738 -0.000000 -0.104097
v -1.272080 -0.000000 -0.265256
v 1.089610 -0.000000 0.144154
vt -0.477932 -0.524675
vt -0.783463 -1.051213
vt -1.057171 -0.406419
vt -0.537910 0.454928
vt -1.103199 0.339520
vt -0.836083 0.968786
vt 0.509900 1.485547
vt -0.011873 1.663952
vt 0.501490 2.036913
vt -0.529813 -1.505152
vt -0.538651 -2.084609
vt -1.078168 -1.692647
vt -0.508582 0.521667
vt -0.182460 0.996839
vt 0.062232 0.359318
vt -0.528689 -0.542096
vt 0.061413 -0.363072
vt -0.181248 -1.029860
vt -0.485006 -0.501011
vt -0.776595 -1.003523
vt -1.037813 -0.388152
vt -0.529165 -0.518290
vt -1.101520 -0.635140
vt -0.831065 0.001992
vt -0.085615 -0.990162
vt -0.155041 0.909206
vt 0.071972 -0.307637
vt -0.001248 0.243117
vt 0.475990 0.533561
vt 0.505394 -0.052194
vt -0.054084 0.325187
vt 0.456140 -0.543368
vt -0.061168 -0.340012
vt 0.484837 0.028281
vt 0.463287 -1.540099
vt -0.087171 -1.323711
vt 0.493823 -0.931817
vt -0.516317 1.509592
vt -0.487638 0.938300
vt -1.033301 1.306363
vt -0.468489 -0.070430
vt -1.041185 0.301491
vt -1.086029 -0.323004
vt -0.497772 0.073789
vt 0.491900 0.489309
vt -0.022187 0.296708
vt 0.135189 0.927857
vt 0.491917 -0.509063
vt 0.126233 -0.958643
vt -0.035102 -0.311616
vt 0.489877 -0.485537
vt 1.057118 -0.539761
vt 0.623126 -1.056975
vt 0.474398 -0.554462
vt 0.607647 0.016975
vt 1.041639 -0.500239
vt 0.806434 0.997463
vt 1.037224 0.363295
vt 1.003859 -0.377203
vt 0.778627 -0.996098
vt -0.110591 -0.945257
vt -0.141510 -0.058334
vt 0.039806 -0.293877
vt 0.014205 -0.732749
vt 1.041286 -0.386881
vt 0.791477 -1.005160
vt 0.784109 0.973232
vt 1.027787 0.370126
vt -0.002917 -0.804050
vt 0.044158 -0.130520
vt 0.028680 -0.909479
vt -0.018396 -0.235950
vt -0.194032 1.962039
vt 0.031059 1.343531
vt 1.046105 -1.363285
vt 0.806439 -2.021840
vt -0.872129 -1.058438
vt 0.184178 1.060487
vt 0.000828 -1.692647
vt 1.014817 1.663952
vt 0.699296 0.032819
vt 0.683817 -1.072819
vt -0.851843 1.939068
vt 0.106037 -1.997382
vt 0.530432 0.041752
vt 0.529469 -0.047989
vt 0.131969 0.973910
vt 0.120405 -0.973113
vt -0.533249 0.050433
vt -0.579114 -1.089234
vt -0.528482 0.053137
vt -0.587242 -0.108968
vt -0.205273 -1.058438
vt 0.818707 1.060487
vt -0.864409 0.961099
vt -0.890406 -1.005096
vn 0.352900 0.775700 -0.523200
vn -0.352900 -0.775700 0.523200
vn -0.503600 -0.831400 -0.234800
vn 0.503600 0.831400 0.234800
vn -0.098300 0.824200 0.557700
vn 0.098300 -0.824200 -0.557700
vn 0.629600 0.775700 -0.044000
vn -0.629600 -0.775700 0.044000
vn 0.596600 0.784100 0.171100
vn -0.596600 -0.784100 -0.171100
vn 0.022000 0.775700 0.630800
vn -0.022000 -0.775700 -0.630800
vn 0.523200 0.775700 -0.352900
vn -0.523200 -0.775700 0.352900
vn -0.492800 -0.728500 0.475900
vn 0.492800 0.728500 -0.475900
vn 0.407300 0.824200 -0.393400
vn -0.407300 -0.824200 0.393400
vn -0.266700 -0.775700 0.572000
vn 0.266700 0.775700 -0.572000
vn 0.685600 0.683800 -0.249500
vn -0.685600 -0.683800 0.249500
vn -0.215900 0.775700 0.593100
vn 0.215900 -0.775700 -0.593100
vn 0.232500 0.784100 0.575400
vn -0.232500 -0.784100 -0.575400
vn -0.483500 0.775700 0.405700
vn 0.483500 -0.775700 -0.405700
vn 0.120400 0.775700 0.619600
vn -0.120400 -0.775700 -0.619600
vn -0.701400 0.683800 -0.201100
vn 0.701400 -0.683800 0.201100
vn -0.119000 0.728500 0.674600
vn 0.119000 -0.728500 -0.674600
vn 0.386200 0.824200 -0.414100
vn -0.386200 -0.824200 0.414100
vn -0.069000 0.824200 0.562100
vn 0.069000 -0.824200 -0.562100
vn -0.025100 0.693900 -0.719700
vn 0.025100 -0.693900 0.719700
vn 0.489000 0.784100 0.382100
vn -0.489000 -0.784100 -0.382100
vn 0.595900 0.737900 0.316800
vn -0.595900 -0.737900 -0.316800
vn 0.490600 0.831400 0.260800
vn -0.490600 -0.831400 -0.260800
vn 0.616000 0.784100 0.075600
vn -0.616000 -0.784100 -0.075600
vn 0.458800 0.666700 0.587300
vn -0.416800 0.666700 0.617900
vn -0.458800 -0.666700 -0.587300
vn 0.416800 -0.666700 -0.617900
vn -0.695000 0.712400 0.097700
vn -0.307600 0.712400 -0.630800
vn 0.695000 -0.712400 -0.097700
vn 0.307600 -0.712400 0.630800
vn -0.567400 0.761000 0.314500
vn -0.474500 0.761000 -0.442400
vn 0.567400 -0.761000 -0.314500
vn 0.474500 -0.761000 0.442400
vn -0.648300 0.761000 -0.022600
vn -0.178800 0.761000 -0.623600
vn 0.648300 -0.761000 0.022600
vn 0.178800 -0.761000 0.623600
vn -0.550200 0.761000 -0.343800
vn 0.156900 0.761000 -0.629500
vn 0.550200 -0.761000 0.343800
vn -0.156900 -0.761000 0.629500
vn -0.609600 0.761000 0.221900
vn -0.399400 0.761000 -0.511200
vn 0.609600 -0.761000 -0.221900
vn 0.399400 -0.761000 0.511200
vn -0.573500 0.811600 0.111500
vn -0.283200 0.811600 -0.510900
vn 0.573500 -0.811600 -0.111500
vn 0.283200 -0.811600 0.510900
vn -0.578500 0.811600 0.081300
vn -0.256100 0.811600 -0.525100
vn 0.578500 -0.811600 -0.081300
vn 0.256100 -0.811600 0.525100
usemtl OW_LOB_BUSH_V8_1
s off
f 46/1/1 3/2/1 1/3/1
f 46/4/2 1/5/2 3/6/2
f 47/7/3 34/8/3 5/9/3
f 47/10/4 5/11/4 34/12/4
f 48/13/5 9/14/5 39/15/5
f 48/16/6 39/17/6 9/18/6
f 45/19/7 12/20/7 10/21/7
f 45/22/8 10/23/8 12/24/8
f 46/1/9 13/25/9 3/2/9
f 46/4/10 3/6/10 13/26/10
f 46/1/11 14/27/11 13/25/11
f 46/4/12 13/26/12 14/28/12
f 44/29/13 17/30/13 15/31/13
f 44/32/14 15/33/14 17/34/14
f 42/35/15 18/36/15 19/37/15
f 42/38/16 19/39/16 18/40/16
f 48/13/17 21/41/17 7/42/17
f 48/16/18 7/43/18 21/44/18
f 43/45/19 22/46/19 23/47/19
f 43/48/20 23/49/20 22/50/20
f 41/51/21 27/52/21 36/53/21
f 41/54/22 36/55/22 27/56/22
f 44/29/23 28/57/23 37/58/23
f 44/32/24 37/59/24 28/60/24
f 45/19/25 29/61/25 12/20/25
f 45/22/26 12/24/26 29/62/26
f 45/19/27 30/63/27 29/61/27
f 45/22/28 29/62/28 30/64/28
f 43/48/29 31/65/29 40/66/29
f 43/45/30 40/67/30 31/68/30
f 41/51/31 32/69/31 25/70/31
f 41/54/32 25/71/32 32/72/32
f 42/38/33 33/73/33 38/74/33
f 42/35/34 38/75/34 33/76/34
f 47/10/35 34/12/35 4/77/35
f 47/7/36 4/78/36 34/8/36
f 47/10/37 35/79/37 5/11/37
f 47/7/38 5/9/38 35/80/38
f 41/51/39 36/53/39 32/69/39
f 41/54/40 32/72/40 36/55/40
f 44/29/41 37/58/41 17/30/41
f 44/32/42 17/34/42 37/59/42
f 42/38/43 38/74/43 19/39/43
f 42/35/44 19/37/44 38/75/44
f 48/13/45 39/15/45 21/41/45
f 48/16/46 21/44/46 39/17/46
f 43/48/47 40/66/47 23/49/47
f 43/45/48 23/47/48 40/67/48
f 41/51/49 26/81/49 27/52/49
f 41/51/50 25/70/50 26/81/50
f 41/54/51 27/56/51 26/82/51
f 41/54/52 26/82/52 25/71/52
f 42/38/53 20/83/53 33/73/53
f 42/38/54 18/40/54 20/83/54
f 42/35/55 33/76/55 20/84/55
f 42/35/56 20/84/56 18/36/56
f 43/48/57 24/85/57 31/65/57
f 43/48/58 22/50/58 24/85/58
f 43/45/59 31/68/59 24/86/59
f 43/45/60 24/86/60 22/46/60
f 44/29/61 16/87/61 28/57/61
f 44/29/62 15/31/62 16/87/62
f 44/32/63 28/60/63 16/88/63
f 44/32/64 16/88/64 15/33/64
f 45/19/65 11/89/65 30/63/65
f 45/19/66 10/21/66 11/89/66
f 45/22/67 30/64/67 11/90/67
f 45/22/68 11/90/68 10/23/68
f 46/1/69 2/91/69 14/27/69
f 46/1/70 1/3/70 2/91/70
f 46/4/71 14/28/71 2/92/71
f 46/4/72 2/92/72 1/5/72
f 47/10/73 6/93/73 35/79/73
f 47/10/74 4/77/74 6/93/74
f 47/7/75 35/80/75 6/94/75
f 47/7/76 6/94/76 4/78/76
f 48/13/77 8/95/77 9/14/77
f 48/13/78 7/42/78 8/95/78
f 48/16/79 9/18/79 8/96/79
f 48/16/80 8/96/80 7/43/80
