# Blender v2.75 (sub 0) OBJ File: 'Empty.blend'
# www.blender.org
mtllib OW_LOB_TREE_V5.mtl
o OW_LOB_TREE_V5
v 6.354012 7.286403 -8.093971
v 10.587608 32.324703 1.733349
v 3.348292 6.983379 10.007245
v -10.818745 7.698998 -1.635918
v -3.579425 33.040321 -9.909815
v -7.098306 7.359449 8.278875
v 4.180316 21.153856 11.312374
v -6.585147 32.737301 8.191403
v -4.004648 21.900864 -10.500172
v 10.074450 6.946854 1.820822
v -4.092584 7.662473 -9.822340
v -0.372146 7.322928 0.092452
v -11.403421 21.941042 -1.495107
v -7.310941 21.567533 9.411165
v 7.486610 21.487185 -8.598968
v 11.579090 21.113678 2.307307
v 2.484565 7.908873 -0.482244
v -2.446351 15.686582 0.854530
v 1.507989 0.024388 0.169938
v 3.861450 32.361229 9.919773
v -10.305583 33.076851 -1.723391
v 6.867172 32.664253 -8.181443
v -2.319451 9.195077 0.135127
v 1.895333 14.139880 -0.663755
v 1.010562 4.858571 -0.510109
v -1.762530 0.024388 0.169938
v -3.744811 15.595784 0.135995
v -0.200136 5.157434 -0.008515
v 2.804255 14.138093 -0.156783
v 0.690360 0.024388 -1.228072
v -0.944900 0.024388 1.567947
v 2.804255 14.015499 -1.155234
v -0.855612 3.839446 -0.990694
v -4.177632 15.565518 0.854530
v -2.879171 15.656316 1.573066
v -0.944900 0.024388 -1.228072
v 0.690360 0.024388 1.567947
v 2.199465 8.110150 -0.006943
v 0.419955 3.801936 1.160623
v -0.853646 3.801926 1.161786
v -3.578398 8.879775 0.817463
v -1.491430 3.820682 0.086128
v -2.879171 15.656316 0.135995
v -3.744811 15.595784 1.573066
v -1.911337 9.297289 0.865256
v 3.107229 14.055767 -0.653427
v -3.171111 8.981779 1.547749
v 1.615637 8.255715 -0.028634
v 2.198307 14.180149 -0.161947
v 2.198307 14.057554 -1.160398
v 1.603303 7.998442 -1.000728
v -0.616484 4.798027 0.798377
v -2.337071 9.190664 1.571639
v 1.317623 8.199833 -0.525571
v 0.106425 5.024693 0.680895
v 1.055772 3.820701 0.083801
v -3.152459 8.986451 0.111223
v -0.628234 4.615834 -0.720759
v 0.419451 4.919471 -0.521389
v 2.186408 7.853049 -0.979094
v 0.417988 3.839456 -0.991857
vt 0.685054 0.513746
vt 0.314142 0.565997
vt 0.709892 -2.011146
vt 0.408342 -2.065861
vt 0.982308 -2.074810
vt 0.207685 0.507979
vt 0.899534 -0.229281
vt 0.985577 3.326763
vt 0.463575 -0.146189
vt 0.109948 0.440322
vt 0.110855 -0.640582
vt -0.030035 0.429090
vt 0.558431 -0.863745
vt 0.444039 2.547706
vt 0.184357 -0.834046
vt 0.767555 -0.399359
vt 0.838556 2.006810
vt 0.427575 -0.380836
vt 0.704578 -4.049811
vt 1.122121 -4.018570
vt 1.112744 -1.737289
vt 0.399010 -1.430252
vt 0.475052 -2.811267
vt 1.000338 -2.816050
vt -0.029025 -0.639518
vt 0.639689 2.915613
vt 0.214250 2.896220
vt 0.737278 0.572033
vt 0.062368 2.651849
vt 0.235248 -0.559044
vt 0.414788 -0.435478
vt 0.553273 -2.020994
vt 1.243282 -2.010602
vt 0.789519 0.607179
vt 1.102236 -4.285731
vt 0.656005 -1.738683
vt 0.491149 1.982455
vt 0.665300 0.760609
vt 0.452914 4.351124
vt 0.235573 4.325808
vt 1.169133 -3.172001
vt 0.377490 -5.258669
vt 0.891925 -5.136968
vt 0.521509 -3.873358
vt 0.977537 -3.872635
vt 0.065603 2.569033
vt 0.882368 -2.144153
vt 0.618380 -2.251308
vt 0.806384 -2.555968
vt 0.183998 -2.399756
vt 0.691017 -2.787527
vt -0.035879 4.028357
vt 0.788301 -0.530735
vt 0.659941 1.674348
vt 0.147622 1.663262
vt 0.384536 -3.957412
vt 1.246278 -4.017710
vt 0.147532 -2.001264
vt 0.677590 -4.284308
vt 1.131792 0.485511
vt 1.424423 4.207270
vt 0.309986 -2.136082
vt 0.282549 -0.567866
vt 1.025004 -1.433936
vt 0.714672 -2.274603
vt 0.341366 4.013432
vt 0.591333 0.558515
vt 0.081836 3.757622
vt 0.536588 3.326664
vt 0.466833 3.771842
vt 0.132910 -0.019801
vt 0.955041 -1.995242
vt 1.065128 4.257069
vt 0.328446 0.499571
vt 0.369111 -1.621644
vt 0.765503 -1.556823
vt 0.401941 2.707383
vt 0.912491 -4.169152
vt 0.385714 -4.090235
vt 0.802660 2.761747
vt 0.251014 2.713682
vt 0.456048 0.674895
vt 0.411834 -2.121852
vt 0.628468 -1.117605
vt 0.407670 -0.242395
vt 0.281738 -0.501155
vt 0.601366 -0.403831
vt 0.781738 -0.742395
vt 0.361913 -3.184401
vt 0.702827 -2.596273
vt 1.094234 -3.225969
vt 1.029513 -1.259968
vt 0.561126 -1.134338
vt 0.773184 -1.098206
vt -0.285016 0.957877
vt -0.599264 0.128458
vt -0.846935 0.980125
vt 0.996847 -0.066067
vt 0.006822 -1.268058
vt 0.992503 -0.762217
vt 0.124940 -0.049764
vt -0.005823 -0.585212
vt 0.993178 -1.268058
vt 0.219549 0.017254
vt 0.375511 -0.912771
vt 0.810130 -0.075879
vt 0.924053 -0.047193
vt 0.206968 -1.487432
vt 1.018269 -0.635633
vt -0.001898 -0.254552
vt 0.014037 -0.977165
vt 1.071594 -0.975808
vt -0.984173 -0.998601
vt -0.994169 -0.292961
vt -0.146649 0.481697
vt 0.982719 -0.199658
vt -0.017170 -1.420720
vt 0.989768 -0.729495
vt 0.003869 -0.417821
vt 0.041859 -0.993511
vt 0.601807 -1.005031
vt 0.996131 -0.417821
vt 0.257376 -1.000373
vt 1.005714 -0.991182
vt 0.248326 -0.010952
vt 0.812893 -0.012337
vt 0.467982 -1.010135
vt 0.164079 0.932380
vt 0.568013 1.007248
vt 0.573752 -0.063782
vt 0.009261 -0.263941
vt 0.003146 -0.917992
vt 0.904663 -0.635845
vt 0.992642 -0.128858
vt 0.234250 -1.213440
vt 0.993048 -0.785238
vt 0.003254 -0.187092
vt 0.002620 -0.756975
vt 0.972642 -0.740660
vt 0.996746 -0.222027
vt 0.171980 -0.971232
vt 0.995477 -0.724369
vt 0.993574 -0.296580
vt 0.227165 -0.994546
vt 0.991932 -0.983948
vt -0.004992 -0.131220
vt 0.002359 -0.981619
vt 0.761418 -0.992217
vt 0.956715 -0.076981
vt 0.275882 -1.008814
vt 1.027537 -0.935332
vt 0.043285 -0.076981
vt -0.027537 -0.935332
vt 0.724118 -1.008814
vt 0.211271 -0.012128
vt 0.554708 -1.122130
vt 0.788729 -0.028554
vt 0.005383 -0.198729
vt -0.004992 -0.799590
vt 0.936486 -0.638174
vt 0.998117 -0.236558
vt 0.134187 -1.419461
vt 0.984209 -0.762956
vt 0.990144 -0.150806
vt 0.259637 -1.017566
vt 0.980481 -0.981030
vt 0.009856 -0.150806
vt 0.019519 -0.981030
vt 0.740363 -1.017566
vt 0.998878 -0.366067
vt 0.366599 -0.996720
vt 0.962141 -0.998347
vt 0.001122 -0.366067
vt 0.037859 -0.998347
vt 0.633401 -0.996720
vt 0.029044 -0.167927
vt 0.023779 -0.966614
vt 0.785910 -1.014687
vt 0.970956 -0.167927
vt 0.214090 -1.014687
vt 0.976221 -0.966614
vt 0.751637 -0.076903
vt 0.140647 -0.078879
vt 0.859353 -0.795609
vt 0.300130 0.995409
vt 0.497018 0.009031
vt 0.932849 0.915560
vt 0.896429 -0.103571
vt 0.103571 -0.126070
vt 0.645799 -0.896429
vt -0.103632 0.941255
vt -0.741337 0.934703
vt -0.412721 -0.015958
vt 0.988094 -0.802184
vt 0.965656 -0.187985
vt -0.235964 -0.620652
vt 0.797549 0.002452
vt 0.510794 -0.995037
vt 0.210531 -0.003128
vt 0.148239 -0.027538
vt 0.264672 -1.147555
vt 0.851761 -0.012326
vn -0.809700 -0.257800 -0.527300
vn -0.793500 -0.394300 0.463600
vn 0.027100 0.006200 -0.999600
vn 0.865900 0.075100 -0.494500
vn 0.858100 -0.100400 -0.503600
vn -0.030200 0.027900 0.999200
vn 0.000000 0.062100 -0.998100
vn 0.000000 0.106900 0.994300
vn 0.853100 0.070600 -0.516900
vn 0.000000 -0.000200 1.000000
vn -0.841900 0.068600 -0.535200
vn 0.842700 -0.214200 0.493900
vn 0.854700 0.113300 0.506600
vn -0.000900 0.061700 -0.998100
vn -0.006900 0.023200 0.999700
vn 0.006600 -0.027000 -0.999600
vn 0.859500 0.092500 -0.502700
vn -0.860800 0.074900 0.503400
vn 0.855300 -0.100800 -0.508300
vn -0.135400 0.826200 -0.546900
vn 0.649300 0.364600 -0.667500
vn -0.849000 -0.074100 -0.523200
vn 0.853000 0.072300 0.516900
vn -0.862100 0.051500 -0.504200
vn 0.857400 0.115400 0.501500
vn 0.842000 -0.070400 0.534900
vn 0.800000 -0.201400 0.565200
vn 0.015400 0.207600 0.978100
vn 0.849500 0.071100 0.522700
vn 0.000900 0.107300 0.994200
vn -0.168800 0.322200 0.931500
vn -0.852900 -0.073600 -0.516900
vn -0.865700 -0.080300 0.494000
vn -0.860400 0.050200 -0.507100
vn -0.857300 0.072500 0.509600
vn -0.000000 0.000100 -1.000000
vn -0.852700 -0.075900 0.516800
vn 0.766100 0.419500 -0.487000
vn 0.818600 0.227000 0.527600
vn 0.846200 -0.071800 0.528100
vn -0.781600 -0.386200 0.489800
vn -0.027100 -0.006200 0.999600
vn -0.858400 0.095200 0.504100
vn -0.776300 0.457800 0.433300
vn -0.855500 0.095600 0.508900
vn -0.846400 0.070000 -0.527900
vn -0.608000 0.111400 -0.786100
vn 0.029200 -0.031500 -0.999100
vn 0.819800 0.228700 0.524900
vn 0.000900 0.342600 0.939500
vn -0.008900 -0.078300 0.996900
vn 0.646800 0.120800 0.753100
vn -0.782800 0.461500 0.417500
vn -0.764400 0.282800 -0.579400
vn -0.243900 0.926400 0.286800
vn 0.033900 0.372500 0.927400
vn 0.857300 0.090600 -0.506700
vn 0.699000 -0.332000 -0.633400
vn -0.828500 -0.264000 -0.493800
vn -0.016300 0.177900 -0.983900
vn 0.170800 0.278600 -0.945100
vn -0.000900 0.328600 -0.944500
vn 0.058600 0.398800 -0.915100
vn -0.001500 -0.153200 -0.988200
vn 0.002800 -0.155800 -0.987800
vn 0.809200 -0.387000 -0.442100
vn 0.831300 -0.248300 -0.497200
vn 0.058600 0.398600 -0.915300
vn -0.781700 -0.560100 0.274200
vn -0.810200 -0.011300 -0.586000
vn 0.810200 0.011300 0.586000
vn 0.744300 -0.596900 -0.299700
vn -0.216400 0.030800 0.975800
vn 0.216400 -0.030800 -0.975800
vn 0.933900 -0.017800 -0.357000
vn -0.933900 0.017800 0.357000
vn -0.163800 -0.016500 0.986400
vn 0.163800 0.016500 -0.986400
vn -0.731600 -0.324400 -0.599600
vn 0.141200 -0.343500 -0.928500
vn -0.102700 0.030500 0.994200
vn 0.102700 -0.030500 -0.994200
vn -0.729500 -0.014900 -0.683800
vn 0.729500 0.014900 0.683800
vn -0.772000 0.039000 -0.634500
vn 0.772000 -0.039000 0.634500
vn -0.935800 0.022500 0.351900
vn 0.935800 -0.022500 -0.351900
vn -0.165500 -0.335900 0.927200
vn -0.938200 0.017500 0.345800
vn 0.938200 -0.017500 -0.345800
vn -0.648200 -0.546700 -0.530100
vn -0.152300 -0.591900 0.791500
vn 0.114800 -0.565100 -0.817000
vn 0.610700 -0.610300 0.504500
vn 0.721500 -0.355300 0.594400
vn -0.890400 -0.320600 0.323100
vn 0.869700 -0.359000 -0.338700
usemtl OW_LOB_TREE_V5_2
s off
f 41/1/1 57/2/1 42/3/1
f 42/4/2 40/5/2 41/6/2
f 57/7/3 27/8/3 23/9/3
f 23/10/4 43/11/4 45/12/4
f 60/13/5 32/14/5 17/15/5
f 38/16/6 29/17/6 48/18/6
f 30/19/7 36/20/7 33/21/7
f 40/22/8 31/23/8 37/24/8
f 18/25/9 45/12/9 43/11/9
f 35/26/10 44/27/10 53/28/10
f 50/29/11 51/30/11 54/31/11
f 39/32/12 56/33/12 38/34/12
f 56/33/13 39/32/13 19/35/13
f 30/19/14 33/21/14 61/36/14
f 48/18/15 29/17/15 49/37/15
f 51/38/16 50/39/16 32/40/16
f 61/41/17 19/42/17 30/43/17
f 40/5/18 26/44/18 31/45/18
f 46/46/19 17/15/19 32/14/19
f 28/47/20 59/48/20 58/49/20
f 23/9/21 28/50/21 58/51/21
f 27/52/22 57/2/22 41/1/22
f 45/53/23 18/54/23 35/55/23
f 36/56/24 26/57/24 33/58/24
f 37/59/25 19/35/25 39/32/25
f 17/60/26 46/61/26 38/34/26
f 17/60/27 38/34/27 56/33/27
f 48/18/28 55/62/28 38/16/28
f 45/53/29 35/55/29 53/63/29
f 40/22/30 37/24/30 39/64/30
f 39/65/31 38/16/31 55/62/31
f 27/52/32 41/1/32 34/66/32
f 41/6/33 47/67/33 34/68/33
f 42/3/34 33/58/34 26/57/34
f 42/4/35 26/44/35 40/5/35
f 23/9/36 27/8/36 43/69/36
f 44/70/37 34/68/37 47/67/37
f 45/71/38 28/50/38 23/9/38
f 45/53/39 53/63/39 28/72/39
f 29/73/40 38/34/40 46/61/40
f 41/6/41 40/5/41 47/67/41
f 53/28/42 44/27/42 47/74/42
f 54/75/43 48/76/43 24/77/43
f 55/78/44 48/76/44 28/79/44
f 48/76/45 49/80/45 24/77/45
f 24/81/46 50/29/46 54/31/46
f 59/48/47 28/47/47 51/30/47
f 51/38/48 32/40/48 60/82/48
f 52/83/49 28/72/49 53/63/49
f 39/64/50 52/84/50 40/22/50
f 40/22/51 53/28/51 47/74/51
f 40/22/52 52/84/52 53/28/52
f 54/75/53 28/79/53 48/76/53
f 51/30/54 28/47/54 54/31/54
f 28/85/55 52/86/55 55/87/55
f 55/87/56 52/86/56 39/88/56
f 56/89/57 19/42/57 61/41/57
f 56/89/58 25/90/58 17/15/58
f 42/3/59 57/2/59 33/58/59
f 23/9/60 58/51/60 57/7/60
f 33/91/61 57/7/61 58/51/61
f 33/21/62 58/92/62 61/36/62
f 25/93/63 58/92/63 59/94/63
f 59/94/64 51/38/64 60/82/64
f 59/94/65 60/82/65 25/93/65
f 60/13/66 17/15/66 25/90/66
f 61/41/67 25/90/67 56/89/67
f 25/93/68 61/36/68 58/92/68
usemtl OW_LOB_TREE_V5_1
f 13/95/69 12/96/69 14/97/69
f 8/98/70 12/99/70 14/100/70
f 8/101/71 14/102/71 12/103/71
f 16/104/72 12/105/72 15/106/72
f 2/107/73 12/108/73 16/109/73
f 2/110/74 16/111/74 12/112/74
f 20/113/75 7/114/75 12/115/75
f 20/116/76 12/117/76 7/118/76
f 13/119/77 4/120/77 12/121/77
f 13/122/78 12/123/78 4/124/78
f 21/125/79 5/126/79 12/127/79
f 5/128/80 22/129/80 12/130/80
f 21/131/81 13/132/81 12/133/81
f 21/134/82 12/135/82 13/136/82
f 22/137/83 15/138/83 12/139/83
f 22/140/84 12/141/84 15/142/84
f 14/143/85 12/144/85 6/145/85
f 14/146/86 6/147/86 12/148/86
f 7/149/87 12/150/87 3/151/87
f 7/152/88 3/153/88 12/154/88
f 8/155/89 12/156/89 20/157/89
f 5/158/90 9/159/90 12/160/90
f 5/161/91 12/162/91 9/163/91
f 16/164/77 12/165/77 10/166/77
f 16/167/78 10/168/78 12/169/78
f 15/170/86 12/171/86 1/172/86
f 15/173/85 1/174/85 12/175/85
f 9/176/87 11/177/87 12/178/87
f 9/179/88 12/180/88 11/181/88
f 13/182/92 9/183/92 12/184/92
f 14/185/93 12/186/93 7/187/93
f 9/188/94 15/189/94 12/190/94
f 16/191/95 7/192/95 12/193/95
f 2/194/96 20/195/96 12/196/96
f 21/197/97 12/198/97 8/199/97
f 2/200/98 12/201/98 22/202/98
