# Blender v2.75 (sub 0) OBJ File: 'Empty.blend'
# www.blender.org
mtllib OW_LOB_RICEPLANT_COUPLE.mtl
o OW_LOB_RICEPLANT_COUPLE
v 8.183900 -0.376891 -0.594933
v 8.218784 0.721003 0.389812
v 7.943524 0.662978 -1.448302
v 8.068727 -0.455355 2.202646
v 7.341746 0.714787 1.817947
v 8.783420 0.666741 2.356484
v -4.009276 -0.376891 0.144596
v -4.308693 0.718931 -0.736994
v -3.553946 0.664233 0.844172
v -6.533776 -0.376891 -1.313731
v -7.206437 0.718931 -1.957455
v -5.806866 0.664233 -0.903447
v -10.804766 -0.376891 1.652968
v -10.780384 0.717550 2.547488
v -11.029345 0.665069 0.884992
v -1.096770 -0.376891 -3.097505
v -0.881966 0.716399 -2.259913
v -1.476817 0.665766 -3.768729
v -9.259789 -0.376891 -0.442671
v -8.533540 0.715478 -0.865912
v -9.782388 0.666323 0.092945
v -0.416768 -0.376891 1.103904
v -0.225515 0.715018 0.297759
v -0.387165 0.666602 1.840125
v 8.116320 -0.367498 -0.515669
v 8.849443 0.677725 -0.868399
v 7.423753 0.677725 -0.291344
v 7.999783 0.678952 2.779766
v 8.032164 -0.445963 2.105112
v 8.154197 0.678952 1.515620
v 8.219213 -0.376891 -3.304558
v 8.812181 0.714097 -2.760988
v 7.580365 0.667159 -3.622975
v 4.981781 -0.376891 2.457494
v 5.779440 0.713866 2.423421
v 4.310556 0.667299 2.682870
v 5.839713 -0.376891 -1.521838
v 5.487115 0.713406 -0.818988
v 5.964622 0.667577 -2.207098
v -6.541132 -0.367498 -1.417634
v -6.799131 0.678134 -0.694783
v -6.221826 0.678134 -2.024771
v -3.967824 -0.367498 0.049036
v -4.530447 0.678134 0.571081
v -3.404252 0.678134 -0.342062
v -11.686118 -0.376891 -1.061555
v -12.222034 0.712255 -1.595091
v -11.096703 0.668274 -0.747612
v -10.872343 -0.367498 1.732234
v -10.209976 0.678406 1.409488
v -11.499453 0.678407 1.931411
v 1.869964 -0.376891 2.057172
v 2.418366 0.711794 1.554129
v 1.537661 0.668553 2.623149
v -4.347085 -0.376891 -2.970141
v -4.868406 0.711794 -2.439088
v -4.044858 0.668553 -3.552732
v -1.144786 -0.367498 -3.005067
v -0.592729 0.678634 -3.453499
v -1.691645 0.678634 -2.683003
v -9.157699 -0.367498 -0.421993
v -9.724784 0.678815 -0.816436
v -8.711704 0.678816 0.002892
v -0.331494 -0.367498 1.044084
v -0.997835 0.678906 1.182409
v 0.274418 0.678907 1.014103
v 8.230190 -0.367498 -3.200974
v 8.425070 0.679088 -3.831640
v 7.969813 0.679088 -2.673774
v 5.062788 -0.367498 2.522975
v 4.756762 0.679133 1.943891
v 5.249670 0.679134 3.075561
v 5.743169 -0.367498 -1.482734
v 6.387797 0.679224 -1.470454
v 5.178555 0.679225 -1.586126
v 3.245827 -0.376891 -2.781611
v 2.870685 0.670922 -2.367469
v 3.809666 0.707881 -3.088414
v 3.984152 -0.376891 0.325509
v 4.527111 0.670922 0.457579
v 3.445489 0.707881 -0.023609
v -6.921445 -0.376891 1.427839
v -6.395785 0.670922 1.238292
v -7.563320 0.707881 1.434023
v 0.371754 -0.376891 -0.958332
v 0.905181 0.670922 -1.124770
v -0.269780 0.707881 -0.980153
v -2.814147 -0.376891 2.440312
v -2.331832 0.670922 2.158145
v -3.444146 0.707881 2.563365
v -9.316822 -0.376891 -3.254155
v -8.783397 0.670922 -3.420593
v -9.958356 0.707881 -3.275975
v -11.693475 -0.367498 -1.165458
v -11.894540 0.679451 -0.579834
v -11.430355 0.679452 -1.649216
v 1.974091 -0.367498 2.054353
v 1.407077 0.679542 1.832272
v 2.437579 0.679543 2.334083
v -4.450920 -0.367498 -2.961877
v -3.873062 0.679542 -2.769776
v -4.928413 0.679543 -3.216966
v 3.347917 -0.367498 -2.760934
v 2.913993 0.680315 -3.051214
v 3.675708 0.680315 -2.435178
v 0.294285 -0.367498 -1.027964
v 0.520838 0.680315 -0.557617
v 0.177184 0.680315 -1.475011
v -7.001878 -0.367498 1.361653
v -6.755023 0.680315 1.821671
v -7.138367 0.680315 0.920140
v 3.953611 -0.367498 0.225924
v 3.905560 0.680315 0.745774
v 4.083482 0.680315 -0.217581
v -2.905294 -0.367498 2.389893
v -2.578742 0.680315 2.797221
v -3.119957 0.680315 1.980646
v -9.394292 -0.367498 -3.323786
v -9.167738 0.680315 -2.853441
v -9.511392 0.680315 -3.770833
v 8.748964 -0.469905 -3.818858
v 8.396504 -0.469905 -2.455987
v 7.392453 -0.469905 -3.442664
v 8.236660 0.193620 -3.227740
v 0.322816 -0.469905 -0.235656
v -0.315985 -0.469905 -1.462784
v 1.066139 -0.469905 -1.402439
v 0.307388 0.193620 -1.003745
v -4.706767 -0.469905 0.326530
v -3.749963 -0.469905 -0.664270
v -3.370308 -0.469905 0.659747
v -3.986634 0.193620 0.069147
v 7.695128 -0.469905 2.815003
v 7.695128 -0.469905 1.443697
v 8.882714 -0.469905 2.129350
v 8.032603 0.193620 2.132644
v -9.365149 -0.469905 -2.545480
v -9.992744 -0.469905 -3.751076
v -8.634868 -0.469905 -3.691791
v -9.381188 0.193620 -3.299569
v -0.401994 -0.469905 -3.227429
v -1.407545 -0.469905 -2.322024
v -1.688871 -0.469905 -3.645558
v -1.124621 0.193620 -3.023818
v 1.421795 -0.469905 1.515139
v 2.695442 -0.469905 1.953690
v 1.678822 -0.469905 2.837424
v 1.947914 0.193620 2.045806
v -10.109076 -0.469905 1.682483
v -11.276605 -0.469905 2.329656
v -11.253308 -0.469905 0.994958
v -10.848477 0.193620 1.718501
v -9.569608 -0.469905 -1.062348
v -8.442693 -0.469905 -0.358175
v -9.615981 -0.469905 0.265674
v -9.181280 0.193620 -0.436210
v 6.430855 -0.469905 -1.181112
v 5.120673 -0.469905 -1.146802
v 5.746051 -0.469905 -2.298606
v 5.770680 0.193620 -1.483894
v -2.708202 -0.469905 3.107252
v -3.551504 -0.469905 2.119869
v -2.274754 -0.469905 1.883237
v -2.887079 0.193620 2.410543
v -3.890630 -0.469905 -2.472466
v -5.138822 -0.469905 -2.830379
v -4.204764 -0.469905 -3.732390
v -4.424333 0.193620 -2.954712
v -1.062651 -0.469905 0.906760
v 0.194481 -0.469905 0.581645
v -0.152525 -0.469905 1.832911
v -0.358040 0.193620 1.051404
v -6.938813 -0.469905 2.088904
v -7.575924 -0.469905 0.985395
v -6.301700 -0.469905 0.985395
v -6.987731 0.193620 1.385277
v -7.025252 -0.469905 -0.871282
v -6.663351 -0.469905 -2.093031
v -5.786237 -0.469905 -1.168744
v -6.548531 0.193620 -1.391110
v -12.175051 -0.469905 -0.621517
v -11.814876 -0.469905 -1.837450
v -10.941938 -0.469905 -0.917563
v -11.700871 0.193620 -1.138935
v 3.628006 -0.469905 0.832120
v 3.701350 -0.469905 -0.367049
v 4.703188 -0.469905 0.296054
v 3.952370 0.193620 0.253432
v 8.795523 -0.469905 -0.566888
v 7.755359 -0.469905 0.009685
v 7.776115 -0.469905 -1.179409
v 8.140186 0.193620 -0.529401
v 2.975481 -0.469905 -3.327053
v 3.978897 -0.469905 -2.700050
v 2.934187 -0.469905 -2.144567
v 3.324335 0.193620 -2.775150
v 4.994021 -0.469905 1.869867
v 5.576068 -0.469905 2.857985
v 4.429311 -0.469905 2.867991
v 5.048436 0.193620 2.499476
vt 0.999500 -0.000500
vt 0.000500 -0.020746
vt 0.495963 -0.999500
vt 0.999500 -0.020746
vt 0.000500 -0.000500
vt 0.504037 -0.999500
vt 0.981380 -0.004772
vt 0.026420 -0.004772
vt 0.538865 -0.959732
vt 1.021775 -0.000500
vt 0.022775 -0.000499
vt 0.485698 -0.999500
vt 0.611617 -0.004766
vt 0.928385 -0.195732
vt 0.398185 -0.849872
vt 0.920312 -0.223350
vt 0.574012 0.004585
vt 0.408598 -0.827354
vt 0.880784 -0.247037
vt 0.622236 0.083591
vt 0.397159 -0.847021
vn -0.983200 -0.103800 0.150500
vn 0.983200 0.103800 -0.150500
vn 0.345700 -0.092200 -0.933800
vn -0.345700 0.092200 0.933800
vn 0.896400 -0.102100 -0.431400
vn -0.896400 0.102100 0.431400
vn 0.595900 -0.102100 -0.796500
vn -0.595900 0.102100 0.796500
vn -0.983400 -0.101100 0.150500
vn 0.983400 0.101100 -0.150500
vn -0.924500 -0.100200 0.367800
vn 0.924500 0.100200 -0.367800
vn 0.608400 -0.099500 0.787300
vn -0.608400 0.099500 -0.787300
vn 0.990000 -0.099100 0.100600
vn -0.990000 0.099100 -0.100600
vn -0.374700 -0.049600 -0.925800
vn 0.374700 0.049600 0.925800
vn 0.991700 -0.044100 0.121100
vn -0.991700 0.044100 -0.121100
vn -0.568000 -0.098400 0.817100
vn 0.568000 0.098400 -0.817100
vn 0.176100 -0.098200 0.979500
vn -0.176100 0.098200 -0.979500
vn -0.942100 -0.097800 -0.320800
vn 0.942100 0.097800 0.320800
vn 0.916200 -0.048900 0.397700
vn -0.916200 0.048900 -0.397700
vn 0.629100 -0.048900 0.775800
vn -0.629100 0.048900 -0.775800
vn 0.596300 -0.096900 -0.796900
vn -0.596300 0.096900 0.796900
vn -0.374700 -0.048400 -0.925900
vn 0.374700 0.048400 0.925900
vn 0.770100 -0.096600 0.630500
vn -0.770100 0.096600 -0.630500
vn -0.802100 -0.096600 -0.589400
vn 0.802100 0.096600 0.589400
vn -0.573400 -0.048000 -0.817800
vn 0.573400 0.048000 0.817800
vn -0.628100 -0.047600 0.776700
vn 0.628100 0.047600 -0.776700
vn 0.131000 -0.047500 0.990200
vn -0.131000 0.047500 -0.990200
vn -0.929600 -0.047200 -0.365500
vn 0.929600 0.047200 0.365500
vn -0.915800 -0.047100 0.398900
vn 0.915800 0.047100 -0.398900
vn 0.095100 -0.046900 -0.994400
vn -0.095100 0.046900 0.994400
vn 0.608600 -0.093500 0.787900
vn -0.608600 0.093500 -0.787900
vn 0.402000 -0.093500 -0.910800
vn -0.402000 0.093500 0.910800
vn -0.167500 -0.093500 -0.981400
vn 0.167500 0.093500 0.981400
vn -0.124500 -0.093500 -0.987800
vn 0.124500 0.093500 0.987800
vn -0.343500 -0.093500 -0.934500
vn 0.343500 0.093500 0.934500
vn 0.916300 -0.046500 0.397700
vn -0.916300 0.046500 -0.397700
vn -0.437300 -0.046300 0.898100
vn 0.437300 0.046300 -0.898100
vn 0.389700 -0.046300 -0.919800
vn -0.389700 0.046300 0.919800
vn -0.628200 -0.045000 0.776800
vn 0.628200 0.045000 -0.776800
vn 0.935500 -0.045000 -0.350400
vn -0.935500 0.045000 0.350400
vn 0.919300 -0.045000 -0.390900
vn -0.919300 0.045000 0.390900
vn 0.982400 -0.045000 0.181400
vn -0.982400 0.045000 -0.181400
vn 0.832700 -0.045000 -0.551900
vn -0.832700 0.045000 0.551900
vn -0.584800 0.551300 0.595100
vn 0.857400 0.464500 0.221700
vn -0.223800 0.546200 -0.807200
vn 0.036600 0.545100 -0.837600
vn -0.788900 0.457100 0.410700
vn 0.709900 0.540000 0.452200
vn 0.806900 0.543500 -0.231400
vn -0.640500 0.455200 -0.618500
vn -0.203900 0.538400 0.817600
vn 0.420200 0.542000 -0.727800
vn -0.891300 0.453300 0.000000
vn 0.421800 0.536800 0.730700
vn 0.036700 0.538800 -0.841600
vn -0.792300 0.449600 0.412500
vn 0.713300 0.533700 0.454400
vn -0.825000 0.537200 0.175400
vn 0.598300 0.447700 0.664500
vn 0.261600 0.532100 -0.805300
vn 0.554000 0.535700 0.637300
vn 0.291400 0.445800 -0.846400
vn -0.832100 0.530500 0.161800
vn -0.846300 0.532500 -0.014800
vn 0.434900 0.442000 0.784500
vn 0.437600 0.527200 -0.728400
vn 0.397900 0.530900 0.748300
vn 0.475800 0.440100 -0.761500
vn -0.850200 0.525600 -0.029700
vn -0.747400 0.526000 -0.405800
vn 0.023600 0.434300 0.900400
vn 0.727900 0.520700 -0.446100
vn -0.155400 0.522800 -0.838200
vn -0.686300 0.430500 0.586200
vn 0.806700 0.517400 0.285700
vn -0.592200 0.522800 -0.613200
vn -0.248800 0.430500 0.867600
vn 0.830300 0.517400 -0.207000
vn 0.821500 0.522800 0.227800
vn -0.226000 0.430500 -0.873900
vn -0.610400 0.517400 0.599800
vn 0.000000 0.516200 -0.856500
vn -0.784900 0.422700 0.453100
vn 0.744600 0.510700 0.429900
vn 0.621300 0.516200 -0.589600
vn -0.869000 0.422700 -0.257400
vn 0.200700 0.510700 0.836000
vn 0.622000 0.514500 -0.590300
vn -0.869800 0.420700 -0.257700
vn 0.200900 0.509100 0.836900
vn 0.479300 0.495800 -0.724200
vn -0.915400 0.398700 -0.056000
vn 0.388900 0.490200 0.780000
vn -0.870200 0.492400 -0.015200
vn 0.445500 0.394600 0.803700
vn 0.449900 0.486700 -0.748800
vn 0.409100 0.490600 0.769400
vn 0.487400 0.392500 -0.780000
vn -0.874000 0.484900 -0.030500
vn 0.007700 0.480100 0.877200
vn 0.797000 0.380100 -0.469400
vn -0.766300 0.474200 -0.433500
usemtl OW_LOB_RICEPLANT02
s off
f 2/1/1 3/2/1 1/3/1
f 3/4/2 2/5/2 1/6/2
f 5/1/3 6/2/3 4/3/3
f 6/4/4 5/5/4 4/6/4
f 8/1/5 9/2/5 7/3/5
f 9/4/6 8/5/6 7/6/6
f 11/1/7 12/2/7 10/3/7
f 12/4/8 11/5/8 10/6/8
f 14/1/9 15/2/9 13/3/9
f 15/4/10 14/5/10 13/6/10
f 17/1/11 18/2/11 16/3/11
f 18/4/12 17/5/12 16/6/12
f 20/1/13 21/2/13 19/3/13
f 21/4/14 20/5/14 19/6/14
f 23/1/15 24/2/15 22/3/15
f 24/4/16 23/5/16 22/6/16
f 27/7/17 26/8/17 25/9/17
f 26/10/18 27/11/18 25/12/18
f 30/7/19 28/8/19 29/9/19
f 28/10/20 30/11/20 29/12/20
f 32/1/21 33/2/21 31/3/21
f 33/4/22 32/5/22 31/6/22
f 35/1/23 36/2/23 34/3/23
f 36/4/24 35/5/24 34/6/24
f 38/1/25 39/2/25 37/3/25
f 39/4/26 38/5/26 37/6/26
f 42/7/27 41/8/27 40/9/27
f 41/10/28 42/11/28 40/12/28
f 45/7/29 44/8/29 43/9/29
f 44/10/30 45/11/30 43/12/30
f 47/1/31 48/2/31 46/3/31
f 48/4/32 47/5/32 46/6/32
f 51/7/33 50/8/33 49/9/33
f 50/10/34 51/11/34 49/12/34
f 53/1/35 54/2/35 52/3/35
f 54/4/36 53/5/36 52/6/36
f 56/1/37 57/2/37 55/3/37
f 57/4/38 56/5/38 55/6/38
f 60/7/39 59/8/39 58/9/39
f 59/10/40 60/11/40 58/12/40
f 63/7/41 62/8/41 61/9/41
f 62/10/42 63/11/42 61/12/42
f 66/7/43 65/8/43 64/9/43
f 65/10/44 66/11/44 64/12/44
f 69/7/45 68/8/45 67/9/45
f 68/10/46 69/11/46 67/12/46
f 72/7/47 71/8/47 70/9/47
f 71/10/48 72/11/48 70/12/48
f 75/7/49 74/8/49 73/9/49
f 74/10/50 75/11/50 73/12/50
f 78/1/51 77/2/51 76/3/51
f 77/4/52 78/5/52 76/6/52
f 81/1/53 80/2/53 79/3/53
f 80/4/54 81/5/54 79/6/54
f 84/1/55 83/2/55 82/3/55
f 83/4/56 84/5/56 82/6/56
f 87/1/57 86/2/57 85/3/57
f 86/4/58 87/5/58 85/6/58
f 90/1/59 89/2/59 88/3/59
f 89/4/60 90/5/60 88/6/60
f 93/1/57 92/2/57 91/3/57
f 92/4/58 93/5/58 91/6/58
f 96/7/61 95/8/61 94/9/61
f 95/10/62 96/11/62 94/12/62
f 99/7/63 98/8/63 97/9/63
f 98/10/64 99/11/64 97/12/64
f 102/7/65 101/8/65 100/9/65
f 101/10/66 102/11/66 100/12/66
f 105/7/67 104/8/67 103/9/67
f 104/10/68 105/11/68 103/12/68
f 108/7/69 107/8/69 106/9/69
f 107/10/70 108/11/70 106/12/70
f 111/7/71 110/8/71 109/9/71
f 110/10/72 111/11/72 109/12/72
f 114/7/73 113/8/73 112/9/73
f 113/10/74 114/11/74 112/12/74
f 117/7/75 116/8/75 115/9/75
f 116/10/76 117/11/76 115/12/76
f 120/7/69 119/8/69 118/9/69
f 119/10/70 120/11/70 118/12/70
usemtl OW_LOB_RICEPLANT01
f 123/13/77 122/14/77 124/15/77
f 122/16/78 121/17/78 124/18/78
f 121/19/79 123/20/79 124/21/79
f 127/13/80 126/14/80 128/15/80
f 126/16/81 125/17/81 128/18/81
f 125/19/82 127/20/82 128/21/82
f 131/13/83 130/14/83 132/15/83
f 130/16/84 129/17/84 132/18/84
f 129/19/85 131/20/85 132/21/85
f 135/13/86 134/14/86 136/15/86
f 134/16/87 133/17/87 136/18/87
f 133/19/88 135/20/88 136/21/88
f 139/13/89 138/14/89 140/15/89
f 138/16/90 137/17/90 140/18/90
f 137/19/91 139/20/91 140/21/91
f 143/13/92 142/14/92 144/15/92
f 142/16/93 141/17/93 144/18/93
f 141/19/94 143/20/94 144/21/94
f 147/13/95 146/14/95 148/15/95
f 146/16/96 145/17/96 148/18/96
f 145/19/97 147/20/97 148/21/97
f 151/13/98 150/14/98 152/15/98
f 150/16/99 149/17/99 152/18/99
f 149/19/100 151/20/100 152/21/100
f 155/13/101 154/14/101 156/15/101
f 154/16/102 153/17/102 156/18/102
f 153/19/103 155/20/103 156/21/103
f 159/13/104 158/14/104 160/15/104
f 158/16/105 157/17/105 160/18/105
f 157/19/106 159/20/106 160/21/106
f 163/13/107 162/14/107 164/15/107
f 162/16/108 161/17/108 164/18/108
f 161/19/109 163/20/109 164/21/109
f 167/13/110 166/14/110 168/15/110
f 166/16/111 165/17/111 168/18/111
f 165/19/112 167/20/112 168/21/112
f 171/13/113 170/14/113 172/15/113
f 170/16/114 169/17/114 172/18/114
f 169/19/115 171/20/115 172/21/115
f 175/13/116 174/14/116 176/15/116
f 174/16/117 173/17/117 176/18/117
f 173/19/118 175/20/118 176/21/118
f 179/13/119 178/14/119 180/15/119
f 178/16/120 177/17/120 180/18/120
f 177/19/121 179/20/121 180/21/121
f 183/13/122 182/14/122 184/15/122
f 182/16/123 181/17/123 184/18/123
f 181/19/124 183/20/124 184/21/124
f 187/13/125 186/14/125 188/15/125
f 186/16/126 185/17/126 188/18/126
f 185/19/127 187/20/127 188/21/127
f 191/13/128 190/14/128 192/15/128
f 190/16/129 189/17/129 192/18/129
f 189/19/130 191/20/130 192/21/130
f 195/13/131 194/14/131 196/15/131
f 194/16/132 193/17/132 196/18/132
f 193/19/133 195/20/133 196/21/133
f 199/13/134 198/14/134 200/15/134
f 198/16/135 197/17/135 200/18/135
f 197/19/136 199/20/136 200/21/136
