# Blender v2.75 (sub 0) OBJ File: 'Empty.blend'
# www.blender.org
mtllib OW_LOB_TREEGROUP_V3.mtl
o OW_LOB_TREEGROUP_V3
v 2.796842 2.922518 -4.124028
v 4.136146 13.779310 4.684685
v -0.832244 10.536326 -3.878757
v -7.740841 3.334809 -0.905500
v -8.749025 12.350094 -6.069925
v -0.840868 4.069443 -4.874559
v -0.968204 4.769104 -0.941379
v -2.906986 4.599587 0.802546
v -5.483819 13.422421 2.863354
v -2.803185 3.747966 7.361643
v -8.436987 2.887497 4.003423
v -1.040764 15.197123 1.521860
v -4.163516 3.002465 -6.823220
v -9.261064 8.636799 -1.583228
v 3.943156 8.358855 5.523083
v -6.524453 2.890446 7.309192
v -3.818599 8.854434 8.358242
v -3.753259 13.408088 -6.096390
v -9.562968 12.159513 5.224451
v -1.989029 3.854827 -4.190996
v 5.029183 1.932737 0.096780
v 2.475653 1.875268 4.250628
v -2.310218 2.807578 4.183655
v -4.116848 3.797358 -0.019214
v 4.373071 14.551807 -1.492788
v -1.573460 9.455290 -6.005359
v 0.145093 2.865047 -0.156501
v -10.095495 7.895744 4.616684
v -3.934248 9.803267 1.050430
v 0.488766 7.635607 0.479498
v -1.262923 -0.779810 -0.030919
v -0.335312 3.485528 0.469585
v -9.119188 7.857277 -5.965385
v -3.876177 10.500353 0.745862
v -4.418192 4.401787 1.043162
v -7.613504 2.635146 -4.838689
v -4.290856 3.702126 -2.890028
v -5.407252 12.794230 7.701604
v -6.628253 3.742067 0.750098
v 4.301011 9.525647 -3.807532
v -6.392036 13.653234 -1.731243
v 6.788169 8.422890 0.895078
v -1.389017 9.397586 5.448474
v -1.465755 4.602536 3.506804
v -4.715720 3.745017 4.055869
v -5.275386 8.266519 -8.176451
v -5.697920 9.789978 0.506667
v -7.964644 7.899028 8.299807
v -7.929033 8.891158 0.994644
v -5.382889 6.352658 3.878124
v -1.761252 -0.956076 2.468912
v -4.210856 0.677130 2.886566
v -2.145256 10.234819 -1.735005
v 6.019734 13.821708 1.620647
v 0.605900 14.467022 4.635293
v 0.842822 15.239512 -1.542185
v -1.925832 9.806557 4.870403
v -3.675548 -0.921505 1.344915
v -6.204176 12.621038 -7.533792
v -8.842954 12.866191 -3.168655
v -3.847185 13.924183 -3.195117
v -8.152206 12.161691 7.662917
v -4.073059 13.424597 5.301824
v -8.228774 12.789879 2.824668
v -5.827065 7.458154 -2.601414
v -2.879002 -1.454510 -1.456161
v -1.756310 -1.373685 -3.010364
v 0.145364 -0.802713 -1.317502
v -1.263029 7.619749 0.723540
v -5.057098 7.507913 -3.637379
v -1.300587 7.441103 0.314248
v -1.076895 0.272154 -0.401712
v -0.376795 1.155737 -0.850903
v -4.864424 6.455601 4.855808
v 0.162929 -0.867399 0.261374
v -2.130061 -0.767629 0.703397
v -1.496043 -0.986650 -1.501771
v -1.295037 3.821136 -0.536196
v -0.235822 1.254310 -0.959978
v -0.365237 1.017619 -0.009060
v -3.722388 1.375666 2.514960
v -4.434771 6.765917 4.262836
v 0.679161 3.511856 -0.206673
v -5.947187 7.155017 -3.487814
v -0.222310 0.935177 0.056421
v -0.827064 7.662760 1.222163
v -1.630043 7.311306 -0.023256
v -3.436096 -0.991994 2.461904
v -3.043320 -1.726957 -2.401763
v -1.284211 -0.765882 -1.029055
v -2.903324 1.284710 -2.125951
v -0.425859 3.468720 -0.203181
v -1.846223 3.665577 -0.070589
v 0.048831 7.670686 1.224221
v -1.236009 3.823169 0.098052
v -1.565484 7.228475 0.391346
v -4.835046 3.817393 4.279120
v -1.226544 -1.041374 -2.286526
v 0.571178 -0.853470 -0.459004
v -3.435735 0.903287 3.190152
v -4.234547 4.353623 3.766870
v -4.914573 6.603012 3.795177
v -5.063605 3.805084 3.759067
v -1.460674 -0.837932 1.570536
v -1.224586 1.038498 -0.398949
v -4.317722 4.134952 4.277665
v -1.721894 3.722035 -0.480206
v -3.171491 1.286397 -3.154925
v 0.052804 7.592596 0.196694
v -5.482243 7.247697 -3.792432
v -1.761237 7.179844 0.091730
v -0.034117 1.113491 -0.384732
v -5.369729 7.603501 -2.832219
v 0.441210 3.493711 0.475073
v -5.349260 6.287605 4.395666
v -0.564499 0.928423 -0.952159
v 0.425383 3.532375 -0.475454
v -3.452120 1.225824 2.906377
v -1.016479 1.150239 -1.000722
v -2.855447 1.384921 -2.627413
v -0.831001 0.550288 -0.101198
v -1.500179 3.744885 0.131770
v -0.988904 0.387512 -0.693236
v -3.925290 0.924051 -2.339973
v -3.249458 1.121360 -2.031418
v -0.612205 0.897680 0.049314
v -4.442612 4.314419 3.572793
v -1.382733 7.442918 0.124035
v -3.677232 0.710965 3.178163
v -3.857943 0.925659 -2.984725
vt 0.589738 -5.951212
vt 0.253554 -3.791540
vt 0.450632 -3.766223
vt 0.405630 4.174757
vt 0.823570 7.006966
vt 0.641254 4.126288
vt 0.545419 -0.531308
vt 0.442852 -1.120747
vt 0.753995 -0.617082
vt 0.052144 -0.617082
vt 0.267678 -0.623794
vt 0.211275 0.211298
vt 0.379418 -0.598506
vt 0.493079 -1.239712
vt 0.787569 -1.247303
vt 0.307096 -0.550966
vt 0.559974 -0.669876
vt 0.821776 -0.681181
vt 0.708131 0.021124
vt 0.610942 -0.681271
vt 0.840369 -0.669876
vt 0.604755 0.023329
vt 0.459142 -0.510604
vt 0.763276 -0.600267
vt 0.915735 -0.062592
vt 0.446568 -0.618120
vt 0.600939 -0.576375
vt 0.118732 -0.051198
vt 1.064399 6.970536
vt 0.789539 -5.923007
vt 0.258440 0.031750
vt 0.406528 -0.697483
vt 0.545376 0.016994
vt 0.189529 0.361500
vt 0.186269 -0.780891
vt 0.325509 -0.792433
vt 0.213612 0.243055
vt 0.173809 -0.598506
vt 0.408930 0.243172
vt 0.656100 0.182972
vt 0.826003 0.211298
vt 0.261915 -0.971949
vt 0.475077 -0.933869
vt 0.585509 -0.013471
vt 0.410155 -1.247303
vt 0.980702 -1.120747
vt 0.704491 -0.531308
vt 0.379774 0.002387
vt 0.353733 -0.865602
vt 0.705222 0.003342
vt 0.391722 -0.972893
vt 0.701971 -0.999501
vt 0.635212 -0.035835
vt 0.000500 -0.999500
vt 0.999501 -0.981613
vt 0.266876 -0.000500
vt 0.517893 -0.882639
vt 0.924384 -0.908991
vt 0.482726 -0.522617
vt 0.265356 -0.999501
vt 0.803058 -0.950319
vt 0.602048 -0.001223
vt 0.616479 0.233772
vt 0.896679 0.182972
vt 0.562585 -3.742652
vt 0.908665 -5.917483
vt 0.433417 0.021124
vt 0.477757 -0.689297
vt 0.828642 0.031621
vt 0.390043 -0.074311
vt 0.933128 -0.999500
vt 0.663216 -0.054656
vt 0.273844 -0.576375
vt 0.194332 0.315221
vt 0.202853 -0.624330
vt 0.335554 0.313295
vt 0.455462 -0.000499
vt 0.819720 -1.063092
vt 0.143879 -0.689297
vt 0.372790 -0.701504
vt 0.348208 0.031621
vt 0.684801 -1.026554
vt 0.510542 -0.641790
vt 0.212193 -1.025482
vt 0.502725 -0.697483
vt 0.654074 -0.986135
vt 0.342502 -0.610156
vt 0.144502 -0.954788
vt 0.734602 -0.994616
vt 0.847313 0.009048
vt 0.408653 -0.926587
vt 0.795652 -0.834912
vt 0.549553 -0.010233
vt 0.754011 -0.989804
vt 0.735380 -0.008871
vt 0.196942 -0.000499
vt 0.330270 0.363455
vt 0.439405 0.243055
vt 0.303587 -0.986135
vt 0.638412 -0.989185
vt 0.176800 -0.921034
vt 0.778873 -1.172009
vt 0.526417 0.243172
vt 0.209467 4.189778
vt 0.623524 7.030575
vt 0.182396 -1.172009
vt 0.225608 -0.600267
vt 0.603237 -0.062592
vt 0.921786 -0.051198
vt 0.396008 -0.511428
vt 0.567853 -0.999444
vt 0.641204 -0.515876
vt 0.536940 0.000973
vt 0.967137 -0.989145
vt 0.443610 -0.989145
vt 0.901111 -0.983358
vt 0.384056 0.023329
vt 0.609968 -0.016653
vt 0.755100 -0.510604
vt 0.745739 -0.918949
vt 0.513481 0.031750
vt 0.437539 0.017991
vt 0.276567 0.025192
vt 0.178766 -0.814042
vt 0.575591 0.024727
vt 0.708374 -0.023651
vt 0.454581 -0.531308
vt 0.812407 -0.051042
vt 0.198680 -0.983502
vt 0.310321 -0.005717
vt 0.390617 -0.985628
vt 0.682629 -0.978585
vt 0.264602 -0.983358
vt 0.205952 -0.681181
vt 0.164112 -0.978585
vt -0.039013 -0.000500
vt -0.065873 -0.953589
vt 0.146420 -1.063092
vt 0.600424 0.042945
vt 0.091271 -0.164832
vt 0.226657 -1.058722
vt 0.600358 0.042953
vt 0.302923 -0.011266
vt 0.442551 -1.029621
vt 0.777267 0.011300
vt 0.560057 0.014762
vt 0.093230 -0.135918
vt 0.600577 0.042895
vt 0.091257 -0.164904
vt 0.301754 0.001582
vt 0.421994 -0.933201
vt 0.748468 -0.002903
vt 0.893723 0.905442
vt 0.488012 -0.048710
vt 1.103103 0.170847
vt 0.707646 0.983947
vt 1.099677 0.318135
vt 0.568886 -0.047588
vt 0.839670 0.957698
vt 1.047095 0.221244
vt 0.439673 -0.033251
vt -0.898885 0.910223
vt -0.599445 -0.072703
vt -1.043935 0.255257
vt 0.600405 0.042700
vt 0.091222 -0.165166
vt 0.600459 0.065748
vt 0.553094 0.006783
vt 0.107060 -0.126147
vt 0.703058 -0.004011
vt 0.250423 -0.006840
vt 0.463581 -0.953286
vt 0.212468 -0.000670
vt 0.498755 -1.343665
vt 0.609204 -0.011129
vt 0.600405 0.048383
vt 0.627570 0.008660
vt 0.289144 -0.007090
vt 0.538607 -1.230767
vt 0.600186 0.042758
vt 0.091264 -0.165099
vt 0.600424 0.065678
vt 0.276711 -0.005828
vt 0.770384 -0.000440
vt 0.476472 -0.977686
vt 0.149495 -0.010837
vt 0.462006 -0.972190
vt 0.659363 0.003834
vt -0.821010 1.009265
vt -0.501382 -0.056817
vt -1.077973 0.245732
vt 0.553094 0.029517
vt -0.242749 -0.043611
vt 0.077715 -0.726620
vt -0.480331 -1.057951
vt 0.600459 0.043015
vt 0.600186 0.048441
vt 0.600186 0.037074
vt 0.553094 0.012467
vt 0.148689 -0.013682
vt 0.532095 -1.124793
vt 0.630926 0.005202
vt 0.627570 0.002976
vt 0.555761 0.014762
vt 0.635459 -0.007273
vt 0.346209 -0.000514
vt 0.522162 -0.990599
vt 0.327476 -0.015933
vt 0.448909 -0.934102
vt 0.613843 0.003607
vt 0.600424 0.043933
vt 0.178519 0.008911
vt 0.767606 -0.009435
vt 0.466662 -0.983775
vt 0.905285 0.914253
vt 1.091740 0.182642
vt 0.490011 -0.037280
vt 0.828012 0.921317
vt 0.452541 -0.051199
vt 1.057245 0.200716
vt 0.719660 1.017501
vt 1.063041 0.401568
vt 0.608339 -0.040776
vt 0.720740 0.977174
vt 0.563772 -0.052155
vt 1.076430 0.319981
vt 0.521239 1.068064
vt 1.067590 0.612897
vt 0.664349 -0.092519
vt 0.836554 0.950781
vt 0.450767 -0.017690
vt 1.058114 0.227784
vt 0.600405 0.065433
vt 0.564354 0.026129
vt 0.777267 0.016983
vt 0.178519 0.003227
vt 0.659363 -0.001849
vt 0.250423 -0.001157
vt 0.659363 0.004328
vt -0.738346 0.995968
vt -0.294157 0.973532
vt -0.574552 -0.169500
vt 0.777267 0.028350
vt 0.627570 -0.002707
vn -0.005100 -0.177900 0.984000
vn -0.311300 0.146800 -0.938900
vn -0.793700 0.263200 -0.548500
vn -0.409900 -0.436600 0.800800
vn 0.169900 -0.272300 0.947100
vn 0.544700 0.757900 -0.359000
vn -0.170500 -0.136000 -0.975900
vn 0.821500 0.207800 -0.531000
vn 0.006200 0.323900 -0.946100
vn -0.002600 -0.160000 0.987100
vn -0.366900 0.119100 -0.922600
vn -0.000700 -0.176600 0.984300
vn 0.878000 0.375800 0.296300
vn -0.487200 -0.277400 -0.828000
vn 0.146900 -0.070800 0.986600
vn 0.995400 0.023300 -0.092700
vn 0.955200 0.182100 0.233500
vn -0.857600 -0.341200 0.385000
vn 0.916500 -0.292800 0.272600
vn -0.383900 0.412800 -0.825900
vn 0.920400 0.357200 0.159300
vn -0.152800 0.102800 -0.982900
vn -0.158300 0.128700 -0.979000
vn -0.192700 0.133300 -0.972200
vn 0.866000 0.282100 -0.412900
vn 0.946200 0.321300 0.039700
vn -0.434200 0.209000 -0.876200
vn -0.640200 0.039500 -0.767200
vn 0.982800 0.044700 0.179200
vn 0.724900 0.145500 -0.673300
vn 0.944200 -0.011200 0.329200
vn -0.939400 -0.264700 0.217800
vn -0.028400 0.106900 0.993900
vn 0.852200 0.244800 0.462500
vn -0.708800 -0.286800 0.644500
vn 0.435100 0.171700 -0.883900
vn -0.836800 -0.005100 0.547500
vn -0.879200 -0.448800 0.160100
vn -0.395000 -0.078300 0.915300
vn -0.999400 0.025500 0.021700
vn 0.187400 0.163400 0.968600
vn 0.104400 0.323100 0.940600
vn -0.980900 -0.139900 0.135500
vn -0.599200 -0.065500 0.797900
vn -0.102000 -0.093600 0.990400
vn -0.474700 -0.048200 -0.878800
vn 0.860700 -0.010400 0.509000
vn 0.126200 0.001300 0.992000
vn 0.950300 0.298300 -0.089400
vn 0.316600 -0.051000 0.947200
vn -0.646800 -0.169700 0.743500
vn 0.169800 -0.272400 0.947100
vn 0.796200 0.557700 0.234500
vn 0.843600 0.235200 0.482700
vn 0.768800 0.444000 0.460200
vn 0.144900 -0.241700 0.959500
vn 0.584600 0.397800 -0.707100
vn 0.966300 0.195800 0.166800
vn 0.646700 0.204700 -0.734700
vn -0.186100 0.022600 -0.982300
vn -0.894300 -0.204900 0.397900
vn 0.761700 0.558600 0.328300
vn -0.912100 0.320400 -0.255900
vn -0.946000 0.301300 0.119800
vn 0.799400 0.038900 0.599600
vn 0.131800 -0.210300 0.968700
vn -0.933700 -0.181600 -0.308400
vn -0.957400 0.060400 -0.282300
vn 0.761900 0.376700 -0.526800
vn -0.360200 -0.240600 -0.901300
vn 0.521800 0.185700 -0.832600
vn 0.328300 0.026300 -0.944200
vn -0.686200 0.050100 -0.725700
vn 0.936000 0.221100 -0.274100
vn 0.896600 -0.239000 -0.372900
vn 0.373400 0.245700 0.894600
vn -0.005300 -0.160100 0.987100
vn 0.907100 -0.285800 0.309000
vn -0.990800 -0.126400 0.048500
vn 0.263800 0.202200 -0.943100
vn -0.311300 0.283300 -0.907100
vn 0.723200 -0.063600 -0.687700
vn 0.690300 0.691800 -0.211800
vn 0.831000 0.330900 -0.447100
vn -0.943800 0.136300 -0.301100
vn 0.051100 0.007600 -0.998700
vn 0.668200 0.356900 -0.652800
vn 0.802600 0.565500 0.189600
vn -0.665000 -0.191900 0.721800
vn -0.490700 -0.073900 0.868200
vn -0.462900 -0.189400 0.865900
vn -0.919800 -0.179900 -0.348800
vn -0.917200 -0.311000 0.249000
vn -0.941000 -0.323600 -0.099100
vn -0.443700 0.134100 0.886100
vn -0.039600 0.212400 0.976400
vn -0.554700 0.176300 0.813200
vn -0.198900 0.030300 0.979500
vn 0.646700 0.204800 -0.734800
vn -0.308700 0.028700 -0.950700
vn 0.914300 0.094000 -0.394000
vn -0.419400 -0.401800 0.814100
vn 0.004400 -0.387200 0.922000
vn -0.944900 -0.312000 -0.099500
vn -0.109800 -0.245400 -0.963200
vn -0.892700 0.099600 0.439600
vn 0.892700 -0.099600 -0.439600
vn 0.830200 -0.243000 0.501700
vn -0.830200 0.243000 -0.501700
vn 0.608600 -0.638200 -0.471500
vn 0.041200 0.138600 -0.989500
vn -0.041200 -0.138600 0.989500
vn -0.820800 -0.470600 0.323800
vn 0.464300 0.242000 0.852000
vn -0.464300 -0.242000 -0.852000
vn 0.509500 -0.015200 -0.860400
vn -0.509500 0.015200 0.860400
vn -0.556800 -0.765300 0.322800
vn -0.840300 -0.116100 -0.529600
vn 0.840300 0.116100 0.529600
vn 0.838000 0.257800 -0.480900
vn -0.838000 -0.257800 0.480900
vn 0.837300 -0.430600 0.336800
vn 0.013000 -0.117300 0.993000
vn -0.013000 0.117300 -0.993000
vn -0.086400 -0.377400 0.922000
vn 0.825500 -0.243100 0.509300
vn -0.825500 0.243100 -0.509300
vn 0.751700 -0.476900 0.455500
vn -0.040500 -0.138800 0.989500
vn 0.040500 0.138800 -0.989500
vn 0.482700 0.265200 0.834700
vn -0.482700 -0.265200 -0.834700
vn -0.978500 -0.201500 -0.044300
vn 0.978500 0.201500 0.044300
vn 0.534400 -0.314300 0.784600
vn 0.542000 -0.583500 -0.604700
vn 0.978700 0.205500 -0.004900
vn 0.977900 0.208900 -0.001800
vn -0.978700 -0.205500 0.004900
vn -0.977900 -0.208900 0.001800
vn -0.498200 0.061200 0.864900
vn 0.498200 -0.061200 -0.864900
vn -0.870700 0.105300 0.480400
vn 0.870700 -0.105300 -0.480400
vn -0.848500 -0.143200 -0.509400
vn 0.848500 0.143200 0.509400
vn -0.835600 -0.260500 0.483700
vn 0.835600 0.260500 -0.483700
vn 0.998300 -0.042100 0.039800
vn -0.395100 -0.489500 -0.777400
vn 0.586200 -0.049600 -0.808600
vn -0.586200 0.049600 0.808600
vn -0.767600 -0.369400 -0.523800
vn 0.865600 0.007000 -0.500800
vn -0.014200 -0.126700 0.991800
vn 0.014200 0.126700 -0.991800
vn -0.855600 -0.272400 0.440200
vn 0.855600 0.272400 -0.440200
vn 0.115900 -0.453400 -0.883800
vn -0.863600 0.126700 0.487900
vn 0.863600 -0.126700 -0.487900
vn -0.814000 0.211400 -0.541000
vn 0.814000 -0.211400 0.541000
vn 0.071100 0.102800 -0.992200
vn -0.071100 -0.102800 0.992200
vn -0.869700 0.102100 0.482900
vn 0.869700 -0.102100 -0.482900
vn 0.852000 -0.211100 0.479200
vn -0.852000 0.211100 -0.479200
vn -0.851800 -0.010600 -0.523800
vn 0.436200 0.260400 0.861300
vn -0.436200 -0.260400 -0.861300
vn 0.007100 -0.113700 0.993500
vn -0.007100 0.113700 -0.993500
vn -0.005200 -0.140500 0.990100
vn 0.005200 0.140500 -0.990100
vn -0.865700 -0.128300 -0.483800
vn 0.865700 0.128300 0.483800
vn -0.686500 -0.719400 0.105700
vn -0.781100 -0.350300 -0.516900
vn 0.973100 0.230200 -0.009400
vn -0.973100 -0.230200 0.009400
vn 0.514300 -0.036600 -0.856800
vn -0.514300 0.036600 0.856800
vn 0.071700 -0.368000 0.927100
vn -0.841100 -0.235600 0.486800
vn 0.841100 0.235600 -0.486800
vn -0.074800 -0.443000 -0.893400
vn -0.895100 -0.443100 0.049800
vn 0.571000 -0.746900 0.340700
vn -0.139500 -0.663500 0.735100
vn 0.220600 -0.228900 0.948100
vn -0.220600 0.228900 -0.948100
vn -0.265600 -0.753600 -0.601200
vn -0.302500 -0.516800 0.800900
vn 0.139700 -0.652000 0.745200
vn -0.557300 -0.653000 -0.512800
vn 0.923500 -0.336000 0.185000
vn 0.794100 -0.344500 -0.500800
vn -0.888300 -0.144700 0.435900
vn -0.007700 -0.110900 -0.993800
vn 0.836900 -0.326100 -0.439700
vn 0.551700 -0.289000 -0.782400
vn -0.448400 -0.196200 0.872000
vn 0.498300 0.004300 0.867000
vn -0.752400 -0.494000 0.435700
vn 0.880700 -0.117500 0.458800
vn 0.041400 -0.119000 -0.992000
usemtl OW_LOB_TREEGROUP_V3_2
s off
f 86/1/1 32/2/1 114/3/1
f 92/4/2 69/5/2 117/6/2
f 81/7/3 58/8/3 52/9/3
f 52/10/4 129/11/4 97/12/4
f 129/11/5 100/13/5 97/12/5
f 104/14/6 76/15/6 118/16/6
f 108/17/7 130/18/7 84/19/7
f 120/20/8 108/21/8 70/22/8
f 79/23/9 119/24/9 92/25/9
f 126/26/10 85/27/10 32/28/10
f 109/29/11 117/6/11 69/5/11
f 86/1/12 114/3/12 94/30/12
f 113/31/13 91/32/13 70/22/13
f 110/33/14 108/17/14 84/19/14
f 96/34/15 122/35/15 95/36/15
f 78/4/16 71/5/16 95/6/16
f 106/37/17 100/38/17 101/39/17
f 103/40/18 52/9/18 97/41/18
f 85/42/19 112/43/19 83/44/19
f 76/45/20 58/46/20 81/47/20
f 91/32/21 120/20/21 70/22/21
f 78/48/22 116/49/22 107/50/22
f 78/51/23 107/52/23 87/53/23
f 68/54/24 90/55/24 79/56/24
f 99/57/25 68/58/25 112/59/25
f 80/60/26 73/61/26 78/62/26
f 127/63/27 81/47/27 103/64/27
f 81/7/28 52/9/28 103/40/28
f 106/3/29 101/65/29 82/66/29
f 30/34/30 83/35/30 117/36/30
f 114/3/31 83/65/31 30/66/31
f 84/67/32 124/68/32 65/69/32
f 126/70/33 75/71/33 85/72/33
f 112/59/34 85/73/34 99/57/34
f 69/74/35 92/75/35 86/76/35
f 128/77/36 78/51/36 87/53/36
f 111/30/37 93/3/37 96/66/37
f 88/78/38 52/9/38 58/8/38
f 124/79/39 125/80/39 65/81/39
f 31/82/40 105/83/40 90/84/40
f 125/80/41 91/85/41 65/81/41
f 125/80/42 77/86/42 91/85/42
f 92/75/43 32/87/43 86/76/43
f 105/88/44 126/89/44 32/90/44
f 121/91/45 80/92/45 122/93/45
f 116/49/46 123/94/46 107/50/46
f 94/30/47 114/3/47 30/66/47
f 122/93/48 80/92/48 95/95/48
f 95/96/49 80/60/49 78/62/49
f 96/34/50 95/36/50 71/97/50
f 115/1/51 97/2/51 74/30/51
f 97/12/52 100/13/52 106/98/52
f 77/99/53 98/100/53 91/32/53
f 75/101/54 99/57/54 85/73/54
f 118/16/55 100/38/55 104/14/55
f 129/11/56 51/102/56 100/13/56
f 101/103/57 81/47/57 127/63/57
f 100/38/58 118/16/58 101/39/58
f 82/34/59 101/35/59 127/36/59
f 102/5/60 103/104/60 50/105/60
f 103/75/61 97/87/61 115/76/61
f 51/106/62 104/14/62 100/38/62
f 119/107/63 105/83/63 92/108/63
f 92/108/64 105/83/64 32/109/64
f 74/30/65 106/3/65 82/66/65
f 74/30/66 97/2/66 106/3/66
f 107/110/67 72/111/67 93/112/67
f 87/113/68 107/110/68 93/112/68
f 108/21/69 120/20/69 67/114/69
f 67/115/70 89/116/70 108/17/70
f 30/34/71 117/36/71 109/97/71
f 70/117/72 108/17/72 110/33/72
f 87/113/73 93/112/73 111/118/73
f 79/119/74 112/59/74 68/58/74
f 112/43/75 79/120/75 83/44/75
f 65/81/76 91/85/76 113/121/76
f 32/28/77 85/27/77 114/122/77
f 114/123/78 85/42/78 83/44/78
f 50/74/79 103/75/79 115/76/79
f 73/124/80 116/49/80 78/48/80
f 117/125/81 79/23/81 92/25/81
f 83/44/82 79/120/82 117/126/82
f 81/127/83 118/16/83 76/15/83
f 118/16/84 81/127/84 101/39/84
f 119/107/85 90/84/85 105/83/85
f 79/56/86 90/55/86 119/128/86
f 98/100/87 67/114/87 120/20/87
f 120/20/88 91/32/88 98/100/88
f 72/129/89 121/91/89 122/93/89
f 93/3/90 122/65/90 96/66/90
f 93/130/91 72/129/91 122/93/91
f 123/131/92 72/111/92 107/110/92
f 66/132/93 124/68/93 89/133/93
f 130/134/94 124/68/94 84/67/94
f 124/79/95 66/135/95 125/80/95
f 125/80/96 66/135/96 77/86/96
f 105/136/97 31/137/97 126/70/97
f 126/70/98 31/137/98 75/71/98
f 82/29/99 127/6/99 102/5/99
f 103/4/100 102/5/100 127/6/100
f 71/5/101 78/104/101 128/105/101
f 52/10/102 88/138/102 129/11/102
f 129/11/103 88/138/103 51/102/103
f 130/134/104 89/133/104 124/68/104
f 108/17/105 89/116/105 130/18/105
usemtl OW_LOB_TREEGROUP_V3_1
f 56/139/106 3/140/106 27/141/106
f 56/139/107 27/141/107 3/140/107
f 25/142/108 27/141/108 40/140/108
f 25/142/109 40/140/109 27/141/109
f 42/143/110 27/144/110 40/145/110
f 12/146/111 27/141/111 34/147/111
f 12/148/112 34/149/112 27/141/112
f 34/150/113 27/151/113 43/152/113
f 26/153/114 37/154/114 6/155/114
f 26/156/115 6/157/115 37/158/115
f 53/159/116 7/160/116 37/161/116
f 53/162/117 37/163/117 7/164/117
f 28/150/118 45/151/118 48/152/118
f 62/165/119 45/141/119 48/166/119
f 62/165/120 48/166/120 45/141/120
f 38/167/121 17/140/121 45/141/121
f 38/168/122 45/141/122 17/169/122
f 57/170/123 17/171/123 45/172/123
f 28/159/124 11/160/124 45/161/124
f 28/162/125 45/163/125 11/164/125
f 55/173/126 27/174/126 2/175/126
f 55/165/127 43/166/127 27/141/127
f 55/176/128 27/141/128 43/166/128
f 54/177/129 2/178/129 27/179/129
f 54/180/130 27/141/130 42/181/130
f 54/180/131 42/181/131 27/141/131
f 60/142/132 14/140/132 37/141/132
f 60/142/133 37/141/133 14/140/133
f 41/139/134 37/141/134 47/140/134
f 41/182/135 47/140/135 37/141/135
f 53/183/136 47/184/136 37/185/136
f 26/186/137 37/187/137 46/188/137
f 46/189/138 37/190/138 13/191/138
f 59/192/139 37/141/139 46/169/139
f 46/193/140 13/194/140 37/195/140
f 59/196/141 46/140/141 37/141/141
f 5/197/142 33/181/142 37/141/142
f 5/198/143 37/141/143 33/181/143
f 2/199/144 27/141/144 15/169/144
f 2/196/145 15/140/145 27/141/145
f 48/153/146 45/154/146 16/155/146
f 48/156/147 16/157/147 45/158/147
f 17/189/148 45/190/148 10/191/148
f 17/193/149 10/194/149 45/195/149
f 61/200/150 37/201/150 18/202/150
f 5/203/151 59/178/151 37/179/151
f 61/148/152 53/149/152 37/141/152
f 61/204/153 37/141/153 53/147/153
f 19/205/154 64/206/154 45/207/154
f 63/208/155 45/209/155 9/210/155
f 63/198/156 45/141/156 57/181/156
f 63/180/157 57/181/157 45/141/157
f 64/211/158 49/140/158 45/141/158
f 64/182/159 45/141/159 49/140/159
f 49/212/160 29/213/160 45/214/160
f 3/215/161 20/216/161 27/217/161
f 3/218/162 27/219/162 20/220/162
f 40/221/163 1/222/163 27/223/163
f 40/224/164 27/225/164 1/226/164
f 42/227/165 21/228/165 27/229/165
f 42/230/166 27/231/166 21/232/166
f 15/189/167 27/190/167 22/191/167
f 15/193/168 22/194/168 27/195/168
f 43/156/169 23/157/169 27/158/169
f 43/153/170 27/154/170 23/155/170
f 12/205/171 56/206/171 27/207/171
f 18/233/172 37/141/172 26/166/172
f 18/165/173 26/166/173 37/141/173
f 34/159/174 24/160/174 27/161/174
f 34/162/175 27/163/175 24/164/175
f 19/148/176 28/149/176 45/141/176
f 19/234/177 45/141/177 28/147/177
f 9/142/178 29/140/178 45/141/178
f 9/182/179 45/141/179 29/140/179
f 33/143/180 37/144/180 14/235/180
f 34/183/181 3/184/181 27/185/181
f 47/215/182 35/216/182 37/217/182
f 47/218/183 37/219/183 35/220/183
f 33/230/184 37/231/184 36/232/184
f 33/227/185 36/228/185 37/229/185
f 14/221/114 4/222/114 37/223/114
f 14/224/115 37/158/115 4/226/115
f 62/173/186 45/174/186 38/175/186
f 49/215/187 39/216/187 45/217/187
f 49/218/188 45/219/188 39/220/188
f 3/236/189 40/213/189 27/214/189
f 5/208/190 37/209/190 60/210/190
f 42/170/191 15/171/191 27/172/191
f 43/186/192 27/187/192 15/237/192
f 29/224/147 45/158/147 8/226/147
f 29/221/146 8/222/146 45/223/146
f 57/230/193 45/231/193 44/232/193
f 57/227/194 44/228/194 45/229/194
f 33/170/195 46/238/195 37/172/195
f 47/212/196 14/213/196 37/214/196
f 48/186/197 45/187/197 17/239/197
f 28/183/198 49/184/198 45/185/198
f 53/150/199 37/151/199 26/152/199
f 54/208/200 27/209/200 25/210/200
f 12/200/201 27/201/201 55/202/201
f 56/240/202 25/241/202 27/242/202
f 57/143/203 45/144/203 29/243/203
f 18/173/204 37/174/204 59/175/204
f 41/240/205 60/241/205 37/242/205
f 61/205/206 41/206/206 37/207/206
f 19/200/207 45/201/207 62/202/207
f 63/244/208 38/178/208 45/179/208
f 64/240/209 9/241/209 45/242/209
