# Blender v2.75 (sub 0) OBJ File: 'Empty.blend'
# www.blender.org
mtllib OW_LOB_TREE_V6.mtl
o OW_LOB_TREE_V6
v 5.993817 9.604197 -8.609961
v 11.751480 37.216133 -0.868265
v -7.939973 12.176836 8.358116
v -3.054322 37.069187 -13.004169
v 2.946375 11.607149 10.184048
v 11.864739 22.888186 0.677086
v -11.859427 11.460202 -1.951854
v -12.085229 24.141500 -3.339964
v -6.101764 39.072136 5.789843
v -4.892532 10.173884 -10.435893
v 9.913270 10.320829 1.700009
v -0.973078 10.890512 -0.125923
v 3.106458 10.514048 -0.688968
v -3.254871 20.572182 1.095329
v 1.850957 0.317832 0.165421
v -7.773831 24.929792 8.001005
v 4.201153 24.303141 10.009529
v -4.421645 22.726549 -12.672406
v 7.553339 22.099892 -10.663881
v -10.021218 38.355511 -4.520129
v 4.784584 38.502453 7.615774
v 7.832027 36.499504 -11.178236
v -3.098891 12.177365 0.163600
v 2.342446 18.571987 -0.917039
v 1.200033 6.569398 -0.708367
v -2.378318 0.317832 0.202330
v -4.942086 20.454762 0.180807
v -0.359919 6.955887 -0.046068
v 3.523537 18.569675 -0.271706
v 0.777865 0.317832 -1.633189
v -1.305221 0.317832 2.000940
v 3.512268 18.411137 -1.562855
v -1.218635 5.251465 -1.308776
v -5.493680 20.415621 1.114866
v -3.806467 20.533041 2.029387
v -1.336774 0.317832 -1.614735
v 0.809418 0.317832 1.982486
v 2.743146 10.774340 -0.071115
v 0.455144 5.202957 1.458805
v -1.191797 5.202945 1.474683
v -4.719200 11.769619 1.060170
v -2.028685 5.227200 0.090892
v -3.822686 20.533041 0.171039
v -4.925868 20.454762 2.039156
v -2.562898 12.309546 1.103161
v 3.909725 18.463213 -0.917360
v -4.184277 11.901530 1.999944
v 1.987924 10.962585 -0.092576
v 2.739897 18.624062 -0.271545
v 2.728629 18.465523 -1.562693
v 1.961002 10.629878 -1.349502
v -0.889215 6.491102 1.002063
v -3.105468 12.171659 2.021425
v 1.596939 10.890317 -0.731827
v 0.044292 6.784226 0.841984
v 1.265201 5.227225 0.059138
v -4.176363 11.907573 0.142088
v -0.921550 6.255491 -0.962275
v 0.435510 6.648154 -0.716284
v 2.715287 10.441856 -1.328105
v 0.428313 5.251478 -1.324653
vt -0.830439 1.047991
vt -0.940319 0.200971
vt -0.260047 -0.588962
vt -0.853419 0.966598
vt -0.383430 -0.382210
vt -0.943957 0.268675
vt 0.178519 0.951302
vt 0.898453 0.920638
vt 0.496858 -0.041384
vt 0.898222 1.015020
vt 0.270983 -0.421549
vt 0.938846 0.243739
vt 0.863059 1.012003
vt 0.973335 0.316925
vt 0.431474 -0.349580
vt -0.886330 0.853983
vt -0.941337 0.196494
vt -0.388611 -0.389158
vt -0.870506 0.908147
vt -0.328984 -0.515940
vt -0.946139 0.161276
vt 0.160145 0.969501
vt 0.483103 -0.021692
vt 0.880213 0.942190
vt 0.892055 0.980667
vt 0.321408 -0.391091
vt 0.943311 0.250424
vt 1.005768 0.958819
vt 0.928219 0.219125
vt 0.192788 -0.313030
vt 0.087728 0.801015
vt 0.789503 -0.088909
vt 0.468079 0.997893
vt -0.309438 0.913982
vt -0.718171 0.935176
vt -0.568878 -0.137539
vt -0.813684 0.957793
vt -0.471451 -0.250041
vt -0.929402 0.350165
vt -0.907166 0.851978
vt -0.924624 0.275636
vt -0.442747 -0.227613
vt -0.798221 1.009265
vt -0.444755 -0.056817
vt -1.082389 0.245732
vt -0.253099 -0.043611
vt 0.071421 -0.726620
vt -0.493688 -1.057951
vt 0.965987 -0.816491
vt 0.252766 0.025377
vt 0.908744 -0.228887
vt 0.917930 1.043945
vt 0.938887 0.190084
vt 0.179953 -0.524607
vt -0.764176 0.957030
vt -0.523588 -0.057308
vt -1.088696 0.274023
vt -0.753553 0.932359
vt -1.078072 0.249351
vt -0.512964 -0.081980
vt -0.730877 0.945453
vt -1.062638 0.265933
vt -0.501083 -0.071386
vt -0.770517 0.896561
vt -0.487821 -0.106858
vt -1.066260 0.200609
vt 0.309289 0.988286
vt 0.717710 0.926277
vt 0.352368 -0.104027
vt 0.897228 0.914253
vt 1.088433 0.182642
vt 0.471375 -0.037280
vt 0.828012 0.921317
vt 0.452541 -0.051199
vt 1.057245 0.200716
vt 0.836554 0.950781
vt 0.450767 -0.017690
vt 1.058114 0.227784
vt 0.596489 1.017878
vt 1.149864 0.502525
vt 0.746624 -0.013735
vt 0.673590 0.979023
vt 1.103490 0.356931
vt 0.598862 -0.060776
vt 0.712322 0.992174
vt 0.547254 -0.037155
vt 1.086367 0.334980
vt -0.264383 0.930675
vt -0.433204 -0.039247
vt -0.823091 0.831861
vt -0.079875 0.881758
vt -0.795528 0.965937
vt -0.551981 -0.047695
vt 0.181093 0.948882
vt 0.901230 0.923473
vt 0.506668 -0.041454
vt 0.276511 0.928582
vt 0.602087 -0.061755
vt 0.996649 0.903173
vt -0.642592 0.949976
vt -0.148561 0.063844
vt -0.936152 0.703374
vt 0.108039 0.791934
vt 0.750411 -0.191990
vt 0.519031 0.960057
vt -0.738346 0.995968
vt -0.294157 0.973532
vt -0.574552 -0.169500
vt 0.685054 0.513746
vt 0.314142 0.565997
vt 0.709892 -2.011146
vt 0.408342 -2.065861
vt 0.982308 -2.074810
vt 0.207685 0.507979
vt 0.899534 -0.229281
vt 0.985577 3.326763
vt 0.463575 -0.146189
vt 0.109948 0.440322
vt 0.110855 -0.640582
vt -0.030035 0.429090
vt 0.558431 -0.863745
vt 0.444039 2.547706
vt 0.184357 -0.834046
vt 0.767555 -0.399359
vt 0.838556 2.006810
vt 0.427575 -0.380836
vt 0.704578 -4.049811
vt 1.122121 -4.018570
vt 1.112744 -1.737289
vt 0.399010 -1.430252
vt 0.475052 -2.811267
vt 1.000338 -2.816050
vt -0.029025 -0.639518
vt 0.639689 2.915613
vt 0.214250 2.896220
vt 0.737278 0.572033
vt 0.062368 2.651849
vt 0.235248 -0.559044
vt 0.414788 -0.435478
vt 0.553273 -2.020994
vt 1.243282 -2.010602
vt 0.789519 0.607179
vt 1.102236 -4.285731
vt 0.656005 -1.738683
vt 0.491149 1.982455
vt 0.665300 0.760609
vt 0.452914 4.351124
vt 0.235573 4.325808
vt 1.169133 -3.172001
vt 0.377490 -5.258669
vt 0.891925 -5.136968
vt 0.521509 -3.873358
vt 0.977537 -3.872635
vt 0.065603 2.569033
vt 0.882368 -2.144153
vt 0.618380 -2.251308
vt 0.806384 -2.555968
vt 0.183998 -2.399756
vt 0.691017 -2.787527
vt -0.035879 4.028357
vt 0.788301 -0.530735
vt 0.659941 1.674348
vt 0.147622 1.663262
vt 0.384536 -3.957412
vt 1.246278 -4.017710
vt 0.147532 -2.001264
vt 0.677590 -4.284308
vt 1.131792 0.485511
vt 1.424423 4.207270
vt 0.309986 -2.136082
vt 0.282549 -0.567866
vt 1.025004 -1.433936
vt 0.714672 -2.274603
vt 0.341366 4.013432
vt 0.591333 0.558515
vt 0.081836 3.757622
vt 0.536588 3.326664
vt 0.466833 3.771842
vt 0.132910 -0.019801
vt 0.955041 -1.995242
vt 1.065128 4.257069
vt 0.328446 0.499571
vt 0.369111 -1.621644
vt 0.765503 -1.556823
vt 0.401941 2.707383
vt 0.912491 -4.169152
vt 0.385714 -4.090235
vt 0.802660 2.761747
vt 0.251014 2.713682
vt 0.456048 0.674895
vt 0.411834 -2.121852
vt 0.628468 -1.117605
vt 0.407670 -0.242395
vt 0.281738 -0.501155
vt 0.601366 -0.403831
vt 0.781738 -0.742395
vt 0.361913 -3.184401
vt 0.702827 -2.596273
vt 1.094234 -3.225969
vt 1.029513 -1.259968
vt 0.561126 -1.134338
vt 0.773184 -1.098206
vn -0.159200 0.104600 0.981700
vn 0.159200 -0.104600 -0.981700
vn 0.079300 -0.714100 -0.695500
vn 0.932500 -0.096900 -0.347800
vn -0.932500 0.096900 0.347800
vn 0.773400 0.007700 0.633900
vn -0.773400 -0.007700 -0.633900
vn -0.165900 -0.553000 0.816500
vn 0.856600 -0.422400 -0.296300
vn 0.706500 -0.323800 0.629300
vn -0.932600 0.096900 0.347800
vn 0.932600 -0.096900 -0.347800
vn -0.751800 -0.338200 -0.566100
vn -0.761500 -0.558900 0.328300
vn 0.552300 -0.627700 0.548700
vn -0.638900 -0.639500 -0.427700
vn 0.674900 -0.708200 -0.207300
vn -0.901900 -0.239600 0.359500
vn -0.172700 -0.232400 0.957200
vn 0.127500 -0.429600 -0.894000
vn -0.814200 -0.257800 -0.520200
vn -0.789400 -0.394300 0.470500
vn 0.018400 0.006200 -0.999800
vn 0.861600 0.075100 -0.502100
vn 0.853600 -0.100400 -0.511100
vn -0.021500 0.027900 0.999400
vn -0.008700 0.062100 -0.998000
vn 0.008700 0.106900 0.994200
vn 0.848600 0.070600 -0.524300
vn 0.008700 -0.000200 1.000000
vn -0.846500 0.068600 -0.527900
vn 0.847000 -0.214200 0.486500
vn 0.859100 0.113300 0.499200
vn -0.009600 0.061700 -0.998000
vn 0.001800 0.023200 0.999700
vn -0.002100 -0.027000 -0.999600
vn 0.855100 0.092500 -0.510200
vn -0.856400 0.074900 0.510900
vn 0.850800 -0.100800 -0.515700
vn -0.140100 0.826200 -0.545700
vn 0.643400 0.364600 -0.673100
vn -0.853500 -0.074100 -0.515800
vn 0.857500 0.072300 0.509400
vn -0.866400 0.051500 -0.496600
vn 0.861800 0.115500 0.494000
vn 0.846600 -0.070400 0.527500
vn 0.804900 -0.201400 0.558200
vn 0.024000 0.207600 0.977900
vn 0.854100 0.071100 0.515300
vn 0.009600 0.107300 0.994200
vn -0.160700 0.322200 0.932900
vn -0.857400 -0.073600 -0.509400
vn -0.861400 -0.080300 0.501600
vn -0.864800 0.050200 -0.499600
vn -0.852900 0.072500 0.517100
vn -0.008700 0.000100 -1.000000
vn -0.848200 -0.075900 0.524300
vn 0.761800 0.419500 -0.493600
vn 0.823200 0.227000 0.520500
vn 0.850700 -0.071800 0.520700
vn -0.777300 -0.386200 0.496600
vn -0.018400 -0.006200 0.999800
vn -0.854000 0.095200 0.511500
vn -0.772500 0.457800 0.440100
vn -0.851100 0.095600 0.516300
vn -0.851000 0.070000 -0.520500
vn -0.614800 0.111400 -0.780800
vn 0.020500 -0.031500 -0.999300
vn 0.824400 0.228700 0.517700
vn 0.009100 0.342600 0.939500
vn -0.000200 -0.078300 0.996900
vn 0.653300 0.120800 0.747400
vn -0.779100 0.461500 0.424300
vn -0.769400 0.282800 -0.572700
vn -0.241400 0.926400 0.288900
vn 0.042000 0.372500 0.927100
vn 0.852900 0.090600 -0.514200
vn 0.693500 -0.332000 -0.639500
vn -0.832800 -0.264000 -0.486600
vn -0.024900 0.177900 -0.983700
vn 0.162600 0.278600 -0.946600
vn -0.009100 0.328600 -0.944400
vn 0.050600 0.398800 -0.915600
vn -0.010200 -0.153200 -0.988100
vn -0.005800 -0.155800 -0.987800
vn 0.805300 -0.387000 -0.449200
vn 0.826900 -0.248300 -0.504500
vn 0.050600 0.398600 -0.915700
usemtl OW_LOB_TREE_V6_1
s off
f 20/1/1 8/2/1 12/3/1
f 20/4/2 12/5/2 8/6/2
f 18/7/3 19/8/3 12/9/3
f 4/10/4 12/11/4 18/12/4
f 4/13/5 18/14/5 12/15/5
f 9/16/6 16/17/6 12/18/6
f 9/19/7 12/20/7 16/21/7
f 16/22/8 12/23/8 17/24/8
f 22/25/6 12/26/6 19/27/6
f 22/28/7 19/29/7 12/30/7
f 2/31/9 12/32/9 22/33/9
f 2/34/10 21/35/10 12/36/10
f 21/37/11 12/38/11 17/39/11
f 21/40/12 17/41/12 12/42/12
f 17/43/11 12/44/11 5/45/11
f 17/46/12 5/47/12 12/48/12
f 2/49/1 12/50/1 6/51/1
f 2/52/2 6/53/2 12/54/2
f 16/55/7 12/56/7 3/57/7
f 16/58/6 3/59/6 12/60/6
f 8/61/1 7/62/1 12/63/1
f 8/64/2 12/65/2 7/66/2
f 20/67/13 4/68/13 12/69/13
f 18/70/5 10/71/5 12/72/5
f 18/73/4 12/74/4 10/75/4
f 6/76/1 12/77/1 11/78/1
f 6/79/2 11/80/2 12/81/2
f 19/82/7 1/83/7 12/84/7
f 19/85/6 12/86/6 1/87/6
f 8/88/14 12/89/14 16/90/14
f 6/91/15 17/92/15 12/93/15
f 8/94/16 18/95/16 12/96/16
f 6/97/17 12/98/17 19/99/17
f 20/100/18 12/101/18 9/102/18
f 9/103/19 12/104/19 21/105/19
f 4/106/20 22/107/20 12/108/20
usemtl OW_LOB_TREE_V6_2
f 41/109/21 57/110/21 42/111/21
f 42/112/22 40/113/22 41/114/22
f 57/115/23 27/116/23 23/117/23
f 23/118/24 43/119/24 45/120/24
f 60/121/25 32/122/25 13/123/25
f 38/124/26 29/125/26 48/126/26
f 30/127/27 36/128/27 33/129/27
f 40/130/28 31/131/28 37/132/28
f 14/133/29 45/120/29 43/119/29
f 35/134/30 44/135/30 53/136/30
f 50/137/31 51/138/31 54/139/31
f 39/140/32 56/141/32 38/142/32
f 56/141/33 39/140/33 15/143/33
f 30/127/34 33/129/34 61/144/34
f 48/126/35 29/125/35 49/145/35
f 51/146/36 50/147/36 32/148/36
f 61/149/37 15/150/37 30/151/37
f 40/113/38 26/152/38 31/153/38
f 46/154/39 13/123/39 32/122/39
f 28/155/40 59/156/40 58/157/40
f 23/117/41 28/158/41 58/159/41
f 27/160/42 57/110/42 41/109/42
f 45/161/43 14/162/43 35/163/43
f 36/164/44 26/165/44 33/166/44
f 37/167/45 15/143/45 39/140/45
f 13/168/46 46/169/46 38/142/46
f 13/168/47 38/142/47 56/141/47
f 48/126/48 55/170/48 38/124/48
f 45/161/49 35/163/49 53/171/49
f 40/130/50 37/132/50 39/172/50
f 39/173/51 38/124/51 55/170/51
f 27/160/52 41/109/52 34/174/52
f 41/114/53 47/175/53 34/176/53
f 42/111/54 33/166/54 26/165/54
f 42/112/55 26/152/55 40/113/55
f 23/117/56 27/116/56 43/177/56
f 44/178/57 34/176/57 47/175/57
f 45/179/58 28/158/58 23/117/58
f 45/161/59 53/171/59 28/180/59
f 29/181/60 38/142/60 46/169/60
f 41/114/61 40/113/61 47/175/61
f 53/136/62 44/135/62 47/182/62
f 54/183/63 48/184/63 24/185/63
f 55/186/64 48/184/64 28/187/64
f 48/184/65 49/188/65 24/185/65
f 24/189/66 50/137/66 54/139/66
f 59/156/67 28/155/67 51/138/67
f 51/146/68 32/148/68 60/190/68
f 52/191/69 28/180/69 53/171/69
f 39/172/70 52/192/70 40/130/70
f 40/130/71 53/136/71 47/182/71
f 40/130/72 52/192/72 53/136/72
f 54/183/73 28/187/73 48/184/73
f 51/138/74 28/155/74 54/139/74
f 28/193/75 52/194/75 55/195/75
f 55/195/76 52/194/76 39/196/76
f 56/197/77 15/150/77 61/149/77
f 56/197/78 25/198/78 13/123/78
f 42/111/79 57/110/79 33/166/79
f 23/117/80 58/159/80 57/115/80
f 33/199/81 57/115/81 58/159/81
f 33/129/82 58/200/82 61/144/82
f 25/201/83 58/200/83 59/202/83
f 59/202/84 51/146/84 60/190/84
f 59/202/85 60/190/85 25/201/85
f 60/121/86 13/123/86 25/198/86
f 61/149/87 25/198/87 56/197/87
f 25/201/88 61/144/88 58/200/88
