# Blender v2.75 (sub 0) OBJ File: 'Empty.blend'
# www.blender.org
mtllib OW_LOB_WOODPLANKS_V2.mtl
o OW_LOB_WOODPLANKS_V2
v 0.100000 -2.750000 -0.250000
v 0.100000 3.650000 0.300000
v -0.150000 3.750000 -0.250000
v 0.100000 -2.700000 0.300000
v -0.150000 -2.750000 -0.250000
v -0.150000 3.650000 0.300000
v 0.100000 3.700000 -0.250000
v -0.150000 -2.600000 0.300000
vt 0.040690 -0.627032
vt 0.186074 -0.380904
vt 0.183991 -0.636749
vt 0.193152 -0.273925
vt 0.048623 -0.527987
vt 0.049477 -0.268823
vt 0.194032 -0.538192
vt 0.038385 -0.351754
vt 1.251990 0.373606
vt -1.238989 0.071645
vt -1.285526 0.284994
vt 1.237642 -0.224487
vt -1.270176 -0.140778
vt 1.245902 -0.008916
vt -1.239428 -0.354305
vt 1.200930 0.156848
vt -1.267215 0.043749
vt 1.250782 0.131679
vt 1.254190 0.034082
vt -1.219739 -0.310875
vt 1.213211 -0.085579
vt 1.218322 -0.183102
vt -1.283326 -0.054529
vt -1.263859 -0.215397
vn 0.000000 -0.995900 0.090500
vn 0.000000 0.995900 0.090500
vn 0.193100 0.965400 0.175500
vn -0.360000 -0.900100 0.245500
vn -1.000000 0.000000 0.000000
vn 1.000000 0.000000 0.000000
vn 0.000000 0.000000 -1.000000
vn 0.000000 0.000000 1.000000
usemtl OW_OLDWOOD
s off
f 4/1/1 5/2/1 1/3/1
f 7/4/2 6/5/2 2/6/2
f 6/5/3 7/4/3 3/7/3
f 5/2/4 4/1/4 8/8/4
usemtl OW_OLDWOOD_128X128
f 5/9/5 6/10/5 3/11/5
f 2/12/6 1/13/6 7/14/6
f 1/13/6 2/12/6 4/15/6
f 6/10/5 5/9/5 8/16/5
f 7/17/7 1/18/7 5/19/7
f 8/20/8 2/21/8 6/22/8
f 7/17/7 5/19/7 3/23/7
f 2/21/8 8/20/8 4/24/8
