# Blender v2.75 (sub 0) OBJ File: 'Empty.blend'
# www.blender.org
mtllib OW_LOB_RICEPLANT_ONE.mtl
o OW_LOB_RICEPLANT_ONE
v -0.008524 -0.300542 0.035126
v -0.347072 0.243898 -0.129361
v 0.328784 0.221374 0.123105
v -0.047973 0.221374 0.318610
v -0.023678 -0.300542 0.005284
v 0.024416 0.221374 -0.274021
v -0.017543 -0.147939 0.015030
v -0.063303 -0.503042 0.132628
v -0.063303 -0.503042 -0.105149
v 0.142617 -0.503042 0.013739
vt 0.999500 -0.000500
vt 0.000500 -0.020746
vt 0.495963 -0.999500
vt 0.999500 -0.020746
vt 0.000500 -0.000500
vt 0.504037 -0.999500
vt 0.981380 -0.004772
vt 0.026420 -0.004772
vt 0.538865 -0.959732
vt 1.021775 -0.000500
vt 0.022775 -0.000499
vt 0.485698 -0.999500
vt 0.920312 -0.223350
vt 0.574012 0.004585
vt 0.408598 -0.827354
vt 0.880784 -0.247037
vt 0.622236 0.083591
vt 0.397159 -0.847021
vt 0.611617 -0.004766
vt 0.928385 -0.195732
vt 0.398185 -0.849872
vn 0.347200 -0.066700 -0.935400
vn -0.347200 0.066700 0.935400
vn 0.992300 -0.026600 0.121200
vn -0.992300 0.026600 -0.121200
vn -0.991800 0.127800 0.000000
vn 0.488100 0.217100 0.845400
vn 0.487400 0.222900 -0.844200
usemtl OW_LOB_RICEPLANT002
s off
f 2/1/1 3/2/1 1/3/1
f 3/4/2 2/5/2 1/6/2
f 6/7/3 4/8/3 5/9/3
f 4/10/4 6/11/4 5/12/4
usemtl OW_LOB_RICEPLANT001
f 9/13/5 8/14/5 7/15/5
f 8/16/6 10/17/6 7/18/6
f 10/19/7 9/20/7 7/21/7
