# Blender v2.75 (sub 0) OBJ File: 'Empty.blend'
# www.blender.org
mtllib OW_ORETRAIL_PLANK_V02.mtl
o OW_ORETRAIL_PLANK_V02
v 7.233737 1.759508 8.518005
v -12.311131 1.851589 -5.718030
v 7.932865 2.148901 -4.689134
v -2.556002 2.315904 5.863005
v 3.278694 -5.365797 -4.491920
v 3.578107 2.056005 -2.959898
v 2.220429 -5.084671 -6.180311
v 6.678066 2.030088 0.664239
v 8.365033 -6.480219 1.479946
v 7.947330 -6.334138 -0.229372
v 8.382660 -6.480219 -3.879100
v 7.004916 2.030088 -3.089029
v 7.964956 -6.334138 -5.588417
v 6.624009 2.155518 -0.476395
v 6.950859 2.155518 -4.229662
v 3.574804 2.126870 -3.952175
v 2.124740 -5.155538 -4.176716
v 7.061402 -6.451073 0.490903
v 7.079030 -6.451073 -4.868143
v 4.102205 1.964737 -3.748445
v 7.167889 2.079451 0.012224
v 7.494739 2.079451 -3.741044
v 7.899353 1.460822 -4.600296
v 7.171189 2.447588 8.469257
v -2.486710 1.627825 5.728721
v -12.293777 2.539668 -5.478714
v 7.640883 -6.459569 1.512280
v 7.658511 -6.459569 -3.846766
v 4.070242 1.845746 -3.171884
v 8.495601 -6.410205 0.102213
v 8.513227 -6.410205 -5.256832
v 3.025907 -5.246806 -5.723611
v 1.689138 -5.554566 -5.457870
v 6.403535 2.038583 0.014038
v 6.730384 2.038583 -3.739231
v 7.352880 2.009437 -3.207330
v 7.026031 2.009437 0.545938
v 3.490829 1.656977 -3.489646
vt -0.098529 -1.852846
vt 1.123645 -0.977935
vt -0.069960 -0.210754
vt 1.344513 -0.148549
vt -0.220690 -0.212265
vt -0.222851 -1.865152
vt 1.346131 -0.052165
vt -0.077521 -0.110146
vt 1.346131 -0.148687
vt -0.077521 -0.206668
vt 0.006330 0.912131
vt 3.998002 0.906537
vt 0.006330 0.999001
vt 3.998002 0.993407
vt 0.788235 -0.000000
vt 0.643137 -1.000000
vt 0.788235 -1.000000
vt 0.643137 -0.000000
vn 0.019200 0.999800 0.003300
vn -0.019200 -0.999800 -0.003100
vn -0.007300 0.999700 -0.023100
vn 0.006900 -0.999700 0.023100
vn 0.052200 -0.130400 -0.990100
vn 0.997400 -0.041000 0.058700
vn 0.994400 0.093800 0.048300
vn -0.745400 -0.199200 0.636100
vn 0.043200 0.327200 -0.944000
vn -0.745100 -0.202300 0.635500
vn -0.949700 0.144500 0.277900
vn 0.974000 -0.088300 -0.208400
vn 0.982800 0.154800 0.101000
vn -0.868900 -0.049300 0.492600
vn 0.989900 0.101100 0.099000
vn -0.864900 -0.110300 0.489800
vn -0.920300 -0.049500 0.387900
vn 0.944700 0.179200 0.274600
vn -0.918000 -0.089100 0.386400
vn 0.958900 0.095200 0.267400
vn -0.983200 0.182500 0.006900
vn 0.992900 -0.114700 0.031400
vn 0.224300 -0.199200 0.953900
vn -0.620800 -0.091800 -0.778500
vn -0.635000 0.076100 -0.768700
vn 0.403100 0.185300 -0.896200
vn 0.672600 0.097400 -0.733500
vn 0.669600 0.207600 -0.713100
vn 0.047600 0.116700 0.992000
vn 0.042400 -0.073700 0.996400
vn 0.306000 -0.218000 0.926700
vn 0.522400 0.056700 -0.850800
vn 0.527200 0.195300 -0.827000
vn 0.511400 0.164600 -0.843500
vn -0.850300 0.325300 -0.413700
vn -0.887700 -0.151000 -0.435100
vn -0.907500 -0.041500 -0.417900
vn 0.318100 -0.060000 0.946200
vn 0.326100 0.130500 0.936300
vn -0.967900 0.249600 -0.028600
usemtl OW_ORETRAIL_PLANK_V02_V1
s off
f 26/1/1 4/2/1 3/3/1
f 2/1/2 23/3/2 25/2/2
f 24/4/3 3/3/3 4/2/3
f 1/4/4 25/2/4 23/3/4
f 23/5/5 2/6/5 3/3/5
f 3/7/6 24/8/6 23/9/6
f 1/10/7 23/9/7 24/8/7
f 4/11/8 26/12/8 25/13/8
f 26/1/9 3/3/9 2/6/9
f 2/14/10 25/13/10 26/12/10
usemtl OW_ORETRAIL_PLANK_V02_V2
f 6/15/11 33/16/11 17/17/11
f 20/18/12 5/17/12 32/16/12
f 21/18/13 9/17/13 30/16/13
f 8/15/14 18/16/14 27/17/14
f 22/18/15 11/17/15 31/16/15
f 12/15/16 19/16/16 28/17/16
f 8/15/17 34/18/17 18/16/17
f 21/18/18 37/15/18 9/17/18
f 12/15/19 35/18/19 19/16/19
f 22/18/20 36/15/20 11/17/20
f 38/18/21 16/15/21 7/17/21
f 20/18/22 29/15/22 5/17/22
f 29/15/23 17/16/23 5/17/23
f 34/18/24 10/17/24 18/16/24
f 35/18/25 13/17/25 19/16/25
f 16/15/26 20/18/26 32/16/26
f 14/15/27 21/18/27 30/16/27
f 15/15/28 22/18/28 31/16/28
f 37/15/29 27/16/29 9/17/29
f 36/15/30 28/16/30 11/17/30
f 29/15/31 6/18/31 17/16/31
f 14/15/32 30/16/32 10/17/32
f 15/15/33 31/16/33 13/17/33
f 16/15/34 32/16/34 7/17/34
f 38/18/35 7/17/35 33/16/35
f 34/18/36 14/15/36 10/17/36
f 35/18/37 15/15/37 13/17/37
f 36/15/38 12/18/38 28/16/38
f 37/15/39 8/18/39 27/16/39
f 6/15/40 38/18/40 33/16/40
