# Blender v2.75 (sub 0) OBJ File: 'Empty.blend'
# www.blender.org
mtllib OW_O_BIGBRIDGEMIDDLE.mtl
o OW_O_BIGBRIDGEMIDDLE
v -5.660874 -0.971493 -2.288794
v 2.739671 -0.180648 -2.288794
v 2.739671 0.000000 2.288794
v -5.660874 -0.971493 2.288794
v 2.739671 -0.792968 2.288794
v -5.660874 -0.336232 2.288794
v -5.660874 -0.336232 -2.288794
v 2.739671 -0.792968 -2.288794
v -2.172936 -0.530558 2.288794
v -2.172936 -1.165616 -2.288794
v -2.172936 -0.530558 -2.288794
v -2.172936 -1.165616 2.288794
vt 0.213020 -0.776360
vt 0.786980 -0.776360
vt 0.786980 0.614847
vt 0.213020 0.614847
vt 0.213020 -1.542799
vt 0.786980 -1.542799
vt -0.411067 0.622469
vt -0.355732 -0.774214
vt -0.206641 0.622469
vt 0.000500 -0.565478
vt 0.999500 -0.565478
vt 0.000500 -0.335133
vt 0.999500 -0.386992
vt 0.000500 -0.386992
vt 0.999500 -0.617337
vt -0.151306 -0.774214
vt 1.365044 -1.543669
vt 1.355732 -0.774214
vt 1.160618 -1.543669
vt 0.000500 -0.617337
vt 0.999500 -0.433783
vt 1.206641 0.622469
vt 1.151306 -0.774214
vt -0.365044 -1.543669
vt 1.323517 0.622469
vt -0.160618 -1.543669
vn -0.107400 0.994200 0.000000
vn 0.075600 -0.997100 0.000000
vn 0.055600 0.998500 0.000000
vn 0.000000 0.000000 1.000000
vn 1.000000 0.000000 0.000000
vn -1.000000 0.000000 0.000000
vn 0.000000 0.000000 -1.000000
vn -0.055600 -0.998500 0.000000
vn -0.071000 0.996700 -0.039300
usemtl OW_O_BIGBRIDGEMIDDLE_1
s off
f 11/1/1 9/2/1 3/3/1
f 5/4/2 12/1/2 8/3/2
f 10/2/2 8/3/2 12/1/2
f 7/5/3 6/6/3 11/1/3
f 3/7/4 9/8/4 5/9/4
f 5/10/5 8/11/5 3/12/5
f 6/13/6 7/14/6 4/15/6
f 12/16/4 5/9/4 9/8/4
f 7/17/7 11/18/7 1/19/7
f 1/20/6 4/15/6 7/14/6
f 2/21/5 3/12/5 8/11/5
f 8/22/7 10/23/7 11/18/7
f 9/2/3 11/1/3 6/6/3
f 9/8/4 6/24/4 12/16/4
f 1/6/8 10/2/8 4/5/8
f 10/23/7 1/19/7 11/18/7
f 3/3/9 2/4/9 11/1/9
f 11/18/7 2/25/7 8/22/7
f 12/1/8 4/5/8 10/2/8
f 4/26/4 12/16/4 6/24/4
