# Blender v2.75 (sub 0) OBJ File: 'Empty.blend'
# www.blender.org
mtllib OW_O_BIGBRIDGE.mtl
o OW_O_BIGBRIDGE
v 5.137275 -0.792968 -2.288794
v -2.830208 -0.971493 -2.288794
v 5.137275 0.000000 2.288794
v -2.830208 -0.971493 2.288794
v 5.906467 1.689550 -2.559376
v 13.530475 -1.033712 -2.662059
v 9.536978 -0.112218 -2.866294
v 5.719682 1.982671 -2.726298
v -1.872766 -0.740591 -2.025760
v 2.124445 0.180903 -2.135480
v 5.800582 1.530708 1.915391
v 13.375078 -0.789367 2.640185
v 9.265381 0.331391 2.237429
v 5.083823 1.891692 2.239572
v -2.522781 -0.428383 2.044914
v 1.605001 0.692375 2.160011
v 5.334737 0.669667 3.129762
v 3.925185 -1.342707 1.541690
v 5.296119 3.261685 2.197502
v 6.189473 -1.389264 -1.370720
v 6.275779 2.868788 -2.489360
v 6.597942 -1.246204 -3.839651
v 6.099621 0.988957 1.832613
v 5.656604 -1.437366 3.757391
v 6.809726 -1.536645 1.316436
v 4.308066 -1.237459 -3.049423
v -1.520332 -0.579155 -1.046382
v 8.529634 -10.495144 -2.160673
v 8.338712 -10.448478 -3.259447
v -1.690876 -0.522048 2.042223
v 8.203475 -10.413980 3.388561
v 8.249777 -10.510153 2.277462
v -1.648004 -0.611097 1.013427
v -1.697111 -0.535948 -2.063766
v 7.264889 -1.326472 -2.360908
v -2.318240 -0.412866 1.670268
v 13.144903 -0.773850 2.999650
v -2.020437 -0.728372 -1.625309
v 13.709110 -1.021493 -3.049689
v -0.852989 -1.390752 1.649784
v 2.115781 -4.116441 -2.134055
v 2.348319 -4.431708 -2.015987
v -1.270766 -1.002073 -1.992260
v 2.125466 -4.363510 1.909657
v 1.897384 -4.310633 2.245201
v 6.092676 1.711757 -2.901369
v 5.560882 2.004878 -2.370749
v 5.137275 -0.792968 2.288794
v -2.830208 -0.178525 -2.288794
v -2.830208 -0.178525 2.288794
v 5.290231 1.928353 1.914771
v 5.572021 1.567369 2.225004
v -0.637675 -1.682666 1.759109
v -1.481954 -0.953112 -1.681571
v 7.900066 -10.604711 -2.617591
v 7.682480 -10.585941 2.826307
v 8.968280 -10.338907 -2.802528
v 8.770770 -10.338191 2.839717
v -2.103264 -0.680609 -1.469455
v -1.114178 -0.434493 -1.640693
v -2.173277 -0.681272 1.521617
v -1.165602 -0.451873 1.534033
v 6.229549 0.800303 -1.540058
v 5.351633 3.070096 -2.826765
v 6.089587 2.868788 -3.160748
v 4.564221 -1.420921 -1.938578
v 5.137275 -0.339606 -2.288794
v 2.203389 0.556604 -2.300316
v 9.445344 0.263483 -2.708159
v 5.325065 -1.435859 0.881746
v 5.012557 3.071421 1.766499
v 4.495924 -1.342707 3.168335
v 6.555011 -1.521173 3.172372
v 5.283801 -1.241974 -3.835139
v 13.417743 -0.636074 2.831844
v -2.578711 -0.275090 1.856698
v 13.586491 -0.835360 -2.766305
v -1.920429 -0.542240 -1.917440
v 13.656586 -1.210271 -2.856343
v -1.983245 -0.917151 -1.822180
v 5.564536 2.887135 -2.265392
v 6.049194 1.509557 -2.819971
v 5.597842 1.802678 -2.455308
v 5.837279 1.659767 2.069104
v 9.053782 0.397540 2.570894
v 13.110225 -0.905206 2.788667
v 5.036494 2.020751 2.088794
v 1.792822 0.758524 1.812598
v -2.268931 -0.544222 1.878318
v 4.758937 0.979094 1.712772
v 4.977357 2.878267 2.435937
v 9.395782 0.068623 -2.601678
v 2.244444 0.361744 -2.410358
v 5.541814 1.465707 2.109394
v 5.328428 1.826691 2.027992
v 5.311348 0.983942 1.219917
v 5.726797 2.712714 1.842045
v 5.768117 3.215309 -2.661551
v 5.946691 1.842476 -2.635003
v 5.685517 2.135596 -2.647748
v 4.927914 0.116847 -2.909910
v 5.358133 0.360410 -3.524345
v 4.865568 0.463378 2.584023
v 5.726797 2.712714 2.457282
v 9.016922 0.261589 2.417840
v 1.840269 0.622573 1.962708
v 9.604904 0.125721 -2.965134
v 2.064482 0.418841 -2.031615
v 6.807021 0.778583 -2.425931
v 6.154631 0.568840 -3.440539
v 6.061215 0.952398 2.486413
v 5.202540 0.827889 -2.012620
v 0.000000 -0.214644 -2.288794
v 1.539931 0.867030 1.975803
v 9.317443 0.506046 2.425727
v 0.000000 -1.007612 -2.288794
v 0.000000 -1.007612 2.288794
v 0.000000 -0.214644 2.288794
vt 0.474276 -0.332732
vt 1.840850 -0.334632
vt 0.441595 -0.398316
vt 0.442914 -0.251592
vt 1.800413 -0.256985
vt 0.499736 -0.254105
vt -0.654189 -0.251617
vt 0.556857 -0.315489
vt 0.511002 -0.257853
vt -0.724007 -0.261872
vt 0.507926 -0.298784
vt 0.999500 -0.959123
vt 0.710748 -0.475729
vt 0.514681 -0.978517
vt 0.229765 -0.959123
vt 0.794862 -0.959123
vt 0.591872 -0.583100
vt 0.724796 -0.075167
vt 0.427468 -0.525558
vt 0.838008 -0.570753
vt 0.087045 -0.999500
vt 0.636157 -0.992679
vt 0.302709 -0.514934
vt 0.848489 -0.999500
vt 0.669168 -0.473676
vt 0.442038 -0.481287
vt 0.519432 -0.474720
vt 0.246430 -0.473676
vt 0.911285 -0.996279
vt 0.740269 -0.481287
vt 0.488669 -0.540151
vt 0.781462 -0.540151
vt 0.203736 -0.996279
vt 0.644721 -0.615665
vt 0.397591 -0.075167
vt 0.375614 -0.570753
vt 0.453133 -0.075167
vt 0.069018 -0.520878
vt -0.596794 -0.313980
vt 0.514119 -0.255994
vt 0.447646 -0.300912
vt 1.620348 -0.255766
vt -0.953217 -0.397511
vt -0.996338 -0.347323
vt 0.423331 -0.396722
vt 0.374219 -0.346438
vt -0.744951 -0.336093
vt -0.776631 -0.401638
vt -0.472939 -0.255687
vt -0.541578 -0.300053
vt 1.517895 -0.254324
vt 1.575749 -0.317667
vt 0.999500 -0.979149
vt 0.649698 -0.520878
vt 0.665317 -0.075167
vt 0.425014 -0.071214
vt 0.646918 -0.031790
vt 0.522807 -0.000500
vt 0.739769 -0.514934
vt 0.376700 -0.668147
vt 0.769729 -0.999500
vt 1.441549 -0.345079
vt 1.488352 -0.394196
vt 1.803558 -0.398631
vt 0.443265 -0.346228
vt 0.000500 -0.999500
vt 0.375550 -0.114794
vt 0.540427 -0.080326
vt 0.198163 -0.959123
vt 0.600140 -0.978831
vt 0.410343 -0.031790
vt 0.128082 -0.615665
vt -0.724639 -0.300780
vt 1.801249 -0.342285
vt 0.493797 -0.000500
vt 0.637490 -0.071214
vt 1.614491 -0.302896
vt 1.563962 -0.307502
vt 0.472974 -0.314630
vt 1.499669 -0.318236
vt 0.435656 -0.260741
vt 1.455698 -0.253742
vt 0.307863 -0.040112
vt 0.624450 -0.114794
vt 0.364897 -0.080326
vt 0.457594 -0.000499
vt -0.770688 -0.343002
vt -0.468125 -0.254946
vt 0.622912 -0.040112
vt 0.665892 -0.114794
vt 0.524706 -0.000499
vt 0.353082 -0.031790
vt 0.506203 -0.000500
vt 0.320248 -0.959969
vt 0.999500 -0.959969
vt 0.790077 -0.668147
vt 0.669836 -0.960941
vt 0.002325 -0.960941
vt 0.289198 -0.475729
vt 0.475294 -0.000499
vt 0.542406 -0.000499
vt 0.452158 -0.114794
vt -0.440625 -0.317868
vt -0.765836 -0.251366
vt 0.401158 -0.979149
vt 0.999500 -0.961853
vt 0.225836 -0.961853
vt 1.601097 -0.258568
vt 0.387003 -2.155611
vt 0.386904 1.161888
vt 0.335349 -2.157396
vt 0.386866 -3.986923
vt 0.387480 2.981408
vt 0.320961 -3.990573
vt 0.396339 -3.026485
vt 0.393890 2.023375
vt 0.322151 -3.019457
vt 0.385761 -2.238777
vt 0.386248 1.236094
vt 0.317547 -2.235172
vt 0.323590 2.028974
vt 0.315996 1.241851
vt 0.335277 1.172065
vt 0.321048 2.981809
vt 0.434055 -1.097736
vt 0.443047 0.137343
vt 0.513921 -1.084874
vt 0.432293 -1.214876
vt 0.442460 0.192282
vt 0.511269 -1.218452
vt 0.516998 0.149252
vt 0.515586 0.188971
vt 0.389799 -2.289400
vt 0.389822 1.307222
vt 0.320977 -2.297251
vt 0.395363 -2.222129
vt 0.395380 1.226177
vt 0.319283 -2.215259
vt 0.318578 -3.030485
vt 0.404207 -3.033761
vt 0.317830 2.035879
vt 0.321048 -2.332198
vt 0.392255 -2.328089
vt 0.320715 1.335172
vt 0.320177 1.300856
vt 0.400185 2.034678
vt 0.318504 1.216387
vt 0.390813 1.332704
vt 0.786980 0.614847
vt 0.213020 0.614848
vt 0.213020 -0.776360
vt 0.786980 -0.776360
vt -0.411067 0.622469
vt -0.355732 -0.774214
vt -0.206641 0.622469
vt 0.000500 -0.565478
vt 0.999500 -0.565478
vt 0.000500 -0.335133
vt 0.000500 -0.617337
vt 0.999500 -0.617337
vt 0.000500 -0.386992
vt 1.206641 0.622469
vt 1.151306 -0.774214
vt 1.355732 -0.774214
vt 0.999500 -0.386992
vt -0.151306 -0.774214
vt 0.999500 -0.433783
vt 1.323517 0.622469
vt 0.213020 -1.542799
vt 0.786980 -1.542799
vt 1.365044 -1.543669
vt 1.160618 -1.543669
vt -0.160618 -1.543669
vt -0.365044 -1.543669
vn -0.229400 -0.856300 0.462800
vn -0.117600 -0.352200 -0.928500
vn 0.192300 -0.856300 -0.479400
vn 0.190100 -0.352200 0.916400
vn -0.169200 -0.818100 -0.549600
vn 0.256100 0.672400 -0.694500
vn 0.207200 -0.818100 0.536500
vn -0.207000 0.672400 0.710700
vn -0.405300 0.211100 -0.889500
vn -0.903700 0.287600 0.317100
vn 0.829000 0.090600 -0.551800
vn -0.329400 0.124300 0.936000
vn 0.963900 0.256500 0.071000
vn 0.609300 0.113100 -0.784800
vn 0.553700 0.323300 0.767400
vn -0.773600 0.332800 0.539300
vn 0.964700 0.228800 0.130500
vn 0.072100 0.122500 -0.989900
vn 0.818900 0.224200 0.528300
vn 0.173800 -0.664500 0.726800
vn -0.168100 0.680700 -0.713000
vn -0.122600 -0.664500 -0.737200
vn 0.118000 0.680700 0.723000
vn -0.183300 0.856300 0.482800
vn 0.234600 -0.679100 0.695500
vn 0.220700 0.856300 -0.467000
vn -0.179300 -0.679100 -0.711800
vn 0.247400 0.909500 -0.334000
vn -0.387500 -0.844000 0.370700
vn -0.220400 0.909500 0.352400
vn 0.357300 -0.844000 -0.400000
vn -0.213800 0.698700 -0.682700
vn 0.261700 -0.795300 0.546800
vn 0.165600 0.698700 0.695900
vn -0.222900 -0.795300 -0.563800
vn 0.675300 0.044600 0.736200
vn -0.415000 0.077700 0.906500
vn 0.285200 0.394500 0.873500
vn 0.937700 0.230400 -0.260000
vn -0.347500 0.233000 -0.908300
vn 0.593600 0.787800 -0.164600
vn -0.958600 0.274600 0.075800
vn -0.379100 0.891000 0.249900
vn -0.201600 0.449100 -0.870500
vn 0.397500 0.891000 -0.219400
vn 0.132600 0.449100 0.883600
vn 0.287400 0.268700 -0.919300
vn 0.607500 0.135700 -0.782700
vn -0.769900 0.074500 0.633800
vn -0.430900 0.196500 0.880700
vn 0.538400 0.315100 0.781600
vn -0.836000 0.134900 -0.531900
vn 0.260200 0.725000 -0.637800
vn -0.215100 0.725000 0.654400
vn 0.127400 0.433000 0.892300
vn -0.197000 0.433000 -0.879600
vn -0.201100 -0.786400 0.584100
vn 0.154700 -0.786400 -0.598100
vn 0.234600 0.686000 0.688800
vn -0.914600 0.120300 0.386100
vn -0.168800 -0.336600 -0.926400
vn 0.241000 -0.336600 0.910300
vn 0.292600 0.659400 -0.692500
vn 0.114400 0.668500 0.734900
vn -0.258100 -0.690600 0.675600
vn -0.283500 -0.792500 0.540000
vn -0.243600 0.659400 0.711200
vn -0.165400 0.668500 -0.725100
vn 0.210300 -0.690600 -0.692000
vn 0.245100 -0.792500 -0.558500
vn -0.662900 0.099900 -0.742000
vn -0.998200 0.043800 -0.039900
vn 0.040400 0.305400 0.951400
vn -0.707200 0.688300 0.161400
vn -0.387700 -0.844200 0.370100
vn 0.211000 0.426800 0.879400
vn 0.357500 -0.844200 -0.399400
vn -0.279400 0.426800 -0.860100
vn -0.294700 -0.678100 0.673300
vn 0.247000 -0.678100 -0.692200
vn -0.662900 0.099400 -0.742100
vn 0.237900 0.277800 -0.930700
vn 0.975100 0.210500 0.069100
vn 0.413400 0.700800 -0.581400
vn -0.443800 0.788800 0.425400
vn -0.047100 0.806100 -0.589900
vn 0.193700 0.393500 0.898700
vn -0.263600 0.393500 -0.880700
vn -0.886400 0.378200 0.266900
vn -0.587800 0.344500 -0.732000
vn -0.836400 0.141500 -0.529500
vn 0.054100 0.187700 -0.980700
vn -0.975900 0.113500 0.186600
vn -0.907000 0.304300 0.291100
vn 0.080500 0.477300 0.875100
vn 0.786800 0.617200 0.000000
vn -0.215200 -0.773800 -0.595800
vn 0.256300 -0.773800 0.579300
vn 0.397100 0.888600 -0.229800
vn -0.377800 0.888600 0.260200
vn 0.899800 0.183500 -0.395900
vn 0.823700 0.195600 0.532200
vn 0.769000 0.310700 -0.558700
vn -0.002700 0.214100 -0.976800
vn 0.627900 0.132000 0.767000
vn 0.982400 0.186600 0.000000
vn -0.407000 0.181400 0.895200
vn -0.970900 0.188800 0.147600
vn -0.192000 0.653600 -0.732100
vn -0.251100 0.695000 0.673700
vn 0.140500 0.653600 0.743700
vn 0.297500 0.695000 -0.654600
vn -0.616400 -0.556900 -0.556800
vn 0.614200 0.560000 0.556000
vn -0.516400 -0.595000 -0.615900
vn 0.514500 0.598200 0.614400
vn -0.767100 -0.623100 -0.153000
vn 0.767100 0.623100 0.153000
vn -0.534000 -0.812200 -0.235000
vn 0.534000 0.812200 0.235000
vn -0.437800 -0.525700 0.729300
vn -0.567600 -0.476300 0.671600
vn 0.436100 0.529300 -0.727800
vn 0.565500 0.479800 -0.670800
vn 0.024300 0.997000 -0.074000
vn 0.041700 -0.999100 0.000000
vn -0.041700 0.999100 0.000000
vn 0.000000 0.000000 1.000000
vn 1.000000 0.000000 0.000000
vn -1.000000 0.000000 0.000000
vn 0.000000 0.000000 -1.000000
vn 0.012800 0.999900 0.000000
vn -0.012800 -0.999900 0.000000
usemtl OW_O_BIGBRIDGE_3
s off
f 7/1/1 79/2/1 92/3/1
f 107/4/2 39/5/2 7/1/2
f 10/1/3 80/2/3 93/3/3
f 108/4/4 38/5/4 10/1/4
f 13/6/5 12/7/5 105/8/5
f 115/9/6 75/10/6 13/11/6
f 16/6/7 15/7/7 106/8/7
f 114/9/8 76/10/8 16/11/8
f 18/12/9 90/13/9 70/14/9
f 18/15/10 72/16/10 103/17/10
f 65/18/11 109/19/11 110/20/11
f 66/21/12 20/22/12 112/23/12
f 25/24/13 23/25/13 111/26/13
f 96/27/14 23/28/14 70/14/14
f 73/29/15 111/30/15 17/31/15
f 17/32/16 103/17/16 72/16/16
f 111/26/17 73/33/17 25/24/17
f 102/34/18 65/35/18 110/36/18
f 21/37/19 63/38/19 109/19/19
f 89/39/20 106/8/20 15/7/20
f 114/40/21 88/41/21 76/42/21
f 86/39/22 105/8/22 12/7/22
f 115/40/23 85/41/23 75/42/23
f 78/43/24 38/44/24 68/45/24
f 80/2/25 10/1/25 38/5/25
f 77/43/26 39/44/26 69/45/26
f 79/2/27 7/1/27 39/5/27
f 107/46/28 69/45/28 39/44/28
f 82/47/29 7/1/29 5/48/29
f 108/46/30 68/45/30 38/44/30
f 83/47/31 10/1/31 8/48/31
f 87/49/32 51/50/32 88/41/32
f 14/51/33 16/6/33 95/52/33
f 84/49/34 52/50/34 85/41/34
f 11/51/35 13/6/35 94/52/35
f 20/22/36 35/53/36 63/54/36
f 20/22/37 63/54/37 112/23/37
f 21/55/38 81/56/38 63/54/38
f 21/37/39 109/19/39 65/18/39
f 64/57/40 65/35/40 102/34/40
f 65/18/41 98/58/41 21/37/41
f 112/59/42 101/60/42 66/61/42
f 47/62/43 100/63/43 68/45/43
f 93/3/44 9/64/44 68/65/44
f 46/62/45 99/63/45 69/45/45
f 92/3/46 6/64/46 69/65/46
f 23/28/47 25/66/47 70/14/47
f 97/67/48 23/28/48 96/27/48
f 91/68/49 103/17/49 17/32/49
f 17/31/50 72/69/50 24/70/50
f 24/70/51 73/29/51 17/31/51
f 101/60/52 64/71/52 102/72/52
f 12/73/53 13/11/53 75/10/53
f 15/73/54 16/11/54 76/10/54
f 77/74/55 69/65/55 6/64/55
f 78/74/56 68/65/56 9/64/56
f 6/64/57 92/3/57 79/2/57
f 9/64/58 93/3/58 80/2/58
f 98/75/59 81/56/59 21/55/59
f 64/71/60 101/60/60 81/76/60
f 7/1/61 82/47/61 107/4/61
f 10/1/62 83/47/62 108/4/62
f 13/11/63 11/77/63 115/9/63
f 37/78/64 75/42/64 85/41/64
f 105/79/65 86/80/65 85/81/65
f 37/82/66 85/81/66 86/80/66
f 16/11/67 14/77/67 114/9/67
f 36/78/68 76/42/68 88/41/68
f 106/79/69 89/80/69 88/81/69
f 36/82/70 88/81/70 89/80/70
f 70/14/71 90/13/71 96/27/71
f 91/68/72 71/83/72 103/17/72
f 17/31/73 104/84/73 91/85/73
f 71/83/74 91/68/74 19/86/74
f 92/3/75 5/48/75 7/1/75
f 69/65/76 99/87/76 92/3/76
f 93/3/77 8/48/77 10/1/77
f 68/65/78 100/87/78 93/3/78
f 85/81/79 52/88/79 105/79/79
f 88/81/80 51/88/80 106/79/80
f 90/13/81 71/89/81 96/27/81
f 96/27/82 71/89/82 97/67/82
f 23/25/83 97/90/83 111/26/83
f 71/89/84 19/91/84 97/67/84
f 64/92/85 81/56/85 98/75/85
f 64/57/86 98/93/86 65/35/86
f 5/48/87 92/3/87 99/87/87
f 8/48/88 93/3/88 100/87/88
f 66/61/89 101/60/89 26/94/89
f 26/95/90 101/96/90 74/97/90
f 101/60/91 102/72/91 74/98/91
f 74/97/92 102/34/92 110/36/92
f 103/17/93 71/83/93 90/99/93
f 103/17/94 90/99/94 18/15/94
f 19/100/95 91/85/95 104/84/95
f 97/90/96 19/101/96 104/102/96
f 105/8/97 94/52/97 13/6/97
f 94/103/79 105/79/79 52/88/79
f 106/8/98 95/52/98 16/6/98
f 95/103/80 106/79/80 51/88/80
f 69/45/99 107/46/99 46/62/99
f 46/104/61 107/4/61 82/47/61
f 68/45/100 108/46/100 47/62/100
f 47/104/62 108/4/62 83/47/62
f 109/19/101 35/105/101 22/106/101
f 35/105/102 109/19/102 63/38/102
f 110/20/103 109/19/103 22/106/103
f 74/97/104 110/36/104 22/107/104
f 104/84/105 17/31/105 111/30/105
f 104/102/106 111/26/106 97/90/106
f 63/54/107 81/56/107 112/23/107
f 81/76/108 101/60/108 112/59/108
f 88/41/109 114/40/109 87/49/109
f 87/108/110 114/9/110 14/77/110
f 85/41/111 115/40/111 84/49/111
f 84/108/112 115/9/112 11/77/112
usemtl OW_O_BIGBRIDGE_2
f 55/109/113 59/110/113 29/111/113
f 57/112/114 60/113/114 28/114/114
f 56/115/115 61/116/115 32/117/115
f 58/118/116 62/119/116 31/120/116
f 33/121/115 32/117/115 61/116/115
f 30/122/116 31/120/116 62/119/116
f 34/123/113 29/111/113 59/110/113
f 27/124/114 28/114/114 60/113/114
f 42/125/117 53/126/117 41/127/117
f 53/126/118 42/125/118 41/127/118
f 45/128/119 54/129/119 44/130/119
f 54/129/120 45/128/120 44/130/120
f 40/131/117 41/127/117 53/126/117
f 41/127/118 40/131/118 53/126/118
f 43/132/119 44/130/119 54/129/119
f 44/130/120 43/132/120 54/129/120
f 28/133/121 27/134/121 55/135/121
f 31/136/122 30/137/122 56/138/122
f 57/139/123 29/140/123 60/141/123
f 58/142/124 32/143/124 62/144/124
f 59/145/121 55/135/121 27/134/121
f 34/146/123 60/141/123 29/140/123
f 61/147/122 56/138/122 30/137/122
f 33/148/124 62/144/124 32/143/124
usemtl OW_O_BIGBRIDGE_1
f 3/149/125 67/150/125 113/151/125
f 48/150/126 117/151/126 1/149/126
f 116/152/126 1/149/126 117/151/126
f 113/151/127 118/152/127 3/149/127
f 3/153/128 118/154/128 48/155/128
f 48/156/129 1/157/129 3/158/129
f 2/159/130 4/160/130 49/161/130
f 1/162/131 116/163/131 113/164/131
f 50/165/130 49/161/130 4/160/130
f 117/166/128 48/155/128 118/154/128
f 67/167/129 3/158/129 1/157/129
f 113/164/131 67/168/131 1/162/131
f 49/169/132 50/170/132 113/151/132
f 49/171/131 113/164/131 2/172/131
f 2/170/133 116/152/133 4/169/133
f 116/163/131 2/172/131 113/164/131
f 117/151/133 4/169/133 116/152/133
f 4/173/128 117/166/128 50/174/128
f 118/152/132 113/151/132 50/170/132
f 118/154/128 50/174/128 117/166/128
