# Blender v2.75 (sub 0) OBJ File: 'Empty.blend'
# www.blender.org
mtllib OW_SHIPWRECK_BUG.mtl
o OW_SHIPWRECK_BUG
v 18.316153 -8.085542 3.021737
v 5.044037 1.946097 9.050450
v 14.363512 -1.593148 1.405251
v 14.047012 -6.987244 9.015504
v 14.604545 7.972907 5.637666
v 10.485099 1.426558 5.253963
v 9.709198 -5.626846 6.772008
v -2.726517 6.062991 6.033114
v 4.904406 2.012915 3.483609
v 17.778492 -5.998085 13.330828
v 14.061576 7.339558 6.246844
v 15.389664 -2.292258 9.959967
v 13.807388 -6.960491 2.929443
v 17.431847 -4.797892 1.578389
v 18.969454 -3.748922 9.417150
v 3.643094 2.324309 5.797493
v 5.410604 -3.378411 6.218384
v 10.154379 2.630147 7.289623
v 14.404777 4.049364 7.819084
v 13.106700 3.298982 7.584425
v 13.102623 3.305094 7.737719
v 4.051155 -2.546374 6.193987
v 10.473907 -5.640957 5.738540
v 15.419015 -6.104072 8.657337
v 19.075226 -5.013013 9.230599
v 13.605064 7.326323 6.567845
v 6.622332 -3.640113 8.464824
v 5.669017 1.677467 8.615301
v -0.586954 5.286870 8.581329
v 0.075493 3.712326 4.242581
v -0.618445 4.873971 8.724152
v 16.389372 -2.189246 12.962566
v 17.266510 -5.696628 9.980323
v 16.357880 -2.457745 13.307229
v 11.149249 0.992556 6.279811
v 13.663175 7.191694 6.733214
v 9.683777 -5.614683 5.758674
v 10.499332 -5.653122 6.751875
v 17.584904 -6.144037 13.049492
v 13.788018 -8.151063 5.873326
v 3.446201 1.558398 5.793238
v -2.439967 5.521094 6.532303
v 3.668513 2.312150 6.810829
v 13.975343 -6.471338 3.477977
v 0.290186 3.969578 4.169950
v 17.051817 -5.872820 10.181345
v 14.448641 -3.416412 9.459354
v 5.980334 -0.081121 8.840268
v 12.936656 -3.077667 2.272754
v 10.962208 -2.779088 6.589846
v 10.950436 -2.245903 6.562997
v 15.718765 -2.044139 10.438239
v 14.099737 -6.530865 8.437324
v 6.506734 -3.584799 3.856163
v 11.243692 1.401333 5.234632
v 14.390235 7.167518 6.714687
v 3.471620 1.546238 6.806573
v 14.574595 -1.596438 10.024324
v 10.453919 -0.415107 9.775652
v 10.390651 1.017782 6.299141
v 4.492548 1.992833 6.287936
v 15.748217 -2.281861 9.707847
v 13.877483 7.997083 5.656192
v 5.550684 1.734092 3.897639
v 13.867826 7.244267 7.123444
v 16.250902 -4.149971 9.056797
v 16.077320 -2.033744 10.186118
v 14.324339 7.257500 6.802443
v -1.120530 4.856618 6.298218
v 5.386985 2.759558 6.806935
v 5.382905 2.765670 6.960228
v 10.150299 2.636258 7.442917
v -0.466594 4.361098 6.313013
v -0.558453 -0.466131 6.329855
v -0.480996 4.366961 6.465692
v -1.124609 4.862730 6.451510
v 14.369132 4.179126 7.761820
v 17.084932 -4.187684 1.817265
v 9.333741 -6.745389 5.964438
v -2.823403 5.686107 6.031020
v -0.499682 -0.441019 6.438510
v 13.565578 -1.336178 2.053446
v 16.583179 -2.272846 13.096272
v -0.393146 5.143937 8.647933
v 16.164070 -2.374145 13.173523
v -0.812253 5.016907 8.657549
v 10.690223 -0.523141 10.419666
v 17.989408 -5.991970 13.182521
v 17.081827 -5.616964 9.852911
v 16.867134 -5.793155 10.053937
v 0.105502 4.105784 4.106483
v -0.109188 3.848531 4.179115
v 17.795816 -6.137921 12.901185
v 18.396709 -8.006892 2.556001
v 5.743112 0.531668 9.064240
v -2.343081 5.897977 6.534397
v 7.102411 -3.923587 4.872474
v 14.955508 -3.492500 9.930378
v 10.473375 -0.419367 1.774251
v 7.166825 -3.954409 7.440519
v 5.115501 -4.215367 6.147256
v 12.692337 -2.379160 2.211315
v 13.745763 -1.324681 9.440619
v 14.396839 -2.365211 10.229404
v 4.707511 1.247003 3.479354
v 4.847142 1.180186 9.046195
v 10.171041 2.565116 7.396316
v 14.284171 -2.818658 9.832085
v 10.133636 2.701289 7.336223
v 14.385011 4.117157 7.863490
v 14.388897 4.111332 7.717412
v -0.539767 4.341851 6.357038
v -0.407823 4.386209 6.421665
v 5.366242 2.830701 6.853534
v 5.403647 2.694528 6.913627
v -1.141272 4.927761 6.344817
v -1.103867 4.791587 6.404910
v 10.276481 -1.185279 1.769995
v 10.493331 -1.289053 10.415411
v -0.485279 -0.446884 6.285830
v -0.426510 -0.421773 6.394483
v 10.270150 -0.327164 2.449029
v 5.666263 0.583004 3.378793
v 13.123365 3.233951 7.691118
v 13.085958 3.370125 7.631025
v 5.909178 -0.033588 3.575965
v 14.166619 -2.359060 1.400995
v 10.914557 -5.532268 7.892348
v 10.821260 -5.487621 4.172895
v 3.969144 0.675690 5.518677
v 4.482225 1.290380 5.426229
v 4.519042 1.272768 6.893925
vt -0.233324 -3.412471
vt -0.236011 -5.760030
vt -0.012581 -3.461764
vt 0.776682 0.786301
vt 0.786940 -1.799676
vt 0.990974 0.802558
vt 0.992389 -1.421979
vt 0.987831 0.413470
vt 0.779087 -1.400968
vt 0.991493 -1.401675
vt 0.775236 -1.405473
vt 0.987484 0.413228
vt 0.808037 -2.078599
vt 0.975784 -2.028104
vt 0.778001 1.085969
vt 0.969643 1.076151
vt 0.978625 -2.082099
vt 0.786759 1.062789
vt 2.811307 -5.046113
vt 2.726834 -4.527015
vt 2.543135 -4.974894
vt 0.015806 2.543223
vt 0.507683 2.565490
vt 0.010638 -3.570079
vt 0.013280 1.953898
vt 0.504728 1.933891
vt 0.004728 -2.930060
vt 0.004728 1.900074
vt 0.505471 1.882687
vt 0.009895 -2.882687
vt 0.498300 -1.506654
vt -0.496064 -0.492923
vt 0.237248 -1.532346
vt 0.775266 -1.636267
vt 0.993072 0.630287
vt 1.000342 -1.633249
vt 2.003685 -2.107938
vt 2.011865 0.257059
vt 1.771977 -1.956762
vt -14.234632 2.569532
vt -14.207812 -1.069857
vt -14.014220 2.657091
vt 0.780707 -1.831922
vt 0.778249 0.834486
vt 0.987718 -1.840405
vt 0.699574 0.524725
vt 0.725597 -0.424139
vt 0.569177 0.454636
vt 2.006247 -4.968621
vt 1.739923 -4.972970
vt 1.877349 -5.109731
vt 0.779917 -1.018698
vt 0.983251 -1.015006
vt 0.775137 0.031029
vt 0.989844 -1.018304
vt 0.773000 -1.016320
vt 0.986897 0.036344
vt 0.786548 -3.448146
vt 0.990021 -3.557315
vt 0.776816 -1.479952
vt 0.986340 0.792501
vt 0.993861 -1.788526
vt 0.783806 0.781264
vt -0.001664 -5.940813
vt 0.787020 -1.796353
vt 0.776426 0.125376
vt 0.780003 -1.138434
vt 0.968575 0.142807
vt 0.978418 0.146461
vt 0.975524 -1.178222
vt 0.786220 0.145956
vt 0.965184 1.083935
vt 1.866428 7.164047
vt 1.985498 10.016101
vt 1.761502 7.251694
vt 0.521402 0.577720
vt 0.757382 0.577555
vt 0.535238 0.037491
vt 0.776561 -2.437222
vt 0.774924 1.443744
vt 0.975968 -2.437737
vt 0.785229 0.403455
vt 0.981488 2.724200
vt 0.987320 -3.716583
vt 0.791606 2.710348
vt -0.490599 -5.506207
vt -0.473008 -6.038232
vt -0.223962 -5.403063
vt 0.991450 0.033273
vt 0.782127 0.031345
vt 0.974629 0.860384
vt 0.991878 -1.478370
vt 0.974343 -1.149656
vt 4.990726 -7.714581
vt 4.772765 -8.592400
vt 4.996028 -8.562003
vt 0.765468 0.635693
vt 0.775970 -3.729887
vt 0.756619 -1.893643
vt 0.530595 -1.895747
vt 0.518200 -1.355880
vt 2.716349 -8.005445
vt 2.712008 -7.303210
vt 2.511813 -7.291308
vt 2.708112 -8.185287
vt 2.510493 -8.290658
vt 2.632422 -9.013248
vt 0.522523 -0.414160
vt 1.780513 0.272314
vt 0.785706 -1.132659
vt -0.263431 -5.951150
vt -14.034698 -1.001087
vt 1.807137 10.165108
vt 0.993781 -1.776792
vt 4.767453 -7.744974
vt 2.515025 -4.464542
vt 3.514017 -4.796283
vt 3.541589 -5.928078
vt 3.722555 -4.751697
vt 1.776272 -7.994697
vt 1.765658 -8.378112
vt 1.967965 -8.209154
vt 0.789385 -2.094104
vt 1.978576 -7.825740
vt 0.014184 1.940699
vt 0.505322 1.957103
vt 0.010045 -2.951338
vt 0.498111 -3.084751
vt 0.004728 -3.126963
vt 0.495863 2.094530
vt 0.504728 -2.820349
vt 0.005435 -2.810019
vt 0.501066 1.808103
vt 0.013000 2.468199
vt 0.495272 2.448486
vt 0.011229 -3.444656
vt 0.501773 -2.900074
vt -0.237248 -0.467657
vt 0.492317 -2.954128
vt 0.504137 -3.253970
vt 0.006293 -3.183459
vt 0.479522 2.265519
vt 0.013593 2.362260
vt 0.494389 2.358331
vt 0.009153 -3.349672
vt 0.014039 1.736429
vt 0.493936 1.749279
vt 0.007683 -2.743458
vt 0.020211 2.113353
vt 0.004728 1.818434
vt 0.026196 1.007169
vt 0.497596 1.033557
vt 0.017959 -2.031820
vt 0.005840 1.955544
vt 0.504728 1.970510
vt 0.004728 -2.964242
vt 4.668407 -7.376225
vt 4.720838 -6.663764
vt 4.588202 -7.268009
vt 0.986879 1.431696
vt 0.998227 -0.628908
vt 0.774981 -0.627074
vt 0.990386 -0.393166
vt 0.495862 -3.397740
vt 0.500301 -2.740334
vt 4.519423 -6.542816
vt 3.755092 -6.087213
vt -8.014668 -6.558956
vt -8.153522 -6.514109
vt -8.017053 -8.180863
vt -4.047715 -9.148805
vt -4.055759 -8.835443
vt -4.215949 -9.029755
vt 0.996329 -0.003618
vt 0.977738 -0.996494
vt 0.776723 -0.006270
vt 0.968856 -0.301853
vt 0.545617 -0.071777
vt 0.968775 -0.393393
vt -7.236491 6.136627
vt -7.125811 6.201860
vt -7.230356 8.507741
vt -4.223994 -8.716389
vt 0.783728 -1.001511
vt 0.775723 0.012441
vt 0.978383 -1.015113
vt 0.781942 -0.404697
vt 0.498633 -0.239951
vt 0.736887 -0.241856
vt 0.738175 -0.982170
vt -1.494979 -6.828899
vt -1.477333 -7.584124
vt -1.244393 -6.857506
vt -0.167218 8.833201
vt -0.186928 8.535157
vt -0.031451 8.720767
vt 0.779565 -0.757792
vt 0.980524 -0.618817
vt 0.977769 -0.761672
vt -8.149364 -8.138124
vt 0.782319 -0.614936
vt -7.124888 8.569901
vt 0.788135 -1.008428
vt 0.996524 -0.001462
vt -0.051172 8.422720
vt 0.781926 0.406757
vt 0.778960 -0.391082
vt -16.518387 -0.649332
vt -16.271959 -0.631569
vt -16.485497 -0.060396
vt 4.759295 -6.701118
vt 4.756678 -6.054460
vt 4.545822 -6.535846
vt -1.229439 -7.497528
vt 0.685284 0.058014
vt 0.482005 0.038219
vt 0.793544 0.575471
vt -13.257468 0.262767
vt -13.470928 0.233945
vt -13.261481 -1.055891
vt 0.744161 -1.355340
vt 0.506387 -0.388393
vt 0.487741 -3.559708
vt 0.496456 -3.464368
vt 0.505042 -2.950067
vt -0.029904 -0.476376
vt 0.505087 -3.276698
vt 0.007571 -3.275649
vt 0.495750 2.284592
vt 0.007636 2.923406
vt 0.510018 2.924907
vt 0.007684 -3.909483
vt 0.516866 -0.143961
vt -0.879647 -0.524374
vt 0.029904 -1.523626
vt 0.235140 -0.521173
vt 0.031915 2.196816
vt 0.495272 -2.616576
vt 0.005167 -2.620160
vt 0.498379 1.619480
vt -0.235140 -1.478827
vt 0.014184 1.607677
vt -13.474941 -1.084713
vt -16.239059 -0.042630
vt 0.732411 -0.391247
vt 0.500710 -0.979058
vt 0.502444 -3.961819
vt 0.003817 -0.584043
vt 0.493819 -0.285686
vt 0.483348 -0.582497
vt 0.014286 -0.287237
vt 4.512692 -5.982746
vt 0.499578 -2.967540
vt 0.498220 -1.999826
vt 0.010660 2.264030
vt -17.426350 -1.373079
vt -17.298635 -0.655241
vt -17.497847 -0.658714
vt 1.126467 -0.696563
vt -0.004067 -0.724097
vt 0.324390 -0.093581
vt 1.151096 -0.674297
vt 0.575351 -0.667516
vt 0.941163 -0.037498
vt 0.311682 -0.757563
vt -0.670274 -0.570880
vt 1.103270 -0.500749
vt 0.288673 -0.124605
vt 1.013078 -0.531272
vt 0.270180 -0.587503
vt 0.439400 -0.668038
vt -0.140912 -0.674658
vt 0.087894 -0.038527
vt 0.491661 -0.034355
vt 1.834555 0.009630
vt 0.888278 0.014065
vt -0.170481 -0.152389
vt 0.452423 0.016772
vt 0.106551 -0.617876
vt 1.451168 -0.111837
vt 1.770853 -0.519234
vt -0.553454 -0.582894
vt 1.059174 -0.193990
vt 0.570506 0.028274
vt 1.477947 -0.147258
vt -0.529192 -0.135815
vt 0.261645 -0.036323
vt 0.561694 -0.062102
vt 0.552964 -0.698680
vt 1.676169 -0.036323
vt -0.707759 -0.181010
vt -0.378346 -0.747788
vt -4.124085 -0.597414
vt -5.741269 -0.640987
vt -5.654995 -0.542697
vt -0.588889 -0.100060
vt 0.913118 -0.618572
vt 1.392164 0.008697
vt 0.453994 -0.117166
vt 0.370813 0.023275
vt -0.436477 0.006538
vt 1.712454 -0.484490
vt 1.367326 -0.640560
vt -0.274121 -0.336229
vt 0.112099 0.030146
vt 0.251469 -0.655327
vt 0.547931 -0.989173
vt 2.143712 -0.008572
vt 0.270779 -0.038121
vt 0.418339 4.652397
vt 1.260057 4.630790
vt 1.257013 4.716459
vt -0.415084 -0.633609
vt 0.996949 -0.398866
vt 1.985123 -0.698186
vt 1.556575 0.051451
vt -0.435252 -0.084488
vt -0.487326 0.057859
vt 1.504103 -0.063921
vt 0.006388 -0.396066
vt 0.196002 -0.398866
vt 0.266848 0.057859
vt 0.290454 -0.396066
vt 0.083102 -0.698186
vt 0.103420 -0.727283
vt -4.016863 -1.617933
vt -4.173167 -1.471919
vt -4.084035 -1.686833
vt -0.140999 -0.918857
vt -0.657459 -0.036986
vt 0.853844 -0.036986
vt -4.161341 -1.192896
vt -0.602682 1.897015
vt -0.700838 1.439490
vt -0.516004 1.610058
vt 1.928632 -1.985769
vt 1.721731 -2.440052
vt 1.971261 -2.063257
vt 1.197394 -0.875092
vt -0.706280 -0.725674
vt 1.801168 -2.435241
vt 0.401072 4.705527
vt 1.482320 -0.656971
vt -0.938507 -0.737065
vt 1.025847 -0.211670
vt 1.403552 -0.698680
vt -0.423741 1.885218
vt -0.445110 4.623549
vt -0.831707 4.575124
vt -0.241246 4.558642
vt 1.361208 -0.379173
vt -0.403552 -0.698680
vt 0.143109 0.051451
vt -0.388531 0.012710
vt -0.285848 -0.102019
vt 0.188992 -0.737065
vt -0.336549 -0.038121
vt -0.361207 -0.655327
vt -0.985124 -0.287133
vt 1.839699 -0.277489
vt 1.829264 -0.430585
vn -0.882000 0.460400 0.100400
vn -0.023000 0.072900 -0.997100
vn -0.558100 -0.829800 0.004000
vn 0.512400 0.858800 -0.002500
vn -0.821200 -0.010400 0.570500
vn 0.834900 -0.050800 -0.548100
vn 0.338800 0.939600 0.048300
vn 0.237300 -0.812600 -0.532400
vn -0.038300 0.539700 -0.841000
vn -0.237200 0.812600 0.532400
vn 0.038300 -0.539700 0.841000
vn 0.884000 -0.457000 -0.098900
vn -0.992900 0.109600 -0.046800
vn -0.527700 -0.367900 -0.765600
vn 0.525400 0.376900 0.762800
vn 0.399200 0.916800 0.007300
vn 0.362500 0.932000 0.002100
vn 0.775500 -0.571500 0.268200
vn -0.775300 0.570700 -0.270600
vn 0.775500 -0.333200 0.536200
vn -0.775300 0.331200 -0.537700
vn 0.994700 -0.099100 -0.026100
vn 0.022700 -0.082100 0.996400
vn -0.881300 0.445400 0.157700
vn -0.027700 -0.068300 -0.997300
vn 0.027700 0.068100 0.997300
vn -0.396400 -0.701200 -0.592600
vn -0.843900 0.219700 -0.489600
vn -0.029300 0.013100 -0.999500
vn -0.540700 -0.829400 0.140600
vn -0.042700 0.005400 0.999100
vn 0.332800 0.941600 -0.050500
vn -0.832800 0.040200 0.552200
vn 0.993300 -0.105100 0.048700
vn 0.041900 0.796100 0.603700
vn 0.883400 -0.442300 -0.155000
vn -0.818100 0.207300 0.536400
vn 0.229900 0.200900 0.952300
vn 0.414100 0.893900 -0.171800
vn -0.994300 0.103800 0.026200
vn 0.360900 0.930900 -0.056300
vn 0.357300 0.931400 0.069400
vn 0.398900 0.917000 -0.005200
vn -0.905300 -0.029100 0.423800
vn 0.055700 0.991200 0.120100
vn 0.829000 -0.022500 -0.558800
vn 0.415000 0.668000 0.617700
vn 0.904800 0.015700 -0.425600
vn -0.029900 0.851400 0.523600
vn 0.235100 0.845800 0.478800
vn -0.235100 -0.845800 -0.478800
vn 0.029900 -0.851400 -0.523600
vn -0.237200 0.812600 0.532300
vn -0.098300 -0.565200 0.819100
vn -0.879600 0.000700 0.475600
vn 0.879600 -0.000700 -0.475600
vn -0.496100 0.704800 0.507100
vn 0.498300 -0.703600 -0.506600
vn 0.621300 0.565500 -0.542400
vn -0.749000 0.189000 0.635100
vn 0.581400 0.680600 0.445900
vn 0.614300 0.594600 -0.518700
vn -0.078800 0.789900 0.608100
vn 0.614300 0.781200 -0.111100
vn -0.078800 0.331200 0.940200
vn -0.613800 -0.597300 0.516300
vn -0.613800 -0.782100 0.107700
vn 0.158800 0.220000 0.962500
vn 0.271600 0.960400 0.061400
vn 0.243900 -0.919200 0.309000
vn 0.078800 -0.789900 -0.608100
vn 0.078800 -0.331200 -0.940200
vn 0.500900 0.859700 -0.100100
vn -0.086100 0.027700 -0.995900
vn 0.286400 0.957700 -0.027100
vn -0.263400 0.073000 -0.961900
vn -0.214800 0.049800 0.975400
vn 0.237200 -0.812600 -0.532300
vn 0.098300 0.565200 -0.819100
vn 0.225600 -0.486900 0.843800
vn -0.221800 0.488200 -0.844100
vn -0.516900 0.006800 -0.856000
vn 0.516900 -0.006800 0.856000
vn 0.247700 0.580400 -0.775800
vn -0.247700 -0.580400 0.775800
vn 0.043000 -0.016600 0.998900
vn -0.516800 0.006800 -0.856100
vn 0.289700 -0.955000 0.064000
vn 0.516800 -0.006800 0.856100
vn 0.287600 0.956700 -0.044100
vn 0.498300 -0.703600 -0.506700
vn 0.049000 -0.007000 -0.998800
vn -0.274600 -0.347900 -0.896400
vn 0.307000 0.330900 0.892300
vn -0.381100 -0.758500 0.528600
vn 0.387900 0.921700 0.001300
vn 0.257500 0.354100 -0.899100
vn -0.323100 -0.229700 0.918100
vn -0.178700 -0.297600 -0.937800
vn 0.286200 0.277300 0.917200
vn -0.150900 -0.329300 -0.932100
vn 0.226400 0.352100 0.908200
vn -0.231800 -0.366000 0.901300
vn 0.135500 0.250400 -0.958600
vn -0.368900 -0.208000 -0.905900
vn 0.909900 0.150500 0.386500
vn 0.384800 0.258200 0.886200
vn -0.874400 -0.173100 -0.453300
vn -0.989400 -0.143600 0.023100
vn -0.017700 -0.248900 0.968400
vn 0.068000 0.193200 -0.978800
vn 0.065700 0.151100 -0.986300
vn 0.134000 -0.133700 0.981900
vn -0.699800 -0.333900 0.631500
vn -0.437700 -0.763900 0.474200
vn 0.991500 -0.122600 -0.043100
vn -0.407300 -0.730200 -0.548600
vn -0.849800 -0.193700 0.490300
vn 0.954500 -0.296900 -0.027500
vn -0.189500 -0.703300 0.685200
vn -0.370500 -0.894100 0.251600
vn -0.414000 -0.901400 -0.127000
vn 0.403800 0.905000 0.133900
vn 0.928100 0.039100 0.370300
vn 0.632600 -0.025000 -0.774100
vn 0.988600 -0.148000 -0.026700
vn 0.337800 -0.753500 -0.564000
vn -0.720900 -0.316500 -0.616600
vn -0.464900 -0.740000 -0.486000
vn 0.339400 0.277700 -0.898700
vn 0.889700 0.157600 -0.428400
vn 0.114600 0.151900 -0.981700
vn 0.432500 -0.331900 0.838300
vn 0.872800 0.373000 0.314800
vn -0.287400 -0.887300 -0.360700
vn -0.274900 -0.894000 0.353800
vn 0.915000 0.340900 0.215800
vn -0.233300 -0.951400 -0.201000
vn 0.373300 0.900500 -0.222900
vn 0.651200 0.298800 0.697600
vn 0.398900 -0.343600 0.850200
vn -0.296900 -0.920800 0.252700
vn 0.309300 0.950900 0.003700
vn 0.609500 0.314000 -0.727900
vn -0.710200 -0.437400 -0.551600
vn -0.690200 -0.455900 0.561900
vn 0.865300 0.335400 0.372500
vn -0.048500 0.185800 -0.981400
vn -0.028400 -0.269400 0.962600
vn 0.085700 -0.215600 0.972700
vn 0.640000 0.525600 -0.560500
vn 0.197600 0.276700 0.940400
vn 0.471200 0.882000 0.001600
vn -0.476700 -0.879000 -0.001500
vn -0.171900 -0.298400 -0.938800
vn 0.298500 0.954400 0.004000
vn 0.264500 0.354000 -0.897100
vn 0.300300 0.330900 0.894600
vn -0.346700 -0.938000 -0.003800
vn 0.513900 0.857900 0.000800
vn 0.521600 0.853200 -0.002800
usemtl OW_SHIPWRECK_BUG_2
s off
f 60/1/1 36/2/1 6/3/1
f 6/4/2 63/5/2 55/6/2
f 57/7/3 42/8/3 41/9/3
f 43/10/4 16/11/4 96/12/4
f 52/13/5 12/14/5 10/15/5
f 62/16/6 11/17/6 67/18/6
f 61/19/7 64/20/7 16/21/7
f 20/22/8 124/23/8 18/24/8
f 125/25/9 20/26/9 109/27/9
f 21/28/10 125/29/10 72/30/10
f 124/31/11 21/32/11 107/33/11
f 55/34/12 56/35/12 35/36/12
f 6/37/13 37/38/13 60/39/13
f 11/40/14 62/41/14 26/42/14
f 67/43/15 68/44/15 52/45/15
f 2/46/16 87/47/16 28/48/16
f 16/49/17 43/50/17 61/51/17
f 84/52/18 31/53/18 45/54/18
f 86/55/19 29/56/19 92/57/19
f 83/52/20 34/53/20 33/54/20
f 85/55/21 32/56/21 90/57/21
f 38/58/22 23/59/22 35/60/22
f 35/61/23 56/62/23 60/63/23
f 63/64/24 6/3/24 36/2/24
f 36/65/23 60/63/23 56/62/23
f 37/66/25 6/67/25 23/68/25
f 38/69/26 35/70/26 7/71/26
f 39/72/5 10/15/5 12/14/5
f 39/73/27 12/74/27 93/75/27
f 41/76/28 16/77/28 105/78/28
f 41/79/29 80/80/29 16/81/29
f 80/82/30 41/9/30 42/8/30
f 42/83/31 57/84/31 96/85/31
f 43/86/32 2/87/32 61/88/32
f 30/89/18 45/54/18 31/53/18
f 91/90/19 92/57/19 29/56/19
f 46/89/20 33/54/20 34/53/20
f 89/90/21 90/57/21 32/56/21
f 12/72/33 52/15/33 26/14/33
f 65/91/15 52/45/15 68/44/15
f 35/60/34 23/59/34 55/92/34
f 55/93/25 23/68/25 6/67/25
f 5/94/35 36/95/35 56/96/35
f 5/97/36 56/35/36 55/34/36
f 43/98/31 96/85/31 57/84/31
f 43/99/37 57/100/37 106/101/37
f 15/102/38 58/103/38 104/104/38
f 103/105/39 58/106/39 15/107/39
f 59/108/16 28/48/16 87/47/16
f 7/109/40 60/39/40 37/38/40
f 60/110/26 7/71/26 35/70/26
f 28/111/41 61/88/41 2/87/41
f 12/112/14 26/42/14 62/41/14
f 62/113/27 93/75/27 12/74/27
f 5/114/2 55/6/2 63/5/2
f 5/94/35 63/115/35 36/95/35
f 9/116/42 16/21/42 64/20/42
f 64/117/43 122/118/43 9/119/43
f 65/13/44 26/14/44 52/15/44
f 26/120/45 65/121/45 68/122/45
f 67/123/46 88/18/46 62/17/46
f 52/91/47 10/45/47 67/44/47
f 68/123/48 67/18/48 11/17/48
f 26/120/45 68/122/45 11/124/45
f 114/125/49 71/126/49 109/127/49
f 71/128/50 114/129/50 76/130/50
f 70/131/51 115/132/51 69/133/51
f 115/134/52 70/135/52 107/136/52
f 109/137/53 72/30/53 125/29/53
f 72/138/11 107/33/11 21/32/11
f 72/139/49 109/127/49 71/126/49
f 107/140/54 72/141/54 115/142/54
f 75/143/55 112/144/55 81/145/55
f 73/146/56 113/147/56 120/148/56
f 116/149/50 76/130/50 114/129/50
f 117/150/51 69/133/51 115/132/51
f 110/151/57 77/152/57 21/153/57
f 111/154/58 19/155/58 20/156/58
f 14/157/59 3/158/59 78/159/59
f 8/160/29 16/81/29 80/80/29
f 80/161/60 42/162/60 8/163/60
f 74/164/55 81/145/55 112/144/55
f 121/165/56 120/148/56 113/147/56
f 78/159/61 3/158/61 82/166/61
f 99/167/43 9/119/43 122/118/43
f 32/168/62 83/169/62 89/170/62
f 32/171/63 85/172/63 83/173/63
f 29/174/64 84/175/64 91/176/64
f 29/177/65 86/178/65 84/179/65
f 34/180/66 85/181/66 46/182/66
f 34/183/63 83/173/63 85/172/63
f 31/184/67 86/185/67 30/186/67
f 31/187/65 84/179/65 86/178/65
f 104/188/68 58/189/68 87/190/68
f 87/191/69 58/192/69 59/193/69
f 88/43/47 67/44/47 10/45/47
f 10/194/70 39/195/70 88/196/70
f 46/197/71 89/198/71 33/199/71
f 33/200/62 89/170/62 83/169/62
f 46/197/71 90/201/71 89/198/71
f 90/202/66 46/182/66 85/181/66
f 30/197/72 91/198/72 45/199/72
f 45/203/64 91/176/64 84/175/64
f 92/204/67 30/186/67 86/185/67
f 30/197/72 92/201/72 91/198/72
f 93/16/46 62/17/46 88/18/46
f 93/205/70 88/196/70 39/195/70
f 8/206/73 96/12/73 16/11/73
f 96/207/60 8/163/60 42/162/60
f 3/208/74 127/209/74 99/210/74
f 3/211/75 99/212/75 82/213/75
f 103/214/69 59/193/69 58/192/69
f 9/215/28 105/216/28 16/217/28
f 105/218/76 9/219/76 118/220/76
f 106/101/37 2/221/37 43/99/37
f 2/221/77 106/101/77 119/222/77
f 107/223/78 18/24/78 124/23/78
f 18/224/52 107/136/52 70/135/52
f 18/225/9 109/27/9 20/26/9
f 109/138/79 18/33/79 114/226/79
f 21/32/80 124/31/80 110/32/80
f 20/227/81 125/228/81 111/229/81
f 112/230/82 73/231/82 74/232/82
f 113/233/83 75/234/83 121/233/83
f 70/235/79 114/226/79 18/33/79
f 114/226/84 70/235/84 116/236/84
f 71/237/54 115/142/54 72/141/54
f 115/238/85 71/239/85 117/240/85
f 69/241/84 116/236/84 70/235/84
f 76/242/85 117/240/85 71/239/85
f 99/243/76 118/220/76 9/219/76
f 118/244/74 99/210/74 127/209/74
f 119/222/77 87/245/77 2/221/77
f 87/190/86 119/246/86 104/188/86
f 120/247/87 74/232/87 73/231/87
f 120/248/88 81/249/88 74/250/88
f 81/234/89 121/233/89 75/234/89
f 121/251/88 81/249/88 120/248/88
f 122/252/90 82/213/90 99/212/90
f 124/253/91 20/156/91 19/155/91
f 19/31/80 110/32/80 124/31/80
f 125/254/57 21/153/57 77/152/57
f 77/255/81 111/229/81 125/228/81
f 14/256/92 127/257/92 3/258/92
usemtl OW_SHIPWRECK_BUG_1
f 13/259/93 54/260/93 118/261/93
f 97/262/94 129/263/94 122/264/94
f 79/265/95 4/266/95 27/267/95
f 129/268/96 100/269/96 128/270/96
f 128/271/97 100/272/97 59/273/97
f 119/274/98 106/275/98 27/267/98
f 13/259/99 118/261/99 127/276/99
f 78/277/100 82/278/100 44/279/100
f 14/280/101 94/281/101 13/259/101
f 1/282/102 78/277/102 44/279/102
f 27/267/103 4/266/103 119/274/103
f 66/283/104 103/284/104 25/285/104
f 105/286/105 118/261/105 54/260/105
f 64/287/106 61/288/106 17/289/106
f 122/264/107 64/290/107 97/262/107
f 41/291/108 105/286/108 22/292/108
f 22/293/109 57/294/109 41/295/109
f 4/266/110 98/296/110 119/274/110
f 103/284/111 66/283/111 53/297/111
f 15/298/112 25/285/112 103/284/112
f 25/299/113 15/300/113 104/301/113
f 22/302/114 27/267/114 106/275/114
f 101/303/115 79/265/115 27/267/115
f 40/304/116 13/305/116 53/306/116
f 79/307/117 54/260/117 13/259/117
f 106/275/118 57/308/118 22/302/118
f 44/309/119 53/306/119 13/305/119
f 1/310/120 44/311/120 13/312/120
f 48/313/121 50/314/121 47/315/121
f 49/316/122 50/314/122 126/317/122
f 102/318/123 123/319/123 51/320/123
f 50/321/124 102/322/124 51/323/124
f 51/323/125 47/324/125 50/321/125
f 4/325/126 40/304/126 53/306/126
f 53/326/127 24/327/127 4/328/127
f 54/260/128 22/292/128 105/286/128
f 54/260/129 79/307/129 101/329/129
f 28/330/130 59/273/130 100/272/130
f 61/288/131 28/331/131 17/289/131
f 24/327/132 53/326/132 66/332/132
f 98/333/133 4/334/133 24/335/133
f 78/336/134 1/337/134 14/338/134
f 13/259/135 40/339/135 79/307/135
f 4/266/136 79/265/136 40/340/136
f 94/341/137 14/338/137 1/337/137
f 13/312/138 94/342/138 1/310/138
f 51/320/139 95/343/139 108/344/139
f 100/269/96 129/268/96 97/345/96
f 17/346/140 97/262/140 64/290/140
f 24/335/141 66/347/141 98/333/141
f 66/348/142 25/349/142 98/350/142
f 97/345/143 17/351/143 100/269/143
f 100/272/144 17/352/144 28/330/144
f 22/292/145 54/260/145 101/329/145
f 27/267/146 22/302/146 101/303/146
f 49/353/147 102/322/147 50/321/147
f 59/273/148 103/284/148 53/297/148
f 119/274/149 98/296/149 104/354/149
f 25/299/150 104/301/150 98/355/150
f 108/356/151 47/324/151 51/323/151
f 82/278/152 122/264/152 44/279/152
f 95/343/153 51/320/153 123/319/153
f 48/313/154 126/317/154 50/314/154
f 13/259/155 127/276/155 14/280/155
f 44/357/156 128/270/156 53/358/156
f 53/297/157 128/271/157 59/273/157
f 44/357/156 129/268/156 128/270/156
f 129/263/158 44/279/158 122/264/158
f 130/359/159 126/317/159 48/313/159
f 123/319/160 131/360/160 95/343/160
f 131/360/161 132/361/161 95/343/161
