# Blender v2.75 (sub 0) OBJ File: 'Empty.blend'
# www.blender.org
mtllib PC_LOB_BRIDGE_PLANK_HUGE.mtl
o PC_LOB_BRIDGE_PLANK_HUGE
v 0.150743 5.136180 -0.271155
v 0.129083 -7.163735 0.110892
v -0.183939 5.036179 -0.173626
v -0.165922 -7.163735 0.110895
v -0.165917 -7.163735 -0.184105
v 0.129081 -7.163735 -0.184106
v 0.149239 5.086180 0.077447
v -0.149847 5.036179 0.068991
vt -0.026617 0.839440
vt 0.030886 0.856152
vt 0.026075 -1.193866
vt 0.025094 -0.847652
vt -0.024769 -0.839323
vt 0.021724 1.194007
vt -0.027439 1.194007
vt -0.018434 1.193918
vt 0.030732 1.193918
vt -0.012860 -0.847737
vt 0.032525 -1.193960
vt -0.016522 -1.193960
vt 0.031014 0.839359
vt 0.030684 -0.021514
vt -0.018482 -0.021514
vt -0.018483 0.027654
vt 0.030684 0.027653
vt -0.022605 -1.193866
vt 0.060406 0.213205
vt 0.118994 0.215307
vt 0.062076 0.162754
vt 0.045241 -0.856071
vt -0.009720 0.839359
vt 0.102464 0.157215
vn -0.278000 -0.006300 -0.960600
vn -0.028700 0.002800 0.999600
vn 0.000000 0.003400 1.000000
vn 1.000000 -0.001600 -0.000000
vn -1.000000 -0.001500 -0.000000
vn 0.000000 -1.000000 -0.000000
vn -0.000000 0.000900 -1.000000
vn -0.167100 0.976100 0.139300
vn 1.000000 -0.001700 0.004100
vn -0.990300 0.001800 0.139200
vn -0.275700 0.960500 0.038700
usemtl PSI_F_STEG_V2
s off
f 3/1/1 1/2/1 6/3/1
f 7/4/2 8/5/2 2/6/2
f 8/5/3 4/7/3 2/6/3
f 2/8/4 6/9/4 7/10/4
f 5/11/5 4/12/5 3/13/5
f 6/14/6 2/15/6 4/16/6
f 5/17/6 6/14/6 4/16/6
f 5/18/7 3/1/7 6/3/7
f 7/19/8 1/20/8 8/21/8
f 1/22/9 7/10/9 6/9/9
f 8/23/10 3/13/10 4/12/10
f 3/24/11 8/21/11 1/20/11
