# Blender v2.75 (sub 0) OBJ File: 'Empty.blend'
# www.blender.org
mtllib PC_LOB_SLEEPER2.mtl
o PC_LOB_SLEEPER2
v 0.140000 0.799919 -0.100000
v 0.300000 0.000000 0.280000
v -0.300000 0.000000 -0.260000
v 0.146636 1.271100 0.141581
v -0.079500 0.700000 -0.020000
v -0.146636 1.271100 0.141581
v 0.300000 0.000000 -0.260000
v 0.083520 0.375600 0.178800
v -0.116000 0.526353 0.410800
v 0.116000 0.526353 0.410800
v -0.116000 0.526353 0.178800
v -0.300000 0.000000 0.280000
v -0.140000 0.799919 -0.100000
v 0.116000 0.526353 0.178800
v 0.085639 1.222182 0.100751
v 0.049062 0.700000 0.110000
v 0.079500 0.700000 -0.020000
v -0.035000 1.035000 -0.045000
v -0.085639 1.222182 0.100751
v 0.000000 0.915000 -0.070000
v 0.035000 1.035000 -0.045000
v 0.140000 0.699919 0.160000
v -0.140000 0.699919 0.160000
v -0.083520 0.375600 0.178800
v 0.140751 1.233244 0.104948
v -0.039733 1.131425 0.217974
v -0.140751 1.233244 0.104948
v 0.065000 0.895000 0.210000
v -0.049062 0.700000 0.110000
v -0.099839 1.181779 0.117498
v 0.000000 1.185000 0.040000
v 0.085000 1.085000 0.130000
v 0.170000 1.050000 0.105000
v -0.085000 1.085000 0.130000
v -0.170000 1.050000 0.105000
v 0.039733 1.131425 0.217974
v 0.000000 1.005000 0.205000
v -0.065000 0.895000 0.210000
v -0.065000 0.800000 0.100000
v 0.065000 0.800000 0.100000
v 0.062640 0.421980 0.352800
v -0.062640 0.421980 0.352800
v 0.099839 1.181779 0.117498
v 0.040000 1.210107 0.084127
v 0.003314 0.468353 0.298800
v -0.112500 0.960000 0.009900
v -0.170000 0.970000 0.090000
v 0.112500 0.960000 0.009900
v 0.170000 0.970000 0.090000
v 0.000000 1.080000 0.010000
v -0.040000 1.210107 0.084127
v 0.000000 0.870000 0.135000
v -0.060000 1.187544 0.141445
v -0.065000 1.145000 0.070000
v -0.080000 1.140493 0.113989
v 0.060000 1.187544 0.141445
v 0.065000 1.145000 0.070000
v 0.080000 1.140493 0.113989
v -0.065000 1.070000 0.040000
v 0.065000 1.070000 0.040000
v 0.000000 1.173474 0.201034
v 0.000000 1.219059 0.118384
v -0.107509 0.912108 0.104131
v 0.107509 0.912108 0.104131
v 0.103389 1.197285 0.075532
v 0.143376 1.256497 0.103942
v -0.103389 1.197285 0.075532
v -0.143376 1.256497 0.103942
v 0.067099 1.149714 0.169166
v 0.014447 1.106136 0.219940
v -0.067099 1.149714 0.169166
v -0.014447 1.106136 0.219940
v 0.055000 1.066296 0.173052
v -0.055000 1.066296 0.173052
v -0.067762 0.980453 -0.035000
v 0.067762 0.980453 -0.035000
v 0.080000 1.020000 0.170000
v -0.080000 1.020000 0.170000
v -0.049733 1.119897 0.185419
v 0.049733 1.119897 0.185419
v 0.130255 1.247895 0.117833
v -0.130255 1.247895 0.117833
vt -0.142518 0.092975
vt -0.142526 -0.088272
vt -0.235957 0.004681
vt -0.210552 0.065250
vt -0.210552 -0.065250
vt -0.351236 -0.048937
vt -0.323771 -0.088272
vt -0.351236 0.048938
vt -0.142394 -0.298275
vt -0.143757 -0.417719
vt -0.280206 -0.326903
vt -0.143757 0.417719
vt -0.142394 0.298275
vt -0.280206 0.326903
vt -0.048938 -0.422049
vt 0.048938 -0.422049
vt 0.090625 -0.515335
vt -0.324328 -0.417719
vt -0.324328 0.417719
vt -0.090625 -0.515335
vt -0.323764 0.092975
vt -2.211994 -1.079776
vt -2.084134 -1.126739
vt -2.195537 -1.134045
vt -1.194135 1.816739
vt -1.321995 1.769776
vt -1.305538 1.824045
vt -1.148521 1.870646
vt -2.038520 -1.180647
vt -0.497295 -1.805432
vt -0.534255 -1.772800
vt -0.474139 -1.723439
vt 0.532454 -0.470850
vt 0.508524 -0.510384
vt 0.500000 -0.415973
vt 0.382720 0.757649
vt 0.289431 0.196850
vt 0.711046 0.196850
vt 1.000000 -0.000000
vt -0.288954 0.202470
vt -0.710569 0.202470
vt -0.617280 0.763268
vt 0.696636 3.076074
vt 0.752579 2.965605
vt 0.559285 3.013432
vt -0.535073 -0.496215
vt -0.573380 -0.486235
vt -0.545207 -0.535815
vt 0.483623 0.195840
vt 0.524537 0.312188
vt 0.570655 0.116949
vt -0.423894 -1.670333
vt -0.498991 -1.627305
vt -0.467513 -1.424964
vt -0.554521 -1.503370
vt 0.592525 0.352997
vt -0.565501 -0.416241
vt -0.500535 -0.579323
vt -0.441301 -0.414073
vt 0.491476 -0.510384
vt 0.467546 -0.470850
vt 0.485787 0.461026
vt 0.525037 0.500854
vt 0.552497 0.420194
vt -0.401889 -0.613464
vt -0.597930 -0.616886
vt -0.472090 -0.642195
vt -0.526769 -0.643149
vt 0.511459 0.403377
vt 0.586275 0.834150
vt -0.413725 0.839770
vt 0.404268 -3.853100
vt 0.367625 -3.898789
vt 0.234196 -3.818562
vt 0.885805 3.163187
vt -0.481195 -0.462594
vt -0.478846 -0.422889
vt -0.543489 -0.439290
vt 0.387122 0.583960
vt 0.387256 0.540564
vt -0.479071 -3.896034
vt -0.517254 -3.843234
vt -0.349627 -3.806762
vt -1.757587 -1.941443
vt -1.644890 -1.956433
vt -1.773483 -2.150751
vt -0.567981 -1.590011
vt -0.637324 -1.577561
vt -1.557498 -0.323065
vt -1.583703 -0.378756
vt -1.552243 -0.436489
vt -1.502636 -0.377863
vt -0.378076 -3.693243
vt 0.440037 0.412112
vt 0.449932 0.455466
vt -1.724437 -1.796950
vt -1.587913 -1.776230
vt -0.583273 -1.725514
vt -0.511366 -1.714229
vt -0.570516 -1.768959
vt -0.502121 -0.541947
vt -0.474651 -0.505940
vt -0.508344 -0.485723
vt -0.583710 -1.696359
vt -0.367187 0.599720
vt -0.437500 0.573364
vt -0.449219 0.675199
vt 0.414086 0.517054
vt 0.382879 0.498480
vt 0.411260 0.463222
vt 0.480051 0.519160
vt 0.441663 0.507915
vt 0.453993 0.470105
vt 0.433719 0.373332
vt -0.562500 0.573364
vt -0.632812 0.599720
vt -0.550781 0.675199
vt 0.458657 0.523776
vt -0.500000 0.590107
vt -1.456283 -0.318317
vt -1.542147 -0.480670
vt -1.451028 -0.431741
vt 0.486970 0.121202
vt -1.465750 -0.477087
vt -0.557744 -1.425617
vt 0.273195 -3.692181
vt 0.616779 2.831489
vt -0.539532 -1.824182
vt 0.355887 0.556305
vt 0.461301 0.276073
vt 0.448934 0.311840
vt -0.632812 0.540626
vt -0.572000 -1.633882
vt -0.367187 0.540626
vt -0.498788 -0.695042
vt -0.377873 -0.000000
vt -0.417197 -0.031250
vt -0.417197 0.031250
vt 0.479728 0.514564
vt -0.242229 -3.725606
vt -1.843951 -1.821484
vt 0.018727 3.500149
vt 0.146628 3.548924
vt 0.176129 3.350846
vt -0.314419 -3.564584
vt 0.030417 3.357068
vt 0.141890 -3.710019
vt 0.097437 -3.780952
vt 0.039127 -3.288220
vt 0.016085 -3.488083
vt -0.115068 -3.439805
vt 0.212622 -3.563190
vt -0.104735 -3.296688
vt -0.549244 -0.698519
vt -0.498243 -0.695032
vt -0.447697 -0.696747
vt 0.492399 0.517097
vt 0.487151 0.571219
vt -0.553652 -0.479348
vt -0.444623 -0.000000
vt -0.447115 -0.449665
vt -1.630498 -0.360073
vt -0.083977 -3.640919
vt 0.868196 3.110693
vt 0.835990 3.171663
vt -0.076367 -3.709528
vt -0.190068 -3.754878
vt 0.040585 3.699096
vt 0.050268 3.768806
vt -1.809715 -2.102066
vt -0.059036 3.814635
vt -0.433594 0.517534
vt -0.566406 0.517534
vt -0.550755 -0.576467
vt 0.547205 -0.427849
vt 0.452795 -0.427849
vt 0.460334 0.429421
vt 0.411191 -3.971129
vt 0.884762 3.275127
vt -0.517680 -3.981715
vt -1.894925 -2.180208
vt 0.167411 -0.028457
vt -0.167411 -0.028457
vt -0.078125 0.426768
vt -0.167411 0.026404
vt 0.167411 0.026404
vt 0.078125 -0.369875
vt 0.078125 0.426768
vt -0.078125 -0.369875
vt -0.123254 0.184817
vt -0.231282 0.167707
vt -0.248305 0.275183
vt -0.140276 0.292293
vn 0.000000 0.900300 0.435200
vn 0.000000 -0.966300 0.257600
vn 0.437200 0.899400 0.000000
vn 0.963200 -0.207500 0.170900
vn -0.963200 -0.207500 0.170900
vn 0.000000 -0.485700 0.874100
vn 0.890400 -0.455200 0.000000
vn -0.890400 -0.455200 0.000000
vn 0.000000 0.888000 -0.459900
vn -0.457600 0.889100 0.000000
vn 0.657000 -0.624100 0.422800
vn -0.657000 -0.624100 0.422800
vn -0.875000 -0.304400 0.376500
vn 0.875000 -0.304400 0.376500
vn 0.522500 0.234200 -0.819800
vn 0.649900 -0.201100 0.733000
vn 0.974900 0.222800 0.000000
vn 0.000000 -1.000000 0.000000
vn -0.974900 0.222800 0.000000
vn 0.055200 0.729700 -0.681500
vn 0.714200 -0.090000 0.694200
vn -0.959100 -0.149400 0.240400
vn 0.706500 -0.008300 -0.707700
vn 0.959100 -0.149400 0.240400
vn -0.706500 -0.008300 -0.707700
vn 0.000000 -0.226500 -0.974000
vn -0.649900 -0.201100 0.733000
vn -0.522500 0.234200 -0.819800
vn 0.479100 -0.026900 -0.877300
vn -0.479100 -0.026900 -0.877300
vn 0.000000 -0.204000 0.979000
vn 0.000000 0.204000 -0.979000
vn -0.436900 0.334100 -0.835200
vn 0.980800 0.182200 0.070100
vn -0.980800 0.182200 0.070100
vn 0.067800 -0.631000 0.772800
vn -0.295100 0.567900 -0.768300
vn 0.264500 0.844500 0.465700
vn -0.264500 0.844500 0.465700
vn -0.067800 -0.631000 0.772800
vn 0.295100 0.567900 -0.768400
vn 0.888100 -0.347800 0.300400
vn -0.888100 -0.347800 0.300400
vn 0.420200 -0.686800 0.593100
vn 0.138600 0.337200 0.931200
vn -0.975000 0.024200 -0.220700
vn 0.097400 0.175200 -0.979700
vn -0.055200 0.729700 -0.681500
vn 0.975000 0.024200 -0.220700
vn 0.968500 0.145600 0.202100
vn 0.314200 0.922700 -0.223600
vn 0.700100 0.140000 0.700100
vn -0.968500 0.145600 0.202100
vn -0.714200 -0.090000 0.694200
vn -0.314200 0.922700 -0.223600
vn -0.700100 0.140000 0.700100
vn 0.000000 -0.146100 0.989300
vn -0.443900 0.662500 0.603400
vn 0.349100 0.247300 0.903900
vn 0.000000 -0.948700 0.316200
vn 0.000000 0.045400 0.999000
vn -0.349100 0.247300 0.903900
vn 0.000000 0.099500 0.995000
vn -0.965200 -0.131200 0.226000
vn 0.965200 -0.131200 0.226000
vn -0.138600 0.337200 0.931200
vn -0.097400 0.175200 -0.979700
vn 0.569300 0.377100 -0.730600
vn -0.387000 0.896000 0.217700
vn -0.533000 0.429600 -0.728900
vn -0.929000 -0.347500 -0.127400
vn -0.800800 0.110400 -0.588600
vn -0.610700 -0.145900 0.778300
vn 0.533100 0.429600 -0.728900
vn 0.929000 -0.347500 -0.127400
vn 0.800800 0.110400 -0.588600
vn 0.610700 -0.145900 0.778300
vn 0.000000 0.774000 -0.633200
vn 0.436900 0.334100 -0.835200
vn -0.000000 0.869200 -0.494500
vn -0.569300 0.377100 -0.730600
vn -0.420200 -0.686800 0.593100
vn 0.000000 -0.447200 0.894400
vn -0.502700 0.475800 0.721700
vn 0.378000 0.808900 0.450300
vn -0.943000 0.123600 -0.308900
vn -0.804800 -0.575600 -0.144600
vn -0.461100 -0.292800 0.837600
vn -0.860700 -0.385300 -0.332900
vn 0.502700 0.475800 0.721700
vn -0.378000 0.808900 0.450300
vn 0.943000 0.123600 -0.308900
vn 0.804800 -0.575600 -0.144600
vn 0.461100 -0.292800 0.837600
vn 0.860600 -0.385300 -0.332900
vn -0.337800 0.822300 -0.457800
vn -0.725900 0.454700 -0.516100
vn 0.337800 0.822300 -0.457800
vn 0.725900 0.454700 -0.516100
vn 0.000000 0.270300 0.962800
vn 0.496200 0.684200 0.534600
vn -0.000000 0.967500 -0.252800
vn 0.387000 0.896000 0.217700
vn -0.597300 -0.727300 -0.338000
vn -0.690100 -0.705100 0.163200
vn 0.597300 -0.727300 -0.338000
vn 0.690100 -0.705100 0.163200
vn 0.750100 -0.638400 -0.172400
vn 0.677000 -0.107900 -0.728000
vn -0.512300 0.857500 0.047200
vn 0.992600 -0.113800 -0.041800
vn -0.750100 -0.638400 -0.172400
vn -0.677000 -0.107900 -0.728000
vn 0.512300 0.857500 0.047200
vn -0.992600 -0.113800 -0.041800
vn 0.938700 0.300200 0.169300
vn 0.508400 0.569000 0.646300
vn -0.160300 0.234800 0.958700
vn -0.640500 0.528500 0.557200
vn -0.938700 0.300200 0.169300
vn 0.160300 0.234800 0.958700
vn 0.829000 -0.047100 0.557200
vn 0.418000 0.452600 0.787700
vn -0.829000 -0.047100 0.557200
vn -0.418000 0.452600 0.787700
vn -0.800700 0.399000 -0.446900
vn -0.400800 0.073300 -0.913200
vn 0.800700 0.399000 -0.446900
vn 0.400800 0.073300 -0.913200
vn 0.698300 0.335400 0.632300
vn 0.374300 0.141700 0.916400
vn -0.374300 0.141700 0.916400
vn -0.698300 0.335400 0.632300
vn -0.793400 -0.139100 0.592500
vn 0.793400 -0.139100 0.592500
vn -0.073100 -0.687600 0.722400
vn -0.682900 0.699100 -0.212100
vn 0.073100 -0.687600 0.722400
vn 0.682900 0.699100 -0.212100
vn 0.000000 0.196100 -0.980600
vn 0.000000 0.169000 0.985600
vn 0.000000 0.933300 0.359000
usemtl PC_LOB_SLEEPER2_2
s off
f 14/1/1 11/2/1 45/3/1
f 24/4/2 8/5/2 41/6/2
f 45/3/3 11/2/3 9/7/3
f 41/6/2 42/8/2 24/4/2
f 8/9/4 14/10/4 41/11/4
f 11/12/5 24/13/5 42/14/5
f 42/15/6 41/16/6 10/17/6
f 14/10/7 10/18/7 41/11/7
f 9/19/8 11/12/8 42/14/8
f 10/17/6 9/20/6 42/15/6
f 45/3/9 9/7/9 10/21/9
f 10/21/10 14/1/10 45/3/10
f 70/22/11 80/23/11 36/24/11
f 79/25/12 72/26/12 26/27/12
f 26/27/13 71/28/13 79/25/13
f 80/23/14 69/29/14 36/24/14
usemtl PC_LOB_SLEEPER2_1
f 31/30/15 57/31/15 50/32/15
f 73/33/16 70/34/16 37/35/16
f 22/36/17 2/37/17 7/38/17
f 3/39/18 7/39/18 2/39/18
f 2/39/18 12/39/18 3/39/18
f 3/40/19 12/41/19 23/42/19
f 15/43/20 65/44/20 44/45/20
f 80/46/21 70/47/21 73/48/21
f 39/49/22 46/50/22 5/51/22
f 76/52/23 48/53/23 17/54/23
f 48/53/24 40/55/24 17/54/24
f 46/50/25 75/56/25 5/51/25
f 5/57/26 20/58/26 17/59/26
f 37/35/27 72/60/27 74/61/27
f 54/62/28 31/63/28 50/64/28
f 17/59/29 20/58/29 76/65/29
f 20/58/30 5/57/30 75/66/30
f 18/39/31 20/39/31 21/39/31
f 21/67/32 20/58/32 18/68/32
f 59/69/33 54/62/33 50/64/33
f 7/38/34 1/70/34 22/36/34
f 23/42/35 13/71/35 3/40/35
f 25/72/36 81/73/36 15/74/36
f 65/44/37 15/43/37 66/75/37
f 56/76/38 62/77/38 61/78/38
f 61/78/39 62/79/39 53/80/39
f 82/81/40 27/82/40 19/83/40
f 19/84/41 67/85/41 68/86/41
f 64/87/42 28/88/42 40/55/42
f 38/89/43 63/90/43 39/91/43
f 39/91/44 52/92/44 38/89/44
f 27/82/45 30/93/45 19/83/45
f 59/69/46 34/94/46 55/95/46
f 51/96/47 54/97/47 67/85/47
f 67/85/48 19/84/48 51/96/48
f 32/98/49 60/99/49 58/100/49
f 32/101/50 58/102/50 69/103/50
f 60/99/51 32/98/51 33/104/51
f 49/105/52 77/106/52 28/107/52
f 71/108/53 55/109/53 34/110/53
f 72/111/54 79/112/54 74/113/54
f 34/94/55 59/69/55 35/114/55
f 78/115/56 47/116/56 38/117/56
f 70/34/57 72/60/57 37/35/57
f 53/80/58 26/118/58 61/78/58
f 37/119/59 28/107/59 77/106/59
f 28/120/60 38/89/60 52/92/60
f 37/35/61 38/117/61 28/107/61
f 38/117/62 37/119/62 78/115/62
f 39/91/63 29/121/63 40/122/63
f 5/51/64 29/123/64 39/49/64
f 29/121/63 16/124/63 40/122/63
f 40/55/65 16/125/65 17/54/65
f 15/74/66 43/126/66 25/72/66
f 57/127/67 44/45/67 65/44/67
f 31/30/68 44/128/68 57/31/68
f 53/80/69 62/79/69 51/129/69
f 59/69/70 46/50/70 35/114/70
f 39/49/71 63/130/71 46/50/71
f 47/131/72 35/114/72 46/50/72
f 78/115/73 35/132/73 47/116/73
f 48/53/74 60/99/74 33/104/74
f 48/53/75 64/87/75 40/55/75
f 33/104/76 49/133/76 48/53/76
f 49/105/77 33/134/77 77/106/77
f 50/135/78 21/67/78 18/68/78
f 57/31/79 60/99/79 50/32/79
f 31/136/80 51/137/80 44/138/80
f 51/139/81 31/63/81 54/62/81
f 52/92/82 40/122/82 28/120/82
f 40/122/83 52/92/83 39/91/83
f 19/83/84 30/93/84 53/140/84
f 53/141/85 51/96/85 19/84/85
f 54/62/86 59/69/86 55/95/86
f 30/142/87 67/143/87 54/144/87
f 55/145/88 53/140/88 30/93/88
f 54/144/89 55/146/89 30/142/89
f 43/126/90 15/74/90 56/147/90
f 44/148/91 56/147/91 15/74/91
f 60/99/92 57/31/92 58/100/92
f 57/149/93 65/150/93 43/151/93
f 56/147/94 58/152/94 43/126/94
f 43/151/95 58/153/95 57/149/95
f 18/68/96 59/154/96 50/155/96
f 59/69/97 75/56/97 46/50/97
f 60/156/98 21/67/98 50/135/98
f 76/52/99 60/99/99 48/53/99
f 70/157/100 61/158/100 72/111/100
f 61/78/101 36/159/101 69/103/101
f 62/160/102 44/138/102 51/137/102
f 56/76/103 44/161/103 62/77/103
f 47/131/104 46/50/104 63/130/104
f 47/162/105 63/90/105 38/89/105
f 48/53/106 49/133/106 64/87/106
f 64/87/107 49/133/107 28/88/107
f 43/151/108 65/150/108 25/163/108
f 66/75/109 25/164/109 65/44/109
f 81/165/110 66/75/110 15/43/110
f 66/166/111 4/167/111 25/163/111
f 67/143/112 30/142/112 27/168/112
f 27/168/113 68/169/113 67/143/113
f 68/86/114 82/170/114 19/84/114
f 6/171/115 68/169/115 27/168/115
f 56/76/116 69/103/116 58/102/116
f 69/103/117 56/76/117 61/78/117
f 61/78/118 70/47/118 36/159/118
f 26/118/119 53/80/119 71/108/119
f 71/108/120 53/80/120 55/109/120
f 72/111/121 61/78/121 26/118/121
f 73/48/122 32/101/122 80/46/122
f 33/134/123 32/172/123 77/106/123
f 34/110/124 74/113/124 79/112/124
f 78/115/125 34/173/125 35/132/125
f 18/68/126 75/66/126 59/154/126
f 20/58/127 75/66/127 18/68/127
f 76/65/128 21/67/128 60/156/128
f 76/65/129 20/58/129 21/67/129
f 77/174/130 32/101/130 73/48/130
f 37/119/131 77/175/131 73/33/131
f 74/61/132 78/176/132 37/119/132
f 34/110/133 78/177/133 74/113/133
f 34/110/134 79/112/134 71/108/134
f 69/103/135 80/46/135 32/101/135
f 25/72/136 4/178/136 81/73/136
f 81/165/137 4/179/137 66/75/137
f 6/180/138 27/82/138 82/81/138
f 6/181/139 82/170/139 68/86/139
usemtl PC_LOB_SLEEPER2_3
f 7/182/140 3/183/140 13/184/140
f 12/185/141 2/186/141 22/187/141
f 13/184/140 1/188/140 7/182/140
f 22/187/141 23/189/141 12/185/141
f 23/190/142 22/191/142 1/192/142
f 1/192/142 13/193/142 23/190/142
