# Blender v2.75 (sub 0) OBJ File: 'Empty.blend'
# www.blender.org
mtllib PC_LOB_TABLE2.mtl
o PC_LOB_TABLE2
v -0.112550 0.830000 0.513068
v -0.408580 0.754759 -0.770000
v 0.681437 0.830000 -0.340000
v 0.323482 0.773767 -0.065771
v 0.345268 0.000000 -0.140478
v -0.445289 0.773767 -0.105306
v -0.408470 0.000000 -0.036949
v 0.427152 0.734759 -0.749529
v -0.537181 0.754759 0.360000
v 0.295339 0.830000 0.400000
v -0.712061 0.754759 -0.024527
v -0.674540 0.754759 -0.435326
v 0.205496 0.773767 -0.446710
v 0.124918 0.000000 -0.485929
v -0.408470 0.000000 -0.351611
v 0.062599 0.000000 0.111464
v -0.347512 0.773767 -0.408827
v -0.015132 0.773767 0.114565
v -0.021765 0.830000 -0.904628
v 0.437152 0.830000 -0.749529
v -0.026281 0.744761 -0.904914
v 0.601437 0.734759 0.076448
v -0.114726 0.754759 0.513626
v 0.611437 0.830000 0.076448
v -0.527181 0.830000 0.370000
v 0.671437 0.754759 -0.330000
v 0.285339 0.754759 0.410000
v -0.398580 0.830000 -0.770000
v -0.664540 0.830000 -0.425326
v -0.702061 0.830000 -0.024527
vt 0.538915 -0.051110
vt 0.458551 -0.162918
vt 0.855006 -0.183251
vt 0.764784 -0.358505
vt 0.482454 -0.162950
vt 0.475135 -0.263961
vt 0.548789 -0.996533
vt 0.348667 -0.996451
vt 0.347660 -0.717305
vt 0.548728 -0.996832
vt 0.348092 -0.717331
vt 0.546937 -0.717378
vt 0.546885 -0.717345
vt 0.526064 -0.348464
vt 0.642461 -0.393346
vt 0.785750 -0.061615
vt 0.652389 -0.009601
vt 0.826683 -0.313711
vt 0.449198 -0.282010
vt 0.753589 -0.412556
vt 0.548032 -0.084909
vt 0.823227 -0.276144
vt 0.820527 -0.167276
vt 0.631761 -0.448916
vt 0.250601 -0.244894
vt 0.248041 -0.309156
vt 0.329845 -0.366584
vt 0.760564 -0.085478
vt 0.650547 -0.045254
vt 0.503285 -0.401543
vt 0.259081 -0.192912
vt 0.259279 -0.255698
vt 0.325228 -0.255902
vt 0.548750 -0.996866
vt 0.348682 -0.996365
vt 0.348178 -0.717411
vt 0.546822 -0.717365
vt 0.548765 -0.996791
vt 0.347869 -0.717389
vt 0.548614 -0.996309
vt 0.348714 -0.996297
vt 0.348726 -0.996005
vt 0.216366 -0.197897
vt 0.297436 -0.203852
vt 0.296773 -0.133207
vt 0.118502 -0.191886
vt 0.118700 -0.254672
vt 0.184381 -0.257707
vt 0.214971 -0.109420
vt 0.134009 -0.131922
vt 0.335355 -0.188871
vt 0.331896 -0.250916
vt 0.161193 -0.244603
vt 0.081896 -0.315399
vt 0.160719 -0.309049
vt 0.096120 -0.136988
vt 0.097516 -0.189234
vt 0.326835 -0.192824
vt 0.083438 -0.250646
vt 0.134260 -0.186849
vt 0.333959 -0.135019
vt 0.185988 -0.194629
vn 0.000000 1.000000 0.000000
vn 0.000000 -1.000000 -0.000000
vn -0.454400 0.056900 0.889000
vn -0.068200 0.057600 -0.996000
vn -0.300300 -0.034000 0.953200
vn -0.243900 -0.052400 -0.968400
vn -0.047800 -0.996000 0.075300
vn -0.018500 -0.998900 0.042400
vn 0.725700 -0.005000 0.688000
vn -0.903700 0.120100 0.411000
vn 0.953800 0.055400 -0.295400
vn 0.841500 -0.060400 -0.536800
vn -0.998900 -0.047500 0.000000
vn 0.664400 -0.053300 0.745500
vn -0.950500 0.052200 -0.306200
vn 0.469600 0.043600 0.881800
vn 0.323900 -0.014000 -0.946000
vn -0.778700 0.103500 -0.618800
vn 0.855300 -0.089800 -0.510200
vn 0.320000 -0.033600 -0.946800
vn -0.014000 -0.999300 0.034400
vn -0.332200 0.020800 -0.943000
vn 0.713300 -0.074900 0.696900
vn -0.011300 -0.998600 -0.051100
vn -0.341700 0.016800 0.939700
vn 0.266000 0.092200 0.959600
vn 0.980900 -0.103000 0.164900
vn -0.912100 0.067500 0.404300
vn -0.325100 -0.082000 0.942100
vn 0.854000 -0.178500 -0.488800
vn 0.980500 -0.108600 0.163500
vn 0.250700 -0.000100 0.968100
vn -0.336100 0.044700 -0.940800
vn -0.778300 0.183300 -0.600600
vn -0.987200 0.131200 -0.090200
vn -0.985400 0.143200 -0.092200
usemtl PC_LOB_TABLE2_2
s off
f 28/1/1 29/2/1 3/3/1
f 26/4/2 12/5/2 2/6/2
f 18/7/3 6/8/3 7/9/3
f 17/10/4 13/8/4 14/11/4
f 7/9/5 16/12/5 18/7/5
f 14/11/6 15/13/6 17/10/6
f 21/14/7 8/15/7 26/4/7
f 20/16/1 19/17/1 3/3/1
f 24/18/1 30/19/1 10/20/1
f 11/21/8 22/22/8 27/23/8
f 30/19/1 1/24/1 10/20/1
f 10/25/9 27/26/9 22/27/9
f 23/28/2 9/29/2 11/21/2
f 30/19/1 25/30/1 1/24/1
f 11/21/2 12/5/2 26/4/2
f 30/31/10 11/32/10 9/33/10
f 13/34/11 4/35/11 5/36/11
f 5/36/12 14/12/12 13/34/12
f 15/36/13 7/37/13 6/38/13
f 16/39/14 5/37/14 4/40/14
f 6/38/15 17/41/15 15/36/15
f 4/40/16 18/42/16 16/39/16
f 8/43/17 21/44/17 19/45/17
f 28/46/18 2/47/18 12/48/18
f 8/43/19 20/49/19 3/50/19
f 19/45/20 20/49/20 8/43/20
f 2/6/21 21/14/21 26/4/21
f 21/44/22 2/51/22 19/45/22
f 22/27/23 24/52/23 10/25/23
f 11/21/24 26/4/24 22/22/24
f 1/53/25 9/54/25 23/55/25
f 10/25/26 1/53/26 27/26/26
f 3/50/27 24/56/27 22/57/27
f 24/18/1 3/3/1 29/2/1
f 25/58/28 30/31/28 9/33/28
f 25/59/29 9/54/29 1/53/29
f 3/50/30 26/60/30 8/43/30
f 3/50/31 22/57/31 26/60/31
f 27/23/2 23/28/2 11/21/2
f 1/53/32 23/55/32 27/26/32
f 19/45/33 2/51/33 28/61/33
f 19/17/1 28/1/1 3/3/1
f 29/62/34 28/46/34 12/48/34
f 30/31/35 12/48/35 11/32/35
f 30/31/36 29/62/36 12/48/36
f 24/18/1 29/2/1 30/19/1
