# Blender v2.75 (sub 0) OBJ File: 'Empty.blend'
# www.blender.org
mtllib PC_LOB_BRIDGE_PLANK_BIG.mtl
o PC_LOB_BRIDGE_PLANK_BIG
v 0.129083 -3.163735 0.110892
v -0.183939 1.236179 -0.173626
v 0.150743 1.336180 -0.271155
v -0.165922 -3.163735 0.110895
v -0.165917 -3.163735 -0.184105
v 0.129081 -3.163735 -0.184106
v 0.149239 1.286180 0.077447
v -0.149847 1.236179 0.068991
vt -0.026559 0.206244
vt 0.030920 0.223033
vt 0.026121 -0.527041
vt 0.025088 -0.214245
vt -0.024776 -0.205924
vt 0.021717 0.527429
vt -0.027445 0.527429
vt -0.018438 0.527184
vt 0.030728 0.527184
vt -0.012865 -0.214476
vt 0.032522 -0.527301
vt -0.016525 -0.527301
vt 0.031011 0.206017
vt 0.030684 -0.021514
vt -0.018482 -0.021514
vt -0.018483 0.027654
vt 0.030684 0.027653
vt -0.022569 -0.527041
vt 0.005300 0.072030
vt 0.063889 0.074132
vt 0.006971 0.021579
vt 0.045236 -0.222811
vt 0.047358 0.016040
vt -0.009723 0.206019
vn -0.275000 -0.017300 -0.961300
vn -0.029500 0.007600 0.999500
vn 0.000000 0.009500 1.000000
vn 1.000000 -0.004500 -0.000000
vn -1.000000 -0.004100 -0.000000
vn 0.000000 -1.000000 -0.000000
vn -0.000000 0.002400 -1.000000
vn -0.167100 0.976100 0.139300
vn 1.000000 -0.004700 0.003600
vn -0.275700 0.960500 0.038700
vn -0.990300 0.004900 0.139100
usemtl PSI_F_STEG_V2
s off
f 2/1/1 3/2/1 6/3/1
f 7/4/2 8/5/2 1/6/2
f 8/5/3 4/7/3 1/6/3
f 1/8/4 6/9/4 7/10/4
f 5/11/5 4/12/5 2/13/5
f 6/14/6 1/15/6 4/16/6
f 5/17/6 6/14/6 4/16/6
f 5/18/7 2/1/7 6/3/7
f 7/19/8 3/20/8 8/21/8
f 3/22/9 7/10/9 6/9/9
f 2/23/10 8/21/10 3/20/10
f 8/24/11 2/13/11 4/12/11
