# Blender v2.75 (sub 0) OBJ File: 'Empty.blend'
# www.blender.org
mtllib PC_LOB_LOG1.mtl
o PC_LOB_LOG1
v 0.822244 -0.025351 0.245334
v -1.056810 0.161381 -0.183111
v 0.917743 0.439786 0.270923
v -0.232551 0.283364 0.137873
v -0.443857 0.546580 -0.519978
v -0.536061 0.263222 -0.618810
v -0.220698 0.011705 0.039776
v -1.173631 0.102455 0.034161
v -0.394405 0.214710 0.179659
v 0.835844 0.350953 0.503622
v -0.350169 0.283925 -0.634815
v -0.312489 -0.037156 0.159631
v 0.776822 0.063482 0.487807
v -0.927283 0.368667 -0.159976
v -0.196700 0.335817 0.065039
v 0.909339 0.207218 0.111292
v -1.066861 0.273323 0.191578
v -0.884052 0.437851 0.071594
v -0.268262 0.176814 -0.067913
v -0.584705 0.422767 -0.505709
v -0.130809 0.158633 0.076756
v -0.387478 0.054389 0.113160
v -0.311417 0.452970 -0.598082
v -0.224034 0.191216 0.242752
v -0.339823 0.006304 -0.029453
vt 0.497967 -0.432974
vt 0.655223 -0.995486
vt 0.772848 -0.953883
vt 0.172732 -0.932186
vt 0.664706 -0.960379
vt 0.391333 -0.454100
vt 0.656862 -0.376027
vt 0.113793 -0.281816
vt 0.014545 -0.305052
vt 0.321452 -0.450032
vt 0.967266 -0.412359
vt 0.898729 -0.349096
vt 0.000500 -0.393848
vt 0.624917 -0.498631
vt 0.592466 -0.455694
vt 0.502033 -0.432974
vt 0.385365 -0.467157
vt 0.344777 -0.995486
vt 0.697641 -0.411847
vt 0.531717 -0.398790
vt 0.284784 -0.372718
vt 0.000500 -0.960379
vt 0.204698 -0.999500
vt 0.000500 -0.411847
vt 0.587539 -0.000500
vt 0.985623 -0.932186
vt 0.925124 -0.398790
vt 0.633314 -0.432974
vt 0.979297 -0.953883
vt 0.229419 -0.454100
vt 0.379613 -0.138825
vt 0.725675 -0.051501
vt 0.304978 -0.118174
vt 0.582820 -0.118174
vt 0.886207 -0.281816
vt 0.375083 -0.498631
vt 0.787608 -0.113793
vt 0.157169 -0.656862
vt 0.431542 -0.715216
vt 0.664429 -0.624917
vt 0.450005 -0.000500
vt 0.160702 -0.032734
vt 0.274325 -0.051501
vt 0.531850 -0.051501
vt 0.659726 -0.056302
vt 0.396879 -0.056302
vt 0.035314 -0.963269
vt 0.357562 -0.968714
vt 0.271433 -0.495803
vt 0.472658 -0.193745
vt 0.031864 -0.089342
vt 0.368803 -0.439431
vt 0.495776 -0.688307
vt 0.533235 -0.711432
vt 0.648753 -0.986995
vt 0.969398 -0.961788
vt 0.021435 -0.575496
vt 0.624501 -0.473866
vt 0.991790 -0.566907
vt 0.262559 0.002598
vt 0.061063 -0.412212
vn 0.140700 -0.533400 -0.834100
vn -0.238400 -0.004500 0.971200
vn -0.933000 -0.348300 0.090000
vn 0.617200 0.778600 0.113300
vn 0.839100 -0.429200 -0.334200
vn -0.324000 -0.925100 -0.198200
vn 0.103800 0.610100 -0.785500
vn 0.027300 -0.973400 -0.227700
vn -0.256600 0.866100 0.429000
vn -0.144600 0.940300 0.308100
vn 0.069400 -0.920400 -0.384700
vn -0.259700 -0.239900 0.935400
vn -0.127500 -0.970500 -0.204600
vn -0.016000 -0.939800 0.341300
vn 0.211900 -0.298800 -0.930500
vn -0.259800 0.768200 0.585100
vn 0.084100 0.616700 -0.782700
vn 0.099600 0.560600 -0.822100
vn -0.209200 -0.588700 0.780800
vn 0.119100 0.761100 0.637600
vn 0.063800 -0.245000 -0.967400
vn 0.305900 0.895100 -0.324500
vn -0.588700 0.713500 0.380000
vn 0.787200 0.614100 0.057200
vn -0.964500 -0.135700 0.226600
vn 0.937700 -0.146500 -0.314900
vn 0.007600 0.583700 0.811900
vn -0.087700 -0.310500 0.946500
vn 0.205500 -0.019200 -0.978500
vn -0.132800 -0.936200 -0.325300
vn 0.944800 -0.207900 0.253200
vn -0.328200 0.477600 -0.814900
vn -0.798200 0.530600 -0.285300
vn -0.752700 0.656000 -0.055500
vn -0.727400 0.651900 -0.214300
vn -0.335000 0.277300 -0.900500
vn -0.109300 0.234900 -0.965800
usemtl PC_LOB_LOG1_1
s off
f 19/1/1 16/2/1 1/3/1
f 13/4/2 10/5/2 24/6/2
f 22/7/3 20/8/3 6/9/3
f 4/10/4 23/11/4 5/12/4
f 11/13/5 21/14/5 7/15/5
f 6/9/6 7/15/6 22/7/6
f 19/16/7 15/17/7 16/18/7
f 12/19/8 25/20/8 1/3/8
f 5/12/9 9/21/9 4/10/9
f 10/22/10 3/23/10 15/17/10
f 7/15/11 6/9/11 11/13/11
f 24/6/12 12/24/12 13/4/12
f 25/20/13 12/19/13 8/25/13
f 1/3/14 13/26/14 12/19/14
f 25/27/15 19/28/15 1/29/15
f 15/17/16 24/30/16 10/22/16
f 18/31/17 15/17/17 19/16/17
f 15/17/18 3/23/18 16/18/18
f 17/32/19 8/25/19 12/19/19
f 24/30/20 15/17/20 18/31/20
f 14/33/21 19/28/21 25/27/21
f 14/34/22 18/31/22 19/16/22
f 9/21/23 5/12/23 20/35/23
f 23/11/24 4/10/24 21/36/24
f 20/37/25 22/38/25 9/39/25
f 21/40/26 11/41/26 23/42/26
f 18/31/27 17/43/27 24/30/27
f 12/24/28 24/6/28 17/44/28
f 2/45/29 14/33/29 25/27/29
f 8/25/30 2/46/30 25/20/30
usemtl PC_LOB_LOG1_2
f 10/47/31 13/48/31 16/49/31
f 20/50/32 23/51/32 6/52/32
f 13/48/31 1/53/31 16/49/31
f 14/54/33 2/55/33 8/56/33
f 3/57/31 10/47/31 16/49/31
f 18/58/34 14/54/34 8/56/34
f 8/56/35 17/59/35 18/58/35
f 20/50/36 5/60/36 23/51/36
f 23/51/37 11/61/37 6/52/37
