# Blender v2.75 (sub 0) OBJ File: 'Empty.blend'
# www.blender.org
mtllib PC_LOB_SLEEPER3.mtl
o PC_LOB_SLEEPER3
v 0.207000 0.855881 -0.184600
v 0.242200 0.000000 0.374000
v -0.279800 0.000000 -0.419800
v 0.073321 0.709000 0.124100
v 0.216755 1.548517 0.170524
v -0.214355 1.548517 0.170524
v -0.115665 0.709000 -0.067000
v 0.140084 0.515863 0.087900
v 0.406095 0.688716 -0.140870
v 0.406095 0.688716 0.125142
v -0.140084 0.515863 0.087900
v -0.406095 0.688716 -0.140870
v -0.406095 0.688716 0.125142
v 0.140084 0.688716 -0.140870
v -0.140084 0.688716 -0.140870
v 0.242200 0.000000 -0.419800
v -0.279800 0.000000 0.374000
v -0.204600 0.855881 -0.184600
v -0.057207 1.343194 0.282821
v 0.127089 1.476607 0.110505
v 0.118065 0.709000 -0.067000
v 0.140084 0.688716 0.125142
v -0.140084 0.688716 0.125142
v 0.207000 0.708881 0.197600
v -0.204600 0.708881 0.197600
v 0.208104 1.492868 0.116674
v -0.124689 1.476607 0.110505
v -0.205704 1.492868 0.116674
v 0.140084 0.515863 -0.103628
v -0.140084 0.515863 -0.103628
v -0.050250 1.189400 -0.087000
v -0.248700 1.223500 0.116750
v 0.096750 0.995650 0.271100
v 0.126150 1.274950 0.153500
v 0.001200 1.421950 0.021200
v -0.123750 1.274950 0.153500
v -0.070921 0.709000 0.124100
v 0.251100 1.223500 0.116750
v -0.094350 0.995650 0.271100
v -0.094350 0.856000 0.109400
v 0.096750 0.856000 0.109400
v 0.339592 0.569042 -0.079687
v -0.339592 0.569042 -0.079687
v 0.166575 1.091200 -0.023047
v -0.145563 1.417215 0.135121
v -0.057600 1.458857 0.086067
v 0.339592 0.569042 0.063959
v -0.339592 0.569042 0.063959
v -0.164175 1.091200 -0.023047
v -0.248700 1.105900 0.094700
v 0.251100 1.105900 0.094700
v 0.147963 1.417215 0.135121
v 0.096750 1.252900 0.021200
v 0.001200 1.231640 0.291563
v 0.059607 1.343194 0.282821
v 0.277676 0.622214 -0.004064
v -0.277676 0.622214 -0.004064
v 0.001200 0.961800 -0.116400
v -0.094350 1.252900 0.021200
v 0.001200 1.157350 0.263750
v 0.000687 1.267600 -0.022900
v 0.052650 1.189400 -0.087000
v 0.001200 0.958900 0.160850
v 0.096750 1.363150 0.065300
v 0.060000 1.458857 0.086067
v 0.089400 1.425690 0.170324
v 0.118800 1.356525 0.129964
v -0.094350 1.363150 0.065300
v -0.087000 1.425690 0.170324
v -0.116400 1.356525 0.129964
v 0.001200 1.405007 0.257920
v 0.001200 1.472017 0.136425
v 0.001713 1.267600 -0.022900
v -0.156839 1.020799 0.115473
v 0.159239 1.020799 0.115473
v -0.150781 1.440010 0.073432
v -0.209562 1.527050 0.115195
v 0.153181 1.440010 0.073432
v 0.211962 1.527050 0.115195
v 0.099836 1.370080 0.211074
v 0.022436 1.306021 0.285711
v -0.097436 1.370080 0.211074
v -0.020036 1.306021 0.285711
v -0.079650 1.247455 0.216786
v 0.082050 1.247455 0.216786
v -0.116400 1.179400 0.212300
v 0.118800 1.179400 0.212300
v 0.074307 1.326248 0.234966
v -0.071907 1.326248 0.234966
v -0.190274 1.514405 0.135614
v 0.192674 1.514405 0.135614
vt 0.273320 -0.993406
vt 1.324304 -0.993961
vt 1.326112 -0.001208
vt 0.273849 -0.001208
vt 0.273762 -0.993983
vt 1.324384 -0.993839
vt 0.053490 0.056576
vt -0.050419 0.056576
vt 0.000202 0.110142
vt -0.034336 -0.104775
vt 0.040480 -0.104775
vt -0.024984 -0.185429
vt 0.081810 -0.831938
vt 0.185719 -0.831938
vt 0.132430 -0.885504
vt 0.040480 0.104775
vt -0.034336 0.104775
vt -0.024984 0.185429
vt 0.053494 0.160484
vt 0.031128 -0.185429
vt 0.185723 -0.935846
vt 0.031128 0.185429
vt 0.273683 -0.993961
vt 0.058368 -0.269782
vt 0.057587 -0.201305
vt 0.136594 -0.217717
vt -0.057587 -0.201305
vt -0.058368 -0.269782
vt -0.136594 -0.217717
vt 0.018941 -0.078780
vt 0.018941 -0.000283
vt 0.135740 -0.000283
vt 0.135740 -0.078780
vt 0.057086 0.203374
vt 0.057868 0.271851
vt 0.136094 0.219786
vt -0.057868 0.271851
vt -0.057086 0.203374
vt -0.136094 0.219786
vt 0.055027 -0.312213
vt -0.048883 -0.312213
vt 0.031128 -0.258733
vt 0.161389 0.271851
vt -0.161389 0.271851
vt -0.048883 0.312213
vt 0.055027 0.312213
vt 0.031128 0.258733
vt 0.161889 -0.269782
vt -0.024984 -0.258733
vt -0.024984 0.258733
vt -0.161889 -0.269782
vt -0.050414 0.160484
vt 0.081814 -0.935846
vt 0.323333 -0.745268
vt 0.500000 -0.530189
vt 0.250000 -0.397370
vt 0.000938 -0.847910
vt 0.075586 -0.722824
vt 0.092813 -0.872522
vt -0.090363 0.482486
vt 0.000938 0.723846
vt 0.092238 0.482486
vt -0.161608 0.641836
vt -0.104533 0.811553
vt -0.033819 0.525941
vt 0.113930 1.015197
vt 0.199467 1.063598
vt 0.211261 1.003878
vt 0.676667 -0.745268
vt 0.750000 -0.397370
vt 0.036274 -0.974181
vt -0.020424 -0.970881
vt 0.041766 -0.913535
vt 0.097093 -1.045056
vt 0.089848 -1.099768
vt 0.001492 -1.049692
vt -0.080125 -0.825019
vt -0.144652 -0.650994
vt -0.017484 -0.534949
vt 0.153145 -1.653602
vt 0.130139 -1.676161
vt 0.068837 -1.635958
vt 0.437505 1.293475
vt 0.407878 1.351304
vt 0.507715 1.398115
vt -0.355003 1.261031
vt -0.325633 1.319026
vt -0.253524 1.286139
vt 0.181076 0.960604
vt 0.235831 0.945168
vt 0.209548 0.884058
vt -0.195914 -1.689821
vt -0.215151 -1.665835
vt -0.125864 -1.647703
vt -0.424946 1.364761
vt -0.162154 1.030555
vt -0.104069 1.090072
vt -0.062868 0.971844
vt 0.270860 0.876883
vt -0.228647 0.958506
vt -0.123888 0.946051
vt -0.239114 0.900176
vt -0.073711 -0.723867
vt -0.122530 -0.658297
vt -0.073711 -0.558508
vt 0.124405 -0.658297
vt 0.075586 -0.723867
vt 0.075586 -0.558508
vt 0.000938 -0.645412
vt -0.077037 -1.099277
vt -0.134757 -1.043108
vt -0.038427 -0.979996
vt 0.084580 -1.567974
vt 0.363582 1.221451
vt 0.338553 1.318680
vt -0.090937 -0.872522
vt -0.194297 -0.833778
vt -0.073711 -0.722824
vt 0.088215 0.937376
vt 0.146538 0.936544
vt 0.145936 0.877327
vt 0.196172 -0.833778
vt 0.422222 -0.322398
vt 0.355556 -0.245268
vt -0.055407 -0.479879
vt -0.155346 0.532707
vt 0.057282 -0.479879
vt -0.141923 -0.539963
vt -0.098204 -0.957866
vt -0.211802 -0.917838
vt -0.174763 -0.771409
vt -0.146338 -1.581352
vt -0.283708 1.190619
vt -0.171216 1.109469
vt 0.144992 -1.076539
vt -0.196194 0.758702
vt -0.216054 0.810039
vt -0.194297 -0.920647
vt -0.190828 -0.826913
vt 0.196172 -0.920647
vt 0.104520 -0.924036
vt 0.127058 -0.986672
vt 0.067593 -1.001121
vt -0.203293 -0.971620
vt 0.177397 -0.914255
vt 0.027581 0.900808
vt 0.000876 -0.990193
vt 0.068497 0.950021
vt -0.079616 -0.931343
vt 0.577778 -0.322398
vt 0.644444 -0.245268
vt 0.036187 0.859913
vt -0.065078 -0.889033
vt 0.075586 0.897788
vt 0.041133 0.816984
vt 0.000536 0.893972
vt -0.039258 0.816984
vt 0.161728 -0.996646
vt 0.088101 -1.433536
vt 0.072613 -1.537528
vt 0.005466 -1.511920
vt -0.142912 -1.121224
vt -0.434038 0.000937
vt -0.491846 -0.045000
vt -0.491846 0.046875
vt 0.010545 -1.574765
vt 0.005282 -1.618029
vt 0.056350 -1.500780
vt 0.011603 -1.436803
vt -0.214710 1.022143
vt 0.006206 1.510830
vt 0.073354 1.536437
vt 0.088842 1.432446
vt -0.077403 -1.590718
vt -0.054065 -1.627957
vt -0.114537 -1.513632
vt 0.012343 1.435712
vt 0.114315 0.953161
vt -0.532162 0.000937
vt 0.254387 1.036588
vt -0.073711 0.897788
vt 0.001339 0.893972
vt -0.194297 -0.697487
vt 0.196172 -0.697487
vt 0.017682 1.615277
vt 0.022765 1.651875
vt -0.398794 1.369211
vt -0.034620 1.675935
vt 0.016941 -1.616368
vt 0.022024 -1.652965
vt -0.087931 1.051400
vt -0.065116 1.077118
vt -0.059876 0.966926
vt -0.035360 -1.677026
vt 0.175315 0.958270
vt -1.586694 -0.873221
vt -1.607125 -0.882732
vt -1.601061 -0.864350
vt -1.525540 -0.820350
vt -1.503017 -0.821122
vt -1.512775 -0.834902
vt -0.096680 -0.954592
vt 0.098555 -0.954592
vt 0.152660 0.817230
vt 0.051126 -0.854306
vt -1.617024 -0.878460
vt -1.532983 -0.828150
vt -0.218786 -1.727800
vt -0.424399 1.423530
vt 0.144013 -1.711523
vt 0.479493 1.401687
vt 0.503556 1.455839
vn -0.994400 0.105500 0.000000
vn 0.998800 0.049600 0.000000
vn 0.435200 0.900300 0.000000
vn 0.257600 -0.966300 0.000000
vn -0.435200 0.900300 0.000000
vn -0.257600 -0.966300 0.000000
vn 0.000000 0.899400 0.437200
vn 0.000000 0.265000 -0.964300
vn 0.000000 0.241500 0.970400
vn 0.170900 -0.207500 0.963200
vn -0.170900 -0.207500 0.963200
vn 0.000000 0.933300 0.359000
vn 0.999200 0.037200 0.014300
vn -0.996400 0.079200 0.030500
vn 0.170900 -0.207500 -0.963200
vn -0.170900 -0.207500 -0.963200
vn 0.874100 -0.485700 0.000000
vn 0.000000 -0.455200 -0.890400
vn -0.874100 -0.485700 0.000000
vn 0.000000 -0.455200 0.890400
vn -0.459900 0.888000 0.000000
vn 0.000000 0.889100 -0.457600
vn 0.459900 0.888000 0.000000
vn 0.465700 0.042500 -0.883900
vn 0.349100 0.247300 0.903900
vn 0.000000 -0.191800 -0.981400
vn -0.959100 -0.149400 0.240400
vn -0.264500 0.844500 0.465700
vn -0.465700 0.042500 -0.883900
vn 0.714200 -0.090000 0.694200
vn 0.264500 0.844500 0.465700
vn 0.959100 -0.149400 0.240400
vn 0.067800 -0.631000 0.772800
vn -0.295100 0.567900 -0.768300
vn -0.055200 0.729700 -0.681500
vn -0.968500 0.145600 0.202100
vn -0.067800 -0.631000 0.772800
vn 0.295100 0.567900 -0.768300
vn -0.522000 0.232700 -0.820600
vn -0.975000 0.024200 -0.220700
vn -0.314200 0.922700 -0.223600
vn -0.888100 -0.347800 0.300400
vn 0.888100 -0.347800 0.300400
vn 0.000000 -0.948700 0.316200
vn 0.522000 0.232700 -0.820600
vn -0.138600 0.337200 0.931200
vn -0.097400 0.175200 -0.979700
vn 0.055200 0.729700 -0.681500
vn -0.700100 0.140000 0.700100
vn -0.714200 -0.090000 0.694200
vn 0.420200 -0.686800 0.593100
vn 0.700100 0.140000 0.700100
vn 0.700300 0.453300 -0.551500
vn 0.000000 0.045400 0.999000
vn -0.349100 0.247300 0.903900
vn 0.000000 0.099500 0.995000
vn -0.965200 -0.131200 0.226000
vn 0.965200 -0.131200 0.226000
vn 0.533000 0.429600 -0.728900
vn 0.929000 -0.347500 -0.127400
vn 0.138600 0.337200 0.931200
vn 0.097400 0.175200 -0.979700
vn -0.569300 0.377100 -0.730600
vn 0.387000 0.896000 0.217700
vn -0.533000 0.429600 -0.728900
vn -0.929000 -0.347500 -0.127400
vn -0.800800 0.110400 -0.588600
vn -0.610700 -0.145900 0.778300
vn 0.800800 0.110400 -0.588600
vn 0.610700 -0.145900 0.778300
vn 0.968500 0.145600 0.202100
vn 0.435000 0.334400 -0.836000
vn 0.314200 0.922700 -0.223600
vn 0.975000 0.024200 -0.220700
vn -0.686900 -0.140000 0.713100
vn 0.496200 0.684200 0.534600
vn 0.000000 0.078400 0.996900
vn 0.686900 -0.140000 0.713100
vn 0.490600 0.001700 -0.871400
vn -0.490600 0.001700 -0.871400
vn -0.435000 0.334400 -0.836000
vn -0.700300 0.453300 -0.551500
vn -0.682900 -0.256100 0.684200
vn 0.682900 -0.256100 0.684200
vn 0.376200 0.724000 -0.578200
vn 0.000000 0.633900 -0.773400
vn 0.000000 0.128100 -0.991800
vn -0.420200 -0.686800 0.593100
vn 0.000000 -0.447200 0.894400
vn 0.943000 0.123600 -0.308900
vn 0.804800 -0.575600 -0.144600
vn 0.569300 0.377100 -0.730600
vn 0.000000 0.869200 -0.494500
vn 0.502700 0.475800 0.721700
vn -0.378000 0.808900 0.450300
vn 0.461100 -0.292800 0.837600
vn 0.860700 -0.385300 -0.332900
vn -0.943000 0.123600 -0.308900
vn -0.804800 -0.575600 -0.144600
vn -0.502700 0.475800 0.721700
vn 0.378000 0.808900 0.450300
vn -0.461100 -0.292800 0.837600
vn -0.860700 -0.385300 -0.332900
vn 0.000000 0.270300 0.962800
vn -0.443900 0.662500 0.603400
vn 0.000000 0.967500 -0.252800
vn -0.387000 0.896000 0.217700
vn -0.376200 0.724000 -0.578200
vn -0.597300 -0.727300 -0.338000
vn -0.690100 -0.705100 0.163200
vn 0.597300 -0.727300 -0.338000
vn 0.690100 -0.705100 0.163200
vn -0.750100 -0.638400 -0.172400
vn -0.677000 -0.107900 -0.728000
vn 0.512300 0.857500 0.047200
vn -0.992600 -0.113800 -0.041800
vn 0.750100 -0.638400 -0.172400
vn 0.677000 -0.107900 -0.728000
vn -0.512300 0.857500 0.047200
vn 0.992600 -0.113800 -0.041800
vn 0.938700 0.300200 0.169300
vn 0.508400 0.569000 0.646300
vn -0.160300 0.234800 0.958700
vn 0.657000 -0.624100 0.422800
vn -0.640500 0.528500 0.557200
vn -0.938700 0.300200 0.169300
vn 0.160300 0.234800 0.958700
vn -0.657000 -0.624100 0.422800
vn -0.829000 -0.047100 0.557200
vn -0.418000 0.452600 0.787700
vn 0.829000 -0.047100 0.557200
vn 0.418000 0.452600 0.787700
vn -0.374300 0.141700 0.916400
vn -0.698300 0.335400 0.632300
vn 0.698300 0.335400 0.632300
vn 0.374300 0.141700 0.916400
vn 0.793400 -0.139100 0.592500
vn 0.875000 -0.304400 0.376500
vn -0.793400 -0.139100 0.592500
vn -0.875000 -0.304400 0.376500
vn 0.073100 -0.687600 0.722400
vn 0.682900 0.699100 -0.212100
vn -0.073100 -0.687600 0.722400
vn -0.682900 0.699100 -0.212100
usemtl PC_LOB_SLEEPER3_2
s off
f 3/1/1 17/2/1 25/3/1
f 24/4/2 2/5/2 16/6/2
f 14/7/3 22/8/3 56/9/3
f 8/10/4 29/11/4 47/12/4
f 23/13/5 15/14/5 57/15/5
f 30/16/6 11/17/6 48/18/6
f 14/7/7 56/9/7 9/19/7
f 42/20/4 47/12/4 29/11/4
f 57/15/7 15/14/7 12/21/7
f 48/18/6 43/22/6 30/16/6
f 16/23/8 3/2/8 18/3/8
f 17/23/9 2/2/9 24/3/9
f 18/3/8 1/4/8 16/23/8
f 24/3/9 25/4/9 17/23/9
f 22/24/10 8/25/10 47/26/10
f 11/27/11 23/28/11 48/29/11
f 25/30/12 24/31/12 1/32/12
f 16/6/13 1/3/13 24/4/13
f 25/3/14 18/4/14 3/1/14
f 1/32/12 18/33/12 25/30/12
f 29/34/15 14/35/15 42/36/15
f 15/37/16 30/38/16 43/39/16
f 9/40/17 10/41/17 42/42/17
f 14/35/18 9/43/18 42/36/18
f 12/44/18 15/37/18 43/39/18
f 13/45/19 12/46/19 43/47/19
f 10/48/20 22/24/20 47/26/20
f 47/49/17 42/42/17 10/41/17
f 43/47/19 48/50/19 13/45/19
f 23/28/20 13/51/20 48/29/20
f 9/19/21 56/9/21 10/52/21
f 22/8/22 10/52/22 56/9/22
f 57/15/23 12/21/23 13/53/23
f 13/53/22 23/13/22 57/15/22
usemtl PC_LOB_SLEEPER3_1
f 21/54/24 58/55/24 44/56/24
f 60/57/25 33/58/25 87/59/25
f 7/60/26 58/61/26 21/62/26
f 40/63/27 49/64/27 7/65/27
f 71/66/28 72/67/28 69/68/28
f 58/55/29 7/69/29 49/70/29
f 88/71/30 81/72/30 85/73/30
f 66/74/31 72/75/31 71/76/31
f 44/77/32 41/78/32 21/79/32
f 26/80/33 91/81/33 20/82/33
f 78/83/34 20/84/34 79/85/34
f 76/86/35 27/87/35 46/88/35
f 82/89/36 70/90/36 36/91/36
f 90/92/37 28/93/37 27/94/37
f 27/87/38 76/86/38 77/95/38
f 68/96/39 35/97/39 73/98/39
f 59/99/40 36/91/40 70/90/40
f 36/100/41 59/101/41 32/102/41
f 39/103/42 74/104/42 40/105/42
f 75/106/43 33/107/43 41/108/43
f 33/107/44 39/103/44 63/109/44
f 35/110/45 64/111/45 61/112/45
f 20/82/46 52/113/46 26/80/46
f 64/114/47 65/115/47 78/83/47
f 20/84/48 78/83/48 65/115/48
f 86/116/49 50/117/49 39/118/49
f 83/119/50 89/120/50 84/121/50
f 40/105/51 63/109/51 39/103/51
f 51/122/52 87/59/52 33/58/52
f 44/56/53 62/123/53 53/124/53
f 60/57/54 39/118/54 33/58/54
f 39/118/55 60/57/55 86/116/55
f 40/105/56 37/125/56 41/108/56
f 7/65/57 37/126/57 40/63/57
f 37/125/56 4/127/56 41/108/56
f 41/78/58 4/128/58 21/79/58
f 44/77/59 53/129/59 38/130/59
f 44/77/60 75/131/60 41/78/60
f 28/93/61 45/132/61 27/94/61
f 46/88/62 68/133/62 76/86/62
f 46/134/63 35/97/63 68/96/63
f 66/74/64 65/135/64 72/75/64
f 59/101/65 49/64/65 32/102/65
f 40/63/66 74/136/66 49/64/66
f 50/137/67 32/102/67 49/64/67
f 86/116/68 32/138/68 50/117/68
f 38/130/69 51/139/69 44/77/69
f 51/122/70 38/140/70 87/59/70
f 34/141/71 67/142/71 80/143/71
f 64/111/72 53/129/72 61/112/72
f 53/129/73 34/144/73 38/130/73
f 34/141/74 53/145/74 67/142/74
f 84/121/75 54/146/75 83/119/75
f 71/76/76 55/147/76 80/143/76
f 83/119/77 54/146/77 81/148/77
f 54/149/78 85/73/78 81/72/78
f 58/55/79 62/123/79 44/56/79
f 31/150/80 58/55/80 49/70/80
f 59/101/81 68/96/81 73/98/81
f 31/150/82 49/70/82 59/151/82
f 54/146/83 84/121/83 60/152/83
f 54/149/84 60/153/84 85/73/84
f 53/154/85 62/155/85 61/156/85
f 61/156/86 62/155/86 31/157/86
f 62/155/87 58/61/87 31/157/87
f 63/109/88 41/108/88 33/107/88
f 41/108/89 63/109/89 40/105/89
f 53/145/90 64/158/90 67/142/90
f 64/159/91 78/160/91 52/161/91
f 35/110/92 65/162/92 64/111/92
f 35/163/93 46/164/93 65/165/93
f 52/113/94 20/82/94 66/166/94
f 65/167/95 66/166/95 20/82/95
f 66/166/96 67/168/96 52/113/96
f 52/161/97 67/169/97 64/159/97
f 68/96/98 59/101/98 70/170/98
f 45/171/99 76/172/99 68/173/99
f 27/94/100 45/132/100 69/174/100
f 69/174/101 46/175/101 27/94/101
f 70/176/102 69/174/102 45/132/102
f 68/173/103 70/177/103 45/171/103
f 81/148/104 71/66/104 83/119/104
f 69/68/105 19/178/105 71/66/105
f 72/179/106 65/165/106 46/164/106
f 69/68/107 72/67/107 46/180/107
f 31/157/108 59/181/108 73/182/108
f 50/137/109 49/64/109 74/136/109
f 50/183/110 74/104/110 39/103/110
f 44/77/111 51/139/111 75/131/111
f 75/106/112 51/184/112 33/107/112
f 76/172/113 45/171/113 28/185/113
f 28/185/114 77/186/114 76/172/114
f 77/95/115 90/187/115 27/87/115
f 6/188/116 77/186/116 28/185/116
f 52/161/117 78/160/117 26/189/117
f 79/190/118 26/189/118 78/160/118
f 91/191/119 79/192/119 20/193/119
f 79/190/120 5/194/120 26/189/120
f 66/68/121 80/195/121 67/90/121
f 80/143/122 66/74/122 71/76/122
f 71/76/123 81/72/123 55/147/123
f 81/196/124 88/197/124 55/198/124
f 19/178/125 69/68/125 82/89/125
f 82/89/126 69/68/126 70/90/126
f 83/119/127 71/66/127 19/178/127
f 89/199/128 83/200/128 19/201/128
f 36/91/129 84/121/129 89/120/129
f 86/116/130 36/202/130 32/138/130
f 85/73/131 34/141/131 88/71/131
f 38/140/132 34/203/132 87/59/132
f 60/152/133 84/121/133 86/204/133
f 36/91/134 86/204/134 84/121/134
f 87/205/135 34/141/135 85/73/135
f 85/73/136 60/153/136 87/205/136
f 80/143/137 88/71/137 34/141/137
f 88/197/138 80/206/138 55/198/138
f 36/91/139 89/120/139 82/89/139
f 19/201/140 82/207/140 89/199/140
f 6/208/141 28/93/141 90/92/141
f 6/209/142 90/187/142 77/95/142
f 26/80/143 5/210/143 91/81/143
f 91/211/144 5/212/144 79/85/144
