# Blender v2.75 (sub 0) OBJ File: 'Empty.blend'
# www.blender.org
mtllib PILLAR_ORC.mtl
o PILLAR_ORC
v 0.353553 3.402490 0.853550
v 0.000000 0.625117 1.000000
v -0.000000 0.822292 -0.000000
v -0.353553 3.402490 0.853549
v -0.353554 3.402489 0.146447
v 0.353553 3.402489 0.146447
v 0.500000 0.749472 0.500000
v -0.500000 0.765239 0.500000
v -0.164069 1.114750 0.444167
v 0.198840 0.589616 0.587820
v -0.353554 0.950787 0.146447
v 0.353553 0.856902 0.853550
v -0.000000 3.402489 -0.000000
v -0.353553 0.747632 0.853550
v -0.000000 3.402490 1.000000
v -0.500000 3.402490 0.499999
v 0.500000 3.402490 0.500000
v 0.353553 0.983953 0.146446
v -0.000000 0.796597 -0.000000
v -0.500000 0.000000 0.500000
v 0.500000 0.000000 0.500000
v -0.000000 -0.000000 0.000000
v 0.000000 0.000000 1.000000
v 0.500000 0.749472 0.500000
v -0.000000 0.625117 1.000000
v -0.164069 1.114750 0.444167
v 0.197275 0.589616 0.587820
v 0.353553 0.983954 0.146446
v -0.500000 0.765239 0.500000
v -0.353553 0.924736 0.146447
v 0.353553 0.856902 0.853550
v -0.353553 0.747632 0.853550
v -0.353553 0.000000 0.853550
v 0.353553 -0.000000 0.146447
v -0.353553 -0.000000 0.146447
v 0.353553 0.000000 0.853550
vt 1.830450 0.385747
vt 2.091900 0.291697
vt 2.091900 1.599810
vt 0.261732 0.356021
vt 0.523184 0.275956
vt 0.523184 1.599810
vt 1.046090 0.205617
vt 1.307540 1.599810
vt 1.046090 1.599810
vt 0.000279 0.291697
vt 0.261732 1.599810
vt 0.000279 1.599810
vt 0.493149 0.867437
vt 0.493148 0.138239
vt 0.750959 0.245028
vt 0.784637 1.599810
vt 1.568990 0.268042
vt 1.830450 1.599810
vt 1.568990 1.599810
vt 0.128550 0.502838
vt 0.235338 0.245028
vt 0.599420 0.455305
vt 0.500000 0.750000
vt 0.750000 0.500000
vt 1.307540 0.321970
vt 0.417965 0.527917
vt 0.500000 0.250000
vt 0.250000 0.500000
vt 0.784637 0.267118
vt 0.323223 0.676777
vt 0.676777 0.323223
vt 0.235338 0.760648
vt 0.323223 0.323223
vt 0.857747 0.502838
vt 0.750959 0.760648
vt 0.676777 0.676777
vt 0.784637 -0.108181
vt 0.000279 -0.108181
vt 0.261732 -0.108181
vt 1.568990 -0.108181
vt 1.830450 -0.108181
vt 1.046090 -0.108181
vt 1.307540 -0.108181
vt 0.598637 0.456088
vt 0.523184 -0.108181
vt 2.091900 -0.108181
vn 0.382700 -0.000000 -0.923900
vn -0.923900 -0.000000 -0.382700
vn 0.382700 0.000000 0.923900
vn -0.382700 -0.000000 -0.923900
vn 0.000000 1.000000 -0.000000
vn -0.923900 -0.000000 0.382700
vn 0.923900 0.000000 -0.382700
vn 0.317600 -0.840000 -0.439900
vn 0.491300 -0.576500 -0.652900
vn -0.382700 0.000000 0.923900
vn 0.633900 -0.517400 0.574800
vn -0.828800 -0.556300 0.060200
vn 0.515100 -0.796300 0.317100
vn -0.741800 -0.596500 -0.306500
vn -0.477500 -0.681000 -0.555200
vn 0.923900 0.000000 0.382700
vn 0.612400 -0.649300 0.451000
vn -0.364100 -0.925500 0.104700
vn 0.524300 -0.593400 -0.610700
vn -0.000000 -1.000000 0.000000
vn -0.330000 0.850200 0.410100
vn 0.831600 0.548700 -0.085900
vn -0.513000 0.798800 -0.314300
vn 0.743700 0.595100 0.304700
vn -0.553600 0.569900 0.607300
vn -0.625400 0.506300 -0.593700
vn -0.491300 0.576500 0.652900
vn 0.472800 0.713100 0.517600
vn -0.612400 0.649300 -0.451000
vn 0.364100 0.925500 -0.104700
usemtl MATERIAL_#324
s off
f 18/1/1 3/2/1 13/3/1
f 11/4/2 8/5/2 16/6/2
f 2/7/3 1/8/3 15/9/3
f 3/10/4 5/11/4 13/12/4
f 17/13/5 16/14/5 4/15/5
f 8/5/6 4/16/6 16/6/6
f 7/17/7 6/18/7 17/19/7
f 17/13/5 13/20/5 5/21/5
f 10/22/8 3/23/8 7/24/8
f 2/7/3 12/25/3 1/8/3
f 9/26/9 2/27/9 8/28/9
f 14/29/10 2/7/10 15/9/10
f 8/28/11 3/23/11 9/26/11
f 9/26/12 3/23/12 10/22/12
f 7/24/13 2/27/13 10/22/13
f 10/22/14 2/27/14 9/26/14
f 3/10/4 11/4/4 5/11/4
f 8/28/15 11/30/15 3/23/15
f 12/25/16 7/17/16 17/19/16
f 7/24/17 12/31/17 2/27/17
f 18/1/1 13/3/1 6/18/1
f 17/13/5 6/32/5 13/20/5
f 8/5/6 14/29/6 4/16/6
f 2/27/18 14/33/18 8/28/18
f 14/29/10 15/9/10 4/16/10
f 17/13/5 4/15/5 15/34/5
f 11/4/2 16/6/2 5/11/2
f 17/13/5 5/21/5 16/14/5
f 12/25/16 17/19/16 1/8/16
f 17/13/5 15/34/5 1/35/5
f 7/17/7 18/1/7 6/18/7
f 3/23/19 18/36/19 7/24/19
f 33/37/10 25/7/10 32/29/10
f 22/38/4 35/39/4 30/4/4
f 21/40/7 34/41/7 28/1/7
f 35/21/20 34/32/20 21/13/20
f 35/21/20 36/35/20 23/34/20
f 23/42/3 36/43/3 31/25/3
f 21/40/7 28/1/7 24/17/7
f 19/23/21 27/44/21 24/24/21
f 33/37/10 23/42/10 25/7/10
f 23/42/3 31/25/3 25/7/3
f 19/23/22 26/26/22 27/44/22
f 35/39/2 29/5/2 30/4/2
f 25/27/23 24/24/23 27/44/23
f 25/27/24 27/44/24 26/26/24
f 34/41/1 19/2/1 28/1/1
f 28/36/25 19/23/25 24/24/25
f 19/23/26 29/28/26 26/26/26
f 25/27/27 26/26/27 29/28/27
f 22/38/4 30/4/4 19/10/4
f 30/30/28 29/28/28 19/23/28
f 36/43/16 24/17/16 31/25/16
f 31/31/29 24/24/29 25/27/29
f 20/45/6 32/29/6 29/5/6
f 32/33/30 25/27/30 29/28/30
f 35/21/20 23/34/20 33/15/20
f 20/45/6 33/37/6 32/29/6
f 35/21/20 22/20/20 34/32/20
f 34/41/1 22/46/1 19/2/1
f 35/21/20 33/15/20 20/14/20
f 35/39/2 20/45/2 29/5/2
f 35/21/20 21/13/20 36/35/20
f 36/43/16 21/40/16 24/17/16
