# Blender v2.75 (sub 0) OBJ File: 'Empty.blend'
# www.blender.org
mtllib REPAIR_PLANK.mtl
o REPAIR_PLANK
v 0.371632 1.550400 0.800000
v -0.143734 1.545570 0.800000
v 0.342451 1.428850 0.800000
v 0.342451 1.428850 0.750000
v -0.114553 1.667120 0.800000
v 0.371632 1.550400 0.750000
v -0.114553 1.667120 0.750000
v -0.143734 1.545570 0.750000
vt 0.743490 0.924770
vt 0.520970 0.924770
vt 0.520970 0.828850
vt 0.532270 0.621370
vt 0.605880 0.621370
vt 0.605880 0.513890
vt 0.601850 0.711100
vt 0.601850 0.668130
vt 0.526430 0.668130
vt 0.743490 0.828850
vt 0.526430 0.711100
vt 0.532270 0.513890
vn 0.000000 -0.000000 -1.000000
vn -0.233400 -0.972400 0.000000
vn 0.972400 -0.233400 0.000000
vn 0.233400 0.972400 -0.000000
vn -0.972400 0.233400 0.000000
usemtl WOOD
s off
f 7/1/1 6/2/1 4/3/1
f 8/4/2 4/5/2 3/6/2
f 3/7/3 4/8/3 6/9/3
f 4/3/1 8/10/1 7/1/1
f 1/6/4 6/5/4 7/4/4
f 6/9/3 1/11/3 3/7/3
f 7/4/4 5/12/4 1/6/4
f 5/11/5 7/9/5 8/8/5
f 3/6/2 2/12/2 8/4/2
f 8/8/5 2/7/5 5/11/5
