# Blender v2.75 (sub 0) OBJ File: 'Empty.blend'
# www.blender.org
mtllib SECRETDOOR_STONE.mtl
o SECRETDOOR_STONE
v 3.000000 3.000000 -0.250000
v -3.000000 3.000000 -0.250000
v 3.000000 0.000000 -0.250000
v -3.000000 0.000000 -0.250000
v 3.000000 3.000000 0.250000
v -3.000000 3.000000 0.250000
v 3.000000 0.000000 0.250000
v -3.000000 0.000000 0.250000
vt 2.287430 5.215010
vt 1.249510 5.215010
vt 1.249510 4.696040
vt 5.712570 4.696040
vt 6.750490 4.696040
vt 6.750490 5.215010
vt 2.287430 4.696040
vt 5.712570 5.215010
vt 5.712570 5.833660
vt 6.750490 5.833660
vt 6.750490 5.920160
vt 5.920160 5.215010
vt 5.833660 5.215010
vt 5.833660 4.696040
vt 5.712570 5.920160
vt 2.166340 5.215010
vt 2.079840 5.215010
vt 2.079840 4.696040
vt 1.249510 5.920160
vt 1.249510 5.833660
vt 2.287430 5.833660
vt 5.920160 4.696040
vt 2.287430 5.920160
vt 2.166340 4.696040
vn 0.000000 0.000000 -1.000000
vn 0.000000 0.000000 1.000000
vn 0.000000 1.000000 0.000000
vn 1.000000 0.000000 0.000000
vn -1.000000 0.000000 0.000000
vn 0.000000 -1.000000 0.000000
usemtl MATERIAL_#1
s off
f 2/1/1 1/2/1 3/3/1
f 8/4/2 7/5/2 5/6/2
f 3/3/1 4/7/1 2/1/1
f 5/6/2 6/8/2 8/4/2
f 6/9/3 5/10/3 1/11/3
f 1/12/4 5/13/4 7/14/4
f 1/11/3 2/15/3 6/9/3
f 6/16/5 2/17/5 4/18/5
f 3/19/6 7/20/6 8/21/6
f 7/14/4 3/22/4 1/12/4
f 8/21/6 4/23/6 3/19/6
f 4/18/5 8/24/5 6/16/5
