# Blender v2.75 (sub 0) OBJ File: 'Empty.blend'
# www.blender.org
mtllib SFBL.mtl
o SFBL
v -0.453726 0.256515 -0.079727
v -0.158499 0.063976 0.309911
v -0.119012 0.109915 -0.417852
v 0.355712 0.082739 -0.373764
v 0.228271 0.071812 -0.074867
v 0.349122 0.290419 -0.371987
v -0.201852 0.074349 0.420070
v 0.112395 0.063652 0.274940
v -0.041841 0.074349 0.451935
v 0.600927 0.075757 0.189309
v 0.289097 0.065143 0.045295
v 0.442146 0.075757 0.220929
v 0.450106 0.179565 -0.204437
v 0.515624 0.080380 0.029843
v 0.515228 0.278262 -0.124203
v 0.464794 0.089404 -0.302358
v -0.014057 0.096289 0.291749
v 0.414576 0.097528 0.061975
v 0.278951 0.074349 0.286731
v 0.159311 0.074349 0.396151
v 0.123822 0.075757 0.056996
v 0.242541 0.075757 0.165574
v 0.396705 0.282585 -0.218410
v 0.301986 0.177883 -0.297925
v 0.263397 0.277390 -0.315367
v 0.111894 0.096289 0.485542
v 0.289594 0.097528 0.254277
v 0.070077 0.118159 0.350744
v 0.331089 0.119230 0.120516
v -0.487567 0.093541 -0.092453
v 0.298584 0.074349 0.357527
v -0.182219 0.074349 0.490866
v 0.104340 0.075757 0.127247
v 0.581444 0.075757 0.259560
v 0.210055 0.080350 -0.015487
v -0.118677 0.271400 -0.375543
v 0.044843 0.096288 0.504137
v 0.356129 0.097528 0.272729
v -0.064054 0.063652 0.323874
v 0.052994 0.096288 0.273154
v 0.348041 0.097528 0.043523
v 0.464188 0.065143 0.093853
v 0.086576 0.118159 0.410236
v 0.314717 0.119230 0.179551
v 0.027760 0.118159 0.426547
v 0.011261 0.118159 0.367055
v 0.389453 0.119230 0.136702
v 0.373081 0.119230 0.195736
v -0.061474 0.074349 0.381140
v 0.161891 0.063652 0.453417
v 0.139678 0.074349 0.325355
v -0.014558 0.063652 0.502351
v 0.239981 0.065143 0.222400
v 0.415073 0.065143 0.270957
v 0.262024 0.075757 0.095323
v 0.461628 0.075757 0.150678
v 0.117982 0.069930 -0.136397
v 0.389468 0.077271 0.013767
v -0.197802 0.229638 0.214364
v 0.475821 0.280219 -0.145093
v 0.137247 0.244523 -0.081452
v 0.460941 0.297118 -0.298149
v 0.373334 0.262176 -0.250937
v 0.201019 0.145626 -0.065582
v 0.280546 0.271393 -0.228557
v 0.117893 0.144534 -0.123324
v 0.529162 0.288167 -0.246984
v 0.402994 0.151798 0.037012
v 0.364885 0.173978 -0.251113
v 0.232905 0.202427 -0.208591
v 0.273811 0.278612 -0.367233
v 0.219461 0.175580 -0.332733
v 0.207561 0.267444 -0.272436
v 0.534973 0.090258 -0.239167
v 0.505641 0.154210 0.035718
v 0.460882 0.210152 -0.097190
v 0.546387 0.186119 -0.188973
v 0.385596 0.081077 -0.291855
v 0.392237 0.085172 -0.254166
v 0.261748 0.080512 -0.364559
v 0.381097 0.177954 -0.209590
v 0.317651 0.267502 -0.204085
v 0.346541 0.285682 -0.331396
v 0.388358 0.271565 -0.149595
v 0.242275 0.275122 -0.216936
v 0.465254 0.299096 -0.264129
v 0.452175 0.092776 0.051145
v 0.155927 0.084674 -0.081844
v 0.455465 0.282622 -0.109864
v 0.344134 0.280308 -0.274534
v 0.496664 0.286867 -0.201327
v 0.370761 0.265788 -0.214945
v 0.442951 0.279873 -0.143361
v 0.254295 0.273087 -0.246745
v 0.322889 0.291985 -0.348562
v 0.469014 0.181908 -0.318958
v 0.358970 0.175097 -0.391362
v 0.436552 0.289530 -0.261568
v 0.222528 0.261512 -0.323690
v 0.524503 0.176927 -0.001153
v 0.379309 0.171054 -0.017174
v 0.125898 0.166225 -0.168421
v 0.252356 0.166104 -0.095067
v 0.388329 0.281995 -0.252545
v 0.380964 0.277891 -0.291924
v 0.535478 0.271498 -0.185898
v 0.156513 0.075904 -0.227542
v 0.538482 0.086726 -0.066411
v 0.286679 0.075686 -0.153262
v 0.389761 0.080609 -0.083888
vt 0.087588 -0.533498
vt 0.403813 -0.379883
vt 0.368816 -0.535914
vt 0.075849 -0.610121
vt 0.358753 -0.908630
vt 0.389911 -0.617368
vt 0.751654 -0.766769
vt 0.551078 -0.766520
vt 0.609471 -0.815417
vt 0.755996 -0.996724
vt 0.615552 -0.939184
vt 0.553234 -0.994398
vt 0.625385 -0.432150
vt 0.651547 -0.395405
vt 0.650948 -0.432150
vt 0.625985 -0.395405
vt 0.832486 -0.931680
vt 0.760140 -0.874326
vt 0.829382 -0.813898
vt 0.689426 -0.398221
vt 0.832737 -0.395405
vt 0.758010 -0.432150
vt 0.758610 -0.395405
vt 0.832138 -0.432150
vt 0.658122 -0.461180
vt 0.688827 -0.429333
vt 0.687235 -0.469629
vt 0.880876 -0.177026
vt 0.863361 -0.096005
vt 0.899364 -0.094998
vt 0.568910 -0.871932
vt 0.722922 -0.469629
vt 0.720132 -0.429333
vt 0.722922 -0.359393
vt 0.687235 -0.359393
vt 0.552393 -0.160077
vt 0.448470 -0.018380
vt 0.500859 -0.138530
vt 0.053241 -0.377467
vt 0.085117 -0.905647
vt 0.465041 -0.009726
vt 0.479598 -0.100965
vt 0.559597 -0.013122
vt 0.752036 -0.368576
vt 0.720731 -0.398221
vt 0.658122 -0.368576
vt 0.752036 -0.461180
vt 0.926066 -0.855829
vt 0.996427 -0.854345
vt 0.993248 -0.957917
vt 0.055234 -0.992111
vt 0.549591 -0.018762
vt 0.631993 -0.691502
vt 0.657335 -0.669607
vt 0.684458 -0.684997
vt 0.601204 -0.691735
vt 0.574696 -0.691680
vt 0.579283 -0.668183
vt 0.408438 -0.991890
vt 0.567429 -0.216571
vt 0.723527 -0.683964
vt 0.769011 -0.691365
vt 0.765636 -0.756077
vt 0.696550 -0.683982
vt 0.693287 -0.668166
vt 0.670031 -0.691520
vt 0.859067 -0.823553
vt 0.912040 -0.871052
vt 0.878027 -0.767880
vt 0.860204 -0.925102
vt 0.546155 -0.691397
vt 0.507370 -0.758229
vt 0.507469 -0.691365
vt 0.546809 -0.691581
vt 0.506933 -0.667855
vt 0.694567 -0.758925
vt 0.769536 -0.758229
vt 0.730790 -0.691427
vt 0.613185 -0.758785
vt 0.623371 -0.668124
vt 0.546701 -0.758884
vt 0.547325 -0.758884
vt 0.925773 -0.958182
vt 0.684370 -0.684896
vt 0.505415 -0.874967
vt 0.966053 -0.995331
vt 0.695843 -0.758320
vt 0.695588 -0.758340
vt 0.643317 -0.668196
vt 0.753218 -0.668076
vt 0.507236 -0.667855
vt 0.702902 -0.669100
vt 0.684429 -0.684970
vt 0.705576 -0.684659
vt 0.753218 -0.669487
vt 0.869800 -0.996471
vt 0.958491 -0.773224
vt 0.935015 -0.796839
vt 0.988318 -0.795251
vt 0.684545 -0.685074
vt 0.769042 -0.667855
vt 0.769089 -0.691365
vt 0.769042 -0.669736
vt 0.705680 -0.684650
vn -0.011800 -0.997900 -0.063600
vn 0.020400 0.997100 0.073300
vn 0.813200 -0.072000 0.577600
vn -0.782300 -0.145200 -0.605700
vn -0.000000 -1.000000 0.000000
vn 0.000000 1.000000 -0.000000
vn 0.354900 0.930800 0.086900
vn -0.408800 0.912200 0.028900
vn -0.993700 -0.110900 -0.017400
vn 0.994000 -0.106600 -0.022400
vn 0.491600 -0.860100 -0.136300
vn -0.491600 0.860100 0.136300
vn -0.491600 -0.860100 -0.136300
vn 0.491600 0.860100 0.136300
vn 0.461700 -0.822000 -0.333400
vn -0.461700 0.822000 0.333400
vn -0.461700 -0.822000 -0.333400
vn 0.461700 0.822000 0.333400
vn 0.802800 0.350800 -0.482100
vn -0.813300 0.339200 0.472800
vn 0.404900 0.307900 0.861000
vn -0.383500 0.135300 -0.913600
vn 0.280000 0.927200 0.248700
vn -0.573300 0.399300 -0.715500
vn -0.524600 -0.848500 -0.070000
vn 0.524600 0.848500 0.070000
vn 0.524600 -0.848500 -0.070000
vn -0.524600 0.848500 0.070000
vn -0.071000 0.964000 -0.256100
vn 0.071000 -0.964000 0.256100
vn 0.491600 0.860100 -0.136300
vn -0.491600 -0.860100 0.136300
vn 0.071000 0.964000 -0.256100
vn -0.071000 -0.964000 0.256100
vn -0.491600 0.860100 -0.136300
vn 0.491600 -0.860100 0.136300
vn -0.654200 0.193000 -0.731300
vn -0.745600 0.103400 0.658300
vn 0.751400 0.165800 -0.638700
vn -0.071000 -0.964000 -0.256100
vn 0.071000 0.964000 0.256100
vn 0.071000 -0.964000 -0.256100
vn -0.071000 0.964000 0.256100
vn -0.524600 0.848500 -0.070000
vn 0.524600 -0.848500 0.070000
vn -0.461700 -0.822000 0.333400
vn 0.461700 0.822000 -0.333400
vn 0.461700 -0.822000 0.333400
vn -0.461700 0.822000 -0.333400
vn 0.524600 0.848500 -0.070000
vn -0.524600 -0.848500 0.070000
vn 0.596100 -0.793700 0.121400
vn -0.596100 0.793700 -0.121400
vn -0.596100 -0.793700 -0.121400
vn 0.596100 0.793700 0.121400
vn -0.386100 -0.837500 0.386600
vn 0.386100 0.837500 -0.386600
vn 0.386100 -0.837500 -0.386600
vn -0.386100 0.837500 0.386600
vn 0.596100 -0.793700 -0.121400
vn -0.596100 0.793700 0.121400
vn -0.386100 -0.837500 -0.386600
vn 0.386100 0.837500 0.386600
vn 0.386100 -0.837500 0.386600
vn -0.386100 0.837500 -0.386600
vn -0.596100 -0.793700 0.121400
vn 0.596100 0.793700 -0.121400
vn 0.012200 -0.999600 -0.024300
vn -0.189700 0.925200 0.328500
vn 0.043600 -0.998800 -0.021300
vn -0.078500 0.924900 0.372000
vn 0.556400 0.510200 0.655800
vn -0.754100 0.184600 0.630300
vn -0.147500 0.988700 -0.026000
vn 0.362300 0.931900 0.016800
vn 0.774100 0.091600 -0.626400
vn -0.545100 0.111900 -0.830900
vn 0.633500 0.416800 0.651900
vn 0.327400 0.900300 0.286700
vn 0.971500 0.233700 -0.039100
vn -0.124300 -0.168900 0.977800
vn 0.810900 -0.066400 0.581400
vn 0.913700 0.379700 0.145000
vn -0.369200 0.915800 -0.158100
vn -0.560700 0.200500 0.803400
vn -0.869300 0.028300 -0.493400
vn 0.605100 0.182400 -0.775000
vn 0.134900 0.983100 0.124000
vn -0.469300 -0.184200 0.863600
vn -0.994400 -0.105300 -0.013000
vn 0.639000 -0.062700 0.766600
vn 0.984600 -0.169200 -0.042900
vn 0.218700 -0.347900 0.911600
vn -0.143100 0.988800 0.043000
vn -0.353000 0.934300 -0.048900
vn -0.252900 0.967100 -0.028000
vn -0.385700 -0.103600 -0.916800
vn -0.663400 0.101700 -0.741400
vn -0.962300 -0.225000 0.152900
vn -0.153600 0.132200 0.979200
vn 0.845100 0.165600 -0.508400
vn 0.038300 -0.998900 -0.026200
vn 0.006600 0.238100 0.971200
vn 0.990600 0.067600 0.118700
vn -0.519700 0.109300 0.847300
vn 0.671400 -0.260600 0.693700
vn 0.852600 -0.142000 -0.502900
vn 0.947800 0.110300 0.299000
vn 0.934200 -0.098300 -0.342800
vn 0.019300 -0.999500 -0.025100
vn -0.767100 0.200700 -0.609400
vn 0.038700 -0.998800 -0.029500
vn 0.021000 -0.999400 -0.027900
vn -0.091500 -0.183300 -0.978800
vn -0.721100 -0.333300 0.607400
vn -0.759700 -0.202300 -0.618000
vn -0.011900 0.984600 0.174500
vn 0.099300 0.995000 0.007700
vn 0.085300 0.989000 0.120800
vn -0.165300 0.954300 -0.249000
vn -0.164300 0.976900 0.136500
vn -0.958900 -0.096600 0.266800
vn -0.067700 0.993200 -0.095100
vn -0.846100 0.167200 0.506100
vn 0.189000 0.978600 -0.080900
vn -0.132100 0.984400 0.116100
vn 0.312200 -0.033300 0.949400
vn -0.032400 -0.902800 0.428800
vn -0.803100 -0.103800 0.586700
vn -0.197300 -0.903100 0.381300
vn 0.065500 0.997400 -0.030200
vn 0.242000 0.184700 0.952500
vn 0.111300 0.988900 0.098200
vn -0.924500 0.381200 -0.003100
vn -0.010800 0.993500 0.113500
vn -0.877900 0.389000 -0.279400
vn -0.535600 0.841600 0.069800
vn -0.150700 0.988400 0.019900
vn -0.014500 0.997000 -0.076400
vn -0.050500 0.516800 -0.854600
vn 0.087000 0.995700 -0.032900
vn 0.485200 0.590000 -0.645400
vn 0.169900 0.977500 0.124900
vn -0.452600 0.429700 0.781400
vn -0.544000 -0.124100 -0.829900
vn 0.661400 -0.161600 -0.732400
vn 0.927600 0.137600 -0.347400
vn -0.086800 0.157800 -0.983600
vn -0.317300 0.948200 -0.014900
vn -0.071700 0.452900 0.888700
vn -0.955900 0.064300 -0.286600
vn -0.319100 0.926300 -0.200400
vn -0.089100 0.867700 0.489000
vn 0.867200 0.078100 0.491800
vn -0.017800 0.939600 0.341700
vn -0.910800 0.037000 0.411300
vn -0.225100 0.893100 0.389600
vn -0.986400 0.027200 -0.162000
vn -0.209800 0.935500 0.284400
vn 0.477100 0.065900 0.876400
vn -0.875200 -0.131400 -0.465600
vn -0.529000 0.840800 0.115300
vn 0.984600 -0.094600 0.147000
vn 0.240800 0.890400 0.386200
vn 0.279800 0.933200 0.225700
vn 0.989400 0.128800 -0.067100
vn 0.043300 -0.998000 -0.047100
vn -0.918400 -0.054800 -0.391800
vn 0.032000 -0.997800 -0.058200
vn 0.973100 -0.015600 0.230000
vn 0.018600 -0.999200 -0.035500
vn 0.801300 -0.077600 0.593200
vn 0.045100 -0.998400 -0.034000
vn -0.993900 -0.109900 -0.006700
usemtl SFBL
s off
f 3/1/1 2/2/1 30/3/1
f 1/4/2 61/5/2 36/6/2
f 109/7/3 78/8/3 69/9/3
f 107/10/4 72/11/4 80/12/4
f 32/13/5 49/14/5 9/15/5
f 7/16/6 9/15/6 49/14/6
f 12/15/5 56/14/5 34/13/5
f 56/14/6 12/15/6 10/16/6
f 100/17/7 77/11/7 76/18/7
f 101/19/8 76/18/8 81/9/8
f 81/9/9 79/8/9 110/7/9
f 74/12/10 77/11/10 108/10/10
f 46/20/11 9/15/11 49/14/11
f 9/15/12 46/20/12 49/14/12
f 56/14/13 12/15/13 47/20/13
f 56/14/14 47/20/14 12/15/14
f 19/21/5 20/22/5 51/23/5
f 31/24/6 51/23/6 20/22/6
f 52/25/15 45/26/15 37/27/15
f 45/26/16 52/25/16 37/27/16
f 55/23/5 22/22/5 21/21/5
f 22/22/6 55/23/6 33/24/6
f 38/27/17 48/26/17 54/25/17
f 38/27/18 54/25/18 48/26/18
f 13/28/19 23/29/19 93/30/19
f 91/30/20 86/29/20 13/28/20
f 95/29/21 25/30/21 24/28/21
f 80/12/22 72/11/22 97/31/22
f 69/9/23 70/18/23 103/19/23
f 24/28/24 65/30/24 90/29/24
f 20/22/25 26/32/25 43/33/25
f 26/32/26 20/22/26 43/33/26
f 44/33/27 27/32/27 22/22/27
f 44/33/28 22/22/28 27/32/28
f 46/20/29 40/34/29 17/35/29
f 40/34/30 46/20/30 17/35/30
f 51/23/31 43/33/31 20/22/31
f 43/33/32 51/23/32 20/22/32
f 18/35/33 41/34/33 47/20/33
f 18/35/34 47/20/34 41/34/34
f 22/22/35 44/33/35 55/23/35
f 22/22/36 55/23/36 44/33/36
f 36/6/37 30/1/37 1/4/37
f 30/36/38 59/37/38 1/38/38
f 20/22/5 19/21/5 31/24/5
f 51/23/6 31/24/6 19/21/6
f 49/14/5 32/13/5 7/16/5
f 9/15/6 7/16/6 32/13/6
f 33/24/5 21/21/5 22/22/5
f 21/21/6 33/24/6 55/23/6
f 10/16/5 34/13/5 56/14/5
f 34/13/6 10/16/6 12/15/6
f 2/2/1 3/1/1 35/39/1
f 61/5/2 1/4/2 59/40/2
f 30/1/37 36/6/37 3/3/37
f 36/41/39 61/42/39 3/43/39
f 37/27/40 43/33/40 26/32/40
f 43/33/41 37/27/41 26/32/41
f 27/32/42 44/33/42 38/27/42
f 27/32/43 38/27/43 44/33/43
f 17/35/44 49/14/44 46/20/44
f 49/14/45 17/35/45 46/20/45
f 8/44/46 28/45/46 40/34/46
f 28/45/47 8/44/47 40/34/47
f 41/34/48 29/45/48 11/44/48
f 41/34/49 11/44/49 29/45/49
f 47/20/50 56/14/50 18/35/50
f 47/20/51 18/35/51 56/14/51
f 51/23/32 43/33/32 28/45/32
f 43/33/31 51/23/31 28/45/31
f 46/20/12 9/15/12 45/26/12
f 9/15/11 46/20/11 45/26/11
f 29/45/36 44/33/36 55/23/36
f 29/45/35 55/23/35 44/33/35
f 48/26/14 12/15/14 47/20/14
f 48/26/13 47/20/13 12/15/13
f 43/33/40 37/27/40 45/26/40
f 45/26/5 28/45/5 43/33/5
f 37/27/41 43/33/41 45/26/41
f 28/45/6 45/26/6 43/33/6
f 28/45/5 45/26/5 46/20/5
f 46/20/30 40/34/30 28/45/30
f 45/26/6 28/45/6 46/20/6
f 40/34/29 46/20/29 28/45/29
f 47/20/5 48/26/5 29/45/5
f 29/45/34 41/34/34 47/20/34
f 47/20/6 29/45/6 48/26/6
f 29/45/33 47/20/33 41/34/33
f 48/26/42 38/27/42 44/33/42
f 44/33/5 29/45/5 48/26/5
f 48/26/43 44/33/43 38/27/43
f 44/33/6 48/26/6 29/45/6
f 17/35/52 49/14/52 39/46/52
f 49/14/53 17/35/53 39/46/53
f 26/32/54 20/22/54 50/47/54
f 20/22/55 26/32/55 50/47/55
f 28/45/56 8/44/56 51/23/56
f 8/44/57 28/45/57 51/23/57
f 45/26/58 52/25/58 9/15/58
f 52/25/59 45/26/59 9/15/59
f 53/47/60 22/22/60 27/32/60
f 53/47/61 27/32/61 22/22/61
f 12/15/62 54/25/62 48/26/62
f 12/15/63 48/26/63 54/25/63
f 55/23/64 11/44/64 29/45/64
f 55/23/65 29/45/65 11/44/65
f 42/46/66 56/14/66 18/35/66
f 42/46/67 18/35/67 56/14/67
f 109/48/68 107/49/68 80/50/68
f 102/17/69 103/19/69 70/18/69
f 74/50/70 108/49/70 110/48/70
f 76/18/71 101/19/71 100/17/71
f 2/51/72 61/5/72 59/40/72
f 59/37/73 30/36/73 2/52/73
f 89/53/74 93/54/74 84/55/74
f 15/56/75 106/57/75 91/58/75
f 61/5/72 2/51/72 35/59/72
f 35/60/76 3/43/76 61/42/76
f 104/61/77 62/62/77 96/63/77
f 98/30/78 23/29/78 13/28/78
f 63/64/79 90/65/79 82/66/79
f 69/9/80 78/8/80 97/31/80
f 64/67/81 88/68/81 5/69/81
f 109/7/82 69/9/82 103/19/82
f 24/28/83 25/30/83 94/29/83
f 70/18/84 72/11/84 102/17/84
f 66/70/85 88/68/85 64/67/85
f 72/11/86 107/10/86 102/17/86
f 67/71/87 96/72/87 62/73/87
f 67/74/88 86/75/88 91/58/88
f 58/69/89 87/68/89 68/67/89
f 101/19/90 81/9/90 110/7/90
f 82/66/91 69/76/91 63/64/91
f 97/77/92 105/78/92 69/76/92
f 69/76/93 82/66/93 70/79/93
f 25/58/94 73/56/94 94/80/94
f 99/57/95 25/58/95 71/74/95
f 25/58/96 95/75/96 71/74/96
f 72/81/97 71/71/97 97/72/97
f 71/71/98 72/82/98 99/57/98
f 70/79/99 73/56/99 72/82/99
f 85/53/100 70/79/100 82/66/100
f 96/31/101 77/11/101 74/12/101
f 74/50/102 110/48/102 79/83/102
f 68/67/103 87/68/103 75/70/103
f 100/17/104 108/10/104 77/11/104
f 84/84/105 76/79/105 89/53/105
f 77/82/106 15/56/106 76/79/106
f 96/72/107 67/71/107 77/81/107
f 15/56/108 77/82/108 106/57/108
f 97/31/109 78/8/109 4/85/109
f 78/83/110 109/48/110 80/50/110
f 96/31/111 79/8/111 81/9/111
f 74/50/112 79/83/112 16/86/112
f 4/86/113 78/83/113 80/50/113
f 97/31/114 4/85/114 80/12/114
f 76/79/115 84/84/115 81/87/115
f 81/88/116 104/61/116 96/63/116
f 65/89/117 82/66/117 90/65/117
f 82/66/118 65/89/118 85/53/118
f 6/62/119 83/90/119 105/78/119
f 71/74/120 95/91/120 6/73/120
f 23/92/121 84/55/121 93/54/121
f 92/93/122 81/87/122 84/94/122
f 85/53/123 94/80/123 73/56/123
f 70/79/124 85/53/124 73/56/124
f 62/73/125 86/91/125 67/74/125
f 104/61/126 98/95/126 62/62/126
f 14/96/127 75/70/127 87/68/127
f 87/97/128 58/98/128 14/99/128
f 88/68/129 66/70/129 57/96/129
f 57/99/130 5/98/130 88/97/130
f 15/56/131 60/80/131 89/53/131
f 15/56/132 89/53/132 76/79/132
f 90/65/133 105/78/133 83/90/133
f 90/29/134 83/30/134 24/28/134
f 60/80/135 15/56/135 91/58/135
f 91/30/136 13/28/136 60/29/136
f 84/94/137 23/92/137 92/100/137
f 98/95/138 104/61/138 23/92/138
f 93/54/139 89/53/139 60/80/139
f 93/30/140 60/29/140 13/28/140
f 94/80/141 85/53/141 65/89/141
f 94/29/142 65/30/142 24/28/142
f 83/90/143 6/62/143 95/101/143
f 95/29/144 24/28/144 83/30/144
f 16/85/145 79/8/145 96/31/145
f 74/12/146 16/85/146 96/31/146
f 97/77/147 6/102/147 105/78/147
f 6/73/148 97/72/148 71/71/148
f 86/103/149 62/62/149 98/95/149
f 86/29/150 98/30/150 13/28/150
f 99/57/151 72/82/151 73/56/151
f 25/58/152 99/57/152 73/56/152
f 101/19/153 75/70/153 100/17/153
f 100/17/154 75/70/154 14/96/154
f 101/19/155 68/67/155 75/70/155
f 58/69/156 68/67/156 101/19/156
f 102/17/157 66/70/157 103/19/157
f 57/96/158 66/70/158 102/17/158
f 66/70/159 64/67/159 103/19/159
f 103/19/160 64/67/160 5/69/160
f 104/61/161 81/88/161 92/104/161
f 104/61/162 92/104/162 23/92/162
f 63/64/163 69/76/163 105/78/163
f 90/65/164 63/64/164 105/78/164
f 67/74/165 91/58/165 106/57/165
f 106/57/166 77/82/166 67/71/166
f 107/49/167 5/98/167 57/99/167
f 57/96/168 102/17/168 107/10/168
f 14/99/169 58/98/169 108/49/169
f 108/10/170 100/17/170 14/96/170
f 5/98/171 107/49/171 109/48/171
f 5/69/172 109/7/172 103/19/172
f 110/48/173 108/49/173 58/98/173
f 101/19/174 110/7/174 58/69/174
