# Blender v2.75 (sub 0) OBJ File: 'Empty.blend'
# www.blender.org
mtllib STTM.mtl
o STTM
v 0.076023 0.067597 -0.063061
v -0.574107 0.259267 -0.084932
v -0.017836 0.258591 -0.490634
v -0.179862 0.103654 0.338373
v 0.415275 0.103654 0.043012
v -0.119662 0.030300 -0.041714
v 0.355075 0.030300 0.423099
v -0.195612 0.071818 0.134764
v 0.211797 0.117150 -0.125084
v 0.201660 0.322409 -0.332892
v 0.167572 0.301486 -0.093163
v 0.281573 0.117150 -0.181569
v 0.367166 0.322409 -0.371202
v 0.311021 0.301486 -0.135660
v 0.258796 0.290990 -0.172245
v 0.229571 0.290990 -0.108061
v 0.080724 0.330950 -0.205832
v 0.433119 0.330950 -0.208660
v 0.133116 0.062730 -0.316689
v 0.227716 0.057805 -0.021349
v 0.156497 0.196177 -0.171122
v 0.425003 0.062730 -0.331005
v 0.228742 0.057805 -0.090887
v 0.349897 0.196177 -0.204136
v -0.487818 0.058478 -0.056044
v -0.019590 0.057991 -0.397581
v 0.340927 0.058899 -0.068068
v 0.114974 0.058899 -0.041234
v 0.415275 0.030300 0.043012
v -0.119662 0.103654 -0.041714
v -0.179862 0.030300 0.338373
v 0.355075 0.103654 0.423099
v -0.041605 0.146660 0.058008
v 0.434701 0.183148 -0.241132
v 0.091154 0.183148 -0.236624
v 0.183578 0.101930 -0.009848
v 0.265594 0.101930 -0.064009
v 0.351727 0.269386 -0.232514
v 0.165195 0.269386 -0.198196
v 0.058593 0.179921 -0.299325
v 0.283377 0.297796 -0.299670
v 0.253402 0.297796 -0.235629
v 0.142821 0.269272 -0.305325
v 0.411808 0.269272 -0.323988
v 0.114357 0.121392 -0.105719
v 0.365135 0.121392 -0.127840
v 0.196178 0.180530 -0.258928
v 0.345159 0.180530 -0.300376
v 0.086046 0.040500 -0.265355
v 0.449983 0.040499 -0.265992
v 0.423025 0.333641 -0.332174
v 0.413776 0.288696 -0.237291
v 0.135384 0.333641 -0.317052
v 0.109214 0.288696 -0.225381
v 0.332682 0.250304 -0.200434
v 0.171158 0.250304 -0.161368
v 0.193797 0.060127 -0.000803
v 0.252771 0.060127 -0.059339
v 0.174320 0.044969 -0.284544
v 0.374884 0.044969 -0.316198
v -0.410111 0.180471 0.042583
v -0.385363 0.224079 -0.175756
v -0.161979 0.223707 -0.338568
v -0.220690 0.244830 -0.187946
v -0.251297 0.089123 0.126572
v 0.085659 0.085433 -0.118100
v 0.200786 0.275544 -0.245643
v 0.336002 0.275544 -0.289704
v 0.086458 0.054130 -0.107199
v 0.391635 0.054130 -0.118992
v 0.421075 0.273092 -0.219624
v 0.095949 0.273092 -0.211619
v -0.129873 0.223825 -0.067128
v 0.260489 0.054066 -0.170550
v 0.227375 0.054066 -0.107105
v 0.222100 0.255551 -0.249170
v 0.317464 0.255551 -0.300797
v 0.155169 0.292846 -0.267319
v 0.386389 0.292846 -0.293153
v -0.242804 0.039790 -0.211244
v 0.420506 0.183958 -0.332473
v 0.137837 0.183958 -0.316407
vt 0.223463 -0.745227
vt 0.222019 -0.977966
vt 0.381707 -0.710257
vt 0.226075 -0.320338
vt 0.401908 -0.293658
vt 0.312478 0.000910
vt 0.990774 -0.801464
vt 0.990774 -0.008158
vt 0.786807 -0.008158
vt 0.784883 -0.003049
vt 0.507204 -0.003049
vt 0.503256 -0.799761
vt 0.786807 -0.801464
vt 0.780935 -0.799761
vt 0.124210 -0.978199
vt 0.068424 -0.715382
vt 0.126774 -0.001942
vt 0.141808 -0.494964
vt 0.305120 -0.492294
vt 0.053501 -0.299015
vt 0.226157 -0.558828
vt 0.232955 -0.330132
vt 0.286094 -0.470627
vt 0.232936 -0.330165
vt 0.792374 -0.776515
vt 0.996860 -0.776515
vt 0.996831 -0.676621
vt 0.784833 -0.002980
vt 0.784833 -0.804870
vt 0.828942 -0.804870
vt 0.828942 -0.002980
vt 0.571274 -0.325510
vt 0.571274 -0.470734
vt 0.712917 -0.470734
vt 0.712917 -0.325510
vt 0.510707 -0.793676
vt 0.512680 -0.009134
vt 0.542696 -0.009134
vt 0.792346 -0.676621
vt 0.540723 -0.793676
vt 0.312925 -0.975185
vt 0.132342 -0.528666
vt 0.316008 -0.513895
vt 0.226223 -0.325128
vt 0.222650 -0.554297
vt 0.213661 -0.584494
vt 0.166884 -0.475523
vt 0.016395 -0.497129
vt 0.016187 -0.498119
vt 0.442736 -0.490884
vt 0.442585 -0.489906
vt 0.139894 -0.100271
vt 0.115978 -0.903382
vt 0.350645 -0.097017
vt 0.330125 -0.899879
vt 0.656271 -0.237475
vt 0.633769 -0.276198
vt 0.601631 -0.237724
vt 0.657539 -0.337320
vt 0.659202 -0.450329
vt 0.574195 -0.343850
vt 0.734703 -0.344162
vt 0.772781 -0.276206
vt 0.702571 -0.276222
vt 0.484603 -0.276344
vt 0.525853 -0.340911
vt 0.424104 -0.364110
vt 0.502354 -0.236507
vt 0.426250 -0.236745
vt 0.725183 -0.474111
vt 0.199436 -0.872758
vt 0.481560 -0.961654
vt 0.503554 -0.894279
vt 0.543341 -0.509489
vt 0.095040 -0.546121
vt 0.202769 -0.502809
vt 0.091519 -0.856941
vt 0.509296 -0.551970
vt 0.717368 -0.722789
vt 0.704177 -0.938843
vt 0.844232 -0.526438
vt 0.962175 -0.926509
vt 0.991676 -0.683239
vt 0.579157 -0.472552
vt 0.425606 -0.462618
vt 0.519244 -0.472552
vt 0.753181 -0.722456
vt 0.746223 -0.576556
vt 0.373428 -0.276292
vt 0.352543 -0.236626
vt 0.305492 -0.276318
vt 0.326744 -0.344162
vt 0.392086 -0.706522
vt 0.339425 -0.474111
vt 0.013548 -0.665633
vt 0.856355 -0.939089
vt 0.828427 -0.657746
vt 0.553679 -0.276039
vt 0.892135 -0.503995
vt 0.899809 -0.984857
vt 0.337818 -0.678289
vt 0.277308 -0.787791
vt 0.242245 -0.642442
vt 0.969925 -0.554811
vt 0.558040 -0.276095
vt 0.710087 -0.238054
vt 0.192469 -0.731973
vt 0.048668 -0.666150
vn 0.458700 0.863700 0.209000
vn 0.084900 -0.996400 0.004400
vn -0.000000 -1.000000 0.000000
vn 0.000000 1.000000 0.000000
vn 0.032100 0.682700 0.730000
vn 0.047000 -0.995200 0.085700
vn -0.575500 -0.214400 -0.789200
vn -0.566600 -0.268800 0.778900
vn -0.607500 -0.254000 -0.752600
vn 0.894200 -0.328000 -0.304600
vn 0.987700 -0.000000 0.156400
vn 0.156400 0.000000 -0.987700
vn -0.987700 0.000000 -0.156400
vn -0.156400 0.000000 0.987700
vn 0.708400 0.656300 0.259700
vn 0.548300 -0.348500 0.760200
vn 0.204200 0.977200 -0.057400
vn 0.875200 -0.209900 -0.435900
vn 0.059000 0.867700 0.493500
vn -0.655600 -0.176100 0.734300
vn -0.458600 -0.316500 -0.830400
vn 0.279400 0.935000 0.218400
vn 0.126100 0.934200 0.333800
vn -0.651900 -0.314400 -0.690100
vn -0.136600 0.972300 -0.189600
vn -0.109600 0.977000 0.182700
vn -0.320900 -0.774300 0.545500
vn 0.169200 0.810200 0.561200
vn 0.601000 -0.785200 -0.149200
vn 0.487700 0.801800 0.345200
vn -0.065200 0.973700 0.218300
vn 0.226100 0.974100 -0.000600
vn -0.524700 -0.316500 -0.790300
vn -0.016200 -0.995400 0.094300
vn 0.378500 0.783800 0.492300
vn -0.887100 0.110000 -0.448200
vn -0.532600 0.783800 0.319400
vn 0.989700 0.110000 -0.091900
vn -0.247800 0.070800 -0.966200
vn 0.022900 0.936800 0.349200
vn 0.584700 0.070800 -0.808200
vn -0.149300 0.936800 0.316500
vn -0.535300 -0.688900 0.488800
vn 0.429500 0.860900 -0.272800
vn 0.318900 -0.688900 0.651000
vn -0.299600 0.860900 -0.411200
vn 0.689900 -0.146200 -0.709000
vn -0.876500 0.356400 0.323500
vn 0.954600 -0.101000 -0.280300
vn -0.999400 0.035900 -0.000500
vn 0.970800 0.239800 0.000300
vn 0.072300 0.986300 0.148000
vn -0.382100 -0.146200 -0.912500
vn 0.697000 0.356400 0.622300
vn -0.785500 -0.101000 -0.610600
vn 0.930000 0.035900 0.365800
vn -0.903400 0.239800 -0.355600
vn -0.121600 0.986300 0.111200
vn 0.363500 0.566600 0.739500
vn -0.007000 -0.996000 0.089600
vn -0.609200 0.566500 0.554900
vn -0.026300 -0.996000 0.085900
vn 0.971700 0.182900 -0.149400
vn 0.373600 -0.161800 0.913400
vn -0.849300 0.182900 -0.495100
vn -0.682400 -0.161800 0.712900
vn -0.455900 0.080300 0.886400
vn 0.715700 0.647900 0.260800
vn 0.099300 0.080300 0.991800
vn -0.761500 0.647900 -0.019600
vn 0.542800 0.539900 0.643400
vn -0.888200 0.166300 -0.428400
vn -0.740800 0.539900 0.399700
vn 0.983400 0.166300 -0.073100
vn 0.367200 0.922300 0.120100
vn -0.474600 -0.879800 0.026000
vn -0.385700 0.922300 -0.022800
vn 0.432000 -0.879800 0.198100
vn 0.476200 -0.758300 -0.445200
vn -0.882500 -0.181000 -0.434100
vn -0.279900 -0.758300 -0.588800
vn 0.980200 -0.181000 -0.080400
vn 0.182300 0.587100 0.788700
vn -0.571200 0.698600 0.430800
vn -0.458700 0.587100 0.667000
vn 0.373500 0.698600 0.610200
vn 0.831100 -0.344000 0.436900
vn 0.735400 0.641600 0.218000
vn -0.933400 -0.344000 0.101900
vn -0.764100 0.641600 -0.066700
vn -0.760600 0.154200 -0.630600
vn 0.057900 -0.997700 0.033900
vn 0.938800 0.154200 -0.308000
vn -0.066300 -0.997700 0.010300
vn 0.587900 -0.202100 -0.783300
vn -0.447000 0.794500 0.411000
vn -0.504700 0.630600 -0.589600
vn -0.926300 0.367300 0.083700
vn -0.259900 -0.202100 -0.944300
vn 0.265200 0.794500 0.546200
vn 0.685700 0.630600 -0.363600
vn 0.831200 0.367300 0.417400
vn -0.942700 -0.308500 0.126800
vn 0.212000 0.000600 0.977300
vn 0.830700 -0.308500 0.463500
vn -0.555400 0.000600 0.831600
vn -0.021200 -0.996800 0.077600
vn 0.509300 0.299100 0.807000
vn -0.008700 -0.996800 0.080000
vn -0.769600 0.299100 0.564200
vn 0.626700 0.045900 -0.777900
vn -0.048900 -0.899400 -0.434300
vn -0.298000 0.045900 -0.953500
vn 0.204700 -0.899400 -0.386200
vn -0.244300 0.968000 -0.057600
vn 0.181900 0.938900 0.292300
vn 0.248400 0.968000 0.036000
vn -0.276400 0.938900 0.205300
vn -0.868000 0.352400 0.349800
vn -0.027500 -0.996100 0.083900
vn 0.679500 0.352400 0.643600
vn -0.005100 -0.996100 0.088200
vn 0.978600 -0.187800 -0.084100
vn 0.541100 -0.263900 0.798500
vn -0.879700 -0.187800 -0.436900
vn -0.796100 -0.263900 0.544600
vn -0.059900 -0.997900 0.023000
vn -0.898900 0.235900 -0.369300
vn 0.047300 -0.997900 0.043300
vn 0.971700 0.235900 -0.014100
vn 0.780600 -0.614700 0.113000
vn 0.554400 -0.148300 -0.818900
vn -0.767700 -0.614700 -0.180900
vn -0.215700 -0.148300 -0.965100
vn -0.305500 0.318600 0.897300
vn 0.218500 0.933300 0.285100
vn -0.044600 0.318600 0.946800
vn -0.307800 0.933300 0.185100
vn 0.987600 0.034800 -0.153200
vn -0.390800 -0.025600 -0.920100
vn -0.862700 0.034800 -0.504500
vn 0.700800 -0.025600 -0.712900
usemtl DIEBCOOL
s off
f 73/1/1 33/2/1 40/3/1
f 80/4/2 26/5/2 1/6/2
f 7/7/3 31/8/3 6/9/3
f 30/10/4 4/11/4 32/12/4
f 6/9/3 29/13/3 7/7/3
f 32/12/4 5/14/4 30/10/4
f 8/15/5 33/2/5 61/16/5
f 1/6/6 8/17/6 80/4/6
f 62/18/7 63/19/7 25/20/7
f 61/21/8 25/22/8 65/23/8
f 26/5/9 80/4/9 63/19/9
f 66/23/10 26/24/10 40/21/10
f 7/25/11 29/26/11 5/27/11
f 30/28/12 5/29/12 29/30/12
f 29/30/12 6/31/12 30/28/12
f 4/32/13 30/33/13 6/34/13
f 6/34/13 31/35/13 4/32/13
f 32/36/14 4/37/14 31/38/14
f 5/27/11 32/39/11 7/25/11
f 31/38/14 7/40/14 32/36/14
f 33/2/15 1/41/15 40/3/15
f 8/42/16 1/43/16 33/44/16
f 64/45/17 40/3/17 63/19/17
f 40/46/18 26/24/18 3/47/18
f 33/2/19 73/1/19 61/16/19
f 25/22/20 61/46/20 2/47/20
f 2/48/21 62/18/21 25/20/21
f 62/18/22 2/49/22 61/16/22
f 3/50/23 63/19/23 40/3/23
f 63/19/24 3/51/24 26/5/24
f 62/18/25 64/45/25 63/19/25
f 61/16/26 64/45/26 62/18/26
f 65/52/27 25/20/27 8/17/27
f 8/15/28 61/16/28 65/53/28
f 26/5/29 66/54/29 1/6/29
f 40/3/30 1/41/30 66/55/30
f 61/16/31 73/1/31 64/45/31
f 73/1/32 40/3/32 64/45/32
f 80/4/33 25/20/33 63/19/33
f 80/4/34 8/17/34 25/20/34
usemtl SOLDIER01
f 78/56/35 53/57/35 54/58/35
f 43/59/36 82/60/36 72/61/36
f 79/56/37 52/58/37 51/57/37
f 44/59/38 71/61/38 81/60/38
f 81/60/39 77/62/39 44/59/39
f 41/63/40 79/56/40 13/64/40
f 82/60/41 43/59/41 76/62/41
f 42/63/42 10/64/42 78/56/42
f 11/65/43 72/66/43 56/67/43
f 54/68/44 11/65/44 39/69/44
f 14/65/45 55/67/45 71/66/45
f 52/68/46 38/69/46 14/65/46
f 76/62/47 47/70/47 82/60/47
f 35/71/48 69/72/48 45/73/48
f 75/74/49 59/75/49 47/76/49
f 69/72/50 35/71/50 49/77/50
f 75/74/51 47/76/51 9/78/51
f 45/73/52 36/79/52 9/78/52
f 77/62/53 81/60/53 48/70/53
f 34/71/54 46/73/54 70/72/54
f 74/74/55 48/76/55 60/75/55
f 70/72/56 50/77/56 34/71/56
f 74/74/57 12/78/57 48/76/57
f 46/73/58 12/78/58 37/79/58
f 27/80/59 46/73/59 37/79/59
f 23/81/60 50/82/60 70/83/60
f 28/80/61 36/79/61 45/73/61
f 20/81/62 69/83/62 49/82/62
f 34/84/63 81/60/63 71/61/63
f 71/66/64 24/85/64 34/86/64
f 35/84/65 72/61/65 82/60/65
f 72/66/66 35/86/66 21/85/66
f 57/87/67 36/79/67 28/80/67
f 9/78/68 36/79/68 20/88/68
f 58/87/69 27/80/69 37/79/69
f 12/78/70 23/88/70 37/79/70
f 38/69/71 15/89/71 55/67/71
f 14/65/72 38/69/72 55/67/72
f 39/69/73 56/67/73 16/89/73
f 11/65/74 56/67/74 39/69/74
f 15/89/75 68/90/75 41/91/75
f 15/89/76 77/92/76 55/67/76
f 16/89/77 42/91/77 67/90/77
f 16/89/78 56/67/78 76/92/78
f 43/59/79 10/64/79 42/63/79
f 72/61/80 53/57/80 43/59/80
f 44/59/81 41/63/81 13/64/81
f 71/61/82 44/59/82 51/57/82
f 45/73/83 9/78/83 21/93/83
f 21/93/84 35/71/84 45/73/84
f 46/73/85 24/93/85 12/78/85
f 24/93/86 46/73/86 34/71/86
f 47/94/87 76/92/87 21/85/87
f 47/76/88 21/93/88 9/78/88
f 48/94/89 24/85/89 77/92/89
f 48/76/90 12/78/90 24/93/90
f 35/71/91 19/95/91 49/77/91
f 59/96/92 75/97/92 49/82/92
f 34/71/93 50/77/93 22/95/93
f 60/96/94 50/82/94 74/97/94
f 13/64/95 51/57/95 44/59/95
f 13/64/96 79/56/96 51/57/96
f 18/98/97 52/68/97 14/65/97
f 51/57/98 52/58/98 18/98/98
f 10/64/99 43/59/99 53/57/99
f 10/64/100 53/57/100 78/56/100
f 17/98/101 11/65/101 54/68/101
f 53/57/102 17/98/102 54/58/102
f 55/67/103 77/92/103 24/85/103
f 24/85/104 71/66/104 55/67/104
f 56/67/105 21/85/105 76/92/105
f 21/85/106 56/67/106 72/66/106
f 69/83/107 20/81/107 57/99/107
f 36/79/108 57/87/108 20/88/108
f 70/83/109 58/99/109 23/81/109
f 37/79/110 23/88/110 58/87/110
f 47/76/111 59/75/111 19/95/111
f 19/100/112 59/96/112 49/82/112
f 48/76/113 22/95/113 60/75/113
f 22/100/114 50/82/114 60/96/114
f 39/69/115 16/89/115 67/90/115
f 54/101/116 39/102/116 78/103/116
f 38/69/117 68/90/117 15/89/117
f 52/101/118 79/103/118 38/102/118
f 28/80/119 45/73/119 69/72/119
f 28/104/120 69/83/120 57/99/120
f 27/80/121 70/72/121 46/73/121
f 27/104/122 58/99/122 70/83/122
f 71/61/123 51/57/123 18/105/123
f 71/66/124 18/105/124 14/65/124
f 72/61/125 17/105/125 53/57/125
f 72/66/126 11/65/126 17/105/126
f 74/97/127 50/82/127 23/81/127
f 23/88/128 12/78/128 74/74/128
f 75/97/129 20/81/129 49/82/129
f 20/88/130 75/74/130 9/78/130
f 76/92/131 42/91/131 16/89/131
f 42/63/132 76/62/132 43/59/132
f 77/92/133 15/89/133 41/91/133
f 41/63/134 44/59/134 77/62/134
f 67/106/135 42/63/135 78/56/135
f 67/107/136 78/103/136 39/102/136
f 68/106/137 79/56/137 41/63/137
f 68/107/138 38/102/138 79/103/138
f 22/95/139 81/108/139 34/71/139
f 81/108/140 22/95/140 48/76/140
f 19/95/141 35/71/141 82/108/141
f 82/108/142 47/76/142 19/95/142
