# Blender v2.75 (sub 0) OBJ File: 'Empty.blend'
# www.blender.org
mtllib THRONE_BIG.mtl
o THRONE_BIG
v -0.329822 0.692157 -0.519814
v -0.408429 1.535290 0.549859
v -0.408429 0.822519 0.196107
v 0.329822 0.692157 -0.519814
v 0.408429 0.822519 0.196107
v 0.348811 0.000351 -0.525614
v -0.348811 0.000351 -0.525614
v 0.408429 1.477200 0.280186
v 0.213993 1.842290 0.344348
v -0.406985 1.446690 0.358616
v 0.408354 1.446690 0.358616
v -0.212702 1.842290 0.395644
v -0.301422 1.485090 0.459084
v -0.408429 1.477200 0.280186
v 0.408429 1.535290 0.549859
v 0.302790 1.485090 0.324653
v 0.093805 1.630160 0.358616
v 0.003634 1.938750 0.395644
v -0.096509 1.630160 0.358616
v -0.174247 1.630160 0.545667
v -0.619369 0.000397 -0.525644
v 0.619369 0.000397 -0.525644
v -0.526096 0.691776 -0.519548
v 0.526096 0.691776 -0.519548
v -0.301422 1.485090 0.324653
v 0.302790 1.485090 0.459084
v 0.524429 1.535410 0.549775
v 0.542919 0.715588 0.096062
v 0.541651 0.823100 0.195704
v 0.518903 1.477170 0.280204
v -0.524429 1.535410 0.549775
v -0.542919 0.715588 0.096062
v -0.541651 0.823100 0.195704
v -0.518903 1.477170 0.280204
v 0.408429 0.715519 0.096107
v -0.408429 0.715519 0.096107
v 0.175616 1.630160 0.545667
v -0.212702 1.842290 0.344348
v 0.003634 1.938750 0.344348
v 0.213993 1.842290 0.395644
v -0.408429 1.566740 0.437451
v 0.408429 1.566740 0.437451
v 0.519986 1.566740 0.437449
v -0.519986 1.566740 0.437449
v -0.408429 0.483844 0.147974
v 0.405272 0.483844 0.147974
v 0.366354 0.487156 -0.358168
v 0.324603 0.524814 0.094573
v -0.528599 1.159320 0.192017
v 0.528599 1.159320 0.192017
v -0.649021 0.000328 0.503258
v 0.649021 0.000328 0.503258
v -0.361792 0.481270 -0.358780
v -0.328277 0.518928 0.093961
v -0.319215 1.481000 0.309226
v 0.315626 1.482980 0.309226
v 0.531570 0.515507 -0.565081
v 0.329822 0.515742 -0.565246
v 0.534841 0.463245 -0.521429
v -0.531570 0.515507 -0.565081
v -0.329822 0.515742 -0.565246
v -0.534841 0.463245 -0.521429
v 0.329822 0.463399 -0.521537
v -0.329823 0.463399 -0.521537
v 0.527217 0.628640 -0.565000
v 0.329823 0.628991 -0.565246
v -0.527217 0.628640 -0.565000
v -0.329823 0.628991 -0.565246
v 0.408428 1.159100 0.192183
v -0.408429 1.159100 0.192183
v 0.185223 1.547240 0.309226
v -0.180883 1.548320 0.309226
v 0.408429 0.000351 0.497081
v -0.408429 0.000351 0.497081
v -0.102032 1.907980 0.395644
v 0.108406 1.907050 0.395644
v 0.001262 1.577900 0.309226
v 0.094970 1.913210 0.344348
v -0.089762 1.913450 0.344348
v -0.145118 1.802480 0.358616
v 0.146441 1.802170 0.358616
v -0.060520 1.867330 0.358616
v 0.148840 1.688620 0.358616
v -0.147580 1.684710 0.358616
v 0.055110 1.867330 0.358616
v -0.406985 1.446690 0.545667
v -0.361792 0.337358 -0.425410
v 0.366354 0.343244 -0.424798
v -0.361792 -0.002496 -0.425410
v 0.366354 0.003391 -0.424798
v 0.408354 1.446690 0.545667
vt 0.899131 0.743999
vt 0.455563 0.761423
vt 0.898691 0.859091
vt 0.888514 0.693550
vt 0.410796 0.648043
vt 0.862582 0.602252
vt 0.896310 0.808542
vt 0.409919 0.946470
vt 0.503561 0.652263
vt 0.505117 0.956160
vt 0.800267 0.972774
vt 0.912782 0.562465
vt 0.402785 0.622645
vt 0.836004 0.742563
vt 0.858772 0.648121
vt 0.372556 0.699710
vt 0.798462 0.633840
vt 0.406197 0.579409
vt 0.856004 0.532939
vt 0.469533 0.615425
vt 0.893247 0.648137
vt 0.386411 0.564222
vt 0.900552 0.531937
vt 0.898611 0.714312
vt 0.383567 0.710366
vt 0.345561 0.961100
vt 0.155266 0.961100
vt 0.416071 0.468981
vt 0.484787 0.805259
vt 0.091585 0.468981
vt 0.004960 0.804610
vt 0.001011 0.590274
vt 0.488839 0.582177
vt 0.083963 0.944024
vt -0.387314 -0.442454
vt 0.077899 0.532487
vt 0.488449 0.411663
vt -0.416522 -0.352966
vt 1.094860 -0.342490
vt 1.187150 0.093387
vt 0.232468 0.401657
vt -0.415578 0.128179
vt 0.999501 0.999501
vt 0.614096 0.999501
vt 0.714335 0.000500
vt 0.999500 0.000500
vt 0.147318 0.787093
vt 0.852812 0.787093
vt 0.491281 1.234630
vt 0.748785 0.793925
vt 0.140469 0.235627
vt -0.468893 1.404000
vt -0.052062 1.332970
vt 0.624084 0.900006
vt 1.145100 1.316740
vt 0.749817 1.250010
vt 0.000500 0.000500
vt 0.829959 -0.568568
vt 0.241116 -1.137780
vt 0.490316 -1.567570
vt 0.669831 0.931734
vt 0.380913 0.999501
vt 0.840757 1.579300
vt 0.992085 0.659099
vt 0.981413 1.931450
vt 0.000500 0.999501
vt 0.285664 0.000500
vt 0.590681 -0.623328
vt 0.493865 0.852329
vt 0.280791 -0.623483
vt -0.194924 -3.423130
vt 0.755114 -3.501990
vt -0.195335 -2.502990
vt 0.259042 0.852849
vt 3.223250 -0.844459
vt 2.110470 -0.607820
vt 2.110470 -1.055920
vt -2.223250 -0.844458
vt -1.110470 -1.055920
vt -1.110470 -0.607820
vt 0.026944 0.673281
vt 0.026944 0.471177
vt 0.227515 0.471180
vt 0.755184 -2.871500
vt 0.271072 0.000500
vt 0.271072 0.514096
vt 0.469997 0.514443
vt 0.908888 -3.496050
vt 0.633529 0.530766
vt 0.225569 0.673258
vt 0.453946 0.999459
vt 0.458728 0.927699
vt 0.458728 1.266410
vt 0.269223 0.927703
vt 0.271062 1.266370
vt 0.909509 -2.871500
vt 3.223250 -0.673472
vt 0.235749 -0.844459
vt -0.054723 -0.673472
vt -0.054723 -0.844459
vt 0.267955 -0.673472
vt 0.752815 -0.673472
vt 0.788080 -0.844459
vt 1.065210 -0.673472
vt -2.223250 -0.673472
vt 1.065210 -0.844458
vt -0.295144 1.442450
vt 0.458728 0.685597
vt 0.261675 0.685780
vt 0.026944 0.326719
vt 0.235504 0.326828
vt 0.979725 1.349990
vt 0.491601 0.001387
vt 0.261170 0.013044
vt 0.491581 1.465270
vt 0.379646 1.970520
vt 0.835230 -1.153770
vt 0.991934 -0.423771
vt 0.485133 1.409510
vt 0.490119 1.028390
vt 0.259042 1.029180
vt -0.415553 0.379196
vt 0.259042 1.410690
vt 1.184490 0.373091
vt -0.480326 0.185132
vt 1.254710 0.157387
vt 0.483849 1.622200
vt -0.481562 0.309388
vt 1.254710 0.295858
vt 0.259042 1.623480
vt 0.271072 0.999501
vt 0.457173 0.614070
vt 0.757193 0.894927
vt 0.498602 0.510849
vt 0.757193 0.105073
vt 1.193450 -0.442454
vt 0.513088 -0.844459
vt 0.321894 0.929689
vt 0.495123 0.999500
vt 0.487061 -0.421053
vt 0.503806 0.494027
vt 0.593778 -0.039952
vt 0.750225 0.196546
vt 0.513088 -0.673472
vt 0.429926 0.464836
vt 0.249731 0.400310
vt 0.476375 -0.254302
vt 0.239051 -0.153937
vt 1.250220 0.612138
vt 1.432430 1.052840
vt 1.243330 0.941494
vt 0.231937 -1.455350
vt 0.466763 0.354204
vt 0.503529 0.843963
vt 0.236554 0.367262
vt 0.747307 0.874517
vt 0.588297 1.043170
vt 0.030610 -0.974294
vt 0.950729 0.641353
vt 0.231117 0.770418
vt 0.000500 0.017508
vt 0.999500 0.982492
vn 0.035000 0.209900 -0.977100
vn -0.106100 0.218100 -0.970100
vn -0.000900 0.199500 -0.979900
vn -0.008900 0.996500 -0.083700
vn 0.602200 0.168800 -0.780300
vn 0.468500 0.883000 -0.030200
vn -0.008000 0.996600 -0.082300
vn -0.601100 0.171700 -0.780500
vn -0.425200 0.904100 -0.043700
vn -0.536700 0.189100 -0.822300
vn 0.518700 0.191500 -0.833200
vn 0.107600 0.218300 -0.969900
vn -0.034000 0.209200 -0.977300
vn -0.002600 0.420100 -0.907500
vn 0.000000 0.000000 -1.000000
vn 1.000000 0.000000 0.000000
vn -0.991000 0.130800 -0.028600
vn -0.993000 0.057700 0.102800
vn 0.979900 0.179700 -0.086300
vn 0.993000 0.057700 0.102800
vn -0.979900 0.179700 -0.086300
vn -1.000000 -0.000000 -0.000000
vn 0.991000 0.130800 -0.028600
vn 0.492000 0.843600 -0.215200
vn 0.000000 0.174900 0.984600
vn 0.215000 0.000400 -0.976600
vn -0.998800 0.038500 -0.028800
vn 0.998800 0.038500 -0.028800
vn -0.214900 0.000400 -0.976600
vn 0.000000 0.000000 1.000000
vn 0.000000 1.000000 0.000000
vn 0.097800 0.586600 -0.803900
vn -0.497700 0.842300 -0.206900
vn 0.000100 0.009100 -1.000000
vn -0.000100 0.009100 -1.000000
vn -0.002000 0.999200 -0.038700
vn -0.000500 0.008800 -1.000000
vn 0.002000 0.999200 -0.038700
vn 0.000500 0.008800 -1.000000
vn -0.970500 0.241100 0.000000
vn 0.970500 0.241200 0.000000
vn -0.000000 0.869000 -0.494800
vn -0.000500 0.999300 -0.037800
vn -0.001400 -0.011700 -0.999900
vn -0.000600 0.679700 -0.733400
vn 0.991300 0.095500 -0.090500
vn 0.000300 0.868900 -0.495000
vn -0.001800 0.267300 -0.963600
vn 0.000500 0.999300 -0.037800
vn 0.001400 -0.011700 -0.999900
vn 0.000600 0.679700 -0.733400
vn -0.991300 0.095500 -0.090500
vn -0.000300 0.868900 -0.495000
vn 0.001800 0.267300 -0.963600
vn -0.005200 0.682800 -0.730600
vn 0.005200 0.682800 -0.730600
vn -0.510400 0.859900 0.000000
vn -0.500800 0.865100 -0.027500
vn 0.511600 0.858700 -0.030900
vn 0.522800 0.852400 0.000000
vn 0.000800 0.963000 0.269400
vn -0.000800 0.963000 0.269400
vn 0.000000 0.963200 0.268700
vn 0.003000 -0.011100 -0.999900
vn -0.968900 0.034900 -0.244800
vn -0.003000 -0.011100 -0.999900
vn 0.968900 0.034900 -0.244800
vn -0.993700 0.082900 -0.075600
vn 0.993700 0.082900 -0.075600
vn -0.486500 0.823200 -0.292600
vn 0.481100 0.824800 -0.297200
vn 0.000800 0.000700 -1.000000
vn 0.001200 -0.000000 -1.000000
vn -0.991900 -0.001000 0.126600
vn -0.000100 -0.641100 -0.767500
vn -0.000800 0.000700 -1.000000
vn -0.001200 -0.000000 -1.000000
vn 0.991900 -0.001000 0.126600
vn 0.000100 -0.641100 -0.767500
vn -0.000100 -0.641000 -0.767600
vn 0.000100 -0.641000 -0.767600
vn 0.002100 0.584300 -0.811600
vn 0.002200 0.583900 -0.811800
vn -0.002100 0.584300 -0.811600
vn -0.002200 0.583900 -0.811800
vn 0.000200 0.266600 -0.963800
vn -0.000200 0.266600 -0.963800
vn 0.364200 0.739100 -0.566700
vn -0.351300 0.722000 -0.596100
vn 0.000000 0.686900 -0.726800
vn -0.997400 -0.041400 0.058100
vn 0.997400 -0.041400 0.058100
vn -0.279400 0.959500 0.035500
vn 0.289400 0.956400 0.039100
vn -0.094900 0.584200 -0.806000
vn -0.067700 -0.242200 -0.967900
vn 0.269300 0.963100 0.000000
vn 0.126700 -0.219000 -0.967500
vn -0.261500 0.965200 0.000000
vn 0.117100 -0.152800 -0.981300
vn 0.204200 -0.004300 -0.978900
vn -0.204200 -0.004300 -0.978900
vn -0.118800 -0.199300 -0.972700
vn 0.000000 -0.195900 -0.980600
vn 0.069000 -0.254700 -0.964600
vn -0.097400 0.091700 -0.991000
vn 0.098800 0.092500 -0.990800
vn -0.113100 -0.158500 -0.980900
vn -0.619100 0.785300 0.000000
vn 0.000800 0.000000 -1.000000
vn 0.619100 0.785300 0.000000
usemtl OLDCAMP_THRONE_03
s off
f 71/1/1 48/2/1 77/3/1
f 72/4/2 54/5/2 55/6/2
f 54/5/3 77/7/3 48/8/3
f 54/9/4 48/10/4 47/11/4
f 11/12/5 46/13/5 48/2/5
f 48/14/6 46/15/6 47/16/6
f 47/11/7 53/17/7 54/9/7
f 54/5/8 45/18/8 10/19/8
f 45/20/9 54/9/9 53/17/9
f 55/6/10 54/5/10 10/19/10
f 11/12/11 48/2/11 56/21/11
f 56/21/12 48/2/12 71/1/12
f 72/4/13 77/7/13 54/5/13
f 88/22/14 87/23/14 53/24/14
f 53/24/14 47/25/14 88/22/14
usemtl OLDCAMP_THRONE_01
f 82/26/15 85/27/15 19/28/15
f 80/29/15 82/26/15 19/28/15
f 85/27/15 17/30/15 19/28/15
f 17/30/15 81/31/15 83/32/15
f 84/33/15 80/29/15 19/28/15
f 85/27/15 81/31/15 17/30/15
usemtl OLDCAMP_THRONE_02
f 70/34/16 74/35/16 3/36/16
f 32/37/17 21/38/17 51/39/17
f 63/40/18 73/35/18 35/41/18
f 22/38/19 59/42/19 28/37/19
f 74/35/20 64/40/20 36/41/20
f 62/42/21 21/38/21 32/37/21
f 73/35/22 69/34/22 5/36/22
f 22/38/23 28/37/23 52/39/23
f 11/43/24 17/44/24 37/45/24
f 13/46/25 40/47/25 12/48/25
f 38/49/26 84/50/26 25/51/26
f 2/52/16 74/35/16 14/53/16
f 49/54/27 31/55/27 34/56/27
f 73/35/22 15/52/22 8/53/22
f 27/55/28 50/54/28 30/56/28
f 26/57/25 40/47/25 13/46/25
f 16/58/29 83/59/29 9/60/29
f 75/61/30 12/48/30 40/47/30
f 37/45/31 17/44/31 19/62/31
f 17/63/32 71/64/32 77/65/32
f 10/66/33 20/67/33 19/62/33
f 21/68/34 62/69/34 7/70/34
f 59/69/35 22/68/35 6/70/35
f 23/71/36 32/72/36 1/73/36
f 64/74/37 7/70/37 62/69/37
f 28/72/38 24/71/38 4/73/38
f 6/70/39 63/74/39 59/69/39
f 12/75/40 25/76/40 13/77/40
f 40/78/41 26/79/41 16/80/41
f 8/81/42 42/82/42 43/83/42
f 4/73/43 35/84/43 28/72/43
f 5/85/44 69/86/44 50/87/44
f 29/88/45 28/72/45 35/84/45
f 29/89/46 52/39/46 28/37/46
f 43/83/47 30/90/47 8/81/47
f 30/91/48 50/87/48 69/86/48
f 41/92/42 14/93/42 44/94/42
f 36/84/49 1/73/49 32/72/49
f 70/86/50 3/85/50 49/87/50
f 32/72/51 33/88/51 36/84/51
f 51/39/52 33/89/52 32/37/52
f 34/95/53 44/94/53 14/93/53
f 49/87/54 34/91/54 70/86/54
f 73/35/22 5/36/22 35/41/22
f 35/84/55 5/96/55 29/88/55
f 3/36/16 74/35/16 36/41/16
f 3/96/56 36/84/56 33/88/56
f 19/62/31 20/67/31 37/45/31
f 25/76/40 12/75/40 38/97/40
f 75/98/57 38/99/57 12/100/57
f 38/99/58 75/98/58 79/101/58
f 78/102/59 76/103/59 9/104/59
f 16/80/41 9/105/41 40/78/41
f 76/103/60 40/106/60 9/104/60
f 41/107/16 2/52/16 14/53/16
f 2/108/61 41/92/61 31/109/61
f 15/52/22 42/107/22 8/53/22
f 42/82/62 15/110/62 27/111/62
f 27/111/63 43/83/63 42/82/63
f 43/112/28 27/55/28 30/56/28
f 44/94/63 31/109/63 41/92/63
f 31/55/27 44/112/27 34/56/27
f 33/113/64 49/87/64 3/85/64
f 51/39/65 49/54/65 33/89/65
f 50/87/66 29/113/66 5/85/66
f 50/54/67 52/39/67 29/89/67
f 51/39/68 31/55/68 49/54/68
f 27/55/69 52/39/69 50/54/69
f 19/114/70 55/115/70 10/116/70
f 17/63/71 11/117/71 56/118/71
f 65/119/72 57/120/72 58/121/72
f 28/37/28 59/42/28 24/122/28
f 58/121/73 66/123/73 65/119/73
f 63/40/74 35/41/74 4/124/74
f 57/120/75 59/69/75 63/74/75
f 59/42/28 57/125/28 24/122/28
f 60/120/76 67/119/76 61/121/76
f 62/42/27 32/37/27 23/122/27
f 68/123/77 61/121/77 67/119/77
f 36/41/78 64/40/78 1/124/78
f 62/69/79 60/120/79 64/74/79
f 60/125/27 62/42/27 23/122/27
f 58/126/22 63/40/22 4/124/22
f 63/74/80 58/121/80 57/120/80
f 64/40/16 61/126/16 1/124/16
f 61/121/81 64/74/81 60/120/81
f 24/127/82 65/119/82 66/123/82
f 57/125/28 65/128/28 24/122/28
f 66/129/22 58/126/22 4/124/22
f 66/123/83 4/130/83 24/127/83
f 67/119/84 23/127/84 68/123/84
f 67/128/27 60/125/27 23/122/27
f 61/126/16 68/129/16 1/124/16
f 1/130/85 68/123/85 23/127/85
f 73/35/22 8/53/22 69/34/22
f 69/86/86 8/131/86 30/91/86
f 14/53/16 74/35/16 70/34/16
f 14/131/87 70/86/87 34/91/87
f 17/63/88 56/118/88 71/64/88
f 19/114/89 72/132/89 55/115/89
f 17/133/90 77/134/90 19/135/90
f 63/40/91 6/136/91 73/35/91
f 7/136/92 64/40/92 74/35/92
f 18/137/93 79/101/93 75/98/93
f 40/47/30 76/138/30 75/61/30
f 76/103/94 78/102/94 18/137/94
f 76/138/30 18/139/30 75/61/30
f 19/114/95 77/140/95 72/132/95
f 39/141/96 78/142/96 85/143/96
f 78/102/97 39/144/97 18/137/97
f 79/145/98 82/146/98 38/147/98
f 79/101/99 18/137/99 39/144/99
f 80/148/100 38/147/100 82/146/100
f 84/149/101 38/150/101 80/151/101
f 83/59/102 81/152/102 9/60/102
f 78/153/103 9/154/103 85/155/103
f 82/156/104 39/141/104 85/143/104
f 39/141/105 82/156/105 79/157/105
f 83/59/106 16/58/106 17/158/106
f 19/159/107 25/51/107 84/50/107
f 81/160/108 85/155/108 9/154/108
f 20/67/109 10/66/109 86/57/109
f 90/161/110 89/46/110 87/162/110
f 87/162/110 88/66/110 90/161/110
f 37/45/111 91/46/111 11/43/111
