# Blender v2.75 (sub 0) OBJ File: 'Empty.blend'
# www.blender.org
mtllib TPL_BRIDGE_V1.mtl
o TPL_BRIDGE_V1
v 1.261944 6.522259 -0.807043
v 1.214050 -7.348523 7.493952
v -1.340460 6.605517 11.083928
v 1.214050 -7.348523 -8.197501
v -1.340460 6.605517 -11.987476
v 1.214100 -7.348523 -2.070488
v 1.261895 5.060293 5.284466
v -1.482031 5.060293 -4.068338
v 1.261895 5.060293 -6.178689
v -1.520105 -7.348523 0.951294
v 1.214050 -7.348523 0.951294
v -1.520105 -7.348523 7.493952
v -1.482093 5.060293 5.284405
v -1.520117 -7.348523 -2.070476
v 1.261870 2.923584 0.987442
v -1.482056 2.923584 0.987442
v 1.261944 6.522259 -11.987514
v 1.261944 6.522259 11.083964
v -1.520105 -7.348523 -8.197501
v -1.482056 2.923584 -8.161353
v 1.261919 2.923584 -1.881763
v -1.482093 2.923584 -1.881776
v -1.482056 2.923584 7.457804
v 1.261870 2.923584 7.457804
v 1.261870 2.923584 -8.161353
v -1.482093 5.060293 -6.178702
v 1.261919 5.060293 3.174005
v 1.261895 5.060293 -4.068314
v -1.482056 5.060293 3.174066
v -0.582449 5.847508 -0.807006
v -1.437074 4.273086 -0.807030
v -1.482093 2.923584 11.127021
v -1.482093 2.923584 -12.030571
v 0.153502 6.522259 -12.071421
v 1.261919 2.923584 -12.030559
v 1.261919 2.923584 11.127009
v 1.214100 -7.348523 -12.219283
v 1.214100 -7.348523 11.315735
v -1.520117 -7.348523 -12.219271
v -1.520117 -7.348523 11.315722
v 1.261944 4.273086 -0.807043
vt 0.134440 0.022319
vt -1.847391 -0.087693
vt 0.134442 0.341124
vt 1.997843 -0.087693
vt 2.011837 0.157758
vt -1.847393 0.341124
vt 1.997854 0.341124
vt -1.784857 -0.999010
vt -1.203329 -0.999010
vt -1.209058 0.629010
vt -1.212401 1.616618
vt -1.206246 0.008942
vt -1.830916 0.008942
vt 1.177585 -0.998927
vt 1.798283 -0.998927
vt 1.183384 0.648928
vt 1.172537 -0.001280
vt 1.178337 1.646840
vt 1.793329 -0.001280
vt -0.272889 -0.001264
vt -0.266416 1.346824
vt 0.240871 -0.001264
vt -0.199777 -0.990615
vt 0.172062 -0.990615
vt -0.195092 0.340616
vt -0.191878 1.338685
vt 0.162401 1.338685
vt -0.186948 0.007663
vt 0.196517 0.340616
vt 0.274664 1.346824
vt 0.171029 1.628755
vt -0.251537 1.628755
vt -0.245657 0.001244
vt 0.178419 0.001244
vt 0.168598 0.007663
vt 0.159644 0.349150
vt -0.199184 0.349150
vt -0.194194 -0.999150
vt -0.223240 1.646438
vt 0.182978 1.646438
vt -0.217587 0.000641
vt 0.190083 0.000641
vt 0.165920 -0.999150
vt 1.823608 1.646840
vt -1.863046 1.616618
vt 1.828553 0.648928
vt -1.814764 0.629010
vt 0.119507 -0.960464
vt -1.862327 -0.960464
vt -0.544001 -0.713796
vt -1.858194 0.004717
vt 0.135223 0.005700
vt -0.528292 0.192720
vt 0.119507 -0.580976
vt 1.982919 -0.960464
vt 0.663053 -0.713796
vt 2.010999 0.004530
vt 1.342178 0.577335
vt 1.030665 0.210855
vt -0.169370 -0.191890
vt -0.169357 -0.701426
vt -0.626690 -0.191893
vt -0.179573 -0.353283
vt 0.135460 0.290327
vt -0.163709 0.512595
vt -0.527971 0.162919
vt -0.626687 -0.701437
vt -0.182018 0.272215
vt -0.182012 0.758026
vt 0.275313 0.272214
vt 1.068295 -0.011892
vt 1.068297 -0.521426
vt 0.610962 -0.521423
vt 0.314493 0.512596
vt 0.610974 -0.011887
vt -1.223141 0.579291
vt -0.879532 0.211129
vt -0.496424 -0.834602
vt -0.540699 -0.328566
vt -0.085107 -0.288718
vt -0.040843 -0.794747
vt -1.257967 -0.353283
vt -0.895744 -0.713796
vt 0.275309 0.758026
vt 1.345226 -0.353283
vt 1.014782 -0.713796
vt 0.679421 0.192445
vt 0.688776 0.013067
vt 1.019063 0.013077
vt 1.019062 -0.416377
vt -0.529001 -0.500320
vt -0.880744 -0.500316
vt -0.529011 -0.042991
vt 0.688773 -0.416377
vt -0.880734 -0.042984
vt 0.679093 0.162918
vt -1.833837 0.611298
vt 1.986162 0.611086
vt 1.990093 -0.353283
vt -1.869501 -0.353283
vt 0.298627 -0.353283
vn -0.342400 0.936000 -0.081500
vn -0.342300 0.935600 0.086600
vn 0.055300 0.998500 -0.005400
vn 0.032000 0.999500 0.000000
vn 0.000000 1.000000 0.000000
vn -1.000000 0.003700 -0.000000
vn 1.000000 -0.004700 -0.000000
vn 0.000000 -0.003500 1.000000
vn 0.000000 -0.003500 -1.000000
vn -0.000000 0.018400 -0.999800
vn 1.000000 -0.000000 0.000000
vn -0.846500 0.525200 -0.087400
vn -0.999600 0.018100 -0.019600
vn 0.000000 -0.715200 0.698900
vn -0.999800 0.014500 -0.014200
vn -0.000000 -0.680200 0.733000
vn 0.000000 -0.715200 -0.698900
vn -0.999400 0.033300 0.000000
vn -0.999600 0.019500 0.019200
vn 0.000000 -0.713100 -0.701100
vn -0.995800 0.091400 0.000000
vn 0.000000 -1.000000 -0.000000
vn 1.000000 -0.000100 0.000000
vn -0.995800 0.091300 -0.000000
vn -0.826000 0.555800 0.093700
vn -0.874100 0.474500 -0.103700
vn -0.999700 0.018800 0.018300
vn -0.871800 0.473200 0.126200
vn -0.999300 0.038400 -0.000000
usemtl OTFLTILE02
s off
f 30/1/1 3/2/1 1/3/1
f 5/4/2 30/1/2 1/3/2
f 1/3/3 34/5/3 5/4/3
f 18/6/4 1/3/4 3/2/4
f 1/3/5 17/7/5 34/5/5
usemtl OTWABIGSMALLSTONE
f 32/8/6 23/9/6 12/10/6
f 2/11/7 24/12/7 36/13/7
f 20/14/6 33/15/6 19/16/6
f 25/17/7 4/18/7 35/19/7
f 15/20/7 11/21/7 21/22/7
f 16/23/6 22/24/6 10/25/6
f 10/26/8 11/27/8 16/28/8
f 14/29/6 10/25/6 22/24/6
f 11/21/7 6/30/7 21/22/7
f 2/31/9 12/32/9 23/33/9
f 23/33/9 24/34/9 2/31/9
f 15/35/8 16/28/8 11/27/8
f 6/36/10 14/37/10 22/38/10
f 19/39/8 4/40/8 20/41/8
f 25/42/8 20/41/8 4/40/8
f 21/43/10 6/36/10 22/38/10
f 4/18/7 37/44/7 35/19/7
f 38/45/7 2/11/7 36/13/7
f 39/46/6 19/16/6 33/15/6
f 12/10/6 40/47/6 32/8/6
usemtl OTODWASMALLSONEMI
f 1/48/11 18/49/11 27/50/11
f 3/51/12 30/52/12 29/53/12
f 41/54/11 1/48/11 27/50/11
f 17/55/11 1/48/11 28/56/11
f 1/48/11 41/54/11 28/56/11
f 5/57/13 20/58/13 26/59/13
f 15/60/14 27/61/14 16/62/14
f 15/63/11 41/54/11 27/50/11
f 31/64/15 16/65/15 29/66/15
f 29/67/14 16/62/14 27/61/14
f 26/68/16 20/69/16 9/70/16
f 28/71/17 21/72/17 22/73/17
f 31/64/18 22/74/18 16/65/18
f 22/73/17 8/75/17 28/71/17
f 23/76/19 3/51/19 13/77/19
f 23/78/20 13/79/20 7/80/20
f 7/80/20 24/81/20 23/78/20
f 18/49/11 24/82/11 7/83/11
f 25/84/16 9/70/16 20/69/16
f 25/85/11 17/55/11 9/86/11
f 26/59/21 8/87/21 5/57/21
f 8/88/22 26/89/22 9/90/22
f 27/91/22 7/92/22 29/93/22
f 7/83/23 27/50/23 18/49/23
f 9/90/22 28/94/22 8/88/22
f 28/56/11 9/86/11 17/55/11
f 29/53/24 13/77/24 3/51/24
f 13/95/22 29/93/22 7/92/22
f 30/52/25 5/57/25 8/87/25
f 30/52/26 31/64/26 29/66/26
f 22/74/27 31/64/27 8/96/27
f 31/64/28 30/52/28 8/96/28
f 32/97/29 3/51/29 23/76/29
f 5/57/29 33/98/29 20/58/29
f 35/99/11 17/55/11 25/85/11
f 18/49/11 36/100/11 24/82/11
f 21/101/11 41/54/11 15/63/11
f 41/54/11 21/101/11 28/56/11
