# Blender v2.75 (sub 0) OBJ File: 'Empty.blend'
# www.blender.org
mtllib TPL_EVT_BRIDGEFUNCTIONAL_01.mtl
o TPL_EVT_BRIDGEFUNCTIONAL_01
v 3.698182 -0.741886 -11.606367
v 3.698182 -0.741886 11.606374
v -3.542680 -0.741886 11.606374
v -3.542680 -0.741886 -11.606367
v -3.398158 0.714587 -11.605012
v -3.398158 0.714587 11.598225
v 3.398158 0.714587 11.598225
v 3.398158 0.714587 -11.605012
v -3.927752 -0.741886 -10.615135
v -3.927752 -0.741886 10.615141
v 4.076600 -0.741886 -10.615135
v 4.076600 -0.741886 10.615141
v 3.398158 0.714587 7.956306
v -3.927752 -0.741886 -4.601398
v 3.398157 0.714587 4.795530
v 4.076600 -0.741886 7.634230
v 4.076600 -0.741886 0.000003
v 4.076600 -0.741886 4.601404
v 3.398158 0.714587 -7.956299
v 4.076600 -0.741886 -7.634224
v 4.076600 -0.741886 -4.601398
v -3.927752 -0.741886 7.634230
v -3.927752 -0.741886 -7.634224
v 3.398157 0.714587 0.000003
v 3.398157 0.714587 -4.795523
v -3.398158 0.714587 7.956306
v -0.318283 -0.741886 -7.525576
v -0.229679 -0.741886 -4.610911
v -0.060584 -0.741886 4.652013
v -0.012778 -0.741886 7.632185
v -3.927752 -0.741886 4.601404
v -3.927752 -0.741886 0.000003
v -3.398158 0.714587 4.795530
v -3.398158 0.714587 0.000003
v -3.398158 0.714587 -4.795523
v -3.398158 0.714587 -7.956299
vt 0.477499 -1.275335
vt -0.167030 -1.772371
vt -0.167030 -1.266900
vt -0.194517 -2.091260
vt -0.194517 -2.712595
vt 1.164746 -2.712595
vt 1.167030 0.772371
vt 0.449316 0.268486
vt 0.434549 0.754263
vt -0.194516 1.712595
vt 1.164747 1.091260
vt 1.164747 1.712595
vt -0.164747 1.131441
vt 1.223420 0.933310
vt 1.194516 1.131441
vt 1.420280 0.956766
vt 2.026845 0.855780
vt 2.091260 1.163706
vt -0.194517 1.131441
vt -0.223421 0.933310
vt 1.224751 0.933310
vt 2.712595 1.131441
vt 1.164746 1.131441
vt 1.459105 1.268951
vt 0.500000 1.007430
vt -0.224752 0.933310
vt -0.224752 1.821274
vt 1.300435 1.623028
vt 1.223420 1.821275
vt -1.712595 1.131441
vt -1.821275 0.933310
vt -1.623028 0.829870
vt 1.223421 -2.821274
vt 1.300436 -2.623028
vt -0.300435 -2.623028
vt 2.623028 0.829870
vt 2.821274 0.933310
vt -0.300436 1.623028
vt -0.224751 -2.821275
vt 1.164746 -2.091260
vt -1.091261 1.163706
vt -0.167029 0.772371
vt -0.167029 0.266900
vt -1.026846 0.855781
vt -0.420281 0.956766
vt -0.459106 1.268951
vt -0.194517 -1.459105
vt 1.164747 -1.459105
vt 0.485466 -1.772030
vt 1.167029 -0.500000
vt -0.167029 -0.500000
vt 0.500000 1.321754
vt 1.167029 -1.266900
vt -0.194516 1.091261
vt 1.164747 0.459105
vt 1.167030 1.269190
vt 1.167030 0.266900
vt -0.167030 -2.269190
vt -0.167029 1.269190
vt -0.194516 -0.500000
vt 1.164747 -0.500000
vt -0.194516 0.459106
vt 1.167029 -1.772371
vt 1.167029 -2.269190
vn 0.000000 -1.000000 0.000000
vn 0.000000 1.000000 0.000000
vn 0.000000 0.000900 -1.000000
vn -0.939800 0.341700 0.000000
vn 0.000000 0.005600 1.000000
vn 0.906500 0.422200 0.000000
vn -0.928100 0.092400 -0.360600
vn -0.928000 0.094100 0.360500
vn 0.917300 0.189300 -0.350200
vn 0.917100 0.190900 0.350100
usemtl TPL_EVT_BRIDGE_TEIL1_01
s off
f 29/1/1 22/2/1 31/3/1
f 26/4/2 6/5/2 7/6/2
f 20/7/1 28/8/1 27/9/1
f 5/10/2 19/11/2 8/12/2
f 8/13/3 4/14/3 5/15/3
f 31/16/4 22/17/4 26/18/4
f 6/19/5 3/20/5 2/21/5
f 22/17/4 6/22/4 26/18/4
f 6/19/5 2/21/5 7/23/5
f 25/24/6 17/25/6 21/16/6
f 8/13/3 1/26/3 4/14/3
f 8/22/6 19/18/6 20/17/6
f 1/27/1 9/28/1 4/29/1
f 5/30/7 4/31/7 9/32/7
f 3/33/1 10/34/1 12/35/1
f 10/36/8 3/37/8 6/22/8
f 1/27/1 11/38/1 9/28/1
f 8/22/9 11/36/9 1/37/9
f 3/33/1 12/35/1 2/39/1
f 7/30/10 2/31/10 12/32/10
f 26/4/2 7/6/2 13/40/2
f 13/41/6 7/30/6 12/32/6
f 23/42/1 28/8/1 14/43/1
f 23/44/4 14/45/4 35/46/4
f 33/47/2 13/40/2 15/48/2
f 15/46/6 13/41/6 16/44/6
f 13/41/6 12/32/6 16/44/6
f 29/1/1 30/49/1 22/2/1
f 17/50/1 29/1/1 32/51/1
f 24/52/6 18/45/6 17/25/6
f 17/50/1 18/53/1 29/1/1
f 15/46/6 16/44/6 18/45/6
f 36/54/2 25/55/2 19/11/2
f 19/18/6 25/24/6 21/16/6
f 11/56/1 20/7/1 27/9/1
f 8/22/6 20/17/6 11/36/6
f 20/7/1 21/57/1 28/8/1
f 19/18/6 21/16/6 20/17/6
f 30/49/1 10/58/1 22/2/1
f 22/17/4 10/36/4 6/22/4
f 36/41/4 9/32/4 23/44/4
f 11/56/1 27/9/1 9/59/1
f 34/60/2 15/48/2 24/61/2
f 24/52/6 15/46/6 18/45/6
f 35/62/2 24/61/2 25/55/2
f 25/24/6 24/52/6 17/25/6
f 33/47/2 26/4/2 13/40/2
f 31/16/4 26/18/4 33/24/4
f 27/9/1 28/8/1 23/42/1
f 9/59/1 27/9/1 23/42/1
f 28/8/1 17/50/1 32/51/1
f 21/57/1 17/50/1 28/8/1
f 29/1/1 16/63/1 30/49/1
f 18/53/1 16/63/1 29/1/1
f 30/49/1 12/64/1 10/58/1
f 16/63/1 12/64/1 30/49/1
f 14/45/4 32/25/4 34/52/4
f 28/8/1 32/51/1 14/43/1
f 32/51/1 29/1/1 31/3/1
f 32/25/4 31/16/4 33/24/4
f 34/60/2 33/47/2 15/48/2
f 32/25/4 33/24/4 34/52/4
f 35/62/2 34/60/2 24/61/2
f 14/45/4 34/52/4 35/46/4
f 36/54/2 35/62/2 25/55/2
f 23/44/4 35/46/4 36/41/4
f 5/10/2 36/54/2 19/11/2
f 36/41/4 5/30/4 9/32/4
