# Blender v2.75 (sub 0) OBJ File: 'Empty.blend'
# www.blender.org
mtllib TPL_EVT_BRIDGEBROKEN_01.mtl
o TPL_EVT_BRIDGEBROKEN_01
v 5.448125 3.091223 -2.110947
v -5.550410 -0.995835 1.168965
v 6.131445 -8.508467 -1.836274
v -6.683457 -7.897065 -6.086250
v -6.365273 -6.956606 1.761597
v -9.648125 -5.467891 -1.854028
v 2.226621 -0.995835 4.077510
v -8.671387 -5.030869 -5.924927
v 0.055859 2.429551 0.427402
v 1.041680 2.547236 8.275249
v 1.787031 5.161138 0.588726
v 3.060703 5.012684 8.176675
v -2.402109 -8.503811 -4.792339
v -4.285215 4.198198 -0.613936
v 2.543769 3.905923 2.916411
v -7.403809 -4.224319 1.663022
v 0.972070 5.854590 4.659624
v -6.791836 -3.696487 -5.004345
v -2.494648 -0.276406 -4.566250
v 3.800586 4.687570 1.509307
v -5.409101 2.806643 1.317490
v -8.106874 -7.769958 -1.384248
v -0.442227 3.769029 5.129404
v -5.199297 -7.242598 -4.662568
v 1.285508 1.371721 1.851084
v -3.079941 4.107755 1.832798
v 4.563906 3.814029 -0.002939
v -3.842656 3.539833 -1.572588
v -3.979277 1.974473 -1.526284
v 0.666367 2.250544 -3.790122
v 0.416309 -0.075823 -3.808472
v -4.123496 -0.151484 -1.478652
v 4.576602 3.504366 -0.001489
v -1.371855 -0.114685 -2.248491
v -0.773672 2.132663 -2.460171
v 6.021465 -3.079800 -1.851719
v -5.234922 -8.176775 1.588096
v 4.819492 -2.419727 0.026299
v 2.327852 -8.176775 4.114356
vt 0.655047 -0.398394
vt 0.529432 0.000191
vt 0.296676 -0.578762
vt 0.050212 -0.147847
vt 0.481170 -1.004358
vt 0.818897 -0.357178
vt 0.265741 -0.158394
vt 0.050636 -0.854963
vt -0.578262 -1.949962
vt 1.555126 -1.948798
vt 1.578261 0.108053
vt -0.199701 -0.275099
vt 1.004850 -1.170653
vt 1.408877 -0.586783
vt -0.407432 0.949961
vt -0.550767 -0.592795
vt 0.788007 0.739791
vt 1.411416 -0.587073
vt 0.266290 -0.022676
vt -0.220939 -0.282113
vt -0.119892 -0.953930
vt 0.000496 -0.357178
vt 0.671434 -1.004358
vt 0.844713 -0.578762
vt 0.949788 -0.147847
vt 0.207645 -0.147847
vt -0.360947 -0.464583
vt -0.585724 -0.850868
vt 1.585721 -0.165181
vt 1.475644 -0.057244
vt -0.538253 -0.066111
vt 1.502192 -0.448584
vt 0.850522 0.158199
vt 0.893155 -0.409037
vt 1.034165 -0.970874
vt 1.538246 -0.980074
vt -0.538246 -0.701303
vt -0.034165 -0.418018
vt -0.229560 0.070596
vt -0.535079 0.011305
vt 0.501820 -0.961158
vt 0.498180 -0.118849
vt 0.629369 0.170654
vt 0.439306 -0.379566
vt -0.064506 0.603040
vt -0.880306 -0.297000
vt -0.070064 -0.581778
vt 1.185682 -1.704794
vt 1.133174 -0.268606
vt 0.534237 -0.099736
vt 0.528014 0.000191
vt 0.000503 -0.398394
vt 0.219103 -0.854963
vt 0.950650 0.868391
vt -0.639924 0.354265
vt -0.668185 -0.406231
vt 0.887221 -0.406231
vt -0.064216 0.664973
vt -0.648086 0.683352
vt 0.949364 -0.854963
vt 0.470568 0.000191
vt 0.882798 -0.158394
vt 0.514198 0.325456
vt 1.149475 0.491890
vt 0.518830 -1.004358
vt -0.174092 0.908757
vt 0.305540 -0.713793
vt 0.357386 0.520412
vt 0.706070 0.770201
vt 0.494997 0.638528
vt -0.210336 -1.770201
vt -0.161481 -0.124720
vt 0.302451 -1.799526
vt -0.887675 -1.733188
vn -0.780600 -0.573400 -0.248800
vn -0.805800 -0.546000 -0.229200
vn 0.897400 0.416900 0.144300
vn -0.814100 0.530000 -0.237200
vn 0.795900 -0.589500 0.138100
vn 0.770700 -0.626500 0.116100
vn -0.826400 0.503800 -0.251300
vn 0.327200 0.029600 -0.944500
vn -0.023600 0.998600 -0.047800
vn 0.332700 -0.008700 -0.943000
vn 0.927400 0.356600 0.113300
vn -0.124000 0.956600 -0.263800
vn 0.069800 0.981300 -0.179300
vn 0.278300 -0.956000 0.093100
vn -0.743000 -0.662800 0.093100
vn 0.627200 0.209400 -0.750100
vn 0.304100 -0.945400 0.117600
vn 0.486100 -0.446200 -0.751400
vn -0.722400 -0.681400 0.117600
vn -0.514700 0.809100 0.283500
vn -0.134300 0.960500 -0.243600
vn 0.583700 0.769600 -0.259100
vn 0.183100 -0.045000 -0.982100
vn 0.316800 -0.026600 -0.948100
vn -0.278900 -0.016200 -0.960200
vn 0.258500 -0.140300 -0.955800
vn -0.269400 -0.003300 -0.963000
vn -0.028900 0.998000 -0.055600
vn 0.183500 0.002900 -0.983000
vn -0.655100 0.103900 -0.748400
vn -0.057900 0.997500 -0.041500
vn -0.147900 0.986300 -0.072700
vn -0.679800 0.078800 -0.729100
vn 0.304700 0.003500 -0.952400
vn 0.847600 0.037200 0.529400
vn -0.869300 -0.066800 -0.489800
vn -0.464700 0.885300 -0.016500
vn -0.192900 -0.031100 0.980700
vn -0.340300 0.237500 0.909800
vn 0.820800 0.080800 0.565400
vn -0.721900 -0.363100 0.589100
vn -0.648800 0.556800 0.518600
vn 0.457700 0.887100 -0.059500
vn 0.279700 0.246200 -0.928000
vn -0.582400 0.812800 0.010900
vn -0.885700 0.049700 -0.461500
vn 0.373000 -0.182600 -0.909700
vn 0.238000 0.971000 -0.020900
vn -0.886200 0.050900 -0.460500
vn -0.804700 -0.287100 0.519700
vn -0.649900 0.553000 0.521300
vn -0.190600 -0.047100 0.980500
vn 0.926300 0.101300 0.362900
vn -0.883100 0.068900 -0.464200
vn -0.888600 0.064100 -0.454200
vn -0.884400 0.002900 -0.466700
vn 0.845100 0.018600 0.534300
vn -0.914100 -0.027900 -0.404400
vn 0.842900 0.014600 0.537900
usemtl TPL_EVT_BRU_BR_02
s off
f 6/1/1 8/2/1 22/3/1
f 22/3/2 8/2/2 4/4/2
f 5/5/3 24/6/3 18/7/3
f 23/3/4 11/2/4 9/4/4
f 10/5/5 25/6/5 20/7/5
f 20/7/6 12/8/6 10/5/6
f 17/1/7 11/2/7 23/3/7
f 3/9/8 13/10/8 19/11/8
f 28/12/9 15/13/9 27/14/9
f 1/15/10 36/16/10 30/17/10
f 18/7/11 16/8/11 5/5/11
f 33/18/12 35/19/12 29/20/12
f 15/13/13 28/12/13 26/21/13
f 24/22/14 5/23/14 22/24/14
f 25/22/15 10/23/15 23/24/15
f 18/7/16 24/6/16 4/25/16
f 22/24/17 4/26/17 24/22/17
f 20/7/18 25/6/18 9/25/18
f 23/24/19 9/26/19 25/22/19
f 26/21/20 14/27/20 21/28/20
f 35/19/21 33/18/21 1/29/21
f 26/21/22 28/12/22 14/27/22
f 28/30/23 33/31/23 29/32/23
f 30/17/24 36/16/24 31/33/24
f 29/32/25 35/34/25 34/35/25
f 31/33/26 36/16/26 19/11/26
f 29/32/27 34/35/27 32/36/27
f 32/37/28 34/38/28 19/39/28
f 27/40/29 33/31/29 28/30/29
f 34/35/30 35/34/30 31/41/30
f 34/38/31 31/42/31 19/39/31
f 1/29/32 30/43/32 35/19/32
f 35/34/33 30/44/33 31/41/33
f 19/11/34 36/16/34 3/9/34
usemtl TPL_EVT_BRU_BR_01
f 33/45/35 7/46/35 38/47/35
f 37/48/36 2/49/36 32/50/36
f 8/51/37 6/52/37 16/53/37
f 15/54/38 21/55/38 2/56/38
f 2/56/39 7/57/39 15/54/39
f 7/46/40 27/58/40 15/59/40
f 16/60/41 6/1/41 22/3/41
f 12/60/42 17/1/42 23/3/42
f 11/51/43 17/52/43 12/53/43
f 4/25/44 8/61/44 18/7/44
f 16/53/45 18/62/45 8/51/45
f 2/49/46 29/63/46 32/50/46
f 9/25/47 11/61/47 20/7/47
f 12/53/48 20/62/48 11/51/48
f 2/49/49 21/64/49 29/63/49
f 16/60/50 22/3/50 5/65/50
f 12/60/51 23/3/51 10/65/51
f 15/54/52 26/66/52 21/55/52
f 36/67/53 1/68/53 33/45/53
f 29/63/54 21/64/54 14/69/54
f 29/63/55 14/69/55 28/70/55
f 13/71/56 32/50/56 19/72/56
f 27/58/35 7/46/35 33/45/35
f 3/73/57 38/47/57 7/46/57
f 32/50/58 13/71/58 37/48/58
f 3/73/57 36/67/57 38/47/57
f 33/45/35 38/47/35 36/67/35
f 7/46/59 39/74/59 3/73/59
