# Blender v2.75 (sub 0) OBJ File: 'Empty.blend'
# www.blender.org
mtllib TPL_EVT_BRIDGESTONE_01.mtl
o TPL_EVT_BRIDGESTONE_01
v -1.623320 -1.183605 -3.923921
v -0.637500 -1.065919 3.923926
v 0.107852 1.547982 -3.762598
v 1.381523 1.399529 3.825351
v -0.707109 2.241434 0.308301
v 2.121406 1.074414 -2.842016
v -2.121406 0.155874 0.778081
v -0.393672 -2.241434 -2.500239
vt 0.949364 -0.854963
vt 0.655047 -0.398394
vt 0.296676 -0.578762
vt 0.528014 0.000191
vt 0.000503 -0.398394
vt 0.219103 -0.854963
vt 0.949788 -0.147847
vt 0.470568 0.000191
vt 0.265741 -0.158394
vt 0.882798 -0.158394
vt 0.518830 -1.004358
vt 0.529432 0.000191
vt 0.050212 -0.147847
vt 0.481170 -1.004358
vt 0.818897 -0.357178
vt 0.050636 -0.854963
vt 0.000496 -0.357178
vt 0.671434 -1.004358
vt 0.844713 -0.578762
vt 0.207645 -0.147847
vn -0.648800 0.556800 0.518600
vn 0.457700 0.887100 -0.059500
vn 0.373000 -0.182600 -0.909700
vn 0.238000 0.971000 -0.020900
vn -0.649900 0.553000 0.521300
vn -0.814100 0.530000 -0.237200
vn 0.795900 -0.589500 0.138100
vn 0.770700 -0.626500 0.116100
vn -0.826400 0.503800 -0.251300
vn -0.743000 -0.662800 0.093100
vn 0.486100 -0.446200 -0.751400
vn -0.722400 -0.681400 0.117600
usemtl TPL_EVT_BRIDGESTONE_01
s off
f 4/1/1 5/2/1 7/3/1
f 3/4/2 5/5/2 4/6/2
f 1/7/3 3/8/3 6/9/3
f 4/6/4 6/10/4 3/4/4
f 4/1/5 7/3/5 2/11/5
usemtl TPL_EVT_BRIDGESTONE_02
f 7/3/6 3/12/6 1/13/6
f 2/14/7 8/15/7 6/9/7
f 6/9/8 4/16/8 2/14/8
f 5/2/9 3/12/9 7/3/9
f 8/17/10 2/18/10 7/19/10
f 6/9/11 8/15/11 1/7/11
f 7/19/12 1/20/12 8/17/12
