# Blender v2.75 (sub 0) OBJ File: 'Empty.blend'
# www.blender.org
mtllib TPL_DOORDECO_V1.mtl
o TPL_DOORDECO_V1
v 1.419201 2.083587 0.066398
v -2.030143 0.480838 0.066388
v 2.030138 0.480838 -0.092299
v -1.419217 2.083587 -0.092308
v 0.591137 1.122118 0.065970
v -0.591410 1.602223 0.065989
v 0.591387 1.602223 -0.091877
v -0.591134 1.122118 -0.091905
v -1.419201 2.083587 0.066398
v 1.419217 2.083587 -0.092308
v -2.030138 0.480838 -0.092299
v 2.030143 0.480838 0.066388
v 0.591410 1.602223 0.065989
v -0.591387 1.602223 -0.091877
v -0.591137 1.122118 0.065970
v 0.591134 1.122118 -0.091905
v 0.000000 1.122118 0.065979
v 0.000000 1.602223 0.065985
v 0.000000 1.122118 -0.091913
v 0.000000 1.602223 -0.091902
vt -0.461019 0.600430
vt -0.690997 0.941639
vt -0.374505 1.039990
vt 0.026764 -0.184282
vt 0.026888 -0.632881
vt -0.022452 -0.184283
vt 0.516835 -0.367315
vt 0.320291 -0.052538
vt 0.608643 0.026149
vt 0.026764 0.184282
vt -0.022452 0.184283
vt 0.026888 0.632881
vt 0.262781 0.154714
vt 0.133503 0.204126
vt 0.209041 0.247795
vt -0.487505 -0.372040
vt -0.382021 0.017980
vt -0.672943 -0.050595
vt 0.383584 0.041183
vt 0.302166 0.116231
vt 0.536053 0.116232
vt 0.536044 0.053800
vt 0.302166 0.053790
vt 1.506367 0.603741
vt 1.623332 1.036195
vt 1.300751 0.960161
vt -0.624491 1.047946
vt -0.755482 1.129798
vt -0.259092 0.116393
vt 0.068278 0.116232
vt -0.259098 0.053629
vt 0.863429 0.053629
vt -0.022582 0.632883
vt -0.022582 -0.632883
vt 0.863423 0.116393
vt -0.606418 0.040860
vt 1.374511 1.061569
vt 0.068288 0.053800
vt -0.022455 -0.000000
vt 0.187218 0.111088
vt -0.821932 1.023457
vt 0.026767 -0.000000
vt 0.240934 0.018050
vt 0.316521 0.061633
vt 1.249549 1.152359
vt 1.175842 1.050911
vn -0.000300 -0.000100 -1.000000
vn -0.407100 -0.913400 0.000000
vn 0.000400 -0.000100 1.000000
vn 0.407100 -0.913400 0.000000
vn -0.000000 -0.000000 1.000000
vn -0.000400 -0.000100 1.000000
vn 0.000500 -0.000000 1.000000
vn 0.000000 1.000000 0.000000
vn 0.000300 -0.000100 -1.000000
vn -0.000600 0.000100 -1.000000
vn 0.000000 0.000100 -1.000000
vn 0.502700 0.864500 -0.000100
vn -0.502700 0.864500 0.000100
vn -0.502700 0.864500 -0.000100
vn -0.000500 -0.000000 1.000000
vn 0.000600 0.000100 -1.000000
vn 0.502700 0.864500 0.000100
vn 0.000000 -1.000000 0.000000
vn 0.000000 0.000000 -1.000000
usemtl OTWAMARBEL05
s off
f 3/1/1 16/2/1 10/3/1
f 16/4/2 3/5/2 5/6/2
f 2/7/3 15/8/3 9/9/3
f 8/10/4 15/11/4 11/12/4
f 18/13/5 5/14/5 13/15/5
f 12/16/6 1/17/6 5/18/6
f 15/8/7 6/19/7 9/9/7
f 18/20/8 13/21/8 7/22/8
f 18/20/8 7/22/8 20/23/8
f 11/24/9 4/25/9 8/26/9
f 7/27/10 10/3/10 16/2/10
f 20/28/11 7/27/11 16/2/11
f 9/29/12 6/30/12 4/31/12
f 13/21/13 10/32/13 7/22/13
f 2/33/4 11/12/4 15/11/4
f 12/34/2 5/6/2 3/5/2
f 1/35/14 10/32/14 13/21/14
f 5/18/15 1/17/15 13/36/15
f 14/37/16 8/26/16 4/25/16
f 6/30/17 14/38/17 4/31/17
f 17/39/18 16/4/18 5/6/18
f 5/14/5 18/13/5 17/40/5
f 20/28/19 16/2/19 19/41/19
f 17/39/18 19/42/18 16/4/18
f 18/13/5 15/43/5 17/40/5
f 17/39/18 15/11/18 8/10/18
f 18/20/8 14/38/8 6/30/8
f 15/43/5 18/13/5 6/44/5
f 20/45/19 19/46/19 8/26/19
f 17/39/18 8/10/18 19/42/18
f 20/45/11 8/26/11 14/37/11
f 18/20/8 20/23/8 14/38/8
